<?xml version="1.0" encoding="utf-8"?>
<!-- Generator: Adobe Illustrator 26.5.0, SVG Export Plug-In . SVG Version: 6.00 Build 0)  -->
<svg version="1.1" id="Layer_1" xmlns="http://www.w3.org/2000/svg" xmlns:xlink="http://www.w3.org/1999/xlink" x="0px" y="0px"
	 viewBox="0 0 1152.7 133.4" style="enable-background:new 0 0 1152.7 133.4;" xml:space="preserve">
<style type="text/css">
	.st0{fill:none;stroke:#000000;stroke-width:1.6609;stroke-linejoin:bevel;stroke-miterlimit:1.3287;}
	.st1{fill:none;stroke:#000000;stroke-width:5.315;stroke-linejoin:bevel;stroke-miterlimit:1.3287;}
	.st2{enable-background:new    ;}
	.st3{fill:none;stroke:#000000;stroke-width:1.3287;stroke-linejoin:bevel;stroke-miterlimit:1.3287;}
	.st4{fill:none;stroke:#000000;stroke-width:0.9966;stroke-linejoin:bevel;stroke-miterlimit:1.3287;}
	.st5{fill-rule:evenodd;clip-rule:evenodd;stroke:#000000;stroke-width:0.3322;stroke-linejoin:bevel;stroke-miterlimit:1.3287;}
</style>
<g>
	<g transform="matrix(1.32874,0,0,1.32874,0,0)">
		<line vector-effect="none" class="st0" x1="118.2" y1="37.3" x2="118.2" y2="69.3"/>
	</g>
	<g transform="matrix(1.32874,0,0,1.32874,0,0)">
		<line vector-effect="none" class="st0" x1="185" y1="37.3" x2="185" y2="69.3"/>
	</g>
	<g transform="matrix(1.32874,0,0,1.32874,0,0)">
		<line vector-effect="none" class="st0" x1="252" y1="37.3" x2="252" y2="69.3"/>
	</g>
	<g transform="matrix(1.32874,0,0,1.32874,0,0)">
		<line vector-effect="none" class="st0" x1="321.8" y1="37.3" x2="321.8" y2="69.3"/>
	</g>
	<g transform="matrix(1.32874,0,0,1.32874,0,0)">
		<line vector-effect="none" class="st0" x1="388.5" y1="37.3" x2="388.5" y2="69.3"/>
	</g>
	<g transform="matrix(1.32874,0,0,1.32874,0,0)">
		<line vector-effect="none" class="st0" x1="455.2" y1="37.3" x2="455.2" y2="69.3"/>
	</g>
	<g transform="matrix(1.32874,0,0,1.32874,0,0)">
		<line vector-effect="none" class="st0" x1="522.2" y1="37.3" x2="522.2" y2="69.3"/>
	</g>
	<g transform="matrix(1.32874,0,0,1.32874,0,0)">
		<line vector-effect="none" class="st0" x1="592" y1="37.3" x2="592" y2="69.3"/>
	</g>
	<g transform="matrix(1.32874,0,0,1.32874,0,0)">
		<line vector-effect="none" class="st0" x1="658.8" y1="37.3" x2="658.8" y2="69.3"/>
	</g>
	<g transform="matrix(1.32874,0,0,1.32874,0,0)">
		<line vector-effect="none" class="st0" x1="725.5" y1="37.3" x2="725.5" y2="69.3"/>
	</g>
	<g transform="matrix(1.32874,0,0,1.32874,0,0)">
		<line vector-effect="none" class="st0" x1="792.5" y1="37.3" x2="792.5" y2="69.3"/>
	</g>
	<g transform="matrix(1.32874,0,0,1.32874,0,0)">
		<line vector-effect="none" class="st0" x1="859.8" y1="37.3" x2="859.8" y2="69.3"/>
	</g>
	<g transform="matrix(1.32874,0,0,1.32874,0,0)">
		<line vector-effect="none" class="st1" x1="865.5" y1="37.3" x2="865.5" y2="69.3"/>
	</g>
	<g transform="matrix(1.32874,0,0,1.32874,0,0)">
	</g>
	<g transform="matrix(1.32874,0,0,1.32874,332.185,2743.07)">
	</g>
	<g transform="matrix(1.32874,0,0,1.32874,332.185,2743.07)">
		<g class="st2">
			<path d="M-200.6-2016c0,0.4-0.2,0.7-0.5,0.7h-1.9v1.7c0,1,0.6,1.2,1,1.2s0.7,0.2,0.7,0.6c0,0.5-0.3,0.6-0.6,0.6h-7.5
				c-0.5,0-0.6-0.3-0.6-0.6c0-0.3,0.2-0.6,0.7-0.6c0.6,0,1.3-0.3,1.3-1.1v-1.8h-5.8c-0.4,0-0.6-0.4-0.6-0.7c0-0.1,0-0.2,0.1-0.3
				c0,0,0-0.1,0-0.1l0.2-0.3c0.9-1.3,3.6-5.7,3.6-9.6c0-0.5,0.4-0.6,0.7-0.6c0.3,0,2.1,0.1,2.6,0.1c0.6,0,2.3-0.1,2.5-0.1
				c0.3,0,0.5,0.2,0.5,0.5c0,0.1,0,0.1,0,0.1c-0.1,0.4-5.5,7.4-8.1,9.5h4.3v-2.5c0-0.4,0.2-0.6,0.3-0.7l3.8-3.6
				c0.2-0.2,0.3-0.3,0.6-0.3c0.4,0,0.4,0.3,0.4,0.5v6.6h1.9C-200.7-2016.7-200.6-2016.4-200.6-2016z"/>
		</g>
	</g>
	<g transform="matrix(1.32874,0,0,1.32874,332.185,2743.07)">
		<g class="st2">
			<path d="M-200.6-1999.9c0,0.4-0.2,0.7-0.5,0.7h-1.9v1.7c0,1,0.6,1.2,1,1.2s0.7,0.2,0.7,0.6c0,0.5-0.3,0.6-0.6,0.6h-7.5
				c-0.5,0-0.6-0.3-0.6-0.6c0-0.3,0.2-0.6,0.7-0.6c0.6,0,1.3-0.3,1.3-1.1v-1.8h-5.8c-0.4,0-0.6-0.4-0.6-0.7c0-0.1,0-0.2,0.1-0.3
				c0,0,0-0.1,0-0.1l0.2-0.3c0.9-1.3,3.6-5.7,3.6-9.6c0-0.5,0.4-0.6,0.7-0.6c0.3,0,2.1,0.1,2.6,0.1c0.6,0,2.3-0.1,2.5-0.1
				c0.3,0,0.5,0.2,0.5,0.5c0,0.1,0,0.1,0,0.1c-0.1,0.4-5.5,7.4-8.1,9.5h4.3v-2.5c0-0.4,0.2-0.6,0.3-0.7l3.8-3.6
				c0.2-0.2,0.3-0.3,0.6-0.3c0.4,0,0.4,0.3,0.4,0.5v6.6h1.9C-200.7-2000.6-200.6-2000.3-200.6-1999.9z"/>
		</g>
	</g>
	<g transform="matrix(1.32874,0,0,1.32874,332.185,2743.07)">
	</g>
	<g transform="matrix(1.32874,0,0,1.32874,0,0)">
	</g>
	<g transform="matrix(1.32874,0,0,1.32874,0,0)">
		<line vector-effect="none" class="st3" x1="0" y1="69.3" x2="867.2" y2="69.3"/>
	</g>
	<g transform="matrix(1.32874,0,0,1.32874,0,0)">
		<line vector-effect="none" class="st3" x1="0" y1="61.3" x2="867.2" y2="61.3"/>
	</g>
	<g transform="matrix(1.32874,0,0,1.32874,0,0)">
		<line vector-effect="none" class="st3" x1="0" y1="53.3" x2="867.2" y2="53.3"/>
	</g>
	<g transform="matrix(1.32874,0,0,1.32874,0,0)">
		<line vector-effect="none" class="st3" x1="0" y1="45.3" x2="867.2" y2="45.3"/>
	</g>
	<g transform="matrix(1.32874,0,0,1.32874,0,0)">
		<line vector-effect="none" class="st3" x1="0" y1="37.3" x2="867.2" y2="37.3"/>
	</g>
	<g transform="matrix(1.32874,0,0,1.32874,0,0)">
		<g class="st2">
			<path d="M23,46.2c0,4.2-1.7,8.1-4.4,11.1c-3.4,3.6-7.5,6.1-11.7,8.2c-0.2,0.1-0.4,0.2-0.5,0.2c-0.3,0-0.4-0.2-0.4-0.4
				c0-0.3,0.2-0.4,0.5-0.6c4-2.3,7.3-5,9.2-8c2-3.1,2.7-6.9,2.7-10.2c0-5-1.5-8.4-4.9-8.4c-3.3,0-5.2,2.3-5.2,3.6
				c0,0.3,0.1,0.6,0.5,0.6c0.4,0,0.7-0.2,1.6-0.2c1.6,0,3.1,1.3,3.1,3.3c0,2-1.4,3.4-3.4,3.4c-2.6,0-3.9-2.2-3.9-4.8
				c0-3.1,2.5-7.1,8.1-7.1C19.6,36.9,23,40.7,23,46.2z M27.9,41.3c0,1-0.8,1.8-1.8,1.8s-1.8-0.8-1.8-1.8s0.8-1.8,1.8-1.8
				S27.9,40.3,27.9,41.3z M27.9,49.3c0,1-0.7,1.7-1.7,1.7s-1.7-0.7-1.7-1.7s0.7-1.7,1.7-1.7S27.9,48.3,27.9,49.3z"/>
		</g>
	</g>
	<g transform="matrix(1.32874,0,0,1.32874,0,0)">
		<path vector-effect="none" class="st4" d="M72.5,80.6c9.2,12,53.2,14.5,64.2,4"/>
	</g>
	<g transform="matrix(1.32874,0,0,1.32874,0,0)">
		<path vector-effect="none" class="st5" d="M72.5,80.6c9.2,11,53.2,13.5,64.2,4C125.8,96.1,81.8,93.6,72.5,80.6"/>
	</g>
	<g transform="matrix(1.32874,0,0,1.32874,0,0)">
		<path vector-effect="none" class="st4" d="M206,80.6c9.8,12,56.2,15,67.5,4"/>
	</g>
	<g transform="matrix(1.32874,0,0,1.32874,0,0)">
		<path vector-effect="none" class="st5" d="M206,80.6c9.8,11,56.2,14,67.5,4C262.2,96.6,215.8,93.6,206,80.6"/>
	</g>
	<g transform="matrix(1.32874,0,0,1.32874,0,0)">
		<path vector-effect="none" class="st4" d="M342.8,80.6c8.5,12.5,52.5,18,64.2,8"/>
	</g>
	<g transform="matrix(1.32874,0,0,1.32874,0,0)">
		<path vector-effect="none" class="st5" d="M342.8,80.6c8.5,11.5,52.5,17,64.2,8C395.2,99.6,351.2,94.1,342.8,80.6"/>
	</g>
	<g transform="matrix(1.32874,0,0,1.32874,0,0)">
		<path vector-effect="none" class="st4" d="M476.2,80.6c9,12.8,55.5,18.2,67.5,8"/>
	</g>
	<g transform="matrix(1.32874,0,0,1.32874,0,0)">
		<path vector-effect="none" class="st5" d="M476.2,80.6c9,11.8,55.5,17.2,67.5,8C531.8,99.8,485.2,94.3,476.2,80.6"/>
	</g>
	<g transform="matrix(1.32874,0,0,1.32874,0,0)">
		<path vector-effect="none" class="st4" d="M613,80.6c8,13.2,52,21.2,64.2,12"/>
	</g>
	<g transform="matrix(1.32874,0,0,1.32874,0,0)">
		<path vector-effect="none" class="st5" d="M613,80.6c8.2,12.2,52.2,20.2,64.2,12C664.8,102.8,620.8,94.8,613,80.6"/>
	</g>
	<g transform="matrix(1.32874,0,0,1.32874,0,0)">
		<path vector-effect="none" class="st4" d="M746.5,80.6c7.2,13.5,51.5,24.8,64.5,16"/>
	</g>
	<g transform="matrix(1.32874,0,0,1.32874,0,0)">
		<path vector-effect="none" class="st5" d="M746.5,80.6c7.5,12.5,51.8,23.8,64.5,16C797.8,106.3,753.5,95.1,746.5,80.6"/>
	</g>
	<g transform="matrix(1.32874,0,0,1.32874,143.504,2669.45)">
	</g>
	<g transform="matrix(1.32874,0,0,1.32874,143.504,2669.45)">
		<g class="st2">
			<path d="M-100-1996h-7.5v-0.2c2.3-2.7,3.7-4.6,4.2-5.5c0.5-0.9,0.7-1.9,0.7-2.8c0-0.7-0.2-1.2-0.6-1.6c-0.4-0.4-0.9-0.7-1.5-0.7
				c-1,0-1.7,0.5-2.2,1.4l-0.3-0.1c0.3-1.2,0.9-2.1,1.5-2.7c0.7-0.6,1.5-0.9,2.4-0.9c0.6,0,1.2,0.2,1.8,0.5c0.5,0.3,0.9,0.7,1.3,1.2
				c0.3,0.5,0.5,1,0.5,1.5c0,0.8-0.2,1.7-0.7,2.5c-0.6,1.2-2,2.8-4.1,4.8h2.8c0.7,0,1.1,0,1.3-0.1c0.2-0.1,0.4-0.2,0.5-0.3
				c0.1-0.1,0.3-0.4,0.5-0.9h0.3L-100-1996z"/>
			<path d="M-94.1-2004.8v1.1c0.5-0.5,0.9-0.8,1.3-1.1c0.4-0.2,0.9-0.3,1.3-0.3c0.6,0,1,0.2,1.4,0.5c0.4,0.3,0.6,0.7,0.8,1.2
				c0.1,0.4,0.2,1,0.2,2.1v3.4c0,0.7,0.1,1.1,0.2,1.3c0.1,0.2,0.4,0.3,0.8,0.3v0.3h-4.4v-0.3c0.3,0,0.6-0.2,0.7-0.4
				c0.1-0.2,0.2-0.5,0.2-1.2v-3.9c0-0.7,0-1.2-0.1-1.4c-0.1-0.2-0.2-0.3-0.3-0.4c-0.1-0.1-0.3-0.2-0.4-0.2c-0.5,0-1,0.4-1.5,1.2v4.7
				c0,0.7,0.1,1.1,0.2,1.3c0.1,0.2,0.3,0.3,0.7,0.3v0.3h-4.4v-0.3c0.4,0,0.6-0.2,0.8-0.4c0.1-0.1,0.2-0.5,0.2-1.2v-5
				c0-0.7-0.1-1.1-0.2-1.2c-0.1-0.2-0.4-0.3-0.8-0.3v-0.3H-94.1z"/>
			<path d="M-78.5-2008.7v10.1c0,0.7,0,1.1,0.1,1.2c0,0.2,0.1,0.4,0.3,0.5c0.1,0.1,0.4,0.2,0.7,0.2v0.3l-3.7,0.7v-1.4
				c-0.4,0.5-0.8,0.9-1.2,1.1c-0.3,0.2-0.7,0.3-1.2,0.3c-1.1,0-2-0.5-2.7-1.5c-0.5-0.8-0.8-1.8-0.8-3c0-0.9,0.2-1.8,0.5-2.5
				c0.3-0.7,0.8-1.3,1.3-1.7c0.6-0.4,1.2-0.6,1.8-0.6c0.4,0,0.8,0.1,1.1,0.2c0.3,0.2,0.7,0.4,1,0.9v-2.7c0-0.7,0-1.1-0.1-1.2
				c-0.1-0.2-0.2-0.3-0.3-0.4c-0.2-0.1-0.4-0.1-0.8-0.1v-0.4H-78.5z M-81.1-2002.7c-0.5-0.9-1-1.3-1.7-1.3c-0.2,0-0.4,0.1-0.6,0.2
				c-0.2,0.2-0.4,0.5-0.6,1c-0.1,0.5-0.2,1.2-0.2,2.2c0,1.1,0.1,1.9,0.2,2.5c0.2,0.5,0.4,0.9,0.7,1.2c0.1,0.1,0.3,0.2,0.6,0.2
				c0.6,0,1.1-0.4,1.6-1.3V-2002.7z"/>
			<path d="M-67-2001.7v3.5c0,0.7,0,1.1,0.1,1.3s0.2,0.3,0.5,0.4c0.2,0.1,0.6,0.2,1.2,0.2v0.3h-6.5v-0.3c0.6,0,1-0.1,1.2-0.2
				s0.4-0.3,0.4-0.4c0.1-0.2,0.1-0.6,0.1-1.3v-8.3c0-0.7,0-1.1-0.1-1.3c-0.1-0.2-0.2-0.3-0.4-0.4c-0.2-0.1-0.6-0.2-1.2-0.2v-0.3h5.6
				c1.8,0,3.1,0.3,3.9,1c0.8,0.7,1.2,1.5,1.2,2.4c0,0.8-0.3,1.5-0.8,2.1c-0.5,0.6-1.2,1-2.1,1.2C-64.5-2001.8-65.5-2001.7-67-2001.7
				z M-67-2008v5.5c0.2,0,0.4,0,0.5,0c0.8,0,1.4-0.2,1.8-0.7c0.4-0.5,0.6-1.2,0.6-2.1c0-0.9-0.2-1.6-0.6-2.1c-0.4-0.4-1-0.7-1.9-0.7
				H-67z"/>
			<path d="M-54.9-1997.3c-1.1,0.9-2,1.4-2.9,1.4c-0.5,0-0.9-0.2-1.3-0.5c-0.3-0.3-0.5-0.7-0.5-1.2c0-0.7,0.3-1.3,0.9-1.8
				s1.8-1.2,3.8-2.1v-0.9c0-0.7,0-1.1-0.1-1.3c-0.1-0.2-0.2-0.3-0.4-0.5c-0.2-0.1-0.4-0.2-0.7-0.2c-0.4,0-0.7,0.1-1,0.3
				c-0.2,0.1-0.2,0.2-0.2,0.4c0,0.1,0.1,0.3,0.3,0.5c0.2,0.3,0.4,0.5,0.4,0.8c0,0.3-0.1,0.6-0.3,0.8c-0.2,0.2-0.5,0.3-0.9,0.3
				c-0.4,0-0.7-0.1-1-0.4s-0.4-0.5-0.4-0.8c0-0.5,0.2-0.9,0.5-1.3c0.4-0.4,0.9-0.7,1.5-0.9c0.6-0.2,1.3-0.3,2-0.3
				c0.8,0,1.5,0.2,2,0.5c0.5,0.4,0.8,0.7,0.9,1.2c0.1,0.3,0.1,0.9,0.1,1.8v3.4c0,0.4,0,0.7,0,0.8c0,0.1,0.1,0.2,0.1,0.2
				c0.1,0,0.1,0.1,0.2,0.1c0.2,0,0.3-0.1,0.5-0.3l0.3,0.2c-0.3,0.5-0.6,0.8-1,1c-0.3,0.2-0.7,0.3-1.1,0.3c-0.5,0-0.9-0.1-1.2-0.4
				C-54.7-1996.4-54.8-1996.8-54.9-1997.3z M-54.9-1997.9v-2.9c-0.8,0.4-1.3,0.9-1.7,1.4c-0.2,0.3-0.4,0.7-0.4,1
				c0,0.3,0.1,0.5,0.3,0.8c0.2,0.2,0.4,0.3,0.7,0.3C-55.7-1997.4-55.3-1997.6-54.9-1997.9z"/>
			<path d="M-46.5-2004.8v2c0.6-0.9,1.1-1.5,1.5-1.8c0.4-0.3,0.9-0.4,1.3-0.4c0.4,0,0.6,0.1,0.8,0.3c0.2,0.2,0.3,0.5,0.3,0.9
				c0,0.4-0.1,0.7-0.3,1c-0.2,0.2-0.4,0.3-0.7,0.3c-0.3,0-0.6-0.1-0.9-0.3s-0.4-0.3-0.4-0.4c-0.1,0-0.1-0.1-0.2-0.1
				c-0.2,0-0.4,0.1-0.5,0.2c-0.3,0.2-0.5,0.5-0.6,0.9c-0.2,0.6-0.3,1.3-0.3,2v2l0,0.5c0,0.4,0,0.6,0.1,0.7c0.1,0.2,0.2,0.3,0.3,0.4
				c0.1,0.1,0.4,0.1,0.7,0.1v0.3h-4.7v-0.3c0.4,0,0.6-0.1,0.8-0.3c0.1-0.2,0.2-0.6,0.2-1.4v-4.9c0-0.5,0-0.8-0.1-1
				c-0.1-0.2-0.2-0.3-0.3-0.4c-0.1-0.1-0.3-0.1-0.6-0.2v-0.3H-46.5z"/>
			<path d="M-38.1-2008v3.2h2.1v0.9h-2.1v5.4c0,0.5,0,0.8,0.1,1c0,0.1,0.1,0.3,0.2,0.4c0.1,0.1,0.2,0.1,0.3,0.1
				c0.4,0,0.8-0.3,1.2-0.9l0.3,0.2c-0.5,1.2-1.3,1.8-2.5,1.8c-0.6,0-1-0.2-1.4-0.5c-0.4-0.3-0.6-0.7-0.7-1c-0.1-0.2-0.1-0.8-0.1-1.7
				v-4.7h-1.1v-0.3c0.8-0.6,1.5-1.1,2-1.8c0.6-0.6,1-1.3,1.5-2.1H-38.1z"/>
			<path d="M-31.7-2004.8v7c0,0.6,0.1,1,0.2,1.2c0.1,0.2,0.4,0.3,0.8,0.3v0.3h-4.7v-0.3c0.4,0,0.7-0.1,0.9-0.3
				c0.1-0.1,0.2-0.5,0.2-1.1v-5.1c0-0.6-0.1-1-0.2-1.2c-0.1-0.2-0.4-0.3-0.8-0.3v-0.3H-31.7z M-33-2009c0.4,0,0.8,0.1,1,0.4
				c0.3,0.3,0.4,0.6,0.4,1c0,0.4-0.1,0.7-0.4,1c-0.3,0.3-0.6,0.4-1,0.4s-0.7-0.1-1-0.4c-0.3-0.3-0.4-0.6-0.4-1c0-0.4,0.1-0.7,0.4-1
				C-33.8-2008.9-33.5-2009-33-2009z"/>
			<path d="M-25-1997.3c-1.1,0.9-2,1.4-2.9,1.4c-0.5,0-0.9-0.2-1.3-0.5c-0.3-0.3-0.5-0.7-0.5-1.2c0-0.7,0.3-1.3,0.9-1.8
				c0.6-0.5,1.8-1.2,3.8-2.1v-0.9c0-0.7,0-1.1-0.1-1.3c-0.1-0.2-0.2-0.3-0.4-0.5c-0.2-0.1-0.4-0.2-0.7-0.2c-0.4,0-0.7,0.1-1,0.3
				c-0.2,0.1-0.2,0.2-0.2,0.4c0,0.1,0.1,0.3,0.3,0.5c0.2,0.3,0.4,0.5,0.4,0.8c0,0.3-0.1,0.6-0.3,0.8c-0.2,0.2-0.5,0.3-0.9,0.3
				c-0.4,0-0.7-0.1-1-0.4c-0.3-0.2-0.4-0.5-0.4-0.8c0-0.5,0.2-0.9,0.5-1.3c0.4-0.4,0.9-0.7,1.5-0.9c0.6-0.2,1.3-0.3,2-0.3
				c0.8,0,1.5,0.2,2,0.5c0.5,0.4,0.8,0.7,0.9,1.2c0.1,0.3,0.1,0.9,0.1,1.8v3.4c0,0.4,0,0.7,0,0.8c0,0.1,0.1,0.2,0.1,0.2
				c0.1,0,0.1,0.1,0.2,0.1c0.2,0,0.3-0.1,0.5-0.3l0.3,0.2c-0.3,0.5-0.6,0.8-1,1c-0.3,0.2-0.7,0.3-1.1,0.3c-0.5,0-0.9-0.1-1.2-0.4
				C-24.7-1996.4-24.9-1996.8-25-1997.3z M-25-1997.9v-2.9c-0.8,0.4-1.3,0.9-1.7,1.4c-0.2,0.3-0.4,0.7-0.4,1c0,0.3,0.1,0.5,0.3,0.8
				c0.2,0.2,0.4,0.3,0.7,0.3C-25.7-1997.4-25.4-1997.6-25-1997.9z"/>
			<path d="M-16.8-2008.7v10.9c0,0.6,0.1,1,0.2,1.2c0.1,0.2,0.4,0.3,0.8,0.3v0.3h-4.7v-0.3c0.4,0,0.7-0.1,0.9-0.3
				c0.1-0.1,0.2-0.5,0.2-1.1v-9.1c0-0.6-0.1-1-0.2-1.2c-0.1-0.2-0.4-0.3-0.8-0.3v-0.3H-16.8z"/>
			<path d="M-9.2-1991.8v-17.2H-8v17.2H-9.2z"/>
			<path d="M3.7-2008v5.2H4c0.6,0,1-0.1,1.4-0.3c0.4-0.2,0.7-0.5,0.9-0.9c0.2-0.4,0.4-0.9,0.5-1.6h0.3v6.4H6.8c-0.1-1.2-0.4-2-1-2.4
				S4.7-2002,4-2002H3.7v3.9c0,0.7,0,1.1,0.1,1.2c0.1,0.2,0.2,0.3,0.4,0.4c0.2,0.1,0.5,0.2,0.9,0.2h0.4v0.3h-6.7v-0.3h0.4
				c0.4,0,0.7-0.1,0.9-0.2c0.2-0.1,0.3-0.2,0.4-0.5c0.1-0.1,0.1-0.5,0.1-1.2v-8.4c0-0.7,0-1.1-0.1-1.2c-0.1-0.2-0.2-0.3-0.4-0.4
				c-0.2-0.1-0.5-0.2-0.9-0.2h-0.4v-0.3H9.6v3.7H9.2c-0.1-0.9-0.3-1.5-0.7-1.9c-0.4-0.4-0.9-0.7-1.6-0.9c-0.4-0.1-1.1-0.1-2.1-0.1
				H3.7z"/>
			<path d="M18.4-2008v3.2h2.1v0.9h-2.1v5.4c0,0.5,0,0.8,0.1,1c0,0.1,0.1,0.3,0.2,0.4c0.1,0.1,0.2,0.1,0.3,0.1
				c0.4,0,0.8-0.3,1.2-0.9l0.3,0.2c-0.5,1.2-1.3,1.8-2.5,1.8c-0.6,0-1-0.2-1.4-0.5c-0.4-0.3-0.6-0.7-0.7-1c-0.1-0.2-0.1-0.8-0.1-1.7
				v-4.7h-1.1v-0.3c0.8-0.6,1.5-1.1,2-1.8c0.6-0.6,1-1.3,1.5-2.1H18.4z"/>
			<path d="M25.4-2005c0.8,0,1.5,0.2,2.1,0.6c0.7,0.4,1.2,1,1.5,1.7c0.3,0.7,0.5,1.5,0.5,2.4c0,1.2-0.3,2.3-0.9,3.1
				c-0.8,1-1.8,1.5-3.2,1.5c-1.3,0-2.3-0.5-3.1-1.4c-0.7-0.9-1.1-2-1.1-3.2c0-1.3,0.4-2.4,1.1-3.3C23.2-2004.5,24.2-2005,25.4-2005z
				 M25.5-2004.3c-0.3,0-0.6,0.1-0.8,0.4c-0.2,0.2-0.4,0.7-0.5,1.4c-0.1,0.7-0.1,1.7-0.1,3c0,0.7,0,1.3,0.1,1.9
				c0.1,0.4,0.2,0.8,0.4,1c0.2,0.2,0.5,0.3,0.8,0.3c0.3,0,0.5-0.1,0.7-0.2c0.2-0.2,0.4-0.5,0.5-0.9c0.1-0.6,0.2-1.8,0.2-3.6
				c0-1.1-0.1-1.8-0.2-2.2c-0.1-0.4-0.3-0.7-0.5-0.9C25.9-2004.3,25.7-2004.3,25.5-2004.3z"/>
			<path d="M43.6-2002.7c1.2,0.3,2.1,0.6,2.5,1c0.7,0.6,1.1,1.3,1.1,2.2c0,1-0.4,1.8-1.2,2.4c-0.9,0.8-2.3,1.1-4.1,1.1h-6.5v-0.3
				c0.6,0,1-0.1,1.2-0.2c0.2-0.1,0.4-0.3,0.4-0.4c0.1-0.2,0.1-0.6,0.1-1.3v-8.3c0-0.7,0-1.1-0.1-1.3c-0.1-0.2-0.2-0.3-0.4-0.4
				c-0.2-0.1-0.6-0.2-1.2-0.2v-0.3h6.1c1.5,0,2.5,0.1,3.1,0.4c0.6,0.3,1.1,0.6,1.4,1.2c0.4,0.5,0.5,1.1,0.5,1.6
				c0,0.6-0.2,1.2-0.7,1.6C45.5-2003.4,44.8-2003,43.6-2002.7z M40.2-2002.2v4.1l0,0.5c0,0.3,0.1,0.6,0.3,0.8
				c0.2,0.2,0.4,0.3,0.8,0.3c0.5,0,1-0.1,1.4-0.3c0.4-0.2,0.7-0.5,1-1c0.2-0.4,0.3-0.9,0.3-1.4c0-0.6-0.1-1.1-0.4-1.6
				s-0.7-0.8-1.1-1S41.2-2002.2,40.2-2002.2z M40.2-2003c0.9,0,1.5-0.1,2-0.3c0.4-0.2,0.7-0.5,1-0.8c0.2-0.4,0.3-0.8,0.3-1.4
				c0-0.6-0.1-1-0.3-1.4s-0.5-0.6-1-0.8c-0.4-0.2-1.1-0.3-2-0.3V-2003z"/>
		</g>
	</g>
	<g transform="matrix(1.32874,0,0,1.32874,143.504,2669.45)">
	</g>
	<g transform="matrix(1.32874,0,0,1.32874,0,0)">
	</g>
	<g transform="matrix(1.32874,0,0,1.32874,0,0)">
		<g class="st2">
			<path d="M78.7,73.3c0,2.4-1.8,4.4-7.5,4.4c-5.2,0-7.2-2.1-7.2-4.4c0-2.4,2.9-4.3,7.5-4.3C74.8,69,78.7,70.9,78.7,73.3z M67.7,72
				c0,1.1,0.5,2.3,1.2,3.1c0.2,0.3,0.5,0.5,0.7,0.8c0.5,0.4,1.1,0.7,1.6,0.9c0.3,0.1,0.6,0.1,0.9,0.1c0.4,0,0.7,0,1.1-0.1
				c0.9-0.2,1.4-0.8,1.5-1.7c0-0.2,0.1-0.4,0.1-0.6c0-2.1-1.9-4.7-4.3-4.7c-1.1,0-2.4,0.2-2.8,1.4C67.8,71.5,67.7,71.8,67.7,72z"/>
		</g>
	</g>
	<g transform="matrix(1.32874,0,0,1.32874,0,0)">
		<line vector-effect="none" class="st0" x1="126.8" y1="77.3" x2="149.5" y2="77.3"/>
	</g>
	<g transform="matrix(1.32874,0,0,1.32874,0,0)">
		<g class="st2">
			<path d="M145.4,77.3c0,2.4-1.8,4.4-7.5,4.4c-5.2,0-7.2-2.1-7.2-4.4c0-2.4,2.9-4.3,7.5-4.3C141.5,73,145.4,74.9,145.4,77.3z
				 M134.5,76c0,1.1,0.5,2.3,1.2,3.1c0.2,0.3,0.5,0.5,0.7,0.8c0.5,0.4,1.1,0.7,1.6,0.9c0.3,0.1,0.6,0.1,0.9,0.1c0.4,0,0.7,0,1.1-0.1
				c0.9-0.2,1.4-0.8,1.5-1.7c0-0.2,0.1-0.4,0.1-0.6c0-2.1-1.9-4.7-4.3-4.7c-1.1,0-2.4,0.2-2.8,1.4C134.5,75.5,134.5,75.8,134.5,76z"
				/>
		</g>
	</g>
	<g transform="matrix(1.32874,0,0,1.32874,0,0)">
		<g class="st2">
			<path d="M212.2,73.3c0,2.4-1.8,4.4-7.5,4.4c-5.2,0-7.2-2.1-7.2-4.4c0-2.4,2.9-4.3,7.5-4.3C208.3,69,212.2,70.9,212.2,73.3z
				 M201.2,72c0,1.1,0.5,2.3,1.2,3.1c0.2,0.3,0.5,0.5,0.7,0.8c0.5,0.4,1.1,0.7,1.6,0.9c0.3,0.1,0.6,0.1,0.9,0.1c0.4,0,0.7,0,1.1-0.1
				c0.9-0.2,1.4-0.8,1.5-1.7c0-0.2,0.1-0.4,0.1-0.6c0-2.1-1.9-4.7-4.3-4.7c-1.1,0-2.4,0.2-2.8,1.4C201.3,71.5,201.2,71.8,201.2,72z"
				/>
		</g>
	</g>
	<g transform="matrix(1.32874,0,0,1.32874,0,0)">
		<line vector-effect="none" class="st0" x1="263.5" y1="77.3" x2="286.2" y2="77.3"/>
	</g>
	<g transform="matrix(1.32874,0,0,1.32874,0,0)">
		<g class="st2">
			<path d="M282.2,77.3c0,2.4-1.8,4.4-7.5,4.4c-5.2,0-7.2-2.1-7.2-4.4c0-2.4,2.9-4.3,7.5-4.3C278.3,73,282.2,74.9,282.2,77.3z
				 M271.2,76c0,1.1,0.5,2.3,1.2,3.1c0.2,0.3,0.5,0.5,0.7,0.8c0.5,0.4,1.1,0.7,1.6,0.9c0.3,0.1,0.6,0.1,0.9,0.1c0.4,0,0.7,0,1.1-0.1
				c0.9-0.2,1.4-0.8,1.5-1.7c0-0.2,0.1-0.4,0.1-0.6c0-2.1-1.9-4.7-4.3-4.7c-1.1,0-2.4,0.2-2.8,1.4C271.3,75.5,271.2,75.8,271.2,76z"
				/>
		</g>
	</g>
	<g transform="matrix(1.32874,0,0,1.32874,0,0)">
		<g class="st2">
			<path d="M255,64.2c0-0.6,0.5-0.9,1-0.9c0.3,0,0.6,0.2,0.6,0.5c0,0.6-0.2,8.3-0.2,9c0,0.2,0.1,0.4,0.4,0.5c0.1,0,0.1,0,0.2,0
				c0.3,0,0.5-0.3,0.7-0.4c0.4-0.2,0.7-0.4,1.1-0.4c0.2-0.1,0.4-0.1,0.7-0.1c1.5,0.1,2.9,1.2,2.9,3.1c0,1.5-1,3.4-3.8,5.4
				c-0.8,0.5-1.6,1.4-2.5,2c0,0-0.1,0.1-0.2,0.1c-0.1,0-0.2,0-0.3-0.2C255.1,82.4,255,64.2,255,64.2z M256.9,80.4
				c0.1,0,0.2,0,0.3-0.1c1-0.6,1.9-1.6,2.3-2.4c0.4-0.7,0.5-1.3,0.5-1.9c0-0.6-0.2-1.2-0.5-1.5c-0.2-0.2-0.5-0.4-0.8-0.4
				c-0.3,0-0.5,0.1-0.8,0.2c-0.4,0.3-1.3,1-1.4,1.3c0,0.1-0.1,0.5-0.1,1c0,1.3,0.1,3.2,0.1,3.2C256.5,80.1,256.6,80.4,256.9,80.4z"
				/>
		</g>
	</g>
	<g transform="matrix(1.32874,0,0,1.32874,0,0)">
		<g class="st2">
			<path d="M348.9,73.3c0,2.4-1.8,4.4-7.5,4.4c-5.2,0-7.2-2.1-7.2-4.4c0-2.4,2.9-4.3,7.5-4.3C345,69,348.9,70.9,348.9,73.3z M338,72
				c0,1.1,0.5,2.3,1.2,3.1c0.2,0.3,0.5,0.5,0.7,0.8c0.5,0.4,1.1,0.7,1.6,0.9c0.3,0.1,0.6,0.1,0.9,0.1c0.4,0,0.7,0,1.1-0.1
				c0.9-0.2,1.4-0.8,1.5-1.7c0-0.2,0.1-0.4,0.1-0.6c0-2.1-1.9-4.7-4.3-4.7c-1.1,0-2.4,0.2-2.8,1.4C338,71.5,338,71.8,338,72z"/>
		</g>
	</g>
	<g transform="matrix(1.32874,0,0,1.32874,0,0)">
		<line vector-effect="none" class="st0" x1="397" y1="77.3" x2="419.8" y2="77.3"/>
	</g>
	<g transform="matrix(1.32874,0,0,1.32874,0,0)">
		<g class="st2">
			<path d="M415.7,81.3c0,2.4-1.8,4.4-7.5,4.4c-5.2,0-7.2-2.1-7.2-4.4c0-2.4,2.9-4.3,7.5-4.3C411.8,77,415.7,78.9,415.7,81.3z
				 M404.7,80c0,1.1,0.5,2.3,1.2,3.1c0.2,0.3,0.5,0.5,0.7,0.8c0.5,0.4,1.1,0.7,1.6,0.9c0.3,0.1,0.6,0.1,0.9,0.1c0.4,0,0.7,0,1.1-0.1
				c0.9-0.2,1.4-0.8,1.5-1.7c0-0.2,0.1-0.4,0.1-0.6c0-2.1-1.9-4.7-4.3-4.7c-1.1,0-2.4,0.2-2.8,1.4C404.8,79.5,404.7,79.8,404.7,80z"
				/>
		</g>
	</g>
	<g transform="matrix(1.32874,0,0,1.32874,0,0)">
		<g class="st2">
			<path d="M482.4,73.3c0,2.4-1.8,4.4-7.5,4.4c-5.2,0-7.2-2.1-7.2-4.4c0-2.4,2.9-4.3,7.5-4.3C478.5,69,482.4,70.9,482.4,73.3z
				 M471.5,72c0,1.1,0.5,2.3,1.2,3.1c0.2,0.3,0.5,0.5,0.7,0.8c0.5,0.4,1.1,0.7,1.6,0.9c0.3,0.1,0.6,0.1,0.9,0.1c0.4,0,0.7,0,1.1-0.1
				c0.9-0.2,1.4-0.8,1.5-1.7c0-0.2,0.1-0.4,0.1-0.6c0-2.1-1.9-4.7-4.3-4.7c-1.1,0-2.4,0.2-2.8,1.4C471.5,71.5,471.5,71.8,471.5,72z"
				/>
		</g>
	</g>
	<g transform="matrix(1.32874,0,0,1.32874,0,0)">
		<line vector-effect="none" class="st0" x1="533.8" y1="77.3" x2="556.5" y2="77.3"/>
	</g>
	<g transform="matrix(1.32874,0,0,1.32874,0,0)">
		<g class="st2">
			<path d="M552.4,81.3c0,2.4-1.8,4.4-7.5,4.4c-5.2,0-7.2-2.1-7.2-4.4c0-2.4,2.9-4.3,7.5-4.3C548.5,77,552.4,78.9,552.4,81.3z
				 M541.5,80c0,1.1,0.5,2.3,1.2,3.1c0.2,0.3,0.5,0.5,0.7,0.8c0.5,0.4,1.1,0.7,1.6,0.9c0.3,0.1,0.6,0.1,0.9,0.1c0.4,0,0.7,0,1.1-0.1
				c0.9-0.2,1.4-0.8,1.5-1.7c0-0.2,0.1-0.4,0.1-0.6c0-2.1-1.9-4.7-4.3-4.7c-1.1,0-2.4,0.2-2.8,1.4C541.5,79.5,541.5,79.8,541.5,80z"
				/>
		</g>
	</g>
	<g transform="matrix(1.32874,0,0,1.32874,0,0)">
		<g class="st2">
			<path d="M525.3,68.2c0-0.6,0.5-0.9,1-0.9c0.3,0,0.6,0.2,0.6,0.5c0,0.6-0.2,8.3-0.2,9c0,0.2,0.1,0.4,0.4,0.5c0.1,0,0.1,0,0.2,0
				c0.3,0,0.5-0.3,0.7-0.4c0.4-0.2,0.7-0.4,1.1-0.4c0.2-0.1,0.4-0.1,0.7-0.1c1.5,0.1,2.9,1.2,2.9,3.1c0,1.5-1,3.4-3.8,5.4
				c-0.8,0.5-1.6,1.4-2.5,2c0,0-0.1,0.1-0.2,0.1c-0.1,0-0.2,0-0.3-0.2C525.4,86.4,525.3,68.2,525.3,68.2z M527.1,84.4
				c0.1,0,0.2,0,0.3-0.1c1-0.6,1.9-1.6,2.3-2.4c0.4-0.7,0.5-1.3,0.5-1.9c0-0.6-0.2-1.2-0.5-1.5c-0.2-0.2-0.5-0.4-0.8-0.4
				c-0.3,0-0.5,0.1-0.8,0.2c-0.4,0.3-1.3,1-1.4,1.3c0,0.1-0.1,0.5-0.1,1c0,1.3,0.1,3.2,0.1,3.2C526.8,84.1,526.8,84.4,527.1,84.4z"
				/>
		</g>
	</g>
	<g transform="matrix(1.32874,0,0,1.32874,0,0)">
		<g class="st2">
			<path d="M619.2,73.3c0,2.4-1.8,4.4-7.5,4.4c-5.2,0-7.2-2.1-7.2-4.4c0-2.4,2.9-4.3,7.5-4.3C615.3,69,619.2,70.9,619.2,73.3z
				 M608.2,72c0,1.1,0.5,2.3,1.2,3.1c0.2,0.3,0.5,0.5,0.7,0.8c0.5,0.4,1.1,0.7,1.6,0.9c0.3,0.1,0.6,0.1,0.9,0.1c0.4,0,0.7,0,1.1-0.1
				c0.9-0.2,1.4-0.8,1.5-1.7c0-0.2,0.1-0.4,0.1-0.6c0-2.1-1.9-4.7-4.3-4.7c-1.1,0-2.4,0.2-2.8,1.4C608.3,71.5,608.2,71.8,608.2,72z"
				/>
		</g>
	</g>
	<g transform="matrix(1.32874,0,0,1.32874,0,0)">
		<line vector-effect="none" class="st0" x1="667.2" y1="77.3" x2="690" y2="77.3"/>
	</g>
	<g transform="matrix(1.32874,0,0,1.32874,0,0)">
		<line vector-effect="none" class="st0" x1="667.2" y1="85.3" x2="690" y2="85.3"/>
	</g>
	<g transform="matrix(1.32874,0,0,1.32874,0,0)">
		<g class="st2">
			<path d="M685.9,85.3c0,2.4-1.8,4.4-7.5,4.4c-5.2,0-7.2-2.1-7.2-4.4c0-2.4,2.9-4.3,7.5-4.3C682,81,685.9,82.9,685.9,85.3z M675,84
				c0,1.1,0.5,2.3,1.2,3.1c0.2,0.3,0.5,0.5,0.7,0.8c0.5,0.4,1.1,0.7,1.6,0.9c0.3,0.1,0.6,0.1,0.9,0.1c0.4,0,0.7,0,1.1-0.1
				c0.9-0.2,1.4-0.8,1.5-1.7c0-0.2,0.1-0.4,0.1-0.6c0-2.1-1.9-4.7-4.3-4.7c-1.1,0-2.4,0.2-2.8,1.4C675,83.5,675,83.8,675,84z"/>
		</g>
	</g>
	<g transform="matrix(1.32874,0,0,1.32874,0,0)">
		<g class="st2">
			<path d="M752.7,73.3c0,2.4-1.8,4.4-7.5,4.4c-5.2,0-7.2-2.1-7.2-4.4c0-2.4,2.9-4.3,7.5-4.3C748.8,69,752.7,70.9,752.7,73.3z
				 M741.7,72c0,1.1,0.5,2.3,1.2,3.1c0.2,0.3,0.5,0.5,0.7,0.8c0.5,0.4,1.1,0.7,1.6,0.9c0.3,0.1,0.6,0.1,0.9,0.1c0.4,0,0.7,0,1.1-0.1
				c0.9-0.2,1.4-0.8,1.5-1.7c0-0.2,0.1-0.4,0.1-0.6c0-2.1-1.9-4.7-4.3-4.7c-1.1,0-2.4,0.2-2.8,1.4C741.8,71.5,741.7,71.8,741.7,72z"
				/>
		</g>
	</g>
	<g transform="matrix(1.32874,0,0,1.32874,0,0)">
		<line vector-effect="none" class="st0" x1="801" y1="77.3" x2="823.8" y2="77.3"/>
	</g>
	<g transform="matrix(1.32874,0,0,1.32874,0,0)">
		<line vector-effect="none" class="st0" x1="801" y1="85.3" x2="823.8" y2="85.3"/>
	</g>
	<g transform="matrix(1.32874,0,0,1.32874,0,0)">
		<g class="st2">
			<path d="M819.7,89.3c0,2.4-1.8,4.4-7.5,4.4c-5.2,0-7.2-2.1-7.2-4.4c0-2.4,2.9-4.3,7.5-4.3C815.8,85,819.7,86.9,819.7,89.3z
				 M808.7,88c0,1.1,0.5,2.3,1.2,3.1c0.2,0.3,0.5,0.5,0.7,0.8c0.5,0.4,1.1,0.7,1.6,0.9c0.3,0.1,0.6,0.1,0.9,0.1c0.4,0,0.7,0,1.1-0.1
				c0.9-0.2,1.4-0.8,1.5-1.7c0-0.2,0.1-0.4,0.1-0.6c0-2.1-1.9-4.7-4.3-4.7c-1.1,0-2.4,0.2-2.8,1.4C808.8,87.5,808.7,87.8,808.7,88z"
				/>
		</g>
	</g>
</g>
</svg>
