<?xml version="1.0" encoding="utf-8"?>
<!-- Generator: Adobe Illustrator 26.5.0, SVG Export Plug-In . SVG Version: 6.00 Build 0)  -->
<svg version="1.1" id="Layer_1" xmlns="http://www.w3.org/2000/svg" xmlns:xlink="http://www.w3.org/1999/xlink" x="0px" y="0px"
	 viewBox="0 0 1152.7 189.8" style="enable-background:new 0 0 1152.7 189.8;" xml:space="preserve">
<style type="text/css">
	.st0{fill:none;stroke:#000000;stroke-width:1.6609;stroke-linejoin:bevel;stroke-miterlimit:1.3287;}
	.st1{fill:none;stroke:#000000;stroke-width:5.315;stroke-linejoin:bevel;stroke-miterlimit:1.3287;}
	.st2{enable-background:new    ;}
	.st3{fill:none;stroke:#000000;stroke-width:1.3287;stroke-linejoin:bevel;stroke-miterlimit:1.3287;}
	.st4{fill:none;stroke:#000000;stroke-width:0.9966;stroke-linejoin:bevel;stroke-miterlimit:1.3287;}
	.st5{fill-rule:evenodd;clip-rule:evenodd;stroke:#000000;stroke-width:0.3322;stroke-linejoin:bevel;stroke-miterlimit:1.3287;}
</style>
<g>
	<g transform="matrix(1.32874,0,0,1.32874,0,0)">
		<line vector-effect="none" class="st0" x1="118.8" y1="37.9" x2="118.8" y2="69.9"/>
	</g>
	<g transform="matrix(1.32874,0,0,1.32874,0,0)">
		<line vector-effect="none" class="st0" x1="186" y1="37.9" x2="186" y2="69.9"/>
	</g>
	<g transform="matrix(1.32874,0,0,1.32874,0,0)">
		<line vector-effect="none" class="st0" x1="253.5" y1="37.9" x2="253.5" y2="69.9"/>
	</g>
	<g transform="matrix(1.32874,0,0,1.32874,0,0)">
		<line vector-effect="none" class="st0" x1="320.8" y1="37.9" x2="320.8" y2="69.9"/>
	</g>
	<g transform="matrix(1.32874,0,0,1.32874,0,0)">
		<line vector-effect="none" class="st0" x1="388" y1="37.9" x2="388" y2="69.9"/>
	</g>
	<g transform="matrix(1.32874,0,0,1.32874,0,0)">
		<line vector-effect="none" class="st0" x1="455.2" y1="37.9" x2="455.2" y2="69.9"/>
	</g>
	<g transform="matrix(1.32874,0,0,1.32874,0,0)">
		<line vector-effect="none" class="st0" x1="522.5" y1="37.9" x2="522.5" y2="69.9"/>
	</g>
	<g transform="matrix(1.32874,0,0,1.32874,0,0)">
		<line vector-effect="none" class="st0" x1="589.8" y1="37.9" x2="589.8" y2="69.9"/>
	</g>
	<g transform="matrix(1.32874,0,0,1.32874,0,0)">
		<line vector-effect="none" class="st0" x1="657.2" y1="37.9" x2="657.2" y2="69.9"/>
	</g>
	<g transform="matrix(1.32874,0,0,1.32874,0,0)">
		<line vector-effect="none" class="st0" x1="724.5" y1="37.9" x2="724.5" y2="69.9"/>
	</g>
	<g transform="matrix(1.32874,0,0,1.32874,0,0)">
		<line vector-effect="none" class="st0" x1="791.8" y1="37.9" x2="791.8" y2="69.9"/>
	</g>
	<g transform="matrix(1.32874,0,0,1.32874,0,0)">
		<line vector-effect="none" class="st0" x1="859.8" y1="37.9" x2="859.8" y2="69.9"/>
	</g>
	<g transform="matrix(1.32874,0,0,1.32874,0,0)">
		<line vector-effect="none" class="st1" x1="865.5" y1="37.9" x2="865.5" y2="69.9"/>
	</g>
	<g transform="matrix(1.32874,0,0,1.32874,0,0)">
	</g>
	<g transform="matrix(1.32874,0,0,1.32874,399.951,1504.6)">
	</g>
	<g transform="matrix(1.32874,0,0,1.32874,399.951,1504.6)">
		<g class="st2">
			<path d="M-237.2-1028.7c-0.6,0.6-1.2,0.8-2,0.8s-1.5-0.3-2-0.8c-0.6-0.6-0.8-1.2-0.8-2c0-0.8,0.3-1.5,0.8-2
				c0.6-0.6,1.2-0.8,2-0.8s1.5,0.3,2,0.8c0.6,0.6,0.8,1.2,0.8,2C-236.4-1029.9-236.7-1029.2-237.2-1028.7z M-237.5-1028.9
				c0.5-0.5,0.8-1.1,0.8-1.8c0-0.7-0.2-1.3-0.8-1.8c-0.5-0.5-1.1-0.8-1.8-0.8c-0.7,0-1.3,0.2-1.8,0.8c-0.5,0.5-0.8,1.1-0.8,1.8
				c0,0.7,0.3,1.3,0.8,1.8c0.5,0.5,1.1,0.8,1.8,0.8C-238.6-1028.2-238-1028.4-237.5-1028.9z"/>
		</g>
		<g class="st2">
			<path d="M-229.6-1028.7c-0.6,0.6-1.2,0.8-2,0.8s-1.5-0.3-2-0.8c-0.6-0.6-0.8-1.2-0.8-2c0-0.8,0.3-1.5,0.8-2
				c0.6-0.6,1.2-0.8,2-0.8s1.5,0.3,2,0.8c0.6,0.6,0.8,1.2,0.8,2C-228.8-1029.9-229.1-1029.2-229.6-1028.7z M-229.8-1028.9
				c0.5-0.5,0.8-1.1,0.8-1.8c0-0.7-0.2-1.3-0.8-1.8c-0.5-0.5-1.1-0.8-1.8-0.8c-0.7,0-1.3,0.2-1.8,0.8c-0.5,0.5-0.8,1.1-0.8,1.8
				c0,0.7,0.3,1.3,0.8,1.8c0.5,0.5,1.1,0.8,1.8,0.8C-230.9-1028.2-230.3-1028.4-229.8-1028.9z"/>
		</g>
		<g class="st2">
			<path d="M-222-1028.7c-0.6,0.6-1.2,0.8-2,0.8s-1.5-0.3-2-0.8c-0.6-0.6-0.8-1.2-0.8-2c0-0.8,0.3-1.5,0.8-2c0.6-0.6,1.2-0.8,2-0.8
				s1.5,0.3,2,0.8c0.6,0.6,0.8,1.2,0.8,2C-221.2-1029.9-221.4-1029.2-222-1028.7z M-222.2-1028.9c0.5-0.5,0.8-1.1,0.8-1.8
				c0-0.7-0.2-1.3-0.8-1.8c-0.5-0.5-1.1-0.8-1.8-0.8c-0.7,0-1.3,0.2-1.8,0.8c-0.5,0.5-0.8,1.1-0.8,1.8c0,0.7,0.3,1.3,0.8,1.8
				c0.5,0.5,1.1,0.8,1.8,0.8C-223.3-1028.2-222.7-1028.4-222.2-1028.9z"/>
		</g>
	</g>
	<g transform="matrix(1.32874,0,0,1.32874,399.951,1504.6)">
	</g>
	<g transform="matrix(1.32874,0,0,1.32874,0,0)">
	</g>
	<g transform="matrix(1.32874,0,0,1.32874,757.382,1504.6)">
	</g>
	<g transform="matrix(1.32874,0,0,1.32874,757.382,1504.6)">
		<g class="st2">
			<path d="M-439-1028.7c-0.6,0.6-1.2,0.8-2,0.8s-1.5-0.3-2-0.8c-0.6-0.6-0.8-1.2-0.8-2c0-0.8,0.3-1.5,0.8-2c0.6-0.6,1.2-0.8,2-0.8
				s1.5,0.3,2,0.8c0.6,0.6,0.8,1.2,0.8,2C-438.2-1029.9-438.4-1029.2-439-1028.7z M-439.2-1028.9c0.5-0.5,0.8-1.1,0.8-1.8
				c0-0.7-0.2-1.3-0.8-1.8c-0.5-0.5-1.1-0.8-1.8-0.8c-0.7,0-1.3,0.2-1.8,0.8c-0.5,0.5-0.8,1.1-0.8,1.8c0,0.7,0.3,1.3,0.8,1.8
				c0.5,0.5,1.1,0.8,1.8,0.8C-440.3-1028.2-439.7-1028.4-439.2-1028.9z"/>
		</g>
		<g class="st2">
			<path d="M-431.4-1028.7c-0.6,0.6-1.2,0.8-2,0.8c-0.8,0-1.5-0.3-2-0.8c-0.6-0.6-0.8-1.2-0.8-2c0-0.8,0.3-1.5,0.8-2
				c0.6-0.6,1.2-0.8,2-0.8c0.8,0,1.5,0.3,2,0.8c0.6,0.6,0.8,1.2,0.8,2C-430.5-1029.9-430.8-1029.2-431.4-1028.7z"/>
		</g>
		<g class="st2">
			<path d="M-423.7-1028.7c-0.6,0.6-1.2,0.8-2,0.8s-1.5-0.3-2-0.8c-0.6-0.6-0.8-1.2-0.8-2c0-0.8,0.3-1.5,0.8-2
				c0.6-0.6,1.2-0.8,2-0.8s1.5,0.3,2,0.8c0.6,0.6,0.8,1.2,0.8,2C-422.9-1029.9-423.2-1029.2-423.7-1028.7z M-424-1028.9
				c0.5-0.5,0.8-1.1,0.8-1.8c0-0.7-0.2-1.3-0.8-1.8c-0.5-0.5-1.1-0.8-1.8-0.8c-0.7,0-1.3,0.2-1.8,0.8c-0.5,0.5-0.8,1.1-0.8,1.8
				c0,0.7,0.3,1.3,0.8,1.8c0.5,0.5,1.1,0.8,1.8,0.8C-425.1-1028.2-424.5-1028.4-424-1028.9z"/>
		</g>
	</g>
	<g transform="matrix(1.32874,0,0,1.32874,757.382,1504.6)">
	</g>
	<g transform="matrix(1.32874,0,0,1.32874,0,0)">
	</g>
	<g transform="matrix(1.32874,0,0,1.32874,1114.81,1504.6)">
	</g>
	<g transform="matrix(1.32874,0,0,1.32874,1114.81,1504.6)">
		<g class="st2">
			<path d="M-640.7-1028.7c-0.6,0.6-1.2,0.8-2,0.8c-0.8,0-1.5-0.3-2-0.8c-0.6-0.6-0.8-1.2-0.8-2c0-0.8,0.3-1.5,0.8-2
				c0.6-0.6,1.2-0.8,2-0.8c0.8,0,1.5,0.3,2,0.8c0.6,0.6,0.8,1.2,0.8,2C-639.9-1029.9-640.2-1029.2-640.7-1028.7z M-641-1028.9
				c0.5-0.5,0.8-1.1,0.8-1.8c0-0.7-0.2-1.3-0.8-1.8c-0.5-0.5-1.1-0.8-1.8-0.8c-0.7,0-1.3,0.2-1.8,0.8c-0.5,0.5-0.8,1.1-0.8,1.8
				c0,0.7,0.3,1.3,0.8,1.8c0.5,0.5,1.1,0.8,1.8,0.8C-642.1-1028.2-641.5-1028.4-641-1028.9z"/>
		</g>
		<g class="st2">
			<path d="M-633.1-1028.7c-0.6,0.6-1.2,0.8-2,0.8c-0.8,0-1.5-0.3-2-0.8c-0.6-0.6-0.8-1.2-0.8-2c0-0.8,0.3-1.5,0.8-2
				c0.6-0.6,1.2-0.8,2-0.8c0.8,0,1.5,0.3,2,0.8c0.6,0.6,0.8,1.2,0.8,2C-632.3-1029.9-632.6-1029.2-633.1-1028.7z M-633.3-1028.9
				c0.5-0.5,0.8-1.1,0.8-1.8c0-0.7-0.2-1.3-0.8-1.8c-0.5-0.5-1.1-0.8-1.8-0.8c-0.7,0-1.3,0.2-1.8,0.8c-0.5,0.5-0.8,1.1-0.8,1.8
				c0,0.7,0.3,1.3,0.8,1.8c0.5,0.5,1.1,0.8,1.8,0.8C-634.4-1028.2-633.8-1028.4-633.3-1028.9z"/>
		</g>
		<g class="st2">
			<path d="M-625.5-1028.7c-0.6,0.6-1.2,0.8-2,0.8c-0.8,0-1.5-0.3-2-0.8c-0.6-0.6-0.8-1.2-0.8-2c0-0.8,0.3-1.5,0.8-2
				c0.6-0.6,1.2-0.8,2-0.8c0.8,0,1.5,0.3,2,0.8c0.6,0.6,0.8,1.2,0.8,2C-624.7-1029.9-624.9-1029.2-625.5-1028.7z M-625.7-1028.9
				c0.5-0.5,0.8-1.1,0.8-1.8c0-0.7-0.2-1.3-0.8-1.8c-0.5-0.5-1.1-0.8-1.8-0.8c-0.7,0-1.3,0.2-1.8,0.8c-0.5,0.5-0.8,1.1-0.8,1.8
				c0,0.7,0.3,1.3,0.8,1.8c0.5,0.5,1.1,0.8,1.8,0.8C-626.8-1028.2-626.2-1028.4-625.7-1028.9z"/>
		</g>
	</g>
	<g transform="matrix(1.32874,0,0,1.32874,1114.81,1504.6)">
	</g>
	<g transform="matrix(1.32874,0,0,1.32874,0,0)">
	</g>
	<g transform="matrix(1.32874,0,0,1.32874,1473.57,1504.6)">
	</g>
	<g transform="matrix(1.32874,0,0,1.32874,1473.57,1504.6)">
		<g class="st2">
			<path d="M-843.2-1028.7c-0.6,0.6-1.2,0.8-2,0.8c-0.8,0-1.5-0.3-2-0.8c-0.6-0.6-0.8-1.2-0.8-2c0-0.8,0.3-1.5,0.8-2
				c0.6-0.6,1.2-0.8,2-0.8c0.8,0,1.5,0.3,2,0.8c0.6,0.6,0.8,1.2,0.8,2C-842.4-1029.9-842.7-1029.2-843.2-1028.7z"/>
		</g>
		<g class="st2">
			<path d="M-835.6-1028.7c-0.6,0.6-1.2,0.8-2,0.8c-0.8,0-1.5-0.3-2-0.8c-0.6-0.6-0.8-1.2-0.8-2c0-0.8,0.3-1.5,0.8-2
				c0.6-0.6,1.2-0.8,2-0.8c0.8,0,1.5,0.3,2,0.8c0.6,0.6,0.8,1.2,0.8,2C-834.8-1029.9-835.1-1029.2-835.6-1028.7z M-835.8-1028.9
				c0.5-0.5,0.8-1.1,0.8-1.8c0-0.7-0.2-1.3-0.8-1.8c-0.5-0.5-1.1-0.8-1.8-0.8c-0.7,0-1.3,0.2-1.8,0.8c-0.5,0.5-0.8,1.1-0.8,1.8
				c0,0.7,0.3,1.3,0.8,1.8c0.5,0.5,1.1,0.8,1.8,0.8C-836.9-1028.2-836.3-1028.4-835.8-1028.9z"/>
		</g>
		<g class="st2">
			<path d="M-828-1028.7c-0.6,0.6-1.2,0.8-2,0.8c-0.8,0-1.5-0.3-2-0.8c-0.6-0.6-0.8-1.2-0.8-2c0-0.8,0.3-1.5,0.8-2
				c0.6-0.6,1.2-0.8,2-0.8c0.8,0,1.5,0.3,2,0.8c0.6,0.6,0.8,1.2,0.8,2C-827.2-1029.9-827.4-1029.2-828-1028.7z M-828.2-1028.9
				c0.5-0.5,0.8-1.1,0.8-1.8c0-0.7-0.2-1.3-0.8-1.8c-0.5-0.5-1.1-0.8-1.8-0.8c-0.7,0-1.3,0.2-1.8,0.8c-0.5,0.5-0.8,1.1-0.8,1.8
				c0,0.7,0.3,1.3,0.8,1.8c0.5,0.5,1.1,0.8,1.8,0.8C-829.3-1028.2-828.7-1028.4-828.2-1028.9z"/>
		</g>
	</g>
	<g transform="matrix(1.32874,0,0,1.32874,1473.57,1504.6)">
	</g>
	<g transform="matrix(1.32874,0,0,1.32874,0,0)">
	</g>
	<g transform="matrix(1.32874,0,0,1.32874,1831,1504.6)">
	</g>
	<g transform="matrix(1.32874,0,0,1.32874,1831,1504.6)">
		<g class="st2">
			<path d="M-1045-1028.7c-0.6,0.6-1.2,0.8-2,0.8c-0.8,0-1.5-0.3-2-0.8c-0.6-0.6-0.8-1.2-0.8-2c0-0.8,0.3-1.5,0.8-2
				c0.6-0.6,1.2-0.8,2-0.8c0.8,0,1.5,0.3,2,0.8c0.6,0.6,0.8,1.2,0.8,2C-1044.2-1029.9-1044.4-1029.2-1045-1028.7z M-1045.2-1028.9
				c0.5-0.5,0.8-1.1,0.8-1.8c0-0.7-0.2-1.3-0.8-1.8c-0.5-0.5-1.1-0.8-1.8-0.8c-0.7,0-1.3,0.2-1.8,0.8c-0.5,0.5-0.8,1.1-0.8,1.8
				c0,0.7,0.3,1.3,0.8,1.8c0.5,0.5,1.1,0.8,1.8,0.8C-1046.3-1028.2-1045.7-1028.4-1045.2-1028.9z"/>
		</g>
		<g class="st2">
			<path d="M-1037.4-1028.7c-0.6,0.6-1.2,0.8-2,0.8c-0.8,0-1.5-0.3-2-0.8c-0.6-0.6-0.8-1.2-0.8-2c0-0.8,0.3-1.5,0.8-2
				c0.6-0.6,1.2-0.8,2-0.8c0.8,0,1.5,0.3,2,0.8c0.6,0.6,0.8,1.2,0.8,2C-1036.5-1029.9-1036.8-1029.2-1037.4-1028.7z M-1037.6-1028.9
				c0.5-0.5,0.8-1.1,0.8-1.8c0-0.7-0.2-1.3-0.8-1.8c-0.5-0.5-1.1-0.8-1.8-0.8c-0.7,0-1.3,0.2-1.8,0.8c-0.5,0.5-0.8,1.1-0.8,1.8
				c0,0.7,0.3,1.3,0.8,1.8c0.5,0.5,1.1,0.8,1.8,0.8C-1038.7-1028.2-1038.1-1028.4-1037.6-1028.9z"/>
		</g>
		<g class="st2">
			<path d="M-1029.7-1028.7c-0.6,0.6-1.2,0.8-2,0.8c-0.8,0-1.5-0.3-2-0.8c-0.6-0.6-0.8-1.2-0.8-2c0-0.8,0.3-1.5,0.8-2
				c0.6-0.6,1.2-0.8,2-0.8c0.8,0,1.5,0.3,2,0.8c0.6,0.6,0.8,1.2,0.8,2C-1028.9-1029.9-1029.2-1029.2-1029.7-1028.7z M-1030-1028.9
				c0.5-0.5,0.8-1.1,0.8-1.8c0-0.7-0.2-1.3-0.8-1.8c-0.5-0.5-1.1-0.8-1.8-0.8c-0.7,0-1.3,0.2-1.8,0.8c-0.5,0.5-0.8,1.1-0.8,1.8
				c0,0.7,0.3,1.3,0.8,1.8c0.5,0.5,1.1,0.8,1.8,0.8C-1031.1-1028.2-1030.5-1028.4-1030-1028.9z"/>
		</g>
	</g>
	<g transform="matrix(1.32874,0,0,1.32874,1831,1504.6)">
	</g>
	<g transform="matrix(1.32874,0,0,1.32874,0,0)">
	</g>
	<g transform="matrix(1.32874,0,0,1.32874,2188.44,1504.6)">
	</g>
	<g transform="matrix(1.32874,0,0,1.32874,2188.44,1504.6)">
		<g class="st2">
			<path d="M-1246.7-1028.7c-0.6,0.6-1.2,0.8-2,0.8c-0.8,0-1.5-0.3-2-0.8c-0.6-0.6-0.8-1.2-0.8-2c0-0.8,0.3-1.5,0.8-2
				c0.6-0.6,1.2-0.8,2-0.8c0.8,0,1.5,0.3,2,0.8c0.6,0.6,0.8,1.2,0.8,2C-1245.9-1029.9-1246.2-1029.2-1246.7-1028.7z"/>
		</g>
		<g class="st2">
			<path d="M-1239.1-1028.7c-0.6,0.6-1.2,0.8-2,0.8c-0.8,0-1.5-0.3-2-0.8c-0.6-0.6-0.8-1.2-0.8-2c0-0.8,0.3-1.5,0.8-2
				c0.6-0.6,1.2-0.8,2-0.8c0.8,0,1.5,0.3,2,0.8c0.6,0.6,0.8,1.2,0.8,2C-1238.3-1029.9-1238.6-1029.2-1239.1-1028.7z"/>
		</g>
		<g class="st2">
			<path d="M-1231.5-1028.7c-0.6,0.6-1.2,0.8-2,0.8c-0.8,0-1.5-0.3-2-0.8c-0.6-0.6-0.8-1.2-0.8-2c0-0.8,0.3-1.5,0.8-2
				c0.6-0.6,1.2-0.8,2-0.8c0.8,0,1.5,0.3,2,0.8c0.6,0.6,0.8,1.2,0.8,2C-1230.7-1029.9-1230.9-1029.2-1231.5-1028.7z M-1231.7-1028.9
				c0.5-0.5,0.8-1.1,0.8-1.8c0-0.7-0.2-1.3-0.8-1.8c-0.5-0.5-1.1-0.8-1.8-0.8c-0.7,0-1.3,0.2-1.8,0.8c-0.5,0.5-0.8,1.1-0.8,1.8
				c0,0.7,0.3,1.3,0.8,1.8c0.5,0.5,1.1,0.8,1.8,0.8C-1232.8-1028.2-1232.2-1028.4-1231.7-1028.9z"/>
		</g>
	</g>
	<g transform="matrix(1.32874,0,0,1.32874,2188.44,1504.6)">
	</g>
	<g transform="matrix(1.32874,0,0,1.32874,0,0)">
	</g>
	<g transform="matrix(1.32874,0,0,1.32874,2545.87,1504.6)">
	</g>
	<g transform="matrix(1.32874,0,0,1.32874,2545.87,1504.6)">
		<g class="st2">
			<path d="M-1448.5-1028.7c-0.6,0.6-1.2,0.8-2,0.8c-0.8,0-1.5-0.3-2-0.8c-0.6-0.6-0.8-1.2-0.8-2c0-0.8,0.3-1.5,0.8-2
				c0.6-0.6,1.2-0.8,2-0.8c0.8,0,1.5,0.3,2,0.8c0.6,0.6,0.8,1.2,0.8,2C-1447.7-1029.9-1447.9-1029.2-1448.5-1028.7z M-1448.7-1028.9
				c0.5-0.5,0.8-1.1,0.8-1.8c0-0.7-0.2-1.3-0.8-1.8c-0.5-0.5-1.1-0.8-1.8-0.8c-0.7,0-1.3,0.2-1.8,0.8c-0.5,0.5-0.8,1.1-0.8,1.8
				c0,0.7,0.3,1.3,0.8,1.8c0.5,0.5,1.1,0.8,1.8,0.8C-1449.8-1028.2-1449.2-1028.4-1448.7-1028.9z"/>
		</g>
		<g class="st2">
			<path d="M-1440.9-1028.7c-0.6,0.6-1.2,0.8-2,0.8c-0.8,0-1.5-0.3-2-0.8c-0.6-0.6-0.8-1.2-0.8-2c0-0.8,0.3-1.5,0.8-2
				c0.6-0.6,1.2-0.8,2-0.8c0.8,0,1.5,0.3,2,0.8c0.6,0.6,0.8,1.2,0.8,2C-1440-1029.9-1440.3-1029.2-1440.9-1028.7z M-1441.1-1028.9
				c0.5-0.5,0.8-1.1,0.8-1.8c0-0.7-0.2-1.3-0.8-1.8c-0.5-0.5-1.1-0.8-1.8-0.8c-0.7,0-1.3,0.2-1.8,0.8c-0.5,0.5-0.8,1.1-0.8,1.8
				c0,0.7,0.3,1.3,0.8,1.8c0.5,0.5,1.1,0.8,1.8,0.8C-1442.2-1028.2-1441.6-1028.4-1441.1-1028.9z"/>
		</g>
		<g class="st2">
			<path d="M-1433.2-1028.7c-0.6,0.6-1.2,0.8-2,0.8c-0.8,0-1.5-0.3-2-0.8c-0.6-0.6-0.8-1.2-0.8-2c0-0.8,0.3-1.5,0.8-2
				c0.6-0.6,1.2-0.8,2-0.8c0.8,0,1.5,0.3,2,0.8c0.6,0.6,0.8,1.2,0.8,2C-1432.4-1029.9-1432.7-1029.2-1433.2-1028.7z M-1433.5-1028.9
				c0.5-0.5,0.8-1.1,0.8-1.8c0-0.7-0.2-1.3-0.8-1.8c-0.5-0.5-1.1-0.8-1.8-0.8c-0.7,0-1.3,0.2-1.8,0.8c-0.5,0.5-0.8,1.1-0.8,1.8
				c0,0.7,0.3,1.3,0.8,1.8c0.5,0.5,1.1,0.8,1.8,0.8C-1434.6-1028.2-1434-1028.4-1433.5-1028.9z"/>
		</g>
	</g>
	<g transform="matrix(1.32874,0,0,1.32874,2545.87,1504.6)">
	</g>
	<g transform="matrix(1.32874,0,0,1.32874,0,0)">
	</g>
	<g transform="matrix(1.32874,0,0,1.32874,2903.3,1504.6)">
	</g>
	<g transform="matrix(1.32874,0,0,1.32874,2903.3,1504.6)">
		<g class="st2">
			<path d="M-1650.2-1028.7c-0.6,0.6-1.2,0.8-2,0.8c-0.8,0-1.5-0.3-2-0.8c-0.6-0.6-0.8-1.2-0.8-2c0-0.8,0.3-1.5,0.8-2
				c0.6-0.6,1.2-0.8,2-0.8c0.8,0,1.5,0.3,2,0.8c0.6,0.6,0.8,1.2,0.8,2C-1649.4-1029.9-1649.7-1029.2-1650.2-1028.7z M-1650.5-1028.9
				c0.5-0.5,0.8-1.1,0.8-1.8c0-0.7-0.2-1.3-0.8-1.8c-0.5-0.5-1.1-0.8-1.8-0.8c-0.7,0-1.3,0.2-1.8,0.8c-0.5,0.5-0.8,1.1-0.8,1.8
				c0,0.7,0.3,1.3,0.8,1.8c0.5,0.5,1.1,0.8,1.8,0.8C-1651.6-1028.2-1651-1028.4-1650.5-1028.9z"/>
		</g>
		<g class="st2">
			<path d="M-1642.6-1028.7c-0.6,0.6-1.2,0.8-2,0.8c-0.8,0-1.5-0.3-2-0.8c-0.6-0.6-0.8-1.2-0.8-2c0-0.8,0.3-1.5,0.8-2
				c0.6-0.6,1.2-0.8,2-0.8c0.8,0,1.5,0.3,2,0.8c0.6,0.6,0.8,1.2,0.8,2C-1641.8-1029.9-1642.1-1029.2-1642.6-1028.7z"/>
		</g>
		<g class="st2">
			<path d="M-1635-1028.7c-0.6,0.6-1.2,0.8-2,0.8c-0.8,0-1.5-0.3-2-0.8c-0.6-0.6-0.8-1.2-0.8-2c0-0.8,0.3-1.5,0.8-2
				c0.6-0.6,1.2-0.8,2-0.8c0.8,0,1.5,0.3,2,0.8c0.6,0.6,0.8,1.2,0.8,2C-1634.2-1029.9-1634.4-1029.2-1635-1028.7z"/>
		</g>
	</g>
	<g transform="matrix(1.32874,0,0,1.32874,2903.3,1504.6)">
	</g>
	<g transform="matrix(1.32874,0,0,1.32874,0,0)">
	</g>
	<g transform="matrix(1.32874,0,0,1.32874,3260.73,1504.6)">
	</g>
	<g transform="matrix(1.32874,0,0,1.32874,3260.73,1504.6)">
		<g class="st2">
			<path d="M-1852-1028.7c-0.6,0.6-1.2,0.8-2,0.8c-0.8,0-1.5-0.3-2-0.8c-0.6-0.6-0.8-1.2-0.8-2c0-0.8,0.3-1.5,0.8-2
				c0.6-0.6,1.2-0.8,2-0.8c0.8,0,1.5,0.3,2,0.8c0.6,0.6,0.8,1.2,0.8,2C-1851.2-1029.9-1851.4-1029.2-1852-1028.7z M-1852.2-1028.9
				c0.5-0.5,0.8-1.1,0.8-1.8c0-0.7-0.2-1.3-0.8-1.8c-0.5-0.5-1.1-0.8-1.8-0.8c-0.7,0-1.3,0.2-1.8,0.8c-0.5,0.5-0.8,1.1-0.8,1.8
				c0,0.7,0.3,1.3,0.8,1.8c0.5,0.5,1.1,0.8,1.8,0.8C-1853.3-1028.2-1852.7-1028.4-1852.2-1028.9z"/>
		</g>
		<g class="st2">
			<path d="M-1844.4-1028.7c-0.6,0.6-1.2,0.8-2,0.8c-0.8,0-1.5-0.3-2-0.8c-0.6-0.6-0.8-1.2-0.8-2c0-0.8,0.3-1.5,0.8-2
				c0.6-0.6,1.2-0.8,2-0.8c0.8,0,1.5,0.3,2,0.8c0.6,0.6,0.8,1.2,0.8,2C-1843.5-1029.9-1843.8-1029.2-1844.4-1028.7z M-1844.6-1028.9
				c0.5-0.5,0.8-1.1,0.8-1.8c0-0.7-0.2-1.3-0.8-1.8c-0.5-0.5-1.1-0.8-1.8-0.8c-0.7,0-1.3,0.2-1.8,0.8c-0.5,0.5-0.8,1.1-0.8,1.8
				c0,0.7,0.3,1.3,0.8,1.8c0.5,0.5,1.1,0.8,1.8,0.8C-1845.7-1028.2-1845.1-1028.4-1844.6-1028.9z"/>
		</g>
		<g class="st2">
			<path d="M-1836.7-1028.7c-0.6,0.6-1.2,0.8-2,0.8c-0.8,0-1.5-0.3-2-0.8c-0.6-0.6-0.8-1.2-0.8-2c0-0.8,0.3-1.5,0.8-2
				c0.6-0.6,1.2-0.8,2-0.8c0.8,0,1.5,0.3,2,0.8c0.6,0.6,0.8,1.2,0.8,2C-1835.9-1029.9-1836.2-1029.2-1836.7-1028.7z M-1837-1028.9
				c0.5-0.5,0.8-1.1,0.8-1.8c0-0.7-0.2-1.3-0.8-1.8c-0.5-0.5-1.1-0.8-1.8-0.8c-0.7,0-1.3,0.2-1.8,0.8c-0.5,0.5-0.8,1.1-0.8,1.8
				c0,0.7,0.3,1.3,0.8,1.8c0.5,0.5,1.1,0.8,1.8,0.8C-1838.1-1028.2-1837.5-1028.4-1837-1028.9z"/>
		</g>
	</g>
	<g transform="matrix(1.32874,0,0,1.32874,3260.73,1504.6)">
	</g>
	<g transform="matrix(1.32874,0,0,1.32874,0,0)">
	</g>
	<g transform="matrix(1.32874,0,0,1.32874,3619.49,1504.6)">
	</g>
	<g transform="matrix(1.32874,0,0,1.32874,3619.49,1504.6)">
		<g class="st2">
			<path d="M-2054.5-1028.7c-0.6,0.6-1.2,0.8-2,0.8c-0.8,0-1.5-0.3-2-0.8c-0.6-0.6-0.8-1.2-0.8-2c0-0.8,0.3-1.5,0.8-2
				c0.6-0.6,1.2-0.8,2-0.8c0.8,0,1.5,0.3,2,0.8c0.6,0.6,0.8,1.2,0.8,2C-2053.7-1029.9-2053.9-1029.2-2054.5-1028.7z"/>
		</g>
		<g class="st2">
			<path d="M-2046.9-1028.7c-0.6,0.6-1.2,0.8-2,0.8c-0.8,0-1.5-0.3-2-0.8c-0.6-0.6-0.8-1.2-0.8-2c0-0.8,0.3-1.5,0.8-2
				c0.6-0.6,1.2-0.8,2-0.8c0.8,0,1.5,0.3,2,0.8c0.6,0.6,0.8,1.2,0.8,2C-2046-1029.9-2046.3-1029.2-2046.9-1028.7z M-2047.1-1028.9
				c0.5-0.5,0.8-1.1,0.8-1.8c0-0.7-0.2-1.3-0.8-1.8c-0.5-0.5-1.1-0.8-1.8-0.8c-0.7,0-1.3,0.2-1.8,0.8c-0.5,0.5-0.8,1.1-0.8,1.8
				c0,0.7,0.3,1.3,0.8,1.8c0.5,0.5,1.1,0.8,1.8,0.8C-2048.2-1028.2-2047.6-1028.4-2047.1-1028.9z"/>
		</g>
		<g class="st2">
			<path d="M-2039.2-1028.7c-0.6,0.6-1.2,0.8-2,0.8c-0.8,0-1.5-0.3-2-0.8c-0.6-0.6-0.8-1.2-0.8-2c0-0.8,0.3-1.5,0.8-2
				c0.6-0.6,1.2-0.8,2-0.8c0.8,0,1.5,0.3,2,0.8c0.6,0.6,0.8,1.2,0.8,2C-2038.4-1029.9-2038.7-1029.2-2039.2-1028.7z"/>
		</g>
	</g>
	<g transform="matrix(1.32874,0,0,1.32874,3619.49,1504.6)">
	</g>
	<g transform="matrix(1.32874,0,0,1.32874,0,0)">
	</g>
	<g transform="matrix(1.32874,0,0,1.32874,3976.92,1504.6)">
	</g>
	<g transform="matrix(1.32874,0,0,1.32874,3976.92,1504.6)">
		<g class="st2">
			<path d="M-2256.2-1028.7c-0.6,0.6-1.2,0.8-2,0.8c-0.8,0-1.5-0.3-2-0.8c-0.6-0.6-0.8-1.2-0.8-2c0-0.8,0.3-1.5,0.8-2
				c0.6-0.6,1.2-0.8,2-0.8c0.8,0,1.5,0.3,2,0.8c0.6,0.6,0.8,1.2,0.8,2C-2255.4-1029.9-2255.7-1029.2-2256.2-1028.7z M-2256.5-1028.9
				c0.5-0.5,0.8-1.1,0.8-1.8c0-0.7-0.2-1.3-0.8-1.8c-0.5-0.5-1.1-0.8-1.8-0.8c-0.7,0-1.3,0.2-1.8,0.8c-0.5,0.5-0.8,1.1-0.8,1.8
				c0,0.7,0.3,1.3,0.8,1.8c0.5,0.5,1.1,0.8,1.8,0.8C-2257.6-1028.2-2257-1028.4-2256.5-1028.9z"/>
		</g>
		<g class="st2">
			<path d="M-2248.6-1028.7c-0.6,0.6-1.2,0.8-2,0.8c-0.8,0-1.5-0.3-2-0.8c-0.6-0.6-0.8-1.2-0.8-2c0-0.8,0.3-1.5,0.8-2
				c0.6-0.6,1.2-0.8,2-0.8c0.8,0,1.5,0.3,2,0.8c0.6,0.6,0.8,1.2,0.8,2C-2247.8-1029.9-2248.1-1029.2-2248.6-1028.7z M-2248.8-1028.9
				c0.5-0.5,0.8-1.1,0.8-1.8c0-0.7-0.2-1.3-0.8-1.8c-0.5-0.5-1.1-0.8-1.8-0.8c-0.7,0-1.3,0.2-1.8,0.8c-0.5,0.5-0.8,1.1-0.8,1.8
				c0,0.7,0.3,1.3,0.8,1.8c0.5,0.5,1.1,0.8,1.8,0.8C-2249.9-1028.2-2249.3-1028.4-2248.8-1028.9z"/>
		</g>
		<g class="st2">
			<path d="M-2241-1028.7c-0.6,0.6-1.2,0.8-2,0.8c-0.8,0-1.5-0.3-2-0.8c-0.6-0.6-0.8-1.2-0.8-2c0-0.8,0.3-1.5,0.8-2
				c0.6-0.6,1.2-0.8,2-0.8c0.8,0,1.5,0.3,2,0.8c0.6,0.6,0.8,1.2,0.8,2C-2240.2-1029.9-2240.4-1029.2-2241-1028.7z M-2241.2-1028.9
				c0.5-0.5,0.8-1.1,0.8-1.8c0-0.7-0.2-1.3-0.8-1.8c-0.5-0.5-1.1-0.8-1.8-0.8c-0.7,0-1.3,0.2-1.8,0.8c-0.5,0.5-0.8,1.1-0.8,1.8
				c0,0.7,0.3,1.3,0.8,1.8c0.5,0.5,1.1,0.8,1.8,0.8C-2242.3-1028.2-2241.7-1028.4-2241.2-1028.9z"/>
		</g>
	</g>
	<g transform="matrix(1.32874,0,0,1.32874,3976.92,1504.6)">
	</g>
	<g transform="matrix(1.32874,0,0,1.32874,0,0)">
	</g>
	<g transform="matrix(1.32874,0,0,1.32874,4334.35,1504.6)">
	</g>
	<g transform="matrix(1.32874,0,0,1.32874,4334.35,1504.6)">
		<g class="st2">
			<path d="M-2458-1028.7c-0.6,0.6-1.2,0.8-2,0.8c-0.8,0-1.5-0.3-2-0.8c-0.6-0.6-0.8-1.2-0.8-2c0-0.8,0.3-1.5,0.8-2
				c0.6-0.6,1.2-0.8,2-0.8c0.8,0,1.5,0.3,2,0.8c0.6,0.6,0.8,1.2,0.8,2C-2457.2-1029.9-2457.4-1029.2-2458-1028.7z"/>
		</g>
		<g class="st2">
			<path d="M-2450.4-1028.7c-0.6,0.6-1.2,0.8-2,0.8c-0.8,0-1.5-0.3-2-0.8c-0.6-0.6-0.8-1.2-0.8-2c0-0.8,0.3-1.5,0.8-2
				c0.6-0.6,1.2-0.8,2-0.8c0.8,0,1.5,0.3,2,0.8c0.6,0.6,0.8,1.2,0.8,2C-2449.5-1029.9-2449.8-1029.2-2450.4-1028.7z"/>
		</g>
		<g class="st2">
			<path d="M-2442.7-1028.7c-0.6,0.6-1.2,0.8-2,0.8c-0.8,0-1.5-0.3-2-0.8c-0.6-0.6-0.8-1.2-0.8-2c0-0.8,0.3-1.5,0.8-2
				c0.6-0.6,1.2-0.8,2-0.8c0.8,0,1.5,0.3,2,0.8c0.6,0.6,0.8,1.2,0.8,2C-2441.9-1029.9-2442.2-1029.2-2442.7-1028.7z"/>
		</g>
	</g>
	<g transform="matrix(1.32874,0,0,1.32874,4334.35,1504.6)">
	</g>
	<g transform="matrix(1.32874,0,0,1.32874,0,0)">
	</g>
	<g transform="matrix(1.32874,0,0,1.32874,332.185,1114.04)">
	</g>
	<g transform="matrix(1.32874,0,0,1.32874,332.185,1114.04)">
		<g class="st2">
			<path d="M-200.6-789.4c0,0.4-0.2,0.7-0.5,0.7h-1.9v1.7c0,1,0.6,1.2,1,1.2s0.7,0.2,0.7,0.6c0,0.5-0.3,0.6-0.6,0.6h-7.5
				c-0.5,0-0.6-0.3-0.6-0.6c0-0.3,0.2-0.6,0.7-0.6c0.6,0,1.3-0.3,1.3-1.1v-1.8h-5.8c-0.4,0-0.6-0.4-0.6-0.7c0-0.1,0-0.2,0.1-0.3
				c0,0,0-0.1,0-0.1l0.2-0.3c0.9-1.3,3.6-5.7,3.6-9.6c0-0.5,0.4-0.6,0.7-0.6c0.3,0,2.1,0.1,2.6,0.1c0.6,0,2.3-0.1,2.5-0.1
				c0.3,0,0.5,0.2,0.5,0.5c0,0.1,0,0.1,0,0.1c-0.1,0.4-5.5,7.4-8.1,9.5h4.3v-2.5c0-0.4,0.2-0.6,0.3-0.7l3.8-3.6
				c0.2-0.2,0.3-0.3,0.6-0.3c0.4,0,0.4,0.3,0.4,0.5v6.6h1.9C-200.7-790.1-200.6-789.8-200.6-789.4z"/>
		</g>
	</g>
	<g transform="matrix(1.32874,0,0,1.32874,332.185,1114.04)">
		<g class="st2">
			<path d="M-200.6-773.3c0,0.4-0.2,0.7-0.5,0.7h-1.9v1.7c0,1,0.6,1.2,1,1.2s0.7,0.2,0.7,0.6c0,0.5-0.3,0.6-0.6,0.6h-7.5
				c-0.5,0-0.6-0.3-0.6-0.6c0-0.3,0.2-0.6,0.7-0.6c0.6,0,1.3-0.3,1.3-1.1v-1.8h-5.8c-0.4,0-0.6-0.4-0.6-0.7c0-0.1,0-0.2,0.1-0.3
				c0,0,0-0.1,0-0.1l0.2-0.3c0.9-1.3,3.6-5.7,3.6-9.6c0-0.5,0.4-0.6,0.7-0.6c0.3,0,2.1,0.1,2.6,0.1c0.6,0,2.3-0.1,2.5-0.1
				c0.3,0,0.5,0.2,0.5,0.5c0,0.1,0,0.1,0,0.1c-0.1,0.4-5.5,7.4-8.1,9.5h4.3v-2.5c0-0.4,0.2-0.6,0.3-0.7l3.8-3.6
				c0.2-0.2,0.3-0.3,0.6-0.3c0.4,0,0.4,0.3,0.4,0.5v6.6h1.9C-200.7-774.1-200.6-773.7-200.6-773.3z"/>
		</g>
	</g>
	<g transform="matrix(1.32874,0,0,1.32874,332.185,1114.04)">
	</g>
	<g transform="matrix(1.32874,0,0,1.32874,0,0)">
	</g>
	<g transform="matrix(1.32874,0,0,1.32874,0,0)">
		<line vector-effect="none" class="st3" x1="0" y1="69.9" x2="867.2" y2="69.9"/>
	</g>
	<g transform="matrix(1.32874,0,0,1.32874,0,0)">
		<line vector-effect="none" class="st3" x1="0" y1="61.9" x2="867.2" y2="61.9"/>
	</g>
	<g transform="matrix(1.32874,0,0,1.32874,0,0)">
		<line vector-effect="none" class="st3" x1="0" y1="53.9" x2="867.2" y2="53.9"/>
	</g>
	<g transform="matrix(1.32874,0,0,1.32874,0,0)">
		<line vector-effect="none" class="st3" x1="0" y1="45.9" x2="867.2" y2="45.9"/>
	</g>
	<g transform="matrix(1.32874,0,0,1.32874,0,0)">
		<line vector-effect="none" class="st3" x1="0" y1="37.9" x2="867.2" y2="37.9"/>
	</g>
	<g transform="matrix(1.32874,0,0,1.32874,0,0)">
		<g class="st2">
			<path d="M23,46.8c0,4.2-1.7,8.1-4.4,11.1c-3.4,3.6-7.5,6.1-11.7,8.2c-0.2,0.1-0.4,0.2-0.5,0.2c-0.3,0-0.4-0.2-0.4-0.4
				c0-0.3,0.2-0.4,0.5-0.6c4-2.3,7.3-5,9.2-8c2-3.1,2.7-6.9,2.7-10.2c0-5-1.5-8.4-4.9-8.4c-3.3,0-5.2,2.3-5.2,3.6
				c0,0.3,0.1,0.6,0.5,0.6c0.4,0,0.7-0.2,1.6-0.2c1.6,0,3.1,1.3,3.1,3.3c0,2-1.4,3.4-3.4,3.4c-2.6,0-3.9-2.2-3.9-4.8
				c0-3.1,2.5-7.1,8.1-7.1C19.6,37.5,23,41.2,23,46.8z M27.9,41.9c0,1-0.8,1.8-1.8,1.8s-1.8-0.8-1.8-1.8s0.8-1.8,1.8-1.8
				S27.9,40.9,27.9,41.9z M27.9,49.9c0,1-0.7,1.7-1.7,1.7s-1.7-0.7-1.7-1.7s0.7-1.7,1.7-1.7S27.9,48.9,27.9,49.9z"/>
		</g>
	</g>
	<g transform="matrix(1.32874,0,0,1.32874,500.935,1651.47)">
	</g>
	<g transform="matrix(1.32874,0,0,1.32874,500.935,1651.47)">
		<g class="st2">
			<path d="M-309.4-1125.1c0-1.7,0.7-4,3-4c2.2,0,2.9,2.5,2.9,4c0,1.7-0.7,4-3,4C-308.8-1121.1-309.4-1123.5-309.4-1125.1z
				 M-306.5-1121.6c1.1,0,1.1-2.1,1.1-3.5c0-1.7,0-3.5-1.1-3.5c-1.1,0-1.1,1.8-1.1,3.7C-307.6-1123.6-307.6-1121.6-306.5-1121.6z"/>
		</g>
	</g>
	<g transform="matrix(1.32874,0,0,1.32874,500.935,1651.47)">
	</g>
	<g transform="matrix(1.32874,0,0,1.32874,0,0)">
	</g>
	<g transform="matrix(1.32874,0,0,1.32874,858.366,1651.47)">
	</g>
	<g transform="matrix(1.32874,0,0,1.32874,858.366,1651.47)">
		<g class="st2">
			<path d="M-511.2-1121.2v-0.5c0.1-0.2,0.4-0.5,2.4-3c0.6-0.7,1-1.5,1-2.4c0-0.9-0.3-1.5-1.2-1.5c-0.5,0-1.3,0.3-1.3,0.9
				c0,0.5,1.1,0.4,1.1,1.1c0,0.5-0.3,0.9-0.8,0.9c-0.7,0-0.9-0.7-0.9-1.3c0-1.4,1.1-2.2,2.4-2.2c1.3,0,2.4,0.7,2.4,2.1
				c0,0.9-0.5,1.6-1.2,2.2c-0.6,0.5-2,1.6-2.6,2.3l2.7,0c0.4,0,0.7-1.3,0.7-1.3h0.5l-0.2,2.7H-511.2z"/>
		</g>
	</g>
	<g transform="matrix(1.32874,0,0,1.32874,858.366,1651.47)">
	</g>
	<g transform="matrix(1.32874,0,0,1.32874,0,0)">
	</g>
	<g transform="matrix(1.32874,0,0,1.32874,0,0)">
		<path vector-effect="none" class="st4" d="M72.5,73.9c10,11.5,54.5,11.5,64.8,0"/>
	</g>
	<g transform="matrix(1.32874,0,0,1.32874,0,0)">
		<path vector-effect="none" class="st5" d="M72.5,73.9c10,10.5,54.5,10.5,64.8,0C127,86.4,82.5,86.4,72.5,73.9"/>
	</g>
	<g transform="matrix(1.32874,0,0,1.32874,1215.8,1651.47)">
	</g>
	<g transform="matrix(1.32874,0,0,1.32874,1215.8,1651.47)">
		<g class="st2">
			<path d="M-712.9-1125.1c0-1.7,0.7-4,3-4c2.2,0,2.9,2.5,2.9,4c0,1.7-0.7,4-3,4C-712.3-1121.1-712.9-1123.5-712.9-1125.1z
				 M-710-1121.6c1.1,0,1.1-2.1,1.1-3.5c0-1.7,0-3.5-1.1-3.5c-1.1,0-1.1,1.8-1.1,3.7C-711.1-1123.6-711.1-1121.6-710-1121.6z"/>
		</g>
	</g>
	<g transform="matrix(1.32874,0,0,1.32874,1215.8,1651.47)">
	</g>
	<g transform="matrix(1.32874,0,0,1.32874,0,0)">
	</g>
	<g transform="matrix(1.32874,0,0,1.32874,1574.56,1651.47)">
	</g>
	<g transform="matrix(1.32874,0,0,1.32874,1574.56,1651.47)">
		<g class="st2">
			<path d="M-912.3-1129.2h0.4v7c0,0.2,0.1,0.4,0.3,0.4h1.1v0.5h-4.4v-0.5h0.9c0.3,0,0.5-0.2,0.5-0.5v-5.3c0-0.2-0.1-0.4-0.3-0.4
				h-1.3v-0.5C-914-1128.5-913.1-1128.7-912.3-1129.2z"/>
		</g>
	</g>
	<g transform="matrix(1.32874,0,0,1.32874,1574.56,1651.47)">
	</g>
	<g transform="matrix(1.32874,0,0,1.32874,0,0)">
	</g>
	<g transform="matrix(1.32874,0,0,1.32874,0,0)">
		<path vector-effect="none" class="st4" d="M207,73.9c10.2,11.5,54.8,11.5,65,0"/>
	</g>
	<g transform="matrix(1.32874,0,0,1.32874,0,0)">
		<path vector-effect="none" class="st5" d="M207,73.9c10.2,10.5,54.8,10.5,65,0C261.8,86.4,217.2,86.4,207,73.9"/>
	</g>
	<g transform="matrix(1.32874,0,0,1.32874,1931.99,1651.47)">
	</g>
	<g transform="matrix(1.32874,0,0,1.32874,1931.99,1651.47)">
		<g class="st2">
			<path d="M-1117.2-1125.1c0-1.7,0.7-4,3-4c2.2,0,2.9,2.5,2.9,4c0,1.7-0.7,4-3,4C-1116.5-1121.1-1117.2-1123.5-1117.2-1125.1z
				 M-1114.3-1121.6c1.1,0,1.1-2.1,1.1-3.5c0-1.7,0-3.5-1.1-3.5c-1.1,0-1.1,1.8-1.1,3.7C-1115.4-1123.6-1115.4-1121.6-1114.3-1121.6
				z"/>
		</g>
	</g>
	<g transform="matrix(1.32874,0,0,1.32874,1931.99,1651.47)">
	</g>
	<g transform="matrix(1.32874,0,0,1.32874,0,0)">
	</g>
	<g transform="matrix(1.32874,0,0,1.32874,2289.42,1651.47)">
	</g>
	<g transform="matrix(1.32874,0,0,1.32874,2289.42,1651.47)">
		<g class="st2">
			<path d="M-1315.8-1129.2h0.4v7c0,0.2,0.1,0.4,0.3,0.4h1.1v0.5h-4.4v-0.5h0.9c0.3,0,0.5-0.2,0.5-0.5v-5.3c0-0.2-0.1-0.4-0.3-0.4
				h-1.3v-0.5C-1317.5-1128.5-1316.6-1128.7-1315.8-1129.2z"/>
		</g>
	</g>
	<g transform="matrix(1.32874,0,0,1.32874,2289.42,1651.47)">
		<g class="st2">
			<path d="M-1318.9-1110.7v-0.5c0.1-0.2,0.4-0.5,2.4-3c0.6-0.7,1-1.5,1-2.4c0-0.9-0.3-1.5-1.2-1.5c-0.5,0-1.3,0.3-1.3,0.9
				c0,0.5,1.1,0.4,1.1,1.1c0,0.5-0.3,0.9-0.8,0.9c-0.7,0-0.9-0.7-0.9-1.3c0-1.4,1.1-2.2,2.4-2.2c1.3,0,2.4,0.7,2.4,2.1
				c0,0.9-0.5,1.6-1.2,2.2c-0.6,0.5-2,1.6-2.6,2.3l2.7,0c0.4,0,0.7-1.3,0.7-1.3h0.5l-0.2,2.7H-1318.9z"/>
		</g>
	</g>
	<g transform="matrix(1.32874,0,0,1.32874,2289.42,1651.47)">
	</g>
	<g transform="matrix(1.32874,0,0,1.32874,0,0)">
	</g>
	<g transform="matrix(1.32874,0,0,1.32874,0,0)">
		<path vector-effect="none" class="st4" d="M341.8,73.9c9.5,12,54,14.2,64.8,3.2"/>
	</g>
	<g transform="matrix(1.32874,0,0,1.32874,0,0)">
		<path vector-effect="none" class="st5" d="M341.8,73.9c9.5,11,54,13.2,64.8,3.2C395.8,89.2,351.2,86.9,341.8,73.9"/>
	</g>
	<g transform="matrix(1.32874,0,0,1.32874,2646.85,1651.47)">
	</g>
	<g transform="matrix(1.32874,0,0,1.32874,2646.85,1651.47)">
		<g class="st2">
			<path d="M-1520.7-1125.1c0-1.7,0.7-4,3-4c2.2,0,2.9,2.5,2.9,4c0,1.7-0.7,4-3,4C-1520-1121.1-1520.7-1123.5-1520.7-1125.1z
				 M-1517.8-1121.6c1.1,0,1.1-2.1,1.1-3.5c0-1.7,0-3.5-1.1-3.5c-1.1,0-1.1,1.8-1.1,3.7C-1518.9-1123.6-1518.9-1121.6-1517.8-1121.6
				z"/>
		</g>
	</g>
	<g transform="matrix(1.32874,0,0,1.32874,2646.85,1651.47)">
	</g>
	<g transform="matrix(1.32874,0,0,1.32874,0,0)">
	</g>
	<g transform="matrix(1.32874,0,0,1.32874,3004.28,1651.47)">
	</g>
	<g transform="matrix(1.32874,0,0,1.32874,3004.28,1651.47)">
		<g class="st2">
			<path d="M-1722.4-1121.2v-0.5c0.1-0.2,0.4-0.5,2.4-3c0.6-0.7,1-1.5,1-2.4c0-0.9-0.3-1.5-1.2-1.5c-0.5,0-1.3,0.3-1.3,0.9
				c0,0.5,1.1,0.4,1.1,1.1c0,0.5-0.3,0.9-0.8,0.9c-0.7,0-0.9-0.7-0.9-1.3c0-1.4,1.1-2.2,2.4-2.2c1.3,0,2.4,0.7,2.4,2.1
				c0,0.9-0.5,1.6-1.2,2.2c-0.6,0.5-2,1.6-2.6,2.3l2.7,0c0.4,0,0.7-1.3,0.7-1.3h0.5l-0.2,2.7H-1722.4z"/>
		</g>
	</g>
	<g transform="matrix(1.32874,0,0,1.32874,3004.28,1651.47)">
		<g class="st2">
			<path d="M-1722.4-1112.4c0-0.6,0.2-1.1,0.9-1.1c0.5,0,0.8,0.3,0.8,0.8c0,0.6-0.7,0.7-0.7,1c0,0.4,0.8,0.6,1.1,0.6
				c1.1,0,1.4-0.8,1.4-1.7c0-0.6-0.2-1.7-0.9-1.7h-1c-0.1,0-0.2-0.2-0.2-0.3c0-0.1,0.1-0.3,0.2-0.3h0.8c0.7,0,0.9-0.9,0.9-1.5
				c0-0.8-0.3-1.5-1.2-1.5c-0.3,0-0.8,0-0.8,0.4c0,0.3,0.6,0.4,0.6,1c0,0.5-0.3,0.7-0.7,0.7c-0.6,0-0.9-0.4-0.9-0.9
				c0-1.1,1.1-1.7,2.1-1.7c1.2,0,2.4,0.6,2.4,1.9c0,0.9-0.7,1.4-1.4,1.8c1,0.3,1.7,1,1.7,2.1c0,1.5-1.4,2.2-2.7,2.2
				C-1721.3-1110.6-1722.4-1111.1-1722.4-1112.4z"/>
		</g>
	</g>
	<g transform="matrix(1.32874,0,0,1.32874,3004.28,1651.47)">
	</g>
	<g transform="matrix(1.32874,0,0,1.32874,0,0)">
	</g>
	<g transform="matrix(1.32874,0,0,1.32874,0,0)">
		<path vector-effect="none" class="st4" d="M476.2,73.9c9.5,12,54,14.2,64.8,3.2"/>
	</g>
	<g transform="matrix(1.32874,0,0,1.32874,0,0)">
		<path vector-effect="none" class="st5" d="M476.2,73.9c9.5,11,54,13.2,64.8,3.2C530.2,89.2,485.8,86.9,476.2,73.9"/>
	</g>
	<g transform="matrix(1.32874,0,0,1.32874,3361.71,1651.47)">
	</g>
	<g transform="matrix(1.32874,0,0,1.32874,3361.71,1651.47)">
		<g class="st2">
			<path d="M-1924.2-1125.1c0-1.7,0.7-4,3-4c2.2,0,2.9,2.5,2.9,4c0,1.7-0.7,4-3,4C-1923.5-1121.1-1924.2-1123.5-1924.2-1125.1z
				 M-1921.3-1121.6c1.1,0,1.1-2.1,1.1-3.5c0-1.7,0-3.5-1.1-3.5c-1.1,0-1.1,1.8-1.1,3.7C-1922.4-1123.6-1922.4-1121.6-1921.3-1121.6
				z"/>
		</g>
	</g>
	<g transform="matrix(1.32874,0,0,1.32874,3361.71,1651.47)">
	</g>
	<g transform="matrix(1.32874,0,0,1.32874,0,0)">
	</g>
	<g transform="matrix(1.32874,0,0,1.32874,3720.47,1651.47)">
	</g>
	<g transform="matrix(1.32874,0,0,1.32874,3720.47,1651.47)">
		<g class="st2">
			<path d="M-2123.5-1129.2h0.4v7c0,0.2,0.1,0.4,0.3,0.4h1.1v0.5h-4.4v-0.5h0.9c0.3,0,0.5-0.2,0.5-0.5v-5.3c0-0.2-0.1-0.4-0.3-0.4
				h-1.3v-0.5C-2125.2-1128.5-2124.4-1128.7-2123.5-1129.2z"/>
		</g>
	</g>
	<g transform="matrix(1.32874,0,0,1.32874,3720.47,1651.47)">
		<g class="st2">
			<path d="M-2126.7-1112.4c0-0.6,0.2-1.1,0.9-1.1c0.5,0,0.8,0.3,0.8,0.8c0,0.6-0.7,0.7-0.7,1c0,0.4,0.8,0.6,1.1,0.6
				c1.1,0,1.4-0.8,1.4-1.7c0-0.6-0.2-1.7-0.9-1.7h-1c-0.1,0-0.2-0.2-0.2-0.3c0-0.1,0.1-0.3,0.2-0.3h0.8c0.7,0,0.9-0.9,0.9-1.5
				c0-0.8-0.3-1.5-1.2-1.5c-0.3,0-0.8,0-0.8,0.4c0,0.3,0.6,0.4,0.6,1c0,0.5-0.3,0.7-0.7,0.7c-0.6,0-0.9-0.4-0.9-0.9
				c0-1.1,1.1-1.7,2.1-1.7c1.2,0,2.4,0.6,2.4,1.9c0,0.9-0.7,1.4-1.4,1.8c1,0.3,1.7,1,1.7,2.1c0,1.5-1.4,2.2-2.7,2.2
				C-2125.5-1110.6-2126.7-1111.1-2126.7-1112.4z"/>
		</g>
	</g>
	<g transform="matrix(1.32874,0,0,1.32874,3720.47,1651.47)">
	</g>
	<g transform="matrix(1.32874,0,0,1.32874,0,0)">
	</g>
	<g transform="matrix(1.32874,0,0,1.32874,0,0)">
		<path vector-effect="none" class="st4" d="M610.8,73.9c8.8,12.5,53.5,17.5,65,7.2"/>
	</g>
	<g transform="matrix(1.32874,0,0,1.32874,0,0)">
		<path vector-effect="none" class="st5" d="M610.8,73.9c8.8,11.5,53.5,16.5,65,7.2C664.2,92.4,619.5,87.4,610.8,73.9"/>
	</g>
	<g transform="matrix(1.32874,0,0,1.32874,4077.9,1651.47)">
	</g>
	<g transform="matrix(1.32874,0,0,1.32874,4077.9,1651.47)">
		<g class="st2">
			<path d="M-2328.4-1125.1c0-1.7,0.7-4,3-4c2.2,0,2.9,2.5,2.9,4c0,1.7-0.7,4-3,4C-2327.8-1121.1-2328.4-1123.5-2328.4-1125.1z
				 M-2325.5-1121.6c1.1,0,1.1-2.1,1.1-3.5c0-1.7,0-3.5-1.1-3.5c-1.1,0-1.1,1.8-1.1,3.7C-2326.6-1123.6-2326.6-1121.6-2325.5-1121.6
				z"/>
		</g>
	</g>
	<g transform="matrix(1.32874,0,0,1.32874,4077.9,1651.47)">
	</g>
	<g transform="matrix(1.32874,0,0,1.32874,0,0)">
	</g>
	<g transform="matrix(1.32874,0,0,1.32874,4435.33,1651.47)">
	</g>
	<g transform="matrix(1.32874,0,0,1.32874,4435.33,1651.47)">
		<g class="st2">
			<path d="M-2527-1129.2h0.4v7c0,0.2,0.1,0.4,0.3,0.4h1.1v0.5h-4.4v-0.5h0.9c0.3,0,0.5-0.2,0.5-0.5v-5.3c0-0.2-0.1-0.4-0.3-0.4
				h-1.3v-0.5C-2528.7-1128.5-2527.9-1128.7-2527-1129.2z"/>
		</g>
	</g>
	<g transform="matrix(1.32874,0,0,1.32874,4435.33,1651.47)">
		<g class="st2">
			<path d="M-2530.2-1110.7v-0.5c0.1-0.2,0.4-0.5,2.4-3c0.6-0.7,1-1.5,1-2.4c0-0.9-0.3-1.5-1.2-1.5c-0.5,0-1.3,0.3-1.3,0.9
				c0,0.5,1.1,0.4,1.1,1.1c0,0.5-0.3,0.9-0.8,0.9c-0.7,0-0.9-0.7-0.9-1.3c0-1.4,1.1-2.2,2.4-2.2c1.3,0,2.4,0.7,2.4,2.1
				c0,0.9-0.5,1.6-1.2,2.2c-0.6,0.5-2,1.6-2.6,2.3l2.7,0c0.4,0,0.7-1.3,0.7-1.3h0.5l-0.2,2.7H-2530.2z"/>
		</g>
	</g>
	<g transform="matrix(1.32874,0,0,1.32874,4435.33,1651.47)">
		<g class="st2">
			<path d="M-2530.2-1101.9c0-0.6,0.2-1.1,0.9-1.1c0.5,0,0.8,0.3,0.8,0.8c0,0.6-0.7,0.7-0.7,1c0,0.4,0.8,0.6,1.1,0.6
				c1.1,0,1.4-0.8,1.4-1.7c0-0.6-0.2-1.7-0.9-1.7h-1c-0.1,0-0.2-0.2-0.2-0.3c0-0.1,0.1-0.3,0.2-0.3h0.8c0.7,0,0.9-0.9,0.9-1.5
				c0-0.8-0.3-1.5-1.2-1.5c-0.3,0-0.8,0-0.8,0.4c0,0.3,0.6,0.4,0.6,1c0,0.5-0.3,0.7-0.7,0.7c-0.6,0-0.9-0.4-0.9-0.9
				c0-1.1,1.1-1.7,2.1-1.7c1.2,0,2.4,0.6,2.4,1.9c0,0.9-0.7,1.4-1.4,1.8c1,0.3,1.7,1,1.7,2.1c0,1.5-1.4,2.2-2.7,2.2
				C-2529-1100.1-2530.2-1100.6-2530.2-1101.9z"/>
		</g>
	</g>
	<g transform="matrix(1.32874,0,0,1.32874,4435.33,1651.47)">
	</g>
	<g transform="matrix(1.32874,0,0,1.32874,0,0)">
	</g>
	<g transform="matrix(1.32874,0,0,1.32874,0,0)">
		<path vector-effect="none" class="st4" d="M745.5,73.9c8,13,52.5,20.8,64.8,11.2"/>
	</g>
	<g transform="matrix(1.32874,0,0,1.32874,0,0)">
		<path vector-effect="none" class="st5" d="M745.5,73.9c8.2,12,52.8,19.8,64.8,11.2C797.8,95.7,753.2,87.9,745.5,73.9"/>
	</g>
	<g transform="matrix(1.32874,0,0,1.32874,143.504,1030.14)">
	</g>
	<g transform="matrix(1.32874,0,0,1.32874,143.504,1030.14)">
		<g class="st2">
			<path d="M-105.2-768.1v-0.3c0.7-0.2,1.2-0.4,1.5-0.6c0.3-0.2,0.5-0.5,0.7-0.8c0.2-0.4,0.3-0.7,0.3-1.1c0-0.5-0.2-1-0.6-1.3
				c-0.4-0.4-0.9-0.6-1.4-0.6c-0.9,0-1.6,0.5-2.2,1.4l-0.3-0.1c0.5-1,1-1.8,1.7-2.4c0.7-0.5,1.5-0.8,2.4-0.8c0.9,0,1.6,0.3,2.2,0.8
				c0.6,0.5,0.9,1.2,0.9,1.9c0,0.5-0.1,0.9-0.4,1.4c-0.3,0.4-0.7,0.8-1.3,1.2c0.7,0.4,1.3,0.8,1.7,1.3c0.4,0.5,0.6,1.2,0.6,2
				c0,1.3-0.5,2.5-1.4,3.4c-1,0.9-2.3,1.4-3.9,1.4c-1.1,0-1.9-0.2-2.4-0.5c-0.4-0.3-0.5-0.6-0.5-1c0-0.3,0.1-0.5,0.3-0.7
				c0.2-0.2,0.4-0.3,0.7-0.3c0.2,0,0.4,0,0.6,0.1c0.1,0.1,0.5,0.3,1.1,0.8c0.6,0.5,1.2,0.7,1.7,0.7c0.5,0,0.9-0.2,1.2-0.6
				c0.3-0.4,0.5-0.8,0.5-1.4c0-0.9-0.3-1.6-0.9-2.4C-103.1-767.3-104-767.8-105.2-768.1z"/>
			<path d="M-94.1-770.5v2c0.6-0.9,1.1-1.5,1.5-1.8c0.4-0.3,0.9-0.4,1.3-0.4c0.4,0,0.6,0.1,0.8,0.3c0.2,0.2,0.3,0.5,0.3,0.9
				c0,0.4-0.1,0.7-0.3,1c-0.2,0.2-0.4,0.3-0.7,0.3c-0.3,0-0.6-0.1-0.9-0.3c-0.2-0.2-0.4-0.3-0.4-0.4c-0.1,0-0.1-0.1-0.2-0.1
				c-0.2,0-0.4,0.1-0.5,0.2c-0.3,0.2-0.5,0.5-0.6,0.9c-0.2,0.6-0.3,1.3-0.3,2v2l0,0.5c0,0.4,0,0.6,0.1,0.7c0.1,0.2,0.2,0.3,0.3,0.4
				c0.1,0.1,0.4,0.1,0.7,0.1v0.3h-4.7v-0.3c0.4,0,0.6-0.1,0.8-0.3c0.1-0.2,0.2-0.7,0.2-1.4v-4.9c0-0.5,0-0.8-0.1-1
				c-0.1-0.2-0.2-0.3-0.3-0.4c-0.1-0.1-0.3-0.1-0.6-0.2v-0.3H-94.1z"/>
			<path d="M-80.6-774.5v10.1c0,0.7,0,1.1,0.1,1.2c0,0.2,0.1,0.4,0.3,0.5c0.1,0.1,0.4,0.2,0.7,0.2v0.3l-3.7,0.7v-1.4
				c-0.4,0.5-0.8,0.9-1.2,1.1c-0.3,0.2-0.7,0.3-1.2,0.3c-1.1,0-2-0.5-2.7-1.5c-0.5-0.8-0.8-1.8-0.8-3c0-0.9,0.2-1.8,0.5-2.5
				c0.3-0.7,0.8-1.3,1.3-1.7c0.6-0.4,1.2-0.6,1.8-0.6c0.4,0,0.8,0.1,1.1,0.2c0.3,0.2,0.7,0.4,1,0.9v-2.7c0-0.7,0-1.1-0.1-1.2
				c-0.1-0.2-0.2-0.3-0.3-0.4c-0.2-0.1-0.4-0.1-0.8-0.1v-0.4H-80.6z M-83.3-768.5c-0.5-0.9-1-1.3-1.7-1.3c-0.2,0-0.4,0.1-0.6,0.2
				c-0.2,0.2-0.4,0.5-0.6,1c-0.1,0.5-0.2,1.2-0.2,2.2c0,1.1,0.1,1.9,0.2,2.5c0.2,0.5,0.4,0.9,0.7,1.2c0.1,0.1,0.3,0.2,0.6,0.2
				c0.6,0,1.1-0.4,1.6-1.3V-768.5z"/>
			<path d="M-69.1-767.5v3.5c0,0.7,0,1.1,0.1,1.3c0.1,0.2,0.2,0.3,0.5,0.4c0.2,0.1,0.6,0.2,1.2,0.2v0.3h-6.5v-0.3
				c0.6,0,1-0.1,1.2-0.2c0.2-0.1,0.4-0.3,0.4-0.4c0.1-0.2,0.1-0.6,0.1-1.3v-8.3c0-0.7,0-1.1-0.1-1.3c-0.1-0.2-0.2-0.3-0.4-0.4
				c-0.2-0.1-0.6-0.2-1.2-0.2v-0.3h5.6c1.8,0,3.1,0.3,3.9,1c0.8,0.7,1.2,1.5,1.2,2.4c0,0.8-0.3,1.5-0.8,2.1c-0.5,0.6-1.2,1-2.1,1.2
				C-66.6-767.6-67.7-767.5-69.1-767.5z M-69.1-773.7v5.5c0.2,0,0.4,0,0.5,0c0.8,0,1.4-0.2,1.8-0.7c0.4-0.5,0.6-1.2,0.6-2.1
				c0-0.9-0.2-1.6-0.6-2.1c-0.4-0.4-1-0.7-1.9-0.7H-69.1z"/>
			<path d="M-57.1-763c-1.1,0.9-2,1.4-2.9,1.4c-0.5,0-0.9-0.2-1.3-0.5c-0.3-0.3-0.5-0.7-0.5-1.2c0-0.7,0.3-1.3,0.9-1.8
				c0.6-0.5,1.8-1.2,3.8-2.1v-0.9c0-0.7,0-1.1-0.1-1.3c-0.1-0.2-0.2-0.3-0.4-0.5c-0.2-0.1-0.4-0.2-0.7-0.2c-0.4,0-0.7,0.1-1,0.3
				c-0.2,0.1-0.2,0.2-0.2,0.4c0,0.1,0.1,0.3,0.3,0.5c0.2,0.3,0.4,0.5,0.4,0.8c0,0.3-0.1,0.6-0.3,0.8c-0.2,0.2-0.5,0.3-0.9,0.3
				c-0.4,0-0.7-0.1-1-0.4c-0.3-0.2-0.4-0.5-0.4-0.8c0-0.5,0.2-0.9,0.5-1.3c0.4-0.4,0.9-0.7,1.5-0.9c0.6-0.2,1.3-0.3,2-0.3
				c0.8,0,1.5,0.2,2,0.5c0.5,0.4,0.8,0.7,0.9,1.2c0.1,0.3,0.1,0.9,0.1,1.8v3.4c0,0.4,0,0.7,0,0.8c0,0.1,0.1,0.2,0.1,0.2
				c0.1,0.1,0.1,0.1,0.2,0.1c0.2,0,0.3-0.1,0.5-0.3l0.3,0.2c-0.3,0.5-0.6,0.8-1,1c-0.3,0.2-0.7,0.3-1.1,0.3c-0.5,0-0.9-0.1-1.2-0.4
				C-56.8-762.2-57-762.5-57.1-763z M-57.1-763.7v-2.9c-0.8,0.4-1.3,0.9-1.7,1.4c-0.2,0.3-0.4,0.7-0.4,1c0,0.3,0.1,0.5,0.3,0.8
				c0.2,0.2,0.4,0.3,0.7,0.3C-57.8-763.2-57.5-763.3-57.1-763.7z"/>
			<path d="M-48.6-770.5v2c0.6-0.9,1.1-1.5,1.5-1.8c0.4-0.3,0.9-0.4,1.3-0.4c0.4,0,0.6,0.1,0.8,0.3c0.2,0.2,0.3,0.5,0.3,0.9
				c0,0.4-0.1,0.7-0.3,1s-0.4,0.3-0.7,0.3c-0.3,0-0.6-0.1-0.9-0.3c-0.2-0.2-0.4-0.3-0.4-0.4c-0.1,0-0.1-0.1-0.2-0.1
				c-0.2,0-0.4,0.1-0.5,0.2c-0.3,0.2-0.5,0.5-0.6,0.9c-0.2,0.6-0.3,1.3-0.3,2v2l0,0.5c0,0.4,0,0.6,0.1,0.7c0.1,0.2,0.2,0.3,0.3,0.4
				c0.1,0.1,0.4,0.1,0.7,0.1v0.3h-4.7v-0.3c0.4,0,0.6-0.1,0.8-0.3c0.1-0.2,0.2-0.7,0.2-1.4v-4.9c0-0.5,0-0.8-0.1-1
				c-0.1-0.2-0.2-0.3-0.3-0.4c-0.1-0.1-0.3-0.1-0.6-0.2v-0.3H-48.6z"/>
			<path d="M-40.2-773.7v3.2h2.1v0.9h-2.1v5.4c0,0.5,0,0.8,0.1,1c0,0.1,0.1,0.3,0.2,0.4c0.1,0.1,0.2,0.1,0.3,0.1
				c0.4,0,0.8-0.3,1.2-0.9l0.3,0.2c-0.5,1.2-1.3,1.8-2.5,1.8c-0.6,0-1-0.2-1.4-0.5c-0.4-0.3-0.6-0.7-0.7-1c-0.1-0.2-0.1-0.8-0.1-1.7
				v-4.7H-44v-0.3c0.8-0.6,1.5-1.1,2-1.8c0.6-0.6,1-1.3,1.5-2.1H-40.2z"/>
			<path d="M-33.9-770.5v7c0,0.6,0.1,1,0.2,1.2c0.1,0.2,0.4,0.3,0.8,0.3v0.3h-4.7v-0.3c0.4,0,0.7-0.1,0.9-0.3
				c0.1-0.1,0.2-0.5,0.2-1.1v-5.1c0-0.6-0.1-1-0.2-1.2c-0.1-0.2-0.4-0.3-0.8-0.3v-0.3H-33.9z M-35.2-774.8c0.4,0,0.8,0.1,1,0.4
				c0.3,0.3,0.4,0.6,0.4,1c0,0.4-0.1,0.7-0.4,1c-0.3,0.3-0.6,0.4-1,0.4s-0.7-0.1-1-0.4c-0.3-0.3-0.4-0.6-0.4-1c0-0.4,0.1-0.7,0.4-1
				C-36-774.6-35.6-774.8-35.2-774.8z"/>
			<path d="M-27.1-763c-1.1,0.9-2,1.4-2.9,1.4c-0.5,0-0.9-0.2-1.3-0.5c-0.3-0.3-0.5-0.7-0.5-1.2c0-0.7,0.3-1.3,0.9-1.8
				c0.6-0.5,1.8-1.2,3.8-2.1v-0.9c0-0.7,0-1.1-0.1-1.3c-0.1-0.2-0.2-0.3-0.4-0.5c-0.2-0.1-0.4-0.2-0.7-0.2c-0.4,0-0.7,0.1-1,0.3
				c-0.2,0.1-0.2,0.2-0.2,0.4c0,0.1,0.1,0.3,0.3,0.5c0.2,0.3,0.4,0.5,0.4,0.8c0,0.3-0.1,0.6-0.3,0.8c-0.2,0.2-0.5,0.3-0.9,0.3
				c-0.4,0-0.7-0.1-1-0.4c-0.3-0.2-0.4-0.5-0.4-0.8c0-0.5,0.2-0.9,0.5-1.3c0.4-0.4,0.9-0.7,1.5-0.9c0.6-0.2,1.3-0.3,2-0.3
				c0.8,0,1.5,0.2,2,0.5c0.5,0.4,0.8,0.7,0.9,1.2c0.1,0.3,0.1,0.9,0.1,1.8v3.4c0,0.4,0,0.7,0,0.8c0,0.1,0.1,0.2,0.1,0.2
				c0.1,0.1,0.1,0.1,0.2,0.1c0.2,0,0.3-0.1,0.5-0.3l0.3,0.2c-0.3,0.5-0.6,0.8-1,1s-0.7,0.3-1.1,0.3c-0.5,0-0.9-0.1-1.2-0.4
				C-26.9-762.2-27.1-762.5-27.1-763z M-27.1-763.7v-2.9c-0.8,0.4-1.3,0.9-1.7,1.4c-0.2,0.3-0.4,0.7-0.4,1c0,0.3,0.1,0.5,0.3,0.8
				c0.2,0.2,0.4,0.3,0.7,0.3C-27.9-763.2-27.5-763.3-27.1-763.7z"/>
			<path d="M-18.9-774.5v10.9c0,0.6,0.1,1,0.2,1.2c0.1,0.2,0.4,0.3,0.8,0.3v0.3h-4.7v-0.3c0.4,0,0.7-0.1,0.9-0.3
				c0.1-0.1,0.2-0.5,0.2-1.1v-9.1c0-0.6-0.1-1-0.2-1.2c-0.1-0.2-0.4-0.3-0.8-0.3v-0.3H-18.9z"/>
			<path d="M-11.3-757.6v-17.2h1.2v17.2H-11.3z"/>
			<path d="M4.8-768.5c1.2,0.3,2.1,0.6,2.5,1c0.7,0.6,1.1,1.3,1.1,2.2c0,1-0.4,1.8-1.2,2.4c-0.9,0.8-2.3,1.1-4.1,1.1h-6.5v-0.3
				c0.6,0,1-0.1,1.2-0.2c0.2-0.1,0.4-0.3,0.4-0.4c0.1-0.2,0.1-0.6,0.1-1.3v-8.3c0-0.7,0-1.1-0.1-1.3c-0.1-0.2-0.2-0.3-0.4-0.4
				c-0.2-0.1-0.6-0.2-1.2-0.2v-0.3h6.1c1.5,0,2.5,0.1,3.1,0.4c0.6,0.3,1.1,0.6,1.4,1.2c0.4,0.5,0.5,1.1,0.5,1.6
				c0,0.6-0.2,1.2-0.7,1.6C6.7-769.1,5.9-768.7,4.8-768.5z M1.4-768v4.1l0,0.5c0,0.3,0.1,0.6,0.3,0.8c0.2,0.2,0.4,0.3,0.8,0.3
				c0.5,0,1-0.1,1.4-0.3c0.4-0.2,0.7-0.5,1-1c0.2-0.4,0.3-0.9,0.3-1.4c0-0.6-0.1-1.1-0.4-1.6c-0.3-0.5-0.7-0.8-1.1-1
				C3-767.9,2.3-768,1.4-768z M1.4-768.7c0.9,0,1.5-0.1,2-0.3c0.4-0.2,0.7-0.5,1-0.8c0.2-0.4,0.3-0.8,0.3-1.4c0-0.6-0.1-1-0.3-1.4
				c-0.2-0.4-0.5-0.6-1-0.8c-0.4-0.2-1.1-0.3-2-0.3V-768.7z"/>
		</g>
		<g class="st2">
			<path d="M9.7-775.3h0.8l-0.2,6.8c0.5-0.8,1.2-1.2,2.2-1.2c1.3,0,2.6,1,2.6,2.4c0,2-2.7,3.8-5.4,5.9V-775.3z M10.2-766.2v1
				c0,1.2,0.1,2.1,0.1,2.5c1.2-0.9,2.8-3.3,2.8-4.6c0-0.7-0.6-1.3-1.3-1.3C10.6-768.7,10.2-767.3,10.2-766.2z"/>
		</g>
		<g class="st2">
			<path d="M24.9-773.7v3.2h2.1v0.9h-2.1v5.4c0,0.5,0,0.8,0.1,1c0,0.1,0.1,0.3,0.2,0.4c0.1,0.1,0.2,0.1,0.3,0.1
				c0.4,0,0.8-0.3,1.2-0.9l0.3,0.2c-0.5,1.2-1.3,1.8-2.5,1.8c-0.6,0-1-0.2-1.4-0.5c-0.4-0.3-0.6-0.7-0.7-1c-0.1-0.2-0.1-0.8-0.1-1.7
				v-4.7h-1.1v-0.3c0.8-0.6,1.5-1.1,2-1.8c0.6-0.6,1-1.3,1.5-2.1H24.9z"/>
			<path d="M31.9-770.8c0.8,0,1.5,0.2,2.1,0.6c0.7,0.4,1.2,1,1.5,1.7c0.3,0.7,0.5,1.5,0.5,2.4c0,1.2-0.3,2.3-0.9,3.1
				c-0.8,1-1.8,1.5-3.2,1.5c-1.3,0-2.3-0.5-3.1-1.4c-0.7-0.9-1.1-2-1.1-3.2c0-1.3,0.4-2.4,1.1-3.3C29.7-770.3,30.7-770.8,31.9-770.8
				z M32-770.1c-0.3,0-0.6,0.1-0.8,0.4c-0.2,0.2-0.4,0.7-0.5,1.4c-0.1,0.7-0.1,1.7-0.1,3c0,0.7,0,1.3,0.1,1.9c0.1,0.4,0.2,0.8,0.4,1
				c0.2,0.2,0.5,0.3,0.8,0.3c0.3,0,0.5-0.1,0.7-0.2c0.2-0.2,0.4-0.5,0.5-0.9c0.1-0.6,0.2-1.8,0.2-3.6c0-1.1-0.1-1.8-0.2-2.2
				c-0.1-0.4-0.3-0.7-0.5-0.9C32.4-770,32.2-770.1,32-770.1z"/>
			<path d="M46.8-773.7v5.2h0.3c0.8,0,1.4-0.3,1.8-0.8c0.4-0.5,0.6-1.3,0.7-2.2h0.4v6.7h-0.4c-0.1-0.7-0.2-1.3-0.5-1.8
				c-0.2-0.5-0.5-0.8-0.8-0.9c-0.3-0.2-0.8-0.2-1.4-0.2v3.6c0,0.7,0,1.1,0.1,1.3c0.1,0.2,0.2,0.3,0.3,0.4c0.2,0.1,0.4,0.2,0.8,0.2
				h0.8c1.2,0,2.1-0.3,2.9-0.8c0.7-0.6,1.2-1.4,1.5-2.5h0.3l-0.6,4.1H42v-0.3h0.4c0.4,0,0.7-0.1,0.9-0.2c0.2-0.1,0.3-0.2,0.4-0.5
				c0.1-0.2,0.1-0.5,0.1-1.2v-8.4c0-0.6,0-0.9,0-1.1c-0.1-0.2-0.2-0.4-0.3-0.5c-0.2-0.2-0.6-0.3-1-0.3H42v-0.3h10.7v3.8h-0.4
				c-0.2-0.9-0.4-1.6-0.8-2c-0.3-0.4-0.8-0.7-1.4-0.9c-0.4-0.1-1-0.2-2-0.2H46.8z"/>
		</g>
	</g>
	<g transform="matrix(1.32874,0,0,1.32874,143.504,1030.14)">
	</g>
	<g transform="matrix(1.32874,0,0,1.32874,0,0)">
	</g>
	<g transform="matrix(1.32874,0,0,1.32874,0,0)">
		<g class="st2">
			<path d="M78.7,61.9c0,2.4-1.8,4.4-7.5,4.4c-5.2,0-7.2-2.1-7.2-4.4c0-2.4,2.9-4.3,7.5-4.3C74.8,57.6,78.7,59.4,78.7,61.9z
				 M67.7,60.6c0,1.1,0.5,2.3,1.2,3.1c0.2,0.3,0.5,0.5,0.7,0.8c0.5,0.4,1.1,0.7,1.6,0.9c0.3,0.1,0.6,0.1,0.9,0.1
				c0.4,0,0.7,0,1.1-0.1c0.9-0.2,1.4-0.8,1.5-1.7c0-0.2,0.1-0.4,0.1-0.6c0-2.1-1.9-4.7-4.3-4.7c-1.1,0-2.4,0.2-2.8,1.4
				C67.8,60.1,67.7,60.3,67.7,60.6z"/>
		</g>
	</g>
	<g transform="matrix(1.32874,0,0,1.32874,0,0)">
		<g class="st2">
			<path d="M54.5,48.8c0-0.6,0.5-0.9,1-0.9c0.3,0,0.6,0.2,0.6,0.5c0,0.6-0.2,8.3-0.2,9c0,0.2,0.1,0.4,0.4,0.5c0.1,0,0.1,0,0.2,0
				c0.3,0,0.5-0.3,0.7-0.4c0.4-0.2,0.7-0.4,1.1-0.4c0.2-0.1,0.4-0.1,0.7-0.1c1.5,0.1,2.9,1.2,2.9,3.1c0,1.5-1,3.4-3.8,5.4
				c-0.8,0.5-1.6,1.4-2.5,2c0,0-0.1,0.1-0.2,0.1c-0.1,0-0.2,0-0.3-0.2C54.6,67,54.5,48.8,54.5,48.8z M56.4,65c0.1,0,0.2,0,0.3-0.1
				c1-0.6,1.9-1.6,2.3-2.4c0.4-0.7,0.5-1.3,0.5-1.9c0-0.6-0.2-1.2-0.5-1.5c-0.2-0.2-0.5-0.4-0.8-0.4c-0.3,0-0.5,0.1-0.8,0.2
				c-0.4,0.3-1.3,1-1.4,1.3c0,0.1-0.1,0.5-0.1,1c0,1.3,0.1,3.2,0.1,3.2C56,64.7,56.1,65,56.4,65z"/>
		</g>
	</g>
	<g transform="matrix(1.32874,0,0,1.32874,0,0)">
		<g class="st2">
			<path d="M145.9,65.9c0,2.4-1.8,4.4-7.5,4.4c-5.2,0-7.2-2.1-7.2-4.4c0-2.4,2.9-4.3,7.5-4.3C142,61.6,145.9,63.4,145.9,65.9z
				 M135,64.6c0,1.1,0.5,2.3,1.2,3.1c0.2,0.3,0.5,0.5,0.7,0.8c0.5,0.4,1.1,0.7,1.6,0.9c0.3,0.1,0.6,0.1,0.9,0.1c0.4,0,0.7,0,1.1-0.1
				c0.9-0.2,1.4-0.8,1.5-1.7c0-0.2,0.1-0.4,0.1-0.6c0-2.1-1.9-4.7-4.3-4.7c-1.1,0-2.4,0.2-2.8,1.4C135,64.1,135,64.3,135,64.6z"/>
		</g>
	</g>
	<g transform="matrix(1.32874,0,0,1.32874,0,0)">
		<g class="st2">
			<path d="M213.2,61.9c0,2.4-1.8,4.4-7.5,4.4c-5.2,0-7.2-2.1-7.2-4.4c0-2.4,2.9-4.3,7.5-4.3C209.3,57.6,213.2,59.4,213.2,61.9z
				 M202.2,60.6c0,1.1,0.5,2.3,1.2,3.1c0.2,0.3,0.5,0.5,0.7,0.8c0.5,0.4,1.1,0.7,1.6,0.9c0.3,0.1,0.6,0.1,0.9,0.1
				c0.4,0,0.7,0,1.1-0.1c0.9-0.2,1.4-0.8,1.5-1.7c0-0.2,0.1-0.4,0.1-0.6c0-2.1-1.9-4.7-4.3-4.7c-1.1,0-2.4,0.2-2.8,1.4
				C202.3,60.1,202.2,60.3,202.2,60.6z"/>
		</g>
	</g>
	<g transform="matrix(1.32874,0,0,1.32874,0,0)">
		<g class="st2">
			<path d="M189,48.8c0-0.6,0.5-0.9,1-0.9c0.3,0,0.6,0.2,0.6,0.5c0,0.6-0.2,8.3-0.2,9c0,0.2,0.1,0.4,0.4,0.5c0.1,0,0.1,0,0.2,0
				c0.3,0,0.5-0.3,0.7-0.4c0.4-0.2,0.7-0.4,1.1-0.4c0.2-0.1,0.4-0.1,0.7-0.1c1.5,0.1,2.9,1.2,2.9,3.1c0,1.5-1,3.4-3.8,5.4
				c-0.8,0.5-1.6,1.4-2.5,2c0,0-0.1,0.1-0.2,0.1c-0.1,0-0.2,0-0.3-0.2C189.1,67,189,48.8,189,48.8z M190.9,65c0.1,0,0.2,0,0.3-0.1
				c1-0.6,1.9-1.6,2.3-2.4c0.4-0.7,0.5-1.3,0.5-1.9c0-0.6-0.2-1.2-0.5-1.5c-0.2-0.2-0.5-0.4-0.8-0.4c-0.3,0-0.5,0.1-0.8,0.2
				c-0.4,0.3-1.3,1-1.4,1.3c0,0.1-0.1,0.5-0.1,1c0,1.3,0.1,3.2,0.1,3.2C190.5,64.7,190.6,65,190.9,65z"/>
		</g>
	</g>
	<g transform="matrix(1.32874,0,0,1.32874,0,0)">
		<g class="st2">
			<path d="M280.7,65.9c0,2.4-1.8,4.4-7.5,4.4c-5.2,0-7.2-2.1-7.2-4.4c0-2.4,2.9-4.3,7.5-4.3C276.8,61.6,280.7,63.4,280.7,65.9z
				 M269.7,64.6c0,1.1,0.5,2.3,1.2,3.1c0.2,0.3,0.5,0.5,0.7,0.8c0.5,0.4,1.1,0.7,1.6,0.9c0.3,0.1,0.6,0.1,0.9,0.1
				c0.4,0,0.7,0,1.1-0.1c0.9-0.2,1.4-0.8,1.5-1.7c0-0.2,0.1-0.4,0.1-0.6c0-2.1-1.9-4.7-4.3-4.7c-1.1,0-2.4,0.2-2.8,1.4
				C269.8,64.1,269.7,64.3,269.7,64.6z"/>
		</g>
	</g>
	<g transform="matrix(1.32874,0,0,1.32874,0,0)">
		<g class="st2">
			<path d="M256.5,52.8c0-0.6,0.5-0.9,1-0.9c0.3,0,0.6,0.2,0.6,0.5c0,0.6-0.2,8.3-0.2,9c0,0.2,0.1,0.4,0.4,0.5c0.1,0,0.1,0,0.2,0
				c0.3,0,0.5-0.3,0.7-0.4c0.4-0.2,0.7-0.4,1.1-0.4c0.2-0.1,0.4-0.1,0.7-0.1c1.5,0.1,2.9,1.2,2.9,3.1c0,1.5-1,3.4-3.8,5.4
				c-0.8,0.5-1.6,1.4-2.5,2c0,0-0.1,0.1-0.2,0.1c-0.1,0-0.2,0-0.3-0.2C256.6,71,256.5,52.8,256.5,52.8z M258.4,69
				c0.1,0,0.2,0,0.3-0.1c1-0.6,1.9-1.6,2.3-2.4c0.4-0.7,0.5-1.3,0.5-1.9c0-0.6-0.2-1.2-0.5-1.5c-0.2-0.2-0.5-0.4-0.8-0.4
				c-0.3,0-0.5,0.1-0.8,0.2c-0.4,0.3-1.3,1-1.4,1.3c0,0.1-0.1,0.5-0.1,1c0,1.3,0.1,3.2,0.1,3.2C258,68.7,258.1,69,258.4,69z"/>
		</g>
	</g>
	<g transform="matrix(1.32874,0,0,1.32874,0,0)">
		<g class="st2">
			<path d="M347.9,61.9c0,2.4-1.8,4.4-7.5,4.4c-5.2,0-7.2-2.1-7.2-4.4c0-2.4,2.9-4.3,7.5-4.3C344,57.6,347.9,59.4,347.9,61.9z
				 M337,60.6c0,1.1,0.5,2.3,1.2,3.1c0.2,0.3,0.5,0.5,0.7,0.8c0.5,0.4,1.1,0.7,1.6,0.9c0.3,0.1,0.6,0.1,0.9,0.1c0.4,0,0.7,0,1.1-0.1
				c0.9-0.2,1.4-0.8,1.5-1.7c0-0.2,0.1-0.4,0.1-0.6c0-2.1-1.9-4.7-4.3-4.7c-1.1,0-2.4,0.2-2.8,1.4C337,60.1,337,60.3,337,60.6z"/>
		</g>
	</g>
	<g transform="matrix(1.32874,0,0,1.32874,0,0)">
		<g class="st2">
			<path d="M323.8,48.8c0-0.6,0.5-0.9,1-0.9c0.3,0,0.6,0.2,0.6,0.5c0,0.6-0.2,8.3-0.2,9c0,0.2,0.1,0.4,0.4,0.5c0.1,0,0.1,0,0.2,0
				c0.3,0,0.5-0.3,0.7-0.4c0.4-0.2,0.7-0.4,1.1-0.4c0.2-0.1,0.4-0.1,0.7-0.1c1.5,0.1,2.9,1.2,2.9,3.1c0,1.5-1,3.4-3.8,5.4
				c-0.8,0.5-1.6,1.4-2.5,2c0,0-0.1,0.1-0.2,0.1c-0.1,0-0.2,0-0.3-0.2C323.9,67,323.8,48.8,323.8,48.8z M325.6,65
				c0.1,0,0.2,0,0.3-0.1c1-0.6,1.9-1.6,2.3-2.4c0.4-0.7,0.5-1.3,0.5-1.9c0-0.6-0.2-1.2-0.5-1.5c-0.2-0.2-0.5-0.4-0.8-0.4
				c-0.3,0-0.5,0.1-0.8,0.2c-0.4,0.3-1.3,1-1.4,1.3c0,0.1-0.1,0.5-0.1,1c0,1.3,0.1,3.2,0.1,3.2C325.3,64.7,325.3,65,325.6,65z"/>
		</g>
	</g>
	<g transform="matrix(1.32874,0,0,1.32874,0,0)">
		<g class="st2">
			<path d="M415.2,69.9c0,2.4-1.8,4.4-7.5,4.4c-5.2,0-7.2-2.1-7.2-4.4c0-2.4,2.9-4.3,7.5-4.3C411.3,65.6,415.2,67.4,415.2,69.9z
				 M404.2,68.6c0,1.1,0.5,2.3,1.2,3.1c0.2,0.3,0.5,0.5,0.7,0.8c0.5,0.4,1.1,0.7,1.6,0.9c0.3,0.1,0.6,0.1,0.9,0.1
				c0.4,0,0.7,0,1.1-0.1c0.9-0.2,1.4-0.8,1.5-1.7c0-0.2,0.1-0.4,0.1-0.6c0-2.1-1.9-4.7-4.3-4.7c-1.1,0-2.4,0.2-2.8,1.4
				C404.3,68.1,404.2,68.3,404.2,68.6z"/>
		</g>
	</g>
	<g transform="matrix(1.32874,0,0,1.32874,0,0)">
		<g class="st2">
			<path d="M482.4,61.9c0,2.4-1.8,4.4-7.5,4.4c-5.2,0-7.2-2.1-7.2-4.4c0-2.4,2.9-4.3,7.5-4.3C478.5,57.6,482.4,59.4,482.4,61.9z
				 M471.5,60.6c0,1.1,0.5,2.3,1.2,3.1c0.2,0.3,0.5,0.5,0.7,0.8c0.5,0.4,1.1,0.7,1.6,0.9c0.3,0.1,0.6,0.1,0.9,0.1
				c0.4,0,0.7,0,1.1-0.1c0.9-0.2,1.4-0.8,1.5-1.7c0-0.2,0.1-0.4,0.1-0.6c0-2.1-1.9-4.7-4.3-4.7c-1.1,0-2.4,0.2-2.8,1.4
				C471.5,60.1,471.5,60.3,471.5,60.6z"/>
		</g>
	</g>
	<g transform="matrix(1.32874,0,0,1.32874,0,0)">
		<g class="st2">
			<path d="M458.3,48.8c0-0.6,0.5-0.9,1-0.9c0.3,0,0.6,0.2,0.6,0.5c0,0.6-0.2,8.3-0.2,9c0,0.2,0.1,0.4,0.4,0.5c0.1,0,0.1,0,0.2,0
				c0.3,0,0.5-0.3,0.7-0.4c0.4-0.2,0.7-0.4,1.1-0.4c0.2-0.1,0.4-0.1,0.7-0.1c1.5,0.1,2.9,1.2,2.9,3.1c0,1.5-1,3.4-3.8,5.4
				c-0.8,0.5-1.6,1.4-2.5,2c0,0-0.1,0.1-0.2,0.1c-0.1,0-0.2,0-0.3-0.2C458.4,67,458.3,48.8,458.3,48.8z M460.1,65
				c0.1,0,0.2,0,0.3-0.1c1-0.6,1.9-1.6,2.3-2.4c0.4-0.7,0.5-1.3,0.5-1.9c0-0.6-0.2-1.2-0.5-1.5c-0.2-0.2-0.5-0.4-0.8-0.4
				c-0.3,0-0.5,0.1-0.8,0.2c-0.4,0.3-1.3,1-1.4,1.3c0,0.1-0.1,0.5-0.1,1c0,1.3,0.1,3.2,0.1,3.2C459.8,64.7,459.8,65,460.1,65z"/>
		</g>
	</g>
	<g transform="matrix(1.32874,0,0,1.32874,0,0)">
		<g class="st2">
			<path d="M549.7,69.9c0,2.4-1.8,4.4-7.5,4.4c-5.2,0-7.2-2.1-7.2-4.4c0-2.4,2.9-4.3,7.5-4.3C545.8,65.6,549.7,67.4,549.7,69.9z
				 M538.7,68.6c0,1.1,0.5,2.3,1.2,3.1c0.2,0.3,0.5,0.5,0.7,0.8c0.5,0.4,1.1,0.7,1.6,0.9c0.3,0.1,0.6,0.1,0.9,0.1
				c0.4,0,0.7,0,1.1-0.1c0.9-0.2,1.4-0.8,1.5-1.7c0-0.2,0.1-0.4,0.1-0.6c0-2.1-1.9-4.7-4.3-4.7c-1.1,0-2.4,0.2-2.8,1.4
				C538.8,68.1,538.7,68.3,538.7,68.6z"/>
		</g>
	</g>
	<g transform="matrix(1.32874,0,0,1.32874,0,0)">
		<g class="st2">
			<path d="M525.5,56.8c0-0.6,0.5-0.9,1-0.9c0.3,0,0.6,0.2,0.6,0.5c0,0.6-0.2,8.3-0.2,9c0,0.2,0.1,0.4,0.4,0.5c0.1,0,0.1,0,0.2,0
				c0.3,0,0.5-0.3,0.7-0.4c0.4-0.2,0.7-0.4,1.1-0.4c0.2-0.1,0.4-0.1,0.7-0.1c1.5,0.1,2.9,1.2,2.9,3.1c0,1.5-1,3.4-3.8,5.4
				c-0.8,0.5-1.6,1.4-2.5,2c0,0-0.1,0.1-0.2,0.1c-0.1,0-0.2,0-0.3-0.2C525.6,75,525.5,56.8,525.5,56.8z M527.4,73
				c0.1,0,0.2,0,0.3-0.1c1-0.6,1.9-1.6,2.3-2.4c0.4-0.7,0.5-1.3,0.5-1.9c0-0.6-0.2-1.2-0.5-1.5c-0.2-0.2-0.5-0.4-0.8-0.4
				c-0.3,0-0.5,0.1-0.8,0.2c-0.4,0.3-1.3,1-1.4,1.3c0,0.1-0.1,0.5-0.1,1c0,1.3,0.1,3.2,0.1,3.2C527,72.7,527.1,73,527.4,73z"/>
		</g>
	</g>
	<g transform="matrix(1.32874,0,0,1.32874,0,0)">
		<g class="st2">
			<path d="M616.9,61.9c0,2.4-1.8,4.4-7.5,4.4c-5.2,0-7.2-2.1-7.2-4.4c0-2.4,2.9-4.3,7.5-4.3C613,57.6,616.9,59.4,616.9,61.9z
				 M606,60.6c0,1.1,0.5,2.3,1.2,3.1c0.2,0.3,0.5,0.5,0.7,0.8c0.5,0.4,1.1,0.7,1.6,0.9c0.3,0.1,0.6,0.1,0.9,0.1c0.4,0,0.7,0,1.1-0.1
				c0.9-0.2,1.4-0.8,1.5-1.7c0-0.2,0.1-0.4,0.1-0.6c0-2.1-1.9-4.7-4.3-4.7c-1.1,0-2.4,0.2-2.8,1.4C606,60.1,606,60.3,606,60.6z"/>
		</g>
	</g>
	<g transform="matrix(1.32874,0,0,1.32874,0,0)">
		<g class="st2">
			<path d="M592.7,48.8c0-0.6,0.5-0.9,1-0.9c0.3,0,0.6,0.2,0.6,0.5c0,0.6-0.2,8.3-0.2,9c0,0.2,0.1,0.4,0.4,0.5c0.1,0,0.1,0,0.2,0
				c0.3,0,0.5-0.3,0.7-0.4c0.4-0.2,0.7-0.4,1.1-0.4c0.2-0.1,0.4-0.1,0.7-0.1c1.5,0.1,2.9,1.2,2.9,3.1c0,1.5-1,3.4-3.8,5.4
				c-0.8,0.5-1.6,1.4-2.5,2c0,0-0.1,0.1-0.2,0.1c-0.1,0-0.2,0-0.3-0.2C592.9,67,592.7,48.8,592.7,48.8z M594.6,65
				c0.1,0,0.2,0,0.3-0.1c1-0.6,1.9-1.6,2.3-2.4c0.4-0.7,0.5-1.3,0.5-1.9c0-0.6-0.2-1.2-0.5-1.5c-0.2-0.2-0.5-0.4-0.8-0.4
				c-0.3,0-0.5,0.1-0.8,0.2c-0.4,0.3-1.3,1-1.4,1.3c0,0.1-0.1,0.5-0.1,1c0,1.3,0.1,3.2,0.1,3.2C594.3,64.7,594.3,65,594.6,65z"/>
		</g>
	</g>
	<g transform="matrix(1.32874,0,0,1.32874,0,0)">
		<g class="st2">
			<path d="M684.4,73.9c0,2.4-1.8,4.4-7.5,4.4c-5.2,0-7.2-2.1-7.2-4.4c0-2.4,2.9-4.3,7.5-4.3C680.5,69.6,684.4,71.4,684.4,73.9z
				 M673.5,72.6c0,1.1,0.5,2.3,1.2,3.1c0.2,0.3,0.5,0.5,0.7,0.8c0.5,0.4,1.1,0.7,1.6,0.9c0.3,0.1,0.6,0.1,0.9,0.1
				c0.4,0,0.7,0,1.1-0.1c0.9-0.2,1.4-0.8,1.5-1.7c0-0.2,0.1-0.4,0.1-0.6c0-2.1-1.9-4.7-4.3-4.7c-1.1,0-2.4,0.2-2.8,1.4
				C673.5,72.1,673.5,72.3,673.5,72.6z"/>
		</g>
	</g>
	<g transform="matrix(1.32874,0,0,1.32874,0,0)">
		<g class="st2">
			<path d="M751.7,61.9c0,2.4-1.8,4.4-7.5,4.4c-5.2,0-7.2-2.1-7.2-4.4c0-2.4,2.9-4.3,7.5-4.3C747.8,57.6,751.7,59.4,751.7,61.9z
				 M740.7,60.6c0,1.1,0.5,2.3,1.2,3.1c0.2,0.3,0.5,0.5,0.7,0.8c0.5,0.4,1.1,0.7,1.6,0.9c0.3,0.1,0.6,0.1,0.9,0.1
				c0.4,0,0.7,0,1.1-0.1c0.9-0.2,1.4-0.8,1.5-1.7c0-0.2,0.1-0.4,0.1-0.6c0-2.1-1.9-4.7-4.3-4.7c-1.1,0-2.4,0.2-2.8,1.4
				C740.8,60.1,740.7,60.3,740.7,60.6z"/>
		</g>
	</g>
	<g transform="matrix(1.32874,0,0,1.32874,0,0)">
		<g class="st2">
			<path d="M727.5,48.8c0-0.6,0.5-0.9,1-0.9c0.3,0,0.6,0.2,0.6,0.5c0,0.6-0.2,8.3-0.2,9c0,0.2,0.1,0.4,0.4,0.5c0.1,0,0.1,0,0.2,0
				c0.3,0,0.5-0.3,0.7-0.4c0.4-0.2,0.7-0.4,1.1-0.4c0.2-0.1,0.4-0.1,0.7-0.1c1.5,0.1,2.9,1.2,2.9,3.1c0,1.5-1,3.4-3.8,5.4
				c-0.8,0.5-1.6,1.4-2.5,2c0,0-0.1,0.1-0.2,0.1c-0.1,0-0.2,0-0.3-0.2C727.6,67,727.5,48.8,727.5,48.8z M729.4,65
				c0.1,0,0.2,0,0.3-0.1c1-0.6,1.9-1.6,2.3-2.4c0.4-0.7,0.5-1.3,0.5-1.9c0-0.6-0.2-1.2-0.5-1.5c-0.2-0.2-0.5-0.4-0.8-0.4
				c-0.3,0-0.5,0.1-0.8,0.2c-0.4,0.3-1.3,1-1.4,1.3c0,0.1-0.1,0.5-0.1,1c0,1.3,0.1,3.2,0.1,3.2C729,64.7,729.1,65,729.4,65z"/>
		</g>
	</g>
	<g transform="matrix(1.32874,0,0,1.32874,0,0)">
		<line vector-effect="none" class="st0" x1="800.2" y1="77.9" x2="823" y2="77.9"/>
	</g>
	<g transform="matrix(1.32874,0,0,1.32874,0,0)">
		<g class="st2">
			<path d="M818.9,77.9c0,2.4-1.8,4.4-7.5,4.4c-5.2,0-7.2-2.1-7.2-4.4c0-2.4,2.9-4.3,7.5-4.3C815,73.6,818.9,75.4,818.9,77.9z
				 M808,76.6c0,1.1,0.5,2.3,1.2,3.1c0.2,0.3,0.5,0.5,0.7,0.8c0.5,0.4,1.1,0.7,1.6,0.9c0.3,0.1,0.6,0.1,0.9,0.1c0.4,0,0.7,0,1.1-0.1
				c0.9-0.2,1.4-0.8,1.5-1.7c0-0.2,0.1-0.4,0.1-0.6c0-2.1-1.9-4.7-4.3-4.7c-1.1,0-2.4,0.2-2.8,1.4C808,76.1,808,76.3,808,76.6z"/>
		</g>
	</g>
</g>
</svg>
