<?xml version="1.0" encoding="utf-8"?>
<!-- Generator: Adobe Illustrator 26.5.0, SVG Export Plug-In . SVG Version: 6.00 Build 0)  -->
<svg version="1.1" id="Layer_1" xmlns="http://www.w3.org/2000/svg" xmlns:xlink="http://www.w3.org/1999/xlink" x="0px" y="0px"
	 viewBox="0 0 1152.3 62.5" style="enable-background:new 0 0 1152.3 62.5;" xml:space="preserve">
<style type="text/css">
	.st0{fill:none;stroke:#000000;stroke-width:1.6609;stroke-linejoin:bevel;stroke-miterlimit:1.3287;}
	.st1{fill:none;stroke:#000000;stroke-width:5.315;stroke-linejoin:bevel;stroke-miterlimit:1.3287;}
	.st2{enable-background:new    ;}
	.st3{fill:none;stroke:#000000;stroke-width:1.3287;stroke-linejoin:bevel;stroke-miterlimit:1.3287;}
</style>
<g>
	<g transform="matrix(1.32874,0,0,1.32874,0,0)">
		<line vector-effect="none" class="st0" x1="483" y1="14.5" x2="483" y2="46.5"/>
	</g>
	<g transform="matrix(1.32874,0,0,1.32874,0,0)">
		<line vector-effect="none" class="st1" x1="488.8" y1="14.5" x2="488.8" y2="46.5"/>
	</g>
	<g transform="matrix(1.32874,0,0,1.32874,0,0)">
	</g>
	<g transform="matrix(1.32874,0,0,1.32874,2302.71,862.904)">
	</g>
	<g transform="matrix(1.32874,0,0,1.32874,2302.71,862.904)">
		<g class="st2">
			<path d="M-1312.8-623.8c0,0.4-0.2,0.7-0.5,0.7h-1.9v1.7c0,1,0.6,1.2,1,1.2c0.3,0,0.7,0.2,0.7,0.6c0,0.5-0.3,0.6-0.6,0.6h-7.5
				c-0.5,0-0.6-0.3-0.6-0.6c0-0.3,0.2-0.6,0.7-0.6c0.6,0,1.3-0.3,1.3-1.1v-1.8h-5.8c-0.4,0-0.6-0.4-0.6-0.7c0-0.1,0-0.2,0.1-0.3
				c0,0,0-0.1,0-0.1l0.2-0.3c0.9-1.3,3.6-5.7,3.6-9.6c0-0.5,0.4-0.6,0.7-0.6c0.3,0,2.1,0.1,2.6,0.1c0.6,0,2.3-0.1,2.5-0.1
				c0.3,0,0.5,0.2,0.5,0.5c0,0.1,0,0.1,0,0.1c-0.1,0.4-5.5,7.4-8.1,9.5h4.3v-2.5c0-0.4,0.2-0.6,0.3-0.7l3.8-3.6
				c0.2-0.2,0.3-0.3,0.6-0.3c0.4,0,0.4,0.3,0.4,0.5v6.6h1.9C-1312.9-624.5-1312.8-624.2-1312.8-623.8z"/>
		</g>
	</g>
	<g transform="matrix(1.32874,0,0,1.32874,2302.71,862.904)">
		<g class="st2">
			<path d="M-1312.8-607.7c0,0.4-0.2,0.7-0.5,0.7h-1.9v1.7c0,1,0.6,1.2,1,1.2c0.3,0,0.7,0.2,0.7,0.6c0,0.5-0.3,0.6-0.6,0.6h-7.5
				c-0.5,0-0.6-0.3-0.6-0.6c0-0.3,0.2-0.6,0.7-0.6c0.6,0,1.3-0.3,1.3-1.1v-1.8h-5.8c-0.4,0-0.6-0.4-0.6-0.7c0-0.1,0-0.2,0.1-0.3
				c0,0,0-0.1,0-0.1l0.2-0.3c0.9-1.3,3.6-5.7,3.6-9.6c0-0.5,0.4-0.6,0.7-0.6c0.3,0,2.1,0.1,2.6,0.1c0.6,0,2.3-0.1,2.5-0.1
				c0.3,0,0.5,0.2,0.5,0.5c0,0.1,0,0.1,0,0.1c-0.1,0.4-5.5,7.4-8.1,9.5h4.3v-2.5c0-0.4,0.2-0.6,0.3-0.7l3.8-3.6
				c0.2-0.2,0.3-0.3,0.6-0.3c0.4,0,0.4,0.3,0.4,0.5v6.6h1.9C-1312.9-608.4-1312.8-608.1-1312.8-607.7z"/>
		</g>
	</g>
	<g transform="matrix(1.32874,0,0,1.32874,2302.71,862.904)">
	</g>
	<g transform="matrix(1.32874,0,0,1.32874,0,0)">
	</g>
	<g transform="matrix(1.32874,0,0,1.32874,0,0)">
		<line vector-effect="none" class="st3" x1="0" y1="46.5" x2="235.8" y2="46.5"/>
	</g>
	<g transform="matrix(1.32874,0,0,1.32874,0,0)">
		<line vector-effect="none" class="st3" x1="0" y1="38.5" x2="235.8" y2="38.5"/>
	</g>
	<g transform="matrix(1.32874,0,0,1.32874,0,0)">
		<line vector-effect="none" class="st3" x1="0" y1="30.5" x2="235.8" y2="30.5"/>
	</g>
	<g transform="matrix(1.32874,0,0,1.32874,0,0)">
		<line vector-effect="none" class="st3" x1="0" y1="22.5" x2="235.8" y2="22.5"/>
	</g>
	<g transform="matrix(1.32874,0,0,1.32874,0,0)">
		<line vector-effect="none" class="st3" x1="0" y1="14.5" x2="235.8" y2="14.5"/>
	</g>
	<g transform="matrix(1.32874,0,0,1.32874,0,0)">
		<line vector-effect="none" class="st3" x1="235.8" y1="46.5" x2="326.5" y2="46.5"/>
	</g>
	<g transform="matrix(1.32874,0,0,1.32874,0,0)">
		<line vector-effect="none" class="st3" x1="235.8" y1="38.5" x2="326.5" y2="38.5"/>
	</g>
	<g transform="matrix(1.32874,0,0,1.32874,0,0)">
		<line vector-effect="none" class="st3" x1="235.8" y1="30.5" x2="326.5" y2="30.5"/>
	</g>
	<g transform="matrix(1.32874,0,0,1.32874,0,0)">
		<line vector-effect="none" class="st3" x1="235.8" y1="22.5" x2="326.5" y2="22.5"/>
	</g>
	<g transform="matrix(1.32874,0,0,1.32874,0,0)">
		<line vector-effect="none" class="st3" x1="235.8" y1="14.5" x2="326.5" y2="14.5"/>
	</g>
	<g transform="matrix(1.32874,0,0,1.32874,0,0)">
		<line vector-effect="none" class="st3" x1="370.8" y1="46.5" x2="490.5" y2="46.5"/>
	</g>
	<g transform="matrix(1.32874,0,0,1.32874,0,0)">
		<line vector-effect="none" class="st3" x1="370.8" y1="38.5" x2="490.5" y2="38.5"/>
	</g>
	<g transform="matrix(1.32874,0,0,1.32874,0,0)">
		<line vector-effect="none" class="st3" x1="370.8" y1="30.5" x2="490.5" y2="30.5"/>
	</g>
	<g transform="matrix(1.32874,0,0,1.32874,0,0)">
		<line vector-effect="none" class="st3" x1="370.8" y1="22.5" x2="490.5" y2="22.5"/>
	</g>
	<g transform="matrix(1.32874,0,0,1.32874,0,0)">
		<line vector-effect="none" class="st3" x1="370.8" y1="14.5" x2="490.5" y2="14.5"/>
	</g>
	<g transform="matrix(1.32874,0,0,1.32874,0,0)">
		<line vector-effect="none" class="st3" x1="530.5" y1="46.5" x2="816.8" y2="46.5"/>
	</g>
	<g transform="matrix(1.32874,0,0,1.32874,0,0)">
		<line vector-effect="none" class="st3" x1="530.5" y1="38.5" x2="816.8" y2="38.5"/>
	</g>
	<g transform="matrix(1.32874,0,0,1.32874,0,0)">
		<line vector-effect="none" class="st3" x1="530.5" y1="30.5" x2="816.8" y2="30.5"/>
	</g>
	<g transform="matrix(1.32874,0,0,1.32874,0,0)">
		<line vector-effect="none" class="st3" x1="530.5" y1="22.5" x2="816.8" y2="22.5"/>
	</g>
	<g transform="matrix(1.32874,0,0,1.32874,0,0)">
		<line vector-effect="none" class="st3" x1="530.5" y1="14.5" x2="816.8" y2="14.5"/>
	</g>
	<g transform="matrix(1.32874,0,0,1.32874,0,0)">
		<line vector-effect="none" class="st3" x1="816.8" y1="46.5" x2="867.2" y2="46.5"/>
	</g>
	<g transform="matrix(1.32874,0,0,1.32874,0,0)">
		<line vector-effect="none" class="st3" x1="816.8" y1="38.5" x2="867.2" y2="38.5"/>
	</g>
	<g transform="matrix(1.32874,0,0,1.32874,0,0)">
		<line vector-effect="none" class="st3" x1="816.8" y1="30.5" x2="867.2" y2="30.5"/>
	</g>
	<g transform="matrix(1.32874,0,0,1.32874,0,0)">
		<line vector-effect="none" class="st3" x1="816.8" y1="22.5" x2="867.2" y2="22.5"/>
	</g>
	<g transform="matrix(1.32874,0,0,1.32874,0,0)">
		<line vector-effect="none" class="st3" x1="816.8" y1="14.5" x2="867.2" y2="14.5"/>
	</g>
	<g transform="matrix(1.32874,0,0,1.32874,0,0)">
		<g class="st2">
			<path d="M393.7,23.4c0,4.2-1.7,8.1-4.4,11.1c-3.4,3.6-7.5,6.1-11.7,8.2c-0.2,0.1-0.4,0.2-0.5,0.2c-0.3,0-0.4-0.2-0.4-0.4
				c0-0.3,0.2-0.4,0.5-0.6c4-2.3,7.3-5,9.2-8c2-3.1,2.7-6.9,2.7-10.2c0-5-1.5-8.4-4.9-8.4c-3.3,0-5.2,2.3-5.2,3.6
				c0,0.3,0.1,0.6,0.5,0.6s0.7-0.2,1.6-0.2c1.6,0,3.1,1.3,3.1,3.3c0,2-1.4,3.4-3.4,3.4c-2.6,0-3.9-2.2-3.9-4.8
				c0-3.1,2.5-7.1,8.1-7.1C390.4,14.1,393.7,17.9,393.7,23.4z M398.6,18.5c0,1-0.8,1.8-1.8,1.8s-1.8-0.8-1.8-1.8s0.8-1.8,1.8-1.8
				S398.6,17.5,398.6,18.5z M398.6,26.5c0,1-0.7,1.7-1.7,1.7c-1,0-1.7-0.7-1.7-1.7s0.7-1.7,1.7-1.7
				C397.9,24.8,398.6,25.5,398.6,26.5z"/>
		</g>
	</g>
	<g transform="matrix(1.32874,0,0,1.32874,0,0)">
		<g class="st2">
			<path d="M430.7,9.7c0,0.1-0.1,0.3-0.1,0.3c-0.2,0.4-0.4,0.7-0.6,0.7c-0.3,0-0.4-0.1-0.4-0.4c0-0.1,0-0.2,0-0.4
				c2-9.8,8.6-9.9,9.6-9.9c0.9,0,7.6,0.1,9.6,9.9c0,0.1,0,0.2,0,0.3c0,0.3-0.2,0.4-0.4,0.4c-0.4,0-0.4-0.2-0.7-0.7
				c0,0,0-0.1-0.1-0.2c-0.3-1.2-1.7-6.3-8.5-6.3C432.5,3.5,431.1,8.4,430.7,9.7z M439.2,10.6c-0.9,0-1.7-0.8-1.7-1.8
				c0-0.9,0.8-1.7,1.7-1.7c1,0,1.8,0.8,1.8,1.7C441,9.8,440.2,10.6,439.2,10.6z"/>
		</g>
	</g>
	<g transform="matrix(1.32874,0,0,1.32874,0,0)">
		<g class="st2">
			<path d="M446.4,38.5c0,2.4-1.8,4.4-7.5,4.4c-5.2,0-7.2-2.1-7.2-4.4c0-2.4,2.9-4.3,7.5-4.3C442.5,34.2,446.4,36.1,446.4,38.5z
				 M435.5,37.2c0,1.1,0.5,2.3,1.2,3.1c0.2,0.3,0.5,0.5,0.7,0.8c0.5,0.4,1.1,0.7,1.6,0.9c0.3,0.1,0.6,0.1,0.9,0.1
				c0.4,0,0.7,0,1.1-0.1c0.9-0.2,1.4-0.8,1.5-1.7c0-0.2,0.1-0.4,0.1-0.6c0-2.1-1.9-4.7-4.3-4.7c-1.1,0-2.4,0.2-2.8,1.4
				C435.5,36.7,435.5,37,435.5,37.2z"/>
		</g>
	</g>
	<g transform="matrix(1.32874,0,0,1.32874,0,0)">
		<g class="st2">
			<path d="M422.3,25.4c0-0.6,0.5-0.9,1-0.9c0.3,0,0.6,0.2,0.6,0.5c0,0.6-0.2,8.3-0.2,9c0,0.2,0.1,0.4,0.4,0.5c0.1,0,0.1,0,0.2,0
				c0.3,0,0.5-0.3,0.7-0.4c0.4-0.2,0.7-0.4,1.1-0.4c0.2-0.1,0.4-0.1,0.7-0.1c1.5,0.1,2.9,1.2,2.9,3.1c0,1.5-1,3.4-3.8,5.4
				c-0.8,0.5-1.6,1.4-2.5,2c0,0-0.1,0.1-0.2,0.1c-0.1,0-0.2,0-0.3-0.2C422.4,43.7,422.3,25.4,422.3,25.4z M424.1,41.6
				c0.1,0,0.2,0,0.3-0.1c1-0.6,1.9-1.6,2.3-2.4c0.4-0.7,0.5-1.3,0.5-1.9c0-0.6-0.2-1.2-0.5-1.5c-0.2-0.2-0.5-0.4-0.8-0.4
				c-0.3,0-0.5,0.1-0.8,0.2c-0.4,0.3-1.3,1-1.4,1.3c0,0.1-0.1,0.5-0.1,1c0,1.3,0.1,3.2,0.1,3.2C423.8,41.3,423.8,41.6,424.1,41.6z"
				/>
		</g>
	</g>
</g>
</svg>
