<?xml version="1.0" encoding="utf-8"?>
<!-- Generator: Adobe Illustrator 26.5.0, SVG Export Plug-In . SVG Version: 6.00 Build 0)  -->
<svg version="1.1" id="Layer_1" xmlns="http://www.w3.org/2000/svg" xmlns:xlink="http://www.w3.org/1999/xlink" x="0px" y="0px"
	 viewBox="0 0 1152.7 155" style="enable-background:new 0 0 1152.7 155;" xml:space="preserve">
<style type="text/css">
	.st0{fill:none;stroke:#000000;stroke-width:1.6609;stroke-linejoin:bevel;stroke-miterlimit:1.3287;}
	.st1{fill:none;stroke:#000000;stroke-width:5.315;stroke-linejoin:bevel;stroke-miterlimit:1.3287;}
	.st2{enable-background:new    ;}
	.st3{fill:none;stroke:#000000;stroke-width:1.3287;stroke-linejoin:bevel;stroke-miterlimit:1.3287;}
	.st4{fill:none;stroke:#000000;stroke-width:0.9966;stroke-linejoin:bevel;stroke-miterlimit:1.3287;}
	.st5{fill-rule:evenodd;clip-rule:evenodd;stroke:#000000;stroke-width:0.3322;stroke-linejoin:bevel;stroke-miterlimit:1.3287;}
</style>
<g>
	<g transform="matrix(1.32874,0,0,1.32874,0,0)">
		<line vector-effect="none" class="st0" x1="117" y1="37.9" x2="117" y2="69.9"/>
	</g>
	<g transform="matrix(1.32874,0,0,1.32874,0,0)">
		<line vector-effect="none" class="st0" x1="182.8" y1="37.9" x2="182.8" y2="69.9"/>
	</g>
	<g transform="matrix(1.32874,0,0,1.32874,0,0)">
		<line vector-effect="none" class="st0" x1="251.2" y1="37.9" x2="251.2" y2="69.9"/>
	</g>
	<g transform="matrix(1.32874,0,0,1.32874,0,0)">
		<line vector-effect="none" class="st0" x1="320" y1="37.9" x2="320" y2="69.9"/>
	</g>
	<g transform="matrix(1.32874,0,0,1.32874,0,0)">
		<line vector-effect="none" class="st0" x1="388.5" y1="37.9" x2="388.5" y2="69.9"/>
	</g>
	<g transform="matrix(1.32874,0,0,1.32874,0,0)">
		<line vector-effect="none" class="st0" x1="454.2" y1="37.9" x2="454.2" y2="69.9"/>
	</g>
	<g transform="matrix(1.32874,0,0,1.32874,0,0)">
		<line vector-effect="none" class="st0" x1="522.8" y1="37.9" x2="522.8" y2="69.9"/>
	</g>
	<g transform="matrix(1.32874,0,0,1.32874,0,0)">
		<line vector-effect="none" class="st0" x1="591.2" y1="37.9" x2="591.2" y2="69.9"/>
	</g>
	<g transform="matrix(1.32874,0,0,1.32874,0,0)">
		<line vector-effect="none" class="st0" x1="660" y1="37.9" x2="660" y2="69.9"/>
	</g>
	<g transform="matrix(1.32874,0,0,1.32874,0,0)">
		<line vector-effect="none" class="st0" x1="725.5" y1="37.9" x2="725.5" y2="69.9"/>
	</g>
	<g transform="matrix(1.32874,0,0,1.32874,0,0)">
		<line vector-effect="none" class="st0" x1="794.2" y1="37.9" x2="794.2" y2="69.9"/>
	</g>
	<g transform="matrix(1.32874,0,0,1.32874,0,0)">
		<line vector-effect="none" class="st0" x1="859.8" y1="37.9" x2="859.8" y2="69.9"/>
	</g>
	<g transform="matrix(1.32874,0,0,1.32874,0,0)">
		<line vector-effect="none" class="st1" x1="865.5" y1="37.9" x2="865.5" y2="69.9"/>
	</g>
	<g transform="matrix(1.32874,0,0,1.32874,0,0)">
	</g>
	<g transform="matrix(1.32874,0,0,1.32874,332.185,4372.11)">
	</g>
	<g transform="matrix(1.32874,0,0,1.32874,332.185,4372.11)">
		<g class="st2">
			<path d="M-200.6-3241.4c0,0.4-0.2,0.7-0.5,0.7h-1.9v1.7c0,1,0.6,1.2,1,1.2s0.7,0.2,0.7,0.6c0,0.5-0.3,0.6-0.6,0.6h-7.5
				c-0.5,0-0.6-0.3-0.6-0.6c0-0.3,0.2-0.6,0.7-0.6c0.6,0,1.3-0.3,1.3-1.1v-1.8h-5.8c-0.4,0-0.6-0.4-0.6-0.7c0-0.1,0-0.2,0.1-0.3
				c0,0,0-0.1,0-0.1l0.2-0.3c0.9-1.3,3.6-5.7,3.6-9.6c0-0.5,0.4-0.6,0.7-0.6c0.3,0,2.1,0.1,2.6,0.1c0.6,0,2.3-0.1,2.5-0.1
				c0.3,0,0.5,0.2,0.5,0.5c0,0.1,0,0.1,0,0.1c-0.1,0.4-5.5,7.4-8.1,9.5h4.3v-2.5c0-0.4,0.2-0.6,0.3-0.7l3.8-3.6
				c0.2-0.2,0.3-0.3,0.6-0.3c0.4,0,0.4,0.3,0.4,0.5v6.6h1.9C-200.7-3242.1-200.6-3241.8-200.6-3241.4z"/>
		</g>
	</g>
	<g transform="matrix(1.32874,0,0,1.32874,332.185,4372.11)">
		<g class="st2">
			<path d="M-200.6-3225.3c0,0.4-0.2,0.7-0.5,0.7h-1.9v1.7c0,1,0.6,1.2,1,1.2s0.7,0.2,0.7,0.6c0,0.5-0.3,0.6-0.6,0.6h-7.5
				c-0.5,0-0.6-0.3-0.6-0.6c0-0.3,0.2-0.6,0.7-0.6c0.6,0,1.3-0.3,1.3-1.1v-1.8h-5.8c-0.4,0-0.6-0.4-0.6-0.7c0-0.1,0-0.2,0.1-0.3
				c0,0,0-0.1,0-0.1l0.2-0.3c0.9-1.3,3.6-5.7,3.6-9.6c0-0.5,0.4-0.6,0.7-0.6c0.3,0,2.1,0.1,2.6,0.1c0.6,0,2.3-0.1,2.5-0.1
				c0.3,0,0.5,0.2,0.5,0.5c0,0.1,0,0.1,0,0.1c-0.1,0.4-5.5,7.4-8.1,9.5h4.3v-2.5c0-0.4,0.2-0.6,0.3-0.7l3.8-3.6
				c0.2-0.2,0.3-0.3,0.6-0.3c0.4,0,0.4,0.3,0.4,0.5v6.6h1.9C-200.7-3226.1-200.6-3225.7-200.6-3225.3z"/>
		</g>
	</g>
	<g transform="matrix(1.32874,0,0,1.32874,332.185,4372.11)">
	</g>
	<g transform="matrix(1.32874,0,0,1.32874,0,0)">
	</g>
	<g transform="matrix(1.32874,0,0,1.32874,0,0)">
		<line vector-effect="none" class="st3" x1="0" y1="69.9" x2="867.2" y2="69.9"/>
	</g>
	<g transform="matrix(1.32874,0,0,1.32874,0,0)">
		<line vector-effect="none" class="st3" x1="0" y1="61.9" x2="867.2" y2="61.9"/>
	</g>
	<g transform="matrix(1.32874,0,0,1.32874,0,0)">
		<line vector-effect="none" class="st3" x1="0" y1="53.9" x2="867.2" y2="53.9"/>
	</g>
	<g transform="matrix(1.32874,0,0,1.32874,0,0)">
		<line vector-effect="none" class="st3" x1="0" y1="45.9" x2="867.2" y2="45.9"/>
	</g>
	<g transform="matrix(1.32874,0,0,1.32874,0,0)">
		<line vector-effect="none" class="st3" x1="0" y1="37.9" x2="867.2" y2="37.9"/>
	</g>
	<g transform="matrix(1.32874,0,0,1.32874,0,0)">
		<g class="st2">
			<path d="M23,46.8c0,4.2-1.7,8.1-4.4,11.1c-3.4,3.6-7.5,6.1-11.7,8.2c-0.2,0.1-0.4,0.2-0.5,0.2c-0.3,0-0.4-0.2-0.4-0.4
				c0-0.3,0.2-0.4,0.5-0.6c4-2.3,7.3-5,9.2-8c2-3.1,2.7-6.9,2.7-10.2c0-5-1.5-8.4-4.9-8.4c-3.3,0-5.2,2.3-5.2,3.6
				c0,0.3,0.1,0.6,0.5,0.6c0.4,0,0.7-0.2,1.6-0.2c1.6,0,3.1,1.3,3.1,3.3c0,2-1.4,3.4-3.4,3.4c-2.6,0-3.9-2.2-3.9-4.8
				c0-3.1,2.5-7.1,8.1-7.1C19.6,37.5,23,41.2,23,46.8z M27.9,41.9c0,1-0.8,1.8-1.8,1.8s-1.8-0.8-1.8-1.8s0.8-1.8,1.8-1.8
				S27.9,40.9,27.9,41.9z M27.9,49.9c0,1-0.7,1.7-1.7,1.7s-1.7-0.7-1.7-1.7s0.7-1.7,1.7-1.7S27.9,48.9,27.9,49.9z"/>
		</g>
	</g>
	<g transform="matrix(1.32874,0,0,1.32874,0,0)">
		<path vector-effect="none" class="st4" d="M72.5,97.2c9.2,11.8,52.2,14.2,63,4"/>
	</g>
	<g transform="matrix(1.32874,0,0,1.32874,0,0)">
		<path vector-effect="none" class="st5" d="M72.5,97.2c9.2,10.8,52.2,13.2,63,4C124.8,112.4,81.8,109.9,72.5,97.2"/>
	</g>
	<g transform="matrix(1.32874,0,0,1.32874,0,0)">
		<path vector-effect="none" class="st4" d="M206.8,97.2c9.5,12,54.8,14.5,66,4"/>
	</g>
	<g transform="matrix(1.32874,0,0,1.32874,0,0)">
		<path vector-effect="none" class="st5" d="M206.8,97.2c9.5,11,54.8,13.5,66,4C261.5,112.7,216.2,110.2,206.8,97.2"/>
	</g>
	<g transform="matrix(1.32874,0,0,1.32874,0,0)">
		<path vector-effect="none" class="st4" d="M344,97.2c8.5,12.2,51.5,17.5,63,8"/>
	</g>
	<g transform="matrix(1.32874,0,0,1.32874,0,0)">
		<path vector-effect="none" class="st5" d="M344,97.2c8.8,11.2,51.8,16.5,63,8C395.2,115.7,352.2,110.4,344,97.2"/>
	</g>
	<g transform="matrix(1.32874,0,0,1.32874,0,0)">
		<path vector-effect="none" class="st4" d="M478.2,97.2c8.8,12.5,54.2,18,66,8"/>
	</g>
	<g transform="matrix(1.32874,0,0,1.32874,0,0)">
		<path vector-effect="none" class="st5" d="M478.2,97.2c8.8,11.5,54.2,17,66,8C532.5,116.2,487,110.7,478.2,97.2"/>
	</g>
	<g transform="matrix(1.32874,0,0,1.32874,0,0)">
		<path vector-effect="none" class="st4" d="M615.2,97.2c7.8,13,51,21.2,63.2,12"/>
	</g>
	<g transform="matrix(1.32874,0,0,1.32874,0,0)">
		<path vector-effect="none" class="st5" d="M615.2,97.2c8,12,51.2,20.2,63.2,12C666,119.4,622.8,111.2,615.2,97.2"/>
	</g>
	<g transform="matrix(1.32874,0,0,1.32874,0,0)">
		<path vector-effect="none" class="st4" d="M749.5,97.2c7,13.2,50.5,24.2,63.2,16"/>
	</g>
	<g transform="matrix(1.32874,0,0,1.32874,0,0)">
		<path vector-effect="none" class="st5" d="M749.5,97.2c7.2,12.2,50.8,23.2,63.2,16C799.8,122.4,756.2,111.4,749.5,97.2"/>
	</g>
	<g transform="matrix(1.32874,0,0,1.32874,143.504,4288.21)">
	</g>
	<g transform="matrix(1.32874,0,0,1.32874,143.504,4288.21)">
		<g class="st2">
			<path d="M-101.7-3226.7v10.4c0,0.8,0,1.3,0.1,1.5c0.1,0.2,0.2,0.4,0.4,0.5c0.2,0.1,0.6,0.2,1.1,0.2h0.3v0.3h-6.7v-0.3h0.3
				c0.5,0,0.9-0.1,1.2-0.2c0.2-0.1,0.4-0.3,0.5-0.5c0.1-0.2,0.1-0.7,0.1-1.5v-6.6c0-0.6,0-1-0.1-1.1c-0.1-0.1-0.2-0.3-0.3-0.4
				c-0.2-0.1-0.3-0.2-0.5-0.2c-0.3,0-0.7,0.1-1.2,0.3l-0.2-0.3l4.7-2.1H-101.7z"/>
			<path d="M-92.2-3222.7l0.1,3h-0.3c-0.4-0.9-0.8-1.5-1.2-1.8c-0.4-0.3-0.8-0.5-1.2-0.5c-0.3,0-0.5,0.1-0.7,0.3
				c-0.2,0.2-0.3,0.4-0.3,0.6c0,0.2,0.1,0.3,0.2,0.5c0.2,0.3,0.8,0.7,1.7,1.3s1.5,1.2,1.8,1.6c0.3,0.4,0.4,0.9,0.4,1.5
				c0,0.5-0.1,1-0.4,1.4c-0.2,0.5-0.6,0.8-1,1.1c-0.4,0.2-0.9,0.4-1.5,0.4c-0.4,0-1-0.1-1.7-0.4c-0.2-0.1-0.3-0.1-0.4-0.1
				c-0.2,0-0.4,0.2-0.5,0.5h-0.3l-0.2-3.2h0.3c0.3,0.8,0.7,1.4,1.2,1.9c0.5,0.4,1,0.6,1.4,0.6c0.3,0,0.5-0.1,0.7-0.3
				c0.2-0.2,0.3-0.4,0.3-0.7c0-0.3-0.1-0.6-0.3-0.8c-0.2-0.2-0.6-0.6-1.3-1c-1-0.7-1.6-1.2-1.9-1.5c-0.4-0.5-0.6-1.1-0.6-1.7
				c0-0.7,0.2-1.3,0.7-1.8c0.5-0.5,1.1-0.8,2-0.8c0.5,0,0.9,0.1,1.4,0.3c0.2,0.1,0.3,0.1,0.4,0.1c0.1,0,0.2,0,0.3-0.1
				c0.1,0,0.2-0.2,0.3-0.4H-92.2z"/>
			<path d="M-86.7-3225.7v3.2h2.1v0.9h-2.1v5.4c0,0.5,0,0.8,0.1,1c0,0.1,0.1,0.3,0.2,0.4c0.1,0.1,0.2,0.1,0.3,0.1
				c0.4,0,0.8-0.3,1.2-0.9l0.3,0.2c-0.5,1.2-1.3,1.8-2.5,1.8c-0.6,0-1-0.2-1.4-0.5c-0.4-0.3-0.6-0.7-0.7-1c-0.1-0.2-0.1-0.8-0.1-1.7
				v-4.7h-1.1v-0.3c0.8-0.6,1.5-1.1,2-1.8c0.6-0.6,1-1.3,1.5-2.1H-86.7z"/>
			<path d="M-74.5-3219.5v3.5c0,0.7,0,1.1,0.1,1.3c0.1,0.2,0.2,0.3,0.5,0.4c0.2,0.1,0.6,0.2,1.2,0.2v0.3h-6.5v-0.3
				c0.6,0,1-0.1,1.2-0.2c0.2-0.1,0.4-0.3,0.4-0.4c0.1-0.2,0.1-0.6,0.1-1.3v-8.3c0-0.7,0-1.1-0.1-1.3c-0.1-0.2-0.2-0.3-0.4-0.4
				c-0.2-0.1-0.6-0.2-1.2-0.2v-0.3h5.6c1.8,0,3.1,0.3,3.9,1c0.8,0.7,1.2,1.5,1.2,2.4c0,0.8-0.3,1.5-0.8,2.1c-0.5,0.6-1.2,1-2.1,1.2
				C-72-3219.6-73-3219.5-74.5-3219.5z M-74.5-3225.7v5.5c0.2,0,0.4,0,0.5,0c0.8,0,1.4-0.2,1.8-0.7c0.4-0.5,0.6-1.2,0.6-2.1
				c0-0.9-0.2-1.6-0.6-2.1c-0.4-0.4-1-0.7-1.9-0.7H-74.5z"/>
			<path d="M-62.4-3215c-1.1,0.9-2,1.4-2.9,1.4c-0.5,0-0.9-0.2-1.3-0.5c-0.3-0.3-0.5-0.7-0.5-1.2c0-0.7,0.3-1.3,0.9-1.8
				c0.6-0.5,1.8-1.2,3.8-2.1v-0.9c0-0.7,0-1.1-0.1-1.3c-0.1-0.2-0.2-0.3-0.4-0.5c-0.2-0.1-0.4-0.2-0.7-0.2c-0.4,0-0.7,0.1-1,0.3
				c-0.2,0.1-0.2,0.2-0.2,0.4c0,0.1,0.1,0.3,0.3,0.5c0.2,0.3,0.4,0.5,0.4,0.8c0,0.3-0.1,0.6-0.3,0.8c-0.2,0.2-0.5,0.3-0.9,0.3
				c-0.4,0-0.7-0.1-1-0.4c-0.3-0.2-0.4-0.5-0.4-0.8c0-0.5,0.2-0.9,0.5-1.3c0.4-0.4,0.9-0.7,1.5-0.9c0.6-0.2,1.3-0.3,2-0.3
				c0.8,0,1.5,0.2,2,0.5c0.5,0.4,0.8,0.7,0.9,1.2c0.1,0.3,0.1,0.9,0.1,1.8v3.4c0,0.4,0,0.7,0,0.8c0,0.1,0.1,0.2,0.1,0.2
				c0.1,0.1,0.1,0.1,0.2,0.1c0.2,0,0.3-0.1,0.5-0.3l0.3,0.2c-0.3,0.5-0.6,0.8-1,1c-0.3,0.2-0.7,0.3-1.1,0.3c-0.5,0-0.9-0.1-1.2-0.4
				C-62.2-3214.2-62.3-3214.5-62.4-3215z M-62.4-3215.7v-2.9c-0.8,0.4-1.3,0.9-1.7,1.4c-0.2,0.3-0.4,0.7-0.4,1
				c0,0.3,0.1,0.5,0.3,0.8c0.2,0.2,0.4,0.3,0.7,0.3C-63.2-3215.2-62.8-3215.3-62.4-3215.7z"/>
			<path d="M-54-3222.5v2c0.6-0.9,1.1-1.5,1.5-1.8c0.4-0.3,0.9-0.4,1.3-0.4c0.4,0,0.6,0.1,0.8,0.3c0.2,0.2,0.3,0.5,0.3,0.9
				c0,0.4-0.1,0.7-0.3,1c-0.2,0.2-0.4,0.3-0.7,0.3c-0.3,0-0.6-0.1-0.9-0.3c-0.2-0.2-0.4-0.3-0.4-0.4c-0.1,0-0.1-0.1-0.2-0.1
				c-0.2,0-0.4,0.1-0.5,0.2c-0.3,0.2-0.5,0.5-0.6,0.9c-0.2,0.6-0.3,1.3-0.3,2v2l0,0.5c0,0.4,0,0.6,0.1,0.7c0.1,0.2,0.2,0.3,0.3,0.4
				c0.1,0.1,0.4,0.1,0.7,0.1v0.3h-4.7v-0.3c0.4,0,0.6-0.1,0.8-0.3c0.1-0.2,0.2-0.6,0.2-1.4v-4.9c0-0.5,0-0.8-0.1-1
				c-0.1-0.2-0.2-0.3-0.3-0.4c-0.1-0.1-0.3-0.1-0.6-0.2v-0.3H-54z"/>
			<path d="M-45.6-3225.7v3.2h2.1v0.9h-2.1v5.4c0,0.5,0,0.8,0.1,1c0,0.1,0.1,0.3,0.2,0.4c0.1,0.1,0.2,0.1,0.3,0.1
				c0.4,0,0.8-0.3,1.2-0.9l0.3,0.2c-0.5,1.2-1.3,1.8-2.5,1.8c-0.6,0-1-0.2-1.4-0.5c-0.4-0.3-0.6-0.7-0.7-1c-0.1-0.2-0.1-0.8-0.1-1.7
				v-4.7h-1.1v-0.3c0.8-0.6,1.5-1.1,2-1.8c0.6-0.6,1-1.3,1.5-2.1H-45.6z"/>
			<path d="M-39.2-3222.5v7c0,0.6,0.1,1,0.2,1.2c0.1,0.2,0.4,0.3,0.8,0.3v0.3h-4.7v-0.3c0.4,0,0.7-0.1,0.9-0.3
				c0.1-0.1,0.2-0.5,0.2-1.1v-5.1c0-0.6-0.1-1-0.2-1.2c-0.1-0.2-0.4-0.3-0.8-0.3v-0.3H-39.2z M-40.6-3226.8c0.4,0,0.8,0.1,1,0.4
				c0.3,0.3,0.4,0.6,0.4,1c0,0.4-0.1,0.7-0.4,1c-0.3,0.3-0.6,0.4-1,0.4s-0.7-0.1-1-0.4c-0.3-0.3-0.4-0.6-0.4-1c0-0.4,0.1-0.7,0.4-1
				C-41.3-3226.6-41-3226.8-40.6-3226.8z"/>
			<path d="M-32.5-3215c-1.1,0.9-2,1.4-2.9,1.4c-0.5,0-0.9-0.2-1.3-0.5c-0.3-0.3-0.5-0.7-0.5-1.2c0-0.7,0.3-1.3,0.9-1.8
				c0.6-0.5,1.8-1.2,3.8-2.1v-0.9c0-0.7,0-1.1-0.1-1.3c-0.1-0.2-0.2-0.3-0.4-0.5c-0.2-0.1-0.4-0.2-0.7-0.2c-0.4,0-0.7,0.1-1,0.3
				c-0.2,0.1-0.2,0.2-0.2,0.4c0,0.1,0.1,0.3,0.3,0.5c0.2,0.3,0.4,0.5,0.4,0.8c0,0.3-0.1,0.6-0.3,0.8c-0.2,0.2-0.5,0.3-0.9,0.3
				c-0.4,0-0.7-0.1-1-0.4c-0.3-0.2-0.4-0.5-0.4-0.8c0-0.5,0.2-0.9,0.5-1.3c0.4-0.4,0.9-0.7,1.5-0.9c0.6-0.2,1.3-0.3,2-0.3
				c0.8,0,1.5,0.2,2,0.5c0.5,0.4,0.8,0.7,0.9,1.2c0.1,0.3,0.1,0.9,0.1,1.8v3.4c0,0.4,0,0.7,0,0.8c0,0.1,0.1,0.2,0.1,0.2
				s0.1,0.1,0.2,0.1c0.2,0,0.3-0.1,0.5-0.3l0.3,0.2c-0.3,0.5-0.6,0.8-1,1c-0.3,0.2-0.7,0.3-1.1,0.3c-0.5,0-0.9-0.1-1.2-0.4
				C-32.2-3214.2-32.4-3214.5-32.5-3215z M-32.5-3215.7v-2.9c-0.8,0.4-1.3,0.9-1.7,1.4c-0.2,0.3-0.4,0.7-0.4,1
				c0,0.3,0.1,0.5,0.3,0.8c0.2,0.2,0.4,0.3,0.7,0.3C-33.3-3215.2-32.9-3215.3-32.5-3215.7z"/>
			<path d="M-24.3-3226.5v10.9c0,0.6,0.1,1,0.2,1.2c0.1,0.2,0.4,0.3,0.8,0.3v0.3h-4.7v-0.3c0.4,0,0.7-0.1,0.9-0.3
				c0.1-0.1,0.2-0.5,0.2-1.1v-9.1c0-0.6-0.1-1-0.2-1.2c-0.1-0.2-0.4-0.3-0.8-0.3v-0.3H-24.3z"/>
			<path d="M-16.7-3209.6v-17.2h1.2v17.2H-16.7z"/>
			<path d="M-0.6-3220.5c1.2,0.3,2.1,0.6,2.5,1c0.7,0.6,1.1,1.3,1.1,2.2c0,1-0.4,1.8-1.2,2.4c-0.9,0.8-2.3,1.1-4.1,1.1h-6.5v-0.3
				c0.6,0,1-0.1,1.2-0.2c0.2-0.1,0.4-0.3,0.4-0.4c0.1-0.2,0.1-0.6,0.1-1.3v-8.3c0-0.7,0-1.1-0.1-1.3c-0.1-0.2-0.2-0.3-0.4-0.4
				c-0.2-0.1-0.6-0.2-1.2-0.2v-0.3h6.1c1.5,0,2.5,0.1,3.1,0.4c0.6,0.3,1.1,0.6,1.4,1.2c0.4,0.5,0.5,1.1,0.5,1.6
				c0,0.6-0.2,1.2-0.7,1.6C1.3-3221.1,0.5-3220.7-0.6-3220.5z M-4-3220v4.1l0,0.5c0,0.3,0.1,0.6,0.3,0.8c0.2,0.2,0.4,0.3,0.8,0.3
				c0.5,0,1-0.1,1.4-0.3c0.4-0.2,0.7-0.5,1-1c0.2-0.4,0.3-0.9,0.3-1.4c0-0.6-0.1-1.1-0.4-1.6c-0.3-0.5-0.7-0.8-1.1-1
				C-2.3-3219.9-3-3220-4-3220z M-4-3220.7c0.9,0,1.5-0.1,2-0.3s0.7-0.5,1-0.8c0.2-0.4,0.3-0.8,0.3-1.4c0-0.6-0.1-1-0.3-1.4
				s-0.5-0.6-1-0.8c-0.4-0.2-1.1-0.3-2-0.3V-3220.7z"/>
		</g>
		<g class="st2">
			<path d="M4.3-3227.3h0.8l-0.2,6.8c0.5-0.8,1.2-1.2,2.2-1.2c1.3,0,2.6,1,2.6,2.4c0,2-2.7,3.8-5.4,5.9V-3227.3z M4.9-3218.2v1
				c0,1.2,0.1,2.1,0.1,2.5c1.2-0.9,2.8-3.3,2.8-4.6c0-0.7-0.6-1.3-1.3-1.3C5.2-3220.7,4.9-3219.3,4.9-3218.2z"/>
		</g>
		<g class="st2">
			<path d="M19.5-3225.7v3.2h2.1v0.9h-2.1v5.4c0,0.5,0,0.8,0.1,1c0,0.1,0.1,0.3,0.2,0.4c0.1,0.1,0.2,0.1,0.3,0.1
				c0.4,0,0.8-0.3,1.2-0.9l0.3,0.2c-0.5,1.2-1.3,1.8-2.5,1.8c-0.6,0-1-0.2-1.4-0.5c-0.4-0.3-0.6-0.7-0.7-1c-0.1-0.2-0.1-0.8-0.1-1.7
				v-4.7h-1.1v-0.3c0.8-0.6,1.5-1.1,2-1.8c0.6-0.6,1-1.3,1.5-2.1H19.5z"/>
			<path d="M26.6-3222.8c0.8,0,1.5,0.2,2.1,0.6c0.7,0.4,1.2,1,1.5,1.7c0.3,0.7,0.5,1.5,0.5,2.4c0,1.2-0.3,2.3-0.9,3.1
				c-0.8,1-1.8,1.5-3.2,1.5c-1.3,0-2.3-0.5-3.1-1.4c-0.7-0.9-1.1-2-1.1-3.2c0-1.3,0.4-2.4,1.1-3.3
				C24.3-3222.3,25.3-3222.8,26.6-3222.8z M26.6-3222.1c-0.3,0-0.6,0.1-0.8,0.4c-0.2,0.2-0.4,0.7-0.5,1.4c-0.1,0.7-0.1,1.7-0.1,3
				c0,0.7,0,1.3,0.1,1.9c0.1,0.4,0.2,0.8,0.4,1c0.2,0.2,0.5,0.3,0.8,0.3c0.3,0,0.5-0.1,0.7-0.2c0.2-0.2,0.4-0.5,0.5-0.9
				c0.1-0.6,0.2-1.8,0.2-3.6c0-1.1-0.1-1.8-0.2-2.2c-0.1-0.4-0.3-0.7-0.5-0.9C27.1-3222,26.9-3222.1,26.6-3222.1z"/>
			<path d="M41.5-3225.7v5.2h0.3c0.8,0,1.4-0.3,1.8-0.8c0.4-0.5,0.6-1.3,0.7-2.2h0.4v6.7h-0.4c-0.1-0.7-0.2-1.3-0.5-1.8
				c-0.2-0.5-0.5-0.8-0.8-0.9c-0.3-0.2-0.8-0.2-1.4-0.2v3.6c0,0.7,0,1.1,0.1,1.3c0.1,0.2,0.2,0.3,0.3,0.4c0.2,0.1,0.4,0.2,0.8,0.2
				h0.8c1.2,0,2.1-0.3,2.9-0.8c0.7-0.6,1.2-1.4,1.5-2.5h0.3l-0.6,4.1h-11v-0.3H37c0.4,0,0.7-0.1,0.9-0.2c0.2-0.1,0.3-0.2,0.4-0.5
				c0.1-0.1,0.1-0.5,0.1-1.2v-8.4c0-0.6,0-0.9,0-1.1c-0.1-0.2-0.2-0.4-0.3-0.5c-0.2-0.2-0.6-0.3-1-0.3h-0.4v-0.3h10.7v3.8h-0.4
				c-0.2-0.9-0.4-1.6-0.8-2c-0.3-0.4-0.8-0.7-1.4-0.9c-0.4-0.1-1-0.2-2-0.2H41.5z"/>
		</g>
	</g>
	<g transform="matrix(1.32874,0,0,1.32874,143.504,4288.21)">
	</g>
	<g transform="matrix(1.32874,0,0,1.32874,0,0)">
	</g>
	<g transform="matrix(1.32874,0,0,1.32874,0,0)">
		<line vector-effect="none" class="st0" x1="60" y1="77.9" x2="82.8" y2="77.9"/>
	</g>
	<g transform="matrix(1.32874,0,0,1.32874,0,0)">
		<line vector-effect="none" class="st0" x1="60" y1="85.9" x2="82.8" y2="85.9"/>
	</g>
	<g transform="matrix(1.32874,0,0,1.32874,0,0)">
		<g class="st2">
			<path d="M78.7,89.9c0,2.4-1.8,4.4-7.5,4.4c-5.2,0-7.2-2.1-7.2-4.4c0-2.4,2.9-4.3,7.5-4.3C74.8,85.6,78.7,87.4,78.7,89.9z
				 M67.7,88.6c0,1.1,0.5,2.3,1.2,3.1c0.2,0.3,0.5,0.5,0.7,0.8c0.5,0.4,1.1,0.7,1.6,0.9c0.3,0.1,0.6,0.1,0.9,0.1
				c0.4,0,0.7,0,1.1-0.1c0.9-0.2,1.4-0.8,1.5-1.7c0-0.2,0.1-0.4,0.1-0.6c0-2.1-1.9-4.7-4.3-4.7c-1.1,0-2.4,0.2-2.8,1.4
				C67.8,88,67.7,88.3,67.7,88.6z"/>
		</g>
	</g>
	<g transform="matrix(1.32874,0,0,1.32874,0,0)">
		<g class="st2">
			<path d="M51.5,76.8c0-0.6,0.5-0.9,1-0.9c0.3,0,0.6,0.2,0.6,0.5c0,0.6-0.2,8.3-0.2,9c0,0.2,0.1,0.4,0.4,0.5c0.1,0,0.1,0,0.2,0
				c0.3,0,0.5-0.3,0.7-0.4c0.4-0.2,0.7-0.4,1.1-0.4c0.2-0.1,0.4-0.1,0.7-0.1c1.5,0.1,2.9,1.2,2.9,3.1c0,1.5-1,3.4-3.8,5.4
				c-0.8,0.5-1.6,1.4-2.5,2c0,0-0.1,0.1-0.2,0.1c-0.1,0-0.2,0-0.3-0.2C51.6,95,51.5,76.8,51.5,76.8z M53.4,93c0.1,0,0.2,0,0.3-0.1
				c1-0.6,1.9-1.6,2.3-2.4c0.4-0.7,0.5-1.3,0.5-1.9c0-0.6-0.2-1.2-0.5-1.5c-0.2-0.2-0.5-0.4-0.8-0.4c-0.3,0-0.5,0.1-0.8,0.2
				c-0.4,0.3-1.3,1-1.4,1.3c0,0.1-0.1,0.5-0.1,1c0,1.3,0.1,3.2,0.1,3.2C53,92.7,53.1,93,53.4,93z"/>
		</g>
	</g>
	<g transform="matrix(1.32874,0,0,1.32874,0,0)">
		<line vector-effect="none" class="st0" x1="125.5" y1="77.9" x2="148.2" y2="77.9"/>
	</g>
	<g transform="matrix(1.32874,0,0,1.32874,0,0)">
		<line vector-effect="none" class="st0" x1="125.5" y1="85.9" x2="148.2" y2="85.9"/>
	</g>
	<g transform="matrix(1.32874,0,0,1.32874,0,0)">
		<line vector-effect="none" class="st0" x1="125.5" y1="93.9" x2="148.2" y2="93.9"/>
	</g>
	<g transform="matrix(1.32874,0,0,1.32874,0,0)">
		<g class="st2">
			<path d="M144.2,93.9c0,2.4-1.8,4.4-7.5,4.4c-5.2,0-7.2-2.1-7.2-4.4c0-2.4,2.9-4.3,7.5-4.3C140.3,89.6,144.2,91.4,144.2,93.9z
				 M133.2,92.6c0,1.1,0.5,2.3,1.2,3.1c0.2,0.3,0.5,0.5,0.7,0.8c0.5,0.4,1.1,0.7,1.6,0.9c0.3,0.1,0.6,0.1,0.9,0.1
				c0.4,0,0.7,0,1.1-0.1c0.9-0.2,1.4-0.8,1.5-1.7c0-0.2,0.1-0.4,0.1-0.6c0-2.1-1.9-4.7-4.3-4.7c-1.1,0-2.4,0.2-2.8,1.4
				C133.3,92,133.2,92.3,133.2,92.6z"/>
		</g>
	</g>
	<g transform="matrix(1.32874,0,0,1.32874,0,0)">
		<line vector-effect="none" class="st0" x1="194.2" y1="77.9" x2="217" y2="77.9"/>
	</g>
	<g transform="matrix(1.32874,0,0,1.32874,0,0)">
		<line vector-effect="none" class="st0" x1="194.2" y1="85.9" x2="217" y2="85.9"/>
	</g>
	<g transform="matrix(1.32874,0,0,1.32874,0,0)">
		<g class="st2">
			<path d="M212.9,89.9c0,2.4-1.8,4.4-7.5,4.4c-5.2,0-7.2-2.1-7.2-4.4c0-2.4,2.9-4.3,7.5-4.3C209,85.6,212.9,87.4,212.9,89.9z
				 M202,88.6c0,1.1,0.5,2.3,1.2,3.1c0.2,0.3,0.5,0.5,0.7,0.8c0.5,0.4,1.1,0.7,1.6,0.9c0.3,0.1,0.6,0.1,0.9,0.1c0.4,0,0.7,0,1.1-0.1
				c0.9-0.2,1.4-0.8,1.5-1.7c0-0.2,0.1-0.4,0.1-0.6c0-2.1-1.9-4.7-4.3-4.7c-1.1,0-2.4,0.2-2.8,1.4C202,88,202,88.3,202,88.6z"/>
		</g>
	</g>
	<g transform="matrix(1.32874,0,0,1.32874,0,0)">
		<g class="st2">
			<path d="M185.8,76.8c0-0.6,0.5-0.9,1-0.9c0.3,0,0.6,0.2,0.6,0.5c0,0.6-0.2,8.3-0.2,9c0,0.2,0.1,0.4,0.4,0.5c0.1,0,0.1,0,0.2,0
				c0.3,0,0.5-0.3,0.7-0.4c0.4-0.2,0.7-0.4,1.1-0.4c0.2-0.1,0.4-0.1,0.7-0.1c1.5,0.1,2.9,1.2,2.9,3.1c0,1.5-1,3.4-3.8,5.4
				c-0.8,0.5-1.6,1.4-2.5,2c0,0-0.1,0.1-0.2,0.1c-0.1,0-0.2,0-0.3-0.2C185.9,95,185.8,76.8,185.8,76.8z M187.6,93
				c0.1,0,0.2,0,0.3-0.1c1-0.6,1.9-1.6,2.3-2.4c0.4-0.7,0.5-1.3,0.5-1.9c0-0.6-0.2-1.2-0.5-1.5c-0.2-0.2-0.5-0.4-0.8-0.4
				c-0.3,0-0.5,0.1-0.8,0.2c-0.4,0.3-1.3,1-1.4,1.3c0,0.1-0.1,0.5-0.1,1c0,1.3,0.1,3.2,0.1,3.2C187.3,92.7,187.3,93,187.6,93z"/>
		</g>
	</g>
	<g transform="matrix(1.32874,0,0,1.32874,0,0)">
		<line vector-effect="none" class="st0" x1="262.8" y1="77.9" x2="285.5" y2="77.9"/>
	</g>
	<g transform="matrix(1.32874,0,0,1.32874,0,0)">
		<line vector-effect="none" class="st0" x1="262.8" y1="85.9" x2="285.5" y2="85.9"/>
	</g>
	<g transform="matrix(1.32874,0,0,1.32874,0,0)">
		<line vector-effect="none" class="st0" x1="262.8" y1="93.9" x2="285.5" y2="93.9"/>
	</g>
	<g transform="matrix(1.32874,0,0,1.32874,0,0)">
		<g class="st2">
			<path d="M281.4,93.9c0,2.4-1.8,4.4-7.5,4.4c-5.2,0-7.2-2.1-7.2-4.4c0-2.4,2.9-4.3,7.5-4.3C277.5,89.6,281.4,91.4,281.4,93.9z
				 M270.5,92.6c0,1.1,0.5,2.3,1.2,3.1c0.2,0.3,0.5,0.5,0.7,0.8c0.5,0.4,1.1,0.7,1.6,0.9c0.3,0.1,0.6,0.1,0.9,0.1
				c0.4,0,0.7,0,1.1-0.1c0.9-0.2,1.4-0.8,1.5-1.7c0-0.2,0.1-0.4,0.1-0.6c0-2.1-1.9-4.7-4.3-4.7c-1.1,0-2.4,0.2-2.8,1.4
				C270.5,92,270.5,92.3,270.5,92.6z"/>
		</g>
	</g>
	<g transform="matrix(1.32874,0,0,1.32874,0,0)">
		<g class="st2">
			<path d="M254.2,80.8c0-0.6,0.5-0.9,1-0.9c0.3,0,0.6,0.2,0.6,0.5c0,0.6-0.2,8.3-0.2,9c0,0.2,0.1,0.4,0.4,0.5c0.1,0,0.1,0,0.2,0
				c0.3,0,0.5-0.3,0.7-0.4c0.4-0.2,0.7-0.4,1.1-0.4c0.2-0.1,0.4-0.1,0.7-0.1c1.5,0.1,2.9,1.2,2.9,3.1c0,1.5-1,3.4-3.8,5.4
				c-0.8,0.5-1.6,1.4-2.5,2c0,0-0.1,0.1-0.2,0.1c-0.1,0-0.2,0-0.3-0.2C254.4,99,254.2,80.8,254.2,80.8z M256.1,97
				c0.1,0,0.2,0,0.3-0.1c1-0.6,1.9-1.6,2.3-2.4c0.4-0.7,0.5-1.3,0.5-1.9c0-0.6-0.2-1.2-0.5-1.5c-0.2-0.2-0.5-0.4-0.8-0.4
				c-0.3,0-0.5,0.1-0.8,0.2c-0.4,0.3-1.3,1-1.4,1.3c0,0.1-0.1,0.5-0.1,1c0,1.3,0.1,3.2,0.1,3.2C255.8,96.7,255.8,97,256.1,97z"/>
		</g>
	</g>
	<g transform="matrix(1.32874,0,0,1.32874,0,0)">
		<line vector-effect="none" class="st0" x1="331.5" y1="77.9" x2="354.2" y2="77.9"/>
	</g>
	<g transform="matrix(1.32874,0,0,1.32874,0,0)">
		<line vector-effect="none" class="st0" x1="331.5" y1="85.9" x2="354.2" y2="85.9"/>
	</g>
	<g transform="matrix(1.32874,0,0,1.32874,0,0)">
		<g class="st2">
			<path d="M350.2,89.9c0,2.4-1.8,4.4-7.5,4.4c-5.2,0-7.2-2.1-7.2-4.4c0-2.4,2.9-4.3,7.5-4.3C346.3,85.6,350.2,87.4,350.2,89.9z
				 M339.2,88.6c0,1.1,0.5,2.3,1.2,3.1c0.2,0.3,0.5,0.5,0.7,0.8c0.5,0.4,1.1,0.7,1.6,0.9c0.3,0.1,0.6,0.1,0.9,0.1
				c0.4,0,0.7,0,1.1-0.1c0.9-0.2,1.4-0.8,1.5-1.7c0-0.2,0.1-0.4,0.1-0.6c0-2.1-1.9-4.7-4.3-4.7c-1.1,0-2.4,0.2-2.8,1.4
				C339.3,88,339.2,88.3,339.2,88.6z"/>
		</g>
	</g>
	<g transform="matrix(1.32874,0,0,1.32874,0,0)">
		<g class="st2">
			<path d="M323,76.8c0-0.6,0.5-0.9,1-0.9c0.3,0,0.6,0.2,0.6,0.5c0,0.6-0.2,8.3-0.2,9c0,0.2,0.1,0.4,0.4,0.5c0.1,0,0.1,0,0.2,0
				c0.3,0,0.5-0.3,0.7-0.4c0.4-0.2,0.7-0.4,1.1-0.4c0.2-0.1,0.4-0.1,0.7-0.1c1.5,0.1,2.9,1.2,2.9,3.1c0,1.5-1,3.4-3.8,5.4
				c-0.8,0.5-1.6,1.4-2.5,2c0,0-0.1,0.1-0.2,0.1c-0.1,0-0.2,0-0.3-0.2C323.1,95,323,76.8,323,76.8z M324.9,93c0.1,0,0.2,0,0.3-0.1
				c1-0.6,1.9-1.6,2.3-2.4c0.4-0.7,0.5-1.3,0.5-1.9c0-0.6-0.2-1.2-0.5-1.5c-0.2-0.2-0.5-0.4-0.8-0.4c-0.3,0-0.5,0.1-0.8,0.2
				c-0.4,0.3-1.3,1-1.4,1.3c0,0.1-0.1,0.5-0.1,1c0,1.3,0.1,3.2,0.1,3.2C324.5,92.7,324.6,93,324.9,93z"/>
		</g>
	</g>
	<g transform="matrix(1.32874,0,0,1.32874,0,0)">
		<line vector-effect="none" class="st0" x1="397" y1="77.9" x2="419.8" y2="77.9"/>
	</g>
	<g transform="matrix(1.32874,0,0,1.32874,0,0)">
		<line vector-effect="none" class="st0" x1="397" y1="85.9" x2="419.8" y2="85.9"/>
	</g>
	<g transform="matrix(1.32874,0,0,1.32874,0,0)">
		<line vector-effect="none" class="st0" x1="397" y1="93.9" x2="419.8" y2="93.9"/>
	</g>
	<g transform="matrix(1.32874,0,0,1.32874,0,0)">
		<g class="st2">
			<path d="M415.7,97.9c0,2.4-1.8,4.4-7.5,4.4c-5.2,0-7.2-2.1-7.2-4.4c0-2.4,2.9-4.3,7.5-4.3C411.8,93.6,415.7,95.4,415.7,97.9z
				 M404.7,96.6c0,1.1,0.5,2.3,1.2,3.1c0.2,0.3,0.5,0.5,0.7,0.8c0.5,0.4,1.1,0.7,1.6,0.9c0.3,0.1,0.6,0.1,0.9,0.1
				c0.4,0,0.7,0,1.1-0.1c0.9-0.2,1.4-0.8,1.5-1.7c0-0.2,0.1-0.4,0.1-0.6c0-2.1-1.9-4.7-4.3-4.7c-1.1,0-2.4,0.2-2.8,1.4
				C404.8,96,404.7,96.3,404.7,96.6z"/>
		</g>
	</g>
	<g transform="matrix(1.32874,0,0,1.32874,0,0)">
		<line vector-effect="none" class="st0" x1="465.8" y1="77.9" x2="488.5" y2="77.9"/>
	</g>
	<g transform="matrix(1.32874,0,0,1.32874,0,0)">
		<line vector-effect="none" class="st0" x1="465.8" y1="85.9" x2="488.5" y2="85.9"/>
	</g>
	<g transform="matrix(1.32874,0,0,1.32874,0,0)">
		<g class="st2">
			<path d="M484.4,89.9c0,2.4-1.8,4.4-7.5,4.4c-5.2,0-7.2-2.1-7.2-4.4c0-2.4,2.9-4.3,7.5-4.3C480.5,85.6,484.4,87.4,484.4,89.9z
				 M473.5,88.6c0,1.1,0.5,2.3,1.2,3.1c0.2,0.3,0.5,0.5,0.7,0.8c0.5,0.4,1.1,0.7,1.6,0.9c0.3,0.1,0.6,0.1,0.9,0.1
				c0.4,0,0.7,0,1.1-0.1c0.9-0.2,1.4-0.8,1.5-1.7c0-0.2,0.1-0.4,0.1-0.6c0-2.1-1.9-4.7-4.3-4.7c-1.1,0-2.4,0.2-2.8,1.4
				C473.5,88,473.5,88.3,473.5,88.6z"/>
		</g>
	</g>
	<g transform="matrix(1.32874,0,0,1.32874,0,0)">
		<g class="st2">
			<path d="M457.3,76.8c0-0.6,0.5-0.9,1-0.9c0.3,0,0.6,0.2,0.6,0.5c0,0.6-0.2,8.3-0.2,9c0,0.2,0.1,0.4,0.4,0.5c0.1,0,0.1,0,0.2,0
				c0.3,0,0.5-0.3,0.7-0.4c0.4-0.2,0.7-0.4,1.1-0.4c0.2-0.1,0.4-0.1,0.7-0.1c1.5,0.1,2.9,1.2,2.9,3.1c0,1.5-1,3.4-3.8,5.4
				c-0.8,0.5-1.6,1.4-2.5,2c0,0-0.1,0.1-0.2,0.1c-0.1,0-0.2,0-0.3-0.2C457.4,95,457.3,76.8,457.3,76.8z M459.1,93
				c0.1,0,0.2,0,0.3-0.1c1-0.6,1.9-1.6,2.3-2.4c0.4-0.7,0.5-1.3,0.5-1.9c0-0.6-0.2-1.2-0.5-1.5c-0.2-0.2-0.5-0.4-0.8-0.4
				c-0.3,0-0.5,0.1-0.8,0.2c-0.4,0.3-1.3,1-1.4,1.3c0,0.1-0.1,0.5-0.1,1c0,1.3,0.1,3.2,0.1,3.2C458.8,92.7,458.8,93,459.1,93z"/>
		</g>
	</g>
	<g transform="matrix(1.32874,0,0,1.32874,0,0)">
		<line vector-effect="none" class="st0" x1="534.2" y1="77.9" x2="557" y2="77.9"/>
	</g>
	<g transform="matrix(1.32874,0,0,1.32874,0,0)">
		<line vector-effect="none" class="st0" x1="534.2" y1="85.9" x2="557" y2="85.9"/>
	</g>
	<g transform="matrix(1.32874,0,0,1.32874,0,0)">
		<line vector-effect="none" class="st0" x1="534.2" y1="93.9" x2="557" y2="93.9"/>
	</g>
	<g transform="matrix(1.32874,0,0,1.32874,0,0)">
		<g class="st2">
			<path d="M552.9,97.9c0,2.4-1.8,4.4-7.5,4.4c-5.2,0-7.2-2.1-7.2-4.4c0-2.4,2.9-4.3,7.5-4.3C549,93.6,552.9,95.4,552.9,97.9z
				 M542,96.6c0,1.1,0.5,2.3,1.2,3.1c0.2,0.3,0.5,0.5,0.7,0.8c0.5,0.4,1.1,0.7,1.6,0.9c0.3,0.1,0.6,0.1,0.9,0.1c0.4,0,0.7,0,1.1-0.1
				c0.9-0.2,1.4-0.8,1.5-1.7c0-0.2,0.1-0.4,0.1-0.6c0-2.1-1.9-4.7-4.3-4.7c-1.1,0-2.4,0.2-2.8,1.4C542,96,542,96.3,542,96.6z"/>
		</g>
	</g>
	<g transform="matrix(1.32874,0,0,1.32874,0,0)">
		<g class="st2">
			<path d="M525.7,84.8c0-0.6,0.5-0.9,1-0.9c0.3,0,0.6,0.2,0.6,0.5c0,0.6-0.2,8.3-0.2,9c0,0.2,0.1,0.4,0.4,0.5c0.1,0,0.1,0,0.2,0
				c0.3,0,0.5-0.3,0.7-0.4c0.4-0.2,0.7-0.4,1.1-0.4c0.2-0.1,0.4-0.1,0.7-0.1c1.5,0.1,2.9,1.2,2.9,3.1c0,1.5-1,3.4-3.8,5.4
				c-0.8,0.5-1.6,1.4-2.5,2c0,0-0.1,0.1-0.2,0.1c-0.1,0-0.2,0-0.3-0.2C525.9,103,525.7,84.8,525.7,84.8z M527.6,101
				c0.1,0,0.2,0,0.3-0.1c1-0.6,1.9-1.6,2.3-2.4c0.4-0.7,0.5-1.3,0.5-1.9c0-0.6-0.2-1.2-0.5-1.5c-0.2-0.2-0.5-0.4-0.8-0.4
				c-0.3,0-0.5,0.1-0.8,0.2c-0.4,0.3-1.3,1-1.4,1.3c0,0.1-0.1,0.5-0.1,1c0,1.3,0.1,3.2,0.1,3.2C527.3,100.7,527.3,101,527.6,101z"/>
		</g>
	</g>
	<g transform="matrix(1.32874,0,0,1.32874,0,0)">
		<line vector-effect="none" class="st0" x1="602.8" y1="77.9" x2="625.5" y2="77.9"/>
	</g>
	<g transform="matrix(1.32874,0,0,1.32874,0,0)">
		<line vector-effect="none" class="st0" x1="602.8" y1="85.9" x2="625.5" y2="85.9"/>
	</g>
	<g transform="matrix(1.32874,0,0,1.32874,0,0)">
		<g class="st2">
			<path d="M621.4,89.9c0,2.4-1.8,4.4-7.5,4.4c-5.2,0-7.2-2.1-7.2-4.4c0-2.4,2.9-4.3,7.5-4.3C617.5,85.6,621.4,87.4,621.4,89.9z
				 M610.5,88.6c0,1.1,0.5,2.3,1.2,3.1c0.2,0.3,0.5,0.5,0.7,0.8c0.5,0.4,1.1,0.7,1.6,0.9c0.3,0.1,0.6,0.1,0.9,0.1
				c0.4,0,0.7,0,1.1-0.1c0.9-0.2,1.4-0.8,1.5-1.7c0-0.2,0.1-0.4,0.1-0.6c0-2.1-1.9-4.7-4.3-4.7c-1.1,0-2.4,0.2-2.8,1.4
				C610.5,88,610.5,88.3,610.5,88.6z"/>
		</g>
	</g>
	<g transform="matrix(1.32874,0,0,1.32874,0,0)">
		<g class="st2">
			<path d="M594.2,76.8c0-0.6,0.5-0.9,1-0.9c0.3,0,0.6,0.2,0.6,0.5c0,0.6-0.2,8.3-0.2,9c0,0.2,0.1,0.4,0.4,0.5c0.1,0,0.1,0,0.2,0
				c0.3,0,0.5-0.3,0.7-0.4c0.4-0.2,0.7-0.4,1.1-0.4c0.2-0.1,0.4-0.1,0.7-0.1c1.5,0.1,2.9,1.2,2.9,3.1c0,1.5-1,3.4-3.8,5.4
				c-0.8,0.5-1.6,1.4-2.5,2c0,0-0.1,0.1-0.2,0.1c-0.1,0-0.2,0-0.3-0.2C594.4,95,594.2,76.8,594.2,76.8z M596.1,93
				c0.1,0,0.2,0,0.3-0.1c1-0.6,1.9-1.6,2.3-2.4c0.4-0.7,0.5-1.3,0.5-1.9c0-0.6-0.2-1.2-0.5-1.5c-0.2-0.2-0.5-0.4-0.8-0.4
				c-0.3,0-0.5,0.1-0.8,0.2c-0.4,0.3-1.3,1-1.4,1.3c0,0.1-0.1,0.5-0.1,1c0,1.3,0.1,3.2,0.1,3.2C595.8,92.7,595.8,93,596.1,93z"/>
		</g>
	</g>
	<g transform="matrix(1.32874,0,0,1.32874,0,0)">
		<line vector-effect="none" class="st0" x1="668.5" y1="77.9" x2="691.2" y2="77.9"/>
	</g>
	<g transform="matrix(1.32874,0,0,1.32874,0,0)">
		<line vector-effect="none" class="st0" x1="668.5" y1="85.9" x2="691.2" y2="85.9"/>
	</g>
	<g transform="matrix(1.32874,0,0,1.32874,0,0)">
		<line vector-effect="none" class="st0" x1="668.5" y1="93.9" x2="691.2" y2="93.9"/>
	</g>
	<g transform="matrix(1.32874,0,0,1.32874,0,0)">
		<line vector-effect="none" class="st0" x1="668.5" y1="101.9" x2="691.2" y2="101.9"/>
	</g>
	<g transform="matrix(1.32874,0,0,1.32874,0,0)">
		<g class="st2">
			<path d="M687.2,101.9c0,2.4-1.8,4.4-7.5,4.4c-5.2,0-7.2-2.1-7.2-4.4c0-2.4,2.9-4.3,7.5-4.3C683.3,97.6,687.2,99.4,687.2,101.9z
				 M676.2,100.6c0,1.1,0.5,2.3,1.2,3.1c0.2,0.3,0.5,0.5,0.7,0.8c0.5,0.4,1.1,0.7,1.6,0.9c0.3,0.1,0.6,0.1,0.9,0.1
				c0.4,0,0.7,0,1.1-0.1c0.9-0.2,1.4-0.8,1.5-1.7c0-0.2,0.1-0.4,0.1-0.6c0-2.1-1.9-4.7-4.3-4.7c-1.1,0-2.4,0.2-2.8,1.4
				C676.3,100,676.2,100.3,676.2,100.6z"/>
		</g>
	</g>
	<g transform="matrix(1.32874,0,0,1.32874,0,0)">
		<line vector-effect="none" class="st0" x1="737" y1="77.9" x2="759.8" y2="77.9"/>
	</g>
	<g transform="matrix(1.32874,0,0,1.32874,0,0)">
		<line vector-effect="none" class="st0" x1="737" y1="85.9" x2="759.8" y2="85.9"/>
	</g>
	<g transform="matrix(1.32874,0,0,1.32874,0,0)">
		<g class="st2">
			<path d="M755.7,89.9c0,2.4-1.8,4.4-7.5,4.4c-5.2,0-7.2-2.1-7.2-4.4c0-2.4,2.9-4.3,7.5-4.3C751.8,85.6,755.7,87.4,755.7,89.9z
				 M744.7,88.6c0,1.1,0.5,2.3,1.2,3.1c0.2,0.3,0.5,0.5,0.7,0.8c0.5,0.4,1.1,0.7,1.6,0.9c0.3,0.1,0.6,0.1,0.9,0.1
				c0.4,0,0.7,0,1.1-0.1c0.9-0.2,1.4-0.8,1.5-1.7c0-0.2,0.1-0.4,0.1-0.6c0-2.1-1.9-4.7-4.3-4.7c-1.1,0-2.4,0.2-2.8,1.4
				C744.8,88,744.7,88.3,744.7,88.6z"/>
		</g>
	</g>
	<g transform="matrix(1.32874,0,0,1.32874,0,0)">
		<g class="st2">
			<path d="M728.5,76.8c0-0.6,0.5-0.9,1-0.9c0.3,0,0.6,0.2,0.6,0.5c0,0.6-0.2,8.3-0.2,9c0,0.2,0.1,0.4,0.4,0.5c0.1,0,0.1,0,0.2,0
				c0.3,0,0.5-0.3,0.7-0.4c0.4-0.2,0.7-0.4,1.1-0.4c0.2-0.1,0.4-0.1,0.7-0.1c1.5,0.1,2.9,1.2,2.9,3.1c0,1.5-1,3.4-3.8,5.4
				c-0.8,0.5-1.6,1.4-2.5,2c0,0-0.1,0.1-0.2,0.1c-0.1,0-0.2,0-0.3-0.2C728.6,95,728.5,76.8,728.5,76.8z M730.4,93
				c0.1,0,0.2,0,0.3-0.1c1-0.6,1.9-1.6,2.3-2.4c0.4-0.7,0.5-1.3,0.5-1.9c0-0.6-0.2-1.2-0.5-1.5c-0.2-0.2-0.5-0.4-0.8-0.4
				c-0.3,0-0.5,0.1-0.8,0.2c-0.4,0.3-1.3,1-1.4,1.3c0,0.1-0.1,0.5-0.1,1c0,1.3,0.1,3.2,0.1,3.2C730,92.7,730.1,93,730.4,93z"/>
		</g>
	</g>
	<g transform="matrix(1.32874,0,0,1.32874,0,0)">
		<line vector-effect="none" class="st0" x1="802.8" y1="77.9" x2="825.5" y2="77.9"/>
	</g>
	<g transform="matrix(1.32874,0,0,1.32874,0,0)">
		<line vector-effect="none" class="st0" x1="802.8" y1="85.9" x2="825.5" y2="85.9"/>
	</g>
	<g transform="matrix(1.32874,0,0,1.32874,0,0)">
		<line vector-effect="none" class="st0" x1="802.8" y1="93.9" x2="825.5" y2="93.9"/>
	</g>
	<g transform="matrix(1.32874,0,0,1.32874,0,0)">
		<line vector-effect="none" class="st0" x1="802.8" y1="101.9" x2="825.5" y2="101.9"/>
	</g>
	<g transform="matrix(1.32874,0,0,1.32874,0,0)">
		<g class="st2">
			<path d="M821.4,105.9c0,2.4-1.8,4.4-7.5,4.4c-5.2,0-7.2-2.1-7.2-4.4c0-2.4,2.9-4.3,7.5-4.3C817.5,101.6,821.4,103.4,821.4,105.9z
				 M810.5,104.6c0,1.1,0.5,2.3,1.2,3.1c0.2,0.3,0.5,0.5,0.7,0.8c0.5,0.4,1.1,0.7,1.6,0.9c0.3,0.1,0.6,0.1,0.9,0.1
				c0.4,0,0.7,0,1.1-0.1c0.9-0.2,1.4-0.8,1.5-1.7c0-0.2,0.1-0.4,0.1-0.6c0-2.1-1.9-4.7-4.3-4.7c-1.1,0-2.4,0.2-2.8,1.4
				C810.5,104,810.5,104.3,810.5,104.6z"/>
		</g>
	</g>
</g>
</svg>
