<?xml version="1.0" encoding="utf-8"?>
<!-- Generator: Adobe Illustrator 26.5.0, SVG Export Plug-In . SVG Version: 6.00 Build 0)  -->
<svg version="1.1" id="Layer_1" xmlns="http://www.w3.org/2000/svg" xmlns:xlink="http://www.w3.org/1999/xlink" x="0px" y="0px"
	 viewBox="0 0 1152.7 192.3" style="enable-background:new 0 0 1152.7 192.3;" xml:space="preserve">
<style type="text/css">
	.st0{fill:none;stroke:#000000;stroke-width:1.6609;stroke-linejoin:bevel;stroke-miterlimit:1.3287;}
	.st1{fill:none;stroke:#000000;stroke-width:5.315;stroke-linejoin:bevel;stroke-miterlimit:1.3287;}
	.st2{enable-background:new    ;}
	.st3{fill:none;stroke:#000000;stroke-width:1.3287;stroke-linejoin:bevel;stroke-miterlimit:1.3287;}
	.st4{fill:none;stroke:#000000;stroke-width:0.9966;stroke-linejoin:bevel;stroke-miterlimit:1.3287;}
	.st5{fill-rule:evenodd;clip-rule:evenodd;stroke:#000000;stroke-width:0.3322;stroke-linejoin:bevel;stroke-miterlimit:1.3287;}
</style>
<g>
	<g transform="matrix(1.32874,0,0,1.32874,0,0)">
		<line vector-effect="none" class="st0" x1="117" y1="37.9" x2="117" y2="69.9"/>
	</g>
	<g transform="matrix(1.32874,0,0,1.32874,0,0)">
		<line vector-effect="none" class="st0" x1="182.8" y1="37.9" x2="182.8" y2="69.9"/>
	</g>
	<g transform="matrix(1.32874,0,0,1.32874,0,0)">
		<line vector-effect="none" class="st0" x1="251.2" y1="37.9" x2="251.2" y2="69.9"/>
	</g>
	<g transform="matrix(1.32874,0,0,1.32874,0,0)">
		<line vector-effect="none" class="st0" x1="320" y1="37.9" x2="320" y2="69.9"/>
	</g>
	<g transform="matrix(1.32874,0,0,1.32874,0,0)">
		<line vector-effect="none" class="st0" x1="388.5" y1="37.9" x2="388.5" y2="69.9"/>
	</g>
	<g transform="matrix(1.32874,0,0,1.32874,0,0)">
		<line vector-effect="none" class="st0" x1="454.2" y1="37.9" x2="454.2" y2="69.9"/>
	</g>
	<g transform="matrix(1.32874,0,0,1.32874,0,0)">
		<line vector-effect="none" class="st0" x1="522.8" y1="37.9" x2="522.8" y2="69.9"/>
	</g>
	<g transform="matrix(1.32874,0,0,1.32874,0,0)">
		<line vector-effect="none" class="st0" x1="591.2" y1="37.9" x2="591.2" y2="69.9"/>
	</g>
	<g transform="matrix(1.32874,0,0,1.32874,0,0)">
		<line vector-effect="none" class="st0" x1="660" y1="37.9" x2="660" y2="69.9"/>
	</g>
	<g transform="matrix(1.32874,0,0,1.32874,0,0)">
		<line vector-effect="none" class="st0" x1="725.5" y1="37.9" x2="725.5" y2="69.9"/>
	</g>
	<g transform="matrix(1.32874,0,0,1.32874,0,0)">
		<line vector-effect="none" class="st0" x1="794.2" y1="37.9" x2="794.2" y2="69.9"/>
	</g>
	<g transform="matrix(1.32874,0,0,1.32874,0,0)">
		<line vector-effect="none" class="st0" x1="859.8" y1="37.9" x2="859.8" y2="69.9"/>
	</g>
	<g transform="matrix(1.32874,0,0,1.32874,0,0)">
		<line vector-effect="none" class="st1" x1="865.5" y1="37.9" x2="865.5" y2="69.9"/>
	</g>
	<g transform="matrix(1.32874,0,0,1.32874,0,0)">
	</g>
	<g transform="matrix(1.32874,0,0,1.32874,332.185,6001.14)">
	</g>
	<g transform="matrix(1.32874,0,0,1.32874,332.185,6001.14)">
		<g class="st2">
			<path d="M-200.6-4467.4c0,0.4-0.2,0.7-0.5,0.7h-1.9v1.7c0,1,0.6,1.2,1,1.2s0.7,0.2,0.7,0.6c0,0.5-0.3,0.6-0.6,0.6h-7.5
				c-0.5,0-0.6-0.3-0.6-0.6c0-0.3,0.2-0.6,0.7-0.6c0.6,0,1.3-0.3,1.3-1.1v-1.8h-5.8c-0.4,0-0.6-0.4-0.6-0.7c0-0.1,0-0.2,0.1-0.3
				c0,0,0-0.1,0-0.1l0.2-0.3c0.9-1.3,3.6-5.7,3.6-9.6c0-0.5,0.4-0.6,0.7-0.6c0.3,0,2.1,0.1,2.6,0.1c0.6,0,2.3-0.1,2.5-0.1
				c0.3,0,0.5,0.2,0.5,0.5c0,0.1,0,0.1,0,0.1c-0.1,0.4-5.5,7.4-8.1,9.5h4.3v-2.5c0-0.4,0.2-0.6,0.3-0.7l3.8-3.6
				c0.2-0.2,0.3-0.3,0.6-0.3c0.4,0,0.4,0.3,0.4,0.5v6.6h1.9C-200.7-4468.1-200.6-4467.8-200.6-4467.4z"/>
		</g>
	</g>
	<g transform="matrix(1.32874,0,0,1.32874,332.185,6001.14)">
		<g class="st2">
			<path d="M-200.6-4451.3c0,0.4-0.2,0.7-0.5,0.7h-1.9v1.7c0,1,0.6,1.2,1,1.2s0.7,0.2,0.7,0.6c0,0.5-0.3,0.6-0.6,0.6h-7.5
				c-0.5,0-0.6-0.3-0.6-0.6c0-0.3,0.2-0.6,0.7-0.6c0.6,0,1.3-0.3,1.3-1.1v-1.8h-5.8c-0.4,0-0.6-0.4-0.6-0.7c0-0.1,0-0.2,0.1-0.3
				c0,0,0-0.1,0-0.1l0.2-0.3c0.9-1.3,3.6-5.7,3.6-9.6c0-0.5,0.4-0.6,0.7-0.6c0.3,0,2.1,0.1,2.6,0.1c0.6,0,2.3-0.1,2.5-0.1
				c0.3,0,0.5,0.2,0.5,0.5c0,0.1,0,0.1,0,0.1c-0.1,0.4-5.5,7.4-8.1,9.5h4.3v-2.5c0-0.4,0.2-0.6,0.3-0.7l3.8-3.6
				c0.2-0.2,0.3-0.3,0.6-0.3c0.4,0,0.4,0.3,0.4,0.5v6.6h1.9C-200.7-4452-200.6-4451.7-200.6-4451.3z"/>
		</g>
	</g>
	<g transform="matrix(1.32874,0,0,1.32874,332.185,6001.14)">
	</g>
	<g transform="matrix(1.32874,0,0,1.32874,0,0)">
	</g>
	<g transform="matrix(1.32874,0,0,1.32874,0,0)">
		<line vector-effect="none" class="st3" x1="0" y1="69.9" x2="867.2" y2="69.9"/>
	</g>
	<g transform="matrix(1.32874,0,0,1.32874,0,0)">
		<line vector-effect="none" class="st3" x1="0" y1="61.9" x2="867.2" y2="61.9"/>
	</g>
	<g transform="matrix(1.32874,0,0,1.32874,0,0)">
		<line vector-effect="none" class="st3" x1="0" y1="53.9" x2="867.2" y2="53.9"/>
	</g>
	<g transform="matrix(1.32874,0,0,1.32874,0,0)">
		<line vector-effect="none" class="st3" x1="0" y1="45.9" x2="867.2" y2="45.9"/>
	</g>
	<g transform="matrix(1.32874,0,0,1.32874,0,0)">
		<line vector-effect="none" class="st3" x1="0" y1="37.9" x2="867.2" y2="37.9"/>
	</g>
	<g transform="matrix(1.32874,0,0,1.32874,0,0)">
		<g class="st2">
			<path d="M23,46.8c0,4.2-1.7,8.1-4.4,11.1c-3.4,3.6-7.5,6.1-11.7,8.2c-0.2,0.1-0.4,0.2-0.5,0.2c-0.3,0-0.4-0.2-0.4-0.4
				c0-0.3,0.2-0.4,0.5-0.6c4-2.3,7.3-5,9.2-8c2-3.1,2.7-6.9,2.7-10.2c0-5-1.5-8.4-4.9-8.4c-3.3,0-5.2,2.3-5.2,3.6
				c0,0.3,0.1,0.6,0.5,0.6c0.4,0,0.7-0.2,1.6-0.2c1.6,0,3.1,1.3,3.1,3.3c0,2-1.4,3.4-3.4,3.4c-2.6,0-3.9-2.2-3.9-4.8
				c0-3.1,2.5-7.1,8.1-7.1C19.6,37.5,23,41.2,23,46.8z M27.9,41.9c0,1-0.8,1.8-1.8,1.8s-1.8-0.8-1.8-1.8s0.8-1.8,1.8-1.8
				S27.9,40.9,27.9,41.9z M27.9,49.9c0,1-0.7,1.7-1.7,1.7s-1.7-0.7-1.7-1.7s0.7-1.7,1.7-1.7S27.9,48.9,27.9,49.9z"/>
		</g>
	</g>
	<g transform="matrix(1.32874,0,0,1.32874,0,0)">
		<path vector-effect="none" class="st4" d="M72.5,125.2c9.2,11.8,52.2,14.2,63,4"/>
	</g>
	<g transform="matrix(1.32874,0,0,1.32874,0,0)">
		<path vector-effect="none" class="st5" d="M72.5,125.2c9.2,10.8,52.2,13.2,63,4C124.8,140.4,81.8,137.9,72.5,125.2"/>
	</g>
	<g transform="matrix(1.32874,0,0,1.32874,0,0)">
		<path vector-effect="none" class="st4" d="M206.8,125.2c9.5,12,54.8,14.5,66,4"/>
	</g>
	<g transform="matrix(1.32874,0,0,1.32874,0,0)">
		<path vector-effect="none" class="st5" d="M206.8,125.2c9.5,11,54.8,13.5,66,4C261.5,140.7,216.2,138.2,206.8,125.2"/>
	</g>
	<g transform="matrix(1.32874,0,0,1.32874,0,0)">
		<path vector-effect="none" class="st4" d="M344,125.2c8.5,12.2,51.5,17.5,63,8"/>
	</g>
	<g transform="matrix(1.32874,0,0,1.32874,0,0)">
		<path vector-effect="none" class="st5" d="M344,125.2c8.8,11.2,51.8,16.5,63,8C395.2,143.7,352.2,138.4,344,125.2"/>
	</g>
	<g transform="matrix(1.32874,0,0,1.32874,0,0)">
		<path vector-effect="none" class="st4" d="M478.2,125.2c8.8,12.5,54.2,18,66,8"/>
	</g>
	<g transform="matrix(1.32874,0,0,1.32874,0,0)">
		<path vector-effect="none" class="st5" d="M478.2,125.2c8.8,11.5,54.2,17,66,8C532.5,144.2,487,138.7,478.2,125.2"/>
	</g>
	<g transform="matrix(1.32874,0,0,1.32874,0,0)">
		<path vector-effect="none" class="st4" d="M615.2,125.2c7.8,13,51,21.2,63.2,12"/>
	</g>
	<g transform="matrix(1.32874,0,0,1.32874,0,0)">
		<path vector-effect="none" class="st5" d="M615.2,125.2c8,12,51.2,20.2,63.2,12C666,147.4,622.8,139.2,615.2,125.2"/>
	</g>
	<g transform="matrix(1.32874,0,0,1.32874,0,0)">
		<path vector-effect="none" class="st4" d="M749.5,125.2c7,13.2,50.5,24.2,63.2,16"/>
	</g>
	<g transform="matrix(1.32874,0,0,1.32874,0,0)">
		<path vector-effect="none" class="st5" d="M749.5,125.2c7.2,12.2,50.8,23.2,63.2,16C799.8,150.4,756.2,139.4,749.5,125.2"/>
	</g>
	<g transform="matrix(1.32874,0,0,1.32874,143.504,5917.24)">
	</g>
	<g transform="matrix(1.32874,0,0,1.32874,143.504,5917.24)">
		<g class="st2">
			<path d="M-102.7-4451.7v5.2h0.4c0.6,0,1-0.1,1.4-0.3s0.7-0.5,0.9-0.9c0.2-0.4,0.4-0.9,0.5-1.6h0.3v6.4h-0.3c-0.1-1.2-0.4-2-1-2.4
				c-0.5-0.4-1.1-0.6-1.8-0.6h-0.4v3.9c0,0.7,0,1.1,0.1,1.2c0.1,0.2,0.2,0.3,0.4,0.4c0.2,0.1,0.5,0.2,0.9,0.2h0.4v0.3h-6.7v-0.3h0.4
				c0.4,0,0.7-0.1,0.9-0.2c0.2-0.1,0.3-0.2,0.4-0.5c0.1-0.1,0.1-0.5,0.1-1.2v-8.4c0-0.7,0-1.1-0.1-1.2c-0.1-0.2-0.2-0.3-0.4-0.4
				c-0.2-0.1-0.5-0.2-0.9-0.2h-0.4v-0.3h10.8v3.7h-0.4c-0.1-0.9-0.3-1.5-0.7-1.9c-0.4-0.4-0.9-0.7-1.6-0.9c-0.4-0.1-1.1-0.1-2.1-0.1
				H-102.7z"/>
			<path d="M-87.1-4448.5v6.9c0,0.7,0.1,1.1,0.2,1.3c0.1,0.2,0.4,0.3,0.8,0.3v0.3h-3.6v-1.2c-0.4,0.5-0.8,0.9-1.3,1.1
				c-0.4,0.2-0.9,0.3-1.4,0.3c-0.5,0-0.9-0.2-1.3-0.5c-0.4-0.3-0.6-0.7-0.8-1.1c-0.1-0.4-0.2-1.1-0.2-2.1v-3.5
				c0-0.7-0.1-1.1-0.2-1.2c-0.1-0.2-0.4-0.3-0.8-0.3v-0.3h3.6v6c0,0.6,0,1,0.1,1.2c0.1,0.2,0.2,0.3,0.3,0.4c0.1,0.1,0.3,0.1,0.4,0.1
				c0.2,0,0.4-0.1,0.6-0.2c0.3-0.2,0.6-0.5,0.9-1v-4.7c0-0.7-0.1-1.1-0.2-1.2c-0.1-0.2-0.4-0.3-0.8-0.3v-0.3H-87.1z"/>
			<path d="M-81.3-4448.5v1.1c0.5-0.5,0.9-0.8,1.3-1.1c0.4-0.2,0.9-0.3,1.3-0.3c0.6,0,1,0.2,1.4,0.5s0.6,0.7,0.8,1.2
				c0.1,0.4,0.2,1,0.2,2.1v3.4c0,0.7,0.1,1.1,0.2,1.3c0.1,0.2,0.4,0.3,0.8,0.3v0.3h-4.4v-0.3c0.3,0,0.6-0.2,0.7-0.4
				c0.1-0.2,0.2-0.5,0.2-1.2v-3.9c0-0.7,0-1.2-0.1-1.4c-0.1-0.2-0.2-0.3-0.3-0.4c-0.1-0.1-0.3-0.2-0.4-0.2c-0.5,0-1,0.4-1.5,1.2v4.7
				c0,0.7,0.1,1.1,0.2,1.3c0.1,0.2,0.3,0.3,0.7,0.3v0.3h-4.4v-0.3c0.4,0,0.6-0.2,0.8-0.4c0.1-0.1,0.2-0.5,0.2-1.2v-5
				c0-0.7-0.1-1.1-0.2-1.2c-0.1-0.2-0.4-0.3-0.8-0.3v-0.3H-81.3z"/>
			<path d="M-65.6-4452.4v10.1c0,0.7,0,1.1,0.1,1.2c0,0.2,0.1,0.4,0.3,0.5c0.1,0.1,0.4,0.2,0.7,0.2v0.3l-3.7,0.7v-1.4
				c-0.4,0.5-0.8,0.9-1.2,1.1c-0.3,0.2-0.7,0.3-1.2,0.3c-1.1,0-2-0.5-2.7-1.5c-0.5-0.8-0.8-1.8-0.8-3c0-0.9,0.2-1.8,0.5-2.5
				c0.3-0.7,0.8-1.3,1.3-1.7c0.6-0.4,1.2-0.6,1.8-0.6c0.4,0,0.8,0.1,1.1,0.2c0.3,0.2,0.7,0.4,1,0.9v-2.7c0-0.7,0-1.1-0.1-1.2
				c-0.1-0.2-0.2-0.3-0.3-0.4c-0.2-0.1-0.4-0.1-0.8-0.1v-0.4H-65.6z M-68.3-4446.5c-0.5-0.9-1-1.3-1.7-1.3c-0.2,0-0.4,0.1-0.6,0.2
				c-0.2,0.2-0.4,0.5-0.6,1c-0.1,0.5-0.2,1.2-0.2,2.2c0,1.1,0.1,1.9,0.2,2.5c0.2,0.5,0.4,0.9,0.7,1.2c0.1,0.1,0.3,0.2,0.6,0.2
				c0.6,0,1.1-0.4,1.6-1.3V-4446.5z"/>
			<path d="M-58.6-4441c-1.1,0.9-2,1.4-2.9,1.4c-0.5,0-0.9-0.2-1.3-0.5c-0.3-0.3-0.5-0.7-0.5-1.2c0-0.7,0.3-1.3,0.9-1.8
				c0.6-0.5,1.8-1.2,3.8-2.1v-0.9c0-0.7,0-1.1-0.1-1.3c-0.1-0.2-0.2-0.3-0.4-0.5c-0.2-0.1-0.4-0.2-0.7-0.2c-0.4,0-0.7,0.1-1,0.3
				c-0.2,0.1-0.2,0.2-0.2,0.4c0,0.1,0.1,0.3,0.3,0.5c0.2,0.3,0.4,0.5,0.4,0.8c0,0.3-0.1,0.6-0.3,0.8c-0.2,0.2-0.5,0.3-0.9,0.3
				c-0.4,0-0.7-0.1-1-0.4c-0.3-0.2-0.4-0.5-0.4-0.8c0-0.5,0.2-0.9,0.5-1.3c0.4-0.4,0.9-0.7,1.5-0.9c0.6-0.2,1.3-0.3,2-0.3
				c0.8,0,1.5,0.2,2,0.5c0.5,0.4,0.8,0.7,0.9,1.2c0.1,0.3,0.1,0.9,0.1,1.8v3.4c0,0.4,0,0.7,0,0.8c0,0.1,0.1,0.2,0.1,0.2
				c0.1,0,0.1,0.1,0.2,0.1c0.2,0,0.3-0.1,0.5-0.3l0.3,0.2c-0.3,0.5-0.6,0.8-1,1c-0.3,0.2-0.7,0.3-1.1,0.3c-0.5,0-0.9-0.1-1.2-0.4
				C-58.4-4440.2-58.6-4440.5-58.6-4441z M-58.6-4441.7v-2.9c-0.8,0.4-1.3,0.9-1.7,1.4c-0.2,0.3-0.4,0.7-0.4,1
				c0,0.3,0.1,0.5,0.3,0.8c0.2,0.2,0.4,0.3,0.7,0.3C-59.4-4441.2-59-4441.3-58.6-4441.7z"/>
			<path d="M-50.2-4448.5v1.2c0.5-0.5,0.9-0.9,1.3-1.1c0.4-0.2,0.9-0.3,1.3-0.3c0.6,0,1,0.1,1.4,0.4s0.7,0.7,0.9,1.2
				c0.5-0.6,1-1,1.4-1.2c0.5-0.3,0.9-0.4,1.4-0.4c0.6,0,1.1,0.1,1.5,0.4c0.4,0.3,0.6,0.6,0.8,1.1c0.1,0.4,0.2,1.1,0.2,2.1v3.6
				c0,0.7,0.1,1.1,0.2,1.3c0.1,0.2,0.4,0.3,0.8,0.3v0.3h-4.5v-0.3c0.4,0,0.6-0.2,0.8-0.4c0.1-0.2,0.2-0.6,0.2-1.2v-3.8
				c0-0.8,0-1.3-0.1-1.5c-0.1-0.2-0.2-0.4-0.3-0.5c-0.1-0.1-0.3-0.2-0.5-0.2c-0.3,0-0.5,0.1-0.8,0.3c-0.3,0.2-0.6,0.5-0.8,0.9v4.7
				c0,0.6,0.1,1,0.2,1.2c0.1,0.2,0.4,0.4,0.8,0.4v0.3h-4.5v-0.3c0.2,0,0.4-0.1,0.6-0.2c0.1-0.1,0.2-0.2,0.3-0.4c0-0.2,0.1-0.5,0.1-1
				v-3.8c0-0.8,0-1.3-0.1-1.5c-0.1-0.2-0.2-0.4-0.3-0.5c-0.1-0.1-0.3-0.2-0.5-0.2c-0.3,0-0.5,0.1-0.7,0.2c-0.3,0.2-0.6,0.5-0.9,1
				v4.7c0,0.6,0.1,1,0.2,1.2c0.1,0.2,0.4,0.3,0.8,0.4v0.3h-4.5v-0.3c0.4,0,0.6-0.2,0.8-0.4c0.1-0.1,0.2-0.5,0.2-1.2v-5
				c0-0.7-0.1-1.1-0.2-1.2c-0.1-0.2-0.4-0.3-0.8-0.3v-0.3H-50.2z"/>
			<path d="M-30.4-4444.4h-4.8c0.1,1.2,0.4,2.1,0.9,2.8c0.4,0.5,1,0.8,1.6,0.8c0.4,0,0.7-0.1,1-0.3c0.3-0.2,0.6-0.6,1-1.1l0.3,0.2
				c-0.5,1-1,1.7-1.6,2.1c-0.6,0.4-1.2,0.6-2,0.6c-1.3,0-2.3-0.5-3-1.5c-0.5-0.8-0.8-1.8-0.8-3c0-1.5,0.4-2.6,1.2-3.5
				c0.8-0.9,1.7-1.3,2.8-1.3c0.9,0,1.7,0.4,2.3,1.1C-30.8-4446.9-30.4-4445.8-30.4-4444.4z M-32.7-4445c0-1-0.1-1.7-0.2-2.1
				c-0.1-0.4-0.3-0.7-0.5-0.9c-0.1-0.1-0.3-0.2-0.5-0.2c-0.3,0-0.6,0.2-0.8,0.5c-0.4,0.6-0.6,1.3-0.6,2.3v0.3H-32.7z"/>
			<path d="M-25.7-4448.5v1.1c0.5-0.5,0.9-0.8,1.3-1.1c0.4-0.2,0.9-0.3,1.3-0.3c0.6,0,1,0.2,1.4,0.5s0.6,0.7,0.8,1.2
				c0.1,0.4,0.2,1,0.2,2.1v3.4c0,0.7,0.1,1.1,0.2,1.3c0.1,0.2,0.4,0.3,0.8,0.3v0.3h-4.4v-0.3c0.3,0,0.6-0.2,0.7-0.4
				c0.1-0.2,0.2-0.5,0.2-1.2v-3.9c0-0.7,0-1.2-0.1-1.4c-0.1-0.2-0.2-0.3-0.3-0.4c-0.1-0.1-0.3-0.2-0.4-0.2c-0.5,0-1,0.4-1.5,1.2v4.7
				c0,0.7,0.1,1.1,0.2,1.3c0.1,0.2,0.3,0.3,0.7,0.3v0.3h-4.4v-0.3c0.4,0,0.6-0.2,0.8-0.4c0.1-0.1,0.2-0.5,0.2-1.2v-5
				c0-0.7-0.1-1.1-0.2-1.2c-0.1-0.2-0.4-0.3-0.8-0.3v-0.3H-25.7z"/>
			<path d="M-15.1-4451.7v3.2h2.1v0.9h-2.1v5.4c0,0.5,0,0.8,0.1,1c0,0.1,0.1,0.3,0.2,0.4s0.2,0.1,0.3,0.1c0.4,0,0.8-0.3,1.2-0.9
				l0.3,0.2c-0.5,1.2-1.3,1.8-2.5,1.8c-0.6,0-1-0.2-1.4-0.5c-0.4-0.3-0.6-0.7-0.7-1c-0.1-0.2-0.1-0.8-0.1-1.7v-4.7h-1.1v-0.3
				c0.8-0.6,1.5-1.1,2-1.8c0.6-0.6,1-1.3,1.5-2.1H-15.1z"/>
			<path d="M-7.3-4441c-1.1,0.9-2,1.4-2.9,1.4c-0.5,0-0.9-0.2-1.3-0.5c-0.3-0.3-0.5-0.7-0.5-1.2c0-0.7,0.3-1.3,0.9-1.8
				c0.6-0.5,1.8-1.2,3.8-2.1v-0.9c0-0.7,0-1.1-0.1-1.3c-0.1-0.2-0.2-0.3-0.4-0.5c-0.2-0.1-0.4-0.2-0.7-0.2c-0.4,0-0.7,0.1-1,0.3
				c-0.2,0.1-0.2,0.2-0.2,0.4c0,0.1,0.1,0.3,0.3,0.5c0.2,0.3,0.4,0.5,0.4,0.8c0,0.3-0.1,0.6-0.3,0.8c-0.2,0.2-0.5,0.3-0.9,0.3
				c-0.4,0-0.7-0.1-1-0.4c-0.3-0.2-0.4-0.5-0.4-0.8c0-0.5,0.2-0.9,0.5-1.3c0.4-0.4,0.9-0.7,1.5-0.9c0.6-0.2,1.3-0.3,2-0.3
				c0.8,0,1.5,0.2,2,0.5c0.5,0.4,0.8,0.7,0.9,1.2c0.1,0.3,0.1,0.9,0.1,1.8v3.4c0,0.4,0,0.7,0,0.8c0,0.1,0.1,0.2,0.1,0.2
				c0.1,0,0.1,0.1,0.2,0.1c0.2,0,0.3-0.1,0.5-0.3l0.3,0.2c-0.3,0.5-0.6,0.8-1,1c-0.3,0.2-0.7,0.3-1.1,0.3c-0.5,0-0.9-0.1-1.2-0.4
				C-7.1-4440.2-7.2-4440.5-7.3-4441z M-7.3-4441.7v-2.9c-0.8,0.4-1.3,0.9-1.7,1.4c-0.2,0.3-0.4,0.7-0.4,1c0,0.3,0.1,0.5,0.3,0.8
				c0.2,0.2,0.4,0.3,0.7,0.3C-8.1-4441.2-7.7-4441.3-7.3-4441.7z"/>
			<path d="M0.9-4452.4v10.9c0,0.6,0.1,1,0.2,1.2c0.1,0.2,0.4,0.3,0.8,0.3v0.3h-4.7v-0.3c0.4,0,0.7-0.1,0.9-0.3
				c0.1-0.1,0.2-0.5,0.2-1.1v-9.1c0-0.6-0.1-1-0.2-1.2c-0.1-0.2-0.4-0.3-0.8-0.3v-0.3H0.9z"/>
			<path d="M8.5-4435.5v-17.2h1.2v17.2H8.5z"/>
			<path d="M24.6-4446.5c1.2,0.3,2.1,0.6,2.5,1c0.7,0.6,1.1,1.3,1.1,2.2c0,1-0.4,1.8-1.2,2.4c-0.9,0.8-2.3,1.1-4.1,1.1h-6.5v-0.3
				c0.6,0,1-0.1,1.2-0.2s0.4-0.3,0.4-0.4c0.1-0.2,0.1-0.6,0.1-1.3v-8.3c0-0.7,0-1.1-0.1-1.3c-0.1-0.2-0.2-0.3-0.4-0.4
				c-0.2-0.1-0.6-0.2-1.2-0.2v-0.3h6.1c1.5,0,2.5,0.1,3.1,0.4c0.6,0.3,1.1,0.6,1.4,1.2c0.4,0.5,0.5,1.1,0.5,1.6
				c0,0.6-0.2,1.2-0.7,1.6C26.5-4447.1,25.7-4446.7,24.6-4446.5z M21.2-4446v4.1l0,0.5c0,0.3,0.1,0.6,0.3,0.8
				c0.2,0.2,0.4,0.3,0.8,0.3c0.5,0,1-0.1,1.4-0.3c0.4-0.2,0.7-0.5,1-1c0.2-0.4,0.3-0.9,0.3-1.4c0-0.6-0.1-1.1-0.4-1.6
				c-0.3-0.5-0.7-0.8-1.1-1C22.9-4445.9,22.1-4446,21.2-4446z M21.2-4446.7c0.9,0,1.5-0.1,2-0.3s0.7-0.5,1-0.8
				c0.2-0.4,0.3-0.8,0.3-1.4c0-0.6-0.1-1-0.3-1.4c-0.2-0.4-0.5-0.6-1-0.8c-0.4-0.2-1.1-0.3-2-0.3V-4446.7z"/>
		</g>
		<g class="st2">
			<path d="M29.5-4453.3h0.8l-0.2,6.8c0.5-0.8,1.2-1.2,2.2-1.2c1.3,0,2.6,1,2.6,2.4c0,2-2.7,3.8-5.4,5.9V-4453.3z M30-4444.2v1
				c0,1.2,0.1,2.1,0.1,2.5c1.2-0.9,2.8-3.3,2.8-4.6c0-0.7-0.6-1.3-1.3-1.3C30.4-4446.7,30-4445.3,30-4444.2z"/>
		</g>
		<g class="st2">
			<path d="M44.3-4451.7v3.2h2.1v0.9h-2.1v5.4c0,0.5,0,0.8,0.1,1c0,0.1,0.1,0.3,0.2,0.4c0.1,0.1,0.2,0.1,0.3,0.1
				c0.4,0,0.8-0.3,1.2-0.9l0.3,0.2c-0.5,1.2-1.3,1.8-2.5,1.8c-0.6,0-1-0.2-1.4-0.5c-0.4-0.3-0.6-0.7-0.7-1c-0.1-0.2-0.1-0.8-0.1-1.7
				v-4.7h-1.1v-0.3c0.8-0.6,1.5-1.1,2-1.8c0.6-0.6,1-1.3,1.5-2.1H44.3z"/>
			<path d="M51.4-4448.8c0.8,0,1.5,0.2,2.1,0.6c0.7,0.4,1.2,1,1.5,1.7c0.3,0.7,0.5,1.5,0.5,2.4c0,1.2-0.3,2.3-0.9,3.1
				c-0.8,1-1.8,1.5-3.2,1.5c-1.3,0-2.3-0.5-3.1-1.4c-0.7-0.9-1.1-2-1.1-3.2c0-1.3,0.4-2.4,1.1-3.3
				C49.1-4448.3,50.1-4448.8,51.4-4448.8z M51.4-4448.1c-0.3,0-0.6,0.1-0.8,0.4c-0.2,0.2-0.4,0.7-0.5,1.4c-0.1,0.7-0.1,1.7-0.1,3
				c0,0.7,0,1.3,0.1,1.9c0.1,0.4,0.2,0.8,0.4,1c0.2,0.2,0.5,0.3,0.8,0.3c0.3,0,0.5-0.1,0.7-0.2c0.2-0.2,0.4-0.5,0.5-0.9
				c0.1-0.6,0.2-1.8,0.2-3.6c0-1.1-0.1-1.8-0.2-2.2c-0.1-0.4-0.3-0.7-0.5-0.9C51.9-4448,51.7-4448.1,51.4-4448.1z"/>
			<path d="M66.2-4451.7v5.2h0.3c0.8,0,1.4-0.3,1.8-0.8c0.4-0.5,0.6-1.3,0.7-2.2h0.4v6.7H69c-0.1-0.7-0.2-1.3-0.5-1.8
				c-0.2-0.5-0.5-0.8-0.8-0.9c-0.3-0.2-0.8-0.2-1.4-0.2v3.6c0,0.7,0,1.1,0.1,1.3c0.1,0.2,0.2,0.3,0.3,0.4c0.2,0.1,0.4,0.2,0.8,0.2
				h0.8c1.2,0,2.1-0.3,2.9-0.8c0.7-0.6,1.2-1.4,1.5-2.5H73l-0.6,4.1h-11v-0.3h0.4c0.4,0,0.7-0.1,0.9-0.2c0.2-0.1,0.3-0.2,0.4-0.5
				c0.1-0.1,0.1-0.5,0.1-1.2v-8.4c0-0.6,0-0.9,0-1.1c-0.1-0.2-0.2-0.4-0.3-0.5c-0.2-0.2-0.6-0.3-1-0.3h-0.4v-0.3h10.7v3.8h-0.4
				c-0.2-0.9-0.4-1.6-0.8-2c-0.3-0.4-0.8-0.7-1.4-0.9c-0.4-0.1-1-0.2-2-0.2H66.2z"/>
		</g>
	</g>
	<g transform="matrix(1.32874,0,0,1.32874,143.504,5917.24)">
	</g>
	<g transform="matrix(1.32874,0,0,1.32874,0,0)">
	</g>
	<g transform="matrix(1.32874,0,0,1.32874,0,0)">
		<line vector-effect="none" class="st0" x1="60" y1="77.9" x2="82.8" y2="77.9"/>
	</g>
	<g transform="matrix(1.32874,0,0,1.32874,0,0)">
		<line vector-effect="none" class="st0" x1="60" y1="85.9" x2="82.8" y2="85.9"/>
	</g>
	<g transform="matrix(1.32874,0,0,1.32874,0,0)">
		<line vector-effect="none" class="st0" x1="60" y1="93.9" x2="82.8" y2="93.9"/>
	</g>
	<g transform="matrix(1.32874,0,0,1.32874,0,0)">
		<line vector-effect="none" class="st0" x1="60" y1="101.9" x2="82.8" y2="101.9"/>
	</g>
	<g transform="matrix(1.32874,0,0,1.32874,0,0)">
		<line vector-effect="none" class="st0" x1="60" y1="109.9" x2="82.8" y2="109.9"/>
	</g>
	<g transform="matrix(1.32874,0,0,1.32874,0,0)">
		<line vector-effect="none" class="st0" x1="60" y1="117.9" x2="82.8" y2="117.9"/>
	</g>
	<g transform="matrix(1.32874,0,0,1.32874,0,0)">
		<g class="st2">
			<path d="M78.7,117.9c0,2.4-1.8,4.4-7.5,4.4c-5.2,0-7.2-2.1-7.2-4.4c0-2.4,2.9-4.3,7.5-4.3C74.8,113.6,78.7,115.4,78.7,117.9z
				 M67.7,116.6c0,1.1,0.5,2.3,1.2,3.1c0.2,0.3,0.5,0.5,0.7,0.8c0.5,0.4,1.1,0.7,1.6,0.9c0.3,0.1,0.6,0.1,0.9,0.1
				c0.4,0,0.7,0,1.1-0.1c0.9-0.2,1.4-0.8,1.5-1.7c0-0.2,0.1-0.4,0.1-0.6c0-2.1-1.9-4.7-4.3-4.7c-1.1,0-2.4,0.2-2.8,1.4
				C67.8,116,67.7,116.3,67.7,116.6z"/>
		</g>
	</g>
	<g transform="matrix(1.32874,0,0,1.32874,0,0)">
		<g class="st2">
			<path d="M51.5,104.8c0-0.6,0.5-0.9,1-0.9c0.3,0,0.6,0.2,0.6,0.5c0,0.6-0.2,8.3-0.2,9c0,0.2,0.1,0.4,0.4,0.5c0.1,0,0.1,0,0.2,0
				c0.3,0,0.5-0.3,0.7-0.4c0.4-0.2,0.7-0.4,1.1-0.4c0.2-0.1,0.4-0.1,0.7-0.1c1.5,0.1,2.9,1.2,2.9,3.1c0,1.5-1,3.4-3.8,5.4
				c-0.8,0.5-1.6,1.4-2.5,2c0,0-0.1,0.1-0.2,0.1c-0.1,0-0.2,0-0.3-0.2C51.6,123,51.5,104.8,51.5,104.8z M53.4,121
				c0.1,0,0.2,0,0.3-0.1c1-0.6,1.9-1.6,2.3-2.4c0.4-0.7,0.5-1.3,0.5-1.9c0-0.6-0.2-1.2-0.5-1.5c-0.2-0.2-0.5-0.4-0.8-0.4
				c-0.3,0-0.5,0.1-0.8,0.2c-0.4,0.3-1.3,1-1.4,1.3c0,0.1-0.1,0.5-0.1,1c0,1.3,0.1,3.2,0.1,3.2C53,120.7,53.1,121,53.4,121z"/>
		</g>
	</g>
	<g transform="matrix(1.32874,0,0,1.32874,0,0)">
		<line vector-effect="none" class="st0" x1="125.5" y1="77.9" x2="148.2" y2="77.9"/>
	</g>
	<g transform="matrix(1.32874,0,0,1.32874,0,0)">
		<line vector-effect="none" class="st0" x1="125.5" y1="85.9" x2="148.2" y2="85.9"/>
	</g>
	<g transform="matrix(1.32874,0,0,1.32874,0,0)">
		<line vector-effect="none" class="st0" x1="125.5" y1="93.9" x2="148.2" y2="93.9"/>
	</g>
	<g transform="matrix(1.32874,0,0,1.32874,0,0)">
		<line vector-effect="none" class="st0" x1="125.5" y1="101.9" x2="148.2" y2="101.9"/>
	</g>
	<g transform="matrix(1.32874,0,0,1.32874,0,0)">
		<line vector-effect="none" class="st0" x1="125.5" y1="109.9" x2="148.2" y2="109.9"/>
	</g>
	<g transform="matrix(1.32874,0,0,1.32874,0,0)">
		<line vector-effect="none" class="st0" x1="125.5" y1="117.9" x2="148.2" y2="117.9"/>
	</g>
	<g transform="matrix(1.32874,0,0,1.32874,0,0)">
		<g class="st2">
			<path d="M144.2,121.9c0,2.4-1.8,4.4-7.5,4.4c-5.2,0-7.2-2.1-7.2-4.4c0-2.4,2.9-4.3,7.5-4.3C140.3,117.6,144.2,119.4,144.2,121.9z
				 M133.2,120.6c0,1.1,0.5,2.3,1.2,3.1c0.2,0.3,0.5,0.5,0.7,0.8c0.5,0.4,1.1,0.7,1.6,0.9c0.3,0.1,0.6,0.1,0.9,0.1
				c0.4,0,0.7,0,1.1-0.1c0.9-0.2,1.4-0.8,1.5-1.7c0-0.2,0.1-0.4,0.1-0.6c0-2.1-1.9-4.7-4.3-4.7c-1.1,0-2.4,0.2-2.8,1.4
				C133.3,120.1,133.2,120.3,133.2,120.6z"/>
		</g>
	</g>
	<g transform="matrix(1.32874,0,0,1.32874,0,0)">
		<line vector-effect="none" class="st0" x1="194.2" y1="77.9" x2="217" y2="77.9"/>
	</g>
	<g transform="matrix(1.32874,0,0,1.32874,0,0)">
		<line vector-effect="none" class="st0" x1="194.2" y1="85.9" x2="217" y2="85.9"/>
	</g>
	<g transform="matrix(1.32874,0,0,1.32874,0,0)">
		<line vector-effect="none" class="st0" x1="194.2" y1="93.9" x2="217" y2="93.9"/>
	</g>
	<g transform="matrix(1.32874,0,0,1.32874,0,0)">
		<line vector-effect="none" class="st0" x1="194.2" y1="101.9" x2="217" y2="101.9"/>
	</g>
	<g transform="matrix(1.32874,0,0,1.32874,0,0)">
		<line vector-effect="none" class="st0" x1="194.2" y1="109.9" x2="217" y2="109.9"/>
	</g>
	<g transform="matrix(1.32874,0,0,1.32874,0,0)">
		<line vector-effect="none" class="st0" x1="194.2" y1="117.9" x2="217" y2="117.9"/>
	</g>
	<g transform="matrix(1.32874,0,0,1.32874,0,0)">
		<g class="st2">
			<path d="M212.9,117.9c0,2.4-1.8,4.4-7.5,4.4c-5.2,0-7.2-2.1-7.2-4.4c0-2.4,2.9-4.3,7.5-4.3C209,113.6,212.9,115.4,212.9,117.9z
				 M202,116.6c0,1.1,0.5,2.3,1.2,3.1c0.2,0.3,0.5,0.5,0.7,0.8c0.5,0.4,1.1,0.7,1.6,0.9c0.3,0.1,0.6,0.1,0.9,0.1
				c0.4,0,0.7,0,1.1-0.1c0.9-0.2,1.4-0.8,1.5-1.7c0-0.2,0.1-0.4,0.1-0.6c0-2.1-1.9-4.7-4.3-4.7c-1.1,0-2.4,0.2-2.8,1.4
				C202,116,202,116.3,202,116.6z"/>
		</g>
	</g>
	<g transform="matrix(1.32874,0,0,1.32874,0,0)">
		<g class="st2">
			<path d="M185.8,104.8c0-0.6,0.5-0.9,1-0.9c0.3,0,0.6,0.2,0.6,0.5c0,0.6-0.2,8.3-0.2,9c0,0.2,0.1,0.4,0.4,0.5c0.1,0,0.1,0,0.2,0
				c0.3,0,0.5-0.3,0.7-0.4c0.4-0.2,0.7-0.4,1.1-0.4c0.2-0.1,0.4-0.1,0.7-0.1c1.5,0.1,2.9,1.2,2.9,3.1c0,1.5-1,3.4-3.8,5.4
				c-0.8,0.5-1.6,1.4-2.5,2c0,0-0.1,0.1-0.2,0.1c-0.1,0-0.2,0-0.3-0.2C185.9,123,185.8,104.8,185.8,104.8z M187.6,121
				c0.1,0,0.2,0,0.3-0.1c1-0.6,1.9-1.6,2.3-2.4c0.4-0.7,0.5-1.3,0.5-1.9c0-0.6-0.2-1.2-0.5-1.5c-0.2-0.2-0.5-0.4-0.8-0.4
				c-0.3,0-0.5,0.1-0.8,0.2c-0.4,0.3-1.3,1-1.4,1.3c0,0.1-0.1,0.5-0.1,1c0,1.3,0.1,3.2,0.1,3.2C187.3,120.7,187.3,121,187.6,121z"/>
		</g>
	</g>
	<g transform="matrix(1.32874,0,0,1.32874,0,0)">
		<line vector-effect="none" class="st0" x1="262.8" y1="77.9" x2="285.5" y2="77.9"/>
	</g>
	<g transform="matrix(1.32874,0,0,1.32874,0,0)">
		<line vector-effect="none" class="st0" x1="262.8" y1="85.9" x2="285.5" y2="85.9"/>
	</g>
	<g transform="matrix(1.32874,0,0,1.32874,0,0)">
		<line vector-effect="none" class="st0" x1="262.8" y1="93.9" x2="285.5" y2="93.9"/>
	</g>
	<g transform="matrix(1.32874,0,0,1.32874,0,0)">
		<line vector-effect="none" class="st0" x1="262.8" y1="101.9" x2="285.5" y2="101.9"/>
	</g>
	<g transform="matrix(1.32874,0,0,1.32874,0,0)">
		<line vector-effect="none" class="st0" x1="262.8" y1="109.9" x2="285.5" y2="109.9"/>
	</g>
	<g transform="matrix(1.32874,0,0,1.32874,0,0)">
		<line vector-effect="none" class="st0" x1="262.8" y1="117.9" x2="285.5" y2="117.9"/>
	</g>
	<g transform="matrix(1.32874,0,0,1.32874,0,0)">
		<g class="st2">
			<path d="M281.4,121.9c0,2.4-1.8,4.4-7.5,4.4c-5.2,0-7.2-2.1-7.2-4.4c0-2.4,2.9-4.3,7.5-4.3C277.5,117.6,281.4,119.4,281.4,121.9z
				 M270.5,120.6c0,1.1,0.5,2.3,1.2,3.1c0.2,0.3,0.5,0.5,0.7,0.8c0.5,0.4,1.1,0.7,1.6,0.9c0.3,0.1,0.6,0.1,0.9,0.1
				c0.4,0,0.7,0,1.1-0.1c0.9-0.2,1.4-0.8,1.5-1.7c0-0.2,0.1-0.4,0.1-0.6c0-2.1-1.9-4.7-4.3-4.7c-1.1,0-2.4,0.2-2.8,1.4
				C270.5,120.1,270.5,120.3,270.5,120.6z"/>
		</g>
	</g>
	<g transform="matrix(1.32874,0,0,1.32874,0,0)">
		<g class="st2">
			<path d="M254.2,108.8c0-0.6,0.5-0.9,1-0.9c0.3,0,0.6,0.2,0.6,0.5c0,0.6-0.2,8.3-0.2,9c0,0.2,0.1,0.4,0.4,0.5c0.1,0,0.1,0,0.2,0
				c0.3,0,0.5-0.3,0.7-0.4c0.4-0.2,0.7-0.4,1.1-0.4c0.2-0.1,0.4-0.1,0.7-0.1c1.5,0.1,2.9,1.2,2.9,3.1c0,1.5-1,3.4-3.8,5.4
				c-0.8,0.5-1.6,1.4-2.5,2c0,0-0.1,0.1-0.2,0.1c-0.1,0-0.2,0-0.3-0.2C254.4,127,254.2,108.8,254.2,108.8z M256.1,125
				c0.1,0,0.2,0,0.3-0.1c1-0.6,1.9-1.6,2.3-2.4c0.4-0.7,0.5-1.3,0.5-1.9c0-0.6-0.2-1.2-0.5-1.5c-0.2-0.2-0.5-0.4-0.8-0.4
				c-0.3,0-0.5,0.1-0.8,0.2c-0.4,0.3-1.3,1-1.4,1.3c0,0.1-0.1,0.5-0.1,1c0,1.3,0.1,3.2,0.1,3.2C255.8,124.7,255.8,125,256.1,125z"/>
		</g>
	</g>
	<g transform="matrix(1.32874,0,0,1.32874,0,0)">
		<line vector-effect="none" class="st0" x1="331.5" y1="77.9" x2="354.2" y2="77.9"/>
	</g>
	<g transform="matrix(1.32874,0,0,1.32874,0,0)">
		<line vector-effect="none" class="st0" x1="331.5" y1="85.9" x2="354.2" y2="85.9"/>
	</g>
	<g transform="matrix(1.32874,0,0,1.32874,0,0)">
		<line vector-effect="none" class="st0" x1="331.5" y1="93.9" x2="354.2" y2="93.9"/>
	</g>
	<g transform="matrix(1.32874,0,0,1.32874,0,0)">
		<line vector-effect="none" class="st0" x1="331.5" y1="101.9" x2="354.2" y2="101.9"/>
	</g>
	<g transform="matrix(1.32874,0,0,1.32874,0,0)">
		<line vector-effect="none" class="st0" x1="331.5" y1="109.9" x2="354.2" y2="109.9"/>
	</g>
	<g transform="matrix(1.32874,0,0,1.32874,0,0)">
		<line vector-effect="none" class="st0" x1="331.5" y1="117.9" x2="354.2" y2="117.9"/>
	</g>
	<g transform="matrix(1.32874,0,0,1.32874,0,0)">
		<g class="st2">
			<path d="M350.2,117.9c0,2.4-1.8,4.4-7.5,4.4c-5.2,0-7.2-2.1-7.2-4.4c0-2.4,2.9-4.3,7.5-4.3C346.3,113.6,350.2,115.4,350.2,117.9z
				 M339.2,116.6c0,1.1,0.5,2.3,1.2,3.1c0.2,0.3,0.5,0.5,0.7,0.8c0.5,0.4,1.1,0.7,1.6,0.9c0.3,0.1,0.6,0.1,0.9,0.1
				c0.4,0,0.7,0,1.1-0.1c0.9-0.2,1.4-0.8,1.5-1.7c0-0.2,0.1-0.4,0.1-0.6c0-2.1-1.9-4.7-4.3-4.7c-1.1,0-2.4,0.2-2.8,1.4
				C339.3,116,339.2,116.3,339.2,116.6z"/>
		</g>
	</g>
	<g transform="matrix(1.32874,0,0,1.32874,0,0)">
		<g class="st2">
			<path d="M323,104.8c0-0.6,0.5-0.9,1-0.9c0.3,0,0.6,0.2,0.6,0.5c0,0.6-0.2,8.3-0.2,9c0,0.2,0.1,0.4,0.4,0.5c0.1,0,0.1,0,0.2,0
				c0.3,0,0.5-0.3,0.7-0.4c0.4-0.2,0.7-0.4,1.1-0.4c0.2-0.1,0.4-0.1,0.7-0.1c1.5,0.1,2.9,1.2,2.9,3.1c0,1.5-1,3.4-3.8,5.4
				c-0.8,0.5-1.6,1.4-2.5,2c0,0-0.1,0.1-0.2,0.1c-0.1,0-0.2,0-0.3-0.2C323.1,123,323,104.8,323,104.8z M324.9,121
				c0.1,0,0.2,0,0.3-0.1c1-0.6,1.9-1.6,2.3-2.4c0.4-0.7,0.5-1.3,0.5-1.9c0-0.6-0.2-1.2-0.5-1.5c-0.2-0.2-0.5-0.4-0.8-0.4
				c-0.3,0-0.5,0.1-0.8,0.2c-0.4,0.3-1.3,1-1.4,1.3c0,0.1-0.1,0.5-0.1,1c0,1.3,0.1,3.2,0.1,3.2C324.5,120.7,324.6,121,324.9,121z"/>
		</g>
	</g>
	<g transform="matrix(1.32874,0,0,1.32874,0,0)">
		<line vector-effect="none" class="st0" x1="397" y1="77.9" x2="419.8" y2="77.9"/>
	</g>
	<g transform="matrix(1.32874,0,0,1.32874,0,0)">
		<line vector-effect="none" class="st0" x1="397" y1="85.9" x2="419.8" y2="85.9"/>
	</g>
	<g transform="matrix(1.32874,0,0,1.32874,0,0)">
		<line vector-effect="none" class="st0" x1="397" y1="93.9" x2="419.8" y2="93.9"/>
	</g>
	<g transform="matrix(1.32874,0,0,1.32874,0,0)">
		<line vector-effect="none" class="st0" x1="397" y1="101.9" x2="419.8" y2="101.9"/>
	</g>
	<g transform="matrix(1.32874,0,0,1.32874,0,0)">
		<line vector-effect="none" class="st0" x1="397" y1="109.9" x2="419.8" y2="109.9"/>
	</g>
	<g transform="matrix(1.32874,0,0,1.32874,0,0)">
		<line vector-effect="none" class="st0" x1="397" y1="117.9" x2="419.8" y2="117.9"/>
	</g>
	<g transform="matrix(1.32874,0,0,1.32874,0,0)">
		<line vector-effect="none" class="st0" x1="397" y1="125.9" x2="419.8" y2="125.9"/>
	</g>
	<g transform="matrix(1.32874,0,0,1.32874,0,0)">
		<g class="st2">
			<path d="M415.7,125.9c0,2.4-1.8,4.4-7.5,4.4c-5.2,0-7.2-2.1-7.2-4.4c0-2.4,2.9-4.3,7.5-4.3C411.8,121.6,415.7,123.4,415.7,125.9z
				 M404.7,124.6c0,1.1,0.5,2.3,1.2,3.1c0.2,0.3,0.5,0.5,0.7,0.8c0.5,0.4,1.1,0.7,1.6,0.9c0.3,0.1,0.6,0.1,0.9,0.1
				c0.4,0,0.7,0,1.1-0.1c0.9-0.2,1.4-0.8,1.5-1.7c0-0.2,0.1-0.4,0.1-0.6c0-2.1-1.9-4.7-4.3-4.7c-1.1,0-2.4,0.2-2.8,1.4
				C404.8,124,404.7,124.3,404.7,124.6z"/>
		</g>
	</g>
	<g transform="matrix(1.32874,0,0,1.32874,0,0)">
		<line vector-effect="none" class="st0" x1="465.8" y1="77.9" x2="488.5" y2="77.9"/>
	</g>
	<g transform="matrix(1.32874,0,0,1.32874,0,0)">
		<line vector-effect="none" class="st0" x1="465.8" y1="85.9" x2="488.5" y2="85.9"/>
	</g>
	<g transform="matrix(1.32874,0,0,1.32874,0,0)">
		<line vector-effect="none" class="st0" x1="465.8" y1="93.9" x2="488.5" y2="93.9"/>
	</g>
	<g transform="matrix(1.32874,0,0,1.32874,0,0)">
		<line vector-effect="none" class="st0" x1="465.8" y1="101.9" x2="488.5" y2="101.9"/>
	</g>
	<g transform="matrix(1.32874,0,0,1.32874,0,0)">
		<line vector-effect="none" class="st0" x1="465.8" y1="109.9" x2="488.5" y2="109.9"/>
	</g>
	<g transform="matrix(1.32874,0,0,1.32874,0,0)">
		<line vector-effect="none" class="st0" x1="465.8" y1="117.9" x2="488.5" y2="117.9"/>
	</g>
	<g transform="matrix(1.32874,0,0,1.32874,0,0)">
		<g class="st2">
			<path d="M484.4,117.9c0,2.4-1.8,4.4-7.5,4.4c-5.2,0-7.2-2.1-7.2-4.4c0-2.4,2.9-4.3,7.5-4.3C480.5,113.6,484.4,115.4,484.4,117.9z
				 M473.5,116.6c0,1.1,0.5,2.3,1.2,3.1c0.2,0.3,0.5,0.5,0.7,0.8c0.5,0.4,1.1,0.7,1.6,0.9c0.3,0.1,0.6,0.1,0.9,0.1
				c0.4,0,0.7,0,1.1-0.1c0.9-0.2,1.4-0.8,1.5-1.7c0-0.2,0.1-0.4,0.1-0.6c0-2.1-1.9-4.7-4.3-4.7c-1.1,0-2.4,0.2-2.8,1.4
				C473.5,116,473.5,116.3,473.5,116.6z"/>
		</g>
	</g>
	<g transform="matrix(1.32874,0,0,1.32874,0,0)">
		<g class="st2">
			<path d="M457.3,104.8c0-0.6,0.5-0.9,1-0.9c0.3,0,0.6,0.2,0.6,0.5c0,0.6-0.2,8.3-0.2,9c0,0.2,0.1,0.4,0.4,0.5c0.1,0,0.1,0,0.2,0
				c0.3,0,0.5-0.3,0.7-0.4c0.4-0.2,0.7-0.4,1.1-0.4c0.2-0.1,0.4-0.1,0.7-0.1c1.5,0.1,2.9,1.2,2.9,3.1c0,1.5-1,3.4-3.8,5.4
				c-0.8,0.5-1.6,1.4-2.5,2c0,0-0.1,0.1-0.2,0.1c-0.1,0-0.2,0-0.3-0.2C457.4,123,457.3,104.8,457.3,104.8z M459.1,121
				c0.1,0,0.2,0,0.3-0.1c1-0.6,1.9-1.6,2.3-2.4c0.4-0.7,0.5-1.3,0.5-1.9c0-0.6-0.2-1.2-0.5-1.5c-0.2-0.2-0.5-0.4-0.8-0.4
				c-0.3,0-0.5,0.1-0.8,0.2c-0.4,0.3-1.3,1-1.4,1.3c0,0.1-0.1,0.5-0.1,1c0,1.3,0.1,3.2,0.1,3.2C458.8,120.7,458.8,121,459.1,121z"/>
		</g>
	</g>
	<g transform="matrix(1.32874,0,0,1.32874,0,0)">
		<line vector-effect="none" class="st0" x1="534.2" y1="77.9" x2="557" y2="77.9"/>
	</g>
	<g transform="matrix(1.32874,0,0,1.32874,0,0)">
		<line vector-effect="none" class="st0" x1="534.2" y1="85.9" x2="557" y2="85.9"/>
	</g>
	<g transform="matrix(1.32874,0,0,1.32874,0,0)">
		<line vector-effect="none" class="st0" x1="534.2" y1="93.9" x2="557" y2="93.9"/>
	</g>
	<g transform="matrix(1.32874,0,0,1.32874,0,0)">
		<line vector-effect="none" class="st0" x1="534.2" y1="101.9" x2="557" y2="101.9"/>
	</g>
	<g transform="matrix(1.32874,0,0,1.32874,0,0)">
		<line vector-effect="none" class="st0" x1="534.2" y1="109.9" x2="557" y2="109.9"/>
	</g>
	<g transform="matrix(1.32874,0,0,1.32874,0,0)">
		<line vector-effect="none" class="st0" x1="534.2" y1="117.9" x2="557" y2="117.9"/>
	</g>
	<g transform="matrix(1.32874,0,0,1.32874,0,0)">
		<line vector-effect="none" class="st0" x1="534.2" y1="125.9" x2="557" y2="125.9"/>
	</g>
	<g transform="matrix(1.32874,0,0,1.32874,0,0)">
		<g class="st2">
			<path d="M552.9,125.9c0,2.4-1.8,4.4-7.5,4.4c-5.2,0-7.2-2.1-7.2-4.4c0-2.4,2.9-4.3,7.5-4.3C549,121.6,552.9,123.4,552.9,125.9z
				 M542,124.6c0,1.1,0.5,2.3,1.2,3.1c0.2,0.3,0.5,0.5,0.7,0.8c0.5,0.4,1.1,0.7,1.6,0.9c0.3,0.1,0.6,0.1,0.9,0.1
				c0.4,0,0.7,0,1.1-0.1c0.9-0.2,1.4-0.8,1.5-1.7c0-0.2,0.1-0.4,0.1-0.6c0-2.1-1.9-4.7-4.3-4.7c-1.1,0-2.4,0.2-2.8,1.4
				C542,124,542,124.3,542,124.6z"/>
		</g>
	</g>
	<g transform="matrix(1.32874,0,0,1.32874,0,0)">
		<g class="st2">
			<path d="M525.7,112.8c0-0.6,0.5-0.9,1-0.9c0.3,0,0.6,0.2,0.6,0.5c0,0.6-0.2,8.3-0.2,9c0,0.2,0.1,0.4,0.4,0.5c0.1,0,0.1,0,0.2,0
				c0.3,0,0.5-0.3,0.7-0.4c0.4-0.2,0.7-0.4,1.1-0.4c0.2-0.1,0.4-0.1,0.7-0.1c1.5,0.1,2.9,1.2,2.9,3.1c0,1.5-1,3.4-3.8,5.4
				c-0.8,0.5-1.6,1.4-2.5,2c0,0-0.1,0.1-0.2,0.1c-0.1,0-0.2,0-0.3-0.2C525.9,131,525.7,112.8,525.7,112.8z M527.6,129
				c0.1,0,0.2,0,0.3-0.1c1-0.6,1.9-1.6,2.3-2.4c0.4-0.7,0.5-1.3,0.5-1.9c0-0.6-0.2-1.2-0.5-1.5c-0.2-0.2-0.5-0.4-0.8-0.4
				c-0.3,0-0.5,0.1-0.8,0.2c-0.4,0.3-1.3,1-1.4,1.3c0,0.1-0.1,0.5-0.1,1c0,1.3,0.1,3.2,0.1,3.2C527.3,128.7,527.3,129,527.6,129z"/>
		</g>
	</g>
	<g transform="matrix(1.32874,0,0,1.32874,0,0)">
		<line vector-effect="none" class="st0" x1="602.8" y1="77.9" x2="625.5" y2="77.9"/>
	</g>
	<g transform="matrix(1.32874,0,0,1.32874,0,0)">
		<line vector-effect="none" class="st0" x1="602.8" y1="85.9" x2="625.5" y2="85.9"/>
	</g>
	<g transform="matrix(1.32874,0,0,1.32874,0,0)">
		<line vector-effect="none" class="st0" x1="602.8" y1="93.9" x2="625.5" y2="93.9"/>
	</g>
	<g transform="matrix(1.32874,0,0,1.32874,0,0)">
		<line vector-effect="none" class="st0" x1="602.8" y1="101.9" x2="625.5" y2="101.9"/>
	</g>
	<g transform="matrix(1.32874,0,0,1.32874,0,0)">
		<line vector-effect="none" class="st0" x1="602.8" y1="109.9" x2="625.5" y2="109.9"/>
	</g>
	<g transform="matrix(1.32874,0,0,1.32874,0,0)">
		<line vector-effect="none" class="st0" x1="602.8" y1="117.9" x2="625.5" y2="117.9"/>
	</g>
	<g transform="matrix(1.32874,0,0,1.32874,0,0)">
		<g class="st2">
			<path d="M621.4,117.9c0,2.4-1.8,4.4-7.5,4.4c-5.2,0-7.2-2.1-7.2-4.4c0-2.4,2.9-4.3,7.5-4.3C617.5,113.6,621.4,115.4,621.4,117.9z
				 M610.5,116.6c0,1.1,0.5,2.3,1.2,3.1c0.2,0.3,0.5,0.5,0.7,0.8c0.5,0.4,1.1,0.7,1.6,0.9c0.3,0.1,0.6,0.1,0.9,0.1
				c0.4,0,0.7,0,1.1-0.1c0.9-0.2,1.4-0.8,1.5-1.7c0-0.2,0.1-0.4,0.1-0.6c0-2.1-1.9-4.7-4.3-4.7c-1.1,0-2.4,0.2-2.8,1.4
				C610.5,116,610.5,116.3,610.5,116.6z"/>
		</g>
	</g>
	<g transform="matrix(1.32874,0,0,1.32874,0,0)">
		<g class="st2">
			<path d="M594.2,104.8c0-0.6,0.5-0.9,1-0.9c0.3,0,0.6,0.2,0.6,0.5c0,0.6-0.2,8.3-0.2,9c0,0.2,0.1,0.4,0.4,0.5c0.1,0,0.1,0,0.2,0
				c0.3,0,0.5-0.3,0.7-0.4c0.4-0.2,0.7-0.4,1.1-0.4c0.2-0.1,0.4-0.1,0.7-0.1c1.5,0.1,2.9,1.2,2.9,3.1c0,1.5-1,3.4-3.8,5.4
				c-0.8,0.5-1.6,1.4-2.5,2c0,0-0.1,0.1-0.2,0.1c-0.1,0-0.2,0-0.3-0.2C594.4,123,594.2,104.8,594.2,104.8z M596.1,121
				c0.1,0,0.2,0,0.3-0.1c1-0.6,1.9-1.6,2.3-2.4c0.4-0.7,0.5-1.3,0.5-1.9c0-0.6-0.2-1.2-0.5-1.5c-0.2-0.2-0.5-0.4-0.8-0.4
				c-0.3,0-0.5,0.1-0.8,0.2c-0.4,0.3-1.3,1-1.4,1.3c0,0.1-0.1,0.5-0.1,1c0,1.3,0.1,3.2,0.1,3.2C595.8,120.7,595.8,121,596.1,121z"/>
		</g>
	</g>
	<g transform="matrix(1.32874,0,0,1.32874,0,0)">
		<line vector-effect="none" class="st0" x1="668.5" y1="77.9" x2="691.2" y2="77.9"/>
	</g>
	<g transform="matrix(1.32874,0,0,1.32874,0,0)">
		<line vector-effect="none" class="st0" x1="668.5" y1="85.9" x2="691.2" y2="85.9"/>
	</g>
	<g transform="matrix(1.32874,0,0,1.32874,0,0)">
		<line vector-effect="none" class="st0" x1="668.5" y1="93.9" x2="691.2" y2="93.9"/>
	</g>
	<g transform="matrix(1.32874,0,0,1.32874,0,0)">
		<line vector-effect="none" class="st0" x1="668.5" y1="101.9" x2="691.2" y2="101.9"/>
	</g>
	<g transform="matrix(1.32874,0,0,1.32874,0,0)">
		<line vector-effect="none" class="st0" x1="668.5" y1="109.9" x2="691.2" y2="109.9"/>
	</g>
	<g transform="matrix(1.32874,0,0,1.32874,0,0)">
		<line vector-effect="none" class="st0" x1="668.5" y1="117.9" x2="691.2" y2="117.9"/>
	</g>
	<g transform="matrix(1.32874,0,0,1.32874,0,0)">
		<line vector-effect="none" class="st0" x1="668.5" y1="125.9" x2="691.2" y2="125.9"/>
	</g>
	<g transform="matrix(1.32874,0,0,1.32874,0,0)">
		<g class="st2">
			<path d="M687.2,129.9c0,2.4-1.8,4.4-7.5,4.4c-5.2,0-7.2-2.1-7.2-4.4c0-2.4,2.9-4.3,7.5-4.3C683.3,125.6,687.2,127.4,687.2,129.9z
				 M676.2,128.6c0,1.1,0.5,2.3,1.2,3.1c0.2,0.3,0.5,0.5,0.7,0.8c0.5,0.4,1.1,0.7,1.6,0.9c0.3,0.1,0.6,0.1,0.9,0.1
				c0.4,0,0.7,0,1.1-0.1c0.9-0.2,1.4-0.8,1.5-1.7c0-0.2,0.1-0.4,0.1-0.6c0-2.1-1.9-4.7-4.3-4.7c-1.1,0-2.4,0.2-2.8,1.4
				C676.3,128.1,676.2,128.3,676.2,128.6z"/>
		</g>
	</g>
	<g transform="matrix(1.32874,0,0,1.32874,0,0)">
		<line vector-effect="none" class="st0" x1="737" y1="77.9" x2="759.8" y2="77.9"/>
	</g>
	<g transform="matrix(1.32874,0,0,1.32874,0,0)">
		<line vector-effect="none" class="st0" x1="737" y1="85.9" x2="759.8" y2="85.9"/>
	</g>
	<g transform="matrix(1.32874,0,0,1.32874,0,0)">
		<line vector-effect="none" class="st0" x1="737" y1="93.9" x2="759.8" y2="93.9"/>
	</g>
	<g transform="matrix(1.32874,0,0,1.32874,0,0)">
		<line vector-effect="none" class="st0" x1="737" y1="101.9" x2="759.8" y2="101.9"/>
	</g>
	<g transform="matrix(1.32874,0,0,1.32874,0,0)">
		<line vector-effect="none" class="st0" x1="737" y1="109.9" x2="759.8" y2="109.9"/>
	</g>
	<g transform="matrix(1.32874,0,0,1.32874,0,0)">
		<line vector-effect="none" class="st0" x1="737" y1="117.9" x2="759.8" y2="117.9"/>
	</g>
	<g transform="matrix(1.32874,0,0,1.32874,0,0)">
		<g class="st2">
			<path d="M755.7,117.9c0,2.4-1.8,4.4-7.5,4.4c-5.2,0-7.2-2.1-7.2-4.4c0-2.4,2.9-4.3,7.5-4.3C751.8,113.6,755.7,115.4,755.7,117.9z
				 M744.7,116.6c0,1.1,0.5,2.3,1.2,3.1c0.2,0.3,0.5,0.5,0.7,0.8c0.5,0.4,1.1,0.7,1.6,0.9c0.3,0.1,0.6,0.1,0.9,0.1
				c0.4,0,0.7,0,1.1-0.1c0.9-0.2,1.4-0.8,1.5-1.7c0-0.2,0.1-0.4,0.1-0.6c0-2.1-1.9-4.7-4.3-4.7c-1.1,0-2.4,0.2-2.8,1.4
				C744.8,116,744.7,116.3,744.7,116.6z"/>
		</g>
	</g>
	<g transform="matrix(1.32874,0,0,1.32874,0,0)">
		<g class="st2">
			<path d="M728.5,104.8c0-0.6,0.5-0.9,1-0.9c0.3,0,0.6,0.2,0.6,0.5c0,0.6-0.2,8.3-0.2,9c0,0.2,0.1,0.4,0.4,0.5c0.1,0,0.1,0,0.2,0
				c0.3,0,0.5-0.3,0.7-0.4c0.4-0.2,0.7-0.4,1.1-0.4c0.2-0.1,0.4-0.1,0.7-0.1c1.5,0.1,2.9,1.2,2.9,3.1c0,1.5-1,3.4-3.8,5.4
				c-0.8,0.5-1.6,1.4-2.5,2c0,0-0.1,0.1-0.2,0.1c-0.1,0-0.2,0-0.3-0.2C728.6,123,728.5,104.8,728.5,104.8z M730.4,121
				c0.1,0,0.2,0,0.3-0.1c1-0.6,1.9-1.6,2.3-2.4c0.4-0.7,0.5-1.3,0.5-1.9c0-0.6-0.2-1.2-0.5-1.5c-0.2-0.2-0.5-0.4-0.8-0.4
				c-0.3,0-0.5,0.1-0.8,0.2c-0.4,0.3-1.3,1-1.4,1.3c0,0.1-0.1,0.5-0.1,1c0,1.3,0.1,3.2,0.1,3.2C730,120.7,730.1,121,730.4,121z"/>
		</g>
	</g>
	<g transform="matrix(1.32874,0,0,1.32874,0,0)">
		<line vector-effect="none" class="st0" x1="802.8" y1="77.9" x2="825.5" y2="77.9"/>
	</g>
	<g transform="matrix(1.32874,0,0,1.32874,0,0)">
		<line vector-effect="none" class="st0" x1="802.8" y1="85.9" x2="825.5" y2="85.9"/>
	</g>
	<g transform="matrix(1.32874,0,0,1.32874,0,0)">
		<line vector-effect="none" class="st0" x1="802.8" y1="93.9" x2="825.5" y2="93.9"/>
	</g>
	<g transform="matrix(1.32874,0,0,1.32874,0,0)">
		<line vector-effect="none" class="st0" x1="802.8" y1="101.9" x2="825.5" y2="101.9"/>
	</g>
	<g transform="matrix(1.32874,0,0,1.32874,0,0)">
		<line vector-effect="none" class="st0" x1="802.8" y1="109.9" x2="825.5" y2="109.9"/>
	</g>
	<g transform="matrix(1.32874,0,0,1.32874,0,0)">
		<line vector-effect="none" class="st0" x1="802.8" y1="117.9" x2="825.5" y2="117.9"/>
	</g>
	<g transform="matrix(1.32874,0,0,1.32874,0,0)">
		<line vector-effect="none" class="st0" x1="802.8" y1="125.9" x2="825.5" y2="125.9"/>
	</g>
	<g transform="matrix(1.32874,0,0,1.32874,0,0)">
		<line vector-effect="none" class="st0" x1="802.8" y1="133.9" x2="825.5" y2="133.9"/>
	</g>
	<g transform="matrix(1.32874,0,0,1.32874,0,0)">
		<g class="st2">
			<path d="M821.4,133.9c0,2.4-1.8,4.4-7.5,4.4c-5.2,0-7.2-2.1-7.2-4.4c0-2.4,2.9-4.3,7.5-4.3C817.5,129.6,821.4,131.4,821.4,133.9z
				 M810.5,132.6c0,1.1,0.5,2.3,1.2,3.1c0.2,0.3,0.5,0.5,0.7,0.8c0.5,0.4,1.1,0.7,1.6,0.9c0.3,0.1,0.6,0.1,0.9,0.1
				c0.4,0,0.7,0,1.1-0.1c0.9-0.2,1.4-0.8,1.5-1.7c0-0.2,0.1-0.4,0.1-0.6c0-2.1-1.9-4.7-4.3-4.7c-1.1,0-2.4,0.2-2.8,1.4
				C810.5,132.1,810.5,132.3,810.5,132.6z"/>
		</g>
	</g>
</g>
</svg>
