<?xml version="1.0" encoding="utf-8"?>
<!-- Generator: Adobe Illustrator 26.5.0, SVG Export Plug-In . SVG Version: 6.00 Build 0)  -->
<svg version="1.1" id="Layer_1" xmlns="http://www.w3.org/2000/svg" xmlns:xlink="http://www.w3.org/1999/xlink" x="0px" y="0px"
	 viewBox="0 0 1152.7 92.8" style="enable-background:new 0 0 1152.7 92.8;" xml:space="preserve">
<style type="text/css">
	.st0{fill:none;stroke:#000000;stroke-width:1.6609;stroke-linejoin:bevel;stroke-miterlimit:1.3287;}
	.st1{fill:none;stroke:#000000;stroke-width:5.315;stroke-linejoin:bevel;stroke-miterlimit:1.3287;}
	.st2{enable-background:new    ;}
	.st3{fill:none;stroke:#000000;stroke-width:1.3287;stroke-linejoin:bevel;stroke-miterlimit:1.3287;}
	.st4{fill:none;stroke:#000000;stroke-width:0.9966;stroke-linejoin:bevel;stroke-miterlimit:1.3287;}
	.st5{fill-rule:evenodd;clip-rule:evenodd;stroke:#000000;stroke-width:0.3322;stroke-linejoin:bevel;stroke-miterlimit:1.3287;}
</style>
<g>
	<g transform="matrix(1.32874,0,0,1.32874,0,0)">
		<line vector-effect="none" class="st0" x1="118.8" y1="37.3" x2="118.8" y2="69.3"/>
	</g>
	<g transform="matrix(1.32874,0,0,1.32874,0,0)">
		<line vector-effect="none" class="st0" x1="186" y1="37.3" x2="186" y2="69.3"/>
	</g>
	<g transform="matrix(1.32874,0,0,1.32874,0,0)">
		<line vector-effect="none" class="st0" x1="253.5" y1="37.3" x2="253.5" y2="69.3"/>
	</g>
	<g transform="matrix(1.32874,0,0,1.32874,0,0)">
		<line vector-effect="none" class="st0" x1="320.8" y1="37.3" x2="320.8" y2="69.3"/>
	</g>
	<g transform="matrix(1.32874,0,0,1.32874,0,0)">
		<line vector-effect="none" class="st0" x1="388" y1="37.3" x2="388" y2="69.3"/>
	</g>
	<g transform="matrix(1.32874,0,0,1.32874,0,0)">
		<line vector-effect="none" class="st0" x1="455.2" y1="37.3" x2="455.2" y2="69.3"/>
	</g>
	<g transform="matrix(1.32874,0,0,1.32874,0,0)">
		<line vector-effect="none" class="st0" x1="522.5" y1="37.3" x2="522.5" y2="69.3"/>
	</g>
	<g transform="matrix(1.32874,0,0,1.32874,0,0)">
		<line vector-effect="none" class="st0" x1="589.8" y1="37.3" x2="589.8" y2="69.3"/>
	</g>
	<g transform="matrix(1.32874,0,0,1.32874,0,0)">
		<line vector-effect="none" class="st0" x1="657.2" y1="37.3" x2="657.2" y2="69.3"/>
	</g>
	<g transform="matrix(1.32874,0,0,1.32874,0,0)">
		<line vector-effect="none" class="st0" x1="724.5" y1="37.3" x2="724.5" y2="69.3"/>
	</g>
	<g transform="matrix(1.32874,0,0,1.32874,0,0)">
		<line vector-effect="none" class="st0" x1="791.8" y1="37.3" x2="791.8" y2="69.3"/>
	</g>
	<g transform="matrix(1.32874,0,0,1.32874,0,0)">
		<line vector-effect="none" class="st0" x1="859.8" y1="37.3" x2="859.8" y2="69.3"/>
	</g>
	<g transform="matrix(1.32874,0,0,1.32874,0,0)">
		<line vector-effect="none" class="st1" x1="865.5" y1="37.3" x2="865.5" y2="69.3"/>
	</g>
	<g transform="matrix(1.32874,0,0,1.32874,0,0)">
	</g>
	<g transform="matrix(1.32874,0,0,1.32874,332.185,9259.21)">
	</g>
	<g transform="matrix(1.32874,0,0,1.32874,332.185,9259.21)">
		<g class="st2">
			<path d="M-200.6-6920c0,0.4-0.2,0.7-0.5,0.7h-1.9v1.7c0,1,0.6,1.2,1,1.2s0.7,0.2,0.7,0.6c0,0.5-0.3,0.6-0.6,0.6h-7.5
				c-0.5,0-0.6-0.3-0.6-0.6c0-0.3,0.2-0.6,0.7-0.6c0.6,0,1.3-0.3,1.3-1.1v-1.8h-5.8c-0.4,0-0.6-0.4-0.6-0.7c0-0.1,0-0.2,0.1-0.3
				c0,0,0-0.1,0-0.1l0.2-0.3c0.9-1.3,3.6-5.7,3.6-9.6c0-0.5,0.4-0.6,0.7-0.6c0.3,0,2.1,0.1,2.6,0.1c0.6,0,2.3-0.1,2.5-0.1
				c0.3,0,0.5,0.2,0.5,0.5c0,0.1,0,0.1,0,0.1c-0.1,0.4-5.5,7.4-8.1,9.5h4.3v-2.5c0-0.4,0.2-0.6,0.3-0.7l3.8-3.6
				c0.2-0.2,0.3-0.3,0.6-0.3c0.4,0,0.4,0.3,0.4,0.5v6.6h1.9C-200.7-6920.7-200.6-6920.4-200.6-6920z"/>
		</g>
	</g>
	<g transform="matrix(1.32874,0,0,1.32874,332.185,9259.21)">
		<g class="st2">
			<path d="M-200.6-6903.9c0,0.4-0.2,0.7-0.5,0.7h-1.9v1.7c0,1,0.6,1.2,1,1.2s0.7,0.2,0.7,0.6s-0.3,0.6-0.6,0.6h-7.5
				c-0.5,0-0.6-0.3-0.6-0.6s0.2-0.6,0.7-0.6c0.6,0,1.3-0.3,1.3-1.1v-1.8h-5.8c-0.4,0-0.6-0.4-0.6-0.7c0-0.1,0-0.2,0.1-0.3
				c0,0,0-0.1,0-0.1l0.2-0.3c0.9-1.3,3.6-5.7,3.6-9.6c0-0.5,0.4-0.6,0.7-0.6c0.3,0,2.1,0.1,2.6,0.1c0.6,0,2.3-0.1,2.5-0.1
				c0.3,0,0.5,0.2,0.5,0.5c0,0.1,0,0.1,0,0.1c-0.1,0.4-5.5,7.4-8.1,9.5h4.3v-2.5c0-0.4,0.2-0.6,0.3-0.7l3.8-3.6
				c0.2-0.2,0.3-0.3,0.6-0.3c0.4,0,0.4,0.3,0.4,0.5v6.6h1.9C-200.7-6904.6-200.6-6904.3-200.6-6903.9z"/>
		</g>
	</g>
	<g transform="matrix(1.32874,0,0,1.32874,332.185,9259.21)">
	</g>
	<g transform="matrix(1.32874,0,0,1.32874,0,0)">
	</g>
	<g transform="matrix(1.32874,0,0,1.32874,0,0)">
		<line vector-effect="none" class="st3" x1="0" y1="69.3" x2="867.2" y2="69.3"/>
	</g>
	<g transform="matrix(1.32874,0,0,1.32874,0,0)">
		<line vector-effect="none" class="st3" x1="0" y1="61.3" x2="867.2" y2="61.3"/>
	</g>
	<g transform="matrix(1.32874,0,0,1.32874,0,0)">
		<line vector-effect="none" class="st3" x1="0" y1="53.3" x2="867.2" y2="53.3"/>
	</g>
	<g transform="matrix(1.32874,0,0,1.32874,0,0)">
		<line vector-effect="none" class="st3" x1="0" y1="45.3" x2="867.2" y2="45.3"/>
	</g>
	<g transform="matrix(1.32874,0,0,1.32874,0,0)">
		<line vector-effect="none" class="st3" x1="0" y1="37.3" x2="867.2" y2="37.3"/>
	</g>
	<g transform="matrix(1.32874,0,0,1.32874,0,0)">
		<g class="st2">
			<path d="M23,46.2c0,4.2-1.7,8.1-4.4,11.1c-3.4,3.6-7.5,6.1-11.7,8.2c-0.2,0.1-0.4,0.2-0.5,0.2c-0.3,0-0.4-0.2-0.4-0.4
				c0-0.3,0.2-0.4,0.5-0.6c4-2.3,7.3-5,9.2-8c2-3.1,2.7-6.9,2.7-10.2c0-5-1.5-8.4-4.9-8.4c-3.3,0-5.2,2.3-5.2,3.6
				c0,0.3,0.1,0.6,0.5,0.6c0.4,0,0.7-0.2,1.6-0.2c1.6,0,3.1,1.3,3.1,3.3c0,2-1.4,3.4-3.4,3.4c-2.6,0-3.9-2.2-3.9-4.8
				c0-3.1,2.5-7.1,8.1-7.1C19.6,36.9,23,40.7,23,46.2z M27.9,41.3c0,1-0.8,1.8-1.8,1.8s-1.8-0.8-1.8-1.8s0.8-1.8,1.8-1.8
				S27.9,40.3,27.9,41.3z M27.9,49.3c0,1-0.7,1.7-1.7,1.7s-1.7-0.7-1.7-1.7s0.7-1.7,1.7-1.7S27.9,48.3,27.9,49.3z"/>
		</g>
	</g>
	<g transform="matrix(1.32874,0,0,1.32874,0,0)">
		<path vector-effect="none" class="st4" d="M72.5,33.3c11.5-10,56-4.5,64.8,8"/>
	</g>
	<g transform="matrix(1.32874,0,0,1.32874,0,0)">
		<path vector-effect="none" class="st5" d="M72.5,33.3c11.5-11,56-5.5,64.8,8C128.5,29.8,84,24.3,72.5,33.3"/>
	</g>
	<g transform="matrix(1.32874,0,0,1.32874,0,0)">
		<path vector-effect="none" class="st4" d="M207,33.3c11.5-10.2,56.2-4.7,65,8"/>
	</g>
	<g transform="matrix(1.32874,0,0,1.32874,0,0)">
		<path vector-effect="none" class="st5" d="M207,33.3c11.5-11.2,56.2-5.7,65,8C263.2,29.6,218.5,24.1,207,33.3"/>
	</g>
	<g transform="matrix(1.32874,0,0,1.32874,0,0)">
		<path vector-effect="none" class="st4" d="M341.8,33.3c11.5-10,56-4.5,64.8,8"/>
	</g>
	<g transform="matrix(1.32874,0,0,1.32874,0,0)">
		<path vector-effect="none" class="st5" d="M341.8,33.3c11.5-11,56-5.5,64.8,8C397.8,29.8,353.2,24.3,341.8,33.3"/>
	</g>
	<g transform="matrix(1.32874,0,0,1.32874,0,0)">
		<path vector-effect="none" class="st4" d="M476.2,33.3c11.5-10,56-4.5,64.8,8"/>
	</g>
	<g transform="matrix(1.32874,0,0,1.32874,0,0)">
		<path vector-effect="none" class="st5" d="M476.2,33.3c11.5-11,56-5.5,64.8,8C532.2,29.8,487.8,24.3,476.2,33.3"/>
	</g>
	<g transform="matrix(1.32874,0,0,1.32874,0,0)">
		<path vector-effect="none" class="st4" d="M610.8,33.3c12.8-8.7,57.5,2.2,65,16"/>
	</g>
	<g transform="matrix(1.32874,0,0,1.32874,0,0)">
		<path vector-effect="none" class="st5" d="M610.8,33.3c13-9.7,57.8,1.2,65,16C668,36.6,623.2,25.6,610.8,33.3"/>
	</g>
	<g transform="matrix(1.32874,0,0,1.32874,0,0)">
		<path vector-effect="none" class="st4" d="M745.5,33.3c12.8-8.7,57.2,2.2,64.8,16"/>
	</g>
	<g transform="matrix(1.32874,0,0,1.32874,0,0)">
		<path vector-effect="none" class="st5" d="M745.5,33.3c13-9.7,57.5,1.2,64.8,16C802.5,36.6,758,25.6,745.5,33.3"/>
	</g>
	<g transform="matrix(1.32874,0,0,1.32874,143.504,9185.59)">
	</g>
	<g transform="matrix(1.32874,0,0,1.32874,143.504,9185.59)">
		<g class="st2">
			<path d="M-105.1-6912.7h6l-0.9,2.4h-5l-0.5,1.3c2.2,0.1,3.8,0.6,5,1.6c1,0.8,1.4,1.8,1.4,3.1c0,0.8-0.2,1.5-0.7,2.3
				s-1.1,1.3-1.9,1.7c-0.8,0.4-1.7,0.6-2.7,0.6c-1,0-1.8-0.2-2.4-0.6c-0.4-0.3-0.6-0.6-0.6-0.9c0-0.3,0.1-0.5,0.3-0.7
				c0.2-0.2,0.4-0.3,0.7-0.3c0.2,0,0.5,0.1,0.7,0.2c0.3,0.1,0.7,0.4,1.3,0.8c0.4,0.3,0.7,0.4,1,0.5c0.2,0.1,0.4,0.1,0.7,0.1
				c0.5,0,1-0.2,1.3-0.6c0.4-0.4,0.5-0.8,0.5-1.4c0-1.1-0.6-2-1.7-2.7c-1.1-0.7-2.5-1-4.2-1c-0.2,0-0.4,0-0.8,0L-105.1-6912.7z"/>
			<path d="M-94.2-6912v3.2h2.1v0.9h-2.1v5.4c0,0.5,0,0.8,0.1,1c0,0.1,0.1,0.3,0.2,0.4c0.1,0.1,0.2,0.1,0.3,0.1
				c0.4,0,0.8-0.3,1.2-0.9l0.3,0.2c-0.5,1.2-1.3,1.8-2.5,1.8c-0.6,0-1-0.2-1.4-0.5s-0.6-0.7-0.7-1c-0.1-0.2-0.1-0.8-0.1-1.7v-4.7
				H-98v-0.3c0.8-0.6,1.5-1.1,2-1.8c0.6-0.6,1-1.3,1.5-2.1H-94.2z"/>
			<path d="M-87.7-6912.7v5.1c0.5-0.5,0.9-0.9,1.3-1.1c0.4-0.2,0.8-0.3,1.3-0.3c0.6,0,1,0.2,1.4,0.5c0.4,0.3,0.7,0.7,0.8,1.1
				c0.1,0.4,0.2,1.1,0.2,2.1v3.4c0,0.7,0.1,1.1,0.2,1.3c0.1,0.2,0.4,0.3,0.8,0.3v0.3h-4.5v-0.3c0.3,0,0.5-0.2,0.7-0.4
				c0.1-0.2,0.2-0.6,0.2-1.2v-3.9c0-0.7,0-1.2-0.1-1.4c-0.1-0.2-0.2-0.3-0.3-0.4c-0.1-0.1-0.3-0.2-0.5-0.2c-0.3,0-0.5,0.1-0.7,0.3
				c-0.2,0.2-0.5,0.5-0.8,0.9v4.7c0,0.6,0,1,0.1,1.2c0.1,0.2,0.4,0.3,0.7,0.4v0.3h-4.5v-0.3c0.4,0,0.6-0.2,0.8-0.4
				c0.1-0.1,0.2-0.5,0.2-1.2v-8.9c0-0.7-0.1-1.1-0.2-1.2c-0.1-0.2-0.4-0.3-0.8-0.3v-0.3H-87.7z"/>
			<path d="M-71.2-6905.7v3.5c0,0.7,0,1.1,0.1,1.3c0.1,0.2,0.2,0.3,0.5,0.4c0.2,0.1,0.6,0.2,1.2,0.2v0.3H-76v-0.3
				c0.6,0,1-0.1,1.2-0.2c0.2-0.1,0.4-0.3,0.4-0.4c0.1-0.2,0.1-0.6,0.1-1.3v-8.3c0-0.7,0-1.1-0.1-1.3c-0.1-0.2-0.2-0.3-0.4-0.4
				c-0.2-0.1-0.6-0.2-1.2-0.2v-0.3h5.6c1.8,0,3.1,0.3,3.9,1c0.8,0.7,1.2,1.5,1.2,2.4c0,0.8-0.3,1.5-0.8,2.1c-0.5,0.6-1.2,1-2.1,1.2
				C-68.8-6905.8-69.8-6905.7-71.2-6905.7z M-71.2-6912v5.5c0.2,0,0.4,0,0.5,0c0.8,0,1.4-0.2,1.8-0.7c0.4-0.5,0.6-1.2,0.6-2.1
				c0-0.9-0.2-1.6-0.6-2.1c-0.4-0.4-1-0.7-1.9-0.7H-71.2z"/>
			<path d="M-59.2-6901.3c-1.1,0.9-2,1.4-2.9,1.4c-0.5,0-0.9-0.2-1.3-0.5c-0.3-0.3-0.5-0.7-0.5-1.2c0-0.7,0.3-1.3,0.9-1.8
				c0.6-0.5,1.8-1.2,3.8-2.1v-0.9c0-0.7,0-1.1-0.1-1.3s-0.2-0.3-0.4-0.5c-0.2-0.1-0.4-0.2-0.7-0.2c-0.4,0-0.7,0.1-1,0.3
				c-0.2,0.1-0.2,0.2-0.2,0.4c0,0.1,0.1,0.3,0.3,0.5c0.2,0.3,0.4,0.5,0.4,0.8c0,0.3-0.1,0.6-0.3,0.8c-0.2,0.2-0.5,0.3-0.9,0.3
				c-0.4,0-0.7-0.1-1-0.4c-0.3-0.2-0.4-0.5-0.4-0.8c0-0.5,0.2-0.9,0.5-1.3c0.4-0.4,0.9-0.7,1.5-0.9c0.6-0.2,1.3-0.3,2-0.3
				c0.8,0,1.5,0.2,2,0.5c0.5,0.4,0.8,0.7,0.9,1.2c0.1,0.3,0.1,0.9,0.1,1.8v3.4c0,0.4,0,0.7,0,0.8c0,0.1,0.1,0.2,0.1,0.2
				c0.1,0,0.1,0.1,0.2,0.1c0.2,0,0.3-0.1,0.5-0.3l0.3,0.2c-0.3,0.5-0.6,0.8-1,1c-0.3,0.2-0.7,0.3-1.1,0.3c-0.5,0-0.9-0.1-1.2-0.4
				C-59-6900.4-59.1-6900.8-59.2-6901.3z M-59.2-6901.9v-2.9c-0.8,0.4-1.3,0.9-1.7,1.4c-0.2,0.3-0.4,0.7-0.4,1
				c0,0.3,0.1,0.5,0.3,0.8c0.2,0.2,0.4,0.3,0.7,0.3C-60-6901.4-59.6-6901.6-59.2-6901.9z"/>
			<path d="M-50.8-6908.8v2c0.6-0.9,1.1-1.5,1.5-1.8c0.4-0.3,0.9-0.4,1.3-0.4c0.4,0,0.6,0.1,0.8,0.3c0.2,0.2,0.3,0.5,0.3,0.9
				c0,0.4-0.1,0.7-0.3,1s-0.4,0.3-0.7,0.3c-0.3,0-0.6-0.1-0.9-0.3c-0.2-0.2-0.4-0.3-0.4-0.4c-0.1,0-0.1-0.1-0.2-0.1
				c-0.2,0-0.4,0.1-0.5,0.2c-0.3,0.2-0.5,0.5-0.6,0.9c-0.2,0.6-0.3,1.3-0.3,2v2l0,0.5c0,0.4,0,0.6,0.1,0.7c0.1,0.2,0.2,0.3,0.3,0.4
				c0.1,0.1,0.4,0.1,0.7,0.1v0.3h-4.7v-0.3c0.4,0,0.6-0.1,0.8-0.3c0.1-0.2,0.2-0.6,0.2-1.4v-4.9c0-0.5,0-0.8-0.1-1
				c-0.1-0.2-0.2-0.3-0.3-0.4c-0.1-0.1-0.3-0.1-0.6-0.2v-0.3H-50.8z"/>
			<path d="M-42.4-6912v3.2h2.1v0.9h-2.1v5.4c0,0.5,0,0.8,0.1,1c0,0.1,0.1,0.3,0.2,0.4c0.1,0.1,0.2,0.1,0.3,0.1
				c0.4,0,0.8-0.3,1.2-0.9l0.3,0.2c-0.5,1.2-1.3,1.8-2.5,1.8c-0.6,0-1-0.2-1.4-0.5s-0.6-0.7-0.7-1c-0.1-0.2-0.1-0.8-0.1-1.7v-4.7
				h-1.1v-0.3c0.8-0.6,1.5-1.1,2-1.8c0.6-0.6,1-1.3,1.5-2.1H-42.4z"/>
			<path d="M-36-6908.8v7c0,0.6,0.1,1,0.2,1.2c0.1,0.2,0.4,0.3,0.8,0.3v0.3h-4.7v-0.3c0.4,0,0.7-0.1,0.9-0.3
				c0.1-0.1,0.2-0.5,0.2-1.1v-5.1c0-0.6-0.1-1-0.2-1.2c-0.1-0.2-0.4-0.3-0.8-0.3v-0.3H-36z M-37.3-6913c0.4,0,0.8,0.1,1,0.4
				c0.3,0.3,0.4,0.6,0.4,1c0,0.4-0.1,0.7-0.4,1c-0.3,0.3-0.6,0.4-1,0.4s-0.7-0.1-1-0.4c-0.3-0.3-0.4-0.6-0.4-1c0-0.4,0.1-0.7,0.4-1
				C-38.1-6912.9-37.7-6913-37.3-6913z"/>
			<path d="M-29.3-6901.3c-1.1,0.9-2,1.4-2.9,1.4c-0.5,0-0.9-0.2-1.3-0.5c-0.3-0.3-0.5-0.7-0.5-1.2c0-0.7,0.3-1.3,0.9-1.8
				s1.8-1.2,3.8-2.1v-0.9c0-0.7,0-1.1-0.1-1.3s-0.2-0.3-0.4-0.5c-0.2-0.1-0.4-0.2-0.7-0.2c-0.4,0-0.7,0.1-1,0.3
				c-0.2,0.1-0.2,0.2-0.2,0.4c0,0.1,0.1,0.3,0.3,0.5c0.2,0.3,0.4,0.5,0.4,0.8c0,0.3-0.1,0.6-0.3,0.8c-0.2,0.2-0.5,0.3-0.9,0.3
				c-0.4,0-0.7-0.1-1-0.4c-0.3-0.2-0.4-0.5-0.4-0.8c0-0.5,0.2-0.9,0.5-1.3c0.4-0.4,0.9-0.7,1.5-0.9c0.6-0.2,1.3-0.3,2-0.3
				c0.8,0,1.5,0.2,2,0.5c0.5,0.4,0.8,0.7,0.9,1.2c0.1,0.3,0.1,0.9,0.1,1.8v3.4c0,0.4,0,0.7,0,0.8c0,0.1,0.1,0.2,0.1,0.2
				s0.1,0.1,0.2,0.1c0.2,0,0.3-0.1,0.5-0.3l0.3,0.2c-0.3,0.5-0.6,0.8-1,1c-0.3,0.2-0.7,0.3-1.1,0.3c-0.5,0-0.9-0.1-1.2-0.4
				C-29-6900.4-29.2-6900.8-29.3-6901.3z M-29.3-6901.9v-2.9c-0.8,0.4-1.3,0.9-1.7,1.4c-0.2,0.3-0.4,0.7-0.4,1
				c0,0.3,0.1,0.5,0.3,0.8c0.2,0.2,0.4,0.3,0.7,0.3C-30-6901.4-29.7-6901.6-29.3-6901.9z"/>
			<path d="M-21-6912.7v10.9c0,0.6,0.1,1,0.2,1.2c0.1,0.2,0.4,0.3,0.8,0.3v0.3h-4.7v-0.3c0.4,0,0.7-0.1,0.9-0.3
				c0.1-0.1,0.2-0.5,0.2-1.1v-9.1c0-0.6-0.1-1-0.2-1.2c-0.1-0.2-0.4-0.3-0.8-0.3v-0.3H-21z"/>
			<path d="M-13.5-6895.8v-17.2h1.2v17.2H-13.5z"/>
			<path d="M-0.6-6912v5.2h0.4c0.6,0,1-0.1,1.4-0.3s0.7-0.5,0.9-0.9c0.2-0.4,0.4-0.9,0.5-1.6h0.3v6.4H2.5c-0.1-1.2-0.4-2-1-2.4
				s-1.1-0.6-1.8-0.6h-0.4v3.9c0,0.7,0,1.1,0.1,1.2c0.1,0.2,0.2,0.3,0.4,0.4c0.2,0.1,0.5,0.2,0.9,0.2h0.4v0.3h-6.7v-0.3h0.4
				c0.4,0,0.7-0.1,0.9-0.2c0.2-0.1,0.3-0.2,0.4-0.5c0.1-0.1,0.1-0.5,0.1-1.2v-8.4c0-0.7,0-1.1-0.1-1.2c-0.1-0.2-0.2-0.3-0.4-0.4
				c-0.2-0.1-0.5-0.2-0.9-0.2h-0.4v-0.3H5.3v3.7H4.9c-0.1-0.9-0.3-1.5-0.7-1.9c-0.4-0.4-0.9-0.7-1.6-0.9c-0.4-0.1-1.1-0.1-2.1-0.1
				H-0.6z"/>
			<path d="M14.1-6912v3.2h2.1v0.9h-2.1v5.4c0,0.5,0,0.8,0.1,1c0,0.1,0.1,0.3,0.2,0.4c0.1,0.1,0.2,0.1,0.3,0.1
				c0.4,0,0.8-0.3,1.2-0.9l0.3,0.2c-0.5,1.2-1.3,1.8-2.5,1.8c-0.6,0-1-0.2-1.4-0.5c-0.4-0.3-0.6-0.7-0.7-1c-0.1-0.2-0.1-0.8-0.1-1.7
				v-4.7h-1.1v-0.3c0.8-0.6,1.5-1.1,2-1.8c0.6-0.6,1-1.3,1.5-2.1H14.1z"/>
			<path d="M21.1-6909c0.8,0,1.5,0.2,2.1,0.6c0.7,0.4,1.2,1,1.5,1.7c0.3,0.7,0.5,1.5,0.5,2.4c0,1.2-0.3,2.3-0.9,3.1
				c-0.8,1-1.8,1.5-3.2,1.5c-1.3,0-2.3-0.5-3.1-1.4c-0.7-0.9-1.1-2-1.1-3.2c0-1.3,0.4-2.4,1.1-3.3C18.9-6908.5,19.9-6909,21.1-6909z
				 M21.2-6908.3c-0.3,0-0.6,0.1-0.8,0.4c-0.2,0.2-0.4,0.7-0.5,1.4c-0.1,0.7-0.1,1.7-0.1,3c0,0.7,0,1.3,0.1,1.9
				c0.1,0.4,0.2,0.8,0.4,1c0.2,0.2,0.5,0.3,0.8,0.3c0.3,0,0.5-0.1,0.7-0.2c0.2-0.2,0.4-0.5,0.5-0.9c0.1-0.6,0.2-1.8,0.2-3.6
				c0-1.1-0.1-1.8-0.2-2.2c-0.1-0.4-0.3-0.7-0.5-0.9C21.7-6908.3,21.4-6908.3,21.2-6908.3z"/>
			<path d="M39.3-6906.7c1.2,0.3,2.1,0.6,2.5,1c0.7,0.6,1.1,1.3,1.1,2.2c0,1-0.4,1.8-1.2,2.4c-0.9,0.8-2.3,1.1-4.1,1.1h-6.5v-0.3
				c0.6,0,1-0.1,1.2-0.2c0.2-0.1,0.4-0.3,0.4-0.4c0.1-0.2,0.1-0.6,0.1-1.3v-8.3c0-0.7,0-1.1-0.1-1.3c-0.1-0.2-0.2-0.3-0.4-0.4
				c-0.2-0.1-0.6-0.2-1.2-0.2v-0.3h6.1c1.5,0,2.5,0.1,3.1,0.4c0.6,0.3,1.1,0.6,1.4,1.2c0.4,0.5,0.5,1.1,0.5,1.6
				c0,0.6-0.2,1.2-0.7,1.6C41.2-6907.4,40.5-6907,39.3-6906.7z M35.9-6906.2v4.1l0,0.5c0,0.3,0.1,0.6,0.3,0.8
				c0.2,0.2,0.4,0.3,0.8,0.3c0.5,0,1-0.1,1.4-0.3c0.4-0.2,0.7-0.5,1-1c0.2-0.4,0.3-0.9,0.3-1.4c0-0.6-0.1-1.1-0.4-1.6
				s-0.7-0.8-1.1-1C37.6-6906.2,36.9-6906.2,35.9-6906.2z M35.9-6907c0.9,0,1.5-0.1,2-0.3s0.7-0.5,1-0.8c0.2-0.4,0.3-0.8,0.3-1.4
				c0-0.6-0.1-1-0.3-1.4c-0.2-0.4-0.5-0.6-1-0.8c-0.4-0.2-1.1-0.3-2-0.3V-6907z"/>
		</g>
	</g>
	<g transform="matrix(1.32874,0,0,1.32874,143.504,9185.59)">
	</g>
	<g transform="matrix(1.32874,0,0,1.32874,0,0)">
	</g>
	<g transform="matrix(1.32874,0,0,1.32874,0,0)">
		<g class="st2">
			<path d="M78.7,45.3c0,2.4-1.8,4.4-7.5,4.4c-5.2,0-7.2-2.1-7.2-4.4c0-2.4,2.9-4.3,7.5-4.3C74.8,41,78.7,42.9,78.7,45.3z M67.7,44
				c0,1.1,0.5,2.3,1.2,3.1c0.2,0.3,0.5,0.5,0.7,0.8c0.5,0.4,1.1,0.7,1.6,0.9c0.3,0.1,0.6,0.1,0.9,0.1c0.4,0,0.7,0,1.1-0.1
				c0.9-0.2,1.4-0.8,1.5-1.7c0-0.2,0.1-0.4,0.1-0.6c0-2.1-1.9-4.7-4.3-4.7c-1.1,0-2.4,0.2-2.8,1.4C67.8,43.5,67.7,43.8,67.7,44z"/>
		</g>
	</g>
	<g transform="matrix(1.32874,0,0,1.32874,0,0)">
		<g class="st2">
			<path d="M145.9,49.3c0,2.4-1.8,4.4-7.5,4.4c-5.2,0-7.2-2.1-7.2-4.4c0-2.4,2.9-4.3,7.5-4.3C142,45,145.9,46.9,145.9,49.3z M135,48
				c0,1.1,0.5,2.3,1.2,3.1c0.2,0.3,0.5,0.5,0.7,0.8c0.5,0.4,1.1,0.7,1.6,0.9c0.3,0.1,0.6,0.1,0.9,0.1c0.4,0,0.7,0,1.1-0.1
				c0.9-0.2,1.4-0.8,1.5-1.7c0-0.2,0.1-0.4,0.1-0.6c0-2.1-1.9-4.7-4.3-4.7c-1.1,0-2.4,0.2-2.8,1.4C135,47.5,135,47.8,135,48z"/>
		</g>
	</g>
	<g transform="matrix(1.32874,0,0,1.32874,0,0)">
		<g class="st2">
			<path d="M213.2,45.3c0,2.4-1.8,4.4-7.5,4.4c-5.2,0-7.2-2.1-7.2-4.4c0-2.4,2.9-4.3,7.5-4.3C209.3,41,213.2,42.9,213.2,45.3z
				 M202.2,44c0,1.1,0.5,2.3,1.2,3.1c0.2,0.3,0.5,0.5,0.7,0.8c0.5,0.4,1.1,0.7,1.6,0.9c0.3,0.1,0.6,0.1,0.9,0.1c0.4,0,0.7,0,1.1-0.1
				c0.9-0.2,1.4-0.8,1.5-1.7c0-0.2,0.1-0.4,0.1-0.6c0-2.1-1.9-4.7-4.3-4.7c-1.1,0-2.4,0.2-2.8,1.4C202.3,43.5,202.2,43.8,202.2,44z"
				/>
		</g>
	</g>
	<g transform="matrix(1.32874,0,0,1.32874,0,0)">
		<g class="st2">
			<path d="M280.7,49.3c0,2.4-1.8,4.4-7.5,4.4c-5.2,0-7.2-2.1-7.2-4.4c0-2.4,2.9-4.3,7.5-4.3C276.8,45,280.7,46.9,280.7,49.3z
				 M269.7,48c0,1.1,0.5,2.3,1.2,3.1c0.2,0.3,0.5,0.5,0.7,0.8c0.5,0.4,1.1,0.7,1.6,0.9c0.3,0.1,0.6,0.1,0.9,0.1c0.4,0,0.7,0,1.1-0.1
				c0.9-0.2,1.4-0.8,1.5-1.7c0-0.2,0.1-0.4,0.1-0.6c0-2.1-1.9-4.7-4.3-4.7c-1.1,0-2.4,0.2-2.8,1.4C269.8,47.5,269.7,47.8,269.7,48z"
				/>
		</g>
	</g>
	<g transform="matrix(1.32874,0,0,1.32874,0,0)">
		<g class="st2">
			<path d="M256.5,36.2c0-0.6,0.5-0.9,1-0.9c0.3,0,0.6,0.2,0.6,0.5c0,0.6-0.2,8.3-0.2,9c0,0.2,0.1,0.4,0.4,0.5c0.1,0,0.1,0,0.2,0
				c0.3,0,0.5-0.3,0.7-0.4c0.4-0.2,0.7-0.4,1.1-0.4c0.2-0.1,0.4-0.1,0.7-0.1c1.5,0.1,2.9,1.2,2.9,3.1c0,1.5-1,3.4-3.8,5.4
				c-0.8,0.5-1.6,1.4-2.5,2c0,0-0.1,0.1-0.2,0.1c-0.1,0-0.2,0-0.3-0.2C256.6,54.4,256.5,36.2,256.5,36.2z M258.4,52.4
				c0.1,0,0.2,0,0.3-0.1c1-0.6,1.9-1.6,2.3-2.4c0.4-0.7,0.5-1.3,0.5-1.9c0-0.6-0.2-1.2-0.5-1.5c-0.2-0.2-0.5-0.4-0.8-0.4
				c-0.3,0-0.5,0.1-0.8,0.2c-0.4,0.3-1.3,1-1.4,1.3c0,0.1-0.1,0.5-0.1,1c0,1.3,0.1,3.2,0.1,3.2C258,52.1,258.1,52.4,258.4,52.4z"/>
		</g>
	</g>
	<g transform="matrix(1.32874,0,0,1.32874,0,0)">
		<g class="st2">
			<path d="M347.9,45.3c0,2.4-1.8,4.4-7.5,4.4c-5.2,0-7.2-2.1-7.2-4.4c0-2.4,2.9-4.3,7.5-4.3C344,41,347.9,42.9,347.9,45.3z M337,44
				c0,1.1,0.5,2.3,1.2,3.1c0.2,0.3,0.5,0.5,0.7,0.8c0.5,0.4,1.1,0.7,1.6,0.9c0.3,0.1,0.6,0.1,0.9,0.1c0.4,0,0.7,0,1.1-0.1
				c0.9-0.2,1.4-0.8,1.5-1.7c0-0.2,0.1-0.4,0.1-0.6c0-2.1-1.9-4.7-4.3-4.7c-1.1,0-2.4,0.2-2.8,1.4C337,43.5,337,43.8,337,44z"/>
		</g>
	</g>
	<g transform="matrix(1.32874,0,0,1.32874,0,0)">
		<g class="st2">
			<path d="M415.2,53.3c0,2.4-1.8,4.4-7.5,4.4c-5.2,0-7.2-2.1-7.2-4.4c0-2.4,2.9-4.3,7.5-4.3C411.3,49,415.2,50.9,415.2,53.3z
				 M404.2,52c0,1.1,0.5,2.3,1.2,3.1c0.2,0.3,0.5,0.5,0.7,0.8c0.5,0.4,1.1,0.7,1.6,0.9c0.3,0.1,0.6,0.1,0.9,0.1c0.4,0,0.7,0,1.1-0.1
				c0.9-0.2,1.4-0.8,1.5-1.7c0-0.2,0.1-0.4,0.1-0.6c0-2.1-1.9-4.7-4.3-4.7c-1.1,0-2.4,0.2-2.8,1.4C404.3,51.5,404.2,51.8,404.2,52z"
				/>
		</g>
	</g>
	<g transform="matrix(1.32874,0,0,1.32874,0,0)">
		<g class="st2">
			<path d="M482.4,45.3c0,2.4-1.8,4.4-7.5,4.4c-5.2,0-7.2-2.1-7.2-4.4c0-2.4,2.9-4.3,7.5-4.3C478.5,41,482.4,42.9,482.4,45.3z
				 M471.5,44c0,1.1,0.5,2.3,1.2,3.1c0.2,0.3,0.5,0.5,0.7,0.8c0.5,0.4,1.1,0.7,1.6,0.9c0.3,0.1,0.6,0.1,0.9,0.1c0.4,0,0.7,0,1.1-0.1
				c0.9-0.2,1.4-0.8,1.5-1.7c0-0.2,0.1-0.4,0.1-0.6c0-2.1-1.9-4.7-4.3-4.7c-1.1,0-2.4,0.2-2.8,1.4C471.5,43.5,471.5,43.8,471.5,44z"
				/>
		</g>
	</g>
	<g transform="matrix(1.32874,0,0,1.32874,0,0)">
		<g class="st2">
			<path d="M549.7,53.3c0,2.4-1.8,4.4-7.5,4.4c-5.2,0-7.2-2.1-7.2-4.4c0-2.4,2.9-4.3,7.5-4.3C545.8,49,549.7,50.9,549.7,53.3z
				 M538.7,52c0,1.1,0.5,2.3,1.2,3.1c0.2,0.3,0.5,0.5,0.7,0.8c0.5,0.4,1.1,0.7,1.6,0.9c0.3,0.1,0.6,0.1,0.9,0.1c0.4,0,0.7,0,1.1-0.1
				c0.9-0.2,1.4-0.8,1.5-1.7c0-0.2,0.1-0.4,0.1-0.6c0-2.1-1.9-4.7-4.3-4.7c-1.1,0-2.4,0.2-2.8,1.4C538.8,51.5,538.7,51.8,538.7,52z"
				/>
		</g>
	</g>
	<g transform="matrix(1.32874,0,0,1.32874,0,0)">
		<g class="st2">
			<path d="M525.5,40.2c0-0.6,0.5-0.9,1-0.9c0.3,0,0.6,0.2,0.6,0.5c0,0.6-0.2,8.3-0.2,9c0,0.2,0.1,0.4,0.4,0.5c0.1,0,0.1,0,0.2,0
				c0.3,0,0.5-0.3,0.7-0.4c0.4-0.2,0.7-0.4,1.1-0.4c0.2-0.1,0.4-0.1,0.7-0.1c1.5,0.1,2.9,1.2,2.9,3.1c0,1.5-1,3.4-3.8,5.4
				c-0.8,0.5-1.6,1.4-2.5,2c0,0-0.1,0.1-0.2,0.1c-0.1,0-0.2,0-0.3-0.2C525.6,58.4,525.5,40.2,525.5,40.2z M527.4,56.4
				c0.1,0,0.2,0,0.3-0.1c1-0.6,1.9-1.6,2.3-2.4c0.4-0.7,0.5-1.3,0.5-1.9c0-0.6-0.2-1.2-0.5-1.5c-0.2-0.2-0.5-0.4-0.8-0.4
				c-0.3,0-0.5,0.1-0.8,0.2c-0.4,0.3-1.3,1-1.4,1.3c0,0.1-0.1,0.5-0.1,1c0,1.3,0.1,3.2,0.1,3.2C527,56.1,527.1,56.4,527.4,56.4z"/>
		</g>
	</g>
	<g transform="matrix(1.32874,0,0,1.32874,0,0)">
		<g class="st2">
			<path d="M616.9,45.3c0,2.4-1.8,4.4-7.5,4.4c-5.2,0-7.2-2.1-7.2-4.4c0-2.4,2.9-4.3,7.5-4.3C613,41,616.9,42.9,616.9,45.3z M606,44
				c0,1.1,0.5,2.3,1.2,3.1c0.2,0.3,0.5,0.5,0.7,0.8c0.5,0.4,1.1,0.7,1.6,0.9c0.3,0.1,0.6,0.1,0.9,0.1c0.4,0,0.7,0,1.1-0.1
				c0.9-0.2,1.4-0.8,1.5-1.7c0-0.2,0.1-0.4,0.1-0.6c0-2.1-1.9-4.7-4.3-4.7c-1.1,0-2.4,0.2-2.8,1.4C606,43.5,606,43.8,606,44z"/>
		</g>
	</g>
	<g transform="matrix(1.32874,0,0,1.32874,0,0)">
		<g class="st2">
			<path d="M684.4,57.3c0,2.4-1.8,4.4-7.5,4.4c-5.2,0-7.2-2.1-7.2-4.4c0-2.4,2.9-4.3,7.5-4.3C680.5,53,684.4,54.9,684.4,57.3z
				 M673.5,56c0,1.1,0.5,2.3,1.2,3.1c0.2,0.3,0.5,0.5,0.7,0.8c0.5,0.4,1.1,0.7,1.6,0.9c0.3,0.1,0.6,0.1,0.9,0.1c0.4,0,0.7,0,1.1-0.1
				c0.9-0.2,1.4-0.8,1.5-1.7c0-0.2,0.1-0.4,0.1-0.6c0-2.1-1.9-4.7-4.3-4.7c-1.1,0-2.4,0.2-2.8,1.4C673.5,55.5,673.5,55.8,673.5,56z"
				/>
		</g>
	</g>
	<g transform="matrix(1.32874,0,0,1.32874,0,0)">
		<g class="st2">
			<path d="M751.7,45.3c0,2.4-1.8,4.4-7.5,4.4c-5.2,0-7.2-2.1-7.2-4.4c0-2.4,2.9-4.3,7.5-4.3C747.8,41,751.7,42.9,751.7,45.3z
				 M740.7,44c0,1.1,0.5,2.3,1.2,3.1c0.2,0.3,0.5,0.5,0.7,0.8c0.5,0.4,1.1,0.7,1.6,0.9c0.3,0.1,0.6,0.1,0.9,0.1c0.4,0,0.7,0,1.1-0.1
				c0.9-0.2,1.4-0.8,1.5-1.7c0-0.2,0.1-0.4,0.1-0.6c0-2.1-1.9-4.7-4.3-4.7c-1.1,0-2.4,0.2-2.8,1.4C740.8,43.5,740.7,43.8,740.7,44z"
				/>
		</g>
	</g>
	<g transform="matrix(1.32874,0,0,1.32874,0,0)">
		<g class="st2">
			<path d="M818.9,61.3c0,2.4-1.8,4.4-7.5,4.4c-5.2,0-7.2-2.1-7.2-4.4c0-2.4,2.9-4.3,7.5-4.3C815,57,818.9,58.9,818.9,61.3z M808,60
				c0,1.1,0.5,2.3,1.2,3.1c0.2,0.3,0.5,0.5,0.7,0.8c0.5,0.4,1.1,0.7,1.6,0.9c0.3,0.1,0.6,0.1,0.9,0.1c0.4,0,0.7,0,1.1-0.1
				c0.9-0.2,1.4-0.8,1.5-1.7c0-0.2,0.1-0.4,0.1-0.6c0-2.1-1.9-4.7-4.3-4.7c-1.1,0-2.4,0.2-2.8,1.4C808,59.5,808,59.8,808,60z"/>
		</g>
	</g>
</g>
</svg>
