<?xml version="1.0" encoding="utf-8"?>
<!-- Generator: Adobe Illustrator 26.3.1, SVG Export Plug-In . SVG Version: 6.00 Build 0)  -->
<svg version="1.1" id="Layer_1" xmlns="http://www.w3.org/2000/svg" xmlns:xlink="http://www.w3.org/1999/xlink" x="0px" y="0px"
	 viewBox="0 0 720 432" style="enable-background:new 0 0 720 432;" xml:space="preserve">
<style type="text/css">
	.st0{fill:none;stroke:#000000;stroke-width:0.9281;stroke-linejoin:bevel;stroke-miterlimit:10;}
	.st1{enable-background:new    ;}
	.st2{fill:none;stroke:#000000;stroke-width:2.97;stroke-linejoin:bevel;stroke-miterlimit:10;}
	.st3{fill:none;stroke:#000000;stroke-width:0.3713;stroke-linejoin:bevel;stroke-miterlimit:10;}
	.st4{fill-rule:evenodd;clip-rule:evenodd;stroke:#000000;stroke-width:0.1856;stroke-linejoin:bevel;stroke-miterlimit:10;}
	.st5{fill:none;stroke:#000000;stroke-width:0.5569;stroke-linejoin:bevel;stroke-miterlimit:10;}
</style>
<g>
	<g transform="matrix(0.7425,0,0,0.7425,0,0)">
		<line vector-effect="none" class="st0" x1="243.8" y1="72.4" x2="243.8" y2="104.4"/>
	</g>
	<g transform="matrix(0.7425,0,0,0.7425,0,0)">
		<line vector-effect="none" class="st0" x1="425.2" y1="72.4" x2="425.2" y2="104.4"/>
	</g>
	<g transform="matrix(0.7425,0,0,0.7425,0,0)">
		<line vector-effect="none" class="st0" x1="606.5" y1="72.4" x2="606.5" y2="104.4"/>
	</g>
	<g transform="matrix(0.7425,0,0,0.7425,0,0)">
		<line vector-effect="none" class="st0" x1="788" y1="72.4" x2="788" y2="104.4"/>
	</g>
	<g transform="matrix(0.7425,0,0,0.7425,0,0)">
		<line vector-effect="none" class="st0" x1="969.2" y1="72.4" x2="969.2" y2="104.4"/>
	</g>
	<g transform="matrix(0.7425,0,0,0.7425,0,0)">
	</g>
	<g transform="matrix(0.7425,0,0,0.7425,193.792,102.19)">
	</g>
	<g transform="matrix(0.7425,0,0,0.7425,193.792,102.19)">
		<g class="st1">
			<path d="M-187.6-85.2v-0.4c0.8,0,1.2-0.2,1.2-0.7c0-0.5-0.5-1.7-0.9-2.7h-4.7c-0.5,1-1,2.3-1,2.7c0,0.4,0.4,0.7,1.2,0.7v0.4h-3.6
				v-0.4c0.7-0.1,1.2-0.4,1.6-1.2l4.4-10.4h0.5l4.1,9.8c0.7,1.6,0.9,1.7,1.7,1.8v0.4H-187.6z M-191.7-89.8h4l-2.1-4.7L-191.7-89.8z"
				/>
			<path d="M-174.1-85.2v-0.3c0.7,0,1-0.2,1-1.2v-3.7c0-0.9-0.4-1.3-1.2-1.3c-0.6,0-1.3,0.3-1.8,1c0.1,0.1,0.1,0.5,0.1,1.1v1.6
				c0,0.8,0,1.2,0,1.2c0,1.1,0.2,1.3,1,1.3v0.3h-3.4v-0.3c0.7,0,1-0.2,1-1.2v-3.7c0-0.9-0.4-1.3-1.1-1.3c-0.6,0-1.2,0.3-1.8,1v4.1
				c0,0.9,0.3,1.1,1,1.1v0.3h-3.4v-0.3c0.9,0,1-0.3,1-1.3v-4c0-0.4-0.1-0.6-0.3-0.6h-0.8v-0.3l2.4-0.8v1.3c0.7-0.9,1.5-1.3,2.5-1.3
				c0.9,0,1.4,0.4,1.6,1.3c0.8-0.9,1.7-1.3,2.7-1.3c0.5,0,0.9,0.1,1.2,0.4c0.3,0.3,0.6,1.3,0.6,1.8v3.6c0,1.1,0.2,1.3,1,1.3v0.3
				H-174.1z"/>
			<path d="M-167.7-89.8h-0.7l2.4-7.4h-2.5c-0.7,0-1.2,0.4-1.5,1.1l-0.2-0.1l0.7-2h4.6L-167.7-89.8z"/>
		</g>
	</g>
	<g transform="matrix(0.7425,0,0,0.7425,193.792,102.19)">
	</g>
	<g transform="matrix(0.7425,0,0,0.7425,0,0)">
	</g>
	<g transform="matrix(0.7425,0,0,0.7425,750.667,102.19)">
	</g>
	<g transform="matrix(0.7425,0,0,0.7425,750.667,102.19)">
		<g class="st1">
			<path d="M-753-85.2h-5v-0.4c1.5,0,1.6-0.3,1.6-1.7v-7.5c0-1.4-0.1-1.7-1.6-1.7V-97h5.6c0.8,0,1.7,0.2,2.6,0.5
				c2.5,0.9,3.7,2.7,3.7,5.4C-746-87.4-748.7-85.2-753-85.2z M-753.1-96.3c-1.4,0-1.4,0.2-1.4,1.6v7.1c0,1.4,0,1.6,1.5,1.6
				c3.3,0,5.1-1.8,5.1-5C-748-94.3-749.8-96.3-753.1-96.3z"/>
			<path d="M-742.8-89.8h-0.7l2.4-7.4h-2.5c-0.7,0-1.2,0.4-1.5,1.1l-0.2-0.1l0.7-2h4.6L-742.8-89.8z"/>
		</g>
	</g>
	<g transform="matrix(0.7425,0,0,0.7425,750.667,102.19)">
	</g>
	<g transform="matrix(0.7425,0,0,0.7425,0,0)">
	</g>
	<g transform="matrix(0.7425,0,0,0.7425,1254.82,102.19)">
	</g>
	<g transform="matrix(0.7425,0,0,0.7425,1254.82,102.19)">
		<g class="st1">
			<path d="M-1256.3-93.5h-0.3c-0.7-2.1-2-3.1-3.9-3.1c-2.7,0-4.4,2.2-4.4,5.4c0,3.2,1.9,5.8,4.5,5.8c0.9,0,1.7-0.2,2.4-0.6v-3.4
				c0-1.3-0.2-1.7-1.5-1.7v-0.4h4.5v0.4c-1.2,0-1.3,0.5-1.3,1.7v3.6c-1.3,0.7-2.6,1-4.1,1c-3.7,0-6.5-2.3-6.5-5.9
				c0-3.4,2.6-6.4,6.2-6.4c0.7,0,1.6,0.2,2.7,0.6c0.3,0.1,0.5,0.2,0.6,0.2c0.3,0,0.4-0.2,0.4-0.7h0.3L-1256.3-93.5z"/>
			<path d="M-1245.8-89.8v-0.3c0.7,0,1-0.2,1-1.2v-3.7c0-0.9-0.4-1.3-1.2-1.3c-0.6,0-1.3,0.3-1.8,1c0.1,0.1,0.1,0.5,0.1,1.1v1.6
				c0,0.8,0,1.2,0,1.2c0,1.1,0.2,1.3,1,1.3v0.3h-3.4v-0.3c0.7,0,1-0.2,1-1.2v-3.7c0-0.9-0.4-1.3-1.1-1.3c-0.6,0-1.2,0.3-1.8,1v4.1
				c0,0.9,0.3,1.1,1,1.1v0.3h-3.4v-0.3c0.9,0,1-0.3,1-1.3v-4c0-0.4-0.1-0.6-0.3-0.6h-0.8v-0.3l2.4-0.8v1.3c0.7-0.9,1.5-1.3,2.5-1.3
				c0.9,0,1.4,0.4,1.6,1.3c0.8-0.9,1.7-1.3,2.7-1.3c0.5,0,0.9,0.1,1.2,0.4c0.3,0.3,0.6,1.3,0.6,1.8v3.5c0,1.1,0.2,1.3,1,1.3v0.3
				H-1245.8z"/>
			<path d="M-1235.5-90.6c-0.5,0.6-1,0.9-1.5,0.9c-0.6,0-0.9-0.4-1-1.2c-1,0.8-1.8,1.2-2.5,1.2c-0.9,0-1.5-0.9-1.5-1.7
				c0-1.4,0.9-2.2,3.9-3.1v-1c0-0.9-0.4-1.3-1.2-1.3c-0.5,0-1.1,0.3-1.1,0.8c0,0.1,0.1,0.5,0.1,0.6c0,0.4-0.4,0.7-0.7,0.7
				c-0.4,0-0.6-0.2-0.6-0.7c0-1,1.4-1.8,2.6-1.8c1.4,0,2.3,0.8,2.3,2.3v3.6c0,0.4,0.1,0.6,0.4,0.6c0.2,0,0.5-0.1,0.8-0.4V-90.6z
				 M-1238-94c-0.9,0.3-1.5,0.5-1.7,0.6c-0.6,0.3-0.8,0.8-0.8,1.5c0,0.7,0.4,1.3,1,1.3c0.4,0,0.9-0.2,1.5-0.6V-94z"/>
			<path d="M-1234.7-96.4l2.6-0.9v6.8c0,2.7-0.9,4-2.6,4c-0.8,0-1.5-0.3-1.5-1c0-0.4,0.2-0.6,0.6-0.6c0.4,0,1.2,1,1.6,1
				c0.4,0,0.6-0.6,0.6-1.8v-6.2c0-0.6-0.2-1-0.5-1c-0.1,0-0.4,0-0.7,0.1V-96.4z M-1232.8-99.3c-0.4,0-0.8-0.4-0.8-0.8
				c0-0.4,0.4-0.8,0.8-0.8s0.8,0.4,0.8,0.8C-1232-99.7-1232.4-99.3-1232.8-99.3z"/>
			<path d="M-1228.5-89.8h-0.7l2.4-7.4h-2.5c-0.7,0-1.2,0.4-1.5,1.1l-0.2-0.1l0.7-2h4.6L-1228.5-89.8z"/>
		</g>
	</g>
	<g transform="matrix(0.7425,0,0,0.7425,1254.82,102.19)">
	</g>
	<g transform="matrix(0.7425,0,0,0.7425,0,0)">
	</g>
	<g transform="matrix(0.7425,0,0,0.7425,1793.88,102.19)">
	</g>
	<g transform="matrix(0.7425,0,0,0.7425,1793.88,102.19)">
		<g class="st1">
			<path d="M-1805.5-85c-3.5,0-5.9-2.4-5.9-5.9c0-3.4,2.5-6.4,6-6.4c1.2,0,3.2,0.7,3.4,0.7c0.3,0,0.5-0.2,0.7-0.7h0.6v4.2h-0.5
				c-0.4-2.1-1.8-3.4-3.9-3.4c-2.7,0-4.3,2.2-4.3,5.4c0,3.2,1.7,5.3,4.4,5.3c1.6,0,2.9-0.6,4-1.9l0.3,0.5
				C-1801.8-85.7-1803.4-85-1805.5-85z"/>
			<path d="M-1790.9-89.8v-0.3c0.7,0,1-0.2,1-1.2v-3.7c0-0.9-0.4-1.3-1.2-1.3c-0.6,0-1.3,0.3-1.8,1c0.1,0.1,0.1,0.5,0.1,1.1v1.6
				c0,0.8,0,1.2,0,1.2c0,1.1,0.2,1.3,1,1.3v0.3h-3.4v-0.3c0.7,0,1-0.2,1-1.2v-3.7c0-0.9-0.4-1.3-1.1-1.3c-0.6,0-1.2,0.3-1.8,1v4.1
				c0,0.9,0.3,1.1,1,1.1v0.3h-3.4v-0.3c0.9,0,1-0.3,1-1.3v-4c0-0.4-0.1-0.6-0.3-0.6h-0.8v-0.3l2.4-0.8v1.3c0.7-0.9,1.5-1.3,2.5-1.3
				c0.9,0,1.4,0.4,1.6,1.3c0.8-0.9,1.7-1.3,2.7-1.3c0.5,0,0.9,0.1,1.2,0.4c0.3,0.3,0.6,1.3,0.6,1.8v3.5c0,1.1,0.2,1.3,1,1.3v0.3
				H-1790.9z"/>
			<path d="M-1780.6-90.6c-0.5,0.6-1,0.9-1.5,0.9c-0.6,0-0.9-0.4-1-1.2c-1,0.8-1.8,1.2-2.5,1.2c-0.9,0-1.5-0.9-1.5-1.7
				c0-1.4,0.9-2.2,3.9-3.1v-1c0-0.9-0.4-1.3-1.2-1.3c-0.5,0-1.1,0.3-1.1,0.8c0,0.1,0.1,0.5,0.1,0.6c0,0.4-0.4,0.7-0.7,0.7
				c-0.4,0-0.6-0.2-0.6-0.7c0-1,1.4-1.8,2.6-1.8c1.4,0,2.3,0.8,2.3,2.3v3.6c0,0.4,0.1,0.6,0.4,0.6c0.2,0,0.5-0.1,0.8-0.4V-90.6z
				 M-1783.1-94c-0.9,0.3-1.5,0.5-1.7,0.6c-0.6,0.3-0.8,0.8-0.8,1.5c0,0.7,0.4,1.3,1,1.3c0.4,0,0.9-0.2,1.5-0.6V-94z"/>
			<path d="M-1779.8-96.4l2.6-0.9v6.8c0,2.7-0.9,4-2.6,4c-0.8,0-1.5-0.3-1.5-1c0-0.4,0.2-0.6,0.6-0.6c0.4,0,1.2,1,1.6,1
				c0.4,0,0.6-0.6,0.6-1.8v-6.2c0-0.6-0.2-1-0.5-1c-0.1,0-0.4,0-0.7,0.1V-96.4z M-1777.9-99.3c-0.4,0-0.8-0.4-0.8-0.8
				c0-0.4,0.4-0.8,0.8-0.8s0.8,0.4,0.8,0.8C-1777.1-99.7-1777.5-99.3-1777.9-99.3z"/>
			<path d="M-1773.6-89.8h-0.7l2.4-7.4h-2.5c-0.7,0-1.2,0.4-1.5,1.1l-0.2-0.1l0.7-2h4.6L-1773.6-89.8z"/>
		</g>
	</g>
	<g transform="matrix(0.7425,0,0,0.7425,1793.88,102.19)">
	</g>
	<g transform="matrix(0.7425,0,0,0.7425,0,0)">
	</g>
	<g transform="matrix(0.7425,0,0,0.7425,2348.53,102.19)">
	</g>
	<g transform="matrix(0.7425,0,0,0.7425,2348.53,102.19)">
		<g class="st1">
			<path d="M-2368.6-91.7h2.2c1.1,0,1.4-0.5,1.5-1.6h0.3v4h-0.3c0-1.2-0.4-1.7-1.5-1.7h-2.2v3.7c0,1.5,0.2,1.8,1.7,1.8v0.3h-5v-0.3
				c1.5,0,1.7-0.3,1.7-1.8v-7.6c0-1.5-0.2-1.8-1.7-1.8V-97h8.9v2.6h-0.3c-0.4-1.6-1-2-2.6-2h-2.6V-91.7z"/>
			<path d="M-2357.1-99.7v3.1l1.2-0.4v2l-1.2,0.4v3.7l1.2-0.4v2l-1.2,0.4v3.4h-0.5v-3.2l-2.1,0.7v3.2h-0.5V-88l-1.2,0.4v-2l1.2-0.4
				v-3.7l-1.2,0.4v-2l1.2-0.4V-99h0.5v3.2l2.1-0.7v-3.2H-2357.1z M-2357.6-94.5l-2.1,0.7v3.7l2.1-0.7V-94.5z"/>
			<path d="M-2349.1-96.2c0.4,0.6,0.7,1.3,0.7,2.1c0,1.9-1.5,3.4-3.4,3.4c-0.8,0-1.5-0.3-2.1-0.7l-1.4,1.4l-0.7-0.7l1.4-1.4
				c-0.4-0.6-0.6-1.2-0.6-2c0-1.9,1.5-3.4,3.4-3.4c0.7,0,1.4,0.2,2,0.6l1.2-1.2l0.7,0.7L-2349.1-96.2z M-2353.8-92.9l3.3-3.3
				c-0.4-0.2-0.8-0.3-1.2-0.3c-1.3,0-2.4,1.1-2.4,2.4C-2354.2-93.7-2354.1-93.3-2353.8-92.9z M-2349.8-95.5l-3.3,3.3
				c0.4,0.3,0.9,0.4,1.3,0.4c1.3,0,2.4-1.1,2.4-2.4C-2349.4-94.6-2349.6-95.1-2349.8-95.5z"/>
			<path d="M-2344.4-89.8h-0.7l2.4-7.4h-2.5c-0.7,0-1.2,0.4-1.5,1.1l-0.2-0.1l0.7-2h4.6L-2344.4-89.8z"/>
		</g>
	</g>
	<g transform="matrix(0.7425,0,0,0.7425,2348.53,102.19)">
	</g>
	<g transform="matrix(0.7425,0,0,0.7425,0,0)">
	</g>
	<g transform="matrix(0.7425,0,0,0.7425,0,0)">
		<line vector-effect="none" class="st0" x1="198" y1="184.7" x2="198" y2="216.7"/>
	</g>
	<g transform="matrix(0.7425,0,0,0.7425,0,0)">
		<line vector-effect="none" class="st0" x1="348.8" y1="184.7" x2="348.8" y2="216.7"/>
	</g>
	<g transform="matrix(0.7425,0,0,0.7425,0,0)">
		<line vector-effect="none" class="st0" x1="510.5" y1="184.7" x2="510.5" y2="216.7"/>
	</g>
	<g transform="matrix(0.7425,0,0,0.7425,0,0)">
		<line vector-effect="none" class="st2" x1="516" y1="184.7" x2="516" y2="216.7"/>
	</g>
	<g transform="matrix(0.7425,0,0,0.7425,0,0)">
		<g class="st1">
			<path d="M506.8,196.7c0,0.7-0.7,1.4-1.5,1.4c-0.7,0-1.5-0.7-1.5-1.4c0-0.9,0.7-1.5,1.5-1.5C506.1,195.1,506.8,195.8,506.8,196.7z
				"/>
		</g>
	</g>
	<g transform="matrix(0.7425,0,0,0.7425,0,0)">
		<g class="st1">
			<path d="M506.8,204.7c0,0.7-0.7,1.4-1.5,1.4c-0.7,0-1.5-0.7-1.5-1.4c0-0.9,0.7-1.5,1.5-1.5C506.1,203.1,506.8,203.8,506.8,204.7z
				"/>
		</g>
	</g>
	<g transform="matrix(0.7425,0,0,0.7425,0,0)">
		<line vector-effect="none" class="st0" x1="668" y1="184.7" x2="668" y2="216.7"/>
	</g>
	<g transform="matrix(0.7425,0,0,0.7425,0,0)">
		<line vector-effect="none" class="st0" x1="818.8" y1="184.7" x2="818.8" y2="216.7"/>
	</g>
	<g transform="matrix(0.7425,0,0,0.7425,0,0)">
		<line vector-effect="none" class="st0" x1="969.2" y1="184.7" x2="969.2" y2="216.7"/>
	</g>
	<g transform="matrix(0.7425,0,0,0.7425,0,0)">
	</g>
	<g transform="matrix(0.7425,0,0,0.7425,170.032,435.572)">
	</g>
	<g transform="matrix(0.7425,0,0,0.7425,170.032,435.572)">
		<g class="st1">
			<path d="M-161.2-425.2c0,1.9-1.9,3.3-3.7,3.3h-6.5v-0.4c1.5,0,1.6-0.3,1.6-1.7v-7.5c0-1.4-0.1-1.8-1.6-1.8v-0.4h5.9
				c2,0,3.8,1.3,3.8,3.1c0,1.3-0.9,2.2-2.3,2.6C-162.3-427.7-161.2-426.5-161.2-425.2z M-163.5-430.6c0-1.3-1-2.3-2.3-2.3h-1.2
				c-0.9,0-1.1,0.3-1.1,1.3v3.2h2.3C-164.4-428.4-163.5-429.3-163.5-430.6z M-167.9-423c0.2,0.2,1.2,0.3,1.9,0.3
				c2.3,0,2.8-1.4,2.8-2.6c0-1.4-1.2-2.3-2.6-2.3h-2.3v4C-168-423.3-168-423-167.9-423z"/>
			<path d="M-158-426.6h-0.7l2.4-7.4h-2.5c-0.7,0-1.2,0.4-1.5,1.1l-0.2-0.1l0.7-2h4.6L-158-426.6z"/>
		</g>
	</g>
	<g transform="matrix(0.7425,0,0,0.7425,170.032,435.572)">
	</g>
	<g transform="matrix(0.7425,0,0,0.7425,0,0)">
	</g>
	<g transform="matrix(0.7425,0,0,0.7425,606.622,435.572)">
	</g>
	<g transform="matrix(0.7425,0,0,0.7425,606.622,435.572)">
		<g class="st1">
			<path d="M-602.8-422h-9.7v-0.4c1.5,0,1.6-0.3,1.6-1.7v-7.5c0-1.4-0.1-1.7-1.6-1.7v-0.4h9.6v2.7h-0.4c-0.1-1.2-0.7-1.8-1.7-1.8
				h-3.1c-0.8,0-1,0.4-1,1.2v3.3h3.1c1,0,1.7-0.7,1.7-1.7h0.4v4.2h-0.4c0-1-0.7-1.7-1.7-1.7h-3.1v3.7c0,0.8,0.2,1.2,1,1.2h3
				c1.2,0,2.3-1,2.6-2.2h0.5L-602.8-422z"/>
			<path d="M-592.9-422v-0.3c0.7,0,1-0.2,1-1.2v-3.7c0-0.9-0.4-1.3-1.2-1.3c-0.6,0-1.3,0.3-1.8,1c0.1,0.1,0.1,0.5,0.1,1.1v1.6
				c0,0.8,0,1.2,0,1.2c0,1.1,0.2,1.3,1,1.3v0.3h-3.4v-0.3c0.7,0,1-0.2,1-1.2v-3.7c0-0.9-0.4-1.3-1.1-1.3c-0.6,0-1.2,0.3-1.8,1v4.1
				c0,0.9,0.3,1.1,1,1.1v0.3h-3.4v-0.3c0.9,0,1-0.3,1-1.3v-4c0-0.4-0.1-0.6-0.3-0.6h-0.8v-0.3l2.4-0.8v1.3c0.7-0.9,1.5-1.3,2.5-1.3
				c0.9,0,1.4,0.4,1.6,1.3c0.8-0.9,1.7-1.3,2.7-1.3c0.5,0,0.9,0.1,1.2,0.4c0.3,0.3,0.6,1.3,0.6,1.8v3.6c0,1.1,0.2,1.3,1,1.3v0.3
				H-592.9z"/>
		</g>
	</g>
	<g transform="matrix(0.7425,0,0,0.7425,606.622,435.572)">
	</g>
	<g transform="matrix(0.7425,0,0,0.7425,0,0)">
	</g>
	<g transform="matrix(0.7425,0,0,0.7425,0,0)">
		<path vector-effect="none" class="st3" d="M219,190.7c7.5-14.8,141.2-14.8,148.8,0"/>
	</g>
	<g transform="matrix(0.7425,0,0,0.7425,0,0)">
		<path vector-effect="none" class="st4" d="M219,190.7c7.5-16,141.2-16,148.8,0C360.2,177.2,226.5,177.2,219,190.7"/>
	</g>
	<g transform="matrix(0.7425,0,0,0.7425,1565.93,435.572)">
	</g>
	<g transform="matrix(0.7425,0,0,0.7425,1565.93,435.572)">
		<g class="st1">
			<path d="M-1571.2-425.2c0,1.9-1.9,3.3-3.7,3.3h-6.5v-0.4c1.5,0,1.6-0.3,1.6-1.7v-7.5c0-1.4-0.1-1.8-1.6-1.8v-0.4h5.9
				c2,0,3.8,1.3,3.8,3.1c0,1.3-0.9,2.2-2.3,2.6C-1572.3-427.7-1571.2-426.5-1571.2-425.2z M-1573.4-430.6c0-1.3-1-2.3-2.3-2.3h-1.2
				c-0.9,0-1.1,0.3-1.1,1.3v3.2h2.3C-1574.4-428.4-1573.4-429.3-1573.4-430.6z M-1577.9-423c0.2,0.2,1.2,0.3,1.9,0.3
				c2.3,0,2.8-1.4,2.8-2.6c0-1.4-1.2-2.3-2.6-2.3h-2.3v4C-1578-423.3-1578-423-1577.9-423z"/>
			<path d="M-1568-426.6h-0.7l2.4-7.4h-2.5c-0.7,0-1.2,0.4-1.5,1.1l-0.2-0.1l0.7-2h4.6L-1568-426.6z"/>
		</g>
	</g>
	<g transform="matrix(0.7425,0,0,0.7425,1565.93,435.572)">
	</g>
	<g transform="matrix(0.7425,0,0,0.7425,0,0)">
	</g>
	<g transform="matrix(0.7425,0,0,0.7425,2002.52,435.572)">
	</g>
	<g transform="matrix(0.7425,0,0,0.7425,2002.52,435.572)">
		<g class="st1">
			<path d="M-2012.8-422h-9.7v-0.4c1.5,0,1.6-0.3,1.6-1.7v-7.5c0-1.4-0.1-1.7-1.6-1.7v-0.4h9.6v2.7h-0.4c-0.1-1.2-0.7-1.8-1.7-1.8
				h-3.1c-0.8,0-1,0.4-1,1.2v3.3h3.1c1,0,1.7-0.7,1.7-1.7h0.4v4.2h-0.4c0-1-0.7-1.7-1.7-1.7h-3.1v3.7c0,0.8,0.2,1.2,1,1.2h3
				c1.2,0,2.3-1,2.6-2.2h0.5L-2012.8-422z"/>
			<path d="M-2002.9-422v-0.3c0.7,0,1-0.2,1-1.2v-3.7c0-0.9-0.4-1.3-1.2-1.3c-0.6,0-1.3,0.3-1.8,1c0.1,0.1,0.1,0.5,0.1,1.1v1.6
				c0,0.8,0,1.2,0,1.2c0,1.1,0.2,1.3,1,1.3v0.3h-3.4v-0.3c0.7,0,1-0.2,1-1.2v-3.7c0-0.9-0.4-1.3-1.1-1.3c-0.6,0-1.2,0.3-1.8,1v4.1
				c0,0.9,0.3,1.1,1,1.1v0.3h-3.4v-0.3c0.9,0,1-0.3,1-1.3v-4c0-0.4-0.1-0.6-0.3-0.6h-0.8v-0.3l2.4-0.8v1.3c0.7-0.9,1.5-1.3,2.5-1.3
				c0.9,0,1.4,0.4,1.6,1.3c0.8-0.9,1.7-1.3,2.7-1.3c0.5,0,0.9,0.1,1.2,0.4c0.3,0.3,0.6,1.3,0.6,1.8v3.6c0,1.1,0.2,1.3,1,1.3v0.3
				H-2002.9z"/>
		</g>
	</g>
	<g transform="matrix(0.7425,0,0,0.7425,2002.52,435.572)">
	</g>
	<g transform="matrix(0.7425,0,0,0.7425,0,0)">
	</g>
	<g transform="matrix(0.7425,0,0,0.7425,0,0)">
		<path vector-effect="none" class="st3" d="M689,190.7c7.5-14.8,141.2-14.8,148.8,0"/>
	</g>
	<g transform="matrix(0.7425,0,0,0.7425,0,0)">
		<path vector-effect="none" class="st4" d="M689,190.7c7.5-16,141.2-16,148.8,0C830.2,177.2,696.5,177.2,689,190.7"/>
	</g>
	<g transform="matrix(0.7425,0,0,0.7425,0,0)">
		<line vector-effect="none" class="st0" x1="48" y1="128.7" x2="48" y2="149.2"/>
	</g>
	<g transform="matrix(0.7425,0,0,0.7425,0,0)">
	</g>
	<g transform="matrix(0.7425,0,0,0.7425,154.44,387.031)">
	</g>
	<g transform="matrix(0.7425,0,0,0.7425,154.44,387.031)">
		<g class="st1">
			<path d="M-153.9-384.8l2.9-1.4h0.3v9.9c0,0.7,0,1.1,0.1,1.2c0.1,0.2,0.2,0.3,0.3,0.4c0.2,0.1,0.5,0.1,1.1,0.1v0.3h-4.4v-0.3
				c0.6,0,0.9-0.1,1.1-0.1c0.2-0.1,0.3-0.2,0.3-0.3c0.1-0.1,0.1-0.6,0.1-1.3v-6.3c0-0.9,0-1.4-0.1-1.6c0-0.2-0.1-0.3-0.2-0.4
				c-0.1-0.1-0.2-0.1-0.4-0.1c-0.2,0-0.5,0.1-0.9,0.3L-153.9-384.8z"/>
			<path d="M-144.9-375.9c0.3,0,0.5,0.1,0.7,0.3c0.2,0.2,0.3,0.4,0.3,0.7c0,0.3-0.1,0.5-0.3,0.7c-0.2,0.2-0.4,0.3-0.7,0.3
				c-0.3,0-0.5-0.1-0.7-0.3c-0.2-0.2-0.3-0.4-0.3-0.7c0-0.3,0.1-0.5,0.3-0.7C-145.4-375.8-145.2-375.9-144.9-375.9z"/>
		</g>
	</g>
	<g transform="matrix(0.7425,0,0,0.7425,154.44,387.031)">
	</g>
	<g transform="matrix(0.7425,0,0,0.7425,0,0)">
	</g>
	<g transform="matrix(0.7425,0,0,0.7425,0,0)">
		<line vector-effect="none" class="st0" x1="510.5" y1="128.7" x2="510.5" y2="149.2"/>
	</g>
	<g transform="matrix(0.7425,0,0,0.7425,0,0)">
		<line vector-effect="none" class="st0" x1="48" y1="129.2" x2="510.5" y2="129.2"/>
	</g>
	<g transform="matrix(0.7425,0,0,0.7425,0,0)">
		<line vector-effect="none" class="st0" x1="518" y1="128.7" x2="518" y2="149.2"/>
	</g>
	<g transform="matrix(0.7425,0,0,0.7425,0,0)">
	</g>
	<g transform="matrix(0.7425,0,0,0.7425,1550.34,387.031)">
	</g>
	<g transform="matrix(0.7425,0,0,0.7425,1550.34,387.031)">
		<g class="st1">
			<path d="M-1557.9-376.5l-0.8,2.3h-6.9v-0.3c2-1.9,3.5-3.4,4.3-4.6c0.8-1.2,1.2-2.3,1.2-3.2c0-0.7-0.2-1.4-0.7-1.8s-1-0.7-1.6-0.7
				c-0.6,0-1.1,0.2-1.6,0.5s-0.8,0.8-1,1.5h-0.3c0.1-1.1,0.5-1.9,1.1-2.5c0.6-0.6,1.3-0.9,2.2-0.9c1,0,1.7,0.3,2.4,0.9
				c0.6,0.6,1,1.3,1,2.2c0,0.6-0.1,1.2-0.4,1.8c-0.4,0.9-1.1,1.9-2.1,3c-1.4,1.6-2.3,2.5-2.7,2.8h3.1c0.6,0,1.1,0,1.3-0.1
				c0.3,0,0.5-0.1,0.7-0.3c0.2-0.1,0.4-0.3,0.5-0.6H-1557.9z"/>
			<path d="M-1554.9-375.9c0.3,0,0.5,0.1,0.7,0.3c0.2,0.2,0.3,0.4,0.3,0.7c0,0.3-0.1,0.5-0.3,0.7c-0.2,0.2-0.4,0.3-0.7,0.3
				c-0.3,0-0.5-0.1-0.7-0.3c-0.2-0.2-0.3-0.4-0.3-0.7c0-0.3,0.1-0.5,0.3-0.7C-1555.4-375.8-1555.2-375.9-1554.9-375.9z"/>
		</g>
	</g>
	<g transform="matrix(0.7425,0,0,0.7425,1550.34,387.031)">
	</g>
	<g transform="matrix(0.7425,0,0,0.7425,0,0)">
	</g>
	<g transform="matrix(0.7425,0,0,0.7425,0,0)">
		<line vector-effect="none" class="st0" x1="518" y1="129.2" x2="668.2" y2="129.2"/>
	</g>
	<g transform="matrix(0.7425,0,0,0.7425,0,0)">
		<line vector-effect="none" class="st0" x1="201.2" y1="296.7" x2="201.2" y2="328.7"/>
	</g>
	<g transform="matrix(0.7425,0,0,0.7425,0,0)">
		<line vector-effect="none" class="st0" x1="354.8" y1="296.7" x2="354.8" y2="328.7"/>
	</g>
	<g transform="matrix(0.7425,0,0,0.7425,0,0)">
		<line vector-effect="none" class="st0" x1="508.5" y1="296.7" x2="508.5" y2="328.7"/>
	</g>
	<g transform="matrix(0.7425,0,0,0.7425,0,0)">
		<line vector-effect="none" class="st0" x1="662" y1="296.7" x2="662" y2="328.7"/>
	</g>
	<g transform="matrix(0.7425,0,0,0.7425,0,0)">
		<line vector-effect="none" class="st0" x1="815.8" y1="296.7" x2="815.8" y2="328.7"/>
	</g>
	<g transform="matrix(0.7425,0,0,0.7425,0,0)">
		<line vector-effect="none" class="st0" x1="969.2" y1="296.7" x2="969.2" y2="328.7"/>
	</g>
	<g transform="matrix(0.7425,0,0,0.7425,0,0)">
	</g>
	<g transform="matrix(0.7425,0,0,0.7425,149.242,768.212)">
	</g>
	<g transform="matrix(0.7425,0,0,0.7425,149.242,768.212)">
		<g class="st1">
			<path d="M-147.1-764.5h2.2c1.1,0,1.4-0.5,1.5-1.6h0.3v4h-0.3c0-1.2-0.4-1.7-1.5-1.7h-2.2v3.7c0,1.5,0.2,1.8,1.7,1.8v0.3h-5v-0.3
				c1.5,0,1.7-0.3,1.7-1.8v-7.6c0-1.5-0.2-1.8-1.7-1.8v-0.3h8.9v2.6h-0.3c-0.4-1.6-1-2-2.6-2h-2.6V-764.5z"/>
			<path d="M-135.6-772.4v3.1l1.2-0.4v2l-1.2,0.4v3.7l1.2-0.4v2l-1.2,0.4v3.4h-0.5v-3.2l-2.1,0.7v3.2h-0.5v-3.1l-1.2,0.4v-2l1.2-0.4
				v-3.7l-1.2,0.4v-2l1.2-0.4v-3.4h0.5v3.2l2.1-0.7v-3.2H-135.6z M-136.1-767.3l-2.1,0.7v3.7l2.1-0.7V-767.3z"/>
			<path d="M-127.6-769c0.4,0.6,0.7,1.3,0.7,2.1c0,1.9-1.5,3.4-3.4,3.4c-0.8,0-1.5-0.3-2.1-0.7l-1.4,1.4l-0.7-0.7l1.4-1.4
				c-0.4-0.6-0.6-1.2-0.6-2c0-1.9,1.5-3.4,3.4-3.4c0.7,0,1.4,0.2,2,0.6l1.2-1.2l0.7,0.7L-127.6-769z M-132.3-765.7l3.3-3.3
				c-0.4-0.2-0.8-0.3-1.2-0.3c-1.3,0-2.4,1.1-2.4,2.4C-132.7-766.5-132.6-766-132.3-765.7z M-128.3-768.2l-3.3,3.3
				c0.4,0.3,0.9,0.4,1.3,0.4c1.3,0,2.4-1.1,2.4-2.4C-127.9-767.4-128.1-767.9-128.3-768.2z"/>
			<path d="M-122.9-762.6h-0.7l2.4-7.4h-2.5c-0.7,0-1.2,0.4-1.5,1.1l-0.2-0.1l0.7-2h4.6L-122.9-762.6z"/>
		</g>
	</g>
	<g transform="matrix(0.7425,0,0,0.7425,149.242,768.212)">
	</g>
	<g transform="matrix(0.7425,0,0,0.7425,0,0)">
	</g>
	<g transform="matrix(0.7425,0,0,0.7425,626.67,768.212)">
	</g>
	<g transform="matrix(0.7425,0,0,0.7425,626.67,768.212)">
		<g class="st1">
			<path d="M-622.5-761.3c0,1.9-1.9,3.3-3.7,3.3h-6.5v-0.4c1.5,0,1.6-0.3,1.6-1.7v-7.5c0-1.4-0.1-1.8-1.6-1.8v-0.4h5.9
				c2,0,3.8,1.3,3.8,3.1c0,1.3-0.9,2.2-2.3,2.6C-623.5-763.7-622.5-762.5-622.5-761.3z M-624.7-766.6c0-1.3-1-2.3-2.3-2.3h-1.2
				c-0.9,0-1.1,0.3-1.1,1.3v3.2h2.3C-625.6-764.4-624.7-765.3-624.7-766.6z M-629.1-759c0.2,0.2,1.2,0.3,1.9,0.3
				c2.3,0,2.8-1.4,2.8-2.6c0-1.4-1.2-2.3-2.6-2.3h-2.3v4C-629.3-759.3-629.2-759-629.1-759z"/>
			<path d="M-619.2-762.6h-0.7l2.4-7.4h-2.5c-0.7,0-1.2,0.4-1.5,1.1l-0.2-0.1l0.7-2h4.6L-619.2-762.6z"/>
		</g>
	</g>
	<g transform="matrix(0.7425,0,0,0.7425,626.67,768.212)">
	</g>
	<g transform="matrix(0.7425,0,0,0.7425,0,0)">
	</g>
	<g transform="matrix(0.7425,0,0,0.7425,1072.17,768.212)">
	</g>
	<g transform="matrix(0.7425,0,0,0.7425,1072.17,768.212)">
		<g class="st1">
			<path d="M-1073.1-758h-9.7v-0.4c1.5,0,1.6-0.3,1.6-1.7v-7.5c0-1.4-0.1-1.7-1.6-1.7v-0.4h9.6v2.7h-0.4c-0.1-1.2-0.7-1.8-1.7-1.8
				h-3.1c-0.8,0-1,0.4-1,1.2v3.3h3.1c1,0,1.7-0.7,1.7-1.7h0.4v4.2h-0.4c0-1-0.7-1.7-1.7-1.7h-3.1v3.7c0,0.8,0.2,1.2,1,1.2h3
				c1.2,0,2.3-1,2.6-2.2h0.5L-1073.1-758z"/>
			<path d="M-1063.1-758v-0.3c0.7,0,1-0.2,1-1.2v-3.7c0-0.9-0.4-1.3-1.2-1.3c-0.6,0-1.3,0.3-1.8,1c0.1,0.1,0.1,0.5,0.1,1.1v1.6
				c0,0.8,0,1.2,0,1.2c0,1.1,0.2,1.3,1,1.3v0.3h-3.4v-0.3c0.7,0,1-0.2,1-1.2v-3.7c0-0.9-0.4-1.3-1.1-1.3c-0.6,0-1.2,0.3-1.8,1v4.1
				c0,0.9,0.3,1.1,1,1.1v0.3h-3.4v-0.3c0.9,0,1-0.3,1-1.3v-4c0-0.4-0.1-0.6-0.3-0.6h-0.8v-0.3l2.4-0.8v1.3c0.7-0.9,1.5-1.3,2.5-1.3
				c0.9,0,1.4,0.4,1.6,1.3c0.8-0.9,1.7-1.3,2.7-1.3c0.5,0,0.9,0.1,1.2,0.4c0.3,0.3,0.6,1.3,0.6,1.8v3.6c0,1.1,0.2,1.3,1,1.3v0.3
				H-1063.1z"/>
		</g>
	</g>
	<g transform="matrix(0.7425,0,0,0.7425,1072.17,768.212)">
	</g>
	<g transform="matrix(0.7425,0,0,0.7425,0,0)">
	</g>
	<g transform="matrix(0.7425,0,0,0.7425,0,0)">
		<path vector-effect="none" class="st3" d="M375.8,302.7c7.5-15,144.2-15,151.8,0"/>
	</g>
	<g transform="matrix(0.7425,0,0,0.7425,0,0)">
		<path vector-effect="none" class="st4" d="M375.8,302.7c7.5-16.2,144.2-16.2,151.8,0C520,288.9,383.2,288.9,375.8,302.7"/>
	</g>
	<g transform="matrix(0.7425,0,0,0.7425,1974.31,768.212)">
	</g>
	<g transform="matrix(0.7425,0,0,0.7425,1974.31,768.212)">
		<g class="st1">
			<path d="M-1986.1-758v-0.4c0.8,0,1.2-0.2,1.2-0.7c0-0.5-0.5-1.7-0.9-2.7h-4.7c-0.5,1-1,2.3-1,2.7c0,0.4,0.4,0.7,1.2,0.7v0.4h-3.6
				v-0.4c0.7-0.1,1.2-0.4,1.6-1.2l4.4-10.4h0.5l4.1,9.8c0.7,1.6,0.9,1.7,1.7,1.8v0.4H-1986.1z M-1990.2-762.6h4l-2.1-4.7
				L-1990.2-762.6z"/>
			<path d="M-1972.6-758v-0.3c0.7,0,1-0.2,1-1.2v-3.7c0-0.9-0.4-1.3-1.2-1.3c-0.6,0-1.3,0.3-1.8,1c0.1,0.1,0.1,0.5,0.1,1.1v1.6
				c0,0.8,0,1.2,0,1.2c0,1.1,0.2,1.3,1,1.3v0.3h-3.4v-0.3c0.7,0,1-0.2,1-1.2v-3.7c0-0.9-0.4-1.3-1.1-1.3c-0.6,0-1.2,0.3-1.8,1v4.1
				c0,0.9,0.3,1.1,1,1.1v0.3h-3.4v-0.3c0.9,0,1-0.3,1-1.3v-4c0-0.4-0.1-0.6-0.3-0.6h-0.8v-0.3l2.4-0.8v1.3c0.7-0.9,1.5-1.3,2.5-1.3
				c0.9,0,1.4,0.4,1.6,1.3c0.8-0.9,1.7-1.3,2.7-1.3c0.5,0,0.9,0.1,1.2,0.4c0.3,0.3,0.6,1.3,0.6,1.8v3.6c0,1.1,0.2,1.3,1,1.3v0.3
				H-1972.6z"/>
			<path d="M-1966.2-762.6h-0.7l2.4-7.4h-2.5c-0.7,0-1.2,0.4-1.5,1.1l-0.2-0.1l0.7-2h4.6L-1966.2-762.6z"/>
		</g>
	</g>
	<g transform="matrix(0.7425,0,0,0.7425,1974.31,768.212)">
	</g>
	<g transform="matrix(0.7425,0,0,0.7425,0,0)">
	</g>
	<g transform="matrix(0.7425,0,0,0.7425,2449.51,768.212)">
	</g>
	<g transform="matrix(0.7425,0,0,0.7425,2449.51,768.212)">
		<g class="st1">
			<path d="M-2469-758h-5v-0.4c1.5,0,1.6-0.3,1.6-1.7v-7.5c0-1.4-0.1-1.7-1.6-1.7v-0.4h5.6c0.8,0,1.7,0.2,2.6,0.5
				c2.5,0.9,3.7,2.7,3.7,5.4C-2462-760.1-2464.7-758-2469-758z M-2469.1-769.1c-1.4,0-1.4,0.2-1.4,1.6v7.1c0,1.4,0,1.6,1.5,1.6
				c3.3,0,5.1-1.8,5.1-5C-2464-767-2465.8-769.1-2469.1-769.1z"/>
			<path d="M-2458.8-762.6h-0.7l2.4-7.4h-2.5c-0.7,0-1.2,0.4-1.5,1.1l-0.2-0.1l0.7-2h4.6L-2458.8-762.6z"/>
		</g>
	</g>
	<g transform="matrix(0.7425,0,0,0.7425,2449.51,768.212)">
	</g>
	<g transform="matrix(0.7425,0,0,0.7425,0,0)">
	</g>
	<g transform="matrix(0.7425,0,0,0.7425,0,0)">
		<line vector-effect="none" class="st0" x1="217.5" y1="408.9" x2="217.5" y2="440.9"/>
	</g>
	<g transform="matrix(0.7425,0,0,0.7425,0,0)">
		<line vector-effect="none" class="st0" x1="387.8" y1="408.9" x2="387.8" y2="440.9"/>
	</g>
	<g transform="matrix(0.7425,0,0,0.7425,0,0)">
		<line vector-effect="none" class="st0" x1="557.8" y1="408.9" x2="557.8" y2="440.9"/>
	</g>
	<g transform="matrix(0.7425,0,0,0.7425,0,0)">
		<line vector-effect="none" class="st0" x1="728" y1="408.9" x2="728" y2="440.9"/>
	</g>
	<g transform="matrix(0.7425,0,0,0.7425,0,0)">
		<line vector-effect="none" class="st0" x1="969.2" y1="408.9" x2="969.2" y2="440.9"/>
	</g>
	<g transform="matrix(0.7425,0,0,0.7425,0,0)">
	</g>
	<g transform="matrix(0.7425,0,0,0.7425,132.907,1101.59)">
	</g>
	<g transform="matrix(0.7425,0,0,0.7425,132.907,1101.59)">
		<g class="st1">
			<path d="M-123-1103h-0.3c-0.7-2.1-2-3.1-3.9-3.1c-2.7,0-4.4,2.2-4.4,5.4c0,3.2,1.9,5.8,4.5,5.8c0.9,0,1.7-0.2,2.4-0.6v-3.4
				c0-1.3-0.2-1.7-1.5-1.7v-0.4h4.5v0.4c-1.2,0-1.3,0.5-1.3,1.7v3.6c-1.3,0.7-2.6,1-4.1,1c-3.7,0-6.5-2.3-6.5-5.9
				c0-3.4,2.6-6.4,6.2-6.4c0.7,0,1.6,0.2,2.7,0.6c0.3,0.1,0.6,0.2,0.6,0.2c0.3,0,0.4-0.2,0.4-0.7h0.3L-123-1103z"/>
			<path d="M-112.6-1099.3v-0.3c0.7,0,1-0.2,1-1.2v-3.7c0-0.9-0.4-1.3-1.2-1.3c-0.6,0-1.3,0.3-1.8,1c0.1,0.1,0.1,0.5,0.1,1.1v1.6
				c0,0.8,0,1.2,0,1.2c0,1.1,0.2,1.3,1,1.3v0.3h-3.4v-0.3c0.7,0,1-0.2,1-1.2v-3.7c0-0.9-0.4-1.3-1.1-1.3c-0.6,0-1.2,0.3-1.8,1v4.1
				c0,0.9,0.3,1.1,1,1.1v0.3h-3.4v-0.3c0.9,0,1-0.3,1-1.3v-4c0-0.4-0.1-0.6-0.3-0.6h-0.8v-0.3l2.4-0.8v1.3c0.7-0.9,1.5-1.3,2.5-1.3
				c0.9,0,1.4,0.4,1.6,1.3c0.8-0.9,1.7-1.3,2.7-1.3c0.5,0,0.9,0.1,1.2,0.4c0.3,0.3,0.6,1.3,0.6,1.8v3.5c0,1.1,0.2,1.3,1,1.3v0.3
				H-112.6z"/>
			<path d="M-102.3-1100.1c-0.5,0.6-1,0.9-1.5,0.9c-0.6,0-0.9-0.4-1-1.2c-1,0.8-1.8,1.2-2.5,1.2c-0.9,0-1.5-0.9-1.5-1.7
				c0-1.4,0.9-2.2,3.9-3.1v-1c0-0.9-0.4-1.3-1.2-1.3c-0.6,0-1.1,0.3-1.1,0.8c0,0.1,0.1,0.5,0.1,0.6c0,0.4-0.4,0.7-0.7,0.7
				c-0.4,0-0.6-0.2-0.6-0.7c0-1,1.4-1.8,2.6-1.8c1.4,0,2.3,0.8,2.3,2.3v3.6c0,0.4,0.1,0.6,0.4,0.6c0.2,0,0.5-0.1,0.8-0.4V-1100.1z
				 M-104.8-1103.5c-0.9,0.3-1.5,0.5-1.7,0.6c-0.6,0.3-0.8,0.8-0.8,1.5c0,0.7,0.4,1.3,1,1.3c0.4,0,0.9-0.2,1.5-0.6V-1103.5z"/>
			<path d="M-101.5-1105.9l2.6-0.9v6.8c0,2.7-0.9,4-2.6,4c-0.8,0-1.5-0.3-1.5-1c0-0.4,0.2-0.6,0.6-0.6c0.4,0,1.2,1,1.6,1
				c0.4,0,0.6-0.6,0.6-1.8v-6.2c0-0.6-0.2-1-0.5-1c-0.1,0-0.4,0-0.7,0.1V-1105.9z M-99.6-1108.8c-0.4,0-0.8-0.4-0.8-0.8
				c0-0.4,0.4-0.8,0.8-0.8s0.8,0.4,0.8,0.8C-98.8-1109.2-99.2-1108.8-99.6-1108.8z"/>
			<path d="M-95.3-1099.3H-96l2.4-7.4h-2.5c-0.7,0-1.2,0.4-1.5,1.1l-0.2-0.1l0.7-2h4.6L-95.3-1099.3z"/>
		</g>
	</g>
	<g transform="matrix(0.7425,0,0,0.7425,132.907,1101.59)">
	</g>
	<g transform="matrix(0.7425,0,0,0.7425,0,0)">
	</g>
	<g transform="matrix(0.7425,0,0,0.7425,0,0)">
		<path vector-effect="none" class="st3" d="M68.5,406.9c8.5-15.8,159.5-15.8,168,0"/>
	</g>
	<g transform="matrix(0.7425,0,0,0.7425,0,0)">
		<path vector-effect="none" class="st4" d="M68.5,406.9c8.5-17,159.5-17,168,0C228,392.4,77,392.4,68.5,406.9"/>
	</g>
	<g transform="matrix(0.7425,0,0,0.7425,1159.78,1101.59)">
	</g>
	<g transform="matrix(0.7425,0,0,0.7425,1159.78,1101.59)">
		<g class="st1">
			<path d="M-1167.8-1101.2h2.2c1.1,0,1.4-0.5,1.5-1.6h0.3v4h-0.3c0-1.2-0.4-1.7-1.5-1.7h-2.2v3.7c0,1.5,0.2,1.8,1.7,1.8v0.3h-5
				v-0.3c1.5,0,1.7-0.3,1.7-1.8v-7.6c0-1.5-0.2-1.8-1.7-1.8v-0.3h8.9v2.6h-0.3c-0.4-1.6-1-2-2.6-2h-2.6V-1101.2z"/>
			<path d="M-1156.3-1109.2v3.1l1.2-0.4v2l-1.2,0.4v3.7l1.2-0.4v2l-1.2,0.4v3.4h-0.5v-3.2l-2.1,0.7v3.2h-0.5v-3.1l-1.2,0.4v-2
				l1.2-0.4v-3.7l-1.2,0.4v-2l1.2-0.4v-3.4h0.5v3.2l2.1-0.7v-3.2H-1156.3z M-1156.9-1104l-2.1,0.7v3.7l2.1-0.7V-1104z"/>
			<path d="M-1148.4-1105.7c0.4,0.6,0.7,1.3,0.7,2.1c0,1.9-1.5,3.4-3.4,3.4c-0.8,0-1.5-0.3-2.1-0.7l-1.4,1.4l-0.7-0.7l1.4-1.4
				c-0.4-0.5-0.6-1.2-0.6-2c0-1.9,1.5-3.4,3.4-3.4c0.7,0,1.4,0.2,2,0.6l1.2-1.2l0.7,0.7L-1148.4-1105.7z M-1153.1-1102.4l3.3-3.3
				c-0.4-0.2-0.8-0.3-1.2-0.3c-1.3,0-2.4,1.1-2.4,2.4C-1153.4-1103.2-1153.3-1102.8-1153.1-1102.4z M-1149.1-1105l-3.3,3.3
				c0.4,0.3,0.9,0.4,1.3,0.4c1.3,0,2.4-1.1,2.4-2.4C-1148.7-1104.1-1148.8-1104.6-1149.1-1105z"/>
			<path d="M-1143.6-1099.3h-0.7l2.4-7.4h-2.5c-0.7,0-1.2,0.4-1.5,1.1l-0.2-0.1l0.7-2h4.6L-1143.6-1099.3z"/>
		</g>
	</g>
	<g transform="matrix(0.7425,0,0,0.7425,1159.78,1101.59)">
	</g>
	<g transform="matrix(0.7425,0,0,0.7425,0,0)">
	</g>
	<g transform="matrix(0.7425,0,0,0.7425,1685.47,1101.59)">
	</g>
	<g transform="matrix(0.7425,0,0,0.7425,1685.47,1101.59)">
		<g class="st1">
			<path d="M-1692-1098c0,1.9-1.9,3.3-3.7,3.3h-6.5v-0.4c1.5,0,1.6-0.3,1.6-1.7v-7.5c0-1.4-0.1-1.8-1.6-1.8v-0.4h5.9
				c2,0,3.8,1.3,3.8,3.1c0,1.3-0.9,2.2-2.3,2.6C-1693-1100.5-1692-1099.3-1692-1098z M-1694.2-1103.4c0-1.3-1-2.3-2.3-2.3h-1.2
				c-0.9,0-1.1,0.3-1.1,1.3v3.2h2.3C-1695.1-1101.2-1694.2-1102-1694.2-1103.4z M-1698.6-1095.7c0.2,0.2,1.2,0.3,1.9,0.3
				c2.3,0,2.8-1.4,2.8-2.6c0-1.4-1.2-2.3-2.6-2.3h-2.3v4C-1698.8-1096-1698.7-1095.8-1698.6-1095.7z"/>
			<path d="M-1688.7-1099.3h-0.7l2.4-7.4h-2.5c-0.7,0-1.2,0.4-1.5,1.1l-0.2-0.1l0.7-2h4.6L-1688.7-1099.3z"/>
		</g>
	</g>
	<g transform="matrix(0.7425,0,0,0.7425,1685.47,1101.59)">
	</g>
	<g transform="matrix(0.7425,0,0,0.7425,0,0)">
	</g>
	<g transform="matrix(0.7425,0,0,0.7425,2172.55,1101.59)">
	</g>
	<g transform="matrix(0.7425,0,0,0.7425,2172.55,1101.59)">
		<g class="st1">
			<path d="M-2184.5-1094.7h-9.7v-0.4c1.5,0,1.6-0.3,1.6-1.7v-7.5c0-1.4-0.1-1.7-1.6-1.7v-0.4h9.6v2.7h-0.4
				c-0.1-1.2-0.7-1.8-1.7-1.8h-3.1c-0.8,0-1,0.4-1,1.2v3.3h3.1c1,0,1.7-0.7,1.7-1.7h0.4v4.2h-0.4c0-1-0.7-1.7-1.7-1.7h-3.1v3.7
				c0,0.8,0.2,1.2,1,1.2h3c1.2,0,2.3-1,2.6-2.2h0.5L-2184.5-1094.7z"/>
			<path d="M-2174.6-1094.7v-0.3c0.7,0,1-0.2,1-1.2v-3.7c0-0.9-0.4-1.3-1.2-1.3c-0.6,0-1.3,0.3-1.8,1c0.1,0.1,0.1,0.5,0.1,1.1v1.6
				c0,0.8,0,1.2,0,1.2c0,1.1,0.2,1.3,1,1.3v0.3h-3.4v-0.3c0.7,0,1-0.2,1-1.2v-3.7c0-0.9-0.4-1.3-1.1-1.3c-0.6,0-1.2,0.3-1.8,1v4.1
				c0,0.9,0.3,1.1,1,1.1v0.3h-3.4v-0.3c0.9,0,1-0.3,1-1.3v-4c0-0.4-0.1-0.6-0.3-0.6h-0.8v-0.3l2.4-0.8v1.3c0.7-0.9,1.5-1.3,2.5-1.3
				c0.9,0,1.4,0.4,1.6,1.3c0.8-0.9,1.7-1.3,2.7-1.3c0.5,0,0.9,0.1,1.2,0.4c0.3,0.3,0.6,1.3,0.6,1.8v3.6c0,1.1,0.2,1.3,1,1.3v0.3
				H-2174.6z"/>
			<path d="M-2168.2-1099.3h-0.7l2.4-7.4h-2.5c-0.7,0-1.2,0.4-1.5,1.1l-0.2-0.1l0.7-2h4.6L-2168.2-1099.3z"/>
		</g>
	</g>
	<g transform="matrix(0.7425,0,0,0.7425,2172.55,1101.59)">
	</g>
	<g transform="matrix(0.7425,0,0,0.7425,0,0)">
	</g>
	<g transform="matrix(0.7425,0,0,0.7425,2528.21,1101.59)">
	</g>
	<g transform="matrix(0.7425,0,0,0.7425,2528.21,1101.59)">
		<g class="st1">
			<path d="M-2545.6-1094.7v-0.4c0.8,0,1.2-0.2,1.2-0.7c0-0.5-0.5-1.7-0.9-2.7h-4.7c-0.5,1-1,2.3-1,2.7c0,0.4,0.4,0.7,1.2,0.7v0.4
				h-3.6v-0.4c0.7-0.1,1.2-0.4,1.6-1.2l4.4-10.4h0.5l4.1,9.8c0.7,1.6,0.9,1.7,1.7,1.8v0.4H-2545.6z M-2549.7-1099.3h4l-2.1-4.7
				L-2549.7-1099.3z"/>
			<path d="M-2538-1099.3h-0.7l2.4-7.4h-2.5c-0.7,0-1.2,0.4-1.5,1.1l-0.2-0.1l0.7-2h4.6L-2538-1099.3z"/>
		</g>
	</g>
	<g transform="matrix(0.7425,0,0,0.7425,2528.21,1101.59)">
	</g>
	<g transform="matrix(0.7425,0,0,0.7425,0,0)">
	</g>
	<g transform="matrix(0.7425,0,0,0.7425,0,0)">
		<line vector-effect="none" class="st0" x1="285.5" y1="521.2" x2="285.5" y2="553.2"/>
	</g>
	<g transform="matrix(0.7425,0,0,0.7425,0,0)">
		<line vector-effect="none" class="st0" x1="453.5" y1="521.2" x2="453.5" y2="553.2"/>
	</g>
	<g transform="matrix(0.7425,0,0,0.7425,0,0)">
		<line vector-effect="none" class="st0" x1="621.2" y1="521.2" x2="621.2" y2="553.2"/>
	</g>
	<g transform="matrix(0.7425,0,0,0.7425,0,0)">
		<line vector-effect="none" class="st0" x1="789.2" y1="521.2" x2="789.2" y2="553.2"/>
	</g>
	<g transform="matrix(0.7425,0,0,0.7425,0,0)">
		<line vector-effect="none" class="st0" x1="962.2" y1="521.2" x2="962.2" y2="553.2"/>
	</g>
	<g transform="matrix(0.7425,0,0,0.7425,0,0)">
		<line vector-effect="none" class="st2" x1="967.8" y1="521.2" x2="967.8" y2="553.2"/>
	</g>
	<g transform="matrix(0.7425,0,0,0.7425,0,0)">
	</g>
	<g transform="matrix(0.7425,0,0,0.7425,149.242,1434.98)">
	</g>
	<g transform="matrix(0.7425,0,0,0.7425,149.242,1434.98)">
		<g class="st1">
			<path d="M-145.5-1431.5h-5v-0.4c1.5,0,1.6-0.3,1.6-1.7v-7.5c0-1.4-0.1-1.7-1.6-1.7v-0.4h5.6c0.8,0,1.7,0.2,2.6,0.5
				c2.5,0.9,3.7,2.7,3.7,5.4C-138.5-1433.6-141.2-1431.5-145.5-1431.5z M-145.6-1442.6c-1.4,0-1.4,0.2-1.4,1.6v7.1
				c0,1.4,0,1.6,1.5,1.6c3.3,0,5.1-1.8,5.1-5C-140.5-1440.5-142.3-1442.6-145.6-1442.6z"/>
			<path d="M-129.4-1431.5v-0.3c0.7,0,1-0.2,1-1.2v-3.7c0-0.9-0.4-1.3-1.2-1.3c-0.6,0-1.3,0.3-1.8,1c0.1,0.1,0.1,0.5,0.1,1.1v1.6
				c0,0.8,0,1.2,0,1.2c0,1.1,0.2,1.3,1,1.3v0.3h-3.4v-0.3c0.7,0,1-0.2,1-1.2v-3.7c0-0.9-0.4-1.3-1.1-1.3c-0.6,0-1.2,0.3-1.8,1v4.1
				c0,0.9,0.3,1.1,1,1.1v0.3h-3.4v-0.3c0.9,0,1-0.3,1-1.3v-4c0-0.4-0.1-0.6-0.3-0.6h-0.8v-0.3l2.4-0.8v1.3c0.7-0.9,1.5-1.3,2.5-1.3
				c0.9,0,1.4,0.4,1.6,1.3c0.8-0.9,1.7-1.3,2.7-1.3c0.5,0,0.9,0.1,1.2,0.4c0.3,0.3,0.6,1.3,0.6,1.8v3.6c0,1.1,0.2,1.3,1,1.3v0.3
				H-129.4z"/>
			<path d="M-123.1-1436.1h-0.7l2.4-7.4h-2.5c-0.7,0-1.2,0.4-1.5,1.1l-0.2-0.1l0.7-2h4.6L-123.1-1436.1z"/>
		</g>
	</g>
	<g transform="matrix(0.7425,0,0,0.7425,149.242,1434.98)">
	</g>
	<g transform="matrix(0.7425,0,0,0.7425,0,0)">
	</g>
	<g transform="matrix(0.7425,0,0,0.7425,502.672,1434.98)">
	</g>
	<g transform="matrix(0.7425,0,0,0.7425,502.672,1434.98)">
		<g class="st1">
			<path d="M-496.5-1439.8h-0.3c-0.7-2.1-2-3.1-3.9-3.1c-2.7,0-4.4,2.2-4.4,5.4c0,3.2,1.9,5.8,4.5,5.8c0.9,0,1.7-0.2,2.4-0.6v-3.4
				c0-1.3-0.2-1.7-1.5-1.7v-0.4h4.5v0.4c-1.2,0-1.3,0.5-1.3,1.7v3.6c-1.3,0.7-2.6,1-4.1,1c-3.7,0-6.5-2.3-6.5-5.9
				c0-3.4,2.6-6.4,6.2-6.4c0.7,0,1.6,0.2,2.7,0.6c0.3,0.1,0.6,0.2,0.6,0.2c0.3,0,0.4-0.2,0.4-0.7h0.3L-496.5-1439.8z"/>
			<path d="M-492-1436.1h-0.7l2.4-7.4h-2.5c-0.7,0-1.2,0.4-1.5,1.1l-0.2-0.1l0.7-2h4.6L-492-1436.1z"/>
		</g>
	</g>
	<g transform="matrix(0.7425,0,0,0.7425,502.672,1434.98)">
	</g>
	<g transform="matrix(0.7425,0,0,0.7425,0,0)">
	</g>
	<g transform="matrix(0.7425,0,0,0.7425,856.102,1434.98)">
	</g>
	<g transform="matrix(0.7425,0,0,0.7425,856.102,1434.98)">
		<g class="st1">
			<path d="M-861.1-1438h2.2c1.1,0,1.4-0.5,1.5-1.6h0.3v4h-0.3c0-1.2-0.4-1.7-1.5-1.7h-2.2v3.7c0,1.5,0.2,1.8,1.7,1.8v0.3h-5v-0.3
				c1.5,0,1.7-0.3,1.7-1.8v-7.6c0-1.5-0.2-1.8-1.7-1.8v-0.3h8.9v2.6h-0.3c-0.4-1.6-1-2-2.6-2h-2.6V-1438z"/>
			<path d="M-849.6-1445.9v3.1l1.2-0.4v2l-1.2,0.4v3.7l1.2-0.4v2l-1.2,0.4v3.4h-0.5v-3.2l-2.1,0.7v3.2h-0.5v-3.1l-1.2,0.4v-2
				l1.2-0.4v-3.7l-1.2,0.4v-2l1.2-0.4v-3.4h0.5v3.2l2.1-0.7v-3.2H-849.6z M-850.1-1440.8l-2.1,0.7v3.7l2.1-0.7V-1440.8z"/>
			<path d="M-841.6-1442.5c0.4,0.6,0.7,1.3,0.7,2.1c0,1.9-1.5,3.4-3.4,3.4c-0.8,0-1.5-0.3-2.1-0.7l-1.4,1.4l-0.7-0.7l1.4-1.4
				c-0.4-0.5-0.6-1.2-0.6-2c0-1.9,1.5-3.4,3.4-3.4c0.7,0,1.4,0.2,2,0.6l1.2-1.2l0.7,0.7L-841.6-1442.5z M-846.3-1439.2l3.3-3.3
				c-0.4-0.2-0.8-0.3-1.2-0.3c-1.3,0-2.4,1.1-2.4,2.4C-846.7-1440-846.6-1439.5-846.3-1439.2z M-842.3-1441.7l-3.3,3.3
				c0.4,0.3,0.9,0.4,1.3,0.4c1.3,0,2.4-1.1,2.4-2.4C-841.9-1440.9-842.1-1441.4-842.3-1441.7z"/>
			<path d="M-836.9-1436.1h-0.7l2.4-7.4h-2.5c-0.7,0-1.2,0.4-1.5,1.1l-0.2-0.1l0.7-2h4.6L-836.9-1436.1z"/>
		</g>
	</g>
	<g transform="matrix(0.7425,0,0,0.7425,856.102,1434.98)">
	</g>
	<g transform="matrix(0.7425,0,0,0.7425,0,0)">
	</g>
	<g transform="matrix(0.7425,0,0,0.7425,1375.85,1434.98)">
	</g>
	<g transform="matrix(0.7425,0,0,0.7425,1375.85,1434.98)">
		<g class="st1">
			<path d="M-1379.2-1434.8c0,1.9-1.9,3.3-3.7,3.3h-6.5v-0.4c1.5,0,1.6-0.3,1.6-1.7v-7.5c0-1.4-0.1-1.8-1.6-1.8v-0.4h5.9
				c2,0,3.8,1.3,3.8,3.1c0,1.3-0.9,2.2-2.3,2.6C-1380.3-1437.2-1379.2-1436-1379.2-1434.8z M-1381.5-1440.1c0-1.3-1-2.3-2.3-2.3
				h-1.2c-0.9,0-1.1,0.3-1.1,1.3v3.2h2.3C-1382.4-1437.9-1381.5-1438.8-1381.5-1440.1z M-1385.9-1432.5c0.2,0.2,1.2,0.3,1.9,0.3
				c2.3,0,2.8-1.4,2.8-2.6c0-1.4-1.2-2.3-2.6-2.3h-2.3v4C-1386-1432.8-1386-1432.6-1385.9-1432.5z"/>
			<path d="M-1376-1436.1h-0.7l2.4-7.4h-2.5c-0.7,0-1.2,0.4-1.5,1.1l-0.2-0.1l0.7-2h4.6L-1376-1436.1z"/>
		</g>
	</g>
	<g transform="matrix(0.7425,0,0,0.7425,1375.85,1434.98)">
	</g>
	<g transform="matrix(0.7425,0,0,0.7425,0,0)">
	</g>
	<g transform="matrix(0.7425,0,0,0.7425,1863.67,1434.98)">
	</g>
	<g transform="matrix(0.7425,0,0,0.7425,1863.67,1434.98)">
		<g class="st1">
			<path d="M-1872.6-1431.5h-9.7v-0.4c1.5,0,1.6-0.3,1.6-1.7v-7.5c0-1.4-0.1-1.7-1.6-1.7v-0.4h9.6v2.7h-0.4
				c-0.1-1.2-0.7-1.8-1.7-1.8h-3.1c-0.8,0-1,0.4-1,1.2v3.3h3.1c1,0,1.7-0.7,1.7-1.7h0.4v4.2h-0.4c0-1-0.7-1.7-1.7-1.7h-3.1v3.7
				c0,0.8,0.2,1.2,1,1.2h3c1.2,0,2.3-1,2.6-2.2h0.5L-1872.6-1431.5z"/>
			<path d="M-1862.6-1431.5v-0.3c0.7,0,1-0.2,1-1.2v-3.7c0-0.9-0.4-1.3-1.2-1.3c-0.6,0-1.3,0.3-1.8,1c0.1,0.1,0.1,0.5,0.1,1.1v1.6
				c0,0.8,0,1.2,0,1.2c0,1.1,0.2,1.3,1,1.3v0.3h-3.4v-0.3c0.7,0,1-0.2,1-1.2v-3.7c0-0.9-0.4-1.3-1.1-1.3c-0.6,0-1.2,0.3-1.8,1v4.1
				c0,0.9,0.3,1.1,1,1.1v0.3h-3.4v-0.3c0.9,0,1-0.3,1-1.3v-4c0-0.4-0.1-0.6-0.3-0.6h-0.8v-0.3l2.4-0.8v1.3c0.7-0.9,1.5-1.3,2.5-1.3
				c0.9,0,1.4,0.4,1.6,1.3c0.8-0.9,1.7-1.3,2.7-1.3c0.5,0,0.9,0.1,1.2,0.4c0.3,0.3,0.6,1.3,0.6,1.8v3.6c0,1.1,0.2,1.3,1,1.3v0.3
				H-1862.6z"/>
		</g>
	</g>
	<g transform="matrix(0.7425,0,0,0.7425,1863.67,1434.98)">
	</g>
	<g transform="matrix(0.7425,0,0,0.7425,0,0)">
	</g>
	<g transform="matrix(0.7425,0,0,0.7425,0,0)">
		<path vector-effect="none" class="st3" d="M642.2,527.2c8.2-15.7,157.8-15.7,166,0"/>
	</g>
	<g transform="matrix(0.7425,0,0,0.7425,0,0)">
		<path vector-effect="none" class="st4" d="M642.2,527.2c8.2-17,157.8-17,166,0C800,512.7,650.5,512.7,642.2,527.2"/>
	</g>
	<g transform="matrix(0.7425,0,0,0.7425,147.757,117.388)">
	</g>
	<g transform="matrix(0.7425,0,0,0.7425,147.757,117.388)">
		<g class="st1">
			<path d="M-138.6-73.8v0.8c0,0.3,0,0.5,0,0.6c0,0.8,0.3,1,1.8,1.1l0.1,0.9h-7.9l0.1-0.9c1-0.1,1.6-0.3,1.8-0.6
				c0.1-0.2,0.1-0.8,0.1-1.9h-6.6v-1.3c2-2.5,3.8-7.1,4.1-10.3h5.5c-0.3,1.5-1.5,3.2-3.4,5.2c-2.2,2.2-3.5,3.8-4,5.1h4.4v-3.7l4-3.6
				v7.3h2v1.4H-138.6z"/>
		</g>
	</g>
	<g transform="matrix(0.7425,0,0,0.7425,147.757,117.388)">
		<g class="st1">
			<path d="M-138.6-57.6v0.8c0,0.3,0,0.5,0,0.6c0,0.8,0.3,1,1.8,1.1l0.1,0.9h-7.9l0.1-0.9c1-0.1,1.6-0.3,1.8-0.6
				c0.1-0.2,0.1-0.8,0.1-1.9h-6.6v-1.3c2-2.5,3.8-7.1,4.1-10.3h5.5c-0.3,1.5-1.5,3.2-3.4,5.2c-2.2,2.2-3.5,3.8-4,5.1h4.4v-3.7l4-3.6
				v7.3h2v1.4H-138.6z"/>
		</g>
	</g>
	<g transform="matrix(0.7425,0,0,0.7425,147.757,117.388)">
	</g>
	<g transform="matrix(0.7425,0,0,0.7425,0,0)">
	</g>
	<g transform="matrix(0.7425,0,0,0.7425,0,0)">
		<line vector-effect="none" class="st5" x1="0" y1="104.4" x2="969.8" y2="104.4"/>
	</g>
	<g transform="matrix(0.7425,0,0,0.7425,0,0)">
		<line vector-effect="none" class="st5" x1="0" y1="96.4" x2="969.8" y2="96.4"/>
	</g>
	<g transform="matrix(0.7425,0,0,0.7425,0,0)">
		<line vector-effect="none" class="st5" x1="0" y1="88.4" x2="969.8" y2="88.4"/>
	</g>
	<g transform="matrix(0.7425,0,0,0.7425,0,0)">
		<line vector-effect="none" class="st5" x1="0" y1="80.4" x2="969.8" y2="80.4"/>
	</g>
	<g transform="matrix(0.7425,0,0,0.7425,0,0)">
		<line vector-effect="none" class="st5" x1="0" y1="72.4" x2="969.8" y2="72.4"/>
	</g>
	<g transform="matrix(0.7425,0,0,0.7425,0,0)">
		<g class="st1">
			<path d="M11.7,95.3c4.7-4.2,7.6-9.8,7.6-14.9c0-4.1-2.3-7.1-6-7.1c-2.6,0-5.4,2.2-5.4,4.4c0,0.4,0.1,0.5,0.2,0.5
				c-0.1,0,0.9-1,2.2-1c1.4,0,2.5,1.3,2.5,2.8c0,2-1.4,3.6-3.4,3.6c-2,0-3.3-2.1-3.3-4.6c0-3.8,3.7-6.7,7.8-6.7
				c7.5,0,9.5,5.2,9.5,9.4c0,2.7-0.7,4.7-3.2,8.6c-3.1,4.9-10.4,8.5-13,8.5c-0.7,0-1-0.3-1-0.7C8.6,97.3,10.4,96.4,11.7,95.3z
				 M27.8,74.8c0.9,0,1.6,0.7,1.6,1.6S28.7,78,27.8,78c-0.9,0-1.6-0.7-1.6-1.6S26.9,74.8,27.8,74.8z M27.8,82.8
				c0.9,0,1.6,0.7,1.6,1.6c0,0.9-0.7,1.6-1.6,1.6c-0.9,0-1.6-0.7-1.6-1.6C26.2,83.5,26.9,82.8,27.8,82.8z"/>
		</g>
	</g>
	<g transform="matrix(0.7425,0,0,0.7425,0,0)">
		<g class="st1">
			<path d="M40.3,69.4V74l1.7-0.5v2.9l-1.7,0.5v5.5l1.7-0.5v2.9l-1.7,0.5v5h-0.8v-4.8l-3.1,1v4.8h-0.8v-4.6L34,87.4v-2.9l1.7-0.5
				v-5.5L34,78.9V76l1.7-0.5v-5h0.8v4.8l3.1-1v-4.8H40.3z M39.5,77.1l-3.1,1v5.5l3.1-1V77.1z"/>
		</g>
	</g>
	<g transform="matrix(0.7425,0,0,0.7425,0,0)">
		<line vector-effect="none" class="st5" x1="0" y1="216.7" x2="969.8" y2="216.7"/>
	</g>
	<g transform="matrix(0.7425,0,0,0.7425,0,0)">
		<line vector-effect="none" class="st5" x1="0" y1="208.7" x2="969.8" y2="208.7"/>
	</g>
	<g transform="matrix(0.7425,0,0,0.7425,0,0)">
		<line vector-effect="none" class="st5" x1="0" y1="200.7" x2="969.8" y2="200.7"/>
	</g>
	<g transform="matrix(0.7425,0,0,0.7425,0,0)">
		<line vector-effect="none" class="st5" x1="0" y1="192.7" x2="969.8" y2="192.7"/>
	</g>
	<g transform="matrix(0.7425,0,0,0.7425,0,0)">
		<line vector-effect="none" class="st5" x1="0" y1="184.7" x2="969.8" y2="184.7"/>
	</g>
	<g transform="matrix(0.7425,0,0,0.7425,0,0)">
		<g class="st1">
			<path d="M11.7,207.5c4.7-4.2,7.6-9.8,7.6-14.9c0-4.1-2.3-7.1-6-7.1c-2.6,0-5.4,2.2-5.4,4.4c0,0.4,0.1,0.5,0.2,0.5
				c-0.1,0,0.9-1,2.2-1c1.4,0,2.5,1.3,2.5,2.8c0,2-1.4,3.6-3.4,3.6c-2,0-3.3-2.1-3.3-4.6c0-3.8,3.7-6.7,7.8-6.7
				c7.5,0,9.5,5.2,9.5,9.4c0,2.7-0.7,4.7-3.2,8.6c-3.1,4.9-10.4,8.5-13,8.5c-0.7,0-1-0.3-1-0.7C8.6,209.6,10.4,208.7,11.7,207.5z
				 M27.8,187.1c0.9,0,1.6,0.7,1.6,1.6s-0.7,1.6-1.6,1.6c-0.9,0-1.6-0.7-1.6-1.6S26.9,187.1,27.8,187.1z M27.8,195
				c0.9,0,1.6,0.7,1.6,1.6c0,0.9-0.7,1.6-1.6,1.6c-0.9,0-1.6-0.7-1.6-1.6C26.2,195.7,26.9,195,27.8,195z"/>
		</g>
	</g>
	<g transform="matrix(0.7425,0,0,0.7425,0,0)">
		<g class="st1">
			<path d="M40.3,181.7v4.6l1.7-0.5v2.9l-1.7,0.5v5.5l1.7-0.5v2.9l-1.7,0.5v5h-0.8v-4.8l-3.1,1v4.8h-0.8v-4.6l-1.7,0.5v-2.9l1.7-0.5
				v-5.5l-1.7,0.5v-2.9l1.7-0.5v-5h0.8v4.8l3.1-1v-4.8H40.3z M39.5,189.4l-3.1,1v5.5l3.1-1V189.4z"/>
		</g>
	</g>
	<g transform="matrix(0.7425,0,0,0.7425,0,0)">
		<line vector-effect="none" class="st5" x1="0" y1="328.7" x2="969.8" y2="328.7"/>
	</g>
	<g transform="matrix(0.7425,0,0,0.7425,0,0)">
		<line vector-effect="none" class="st5" x1="0" y1="320.7" x2="969.8" y2="320.7"/>
	</g>
	<g transform="matrix(0.7425,0,0,0.7425,0,0)">
		<line vector-effect="none" class="st5" x1="0" y1="312.7" x2="969.8" y2="312.7"/>
	</g>
	<g transform="matrix(0.7425,0,0,0.7425,0,0)">
		<line vector-effect="none" class="st5" x1="0" y1="304.7" x2="969.8" y2="304.7"/>
	</g>
	<g transform="matrix(0.7425,0,0,0.7425,0,0)">
		<line vector-effect="none" class="st5" x1="0" y1="296.7" x2="969.8" y2="296.7"/>
	</g>
	<g transform="matrix(0.7425,0,0,0.7425,0,0)">
		<g class="st1">
			<path d="M11.7,319.5c4.7-4.2,7.6-9.8,7.6-14.9c0-4.1-2.3-7.1-6-7.1c-2.6,0-5.4,2.2-5.4,4.4c0,0.4,0.1,0.5,0.2,0.5
				c-0.1,0,0.9-1,2.2-1c1.4,0,2.5,1.3,2.5,2.8c0,2-1.4,3.6-3.4,3.6c-2,0-3.3-2.1-3.3-4.6c0-3.8,3.7-6.7,7.8-6.7
				c7.5,0,9.5,5.2,9.5,9.4c0,2.7-0.7,4.7-3.2,8.6c-3.1,4.9-10.4,8.5-13,8.5c-0.7,0-1-0.3-1-0.7C8.6,321.6,10.4,320.7,11.7,319.5z
				 M27.8,299.1c0.9,0,1.6,0.7,1.6,1.6c0,0.9-0.7,1.6-1.6,1.6c-0.9,0-1.6-0.7-1.6-1.6C26.2,299.8,26.9,299.1,27.8,299.1z M27.8,307
				c0.9,0,1.6,0.7,1.6,1.6c0,0.9-0.7,1.6-1.6,1.6c-0.9,0-1.6-0.7-1.6-1.6C26.2,307.7,26.9,307,27.8,307z"/>
		</g>
	</g>
	<g transform="matrix(0.7425,0,0,0.7425,0,0)">
		<g class="st1">
			<path d="M40.3,293.7v4.6l1.7-0.5v2.9l-1.7,0.5v5.5l1.7-0.5v2.9l-1.7,0.5v5h-0.8v-4.8l-3.1,1v4.8h-0.8v-4.6l-1.7,0.5v-2.9l1.7-0.5
				v-5.5l-1.7,0.5v-2.9l1.7-0.5v-5h0.8v4.8l3.1-1v-4.8H40.3z M39.5,301.4l-3.1,1v5.5l3.1-1V301.4z"/>
		</g>
	</g>
	<g transform="matrix(0.7425,0,0,0.7425,0,0)">
		<line vector-effect="none" class="st5" x1="0" y1="440.9" x2="969.8" y2="440.9"/>
	</g>
	<g transform="matrix(0.7425,0,0,0.7425,0,0)">
		<line vector-effect="none" class="st5" x1="0" y1="432.9" x2="969.8" y2="432.9"/>
	</g>
	<g transform="matrix(0.7425,0,0,0.7425,0,0)">
		<line vector-effect="none" class="st5" x1="0" y1="424.9" x2="969.8" y2="424.9"/>
	</g>
	<g transform="matrix(0.7425,0,0,0.7425,0,0)">
		<line vector-effect="none" class="st5" x1="0" y1="416.9" x2="969.8" y2="416.9"/>
	</g>
	<g transform="matrix(0.7425,0,0,0.7425,0,0)">
		<line vector-effect="none" class="st5" x1="0" y1="408.9" x2="969.8" y2="408.9"/>
	</g>
	<g transform="matrix(0.7425,0,0,0.7425,0,0)">
		<g class="st1">
			<path d="M11.7,431.8c4.7-4.2,7.6-9.8,7.6-14.9c0-4.1-2.3-7.1-6-7.1c-2.6,0-5.4,2.2-5.4,4.4c0,0.4,0.1,0.5,0.2,0.5
				c-0.1,0,0.9-1,2.2-1c1.4,0,2.5,1.3,2.5,2.8c0,2-1.4,3.6-3.4,3.6c-2,0-3.3-2.1-3.3-4.6c0-3.8,3.7-6.7,7.8-6.7
				c7.5,0,9.5,5.2,9.5,9.4c0,2.7-0.7,4.7-3.2,8.6c-3.1,4.9-10.4,8.5-13,8.5c-0.7,0-1-0.3-1-0.7C8.6,433.8,10.4,432.9,11.7,431.8z
				 M27.8,411.3c0.9,0,1.6,0.7,1.6,1.6c0,0.9-0.7,1.6-1.6,1.6c-0.9,0-1.6-0.7-1.6-1.6C26.2,412,26.9,411.3,27.8,411.3z M27.8,419.3
				c0.9,0,1.6,0.7,1.6,1.6c0,0.9-0.7,1.6-1.6,1.6c-0.9,0-1.6-0.7-1.6-1.6C26.2,420,26.9,419.3,27.8,419.3z"/>
		</g>
	</g>
	<g transform="matrix(0.7425,0,0,0.7425,0,0)">
		<g class="st1">
			<path d="M40.3,405.9v4.6l1.7-0.5v2.9l-1.7,0.5v5.5l1.7-0.5v2.9l-1.7,0.5v5h-0.8v-4.8l-3.1,1v4.8h-0.8v-4.6l-1.7,0.5v-2.9l1.7-0.5
				v-5.5l-1.7,0.5v-2.9l1.7-0.5v-5h0.8v4.8l3.1-1v-4.8H40.3z M39.5,413.6l-3.1,1v5.5l3.1-1V413.6z"/>
		</g>
	</g>
	<g transform="matrix(0.7425,0,0,0.7425,0,0)">
		<line vector-effect="none" class="st5" x1="0" y1="553.2" x2="969.8" y2="553.2"/>
	</g>
	<g transform="matrix(0.7425,0,0,0.7425,0,0)">
		<line vector-effect="none" class="st5" x1="0" y1="545.2" x2="969.8" y2="545.2"/>
	</g>
	<g transform="matrix(0.7425,0,0,0.7425,0,0)">
		<line vector-effect="none" class="st5" x1="0" y1="537.2" x2="969.8" y2="537.2"/>
	</g>
	<g transform="matrix(0.7425,0,0,0.7425,0,0)">
		<line vector-effect="none" class="st5" x1="0" y1="529.2" x2="969.8" y2="529.2"/>
	</g>
	<g transform="matrix(0.7425,0,0,0.7425,0,0)">
		<line vector-effect="none" class="st5" x1="0" y1="521.2" x2="969.8" y2="521.2"/>
	</g>
	<g transform="matrix(0.7425,0,0,0.7425,0,0)">
		<g class="st1">
			<path d="M11.7,544c4.7-4.2,7.6-9.8,7.6-14.9c0-4.1-2.3-7.1-6-7.1c-2.6,0-5.4,2.2-5.4,4.4c0,0.4,0.1,0.5,0.2,0.5
				c-0.1,0,0.9-1,2.2-1c1.4,0,2.5,1.3,2.5,2.8c0,2-1.4,3.6-3.4,3.6c-2,0-3.3-2.1-3.3-4.6c0-3.8,3.7-6.7,7.8-6.7
				c7.5,0,9.5,5.2,9.5,9.4c0,2.7-0.7,4.7-3.2,8.6c-3.1,4.9-10.4,8.5-13,8.5c-0.7,0-1-0.3-1-0.7C8.6,546.1,10.4,545.2,11.7,544z
				 M27.8,523.6c0.9,0,1.6,0.7,1.6,1.6c0,0.9-0.7,1.6-1.6,1.6c-0.9,0-1.6-0.7-1.6-1.6C26.2,524.3,26.9,523.6,27.8,523.6z
				 M27.8,531.5c0.9,0,1.6,0.7,1.6,1.6c0,0.9-0.7,1.6-1.6,1.6c-0.9,0-1.6-0.7-1.6-1.6C26.2,532.2,26.9,531.5,27.8,531.5z"/>
		</g>
	</g>
	<g transform="matrix(0.7425,0,0,0.7425,0,0)">
		<g class="st1">
			<path d="M40.3,518.2v4.6l1.7-0.5v2.9l-1.7,0.5v5.5l1.7-0.5v2.9l-1.7,0.5v5h-0.8v-4.8l-3.1,1v4.8h-0.8v-4.6l-1.7,0.5v-2.9l1.7-0.5
				v-5.5l-1.7,0.5v-2.9l1.7-0.5v-5h0.8v4.8l3.1-1v-4.8H40.3z M39.5,525.9l-3.1,1v5.5l3.1-1V525.9z"/>
		</g>
	</g>
	<g transform="matrix(0.7425,0,0,0.7425,0,0)">
		<g class="st1">
			<path d="M82.6,68.1c3.6,0,7.3,1.9,7.3,4.3c0,2.7-3.1,4.3-7.6,4.3c-4.1,0-7.3-1.7-7.3-4.3C75,69.8,78.7,68.1,82.6,68.1z
				 M85.7,71.5c-1-1.9-2-2.7-4.2-2.7c-2,0-3.1,0.8-3.1,2.5c0,2.4,2.2,4.8,4.2,4.8c1.9,0,3.4-0.2,3.8-2
				C86.5,73.3,86.2,72.5,85.7,71.5z"/>
		</g>
	</g>
	<g transform="matrix(0.7425,0,0,0.7425,0,0)">
		<g class="st1">
			<path d="M263.9,84.1c3.6,0,7.3,1.9,7.3,4.3c0,2.7-3.1,4.3-7.6,4.3c-4.1,0-7.3-1.7-7.3-4.3C256.2,85.8,260,84.1,263.9,84.1z
				 M267,87.5c-1-1.9-2-2.7-4.2-2.7c-2,0-3.1,0.8-3.1,2.5c0,2.4,2.2,4.8,4.2,4.8c1.9,0,3.4-0.2,3.8-2
				C267.7,89.3,267.4,88.5,267,87.5z"/>
		</g>
	</g>
	<g transform="matrix(0.7425,0,0,0.7425,0,0)">
		<g class="st1">
			<path d="M445.4,72.1c3.6,0,7.3,1.9,7.3,4.3c0,2.7-3.1,4.3-7.6,4.3c-4.1,0-7.3-1.7-7.3-4.3C437.7,73.8,441.5,72.1,445.4,72.1z
				 M448.5,75.5c-1-1.9-2-2.7-4.2-2.7c-2,0-3.1,0.8-3.1,2.5c0,2.4,2.2,4.8,4.2,4.8c1.9,0,3.4-0.2,3.8-2
				C449.2,77.3,448.9,76.5,448.5,75.5z"/>
		</g>
	</g>
	<g transform="matrix(0.7425,0,0,0.7425,0,0)">
		<line vector-effect="none" class="st0" x1="615" y1="64.4" x2="638" y2="64.4"/>
	</g>
	<g transform="matrix(0.7425,0,0,0.7425,0,0)">
		<g class="st1">
			<path d="M626.6,60.1c3.6,0,7.3,1.9,7.3,4.3c0,2.7-3.1,4.3-7.6,4.3c-4.1,0-7.3-1.7-7.3-4.3C619,61.8,622.7,60.1,626.6,60.1z
				 M629.7,63.5c-1-1.9-2-2.7-4.2-2.7c-2,0-3.1,0.8-3.1,2.5c0,2.4,2.2,4.8,4.2,4.8c1.9,0,3.4-0.2,3.8-2
				C630.5,65.3,630.2,64.5,629.7,63.5z"/>
		</g>
	</g>
	<g transform="matrix(0.7425,0,0,0.7425,0,0)">
		<g class="st1">
			<path d="M808.1,76.1c3.6,0,7.3,1.9,7.3,4.3c0,2.7-3.1,4.3-7.6,4.3c-4.1,0-7.3-1.7-7.3-4.3C800.5,77.8,804.2,76.1,808.1,76.1z
				 M811.2,79.5c-1-1.9-2-2.7-4.2-2.7c-2,0-3.1,0.8-3.1,2.5c0,2.4,2.2,4.8,4.2,4.8c1.9,0,3.4-0.2,3.8-2
				C812,81.3,811.7,80.5,811.2,79.5z"/>
		</g>
	</g>
	<g transform="matrix(0.7425,0,0,0.7425,0,0)">
		<g class="st1">
			<path d="M67.6,176.3c3.6,0,7.3,1.9,7.3,4.3c0,2.7-3.1,4.3-7.6,4.3c-4.1,0-7.3-1.7-7.3-4.3C60,178.1,63.7,176.3,67.6,176.3z
				 M70.7,179.8c-1-1.9-2-2.7-4.2-2.7c-2,0-3.1,0.8-3.1,2.5c0,2.4,2.2,4.8,4.2,4.8c1.9,0,3.4-0.2,3.8-2
				C71.5,181.6,71.2,180.7,70.7,179.8z"/>
		</g>
	</g>
	<g transform="matrix(0.7425,0,0,0.7425,0,0)">
		<g class="st1">
			<path d="M218.1,192.3c3.6,0,7.3,1.9,7.3,4.3c0,2.7-3.1,4.3-7.6,4.3c-4.1,0-7.3-1.7-7.3-4.3C210.5,194.1,214.2,192.3,218.1,192.3z
				 M221.2,195.8c-1-1.9-2-2.7-4.2-2.7c-2,0-3.1,0.8-3.1,2.5c0,2.4,2.2,4.8,4.2,4.8c1.9,0,3.4-0.2,3.8-2
				C222,197.6,221.7,196.7,221.2,195.8z"/>
		</g>
	</g>
	<g transform="matrix(0.7425,0,0,0.7425,0,0)">
		<g class="st1">
			<path d="M368.9,192.3c3.6,0,7.3,1.9,7.3,4.3c0,2.7-3.1,4.3-7.6,4.3c-4.1,0-7.3-1.7-7.3-4.3C361.3,194.1,365,192.3,368.9,192.3z
				 M372,195.8c-1-1.9-2-2.7-4.2-2.7c-2,0-3.1,0.8-3.1,2.5c0,2.4,2.2,4.8,4.2,4.8c1.9,0,3.4-0.2,3.8-2
				C372.7,197.6,372.4,196.7,372,195.8z"/>
		</g>
	</g>
	<g transform="matrix(0.7425,0,0,0.7425,0,0)">
		<g class="st1">
			<path d="M537.6,176.3c3.6,0,7.3,1.9,7.3,4.3c0,2.7-3.1,4.3-7.6,4.3c-4.1,0-7.3-1.7-7.3-4.3C530,178.1,533.7,176.3,537.6,176.3z
				 M540.7,179.8c-1-1.9-2-2.7-4.2-2.7c-2,0-3.1,0.8-3.1,2.5c0,2.4,2.2,4.8,4.2,4.8c1.9,0,3.4-0.2,3.8-2
				C541.5,181.6,541.2,180.7,540.7,179.8z"/>
		</g>
	</g>
	<g transform="matrix(0.7425,0,0,0.7425,0,0)">
		<g class="st1">
			<path d="M688.1,192.3c3.6,0,7.3,1.9,7.3,4.3c0,2.7-3.1,4.3-7.6,4.3c-4.1,0-7.3-1.7-7.3-4.3C680.5,194.1,684.2,192.3,688.1,192.3z
				 M691.2,195.8c-1-1.9-2-2.7-4.2-2.7c-2,0-3.1,0.8-3.1,2.5c0,2.4,2.2,4.8,4.2,4.8c1.9,0,3.4-0.2,3.8-2
				C692,197.6,691.7,196.7,691.2,195.8z"/>
		</g>
	</g>
	<g transform="matrix(0.7425,0,0,0.7425,0,0)">
		<g class="st1">
			<path d="M838.9,192.3c3.6,0,7.3,1.9,7.3,4.3c0,2.7-3.1,4.3-7.6,4.3c-4.1,0-7.3-1.7-7.3-4.3C831.2,194.1,835,192.3,838.9,192.3z
				 M842,195.8c-1-1.9-2-2.7-4.2-2.7c-2,0-3.1,0.8-3.1,2.5c0,2.4,2.2,4.8,4.2,4.8c1.9,0,3.4-0.2,3.8-2
				C842.7,197.6,842.4,196.7,842,195.8z"/>
		</g>
	</g>
	<g transform="matrix(0.7425,0,0,0.7425,0,0)">
		<g class="st1">
			<path d="M67.6,300.3c3.6,0,7.3,1.9,7.3,4.3c0,2.7-3.1,4.3-7.6,4.3c-4.1,0-7.3-1.7-7.3-4.3C60,302.1,63.7,300.3,67.6,300.3z
				 M70.7,303.8c-1-1.9-2-2.7-4.2-2.7c-2,0-3.1,0.8-3.1,2.5c0,2.4,2.2,4.8,4.2,4.8c1.9,0,3.4-0.2,3.8-2
				C71.5,305.6,71.2,304.7,70.7,303.8z"/>
		</g>
	</g>
	<g transform="matrix(0.7425,0,0,0.7425,0,0)">
		<g class="st1">
			<path d="M221.4,288.3c3.6,0,7.3,1.9,7.3,4.3c0,2.7-3.1,4.3-7.6,4.3c-4.1,0-7.3-1.7-7.3-4.3C213.8,290.1,217.5,288.3,221.4,288.3z
				 M224.5,291.8c-1-1.9-2-2.7-4.2-2.7c-2,0-3.1,0.8-3.1,2.5c0,2.4,2.2,4.8,4.2,4.8c1.9,0,3.4-0.2,3.8-2
				C225.2,293.6,224.9,292.7,224.5,291.8z"/>
		</g>
	</g>
	<g transform="matrix(0.7425,0,0,0.7425,0,0)">
		<g class="st1">
			<path d="M374.9,304.3c3.6,0,7.3,1.9,7.3,4.3c0,2.7-3.1,4.3-7.6,4.3c-4.1,0-7.3-1.7-7.3-4.3C367.2,306.1,371,304.3,374.9,304.3z
				 M378,307.8c-1-1.9-2-2.7-4.2-2.7c-2,0-3.1,0.8-3.1,2.5c0,2.4,2.2,4.8,4.2,4.8c1.9,0,3.4-0.2,3.8-2
				C378.7,309.6,378.4,308.7,378,307.8z"/>
		</g>
	</g>
	<g transform="matrix(0.7425,0,0,0.7425,0,0)">
		<g class="st1">
			<path d="M528.6,304.3c3.6,0,7.3,1.9,7.3,4.3c0,2.7-3.1,4.3-7.6,4.3c-4.1,0-7.3-1.7-7.3-4.3C521,306.1,524.7,304.3,528.6,304.3z
				 M531.7,307.8c-1-1.9-2-2.7-4.2-2.7c-2,0-3.1,0.8-3.1,2.5c0,2.4,2.2,4.8,4.2,4.8c1.9,0,3.4-0.2,3.8-2
				C532.5,309.6,532.2,308.7,531.7,307.8z"/>
		</g>
	</g>
	<g transform="matrix(0.7425,0,0,0.7425,0,0)">
		<g class="st1">
			<path d="M682.1,292.3c3.6,0,7.3,1.9,7.3,4.3c0,2.7-3.1,4.3-7.6,4.3c-4.1,0-7.3-1.7-7.3-4.3C674.5,294.1,678.2,292.3,682.1,292.3z
				 M685.2,295.8c-1-1.9-2-2.7-4.2-2.7c-2,0-3.1,0.8-3.1,2.5c0,2.4,2.2,4.8,4.2,4.8c1.9,0,3.4-0.2,3.8-2
				C686,297.6,685.7,296.7,685.2,295.8z"/>
		</g>
	</g>
	<g transform="matrix(0.7425,0,0,0.7425,0,0)">
		<g class="st1">
			<path d="M835.9,308.3c3.6,0,7.3,1.9,7.3,4.3c0,2.7-3.1,4.3-7.6,4.3c-4.1,0-7.3-1.7-7.3-4.3C828.2,310.1,832,308.3,835.9,308.3z
				 M839,311.8c-1-1.9-2-2.7-4.2-2.7c-2,0-3.1,0.8-3.1,2.5c0,2.4,2.2,4.8,4.2,4.8c1.9,0,3.4-0.2,3.8-2
				C839.7,313.6,839.4,312.7,839,311.8z"/>
		</g>
	</g>
	<g transform="matrix(0.7425,0,0,0.7425,0,0)">
		<g class="st1">
			<path d="M67.6,408.6c3.6,0,7.3,1.9,7.3,4.3c0,2.7-3.1,4.3-7.6,4.3c-4.1,0-7.3-1.7-7.3-4.3C60,410.3,63.7,408.6,67.6,408.6z
				 M70.7,412c-1-1.9-2-2.7-4.2-2.7c-2,0-3.1,0.8-3.1,2.5c0,2.4,2.2,4.8,4.2,4.8c1.9,0,3.4-0.2,3.8-2C71.5,413.8,71.2,413,70.7,412z
				"/>
		</g>
	</g>
	<g transform="matrix(0.7425,0,0,0.7425,0,0)">
		<g class="st1">
			<path d="M237.6,408.6c3.6,0,7.3,1.9,7.3,4.3c0,2.7-3.1,4.3-7.6,4.3c-4.1,0-7.3-1.7-7.3-4.3C230,410.3,233.7,408.6,237.6,408.6z
				 M240.7,412c-1-1.9-2-2.7-4.2-2.7c-2,0-3.1,0.8-3.1,2.5c0,2.4,2.2,4.8,4.2,4.8c1.9,0,3.4-0.2,3.8-2
				C241.5,413.8,241.2,413,240.7,412z"/>
		</g>
	</g>
	<g transform="matrix(0.7425,0,0,0.7425,0,0)">
		<g class="st1">
			<path d="M407.9,412.6c3.6,0,7.3,1.9,7.3,4.3c0,2.7-3.1,4.3-7.6,4.3c-4.1,0-7.3-1.7-7.3-4.3C400.2,414.3,404,412.6,407.9,412.6z
				 M411,416c-1-1.9-2-2.7-4.2-2.7c-2,0-3.1,0.8-3.1,2.5c0,2.4,2.2,4.8,4.2,4.8c1.9,0,3.4-0.2,3.8-2C411.7,417.8,411.4,417,411,416z
				"/>
		</g>
	</g>
	<g transform="matrix(0.7425,0,0,0.7425,0,0)">
		<g class="st1">
			<path d="M577.9,400.6c3.6,0,7.3,1.9,7.3,4.3c0,2.7-3.1,4.3-7.6,4.3c-4.1,0-7.3-1.7-7.3-4.3C570.2,402.3,574,400.6,577.9,400.6z
				 M581,404c-1-1.9-2-2.7-4.2-2.7c-2,0-3.1,0.8-3.1,2.5c0,2.4,2.2,4.8,4.2,4.8c1.9,0,3.4-0.2,3.8-2C581.7,405.8,581.4,405,581,404z
				"/>
		</g>
	</g>
	<g transform="matrix(0.7425,0,0,0.7425,0,0)">
		<line vector-effect="none" class="st5" x1="740.8" y1="422.2" x2="740.8" y2="448.9"/>
	</g>
	<g transform="matrix(0.7425,0,0,0.7425,0,0)">
		<g class="st1">
			<path d="M747.4,416.6c2.7,0,4.4,1.2,4.4,3.2c0,3-3.7,5.4-7.3,5.4c-2.2,0-3.9-1.1-3.9-2.8C740.5,419.4,744.1,416.6,747.4,416.6z
				 M741.2,422.8c0,1,0.6,1.5,1.8,1.5c2.3,0,8-3.4,8-5.2c0-1-0.6-1.5-1.8-1.5C747.2,417.5,741.2,420.8,741.2,422.8z"/>
		</g>
	</g>
	<g transform="matrix(0.7425,0,0,0.7425,0,0)">
		<line vector-effect="none" class="st5" x1="855.2" y1="410.2" x2="855.2" y2="436.9"/>
	</g>
	<g transform="matrix(0.7425,0,0,0.7425,0,0)">
		<g class="st1">
			<path d="M861.9,404.6c2.7,0,4.4,1.2,4.4,3.2c0,3-3.7,5.4-7.3,5.4c-2.2,0-3.9-1.1-3.9-2.8C855,407.4,858.6,404.6,861.9,404.6z
				 M855.7,410.8c0,1,0.6,1.5,1.8,1.5c2.3,0,8-3.4,8-5.2c0-1-0.6-1.5-1.8-1.5C861.7,405.5,855.7,408.8,855.7,410.8z"/>
		</g>
	</g>
	<g transform="matrix(0.7425,0,0,0.7425,0,0)">
		<line vector-effect="none" class="st5" x1="60.2" y1="538.4" x2="60.2" y2="565.2"/>
	</g>
	<g transform="matrix(0.7425,0,0,0.7425,0,0)">
		<g class="st1">
			<path d="M66.9,532.8c2.7,0,4.4,1.2,4.4,3.2c0,3-3.7,5.4-7.3,5.4c-2.2,0-3.9-1.1-3.9-2.8C60,535.7,63.6,532.8,66.9,532.8z
				 M60.7,539c0,1,0.6,1.5,1.8,1.5c2.3,0,8-3.4,8-5.2c0-1-0.6-1.5-1.8-1.5C66.7,533.8,60.7,537,60.7,539z"/>
		</g>
	</g>
	<g transform="matrix(0.7425,0,0,0.7425,0,0)">
		<line vector-effect="none" class="st5" x1="173.2" y1="526.4" x2="173.2" y2="553.2"/>
	</g>
	<g transform="matrix(0.7425,0,0,0.7425,0,0)">
		<g class="st1">
			<path d="M179.9,520.8c2.7,0,4.4,1.2,4.4,3.2c0,3-3.7,5.4-7.3,5.4c-2.2,0-3.9-1.1-3.9-2.8C173,523.7,176.6,520.8,179.9,520.8z
				 M173.7,527c0,1,0.6,1.5,1.8,1.5c2.3,0,8-3.4,8-5.2c0-1-0.6-1.5-1.8-1.5C179.7,521.8,173.7,525,173.7,527z"/>
		</g>
	</g>
	<g transform="matrix(0.7425,0,0,0.7425,0,0)">
		<g class="st1">
			<path d="M305.6,524.8c3.6,0,7.3,1.9,7.3,4.3c0,2.7-3.1,4.3-7.6,4.3c-4.1,0-7.3-1.7-7.3-4.3C298,526.6,301.7,524.8,305.6,524.8z
				 M308.7,528.3c-1-1.9-2-2.7-4.2-2.7c-2,0-3.1,0.8-3.1,2.5c0,2.4,2.2,4.8,4.2,4.8c1.9,0,3.4-0.2,3.8-2
				C309.5,530.1,309.2,529.2,308.7,528.3z"/>
		</g>
	</g>
	<g transform="matrix(0.7425,0,0,0.7425,0,0)">
		<g class="st1">
			<path d="M473.6,512.8c3.6,0,7.3,1.9,7.3,4.3c0,2.7-3.1,4.3-7.6,4.3c-4.1,0-7.3-1.7-7.3-4.3C466,514.6,469.7,512.8,473.6,512.8z
				 M476.7,516.3c-1-1.9-2-2.7-4.2-2.7c-2,0-3.1,0.8-3.1,2.5c0,2.4,2.2,4.8,4.2,4.8c1.9,0,3.4-0.2,3.8-2
				C477.5,518.1,477.2,517.2,476.7,516.3z"/>
		</g>
	</g>
	<g transform="matrix(0.7425,0,0,0.7425,0,0)">
		<g class="st1">
			<path d="M641.4,528.8c3.6,0,7.3,1.9,7.3,4.3c0,2.7-3.1,4.3-7.6,4.3c-4.1,0-7.3-1.7-7.3-4.3C633.8,530.6,637.5,528.8,641.4,528.8z
				 M644.5,532.3c-1-1.9-2-2.7-4.2-2.7c-2,0-3.1,0.8-3.1,2.5c0,2.4,2.2,4.8,4.2,4.8c1.9,0,3.4-0.2,3.8-2
				C645.2,534.1,644.9,533.2,644.5,532.3z"/>
		</g>
	</g>
	<g transform="matrix(0.7425,0,0,0.7425,0,0)">
		<g class="st1">
			<path d="M809.4,528.8c3.6,0,7.3,1.9,7.3,4.3c0,2.7-3.1,4.3-7.6,4.3c-4.1,0-7.3-1.7-7.3-4.3C801.7,530.6,805.5,528.8,809.4,528.8z
				 M812.5,532.3c-1-1.9-2-2.7-4.2-2.7c-2,0-3.1,0.8-3.1,2.5c0,2.4,2.2,4.8,4.2,4.8c1.9,0,3.4-0.2,3.8-2
				C813.2,534.1,812.9,533.2,812.5,532.3z"/>
		</g>
	</g>
</g>
</svg>
