<?xml version="1.0" encoding="utf-8"?>
<!-- Generator: Adobe Illustrator 26.3.1, SVG Export Plug-In . SVG Version: 6.00 Build 0)  -->
<svg version="1.1" id="Layer_1" xmlns="http://www.w3.org/2000/svg" xmlns:xlink="http://www.w3.org/1999/xlink" x="0px" y="0px"
	 viewBox="0 0 720 432" style="enable-background:new 0 0 720 432;" xml:space="preserve">
<style type="text/css">
	.st0{fill:none;stroke:#000000;stroke-width:0.9281;stroke-linejoin:bevel;stroke-miterlimit:10;}
	.st1{enable-background:new    ;}
	.st2{fill:none;stroke:#000000;stroke-width:0.3713;stroke-linejoin:bevel;stroke-miterlimit:10;}
	.st3{fill-rule:evenodd;clip-rule:evenodd;stroke:#000000;stroke-width:0.1856;stroke-linejoin:bevel;stroke-miterlimit:10;}
	.st4{fill:none;stroke:#000000;stroke-width:2.97;stroke-linejoin:bevel;stroke-miterlimit:10;}
	.st5{fill:none;stroke:#000000;stroke-width:0.5569;stroke-linejoin:bevel;stroke-miterlimit:10;}
</style>
<g>
	<g transform="matrix(0.7425,0,0,0.7425,0,0)">
		<line vector-effect="none" class="st0" x1="243.8" y1="72.4" x2="243.8" y2="104.4"/>
	</g>
	<g transform="matrix(0.7425,0,0,0.7425,0,0)">
		<line vector-effect="none" class="st0" x1="425.2" y1="72.4" x2="425.2" y2="104.4"/>
	</g>
	<g transform="matrix(0.7425,0,0,0.7425,0,0)">
		<line vector-effect="none" class="st0" x1="606.5" y1="72.4" x2="606.5" y2="104.4"/>
	</g>
	<g transform="matrix(0.7425,0,0,0.7425,0,0)">
		<line vector-effect="none" class="st0" x1="788" y1="72.4" x2="788" y2="104.4"/>
	</g>
	<g transform="matrix(0.7425,0,0,0.7425,0,0)">
		<line vector-effect="none" class="st0" x1="969.2" y1="72.4" x2="969.2" y2="104.4"/>
	</g>
	<g transform="matrix(0.7425,0,0,0.7425,0,0)">
	</g>
	<g transform="matrix(0.7425,0,0,0.7425,193.792,94.7646)">
	</g>
	<g transform="matrix(0.7425,0,0,0.7425,193.792,94.7646)">
		<g class="st1">
			<path d="M-187.6-77.7v-0.4c0.8,0,1.2-0.2,1.2-0.7c0-0.5-0.5-1.7-0.9-2.7h-4.7c-0.5,1-1,2.3-1,2.7c0,0.4,0.4,0.7,1.2,0.7v0.4h-3.6
				v-0.4c0.7-0.1,1.2-0.4,1.6-1.2l4.4-10.4h0.5l4.1,9.8c0.7,1.6,0.9,1.7,1.7,1.8v0.4H-187.6z M-191.7-82.3h4l-2.1-4.7L-191.7-82.3z"
				/>
			<path d="M-174.1-77.7V-78c0.7,0,1-0.2,1-1.2V-83c0-0.9-0.4-1.3-1.2-1.3c-0.6,0-1.3,0.3-1.8,1c0.1,0.1,0.1,0.5,0.1,1.1v1.6
				c0,0.8,0,1.2,0,1.2c0,1.1,0.2,1.3,1,1.3v0.3h-3.4V-78c0.7,0,1-0.2,1-1.2V-83c0-0.9-0.4-1.3-1.1-1.3c-0.6,0-1.2,0.3-1.8,1v4.1
				c0,0.9,0.3,1.1,1,1.1v0.3h-3.4V-78c0.9,0,1-0.3,1-1.3v-4c0-0.4-0.1-0.6-0.3-0.6h-0.8v-0.3l2.4-0.8v1.3c0.7-0.9,1.5-1.3,2.5-1.3
				c0.9,0,1.4,0.4,1.6,1.3c0.8-0.9,1.7-1.3,2.7-1.3c0.5,0,0.9,0.1,1.2,0.4c0.3,0.3,0.6,1.3,0.6,1.8v3.6c0,1.1,0.2,1.3,1,1.3v0.3
				H-174.1z"/>
			<path d="M-167.7-82.3h-0.7l2.4-7.4h-2.5c-0.7,0-1.2,0.4-1.5,1.1l-0.2-0.1l0.7-2h4.6L-167.7-82.3z"/>
		</g>
	</g>
	<g transform="matrix(0.7425,0,0,0.7425,193.792,94.7646)">
	</g>
	<g transform="matrix(0.7425,0,0,0.7425,0,0)">
	</g>
	<g transform="matrix(0.7425,0,0,0.7425,750.667,94.7646)">
	</g>
	<g transform="matrix(0.7425,0,0,0.7425,750.667,94.7646)">
		<g class="st1">
			<path d="M-753-77.7h-5v-0.4c1.5,0,1.6-0.3,1.6-1.7v-7.5c0-1.4-0.1-1.7-1.6-1.7v-0.4h5.6c0.8,0,1.7,0.2,2.6,0.5
				c2.5,0.9,3.7,2.7,3.7,5.4C-746-79.9-748.7-77.7-753-77.7z M-753.1-88.8c-1.4,0-1.4,0.2-1.4,1.6v7.1c0,1.4,0,1.6,1.5,1.6
				c3.3,0,5.1-1.8,5.1-5C-748-86.8-749.8-88.8-753.1-88.8z"/>
			<path d="M-742.8-82.3h-0.7l2.4-7.4h-2.5c-0.7,0-1.2,0.4-1.5,1.1l-0.2-0.1l0.7-2h4.6L-742.8-82.3z"/>
		</g>
	</g>
	<g transform="matrix(0.7425,0,0,0.7425,750.667,94.7646)">
	</g>
	<g transform="matrix(0.7425,0,0,0.7425,0,0)">
	</g>
	<g transform="matrix(0.7425,0,0,0.7425,1254.82,94.7646)">
	</g>
	<g transform="matrix(0.7425,0,0,0.7425,1254.82,94.7646)">
		<g class="st1">
			<path d="M-1256.3-86h-0.3c-0.7-2.1-2-3.1-3.9-3.1c-2.7,0-4.4,2.2-4.4,5.4c0,3.2,1.9,5.8,4.5,5.8c0.9,0,1.7-0.2,2.4-0.6v-3.4
				c0-1.3-0.2-1.7-1.5-1.7v-0.4h4.5v0.4c-1.2,0-1.3,0.5-1.3,1.7v3.6c-1.3,0.7-2.6,1-4.1,1c-3.7,0-6.5-2.3-6.5-5.9
				c0-3.4,2.6-6.4,6.2-6.4c0.7,0,1.6,0.2,2.7,0.6c0.3,0.1,0.5,0.2,0.6,0.2c0.3,0,0.4-0.2,0.4-0.7h0.3L-1256.3-86z"/>
			<path d="M-1245.8-82.3v-0.3c0.7,0,1-0.2,1-1.2v-3.7c0-0.9-0.4-1.3-1.2-1.3c-0.6,0-1.3,0.3-1.8,1c0.1,0.1,0.1,0.5,0.1,1.1v1.6
				c0,0.8,0,1.2,0,1.2c0,1.1,0.2,1.3,1,1.3v0.3h-3.4v-0.3c0.7,0,1-0.2,1-1.2v-3.7c0-0.9-0.4-1.3-1.1-1.3c-0.6,0-1.2,0.3-1.8,1v4.1
				c0,0.9,0.3,1.1,1,1.1v0.3h-3.4v-0.3c0.9,0,1-0.3,1-1.3v-4c0-0.4-0.1-0.6-0.3-0.6h-0.8v-0.3l2.4-0.8v1.3c0.7-0.9,1.5-1.3,2.5-1.3
				c0.9,0,1.4,0.4,1.6,1.3c0.8-0.9,1.7-1.3,2.7-1.3c0.5,0,0.9,0.1,1.2,0.4c0.3,0.3,0.6,1.3,0.6,1.8v3.5c0,1.1,0.2,1.3,1,1.3v0.3
				H-1245.8z"/>
			<path d="M-1235.5-83.1c-0.5,0.6-1,0.9-1.5,0.9c-0.6,0-0.9-0.4-1-1.2c-1,0.8-1.8,1.2-2.5,1.2c-0.9,0-1.5-0.9-1.5-1.7
				c0-1.4,0.9-2.2,3.9-3.1v-1c0-0.9-0.4-1.3-1.2-1.3c-0.5,0-1.1,0.3-1.1,0.8c0,0.1,0.1,0.5,0.1,0.6c0,0.4-0.4,0.7-0.7,0.7
				c-0.4,0-0.6-0.2-0.6-0.7c0-1,1.4-1.8,2.6-1.8c1.4,0,2.3,0.8,2.3,2.3v3.6c0,0.4,0.1,0.6,0.4,0.6c0.2,0,0.5-0.1,0.8-0.4V-83.1z
				 M-1238-86.5c-0.9,0.3-1.5,0.5-1.7,0.6c-0.6,0.3-0.8,0.8-0.8,1.5c0,0.7,0.4,1.3,1,1.3c0.4,0,0.9-0.2,1.5-0.6V-86.5z"/>
			<path d="M-1234.7-88.9l2.6-0.9v6.8c0,2.7-0.9,4-2.6,4c-0.8,0-1.5-0.3-1.5-1c0-0.4,0.2-0.6,0.6-0.6c0.4,0,1.2,1,1.6,1
				c0.4,0,0.6-0.6,0.6-1.8v-6.2c0-0.6-0.2-1-0.5-1c-0.1,0-0.4,0-0.7,0.1V-88.9z M-1232.8-91.8c-0.4,0-0.8-0.4-0.8-0.8
				c0-0.4,0.4-0.8,0.8-0.8s0.8,0.4,0.8,0.8C-1232-92.2-1232.4-91.8-1232.8-91.8z"/>
			<path d="M-1228.5-82.3h-0.7l2.4-7.4h-2.5c-0.7,0-1.2,0.4-1.5,1.1l-0.2-0.1l0.7-2h4.6L-1228.5-82.3z"/>
		</g>
	</g>
	<g transform="matrix(0.7425,0,0,0.7425,1254.82,94.7646)">
	</g>
	<g transform="matrix(0.7425,0,0,0.7425,0,0)">
	</g>
	<g transform="matrix(0.7425,0,0,0.7425,1793.88,94.7646)">
	</g>
	<g transform="matrix(0.7425,0,0,0.7425,1793.88,94.7646)">
		<g class="st1">
			<path d="M-1805.5-77.5c-3.5,0-5.9-2.4-5.9-5.9c0-3.4,2.5-6.4,6-6.4c1.2,0,3.2,0.7,3.4,0.7c0.3,0,0.5-0.2,0.7-0.7h0.6v4.2h-0.5
				c-0.4-2.1-1.8-3.4-3.9-3.4c-2.7,0-4.3,2.2-4.3,5.4c0,3.2,1.7,5.3,4.4,5.3c1.6,0,2.9-0.6,4-1.9l0.3,0.5
				C-1801.8-78.2-1803.4-77.5-1805.5-77.5z"/>
			<path d="M-1790.9-82.3v-0.3c0.7,0,1-0.2,1-1.2v-3.7c0-0.9-0.4-1.3-1.2-1.3c-0.6,0-1.3,0.3-1.8,1c0.1,0.1,0.1,0.5,0.1,1.1v1.6
				c0,0.8,0,1.2,0,1.2c0,1.1,0.2,1.3,1,1.3v0.3h-3.4v-0.3c0.7,0,1-0.2,1-1.2v-3.7c0-0.9-0.4-1.3-1.1-1.3c-0.6,0-1.2,0.3-1.8,1v4.1
				c0,0.9,0.3,1.1,1,1.1v0.3h-3.4v-0.3c0.9,0,1-0.3,1-1.3v-4c0-0.4-0.1-0.6-0.3-0.6h-0.8v-0.3l2.4-0.8v1.3c0.7-0.9,1.5-1.3,2.5-1.3
				c0.9,0,1.4,0.4,1.6,1.3c0.8-0.9,1.7-1.3,2.7-1.3c0.5,0,0.9,0.1,1.2,0.4c0.3,0.3,0.6,1.3,0.6,1.8v3.5c0,1.1,0.2,1.3,1,1.3v0.3
				H-1790.9z"/>
			<path d="M-1780.6-83.1c-0.5,0.6-1,0.9-1.5,0.9c-0.6,0-0.9-0.4-1-1.2c-1,0.8-1.8,1.2-2.5,1.2c-0.9,0-1.5-0.9-1.5-1.7
				c0-1.4,0.9-2.2,3.9-3.1v-1c0-0.9-0.4-1.3-1.2-1.3c-0.5,0-1.1,0.3-1.1,0.8c0,0.1,0.1,0.5,0.1,0.6c0,0.4-0.4,0.7-0.7,0.7
				c-0.4,0-0.6-0.2-0.6-0.7c0-1,1.4-1.8,2.6-1.8c1.4,0,2.3,0.8,2.3,2.3v3.6c0,0.4,0.1,0.6,0.4,0.6c0.2,0,0.5-0.1,0.8-0.4V-83.1z
				 M-1783.1-86.5c-0.9,0.3-1.5,0.5-1.7,0.6c-0.6,0.3-0.8,0.8-0.8,1.5c0,0.7,0.4,1.3,1,1.3c0.4,0,0.9-0.2,1.5-0.6V-86.5z"/>
			<path d="M-1779.8-88.9l2.6-0.9v6.8c0,2.7-0.9,4-2.6,4c-0.8,0-1.5-0.3-1.5-1c0-0.4,0.2-0.6,0.6-0.6c0.4,0,1.2,1,1.6,1
				c0.4,0,0.6-0.6,0.6-1.8v-6.2c0-0.6-0.2-1-0.5-1c-0.1,0-0.4,0-0.7,0.1V-88.9z M-1777.9-91.8c-0.4,0-0.8-0.4-0.8-0.8
				c0-0.4,0.4-0.8,0.8-0.8s0.8,0.4,0.8,0.8C-1777.1-92.2-1777.5-91.8-1777.9-91.8z"/>
			<path d="M-1773.6-82.3h-0.7l2.4-7.4h-2.5c-0.7,0-1.2,0.4-1.5,1.1l-0.2-0.1l0.7-2h4.6L-1773.6-82.3z"/>
		</g>
	</g>
	<g transform="matrix(0.7425,0,0,0.7425,1793.88,94.7646)">
	</g>
	<g transform="matrix(0.7425,0,0,0.7425,0,0)">
	</g>
	<g transform="matrix(0.7425,0,0,0.7425,0,0)">
		<path vector-effect="none" class="st2" d="M446.2,70.4c9-16.2,170.2-16.2,179.2,0"/>
	</g>
	<g transform="matrix(0.7425,0,0,0.7425,0,0)">
		<path vector-effect="none" class="st3" d="M446.2,70.4c9-17.5,170.2-17.5,179.2,0C616.5,55.4,455.2,55.4,446.2,70.4"/>
	</g>
	<g transform="matrix(0.7425,0,0,0.7425,2348.53,94.7646)">
	</g>
	<g transform="matrix(0.7425,0,0,0.7425,2348.53,94.7646)">
		<g class="st1">
			<path d="M-2368.6-84.2h2.2c1.1,0,1.4-0.5,1.5-1.6h0.3v4h-0.3c0-1.2-0.4-1.7-1.5-1.7h-2.2v3.7c0,1.5,0.2,1.8,1.7,1.8v0.3h-5v-0.3
				c1.5,0,1.7-0.3,1.7-1.8v-7.6c0-1.5-0.2-1.8-1.7-1.8v-0.3h8.9v2.6h-0.3c-0.4-1.6-1-2-2.6-2h-2.6V-84.2z"/>
			<path d="M-2357.1-92.2v3.1l1.2-0.4v2l-1.2,0.4v3.7l1.2-0.4v2l-1.2,0.4v3.4h-0.5v-3.2l-2.1,0.7v3.2h-0.5v-3.1l-1.2,0.4v-2l1.2-0.4
				v-3.7l-1.2,0.4v-2l1.2-0.4v-3.4h0.5v3.2l2.1-0.7v-3.2H-2357.1z M-2357.6-87l-2.1,0.7v3.7l2.1-0.7V-87z"/>
			<path d="M-2349.1-88.7c0.4,0.6,0.7,1.3,0.7,2.1c0,1.9-1.5,3.4-3.4,3.4c-0.8,0-1.5-0.3-2.1-0.7l-1.4,1.4l-0.7-0.7l1.4-1.4
				c-0.4-0.6-0.6-1.2-0.6-2c0-1.9,1.5-3.4,3.4-3.4c0.7,0,1.4,0.2,2,0.6l1.2-1.2l0.7,0.7L-2349.1-88.7z M-2353.8-85.4l3.3-3.3
				c-0.4-0.2-0.8-0.3-1.2-0.3c-1.3,0-2.4,1.1-2.4,2.4C-2354.2-86.2-2354.1-85.8-2353.8-85.4z M-2349.8-88l-3.3,3.3
				c0.4,0.3,0.9,0.4,1.3,0.4c1.3,0,2.4-1.1,2.4-2.4C-2349.4-87.1-2349.6-87.6-2349.8-88z"/>
			<path d="M-2344.4-82.3h-0.7l2.4-7.4h-2.5c-0.7,0-1.2,0.4-1.5,1.1l-0.2-0.1l0.7-2h4.6L-2344.4-82.3z"/>
		</g>
	</g>
	<g transform="matrix(0.7425,0,0,0.7425,2348.53,94.7646)">
	</g>
	<g transform="matrix(0.7425,0,0,0.7425,0,0)">
	</g>
	<g transform="matrix(0.7425,0,0,0.7425,0,0)">
		<line vector-effect="none" class="st0" x1="200.5" y1="184.7" x2="200.5" y2="216.7"/>
	</g>
	<g transform="matrix(0.7425,0,0,0.7425,0,0)">
		<line vector-effect="none" class="st0" x1="350" y1="184.7" x2="350" y2="216.7"/>
	</g>
	<g transform="matrix(0.7425,0,0,0.7425,0,0)">
		<line vector-effect="none" class="st0" x1="510.5" y1="184.7" x2="510.5" y2="216.7"/>
	</g>
	<g transform="matrix(0.7425,0,0,0.7425,0,0)">
		<line vector-effect="none" class="st4" x1="516" y1="184.7" x2="516" y2="216.7"/>
	</g>
	<g transform="matrix(0.7425,0,0,0.7425,0,0)">
		<g class="st1">
			<path d="M506.8,196.7c0,0.7-0.7,1.4-1.5,1.4c-0.7,0-1.5-0.7-1.5-1.4c0-0.9,0.7-1.5,1.5-1.5C506.1,195.1,506.8,195.8,506.8,196.7z
				"/>
		</g>
	</g>
	<g transform="matrix(0.7425,0,0,0.7425,0,0)">
		<g class="st1">
			<path d="M506.8,204.7c0,0.7-0.7,1.4-1.5,1.4c-0.7,0-1.5-0.7-1.5-1.4c0-0.9,0.7-1.5,1.5-1.5C506.1,203.1,506.8,203.8,506.8,204.7z
				"/>
		</g>
	</g>
	<g transform="matrix(0.7425,0,0,0.7425,0,0)">
		<line vector-effect="none" class="st0" x1="670.5" y1="184.7" x2="670.5" y2="216.7"/>
	</g>
	<g transform="matrix(0.7425,0,0,0.7425,0,0)">
		<line vector-effect="none" class="st0" x1="820" y1="184.7" x2="820" y2="216.7"/>
	</g>
	<g transform="matrix(0.7425,0,0,0.7425,0,0)">
		<line vector-effect="none" class="st0" x1="969.2" y1="184.7" x2="969.2" y2="216.7"/>
	</g>
	<g transform="matrix(0.7425,0,0,0.7425,0,0)">
	</g>
	<g transform="matrix(0.7425,0,0,0.7425,181.17,402.902)">
	</g>
	<g transform="matrix(0.7425,0,0,0.7425,181.17,402.902)">
		<g class="st1">
			<path d="M-172.5-392.3c0,1.9-1.9,3.3-3.7,3.3h-6.5v-0.4c1.5,0,1.6-0.3,1.6-1.7v-7.5c0-1.4-0.1-1.8-1.6-1.8v-0.4h5.9
				c2,0,3.8,1.3,3.8,3.1c0,1.3-0.9,2.2-2.3,2.6C-173.5-394.7-172.5-393.5-172.5-392.3z M-174.7-397.6c0-1.3-1-2.3-2.3-2.3h-1.2
				c-0.9,0-1.1,0.3-1.1,1.3v3.2h2.3C-175.6-395.4-174.7-396.3-174.7-397.6z M-179.1-390c0.2,0.2,1.2,0.3,1.9,0.3
				c2.3,0,2.8-1.4,2.8-2.6c0-1.4-1.2-2.3-2.6-2.3h-2.3v4C-179.3-390.3-179.2-390-179.1-390z"/>
			<path d="M-169.2-393.6h-0.7l2.4-7.4h-2.5c-0.7,0-1.2,0.4-1.5,1.1l-0.2-0.1l0.7-2h4.6L-169.2-393.6z"/>
		</g>
	</g>
	<g transform="matrix(0.7425,0,0,0.7425,181.17,402.902)">
	</g>
	<g transform="matrix(0.7425,0,0,0.7425,0,0)">
	</g>
	<g transform="matrix(0.7425,0,0,0.7425,614.047,402.902)">
	</g>
	<g transform="matrix(0.7425,0,0,0.7425,614.047,402.902)">
		<g class="st1">
			<path d="M-610.3-389h-9.7v-0.4c1.5,0,1.6-0.3,1.6-1.7v-7.5c0-1.4-0.1-1.7-1.6-1.7v-0.4h9.6v2.7h-0.4c-0.1-1.2-0.7-1.8-1.7-1.8
				h-3.1c-0.8,0-1,0.4-1,1.2v3.3h3.1c1,0,1.7-0.7,1.7-1.7h0.4v4.2h-0.4c0-1-0.7-1.7-1.7-1.7h-3.1v3.7c0,0.8,0.2,1.2,1,1.2h3
				c1.2,0,2.3-1,2.6-2.2h0.5L-610.3-389z"/>
			<path d="M-600.4-389v-0.3c0.7,0,1-0.2,1-1.2v-3.7c0-0.9-0.4-1.3-1.2-1.3c-0.6,0-1.3,0.3-1.8,1c0.1,0.1,0.1,0.5,0.1,1.1v1.6
				c0,0.8,0,1.2,0,1.2c0,1.1,0.2,1.3,1,1.3v0.3h-3.4v-0.3c0.7,0,1-0.2,1-1.2v-3.7c0-0.9-0.4-1.3-1.1-1.3c-0.6,0-1.2,0.3-1.8,1v4.1
				c0,0.9,0.3,1.1,1,1.1v0.3h-3.4v-0.3c0.9,0,1-0.3,1-1.3v-4c0-0.4-0.1-0.6-0.3-0.6h-0.8v-0.3l2.4-0.8v1.3c0.7-0.9,1.5-1.3,2.5-1.3
				c0.9,0,1.4,0.4,1.6,1.3c0.8-0.9,1.7-1.3,2.7-1.3c0.5,0,0.9,0.1,1.2,0.4c0.3,0.3,0.6,1.3,0.6,1.8v3.6c0,1.1,0.2,1.3,1,1.3v0.3
				H-600.4z"/>
		</g>
	</g>
	<g transform="matrix(0.7425,0,0,0.7425,614.047,402.902)">
	</g>
	<g transform="matrix(0.7425,0,0,0.7425,0,0)">
	</g>
	<g transform="matrix(0.7425,0,0,0.7425,0,0)">
		<path vector-effect="none" class="st2" d="M221.5,162.7c7.5-14.8,140.2-14.8,147.5,0"/>
	</g>
	<g transform="matrix(0.7425,0,0,0.7425,0,0)">
		<path vector-effect="none" class="st3" d="M221.5,162.7c7.5-16,140.2-16,147.5,0C361.8,149.2,229,149.2,221.5,162.7"/>
	</g>
	<g transform="matrix(0.7425,0,0,0.7425,1577.07,402.902)">
	</g>
	<g transform="matrix(0.7425,0,0,0.7425,1577.07,402.902)">
		<g class="st1">
			<path d="M-1582.5-392.3c0,1.9-1.9,3.3-3.7,3.3h-6.5v-0.4c1.5,0,1.6-0.3,1.6-1.7v-7.5c0-1.4-0.1-1.8-1.6-1.8v-0.4h5.9
				c2,0,3.8,1.3,3.8,3.1c0,1.3-0.9,2.2-2.3,2.6C-1583.5-394.7-1582.5-393.5-1582.5-392.3z M-1584.7-397.6c0-1.3-1-2.3-2.3-2.3h-1.2
				c-0.9,0-1.1,0.3-1.1,1.3v3.2h2.3C-1585.6-395.4-1584.7-396.3-1584.7-397.6z M-1589.1-390c0.2,0.2,1.2,0.3,1.9,0.3
				c2.3,0,2.8-1.4,2.8-2.6c0-1.4-1.2-2.3-2.6-2.3h-2.3v4C-1589.3-390.3-1589.2-390-1589.1-390z"/>
			<path d="M-1579.2-393.6h-0.7l2.4-7.4h-2.5c-0.7,0-1.2,0.4-1.5,1.1l-0.2-0.1l0.7-2h4.6L-1579.2-393.6z"/>
		</g>
	</g>
	<g transform="matrix(0.7425,0,0,0.7425,1577.07,402.902)">
	</g>
	<g transform="matrix(0.7425,0,0,0.7425,0,0)">
	</g>
	<g transform="matrix(0.7425,0,0,0.7425,2009.95,402.902)">
	</g>
	<g transform="matrix(0.7425,0,0,0.7425,2009.95,402.902)">
		<g class="st1">
			<path d="M-2020.3-389h-9.7v-0.4c1.5,0,1.6-0.3,1.6-1.7v-7.5c0-1.4-0.1-1.7-1.6-1.7v-0.4h9.6v2.7h-0.4c-0.1-1.2-0.7-1.8-1.7-1.8
				h-3.1c-0.8,0-1,0.4-1,1.2v3.3h3.1c1,0,1.7-0.7,1.7-1.7h0.4v4.2h-0.4c0-1-0.7-1.7-1.7-1.7h-3.1v3.7c0,0.8,0.2,1.2,1,1.2h3
				c1.2,0,2.3-1,2.6-2.2h0.5L-2020.3-389z"/>
			<path d="M-2010.4-389v-0.3c0.7,0,1-0.2,1-1.2v-3.7c0-0.9-0.4-1.3-1.2-1.3c-0.6,0-1.3,0.3-1.8,1c0.1,0.1,0.1,0.5,0.1,1.1v1.6
				c0,0.8,0,1.2,0,1.2c0,1.1,0.2,1.3,1,1.3v0.3h-3.4v-0.3c0.7,0,1-0.2,1-1.2v-3.7c0-0.9-0.4-1.3-1.1-1.3c-0.6,0-1.2,0.3-1.8,1v4.1
				c0,0.9,0.3,1.1,1,1.1v0.3h-3.4v-0.3c0.9,0,1-0.3,1-1.3v-4c0-0.4-0.1-0.6-0.3-0.6h-0.8v-0.3l2.4-0.8v1.3c0.7-0.9,1.5-1.3,2.5-1.3
				c0.9,0,1.4,0.4,1.6,1.3c0.8-0.9,1.7-1.3,2.7-1.3c0.5,0,0.9,0.1,1.2,0.4c0.3,0.3,0.6,1.3,0.6,1.8v3.6c0,1.1,0.2,1.3,1,1.3v0.3
				H-2010.4z"/>
		</g>
	</g>
	<g transform="matrix(0.7425,0,0,0.7425,2009.95,402.902)">
	</g>
	<g transform="matrix(0.7425,0,0,0.7425,0,0)">
	</g>
	<g transform="matrix(0.7425,0,0,0.7425,0,0)">
		<path vector-effect="none" class="st2" d="M691.5,162.7c7.5-14.8,140.2-14.8,147.5,0"/>
	</g>
	<g transform="matrix(0.7425,0,0,0.7425,0,0)">
		<path vector-effect="none" class="st3" d="M691.5,162.7c7.5-16,140.2-16,147.5,0C831.8,149.2,699,149.2,691.5,162.7"/>
	</g>
	<g transform="matrix(0.7425,0,0,0.7425,0,0)">
		<line vector-effect="none" class="st0" x1="48" y1="185.9" x2="48" y2="206.4"/>
	</g>
	<g transform="matrix(0.7425,0,0,0.7425,0,0)">
	</g>
	<g transform="matrix(0.7425,0,0,0.7425,154.44,557.064)">
	</g>
	<g transform="matrix(0.7425,0,0,0.7425,154.44,557.064)">
		<g class="st1">
			<path d="M-153.9-556.6l2.9-1.4h0.3v9.9c0,0.7,0,1.1,0.1,1.2c0.1,0.2,0.2,0.3,0.3,0.4c0.2,0.1,0.5,0.1,1.1,0.1v0.3h-4.4v-0.3
				c0.6,0,0.9-0.1,1.1-0.1c0.2-0.1,0.3-0.2,0.3-0.3c0.1-0.1,0.1-0.6,0.1-1.3v-6.3c0-0.9,0-1.4-0.1-1.6c0-0.2-0.1-0.3-0.2-0.4
				c-0.1-0.1-0.2-0.1-0.4-0.1c-0.2,0-0.5,0.1-0.9,0.3L-153.9-556.6z"/>
			<path d="M-144.9-547.6c0.3,0,0.5,0.1,0.7,0.3c0.2,0.2,0.3,0.4,0.3,0.7s-0.1,0.5-0.3,0.7c-0.2,0.2-0.4,0.3-0.7,0.3
				c-0.3,0-0.5-0.1-0.7-0.3c-0.2-0.2-0.3-0.4-0.3-0.7c0-0.3,0.1-0.5,0.3-0.7C-145.4-547.5-145.2-547.6-144.9-547.6z"/>
		</g>
	</g>
	<g transform="matrix(0.7425,0,0,0.7425,154.44,557.064)">
	</g>
	<g transform="matrix(0.7425,0,0,0.7425,0,0)">
	</g>
	<g transform="matrix(0.7425,0,0,0.7425,0,0)">
		<line vector-effect="none" class="st0" x1="510.5" y1="185.9" x2="510.5" y2="206.4"/>
	</g>
	<g transform="matrix(0.7425,0,0,0.7425,0,0)">
		<line vector-effect="none" class="st0" x1="48" y1="186.4" x2="510.5" y2="186.4"/>
	</g>
	<g transform="matrix(0.7425,0,0,0.7425,0,0)">
		<line vector-effect="none" class="st0" x1="518" y1="185.9" x2="518" y2="206.4"/>
	</g>
	<g transform="matrix(0.7425,0,0,0.7425,0,0)">
	</g>
	<g transform="matrix(0.7425,0,0,0.7425,1550.34,557.064)">
	</g>
	<g transform="matrix(0.7425,0,0,0.7425,1550.34,557.064)">
		<g class="st1">
			<path d="M-1557.9-548.2l-0.8,2.3h-6.9v-0.3c2-1.9,3.5-3.4,4.3-4.6s1.2-2.3,1.2-3.2c0-0.7-0.2-1.4-0.7-1.8c-0.5-0.5-1-0.7-1.6-0.7
				c-0.6,0-1.1,0.2-1.6,0.5s-0.8,0.8-1,1.5h-0.3c0.1-1.1,0.5-1.9,1.1-2.5c0.6-0.6,1.3-0.9,2.2-0.9c1,0,1.7,0.3,2.4,0.9
				c0.6,0.6,1,1.3,1,2.2c0,0.6-0.1,1.2-0.4,1.8c-0.4,0.9-1.1,1.9-2.1,3c-1.4,1.6-2.3,2.5-2.7,2.8h3.1c0.6,0,1.1,0,1.3-0.1
				c0.3,0,0.5-0.1,0.7-0.3c0.2-0.1,0.4-0.3,0.5-0.6H-1557.9z"/>
			<path d="M-1554.9-547.6c0.3,0,0.5,0.1,0.7,0.3c0.2,0.2,0.3,0.4,0.3,0.7s-0.1,0.5-0.3,0.7c-0.2,0.2-0.4,0.3-0.7,0.3
				c-0.3,0-0.5-0.1-0.7-0.3c-0.2-0.2-0.3-0.4-0.3-0.7c0-0.3,0.1-0.5,0.3-0.7C-1555.4-547.5-1555.2-547.6-1554.9-547.6z"/>
		</g>
	</g>
	<g transform="matrix(0.7425,0,0,0.7425,1550.34,557.064)">
	</g>
	<g transform="matrix(0.7425,0,0,0.7425,0,0)">
	</g>
	<g transform="matrix(0.7425,0,0,0.7425,0,0)">
		<line vector-effect="none" class="st0" x1="518" y1="186.4" x2="670.8" y2="186.4"/>
	</g>
	<g transform="matrix(0.7425,0,0,0.7425,0,0)">
		<line vector-effect="none" class="st0" x1="200.5" y1="296.7" x2="200.5" y2="328.7"/>
	</g>
	<g transform="matrix(0.7425,0,0,0.7425,0,0)">
		<line vector-effect="none" class="st0" x1="357.2" y1="296.7" x2="357.2" y2="328.7"/>
	</g>
	<g transform="matrix(0.7425,0,0,0.7425,0,0)">
		<line vector-effect="none" class="st0" x1="510.2" y1="296.7" x2="510.2" y2="328.7"/>
	</g>
	<g transform="matrix(0.7425,0,0,0.7425,0,0)">
		<line vector-effect="none" class="st0" x1="663.2" y1="296.7" x2="663.2" y2="328.7"/>
	</g>
	<g transform="matrix(0.7425,0,0,0.7425,0,0)">
		<line vector-effect="none" class="st0" x1="816.2" y1="296.7" x2="816.2" y2="328.7"/>
	</g>
	<g transform="matrix(0.7425,0,0,0.7425,0,0)">
		<line vector-effect="none" class="st0" x1="969.2" y1="296.7" x2="969.2" y2="328.7"/>
	</g>
	<g transform="matrix(0.7425,0,0,0.7425,0,0)">
	</g>
	<g transform="matrix(0.7425,0,0,0.7425,149.242,735.542)">
	</g>
	<g transform="matrix(0.7425,0,0,0.7425,149.242,735.542)">
		<g class="st1">
			<path d="M-147.1-731.5h2.2c1.1,0,1.4-0.5,1.5-1.6h0.3v4h-0.3c0-1.2-0.4-1.7-1.5-1.7h-2.2v3.7c0,1.5,0.2,1.8,1.7,1.8v0.3h-5v-0.3
				c1.5,0,1.7-0.3,1.7-1.8v-7.6c0-1.5-0.2-1.8-1.7-1.8v-0.3h8.9v2.6h-0.3c-0.4-1.6-1-2-2.6-2h-2.6V-731.5z"/>
			<path d="M-135.6-739.4v3.1l1.2-0.4v2l-1.2,0.4v3.7l1.2-0.4v2l-1.2,0.4v3.4h-0.5v-3.2l-2.1,0.7v3.2h-0.5v-3.1l-1.2,0.4v-2l1.2-0.4
				v-3.7l-1.2,0.4v-2l1.2-0.4v-3.4h0.5v3.2l2.1-0.7v-3.2H-135.6z M-136.1-734.3l-2.1,0.7v3.7l2.1-0.7V-734.3z"/>
			<path d="M-127.6-736c0.4,0.6,0.7,1.3,0.7,2.1c0,1.9-1.5,3.4-3.4,3.4c-0.8,0-1.5-0.3-2.1-0.7l-1.4,1.4l-0.7-0.7l1.4-1.4
				c-0.4-0.6-0.6-1.2-0.6-2c0-1.9,1.5-3.4,3.4-3.4c0.7,0,1.4,0.2,2,0.6l1.2-1.2l0.7,0.7L-127.6-736z M-132.3-732.7l3.3-3.3
				c-0.4-0.2-0.8-0.3-1.2-0.3c-1.3,0-2.4,1.1-2.4,2.4C-132.7-733.5-132.6-733-132.3-732.7z M-128.3-735.2l-3.3,3.3
				c0.4,0.3,0.9,0.4,1.3,0.4c1.3,0,2.4-1.1,2.4-2.4C-127.9-734.4-128.1-734.9-128.3-735.2z"/>
			<path d="M-122.9-729.6h-0.7l2.4-7.4h-2.5c-0.7,0-1.2,0.4-1.5,1.1l-0.2-0.1l0.7-2h4.6L-122.9-729.6z"/>
		</g>
	</g>
	<g transform="matrix(0.7425,0,0,0.7425,149.242,735.542)">
	</g>
	<g transform="matrix(0.7425,0,0,0.7425,0,0)">
	</g>
	<g transform="matrix(0.7425,0,0,0.7425,635.58,735.542)">
	</g>
	<g transform="matrix(0.7425,0,0,0.7425,635.58,735.542)">
		<g class="st1">
			<path d="M-631.5-728.2c0,1.9-1.9,3.3-3.7,3.3h-6.5v-0.4c1.5,0,1.6-0.3,1.6-1.7v-7.5c0-1.4-0.1-1.8-1.6-1.8v-0.4h5.9
				c2,0,3.8,1.3,3.8,3.1c0,1.3-0.9,2.2-2.3,2.6C-632.5-730.7-631.5-729.5-631.5-728.2z M-633.7-733.6c0-1.3-1-2.3-2.3-2.3h-1.2
				c-0.9,0-1.1,0.3-1.1,1.3v3.2h2.3C-634.6-731.4-633.7-732.3-633.7-733.6z M-638.1-726c0.2,0.2,1.2,0.3,1.9,0.3
				c2.3,0,2.8-1.4,2.8-2.6c0-1.4-1.2-2.3-2.6-2.3h-2.3v4C-638.3-726.3-638.2-726-638.1-726z"/>
			<path d="M-628.2-729.6h-0.7l2.4-7.4h-2.5c-0.7,0-1.2,0.4-1.5,1.1l-0.2-0.1l0.7-2h4.6L-628.2-729.6z"/>
		</g>
	</g>
	<g transform="matrix(0.7425,0,0,0.7425,635.58,735.542)">
	</g>
	<g transform="matrix(0.7425,0,0,0.7425,0,0)">
	</g>
	<g transform="matrix(0.7425,0,0,0.7425,1079.59,735.542)">
	</g>
	<g transform="matrix(0.7425,0,0,0.7425,1079.59,735.542)">
		<g class="st1">
			<path d="M-1080.6-725h-9.7v-0.4c1.5,0,1.6-0.3,1.6-1.7v-7.5c0-1.4-0.1-1.7-1.6-1.7v-0.4h9.6v2.7h-0.4c-0.1-1.2-0.7-1.8-1.7-1.8
				h-3.1c-0.8,0-1,0.4-1,1.2v3.3h3.1c1,0,1.7-0.7,1.7-1.7h0.4v4.2h-0.4c0-1-0.7-1.7-1.7-1.7h-3.1v3.7c0,0.8,0.2,1.2,1,1.2h3
				c1.2,0,2.3-1,2.6-2.2h0.5L-1080.6-725z"/>
			<path d="M-1070.6-725v-0.3c0.7,0,1-0.2,1-1.2v-3.7c0-0.9-0.4-1.3-1.2-1.3c-0.6,0-1.3,0.3-1.8,1c0.1,0.1,0.1,0.5,0.1,1.1v1.6
				c0,0.8,0,1.2,0,1.2c0,1.1,0.2,1.3,1,1.3v0.3h-3.4v-0.3c0.7,0,1-0.2,1-1.2v-3.7c0-0.9-0.4-1.3-1.1-1.3c-0.6,0-1.2,0.3-1.8,1v4.1
				c0,0.9,0.3,1.1,1,1.1v0.3h-3.4v-0.3c0.9,0,1-0.3,1-1.3v-4c0-0.4-0.1-0.6-0.3-0.6h-0.8v-0.3l2.4-0.8v1.3c0.7-0.9,1.5-1.3,2.5-1.3
				c0.9,0,1.4,0.4,1.6,1.3c0.8-0.9,1.7-1.3,2.7-1.3c0.5,0,0.9,0.1,1.2,0.4c0.3,0.3,0.6,1.3,0.6,1.8v3.6c0,1.1,0.2,1.3,1,1.3v0.3
				H-1070.6z"/>
		</g>
	</g>
	<g transform="matrix(0.7425,0,0,0.7425,1079.59,735.542)">
	</g>
	<g transform="matrix(0.7425,0,0,0.7425,0,0)">
	</g>
	<g transform="matrix(0.7425,0,0,0.7425,0,0)">
		<path vector-effect="none" class="st2" d="M378.2,274.7c7.5-15,143.5-15,151,0"/>
	</g>
	<g transform="matrix(0.7425,0,0,0.7425,0,0)">
		<path vector-effect="none" class="st3" d="M378.2,274.7c7.5-16.2,143.5-16.2,151,0C521.8,260.9,385.8,260.9,378.2,274.7"/>
	</g>
	<g transform="matrix(0.7425,0,0,0.7425,1978.02,735.542)">
	</g>
	<g transform="matrix(0.7425,0,0,0.7425,1978.02,735.542)">
		<g class="st1">
			<path d="M-1989.9-725v-0.4c0.8,0,1.2-0.2,1.2-0.7c0-0.5-0.5-1.7-0.9-2.7h-4.7c-0.5,1-1,2.3-1,2.7c0,0.4,0.4,0.7,1.2,0.7v0.4h-3.6
				v-0.4c0.7-0.1,1.2-0.4,1.6-1.2l4.4-10.4h0.5l4.1,9.8c0.7,1.6,0.9,1.7,1.7,1.8v0.4H-1989.9z M-1993.9-729.6h4l-2.1-4.7
				L-1993.9-729.6z"/>
			<path d="M-1976.3-725v-0.3c0.7,0,1-0.2,1-1.2v-3.7c0-0.9-0.4-1.3-1.2-1.3c-0.6,0-1.3,0.3-1.8,1c0.1,0.1,0.1,0.5,0.1,1.1v1.6
				c0,0.8,0,1.2,0,1.2c0,1.1,0.2,1.3,1,1.3v0.3h-3.4v-0.3c0.7,0,1-0.2,1-1.2v-3.7c0-0.9-0.4-1.3-1.1-1.3c-0.6,0-1.2,0.3-1.8,1v4.1
				c0,0.9,0.3,1.1,1,1.1v0.3h-3.4v-0.3c0.9,0,1-0.3,1-1.3v-4c0-0.4-0.1-0.6-0.3-0.6h-0.8v-0.3l2.4-0.8v1.3c0.7-0.9,1.5-1.3,2.5-1.3
				c0.9,0,1.4,0.4,1.6,1.3c0.8-0.9,1.7-1.3,2.7-1.3c0.5,0,0.9,0.1,1.2,0.4c0.3,0.3,0.6,1.3,0.6,1.8v3.6c0,1.1,0.2,1.3,1,1.3v0.3
				H-1976.3z"/>
			<path d="M-1970-729.6h-0.7l2.4-7.4h-2.5c-0.7,0-1.2,0.4-1.5,1.1l-0.2-0.1l0.7-2h4.6L-1970-729.6z"/>
		</g>
	</g>
	<g transform="matrix(0.7425,0,0,0.7425,1978.02,735.542)">
	</g>
	<g transform="matrix(0.7425,0,0,0.7425,0,0)">
	</g>
	<g transform="matrix(0.7425,0,0,0.7425,2450.99,735.542)">
	</g>
	<g transform="matrix(0.7425,0,0,0.7425,2450.99,735.542)">
		<g class="st1">
			<path d="M-2470.5-725h-5v-0.4c1.5,0,1.6-0.3,1.6-1.7v-7.5c0-1.4-0.1-1.7-1.6-1.7v-0.4h5.6c0.8,0,1.7,0.2,2.6,0.5
				c2.4,0.9,3.7,2.7,3.7,5.4C-2463.5-727.1-2466.2-725-2470.5-725z M-2470.6-736.1c-1.4,0-1.4,0.2-1.4,1.6v7.1c0,1.4,0,1.6,1.5,1.6
				c3.3,0,5.1-1.8,5.1-5C-2465.5-734-2467.3-736.1-2470.6-736.1z"/>
			<path d="M-2460.3-729.6h-0.7l2.4-7.4h-2.5c-0.7,0-1.2,0.4-1.5,1.1l-0.2-0.1l0.7-2h4.6L-2460.3-729.6z"/>
		</g>
	</g>
	<g transform="matrix(0.7425,0,0,0.7425,2450.99,735.542)">
	</g>
	<g transform="matrix(0.7425,0,0,0.7425,0,0)">
	</g>
	<g transform="matrix(0.7425,0,0,0.7425,0,0)">
		<line vector-effect="none" class="st0" x1="213.2" y1="408.9" x2="213.2" y2="440.9"/>
	</g>
	<g transform="matrix(0.7425,0,0,0.7425,0,0)">
		<line vector-effect="none" class="st0" x1="379" y1="408.9" x2="379" y2="440.9"/>
	</g>
	<g transform="matrix(0.7425,0,0,0.7425,0,0)">
		<line vector-effect="none" class="st0" x1="544.8" y1="408.9" x2="544.8" y2="440.9"/>
	</g>
	<g transform="matrix(0.7425,0,0,0.7425,0,0)">
		<line vector-effect="none" class="st0" x1="714.2" y1="408.9" x2="714.2" y2="440.9"/>
	</g>
	<g transform="matrix(0.7425,0,0,0.7425,0,0)">
		<line vector-effect="none" class="st0" x1="969.2" y1="408.9" x2="969.2" y2="440.9"/>
	</g>
	<g transform="matrix(0.7425,0,0,0.7425,0,0)">
	</g>
	<g transform="matrix(0.7425,0,0,0.7425,132.907,1094.17)">
	</g>
	<g transform="matrix(0.7425,0,0,0.7425,132.907,1094.17)">
		<g class="st1">
			<path d="M-123-1095.5h-0.3c-0.7-2.1-2-3.1-3.9-3.1c-2.7,0-4.4,2.2-4.4,5.4c0,3.2,1.9,5.8,4.5,5.8c0.9,0,1.7-0.2,2.4-0.6v-3.4
				c0-1.3-0.2-1.7-1.5-1.7v-0.4h4.5v0.4c-1.2,0-1.3,0.5-1.3,1.7v3.6c-1.3,0.7-2.6,1-4.1,1c-3.7,0-6.5-2.3-6.5-5.9
				c0-3.4,2.6-6.4,6.2-6.4c0.7,0,1.6,0.2,2.7,0.6c0.3,0.1,0.6,0.2,0.6,0.2c0.3,0,0.4-0.2,0.4-0.7h0.3L-123-1095.5z"/>
			<path d="M-112.6-1091.8v-0.3c0.7,0,1-0.2,1-1.2v-3.7c0-0.9-0.4-1.3-1.2-1.3c-0.6,0-1.3,0.3-1.8,1c0.1,0.1,0.1,0.5,0.1,1.1v1.6
				c0,0.8,0,1.2,0,1.2c0,1.1,0.2,1.3,1,1.3v0.3h-3.4v-0.3c0.7,0,1-0.2,1-1.2v-3.7c0-0.9-0.4-1.3-1.1-1.3c-0.6,0-1.2,0.3-1.8,1v4.1
				c0,0.9,0.3,1.1,1,1.1v0.3h-3.4v-0.3c0.9,0,1-0.3,1-1.3v-4c0-0.4-0.1-0.6-0.3-0.6h-0.8v-0.3l2.4-0.8v1.3c0.7-0.9,1.5-1.3,2.5-1.3
				c0.9,0,1.4,0.4,1.6,1.3c0.8-0.9,1.7-1.3,2.7-1.3c0.5,0,0.9,0.1,1.2,0.4c0.3,0.3,0.6,1.3,0.6,1.8v3.5c0,1.1,0.2,1.3,1,1.3v0.3
				H-112.6z"/>
			<path d="M-102.3-1092.6c-0.5,0.6-1,0.9-1.5,0.9c-0.6,0-0.9-0.4-1-1.2c-1,0.8-1.8,1.2-2.5,1.2c-0.9,0-1.5-0.9-1.5-1.7
				c0-1.4,0.9-2.2,3.9-3.1v-1c0-0.9-0.4-1.3-1.2-1.3c-0.6,0-1.1,0.3-1.1,0.8c0,0.1,0.1,0.5,0.1,0.6c0,0.4-0.4,0.7-0.7,0.7
				c-0.4,0-0.6-0.2-0.6-0.7c0-1,1.4-1.8,2.6-1.8c1.4,0,2.3,0.8,2.3,2.3v3.6c0,0.4,0.1,0.6,0.4,0.6c0.2,0,0.5-0.1,0.8-0.4V-1092.6z
				 M-104.8-1096c-0.9,0.3-1.5,0.5-1.7,0.6c-0.6,0.3-0.8,0.8-0.8,1.5c0,0.7,0.4,1.3,1,1.3c0.4,0,0.9-0.2,1.5-0.6V-1096z"/>
			<path d="M-101.5-1098.4l2.6-0.9v6.8c0,2.7-0.9,4-2.6,4c-0.8,0-1.5-0.3-1.5-1c0-0.4,0.2-0.6,0.6-0.6c0.4,0,1.2,1,1.6,1
				c0.4,0,0.6-0.6,0.6-1.8v-6.2c0-0.6-0.2-1-0.5-1c-0.1,0-0.4,0-0.7,0.1V-1098.4z M-99.6-1101.3c-0.4,0-0.8-0.4-0.8-0.8
				c0-0.4,0.4-0.8,0.8-0.8s0.8,0.4,0.8,0.8C-98.8-1101.7-99.2-1101.3-99.6-1101.3z"/>
			<path d="M-95.3-1091.8H-96l2.4-7.4h-2.5c-0.7,0-1.2,0.4-1.5,1.1l-0.2-0.1l0.7-2h4.6L-95.3-1091.8z"/>
		</g>
	</g>
	<g transform="matrix(0.7425,0,0,0.7425,132.907,1094.17)">
	</g>
	<g transform="matrix(0.7425,0,0,0.7425,0,0)">
	</g>
	<g transform="matrix(0.7425,0,0,0.7425,0,0)">
		<path vector-effect="none" class="st2" d="M68.5,406.9c8.2-15.5,155.5-15.5,163.8,0"/>
	</g>
	<g transform="matrix(0.7425,0,0,0.7425,0,0)">
		<path vector-effect="none" class="st3" d="M68.5,406.9c8.2-16.8,155.5-16.8,163.8,0C224,392.7,76.8,392.7,68.5,406.9"/>
	</g>
	<g transform="matrix(0.7425,0,0,0.7425,1133.8,1094.17)">
	</g>
	<g transform="matrix(0.7425,0,0,0.7425,1133.8,1094.17)">
		<g class="st1">
			<path d="M-1141.6-1093.7h2.2c1.1,0,1.4-0.5,1.5-1.6h0.3v4h-0.3c0-1.2-0.4-1.7-1.5-1.7h-2.2v3.7c0,1.5,0.2,1.8,1.7,1.8v0.3h-5
				v-0.3c1.5,0,1.7-0.3,1.7-1.8v-7.6c0-1.5-0.2-1.8-1.7-1.8v-0.3h8.9v2.6h-0.3c-0.4-1.6-1-2-2.6-2h-2.6V-1093.7z"/>
			<path d="M-1130.1-1101.7v3.1l1.2-0.4v2l-1.2,0.4v3.7l1.2-0.4v2l-1.2,0.4v3.4h-0.5v-3.2l-2.1,0.7v3.2h-0.5v-3.1l-1.2,0.4v-2
				l1.2-0.4v-3.7l-1.2,0.4v-2l1.2-0.4v-3.4h0.5v3.2l2.1-0.7v-3.2H-1130.1z M-1130.6-1096.5l-2.1,0.7v3.7l2.1-0.7V-1096.5z"/>
			<path d="M-1122.1-1098.2c0.4,0.6,0.7,1.3,0.7,2.1c0,1.9-1.5,3.4-3.4,3.4c-0.8,0-1.5-0.3-2.1-0.7l-1.4,1.4l-0.7-0.7l1.4-1.4
				c-0.4-0.6-0.6-1.2-0.6-2c0-1.9,1.5-3.4,3.4-3.4c0.7,0,1.4,0.2,2,0.6l1.2-1.2l0.7,0.7L-1122.1-1098.2z M-1126.8-1094.9l3.3-3.3
				c-0.4-0.2-0.8-0.3-1.2-0.3c-1.3,0-2.4,1.1-2.4,2.4C-1127.2-1095.7-1127.1-1095.3-1126.8-1094.9z M-1122.8-1097.5l-3.3,3.3
				c0.4,0.3,0.9,0.4,1.3,0.4c1.3,0,2.4-1.1,2.4-2.4C-1122.4-1096.6-1122.6-1097.1-1122.8-1097.5z"/>
			<path d="M-1117.4-1091.8h-0.7l2.4-7.4h-2.5c-0.7,0-1.2,0.4-1.5,1.1l-0.2-0.1l0.7-2h4.6L-1117.4-1091.8z"/>
		</g>
	</g>
	<g transform="matrix(0.7425,0,0,0.7425,1133.8,1094.17)">
	</g>
	<g transform="matrix(0.7425,0,0,0.7425,0,0)">
	</g>
	<g transform="matrix(0.7425,0,0,0.7425,1658,1094.17)">
	</g>
	<g transform="matrix(0.7425,0,0,0.7425,1658,1094.17)">
		<g class="st1">
			<path d="M-1664.2-1090.5c0,1.9-1.9,3.3-3.7,3.3h-6.5v-0.4c1.5,0,1.6-0.3,1.6-1.7v-7.5c0-1.4-0.1-1.8-1.6-1.8v-0.4h5.9
				c2,0,3.8,1.3,3.8,3.1c0,1.3-0.9,2.2-2.3,2.6C-1665.3-1093-1664.2-1091.8-1664.2-1090.5z M-1666.5-1095.9c0-1.3-1-2.3-2.3-2.3
				h-1.2c-0.9,0-1.1,0.3-1.1,1.3v3.2h2.3C-1667.4-1093.7-1666.5-1094.5-1666.5-1095.9z M-1670.9-1088.2c0.2,0.2,1.2,0.3,1.9,0.3
				c2.3,0,2.8-1.4,2.8-2.6c0-1.4-1.2-2.3-2.6-2.3h-2.3v4C-1671-1088.5-1671-1088.3-1670.9-1088.2z"/>
			<path d="M-1661-1091.8h-0.7l2.4-7.4h-2.5c-0.7,0-1.2,0.4-1.5,1.1l-0.2-0.1l0.7-2h4.6L-1661-1091.8z"/>
		</g>
	</g>
	<g transform="matrix(0.7425,0,0,0.7425,1658,1094.17)">
	</g>
	<g transform="matrix(0.7425,0,0,0.7425,0,0)">
	</g>
	<g transform="matrix(0.7425,0,0,0.7425,2131.72,1094.17)">
	</g>
	<g transform="matrix(0.7425,0,0,0.7425,2131.72,1094.17)">
		<g class="st1">
			<path d="M-2143.3-1087.2h-9.7v-0.4c1.5,0,1.6-0.3,1.6-1.7v-7.5c0-1.4-0.1-1.7-1.6-1.7v-0.4h9.6v2.7h-0.4
				c-0.1-1.2-0.7-1.8-1.7-1.8h-3.1c-0.8,0-1,0.4-1,1.2v3.3h3.1c1,0,1.7-0.7,1.7-1.7h0.4v4.2h-0.4c0-1-0.7-1.7-1.7-1.7h-3.1v3.7
				c0,0.8,0.2,1.2,1,1.2h3c1.2,0,2.3-1,2.6-2.2h0.5L-2143.3-1087.2z"/>
			<path d="M-2133.3-1087.2v-0.3c0.7,0,1-0.2,1-1.2v-3.7c0-0.9-0.4-1.3-1.2-1.3c-0.6,0-1.3,0.3-1.8,1c0.1,0.1,0.1,0.5,0.1,1.1v1.6
				c0,0.8,0,1.2,0,1.2c0,1.1,0.2,1.3,1,1.3v0.3h-3.4v-0.3c0.7,0,1-0.2,1-1.2v-3.7c0-0.9-0.4-1.3-1.1-1.3c-0.6,0-1.2,0.3-1.8,1v4.1
				c0,0.9,0.3,1.1,1,1.1v0.3h-3.4v-0.3c0.9,0,1-0.3,1-1.3v-4c0-0.4-0.1-0.6-0.3-0.6h-0.8v-0.3l2.4-0.8v1.3c0.7-0.9,1.5-1.3,2.5-1.3
				c0.9,0,1.4,0.4,1.6,1.3c0.8-0.9,1.7-1.3,2.7-1.3c0.5,0,0.9,0.1,1.2,0.4c0.3,0.3,0.6,1.3,0.6,1.8v3.6c0,1.1,0.2,1.3,1,1.3v0.3
				H-2133.3z"/>
			<path d="M-2127-1091.8h-0.7l2.4-7.4h-2.5c-0.7,0-1.2,0.4-1.5,1.1l-0.2-0.1l0.7-2h4.6L-2127-1091.8z"/>
		</g>
	</g>
	<g transform="matrix(0.7425,0,0,0.7425,2131.72,1094.17)">
	</g>
	<g transform="matrix(0.7425,0,0,0.7425,0,0)">
	</g>
	<g transform="matrix(0.7425,0,0,0.7425,2542.32,1094.17)">
	</g>
	<g transform="matrix(0.7425,0,0,0.7425,2542.32,1094.17)">
		<g class="st1">
			<path d="M-2559.9-1087.2v-0.4c0.8,0,1.2-0.2,1.2-0.7c0-0.5-0.5-1.7-0.9-2.7h-4.7c-0.5,1-1,2.3-1,2.7c0,0.4,0.4,0.7,1.2,0.7v0.4
				h-3.6v-0.4c0.7-0.1,1.2-0.4,1.6-1.2l4.4-10.4h0.5l4.1,9.8c0.7,1.6,0.9,1.7,1.7,1.8v0.4H-2559.9z M-2563.9-1091.8h4l-2.1-4.7
				L-2563.9-1091.8z"/>
			<path d="M-2552.2-1091.8h-0.7l2.4-7.4h-2.5c-0.7,0-1.2,0.4-1.5,1.1l-0.2-0.1l0.7-2h4.6L-2552.2-1091.8z"/>
		</g>
	</g>
	<g transform="matrix(0.7425,0,0,0.7425,2542.32,1094.17)">
	</g>
	<g transform="matrix(0.7425,0,0,0.7425,0,0)">
	</g>
	<g transform="matrix(0.7425,0,0,0.7425,0,0)">
		<line vector-effect="none" class="st0" x1="285" y1="521.2" x2="285" y2="553.2"/>
	</g>
	<g transform="matrix(0.7425,0,0,0.7425,0,0)">
		<line vector-effect="none" class="st0" x1="452" y1="521.2" x2="452" y2="553.2"/>
	</g>
	<g transform="matrix(0.7425,0,0,0.7425,0,0)">
		<line vector-effect="none" class="st0" x1="622.8" y1="521.2" x2="622.8" y2="553.2"/>
	</g>
	<g transform="matrix(0.7425,0,0,0.7425,0,0)">
		<line vector-effect="none" class="st0" x1="790" y1="521.2" x2="790" y2="553.2"/>
	</g>
	<g transform="matrix(0.7425,0,0,0.7425,0,0)">
		<line vector-effect="none" class="st0" x1="962.2" y1="521.2" x2="962.2" y2="553.2"/>
	</g>
	<g transform="matrix(0.7425,0,0,0.7425,0,0)">
		<line vector-effect="none" class="st4" x1="967.8" y1="521.2" x2="967.8" y2="553.2"/>
	</g>
	<g transform="matrix(0.7425,0,0,0.7425,0,0)">
	</g>
	<g transform="matrix(0.7425,0,0,0.7425,150.727,1402.31)">
	</g>
	<g transform="matrix(0.7425,0,0,0.7425,150.727,1402.31)">
		<g class="st1">
			<path d="M-147-1398.5h-5v-0.4c1.5,0,1.6-0.3,1.6-1.7v-7.5c0-1.4-0.1-1.7-1.6-1.7v-0.4h5.6c0.8,0,1.7,0.2,2.6,0.5
				c2.5,0.9,3.7,2.7,3.7,5.4C-140-1400.6-142.7-1398.5-147-1398.5z M-147.1-1409.6c-1.4,0-1.4,0.2-1.4,1.6v7.1c0,1.4,0,1.6,1.5,1.6
				c3.3,0,5.1-1.8,5.1-5C-142-1407.5-143.8-1409.6-147.1-1409.6z"/>
			<path d="M-130.9-1398.5v-0.3c0.7,0,1-0.2,1-1.2v-3.7c0-0.9-0.4-1.3-1.2-1.3c-0.6,0-1.3,0.3-1.8,1c0.1,0.1,0.1,0.5,0.1,1.1v1.6
				c0,0.8,0,1.2,0,1.2c0,1.1,0.2,1.3,1,1.3v0.3h-3.4v-0.3c0.7,0,1-0.2,1-1.2v-3.7c0-0.9-0.4-1.3-1.1-1.3c-0.6,0-1.2,0.3-1.8,1v4.1
				c0,0.9,0.3,1.1,1,1.1v0.3h-3.4v-0.3c0.9,0,1-0.3,1-1.3v-4c0-0.4-0.1-0.6-0.3-0.6h-0.8v-0.3l2.4-0.8v1.3c0.7-0.9,1.5-1.3,2.5-1.3
				c0.9,0,1.4,0.4,1.6,1.3c0.8-0.9,1.7-1.3,2.7-1.3c0.5,0,0.9,0.1,1.2,0.4c0.3,0.3,0.6,1.3,0.6,1.8v3.6c0,1.1,0.2,1.3,1,1.3v0.3
				H-130.9z"/>
			<path d="M-124.6-1403.1h-0.7l2.4-7.4h-2.5c-0.7,0-1.2,0.4-1.5,1.1l-0.2-0.1l0.7-2h4.6L-124.6-1403.1z"/>
		</g>
	</g>
	<g transform="matrix(0.7425,0,0,0.7425,150.727,1402.31)">
	</g>
	<g transform="matrix(0.7425,0,0,0.7425,0,0)">
	</g>
	<g transform="matrix(0.7425,0,0,0.7425,502.672,1402.31)">
	</g>
	<g transform="matrix(0.7425,0,0,0.7425,502.672,1402.31)">
		<g class="st1">
			<path d="M-496.5-1406.8h-0.3c-0.7-2.1-2-3.1-3.9-3.1c-2.7,0-4.4,2.2-4.4,5.4c0,3.2,1.9,5.8,4.5,5.8c0.9,0,1.7-0.2,2.4-0.6v-3.4
				c0-1.3-0.2-1.7-1.5-1.7v-0.4h4.5v0.4c-1.2,0-1.3,0.5-1.3,1.7v3.6c-1.3,0.7-2.6,1-4.1,1c-3.7,0-6.5-2.3-6.5-5.9
				c0-3.4,2.6-6.4,6.2-6.4c0.7,0,1.6,0.2,2.7,0.6c0.3,0.1,0.6,0.2,0.6,0.2c0.3,0,0.4-0.2,0.4-0.7h0.3L-496.5-1406.8z"/>
			<path d="M-492-1403.1h-0.7l2.4-7.4h-2.5c-0.7,0-1.2,0.4-1.5,1.1l-0.2-0.1l0.7-2h4.6L-492-1403.1z"/>
		</g>
	</g>
	<g transform="matrix(0.7425,0,0,0.7425,502.672,1402.31)">
	</g>
	<g transform="matrix(0.7425,0,0,0.7425,0,0)">
	</g>
	<g transform="matrix(0.7425,0,0,0.7425,854.617,1402.31)">
	</g>
	<g transform="matrix(0.7425,0,0,0.7425,854.617,1402.31)">
		<g class="st1">
			<path d="M-859.6-1405h2.2c1.1,0,1.4-0.5,1.5-1.6h0.3v4h-0.3c0-1.2-0.4-1.7-1.5-1.7h-2.2v3.7c0,1.5,0.2,1.8,1.7,1.8v0.3h-5v-0.3
				c1.5,0,1.7-0.3,1.7-1.8v-7.6c0-1.5-0.2-1.8-1.7-1.8v-0.3h8.9v2.6h-0.3c-0.4-1.6-1-2-2.6-2h-2.6V-1405z"/>
			<path d="M-848.1-1412.9v3.1l1.2-0.4v2l-1.2,0.4v3.7l1.2-0.4v2l-1.2,0.4v3.4h-0.5v-3.2l-2.1,0.7v3.2h-0.5v-3.1l-1.2,0.4v-2
				l1.2-0.4v-3.7l-1.2,0.4v-2l1.2-0.4v-3.4h0.5v3.2l2.1-0.7v-3.2H-848.1z M-848.6-1407.8l-2.1,0.7v3.7l2.1-0.7V-1407.8z"/>
			<path d="M-840.1-1409.5c0.4,0.6,0.7,1.3,0.7,2.1c0,1.9-1.5,3.4-3.4,3.4c-0.8,0-1.5-0.3-2.1-0.7l-1.4,1.4l-0.7-0.7l1.4-1.4
				c-0.4-0.6-0.6-1.2-0.6-2c0-1.9,1.5-3.4,3.4-3.4c0.7,0,1.4,0.2,2,0.6l1.2-1.2l0.7,0.7L-840.1-1409.5z M-844.8-1406.2l3.3-3.3
				c-0.4-0.2-0.8-0.3-1.2-0.3c-1.3,0-2.4,1.1-2.4,2.4C-845.2-1407-845.1-1406.5-844.8-1406.2z M-840.8-1408.7l-3.3,3.3
				c0.4,0.3,0.9,0.4,1.3,0.4c1.3,0,2.4-1.1,2.4-2.4C-840.4-1407.9-840.6-1408.4-840.8-1408.7z"/>
			<path d="M-835.4-1403.1h-0.7l2.4-7.4h-2.5c-0.7,0-1.2,0.4-1.5,1.1l-0.2-0.1l0.7-2h4.6L-835.4-1403.1z"/>
		</g>
	</g>
	<g transform="matrix(0.7425,0,0,0.7425,854.617,1402.31)">
	</g>
	<g transform="matrix(0.7425,0,0,0.7425,0,0)">
	</g>
	<g transform="matrix(0.7425,0,0,0.7425,1382.53,1402.31)">
	</g>
	<g transform="matrix(0.7425,0,0,0.7425,1382.53,1402.31)">
		<g class="st1">
			<path d="M-1386-1401.8c0,1.9-1.9,3.3-3.7,3.3h-6.5v-0.4c1.5,0,1.6-0.3,1.6-1.7v-7.5c0-1.4-0.1-1.8-1.6-1.8v-0.4h5.9
				c2,0,3.8,1.3,3.8,3.1c0,1.3-0.9,2.2-2.3,2.6C-1387-1404.2-1386-1403-1386-1401.8z M-1388.2-1407.1c0-1.3-1-2.3-2.3-2.3h-1.2
				c-0.9,0-1.1,0.3-1.1,1.3v3.2h2.3C-1389.1-1404.9-1388.2-1405.8-1388.2-1407.1z M-1392.6-1399.5c0.2,0.2,1.2,0.3,1.9,0.3
				c2.3,0,2.8-1.4,2.8-2.6c0-1.4-1.2-2.3-2.6-2.3h-2.3v4C-1392.8-1399.8-1392.7-1399.6-1392.6-1399.5z"/>
			<path d="M-1382.7-1403.1h-0.7l2.4-7.4h-2.5c-0.7,0-1.2,0.4-1.5,1.1l-0.2-0.1l0.7-2h4.6L-1382.7-1403.1z"/>
		</g>
	</g>
	<g transform="matrix(0.7425,0,0,0.7425,1382.53,1402.31)">
	</g>
	<g transform="matrix(0.7425,0,0,0.7425,0,0)">
	</g>
	<g transform="matrix(0.7425,0,0,0.7425,1868.13,1402.31)">
	</g>
	<g transform="matrix(0.7425,0,0,0.7425,1868.13,1402.31)">
		<g class="st1">
			<path d="M-1877.1-1398.5h-9.7v-0.4c1.5,0,1.6-0.3,1.6-1.7v-7.5c0-1.4-0.1-1.7-1.6-1.7v-0.4h9.6v2.7h-0.4
				c-0.1-1.2-0.7-1.8-1.7-1.8h-3.1c-0.8,0-1,0.4-1,1.2v3.3h3.1c1,0,1.7-0.7,1.7-1.7h0.4v4.2h-0.4c0-1-0.7-1.7-1.7-1.7h-3.1v3.7
				c0,0.8,0.2,1.2,1,1.2h3c1.2,0,2.3-1,2.6-2.2h0.5L-1877.1-1398.5z"/>
			<path d="M-1867.1-1398.5v-0.3c0.7,0,1-0.2,1-1.2v-3.7c0-0.9-0.4-1.3-1.2-1.3c-0.6,0-1.3,0.3-1.8,1c0.1,0.1,0.1,0.5,0.1,1.1v1.6
				c0,0.8,0,1.2,0,1.2c0,1.1,0.2,1.3,1,1.3v0.3h-3.4v-0.3c0.7,0,1-0.2,1-1.2v-3.7c0-0.9-0.4-1.3-1.1-1.3c-0.6,0-1.2,0.3-1.8,1v4.1
				c0,0.9,0.3,1.1,1,1.1v0.3h-3.4v-0.3c0.9,0,1-0.3,1-1.3v-4c0-0.4-0.1-0.6-0.3-0.6h-0.8v-0.3l2.4-0.8v1.3c0.7-0.9,1.5-1.3,2.5-1.3
				c0.9,0,1.4,0.4,1.6,1.3c0.8-0.9,1.7-1.3,2.7-1.3c0.5,0,0.9,0.1,1.2,0.4c0.3,0.3,0.6,1.3,0.6,1.8v3.6c0,1.1,0.2,1.3,1,1.3v0.3
				H-1867.1z"/>
		</g>
	</g>
	<g transform="matrix(0.7425,0,0,0.7425,1868.13,1402.31)">
	</g>
	<g transform="matrix(0.7425,0,0,0.7425,0,0)">
	</g>
	<g transform="matrix(0.7425,0,0,0.7425,0,0)">
		<path vector-effect="none" class="st2" d="M643.8,499.2c8.2-15.8,157-15.8,165.2,0"/>
	</g>
	<g transform="matrix(0.7425,0,0,0.7425,0,0)">
		<path vector-effect="none" class="st3" d="M643.8,499.2c8.2-17,157-17,165.2,0C800.8,484.7,652,484.7,643.8,499.2"/>
	</g>
	<g transform="matrix(0.7425,0,0,0.7425,147.757,117.388)">
	</g>
	<g transform="matrix(0.7425,0,0,0.7425,147.757,117.388)">
		<g class="st1">
			<path d="M-138.6-73.8v0.8c0,0.3,0,0.5,0,0.6c0,0.8,0.3,1,1.8,1.1l0.1,0.9h-7.9l0.1-0.9c1-0.1,1.6-0.3,1.8-0.6
				c0.1-0.2,0.1-0.8,0.1-1.9h-6.6v-1.3c2-2.5,3.8-7.1,4.1-10.3h5.5c-0.3,1.5-1.5,3.2-3.4,5.2c-2.2,2.2-3.5,3.8-4,5.1h4.4v-3.7l4-3.6
				v7.3h2v1.4H-138.6z"/>
		</g>
	</g>
	<g transform="matrix(0.7425,0,0,0.7425,147.757,117.388)">
		<g class="st1">
			<path d="M-138.6-57.6v0.8c0,0.3,0,0.5,0,0.6c0,0.8,0.3,1,1.8,1.1l0.1,0.9h-7.9l0.1-0.9c1-0.1,1.6-0.3,1.8-0.6
				c0.1-0.2,0.1-0.8,0.1-1.9h-6.6v-1.3c2-2.5,3.8-7.1,4.1-10.3h5.5c-0.3,1.5-1.5,3.2-3.4,5.2c-2.2,2.2-3.5,3.8-4,5.1h4.4v-3.7l4-3.6
				v7.3h2v1.4H-138.6z"/>
		</g>
	</g>
	<g transform="matrix(0.7425,0,0,0.7425,147.757,117.388)">
	</g>
	<g transform="matrix(0.7425,0,0,0.7425,0,0)">
	</g>
	<g transform="matrix(0.7425,0,0,0.7425,0,0)">
		<line vector-effect="none" class="st5" x1="0" y1="104.4" x2="969.8" y2="104.4"/>
	</g>
	<g transform="matrix(0.7425,0,0,0.7425,0,0)">
		<line vector-effect="none" class="st5" x1="0" y1="96.4" x2="969.8" y2="96.4"/>
	</g>
	<g transform="matrix(0.7425,0,0,0.7425,0,0)">
		<line vector-effect="none" class="st5" x1="0" y1="88.4" x2="969.8" y2="88.4"/>
	</g>
	<g transform="matrix(0.7425,0,0,0.7425,0,0)">
		<line vector-effect="none" class="st5" x1="0" y1="80.4" x2="969.8" y2="80.4"/>
	</g>
	<g transform="matrix(0.7425,0,0,0.7425,0,0)">
		<line vector-effect="none" class="st5" x1="0" y1="72.4" x2="969.8" y2="72.4"/>
	</g>
	<g transform="matrix(0.7425,0,0,0.7425,0,0)">
		<g class="st1">
			<path d="M11.7,95.3c4.7-4.2,7.6-9.8,7.6-14.9c0-4.1-2.3-7.1-6-7.1c-2.6,0-5.4,2.2-5.4,4.4c0,0.4,0.1,0.5,0.2,0.5
				c-0.1,0,0.9-1,2.2-1c1.4,0,2.5,1.3,2.5,2.8c0,2-1.4,3.6-3.4,3.6c-2,0-3.3-2.1-3.3-4.6c0-3.8,3.7-6.7,7.8-6.7
				c7.5,0,9.5,5.2,9.5,9.4c0,2.7-0.7,4.7-3.2,8.6c-3.1,4.9-10.4,8.5-13,8.5c-0.7,0-1-0.3-1-0.7C8.6,97.3,10.4,96.4,11.7,95.3z
				 M27.8,74.8c0.9,0,1.6,0.7,1.6,1.6S28.7,78,27.8,78c-0.9,0-1.6-0.7-1.6-1.6S26.9,74.8,27.8,74.8z M27.8,82.8
				c0.9,0,1.6,0.7,1.6,1.6c0,0.9-0.7,1.6-1.6,1.6c-0.9,0-1.6-0.7-1.6-1.6C26.2,83.5,26.9,82.8,27.8,82.8z"/>
		</g>
	</g>
	<g transform="matrix(0.7425,0,0,0.7425,0,0)">
		<g class="st1">
			<path d="M40.3,69.4V74l1.7-0.5v2.9l-1.7,0.5v5.5l1.7-0.5v2.9l-1.7,0.5v5h-0.8v-4.8l-3.1,1v4.8h-0.8v-4.6L34,87.4v-2.9l1.7-0.5
				v-5.5L34,78.9V76l1.7-0.5v-5h0.8v4.8l3.1-1v-4.8H40.3z M39.5,77.1l-3.1,1v5.5l3.1-1V77.1z"/>
		</g>
	</g>
	<g transform="matrix(0.7425,0,0,0.7425,0,0)">
		<line vector-effect="none" class="st5" x1="0" y1="216.7" x2="969.8" y2="216.7"/>
	</g>
	<g transform="matrix(0.7425,0,0,0.7425,0,0)">
		<line vector-effect="none" class="st5" x1="0" y1="208.7" x2="969.8" y2="208.7"/>
	</g>
	<g transform="matrix(0.7425,0,0,0.7425,0,0)">
		<line vector-effect="none" class="st5" x1="0" y1="200.7" x2="969.8" y2="200.7"/>
	</g>
	<g transform="matrix(0.7425,0,0,0.7425,0,0)">
		<line vector-effect="none" class="st5" x1="0" y1="192.7" x2="969.8" y2="192.7"/>
	</g>
	<g transform="matrix(0.7425,0,0,0.7425,0,0)">
		<line vector-effect="none" class="st5" x1="0" y1="184.7" x2="969.8" y2="184.7"/>
	</g>
	<g transform="matrix(0.7425,0,0,0.7425,0,0)">
		<g class="st1">
			<path d="M11.7,207.5c4.7-4.2,7.6-9.8,7.6-14.9c0-4.1-2.3-7.1-6-7.1c-2.6,0-5.4,2.2-5.4,4.4c0,0.4,0.1,0.5,0.2,0.5
				c-0.1,0,0.9-1,2.2-1c1.4,0,2.5,1.3,2.5,2.8c0,2-1.4,3.6-3.4,3.6c-2,0-3.3-2.1-3.3-4.6c0-3.8,3.7-6.7,7.8-6.7
				c7.5,0,9.5,5.2,9.5,9.4c0,2.7-0.7,4.7-3.2,8.6c-3.1,4.9-10.4,8.5-13,8.5c-0.7,0-1-0.3-1-0.7C8.6,209.6,10.4,208.7,11.7,207.5z
				 M27.8,187.1c0.9,0,1.6,0.7,1.6,1.6s-0.7,1.6-1.6,1.6c-0.9,0-1.6-0.7-1.6-1.6S26.9,187.1,27.8,187.1z M27.8,195
				c0.9,0,1.6,0.7,1.6,1.6c0,0.9-0.7,1.6-1.6,1.6c-0.9,0-1.6-0.7-1.6-1.6C26.2,195.7,26.9,195,27.8,195z"/>
		</g>
	</g>
	<g transform="matrix(0.7425,0,0,0.7425,0,0)">
		<g class="st1">
			<path d="M40.3,181.7v4.6l1.7-0.5v2.9l-1.7,0.5v5.5l1.7-0.5v2.9l-1.7,0.5v5h-0.8v-4.8l-3.1,1v4.8h-0.8v-4.6l-1.7,0.5v-2.9l1.7-0.5
				v-5.5l-1.7,0.5v-2.9l1.7-0.5v-5h0.8v4.8l3.1-1v-4.8H40.3z M39.5,189.4l-3.1,1v5.5l3.1-1V189.4z"/>
		</g>
	</g>
	<g transform="matrix(0.7425,0,0,0.7425,0,0)">
		<line vector-effect="none" class="st5" x1="0" y1="328.7" x2="969.8" y2="328.7"/>
	</g>
	<g transform="matrix(0.7425,0,0,0.7425,0,0)">
		<line vector-effect="none" class="st5" x1="0" y1="320.7" x2="969.8" y2="320.7"/>
	</g>
	<g transform="matrix(0.7425,0,0,0.7425,0,0)">
		<line vector-effect="none" class="st5" x1="0" y1="312.7" x2="969.8" y2="312.7"/>
	</g>
	<g transform="matrix(0.7425,0,0,0.7425,0,0)">
		<line vector-effect="none" class="st5" x1="0" y1="304.7" x2="969.8" y2="304.7"/>
	</g>
	<g transform="matrix(0.7425,0,0,0.7425,0,0)">
		<line vector-effect="none" class="st5" x1="0" y1="296.7" x2="969.8" y2="296.7"/>
	</g>
	<g transform="matrix(0.7425,0,0,0.7425,0,0)">
		<g class="st1">
			<path d="M11.7,319.5c4.7-4.2,7.6-9.8,7.6-14.9c0-4.1-2.3-7.1-6-7.1c-2.6,0-5.4,2.2-5.4,4.4c0,0.4,0.1,0.5,0.2,0.5
				c-0.1,0,0.9-1,2.2-1c1.4,0,2.5,1.3,2.5,2.8c0,2-1.4,3.6-3.4,3.6c-2,0-3.3-2.1-3.3-4.6c0-3.8,3.7-6.7,7.8-6.7
				c7.5,0,9.5,5.2,9.5,9.4c0,2.7-0.7,4.7-3.2,8.6c-3.1,4.9-10.4,8.5-13,8.5c-0.7,0-1-0.3-1-0.7C8.6,321.6,10.4,320.7,11.7,319.5z
				 M27.8,299.1c0.9,0,1.6,0.7,1.6,1.6c0,0.9-0.7,1.6-1.6,1.6c-0.9,0-1.6-0.7-1.6-1.6C26.2,299.8,26.9,299.1,27.8,299.1z M27.8,307
				c0.9,0,1.6,0.7,1.6,1.6c0,0.9-0.7,1.6-1.6,1.6c-0.9,0-1.6-0.7-1.6-1.6C26.2,307.7,26.9,307,27.8,307z"/>
		</g>
	</g>
	<g transform="matrix(0.7425,0,0,0.7425,0,0)">
		<g class="st1">
			<path d="M40.3,293.7v4.6l1.7-0.5v2.9l-1.7,0.5v5.5l1.7-0.5v2.9l-1.7,0.5v5h-0.8v-4.8l-3.1,1v4.8h-0.8v-4.6l-1.7,0.5v-2.9l1.7-0.5
				v-5.5l-1.7,0.5v-2.9l1.7-0.5v-5h0.8v4.8l3.1-1v-4.8H40.3z M39.5,301.4l-3.1,1v5.5l3.1-1V301.4z"/>
		</g>
	</g>
	<g transform="matrix(0.7425,0,0,0.7425,0,0)">
		<line vector-effect="none" class="st5" x1="0" y1="440.9" x2="969.8" y2="440.9"/>
	</g>
	<g transform="matrix(0.7425,0,0,0.7425,0,0)">
		<line vector-effect="none" class="st5" x1="0" y1="432.9" x2="969.8" y2="432.9"/>
	</g>
	<g transform="matrix(0.7425,0,0,0.7425,0,0)">
		<line vector-effect="none" class="st5" x1="0" y1="424.9" x2="969.8" y2="424.9"/>
	</g>
	<g transform="matrix(0.7425,0,0,0.7425,0,0)">
		<line vector-effect="none" class="st5" x1="0" y1="416.9" x2="969.8" y2="416.9"/>
	</g>
	<g transform="matrix(0.7425,0,0,0.7425,0,0)">
		<line vector-effect="none" class="st5" x1="0" y1="408.9" x2="969.8" y2="408.9"/>
	</g>
	<g transform="matrix(0.7425,0,0,0.7425,0,0)">
		<g class="st1">
			<path d="M11.7,431.8c4.7-4.2,7.6-9.8,7.6-14.9c0-4.1-2.3-7.1-6-7.1c-2.6,0-5.4,2.2-5.4,4.4c0,0.4,0.1,0.5,0.2,0.5
				c-0.1,0,0.9-1,2.2-1c1.4,0,2.5,1.3,2.5,2.8c0,2-1.4,3.6-3.4,3.6c-2,0-3.3-2.1-3.3-4.6c0-3.8,3.7-6.7,7.8-6.7
				c7.5,0,9.5,5.2,9.5,9.4c0,2.7-0.7,4.7-3.2,8.6c-3.1,4.9-10.4,8.5-13,8.5c-0.7,0-1-0.3-1-0.7C8.6,433.8,10.4,432.9,11.7,431.8z
				 M27.8,411.3c0.9,0,1.6,0.7,1.6,1.6c0,0.9-0.7,1.6-1.6,1.6c-0.9,0-1.6-0.7-1.6-1.6C26.2,412,26.9,411.3,27.8,411.3z M27.8,419.3
				c0.9,0,1.6,0.7,1.6,1.6c0,0.9-0.7,1.6-1.6,1.6c-0.9,0-1.6-0.7-1.6-1.6C26.2,420,26.9,419.3,27.8,419.3z"/>
		</g>
	</g>
	<g transform="matrix(0.7425,0,0,0.7425,0,0)">
		<g class="st1">
			<path d="M40.3,405.9v4.6l1.7-0.5v2.9l-1.7,0.5v5.5l1.7-0.5v2.9l-1.7,0.5v5h-0.8v-4.8l-3.1,1v4.8h-0.8v-4.6l-1.7,0.5v-2.9l1.7-0.5
				v-5.5l-1.7,0.5v-2.9l1.7-0.5v-5h0.8v4.8l3.1-1v-4.8H40.3z M39.5,413.6l-3.1,1v5.5l3.1-1V413.6z"/>
		</g>
	</g>
	<g transform="matrix(0.7425,0,0,0.7425,0,0)">
		<line vector-effect="none" class="st5" x1="0" y1="553.2" x2="969.8" y2="553.2"/>
	</g>
	<g transform="matrix(0.7425,0,0,0.7425,0,0)">
		<line vector-effect="none" class="st5" x1="0" y1="545.2" x2="969.8" y2="545.2"/>
	</g>
	<g transform="matrix(0.7425,0,0,0.7425,0,0)">
		<line vector-effect="none" class="st5" x1="0" y1="537.2" x2="969.8" y2="537.2"/>
	</g>
	<g transform="matrix(0.7425,0,0,0.7425,0,0)">
		<line vector-effect="none" class="st5" x1="0" y1="529.2" x2="969.8" y2="529.2"/>
	</g>
	<g transform="matrix(0.7425,0,0,0.7425,0,0)">
		<line vector-effect="none" class="st5" x1="0" y1="521.2" x2="969.8" y2="521.2"/>
	</g>
	<g transform="matrix(0.7425,0,0,0.7425,0,0)">
		<g class="st1">
			<path d="M11.7,544c4.7-4.2,7.6-9.8,7.6-14.9c0-4.1-2.3-7.1-6-7.1c-2.6,0-5.4,2.2-5.4,4.4c0,0.4,0.1,0.5,0.2,0.5
				c-0.1,0,0.9-1,2.2-1c1.4,0,2.5,1.3,2.5,2.8c0,2-1.4,3.6-3.4,3.6c-2,0-3.3-2.1-3.3-4.6c0-3.8,3.7-6.7,7.8-6.7
				c7.5,0,9.5,5.2,9.5,9.4c0,2.7-0.7,4.7-3.2,8.6c-3.1,4.9-10.4,8.5-13,8.5c-0.7,0-1-0.3-1-0.7C8.6,546.1,10.4,545.2,11.7,544z
				 M27.8,523.6c0.9,0,1.6,0.7,1.6,1.6c0,0.9-0.7,1.6-1.6,1.6c-0.9,0-1.6-0.7-1.6-1.6C26.2,524.3,26.9,523.6,27.8,523.6z
				 M27.8,531.5c0.9,0,1.6,0.7,1.6,1.6c0,0.9-0.7,1.6-1.6,1.6c-0.9,0-1.6-0.7-1.6-1.6C26.2,532.2,26.9,531.5,27.8,531.5z"/>
		</g>
	</g>
	<g transform="matrix(0.7425,0,0,0.7425,0,0)">
		<g class="st1">
			<path d="M40.3,518.2v4.6l1.7-0.5v2.9l-1.7,0.5v5.5l1.7-0.5v2.9l-1.7,0.5v5h-0.8v-4.8l-3.1,1v4.8h-0.8v-4.6l-1.7,0.5v-2.9l1.7-0.5
				v-5.5l-1.7,0.5v-2.9l1.7-0.5v-5h0.8v4.8l3.1-1v-4.8H40.3z M39.5,525.9l-3.1,1v5.5l3.1-1V525.9z"/>
		</g>
	</g>
	<g transform="matrix(0.7425,0,0,0.7425,0,0)">
		<g class="st1">
			<path d="M82.6,72.1c3.6,0,7.3,1.9,7.3,4.3c0,2.7-3.1,4.3-7.6,4.3c-4.1,0-7.3-1.7-7.3-4.3C75,73.8,78.7,72.1,82.6,72.1z
				 M85.7,75.5c-1-1.9-2-2.7-4.2-2.7c-2,0-3.1,0.8-3.1,2.5c0,2.4,2.2,4.8,4.2,4.8c1.9,0,3.4-0.2,3.8-2
				C86.5,77.3,86.2,76.5,85.7,75.5z"/>
		</g>
	</g>
	<g transform="matrix(0.7425,0,0,0.7425,0,0)">
		<g class="st1">
			<path d="M263.9,76.1c3.6,0,7.3,1.9,7.3,4.3c0,2.7-3.1,4.3-7.6,4.3c-4.1,0-7.3-1.7-7.3-4.3C256.2,77.8,260,76.1,263.9,76.1z
				 M267,79.5c-1-1.9-2-2.7-4.2-2.7c-2,0-3.1,0.8-3.1,2.5c0,2.4,2.2,4.8,4.2,4.8c1.9,0,3.4-0.2,3.8-2
				C267.7,81.3,267.4,80.5,267,79.5z"/>
		</g>
	</g>
	<g transform="matrix(0.7425,0,0,0.7425,0,0)">
		<g class="st1">
			<path d="M445.4,72.1c3.6,0,7.3,1.9,7.3,4.3c0,2.7-3.1,4.3-7.6,4.3c-4.1,0-7.3-1.7-7.3-4.3C437.7,73.8,441.5,72.1,445.4,72.1z
				 M448.5,75.5c-1-1.9-2-2.7-4.2-2.7c-2,0-3.1,0.8-3.1,2.5c0,2.4,2.2,4.8,4.2,4.8c1.9,0,3.4-0.2,3.8-2
				C449.2,77.3,448.9,76.5,448.5,75.5z"/>
		</g>
	</g>
	<g transform="matrix(0.7425,0,0,0.7425,0,0)">
		<g class="st1">
			<path d="M626.6,72.1c3.6,0,7.3,1.9,7.3,4.3c0,2.7-3.1,4.3-7.6,4.3c-4.1,0-7.3-1.7-7.3-4.3C619,73.8,622.7,72.1,626.6,72.1z
				 M629.7,75.5c-1-1.9-2-2.7-4.2-2.7c-2,0-3.1,0.8-3.1,2.5c0,2.4,2.2,4.8,4.2,4.8c1.9,0,3.4-0.2,3.8-2
				C630.5,77.3,630.2,76.5,629.7,75.5z"/>
		</g>
	</g>
	<g transform="matrix(0.7425,0,0,0.7425,0,0)">
		<line vector-effect="none" class="st0" x1="796.5" y1="64.4" x2="819.5" y2="64.4"/>
	</g>
	<g transform="matrix(0.7425,0,0,0.7425,0,0)">
		<line vector-effect="none" class="st0" x1="796.5" y1="56.4" x2="819.5" y2="56.4"/>
	</g>
	<g transform="matrix(0.7425,0,0,0.7425,0,0)">
		<g class="st1">
			<path d="M808.1,52.1c3.6,0,7.3,1.9,7.3,4.3c0,2.7-3.1,4.3-7.6,4.3c-4.1,0-7.3-1.7-7.3-4.3C800.5,53.8,804.2,52.1,808.1,52.1z
				 M811.2,55.5c-1-1.9-2-2.7-4.2-2.7c-2,0-3.1,0.8-3.1,2.5c0,2.4,2.2,4.8,4.2,4.8c1.9,0,3.4-0.2,3.8-2
				C812,57.3,811.7,56.5,811.2,55.5z"/>
		</g>
	</g>
	<g transform="matrix(0.7425,0,0,0.7425,0,0)">
		<line vector-effect="none" class="st0" x1="59.8" y1="176.7" x2="82.8" y2="176.7"/>
	</g>
	<g transform="matrix(0.7425,0,0,0.7425,0,0)">
		<g class="st1">
			<path d="M71.4,168.3c3.6,0,7.3,1.9,7.3,4.3c0,2.7-3.1,4.3-7.6,4.3c-4.1,0-7.3-1.7-7.3-4.3C63.8,170.1,67.5,168.3,71.4,168.3z
				 M74.5,171.8c-1-1.9-2-2.7-4.2-2.7c-2,0-3.1,0.8-3.1,2.5c0,2.4,2.2,4.8,4.2,4.8c1.9,0,3.4-0.2,3.8-2
				C75.2,173.6,74.9,172.7,74.5,171.8z"/>
		</g>
	</g>
	<g transform="matrix(0.7425,0,0,0.7425,0,0)">
		<g class="st1">
			<path d="M56.8,161.7v4.6l1.7-0.5v2.9l-1.7,0.5v5.5l1.7-0.5v2.9l-1.7,0.5v5H56v-4.8l-3.1,1v4.8h-0.8v-4.6l-1.7,0.5v-2.9l1.7-0.5
				v-5.5l-1.7,0.5v-2.9l1.7-0.5v-5H53v4.8l3.1-1v-4.8H56.8z M56,169.4l-3.1,1v5.5l3.1-1V169.4z"/>
		</g>
	</g>
	<g transform="matrix(0.7425,0,0,0.7425,0,0)">
		<line vector-effect="none" class="st0" x1="209" y1="176.7" x2="232" y2="176.7"/>
	</g>
	<g transform="matrix(0.7425,0,0,0.7425,0,0)">
		<line vector-effect="none" class="st0" x1="209" y1="168.7" x2="232" y2="168.7"/>
	</g>
	<g transform="matrix(0.7425,0,0,0.7425,0,0)">
		<g class="st1">
			<path d="M220.6,164.3c3.6,0,7.3,1.9,7.3,4.3c0,2.7-3.1,4.3-7.6,4.3c-4.1,0-7.3-1.7-7.3-4.3C213,166.1,216.7,164.3,220.6,164.3z
				 M223.7,167.8c-1-1.9-2-2.7-4.2-2.7c-2,0-3.1,0.8-3.1,2.5c0,2.4,2.2,4.8,4.2,4.8c1.9,0,3.4-0.2,3.8-2
				C224.5,169.6,224.2,168.7,223.7,167.8z"/>
		</g>
	</g>
	<g transform="matrix(0.7425,0,0,0.7425,0,0)">
		<line vector-effect="none" class="st0" x1="358.5" y1="176.7" x2="381.5" y2="176.7"/>
	</g>
	<g transform="matrix(0.7425,0,0,0.7425,0,0)">
		<line vector-effect="none" class="st0" x1="358.5" y1="168.7" x2="381.5" y2="168.7"/>
	</g>
	<g transform="matrix(0.7425,0,0,0.7425,0,0)">
		<g class="st1">
			<path d="M370.1,164.3c3.6,0,7.3,1.9,7.3,4.3c0,2.7-3.1,4.3-7.6,4.3c-4.1,0-7.3-1.7-7.3-4.3C362.5,166.1,366.2,164.3,370.1,164.3z
				 M373.2,167.8c-1-1.9-2-2.7-4.2-2.7c-2,0-3.1,0.8-3.1,2.5c0,2.4,2.2,4.8,4.2,4.8c1.9,0,3.4-0.2,3.8-2
				C374,169.6,373.7,168.7,373.2,167.8z"/>
		</g>
	</g>
	<g transform="matrix(0.7425,0,0,0.7425,0,0)">
		<line vector-effect="none" class="st0" x1="529.8" y1="176.7" x2="552.8" y2="176.7"/>
	</g>
	<g transform="matrix(0.7425,0,0,0.7425,0,0)">
		<g class="st1">
			<path d="M541.4,168.3c3.6,0,7.3,1.9,7.3,4.3c0,2.7-3.1,4.3-7.6,4.3c-4.1,0-7.3-1.7-7.3-4.3C533.8,170.1,537.5,168.3,541.4,168.3z
				 M544.5,171.8c-1-1.9-2-2.7-4.2-2.7c-2,0-3.1,0.8-3.1,2.5c0,2.4,2.2,4.8,4.2,4.8c1.9,0,3.4-0.2,3.8-2
				C545.2,173.6,544.9,172.7,544.5,171.8z"/>
		</g>
	</g>
	<g transform="matrix(0.7425,0,0,0.7425,0,0)">
		<g class="st1">
			<path d="M526.8,161.7v4.6l1.7-0.5v2.9l-1.7,0.5v5.5l1.7-0.5v2.9l-1.7,0.5v5H526v-4.8l-3.1,1v4.8h-0.8v-4.6l-1.7,0.5v-2.9l1.7-0.5
				v-5.5l-1.7,0.5v-2.9l1.7-0.5v-5h0.8v4.8l3.1-1v-4.8H526.8z M526,169.4l-3.1,1v5.5l3.1-1V169.4z"/>
		</g>
	</g>
	<g transform="matrix(0.7425,0,0,0.7425,0,0)">
		<line vector-effect="none" class="st0" x1="679" y1="176.7" x2="702" y2="176.7"/>
	</g>
	<g transform="matrix(0.7425,0,0,0.7425,0,0)">
		<line vector-effect="none" class="st0" x1="679" y1="168.7" x2="702" y2="168.7"/>
	</g>
	<g transform="matrix(0.7425,0,0,0.7425,0,0)">
		<g class="st1">
			<path d="M690.6,164.3c3.6,0,7.3,1.9,7.3,4.3c0,2.7-3.1,4.3-7.6,4.3c-4.1,0-7.3-1.7-7.3-4.3C683,166.1,686.7,164.3,690.6,164.3z
				 M693.7,167.8c-1-1.9-2-2.7-4.2-2.7c-2,0-3.1,0.8-3.1,2.5c0,2.4,2.2,4.8,4.2,4.8c1.9,0,3.4-0.2,3.8-2
				C694.5,169.6,694.2,168.7,693.7,167.8z"/>
		</g>
	</g>
	<g transform="matrix(0.7425,0,0,0.7425,0,0)">
		<line vector-effect="none" class="st0" x1="828.5" y1="176.7" x2="851.5" y2="176.7"/>
	</g>
	<g transform="matrix(0.7425,0,0,0.7425,0,0)">
		<line vector-effect="none" class="st0" x1="828.5" y1="168.7" x2="851.5" y2="168.7"/>
	</g>
	<g transform="matrix(0.7425,0,0,0.7425,0,0)">
		<g class="st1">
			<path d="M840.1,164.3c3.6,0,7.3,1.9,7.3,4.3c0,2.7-3.1,4.3-7.6,4.3c-4.1,0-7.3-1.7-7.3-4.3C832.5,166.1,836.2,164.3,840.1,164.3z
				 M843.2,167.8c-1-1.9-2-2.7-4.2-2.7c-2,0-3.1,0.8-3.1,2.5c0,2.4,2.2,4.8,4.2,4.8c1.9,0,3.4-0.2,3.8-2
				C844,169.6,843.7,168.7,843.2,167.8z"/>
		</g>
	</g>
	<g transform="matrix(0.7425,0,0,0.7425,0,0)">
		<line vector-effect="none" class="st0" x1="56" y1="288.7" x2="79" y2="288.7"/>
	</g>
	<g transform="matrix(0.7425,0,0,0.7425,0,0)">
		<line vector-effect="none" class="st0" x1="56" y1="280.7" x2="79" y2="280.7"/>
	</g>
	<g transform="matrix(0.7425,0,0,0.7425,0,0)">
		<g class="st1">
			<path d="M67.6,276.3c3.6,0,7.3,1.9,7.3,4.3c0,2.7-3.1,4.3-7.6,4.3c-4.1,0-7.3-1.7-7.3-4.3C60,278.1,63.7,276.3,67.6,276.3z
				 M70.7,279.8c-1-1.9-2-2.7-4.2-2.7c-2,0-3.1,0.8-3.1,2.5c0,2.4,2.2,4.8,4.2,4.8c1.9,0,3.4-0.2,3.8-2
				C71.5,281.6,71.2,280.7,70.7,279.8z"/>
		</g>
	</g>
	<g transform="matrix(0.7425,0,0,0.7425,0,0)">
		<line vector-effect="none" class="st0" x1="212.8" y1="288.7" x2="235.8" y2="288.7"/>
	</g>
	<g transform="matrix(0.7425,0,0,0.7425,0,0)">
		<g class="st1">
			<path d="M224.4,280.3c3.6,0,7.3,1.9,7.3,4.3c0,2.7-3.1,4.3-7.6,4.3c-4.1,0-7.3-1.7-7.3-4.3C216.8,282.1,220.5,280.3,224.4,280.3z
				 M227.5,283.8c-1-1.9-2-2.7-4.2-2.7c-2,0-3.1,0.8-3.1,2.5c0,2.4,2.2,4.8,4.2,4.8c1.9,0,3.4-0.2,3.8-2
				C228.2,285.6,227.9,284.7,227.5,283.8z"/>
		</g>
	</g>
	<g transform="matrix(0.7425,0,0,0.7425,0,0)">
		<g class="st1">
			<path d="M209.8,273.7v4.6l1.7-0.5v2.9l-1.7,0.5v5.5l1.7-0.5v2.9l-1.7,0.5v5H209v-4.8l-3.1,1v4.8h-0.8v-4.6l-1.7,0.5v-2.9l1.7-0.5
				v-5.5l-1.7,0.5v-2.9l1.7-0.5v-5h0.8v4.8l3.1-1v-4.8H209.8z M209,281.4l-3.1,1v5.5l3.1-1V281.4z"/>
		</g>
	</g>
	<g transform="matrix(0.7425,0,0,0.7425,0,0)">
		<line vector-effect="none" class="st0" x1="365.8" y1="288.7" x2="388.8" y2="288.7"/>
	</g>
	<g transform="matrix(0.7425,0,0,0.7425,0,0)">
		<line vector-effect="none" class="st0" x1="365.8" y1="280.7" x2="388.8" y2="280.7"/>
	</g>
	<g transform="matrix(0.7425,0,0,0.7425,0,0)">
		<g class="st1">
			<path d="M377.4,276.3c3.6,0,7.3,1.9,7.3,4.3c0,2.7-3.1,4.3-7.6,4.3c-4.1,0-7.3-1.7-7.3-4.3C369.8,278.1,373.5,276.3,377.4,276.3z
				 M380.5,279.8c-1-1.9-2-2.7-4.2-2.7c-2,0-3.1,0.8-3.1,2.5c0,2.4,2.2,4.8,4.2,4.8c1.9,0,3.4-0.2,3.8-2
				C381.2,281.6,380.9,280.7,380.5,279.8z"/>
		</g>
	</g>
	<g transform="matrix(0.7425,0,0,0.7425,0,0)">
		<line vector-effect="none" class="st0" x1="518.8" y1="288.7" x2="541.8" y2="288.7"/>
	</g>
	<g transform="matrix(0.7425,0,0,0.7425,0,0)">
		<line vector-effect="none" class="st0" x1="518.8" y1="280.7" x2="541.8" y2="280.7"/>
	</g>
	<g transform="matrix(0.7425,0,0,0.7425,0,0)">
		<g class="st1">
			<path d="M530.4,276.3c3.6,0,7.3,1.9,7.3,4.3c0,2.7-3.1,4.3-7.6,4.3c-4.1,0-7.3-1.7-7.3-4.3C522.7,278.1,526.5,276.3,530.4,276.3z
				 M533.5,279.8c-1-1.9-2-2.7-4.2-2.7c-2,0-3.1,0.8-3.1,2.5c0,2.4,2.2,4.8,4.2,4.8c1.9,0,3.4-0.2,3.8-2
				C534.2,281.6,533.9,280.7,533.5,279.8z"/>
		</g>
	</g>
	<g transform="matrix(0.7425,0,0,0.7425,0,0)">
		<g class="st1">
			<path d="M683.4,296.3c3.6,0,7.3,1.9,7.3,4.3c0,2.7-3.1,4.3-7.6,4.3c-4.1,0-7.3-1.7-7.3-4.3C675.7,298.1,679.5,296.3,683.4,296.3z
				 M686.5,299.8c-1-1.9-2-2.7-4.2-2.7c-2,0-3.1,0.8-3.1,2.5c0,2.4,2.2,4.8,4.2,4.8c1.9,0,3.4-0.2,3.8-2
				C687.2,301.6,686.9,300.7,686.5,299.8z"/>
		</g>
	</g>
	<g transform="matrix(0.7425,0,0,0.7425,0,0)">
		<g class="st1">
			<path d="M836.4,300.3c3.6,0,7.3,1.9,7.3,4.3c0,2.7-3.1,4.3-7.6,4.3c-4.1,0-7.3-1.7-7.3-4.3C828.7,302.1,832.5,300.3,836.4,300.3z
				 M839.5,303.8c-1-1.9-2-2.7-4.2-2.7c-2,0-3.1,0.8-3.1,2.5c0,2.4,2.2,4.8,4.2,4.8c1.9,0,3.4-0.2,3.8-2
				C840.2,305.6,839.9,304.7,839.5,303.8z"/>
		</g>
	</g>
	<g transform="matrix(0.7425,0,0,0.7425,0,0)">
		<g class="st1">
			<path d="M67.6,408.6c3.6,0,7.3,1.9,7.3,4.3c0,2.7-3.1,4.3-7.6,4.3c-4.1,0-7.3-1.7-7.3-4.3C60,410.3,63.7,408.6,67.6,408.6z
				 M70.7,412c-1-1.9-2-2.7-4.2-2.7c-2,0-3.1,0.8-3.1,2.5c0,2.4,2.2,4.8,4.2,4.8c1.9,0,3.4-0.2,3.8-2C71.5,413.8,71.2,413,70.7,412z
				"/>
		</g>
	</g>
	<g transform="matrix(0.7425,0,0,0.7425,0,0)">
		<g class="st1">
			<path d="M233.4,408.6c3.6,0,7.3,1.9,7.3,4.3c0,2.7-3.1,4.3-7.6,4.3c-4.1,0-7.3-1.7-7.3-4.3C225.8,410.3,229.5,408.6,233.4,408.6z
				 M236.5,412c-1-1.9-2-2.7-4.2-2.7c-2,0-3.1,0.8-3.1,2.5c0,2.4,2.2,4.8,4.2,4.8c1.9,0,3.4-0.2,3.8-2
				C237.2,413.8,236.9,413,236.5,412z"/>
		</g>
	</g>
	<g transform="matrix(0.7425,0,0,0.7425,0,0)">
		<line vector-effect="none" class="st0" x1="387.5" y1="400.9" x2="410.5" y2="400.9"/>
	</g>
	<g transform="matrix(0.7425,0,0,0.7425,0,0)">
		<line vector-effect="none" class="st0" x1="387.5" y1="392.9" x2="410.5" y2="392.9"/>
	</g>
	<g transform="matrix(0.7425,0,0,0.7425,0,0)">
		<g class="st1">
			<path d="M399.1,388.6c3.6,0,7.3,1.9,7.3,4.3c0,2.7-3.1,4.3-7.6,4.3c-4.1,0-7.3-1.7-7.3-4.3C391.5,390.3,395.2,388.6,399.1,388.6z
				 M402.2,392c-1-1.9-2-2.7-4.2-2.7c-2,0-3.1,0.8-3.1,2.5c0,2.4,2.2,4.8,4.2,4.8c1.9,0,3.4-0.2,3.8-2
				C403,393.8,402.7,393,402.2,392z"/>
		</g>
	</g>
	<g transform="matrix(0.7425,0,0,0.7425,0,0)">
		<line vector-effect="none" class="st0" x1="557" y1="400.9" x2="580" y2="400.9"/>
	</g>
	<g transform="matrix(0.7425,0,0,0.7425,0,0)">
		<g class="st1">
			<path d="M568.6,392.6c3.6,0,7.3,1.9,7.3,4.3c0,2.7-3.1,4.3-7.6,4.3c-4.1,0-7.3-1.7-7.3-4.3C561,394.3,564.7,392.6,568.6,392.6z
				 M571.7,396c-1-1.9-2-2.7-4.2-2.7c-2,0-3.1,0.8-3.1,2.5c0,2.4,2.2,4.8,4.2,4.8c1.9,0,3.4-0.2,3.8-2
				C572.5,397.8,572.2,397,571.7,396z"/>
		</g>
	</g>
	<g transform="matrix(0.7425,0,0,0.7425,0,0)">
		<g class="st1">
			<path d="M554.1,385.9v4.6l1.7-0.5v2.9l-1.7,0.5v5.5l1.7-0.5v2.9l-1.7,0.5v5h-0.8v-4.8l-3.1,1v4.8h-0.8v-4.6l-1.7,0.5v-2.9
				l1.7-0.5v-5.5l-1.7,0.5v-2.9l1.7-0.5v-5h0.8v4.8l3.1-1v-4.8H554.1z M553.3,393.6l-3.1,1v5.5l3.1-1V393.6z"/>
		</g>
	</g>
	<g transform="matrix(0.7425,0,0,0.7425,0,0)">
		<line vector-effect="none" class="st0" x1="723.8" y1="400.9" x2="740.8" y2="400.9"/>
	</g>
	<g transform="matrix(0.7425,0,0,0.7425,0,0)">
		<line vector-effect="none" class="st0" x1="723.8" y1="392.9" x2="740.8" y2="392.9"/>
	</g>
	<g transform="matrix(0.7425,0,0,0.7425,0,0)">
		<line vector-effect="none" class="st5" x1="727" y1="394.2" x2="727" y2="424.9"/>
	</g>
	<g transform="matrix(0.7425,0,0,0.7425,0,0)">
		<g class="st1">
			<path d="M726.7,394.3c0-2.9,4.1-5.6,7.3-5.6c2.1,0,3.6,1.1,3.6,2.8c0,2.8-4.1,5.6-7.4,5.6C728.3,397.1,726.7,396.1,726.7,394.3z"
				/>
		</g>
	</g>
	<g transform="matrix(0.7425,0,0,0.7425,0,0)">
		<line vector-effect="none" class="st0" x1="789.5" y1="400.9" x2="806.5" y2="400.9"/>
	</g>
	<g transform="matrix(0.7425,0,0,0.7425,0,0)">
		<line vector-effect="none" class="st5" x1="792.8" y1="398.2" x2="792.8" y2="424.9"/>
	</g>
	<g transform="matrix(0.7425,0,0,0.7425,0,0)">
		<g class="st1">
			<path d="M792.5,398.3c0-2.9,4.1-5.6,7.3-5.6c2.1,0,3.6,1.1,3.6,2.8c0,2.8-4.1,5.6-7.4,5.6C794.1,401.1,792.5,400.1,792.5,398.3z"
				/>
		</g>
	</g>
	<g transform="matrix(0.7425,0,0,0.7425,0,0)">
		<g class="st1">
			<path d="M787.4,407.8v-6.4l-4.9,1.7v-17.2h0.8v6.4l4.9-1.7v17.2H787.4z M783.3,400.3l4.1-1.5v-5.4l-4.1,1.5V400.3z"/>
		</g>
	</g>
	<g transform="matrix(0.7425,0,0,0.7425,0,0)">
		<line vector-effect="none" class="st0" x1="855.2" y1="400.9" x2="872.5" y2="400.9"/>
	</g>
	<g transform="matrix(0.7425,0,0,0.7425,0,0)">
		<line vector-effect="none" class="st5" x1="858.5" y1="402.2" x2="858.5" y2="428.9"/>
	</g>
	<g transform="matrix(0.7425,0,0,0.7425,0,0)">
		<g class="st1">
			<path d="M865.1,396.6c2.7,0,4.4,1.2,4.4,3.2c0,3-3.7,5.4-7.3,5.4c-2.2,0-3.9-1.1-3.9-2.8C858.3,399.4,861.9,396.6,865.1,396.6z
				 M859,402.8c0,1,0.6,1.5,1.8,1.5c2.3,0,8-3.4,8-5.2c0-1-0.6-1.5-1.8-1.5C864.9,397.5,859,400.8,859,402.8z"/>
		</g>
	</g>
	<g transform="matrix(0.7425,0,0,0.7425,0,0)">
		<g class="st1">
			<path d="M852.3,389.9v4.6l1.7-0.5v2.9l-1.7,0.5v5.5l1.7-0.5v2.9l-1.7,0.5v5h-0.8v-4.8l-3.1,1v4.8h-0.8v-4.6l-1.7,0.5v-2.9
				l1.7-0.5v-5.5l-1.7,0.5v-2.9l1.7-0.5v-5h0.8v4.8l3.1-1v-4.8H852.3z M851.5,397.6l-3.1,1v5.5l3.1-1V397.6z"/>
		</g>
	</g>
	<g transform="matrix(0.7425,0,0,0.7425,0,0)">
		<line vector-effect="none" class="st0" x1="57.5" y1="513.2" x2="74.8" y2="513.2"/>
	</g>
	<g transform="matrix(0.7425,0,0,0.7425,0,0)">
		<line vector-effect="none" class="st5" x1="60.8" y1="514.4" x2="60.8" y2="541.2"/>
	</g>
	<g transform="matrix(0.7425,0,0,0.7425,0,0)">
		<g class="st1">
			<path d="M67.4,508.8c2.7,0,4.4,1.2,4.4,3.2c0,3-3.7,5.4-7.3,5.4c-2.2,0-3.9-1.1-3.9-2.8C60.5,511.7,64.1,508.8,67.4,508.8z
				 M61.2,515c0,1,0.6,1.5,1.8,1.5c2.3,0,8-3.4,8-5.2c0-1-0.6-1.5-1.8-1.5C67.2,509.8,61.2,513,61.2,515z"/>
		</g>
	</g>
	<g transform="matrix(0.7425,0,0,0.7425,0,0)">
		<g class="st1">
			<path d="M55.4,524.1v-6.4l-4.9,1.7v-17.2h0.8v6.4l4.9-1.7v17.2H55.4z M51.3,516.6l4.1-1.5v-5.4l-4.1,1.5V516.6z"/>
		</g>
	</g>
	<g transform="matrix(0.7425,0,0,0.7425,0,0)">
		<line vector-effect="none" class="st5" x1="173.2" y1="518.4" x2="173.2" y2="545.2"/>
	</g>
	<g transform="matrix(0.7425,0,0,0.7425,0,0)">
		<g class="st1">
			<path d="M179.9,512.8c2.7,0,4.4,1.2,4.4,3.2c0,3-3.7,5.4-7.3,5.4c-2.2,0-3.9-1.1-3.9-2.8C173,515.7,176.6,512.8,179.9,512.8z
				 M173.7,519c0,1,0.6,1.5,1.8,1.5c2.3,0,8-3.4,8-5.2c0-1-0.6-1.5-1.8-1.5C179.7,513.8,173.7,517,173.7,519z"/>
		</g>
	</g>
	<g transform="matrix(0.7425,0,0,0.7425,0,0)">
		<line vector-effect="none" class="st0" x1="293.5" y1="513.2" x2="316.5" y2="513.2"/>
	</g>
	<g transform="matrix(0.7425,0,0,0.7425,0,0)">
		<line vector-effect="none" class="st0" x1="293.5" y1="505.2" x2="316.5" y2="505.2"/>
	</g>
	<g transform="matrix(0.7425,0,0,0.7425,0,0)">
		<g class="st1">
			<path d="M305.1,500.8c3.6,0,7.3,1.9,7.3,4.3c0,2.7-3.1,4.3-7.6,4.3c-4.1,0-7.3-1.7-7.3-4.3C297.5,502.6,301.2,500.8,305.1,500.8z
				 M308.2,504.3c-1-1.9-2-2.7-4.2-2.7c-2,0-3.1,0.8-3.1,2.5c0,2.4,2.2,4.8,4.2,4.8c1.9,0,3.4-0.2,3.8-2
				C309,506.1,308.7,505.2,308.2,504.3z"/>
		</g>
	</g>
	<g transform="matrix(0.7425,0,0,0.7425,0,0)">
		<line vector-effect="none" class="st0" x1="464.2" y1="513.2" x2="487.2" y2="513.2"/>
	</g>
	<g transform="matrix(0.7425,0,0,0.7425,0,0)">
		<g class="st1">
			<path d="M475.9,504.8c3.6,0,7.3,1.9,7.3,4.3c0,2.7-3.1,4.3-7.6,4.3c-4.1,0-7.3-1.7-7.3-4.3C468.3,506.6,472,504.8,475.9,504.8z
				 M479,508.3c-1-1.9-2-2.7-4.2-2.7c-2,0-3.1,0.8-3.1,2.5c0,2.4,2.2,4.8,4.2,4.8c1.9,0,3.4-0.2,3.8-2
				C479.7,510.1,479.4,509.2,479,508.3z"/>
		</g>
	</g>
	<g transform="matrix(0.7425,0,0,0.7425,0,0)">
		<g class="st1">
			<path d="M461.3,498.2v4.6l1.7-0.5v2.9l-1.7,0.5v5.5l1.7-0.5v2.9l-1.7,0.5v5h-0.8v-4.8l-3.1,1v4.8h-0.8v-4.6l-1.7,0.5v-2.9
				l1.7-0.5v-5.5l-1.7,0.5v-2.9l1.7-0.5v-5h0.8v4.8l3.1-1v-4.8H461.3z M460.5,505.9l-3.1,1v5.5l3.1-1V505.9z"/>
		</g>
	</g>
	<g transform="matrix(0.7425,0,0,0.7425,0,0)">
		<line vector-effect="none" class="st0" x1="631.2" y1="513.2" x2="654.2" y2="513.2"/>
	</g>
	<g transform="matrix(0.7425,0,0,0.7425,0,0)">
		<line vector-effect="none" class="st0" x1="631.2" y1="505.2" x2="654.2" y2="505.2"/>
	</g>
	<g transform="matrix(0.7425,0,0,0.7425,0,0)">
		<g class="st1">
			<path d="M642.9,500.8c3.6,0,7.3,1.9,7.3,4.3c0,2.7-3.1,4.3-7.6,4.3c-4.1,0-7.3-1.7-7.3-4.3C635.2,502.6,639,500.8,642.9,500.8z
				 M646,504.3c-1-1.9-2-2.7-4.2-2.7c-2,0-3.1,0.8-3.1,2.5c0,2.4,2.2,4.8,4.2,4.8c1.9,0,3.4-0.2,3.8-2
				C646.7,506.1,646.4,505.2,646,504.3z"/>
		</g>
	</g>
	<g transform="matrix(0.7425,0,0,0.7425,0,0)">
		<line vector-effect="none" class="st0" x1="798.5" y1="513.2" x2="821.5" y2="513.2"/>
	</g>
	<g transform="matrix(0.7425,0,0,0.7425,0,0)">
		<line vector-effect="none" class="st0" x1="798.5" y1="505.2" x2="821.5" y2="505.2"/>
	</g>
	<g transform="matrix(0.7425,0,0,0.7425,0,0)">
		<g class="st1">
			<path d="M810.1,500.8c3.6,0,7.3,1.9,7.3,4.3c0,2.7-3.1,4.3-7.6,4.3c-4.1,0-7.3-1.7-7.3-4.3C802.5,502.6,806.2,500.8,810.1,500.8z
				 M813.2,504.3c-1-1.9-2-2.7-4.2-2.7c-2,0-3.1,0.8-3.1,2.5c0,2.4,2.2,4.8,4.2,4.8c1.9,0,3.4-0.2,3.8-2
				C814,506.1,813.7,505.2,813.2,504.3z"/>
		</g>
	</g>
</g>
</svg>
