<?xml version="1.0" encoding="utf-8"?>
<!-- Generator: Adobe Illustrator 26.3.1, SVG Export Plug-In . SVG Version: 6.00 Build 0)  -->
<svg version="1.1" id="Layer_1" xmlns="http://www.w3.org/2000/svg" xmlns:xlink="http://www.w3.org/1999/xlink" x="0px" y="0px"
	 viewBox="0 0 720 432" style="enable-background:new 0 0 720 432;" xml:space="preserve">
<style type="text/css">
	.st0{fill:none;stroke:#000000;stroke-width:0.9281;stroke-linejoin:bevel;stroke-miterlimit:10;}
	.st1{enable-background:new    ;}
	.st2{fill:none;stroke:#000000;stroke-width:2.97;stroke-linejoin:bevel;stroke-miterlimit:10;}
	.st3{fill:none;stroke:#000000;stroke-width:0.5569;stroke-linejoin:bevel;stroke-miterlimit:10;}
	.st4{fill-rule:evenodd;clip-rule:evenodd;}
</style>
<g>
	<g transform="matrix(0.7425,0,0,0.7425,0,0)">
		<line vector-effect="none" class="st0" x1="243.8" y1="72.4" x2="243.8" y2="104.4"/>
	</g>
	<g transform="matrix(0.7425,0,0,0.7425,0,0)">
		<line vector-effect="none" class="st0" x1="425.2" y1="72.4" x2="425.2" y2="104.4"/>
	</g>
	<g transform="matrix(0.7425,0,0,0.7425,0,0)">
		<line vector-effect="none" class="st0" x1="606.5" y1="72.4" x2="606.5" y2="104.4"/>
	</g>
	<g transform="matrix(0.7425,0,0,0.7425,0,0)">
		<line vector-effect="none" class="st0" x1="788" y1="72.4" x2="788" y2="104.4"/>
	</g>
	<g transform="matrix(0.7425,0,0,0.7425,0,0)">
		<line vector-effect="none" class="st0" x1="969.2" y1="72.4" x2="969.2" y2="104.4"/>
	</g>
	<g transform="matrix(0.7425,0,0,0.7425,0,0)">
	</g>
	<g transform="matrix(0.7425,0,0,0.7425,193.792,102.19)">
	</g>
	<g transform="matrix(0.7425,0,0,0.7425,193.792,102.19)">
		<g class="st1">
			<path d="M-187.6-85.2v-0.4c0.8,0,1.2-0.2,1.2-0.7c0-0.5-0.5-1.7-0.9-2.7h-4.7c-0.5,1-1,2.3-1,2.7c0,0.4,0.4,0.7,1.2,0.7v0.4h-3.6
				v-0.4c0.7-0.1,1.2-0.4,1.6-1.2l4.4-10.4h0.5l4.1,9.8c0.7,1.6,0.9,1.7,1.7,1.8v0.4H-187.6z M-191.7-89.8h4l-2.1-4.7L-191.7-89.8z"
				/>
			<path d="M-174.1-85.2v-0.3c0.7,0,1-0.2,1-1.2v-3.7c0-0.9-0.4-1.3-1.2-1.3c-0.6,0-1.3,0.3-1.8,1c0.1,0.1,0.1,0.5,0.1,1.1v1.6
				c0,0.8,0,1.2,0,1.2c0,1.1,0.2,1.3,1,1.3v0.3h-3.4v-0.3c0.7,0,1-0.2,1-1.2v-3.7c0-0.9-0.4-1.3-1.1-1.3c-0.6,0-1.2,0.3-1.8,1v4.1
				c0,0.9,0.3,1.1,1,1.1v0.3h-3.4v-0.3c0.9,0,1-0.3,1-1.3v-4c0-0.4-0.1-0.6-0.3-0.6h-0.8v-0.3l2.4-0.8v1.3c0.7-0.9,1.5-1.3,2.5-1.3
				c0.9,0,1.4,0.4,1.6,1.3c0.8-0.9,1.7-1.3,2.7-1.3c0.5,0,0.9,0.1,1.2,0.4c0.3,0.3,0.6,1.3,0.6,1.8v3.6c0,1.1,0.2,1.3,1,1.3v0.3
				H-174.1z"/>
			<path d="M-167.7-89.8h-0.7l2.4-7.4h-2.5c-0.7,0-1.2,0.4-1.5,1.1l-0.2-0.1l0.7-2h4.6L-167.7-89.8z"/>
		</g>
	</g>
	<g transform="matrix(0.7425,0,0,0.7425,193.792,102.19)">
	</g>
	<g transform="matrix(0.7425,0,0,0.7425,0,0)">
	</g>
	<g transform="matrix(0.7425,0,0,0.7425,750.667,102.19)">
	</g>
	<g transform="matrix(0.7425,0,0,0.7425,750.667,102.19)">
		<g class="st1">
			<path d="M-753-85.2h-5v-0.4c1.5,0,1.6-0.3,1.6-1.7v-7.5c0-1.4-0.1-1.7-1.6-1.7V-97h5.6c0.8,0,1.7,0.2,2.6,0.5
				c2.5,0.9,3.7,2.7,3.7,5.4C-746-87.4-748.7-85.2-753-85.2z M-753.1-96.3c-1.4,0-1.4,0.2-1.4,1.6v7.1c0,1.4,0,1.6,1.5,1.6
				c3.3,0,5.1-1.8,5.1-5C-748-94.3-749.8-96.3-753.1-96.3z"/>
			<path d="M-742.8-89.8h-0.7l2.4-7.4h-2.5c-0.7,0-1.2,0.4-1.5,1.1l-0.2-0.1l0.7-2h4.6L-742.8-89.8z"/>
		</g>
	</g>
	<g transform="matrix(0.7425,0,0,0.7425,750.667,102.19)">
	</g>
	<g transform="matrix(0.7425,0,0,0.7425,0,0)">
	</g>
	<g transform="matrix(0.7425,0,0,0.7425,1254.82,102.19)">
	</g>
	<g transform="matrix(0.7425,0,0,0.7425,1254.82,102.19)">
		<g class="st1">
			<path d="M-1256.3-93.5h-0.3c-0.7-2.1-2-3.1-3.9-3.1c-2.7,0-4.4,2.2-4.4,5.4c0,3.2,1.9,5.8,4.5,5.8c0.9,0,1.7-0.2,2.4-0.6v-3.4
				c0-1.3-0.2-1.7-1.5-1.7v-0.4h4.5v0.4c-1.2,0-1.3,0.5-1.3,1.7v3.6c-1.3,0.7-2.6,1-4.1,1c-3.7,0-6.5-2.3-6.5-5.9
				c0-3.4,2.6-6.4,6.2-6.4c0.7,0,1.6,0.2,2.7,0.6c0.3,0.1,0.5,0.2,0.6,0.2c0.3,0,0.4-0.2,0.4-0.7h0.3L-1256.3-93.5z"/>
			<path d="M-1245.8-89.8v-0.3c0.7,0,1-0.2,1-1.2v-3.7c0-0.9-0.4-1.3-1.2-1.3c-0.6,0-1.3,0.3-1.8,1c0.1,0.1,0.1,0.5,0.1,1.1v1.6
				c0,0.8,0,1.2,0,1.2c0,1.1,0.2,1.3,1,1.3v0.3h-3.4v-0.3c0.7,0,1-0.2,1-1.2v-3.7c0-0.9-0.4-1.3-1.1-1.3c-0.6,0-1.2,0.3-1.8,1v4.1
				c0,0.9,0.3,1.1,1,1.1v0.3h-3.4v-0.3c0.9,0,1-0.3,1-1.3v-4c0-0.4-0.1-0.6-0.3-0.6h-0.8v-0.3l2.4-0.8v1.3c0.7-0.9,1.5-1.3,2.5-1.3
				c0.9,0,1.4,0.4,1.6,1.3c0.8-0.9,1.7-1.3,2.7-1.3c0.5,0,0.9,0.1,1.2,0.4c0.3,0.3,0.6,1.3,0.6,1.8v3.5c0,1.1,0.2,1.3,1,1.3v0.3
				H-1245.8z"/>
			<path d="M-1235.5-90.6c-0.5,0.6-1,0.9-1.5,0.9c-0.6,0-0.9-0.4-1-1.2c-1,0.8-1.8,1.2-2.5,1.2c-0.9,0-1.5-0.9-1.5-1.7
				c0-1.4,0.9-2.2,3.9-3.1v-1c0-0.9-0.4-1.3-1.2-1.3c-0.5,0-1.1,0.3-1.1,0.8c0,0.1,0.1,0.5,0.1,0.6c0,0.4-0.4,0.7-0.7,0.7
				c-0.4,0-0.6-0.2-0.6-0.7c0-1,1.4-1.8,2.6-1.8c1.4,0,2.3,0.8,2.3,2.3v3.6c0,0.4,0.1,0.6,0.4,0.6c0.2,0,0.5-0.1,0.8-0.4V-90.6z
				 M-1238-94c-0.9,0.3-1.5,0.5-1.7,0.6c-0.6,0.3-0.8,0.8-0.8,1.5c0,0.7,0.4,1.3,1,1.3c0.4,0,0.9-0.2,1.5-0.6V-94z"/>
			<path d="M-1234.7-96.4l2.6-0.9v6.8c0,2.7-0.9,4-2.6,4c-0.8,0-1.5-0.3-1.5-1c0-0.4,0.2-0.6,0.6-0.6c0.4,0,1.2,1,1.6,1
				c0.4,0,0.6-0.6,0.6-1.8v-6.2c0-0.6-0.2-1-0.5-1c-0.1,0-0.4,0-0.7,0.1V-96.4z M-1232.8-99.3c-0.4,0-0.8-0.4-0.8-0.8
				c0-0.4,0.4-0.8,0.8-0.8s0.8,0.4,0.8,0.8C-1232-99.7-1232.4-99.3-1232.8-99.3z"/>
			<path d="M-1228.5-89.8h-0.7l2.4-7.4h-2.5c-0.7,0-1.2,0.4-1.5,1.1l-0.2-0.1l0.7-2h4.6L-1228.5-89.8z"/>
		</g>
	</g>
	<g transform="matrix(0.7425,0,0,0.7425,1254.82,102.19)">
	</g>
	<g transform="matrix(0.7425,0,0,0.7425,0,0)">
	</g>
	<g transform="matrix(0.7425,0,0,0.7425,1793.88,102.19)">
	</g>
	<g transform="matrix(0.7425,0,0,0.7425,1793.88,102.19)">
		<g class="st1">
			<path d="M-1805.5-85c-3.5,0-5.9-2.4-5.9-5.9c0-3.4,2.5-6.4,6-6.4c1.2,0,3.2,0.7,3.4,0.7c0.3,0,0.5-0.2,0.7-0.7h0.6v4.2h-0.5
				c-0.4-2.1-1.8-3.4-3.9-3.4c-2.7,0-4.3,2.2-4.3,5.4c0,3.2,1.7,5.3,4.4,5.3c1.6,0,2.9-0.6,4-1.9l0.3,0.5
				C-1801.8-85.7-1803.4-85-1805.5-85z"/>
			<path d="M-1790.9-89.8v-0.3c0.7,0,1-0.2,1-1.2v-3.7c0-0.9-0.4-1.3-1.2-1.3c-0.6,0-1.3,0.3-1.8,1c0.1,0.1,0.1,0.5,0.1,1.1v1.6
				c0,0.8,0,1.2,0,1.2c0,1.1,0.2,1.3,1,1.3v0.3h-3.4v-0.3c0.7,0,1-0.2,1-1.2v-3.7c0-0.9-0.4-1.3-1.1-1.3c-0.6,0-1.2,0.3-1.8,1v4.1
				c0,0.9,0.3,1.1,1,1.1v0.3h-3.4v-0.3c0.9,0,1-0.3,1-1.3v-4c0-0.4-0.1-0.6-0.3-0.6h-0.8v-0.3l2.4-0.8v1.3c0.7-0.9,1.5-1.3,2.5-1.3
				c0.9,0,1.4,0.4,1.6,1.3c0.8-0.9,1.7-1.3,2.7-1.3c0.5,0,0.9,0.1,1.2,0.4c0.3,0.3,0.6,1.3,0.6,1.8v3.5c0,1.1,0.2,1.3,1,1.3v0.3
				H-1790.9z"/>
			<path d="M-1780.6-90.6c-0.5,0.6-1,0.9-1.5,0.9c-0.6,0-0.9-0.4-1-1.2c-1,0.8-1.8,1.2-2.5,1.2c-0.9,0-1.5-0.9-1.5-1.7
				c0-1.4,0.9-2.2,3.9-3.1v-1c0-0.9-0.4-1.3-1.2-1.3c-0.5,0-1.1,0.3-1.1,0.8c0,0.1,0.1,0.5,0.1,0.6c0,0.4-0.4,0.7-0.7,0.7
				c-0.4,0-0.6-0.2-0.6-0.7c0-1,1.4-1.8,2.6-1.8c1.4,0,2.3,0.8,2.3,2.3v3.6c0,0.4,0.1,0.6,0.4,0.6c0.2,0,0.5-0.1,0.8-0.4V-90.6z
				 M-1783.1-94c-0.9,0.3-1.5,0.5-1.7,0.6c-0.6,0.3-0.8,0.8-0.8,1.5c0,0.7,0.4,1.3,1,1.3c0.4,0,0.9-0.2,1.5-0.6V-94z"/>
			<path d="M-1779.8-96.4l2.6-0.9v6.8c0,2.7-0.9,4-2.6,4c-0.8,0-1.5-0.3-1.5-1c0-0.4,0.2-0.6,0.6-0.6c0.4,0,1.2,1,1.6,1
				c0.4,0,0.6-0.6,0.6-1.8v-6.2c0-0.6-0.2-1-0.5-1c-0.1,0-0.4,0-0.7,0.1V-96.4z M-1777.9-99.3c-0.4,0-0.8-0.4-0.8-0.8
				c0-0.4,0.4-0.8,0.8-0.8s0.8,0.4,0.8,0.8C-1777.1-99.7-1777.5-99.3-1777.9-99.3z"/>
			<path d="M-1773.6-89.8h-0.7l2.4-7.4h-2.5c-0.7,0-1.2,0.4-1.5,1.1l-0.2-0.1l0.7-2h4.6L-1773.6-89.8z"/>
		</g>
	</g>
	<g transform="matrix(0.7425,0,0,0.7425,1793.88,102.19)">
	</g>
	<g transform="matrix(0.7425,0,0,0.7425,0,0)">
	</g>
	<g transform="matrix(0.7425,0,0,0.7425,2348.53,102.19)">
	</g>
	<g transform="matrix(0.7425,0,0,0.7425,2348.53,102.19)">
		<g class="st1">
			<path d="M-2368.6-91.7h2.2c1.1,0,1.4-0.5,1.5-1.6h0.3v4h-0.3c0-1.2-0.4-1.7-1.5-1.7h-2.2v3.7c0,1.5,0.2,1.8,1.7,1.8v0.3h-5v-0.3
				c1.5,0,1.7-0.3,1.7-1.8v-7.6c0-1.5-0.2-1.8-1.7-1.8V-97h8.9v2.6h-0.3c-0.4-1.6-1-2-2.6-2h-2.6V-91.7z"/>
			<path d="M-2357.1-99.7v3.1l1.2-0.4v2l-1.2,0.4v3.7l1.2-0.4v2l-1.2,0.4v3.4h-0.5v-3.2l-2.1,0.7v3.2h-0.5V-88l-1.2,0.4v-2l1.2-0.4
				v-3.7l-1.2,0.4v-2l1.2-0.4V-99h0.5v3.2l2.1-0.7v-3.2H-2357.1z M-2357.6-94.5l-2.1,0.7v3.7l2.1-0.7V-94.5z"/>
			<path d="M-2349.1-96.2c0.4,0.6,0.7,1.3,0.7,2.1c0,1.9-1.5,3.4-3.4,3.4c-0.8,0-1.5-0.3-2.1-0.7l-1.4,1.4l-0.7-0.7l1.4-1.4
				c-0.4-0.6-0.6-1.2-0.6-2c0-1.9,1.5-3.4,3.4-3.4c0.7,0,1.4,0.2,2,0.6l1.2-1.2l0.7,0.7L-2349.1-96.2z M-2353.8-92.9l3.3-3.3
				c-0.4-0.2-0.8-0.3-1.2-0.3c-1.3,0-2.4,1.1-2.4,2.4C-2354.2-93.7-2354.1-93.3-2353.8-92.9z M-2349.8-95.5l-3.3,3.3
				c0.4,0.3,0.9,0.4,1.3,0.4c1.3,0,2.4-1.1,2.4-2.4C-2349.4-94.6-2349.6-95.1-2349.8-95.5z"/>
			<path d="M-2344.4-89.8h-0.7l2.4-7.4h-2.5c-0.7,0-1.2,0.4-1.5,1.1l-0.2-0.1l0.7-2h4.6L-2344.4-89.8z"/>
		</g>
	</g>
	<g transform="matrix(0.7425,0,0,0.7425,2348.53,102.19)">
	</g>
	<g transform="matrix(0.7425,0,0,0.7425,0,0)">
	</g>
	<g transform="matrix(0.7425,0,0,0.7425,0,0)">
		<line vector-effect="none" class="st0" x1="215" y1="184.7" x2="215" y2="216.7"/>
	</g>
	<g transform="matrix(0.7425,0,0,0.7425,0,0)">
		<line vector-effect="none" class="st0" x1="382.8" y1="184.7" x2="382.8" y2="216.7"/>
	</g>
	<g transform="matrix(0.7425,0,0,0.7425,0,0)">
		<line vector-effect="none" class="st0" x1="510.5" y1="184.7" x2="510.5" y2="216.7"/>
	</g>
	<g transform="matrix(0.7425,0,0,0.7425,0,0)">
		<line vector-effect="none" class="st2" x1="516" y1="184.7" x2="516" y2="216.7"/>
	</g>
	<g transform="matrix(0.7425,0,0,0.7425,0,0)">
		<g class="st1">
			<path d="M506.8,196.7c0,0.7-0.7,1.4-1.5,1.4c-0.7,0-1.5-0.7-1.5-1.4c0-0.9,0.7-1.5,1.5-1.5C506.1,195.1,506.8,195.8,506.8,196.7z
				"/>
		</g>
	</g>
	<g transform="matrix(0.7425,0,0,0.7425,0,0)">
		<g class="st1">
			<path d="M506.8,204.7c0,0.7-0.7,1.4-1.5,1.4c-0.7,0-1.5-0.7-1.5-1.4c0-0.9,0.7-1.5,1.5-1.5C506.1,203.1,506.8,203.8,506.8,204.7z
				"/>
		</g>
	</g>
	<g transform="matrix(0.7425,0,0,0.7425,0,0)">
		<line vector-effect="none" class="st0" x1="685" y1="184.7" x2="685" y2="216.7"/>
	</g>
	<g transform="matrix(0.7425,0,0,0.7425,0,0)">
		<line vector-effect="none" class="st0" x1="852.8" y1="184.7" x2="852.8" y2="216.7"/>
	</g>
	<g transform="matrix(0.7425,0,0,0.7425,0,0)">
		<line vector-effect="none" class="st0" x1="969.2" y1="184.7" x2="969.2" y2="216.7"/>
	</g>
	<g transform="matrix(0.7425,0,0,0.7425,0,0)">
	</g>
	<g transform="matrix(0.7425,0,0,0.7425,170.032,435.572)">
	</g>
	<g transform="matrix(0.7425,0,0,0.7425,170.032,435.572)">
		<g class="st1">
			<path d="M-161.2-425.2c0,1.9-1.9,3.3-3.7,3.3h-6.5v-0.4c1.5,0,1.6-0.3,1.6-1.7v-7.5c0-1.4-0.1-1.8-1.6-1.8v-0.4h5.9
				c2,0,3.8,1.3,3.8,3.1c0,1.3-0.9,2.2-2.3,2.6C-162.3-427.7-161.2-426.5-161.2-425.2z M-163.5-430.6c0-1.3-1-2.3-2.3-2.3h-1.2
				c-0.9,0-1.1,0.3-1.1,1.3v3.2h2.3C-164.4-428.4-163.5-429.3-163.5-430.6z M-167.9-423c0.2,0.2,1.2,0.3,1.9,0.3
				c2.3,0,2.8-1.4,2.8-2.6c0-1.4-1.2-2.3-2.6-2.3h-2.3v4C-168-423.3-168-423-167.9-423z"/>
			<path d="M-158-426.6h-0.7l2.4-7.4h-2.5c-0.7,0-1.2,0.4-1.5,1.1l-0.2-0.1l0.7-2h4.6L-158-426.6z"/>
		</g>
	</g>
	<g transform="matrix(0.7425,0,0,0.7425,170.032,435.572)">
	</g>
	<g transform="matrix(0.7425,0,0,0.7425,0,0)">
	</g>
	<g transform="matrix(0.7425,0,0,0.7425,657.112,435.572)">
	</g>
	<g transform="matrix(0.7425,0,0,0.7425,657.112,435.572)">
		<g class="st1">
			<path d="M-653.8-422h-9.7v-0.4c1.5,0,1.6-0.3,1.6-1.7v-7.5c0-1.4-0.1-1.7-1.6-1.7v-0.4h9.6v2.7h-0.4c-0.1-1.2-0.7-1.8-1.7-1.8
				h-3.1c-0.8,0-1,0.4-1,1.2v3.3h3.1c1,0,1.7-0.7,1.7-1.7h0.4v4.2h-0.4c0-1-0.7-1.7-1.7-1.7h-3.1v3.7c0,0.8,0.2,1.2,1,1.2h3
				c1.2,0,2.3-1,2.6-2.2h0.5L-653.8-422z"/>
			<path d="M-643.9-422v-0.3c0.7,0,1-0.2,1-1.2v-3.7c0-0.9-0.4-1.3-1.2-1.3c-0.6,0-1.3,0.3-1.8,1c0.1,0.1,0.1,0.5,0.1,1.1v1.6
				c0,0.8,0,1.2,0,1.2c0,1.1,0.2,1.3,1,1.3v0.3h-3.4v-0.3c0.7,0,1-0.2,1-1.2v-3.7c0-0.9-0.4-1.3-1.1-1.3c-0.6,0-1.2,0.3-1.8,1v4.1
				c0,0.9,0.3,1.1,1,1.1v0.3h-3.4v-0.3c0.9,0,1-0.3,1-1.3v-4c0-0.4-0.1-0.6-0.3-0.6h-0.8v-0.3l2.4-0.8v1.3c0.7-0.9,1.5-1.3,2.5-1.3
				c0.9,0,1.4,0.4,1.6,1.3c0.8-0.9,1.7-1.3,2.7-1.3c0.5,0,0.9,0.1,1.2,0.4c0.3,0.3,0.6,1.3,0.6,1.8v3.6c0,1.1,0.2,1.3,1,1.3v0.3
				H-643.9z"/>
		</g>
	</g>
	<g transform="matrix(0.7425,0,0,0.7425,657.112,435.572)">
	</g>
	<g transform="matrix(0.7425,0,0,0.7425,0,0)">
	</g>
	<g transform="matrix(0.7425,0,0,0.7425,1565.93,435.572)">
	</g>
	<g transform="matrix(0.7425,0,0,0.7425,1565.93,435.572)">
		<g class="st1">
			<path d="M-1571.2-425.2c0,1.9-1.9,3.3-3.7,3.3h-6.5v-0.4c1.5,0,1.6-0.3,1.6-1.7v-7.5c0-1.4-0.1-1.8-1.6-1.8v-0.4h5.9
				c2,0,3.8,1.3,3.8,3.1c0,1.3-0.9,2.2-2.3,2.6C-1572.3-427.7-1571.2-426.5-1571.2-425.2z M-1573.4-430.6c0-1.3-1-2.3-2.3-2.3h-1.2
				c-0.9,0-1.1,0.3-1.1,1.3v3.2h2.3C-1574.4-428.4-1573.4-429.3-1573.4-430.6z M-1577.9-423c0.2,0.2,1.2,0.3,1.9,0.3
				c2.3,0,2.8-1.4,2.8-2.6c0-1.4-1.2-2.3-2.6-2.3h-2.3v4C-1578-423.3-1578-423-1577.9-423z"/>
			<path d="M-1568-426.6h-0.7l2.4-7.4h-2.5c-0.7,0-1.2,0.4-1.5,1.1l-0.2-0.1l0.7-2h4.6L-1568-426.6z"/>
		</g>
	</g>
	<g transform="matrix(0.7425,0,0,0.7425,1565.93,435.572)">
	</g>
	<g transform="matrix(0.7425,0,0,0.7425,0,0)">
	</g>
	<g transform="matrix(0.7425,0,0,0.7425,2053.01,435.572)">
	</g>
	<g transform="matrix(0.7425,0,0,0.7425,2053.01,435.572)">
		<g class="st1">
			<path d="M-2063.8-422h-9.7v-0.4c1.5,0,1.6-0.3,1.6-1.7v-7.5c0-1.4-0.1-1.7-1.6-1.7v-0.4h9.6v2.7h-0.4c-0.1-1.2-0.7-1.8-1.7-1.8
				h-3.1c-0.8,0-1,0.4-1,1.2v3.3h3.1c1,0,1.7-0.7,1.7-1.7h0.4v4.2h-0.4c0-1-0.7-1.7-1.7-1.7h-3.1v3.7c0,0.8,0.2,1.2,1,1.2h3
				c1.2,0,2.3-1,2.6-2.2h0.5L-2063.8-422z"/>
			<path d="M-2053.9-422v-0.3c0.7,0,1-0.2,1-1.2v-3.7c0-0.9-0.4-1.3-1.2-1.3c-0.6,0-1.3,0.3-1.8,1c0.1,0.1,0.1,0.5,0.1,1.1v1.6
				c0,0.8,0,1.2,0,1.2c0,1.1,0.2,1.3,1,1.3v0.3h-3.4v-0.3c0.7,0,1-0.2,1-1.2v-3.7c0-0.9-0.4-1.3-1.1-1.3c-0.6,0-1.2,0.3-1.8,1v4.1
				c0,0.9,0.3,1.1,1,1.1v0.3h-3.4v-0.3c0.9,0,1-0.3,1-1.3v-4c0-0.4-0.1-0.6-0.3-0.6h-0.8v-0.3l2.4-0.8v1.3c0.7-0.9,1.5-1.3,2.5-1.3
				c0.9,0,1.4,0.4,1.6,1.3c0.8-0.9,1.7-1.3,2.7-1.3c0.5,0,0.9,0.1,1.2,0.4c0.3,0.3,0.6,1.3,0.6,1.8v3.6c0,1.1,0.2,1.3,1,1.3v0.3
				H-2053.9z"/>
		</g>
	</g>
	<g transform="matrix(0.7425,0,0,0.7425,2053.01,435.572)">
	</g>
	<g transform="matrix(0.7425,0,0,0.7425,0,0)">
	</g>
	<g transform="matrix(0.7425,0,0,0.7425,0,0)">
		<line vector-effect="none" class="st0" x1="48" y1="128.7" x2="48" y2="149.2"/>
	</g>
	<g transform="matrix(0.7425,0,0,0.7425,0,0)">
	</g>
	<g transform="matrix(0.7425,0,0,0.7425,154.44,387.031)">
	</g>
	<g transform="matrix(0.7425,0,0,0.7425,154.44,387.031)">
		<g class="st1">
			<path d="M-153.9-384.8l2.9-1.4h0.3v9.9c0,0.7,0,1.1,0.1,1.2c0.1,0.2,0.2,0.3,0.3,0.4c0.2,0.1,0.5,0.1,1.1,0.1v0.3h-4.4v-0.3
				c0.6,0,0.9-0.1,1.1-0.1c0.2-0.1,0.3-0.2,0.3-0.3c0.1-0.1,0.1-0.6,0.1-1.3v-6.3c0-0.9,0-1.4-0.1-1.6c0-0.2-0.1-0.3-0.2-0.4
				c-0.1-0.1-0.2-0.1-0.4-0.1c-0.2,0-0.5,0.1-0.9,0.3L-153.9-384.8z"/>
			<path d="M-144.9-375.9c0.3,0,0.5,0.1,0.7,0.3c0.2,0.2,0.3,0.4,0.3,0.7c0,0.3-0.1,0.5-0.3,0.7c-0.2,0.2-0.4,0.3-0.7,0.3
				c-0.3,0-0.5-0.1-0.7-0.3c-0.2-0.2-0.3-0.4-0.3-0.7c0-0.3,0.1-0.5,0.3-0.7C-145.4-375.8-145.2-375.9-144.9-375.9z"/>
		</g>
	</g>
	<g transform="matrix(0.7425,0,0,0.7425,154.44,387.031)">
	</g>
	<g transform="matrix(0.7425,0,0,0.7425,0,0)">
	</g>
	<g transform="matrix(0.7425,0,0,0.7425,0,0)">
		<line vector-effect="none" class="st0" x1="510.5" y1="128.7" x2="510.5" y2="149.2"/>
	</g>
	<g transform="matrix(0.7425,0,0,0.7425,0,0)">
		<line vector-effect="none" class="st0" x1="48" y1="129.2" x2="510.5" y2="129.2"/>
	</g>
	<g transform="matrix(0.7425,0,0,0.7425,0,0)">
		<line vector-effect="none" class="st0" x1="518" y1="128.7" x2="518" y2="149.2"/>
	</g>
	<g transform="matrix(0.7425,0,0,0.7425,0,0)">
	</g>
	<g transform="matrix(0.7425,0,0,0.7425,1550.34,387.031)">
	</g>
	<g transform="matrix(0.7425,0,0,0.7425,1550.34,387.031)">
		<g class="st1">
			<path d="M-1557.9-376.5l-0.8,2.3h-6.9v-0.3c2-1.9,3.5-3.4,4.3-4.6c0.8-1.2,1.2-2.3,1.2-3.2c0-0.7-0.2-1.4-0.7-1.8s-1-0.7-1.6-0.7
				c-0.6,0-1.1,0.2-1.6,0.5s-0.8,0.8-1,1.5h-0.3c0.1-1.1,0.5-1.9,1.1-2.5c0.6-0.6,1.3-0.9,2.2-0.9c1,0,1.7,0.3,2.4,0.9
				c0.6,0.6,1,1.3,1,2.2c0,0.6-0.1,1.2-0.4,1.8c-0.4,0.9-1.1,1.9-2.1,3c-1.4,1.6-2.3,2.5-2.7,2.8h3.1c0.6,0,1.1,0,1.3-0.1
				c0.3,0,0.5-0.1,0.7-0.3c0.2-0.1,0.4-0.3,0.5-0.6H-1557.9z"/>
			<path d="M-1554.9-375.9c0.3,0,0.5,0.1,0.7,0.3c0.2,0.2,0.3,0.4,0.3,0.7c0,0.3-0.1,0.5-0.3,0.7c-0.2,0.2-0.4,0.3-0.7,0.3
				c-0.3,0-0.5-0.1-0.7-0.3c-0.2-0.2-0.3-0.4-0.3-0.7c0-0.3,0.1-0.5,0.3-0.7C-1555.4-375.8-1555.2-375.9-1554.9-375.9z"/>
		</g>
	</g>
	<g transform="matrix(0.7425,0,0,0.7425,1550.34,387.031)">
	</g>
	<g transform="matrix(0.7425,0,0,0.7425,0,0)">
	</g>
	<g transform="matrix(0.7425,0,0,0.7425,0,0)">
		<line vector-effect="none" class="st0" x1="518" y1="129.2" x2="685.2" y2="129.2"/>
	</g>
	<g transform="matrix(0.7425,0,0,0.7425,0,0)">
		<line vector-effect="none" class="st0" x1="209.5" y1="296.7" x2="209.5" y2="328.7"/>
	</g>
	<g transform="matrix(0.7425,0,0,0.7425,0,0)">
		<line vector-effect="none" class="st0" x1="371.2" y1="296.7" x2="371.2" y2="328.7"/>
	</g>
	<g transform="matrix(0.7425,0,0,0.7425,0,0)">
		<line vector-effect="none" class="st0" x1="533.2" y1="296.7" x2="533.2" y2="328.7"/>
	</g>
	<g transform="matrix(0.7425,0,0,0.7425,0,0)">
		<line vector-effect="none" class="st0" x1="645.5" y1="296.7" x2="645.5" y2="328.7"/>
	</g>
	<g transform="matrix(0.7425,0,0,0.7425,0,0)">
		<line vector-effect="none" class="st0" x1="807.2" y1="296.7" x2="807.2" y2="328.7"/>
	</g>
	<g transform="matrix(0.7425,0,0,0.7425,0,0)">
		<line vector-effect="none" class="st0" x1="969.2" y1="296.7" x2="969.2" y2="328.7"/>
	</g>
	<g transform="matrix(0.7425,0,0,0.7425,0,0)">
	</g>
	<g transform="matrix(0.7425,0,0,0.7425,149.242,768.212)">
	</g>
	<g transform="matrix(0.7425,0,0,0.7425,149.242,768.212)">
		<g class="st1">
			<path d="M-147.1-764.5h2.2c1.1,0,1.4-0.5,1.5-1.6h0.3v4h-0.3c0-1.2-0.4-1.7-1.5-1.7h-2.2v3.7c0,1.5,0.2,1.8,1.7,1.8v0.3h-5v-0.3
				c1.5,0,1.7-0.3,1.7-1.8v-7.6c0-1.5-0.2-1.8-1.7-1.8v-0.3h8.9v2.6h-0.3c-0.4-1.6-1-2-2.6-2h-2.6V-764.5z"/>
			<path d="M-135.6-772.4v3.1l1.2-0.4v2l-1.2,0.4v3.7l1.2-0.4v2l-1.2,0.4v3.4h-0.5v-3.2l-2.1,0.7v3.2h-0.5v-3.1l-1.2,0.4v-2l1.2-0.4
				v-3.7l-1.2,0.4v-2l1.2-0.4v-3.4h0.5v3.2l2.1-0.7v-3.2H-135.6z M-136.1-767.3l-2.1,0.7v3.7l2.1-0.7V-767.3z"/>
			<path d="M-127.6-769c0.4,0.6,0.7,1.3,0.7,2.1c0,1.9-1.5,3.4-3.4,3.4c-0.8,0-1.5-0.3-2.1-0.7l-1.4,1.4l-0.7-0.7l1.4-1.4
				c-0.4-0.6-0.6-1.2-0.6-2c0-1.9,1.5-3.4,3.4-3.4c0.7,0,1.4,0.2,2,0.6l1.2-1.2l0.7,0.7L-127.6-769z M-132.3-765.7l3.3-3.3
				c-0.4-0.2-0.8-0.3-1.2-0.3c-1.3,0-2.4,1.1-2.4,2.4C-132.7-766.5-132.6-766-132.3-765.7z M-128.3-768.2l-3.3,3.3
				c0.4,0.3,0.9,0.4,1.3,0.4c1.3,0,2.4-1.1,2.4-2.4C-127.9-767.4-128.1-767.9-128.3-768.2z"/>
			<path d="M-122.9-762.6h-0.7l2.4-7.4h-2.5c-0.7,0-1.2,0.4-1.5,1.1l-0.2-0.1l0.7-2h4.6L-122.9-762.6z"/>
		</g>
	</g>
	<g transform="matrix(0.7425,0,0,0.7425,149.242,768.212)">
	</g>
	<g transform="matrix(0.7425,0,0,0.7425,0,0)">
	</g>
	<g transform="matrix(0.7425,0,0,0.7425,651.172,768.212)">
	</g>
	<g transform="matrix(0.7425,0,0,0.7425,651.172,768.212)">
		<g class="st1">
			<path d="M-647.2-761.3c0,1.9-1.9,3.3-3.7,3.3h-6.5v-0.4c1.5,0,1.6-0.3,1.6-1.7v-7.5c0-1.4-0.1-1.8-1.6-1.8v-0.4h5.9
				c2,0,3.8,1.3,3.8,3.1c0,1.3-0.9,2.2-2.3,2.6C-648.3-763.7-647.2-762.5-647.2-761.3z M-649.5-766.6c0-1.3-1-2.3-2.3-2.3h-1.2
				c-0.9,0-1.1,0.3-1.1,1.3v3.2h2.3C-650.4-764.4-649.5-765.3-649.5-766.6z M-653.9-759c0.2,0.2,1.2,0.3,1.9,0.3
				c2.3,0,2.8-1.4,2.8-2.6c0-1.4-1.2-2.3-2.6-2.3h-2.3v4C-654-759.3-654-759-653.9-759z"/>
			<path d="M-644-762.6h-0.7l2.4-7.4h-2.5c-0.7,0-1.2,0.4-1.5,1.1l-0.2-0.1l0.7-2h4.6L-644-762.6z"/>
		</g>
	</g>
	<g transform="matrix(0.7425,0,0,0.7425,651.172,768.212)">
	</g>
	<g transform="matrix(0.7425,0,0,0.7425,0,0)">
	</g>
	<g transform="matrix(0.7425,0,0,0.7425,1121.17,768.212)">
	</g>
	<g transform="matrix(0.7425,0,0,0.7425,1121.17,768.212)">
		<g class="st1">
			<path d="M-1122.6-758h-9.7v-0.4c1.5,0,1.6-0.3,1.6-1.7v-7.5c0-1.4-0.1-1.7-1.6-1.7v-0.4h9.6v2.7h-0.4c-0.1-1.2-0.7-1.8-1.7-1.8
				h-3.1c-0.8,0-1,0.4-1,1.2v3.3h3.1c1,0,1.7-0.7,1.7-1.7h0.4v4.2h-0.4c0-1-0.7-1.7-1.7-1.7h-3.1v3.7c0,0.8,0.2,1.2,1,1.2h3
				c1.2,0,2.3-1,2.6-2.2h0.5L-1122.6-758z"/>
			<path d="M-1112.6-758v-0.3c0.7,0,1-0.2,1-1.2v-3.7c0-0.9-0.4-1.3-1.2-1.3c-0.6,0-1.3,0.3-1.8,1c0.1,0.1,0.1,0.5,0.1,1.1v1.6
				c0,0.8,0,1.2,0,1.2c0,1.1,0.2,1.3,1,1.3v0.3h-3.4v-0.3c0.7,0,1-0.2,1-1.2v-3.7c0-0.9-0.4-1.3-1.1-1.3c-0.6,0-1.2,0.3-1.8,1v4.1
				c0,0.9,0.3,1.1,1,1.1v0.3h-3.4v-0.3c0.9,0,1-0.3,1-1.3v-4c0-0.4-0.1-0.6-0.3-0.6h-0.8v-0.3l2.4-0.8v1.3c0.7-0.9,1.5-1.3,2.5-1.3
				c0.9,0,1.4,0.4,1.6,1.3c0.8-0.9,1.7-1.3,2.7-1.3c0.5,0,0.9,0.1,1.2,0.4c0.3,0.3,0.6,1.3,0.6,1.8v3.6c0,1.1,0.2,1.3,1,1.3v0.3
				H-1112.6z"/>
		</g>
	</g>
	<g transform="matrix(0.7425,0,0,0.7425,1121.17,768.212)">
	</g>
	<g transform="matrix(0.7425,0,0,0.7425,0,0)">
	</g>
	<g transform="matrix(0.7425,0,0,0.7425,1925.3,768.212)">
	</g>
	<g transform="matrix(0.7425,0,0,0.7425,1925.3,768.212)">
		<g class="st1">
			<path d="M-1936.6-758v-0.4c0.8,0,1.2-0.2,1.2-0.7c0-0.5-0.5-1.7-0.9-2.7h-4.7c-0.5,1-1,2.3-1,2.7c0,0.4,0.4,0.7,1.2,0.7v0.4h-3.6
				v-0.4c0.7-0.1,1.2-0.4,1.6-1.2l4.4-10.4h0.5l4.1,9.8c0.7,1.6,0.9,1.7,1.7,1.8v0.4H-1936.6z M-1940.7-762.6h4l-2.1-4.7
				L-1940.7-762.6z"/>
			<path d="M-1923.1-758v-0.3c0.7,0,1-0.2,1-1.2v-3.7c0-0.9-0.4-1.3-1.2-1.3c-0.6,0-1.3,0.3-1.8,1c0.1,0.1,0.1,0.5,0.1,1.1v1.6
				c0,0.8,0,1.2,0,1.2c0,1.1,0.2,1.3,1,1.3v0.3h-3.4v-0.3c0.7,0,1-0.2,1-1.2v-3.7c0-0.9-0.4-1.3-1.1-1.3c-0.6,0-1.2,0.3-1.8,1v4.1
				c0,0.9,0.3,1.1,1,1.1v0.3h-3.4v-0.3c0.9,0,1-0.3,1-1.3v-4c0-0.4-0.1-0.6-0.3-0.6h-0.8v-0.3l2.4-0.8v1.3c0.7-0.9,1.5-1.3,2.5-1.3
				c0.9,0,1.4,0.4,1.6,1.3c0.8-0.9,1.7-1.3,2.7-1.3c0.5,0,0.9,0.1,1.2,0.4c0.3,0.3,0.6,1.3,0.6,1.8v3.6c0,1.1,0.2,1.3,1,1.3v0.3
				H-1923.1z"/>
			<path d="M-1916.7-762.6h-0.7l2.4-7.4h-2.5c-0.7,0-1.2,0.4-1.5,1.1l-0.2-0.1l0.7-2h4.6L-1916.7-762.6z"/>
		</g>
	</g>
	<g transform="matrix(0.7425,0,0,0.7425,1925.3,768.212)">
	</g>
	<g transform="matrix(0.7425,0,0,0.7425,0,0)">
	</g>
	<g transform="matrix(0.7425,0,0,0.7425,2424.26,768.212)">
	</g>
	<g transform="matrix(0.7425,0,0,0.7425,2424.26,768.212)">
		<g class="st1">
			<path d="M-2443.5-758h-5v-0.4c1.5,0,1.6-0.3,1.6-1.7v-7.5c0-1.4-0.1-1.7-1.6-1.7v-0.4h5.6c0.8,0,1.7,0.2,2.6,0.5
				c2.5,0.9,3.7,2.7,3.7,5.4C-2436.5-760.1-2439.2-758-2443.5-758z M-2443.6-769.1c-1.4,0-1.4,0.2-1.4,1.6v7.1c0,1.4,0,1.6,1.5,1.6
				c3.3,0,5.1-1.8,5.1-5C-2438.5-767-2440.3-769.1-2443.6-769.1z"/>
			<path d="M-2433.3-762.6h-0.7l2.4-7.4h-2.5c-0.7,0-1.2,0.4-1.5,1.1l-0.2-0.1l0.7-2h4.6L-2433.3-762.6z"/>
		</g>
	</g>
	<g transform="matrix(0.7425,0,0,0.7425,2424.26,768.212)">
	</g>
	<g transform="matrix(0.7425,0,0,0.7425,0,0)">
	</g>
	<g transform="matrix(0.7425,0,0,0.7425,0,0)">
		<line vector-effect="none" class="st0" x1="231.8" y1="408.9" x2="231.8" y2="440.9"/>
	</g>
	<g transform="matrix(0.7425,0,0,0.7425,0,0)">
		<line vector-effect="none" class="st0" x1="360.8" y1="408.9" x2="360.8" y2="440.9"/>
	</g>
	<g transform="matrix(0.7425,0,0,0.7425,0,0)">
		<line vector-effect="none" class="st0" x1="545" y1="408.9" x2="545" y2="440.9"/>
	</g>
	<g transform="matrix(0.7425,0,0,0.7425,0,0)">
		<line vector-effect="none" class="st0" x1="729.2" y1="408.9" x2="729.2" y2="440.9"/>
	</g>
	<g transform="matrix(0.7425,0,0,0.7425,0,0)">
		<line vector-effect="none" class="st0" x1="969.2" y1="408.9" x2="969.2" y2="440.9"/>
	</g>
	<g transform="matrix(0.7425,0,0,0.7425,0,0)">
	</g>
	<g transform="matrix(0.7425,0,0,0.7425,132.907,1101.59)">
	</g>
	<g transform="matrix(0.7425,0,0,0.7425,132.907,1101.59)">
		<g class="st1">
			<path d="M-123-1103h-0.3c-0.7-2.1-2-3.1-3.9-3.1c-2.7,0-4.4,2.2-4.4,5.4c0,3.2,1.9,5.8,4.5,5.8c0.9,0,1.7-0.2,2.4-0.6v-3.4
				c0-1.3-0.2-1.7-1.5-1.7v-0.4h4.5v0.4c-1.2,0-1.3,0.5-1.3,1.7v3.6c-1.3,0.7-2.6,1-4.1,1c-3.7,0-6.5-2.3-6.5-5.9
				c0-3.4,2.6-6.4,6.2-6.4c0.7,0,1.6,0.2,2.7,0.6c0.3,0.1,0.6,0.2,0.6,0.2c0.3,0,0.4-0.2,0.4-0.7h0.3L-123-1103z"/>
			<path d="M-112.6-1099.3v-0.3c0.7,0,1-0.2,1-1.2v-3.7c0-0.9-0.4-1.3-1.2-1.3c-0.6,0-1.3,0.3-1.8,1c0.1,0.1,0.1,0.5,0.1,1.1v1.6
				c0,0.8,0,1.2,0,1.2c0,1.1,0.2,1.3,1,1.3v0.3h-3.4v-0.3c0.7,0,1-0.2,1-1.2v-3.7c0-0.9-0.4-1.3-1.1-1.3c-0.6,0-1.2,0.3-1.8,1v4.1
				c0,0.9,0.3,1.1,1,1.1v0.3h-3.4v-0.3c0.9,0,1-0.3,1-1.3v-4c0-0.4-0.1-0.6-0.3-0.6h-0.8v-0.3l2.4-0.8v1.3c0.7-0.9,1.5-1.3,2.5-1.3
				c0.9,0,1.4,0.4,1.6,1.3c0.8-0.9,1.7-1.3,2.7-1.3c0.5,0,0.9,0.1,1.2,0.4c0.3,0.3,0.6,1.3,0.6,1.8v3.5c0,1.1,0.2,1.3,1,1.3v0.3
				H-112.6z"/>
			<path d="M-102.3-1100.1c-0.5,0.6-1,0.9-1.5,0.9c-0.6,0-0.9-0.4-1-1.2c-1,0.8-1.8,1.2-2.5,1.2c-0.9,0-1.5-0.9-1.5-1.7
				c0-1.4,0.9-2.2,3.9-3.1v-1c0-0.9-0.4-1.3-1.2-1.3c-0.6,0-1.1,0.3-1.1,0.8c0,0.1,0.1,0.5,0.1,0.6c0,0.4-0.4,0.7-0.7,0.7
				c-0.4,0-0.6-0.2-0.6-0.7c0-1,1.4-1.8,2.6-1.8c1.4,0,2.3,0.8,2.3,2.3v3.6c0,0.4,0.1,0.6,0.4,0.6c0.2,0,0.5-0.1,0.8-0.4V-1100.1z
				 M-104.8-1103.5c-0.9,0.3-1.5,0.5-1.7,0.6c-0.6,0.3-0.8,0.8-0.8,1.5c0,0.7,0.4,1.3,1,1.3c0.4,0,0.9-0.2,1.5-0.6V-1103.5z"/>
			<path d="M-101.5-1105.9l2.6-0.9v6.8c0,2.7-0.9,4-2.6,4c-0.8,0-1.5-0.3-1.5-1c0-0.4,0.2-0.6,0.6-0.6c0.4,0,1.2,1,1.6,1
				c0.4,0,0.6-0.6,0.6-1.8v-6.2c0-0.6-0.2-1-0.5-1c-0.1,0-0.4,0-0.7,0.1V-1105.9z M-99.6-1108.8c-0.4,0-0.8-0.4-0.8-0.8
				c0-0.4,0.4-0.8,0.8-0.8s0.8,0.4,0.8,0.8C-98.8-1109.2-99.2-1108.8-99.6-1108.8z"/>
			<path d="M-95.3-1099.3H-96l2.4-7.4h-2.5c-0.7,0-1.2,0.4-1.5,1.1l-0.2-0.1l0.7-2h4.6L-95.3-1099.3z"/>
		</g>
	</g>
	<g transform="matrix(0.7425,0,0,0.7425,132.907,1101.59)">
	</g>
	<g transform="matrix(0.7425,0,0,0.7425,0,0)">
	</g>
	<g transform="matrix(0.7425,0,0,0.7425,1079.59,1101.59)">
	</g>
	<g transform="matrix(0.7425,0,0,0.7425,1079.59,1101.59)">
		<g class="st1">
			<path d="M-1086.8-1101.2h2.2c1.1,0,1.4-0.5,1.5-1.6h0.3v4h-0.3c0-1.2-0.4-1.7-1.5-1.7h-2.2v3.7c0,1.5,0.2,1.8,1.7,1.8v0.3h-5
				v-0.3c1.5,0,1.7-0.3,1.7-1.8v-7.6c0-1.5-0.2-1.8-1.7-1.8v-0.3h8.9v2.6h-0.3c-0.4-1.6-1-2-2.6-2h-2.6V-1101.2z"/>
			<path d="M-1075.3-1109.2v3.1l1.2-0.4v2l-1.2,0.4v3.7l1.2-0.4v2l-1.2,0.4v3.4h-0.5v-3.2l-2.1,0.7v3.2h-0.5v-3.1l-1.2,0.4v-2
				l1.2-0.4v-3.7l-1.2,0.4v-2l1.2-0.4v-3.4h0.5v3.2l2.1-0.7v-3.2H-1075.3z M-1075.9-1104l-2.1,0.7v3.7l2.1-0.7V-1104z"/>
			<path d="M-1067.4-1105.7c0.4,0.6,0.7,1.3,0.7,2.1c0,1.9-1.5,3.4-3.4,3.4c-0.8,0-1.5-0.3-2.1-0.7l-1.4,1.4l-0.7-0.7l1.4-1.4
				c-0.4-0.5-0.6-1.2-0.6-2c0-1.9,1.5-3.4,3.4-3.4c0.7,0,1.4,0.2,2,0.6l1.2-1.2l0.7,0.7L-1067.4-1105.7z M-1072.1-1102.4l3.3-3.3
				c-0.4-0.2-0.8-0.3-1.2-0.3c-1.3,0-2.4,1.1-2.4,2.4C-1072.4-1103.2-1072.3-1102.8-1072.1-1102.4z M-1068.1-1105l-3.3,3.3
				c0.4,0.3,0.9,0.4,1.3,0.4c1.3,0,2.4-1.1,2.4-2.4C-1067.7-1104.1-1067.8-1104.6-1068.1-1105z"/>
			<path d="M-1062.6-1099.3h-0.7l2.4-7.4h-2.5c-0.7,0-1.2,0.4-1.5,1.1l-0.2-0.1l0.7-2h4.6L-1062.6-1099.3z"/>
		</g>
	</g>
	<g transform="matrix(0.7425,0,0,0.7425,1079.59,1101.59)">
	</g>
	<g transform="matrix(0.7425,0,0,0.7425,0,0)">
	</g>
	<g transform="matrix(0.7425,0,0,0.7425,1647.61,1101.59)">
	</g>
	<g transform="matrix(0.7425,0,0,0.7425,1647.61,1101.59)">
		<g class="st1">
			<path d="M-1653.7-1098c0,1.9-1.9,3.3-3.7,3.3h-6.5v-0.4c1.5,0,1.6-0.3,1.6-1.7v-7.5c0-1.4-0.1-1.8-1.6-1.8v-0.4h5.9
				c2,0,3.8,1.3,3.8,3.1c0,1.3-0.9,2.2-2.3,2.6C-1654.8-1100.5-1653.7-1099.3-1653.7-1098z M-1656-1103.4c0-1.3-1-2.3-2.3-2.3h-1.2
				c-0.9,0-1.1,0.3-1.1,1.3v3.2h2.3C-1656.9-1101.2-1656-1102-1656-1103.4z M-1660.4-1095.7c0.2,0.2,1.2,0.3,1.9,0.3
				c2.3,0,2.8-1.4,2.8-2.6c0-1.4-1.2-2.3-2.6-2.3h-2.3v4C-1660.5-1096-1660.5-1095.8-1660.4-1095.7z"/>
			<path d="M-1650.5-1099.3h-0.7l2.4-7.4h-2.5c-0.7,0-1.2,0.4-1.5,1.1l-0.2-0.1l0.7-2h4.6L-1650.5-1099.3z"/>
		</g>
	</g>
	<g transform="matrix(0.7425,0,0,0.7425,1647.61,1101.59)">
	</g>
	<g transform="matrix(0.7425,0,0,0.7425,0,0)">
	</g>
	<g transform="matrix(0.7425,0,0,0.7425,2176.27,1101.59)">
	</g>
	<g transform="matrix(0.7425,0,0,0.7425,2176.27,1101.59)">
		<g class="st1">
			<path d="M-2188.3-1094.7h-9.7v-0.4c1.5,0,1.6-0.3,1.6-1.7v-7.5c0-1.4-0.1-1.7-1.6-1.7v-0.4h9.6v2.7h-0.4
				c-0.1-1.2-0.7-1.8-1.7-1.8h-3.1c-0.8,0-1,0.4-1,1.2v3.3h3.1c1,0,1.7-0.7,1.7-1.7h0.4v4.2h-0.4c0-1-0.7-1.7-1.7-1.7h-3.1v3.7
				c0,0.8,0.2,1.2,1,1.2h3c1.2,0,2.3-1,2.6-2.2h0.5L-2188.3-1094.7z"/>
			<path d="M-2178.3-1094.7v-0.3c0.7,0,1-0.2,1-1.2v-3.7c0-0.9-0.4-1.3-1.2-1.3c-0.6,0-1.3,0.3-1.8,1c0.1,0.1,0.1,0.5,0.1,1.1v1.6
				c0,0.8,0,1.2,0,1.2c0,1.1,0.2,1.3,1,1.3v0.3h-3.4v-0.3c0.7,0,1-0.2,1-1.2v-3.7c0-0.9-0.4-1.3-1.1-1.3c-0.6,0-1.2,0.3-1.8,1v4.1
				c0,0.9,0.3,1.1,1,1.1v0.3h-3.4v-0.3c0.9,0,1-0.3,1-1.3v-4c0-0.4-0.1-0.6-0.3-0.6h-0.8v-0.3l2.4-0.8v1.3c0.7-0.9,1.5-1.3,2.5-1.3
				c0.9,0,1.4,0.4,1.6,1.3c0.8-0.9,1.7-1.3,2.7-1.3c0.5,0,0.9,0.1,1.2,0.4c0.3,0.3,0.6,1.3,0.6,1.8v3.6c0,1.1,0.2,1.3,1,1.3v0.3
				H-2178.3z"/>
			<path d="M-2172-1099.3h-0.7l2.4-7.4h-2.5c-0.7,0-1.2,0.4-1.5,1.1l-0.2-0.1l0.7-2h4.6L-2172-1099.3z"/>
		</g>
	</g>
	<g transform="matrix(0.7425,0,0,0.7425,2176.27,1101.59)">
	</g>
	<g transform="matrix(0.7425,0,0,0.7425,0,0)">
	</g>
	<g transform="matrix(0.7425,0,0,0.7425,2530.44,1101.59)">
	</g>
	<g transform="matrix(0.7425,0,0,0.7425,2530.44,1101.59)">
		<g class="st1">
			<path d="M-2547.9-1094.7v-0.4c0.8,0,1.2-0.2,1.2-0.7c0-0.5-0.5-1.7-0.9-2.7h-4.7c-0.5,1-1,2.3-1,2.7c0,0.4,0.4,0.7,1.2,0.7v0.4
				h-3.6v-0.4c0.7-0.1,1.2-0.4,1.6-1.2l4.4-10.4h0.5l4.1,9.8c0.7,1.6,0.9,1.7,1.7,1.8v0.4H-2547.9z M-2551.9-1099.3h4l-2.1-4.7
				L-2551.9-1099.3z"/>
			<path d="M-2540.2-1099.3h-0.7l2.4-7.4h-2.5c-0.7,0-1.2,0.4-1.5,1.1l-0.2-0.1l0.7-2h4.6L-2540.2-1099.3z"/>
		</g>
	</g>
	<g transform="matrix(0.7425,0,0,0.7425,2530.44,1101.59)">
	</g>
	<g transform="matrix(0.7425,0,0,0.7425,0,0)">
	</g>
	<g transform="matrix(0.7425,0,0,0.7425,0,0)">
		<line vector-effect="none" class="st0" x1="284" y1="521.2" x2="284" y2="553.2"/>
	</g>
	<g transform="matrix(0.7425,0,0,0.7425,0,0)">
		<line vector-effect="none" class="st0" x1="466.5" y1="521.2" x2="466.5" y2="553.2"/>
	</g>
	<g transform="matrix(0.7425,0,0,0.7425,0,0)">
		<line vector-effect="none" class="st0" x1="648.2" y1="521.2" x2="648.2" y2="553.2"/>
	</g>
	<g transform="matrix(0.7425,0,0,0.7425,0,0)">
		<line vector-effect="none" class="st0" x1="830" y1="521.2" x2="830" y2="553.2"/>
	</g>
	<g transform="matrix(0.7425,0,0,0.7425,0,0)">
		<line vector-effect="none" class="st0" x1="962.2" y1="521.2" x2="962.2" y2="553.2"/>
	</g>
	<g transform="matrix(0.7425,0,0,0.7425,0,0)">
		<line vector-effect="none" class="st2" x1="967.8" y1="521.2" x2="967.8" y2="553.2"/>
	</g>
	<g transform="matrix(0.7425,0,0,0.7425,0,0)">
	</g>
	<g transform="matrix(0.7425,0,0,0.7425,149.242,1434.98)">
	</g>
	<g transform="matrix(0.7425,0,0,0.7425,149.242,1434.98)">
		<g class="st1">
			<path d="M-145.5-1431.5h-5v-0.4c1.5,0,1.6-0.3,1.6-1.7v-7.5c0-1.4-0.1-1.7-1.6-1.7v-0.4h5.6c0.8,0,1.7,0.2,2.6,0.5
				c2.5,0.9,3.7,2.7,3.7,5.4C-138.5-1433.6-141.2-1431.5-145.5-1431.5z M-145.6-1442.6c-1.4,0-1.4,0.2-1.4,1.6v7.1
				c0,1.4,0,1.6,1.5,1.6c3.3,0,5.1-1.8,5.1-5C-140.5-1440.5-142.3-1442.6-145.6-1442.6z"/>
			<path d="M-129.4-1431.5v-0.3c0.7,0,1-0.2,1-1.2v-3.7c0-0.9-0.4-1.3-1.2-1.3c-0.6,0-1.3,0.3-1.8,1c0.1,0.1,0.1,0.5,0.1,1.1v1.6
				c0,0.8,0,1.2,0,1.2c0,1.1,0.2,1.3,1,1.3v0.3h-3.4v-0.3c0.7,0,1-0.2,1-1.2v-3.7c0-0.9-0.4-1.3-1.1-1.3c-0.6,0-1.2,0.3-1.8,1v4.1
				c0,0.9,0.3,1.1,1,1.1v0.3h-3.4v-0.3c0.9,0,1-0.3,1-1.3v-4c0-0.4-0.1-0.6-0.3-0.6h-0.8v-0.3l2.4-0.8v1.3c0.7-0.9,1.5-1.3,2.5-1.3
				c0.9,0,1.4,0.4,1.6,1.3c0.8-0.9,1.7-1.3,2.7-1.3c0.5,0,0.9,0.1,1.2,0.4c0.3,0.3,0.6,1.3,0.6,1.8v3.6c0,1.1,0.2,1.3,1,1.3v0.3
				H-129.4z"/>
			<path d="M-123.1-1436.1h-0.7l2.4-7.4h-2.5c-0.7,0-1.2,0.4-1.5,1.1l-0.2-0.1l0.7-2h4.6L-123.1-1436.1z"/>
		</g>
	</g>
	<g transform="matrix(0.7425,0,0,0.7425,149.242,1434.98)">
	</g>
	<g transform="matrix(0.7425,0,0,0.7425,0,0)">
	</g>
	<g transform="matrix(0.7425,0,0,0.7425,500.445,1434.98)">
	</g>
	<g transform="matrix(0.7425,0,0,0.7425,500.445,1434.98)">
		<g class="st1">
			<path d="M-494.3-1439.8h-0.3c-0.7-2.1-2-3.1-3.9-3.1c-2.7,0-4.4,2.2-4.4,5.4c0,3.2,1.9,5.8,4.5,5.8c0.9,0,1.7-0.2,2.4-0.6v-3.4
				c0-1.3-0.2-1.7-1.5-1.7v-0.4h4.5v0.4c-1.2,0-1.3,0.5-1.3,1.7v3.6c-1.3,0.7-2.6,1-4.1,1c-3.7,0-6.5-2.3-6.5-5.9
				c0-3.4,2.6-6.4,6.2-6.4c0.7,0,1.6,0.2,2.7,0.6c0.3,0.1,0.6,0.2,0.6,0.2c0.3,0,0.4-0.2,0.4-0.7h0.3L-494.3-1439.8z"/>
			<path d="M-489.7-1436.1h-0.7l2.4-7.4h-2.5c-0.7,0-1.2,0.4-1.5,1.1l-0.2-0.1l0.7-2h4.6L-489.7-1436.1z"/>
		</g>
	</g>
	<g transform="matrix(0.7425,0,0,0.7425,500.445,1434.98)">
	</g>
	<g transform="matrix(0.7425,0,0,0.7425,0,0)">
	</g>
	<g transform="matrix(0.7425,0,0,0.7425,853.875,1434.98)">
	</g>
	<g transform="matrix(0.7425,0,0,0.7425,853.875,1434.98)">
		<g class="st1">
			<path d="M-858.8-1438h2.2c1.1,0,1.4-0.5,1.5-1.6h0.3v4h-0.3c0-1.2-0.4-1.7-1.5-1.7h-2.2v3.7c0,1.5,0.2,1.8,1.7,1.8v0.3h-5v-0.3
				c1.5,0,1.7-0.3,1.7-1.8v-7.6c0-1.5-0.2-1.8-1.7-1.8v-0.3h8.9v2.6h-0.3c-0.4-1.6-1-2-2.6-2h-2.6V-1438z"/>
			<path d="M-847.4-1445.9v3.1l1.2-0.4v2l-1.2,0.4v3.7l1.2-0.4v2l-1.2,0.4v3.4h-0.5v-3.2l-2.1,0.7v3.2h-0.5v-3.1l-1.2,0.4v-2
				l1.2-0.4v-3.7l-1.2,0.4v-2l1.2-0.4v-3.4h0.5v3.2l2.1-0.7v-3.2H-847.4z M-847.9-1440.8l-2.1,0.7v3.7l2.1-0.7V-1440.8z"/>
			<path d="M-839.4-1442.5c0.4,0.6,0.7,1.3,0.7,2.1c0,1.9-1.5,3.4-3.4,3.4c-0.8,0-1.5-0.3-2.1-0.7l-1.4,1.4l-0.7-0.7l1.4-1.4
				c-0.4-0.5-0.6-1.2-0.6-2c0-1.9,1.5-3.4,3.4-3.4c0.7,0,1.4,0.2,2,0.6l1.2-1.2l0.7,0.7L-839.4-1442.5z M-844.1-1439.2l3.3-3.3
				c-0.4-0.2-0.8-0.3-1.2-0.3c-1.3,0-2.4,1.1-2.4,2.4C-844.4-1440-844.3-1439.5-844.1-1439.2z M-840.1-1441.7l-3.3,3.3
				c0.4,0.3,0.9,0.4,1.3,0.4c1.3,0,2.4-1.1,2.4-2.4C-839.7-1440.9-839.8-1441.4-840.1-1441.7z"/>
			<path d="M-834.6-1436.1h-0.7l2.4-7.4h-2.5c-0.7,0-1.2,0.4-1.5,1.1l-0.2-0.1l0.7-2h4.6L-834.6-1436.1z"/>
		</g>
	</g>
	<g transform="matrix(0.7425,0,0,0.7425,853.875,1434.98)">
	</g>
	<g transform="matrix(0.7425,0,0,0.7425,0,0)">
	</g>
	<g transform="matrix(0.7425,0,0,0.7425,1414.46,1434.98)">
	</g>
	<g transform="matrix(0.7425,0,0,0.7425,1414.46,1434.98)">
		<g class="st1">
			<path d="M-1418.2-1434.8c0,1.9-1.9,3.3-3.7,3.3h-6.5v-0.4c1.5,0,1.6-0.3,1.6-1.7v-7.5c0-1.4-0.1-1.8-1.6-1.8v-0.4h5.9
				c2,0,3.8,1.3,3.8,3.1c0,1.3-0.9,2.2-2.3,2.6C-1419.3-1437.2-1418.2-1436-1418.2-1434.8z M-1420.5-1440.1c0-1.3-1-2.3-2.3-2.3
				h-1.2c-0.9,0-1.1,0.3-1.1,1.3v3.2h2.3C-1421.4-1437.9-1420.5-1438.8-1420.5-1440.1z M-1424.9-1432.5c0.2,0.2,1.2,0.3,1.9,0.3
				c2.3,0,2.8-1.4,2.8-2.6c0-1.4-1.2-2.3-2.6-2.3h-2.3v4C-1425-1432.8-1425-1432.6-1424.9-1432.5z"/>
			<path d="M-1415-1436.1h-0.7l2.4-7.4h-2.5c-0.7,0-1.2,0.4-1.5,1.1l-0.2-0.1l0.7-2h4.6L-1415-1436.1z"/>
		</g>
	</g>
	<g transform="matrix(0.7425,0,0,0.7425,1414.46,1434.98)">
	</g>
	<g transform="matrix(0.7425,0,0,0.7425,0,0)">
	</g>
	<g transform="matrix(0.7425,0,0,0.7425,1943.86,1434.98)">
	</g>
	<g transform="matrix(0.7425,0,0,0.7425,1943.86,1434.98)">
		<g class="st1">
			<path d="M-1953.6-1431.5h-9.7v-0.4c1.5,0,1.6-0.3,1.6-1.7v-7.5c0-1.4-0.1-1.7-1.6-1.7v-0.4h9.6v2.7h-0.4
				c-0.1-1.2-0.7-1.8-1.7-1.8h-3.1c-0.8,0-1,0.4-1,1.2v3.3h3.1c1,0,1.7-0.7,1.7-1.7h0.4v4.2h-0.4c0-1-0.7-1.7-1.7-1.7h-3.1v3.7
				c0,0.8,0.2,1.2,1,1.2h3c1.2,0,2.3-1,2.6-2.2h0.5L-1953.6-1431.5z"/>
			<path d="M-1943.6-1431.5v-0.3c0.7,0,1-0.2,1-1.2v-3.7c0-0.9-0.4-1.3-1.2-1.3c-0.6,0-1.3,0.3-1.8,1c0.1,0.1,0.1,0.5,0.1,1.1v1.6
				c0,0.8,0,1.2,0,1.2c0,1.1,0.2,1.3,1,1.3v0.3h-3.4v-0.3c0.7,0,1-0.2,1-1.2v-3.7c0-0.9-0.4-1.3-1.1-1.3c-0.6,0-1.2,0.3-1.8,1v4.1
				c0,0.9,0.3,1.1,1,1.1v0.3h-3.4v-0.3c0.9,0,1-0.3,1-1.3v-4c0-0.4-0.1-0.6-0.3-0.6h-0.8v-0.3l2.4-0.8v1.3c0.7-0.9,1.5-1.3,2.5-1.3
				c0.9,0,1.4,0.4,1.6,1.3c0.8-0.9,1.7-1.3,2.7-1.3c0.5,0,0.9,0.1,1.2,0.4c0.3,0.3,0.6,1.3,0.6,1.8v3.6c0,1.1,0.2,1.3,1,1.3v0.3
				H-1943.6z"/>
		</g>
	</g>
	<g transform="matrix(0.7425,0,0,0.7425,1943.86,1434.98)">
	</g>
	<g transform="matrix(0.7425,0,0,0.7425,0,0)">
	</g>
	<g transform="matrix(0.7425,0,0,0.7425,147.757,117.388)">
	</g>
	<g transform="matrix(0.7425,0,0,0.7425,147.757,117.388)">
		<g class="st1">
			<path d="M-138.6-73.8v0.8c0,0.3,0,0.5,0,0.6c0,0.8,0.3,1,1.8,1.1l0.1,0.9h-7.9l0.1-0.9c1-0.1,1.6-0.3,1.8-0.6
				c0.1-0.2,0.1-0.8,0.1-1.9h-6.6v-1.3c2-2.5,3.8-7.1,4.1-10.3h5.5c-0.3,1.5-1.5,3.2-3.4,5.2c-2.2,2.2-3.5,3.8-4,5.1h4.4v-3.7l4-3.6
				v7.3h2v1.4H-138.6z"/>
		</g>
	</g>
	<g transform="matrix(0.7425,0,0,0.7425,147.757,117.388)">
		<g class="st1">
			<path d="M-138.6-57.6v0.8c0,0.3,0,0.5,0,0.6c0,0.8,0.3,1,1.8,1.1l0.1,0.9h-7.9l0.1-0.9c1-0.1,1.6-0.3,1.8-0.6
				c0.1-0.2,0.1-0.8,0.1-1.9h-6.6v-1.3c2-2.5,3.8-7.1,4.1-10.3h5.5c-0.3,1.5-1.5,3.2-3.4,5.2c-2.2,2.2-3.5,3.8-4,5.1h4.4v-3.7l4-3.6
				v7.3h2v1.4H-138.6z"/>
		</g>
	</g>
	<g transform="matrix(0.7425,0,0,0.7425,147.757,117.388)">
	</g>
	<g transform="matrix(0.7425,0,0,0.7425,0,0)">
	</g>
	<g transform="matrix(0.7425,0,0,0.7425,0,0)">
		<line vector-effect="none" class="st3" x1="0" y1="104.4" x2="969.8" y2="104.4"/>
	</g>
	<g transform="matrix(0.7425,0,0,0.7425,0,0)">
		<line vector-effect="none" class="st3" x1="0" y1="96.4" x2="969.8" y2="96.4"/>
	</g>
	<g transform="matrix(0.7425,0,0,0.7425,0,0)">
		<line vector-effect="none" class="st3" x1="0" y1="88.4" x2="969.8" y2="88.4"/>
	</g>
	<g transform="matrix(0.7425,0,0,0.7425,0,0)">
		<line vector-effect="none" class="st3" x1="0" y1="80.4" x2="969.8" y2="80.4"/>
	</g>
	<g transform="matrix(0.7425,0,0,0.7425,0,0)">
		<line vector-effect="none" class="st3" x1="0" y1="72.4" x2="969.8" y2="72.4"/>
	</g>
	<g transform="matrix(0.7425,0,0,0.7425,0,0)">
		<g class="st1">
			<path d="M11.7,95.3c4.7-4.2,7.6-9.8,7.6-14.9c0-4.1-2.3-7.1-6-7.1c-2.6,0-5.4,2.2-5.4,4.4c0,0.4,0.1,0.5,0.2,0.5
				c-0.1,0,0.9-1,2.2-1c1.4,0,2.5,1.3,2.5,2.8c0,2-1.4,3.6-3.4,3.6c-2,0-3.3-2.1-3.3-4.6c0-3.8,3.7-6.7,7.8-6.7
				c7.5,0,9.5,5.2,9.5,9.4c0,2.7-0.7,4.7-3.2,8.6c-3.1,4.9-10.4,8.5-13,8.5c-0.7,0-1-0.3-1-0.7C8.6,97.3,10.4,96.4,11.7,95.3z
				 M27.8,74.8c0.9,0,1.6,0.7,1.6,1.6S28.7,78,27.8,78c-0.9,0-1.6-0.7-1.6-1.6S26.9,74.8,27.8,74.8z M27.8,82.8
				c0.9,0,1.6,0.7,1.6,1.6c0,0.9-0.7,1.6-1.6,1.6c-0.9,0-1.6-0.7-1.6-1.6C26.2,83.5,26.9,82.8,27.8,82.8z"/>
		</g>
	</g>
	<g transform="matrix(0.7425,0,0,0.7425,0,0)">
		<g class="st1">
			<path d="M40.3,69.4V74l1.7-0.5v2.9l-1.7,0.5v5.5l1.7-0.5v2.9l-1.7,0.5v5h-0.8v-4.8l-3.1,1v4.8h-0.8v-4.6L34,87.4v-2.9l1.7-0.5
				v-5.5L34,78.9V76l1.7-0.5v-5h0.8v4.8l3.1-1v-4.8H40.3z M39.5,77.1l-3.1,1v5.5l3.1-1V77.1z"/>
		</g>
	</g>
	<g transform="matrix(0.7425,0,0,0.7425,0,0)">
		<line vector-effect="none" class="st3" x1="0" y1="216.7" x2="969.8" y2="216.7"/>
	</g>
	<g transform="matrix(0.7425,0,0,0.7425,0,0)">
		<line vector-effect="none" class="st3" x1="0" y1="208.7" x2="969.8" y2="208.7"/>
	</g>
	<g transform="matrix(0.7425,0,0,0.7425,0,0)">
		<line vector-effect="none" class="st3" x1="0" y1="200.7" x2="969.8" y2="200.7"/>
	</g>
	<g transform="matrix(0.7425,0,0,0.7425,0,0)">
		<line vector-effect="none" class="st3" x1="0" y1="192.7" x2="969.8" y2="192.7"/>
	</g>
	<g transform="matrix(0.7425,0,0,0.7425,0,0)">
		<line vector-effect="none" class="st3" x1="0" y1="184.7" x2="969.8" y2="184.7"/>
	</g>
	<g transform="matrix(0.7425,0,0,0.7425,0,0)">
		<g class="st1">
			<path d="M11.7,207.5c4.7-4.2,7.6-9.8,7.6-14.9c0-4.1-2.3-7.1-6-7.1c-2.6,0-5.4,2.2-5.4,4.4c0,0.4,0.1,0.5,0.2,0.5
				c-0.1,0,0.9-1,2.2-1c1.4,0,2.5,1.3,2.5,2.8c0,2-1.4,3.6-3.4,3.6c-2,0-3.3-2.1-3.3-4.6c0-3.8,3.7-6.7,7.8-6.7
				c7.5,0,9.5,5.2,9.5,9.4c0,2.7-0.7,4.7-3.2,8.6c-3.1,4.9-10.4,8.5-13,8.5c-0.7,0-1-0.3-1-0.7C8.6,209.6,10.4,208.7,11.7,207.5z
				 M27.8,187.1c0.9,0,1.6,0.7,1.6,1.6s-0.7,1.6-1.6,1.6c-0.9,0-1.6-0.7-1.6-1.6S26.9,187.1,27.8,187.1z M27.8,195
				c0.9,0,1.6,0.7,1.6,1.6c0,0.9-0.7,1.6-1.6,1.6c-0.9,0-1.6-0.7-1.6-1.6C26.2,195.7,26.9,195,27.8,195z"/>
		</g>
	</g>
	<g transform="matrix(0.7425,0,0,0.7425,0,0)">
		<g class="st1">
			<path d="M40.3,181.7v4.6l1.7-0.5v2.9l-1.7,0.5v5.5l1.7-0.5v2.9l-1.7,0.5v5h-0.8v-4.8l-3.1,1v4.8h-0.8v-4.6l-1.7,0.5v-2.9l1.7-0.5
				v-5.5l-1.7,0.5v-2.9l1.7-0.5v-5h0.8v4.8l3.1-1v-4.8H40.3z M39.5,189.4l-3.1,1v5.5l3.1-1V189.4z"/>
		</g>
	</g>
	<g transform="matrix(0.7425,0,0,0.7425,0,0)">
		<g class="st1">
			<path d="M437,192.7h9v3.8h-9V192.7z"/>
		</g>
	</g>
	<g transform="matrix(0.7425,0,0,0.7425,0,0)">
		<g class="st1">
			<path d="M907,192.7h9v3.8h-9V192.7z"/>
		</g>
	</g>
	<g transform="matrix(0.7425,0,0,0.7425,0,0)">
		<line vector-effect="none" class="st3" x1="0" y1="328.7" x2="969.8" y2="328.7"/>
	</g>
	<g transform="matrix(0.7425,0,0,0.7425,0,0)">
		<line vector-effect="none" class="st3" x1="0" y1="320.7" x2="969.8" y2="320.7"/>
	</g>
	<g transform="matrix(0.7425,0,0,0.7425,0,0)">
		<line vector-effect="none" class="st3" x1="0" y1="312.7" x2="969.8" y2="312.7"/>
	</g>
	<g transform="matrix(0.7425,0,0,0.7425,0,0)">
		<line vector-effect="none" class="st3" x1="0" y1="304.7" x2="969.8" y2="304.7"/>
	</g>
	<g transform="matrix(0.7425,0,0,0.7425,0,0)">
		<line vector-effect="none" class="st3" x1="0" y1="296.7" x2="969.8" y2="296.7"/>
	</g>
	<g transform="matrix(0.7425,0,0,0.7425,0,0)">
		<g class="st1">
			<path d="M11.7,319.5c4.7-4.2,7.6-9.8,7.6-14.9c0-4.1-2.3-7.1-6-7.1c-2.6,0-5.4,2.2-5.4,4.4c0,0.4,0.1,0.5,0.2,0.5
				c-0.1,0,0.9-1,2.2-1c1.4,0,2.5,1.3,2.5,2.8c0,2-1.4,3.6-3.4,3.6c-2,0-3.3-2.1-3.3-4.6c0-3.8,3.7-6.7,7.8-6.7
				c7.5,0,9.5,5.2,9.5,9.4c0,2.7-0.7,4.7-3.2,8.6c-3.1,4.9-10.4,8.5-13,8.5c-0.7,0-1-0.3-1-0.7C8.6,321.6,10.4,320.7,11.7,319.5z
				 M27.8,299.1c0.9,0,1.6,0.7,1.6,1.6c0,0.9-0.7,1.6-1.6,1.6c-0.9,0-1.6-0.7-1.6-1.6C26.2,299.8,26.9,299.1,27.8,299.1z M27.8,307
				c0.9,0,1.6,0.7,1.6,1.6c0,0.9-0.7,1.6-1.6,1.6c-0.9,0-1.6-0.7-1.6-1.6C26.2,307.7,26.9,307,27.8,307z"/>
		</g>
	</g>
	<g transform="matrix(0.7425,0,0,0.7425,0,0)">
		<g class="st1">
			<path d="M40.3,293.7v4.6l1.7-0.5v2.9l-1.7,0.5v5.5l1.7-0.5v2.9l-1.7,0.5v5h-0.8v-4.8l-3.1,1v4.8h-0.8v-4.6l-1.7,0.5v-2.9l1.7-0.5
				v-5.5l-1.7,0.5v-2.9l1.7-0.5v-5h0.8v4.8l3.1-1v-4.8H40.3z M39.5,301.4l-3.1,1v5.5l3.1-1V301.4z"/>
		</g>
	</g>
	<g transform="matrix(0.7425,0,0,0.7425,0,0)">
		<g class="st1">
			<path d="M585.2,304.7h9v3.8h-9V304.7z"/>
		</g>
	</g>
	<g transform="matrix(0.7425,0,0,0.7425,0,0)">
		<line vector-effect="none" class="st3" x1="0" y1="440.9" x2="969.8" y2="440.9"/>
	</g>
	<g transform="matrix(0.7425,0,0,0.7425,0,0)">
		<line vector-effect="none" class="st3" x1="0" y1="432.9" x2="969.8" y2="432.9"/>
	</g>
	<g transform="matrix(0.7425,0,0,0.7425,0,0)">
		<line vector-effect="none" class="st3" x1="0" y1="424.9" x2="969.8" y2="424.9"/>
	</g>
	<g transform="matrix(0.7425,0,0,0.7425,0,0)">
		<line vector-effect="none" class="st3" x1="0" y1="416.9" x2="969.8" y2="416.9"/>
	</g>
	<g transform="matrix(0.7425,0,0,0.7425,0,0)">
		<line vector-effect="none" class="st3" x1="0" y1="408.9" x2="969.8" y2="408.9"/>
	</g>
	<g transform="matrix(0.7425,0,0,0.7425,0,0)">
		<g class="st1">
			<path d="M11.7,431.8c4.7-4.2,7.6-9.8,7.6-14.9c0-4.1-2.3-7.1-6-7.1c-2.6,0-5.4,2.2-5.4,4.4c0,0.4,0.1,0.5,0.2,0.5
				c-0.1,0,0.9-1,2.2-1c1.4,0,2.5,1.3,2.5,2.8c0,2-1.4,3.6-3.4,3.6c-2,0-3.3-2.1-3.3-4.6c0-3.8,3.7-6.7,7.8-6.7
				c7.5,0,9.5,5.2,9.5,9.4c0,2.7-0.7,4.7-3.2,8.6c-3.1,4.9-10.4,8.5-13,8.5c-0.7,0-1-0.3-1-0.7C8.6,433.8,10.4,432.9,11.7,431.8z
				 M27.8,411.3c0.9,0,1.6,0.7,1.6,1.6c0,0.9-0.7,1.6-1.6,1.6c-0.9,0-1.6-0.7-1.6-1.6C26.2,412,26.9,411.3,27.8,411.3z M27.8,419.3
				c0.9,0,1.6,0.7,1.6,1.6c0,0.9-0.7,1.6-1.6,1.6c-0.9,0-1.6-0.7-1.6-1.6C26.2,420,26.9,419.3,27.8,419.3z"/>
		</g>
	</g>
	<g transform="matrix(0.7425,0,0,0.7425,0,0)">
		<g class="st1">
			<path d="M40.3,405.9v4.6l1.7-0.5v2.9l-1.7,0.5v5.5l1.7-0.5v2.9l-1.7,0.5v5h-0.8v-4.8l-3.1,1v4.8h-0.8v-4.6l-1.7,0.5v-2.9l1.7-0.5
				v-5.5l-1.7,0.5v-2.9l1.7-0.5v-5h0.8v4.8l3.1-1v-4.8H40.3z M39.5,413.6l-3.1,1v5.5l3.1-1V413.6z"/>
		</g>
	</g>
	<g transform="matrix(0.7425,0,0,0.7425,0,0)">
		<g class="st1">
			<path d="M292.2,416.9h9v3.8h-9V416.9z"/>
		</g>
	</g>
	<g transform="matrix(0.7425,0,0,0.7425,0,0)">
		<path vector-effect="none" class="st4" d="M742,444.9l33.8-4v-4l-33.8,4V444.9"/>
	</g>
	<g transform="matrix(0.7425,0,0,0.7425,0,0)">
		<path vector-effect="none" class="st4" d="M856,436.9l33.8-4v-4l-33.8,4V436.9"/>
	</g>
	<g transform="matrix(0.7425,0,0,0.7425,0,0)">
		<line vector-effect="none" class="st3" x1="0" y1="553.2" x2="969.8" y2="553.2"/>
	</g>
	<g transform="matrix(0.7425,0,0,0.7425,0,0)">
		<line vector-effect="none" class="st3" x1="0" y1="545.2" x2="969.8" y2="545.2"/>
	</g>
	<g transform="matrix(0.7425,0,0,0.7425,0,0)">
		<line vector-effect="none" class="st3" x1="0" y1="537.2" x2="969.8" y2="537.2"/>
	</g>
	<g transform="matrix(0.7425,0,0,0.7425,0,0)">
		<line vector-effect="none" class="st3" x1="0" y1="529.2" x2="969.8" y2="529.2"/>
	</g>
	<g transform="matrix(0.7425,0,0,0.7425,0,0)">
		<line vector-effect="none" class="st3" x1="0" y1="521.2" x2="969.8" y2="521.2"/>
	</g>
	<g transform="matrix(0.7425,0,0,0.7425,0,0)">
		<g class="st1">
			<path d="M11.7,544c4.7-4.2,7.6-9.8,7.6-14.9c0-4.1-2.3-7.1-6-7.1c-2.6,0-5.4,2.2-5.4,4.4c0,0.4,0.1,0.5,0.2,0.5
				c-0.1,0,0.9-1,2.2-1c1.4,0,2.5,1.3,2.5,2.8c0,2-1.4,3.6-3.4,3.6c-2,0-3.3-2.1-3.3-4.6c0-3.8,3.7-6.7,7.8-6.7
				c7.5,0,9.5,5.2,9.5,9.4c0,2.7-0.7,4.7-3.2,8.6c-3.1,4.9-10.4,8.5-13,8.5c-0.7,0-1-0.3-1-0.7C8.6,546.1,10.4,545.2,11.7,544z
				 M27.8,523.6c0.9,0,1.6,0.7,1.6,1.6c0,0.9-0.7,1.6-1.6,1.6c-0.9,0-1.6-0.7-1.6-1.6C26.2,524.3,26.9,523.6,27.8,523.6z
				 M27.8,531.5c0.9,0,1.6,0.7,1.6,1.6c0,0.9-0.7,1.6-1.6,1.6c-0.9,0-1.6-0.7-1.6-1.6C26.2,532.2,26.9,531.5,27.8,531.5z"/>
		</g>
	</g>
	<g transform="matrix(0.7425,0,0,0.7425,0,0)">
		<g class="st1">
			<path d="M40.3,518.2v4.6l1.7-0.5v2.9l-1.7,0.5v5.5l1.7-0.5v2.9l-1.7,0.5v5h-0.8v-4.8l-3.1,1v4.8h-0.8v-4.6l-1.7,0.5v-2.9l1.7-0.5
				v-5.5l-1.7,0.5v-2.9l1.7-0.5v-5h0.8v4.8l3.1-1v-4.8H40.3z M39.5,525.9l-3.1,1v5.5l3.1-1V525.9z"/>
		</g>
	</g>
	<g transform="matrix(0.7425,0,0,0.7425,0,0)">
		<path vector-effect="none" class="st4" d="M60.2,563.2l33.2-4v-4l-33.2,4V563.2"/>
	</g>
	<g transform="matrix(0.7425,0,0,0.7425,0,0)">
		<path vector-effect="none" class="st4" d="M172.5,549.2l33.2-4v-4l-33.2,4V549.2"/>
	</g>
	<g transform="matrix(0.7425,0,0,0.7425,0,0)">
		<g class="st1">
			<path d="M889.5,529.2h9v3.8h-9V529.2z"/>
		</g>
	</g>
	<g transform="matrix(0.7425,0,0,0.7425,0,0)">
		<line vector-effect="none" class="st3" x1="75.2" y1="73.7" x2="75.2" y2="100.4"/>
	</g>
	<g transform="matrix(0.7425,0,0,0.7425,0,0)">
		<g class="st1">
			<path d="M75,73.8c0-2.9,4.1-5.6,7.3-5.6c2.1,0,3.6,1.1,3.6,2.8c0,2.8-4.1,5.6-7.4,5.6C76.6,76.6,75,75.6,75,73.8z"/>
		</g>
	</g>
	<g transform="matrix(0.7425,0,0,0.7425,0,0)">
		<line vector-effect="none" class="st0" x1="117.8" y1="64.4" x2="134.8" y2="64.4"/>
	</g>
	<g transform="matrix(0.7425,0,0,0.7425,0,0)">
		<line vector-effect="none" class="st3" x1="121" y1="65.7" x2="121" y2="92.4"/>
	</g>
	<g transform="matrix(0.7425,0,0,0.7425,0,0)">
		<g class="st1">
			<path d="M120.8,65.8c0-2.9,4.1-5.6,7.3-5.6c2.1,0,3.6,1.1,3.6,2.8c0,2.8-4.1,5.6-7.4,5.6C122.3,68.6,120.8,67.6,120.8,65.8z"/>
		</g>
	</g>
	<g transform="matrix(0.7425,0,0,0.7425,0,0)">
		<line vector-effect="none" class="st0" x1="163.8" y1="64.4" x2="181" y2="64.4"/>
	</g>
	<g transform="matrix(0.7425,0,0,0.7425,0,0)">
		<line vector-effect="none" class="st0" x1="163.8" y1="56.4" x2="181" y2="56.4"/>
	</g>
	<g transform="matrix(0.7425,0,0,0.7425,0,0)">
		<line vector-effect="none" class="st3" x1="167" y1="57.7" x2="167" y2="88.4"/>
	</g>
	<g transform="matrix(0.7425,0,0,0.7425,0,0)">
		<g class="st1">
			<path d="M173.6,52.1c2.7,0,4.4,1.2,4.4,3.2c0,3-3.7,5.4-7.3,5.4c-2.2,0-3.9-1.1-3.9-2.8C166.8,54.9,170.4,52.1,173.6,52.1z
				 M167.5,58.3c0,1,0.6,1.5,1.8,1.5c2.3,0,8-3.4,8-5.2c0-1-0.6-1.5-1.8-1.5C173.4,53,167.5,56.3,167.5,58.3z"/>
		</g>
	</g>
	<g transform="matrix(0.7425,0,0,0.7425,0,0)">
		<line vector-effect="none" class="st3" x1="256.5" y1="89.7" x2="256.5" y2="116.4"/>
	</g>
	<g transform="matrix(0.7425,0,0,0.7425,0,0)">
		<g class="st1">
			<path d="M256.2,89.8c0-2.9,4.1-5.6,7.3-5.6c2.1,0,3.6,1.1,3.6,2.8c0,2.8-4.1,5.6-7.4,5.6C257.8,92.6,256.2,91.6,256.2,89.8z"/>
		</g>
	</g>
	<g transform="matrix(0.7425,0,0,0.7425,0,0)">
		<line vector-effect="none" class="st3" x1="302.5" y1="81.7" x2="302.5" y2="108.4"/>
	</g>
	<g transform="matrix(0.7425,0,0,0.7425,0,0)">
		<g class="st1">
			<path d="M302.3,81.8c0-2.9,4.1-5.6,7.3-5.6c2.1,0,3.6,1.1,3.6,2.8c0,2.8-4.1,5.6-7.4,5.6C303.8,84.6,302.3,83.6,302.3,81.8z"/>
		</g>
	</g>
	<g transform="matrix(0.7425,0,0,0.7425,0,0)">
		<line vector-effect="none" class="st3" x1="348.2" y1="73.7" x2="348.2" y2="100.4"/>
	</g>
	<g transform="matrix(0.7425,0,0,0.7425,0,0)">
		<g class="st1">
			<path d="M354.9,68.1c2.7,0,4.4,1.2,4.4,3.2c0,3-3.7,5.4-7.3,5.4c-2.2,0-3.9-1.1-3.9-2.8C348,70.9,351.6,68.1,354.9,68.1z
				 M348.7,74.3c0,1,0.6,1.5,1.8,1.5c2.3,0,8-3.4,8-5.2c0-1-0.6-1.5-1.8-1.5C354.7,69,348.7,72.3,348.7,74.3z"/>
		</g>
	</g>
	<g transform="matrix(0.7425,0,0,0.7425,0,0)">
		<line vector-effect="none" class="st3" x1="438" y1="77.7" x2="438" y2="104.4"/>
	</g>
	<g transform="matrix(0.7425,0,0,0.7425,0,0)">
		<g class="st1">
			<path d="M437.7,77.8c0-2.9,4.1-5.6,7.3-5.6c2.1,0,3.6,1.1,3.6,2.8c0,2.8-4.1,5.6-7.4,5.6C439.3,80.6,437.7,79.6,437.7,77.8z"/>
		</g>
	</g>
	<g transform="matrix(0.7425,0,0,0.7425,0,0)">
		<line vector-effect="none" class="st3" x1="483.8" y1="69.7" x2="483.8" y2="96.4"/>
	</g>
	<g transform="matrix(0.7425,0,0,0.7425,0,0)">
		<g class="st1">
			<path d="M483.5,69.8c0-2.9,4.1-5.6,7.3-5.6c2.1,0,3.6,1.1,3.6,2.8c0,2.8-4.1,5.6-7.4,5.6C485.1,72.6,483.5,71.6,483.5,69.8z"/>
		</g>
	</g>
	<g transform="matrix(0.7425,0,0,0.7425,0,0)">
		<line vector-effect="none" class="st0" x1="526.2" y1="64.4" x2="543.5" y2="64.4"/>
	</g>
	<g transform="matrix(0.7425,0,0,0.7425,0,0)">
		<line vector-effect="none" class="st3" x1="529.5" y1="61.7" x2="529.5" y2="88.4"/>
	</g>
	<g transform="matrix(0.7425,0,0,0.7425,0,0)">
		<g class="st1">
			<path d="M536.1,56.1c2.7,0,4.4,1.2,4.4,3.2c0,3-3.7,5.4-7.3,5.4c-2.2,0-3.9-1.1-3.9-2.8C529.2,58.9,532.9,56.1,536.1,56.1z
				 M530,62.3c0,1,0.6,1.5,1.8,1.5c2.3,0,8-3.4,8-5.2c0-1-0.6-1.5-1.8-1.5C535.9,57,530,60.3,530,62.3z"/>
		</g>
	</g>
	<g transform="matrix(0.7425,0,0,0.7425,0,0)">
		<line vector-effect="none" class="st0" x1="616" y1="64.4" x2="633" y2="64.4"/>
	</g>
	<g transform="matrix(0.7425,0,0,0.7425,0,0)">
		<line vector-effect="none" class="st3" x1="619.2" y1="65.7" x2="619.2" y2="118.4"/>
	</g>
	<g transform="matrix(0.7425,0,0,0.7425,0,0)">
		<g class="st1">
			<path d="M619,65.4c0-2.1,3-4.2,5.5-4.2c1.6,0,2.7,0.8,2.7,2.1c0,2.1-3,4.2-5.5,4.2C620.2,67.6,619,66.8,619,65.4z"/>
		</g>
	</g>
	<g transform="matrix(0.7425,0,0,0.7425,0,0)">
		<g class="st1">
			<path d="M619,93.8c0-2.9,4.1-5.6,7.3-5.6c2.1,0,3.6,1.1,3.6,2.8c0,2.8-4.1,5.6-7.4,5.6C620.6,96.6,619,95.6,619,93.8z"/>
		</g>
	</g>
	<g transform="matrix(0.7425,0,0,0.7425,0,0)">
		<line vector-effect="none" class="st0" x1="661.8" y1="64.4" x2="678.8" y2="64.4"/>
	</g>
	<g transform="matrix(0.7425,0,0,0.7425,0,0)">
		<line vector-effect="none" class="st0" x1="661.8" y1="56.4" x2="678.8" y2="56.4"/>
	</g>
	<g transform="matrix(0.7425,0,0,0.7425,0,0)">
		<line vector-effect="none" class="st3" x1="665" y1="57.7" x2="665" y2="112.4"/>
	</g>
	<g transform="matrix(0.7425,0,0,0.7425,0,0)">
		<g class="st1">
			<path d="M664.8,57.4c0-2.1,3-4.2,5.5-4.2c1.6,0,2.7,0.8,2.7,2.1c0,2.1-3,4.2-5.5,4.2C665.9,59.6,664.8,58.8,664.8,57.4z"/>
		</g>
	</g>
	<g transform="matrix(0.7425,0,0,0.7425,0,0)">
		<g class="st1">
			<path d="M664.8,85.8c0-2.9,4.1-5.6,7.3-5.6c2.1,0,3.6,1.1,3.6,2.8c0,2.8-4.1,5.6-7.4,5.6C666.3,88.6,664.8,87.6,664.8,85.8z"/>
		</g>
	</g>
	<g transform="matrix(0.7425,0,0,0.7425,0,0)">
		<line vector-effect="none" class="st0" x1="707.8" y1="64.4" x2="725" y2="64.4"/>
	</g>
	<g transform="matrix(0.7425,0,0,0.7425,0,0)">
		<line vector-effect="none" class="st0" x1="707.8" y1="56.4" x2="725" y2="56.4"/>
	</g>
	<g transform="matrix(0.7425,0,0,0.7425,0,0)">
		<line vector-effect="none" class="st0" x1="707.8" y1="48.4" x2="725" y2="48.4"/>
	</g>
	<g transform="matrix(0.7425,0,0,0.7425,0,0)">
		<line vector-effect="none" class="st3" x1="711" y1="49.7" x2="711" y2="104.4"/>
	</g>
	<g transform="matrix(0.7425,0,0,0.7425,0,0)">
		<g class="st1">
			<path d="M715.9,45.2c2,0,3.3,0.9,3.3,2.4c0,2.2-2.8,4.1-5.5,4.1c-1.6,0-2.9-0.7-2.9-2.1C710.7,47.3,713.5,45.2,715.9,45.2z
				 M711.3,49.8c0,0.7,0.4,1.1,1.4,1.1c1.7,0,6-2.5,6-3.9c0-0.7-0.4-1.1-1.4-1.1C715.7,45.9,711.3,48.3,711.3,49.8z"/>
		</g>
	</g>
	<g transform="matrix(0.7425,0,0,0.7425,0,0)">
		<g class="st1">
			<path d="M717.6,72.1c2.7,0,4.4,1.2,4.4,3.2c0,3-3.7,5.4-7.3,5.4c-2.2,0-3.9-1.1-3.9-2.8C710.7,74.9,714.4,72.1,717.6,72.1z
				 M711.5,78.3c0,1,0.6,1.5,1.8,1.5c2.3,0,8-3.4,8-5.2c0-1-0.6-1.5-1.8-1.5C717.4,73,711.5,76.3,711.5,78.3z"/>
		</g>
	</g>
	<g transform="matrix(0.7425,0,0,0.7425,0,0)">
		<line vector-effect="none" class="st3" x1="800.8" y1="81.7" x2="800.8" y2="108.4"/>
	</g>
	<g transform="matrix(0.7425,0,0,0.7425,0,0)">
		<g class="st1">
			<path d="M800.5,81.8c0-2.9,4.1-5.6,7.3-5.6c2.1,0,3.6,1.1,3.6,2.8c0,2.8-4.1,5.6-7.4,5.6C802.1,84.6,800.5,83.6,800.5,81.8z"/>
		</g>
	</g>
	<g transform="matrix(0.7425,0,0,0.7425,0,0)">
		<line vector-effect="none" class="st3" x1="846.5" y1="73.7" x2="846.5" y2="100.4"/>
	</g>
	<g transform="matrix(0.7425,0,0,0.7425,0,0)">
		<g class="st1">
			<path d="M846.3,73.8c0-2.9,4.1-5.6,7.3-5.6c2.1,0,3.6,1.1,3.6,2.8c0,2.8-4.1,5.6-7.4,5.6C847.8,76.6,846.3,75.6,846.3,73.8z"/>
		</g>
	</g>
	<g transform="matrix(0.7425,0,0,0.7425,0,0)">
		<line vector-effect="none" class="st0" x1="889" y1="64.4" x2="906.2" y2="64.4"/>
	</g>
	<g transform="matrix(0.7425,0,0,0.7425,0,0)">
		<line vector-effect="none" class="st3" x1="892.2" y1="65.7" x2="892.2" y2="92.4"/>
	</g>
	<g transform="matrix(0.7425,0,0,0.7425,0,0)">
		<g class="st1">
			<path d="M898.9,60.1c2.7,0,4.4,1.2,4.4,3.2c0,3-3.7,5.4-7.3,5.4c-2.2,0-3.9-1.1-3.9-2.8C892,62.9,895.6,60.1,898.9,60.1z
				 M892.7,66.3c0,1,0.6,1.5,1.8,1.5c2.3,0,8-3.4,8-5.2c0-1-0.6-1.5-1.8-1.5C898.7,61,892.7,64.3,892.7,66.3z"/>
		</g>
	</g>
	<g transform="matrix(0.7425,0,0,0.7425,0,0)">
		<line vector-effect="none" class="st3" x1="60.2" y1="181.9" x2="60.2" y2="208.7"/>
	</g>
	<g transform="matrix(0.7425,0,0,0.7425,0,0)">
		<g class="st1">
			<path d="M60,182c0-2.9,4.1-5.6,7.3-5.6c2.1,0,3.6,1.1,3.6,2.8c0,2.8-4.1,5.6-7.4,5.6C61.6,184.8,60,183.8,60,182z"/>
		</g>
	</g>
	<g transform="matrix(0.7425,0,0,0.7425,0,0)">
		<line vector-effect="none" class="st0" x1="99" y1="176.7" x2="116" y2="176.7"/>
	</g>
	<g transform="matrix(0.7425,0,0,0.7425,0,0)">
		<line vector-effect="none" class="st3" x1="102.2" y1="173.9" x2="102.2" y2="200.7"/>
	</g>
	<g transform="matrix(0.7425,0,0,0.7425,0,0)">
		<g class="st1">
			<path d="M102,174c0-2.9,4.1-5.6,7.3-5.6c2.1,0,3.6,1.1,3.6,2.8c0,2.8-4.1,5.6-7.4,5.6C103.6,176.8,102,175.8,102,174z"/>
		</g>
	</g>
	<g transform="matrix(0.7425,0,0,0.7425,0,0)">
		<g class="st1">
			<path d="M96.1,161.7v4.6l1.7-0.5v2.9l-1.7,0.5v5.5l1.7-0.5v2.9l-1.7,0.5v5h-0.8v-4.8l-3.1,1v4.8h-0.8v-4.6l-1.7,0.5v-2.9l1.7-0.5
				v-5.5l-1.7,0.5v-2.9l1.7-0.5v-5h0.8v4.8l3.1-1v-4.8H96.1z M95.3,169.4l-3.1,1v5.5l3.1-1V169.4z"/>
		</g>
	</g>
	<g transform="matrix(0.7425,0,0,0.7425,0,0)">
		<line vector-effect="none" class="st0" x1="141.2" y1="176.7" x2="158.5" y2="176.7"/>
	</g>
	<g transform="matrix(0.7425,0,0,0.7425,0,0)">
		<line vector-effect="none" class="st0" x1="141.2" y1="168.7" x2="158.5" y2="168.7"/>
	</g>
	<g transform="matrix(0.7425,0,0,0.7425,0,0)">
		<line vector-effect="none" class="st3" x1="144.5" y1="165.9" x2="144.5" y2="200.7"/>
	</g>
	<g transform="matrix(0.7425,0,0,0.7425,0,0)">
		<g class="st1">
			<path d="M151.1,160.3c2.7,0,4.4,1.2,4.4,3.2c0,3-3.7,5.4-7.3,5.4c-2.2,0-3.9-1.1-3.9-2.8C144.3,163.2,147.9,160.3,151.1,160.3z
				 M145,166.5c0,1,0.6,1.5,1.8,1.5c2.3,0,8-3.4,8-5.2c0-1-0.6-1.5-1.8-1.5C150.9,161.3,145,164.5,145,166.5z"/>
		</g>
	</g>
	<g transform="matrix(0.7425,0,0,0.7425,0,0)">
		<line vector-effect="none" class="st3" x1="227.8" y1="197.9" x2="227.8" y2="224.7"/>
	</g>
	<g transform="matrix(0.7425,0,0,0.7425,0,0)">
		<g class="st1">
			<path d="M227.5,198c0-2.9,4.1-5.6,7.3-5.6c2.1,0,3.6,1.1,3.6,2.8c0,2.8-4.1,5.6-7.4,5.6C229.1,200.8,227.5,199.8,227.5,198z"/>
		</g>
	</g>
	<g transform="matrix(0.7425,0,0,0.7425,0,0)">
		<line vector-effect="none" class="st3" x1="270" y1="189.9" x2="270" y2="216.7"/>
	</g>
	<g transform="matrix(0.7425,0,0,0.7425,0,0)">
		<g class="st1">
			<path d="M269.8,190c0-2.9,4.1-5.6,7.3-5.6c2.1,0,3.6,1.1,3.6,2.8c0,2.8-4.1,5.6-7.4,5.6C271.3,192.8,269.8,191.8,269.8,190z"/>
		</g>
	</g>
	<g transform="matrix(0.7425,0,0,0.7425,0,0)">
		<line vector-effect="none" class="st3" x1="312" y1="181.9" x2="312" y2="208.7"/>
	</g>
	<g transform="matrix(0.7425,0,0,0.7425,0,0)">
		<g class="st1">
			<path d="M318.6,176.3c2.7,0,4.4,1.2,4.4,3.2c0,3-3.7,5.4-7.3,5.4c-2.2,0-3.9-1.1-3.9-2.8C311.8,179.2,315.4,176.3,318.6,176.3z
				 M312.5,182.5c0,1,0.6,1.5,1.8,1.5c2.3,0,8-3.4,8-5.2c0-1-0.6-1.5-1.8-1.5C318.4,177.3,312.5,180.5,312.5,182.5z"/>
		</g>
	</g>
	<g transform="matrix(0.7425,0,0,0.7425,0,0)">
		<line vector-effect="none" class="st3" x1="530.2" y1="181.9" x2="530.2" y2="208.7"/>
	</g>
	<g transform="matrix(0.7425,0,0,0.7425,0,0)">
		<g class="st1">
			<path d="M530,182c0-2.9,4.1-5.6,7.3-5.6c2.1,0,3.6,1.1,3.6,2.8c0,2.8-4.1,5.6-7.4,5.6C531.6,184.8,530,183.8,530,182z"/>
		</g>
	</g>
	<g transform="matrix(0.7425,0,0,0.7425,0,0)">
		<line vector-effect="none" class="st0" x1="569" y1="176.7" x2="586" y2="176.7"/>
	</g>
	<g transform="matrix(0.7425,0,0,0.7425,0,0)">
		<line vector-effect="none" class="st3" x1="572.2" y1="173.9" x2="572.2" y2="200.7"/>
	</g>
	<g transform="matrix(0.7425,0,0,0.7425,0,0)">
		<g class="st1">
			<path d="M572,174c0-2.9,4.1-5.6,7.3-5.6c2.1,0,3.6,1.1,3.6,2.8c0,2.8-4.1,5.6-7.4,5.6C573.6,176.8,572,175.8,572,174z"/>
		</g>
	</g>
	<g transform="matrix(0.7425,0,0,0.7425,0,0)">
		<g class="st1">
			<path d="M566.1,161.7v4.6l1.7-0.5v2.9l-1.7,0.5v5.5l1.7-0.5v2.9l-1.7,0.5v5h-0.8v-4.8l-3.1,1v4.8h-0.8v-4.6l-1.7,0.5v-2.9
				l1.7-0.5v-5.5l-1.7,0.5v-2.9l1.7-0.5v-5h0.8v4.8l3.1-1v-4.8H566.1z M565.3,169.4l-3.1,1v5.5l3.1-1V169.4z"/>
		</g>
	</g>
	<g transform="matrix(0.7425,0,0,0.7425,0,0)">
		<line vector-effect="none" class="st0" x1="611.2" y1="176.7" x2="628.5" y2="176.7"/>
	</g>
	<g transform="matrix(0.7425,0,0,0.7425,0,0)">
		<line vector-effect="none" class="st0" x1="611.2" y1="168.7" x2="628.5" y2="168.7"/>
	</g>
	<g transform="matrix(0.7425,0,0,0.7425,0,0)">
		<line vector-effect="none" class="st3" x1="614.5" y1="165.9" x2="614.5" y2="200.7"/>
	</g>
	<g transform="matrix(0.7425,0,0,0.7425,0,0)">
		<g class="st1">
			<path d="M621.1,160.3c2.7,0,4.4,1.2,4.4,3.2c0,3-3.7,5.4-7.3,5.4c-2.2,0-3.9-1.1-3.9-2.8C614.2,163.2,617.9,160.3,621.1,160.3z
				 M615,166.5c0,1,0.6,1.5,1.8,1.5c2.3,0,8-3.4,8-5.2c0-1-0.6-1.5-1.8-1.5C620.9,161.3,615,164.5,615,166.5z"/>
		</g>
	</g>
	<g transform="matrix(0.7425,0,0,0.7425,0,0)">
		<line vector-effect="none" class="st3" x1="697.8" y1="197.9" x2="697.8" y2="224.7"/>
	</g>
	<g transform="matrix(0.7425,0,0,0.7425,0,0)">
		<g class="st1">
			<path d="M697.5,198c0-2.9,4.1-5.6,7.3-5.6c2.1,0,3.6,1.1,3.6,2.8c0,2.8-4.1,5.6-7.4,5.6C699.1,200.8,697.5,199.8,697.5,198z"/>
		</g>
	</g>
	<g transform="matrix(0.7425,0,0,0.7425,0,0)">
		<line vector-effect="none" class="st3" x1="740" y1="189.9" x2="740" y2="216.7"/>
	</g>
	<g transform="matrix(0.7425,0,0,0.7425,0,0)">
		<g class="st1">
			<path d="M739.8,190c0-2.9,4.1-5.6,7.3-5.6c2.1,0,3.6,1.1,3.6,2.8c0,2.8-4.1,5.6-7.4,5.6C741.3,192.8,739.8,191.8,739.8,190z"/>
		</g>
	</g>
	<g transform="matrix(0.7425,0,0,0.7425,0,0)">
		<line vector-effect="none" class="st3" x1="782" y1="181.9" x2="782" y2="208.7"/>
	</g>
	<g transform="matrix(0.7425,0,0,0.7425,0,0)">
		<g class="st1">
			<path d="M788.6,176.3c2.7,0,4.4,1.2,4.4,3.2c0,3-3.7,5.4-7.3,5.4c-2.2,0-3.9-1.1-3.9-2.8C781.7,179.2,785.4,176.3,788.6,176.3z
				 M782.5,182.5c0,1,0.6,1.5,1.8,1.5c2.3,0,8-3.4,8-5.2c0-1-0.6-1.5-1.8-1.5C788.4,177.3,782.5,180.5,782.5,182.5z"/>
		</g>
	</g>
	<g transform="matrix(0.7425,0,0,0.7425,0,0)">
		<line vector-effect="none" class="st3" x1="60.2" y1="305.9" x2="60.2" y2="332.7"/>
	</g>
	<g transform="matrix(0.7425,0,0,0.7425,0,0)">
		<g class="st1">
			<path d="M60,306c0-2.9,4.1-5.6,7.3-5.6c2.1,0,3.6,1.1,3.6,2.8c0,2.8-4.1,5.6-7.4,5.6C61.6,308.8,60,307.8,60,306z"/>
		</g>
	</g>
	<g transform="matrix(0.7425,0,0,0.7425,0,0)">
		<line vector-effect="none" class="st3" x1="100.8" y1="297.9" x2="100.8" y2="324.7"/>
	</g>
	<g transform="matrix(0.7425,0,0,0.7425,0,0)">
		<g class="st1">
			<path d="M100.5,298c0-2.9,4.1-5.6,7.3-5.6c2.1,0,3.6,1.1,3.6,2.8c0,2.8-4.1,5.6-7.4,5.6C102.1,300.8,100.5,299.8,100.5,298z"/>
		</g>
	</g>
	<g transform="matrix(0.7425,0,0,0.7425,0,0)">
		<line vector-effect="none" class="st0" x1="138" y1="288.7" x2="155.2" y2="288.7"/>
	</g>
	<g transform="matrix(0.7425,0,0,0.7425,0,0)">
		<line vector-effect="none" class="st3" x1="141.2" y1="289.9" x2="141.2" y2="316.7"/>
	</g>
	<g transform="matrix(0.7425,0,0,0.7425,0,0)">
		<g class="st1">
			<path d="M147.9,284.3c2.7,0,4.4,1.2,4.4,3.2c0,3-3.7,5.4-7.3,5.4c-2.2,0-3.9-1.1-3.9-2.8C141,287.2,144.6,284.3,147.9,284.3z
				 M141.7,290.5c0,1,0.6,1.5,1.8,1.5c2.3,0,8-3.4,8-5.2c0-1-0.6-1.5-1.8-1.5C147.7,285.3,141.7,288.5,141.7,290.5z"/>
		</g>
	</g>
	<g transform="matrix(0.7425,0,0,0.7425,0,0)">
		<line vector-effect="none" class="st3" x1="222.2" y1="293.9" x2="222.2" y2="320.7"/>
	</g>
	<g transform="matrix(0.7425,0,0,0.7425,0,0)">
		<g class="st1">
			<path d="M222,294c0-2.9,4.1-5.6,7.3-5.6c2.1,0,3.6,1.1,3.6,2.8c0,2.8-4.1,5.6-7.4,5.6C223.6,296.8,222,295.8,222,294z"/>
		</g>
	</g>
	<g transform="matrix(0.7425,0,0,0.7425,0,0)">
		<line vector-effect="none" class="st0" x1="259.5" y1="288.7" x2="276.5" y2="288.7"/>
	</g>
	<g transform="matrix(0.7425,0,0,0.7425,0,0)">
		<line vector-effect="none" class="st3" x1="262.8" y1="285.9" x2="262.8" y2="312.7"/>
	</g>
	<g transform="matrix(0.7425,0,0,0.7425,0,0)">
		<g class="st1">
			<path d="M262.5,286c0-2.9,4.1-5.6,7.3-5.6c2.1,0,3.6,1.1,3.6,2.8c0,2.8-4.1,5.6-7.4,5.6C264.1,288.8,262.5,287.8,262.5,286z"/>
		</g>
	</g>
	<g transform="matrix(0.7425,0,0,0.7425,0,0)">
		<g class="st1">
			<path d="M256.6,273.7v4.6l1.7-0.5v2.9l-1.7,0.5v5.5l1.7-0.5v2.9l-1.7,0.5v5h-0.8v-4.8l-3.1,1v4.8h-0.8v-4.6l-1.7,0.5v-2.9
				l1.7-0.5v-5.5l-1.7,0.5v-2.9l1.7-0.5v-5h0.8v4.8l3.1-1v-4.8H256.6z M255.8,281.4l-3.1,1v5.5l3.1-1V281.4z"/>
		</g>
	</g>
	<g transform="matrix(0.7425,0,0,0.7425,0,0)">
		<line vector-effect="none" class="st0" x1="300" y1="288.7" x2="317.2" y2="288.7"/>
	</g>
	<g transform="matrix(0.7425,0,0,0.7425,0,0)">
		<line vector-effect="none" class="st0" x1="300" y1="280.7" x2="317.2" y2="280.7"/>
	</g>
	<g transform="matrix(0.7425,0,0,0.7425,0,0)">
		<line vector-effect="none" class="st3" x1="303.2" y1="277.9" x2="303.2" y2="312.7"/>
	</g>
	<g transform="matrix(0.7425,0,0,0.7425,0,0)">
		<g class="st1">
			<path d="M309.9,272.3c2.7,0,4.4,1.2,4.4,3.2c0,3-3.7,5.4-7.3,5.4c-2.2,0-3.9-1.1-3.9-2.8C303,275.2,306.6,272.3,309.9,272.3z
				 M303.7,278.5c0,1,0.6,1.5,1.8,1.5c2.3,0,8-3.4,8-5.2c0-1-0.6-1.5-1.8-1.5C309.7,273.3,303.7,276.5,303.7,278.5z"/>
		</g>
	</g>
	<g transform="matrix(0.7425,0,0,0.7425,0,0)">
		<line vector-effect="none" class="st3" x1="384" y1="309.9" x2="384" y2="336.7"/>
	</g>
	<g transform="matrix(0.7425,0,0,0.7425,0,0)">
		<g class="st1">
			<path d="M383.8,310c0-2.9,4.1-5.6,7.3-5.6c2.1,0,3.6,1.1,3.6,2.8c0,2.8-4.1,5.6-7.4,5.6C385.3,312.8,383.8,311.8,383.8,310z"/>
		</g>
	</g>
	<g transform="matrix(0.7425,0,0,0.7425,0,0)">
		<line vector-effect="none" class="st3" x1="424.5" y1="301.9" x2="424.5" y2="328.7"/>
	</g>
	<g transform="matrix(0.7425,0,0,0.7425,0,0)">
		<g class="st1">
			<path d="M424.3,302c0-2.9,4.1-5.6,7.3-5.6c2.1,0,3.6,1.1,3.6,2.8c0,2.8-4.1,5.6-7.4,5.6C425.8,304.8,424.3,303.8,424.3,302z"/>
		</g>
	</g>
	<g transform="matrix(0.7425,0,0,0.7425,0,0)">
		<line vector-effect="none" class="st3" x1="465.2" y1="293.9" x2="465.2" y2="320.7"/>
	</g>
	<g transform="matrix(0.7425,0,0,0.7425,0,0)">
		<g class="st1">
			<path d="M471.9,288.3c2.7,0,4.4,1.2,4.4,3.2c0,3-3.7,5.4-7.3,5.4c-2.2,0-3.9-1.1-3.9-2.8C465,291.2,468.6,288.3,471.9,288.3z
				 M465.7,294.5c0,1,0.6,1.5,1.8,1.5c2.3,0,8-3.4,8-5.2c0-1-0.6-1.5-1.8-1.5C471.7,289.3,465.7,292.5,465.7,294.5z"/>
		</g>
	</g>
	<g transform="matrix(0.7425,0,0,0.7425,0,0)">
		<line vector-effect="none" class="st3" x1="658.2" y1="297.9" x2="658.2" y2="324.7"/>
	</g>
	<g transform="matrix(0.7425,0,0,0.7425,0,0)">
		<g class="st1">
			<path d="M658,298c0-2.9,4.1-5.6,7.3-5.6c2.1,0,3.6,1.1,3.6,2.8c0,2.8-4.1,5.6-7.4,5.6C659.6,300.8,658,299.8,658,298z"/>
		</g>
	</g>
	<g transform="matrix(0.7425,0,0,0.7425,0,0)">
		<line vector-effect="none" class="st0" x1="695.5" y1="288.7" x2="712.5" y2="288.7"/>
	</g>
	<g transform="matrix(0.7425,0,0,0.7425,0,0)">
		<line vector-effect="none" class="st3" x1="698.8" y1="289.9" x2="698.8" y2="316.7"/>
	</g>
	<g transform="matrix(0.7425,0,0,0.7425,0,0)">
		<g class="st1">
			<path d="M698.5,290c0-2.9,4.1-5.6,7.3-5.6c2.1,0,3.6,1.1,3.6,2.8c0,2.8-4.1,5.6-7.4,5.6C700.1,292.8,698.5,291.8,698.5,290z"/>
		</g>
	</g>
	<g transform="matrix(0.7425,0,0,0.7425,0,0)">
		<line vector-effect="none" class="st0" x1="736" y1="288.7" x2="753.2" y2="288.7"/>
	</g>
	<g transform="matrix(0.7425,0,0,0.7425,0,0)">
		<line vector-effect="none" class="st0" x1="736" y1="280.7" x2="753.2" y2="280.7"/>
	</g>
	<g transform="matrix(0.7425,0,0,0.7425,0,0)">
		<line vector-effect="none" class="st3" x1="739.2" y1="281.9" x2="739.2" y2="312.7"/>
	</g>
	<g transform="matrix(0.7425,0,0,0.7425,0,0)">
		<g class="st1">
			<path d="M745.9,276.3c2.7,0,4.4,1.2,4.4,3.2c0,3-3.7,5.4-7.3,5.4c-2.2,0-3.9-1.1-3.9-2.8C739,279.2,742.6,276.3,745.9,276.3z
				 M739.7,282.5c0,1,0.6,1.5,1.8,1.5c2.3,0,8-3.4,8-5.2c0-1-0.6-1.5-1.8-1.5C745.7,277.3,739.7,280.5,739.7,282.5z"/>
		</g>
	</g>
	<g transform="matrix(0.7425,0,0,0.7425,0,0)">
		<line vector-effect="none" class="st3" x1="820" y1="313.9" x2="820" y2="340.7"/>
	</g>
	<g transform="matrix(0.7425,0,0,0.7425,0,0)">
		<g class="st1">
			<path d="M819.7,314c0-2.9,4.1-5.6,7.3-5.6c2.1,0,3.6,1.1,3.6,2.8c0,2.8-4.1,5.6-7.4,5.6C821.3,316.8,819.7,315.8,819.7,314z"/>
		</g>
	</g>
	<g transform="matrix(0.7425,0,0,0.7425,0,0)">
		<line vector-effect="none" class="st3" x1="860.8" y1="305.9" x2="860.8" y2="332.7"/>
	</g>
	<g transform="matrix(0.7425,0,0,0.7425,0,0)">
		<g class="st1">
			<path d="M860.5,306c0-2.9,4.1-5.6,7.3-5.6c2.1,0,3.6,1.1,3.6,2.8c0,2.8-4.1,5.6-7.4,5.6C862.1,308.8,860.5,307.8,860.5,306z"/>
		</g>
	</g>
	<g transform="matrix(0.7425,0,0,0.7425,0,0)">
		<line vector-effect="none" class="st3" x1="901.2" y1="297.9" x2="901.2" y2="324.7"/>
	</g>
	<g transform="matrix(0.7425,0,0,0.7425,0,0)">
		<g class="st1">
			<path d="M907.9,292.3c2.7,0,4.4,1.2,4.4,3.2c0,3-3.7,5.4-7.3,5.4c-2.2,0-3.9-1.1-3.9-2.8C901,295.2,904.6,292.3,907.9,292.3z
				 M901.7,298.5c0,1,0.6,1.5,1.8,1.5c2.3,0,8-3.4,8-5.2c0-1-0.6-1.5-1.8-1.5C907.7,293.3,901.7,296.5,901.7,298.5z"/>
		</g>
	</g>
	<g transform="matrix(0.7425,0,0,0.7425,0,0)">
		<line vector-effect="none" class="st3" x1="60.2" y1="414.2" x2="60.2" y2="440.9"/>
	</g>
	<g transform="matrix(0.7425,0,0,0.7425,0,0)">
		<g class="st1">
			<path d="M60,414.3c0-2.9,4.1-5.6,7.3-5.6c2.1,0,3.6,1.1,3.6,2.8c0,2.8-4.1,5.6-7.4,5.6C61.6,417.1,60,416.1,60,414.3z"/>
		</g>
	</g>
	<g transform="matrix(0.7425,0,0,0.7425,0,0)">
		<line vector-effect="none" class="st3" x1="106.8" y1="406.2" x2="106.8" y2="432.9"/>
	</g>
	<g transform="matrix(0.7425,0,0,0.7425,0,0)">
		<g class="st1">
			<path d="M106.5,406.3c0-2.9,4.1-5.6,7.3-5.6c2.1,0,3.6,1.1,3.6,2.8c0,2.8-4.1,5.6-7.4,5.6C108.1,409.1,106.5,408.1,106.5,406.3z"
				/>
		</g>
	</g>
	<g transform="matrix(0.7425,0,0,0.7425,0,0)">
		<line vector-effect="none" class="st0" x1="150.2" y1="400.9" x2="167.5" y2="400.9"/>
	</g>
	<g transform="matrix(0.7425,0,0,0.7425,0,0)">
		<line vector-effect="none" class="st3" x1="153.5" y1="398.2" x2="153.5" y2="424.9"/>
	</g>
	<g transform="matrix(0.7425,0,0,0.7425,0,0)">
		<g class="st1">
			<path d="M160.1,392.6c2.7,0,4.4,1.2,4.4,3.2c0,3-3.7,5.4-7.3,5.4c-2.2,0-3.9-1.1-3.9-2.8C153.2,395.4,156.9,392.6,160.1,392.6z
				 M154,398.8c0,1,0.6,1.5,1.8,1.5c2.3,0,8-3.4,8-5.2c0-1-0.6-1.5-1.8-1.5C159.9,393.5,154,396.8,154,398.8z"/>
		</g>
	</g>
	<g transform="matrix(0.7425,0,0,0.7425,0,0)">
		<line vector-effect="none" class="st3" x1="373.5" y1="418.2" x2="373.5" y2="444.9"/>
	</g>
	<g transform="matrix(0.7425,0,0,0.7425,0,0)">
		<g class="st1">
			<path d="M373.3,418.3c0-2.9,4.1-5.6,7.3-5.6c2.1,0,3.6,1.1,3.6,2.8c0,2.8-4.1,5.6-7.4,5.6C374.8,421.1,373.3,420.1,373.3,418.3z"
				/>
		</g>
	</g>
	<g transform="matrix(0.7425,0,0,0.7425,0,0)">
		<line vector-effect="none" class="st3" x1="420" y1="410.2" x2="420" y2="436.9"/>
	</g>
	<g transform="matrix(0.7425,0,0,0.7425,0,0)">
		<g class="st1">
			<path d="M419.7,410.3c0-2.9,4.1-5.6,7.3-5.6c2.1,0,3.6,1.1,3.6,2.8c0,2.8-4.1,5.6-7.4,5.6C421.3,413.1,419.7,412.1,419.7,410.3z"
				/>
		</g>
	</g>
	<g transform="matrix(0.7425,0,0,0.7425,0,0)">
		<line vector-effect="none" class="st0" x1="463.5" y1="400.9" x2="480.8" y2="400.9"/>
	</g>
	<g transform="matrix(0.7425,0,0,0.7425,0,0)">
		<line vector-effect="none" class="st3" x1="466.8" y1="402.2" x2="466.8" y2="428.9"/>
	</g>
	<g transform="matrix(0.7425,0,0,0.7425,0,0)">
		<g class="st1">
			<path d="M473.4,396.6c2.7,0,4.4,1.2,4.4,3.2c0,3-3.7,5.4-7.3,5.4c-2.2,0-3.9-1.1-3.9-2.8C466.5,399.4,470.1,396.6,473.4,396.6z
				 M467.2,402.8c0,1,0.6,1.5,1.8,1.5c2.3,0,8-3.4,8-5.2c0-1-0.6-1.5-1.8-1.5C473.2,397.5,467.2,400.8,467.2,402.8z"/>
		</g>
	</g>
	<g transform="matrix(0.7425,0,0,0.7425,0,0)">
		<line vector-effect="none" class="st3" x1="557.8" y1="406.2" x2="557.8" y2="432.9"/>
	</g>
	<g transform="matrix(0.7425,0,0,0.7425,0,0)">
		<g class="st1">
			<path d="M557.5,406.3c0-2.9,4.1-5.6,7.3-5.6c2.1,0,3.6,1.1,3.6,2.8c0,2.8-4.1,5.6-7.4,5.6C559.1,409.1,557.5,408.1,557.5,406.3z"
				/>
		</g>
	</g>
	<g transform="matrix(0.7425,0,0,0.7425,0,0)">
		<line vector-effect="none" class="st0" x1="601" y1="400.9" x2="618" y2="400.9"/>
	</g>
	<g transform="matrix(0.7425,0,0,0.7425,0,0)">
		<line vector-effect="none" class="st3" x1="604.2" y1="398.2" x2="604.2" y2="424.9"/>
	</g>
	<g transform="matrix(0.7425,0,0,0.7425,0,0)">
		<g class="st1">
			<path d="M604,398.3c0-2.9,4.1-5.6,7.3-5.6c2.1,0,3.6,1.1,3.6,2.8c0,2.8-4.1,5.6-7.4,5.6C605.6,401.1,604,400.1,604,398.3z"/>
		</g>
	</g>
	<g transform="matrix(0.7425,0,0,0.7425,0,0)">
		<g class="st1">
			<path d="M598.1,385.9v4.6l1.7-0.5v2.9l-1.7,0.5v5.5l1.7-0.5v2.9l-1.7,0.5v5h-0.8v-4.8l-3.1,1v4.8h-0.8v-4.6l-1.7,0.5v-2.9
				l1.7-0.5v-5.5l-1.7,0.5v-2.9l1.7-0.5v-5h0.8v4.8l3.1-1v-4.8H598.1z M597.3,393.6l-3.1,1v5.5l3.1-1V393.6z"/>
		</g>
	</g>
	<g transform="matrix(0.7425,0,0,0.7425,0,0)">
		<line vector-effect="none" class="st0" x1="647.8" y1="400.9" x2="665" y2="400.9"/>
	</g>
	<g transform="matrix(0.7425,0,0,0.7425,0,0)">
		<line vector-effect="none" class="st0" x1="647.8" y1="392.9" x2="665" y2="392.9"/>
	</g>
	<g transform="matrix(0.7425,0,0,0.7425,0,0)">
		<line vector-effect="none" class="st3" x1="651" y1="390.2" x2="651" y2="424.9"/>
	</g>
	<g transform="matrix(0.7425,0,0,0.7425,0,0)">
		<g class="st1">
			<path d="M657.6,384.6c2.7,0,4.4,1.2,4.4,3.2c0,3-3.7,5.4-7.3,5.4c-2.2,0-3.9-1.1-3.9-2.8C650.7,387.4,654.4,384.6,657.6,384.6z
				 M651.5,390.8c0,1,0.6,1.5,1.8,1.5c2.3,0,8-3.4,8-5.2c0-1-0.6-1.5-1.8-1.5C657.4,385.5,651.5,388.8,651.5,390.8z"/>
		</g>
	</g>
	<g transform="matrix(0.7425,0,0,0.7425,0,0)">
		<line vector-effect="none" class="st3" x1="742" y1="422.2" x2="742" y2="444.7"/>
	</g>
	<g transform="matrix(0.7425,0,0,0.7425,0,0)">
		<g class="st1">
			<path d="M741.7,422.3c0-2.9,4.1-5.6,7.3-5.6c2.1,0,3.6,1.1,3.6,2.8c0,2.8-4.1,5.6-7.4,5.6C743.3,425.1,741.7,424.1,741.7,422.3z"
				/>
		</g>
	</g>
	<g transform="matrix(0.7425,0,0,0.7425,0,0)">
		<line vector-effect="none" class="st3" x1="775.8" y1="414.2" x2="775.8" y2="440.7"/>
	</g>
	<g transform="matrix(0.7425,0,0,0.7425,0,0)">
		<g class="st1">
			<path d="M775.5,414.3c0-2.9,4.1-5.6,7.3-5.6c2.1,0,3.6,1.1,3.6,2.8c0,2.8-4.1,5.6-7.4,5.6C777.1,417.1,775.5,416.1,775.5,414.3z"
				/>
		</g>
	</g>
	<g transform="matrix(0.7425,0,0,0.7425,0,0)">
		<line vector-effect="none" class="st3" x1="809.5" y1="406.2" x2="809.5" y2="432.9"/>
	</g>
	<g transform="matrix(0.7425,0,0,0.7425,0,0)">
		<g class="st1">
			<path d="M809.3,406.3c0-2.9,4.1-5.6,7.3-5.6c2.1,0,3.6,1.1,3.6,2.8c0,2.8-4.1,5.6-7.4,5.6C810.8,409.1,809.3,408.1,809.3,406.3z"
				/>
		</g>
	</g>
	<g transform="matrix(0.7425,0,0,0.7425,0,0)">
		<line vector-effect="none" class="st3" x1="856" y1="410.2" x2="856" y2="436.7"/>
	</g>
	<g transform="matrix(0.7425,0,0,0.7425,0,0)">
		<g class="st1">
			<path d="M855.8,410.3c0-2.9,4.1-5.6,7.3-5.6c2.1,0,3.6,1.1,3.6,2.8c0,2.8-4.1,5.6-7.4,5.6C857.3,413.1,855.8,412.1,855.8,410.3z"
				/>
		</g>
	</g>
	<g transform="matrix(0.7425,0,0,0.7425,0,0)">
		<line vector-effect="none" class="st0" x1="886.5" y1="400.9" x2="903.5" y2="400.9"/>
	</g>
	<g transform="matrix(0.7425,0,0,0.7425,0,0)">
		<line vector-effect="none" class="st3" x1="889.8" y1="402.2" x2="889.8" y2="432.7"/>
	</g>
	<g transform="matrix(0.7425,0,0,0.7425,0,0)">
		<g class="st1">
			<path d="M889.5,402.3c0-2.9,4.1-5.6,7.3-5.6c2.1,0,3.6,1.1,3.6,2.8c0,2.8-4.1,5.6-7.4,5.6C891.1,405.1,889.5,404.1,889.5,402.3z"
				/>
		</g>
	</g>
	<g transform="matrix(0.7425,0,0,0.7425,0,0)">
		<g class="st1">
			<path d="M883.6,389.9v4.6l1.7-0.5v2.9l-1.7,0.5v5.5l1.7-0.5v2.9l-1.7,0.5v5h-0.8v-4.8l-3.1,1v4.8h-0.8v-4.6l-1.7,0.5v-2.9
				l1.7-0.5v-5.5l-1.7,0.5v-2.9l1.7-0.5v-5h0.8v4.8l3.1-1v-4.8H883.6z M882.8,397.6l-3.1,1v5.5l3.1-1V397.6z"/>
		</g>
	</g>
	<g transform="matrix(0.7425,0,0,0.7425,0,0)">
		<line vector-effect="none" class="st0" x1="920.2" y1="400.9" x2="937.2" y2="400.9"/>
	</g>
	<g transform="matrix(0.7425,0,0,0.7425,0,0)">
		<line vector-effect="none" class="st0" x1="920.2" y1="392.9" x2="937.2" y2="392.9"/>
	</g>
	<g transform="matrix(0.7425,0,0,0.7425,0,0)">
		<line vector-effect="none" class="st3" x1="923.5" y1="394.2" x2="923.5" y2="424.9"/>
	</g>
	<g transform="matrix(0.7425,0,0,0.7425,0,0)">
		<g class="st1">
			<path d="M923.2,394.3c0-2.9,4.1-5.6,7.3-5.6c2.1,0,3.6,1.1,3.6,2.8c0,2.8-4.1,5.6-7.4,5.6C924.8,397.1,923.2,396.1,923.2,394.3z"
				/>
		</g>
	</g>
	<g transform="matrix(0.7425,0,0,0.7425,0,0)">
		<line vector-effect="none" class="st3" x1="60.2" y1="538.4" x2="60.2" y2="562.9"/>
	</g>
	<g transform="matrix(0.7425,0,0,0.7425,0,0)">
		<g class="st1">
			<path d="M60,538.5c0-2.9,4.1-5.6,7.3-5.6c2.1,0,3.6,1.1,3.6,2.8c0,2.8-4.1,5.6-7.4,5.6C61.6,541.3,60,540.3,60,538.5z"/>
		</g>
	</g>
	<g transform="matrix(0.7425,0,0,0.7425,0,0)">
		<line vector-effect="none" class="st3" x1="93.5" y1="530.4" x2="93.5" y2="558.9"/>
	</g>
	<g transform="matrix(0.7425,0,0,0.7425,0,0)">
		<g class="st1">
			<path d="M93.3,530.5c0-2.9,4.1-5.6,7.3-5.6c2.1,0,3.6,1.1,3.6,2.8c0,2.8-4.1,5.6-7.4,5.6C94.8,533.3,93.3,532.3,93.3,530.5z"/>
		</g>
	</g>
	<g transform="matrix(0.7425,0,0,0.7425,0,0)">
		<g class="st1">
			<path d="M90.1,540.1v-6.4l-4.9,1.7v-17.2H86v6.4l4.9-1.7v17.2H90.1z M86,532.6l4.1-1.5v-5.4l-4.1,1.5V532.6z"/>
		</g>
	</g>
	<g transform="matrix(0.7425,0,0,0.7425,0,0)">
		<line vector-effect="none" class="st3" x1="126.8" y1="522.4" x2="126.8" y2="549.2"/>
	</g>
	<g transform="matrix(0.7425,0,0,0.7425,0,0)">
		<g class="st1">
			<path d="M126.5,522.5c0-2.9,4.1-5.6,7.3-5.6c2.1,0,3.6,1.1,3.6,2.8c0,2.8-4.1,5.6-7.4,5.6C128.1,525.3,126.5,524.3,126.5,522.5z"
				/>
		</g>
	</g>
	<g transform="matrix(0.7425,0,0,0.7425,0,0)">
		<line vector-effect="none" class="st3" x1="172.5" y1="526.4" x2="172.5" y2="548.9"/>
	</g>
	<g transform="matrix(0.7425,0,0,0.7425,0,0)">
		<g class="st1">
			<path d="M172.3,526.5c0-2.9,4.1-5.6,7.3-5.6c2.1,0,3.6,1.1,3.6,2.8c0,2.8-4.1,5.6-7.4,5.6C173.8,529.3,172.3,528.3,172.3,526.5z"
				/>
		</g>
	</g>
	<g transform="matrix(0.7425,0,0,0.7425,0,0)">
		<line vector-effect="none" class="st3" x1="205.8" y1="518.4" x2="205.8" y2="544.9"/>
	</g>
	<g transform="matrix(0.7425,0,0,0.7425,0,0)">
		<g class="st1">
			<path d="M205.5,518.5c0-2.9,4.1-5.6,7.3-5.6c2.1,0,3.6,1.1,3.6,2.8c0,2.8-4.1,5.6-7.4,5.6C207.1,521.3,205.5,520.3,205.5,518.5z"
				/>
		</g>
	</g>
	<g transform="matrix(0.7425,0,0,0.7425,0,0)">
		<line vector-effect="none" class="st0" x1="235.8" y1="513.2" x2="252.8" y2="513.2"/>
	</g>
	<g transform="matrix(0.7425,0,0,0.7425,0,0)">
		<line vector-effect="none" class="st3" x1="239" y1="510.4" x2="239" y2="537.2"/>
	</g>
	<g transform="matrix(0.7425,0,0,0.7425,0,0)">
		<g class="st1">
			<path d="M238.8,510.5c0-2.9,4.1-5.6,7.3-5.6c2.1,0,3.6,1.1,3.6,2.8c0,2.8-4.1,5.6-7.4,5.6C240.3,513.3,238.8,512.3,238.8,510.5z"
				/>
		</g>
	</g>
	<g transform="matrix(0.7425,0,0,0.7425,0,0)">
		<line vector-effect="none" class="st3" x1="297.5" y1="530.4" x2="297.5" y2="557.2"/>
	</g>
	<g transform="matrix(0.7425,0,0,0.7425,0,0)">
		<g class="st1">
			<path d="M297.3,530.5c0-2.9,4.1-5.6,7.3-5.6c2.1,0,3.6,1.1,3.6,2.8c0,2.8-4.1,5.6-7.4,5.6C298.8,533.3,297.3,532.3,297.3,530.5z"
				/>
		</g>
	</g>
	<g transform="matrix(0.7425,0,0,0.7425,0,0)">
		<g class="st1">
			<path d="M293.3,518.2v4.6l1.7-0.5v2.9l-1.7,0.5v5.5l1.7-0.5v2.9l-1.7,0.5v5h-0.8v-4.8l-3.1,1v4.8h-0.8v-4.6l-1.7,0.5v-2.9
				l1.7-0.5v-5.5l-1.7,0.5v-2.9l1.7-0.5v-5h0.8v4.8l3.1-1v-4.8H293.3z M292.5,525.9l-3.1,1v5.5l3.1-1V525.9z"/>
		</g>
	</g>
	<g transform="matrix(0.7425,0,0,0.7425,0,0)">
		<line vector-effect="none" class="st3" x1="343.5" y1="522.4" x2="343.5" y2="549.2"/>
	</g>
	<g transform="matrix(0.7425,0,0,0.7425,0,0)">
		<g class="st1">
			<path d="M343.3,522.5c0-2.9,4.1-5.6,7.3-5.6c2.1,0,3.6,1.1,3.6,2.8c0,2.8-4.1,5.6-7.4,5.6C344.8,525.3,343.3,524.3,343.3,522.5z"
				/>
		</g>
	</g>
	<g transform="matrix(0.7425,0,0,0.7425,0,0)">
		<line vector-effect="none" class="st0" x1="386.2" y1="513.2" x2="403.5" y2="513.2"/>
	</g>
	<g transform="matrix(0.7425,0,0,0.7425,0,0)">
		<line vector-effect="none" class="st3" x1="389.5" y1="514.4" x2="389.5" y2="541.2"/>
	</g>
	<g transform="matrix(0.7425,0,0,0.7425,0,0)">
		<g class="st1">
			<path d="M396.1,508.8c2.7,0,4.4,1.2,4.4,3.2c0,3-3.7,5.4-7.3,5.4c-2.2,0-3.9-1.1-3.9-2.8C389.2,511.7,392.9,508.8,396.1,508.8z
				 M390,515c0,1,0.6,1.5,1.8,1.5c2.3,0,8-3.4,8-5.2c0-1-0.6-1.5-1.8-1.5C395.9,509.8,390,513,390,515z"/>
		</g>
	</g>
	<g transform="matrix(0.7425,0,0,0.7425,0,0)">
		<line vector-effect="none" class="st3" x1="479.2" y1="518.4" x2="479.2" y2="545.2"/>
	</g>
	<g transform="matrix(0.7425,0,0,0.7425,0,0)">
		<g class="st1">
			<path d="M479,518.5c0-2.9,4.1-5.6,7.3-5.6c2.1,0,3.6,1.1,3.6,2.8c0,2.8-4.1,5.6-7.4,5.6C480.6,521.3,479,520.3,479,518.5z"/>
		</g>
	</g>
	<g transform="matrix(0.7425,0,0,0.7425,0,0)">
		<line vector-effect="none" class="st0" x1="522" y1="513.2" x2="539" y2="513.2"/>
	</g>
	<g transform="matrix(0.7425,0,0,0.7425,0,0)">
		<line vector-effect="none" class="st3" x1="525.2" y1="510.4" x2="525.2" y2="537.2"/>
	</g>
	<g transform="matrix(0.7425,0,0,0.7425,0,0)">
		<g class="st1">
			<path d="M525,510.5c0-2.9,4.1-5.6,7.3-5.6c2.1,0,3.6,1.1,3.6,2.8c0,2.8-4.1,5.6-7.4,5.6C526.6,513.3,525,512.3,525,510.5z"/>
		</g>
	</g>
	<g transform="matrix(0.7425,0,0,0.7425,0,0)">
		<g class="st1">
			<path d="M519.1,498.2v4.6l1.7-0.5v2.9l-1.7,0.5v5.5l1.7-0.5v2.9l-1.7,0.5v5h-0.8v-4.8l-3.1,1v4.8h-0.8v-4.6l-1.7,0.5v-2.9
				l1.7-0.5v-5.5l-1.7,0.5v-2.9l1.7-0.5v-5h0.8v4.8l3.1-1v-4.8H519.1z M518.3,505.9l-3.1,1v5.5l3.1-1V505.9z"/>
		</g>
	</g>
	<g transform="matrix(0.7425,0,0,0.7425,0,0)">
		<line vector-effect="none" class="st0" x1="567.8" y1="513.2" x2="585" y2="513.2"/>
	</g>
	<g transform="matrix(0.7425,0,0,0.7425,0,0)">
		<line vector-effect="none" class="st0" x1="567.8" y1="505.2" x2="585" y2="505.2"/>
	</g>
	<g transform="matrix(0.7425,0,0,0.7425,0,0)">
		<line vector-effect="none" class="st3" x1="571" y1="502.4" x2="571" y2="537.2"/>
	</g>
	<g transform="matrix(0.7425,0,0,0.7425,0,0)">
		<g class="st1">
			<path d="M577.6,496.8c2.7,0,4.4,1.2,4.4,3.2c0,3-3.7,5.4-7.3,5.4c-2.2,0-3.9-1.1-3.9-2.8C570.8,499.7,574.4,496.8,577.6,496.8z
				 M571.5,503c0,1,0.6,1.5,1.8,1.5c2.3,0,8-3.4,8-5.2c0-1-0.6-1.5-1.8-1.5C577.4,497.8,571.5,501,571.5,503z"/>
		</g>
	</g>
	<g transform="matrix(0.7425,0,0,0.7425,0,0)">
		<line vector-effect="none" class="st3" x1="661" y1="534.4" x2="661" y2="561.2"/>
	</g>
	<g transform="matrix(0.7425,0,0,0.7425,0,0)">
		<g class="st1">
			<path d="M660.7,534.5c0-2.9,4.1-5.6,7.3-5.6c2.1,0,3.6,1.1,3.6,2.8c0,2.8-4.1,5.6-7.4,5.6C662.3,537.3,660.7,536.3,660.7,534.5z"
				/>
		</g>
	</g>
	<g transform="matrix(0.7425,0,0,0.7425,0,0)">
		<line vector-effect="none" class="st3" x1="707" y1="526.4" x2="707" y2="553.2"/>
	</g>
	<g transform="matrix(0.7425,0,0,0.7425,0,0)">
		<g class="st1">
			<path d="M706.7,526.5c0-2.9,4.1-5.6,7.3-5.6c2.1,0,3.6,1.1,3.6,2.8c0,2.8-4.1,5.6-7.4,5.6C708.3,529.3,706.7,528.3,706.7,526.5z"
				/>
		</g>
	</g>
	<g transform="matrix(0.7425,0,0,0.7425,0,0)">
		<line vector-effect="none" class="st3" x1="752.8" y1="518.4" x2="752.8" y2="545.2"/>
	</g>
	<g transform="matrix(0.7425,0,0,0.7425,0,0)">
		<g class="st1">
			<path d="M759.4,512.8c2.7,0,4.4,1.2,4.4,3.2c0,3-3.7,5.4-7.3,5.4c-2.2,0-3.9-1.1-3.9-2.8C752.5,515.7,756.1,512.8,759.4,512.8z
				 M753.2,519c0,1,0.6,1.5,1.8,1.5c2.3,0,8-3.4,8-5.2c0-1-0.6-1.5-1.8-1.5C759.2,513.8,753.2,517,753.2,519z"/>
		</g>
	</g>
</g>
</svg>
