<?xml version="1.0" encoding="utf-8"?>
<!-- Generator: Adobe Illustrator 26.4.1, SVG Export Plug-In . SVG Version: 6.00 Build 0)  -->
<svg version="1.1" id="Layer_1" xmlns="http://www.w3.org/2000/svg" xmlns:xlink="http://www.w3.org/1999/xlink" x="0px" y="0px"
	 viewBox="0 0 540.3 514.3" style="enable-background:new 0 0 540.3 514.3;" xml:space="preserve">
<style type="text/css">
	.st0{fill:none;stroke:#000000;stroke-width:0.8861;stroke-linejoin:bevel;stroke-miterlimit:10;}
	.st1{enable-background:new    ;}
	.st2{fill:none;stroke:#000000;stroke-width:2.8355;stroke-linejoin:bevel;stroke-miterlimit:10;}
	.st3{fill:none;stroke:#000000;stroke-width:0.7089;stroke-linejoin:bevel;stroke-miterlimit:10;}
</style>
<g>
	<g transform="matrix(0.708661,0,0,0.708661,0,0)">
		<line vector-effect="none" class="st0" x1="128.3" y1="45.1" x2="128.3" y2="77.1"/>
	</g>
	<g transform="matrix(0.708661,0,0,0.708661,0,0)">
		<line vector-effect="none" class="st0" x1="207.3" y1="45.1" x2="207.3" y2="77.1"/>
	</g>
	<g transform="matrix(0.708661,0,0,0.708661,0,0)">
		<line vector-effect="none" class="st0" x1="286.8" y1="45.1" x2="286.8" y2="77.1"/>
	</g>
	<g transform="matrix(0.708661,0,0,0.708661,0,0)">
		<line vector-effect="none" class="st0" x1="365.9" y1="45.1" x2="365.9" y2="77.1"/>
	</g>
	<g transform="matrix(0.708661,0,0,0.708661,0,0)">
		<line vector-effect="none" class="st0" x1="445.4" y1="45.1" x2="445.4" y2="77.1"/>
	</g>
	<g transform="matrix(0.708661,0,0,0.708661,0,0)">
		<line vector-effect="none" class="st0" x1="524.4" y1="45.1" x2="524.4" y2="77.1"/>
	</g>
	<g transform="matrix(0.708661,0,0,0.708661,0,0)">
		<line vector-effect="none" class="st0" x1="603.9" y1="45.1" x2="603.9" y2="77.1"/>
	</g>
	<g transform="matrix(0.708661,0,0,0.708661,0,0)">
		<line vector-effect="none" class="st0" x1="683" y1="45.1" x2="683" y2="77.1"/>
	</g>
	<g transform="matrix(0.708661,0,0,0.708661,0,0)">
		<line vector-effect="none" class="st0" x1="761.7" y1="45.1" x2="761.7" y2="77.1"/>
	</g>
	<g transform="matrix(0.708661,0,0,0.708661,0,0)">
	</g>
	<g transform="matrix(0.708661,0,0,0.708661,251.575,386.069)">
	</g>
	<g transform="matrix(0.708661,0,0,0.708661,251.575,386.069)">
		<g class="st1">
			<path d="M-311-544.8h0.6v17.5c0,1.9-2.5,3.8-4.5,3.8c-1.2,0-2.2-0.7-2.2-1.9c0-2,2-3.8,4.5-3.8c0.7,0,1.2,0.2,1.6,0.5L-311-544.8
				z"/>
		</g>
		<g class="st1">
			<path d="M-303.3-530.5v-1.8h10.5v1.8H-303.3z M-292.7-527.9v1.9h-10.5v-1.9H-292.7z"/>
			<path d="M-279-538.7h0.7v13.2c0,0.4,0.3,0.8,0.7,0.8h2.1v0.9h-8.1v-0.9h1.7c0.5,0,0.8-0.5,0.8-0.9v-9.9c0-0.4-0.3-0.8-0.7-0.8
				h-2.4v-1C-282.3-537.4-280.7-537.9-279-538.7z"/>
			<path d="M-273.4-523.9v-0.9c0.2-0.3,0.7-1,4.5-5.6c1.1-1.3,1.8-2.8,1.8-4.4c0-1.6-0.5-2.8-2.2-2.8c-0.9,0-2.4,0.5-2.4,1.7
				c0,0.8,2.1,0.7,2.1,2.1c0,0.9-0.6,1.6-1.6,1.6c-1.4,0-1.7-1.3-1.7-2.4c0-2.6,2-4.1,4.5-4.1c2.4,0,4.4,1.4,4.4,3.9
				c0,1.7-0.9,3-2.2,4.1c-1.1,0.9-3.8,2.9-4.9,4.2l5.1,0c0.8,0,1.2-2.4,1.2-2.4h0.9l-0.3,5H-273.4z"/>
			<path d="M-262.6-531c0-3.2,1.3-7.5,5.6-7.5c4.1,0,5.4,4.6,5.4,7.5c0,3.1-1.3,7.5-5.5,7.5C-261.3-523.5-262.6-528.1-262.6-531z
				 M-257.2-524.6c2.1,0,2.1-3.8,2.1-6.5c0-3.2,0-6.5-2-6.5c-2.1,0-2.1,3.4-2.1,6.9C-259.2-528.4-259.2-524.6-257.2-524.6z"/>
		</g>
	</g>
	<g transform="matrix(0.708661,0,0,0.708661,251.575,386.069)">
	</g>
	<g transform="matrix(0.708661,0,0,0.708661,0,0)">
	</g>
	<g transform="matrix(0.708661,0,0,0.708661,0,0)">
		<line vector-effect="none" class="st0" x1="114.8" y1="151.1" x2="114.8" y2="183.1"/>
	</g>
	<g transform="matrix(0.708661,0,0,0.708661,0,0)">
		<line vector-effect="none" class="st0" x1="195.3" y1="151.1" x2="195.3" y2="183.1"/>
	</g>
	<g transform="matrix(0.708661,0,0,0.708661,0,0)">
		<line vector-effect="none" class="st0" x1="276.8" y1="151.1" x2="276.8" y2="183.1"/>
	</g>
	<g transform="matrix(0.708661,0,0,0.708661,0,0)">
		<line vector-effect="none" class="st0" x1="357.4" y1="151.1" x2="357.4" y2="183.1"/>
	</g>
	<g transform="matrix(0.708661,0,0,0.708661,0,0)">
		<line vector-effect="none" class="st0" x1="437.9" y1="151.1" x2="437.9" y2="183.1"/>
	</g>
	<g transform="matrix(0.708661,0,0,0.708661,0,0)">
		<line vector-effect="none" class="st0" x1="519.2" y1="151.1" x2="519.2" y2="183.1"/>
	</g>
	<g transform="matrix(0.708661,0,0,0.708661,0,0)">
		<line vector-effect="none" class="st0" x1="599.9" y1="151.1" x2="599.9" y2="183.1"/>
	</g>
	<g transform="matrix(0.708661,0,0,0.708661,0,0)">
		<line vector-effect="none" class="st0" x1="681.2" y1="151.1" x2="681.2" y2="183.1"/>
	</g>
	<g transform="matrix(0.708661,0,0,0.708661,0,0)">
		<line vector-effect="none" class="st0" x1="761.7" y1="151.1" x2="761.7" y2="183.1"/>
	</g>
	<g transform="matrix(0.708661,0,0,0.708661,0,0)">
		<line vector-effect="none" class="st0" x1="113.8" y1="257.2" x2="113.8" y2="289.2"/>
	</g>
	<g transform="matrix(0.708661,0,0,0.708661,0,0)">
		<line vector-effect="none" class="st0" x1="193.3" y1="257.2" x2="193.3" y2="289.2"/>
	</g>
	<g transform="matrix(0.708661,0,0,0.708661,0,0)">
		<line vector-effect="none" class="st0" x1="273.1" y1="257.2" x2="273.1" y2="289.2"/>
	</g>
	<g transform="matrix(0.708661,0,0,0.708661,0,0)">
		<line vector-effect="none" class="st0" x1="356.4" y1="257.2" x2="356.4" y2="289.2"/>
	</g>
	<g transform="matrix(0.708661,0,0,0.708661,0,0)">
		<line vector-effect="none" class="st0" x1="435.9" y1="257.2" x2="435.9" y2="289.2"/>
	</g>
	<g transform="matrix(0.708661,0,0,0.708661,0,0)">
		<line vector-effect="none" class="st0" x1="519.2" y1="257.2" x2="519.2" y2="289.2"/>
	</g>
	<g transform="matrix(0.708661,0,0,0.708661,0,0)">
		<line vector-effect="none" class="st0" x1="598.9" y1="257.2" x2="598.9" y2="289.2"/>
	</g>
	<g transform="matrix(0.708661,0,0,0.708661,0,0)">
		<line vector-effect="none" class="st0" x1="678.5" y1="257.2" x2="678.5" y2="289.2"/>
	</g>
	<g transform="matrix(0.708661,0,0,0.708661,0,0)">
		<line vector-effect="none" class="st0" x1="761.7" y1="257.2" x2="761.7" y2="289.2"/>
	</g>
	<g transform="matrix(0.708661,0,0,0.708661,0,0)">
		<line vector-effect="none" class="st0" x1="113" y1="363.2" x2="113" y2="395.2"/>
	</g>
	<g transform="matrix(0.708661,0,0,0.708661,0,0)">
		<line vector-effect="none" class="st0" x1="195.6" y1="363.2" x2="195.6" y2="395.2"/>
	</g>
	<g transform="matrix(0.708661,0,0,0.708661,0,0)">
		<line vector-effect="none" class="st0" x1="275.3" y1="363.2" x2="275.3" y2="395.2"/>
	</g>
	<g transform="matrix(0.708661,0,0,0.708661,0,0)">
		<line vector-effect="none" class="st0" x1="357.9" y1="363.2" x2="357.9" y2="395.2"/>
	</g>
	<g transform="matrix(0.708661,0,0,0.708661,0,0)">
		<line vector-effect="none" class="st0" x1="437.4" y1="363.2" x2="437.4" y2="395.2"/>
	</g>
	<g transform="matrix(0.708661,0,0,0.708661,0,0)">
		<line vector-effect="none" class="st0" x1="516.9" y1="363.2" x2="516.9" y2="395.2"/>
	</g>
	<g transform="matrix(0.708661,0,0,0.708661,0,0)">
		<line vector-effect="none" class="st0" x1="599.7" y1="363.2" x2="599.7" y2="395.2"/>
	</g>
	<g transform="matrix(0.708661,0,0,0.708661,0,0)">
		<line vector-effect="none" class="st0" x1="679.2" y1="363.2" x2="679.2" y2="395.2"/>
	</g>
	<g transform="matrix(0.708661,0,0,0.708661,0,0)">
		<line vector-effect="none" class="st0" x1="761.7" y1="363.2" x2="761.7" y2="395.2"/>
	</g>
	<g transform="matrix(0.708661,0,0,0.708661,0,0)">
		<line vector-effect="none" class="st0" x1="114.5" y1="469.2" x2="114.5" y2="501.2"/>
	</g>
	<g transform="matrix(0.708661,0,0,0.708661,0,0)">
		<line vector-effect="none" class="st0" x1="195.3" y1="469.2" x2="195.3" y2="501.2"/>
	</g>
	<g transform="matrix(0.708661,0,0,0.708661,0,0)">
		<line vector-effect="none" class="st0" x1="276.3" y1="469.2" x2="276.3" y2="501.2"/>
	</g>
	<g transform="matrix(0.708661,0,0,0.708661,0,0)">
		<line vector-effect="none" class="st0" x1="357.1" y1="469.2" x2="357.1" y2="501.2"/>
	</g>
	<g transform="matrix(0.708661,0,0,0.708661,0,0)">
		<line vector-effect="none" class="st0" x1="438.1" y1="469.2" x2="438.1" y2="501.2"/>
	</g>
	<g transform="matrix(0.708661,0,0,0.708661,0,0)">
		<line vector-effect="none" class="st0" x1="518.9" y1="469.2" x2="518.9" y2="501.2"/>
	</g>
	<g transform="matrix(0.708661,0,0,0.708661,0,0)">
		<line vector-effect="none" class="st0" x1="599.9" y1="469.2" x2="599.9" y2="501.2"/>
	</g>
	<g transform="matrix(0.708661,0,0,0.708661,0,0)">
		<line vector-effect="none" class="st0" x1="680.7" y1="469.2" x2="680.7" y2="501.2"/>
	</g>
	<g transform="matrix(0.708661,0,0,0.708661,0,0)">
		<line vector-effect="none" class="st0" x1="761.7" y1="469.2" x2="761.7" y2="501.2"/>
	</g>
	<g transform="matrix(0.708661,0,0,0.708661,0,0)">
		<line vector-effect="none" class="st0" x1="154.8" y1="575.3" x2="154.8" y2="607.3"/>
	</g>
	<g transform="matrix(0.708661,0,0,0.708661,0,0)">
		<line vector-effect="none" class="st0" x1="276.3" y1="575.3" x2="276.3" y2="607.3"/>
	</g>
	<g transform="matrix(0.708661,0,0,0.708661,0,0)">
		<line vector-effect="none" class="st0" x1="397.6" y1="575.3" x2="397.6" y2="607.3"/>
	</g>
	<g transform="matrix(0.708661,0,0,0.708661,0,0)">
		<line vector-effect="none" class="st0" x1="518.9" y1="575.3" x2="518.9" y2="607.3"/>
	</g>
	<g transform="matrix(0.708661,0,0,0.708661,0,0)">
		<line vector-effect="none" class="st0" x1="640.5" y1="575.3" x2="640.5" y2="607.3"/>
	</g>
	<g transform="matrix(0.708661,0,0,0.708661,0,0)">
		<line vector-effect="none" class="st0" x1="761.7" y1="575.3" x2="761.7" y2="607.3"/>
	</g>
	<g transform="matrix(0.708661,0,0,0.708661,0,0)">
		<line vector-effect="none" class="st0" x1="152.8" y1="681.3" x2="152.8" y2="713.3"/>
	</g>
	<g transform="matrix(0.708661,0,0,0.708661,0,0)">
		<line vector-effect="none" class="st0" x1="272.1" y1="681.3" x2="272.1" y2="713.3"/>
	</g>
	<g transform="matrix(0.708661,0,0,0.708661,0,0)">
		<line vector-effect="none" class="st0" x1="391.4" y1="681.3" x2="391.4" y2="713.3"/>
	</g>
	<g transform="matrix(0.708661,0,0,0.708661,0,0)">
		<line vector-effect="none" class="st0" x1="510.7" y1="681.3" x2="510.7" y2="713.3"/>
	</g>
	<g transform="matrix(0.708661,0,0,0.708661,0,0)">
		<line vector-effect="none" class="st0" x1="629.9" y1="681.3" x2="629.9" y2="713.3"/>
	</g>
	<g transform="matrix(0.708661,0,0,0.708661,0,0)">
		<line vector-effect="none" class="st0" x1="754.5" y1="681.3" x2="754.5" y2="713.3"/>
	</g>
	<g transform="matrix(0.708661,0,0,0.708661,0,0)">
		<line vector-effect="none" class="st2" x1="760.2" y1="681.3" x2="760.2" y2="713.3"/>
	</g>
	<g transform="matrix(0.708661,0,0,0.708661,0,0)">
	</g>
	<g transform="matrix(0.708661,0,0,0.708661,245.906,435.664)">
	</g>
	<g transform="matrix(0.708661,0,0,0.708661,245.906,435.664)">
		<g class="st1">
			<path d="M-297-558.5c0,0.4-0.2,0.7-0.5,0.7h-1.9v1.7c0,1,0.6,1.2,1,1.2c0.3,0,0.7,0.2,0.7,0.6c0,0.5-0.3,0.6-0.6,0.6h-7.5
				c-0.5,0-0.6-0.3-0.6-0.6c0-0.3,0.2-0.6,0.7-0.6c0.6,0,1.3-0.3,1.3-1.1v-1.8h-5.8c-0.4,0-0.6-0.4-0.6-0.7c0-0.1,0-0.2,0.1-0.3
				c0,0,0-0.1,0-0.1l0.2-0.3c0.9-1.3,3.6-5.7,3.6-9.6c0-0.5,0.4-0.6,0.7-0.6c0.3,0,2.1,0.1,2.6,0.1c0.6,0,2.3-0.1,2.5-0.1
				c0.3,0,0.5,0.2,0.5,0.5c0,0.1,0,0.1,0,0.1c-0.1,0.4-5.5,7.4-8.1,9.5h4.3v-2.5c0-0.4,0.2-0.6,0.3-0.7l3.8-3.6
				c0.2-0.2,0.3-0.3,0.6-0.3c0.4,0,0.4,0.3,0.4,0.5v6.6h1.9C-297.2-559.2-297-558.9-297-558.5z"/>
		</g>
	</g>
	<g transform="matrix(0.708661,0,0,0.708661,245.906,435.664)">
		<g class="st1">
			<path d="M-297-542.4c0,0.4-0.2,0.7-0.5,0.7h-1.9v1.7c0,1,0.6,1.2,1,1.2c0.3,0,0.7,0.2,0.7,0.6c0,0.5-0.3,0.6-0.6,0.6h-7.5
				c-0.5,0-0.6-0.3-0.6-0.6c0-0.3,0.2-0.6,0.7-0.6c0.6,0,1.3-0.3,1.3-1.1v-1.8h-5.8c-0.4,0-0.6-0.4-0.6-0.7c0-0.1,0-0.2,0.1-0.3
				c0,0,0-0.1,0-0.1l0.2-0.3c0.9-1.3,3.6-5.7,3.6-9.6c0-0.5,0.4-0.6,0.7-0.6c0.3,0,2.1,0.1,2.6,0.1c0.6,0,2.3-0.1,2.5-0.1
				c0.3,0,0.5,0.2,0.5,0.5c0,0.1,0,0.1,0,0.1c-0.1,0.4-5.5,7.4-8.1,9.5h4.3v-2.5c0-0.4,0.2-0.6,0.3-0.7l3.8-3.6
				c0.2-0.2,0.3-0.3,0.6-0.3c0.4,0,0.4,0.3,0.4,0.5v6.6h1.9C-297.2-543.1-297-542.8-297-542.4z"/>
		</g>
	</g>
	<g transform="matrix(0.708661,0,0,0.708661,245.906,435.664)">
	</g>
	<g transform="matrix(0.708661,0,0,0.708661,0,0)">
	</g>
	<g transform="matrix(0.708661,0,0,0.708661,0,0)">
		<line vector-effect="none" class="st3" x1="0" y1="77.1" x2="762.2" y2="77.1"/>
	</g>
	<g transform="matrix(0.708661,0,0,0.708661,0,0)">
		<line vector-effect="none" class="st3" x1="0" y1="69.1" x2="762.2" y2="69.1"/>
	</g>
	<g transform="matrix(0.708661,0,0,0.708661,0,0)">
		<line vector-effect="none" class="st3" x1="0" y1="61.1" x2="762.2" y2="61.1"/>
	</g>
	<g transform="matrix(0.708661,0,0,0.708661,0,0)">
		<line vector-effect="none" class="st3" x1="0" y1="53.1" x2="762.2" y2="53.1"/>
	</g>
	<g transform="matrix(0.708661,0,0,0.708661,0,0)">
		<line vector-effect="none" class="st3" x1="0" y1="45.1" x2="762.2" y2="45.1"/>
	</g>
	<g transform="matrix(0.708661,0,0,0.708661,0,0)">
		<g class="st1">
			<path d="M23,54c0,4.2-1.7,8.1-4.5,11.1c-3.4,3.6-7.5,6.1-11.8,8.2c-0.2,0.1-0.4,0.2-0.5,0.2c-0.3,0-0.4-0.2-0.4-0.4
				c0-0.3,0.2-0.4,0.5-0.6c4-2.3,7.3-5,9.2-8c2-3.1,2.7-6.9,2.7-10.2c0-5-1.5-8.4-4.9-8.4c-3.3,0-5.2,2.3-5.2,3.6
				c0,0.3,0.1,0.6,0.5,0.6c0.4,0,0.7-0.2,1.6-0.2c1.6,0,3.1,1.3,3.1,3.3c0,2-1.4,3.4-3.4,3.4c-2.6,0-3.9-2.2-3.9-4.8
				c0-3.1,2.5-7.1,8.1-7.1C19.6,44.7,23,48.4,23,54z M27.9,49.1c0,1-0.8,1.8-1.8,1.8c-1,0-1.8-0.8-1.8-1.8c0-1,0.8-1.8,1.8-1.8
				C27.1,47.3,27.9,48.1,27.9,49.1z M27.9,57.1c0,1-0.7,1.7-1.7,1.7c-1,0-1.7-0.7-1.7-1.7c0-1,0.7-1.7,1.7-1.7
				C27.2,55.4,27.9,56.1,27.9,57.1z"/>
		</g>
	</g>
	<g transform="matrix(0.708661,0,0,0.708661,0,0)">
		<line vector-effect="none" class="st0" x1="58" y1="85.1" x2="80.8" y2="85.1"/>
	</g>
	<g transform="matrix(0.708661,0,0,0.708661,0,0)">
		<g class="st1">
			<path d="M76.7,85.1c0,2.4-1.8,4.4-7.5,4.4c-5.2,0-7.2-2.1-7.2-4.4c0-2.4,2.9-4.3,7.5-4.3C72.8,80.8,76.7,82.6,76.7,85.1z
				 M65.8,83.8c0,1.1,0.5,2.3,1.2,3.1c0.2,0.3,0.5,0.5,0.7,0.8c0.5,0.4,1.1,0.7,1.6,0.9c0.3,0.1,0.6,0.1,0.9,0.1
				c0.4,0,0.7,0,1.1-0.1c0.9-0.2,1.4-0.8,1.5-1.7c0-0.2,0.1-0.4,0.1-0.6c0-2.1-1.9-4.7-4.3-4.7c-1.1,0-2.4,0.2-2.8,1.4
				C65.8,83.3,65.8,83.5,65.8,83.8z"/>
		</g>
	</g>
	<g transform="matrix(0.708661,0,0,0.708661,0,0)">
		<g class="st1">
			<path d="M155.5,81.1c0,2.4-1.8,4.4-7.5,4.4c-5.2,0-7.2-2.1-7.2-4.4c0-2.4,2.9-4.3,7.5-4.3C151.6,76.8,155.5,78.6,155.5,81.1z
				 M144.5,79.8c0,1.1,0.5,2.3,1.2,3.1c0.2,0.3,0.5,0.5,0.7,0.8c0.5,0.4,1.1,0.7,1.6,0.9c0.3,0.1,0.6,0.1,0.9,0.1
				c0.4,0,0.7,0,1.1-0.1c0.9-0.2,1.4-0.8,1.5-1.7c0-0.2,0.1-0.4,0.1-0.6c0-2.1-1.9-4.7-4.3-4.7c-1.1,0-2.4,0.2-2.8,1.4
				C144.6,79.3,144.5,79.5,144.5,79.8z"/>
		</g>
	</g>
	<g transform="matrix(0.708661,0,0,0.708661,0,0)">
		<line vector-effect="none" class="st3" x1="0" y1="183.1" x2="762.2" y2="183.1"/>
	</g>
	<g transform="matrix(0.708661,0,0,0.708661,0,0)">
		<line vector-effect="none" class="st3" x1="0" y1="175.1" x2="762.2" y2="175.1"/>
	</g>
	<g transform="matrix(0.708661,0,0,0.708661,0,0)">
		<line vector-effect="none" class="st3" x1="0" y1="167.1" x2="762.2" y2="167.1"/>
	</g>
	<g transform="matrix(0.708661,0,0,0.708661,0,0)">
		<line vector-effect="none" class="st3" x1="0" y1="159.1" x2="762.2" y2="159.1"/>
	</g>
	<g transform="matrix(0.708661,0,0,0.708661,0,0)">
		<line vector-effect="none" class="st3" x1="0" y1="151.1" x2="762.2" y2="151.1"/>
	</g>
	<g transform="matrix(0.708661,0,0,0.708661,0,0)">
		<g class="st1">
			<path d="M23,160c0,4.2-1.7,8.1-4.5,11.1c-3.4,3.6-7.5,6.1-11.8,8.2c-0.2,0.1-0.4,0.2-0.5,0.2c-0.3,0-0.4-0.2-0.4-0.4
				c0-0.3,0.2-0.4,0.5-0.6c4-2.3,7.3-5,9.2-8c2-3.1,2.7-6.9,2.7-10.2c0-5-1.5-8.4-4.9-8.4c-3.3,0-5.2,2.3-5.2,3.6
				c0,0.3,0.1,0.6,0.5,0.6c0.4,0,0.7-0.2,1.6-0.2c1.6,0,3.1,1.3,3.1,3.3c0,2-1.4,3.4-3.4,3.4c-2.6,0-3.9-2.2-3.9-4.8
				c0-3.1,2.5-7.1,8.1-7.1C19.6,150.7,23,154.5,23,160z M27.9,155.1c0,1-0.8,1.8-1.8,1.8c-1,0-1.8-0.8-1.8-1.8c0-1,0.8-1.8,1.8-1.8
				C27.1,153.4,27.9,154.1,27.9,155.1z M27.9,163.1c0,1-0.7,1.7-1.7,1.7c-1,0-1.7-0.7-1.7-1.7c0-1,0.7-1.7,1.7-1.7
				C27.2,161.4,27.9,162.1,27.9,163.1z"/>
		</g>
	</g>
	<g transform="matrix(0.708661,0,0,0.708661,0,0)">
		<line vector-effect="none" class="st3" x1="0" y1="289.2" x2="762.2" y2="289.2"/>
	</g>
	<g transform="matrix(0.708661,0,0,0.708661,0,0)">
		<line vector-effect="none" class="st3" x1="0" y1="281.2" x2="762.2" y2="281.2"/>
	</g>
	<g transform="matrix(0.708661,0,0,0.708661,0,0)">
		<line vector-effect="none" class="st3" x1="0" y1="273.2" x2="762.2" y2="273.2"/>
	</g>
	<g transform="matrix(0.708661,0,0,0.708661,0,0)">
		<line vector-effect="none" class="st3" x1="0" y1="265.2" x2="762.2" y2="265.2"/>
	</g>
	<g transform="matrix(0.708661,0,0,0.708661,0,0)">
		<line vector-effect="none" class="st3" x1="0" y1="257.2" x2="762.2" y2="257.2"/>
	</g>
	<g transform="matrix(0.708661,0,0,0.708661,0,0)">
		<g class="st1">
			<path d="M23,266.1c0,4.2-1.7,8.1-4.5,11.1c-3.4,3.6-7.5,6.1-11.8,8.2c-0.2,0.1-0.4,0.2-0.5,0.2c-0.3,0-0.4-0.2-0.4-0.4
				c0-0.3,0.2-0.4,0.5-0.6c4-2.3,7.3-5,9.2-8c2-3.1,2.7-6.9,2.7-10.2c0-5-1.5-8.4-4.9-8.4c-3.3,0-5.2,2.3-5.2,3.6
				c0,0.3,0.1,0.6,0.5,0.6c0.4,0,0.7-0.2,1.6-0.2c1.6,0,3.1,1.3,3.1,3.3c0,2-1.4,3.4-3.4,3.4c-2.6,0-3.9-2.2-3.9-4.8
				c0-3.1,2.5-7.1,8.1-7.1C19.6,256.8,23,260.5,23,266.1z M27.9,261.2c0,1-0.8,1.8-1.8,1.8c-1,0-1.8-0.8-1.8-1.8
				c0-1,0.8-1.8,1.8-1.8C27.1,259.4,27.9,260.2,27.9,261.2z M27.9,269.2c0,1-0.7,1.7-1.7,1.7c-1,0-1.7-0.7-1.7-1.7
				c0-1,0.7-1.7,1.7-1.7C27.2,267.4,27.9,268.2,27.9,269.2z"/>
		</g>
	</g>
	<g transform="matrix(0.708661,0,0,0.708661,0,0)">
		<line vector-effect="none" class="st3" x1="0" y1="395.2" x2="762.2" y2="395.2"/>
	</g>
	<g transform="matrix(0.708661,0,0,0.708661,0,0)">
		<line vector-effect="none" class="st3" x1="0" y1="387.2" x2="762.2" y2="387.2"/>
	</g>
	<g transform="matrix(0.708661,0,0,0.708661,0,0)">
		<line vector-effect="none" class="st3" x1="0" y1="379.2" x2="762.2" y2="379.2"/>
	</g>
	<g transform="matrix(0.708661,0,0,0.708661,0,0)">
		<line vector-effect="none" class="st3" x1="0" y1="371.2" x2="762.2" y2="371.2"/>
	</g>
	<g transform="matrix(0.708661,0,0,0.708661,0,0)">
		<line vector-effect="none" class="st3" x1="0" y1="363.2" x2="762.2" y2="363.2"/>
	</g>
	<g transform="matrix(0.708661,0,0,0.708661,0,0)">
		<g class="st1">
			<path d="M23,372.1c0,4.2-1.7,8.1-4.5,11.1c-3.4,3.6-7.5,6.1-11.8,8.2c-0.2,0.1-0.4,0.2-0.5,0.2c-0.3,0-0.4-0.2-0.4-0.4
				c0-0.3,0.2-0.4,0.5-0.6c4-2.3,7.3-5,9.2-8c2-3.1,2.7-6.9,2.7-10.2c0-5-1.5-8.4-4.9-8.4c-3.3,0-5.2,2.3-5.2,3.6
				c0,0.3,0.1,0.6,0.5,0.6c0.4,0,0.7-0.2,1.6-0.2c1.6,0,3.1,1.3,3.1,3.3c0,2-1.4,3.4-3.4,3.4c-2.6,0-3.9-2.2-3.9-4.8
				c0-3.1,2.5-7.1,8.1-7.1C19.6,362.8,23,366.5,23,372.1z M27.9,367.2c0,1-0.8,1.8-1.8,1.8c-1,0-1.8-0.8-1.8-1.8
				c0-1,0.8-1.8,1.8-1.8C27.1,365.4,27.9,366.2,27.9,367.2z M27.9,375.2c0,1-0.7,1.7-1.7,1.7c-1,0-1.7-0.7-1.7-1.7
				c0-1,0.7-1.7,1.7-1.7C27.2,373.5,27.9,374.2,27.9,375.2z"/>
		</g>
	</g>
	<g transform="matrix(0.708661,0,0,0.708661,0,0)">
		<line vector-effect="none" class="st3" x1="0" y1="501.2" x2="762.2" y2="501.2"/>
	</g>
	<g transform="matrix(0.708661,0,0,0.708661,0,0)">
		<line vector-effect="none" class="st3" x1="0" y1="493.2" x2="762.2" y2="493.2"/>
	</g>
	<g transform="matrix(0.708661,0,0,0.708661,0,0)">
		<line vector-effect="none" class="st3" x1="0" y1="485.2" x2="762.2" y2="485.2"/>
	</g>
	<g transform="matrix(0.708661,0,0,0.708661,0,0)">
		<line vector-effect="none" class="st3" x1="0" y1="477.2" x2="762.2" y2="477.2"/>
	</g>
	<g transform="matrix(0.708661,0,0,0.708661,0,0)">
		<line vector-effect="none" class="st3" x1="0" y1="469.2" x2="762.2" y2="469.2"/>
	</g>
	<g transform="matrix(0.708661,0,0,0.708661,0,0)">
		<g class="st1">
			<path d="M23,478.1c0,4.2-1.7,8.1-4.5,11.1c-3.4,3.7-7.5,6.1-11.8,8.2c-0.2,0.1-0.4,0.2-0.5,0.2c-0.3,0-0.4-0.2-0.4-0.4
				c0-0.3,0.2-0.4,0.5-0.6c4-2.3,7.3-5,9.2-8c2-3.1,2.7-6.9,2.7-10.2c0-5-1.5-8.4-4.9-8.4c-3.3,0-5.2,2.3-5.2,3.6
				c0,0.3,0.1,0.6,0.5,0.6c0.4,0,0.7-0.2,1.6-0.2c1.6,0,3.1,1.3,3.1,3.3c0,2-1.4,3.4-3.4,3.4c-2.6,0-3.9-2.2-3.9-4.8
				c0-3.1,2.5-7.1,8.1-7.1C19.6,468.8,23,472.6,23,478.1z M27.9,473.2c0,1-0.8,1.8-1.8,1.8c-1,0-1.8-0.8-1.8-1.8
				c0-1,0.8-1.8,1.8-1.8C27.1,471.5,27.9,472.2,27.9,473.2z M27.9,481.2c0,1-0.7,1.7-1.7,1.7c-1,0-1.7-0.7-1.7-1.7
				c0-1,0.7-1.7,1.7-1.7C27.2,479.5,27.9,480.2,27.9,481.2z"/>
		</g>
	</g>
	<g transform="matrix(0.708661,0,0,0.708661,0,0)">
		<line vector-effect="none" class="st3" x1="0" y1="607.3" x2="762.2" y2="607.3"/>
	</g>
	<g transform="matrix(0.708661,0,0,0.708661,0,0)">
		<line vector-effect="none" class="st3" x1="0" y1="599.3" x2="762.2" y2="599.3"/>
	</g>
	<g transform="matrix(0.708661,0,0,0.708661,0,0)">
		<line vector-effect="none" class="st3" x1="0" y1="591.3" x2="762.2" y2="591.3"/>
	</g>
	<g transform="matrix(0.708661,0,0,0.708661,0,0)">
		<line vector-effect="none" class="st3" x1="0" y1="583.3" x2="762.2" y2="583.3"/>
	</g>
	<g transform="matrix(0.708661,0,0,0.708661,0,0)">
		<line vector-effect="none" class="st3" x1="0" y1="575.3" x2="762.2" y2="575.3"/>
	</g>
	<g transform="matrix(0.708661,0,0,0.708661,0,0)">
		<g class="st1">
			<path d="M23,584.2c0,4.2-1.7,8.1-4.5,11.1c-3.4,3.7-7.5,6.1-11.8,8.2c-0.2,0.1-0.4,0.2-0.5,0.2c-0.3,0-0.4-0.2-0.4-0.4
				c0-0.3,0.2-0.4,0.5-0.6c4-2.3,7.3-5,9.2-8c2-3.1,2.7-6.9,2.7-10.2c0-5-1.5-8.4-4.9-8.4c-3.3,0-5.2,2.3-5.2,3.6
				c0,0.3,0.1,0.6,0.5,0.6c0.4,0,0.7-0.2,1.6-0.2c1.6,0,3.1,1.3,3.1,3.3c0,2-1.4,3.4-3.4,3.4c-2.6,0-3.9-2.2-3.9-4.8
				c0-3.1,2.5-7.1,8.1-7.1C19.6,574.9,23,578.6,23,584.2z M27.9,579.3c0,1-0.8,1.8-1.8,1.8c-1,0-1.8-0.8-1.8-1.8
				c0-1,0.8-1.8,1.8-1.8C27.1,577.5,27.9,578.3,27.9,579.3z M27.9,587.3c0,1-0.7,1.7-1.7,1.7c-1,0-1.7-0.7-1.7-1.7
				c0-1,0.7-1.7,1.7-1.7C27.2,585.5,27.9,586.3,27.9,587.3z"/>
		</g>
	</g>
	<g transform="matrix(0.708661,0,0,0.708661,0,0)">
		<line vector-effect="none" class="st3" x1="0" y1="713.3" x2="762.2" y2="713.3"/>
	</g>
	<g transform="matrix(0.708661,0,0,0.708661,0,0)">
		<line vector-effect="none" class="st3" x1="0" y1="705.3" x2="762.2" y2="705.3"/>
	</g>
	<g transform="matrix(0.708661,0,0,0.708661,0,0)">
		<line vector-effect="none" class="st3" x1="0" y1="697.3" x2="762.2" y2="697.3"/>
	</g>
	<g transform="matrix(0.708661,0,0,0.708661,0,0)">
		<line vector-effect="none" class="st3" x1="0" y1="689.3" x2="762.2" y2="689.3"/>
	</g>
	<g transform="matrix(0.708661,0,0,0.708661,0,0)">
		<line vector-effect="none" class="st3" x1="0" y1="681.3" x2="762.2" y2="681.3"/>
	</g>
	<g transform="matrix(0.708661,0,0,0.708661,0,0)">
		<g class="st1">
			<path d="M23,690.2c0,4.2-1.7,8.1-4.5,11.1c-3.4,3.7-7.5,6.1-11.8,8.2c-0.2,0.1-0.4,0.2-0.5,0.2c-0.3,0-0.4-0.2-0.4-0.4
				c0-0.3,0.2-0.4,0.5-0.6c4-2.3,7.3-5,9.2-8c2-3.1,2.7-6.9,2.7-10.2c0-5-1.5-8.4-4.9-8.4c-3.3,0-5.2,2.3-5.2,3.6
				c0,0.3,0.1,0.6,0.5,0.6c0.4,0,0.7-0.2,1.6-0.2c1.6,0,3.1,1.3,3.1,3.3c0,2-1.4,3.4-3.4,3.4c-2.6,0-3.9-2.2-3.9-4.8
				c0-3.1,2.5-7.1,8.1-7.1C19.6,680.9,23,684.6,23,690.2z M27.9,685.3c0,1-0.8,1.8-1.8,1.8c-1,0-1.8-0.8-1.8-1.8
				c0-1,0.8-1.8,1.8-1.8C27.1,683.5,27.9,684.3,27.9,685.3z M27.9,693.3c0,1-0.7,1.7-1.7,1.7c-1,0-1.7-0.7-1.7-1.7
				c0-1,0.7-1.7,1.7-1.7C27.2,691.6,27.9,692.3,27.9,693.3z"/>
		</g>
	</g>
	<g transform="matrix(0.708661,0,0,0.708661,0,0)">
		<g class="st1">
			<path d="M235.3,81.1c0,2.4-1.8,4.4-7.5,4.4c-5.2,0-7.2-2.1-7.2-4.4c0-2.4,2.9-4.3,7.5-4.3C231.3,76.8,235.3,78.6,235.3,81.1z
				 M224.3,79.8c0,1.1,0.5,2.3,1.2,3.1c0.2,0.3,0.5,0.5,0.7,0.8c0.5,0.4,1.1,0.7,1.6,0.9c0.3,0.1,0.6,0.1,0.9,0.1
				c0.4,0,0.7,0,1.1-0.1c0.9-0.2,1.4-0.8,1.5-1.7c0-0.2,0.1-0.4,0.1-0.6c0-2.1-1.9-4.7-4.3-4.7c-1.1,0-2.4,0.2-2.8,1.4
				C224.3,79.3,224.3,79.5,224.3,79.8z"/>
		</g>
	</g>
	<g transform="matrix(0.708661,0,0,0.708661,0,0)">
		<g class="st1">
			<path d="M217.1,77.7c-0.3,0.1-0.4,0.7-0.4,0.9v3c0,0.4,0.2,0.6,0.4,0.6c0.2-0.1,0.8-0.3,0.8-0.3c0.1,0,0.1,0,0.2,0
				c0.1,0,0.2,0.1,0.2,0.3v2.3c0,0.2-0.2,0.4-0.4,0.5c0,0-0.7,0.3-0.9,0.4c-0.2,0.1-0.4,0.5-0.4,0.7v4.5c0,0.2-0.2,0.4-0.5,0.4
				c-0.2,0-0.4-0.2-0.4-0.4v-4c0-0.2-0.2-0.6-0.4-0.6c0,0-0.1,0-0.1,0l-2,0.8c-0.2,0.1-0.3,0.3-0.3,0.7v4.5c0,0.2-0.2,0.4-0.5,0.4
				c-0.2,0-0.4-0.2-0.4-0.4V88c0-0.2-0.2-0.5-0.4-0.5c0,0-0.1,0-0.1,0c-0.3,0.1-0.7,0.3-0.7,0.3c0,0-0.1,0-0.1,0
				c-0.2,0-0.3-0.1-0.3-0.3v-2.3c0-0.2,0.2-0.4,0.4-0.5c0,0,0.7-0.3,0.9-0.4c0.2-0.1,0.4-0.4,0.4-0.7v-3.2c0-0.3-0.2-0.6-0.4-0.6
				c0,0-0.1,0-0.1,0c-0.2,0.1-0.7,0.3-0.7,0.3c0,0-0.1,0-0.1,0c-0.2,0-0.3-0.1-0.3-0.3v-2.3c0-0.2,0.2-0.4,0.4-0.5
				c0,0,0.6-0.3,0.8-0.4c0.2-0.1,0.4-0.4,0.4-0.9v-1.3v-3c0-0.2,0.2-0.4,0.5-0.4c0.2,0,0.4,0.2,0.4,0.4v3.8c0,0.3,0.1,0.6,0.4,0.6
				c0.5-0.1,1.6-0.6,2-0.8c0.3-0.2,0.4-0.6,0.4-0.9v-4.2c0-0.2,0.2-0.4,0.5-0.4c0.3,0,0.4,0.2,0.4,0.4v3.9c0,0.3,0.2,0.4,0.4,0.4
				c0.2,0,0.8-0.3,0.8-0.3c0.1,0,0.1,0,0.2,0c0.1,0,0.2,0.1,0.2,0.3v2.3c0,0.2-0.2,0.4-0.4,0.5C217.9,77.3,217.3,77.6,217.1,77.7z
				 M215.8,80.5c0-0.9-0.1-1.7-0.1-1.8c-0.1-0.1-0.3-0.2-0.5-0.2c-0.8,0-2.3,0.7-2.3,1.2c-0.1,0.3-0.1,1.4-0.1,2.4
				c0,0.8,0,1.5,0.1,1.6c0,0.1,0.2,0.2,0.4,0.2c0.7,0,2.2-0.6,2.4-1.3C215.8,82.3,215.8,81.4,215.8,80.5z"/>
		</g>
	</g>
	<g transform="matrix(0.708661,0,0,0.708661,0,0)">
		<g class="st1">
			<path d="M314,77.1c0,2.4-1.8,4.4-7.5,4.4c-5.2,0-7.2-2.1-7.2-4.4c0-2.4,2.9-4.3,7.5-4.3C310.1,72.8,314,74.6,314,77.1z
				 M303.1,75.8c0,1.1,0.5,2.3,1.2,3.1c0.2,0.3,0.5,0.5,0.7,0.8c0.5,0.4,1.1,0.7,1.6,0.9c0.3,0.1,0.6,0.1,0.9,0.1
				c0.4,0,0.7,0,1.1-0.1c0.9-0.2,1.4-0.8,1.5-1.7c0-0.2,0.1-0.4,0.1-0.6c0-2.1-1.9-4.7-4.3-4.7c-1.1,0-2.4,0.2-2.8,1.4
				C303.1,75.3,303.1,75.5,303.1,75.8z"/>
		</g>
	</g>
	<g transform="matrix(0.708661,0,0,0.708661,0,0)">
		<g class="st1">
			<path d="M393.8,77.1c0,2.4-1.8,4.4-7.5,4.4c-5.2,0-7.2-2.1-7.2-4.4c0-2.4,2.9-4.3,7.5-4.3C389.9,72.8,393.8,74.6,393.8,77.1z
				 M382.9,75.8c0,1.1,0.5,2.3,1.2,3.1c0.2,0.3,0.5,0.5,0.7,0.8c0.5,0.4,1.1,0.7,1.6,0.9c0.3,0.1,0.6,0.1,0.9,0.1
				c0.4,0,0.7,0,1.1-0.1c0.9-0.2,1.4-0.8,1.5-1.7c0-0.2,0.1-0.4,0.1-0.6c0-2.1-1.9-4.7-4.3-4.7c-1.1,0-2.4,0.2-2.8,1.4
				C382.9,75.3,382.9,75.5,382.9,75.8z"/>
		</g>
	</g>
	<g transform="matrix(0.708661,0,0,0.708661,0,0)">
		<g class="st1">
			<path d="M375.6,73.6c-0.3,0.1-0.4,0.7-0.4,0.9v3c0,0.4,0.2,0.6,0.4,0.6c0.2-0.1,0.8-0.3,0.8-0.3c0.1,0,0.1,0,0.2,0
				c0.1,0,0.2,0.1,0.2,0.3v2.3c0,0.2-0.2,0.4-0.4,0.5c0,0-0.7,0.3-0.9,0.4s-0.4,0.5-0.4,0.7v4.5c0,0.2-0.2,0.4-0.5,0.4
				c-0.2,0-0.4-0.2-0.4-0.4v-4c0-0.2-0.2-0.6-0.4-0.6c0,0-0.1,0-0.1,0l-2,0.8c-0.2,0.1-0.3,0.3-0.3,0.7v4.5c0,0.2-0.2,0.4-0.5,0.4
				c-0.2,0-0.4-0.2-0.4-0.4V84c0-0.2-0.2-0.5-0.4-0.5c0,0-0.1,0-0.1,0c-0.3,0.1-0.7,0.3-0.7,0.3c0,0-0.1,0-0.1,0
				c-0.2,0-0.3-0.1-0.3-0.3v-2.3c0-0.2,0.2-0.4,0.4-0.5c0,0,0.7-0.3,0.9-0.4c0.2-0.1,0.4-0.4,0.4-0.7v-3.2c0-0.3-0.2-0.6-0.4-0.6
				c0,0-0.1,0-0.1,0c-0.2,0.1-0.7,0.3-0.7,0.3c0,0-0.1,0-0.1,0c-0.2,0-0.3-0.1-0.3-0.3v-2.3c0-0.2,0.2-0.4,0.4-0.5
				c0,0,0.6-0.3,0.8-0.4c0.2-0.1,0.4-0.4,0.4-0.9v-1.3v-3c0-0.2,0.2-0.4,0.5-0.4c0.2,0,0.4,0.2,0.4,0.4v3.8c0,0.3,0.1,0.6,0.4,0.6
				c0.5-0.1,1.6-0.6,2-0.8c0.3-0.2,0.4-0.6,0.4-0.9v-4.2c0-0.2,0.2-0.4,0.5-0.4c0.3,0,0.4,0.2,0.4,0.4v3.9c0,0.3,0.2,0.4,0.4,0.4
				c0.2,0,0.8-0.3,0.8-0.3c0.1,0,0.1,0,0.2,0c0.1,0,0.2,0.1,0.2,0.3v2.3c0,0.2-0.2,0.4-0.4,0.5C376.5,73.3,375.9,73.6,375.6,73.6z
				 M374.4,76.5c0-0.9-0.1-1.7-0.1-1.8c-0.1-0.1-0.3-0.2-0.5-0.2c-0.8,0-2.3,0.7-2.3,1.2c-0.1,0.3-0.1,1.4-0.1,2.4
				c0,0.8,0,1.5,0.1,1.6c0,0.1,0.2,0.2,0.4,0.2c0.7,0,2.2-0.6,2.4-1.3C374.3,78.3,374.4,77.4,374.4,76.5z"/>
		</g>
	</g>
	<g transform="matrix(0.708661,0,0,0.708661,0,0)">
		<g class="st1">
			<path d="M472.6,73.1c0,2.4-1.8,4.4-7.5,4.4c-5.2,0-7.2-2.1-7.2-4.4c0-2.4,2.9-4.3,7.5-4.3C468.7,68.8,472.6,70.6,472.6,73.1z
				 M461.6,71.8c0,1.1,0.5,2.3,1.2,3.1c0.2,0.3,0.5,0.5,0.7,0.8c0.5,0.4,1.1,0.7,1.6,0.9c0.3,0.1,0.6,0.1,0.9,0.1
				c0.4,0,0.7,0,1.1-0.1c0.9-0.2,1.4-0.8,1.5-1.7c0-0.2,0.1-0.4,0.1-0.6c0-2.1-1.9-4.7-4.3-4.7c-1.1,0-2.4,0.2-2.8,1.4
				C461.7,71.2,461.6,71.5,461.6,71.8z"/>
		</g>
	</g>
	<g transform="matrix(0.708661,0,0,0.708661,0,0)">
		<g class="st1">
			<path d="M552.4,73.1c0,2.4-1.8,4.4-7.5,4.4c-5.2,0-7.2-2.1-7.2-4.4c0-2.4,2.9-4.3,7.5-4.3C548.4,68.8,552.4,70.6,552.4,73.1z
				 M541.4,71.8c0,1.1,0.5,2.3,1.2,3.1c0.2,0.3,0.5,0.5,0.7,0.8c0.5,0.4,1.1,0.7,1.6,0.9c0.3,0.1,0.6,0.1,0.9,0.1
				c0.4,0,0.7,0,1.1-0.1c0.9-0.2,1.4-0.8,1.5-1.7c0-0.2,0.1-0.4,0.1-0.6c0-2.1-1.9-4.7-4.3-4.7c-1.1,0-2.4,0.2-2.8,1.4
				C541.4,71.2,541.4,71.5,541.4,71.8z"/>
		</g>
	</g>
	<g transform="matrix(0.708661,0,0,0.708661,0,0)">
		<g class="st1">
			<path d="M534.2,69.6c-0.3,0.1-0.4,0.7-0.4,0.9v3c0,0.4,0.2,0.6,0.4,0.6c0.2-0.1,0.8-0.3,0.8-0.3c0.1,0,0.1,0,0.2,0
				c0.1,0,0.2,0.1,0.2,0.3v2.3c0,0.2-0.2,0.4-0.4,0.5c0,0-0.7,0.3-0.9,0.4c-0.2,0.1-0.4,0.5-0.4,0.7v4.5c0,0.2-0.2,0.4-0.5,0.4
				c-0.2,0-0.4-0.2-0.4-0.4v-4c0-0.2-0.2-0.6-0.4-0.6c0,0-0.1,0-0.1,0l-2,0.8c-0.2,0.1-0.3,0.3-0.3,0.7v4.5c0,0.2-0.2,0.4-0.5,0.4
				c-0.2,0-0.4-0.2-0.4-0.4V80c0-0.2-0.2-0.5-0.4-0.5c0,0-0.1,0-0.1,0c-0.3,0.1-0.7,0.3-0.7,0.3c0,0-0.1,0-0.1,0
				c-0.2,0-0.3-0.1-0.3-0.3v-2.3c0-0.2,0.2-0.4,0.4-0.5c0,0,0.7-0.3,0.9-0.4c0.2-0.1,0.4-0.4,0.4-0.7v-3.2c0-0.3-0.2-0.6-0.4-0.6
				c0,0-0.1,0-0.1,0c-0.2,0.1-0.7,0.3-0.7,0.3c0,0-0.1,0-0.1,0c-0.2,0-0.3-0.1-0.3-0.3v-2.3c0-0.2,0.2-0.4,0.4-0.5
				c0,0,0.6-0.3,0.8-0.4c0.2-0.1,0.4-0.4,0.4-0.9v-1.3v-3c0-0.2,0.2-0.4,0.5-0.4c0.2,0,0.4,0.2,0.4,0.4v3.8c0,0.3,0.1,0.6,0.4,0.6
				c0.5-0.1,1.6-0.6,2-0.8c0.3-0.2,0.4-0.6,0.4-0.9v-4.2c0-0.2,0.2-0.4,0.5-0.4c0.3,0,0.4,0.2,0.4,0.4v3.9c0,0.3,0.2,0.4,0.4,0.4
				c0.2,0,0.8-0.3,0.8-0.3c0.1,0,0.1,0,0.2,0c0.1,0,0.2,0.1,0.2,0.3v2.3c0,0.2-0.2,0.4-0.4,0.5C535,69.3,534.4,69.6,534.2,69.6z
				 M532.9,72.5c0-0.9-0.1-1.7-0.1-1.8c-0.1-0.1-0.3-0.2-0.5-0.2c-0.8,0-2.3,0.7-2.3,1.2c-0.1,0.3-0.1,1.4-0.1,2.4
				c0,0.8,0,1.5,0.1,1.6c0,0.1,0.2,0.2,0.4,0.2c0.7,0,2.2-0.6,2.4-1.3C532.9,74.3,532.9,73.4,532.9,72.5z"/>
		</g>
	</g>
	<g transform="matrix(0.708661,0,0,0.708661,0,0)">
		<g class="st1">
			<path d="M631.1,69.1c0,2.4-1.8,4.4-7.5,4.4c-5.2,0-7.2-2.1-7.2-4.4c0-2.4,2.9-4.3,7.5-4.3C627.2,64.8,631.1,66.6,631.1,69.1z
				 M620.2,67.8c0,1.1,0.5,2.3,1.2,3.1c0.2,0.3,0.5,0.5,0.7,0.8c0.5,0.4,1.1,0.7,1.6,0.9c0.3,0.1,0.6,0.1,0.9,0.1
				c0.4,0,0.7,0,1.1-0.1c0.9-0.2,1.4-0.8,1.5-1.7c0-0.2,0.1-0.4,0.1-0.6c0-2.1-1.9-4.7-4.3-4.7c-1.1,0-2.4,0.2-2.8,1.4
				C620.2,67.2,620.2,67.5,620.2,67.8z"/>
		</g>
	</g>
	<g transform="matrix(0.708661,0,0,0.708661,0,0)">
		<g class="st1">
			<path d="M710.2,65.1c0,2.4-1.8,4.4-7.5,4.4c-5.2,0-7.2-2.1-7.2-4.4c0-2.4,2.9-4.3,7.5-4.3C706.2,60.8,710.2,62.6,710.2,65.1z
				 M699.2,63.8c0,1.1,0.5,2.3,1.2,3.1c0.2,0.3,0.5,0.5,0.7,0.8c0.5,0.4,1.1,0.7,1.6,0.9c0.3,0.1,0.6,0.1,0.9,0.1
				c0.4,0,0.7,0,1.1-0.1c0.9-0.2,1.4-0.8,1.5-1.7c0-0.2,0.1-0.4,0.1-0.6c0-2.1-1.9-4.7-4.3-4.7c-1.1,0-2.4,0.2-2.8,1.4
				C699.2,63.2,699.2,63.5,699.2,63.8z"/>
		</g>
	</g>
	<g transform="matrix(0.708661,0,0,0.708661,0,0)">
		<g class="st1">
			<path d="M61.5,171.1c0,2.4-1.8,4.4-7.5,4.4c-5.2,0-7.2-2.1-7.2-4.4c0-2.4,2.9-4.3,7.5-4.3C57.5,166.8,61.5,168.7,61.5,171.1z
				 M50.5,169.9c0,1.1,0.5,2.3,1.2,3.1c0.2,0.3,0.5,0.5,0.7,0.8c0.5,0.4,1.1,0.7,1.6,0.9c0.3,0.1,0.6,0.1,0.9,0.1
				c0.4,0,0.7,0,1.1-0.1c0.9-0.2,1.4-0.8,1.5-1.7c0-0.2,0.1-0.4,0.1-0.6c0-2.1-1.9-4.7-4.3-4.7c-1.1,0-2.4,0.2-2.8,1.4
				C50.5,169.3,50.5,169.6,50.5,169.9z"/>
		</g>
	</g>
	<g transform="matrix(0.708661,0,0,0.708661,0,0)">
		<g class="st1">
			<path d="M43.3,167.7c-0.3,0.1-0.4,0.7-0.4,0.9v3c0,0.4,0.2,0.6,0.4,0.6c0.2-0.1,0.8-0.3,0.8-0.3c0.1,0,0.1,0,0.2,0
				c0.1,0,0.2,0.1,0.2,0.3v2.3c0,0.2-0.2,0.4-0.4,0.5c0,0-0.7,0.3-0.9,0.4c-0.2,0.1-0.4,0.5-0.4,0.7v4.5c0,0.2-0.2,0.4-0.5,0.4
				c-0.2,0-0.4-0.2-0.4-0.4v-4c0-0.2-0.2-0.6-0.4-0.6c0,0-0.1,0-0.1,0l-2,0.8c-0.2,0.1-0.3,0.3-0.3,0.7v4.5c0,0.2-0.2,0.4-0.5,0.4
				c-0.2,0-0.4-0.2-0.4-0.4V178c0-0.2-0.2-0.5-0.4-0.5c0,0-0.1,0-0.1,0c-0.3,0.1-0.7,0.3-0.7,0.3c0,0-0.1,0-0.1,0
				c-0.2,0-0.3-0.1-0.3-0.3v-2.3c0-0.2,0.2-0.4,0.4-0.5c0,0,0.7-0.3,0.9-0.4c0.2-0.1,0.4-0.4,0.4-0.7v-3.2c0-0.3-0.2-0.6-0.4-0.6
				c0,0-0.1,0-0.1,0c-0.2,0.1-0.7,0.3-0.7,0.3c0,0-0.1,0-0.1,0c-0.2,0-0.3-0.1-0.3-0.3v-2.3c0-0.2,0.2-0.4,0.4-0.5
				c0,0,0.6-0.3,0.8-0.4c0.2-0.1,0.4-0.4,0.4-0.9v-1.3v-3c0-0.2,0.2-0.4,0.5-0.4c0.2,0,0.4,0.2,0.4,0.4v3.8c0,0.3,0.1,0.6,0.4,0.6
				c0.5-0.1,1.6-0.6,2-0.8c0.3-0.2,0.4-0.6,0.4-0.9v-4.2c0-0.2,0.2-0.4,0.5-0.4c0.3,0,0.4,0.2,0.4,0.4v3.9c0,0.3,0.2,0.4,0.4,0.4
				c0.2,0,0.8-0.3,0.8-0.3c0.1,0,0.1,0,0.2,0c0.1,0,0.2,0.1,0.2,0.3v2.3c0,0.2-0.2,0.4-0.4,0.5C44.1,167.4,43.5,167.6,43.3,167.7z
				 M42,170.5c0-0.9-0.1-1.7-0.1-1.8c-0.1-0.1-0.3-0.2-0.5-0.2c-0.8,0-2.3,0.7-2.3,1.2c-0.1,0.3-0.1,1.4-0.1,2.4
				c0,0.8,0,1.5,0.1,1.6c0,0.1,0.2,0.2,0.4,0.2c0.7,0,2.2-0.6,2.4-1.3C42,172.3,42,171.4,42,170.5z"/>
		</g>
	</g>
	<g transform="matrix(0.708661,0,0,0.708661,0,0)">
		<g class="st1">
			<path d="M142,167.1c0,2.4-1.8,4.4-7.5,4.4c-5.2,0-7.2-2.1-7.2-4.4c0-2.4,2.9-4.3,7.5-4.3C138,162.8,142,164.7,142,167.1z
				 M131,165.9c0,1.1,0.5,2.3,1.2,3.1c0.2,0.3,0.5,0.5,0.7,0.8c0.5,0.4,1.1,0.7,1.6,0.9c0.3,0.1,0.6,0.1,0.9,0.1
				c0.4,0,0.7,0,1.1-0.1c0.9-0.2,1.4-0.8,1.5-1.7c0-0.2,0.1-0.4,0.1-0.6c0-2.1-1.9-4.7-4.3-4.7c-1.1,0-2.4,0.2-2.8,1.4
				C131.1,165.3,131,165.6,131,165.9z"/>
		</g>
	</g>
	<g transform="matrix(0.708661,0,0,0.708661,0,0)">
		<g class="st1">
			<path d="M223.3,167.1c0,2.4-1.8,4.4-7.5,4.4c-5.2,0-7.2-2.1-7.2-4.4c0-2.4,2.9-4.3,7.5-4.3C219.3,162.8,223.3,164.7,223.3,167.1z
				 M212.3,165.9c0,1.1,0.5,2.3,1.2,3.1c0.2,0.3,0.5,0.5,0.7,0.8c0.5,0.4,1.1,0.7,1.6,0.9c0.3,0.1,0.6,0.1,0.9,0.1
				c0.4,0,0.7,0,1.1-0.1c0.9-0.2,1.4-0.8,1.5-1.7c0-0.2,0.1-0.4,0.1-0.6c0-2.1-1.9-4.7-4.3-4.7c-1.1,0-2.4,0.2-2.8,1.4
				C212.3,165.3,212.3,165.6,212.3,165.9z"/>
		</g>
	</g>
	<g transform="matrix(0.708661,0,0,0.708661,0,0)">
		<g class="st1">
			<path d="M205.1,163.7c-0.3,0.1-0.4,0.7-0.4,0.9v3c0,0.4,0.2,0.6,0.4,0.6c0.2-0.1,0.8-0.3,0.8-0.3c0.1,0,0.1,0,0.2,0
				c0.1,0,0.2,0.1,0.2,0.3v2.3c0,0.2-0.2,0.4-0.4,0.5c0,0-0.7,0.3-0.9,0.4c-0.2,0.1-0.4,0.5-0.4,0.7v4.5c0,0.2-0.2,0.4-0.5,0.4
				c-0.2,0-0.4-0.2-0.4-0.4v-4c0-0.2-0.2-0.6-0.4-0.6c0,0-0.1,0-0.1,0l-2,0.8c-0.2,0.1-0.3,0.3-0.3,0.7v4.5c0,0.2-0.2,0.4-0.5,0.4
				c-0.2,0-0.4-0.2-0.4-0.4V174c0-0.2-0.2-0.5-0.4-0.5c0,0-0.1,0-0.1,0c-0.3,0.1-0.7,0.3-0.7,0.3c0,0-0.1,0-0.1,0
				c-0.2,0-0.3-0.1-0.3-0.3v-2.3c0-0.2,0.2-0.4,0.4-0.5c0,0,0.7-0.3,0.9-0.4c0.2-0.1,0.4-0.4,0.4-0.7v-3.2c0-0.3-0.2-0.6-0.4-0.6
				c0,0-0.1,0-0.1,0c-0.2,0.1-0.7,0.3-0.7,0.3c0,0-0.1,0-0.1,0c-0.2,0-0.3-0.1-0.3-0.3v-2.3c0-0.2,0.2-0.4,0.4-0.5
				c0,0,0.6-0.3,0.8-0.4c0.2-0.1,0.4-0.4,0.4-0.9v-1.3v-3c0-0.2,0.2-0.4,0.5-0.4c0.2,0,0.4,0.2,0.4,0.4v3.8c0,0.3,0.1,0.6,0.4,0.6
				c0.5-0.1,1.6-0.6,2-0.8c0.3-0.2,0.4-0.6,0.4-0.9v-4.2c0-0.2,0.2-0.4,0.5-0.4c0.3,0,0.4,0.2,0.4,0.4v3.9c0,0.3,0.2,0.4,0.4,0.4
				c0.2,0,0.8-0.3,0.8-0.3c0.1,0,0.1,0,0.2,0c0.1,0,0.2,0.1,0.2,0.3v2.3c0,0.2-0.2,0.4-0.4,0.5C205.9,163.4,205.3,163.6,205.1,163.7
				z M203.8,166.5c0-0.9-0.1-1.7-0.1-1.8c-0.1-0.1-0.3-0.2-0.5-0.2c-0.8,0-2.3,0.7-2.3,1.2c-0.1,0.3-0.1,1.4-0.1,2.4
				c0,0.8,0,1.5,0.1,1.6c0,0.1,0.2,0.2,0.4,0.2c0.7,0,2.2-0.6,2.4-1.3C203.8,168.3,203.8,167.4,203.8,166.5z"/>
		</g>
	</g>
	<g transform="matrix(0.708661,0,0,0.708661,0,0)">
		<g class="st1">
			<path d="M304,163.1c0,2.4-1.8,4.4-7.5,4.4c-5.2,0-7.2-2.1-7.2-4.4c0-2.4,2.9-4.3,7.5-4.3C300.1,158.8,304,160.7,304,163.1z
				 M293.1,161.9c0,1.1,0.5,2.3,1.2,3.1c0.2,0.3,0.5,0.5,0.7,0.8c0.5,0.4,1.1,0.7,1.6,0.9c0.3,0.1,0.6,0.1,0.9,0.1
				c0.4,0,0.7,0,1.1-0.1c0.9-0.2,1.4-0.8,1.5-1.7c0-0.2,0.1-0.4,0.1-0.6c0-2.1-1.9-4.7-4.3-4.7c-1.1,0-2.4,0.2-2.8,1.4
				C293.1,161.3,293.1,161.6,293.1,161.9z"/>
		</g>
	</g>
	<g transform="matrix(0.708661,0,0,0.708661,0,0)">
		<g class="st1">
			<path d="M384.6,159.1c0,2.4-1.8,4.4-7.5,4.4c-5.2,0-7.2-2.1-7.2-4.4c0-2.4,2.9-4.3,7.5-4.3C380.6,154.8,384.6,156.7,384.6,159.1z
				 M373.6,157.9c0,1.1,0.5,2.3,1.2,3.1c0.2,0.3,0.5,0.5,0.7,0.8c0.5,0.4,1.1,0.7,1.6,0.9c0.3,0.1,0.6,0.1,0.9,0.1
				c0.4,0,0.7,0,1.1-0.1c0.9-0.2,1.4-0.8,1.5-1.7c0-0.2,0.1-0.4,0.1-0.6c0-2.1-1.9-4.7-4.3-4.7c-1.1,0-2.4,0.2-2.8,1.4
				C373.6,157.3,373.6,157.6,373.6,157.9z"/>
		</g>
	</g>
	<g transform="matrix(0.708661,0,0,0.708661,0,0)">
		<g class="st1">
			<path d="M465.8,159.1c0,2.4-1.8,4.4-7.5,4.4c-5.2,0-7.2-2.1-7.2-4.4c0-2.4,2.9-4.3,7.5-4.3C461.9,154.8,465.8,156.7,465.8,159.1z
				 M454.9,157.9c0,1.1,0.5,2.3,1.2,3.1c0.2,0.3,0.5,0.5,0.7,0.8c0.5,0.4,1.1,0.7,1.6,0.9c0.3,0.1,0.6,0.1,0.9,0.1
				c0.4,0,0.7,0,1.1-0.1c0.9-0.2,1.4-0.8,1.5-1.7c0-0.2,0.1-0.4,0.1-0.6c0-2.1-1.9-4.7-4.3-4.7c-1.1,0-2.4,0.2-2.8,1.4
				C454.9,157.3,454.9,157.6,454.9,157.9z"/>
		</g>
	</g>
	<g transform="matrix(0.708661,0,0,0.708661,0,0)">
		<g class="st1">
			<path d="M447.6,155.7c-0.3,0.1-0.4,0.7-0.4,0.9v3c0,0.4,0.2,0.6,0.4,0.6c0.2-0.1,0.8-0.3,0.8-0.3c0.1,0,0.1,0,0.2,0
				c0.1,0,0.2,0.1,0.2,0.3v2.3c0,0.2-0.2,0.4-0.4,0.5c0,0-0.7,0.3-0.9,0.4c-0.2,0.1-0.4,0.5-0.4,0.7v4.5c0,0.2-0.2,0.4-0.5,0.4
				c-0.2,0-0.4-0.2-0.4-0.4v-4c0-0.2-0.2-0.6-0.4-0.6c0,0-0.1,0-0.1,0l-2,0.8c-0.2,0.1-0.3,0.3-0.3,0.7v4.5c0,0.2-0.2,0.4-0.5,0.4
				c-0.2,0-0.4-0.2-0.4-0.4V166c0-0.2-0.2-0.5-0.4-0.5c0,0-0.1,0-0.1,0c-0.3,0.1-0.7,0.3-0.7,0.3c0,0-0.1,0-0.1,0
				c-0.2,0-0.3-0.1-0.3-0.3v-2.3c0-0.2,0.2-0.4,0.4-0.5c0,0,0.7-0.3,0.9-0.4c0.2-0.1,0.4-0.4,0.4-0.7v-3.2c0-0.3-0.2-0.6-0.4-0.6
				c0,0-0.1,0-0.1,0c-0.2,0.1-0.7,0.3-0.7,0.3c0,0-0.1,0-0.1,0c-0.2,0-0.3-0.1-0.3-0.3v-2.3c0-0.2,0.2-0.4,0.4-0.5
				c0,0,0.6-0.3,0.8-0.4c0.2-0.1,0.4-0.4,0.4-0.9v-1.3v-3c0-0.2,0.2-0.4,0.5-0.4c0.2,0,0.4,0.2,0.4,0.4v3.8c0,0.3,0.1,0.6,0.4,0.6
				c0.5-0.1,1.6-0.6,2-0.8c0.3-0.2,0.4-0.6,0.4-0.9v-4.2c0-0.2,0.2-0.4,0.5-0.4c0.3,0,0.4,0.2,0.4,0.4v3.9c0,0.3,0.2,0.4,0.4,0.4
				c0.2,0,0.8-0.3,0.8-0.3c0.1,0,0.1,0,0.2,0c0.1,0,0.2,0.1,0.2,0.3v2.3c0,0.2-0.2,0.4-0.4,0.5C448.5,155.4,447.9,155.6,447.6,155.7
				z M446.4,158.5c0-0.9-0.1-1.7-0.1-1.8c-0.1-0.1-0.3-0.2-0.5-0.2c-0.8,0-2.3,0.7-2.3,1.2c-0.1,0.3-0.1,1.4-0.1,2.4
				c0,0.8,0,1.5,0.1,1.6c0,0.1,0.2,0.2,0.4,0.2c0.7,0,2.2-0.6,2.4-1.3C446.3,160.3,446.4,159.4,446.4,158.5z"/>
		</g>
	</g>
	<g transform="matrix(0.708661,0,0,0.708661,0,0)">
		<g class="st1">
			<path d="M546.4,155.1c0,2.4-1.8,4.4-7.5,4.4c-5.2,0-7.2-2.1-7.2-4.4c0-2.4,2.9-4.3,7.5-4.3C542.4,150.8,546.4,152.7,546.4,155.1z
				 M535.4,153.9c0,1.1,0.5,2.3,1.2,3.1c0.2,0.3,0.5,0.5,0.7,0.8c0.5,0.4,1.1,0.7,1.6,0.9c0.3,0.1,0.6,0.1,0.9,0.1
				c0.4,0,0.7,0,1.1-0.1c0.9-0.2,1.4-0.8,1.5-1.7c0-0.2,0.1-0.4,0.1-0.6c0-2.1-1.9-4.7-4.3-4.7c-1.1,0-2.4,0.2-2.8,1.4
				C535.4,153.3,535.4,153.6,535.4,153.9z"/>
		</g>
	</g>
	<g transform="matrix(0.708661,0,0,0.708661,0,0)">
		<g class="st1">
			<path d="M627.9,155.1c0,2.4-1.8,4.4-7.5,4.4c-5.2,0-7.2-2.1-7.2-4.4c0-2.4,2.9-4.3,7.5-4.3C624,150.8,627.9,152.7,627.9,155.1z
				 M616.9,153.9c0,1.1,0.5,2.3,1.2,3.1c0.2,0.3,0.5,0.5,0.7,0.8c0.5,0.4,1.1,0.7,1.6,0.9c0.3,0.1,0.6,0.1,0.9,0.1
				c0.4,0,0.7,0,1.1-0.1c0.9-0.2,1.4-0.8,1.5-1.7c0-0.2,0.1-0.4,0.1-0.6c0-2.1-1.9-4.7-4.3-4.7c-1.1,0-2.4,0.2-2.8,1.4
				C617,153.3,616.9,153.6,616.9,153.9z"/>
		</g>
	</g>
	<g transform="matrix(0.708661,0,0,0.708661,0,0)">
		<g class="st1">
			<path d="M609.7,151.7c-0.3,0.1-0.4,0.7-0.4,0.9v3c0,0.4,0.2,0.6,0.4,0.6c0.2-0.1,0.8-0.3,0.8-0.3c0.1,0,0.1,0,0.2,0
				c0.1,0,0.2,0.1,0.2,0.3v2.3c0,0.2-0.2,0.4-0.4,0.5c0,0-0.7,0.3-0.9,0.4c-0.2,0.1-0.4,0.5-0.4,0.7v4.5c0,0.2-0.2,0.4-0.5,0.4
				c-0.2,0-0.4-0.2-0.4-0.4v-4c0-0.2-0.2-0.6-0.4-0.6c0,0-0.1,0-0.1,0l-2,0.8c-0.2,0.1-0.3,0.3-0.3,0.7v4.5c0,0.2-0.2,0.4-0.5,0.4
				c-0.2,0-0.4-0.2-0.4-0.4V162c0-0.2-0.2-0.5-0.4-0.5c0,0-0.1,0-0.1,0c-0.3,0.1-0.7,0.3-0.7,0.3c0,0-0.1,0-0.1,0
				c-0.2,0-0.3-0.1-0.3-0.3v-2.3c0-0.2,0.2-0.4,0.4-0.5c0,0,0.7-0.3,0.9-0.4c0.2-0.1,0.4-0.4,0.4-0.7v-3.2c0-0.3-0.2-0.6-0.4-0.6
				c0,0-0.1,0-0.1,0c-0.2,0.1-0.7,0.3-0.7,0.3c0,0-0.1,0-0.1,0c-0.2,0-0.3-0.1-0.3-0.3v-2.3c0-0.2,0.2-0.4,0.4-0.5
				c0,0,0.6-0.3,0.8-0.4c0.2-0.1,0.4-0.4,0.4-0.9v-1.3v-3c0-0.2,0.2-0.4,0.5-0.4c0.2,0,0.4,0.2,0.4,0.4v3.8c0,0.3,0.1,0.6,0.4,0.6
				c0.5-0.1,1.6-0.6,2-0.8c0.3-0.2,0.4-0.6,0.4-0.9v-4.2c0-0.2,0.2-0.4,0.5-0.4c0.3,0,0.4,0.2,0.4,0.4v3.9c0,0.3,0.2,0.4,0.4,0.4
				c0.2,0,0.8-0.3,0.8-0.3c0.1,0,0.1,0,0.2,0c0.1,0,0.2,0.1,0.2,0.3v2.3c0,0.2-0.2,0.4-0.4,0.5C610.5,151.4,610,151.6,609.7,151.7z
				 M608.4,154.5c0-0.9-0.1-1.7-0.1-1.8c-0.1-0.1-0.3-0.2-0.5-0.2c-0.8,0-2.3,0.7-2.3,1.2c-0.1,0.3-0.1,1.4-0.1,2.4
				c0,0.8,0,1.5,0.1,1.6c0,0.1,0.2,0.2,0.4,0.2c0.7,0,2.2-0.6,2.4-1.3C608.4,156.3,608.4,155.4,608.4,154.5z"/>
		</g>
	</g>
	<g transform="matrix(0.708661,0,0,0.708661,0,0)">
		<g class="st1">
			<path d="M708.4,151.1c0,2.4-1.8,4.4-7.5,4.4c-5.2,0-7.2-2.1-7.2-4.4c0-2.4,2.9-4.3,7.5-4.3C704.5,146.8,708.4,148.7,708.4,151.1z
				 M697.5,149.9c0,1.1,0.5,2.3,1.2,3.1c0.2,0.3,0.5,0.5,0.7,0.8c0.5,0.4,1.1,0.7,1.6,0.9c0.3,0.1,0.6,0.1,0.9,0.1
				c0.4,0,0.7,0,1.1-0.1c0.9-0.2,1.4-0.8,1.5-1.7c0-0.2,0.1-0.4,0.1-0.6c0-2.1-1.9-4.7-4.3-4.7c-1.1,0-2.4,0.2-2.8,1.4
				C697.5,149.3,697.5,149.6,697.5,149.9z"/>
		</g>
	</g>
	<g transform="matrix(0.708661,0,0,0.708661,0,0)">
		<g class="st1">
			<path d="M61.5,257.2c0,2.4-1.8,4.4-7.5,4.4c-5.2,0-7.2-2.1-7.2-4.4c0-2.4,2.9-4.3,7.5-4.3C57.5,252.8,61.5,254.7,61.5,257.2z
				 M50.5,255.9c0,1.1,0.5,2.3,1.2,3.1c0.2,0.3,0.5,0.5,0.7,0.8c0.5,0.4,1.1,0.7,1.6,0.9c0.3,0.1,0.6,0.1,0.9,0.1
				c0.4,0,0.7,0,1.1-0.1c0.9-0.2,1.4-0.8,1.5-1.7c0-0.2,0.1-0.4,0.1-0.6c0-2.1-1.9-4.7-4.3-4.7c-1.1,0-2.4,0.2-2.8,1.4
				C50.5,255.3,50.5,255.6,50.5,255.9z"/>
		</g>
	</g>
	<g transform="matrix(0.708661,0,0,0.708661,0,0)">
		<g class="st1">
			<path d="M43.3,253.7c-0.3,0.1-0.4,0.7-0.4,0.9v3c0,0.4,0.2,0.6,0.4,0.6c0.2-0.1,0.8-0.3,0.8-0.3c0.1,0,0.1,0,0.2,0
				c0.1,0,0.2,0.1,0.2,0.3v2.3c0,0.2-0.2,0.4-0.4,0.5c0,0-0.7,0.3-0.9,0.4c-0.2,0.1-0.4,0.5-0.4,0.7v4.5c0,0.2-0.2,0.4-0.5,0.4
				c-0.2,0-0.4-0.2-0.4-0.4v-4c0-0.2-0.2-0.6-0.4-0.6c0,0-0.1,0-0.1,0l-2,0.8c-0.2,0.1-0.3,0.3-0.3,0.7v4.5c0,0.2-0.2,0.4-0.5,0.4
				c-0.2,0-0.4-0.2-0.4-0.4V264c0-0.2-0.2-0.5-0.4-0.5c0,0-0.1,0-0.1,0c-0.3,0.1-0.7,0.3-0.7,0.3c0,0-0.1,0-0.1,0
				c-0.2,0-0.3-0.1-0.3-0.3v-2.3c0-0.2,0.2-0.4,0.4-0.5c0,0,0.7-0.3,0.9-0.4c0.2-0.1,0.4-0.4,0.4-0.7v-3.2c0-0.3-0.2-0.6-0.4-0.6
				c0,0-0.1,0-0.1,0c-0.2,0.1-0.7,0.3-0.7,0.3c0,0-0.1,0-0.1,0c-0.2,0-0.3-0.1-0.3-0.3v-2.3c0-0.2,0.2-0.4,0.4-0.5
				c0,0,0.6-0.3,0.8-0.4c0.2-0.1,0.4-0.4,0.4-0.9v-1.3v-3c0-0.2,0.2-0.4,0.5-0.4c0.2,0,0.4,0.2,0.4,0.4v3.8c0,0.3,0.1,0.6,0.4,0.6
				c0.5-0.1,1.6-0.6,2-0.8c0.3-0.2,0.4-0.6,0.4-0.9v-4.2c0-0.2,0.2-0.4,0.5-0.4c0.3,0,0.4,0.2,0.4,0.4v3.9c0,0.3,0.2,0.4,0.4,0.4
				c0.2,0,0.8-0.3,0.8-0.3c0.1,0,0.1,0,0.2,0c0.1,0,0.2,0.1,0.2,0.3v2.3c0,0.2-0.2,0.4-0.4,0.5C44.1,253.4,43.5,253.6,43.3,253.7z
				 M42,256.6c0-0.9-0.1-1.7-0.1-1.8c-0.1-0.1-0.3-0.2-0.5-0.2c-0.8,0-2.3,0.7-2.3,1.2c-0.1,0.3-0.1,1.4-0.1,2.4
				c0,0.8,0,1.5,0.1,1.6c0,0.1,0.2,0.2,0.4,0.2c0.7,0,2.2-0.6,2.4-1.3C42,258.3,42,257.4,42,256.6z"/>
		</g>
	</g>
	<g transform="matrix(0.708661,0,0,0.708661,0,0)">
		<g class="st1">
			<path d="M141,253.2c0,2.4-1.8,4.4-7.5,4.4c-5.2,0-7.2-2.1-7.2-4.4c0-2.4,2.9-4.3,7.5-4.3C137,248.8,141,250.7,141,253.2z
				 M130,251.9c0,1.1,0.5,2.3,1.2,3.1c0.2,0.3,0.5,0.5,0.7,0.8c0.5,0.4,1.1,0.7,1.6,0.9c0.3,0.1,0.6,0.1,0.9,0.1
				c0.4,0,0.7,0,1.1-0.1c0.9-0.2,1.4-0.8,1.5-1.7c0-0.2,0.1-0.4,0.1-0.6c0-2.1-1.9-4.7-4.3-4.7c-1.1,0-2.4,0.2-2.8,1.4
				C130.1,251.3,130,251.6,130,251.9z"/>
		</g>
	</g>
	<g transform="matrix(0.708661,0,0,0.708661,0,0)">
		<line vector-effect="none" class="st0" x1="201.8" y1="249.2" x2="224.6" y2="249.2"/>
	</g>
	<g transform="matrix(0.708661,0,0,0.708661,0,0)">
		<g class="st1">
			<path d="M220.5,249.2c0,2.4-1.8,4.4-7.5,4.4c-5.2,0-7.2-2.1-7.2-4.4c0-2.4,2.9-4.3,7.5-4.3C216.6,244.8,220.5,246.7,220.5,249.2z
				 M209.6,247.9c0,1.1,0.5,2.3,1.2,3.1c0.2,0.3,0.5,0.5,0.7,0.8c0.5,0.4,1.1,0.7,1.6,0.9c0.3,0.1,0.6,0.1,0.9,0.1
				c0.4,0,0.7,0,1.1-0.1c0.9-0.2,1.4-0.8,1.5-1.7c0-0.2,0.1-0.4,0.1-0.6c0-2.1-1.9-4.7-4.3-4.7c-1.1,0-2.4,0.2-2.8,1.4
				C209.6,247.3,209.6,247.6,209.6,247.9z"/>
		</g>
	</g>
	<g transform="matrix(0.708661,0,0,0.708661,0,0)">
		<line vector-effect="none" class="st0" x1="285.3" y1="249.2" x2="308.1" y2="249.2"/>
	</g>
	<g transform="matrix(0.708661,0,0,0.708661,0,0)">
		<g class="st1">
			<path d="M304,249.2c0,2.4-1.8,4.4-7.5,4.4c-5.2,0-7.2-2.1-7.2-4.4c0-2.4,2.9-4.3,7.5-4.3C300.1,244.8,304,246.7,304,249.2z
				 M293.1,247.9c0,1.1,0.5,2.3,1.2,3.1c0.2,0.3,0.5,0.5,0.7,0.8c0.5,0.4,1.1,0.7,1.6,0.9c0.3,0.1,0.6,0.1,0.9,0.1
				c0.4,0,0.7,0,1.1-0.1c0.9-0.2,1.4-0.8,1.5-1.7c0-0.2,0.1-0.4,0.1-0.6c0-2.1-1.9-4.7-4.3-4.7c-1.1,0-2.4,0.2-2.8,1.4
				C293.1,247.3,293.1,247.6,293.1,247.9z"/>
		</g>
	</g>
	<g transform="matrix(0.708661,0,0,0.708661,0,0)">
		<g class="st1">
			<path d="M282.8,245.7c-0.3,0.1-0.4,0.7-0.4,0.9v3c0,0.4,0.2,0.6,0.4,0.6c0.2-0.1,0.8-0.3,0.8-0.3c0.1,0,0.1,0,0.2,0
				c0.1,0,0.2,0.1,0.2,0.3v2.3c0,0.2-0.2,0.4-0.4,0.5c0,0-0.7,0.3-0.9,0.4c-0.2,0.1-0.4,0.5-0.4,0.7v4.5c0,0.2-0.2,0.4-0.5,0.4
				c-0.2,0-0.4-0.2-0.4-0.4v-4c0-0.2-0.2-0.6-0.4-0.6c0,0-0.1,0-0.1,0l-2,0.8c-0.2,0.1-0.3,0.3-0.3,0.7v4.5c0,0.2-0.2,0.4-0.5,0.4
				c-0.2,0-0.4-0.2-0.4-0.4V256c0-0.2-0.2-0.5-0.4-0.5c0,0-0.1,0-0.1,0c-0.3,0.1-0.7,0.3-0.7,0.3c0,0-0.1,0-0.1,0
				c-0.2,0-0.3-0.1-0.3-0.3v-2.3c0-0.2,0.2-0.4,0.4-0.5c0,0,0.7-0.3,0.9-0.4c0.2-0.1,0.4-0.4,0.4-0.7v-3.2c0-0.3-0.2-0.6-0.4-0.6
				c0,0-0.1,0-0.1,0c-0.2,0.1-0.7,0.3-0.7,0.3c0,0-0.1,0-0.1,0c-0.2,0-0.3-0.1-0.3-0.3v-2.3c0-0.2,0.2-0.4,0.4-0.5
				c0,0,0.6-0.3,0.8-0.4c0.2-0.1,0.4-0.4,0.4-0.9v-1.3v-3c0-0.2,0.2-0.4,0.5-0.4c0.2,0,0.4,0.2,0.4,0.4v3.8c0,0.3,0.1,0.6,0.4,0.6
				c0.5-0.1,1.6-0.6,2-0.8c0.3-0.2,0.4-0.6,0.4-0.9v-4.2c0-0.2,0.2-0.4,0.5-0.4c0.3,0,0.4,0.2,0.4,0.4v3.9c0,0.3,0.2,0.4,0.4,0.4
				c0.2,0,0.8-0.3,0.8-0.3c0.1,0,0.1,0,0.2,0c0.1,0,0.2,0.1,0.2,0.3v2.3c0,0.2-0.2,0.4-0.4,0.5C283.7,245.4,283.1,245.6,282.8,245.7
				z M281.6,248.6c0-0.9-0.1-1.7-0.1-1.8c-0.1-0.1-0.3-0.2-0.5-0.2c-0.8,0-2.3,0.7-2.3,1.2c-0.1,0.3-0.1,1.4-0.1,2.4
				c0,0.8,0,1.5,0.1,1.6c0,0.1,0.2,0.2,0.4,0.2c0.7,0,2.2-0.6,2.4-1.3C281.5,250.3,281.6,249.4,281.6,248.6z"/>
		</g>
	</g>
	<g transform="matrix(0.708661,0,0,0.708661,0,0)">
		<line vector-effect="none" class="st0" x1="364.9" y1="249.2" x2="387.6" y2="249.2"/>
	</g>
	<g transform="matrix(0.708661,0,0,0.708661,0,0)">
		<g class="st1">
			<path d="M383.6,245.2c0,2.4-1.8,4.4-7.5,4.4c-5.2,0-7.2-2.1-7.2-4.4c0-2.4,2.9-4.3,7.5-4.3C379.6,240.8,383.6,242.7,383.6,245.2z
				 M372.6,243.9c0,1.1,0.5,2.3,1.2,3.1c0.2,0.3,0.5,0.5,0.7,0.8c0.5,0.4,1.1,0.7,1.6,0.9c0.3,0.1,0.6,0.1,0.9,0.1
				c0.4,0,0.7,0,1.1-0.1c0.9-0.2,1.4-0.8,1.5-1.7c0-0.2,0.1-0.4,0.1-0.6c0-2.1-1.9-4.7-4.3-4.7c-1.1,0-2.4,0.2-2.8,1.4
				C372.6,243.3,372.6,243.6,372.6,243.9z"/>
		</g>
	</g>
	<g transform="matrix(0.708661,0,0,0.708661,0,0)">
		<line vector-effect="none" class="st0" x1="448.1" y1="249.2" x2="470.9" y2="249.2"/>
	</g>
	<g transform="matrix(0.708661,0,0,0.708661,0,0)">
		<g class="st1">
			<path d="M466.8,245.2c0,2.4-1.8,4.4-7.5,4.4c-5.2,0-7.2-2.1-7.2-4.4c0-2.4,2.9-4.3,7.5-4.3C462.9,240.8,466.8,242.7,466.8,245.2z
				 M455.9,243.9c0,1.1,0.5,2.3,1.2,3.1c0.2,0.3,0.5,0.5,0.7,0.8c0.5,0.4,1.1,0.7,1.6,0.9c0.3,0.1,0.6,0.1,0.9,0.1
				c0.4,0,0.7,0,1.1-0.1c0.9-0.2,1.4-0.8,1.5-1.7c0-0.2,0.1-0.4,0.1-0.6c0-2.1-1.9-4.7-4.3-4.7c-1.1,0-2.4,0.2-2.8,1.4
				C455.9,243.3,455.9,243.6,455.9,243.9z"/>
		</g>
	</g>
	<g transform="matrix(0.708661,0,0,0.708661,0,0)">
		<g class="st1">
			<path d="M445.6,241.7c-0.3,0.1-0.4,0.7-0.4,0.9v3c0,0.4,0.2,0.6,0.4,0.6c0.2-0.1,0.8-0.3,0.8-0.3c0.1,0,0.1,0,0.2,0
				c0.1,0,0.2,0.1,0.2,0.3v2.3c0,0.2-0.2,0.4-0.4,0.5c0,0-0.7,0.3-0.9,0.4c-0.2,0.1-0.4,0.5-0.4,0.7v4.5c0,0.2-0.2,0.4-0.5,0.4
				c-0.2,0-0.4-0.2-0.4-0.4v-4c0-0.2-0.2-0.6-0.4-0.6c0,0-0.1,0-0.1,0l-2,0.8c-0.2,0.1-0.3,0.3-0.3,0.7v4.5c0,0.2-0.2,0.4-0.5,0.4
				c-0.2,0-0.4-0.2-0.4-0.4V252c0-0.2-0.2-0.5-0.4-0.5c0,0-0.1,0-0.1,0c-0.3,0.1-0.7,0.3-0.7,0.3c0,0-0.1,0-0.1,0
				c-0.2,0-0.3-0.1-0.3-0.3v-2.3c0-0.2,0.2-0.4,0.4-0.5c0,0,0.7-0.3,0.9-0.4c0.2-0.1,0.4-0.4,0.4-0.7v-3.2c0-0.3-0.2-0.6-0.4-0.6
				c0,0-0.1,0-0.1,0c-0.2,0.1-0.7,0.3-0.7,0.3c0,0-0.1,0-0.1,0c-0.2,0-0.3-0.1-0.3-0.3v-2.3c0-0.2,0.2-0.4,0.4-0.5
				c0,0,0.6-0.3,0.8-0.4c0.2-0.1,0.4-0.4,0.4-0.9v-1.3v-3c0-0.2,0.2-0.4,0.5-0.4c0.2,0,0.4,0.2,0.4,0.4v3.8c0,0.3,0.1,0.6,0.4,0.6
				c0.5-0.1,1.6-0.6,2-0.8c0.3-0.2,0.4-0.6,0.4-0.9v-4.2c0-0.2,0.2-0.4,0.5-0.4c0.3,0,0.4,0.2,0.4,0.4v3.9c0,0.3,0.2,0.4,0.4,0.4
				c0.2,0,0.8-0.3,0.8-0.3c0.1,0,0.1,0,0.2,0c0.1,0,0.2,0.1,0.2,0.3v2.3c0,0.2-0.2,0.4-0.4,0.5C446.5,241.4,445.9,241.6,445.6,241.7
				z M444.4,244.6c0-0.9-0.1-1.7-0.1-1.8c-0.1-0.1-0.3-0.2-0.5-0.2c-0.8,0-2.3,0.7-2.3,1.2c-0.1,0.3-0.1,1.4-0.1,2.4
				c0,0.8,0,1.5,0.1,1.6c0,0.1,0.2,0.2,0.4,0.2c0.7,0,2.2-0.6,2.4-1.3C444.3,246.3,444.4,245.4,444.4,244.6z"/>
		</g>
	</g>
	<g transform="matrix(0.708661,0,0,0.708661,0,0)">
		<line vector-effect="none" class="st0" x1="527.7" y1="249.2" x2="550.4" y2="249.2"/>
	</g>
	<g transform="matrix(0.708661,0,0,0.708661,0,0)">
		<line vector-effect="none" class="st0" x1="527.7" y1="241.2" x2="550.4" y2="241.2"/>
	</g>
	<g transform="matrix(0.708661,0,0,0.708661,0,0)">
		<g class="st1">
			<path d="M546.4,241.2c0,2.4-1.8,4.4-7.5,4.4c-5.2,0-7.2-2.1-7.2-4.4c0-2.4,2.9-4.3,7.5-4.3C542.4,236.8,546.4,238.7,546.4,241.2z
				 M535.4,239.9c0,1.1,0.5,2.3,1.2,3.1c0.2,0.3,0.5,0.5,0.7,0.8c0.5,0.4,1.1,0.7,1.6,0.9c0.3,0.1,0.6,0.1,0.9,0.1
				c0.4,0,0.7,0,1.1-0.1c0.9-0.2,1.4-0.8,1.5-1.7c0-0.2,0.1-0.4,0.1-0.6c0-2.1-1.9-4.7-4.3-4.7c-1.1,0-2.4,0.2-2.8,1.4
				C535.4,239.3,535.4,239.6,535.4,239.9z"/>
		</g>
	</g>
	<g transform="matrix(0.708661,0,0,0.708661,0,0)">
		<line vector-effect="none" class="st0" x1="607.4" y1="249.2" x2="630.2" y2="249.2"/>
	</g>
	<g transform="matrix(0.708661,0,0,0.708661,0,0)">
		<line vector-effect="none" class="st0" x1="607.4" y1="241.2" x2="630.2" y2="241.2"/>
	</g>
	<g transform="matrix(0.708661,0,0,0.708661,0,0)">
		<g class="st1">
			<path d="M626.1,237.2c0,2.4-1.8,4.4-7.5,4.4c-5.2,0-7.2-2.1-7.2-4.4c0-2.4,2.9-4.3,7.5-4.3C622.2,232.8,626.1,234.7,626.1,237.2z
				 M615.2,235.9c0,1.1,0.5,2.3,1.2,3.1c0.2,0.3,0.5,0.5,0.7,0.8c0.5,0.4,1.1,0.7,1.6,0.9c0.3,0.1,0.6,0.1,0.9,0.1
				c0.4,0,0.7,0,1.1-0.1c0.9-0.2,1.4-0.8,1.5-1.7c0-0.2,0.1-0.4,0.1-0.6c0-2.1-1.9-4.7-4.3-4.7c-1.1,0-2.4,0.2-2.8,1.4
				C615.2,235.3,615.2,235.6,615.2,235.9z"/>
		</g>
	</g>
	<g transform="matrix(0.708661,0,0,0.708661,0,0)">
		<line vector-effect="none" class="st0" x1="690.7" y1="249.2" x2="713.5" y2="249.2"/>
	</g>
	<g transform="matrix(0.708661,0,0,0.708661,0,0)">
		<line vector-effect="none" class="st0" x1="690.7" y1="241.2" x2="713.5" y2="241.2"/>
	</g>
	<g transform="matrix(0.708661,0,0,0.708661,0,0)">
		<g class="st1">
			<path d="M709.4,237.2c0,2.4-1.8,4.4-7.5,4.4c-5.2,0-7.2-2.1-7.2-4.4c0-2.4,2.9-4.3,7.5-4.3C705.5,232.8,709.4,234.7,709.4,237.2z
				 M698.5,235.9c0,1.1,0.5,2.3,1.2,3.1c0.2,0.3,0.5,0.5,0.7,0.8c0.5,0.4,1.1,0.7,1.6,0.9c0.3,0.1,0.6,0.1,0.9,0.1
				c0.4,0,0.7,0,1.1-0.1c0.9-0.2,1.4-0.8,1.5-1.7c0-0.2,0.1-0.4,0.1-0.6c0-2.1-1.9-4.7-4.3-4.7c-1.1,0-2.4,0.2-2.8,1.4
				C698.5,235.3,698.5,235.6,698.5,235.9z"/>
		</g>
	</g>
	<g transform="matrix(0.708661,0,0,0.708661,0,0)">
		<g class="st1">
			<path d="M688.2,233.7c-0.3,0.1-0.4,0.7-0.4,0.9v3c0,0.4,0.2,0.6,0.4,0.6c0.2-0.1,0.8-0.3,0.8-0.3c0.1,0,0.1,0,0.2,0
				c0.1,0,0.2,0.1,0.2,0.3v2.3c0,0.2-0.2,0.4-0.4,0.5c0,0-0.7,0.3-0.9,0.4c-0.2,0.1-0.4,0.5-0.4,0.7v4.5c0,0.2-0.2,0.4-0.5,0.4
				c-0.2,0-0.4-0.2-0.4-0.4v-4c0-0.2-0.2-0.6-0.4-0.6c0,0-0.1,0-0.1,0l-2,0.8c-0.2,0.1-0.3,0.3-0.3,0.7v4.5c0,0.2-0.2,0.4-0.5,0.4
				c-0.2,0-0.4-0.2-0.4-0.4V244c0-0.2-0.2-0.5-0.4-0.5c0,0-0.1,0-0.1,0c-0.3,0.1-0.7,0.3-0.7,0.3c0,0-0.1,0-0.1,0
				c-0.2,0-0.3-0.1-0.3-0.3v-2.3c0-0.2,0.2-0.4,0.4-0.5c0,0,0.7-0.3,0.9-0.4c0.2-0.1,0.4-0.4,0.4-0.7v-3.2c0-0.3-0.2-0.6-0.4-0.6
				c0,0-0.1,0-0.1,0c-0.2,0.1-0.7,0.3-0.7,0.3c0,0-0.1,0-0.1,0c-0.2,0-0.3-0.1-0.3-0.3v-2.3c0-0.2,0.2-0.4,0.4-0.5
				c0,0,0.6-0.3,0.8-0.4c0.2-0.1,0.4-0.4,0.4-0.9v-1.3v-3c0-0.2,0.2-0.4,0.5-0.4c0.2,0,0.4,0.2,0.4,0.4v3.8c0,0.3,0.1,0.6,0.4,0.6
				c0.5-0.1,1.6-0.6,2-0.8c0.3-0.2,0.4-0.6,0.4-0.9v-4.2c0-0.2,0.2-0.4,0.5-0.4c0.3,0,0.4,0.2,0.4,0.4v3.9c0,0.3,0.2,0.4,0.4,0.4
				c0.2,0,0.8-0.3,0.8-0.3c0.1,0,0.1,0,0.2,0c0.1,0,0.2,0.1,0.2,0.3v2.3c0,0.2-0.2,0.4-0.4,0.5C689.1,233.4,688.5,233.6,688.2,233.7
				z M687,236.6c0-0.9-0.1-1.7-0.1-1.8c-0.1-0.1-0.3-0.2-0.5-0.2c-0.8,0-2.3,0.7-2.3,1.2c-0.1,0.3-0.1,1.4-0.1,2.4
				c0,0.8,0,1.5,0.1,1.6c0,0.1,0.2,0.2,0.4,0.2c0.7,0,2.2-0.6,2.4-1.3C686.9,238.3,687,237.4,687,236.6z"/>
		</g>
	</g>
	<g transform="matrix(0.708661,0,0,0.708661,0,0)">
		<line vector-effect="none" class="st0" x1="42" y1="355.2" x2="64.8" y2="355.2"/>
	</g>
	<g transform="matrix(0.708661,0,0,0.708661,0,0)">
		<line vector-effect="none" class="st0" x1="42" y1="347.2" x2="64.8" y2="347.2"/>
	</g>
	<g transform="matrix(0.708661,0,0,0.708661,0,0)">
		<line vector-effect="none" class="st0" x1="42" y1="339.2" x2="64.8" y2="339.2"/>
	</g>
	<g transform="matrix(0.708661,0,0,0.708661,0,0)">
		<g class="st1">
			<path d="M60.7,339.2c0,2.4-1.8,4.4-7.5,4.4c-5.2,0-7.2-2.1-7.2-4.4c0-2.4,2.9-4.3,7.5-4.3C56.8,334.9,60.7,336.7,60.7,339.2z
				 M49.8,337.9c0,1.1,0.5,2.3,1.2,3.1c0.2,0.3,0.5,0.5,0.7,0.8c0.5,0.4,1.1,0.7,1.6,0.9c0.3,0.1,0.6,0.1,0.9,0.1
				c0.4,0,0.7,0,1.1-0.1c0.9-0.2,1.4-0.8,1.5-1.7c0-0.2,0.1-0.4,0.1-0.6c0-2.1-1.9-4.7-4.3-4.7c-1.1,0-2.4,0.2-2.8,1.4
				C49.8,337.3,49.8,337.6,49.8,337.9z"/>
		</g>
	</g>
	<g transform="matrix(0.708661,0,0,0.708661,0,0)">
		<line vector-effect="none" class="st0" x1="124.5" y1="355.2" x2="147.3" y2="355.2"/>
	</g>
	<g transform="matrix(0.708661,0,0,0.708661,0,0)">
		<line vector-effect="none" class="st0" x1="124.5" y1="347.2" x2="147.3" y2="347.2"/>
	</g>
	<g transform="matrix(0.708661,0,0,0.708661,0,0)">
		<line vector-effect="none" class="st0" x1="124.5" y1="339.2" x2="147.3" y2="339.2"/>
	</g>
	<g transform="matrix(0.708661,0,0,0.708661,0,0)">
		<g class="st1">
			<path d="M143.2,335.2c0,2.4-1.8,4.4-7.5,4.4c-5.2,0-7.2-2.1-7.2-4.4c0-2.4,2.9-4.3,7.5-4.3C139.3,330.9,143.2,332.7,143.2,335.2z
				 M132.3,333.9c0,1.1,0.5,2.3,1.2,3.1c0.2,0.3,0.5,0.5,0.7,0.8c0.5,0.4,1.1,0.7,1.6,0.9c0.3,0.1,0.6,0.1,0.9,0.1
				c0.4,0,0.7,0,1.1-0.1c0.9-0.2,1.4-0.8,1.5-1.7c0-0.2,0.1-0.4,0.1-0.6c0-2.1-1.9-4.7-4.3-4.7c-1.1,0-2.4,0.2-2.8,1.4
				C132.3,333.3,132.3,333.6,132.3,333.9z"/>
		</g>
	</g>
	<g transform="matrix(0.708661,0,0,0.708661,0,0)">
		<g class="st1">
			<path d="M116,322c0-0.6,0.5-0.9,1-0.9c0.3,0,0.6,0.2,0.6,0.5c0,0.6-0.2,8.3-0.2,9c0,0.2,0.1,0.4,0.4,0.5c0.1,0,0.1,0,0.2,0
				c0.3,0,0.5-0.3,0.7-0.4c0.4-0.2,0.7-0.4,1.1-0.4c0.2-0.1,0.4-0.1,0.7-0.1c1.5,0.1,2.9,1.2,2.9,3.1c0,1.5-1,3.4-3.8,5.4
				c-0.8,0.5-1.6,1.4-2.5,2c0,0-0.1,0.1-0.2,0.1c-0.1,0-0.2,0-0.3-0.2C116.2,340.3,116,322,116,322z M117.9,338.3
				c0.1,0,0.2,0,0.3-0.1c1-0.6,1.9-1.6,2.3-2.4c0.4-0.7,0.5-1.3,0.5-1.9c0-0.6-0.2-1.2-0.5-1.5c-0.2-0.2-0.5-0.4-0.8-0.4
				c-0.3,0-0.5,0.1-0.8,0.2c-0.4,0.3-1.3,1-1.4,1.3c0,0.1-0.1,0.5-0.1,1c0,1.3,0.1,3.2,0.1,3.2C117.5,337.9,117.6,338.3,117.9,338.3
				z"/>
		</g>
	</g>
	<g transform="matrix(0.708661,0,0,0.708661,0,0)">
		<line vector-effect="none" class="st0" x1="204.1" y1="355.2" x2="226.8" y2="355.2"/>
	</g>
	<g transform="matrix(0.708661,0,0,0.708661,0,0)">
		<line vector-effect="none" class="st0" x1="204.1" y1="347.2" x2="226.8" y2="347.2"/>
	</g>
	<g transform="matrix(0.708661,0,0,0.708661,0,0)">
		<line vector-effect="none" class="st0" x1="204.1" y1="339.2" x2="226.8" y2="339.2"/>
	</g>
	<g transform="matrix(0.708661,0,0,0.708661,0,0)">
		<g class="st1">
			<path d="M222.8,339.2c0,2.4-1.8,4.4-7.5,4.4c-5.2,0-7.2-2.1-7.2-4.4c0-2.4,2.9-4.3,7.5-4.3C218.8,334.9,222.8,336.7,222.8,339.2z
				 M211.8,337.9c0,1.1,0.5,2.3,1.2,3.1c0.2,0.3,0.5,0.5,0.7,0.8c0.5,0.4,1.1,0.7,1.6,0.9c0.3,0.1,0.6,0.1,0.9,0.1
				c0.4,0,0.7,0,1.1-0.1c0.9-0.2,1.4-0.8,1.5-1.7c0-0.2,0.1-0.4,0.1-0.6c0-2.1-1.9-4.7-4.3-4.7c-1.1,0-2.4,0.2-2.8,1.4
				C211.8,337.3,211.8,337.6,211.8,337.9z"/>
		</g>
	</g>
	<g transform="matrix(0.708661,0,0,0.708661,0,0)">
		<line vector-effect="none" class="st0" x1="286.8" y1="355.2" x2="309.6" y2="355.2"/>
	</g>
	<g transform="matrix(0.708661,0,0,0.708661,0,0)">
		<line vector-effect="none" class="st0" x1="286.8" y1="347.2" x2="309.6" y2="347.2"/>
	</g>
	<g transform="matrix(0.708661,0,0,0.708661,0,0)">
		<line vector-effect="none" class="st0" x1="286.8" y1="339.2" x2="309.6" y2="339.2"/>
	</g>
	<g transform="matrix(0.708661,0,0,0.708661,0,0)">
		<g class="st1">
			<path d="M305.5,339.2c0,2.4-1.8,4.4-7.5,4.4c-5.2,0-7.2-2.1-7.2-4.4c0-2.4,2.9-4.3,7.5-4.3C301.6,334.9,305.5,336.7,305.5,339.2z
				 M294.6,337.9c0,1.1,0.5,2.3,1.2,3.1c0.2,0.3,0.5,0.5,0.7,0.8c0.5,0.4,1.1,0.7,1.6,0.9c0.3,0.1,0.6,0.1,0.9,0.1
				c0.4,0,0.7,0,1.1-0.1c0.9-0.2,1.4-0.8,1.5-1.7c0-0.2,0.1-0.4,0.1-0.6c0-2.1-1.9-4.7-4.3-4.7c-1.1,0-2.4,0.2-2.8,1.4
				C294.6,337.3,294.6,337.6,294.6,337.9z"/>
		</g>
	</g>
	<g transform="matrix(0.708661,0,0,0.708661,0,0)">
		<g class="st1">
			<path d="M278.3,326c0-0.6,0.5-0.9,1-0.9c0.3,0,0.6,0.2,0.6,0.5c0,0.6-0.2,8.3-0.2,9c0,0.2,0.1,0.4,0.4,0.5c0.1,0,0.1,0,0.2,0
				c0.3,0,0.5-0.3,0.7-0.4c0.4-0.2,0.7-0.4,1.1-0.4c0.2-0.1,0.4-0.1,0.7-0.1c1.5,0.1,2.9,1.2,2.9,3.1c0,1.5-1,3.4-3.8,5.4
				c-0.8,0.5-1.6,1.4-2.5,2c0,0-0.1,0.1-0.2,0.1c-0.1,0-0.2,0-0.3-0.2C278.5,344.3,278.3,326,278.3,326z M280.2,342.3
				c0.1,0,0.2,0,0.3-0.1c1-0.6,1.9-1.6,2.3-2.4c0.4-0.7,0.5-1.3,0.5-1.9c0-0.6-0.2-1.2-0.5-1.5c-0.2-0.2-0.5-0.4-0.8-0.4
				c-0.3,0-0.5,0.1-0.8,0.2c-0.4,0.3-1.3,1-1.4,1.3c0,0.1-0.1,0.5-0.1,1c0,1.3,0.1,3.2,0.1,3.2C279.8,341.9,279.9,342.3,280.2,342.3
				z"/>
		</g>
	</g>
	<g transform="matrix(0.708661,0,0,0.708661,0,0)">
		<line vector-effect="none" class="st0" x1="366.4" y1="355.2" x2="389.1" y2="355.2"/>
	</g>
	<g transform="matrix(0.708661,0,0,0.708661,0,0)">
		<line vector-effect="none" class="st0" x1="366.4" y1="347.2" x2="389.1" y2="347.2"/>
	</g>
	<g transform="matrix(0.708661,0,0,0.708661,0,0)">
		<g class="st1">
			<path d="M385.1,343.2c0,2.4-1.8,4.4-7.5,4.4c-5.2,0-7.2-2.1-7.2-4.4c0-2.4,2.9-4.3,7.5-4.3C381.1,338.9,385.1,340.7,385.1,343.2z
				 M374.1,341.9c0,1.1,0.5,2.3,1.2,3.1c0.2,0.3,0.5,0.5,0.7,0.8c0.5,0.4,1.1,0.7,1.6,0.9c0.3,0.1,0.6,0.1,0.9,0.1
				c0.4,0,0.7,0,1.1-0.1c0.9-0.2,1.4-0.8,1.5-1.7c0-0.2,0.1-0.4,0.1-0.6c0-2.1-1.9-4.7-4.3-4.7c-1.1,0-2.4,0.2-2.8,1.4
				C374.1,341.3,374.1,341.6,374.1,341.9z"/>
		</g>
	</g>
	<g transform="matrix(0.708661,0,0,0.708661,0,0)">
		<line vector-effect="none" class="st0" x1="445.9" y1="355.2" x2="468.6" y2="355.2"/>
	</g>
	<g transform="matrix(0.708661,0,0,0.708661,0,0)">
		<line vector-effect="none" class="st0" x1="445.9" y1="347.2" x2="468.6" y2="347.2"/>
	</g>
	<g transform="matrix(0.708661,0,0,0.708661,0,0)">
		<g class="st1">
			<path d="M464.6,347.2c0,2.4-1.8,4.4-7.5,4.4c-5.2,0-7.2-2.1-7.2-4.4c0-2.4,2.9-4.3,7.5-4.3C460.7,342.9,464.6,344.7,464.6,347.2z
				 M453.6,345.9c0,1.1,0.5,2.3,1.2,3.1c0.2,0.3,0.5,0.5,0.7,0.8c0.5,0.4,1.1,0.7,1.6,0.9c0.3,0.1,0.6,0.1,0.9,0.1
				c0.4,0,0.7,0,1.1-0.1c0.9-0.2,1.4-0.8,1.5-1.7c0-0.2,0.1-0.4,0.1-0.6c0-2.1-1.9-4.7-4.3-4.7c-1.1,0-2.4,0.2-2.8,1.4
				C453.7,345.3,453.6,345.6,453.6,345.9z"/>
		</g>
	</g>
	<g transform="matrix(0.708661,0,0,0.708661,0,0)">
		<line vector-effect="none" class="st0" x1="528.4" y1="355.2" x2="551.2" y2="355.2"/>
	</g>
	<g transform="matrix(0.708661,0,0,0.708661,0,0)">
		<line vector-effect="none" class="st0" x1="528.4" y1="347.2" x2="551.2" y2="347.2"/>
	</g>
	<g transform="matrix(0.708661,0,0,0.708661,0,0)">
		<g class="st1">
			<path d="M547.1,347.2c0,2.4-1.8,4.4-7.5,4.4c-5.2,0-7.2-2.1-7.2-4.4c0-2.4,2.9-4.3,7.5-4.3C543.2,342.9,547.1,344.7,547.1,347.2z
				 M536.2,345.9c0,1.1,0.5,2.3,1.2,3.1c0.2,0.3,0.5,0.5,0.7,0.8c0.5,0.4,1.1,0.7,1.6,0.9c0.3,0.1,0.6,0.1,0.9,0.1
				c0.4,0,0.7,0,1.1-0.1c0.9-0.2,1.4-0.8,1.5-1.7c0-0.2,0.1-0.4,0.1-0.6c0-2.1-1.9-4.7-4.3-4.7c-1.1,0-2.4,0.2-2.8,1.4
				C536.2,345.3,536.2,345.6,536.2,345.9z"/>
		</g>
	</g>
	<g transform="matrix(0.708661,0,0,0.708661,0,0)">
		<g class="st1">
			<path d="M519.9,334c0-0.6,0.5-0.9,1-0.9c0.3,0,0.6,0.2,0.6,0.5c0,0.6-0.2,8.3-0.2,9c0,0.2,0.1,0.4,0.4,0.5c0.1,0,0.1,0,0.2,0
				c0.3,0,0.5-0.3,0.7-0.4c0.4-0.2,0.7-0.4,1.1-0.4c0.2-0.1,0.4-0.1,0.7-0.1c1.5,0.1,2.9,1.2,2.9,3.1c0,1.5-1,3.4-3.8,5.4
				c-0.8,0.5-1.6,1.4-2.5,2c0,0-0.1,0.1-0.2,0.1c-0.1,0-0.2,0-0.3-0.2C520,352.3,519.9,334,519.9,334z M521.8,350.3
				c0.1,0,0.2,0,0.3-0.1c1-0.6,1.9-1.6,2.3-2.4c0.4-0.7,0.5-1.3,0.5-1.9c0-0.6-0.2-1.2-0.5-1.5c-0.2-0.2-0.5-0.4-0.8-0.4
				c-0.3,0-0.5,0.1-0.8,0.2c-0.4,0.3-1.3,1-1.4,1.3c0,0.1-0.1,0.5-0.1,1c0,1.3,0.1,3.2,0.1,3.2C521.4,349.9,521.5,350.3,521.8,350.3
				z"/>
		</g>
	</g>
	<g transform="matrix(0.708661,0,0,0.708661,0,0)">
		<line vector-effect="none" class="st0" x1="608.2" y1="355.2" x2="630.9" y2="355.2"/>
	</g>
	<g transform="matrix(0.708661,0,0,0.708661,0,0)">
		<g class="st1">
			<path d="M626.9,351.2c0,2.4-1.8,4.4-7.5,4.4c-5.2,0-7.2-2.1-7.2-4.4c0-2.4,2.9-4.3,7.5-4.3C623,346.9,626.9,348.7,626.9,351.2z
				 M615.9,349.9c0,1.1,0.5,2.3,1.2,3.1c0.2,0.3,0.5,0.5,0.7,0.8c0.5,0.4,1.1,0.7,1.6,0.9c0.3,0.1,0.6,0.1,0.9,0.1
				c0.4,0,0.7,0,1.1-0.1c0.9-0.2,1.4-0.8,1.5-1.7c0-0.2,0.1-0.4,0.1-0.6c0-2.1-1.9-4.7-4.3-4.7c-1.1,0-2.4,0.2-2.8,1.4
				C616,349.3,615.9,349.6,615.9,349.9z"/>
		</g>
	</g>
	<g transform="matrix(0.708661,0,0,0.708661,0,0)">
		<line vector-effect="none" class="st0" x1="690.7" y1="355.2" x2="713.5" y2="355.2"/>
	</g>
	<g transform="matrix(0.708661,0,0,0.708661,0,0)">
		<g class="st1">
			<path d="M709.4,351.2c0,2.4-1.8,4.4-7.5,4.4c-5.2,0-7.2-2.1-7.2-4.4c0-2.4,2.9-4.3,7.5-4.3C705.5,346.9,709.4,348.7,709.4,351.2z
				 M698.5,349.9c0,1.1,0.5,2.3,1.2,3.1c0.2,0.3,0.5,0.5,0.7,0.8c0.5,0.4,1.1,0.7,1.6,0.9c0.3,0.1,0.6,0.1,0.9,0.1
				c0.4,0,0.7,0,1.1-0.1c0.9-0.2,1.4-0.8,1.5-1.7c0-0.2,0.1-0.4,0.1-0.6c0-2.1-1.9-4.7-4.3-4.7c-1.1,0-2.4,0.2-2.8,1.4
				C698.5,349.3,698.5,349.6,698.5,349.9z"/>
		</g>
	</g>
	<g transform="matrix(0.708661,0,0,0.708661,0,0)">
		<g class="st1">
			<path d="M682.2,338c0-0.6,0.5-0.9,1-0.9c0.3,0,0.6,0.2,0.6,0.5c0,0.6-0.2,8.3-0.2,9c0,0.2,0.1,0.4,0.4,0.5c0.1,0,0.1,0,0.2,0
				c0.3,0,0.5-0.3,0.7-0.4c0.4-0.2,0.7-0.4,1.1-0.4c0.2-0.1,0.4-0.1,0.7-0.1c1.5,0.1,2.9,1.2,2.9,3.1c0,1.5-1,3.4-3.8,5.4
				c-0.8,0.5-1.6,1.4-2.5,2c0,0-0.1,0.1-0.2,0.1c-0.1,0-0.2,0-0.3-0.2C682.3,356.3,682.2,338,682.2,338z M684.1,354.3
				c0.1,0,0.2,0,0.3-0.1c1-0.6,1.9-1.6,2.3-2.4c0.4-0.7,0.5-1.3,0.5-1.9c0-0.6-0.2-1.2-0.5-1.5c-0.2-0.2-0.5-0.4-0.8-0.4
				c-0.3,0-0.5,0.1-0.8,0.2c-0.4,0.3-1.3,1-1.4,1.3c0,0.1-0.1,0.5-0.1,1c0,1.3,0.1,3.2,0.1,3.2C683.7,353.9,683.8,354.3,684.1,354.3
				z"/>
		</g>
	</g>
	<g transform="matrix(0.708661,0,0,0.708661,0,0)">
		<line vector-effect="none" class="st0" x1="42" y1="461.2" x2="64.8" y2="461.2"/>
	</g>
	<g transform="matrix(0.708661,0,0,0.708661,0,0)">
		<g class="st1">
			<path d="M60.7,461.2c0,2.4-1.8,4.4-7.5,4.4c-5.2,0-7.2-2.1-7.2-4.4c0-2.4,2.9-4.3,7.5-4.3C56.8,456.9,60.7,458.8,60.7,461.2z
				 M49.8,459.9c0,1.1,0.5,2.3,1.2,3.1c0.2,0.3,0.5,0.5,0.7,0.8c0.5,0.4,1.1,0.7,1.6,0.9c0.3,0.1,0.6,0.1,0.9,0.1
				c0.4,0,0.7,0,1.1-0.1c0.9-0.2,1.4-0.8,1.5-1.7c0-0.2,0.1-0.4,0.1-0.6c0-2.1-1.9-4.7-4.3-4.7c-1.1,0-2.4,0.2-2.8,1.4
				C49.8,459.4,49.8,459.7,49.8,459.9z"/>
		</g>
	</g>
	<g transform="matrix(0.708661,0,0,0.708661,0,0)">
		<g class="st1">
			<path d="M141.7,465.2c0,2.4-1.8,4.4-7.5,4.4c-5.2,0-7.2-2.1-7.2-4.4c0-2.4,2.9-4.3,7.5-4.3C137.8,460.9,141.7,462.8,141.7,465.2z
				 M130.8,463.9c0,1.1,0.5,2.3,1.2,3.1c0.2,0.3,0.5,0.5,0.7,0.8c0.5,0.4,1.1,0.7,1.6,0.9c0.3,0.1,0.6,0.1,0.9,0.1
				c0.4,0,0.7,0,1.1-0.1c0.9-0.2,1.4-0.8,1.5-1.7c0-0.2,0.1-0.4,0.1-0.6c0-2.1-1.9-4.7-4.3-4.7c-1.1,0-2.4,0.2-2.8,1.4
				C130.8,463.4,130.8,463.7,130.8,463.9z"/>
		</g>
	</g>
	<g transform="matrix(0.708661,0,0,0.708661,0,0)">
		<g class="st1">
			<path d="M222.5,465.2c0,2.4-1.8,4.4-7.5,4.4c-5.2,0-7.2-2.1-7.2-4.4c0-2.4,2.9-4.3,7.5-4.3C218.6,460.9,222.5,462.8,222.5,465.2z
				 M211.6,463.9c0,1.1,0.5,2.3,1.2,3.1c0.2,0.3,0.5,0.5,0.7,0.8c0.5,0.4,1.1,0.7,1.6,0.9c0.3,0.1,0.6,0.1,0.9,0.1
				c0.4,0,0.7,0,1.1-0.1c0.9-0.2,1.4-0.8,1.5-1.7c0-0.2,0.1-0.4,0.1-0.6c0-2.1-1.9-4.7-4.3-4.7c-1.1,0-2.4,0.2-2.8,1.4
				C211.6,463.4,211.6,463.7,211.6,463.9z"/>
		</g>
	</g>
	<g transform="matrix(0.708661,0,0,0.708661,0,0)">
		<g class="st1">
			<path d="M198.3,452.1c0-0.6,0.5-0.9,1-0.9c0.3,0,0.6,0.2,0.6,0.5c0,0.6-0.2,8.3-0.2,9c0,0.2,0.1,0.4,0.4,0.5c0.1,0,0.1,0,0.2,0
				c0.3,0,0.5-0.3,0.7-0.4c0.4-0.2,0.7-0.4,1.1-0.4c0.2-0.1,0.4-0.1,0.7-0.1c1.5,0.1,2.9,1.2,2.9,3.1c0,1.5-1,3.4-3.8,5.4
				c-0.8,0.5-1.6,1.4-2.5,2c0,0-0.1,0.1-0.2,0.1c-0.1,0-0.2,0-0.3-0.2C198.4,470.4,198.3,452.1,198.3,452.1z M200.2,468.3
				c0.1,0,0.2,0,0.3-0.1c1-0.6,1.9-1.6,2.3-2.4c0.4-0.7,0.5-1.3,0.5-1.9c0-0.6-0.2-1.2-0.5-1.5c-0.2-0.2-0.5-0.4-0.8-0.4
				c-0.3,0-0.5,0.1-0.8,0.2c-0.4,0.3-1.3,1-1.4,1.3c0,0.1-0.1,0.5-0.1,1c0,1.3,0.1,3.2,0.1,3.2C199.8,468,199.9,468.3,200.2,468.3z"
				/>
		</g>
	</g>
	<g transform="matrix(0.708661,0,0,0.708661,0,0)">
		<g class="st1">
			<path d="M303.5,469.2c0,2.4-1.8,4.4-7.5,4.4c-5.2,0-7.2-2.1-7.2-4.4c0-2.4,2.9-4.3,7.5-4.3C299.6,464.9,303.5,466.8,303.5,469.2z
				 M292.6,468c0,1.1,0.5,2.3,1.2,3.1c0.2,0.3,0.5,0.5,0.7,0.8c0.5,0.4,1.1,0.7,1.6,0.9c0.3,0.1,0.6,0.1,0.9,0.1
				c0.4,0,0.7,0,1.1-0.1c0.9-0.2,1.4-0.8,1.5-1.7c0-0.2,0.1-0.4,0.1-0.6c0-2.1-1.9-4.7-4.3-4.7c-1.1,0-2.4,0.2-2.8,1.4
				C292.6,467.4,292.6,467.7,292.6,468z"/>
		</g>
	</g>
	<g transform="matrix(0.708661,0,0,0.708661,0,0)">
		<g class="st1">
			<path d="M384.3,469.2c0,2.4-1.8,4.4-7.5,4.4c-5.2,0-7.2-2.1-7.2-4.4c0-2.4,2.9-4.3,7.5-4.3C380.4,464.9,384.3,466.8,384.3,469.2z
				 M373.4,468c0,1.1,0.5,2.3,1.2,3.1c0.2,0.3,0.5,0.5,0.7,0.8c0.5,0.4,1.1,0.7,1.6,0.9c0.3,0.1,0.6,0.1,0.9,0.1
				c0.4,0,0.7,0,1.1-0.1c0.9-0.2,1.4-0.8,1.5-1.7c0-0.2,0.1-0.4,0.1-0.6c0-2.1-1.9-4.7-4.3-4.7c-1.1,0-2.4,0.2-2.8,1.4
				C373.4,467.4,373.4,467.7,373.4,468z"/>
		</g>
	</g>
	<g transform="matrix(0.708661,0,0,0.708661,0,0)">
		<g class="st1">
			<path d="M360.1,456.1c0-0.6,0.5-0.9,1-0.9c0.3,0,0.6,0.2,0.6,0.5c0,0.6-0.2,8.3-0.2,9c0,0.2,0.1,0.4,0.4,0.5c0.1,0,0.1,0,0.2,0
				c0.3,0,0.5-0.3,0.7-0.4c0.4-0.2,0.7-0.4,1.1-0.4c0.2-0.1,0.4-0.1,0.7-0.1c1.5,0.1,2.9,1.2,2.9,3.1c0,1.5-1,3.4-3.8,5.4
				c-0.8,0.5-1.6,1.4-2.5,2c0,0-0.1,0.1-0.2,0.1c-0.1,0-0.2,0-0.3-0.2C360.2,474.4,360.1,456.1,360.1,456.1z M362,472.3
				c0.1,0,0.2,0,0.3-0.1c1-0.6,1.9-1.6,2.3-2.4c0.4-0.7,0.5-1.3,0.5-1.9c0-0.6-0.2-1.2-0.5-1.5c-0.2-0.2-0.5-0.4-0.8-0.4
				c-0.3,0-0.5,0.1-0.8,0.2c-0.4,0.3-1.3,1-1.4,1.3c0,0.1-0.1,0.5-0.1,1c0,1.3,0.1,3.2,0.1,3.2C361.6,472,361.7,472.3,362,472.3z"/>
		</g>
	</g>
	<g transform="matrix(0.708661,0,0,0.708661,0,0)">
		<g class="st1">
			<path d="M465.3,473.2c0,2.4-1.8,4.4-7.5,4.4c-5.2,0-7.2-2.1-7.2-4.4c0-2.4,2.9-4.3,7.5-4.3C461.4,468.9,465.3,470.8,465.3,473.2z
				 M454.4,472c0,1.1,0.5,2.3,1.2,3.1c0.2,0.3,0.5,0.5,0.7,0.8c0.5,0.4,1.1,0.7,1.6,0.9c0.3,0.1,0.6,0.1,0.9,0.1
				c0.4,0,0.7,0,1.1-0.1c0.9-0.2,1.4-0.8,1.5-1.7c0-0.2,0.1-0.4,0.1-0.6c0-2.1-1.9-4.7-4.3-4.7c-1.1,0-2.4,0.2-2.8,1.4
				C454.4,471.4,454.4,471.7,454.4,472z"/>
		</g>
	</g>
	<g transform="matrix(0.708661,0,0,0.708661,0,0)">
		<g class="st1">
			<path d="M546.1,473.2c0,2.4-1.8,4.4-7.5,4.4c-5.2,0-7.2-2.1-7.2-4.4c0-2.4,2.9-4.3,7.5-4.3C542.2,468.9,546.1,470.8,546.1,473.2z
				 M535.2,472c0,1.1,0.5,2.3,1.2,3.1c0.2,0.3,0.5,0.5,0.7,0.8c0.5,0.4,1.1,0.7,1.6,0.9c0.3,0.1,0.6,0.1,0.9,0.1
				c0.4,0,0.7,0,1.1-0.1c0.9-0.2,1.4-0.8,1.5-1.7c0-0.2,0.1-0.4,0.1-0.6c0-2.1-1.9-4.7-4.3-4.7c-1.1,0-2.4,0.2-2.8,1.4
				C535.2,471.4,535.2,471.7,535.2,472z"/>
		</g>
	</g>
	<g transform="matrix(0.708661,0,0,0.708661,0,0)">
		<g class="st1">
			<path d="M521.9,460.1c0-0.6,0.5-0.9,1-0.9c0.3,0,0.6,0.2,0.6,0.5c0,0.6-0.2,8.3-0.2,9c0,0.2,0.1,0.4,0.4,0.5c0.1,0,0.1,0,0.2,0
				c0.3,0,0.5-0.3,0.7-0.4c0.4-0.2,0.7-0.4,1.1-0.4c0.2-0.1,0.4-0.1,0.7-0.1c1.5,0.1,2.9,1.2,2.9,3.1c0,1.5-1,3.4-3.8,5.4
				c-0.8,0.5-1.6,1.4-2.5,2c0,0-0.1,0.1-0.2,0.1c-0.1,0-0.2,0-0.3-0.2C522,478.4,521.9,460.1,521.9,460.1z M523.8,476.3
				c0.1,0,0.2,0,0.3-0.1c1-0.6,1.9-1.6,2.3-2.4c0.4-0.7,0.5-1.3,0.5-1.9c0-0.6-0.2-1.2-0.5-1.5c-0.2-0.2-0.5-0.4-0.8-0.4
				c-0.3,0-0.5,0.1-0.8,0.2c-0.4,0.3-1.3,1-1.4,1.3c0,0.1-0.1,0.5-0.1,1c0,1.3,0.1,3.2,0.1,3.2C523.4,476,523.5,476.3,523.8,476.3z"
				/>
		</g>
	</g>
	<g transform="matrix(0.708661,0,0,0.708661,0,0)">
		<g class="st1">
			<path d="M627.1,477.2c0,2.4-1.8,4.4-7.5,4.4c-5.2,0-7.2-2.1-7.2-4.4c0-2.4,2.9-4.3,7.5-4.3C623.2,472.9,627.1,474.8,627.1,477.2z
				 M616.2,476c0,1.1,0.5,2.3,1.2,3.1c0.2,0.3,0.5,0.5,0.7,0.8c0.5,0.4,1.1,0.7,1.6,0.9c0.3,0.1,0.6,0.1,0.9,0.1
				c0.4,0,0.7,0,1.1-0.1c0.9-0.2,1.4-0.8,1.5-1.7c0-0.2,0.1-0.4,0.1-0.6c0-2.1-1.9-4.7-4.3-4.7c-1.1,0-2.4,0.2-2.8,1.4
				C616.2,475.4,616.2,475.7,616.2,476z"/>
		</g>
	</g>
	<g transform="matrix(0.708661,0,0,0.708661,0,0)">
		<g class="st1">
			<path d="M707.9,481.2c0,2.4-1.8,4.4-7.5,4.4c-5.2,0-7.2-2.1-7.2-4.4c0-2.4,2.9-4.3,7.5-4.3C704,476.9,707.9,478.8,707.9,481.2z
				 M697,480c0,1.1,0.5,2.3,1.2,3.1c0.2,0.3,0.5,0.5,0.7,0.8c0.5,0.4,1.1,0.7,1.6,0.9c0.3,0.1,0.6,0.1,0.9,0.1c0.4,0,0.7,0,1.1-0.1
				c0.9-0.2,1.4-0.8,1.5-1.7c0-0.2,0.1-0.4,0.1-0.6c0-2.1-1.9-4.7-4.3-4.7c-1.1,0-2.4,0.2-2.8,1.4C697,479.4,697,479.7,697,480z"/>
		</g>
	</g>
	<g transform="matrix(0.708661,0,0,0.708661,0,0)">
		<g class="st1">
			<path d="M60.7,587.3c0,2.4-1.8,4.4-7.5,4.4c-5.2,0-7.2-2.1-7.2-4.4c0-2.4,2.9-4.3,7.5-4.3C56.8,582.9,60.7,584.8,60.7,587.3z
				 M49.8,586c0,1.1,0.5,2.3,1.2,3.1c0.2,0.3,0.5,0.5,0.7,0.8c0.5,0.4,1.1,0.7,1.6,0.9c0.3,0.1,0.6,0.1,0.9,0.1c0.4,0,0.7,0,1.1-0.1
				c0.9-0.2,1.4-0.8,1.5-1.7c0-0.2,0.1-0.4,0.1-0.6c0-2.1-1.9-4.7-4.3-4.7c-1.1,0-2.4,0.2-2.8,1.4C49.8,585.4,49.8,585.7,49.8,586z"
				/>
		</g>
	</g>
	<g transform="matrix(0.708661,0,0,0.708661,0,0)">
		<g class="st1">
			<path d="M36.5,574.1c0-0.6,0.5-0.9,1-0.9c0.3,0,0.6,0.2,0.6,0.5c0,0.6-0.2,8.3-0.2,9c0,0.2,0.1,0.4,0.4,0.5c0.1,0,0.1,0,0.2,0
				c0.3,0,0.5-0.3,0.7-0.4c0.4-0.2,0.7-0.4,1.1-0.4c0.2-0.1,0.4-0.1,0.7-0.1c1.5,0.1,2.9,1.2,2.9,3.1c0,1.5-1,3.4-3.8,5.4
				c-0.8,0.5-1.6,1.4-2.5,2c0,0-0.1,0.1-0.2,0.1c-0.1,0-0.2,0-0.3-0.2C36.6,592.4,36.5,574.1,36.5,574.1z M38.4,590.3
				c0.1,0,0.2,0,0.3-0.1c1-0.6,1.9-1.6,2.3-2.4c0.4-0.7,0.5-1.3,0.5-1.9c0-0.6-0.2-1.2-0.5-1.5c-0.2-0.2-0.5-0.4-0.8-0.4
				c-0.3,0-0.5,0.1-0.8,0.2c-0.4,0.3-1.3,1-1.4,1.3c0,0.1-0.1,0.5-0.1,1c0,1.3,0.1,3.2,0.1,3.2C38,590,38.1,590.3,38.4,590.3z"/>
		</g>
	</g>
	<g transform="matrix(0.708661,0,0,0.708661,0,0)">
		<g class="st1">
			<path d="M182,591.3c0,2.4-1.8,4.4-7.5,4.4c-5.2,0-7.2-2.1-7.2-4.4c0-2.4,2.9-4.3,7.5-4.3C178.1,586.9,182,588.8,182,591.3z
				 M171,590c0,1.1,0.5,2.3,1.2,3.1c0.2,0.3,0.5,0.5,0.7,0.8c0.5,0.4,1.1,0.7,1.6,0.9c0.3,0.1,0.6,0.1,0.9,0.1c0.4,0,0.7,0,1.1-0.1
				c0.9-0.2,1.4-0.8,1.5-1.7c0-0.2,0.1-0.4,0.1-0.6c0-2.1-1.9-4.7-4.3-4.7c-1.1,0-2.4,0.2-2.8,1.4C171.1,589.4,171,589.7,171,590z"
				/>
		</g>
	</g>
	<g transform="matrix(0.708661,0,0,0.708661,0,0)">
		<g class="st1">
			<path d="M303.5,591.3c0,2.4-1.8,4.4-7.5,4.4c-5.2,0-7.2-2.1-7.2-4.4c0-2.4,2.9-4.3,7.5-4.3C299.6,586.9,303.5,588.8,303.5,591.3z
				 M292.6,590c0,1.1,0.5,2.3,1.2,3.1c0.2,0.3,0.5,0.5,0.7,0.8c0.5,0.4,1.1,0.7,1.6,0.9c0.3,0.1,0.6,0.1,0.9,0.1
				c0.4,0,0.7,0,1.1-0.1c0.9-0.2,1.4-0.8,1.5-1.7c0-0.2,0.1-0.4,0.1-0.6c0-2.1-1.9-4.7-4.3-4.7c-1.1,0-2.4,0.2-2.8,1.4
				C292.6,589.4,292.6,589.7,292.6,590z"/>
		</g>
	</g>
	<g transform="matrix(0.708661,0,0,0.708661,0,0)">
		<g class="st1">
			<path d="M279.3,578.1c0-0.6,0.5-0.9,1-0.9c0.3,0,0.6,0.2,0.6,0.5c0,0.6-0.2,8.3-0.2,9c0,0.2,0.1,0.4,0.4,0.5c0.1,0,0.1,0,0.2,0
				c0.3,0,0.5-0.3,0.7-0.4c0.4-0.2,0.7-0.4,1.1-0.4c0.2-0.1,0.4-0.1,0.7-0.1c1.5,0.1,2.9,1.2,2.9,3.1c0,1.5-1,3.4-3.8,5.4
				c-0.8,0.5-1.6,1.4-2.5,2c0,0-0.1,0.1-0.2,0.1c-0.1,0-0.2,0-0.3-0.2C279.5,596.4,279.3,578.1,279.3,578.1z M281.2,594.3
				c0.1,0,0.2,0,0.3-0.1c1-0.6,1.9-1.6,2.3-2.4c0.4-0.7,0.5-1.3,0.5-1.9c0-0.6-0.2-1.2-0.5-1.5c-0.2-0.2-0.5-0.4-0.8-0.4
				c-0.3,0-0.5,0.1-0.8,0.2c-0.4,0.3-1.3,1-1.4,1.3c0,0.1-0.1,0.5-0.1,1c0,1.3,0.1,3.2,0.1,3.2C280.8,594,280.9,594.3,281.2,594.3z"
				/>
		</g>
	</g>
	<g transform="matrix(0.708661,0,0,0.708661,0,0)">
		<g class="st1">
			<path d="M424.8,595.3c0,2.4-1.8,4.4-7.5,4.4c-5.2,0-7.2-2.1-7.2-4.4c0-2.4,2.9-4.3,7.5-4.3C420.9,590.9,424.8,592.8,424.8,595.3z
				 M413.9,594c0,1.1,0.5,2.3,1.2,3.1c0.2,0.3,0.5,0.5,0.7,0.8c0.5,0.4,1.1,0.7,1.6,0.9c0.3,0.1,0.6,0.1,0.9,0.1
				c0.4,0,0.7,0,1.1-0.1c0.9-0.2,1.4-0.8,1.5-1.7c0-0.2,0.1-0.4,0.1-0.6c0-2.1-1.9-4.7-4.3-4.7c-1.1,0-2.4,0.2-2.8,1.4
				C413.9,593.4,413.9,593.7,413.9,594z"/>
		</g>
	</g>
	<g transform="matrix(0.708661,0,0,0.708661,0,0)">
		<g class="st1">
			<path d="M546.1,599.3c0,2.4-1.8,4.4-7.5,4.4c-5.2,0-7.2-2.1-7.2-4.4c0-2.4,2.9-4.3,7.5-4.3C542.2,594.9,546.1,596.8,546.1,599.3z
				 M535.2,598c0,1.1,0.5,2.3,1.2,3.1c0.2,0.3,0.5,0.5,0.7,0.8c0.5,0.4,1.1,0.7,1.6,0.9c0.3,0.1,0.6,0.1,0.9,0.1
				c0.4,0,0.7,0,1.1-0.1c0.9-0.2,1.4-0.8,1.5-1.7c0-0.2,0.1-0.4,0.1-0.6c0-2.1-1.9-4.7-4.3-4.7c-1.1,0-2.4,0.2-2.8,1.4
				C535.2,597.4,535.2,597.7,535.2,598z"/>
		</g>
	</g>
	<g transform="matrix(0.708661,0,0,0.708661,0,0)">
		<g class="st1">
			<path d="M667.7,599.3c0,2.4-1.8,4.4-7.5,4.4c-5.2,0-7.2-2.1-7.2-4.4c0-2.4,2.9-4.3,7.5-4.3C663.7,594.9,667.7,596.8,667.7,599.3z
				 M656.7,598c0,1.1,0.5,2.3,1.2,3.1c0.2,0.3,0.5,0.5,0.7,0.8c0.5,0.4,1.1,0.7,1.6,0.9c0.3,0.1,0.6,0.1,0.9,0.1
				c0.4,0,0.7,0,1.1-0.1c0.9-0.2,1.4-0.8,1.5-1.7c0-0.2,0.1-0.4,0.1-0.6c0-2.1-1.9-4.7-4.3-4.7c-1.1,0-2.4,0.2-2.8,1.4
				C656.7,597.4,656.7,597.7,656.7,598z"/>
		</g>
	</g>
	<g transform="matrix(0.708661,0,0,0.708661,0,0)">
		<g class="st1">
			<path d="M643.5,586.1c0-0.6,0.5-0.9,1-0.9c0.3,0,0.6,0.2,0.6,0.5c0,0.6-0.2,8.3-0.2,9c0,0.2,0.1,0.4,0.4,0.5c0.1,0,0.1,0,0.2,0
				c0.3,0,0.5-0.3,0.7-0.4c0.4-0.2,0.7-0.4,1.1-0.4c0.2-0.1,0.4-0.1,0.7-0.1c1.5,0.1,2.9,1.2,2.9,3.1c0,1.5-1,3.4-3.8,5.4
				c-0.8,0.5-1.6,1.4-2.5,2c0,0-0.1,0.1-0.2,0.1c-0.1,0-0.2,0-0.3-0.2C643.6,604.4,643.5,586.1,643.5,586.1z M645.3,602.3
				c0.1,0,0.2,0,0.3-0.1c1-0.6,1.9-1.6,2.3-2.4c0.4-0.7,0.5-1.3,0.5-1.9c0-0.6-0.2-1.2-0.5-1.5c-0.2-0.2-0.5-0.4-0.8-0.4
				c-0.3,0-0.5,0.1-0.8,0.2c-0.4,0.3-1.3,1-1.4,1.3c0,0.1-0.1,0.5-0.1,1c0,1.3,0.1,3.2,0.1,3.2C645,602,645,602.3,645.3,602.3z"/>
		</g>
	</g>
	<g transform="matrix(0.708661,0,0,0.708661,0,0)">
		<g class="st1">
			<path d="M60.7,709.3c0,2.4-1.8,4.4-7.5,4.4c-5.2,0-7.2-2.1-7.2-4.4c0-2.4,2.9-4.3,7.5-4.3C56.8,705,60.7,706.8,60.7,709.3z
				 M49.8,708c0,1.1,0.5,2.3,1.2,3.1c0.2,0.3,0.5,0.5,0.7,0.8c0.5,0.4,1.1,0.7,1.6,0.9c0.3,0.1,0.6,0.1,0.9,0.1c0.4,0,0.7,0,1.1-0.1
				c0.9-0.2,1.4-0.8,1.5-1.7c0-0.2,0.1-0.4,0.1-0.6c0-2.1-1.9-4.7-4.3-4.7c-1.1,0-2.4,0.2-2.8,1.4C49.8,707.5,49.8,707.7,49.8,708z"
				/>
		</g>
	</g>
	<g transform="matrix(0.708661,0,0,0.708661,0,0)">
		<g class="st1">
			<path d="M180,709.3c0,2.4-1.8,4.4-7.5,4.4c-5.2,0-7.2-2.1-7.2-4.4c0-2.4,2.9-4.3,7.5-4.3C176.1,705,180,706.8,180,709.3z
				 M169,708c0,1.1,0.5,2.3,1.2,3.1c0.2,0.3,0.5,0.5,0.7,0.8c0.5,0.4,1.1,0.7,1.6,0.9c0.3,0.1,0.6,0.1,0.9,0.1c0.4,0,0.7,0,1.1-0.1
				c0.9-0.2,1.4-0.8,1.5-1.7c0-0.2,0.1-0.4,0.1-0.6c0-2.1-1.9-4.7-4.3-4.7c-1.1,0-2.4,0.2-2.8,1.4C169.1,707.5,169,707.7,169,708z"
				/>
		</g>
	</g>
	<g transform="matrix(0.708661,0,0,0.708661,0,0)">
		<g class="st1">
			<path d="M155.8,696.1c0-0.6,0.5-0.9,1-0.9c0.3,0,0.6,0.2,0.6,0.5c0,0.6-0.2,8.3-0.2,9c0,0.2,0.1,0.4,0.4,0.5c0.1,0,0.1,0,0.2,0
				c0.3,0,0.5-0.3,0.7-0.4c0.4-0.2,0.7-0.4,1.1-0.4c0.2-0.1,0.4-0.1,0.7-0.1c1.5,0.1,2.9,1.2,2.9,3.1c0,1.5-1,3.4-3.8,5.4
				c-0.8,0.5-1.6,1.4-2.5,2c0,0-0.1,0.1-0.2,0.1c-0.1,0-0.2,0-0.3-0.2C155.9,714.4,155.8,696.1,155.8,696.1z M157.7,712.4
				c0.1,0,0.2,0,0.3-0.1c1-0.6,1.9-1.6,2.3-2.4c0.4-0.7,0.5-1.3,0.5-1.9c0-0.6-0.2-1.2-0.5-1.5c-0.2-0.2-0.5-0.4-0.8-0.4
				c-0.3,0-0.5,0.1-0.8,0.2c-0.4,0.3-1.3,1-1.4,1.3c0,0.1-0.1,0.5-0.1,1c0,1.3,0.1,3.2,0.1,3.2C157.3,712.1,157.4,712.4,157.7,712.4
				z"/>
		</g>
	</g>
	<g transform="matrix(0.708661,0,0,0.708661,0,0)">
		<g class="st1">
			<path d="M299.3,713.3c0,2.4-1.8,4.4-7.5,4.4c-5.2,0-7.2-2.1-7.2-4.4c0-2.4,2.9-4.3,7.5-4.3C295.3,709,299.3,710.8,299.3,713.3z
				 M288.3,712c0,1.1,0.5,2.3,1.2,3.1c0.2,0.3,0.5,0.5,0.7,0.8c0.5,0.4,1.1,0.7,1.6,0.9c0.3,0.1,0.6,0.1,0.9,0.1
				c0.4,0,0.7,0,1.1-0.1c0.9-0.2,1.4-0.8,1.5-1.7c0-0.2,0.1-0.4,0.1-0.6c0-2.1-1.9-4.7-4.3-4.7c-1.1,0-2.4,0.2-2.8,1.4
				C288.4,711.5,288.3,711.7,288.3,712z"/>
		</g>
	</g>
	<g transform="matrix(0.708661,0,0,0.708661,0,0)">
		<g class="st1">
			<path d="M418.6,713.3c0,2.4-1.8,4.4-7.5,4.4c-5.2,0-7.2-2.1-7.2-4.4c0-2.4,2.9-4.3,7.5-4.3C414.6,709,418.6,710.8,418.6,713.3z
				 M407.6,712c0,1.1,0.5,2.3,1.2,3.1c0.2,0.3,0.5,0.5,0.7,0.8c0.5,0.4,1.1,0.7,1.6,0.9c0.3,0.1,0.6,0.1,0.9,0.1
				c0.4,0,0.7,0,1.1-0.1c0.9-0.2,1.4-0.8,1.5-1.7c0-0.2,0.1-0.4,0.1-0.6c0-2.1-1.9-4.7-4.3-4.7c-1.1,0-2.4,0.2-2.8,1.4
				C407.7,711.5,407.6,711.7,407.6,712z"/>
		</g>
	</g>
	<g transform="matrix(0.708661,0,0,0.708661,0,0)">
		<g class="st1">
			<path d="M394.4,700.1c0-0.6,0.5-0.9,1-0.9c0.3,0,0.6,0.2,0.6,0.5c0,0.6-0.2,8.3-0.2,9c0,0.2,0.1,0.4,0.4,0.5c0.1,0,0.1,0,0.2,0
				c0.3,0,0.5-0.3,0.7-0.4c0.4-0.2,0.7-0.4,1.1-0.4c0.2-0.1,0.4-0.1,0.7-0.1c1.5,0.1,2.9,1.2,2.9,3.1c0,1.5-1,3.4-3.8,5.4
				c-0.8,0.5-1.6,1.4-2.5,2c0,0-0.1,0.1-0.2,0.1s-0.2,0-0.3-0.2C394.5,718.4,394.4,700.1,394.4,700.1z M396.2,716.4
				c0.1,0,0.2,0,0.3-0.1c1-0.6,1.9-1.6,2.3-2.4c0.4-0.7,0.5-1.3,0.5-1.9c0-0.6-0.2-1.2-0.5-1.5c-0.2-0.2-0.5-0.4-0.8-0.4
				c-0.3,0-0.5,0.1-0.8,0.2c-0.4,0.3-1.3,1-1.4,1.3c0,0.1-0.1,0.5-0.1,1c0,1.3,0.1,3.2,0.1,3.2C395.9,716.1,395.9,716.4,396.2,716.4
				z"/>
		</g>
	</g>
	<g transform="matrix(0.708661,0,0,0.708661,0,0)">
		<g class="st1">
			<path d="M537.9,717.3c0,2.4-1.8,4.4-7.5,4.4c-5.2,0-7.2-2.1-7.2-4.4c0-2.4,2.9-4.3,7.5-4.3C533.9,713,537.9,714.8,537.9,717.3z
				 M526.9,716c0,1.1,0.5,2.3,1.2,3.1c0.2,0.3,0.5,0.5,0.7,0.8c0.5,0.4,1.1,0.7,1.6,0.9c0.3,0.1,0.6,0.1,0.9,0.1
				c0.4,0,0.7,0,1.1-0.1c0.9-0.2,1.4-0.8,1.5-1.7c0-0.2,0.1-0.4,0.1-0.6c0-2.1-1.9-4.7-4.3-4.7c-1.1,0-2.4,0.2-2.8,1.4
				C526.9,715.5,526.9,715.7,526.9,716z"/>
		</g>
	</g>
	<g transform="matrix(0.708661,0,0,0.708661,0,0)">
		<line vector-effect="none" class="st0" x1="638.5" y1="721.3" x2="661.2" y2="721.3"/>
	</g>
	<g transform="matrix(0.708661,0,0,0.708661,0,0)">
		<g class="st1">
			<path d="M657.1,721.3c0,2.4-1.8,4.4-7.5,4.4c-5.2,0-7.2-2.1-7.2-4.4c0-2.4,2.9-4.3,7.5-4.3C653.2,717,657.1,718.8,657.1,721.3z
				 M646.2,720c0,1.1,0.5,2.3,1.2,3.1c0.2,0.3,0.5,0.5,0.7,0.8c0.5,0.4,1.1,0.7,1.6,0.9c0.3,0.1,0.6,0.1,0.9,0.1
				c0.4,0,0.7,0,1.1-0.1c0.9-0.2,1.4-0.8,1.5-1.7c0-0.2,0.1-0.4,0.1-0.6c0-2.1-1.9-4.7-4.3-4.7c-1.1,0-2.4,0.2-2.8,1.4
				C646.2,719.5,646.2,719.7,646.2,720z"/>
		</g>
	</g>
</g>
</svg>
