<?xml version="1.0" encoding="utf-8"?>
<!-- Generator: Adobe Illustrator 26.4.1, SVG Export Plug-In . SVG Version: 6.00 Build 0)  -->
<svg version="1.1" id="Layer_1" xmlns="http://www.w3.org/2000/svg" xmlns:xlink="http://www.w3.org/1999/xlink" x="0px" y="0px"
	 viewBox="0 0 540.3 364.2" style="enable-background:new 0 0 540.3 364.2;" xml:space="preserve">
<style type="text/css">
	.st0{fill:none;stroke:#000000;stroke-width:0.8861;stroke-linejoin:bevel;stroke-miterlimit:10;}
	.st1{enable-background:new    ;}
	.st2{fill:none;stroke:#000000;stroke-width:2.8355;stroke-linejoin:bevel;stroke-miterlimit:10;}
	.st3{fill:none;stroke:#000000;stroke-width:0.7089;stroke-linejoin:bevel;stroke-miterlimit:10;}
</style>
<g>
	<g transform="matrix(0.708661,0,0,0.708661,0,0)">
		<line vector-effect="none" class="st0" x1="167.8" y1="45.1" x2="167.8" y2="77.1"/>
	</g>
	<g transform="matrix(0.708661,0,0,0.708661,0,0)">
		<line vector-effect="none" class="st0" x1="286.8" y1="45.1" x2="286.8" y2="77.1"/>
	</g>
	<g transform="matrix(0.708661,0,0,0.708661,0,0)">
		<line vector-effect="none" class="st0" x1="406.1" y1="45.1" x2="406.1" y2="77.1"/>
	</g>
	<g transform="matrix(0.708661,0,0,0.708661,0,0)">
		<line vector-effect="none" class="st0" x1="525.2" y1="45.1" x2="525.2" y2="77.1"/>
	</g>
	<g transform="matrix(0.708661,0,0,0.708661,0,0)">
		<line vector-effect="none" class="st0" x1="643.5" y1="45.1" x2="643.5" y2="77.1"/>
	</g>
	<g transform="matrix(0.708661,0,0,0.708661,0,0)">
		<line vector-effect="none" class="st0" x1="761.7" y1="45.1" x2="761.7" y2="77.1"/>
	</g>
	<g transform="matrix(0.708661,0,0,0.708661,0,0)">
	</g>
	<g transform="matrix(0.708661,0,0,0.708661,251.575,512.21)">
	</g>
	<g transform="matrix(0.708661,0,0,0.708661,251.575,512.21)">
		<g class="st1">
			<path d="M-311-722.8h0.6v17.5c0,1.9-2.5,3.8-4.5,3.8c-1.2,0-2.2-0.7-2.2-1.9c0-2,2-3.8,4.5-3.8c0.7,0,1.2,0.2,1.6,0.5L-311-722.8
				z"/>
		</g>
		<g class="st1">
			<path d="M-303.3-708.5v-1.8h10.5v1.8H-303.3z M-292.7-705.9v1.9h-10.5v-1.9H-292.7z"/>
			<path d="M-279-716.7h0.7v13.2c0,0.4,0.3,0.8,0.7,0.8h2.1v0.9h-8.1v-0.9h1.7c0.5,0,0.8-0.5,0.8-0.9v-9.9c0-0.4-0.3-0.8-0.7-0.8
				h-2.4v-1C-282.3-715.4-280.7-715.9-279-716.7z"/>
			<path d="M-273.4-701.9v-0.9c0.2-0.3,0.7-1,4.5-5.6c1.1-1.3,1.8-2.8,1.8-4.4c0-1.6-0.5-2.8-2.2-2.8c-0.9,0-2.4,0.5-2.4,1.7
				c0,0.8,2.1,0.7,2.1,2.1c0,0.9-0.6,1.6-1.6,1.6c-1.4,0-1.7-1.3-1.7-2.4c0-2.6,2-4.1,4.5-4.1c2.4,0,4.4,1.4,4.4,3.9
				c0,1.7-0.9,3-2.2,4.1c-1.1,0.9-3.8,2.9-4.9,4.2l5.1,0c0.8,0,1.2-2.4,1.2-2.4h0.9l-0.3,5H-273.4z"/>
			<path d="M-262.6-709c0-3.2,1.3-7.5,5.6-7.5c4.1,0,5.4,4.6,5.4,7.5c0,3.1-1.3,7.5-5.5,7.5C-261.3-701.5-262.6-706.1-262.6-709z
				 M-257.2-702.6c2.1,0,2.1-3.8,2.1-6.5c0-3.2,0-6.5-2-6.5c-2.1,0-2.1,3.4-2.1,6.9C-259.2-706.4-259.2-702.6-257.2-702.6z"/>
		</g>
	</g>
	<g transform="matrix(0.708661,0,0,0.708661,251.575,512.21)">
	</g>
	<g transform="matrix(0.708661,0,0,0.708661,0,0)">
	</g>
	<g transform="matrix(0.708661,0,0,0.708661,0,0)">
		<line vector-effect="none" class="st0" x1="154.5" y1="151.1" x2="154.5" y2="183.1"/>
	</g>
	<g transform="matrix(0.708661,0,0,0.708661,0,0)">
		<line vector-effect="none" class="st0" x1="276.3" y1="151.1" x2="276.3" y2="183.1"/>
	</g>
	<g transform="matrix(0.708661,0,0,0.708661,0,0)">
		<line vector-effect="none" class="st0" x1="397.9" y1="151.1" x2="397.9" y2="183.1"/>
	</g>
	<g transform="matrix(0.708661,0,0,0.708661,0,0)">
		<line vector-effect="none" class="st0" x1="519.7" y1="151.1" x2="519.7" y2="183.1"/>
	</g>
	<g transform="matrix(0.708661,0,0,0.708661,0,0)">
		<line vector-effect="none" class="st0" x1="640.7" y1="151.1" x2="640.7" y2="183.1"/>
	</g>
	<g transform="matrix(0.708661,0,0,0.708661,0,0)">
		<line vector-effect="none" class="st0" x1="761.7" y1="151.1" x2="761.7" y2="183.1"/>
	</g>
	<g transform="matrix(0.708661,0,0,0.708661,0,0)">
		<line vector-effect="none" class="st0" x1="153.8" y1="257.2" x2="153.8" y2="289.2"/>
	</g>
	<g transform="matrix(0.708661,0,0,0.708661,0,0)">
		<line vector-effect="none" class="st0" x1="276.8" y1="257.2" x2="276.8" y2="289.2"/>
	</g>
	<g transform="matrix(0.708661,0,0,0.708661,0,0)">
		<line vector-effect="none" class="st0" x1="398.9" y1="257.2" x2="398.9" y2="289.2"/>
	</g>
	<g transform="matrix(0.708661,0,0,0.708661,0,0)">
		<line vector-effect="none" class="st0" x1="521.2" y1="257.2" x2="521.2" y2="289.2"/>
	</g>
	<g transform="matrix(0.708661,0,0,0.708661,0,0)">
		<line vector-effect="none" class="st0" x1="641.5" y1="257.2" x2="641.5" y2="289.2"/>
	</g>
	<g transform="matrix(0.708661,0,0,0.708661,0,0)">
		<line vector-effect="none" class="st0" x1="761.7" y1="257.2" x2="761.7" y2="289.2"/>
	</g>
	<g transform="matrix(0.708661,0,0,0.708661,0,0)">
		<line vector-effect="none" class="st0" x1="154.8" y1="363.2" x2="154.8" y2="395.2"/>
	</g>
	<g transform="matrix(0.708661,0,0,0.708661,0,0)">
		<line vector-effect="none" class="st0" x1="276.3" y1="363.2" x2="276.3" y2="395.2"/>
	</g>
	<g transform="matrix(0.708661,0,0,0.708661,0,0)">
		<line vector-effect="none" class="st0" x1="397.6" y1="363.2" x2="397.6" y2="395.2"/>
	</g>
	<g transform="matrix(0.708661,0,0,0.708661,0,0)">
		<line vector-effect="none" class="st0" x1="518.9" y1="363.2" x2="518.9" y2="395.2"/>
	</g>
	<g transform="matrix(0.708661,0,0,0.708661,0,0)">
		<line vector-effect="none" class="st0" x1="640.5" y1="363.2" x2="640.5" y2="395.2"/>
	</g>
	<g transform="matrix(0.708661,0,0,0.708661,0,0)">
		<line vector-effect="none" class="st0" x1="761.7" y1="363.2" x2="761.7" y2="395.2"/>
	</g>
	<g transform="matrix(0.708661,0,0,0.708661,0,0)">
		<line vector-effect="none" class="st0" x1="176.6" y1="469.2" x2="176.6" y2="501.2"/>
	</g>
	<g transform="matrix(0.708661,0,0,0.708661,0,0)">
		<line vector-effect="none" class="st0" x1="319.9" y1="469.2" x2="319.9" y2="501.2"/>
	</g>
	<g transform="matrix(0.708661,0,0,0.708661,0,0)">
		<line vector-effect="none" class="st0" x1="462.9" y1="469.2" x2="462.9" y2="501.2"/>
	</g>
	<g transform="matrix(0.708661,0,0,0.708661,0,0)">
		<line vector-effect="none" class="st0" x1="606.2" y1="469.2" x2="606.2" y2="501.2"/>
	</g>
	<g transform="matrix(0.708661,0,0,0.708661,0,0)">
		<line vector-effect="none" class="st0" x1="754.5" y1="469.2" x2="754.5" y2="501.2"/>
	</g>
	<g transform="matrix(0.708661,0,0,0.708661,0,0)">
		<line vector-effect="none" class="st2" x1="760.2" y1="469.2" x2="760.2" y2="501.2"/>
	</g>
	<g transform="matrix(0.708661,0,0,0.708661,0,0)">
	</g>
	<g transform="matrix(0.708661,0,0,0.708661,245.906,561.806)">
	</g>
	<g transform="matrix(0.708661,0,0,0.708661,245.906,561.806)">
		<g class="st1">
			<path d="M-297-736.5c0,0.4-0.2,0.7-0.5,0.7h-1.9v1.7c0,1,0.6,1.2,1,1.2c0.3,0,0.7,0.2,0.7,0.6c0,0.5-0.3,0.6-0.6,0.6h-7.5
				c-0.5,0-0.6-0.3-0.6-0.6c0-0.3,0.2-0.6,0.7-0.6c0.6,0,1.3-0.3,1.3-1.1v-1.8h-5.8c-0.4,0-0.6-0.4-0.6-0.7c0-0.1,0-0.2,0.1-0.3
				c0,0,0-0.1,0-0.1l0.2-0.3c0.9-1.3,3.6-5.7,3.6-9.6c0-0.5,0.4-0.6,0.7-0.6c0.3,0,2.1,0.1,2.6,0.1c0.6,0,2.3-0.1,2.5-0.1
				c0.3,0,0.5,0.2,0.5,0.5c0,0.1,0,0.1,0,0.1c-0.1,0.4-5.5,7.4-8.1,9.5h4.3v-2.5c0-0.4,0.2-0.6,0.3-0.7l3.8-3.6
				c0.2-0.2,0.3-0.3,0.6-0.3c0.4,0,0.4,0.3,0.4,0.5v6.6h1.9C-297.2-737.2-297-736.9-297-736.5z"/>
		</g>
	</g>
	<g transform="matrix(0.708661,0,0,0.708661,245.906,561.806)">
		<g class="st1">
			<path d="M-297-720.4c0,0.4-0.2,0.7-0.5,0.7h-1.9v1.7c0,1,0.6,1.2,1,1.2c0.3,0,0.7,0.2,0.7,0.6c0,0.5-0.3,0.6-0.6,0.6h-7.5
				c-0.5,0-0.6-0.3-0.6-0.6c0-0.3,0.2-0.6,0.7-0.6c0.6,0,1.3-0.3,1.3-1.1v-1.8h-5.8c-0.4,0-0.6-0.4-0.6-0.7c0-0.1,0-0.2,0.1-0.3
				c0,0,0-0.1,0-0.1l0.2-0.3c0.9-1.3,3.6-5.7,3.6-9.6c0-0.5,0.4-0.6,0.7-0.6c0.3,0,2.1,0.1,2.6,0.1c0.6,0,2.3-0.1,2.5-0.1
				c0.3,0,0.5,0.2,0.5,0.5c0,0.1,0,0.1,0,0.1c-0.1,0.4-5.5,7.4-8.1,9.5h4.3v-2.5c0-0.4,0.2-0.6,0.3-0.7l3.8-3.6
				c0.2-0.2,0.3-0.3,0.6-0.3c0.4,0,0.4,0.3,0.4,0.5v6.6h1.9C-297.2-721.1-297-720.8-297-720.4z"/>
		</g>
	</g>
	<g transform="matrix(0.708661,0,0,0.708661,245.906,561.806)">
	</g>
	<g transform="matrix(0.708661,0,0,0.708661,0,0)">
	</g>
	<g transform="matrix(0.708661,0,0,0.708661,0,0)">
		<line vector-effect="none" class="st3" x1="0" y1="77.1" x2="762.2" y2="77.1"/>
	</g>
	<g transform="matrix(0.708661,0,0,0.708661,0,0)">
		<line vector-effect="none" class="st3" x1="0" y1="69.1" x2="762.2" y2="69.1"/>
	</g>
	<g transform="matrix(0.708661,0,0,0.708661,0,0)">
		<line vector-effect="none" class="st3" x1="0" y1="61.1" x2="762.2" y2="61.1"/>
	</g>
	<g transform="matrix(0.708661,0,0,0.708661,0,0)">
		<line vector-effect="none" class="st3" x1="0" y1="53.1" x2="762.2" y2="53.1"/>
	</g>
	<g transform="matrix(0.708661,0,0,0.708661,0,0)">
		<line vector-effect="none" class="st3" x1="0" y1="45.1" x2="762.2" y2="45.1"/>
	</g>
	<g transform="matrix(0.708661,0,0,0.708661,0,0)">
		<g class="st1">
			<path d="M23,54c0,4.2-1.7,8.1-4.5,11.1c-3.4,3.6-7.5,6.1-11.8,8.2c-0.2,0.1-0.4,0.2-0.5,0.2c-0.3,0-0.4-0.2-0.4-0.4
				c0-0.3,0.2-0.4,0.5-0.6c4-2.3,7.3-5,9.2-8c2-3.1,2.7-6.9,2.7-10.2c0-5-1.5-8.4-4.9-8.4c-3.3,0-5.2,2.3-5.2,3.6
				c0,0.3,0.1,0.6,0.5,0.6c0.4,0,0.7-0.2,1.6-0.2c1.6,0,3.1,1.3,3.1,3.3c0,2-1.4,3.4-3.4,3.4c-2.6,0-3.9-2.2-3.9-4.8
				c0-3.1,2.5-7.1,8.1-7.1C19.6,44.7,23,48.4,23,54z M27.9,49.1c0,1-0.8,1.8-1.8,1.8c-1,0-1.8-0.8-1.8-1.8c0-1,0.8-1.8,1.8-1.8
				C27.1,47.3,27.9,48.1,27.9,49.1z M27.9,57.1c0,1-0.7,1.7-1.7,1.7c-1,0-1.7-0.7-1.7-1.7c0-1,0.7-1.7,1.7-1.7
				C27.2,55.4,27.9,56.1,27.9,57.1z"/>
		</g>
	</g>
	<g transform="matrix(0.708661,0,0,0.708661,0,0)">
		<line vector-effect="none" class="st3" x1="0" y1="183.1" x2="762.2" y2="183.1"/>
	</g>
	<g transform="matrix(0.708661,0,0,0.708661,0,0)">
		<line vector-effect="none" class="st3" x1="0" y1="175.1" x2="762.2" y2="175.1"/>
	</g>
	<g transform="matrix(0.708661,0,0,0.708661,0,0)">
		<line vector-effect="none" class="st3" x1="0" y1="167.1" x2="762.2" y2="167.1"/>
	</g>
	<g transform="matrix(0.708661,0,0,0.708661,0,0)">
		<line vector-effect="none" class="st3" x1="0" y1="159.1" x2="762.2" y2="159.1"/>
	</g>
	<g transform="matrix(0.708661,0,0,0.708661,0,0)">
		<line vector-effect="none" class="st3" x1="0" y1="151.1" x2="762.2" y2="151.1"/>
	</g>
	<g transform="matrix(0.708661,0,0,0.708661,0,0)">
		<g class="st1">
			<path d="M23,160c0,4.2-1.7,8.1-4.5,11.1c-3.4,3.6-7.5,6.1-11.8,8.2c-0.2,0.1-0.4,0.2-0.5,0.2c-0.3,0-0.4-0.2-0.4-0.4
				c0-0.3,0.2-0.4,0.5-0.6c4-2.3,7.3-5,9.2-8c2-3.1,2.7-6.9,2.7-10.2c0-5-1.5-8.4-4.9-8.4c-3.3,0-5.2,2.3-5.2,3.6
				c0,0.3,0.1,0.6,0.5,0.6c0.4,0,0.7-0.2,1.6-0.2c1.6,0,3.1,1.3,3.1,3.3c0,2-1.4,3.4-3.4,3.4c-2.6,0-3.9-2.2-3.9-4.8
				c0-3.1,2.5-7.1,8.1-7.1C19.6,150.7,23,154.5,23,160z M27.9,155.1c0,1-0.8,1.8-1.8,1.8c-1,0-1.8-0.8-1.8-1.8c0-1,0.8-1.8,1.8-1.8
				C27.1,153.4,27.9,154.1,27.9,155.1z M27.9,163.1c0,1-0.7,1.7-1.7,1.7c-1,0-1.7-0.7-1.7-1.7c0-1,0.7-1.7,1.7-1.7
				C27.2,161.4,27.9,162.1,27.9,163.1z"/>
		</g>
	</g>
	<g transform="matrix(0.708661,0,0,0.708661,0,0)">
		<line vector-effect="none" class="st3" x1="0" y1="289.2" x2="762.2" y2="289.2"/>
	</g>
	<g transform="matrix(0.708661,0,0,0.708661,0,0)">
		<line vector-effect="none" class="st3" x1="0" y1="281.2" x2="762.2" y2="281.2"/>
	</g>
	<g transform="matrix(0.708661,0,0,0.708661,0,0)">
		<line vector-effect="none" class="st3" x1="0" y1="273.2" x2="762.2" y2="273.2"/>
	</g>
	<g transform="matrix(0.708661,0,0,0.708661,0,0)">
		<line vector-effect="none" class="st3" x1="0" y1="265.2" x2="762.2" y2="265.2"/>
	</g>
	<g transform="matrix(0.708661,0,0,0.708661,0,0)">
		<line vector-effect="none" class="st3" x1="0" y1="257.2" x2="762.2" y2="257.2"/>
	</g>
	<g transform="matrix(0.708661,0,0,0.708661,0,0)">
		<g class="st1">
			<path d="M23,266.1c0,4.2-1.7,8.1-4.5,11.1c-3.4,3.6-7.5,6.1-11.8,8.2c-0.2,0.1-0.4,0.2-0.5,0.2c-0.3,0-0.4-0.2-0.4-0.4
				c0-0.3,0.2-0.4,0.5-0.6c4-2.3,7.3-5,9.2-8c2-3.1,2.7-6.9,2.7-10.2c0-5-1.5-8.4-4.9-8.4c-3.3,0-5.2,2.3-5.2,3.6
				c0,0.3,0.1,0.6,0.5,0.6c0.4,0,0.7-0.2,1.6-0.2c1.6,0,3.1,1.3,3.1,3.3c0,2-1.4,3.4-3.4,3.4c-2.6,0-3.9-2.2-3.9-4.8
				c0-3.1,2.5-7.1,8.1-7.1C19.6,256.8,23,260.5,23,266.1z M27.9,261.2c0,1-0.8,1.8-1.8,1.8c-1,0-1.8-0.8-1.8-1.8
				c0-1,0.8-1.8,1.8-1.8C27.1,259.4,27.9,260.2,27.9,261.2z M27.9,269.2c0,1-0.7,1.7-1.7,1.7c-1,0-1.7-0.7-1.7-1.7
				c0-1,0.7-1.7,1.7-1.7C27.2,267.4,27.9,268.2,27.9,269.2z"/>
		</g>
	</g>
	<g transform="matrix(0.708661,0,0,0.708661,0,0)">
		<line vector-effect="none" class="st3" x1="0" y1="395.2" x2="762.2" y2="395.2"/>
	</g>
	<g transform="matrix(0.708661,0,0,0.708661,0,0)">
		<line vector-effect="none" class="st3" x1="0" y1="387.2" x2="762.2" y2="387.2"/>
	</g>
	<g transform="matrix(0.708661,0,0,0.708661,0,0)">
		<line vector-effect="none" class="st3" x1="0" y1="379.2" x2="762.2" y2="379.2"/>
	</g>
	<g transform="matrix(0.708661,0,0,0.708661,0,0)">
		<line vector-effect="none" class="st3" x1="0" y1="371.2" x2="762.2" y2="371.2"/>
	</g>
	<g transform="matrix(0.708661,0,0,0.708661,0,0)">
		<line vector-effect="none" class="st3" x1="0" y1="363.2" x2="762.2" y2="363.2"/>
	</g>
	<g transform="matrix(0.708661,0,0,0.708661,0,0)">
		<g class="st1">
			<path d="M23,372.1c0,4.2-1.7,8.1-4.5,11.1c-3.4,3.7-7.5,6.1-11.8,8.2c-0.2,0.1-0.4,0.2-0.5,0.2c-0.3,0-0.4-0.2-0.4-0.4
				c0-0.3,0.2-0.4,0.5-0.6c4-2.3,7.3-5,9.2-8c2-3.1,2.7-6.9,2.7-10.2c0-5-1.5-8.4-4.9-8.4c-3.3,0-5.2,2.3-5.2,3.6
				c0,0.3,0.1,0.6,0.5,0.6c0.4,0,0.7-0.2,1.6-0.2c1.6,0,3.1,1.3,3.1,3.3c0,2-1.4,3.4-3.4,3.4c-2.6,0-3.9-2.2-3.9-4.8
				c0-3.1,2.5-7.1,8.1-7.1C19.6,362.8,23,366.5,23,372.1z M27.9,367.2c0,1-0.8,1.8-1.8,1.8c-1,0-1.8-0.8-1.8-1.8
				c0-1,0.8-1.8,1.8-1.8C27.1,365.4,27.9,366.2,27.9,367.2z M27.9,375.2c0,1-0.7,1.7-1.7,1.7c-1,0-1.7-0.7-1.7-1.7
				c0-1,0.7-1.7,1.7-1.7C27.2,373.5,27.9,374.2,27.9,375.2z"/>
		</g>
	</g>
	<g transform="matrix(0.708661,0,0,0.708661,0,0)">
		<line vector-effect="none" class="st3" x1="0" y1="501.2" x2="762.2" y2="501.2"/>
	</g>
	<g transform="matrix(0.708661,0,0,0.708661,0,0)">
		<line vector-effect="none" class="st3" x1="0" y1="493.2" x2="762.2" y2="493.2"/>
	</g>
	<g transform="matrix(0.708661,0,0,0.708661,0,0)">
		<line vector-effect="none" class="st3" x1="0" y1="485.2" x2="762.2" y2="485.2"/>
	</g>
	<g transform="matrix(0.708661,0,0,0.708661,0,0)">
		<line vector-effect="none" class="st3" x1="0" y1="477.2" x2="762.2" y2="477.2"/>
	</g>
	<g transform="matrix(0.708661,0,0,0.708661,0,0)">
		<line vector-effect="none" class="st3" x1="0" y1="469.2" x2="762.2" y2="469.2"/>
	</g>
	<g transform="matrix(0.708661,0,0,0.708661,0,0)">
		<g class="st1">
			<path d="M23,478.1c0,4.2-1.7,8.1-4.5,11.1c-3.4,3.7-7.5,6.1-11.8,8.2c-0.2,0.1-0.4,0.2-0.5,0.2c-0.3,0-0.4-0.2-0.4-0.4
				c0-0.3,0.2-0.4,0.5-0.6c4-2.3,7.3-5,9.2-8c2-3.1,2.7-6.9,2.7-10.2c0-5-1.5-8.4-4.9-8.4c-3.3,0-5.2,2.3-5.2,3.6
				c0,0.3,0.1,0.6,0.5,0.6c0.4,0,0.7-0.2,1.6-0.2c1.6,0,3.1,1.3,3.1,3.3c0,2-1.4,3.4-3.4,3.4c-2.6,0-3.9-2.2-3.9-4.8
				c0-3.1,2.5-7.1,8.1-7.1C19.6,468.8,23,472.6,23,478.1z M27.9,473.2c0,1-0.8,1.8-1.8,1.8c-1,0-1.8-0.8-1.8-1.8
				c0-1,0.8-1.8,1.8-1.8C27.1,471.5,27.9,472.2,27.9,473.2z M27.9,481.2c0,1-0.7,1.7-1.7,1.7c-1,0-1.7-0.7-1.7-1.7
				c0-1,0.7-1.7,1.7-1.7C27.2,479.5,27.9,480.2,27.9,481.2z"/>
		</g>
	</g>
	<g transform="matrix(0.708661,0,0,0.708661,0,0)">
		<line vector-effect="none" class="st0" x1="59" y1="85.1" x2="76" y2="85.1"/>
	</g>
	<g transform="matrix(0.708661,0,0,0.708661,0,0)">
		<line vector-effect="none" class="st3" x1="72.5" y1="83.9" x2="72.5" y2="57.1"/>
	</g>
	<g transform="matrix(0.708661,0,0,0.708661,0,0)">
		<g class="st1">
			<path d="M62,86.7c0-1.9,1.7-6.2,7.3-6.2c2.1,0,3.7,1.2,3.7,3.1c0,1.2-1.2,6.2-7.3,6.2C63.6,89.8,62,88.6,62,86.7z M71.8,83.5
				c0-0.3-0.1-0.5-0.2-0.7c-0.3-0.4-0.6-0.8-1.3-0.8c-0.8,0-1.9,0.4-3.7,1.4c-2.6,1.5-3.4,2.5-3.4,3.3c0,0.3,0.1,0.5,0.2,0.7
				c0.3,0.4,0.7,0.8,1.5,0.8c0.8,0,2-0.4,3.6-1.5C71,85.1,71.8,84.2,71.8,83.5z"/>
		</g>
	</g>
	<g transform="matrix(0.708661,0,0,0.708661,0,0)">
		<line vector-effect="none" class="st3" x1="125.8" y1="79.9" x2="125.8" y2="53.1"/>
	</g>
	<g transform="matrix(0.708661,0,0,0.708661,0,0)">
		<g class="st1">
			<path d="M115.3,82.7c0-1.9,1.7-6.2,7.3-6.2c2.1,0,3.7,1.2,3.7,3.1c0,1.2-1.2,6.2-7.3,6.2C116.9,85.8,115.3,84.6,115.3,82.7z
				 M125.1,79.5c0-0.3-0.1-0.5-0.2-0.7c-0.3-0.4-0.6-0.8-1.3-0.8c-0.8,0-1.9,0.4-3.7,1.4c-2.6,1.5-3.4,2.5-3.4,3.3
				c0,0.3,0.1,0.5,0.2,0.7c0.3,0.4,0.7,0.8,1.5,0.8c0.8,0,2-0.4,3.6-1.5C124.3,81.1,125.1,80.2,125.1,79.5z"/>
		</g>
	</g>
	<g transform="matrix(0.708661,0,0,0.708661,0,0)">
		<line vector-effect="none" class="st3" x1="191.6" y1="79.9" x2="191.6" y2="53.1"/>
	</g>
	<g transform="matrix(0.708661,0,0,0.708661,0,0)">
		<g class="st1">
			<path d="M181.1,82.7c0-1.9,1.7-6.2,7.3-6.2c2.1,0,3.7,1.2,3.7,3.1c0,1.2-1.2,6.2-7.3,6.2C182.6,85.8,181.1,84.6,181.1,82.7z
				 M190.8,79.5c0-0.3-0.1-0.5-0.2-0.7c-0.3-0.4-0.6-0.8-1.3-0.8c-0.8,0-1.9,0.4-3.7,1.4c-2.6,1.5-3.4,2.5-3.4,3.3
				c0,0.3,0.1,0.5,0.2,0.7c0.3,0.4,0.7,0.8,1.5,0.8c0.8,0,2-0.4,3.6-1.5C190.1,81.1,190.8,80.2,190.8,79.5z"/>
		</g>
	</g>
	<g transform="matrix(0.708661,0,0,0.708661,0,0)">
		<g class="st1">
			<path d="M177.6,77.7c-0.3,0.1-0.4,0.7-0.4,0.9v3c0,0.4,0.2,0.6,0.4,0.6c0.2-0.1,0.8-0.3,0.8-0.3c0.1,0,0.1,0,0.2,0
				c0.1,0,0.2,0.1,0.2,0.3v2.3c0,0.2-0.2,0.4-0.4,0.5c0,0-0.7,0.3-0.9,0.4c-0.2,0.1-0.4,0.5-0.4,0.7v4.5c0,0.2-0.2,0.4-0.5,0.4
				c-0.2,0-0.4-0.2-0.4-0.4v-4c0-0.2-0.2-0.6-0.4-0.6c0,0-0.1,0-0.1,0l-2,0.8c-0.2,0.1-0.3,0.3-0.3,0.7v4.5c0,0.2-0.2,0.4-0.5,0.4
				c-0.2,0-0.4-0.2-0.4-0.4V88c0-0.2-0.2-0.5-0.4-0.5c0,0-0.1,0-0.1,0c-0.3,0.1-0.7,0.3-0.7,0.3c0,0-0.1,0-0.1,0
				c-0.2,0-0.3-0.1-0.3-0.3v-2.3c0-0.2,0.2-0.4,0.4-0.5c0,0,0.7-0.3,0.9-0.4c0.2-0.1,0.4-0.4,0.4-0.7v-3.2c0-0.3-0.2-0.6-0.4-0.6
				c0,0-0.1,0-0.1,0c-0.2,0.1-0.7,0.3-0.7,0.3c0,0-0.1,0-0.1,0c-0.2,0-0.3-0.1-0.3-0.3v-2.3c0-0.2,0.2-0.4,0.4-0.5
				c0,0,0.6-0.3,0.8-0.4c0.2-0.1,0.4-0.4,0.4-0.9v-1.3v-3c0-0.2,0.2-0.4,0.5-0.4c0.2,0,0.4,0.2,0.4,0.4v3.8c0,0.3,0.1,0.6,0.4,0.6
				c0.5-0.1,1.6-0.6,2-0.8c0.3-0.2,0.4-0.6,0.4-0.9v-4.2c0-0.2,0.2-0.4,0.5-0.4c0.3,0,0.4,0.2,0.4,0.4v3.9c0,0.3,0.2,0.4,0.4,0.4
				c0.2,0,0.8-0.3,0.8-0.3c0.1,0,0.1,0,0.2,0c0.1,0,0.2,0.1,0.2,0.3v2.3c0,0.2-0.2,0.4-0.4,0.5C178.4,77.3,177.8,77.6,177.6,77.7z
				 M176.3,80.5c0-0.9-0.1-1.7-0.1-1.8c-0.1-0.1-0.3-0.2-0.5-0.2c-0.8,0-2.3,0.7-2.3,1.2c-0.1,0.3-0.1,1.4-0.1,2.4
				c0,0.8,0,1.5,0.1,1.6c0,0.1,0.2,0.2,0.4,0.2c0.7,0,2.2-0.6,2.4-1.3C176.2,82.3,176.3,81.4,176.3,80.5z"/>
		</g>
	</g>
	<g transform="matrix(0.708661,0,0,0.708661,0,0)">
		<line vector-effect="none" class="st3" x1="244.8" y1="75.9" x2="244.8" y2="49.1"/>
	</g>
	<g transform="matrix(0.708661,0,0,0.708661,0,0)">
		<g class="st1">
			<path d="M234.3,78.7c0-1.9,1.7-6.2,7.3-6.2c2.1,0,3.7,1.2,3.7,3.1c0,1.2-1.2,6.2-7.3,6.2C235.9,81.8,234.3,80.6,234.3,78.7z
				 M244.1,75.5c0-0.3-0.1-0.5-0.2-0.7c-0.3-0.4-0.6-0.8-1.3-0.8c-0.8,0-1.9,0.4-3.7,1.4c-2.6,1.5-3.4,2.5-3.4,3.3
				c0,0.3,0.1,0.5,0.2,0.7c0.3,0.4,0.7,0.8,1.5,0.8c0.8,0,2-0.4,3.6-1.5C243.3,77.1,244.1,76.2,244.1,75.5z"/>
		</g>
	</g>
	<g transform="matrix(0.708661,0,0,0.708661,0,0)">
		<line vector-effect="none" class="st3" x1="310.6" y1="75.9" x2="310.6" y2="49.1"/>
	</g>
	<g transform="matrix(0.708661,0,0,0.708661,0,0)">
		<g class="st1">
			<path d="M300.1,78.7c0-1.9,1.7-6.2,7.3-6.2c2.1,0,3.7,1.2,3.7,3.1c0,1.2-1.2,6.2-7.3,6.2C301.7,81.8,300.1,80.6,300.1,78.7z
				 M309.9,75.5c0-0.3-0.1-0.5-0.2-0.7c-0.3-0.4-0.6-0.8-1.3-0.8c-0.8,0-1.9,0.4-3.7,1.4c-2.6,1.5-3.4,2.5-3.4,3.3
				c0,0.3,0.1,0.5,0.2,0.7c0.3,0.4,0.7,0.8,1.5,0.8c0.8,0,2-0.4,3.6-1.5C309.1,77.1,309.9,76.2,309.9,75.5z"/>
		</g>
	</g>
	<g transform="matrix(0.708661,0,0,0.708661,0,0)">
		<g class="st1">
			<path d="M296.6,73.6c-0.3,0.1-0.4,0.7-0.4,0.9v3c0,0.4,0.2,0.6,0.4,0.6c0.2-0.1,0.8-0.3,0.8-0.3c0.1,0,0.1,0,0.2,0
				c0.1,0,0.2,0.1,0.2,0.3v2.3c0,0.2-0.2,0.4-0.4,0.5c0,0-0.7,0.3-0.9,0.4s-0.4,0.5-0.4,0.7v4.5c0,0.2-0.2,0.4-0.5,0.4
				c-0.2,0-0.4-0.2-0.4-0.4v-4c0-0.2-0.2-0.6-0.4-0.6c0,0-0.1,0-0.1,0l-2,0.8c-0.2,0.1-0.3,0.3-0.3,0.7v4.5c0,0.2-0.2,0.4-0.5,0.4
				c-0.2,0-0.4-0.2-0.4-0.4V84c0-0.2-0.2-0.5-0.4-0.5c0,0-0.1,0-0.1,0c-0.3,0.1-0.7,0.3-0.7,0.3c0,0-0.1,0-0.1,0
				c-0.2,0-0.3-0.1-0.3-0.3v-2.3c0-0.2,0.2-0.4,0.4-0.5c0,0,0.7-0.3,0.9-0.4c0.2-0.1,0.4-0.4,0.4-0.7v-3.2c0-0.3-0.2-0.6-0.4-0.6
				c0,0-0.1,0-0.1,0c-0.2,0.1-0.7,0.3-0.7,0.3c0,0-0.1,0-0.1,0c-0.2,0-0.3-0.1-0.3-0.3v-2.3c0-0.2,0.2-0.4,0.4-0.5
				c0,0,0.6-0.3,0.8-0.4c0.2-0.1,0.4-0.4,0.4-0.9v-1.3v-3c0-0.2,0.2-0.4,0.5-0.4c0.2,0,0.4,0.2,0.4,0.4v3.8c0,0.3,0.1,0.6,0.4,0.6
				c0.5-0.1,1.6-0.6,2-0.8c0.3-0.2,0.4-0.6,0.4-0.9v-4.2c0-0.2,0.2-0.4,0.5-0.4c0.3,0,0.4,0.2,0.4,0.4v3.9c0,0.3,0.2,0.4,0.4,0.4
				c0.2,0,0.8-0.3,0.8-0.3c0.1,0,0.1,0,0.2,0c0.1,0,0.2,0.1,0.2,0.3v2.3c0,0.2-0.2,0.4-0.4,0.5C297.4,73.3,296.9,73.6,296.6,73.6z
				 M295.3,76.5c0-0.9-0.1-1.7-0.1-1.8c-0.1-0.1-0.3-0.2-0.5-0.2c-0.8,0-2.3,0.7-2.3,1.2c-0.1,0.3-0.1,1.4-0.1,2.4
				c0,0.8,0,1.5,0.1,1.6c0,0.1,0.2,0.2,0.4,0.2c0.7,0,2.2-0.6,2.4-1.3C295.3,78.3,295.3,77.4,295.3,76.5z"/>
		</g>
	</g>
	<g transform="matrix(0.708661,0,0,0.708661,0,0)">
		<line vector-effect="none" class="st3" x1="363.9" y1="71.9" x2="363.9" y2="45.1"/>
	</g>
	<g transform="matrix(0.708661,0,0,0.708661,0,0)">
		<g class="st1">
			<path d="M353.4,74.7c0-1.9,1.7-6.2,7.3-6.2c2.1,0,3.7,1.2,3.7,3.1c0,1.2-1.2,6.2-7.3,6.2C354.9,77.7,353.4,76.6,353.4,74.7z
				 M363.1,71.5c0-0.3-0.1-0.5-0.2-0.7c-0.3-0.4-0.6-0.8-1.3-0.8c-0.8,0-1.9,0.4-3.7,1.4c-2.6,1.5-3.4,2.5-3.4,3.3
				c0,0.3,0.1,0.5,0.2,0.7c0.3,0.4,0.7,0.8,1.5,0.8c0.8,0,2-0.4,3.6-1.5C362.4,73.1,363.1,72.2,363.1,71.5z"/>
		</g>
	</g>
	<g transform="matrix(0.708661,0,0,0.708661,0,0)">
		<line vector-effect="none" class="st3" x1="429.9" y1="71.9" x2="429.9" y2="45.1"/>
	</g>
	<g transform="matrix(0.708661,0,0,0.708661,0,0)">
		<g class="st1">
			<path d="M419.4,74.7c0-1.9,1.7-6.2,7.3-6.2c2.1,0,3.7,1.2,3.7,3.1c0,1.2-1.2,6.2-7.3,6.2C421,77.7,419.4,76.6,419.4,74.7z
				 M429.1,71.5c0-0.3-0.1-0.5-0.2-0.7c-0.3-0.4-0.6-0.8-1.3-0.8c-0.8,0-1.9,0.4-3.7,1.4c-2.6,1.5-3.4,2.5-3.4,3.3
				c0,0.3,0.1,0.5,0.2,0.7c0.3,0.4,0.7,0.8,1.5,0.8c0.8,0,2-0.4,3.6-1.5C428.4,73.1,429.1,72.2,429.1,71.5z"/>
		</g>
	</g>
	<g transform="matrix(0.708661,0,0,0.708661,0,0)">
		<g class="st1">
			<path d="M415.9,69.6c-0.3,0.1-0.4,0.7-0.4,0.9v3c0,0.4,0.2,0.6,0.4,0.6c0.2-0.1,0.8-0.3,0.8-0.3c0.1,0,0.1,0,0.2,0
				c0.1,0,0.2,0.1,0.2,0.3v2.3c0,0.2-0.2,0.4-0.4,0.5c0,0-0.7,0.3-0.9,0.4c-0.2,0.1-0.4,0.5-0.4,0.7v4.5c0,0.2-0.2,0.4-0.5,0.4
				c-0.2,0-0.4-0.2-0.4-0.4v-4c0-0.2-0.2-0.6-0.4-0.6c0,0-0.1,0-0.1,0l-2,0.8c-0.2,0.1-0.3,0.3-0.3,0.7v4.5c0,0.2-0.2,0.4-0.5,0.4
				c-0.2,0-0.4-0.2-0.4-0.4V80c0-0.2-0.2-0.5-0.4-0.5c0,0-0.1,0-0.1,0c-0.3,0.1-0.7,0.3-0.7,0.3c0,0-0.1,0-0.1,0
				c-0.2,0-0.3-0.1-0.3-0.3v-2.3c0-0.2,0.2-0.4,0.4-0.5c0,0,0.7-0.3,0.9-0.4c0.2-0.1,0.4-0.4,0.4-0.7v-3.2c0-0.3-0.2-0.6-0.4-0.6
				c0,0-0.1,0-0.1,0c-0.2,0.1-0.7,0.3-0.7,0.3c0,0-0.1,0-0.1,0c-0.2,0-0.3-0.1-0.3-0.3v-2.3c0-0.2,0.2-0.4,0.4-0.5
				c0,0,0.6-0.3,0.8-0.4c0.2-0.1,0.4-0.4,0.4-0.9v-1.3v-3c0-0.2,0.2-0.4,0.5-0.4c0.2,0,0.4,0.2,0.4,0.4v3.8c0,0.3,0.1,0.6,0.4,0.6
				c0.5-0.1,1.6-0.6,2-0.8c0.3-0.2,0.4-0.6,0.4-0.9v-4.2c0-0.2,0.2-0.4,0.5-0.4c0.3,0,0.4,0.2,0.4,0.4v3.9c0,0.3,0.2,0.4,0.4,0.4
				c0.2,0,0.8-0.3,0.8-0.3c0.1,0,0.1,0,0.2,0c0.1,0,0.2,0.1,0.2,0.3v2.3c0,0.2-0.2,0.4-0.4,0.5C416.7,69.3,416.1,69.6,415.9,69.6z
				 M414.6,72.5c0-0.9-0.1-1.7-0.1-1.8c-0.1-0.1-0.3-0.2-0.5-0.2c-0.8,0-2.3,0.7-2.3,1.2c-0.1,0.3-0.1,1.4-0.1,2.4
				c0,0.8,0,1.5,0.1,1.6c0,0.1,0.2,0.2,0.4,0.2c0.7,0,2.2-0.6,2.4-1.3C414.6,74.3,414.6,73.4,414.6,72.5z"/>
		</g>
	</g>
	<g transform="matrix(0.708661,0,0,0.708661,0,0)">
		<line vector-effect="none" class="st3" x1="482.9" y1="67.9" x2="482.9" y2="41.1"/>
	</g>
	<g transform="matrix(0.708661,0,0,0.708661,0,0)">
		<g class="st1">
			<path d="M472.4,70.7c0-1.9,1.7-6.2,7.3-6.2c2.1,0,3.7,1.2,3.7,3.1c0,1.2-1.2,6.2-7.3,6.2C474,73.7,472.4,72.6,472.4,70.7z
				 M482.2,67.5c0-0.3-0.1-0.5-0.2-0.7c-0.3-0.4-0.6-0.8-1.3-0.8c-0.8,0-1.9,0.4-3.7,1.4c-2.6,1.5-3.4,2.5-3.4,3.3
				c0,0.3,0.1,0.5,0.2,0.7c0.3,0.4,0.7,0.8,1.5,0.8c0.8,0,2-0.4,3.6-1.5C481.4,69.1,482.2,68.2,482.2,67.5z"/>
		</g>
	</g>
	<g transform="matrix(0.708661,0,0,0.708661,0,0)">
		<line vector-effect="none" class="st3" x1="548.2" y1="63.9" x2="548.2" y2="37.1"/>
	</g>
	<g transform="matrix(0.708661,0,0,0.708661,0,0)">
		<g class="st1">
			<path d="M537.7,66.7c0-1.9,1.7-6.2,7.3-6.2c2.1,0,3.7,1.2,3.7,3.1c0,1.2-1.2,6.2-7.3,6.2C539.2,69.7,537.7,68.6,537.7,66.7z
				 M547.4,63.5c0-0.3-0.1-0.5-0.2-0.7c-0.3-0.4-0.6-0.8-1.3-0.8c-0.8,0-1.9,0.4-3.7,1.4c-2.6,1.5-3.4,2.5-3.4,3.3
				c0,0.3,0.1,0.5,0.2,0.7c0.3,0.4,0.7,0.8,1.5,0.8c0.8,0,2-0.4,3.6-1.5C546.7,65.1,547.4,64.2,547.4,63.5z"/>
		</g>
	</g>
	<g transform="matrix(0.708661,0,0,0.708661,0,0)">
		<line vector-effect="none" class="st3" x1="601.2" y1="63.9" x2="601.2" y2="37.1"/>
	</g>
	<g transform="matrix(0.708661,0,0,0.708661,0,0)">
		<g class="st1">
			<path d="M590.7,66.7c0-1.9,1.7-6.2,7.3-6.2c2.1,0,3.7,1.2,3.7,3.1c0,1.2-1.2,6.2-7.3,6.2C592.3,69.7,590.7,68.6,590.7,66.7z
				 M600.5,63.5c0-0.3-0.1-0.5-0.2-0.7c-0.3-0.4-0.6-0.8-1.3-0.8c-0.8,0-1.9,0.4-3.7,1.4c-2.6,1.5-3.4,2.5-3.4,3.3
				c0,0.3,0.1,0.5,0.2,0.7c0.3,0.4,0.7,0.8,1.5,0.8c0.8,0,2-0.4,3.6-1.5C599.7,65.1,600.5,64.2,600.5,63.5z"/>
		</g>
	</g>
	<g transform="matrix(0.708661,0,0,0.708661,0,0)">
		<g class="st1">
			<path d="M587.2,61.6c-0.3,0.1-0.4,0.7-0.4,0.9v3c0,0.4,0.2,0.6,0.4,0.6c0.2-0.1,0.8-0.3,0.8-0.3c0.1,0,0.1,0,0.2,0
				c0.1,0,0.2,0.1,0.2,0.3v2.3c0,0.2-0.2,0.4-0.4,0.5c0,0-0.7,0.3-0.9,0.4s-0.4,0.5-0.4,0.7v4.5c0,0.2-0.2,0.4-0.5,0.4
				c-0.2,0-0.4-0.2-0.4-0.4v-4c0-0.2-0.2-0.6-0.4-0.6c0,0-0.1,0-0.1,0l-2,0.8c-0.2,0.1-0.3,0.3-0.3,0.7v4.5c0,0.2-0.2,0.4-0.5,0.4
				c-0.2,0-0.4-0.2-0.4-0.4V72c0-0.2-0.2-0.5-0.4-0.5c0,0-0.1,0-0.1,0c-0.3,0.1-0.7,0.3-0.7,0.3c0,0-0.1,0-0.1,0
				c-0.2,0-0.3-0.1-0.3-0.3v-2.3c0-0.2,0.2-0.4,0.4-0.5c0,0,0.7-0.3,0.9-0.4c0.2-0.1,0.4-0.4,0.4-0.7v-3.2c0-0.3-0.2-0.6-0.4-0.6
				c0,0-0.1,0-0.1,0c-0.2,0.1-0.7,0.3-0.7,0.3c0,0-0.1,0-0.1,0c-0.2,0-0.3-0.1-0.3-0.3v-2.3c0-0.2,0.2-0.4,0.4-0.5
				c0,0,0.6-0.3,0.8-0.4c0.2-0.1,0.4-0.4,0.4-0.9v-1.3v-3c0-0.2,0.2-0.4,0.5-0.4c0.2,0,0.4,0.2,0.4,0.4v3.8c0,0.3,0.1,0.6,0.4,0.6
				c0.5-0.1,1.6-0.6,2-0.8c0.3-0.2,0.4-0.6,0.4-0.9v-4.2c0-0.2,0.2-0.4,0.5-0.4c0.3,0,0.4,0.2,0.4,0.4v3.9c0,0.3,0.2,0.4,0.4,0.4
				c0.2,0,0.8-0.3,0.8-0.3c0.1,0,0.1,0,0.2,0c0.1,0,0.2,0.1,0.2,0.3v2.3c0,0.2-0.2,0.4-0.4,0.5C588,61.3,587.4,61.6,587.2,61.6z
				 M585.9,64.5c0-0.9-0.1-1.7-0.1-1.8c-0.1-0.1-0.3-0.2-0.5-0.2c-0.8,0-2.3,0.7-2.3,1.2c-0.1,0.3-0.1,1.4-0.1,2.4
				c0,0.8,0,1.5,0.1,1.6c0,0.1,0.2,0.2,0.4,0.2c0.7,0,2.2-0.6,2.4-1.3C585.9,66.3,585.9,65.4,585.9,64.5z"/>
		</g>
	</g>
	<g transform="matrix(0.708661,0,0,0.708661,0,0)">
		<line vector-effect="none" class="st3" x1="656.5" y1="62.4" x2="656.5" y2="89.1"/>
	</g>
	<g transform="matrix(0.708661,0,0,0.708661,0,0)">
		<g class="st1">
			<path d="M656,62.7c0-1.9,1.7-6.2,7.3-6.2c2.1,0,3.7,1.2,3.7,3.1c0,1.2-1.2,6.2-7.3,6.2C657.5,65.7,656,64.6,656,62.7z
				 M665.7,59.5c0-0.3-0.1-0.5-0.2-0.7c-0.3-0.4-0.6-0.8-1.3-0.8c-0.8,0-1.9,0.4-3.7,1.4c-2.6,1.5-3.4,2.5-3.4,3.3
				c0,0.3,0.1,0.5,0.2,0.7c0.3,0.4,0.7,0.8,1.5,0.8c0.8,0,2-0.4,3.6-1.5C665,61.1,665.7,60.2,665.7,59.5z"/>
		</g>
	</g>
	<g transform="matrix(0.708661,0,0,0.708661,0,0)">
		<line vector-effect="none" class="st3" x1="709.5" y1="62.4" x2="709.5" y2="89.1"/>
	</g>
	<g transform="matrix(0.708661,0,0,0.708661,0,0)">
		<g class="st1">
			<path d="M709,62.7c0-1.9,1.7-6.2,7.3-6.2c2.1,0,3.7,1.2,3.7,3.1c0,1.2-1.2,6.2-7.3,6.2C710.5,65.7,709,64.6,709,62.7z
				 M718.7,59.5c0-0.3-0.1-0.5-0.2-0.7c-0.3-0.4-0.6-0.8-1.3-0.8c-0.8,0-1.9,0.4-3.7,1.4c-2.6,1.5-3.4,2.5-3.4,3.3
				c0,0.3,0.1,0.5,0.2,0.7c0.3,0.4,0.7,0.8,1.5,0.8c0.8,0,2-0.4,3.6-1.5C718,61.1,718.7,60.2,718.7,59.5z"/>
		</g>
	</g>
	<g transform="matrix(0.708661,0,0,0.708661,0,0)">
		<g class="st1">
			<path d="M705.5,57.6c-0.3,0.1-0.4,0.7-0.4,0.9v3c0,0.4,0.2,0.6,0.4,0.6c0.2-0.1,0.8-0.3,0.8-0.3c0.1,0,0.1,0,0.2,0
				c0.1,0,0.2,0.1,0.2,0.3v2.3c0,0.2-0.2,0.4-0.4,0.5c0,0-0.7,0.3-0.9,0.4s-0.4,0.5-0.4,0.7v4.5c0,0.2-0.2,0.4-0.5,0.4
				c-0.2,0-0.4-0.2-0.4-0.4v-4c0-0.2-0.2-0.6-0.4-0.6c0,0-0.1,0-0.1,0l-2,0.8c-0.2,0.1-0.3,0.3-0.3,0.7v4.5c0,0.2-0.2,0.4-0.5,0.4
				c-0.2,0-0.4-0.2-0.4-0.4V68c0-0.2-0.2-0.5-0.4-0.5c0,0-0.1,0-0.1,0c-0.3,0.1-0.7,0.3-0.7,0.3c0,0-0.1,0-0.1,0
				c-0.2,0-0.3-0.1-0.3-0.3v-2.3c0-0.2,0.2-0.4,0.4-0.5c0,0,0.7-0.3,0.9-0.4c0.2-0.1,0.4-0.4,0.4-0.7v-3.2c0-0.3-0.2-0.6-0.4-0.6
				c0,0-0.1,0-0.1,0c-0.2,0.1-0.7,0.3-0.7,0.3c0,0-0.1,0-0.1,0c-0.2,0-0.3-0.1-0.3-0.3v-2.3c0-0.2,0.2-0.4,0.4-0.5
				c0,0,0.6-0.3,0.8-0.4c0.2-0.1,0.4-0.4,0.4-0.9v-1.3v-3c0-0.2,0.2-0.4,0.5-0.4c0.2,0,0.4,0.2,0.4,0.4v3.8c0,0.3,0.1,0.6,0.4,0.6
				c0.5-0.1,1.6-0.6,2-0.8c0.3-0.2,0.4-0.6,0.4-0.9v-4.2c0-0.2,0.2-0.4,0.5-0.4c0.3,0,0.4,0.2,0.4,0.4v3.9c0,0.3,0.2,0.4,0.4,0.4
				c0.2,0,0.8-0.3,0.8-0.3c0.1,0,0.1,0,0.2,0c0.1,0,0.2,0.1,0.2,0.3v2.3c0,0.2-0.2,0.4-0.4,0.5C706.3,57.3,705.7,57.5,705.5,57.6z
				 M704.2,60.5c0-0.9-0.1-1.7-0.1-1.8c-0.1-0.1-0.3-0.2-0.5-0.2c-0.8,0-2.3,0.7-2.3,1.2c-0.1,0.3-0.1,1.4-0.1,2.4
				c0,0.8,0,1.5,0.1,1.6c0,0.1,0.2,0.2,0.4,0.2c0.7,0,2.2-0.6,2.4-1.3C704.2,62.3,704.2,61.4,704.2,60.5z"/>
		</g>
	</g>
	<g transform="matrix(0.708661,0,0,0.708661,0,0)">
		<line vector-effect="none" class="st3" x1="46.5" y1="164.4" x2="46.5" y2="191.1"/>
	</g>
	<g transform="matrix(0.708661,0,0,0.708661,0,0)">
		<g class="st1">
			<path d="M46,164.7c0-1.9,1.7-6.2,7.3-6.2c2.1,0,3.7,1.2,3.7,3.1c0,1.2-1.2,6.2-7.3,6.2C47.6,167.8,46,166.7,46,164.7z
				 M55.8,161.5c0-0.3-0.1-0.5-0.2-0.7c-0.3-0.4-0.6-0.8-1.3-0.8c-0.8,0-1.9,0.4-3.7,1.4c-2.6,1.5-3.4,2.5-3.4,3.3
				c0,0.3,0.1,0.5,0.2,0.7c0.3,0.4,0.7,0.8,1.5,0.8c0.8,0,2-0.4,3.6-1.5C55,163.1,55.8,162.2,55.8,161.5z"/>
		</g>
	</g>
	<g transform="matrix(0.708661,0,0,0.708661,0,0)">
		<line vector-effect="none" class="st3" x1="101" y1="160.4" x2="101" y2="187.1"/>
	</g>
	<g transform="matrix(0.708661,0,0,0.708661,0,0)">
		<g class="st1">
			<path d="M100.5,160.7c0-1.9,1.7-6.2,7.3-6.2c2.1,0,3.7,1.2,3.7,3.1c0,1.2-1.2,6.2-7.3,6.2C102.1,163.8,100.5,162.7,100.5,160.7z
				 M110.3,157.5c0-0.3-0.1-0.5-0.2-0.7c-0.3-0.4-0.6-0.8-1.3-0.8c-0.8,0-1.9,0.4-3.7,1.4c-2.6,1.5-3.4,2.5-3.4,3.3
				c0,0.3,0.1,0.5,0.2,0.7c0.3,0.4,0.7,0.8,1.5,0.8c0.8,0,2-0.4,3.6-1.5C109.5,159.1,110.3,158.2,110.3,157.5z"/>
		</g>
	</g>
	<g transform="matrix(0.708661,0,0,0.708661,0,0)">
		<line vector-effect="none" class="st3" x1="168.3" y1="160.4" x2="168.3" y2="187.1"/>
	</g>
	<g transform="matrix(0.708661,0,0,0.708661,0,0)">
		<g class="st1">
			<path d="M167.8,160.7c0-1.9,1.7-6.2,7.3-6.2c2.1,0,3.7,1.2,3.7,3.1c0,1.2-1.2,6.2-7.3,6.2C169.4,163.8,167.8,162.7,167.8,160.7z
				 M177.6,157.5c0-0.3-0.1-0.5-0.2-0.7c-0.3-0.4-0.6-0.8-1.3-0.8c-0.8,0-1.9,0.4-3.7,1.4c-2.6,1.5-3.4,2.5-3.4,3.3
				c0,0.3,0.1,0.5,0.2,0.7c0.3,0.4,0.7,0.8,1.5,0.8c0.8,0,2-0.4,3.6-1.5C176.8,159.1,177.6,158.2,177.6,157.5z"/>
		</g>
	</g>
	<g transform="matrix(0.708661,0,0,0.708661,0,0)">
		<g class="st1">
			<path d="M164.3,155.7c-0.3,0.1-0.4,0.7-0.4,0.9v3c0,0.4,0.2,0.6,0.4,0.6c0.2-0.1,0.8-0.3,0.8-0.3c0.1,0,0.1,0,0.2,0
				c0.1,0,0.2,0.1,0.2,0.3v2.3c0,0.2-0.2,0.4-0.4,0.5c0,0-0.7,0.3-0.9,0.4c-0.2,0.1-0.4,0.5-0.4,0.7v4.5c0,0.2-0.2,0.4-0.5,0.4
				c-0.2,0-0.4-0.2-0.4-0.4v-4c0-0.2-0.2-0.6-0.4-0.6c0,0-0.1,0-0.1,0l-2,0.8c-0.2,0.1-0.3,0.3-0.3,0.7v4.5c0,0.2-0.2,0.4-0.5,0.4
				c-0.2,0-0.4-0.2-0.4-0.4V166c0-0.2-0.2-0.5-0.4-0.5c0,0-0.1,0-0.1,0c-0.3,0.1-0.7,0.3-0.7,0.3c0,0-0.1,0-0.1,0
				c-0.2,0-0.3-0.1-0.3-0.3v-2.3c0-0.2,0.2-0.4,0.4-0.5c0,0,0.7-0.3,0.9-0.4c0.2-0.1,0.4-0.4,0.4-0.7v-3.2c0-0.3-0.2-0.6-0.4-0.6
				c0,0-0.1,0-0.1,0c-0.2,0.1-0.7,0.3-0.7,0.3c0,0-0.1,0-0.1,0c-0.2,0-0.3-0.1-0.3-0.3v-2.3c0-0.2,0.2-0.4,0.4-0.5
				c0,0,0.6-0.3,0.8-0.4c0.2-0.1,0.4-0.4,0.4-0.9v-1.3v-3c0-0.2,0.2-0.4,0.5-0.4c0.2,0,0.4,0.2,0.4,0.4v3.8c0,0.3,0.1,0.6,0.4,0.6
				c0.5-0.1,1.6-0.6,2-0.8c0.3-0.2,0.4-0.6,0.4-0.9v-4.2c0-0.2,0.2-0.4,0.5-0.4c0.3,0,0.4,0.2,0.4,0.4v3.9c0,0.3,0.2,0.4,0.4,0.4
				c0.2,0,0.8-0.3,0.8-0.3c0.1,0,0.1,0,0.2,0c0.1,0,0.2,0.1,0.2,0.3v2.3c0,0.2-0.2,0.4-0.4,0.5C165.1,155.4,164.6,155.6,164.3,155.7
				z M163.1,158.5c0-0.9-0.1-1.7-0.1-1.8c-0.1-0.1-0.3-0.2-0.5-0.2c-0.8,0-2.3,0.7-2.3,1.2c-0.1,0.3-0.1,1.4-0.1,2.4
				c0,0.8,0,1.5,0.1,1.6c0,0.1,0.2,0.2,0.4,0.2c0.7,0,2.2-0.6,2.4-1.3C163,160.3,163.1,159.4,163.1,158.5z"/>
		</g>
	</g>
	<g transform="matrix(0.708661,0,0,0.708661,0,0)">
		<line vector-effect="none" class="st3" x1="222.8" y1="156.4" x2="222.8" y2="183.1"/>
	</g>
	<g transform="matrix(0.708661,0,0,0.708661,0,0)">
		<g class="st1">
			<path d="M222.3,156.7c0-1.9,1.7-6.2,7.3-6.2c2.1,0,3.7,1.2,3.7,3.1c0,1.2-1.2,6.2-7.3,6.2C223.9,159.8,222.3,158.7,222.3,156.7z
				 M232.1,153.5c0-0.3-0.1-0.5-0.2-0.7c-0.3-0.4-0.6-0.8-1.3-0.8c-0.8,0-1.9,0.4-3.7,1.4c-2.6,1.5-3.4,2.5-3.4,3.3
				c0,0.3,0.1,0.5,0.2,0.7c0.3,0.4,0.7,0.8,1.5,0.8c0.8,0,2-0.4,3.6-1.5C231.3,155.1,232.1,154.2,232.1,153.5z"/>
		</g>
	</g>
	<g transform="matrix(0.708661,0,0,0.708661,0,0)">
		<line vector-effect="none" class="st3" x1="290.1" y1="156.4" x2="290.1" y2="183.1"/>
	</g>
	<g transform="matrix(0.708661,0,0,0.708661,0,0)">
		<g class="st1">
			<path d="M289.6,156.7c0-1.9,1.7-6.2,7.3-6.2c2.1,0,3.7,1.2,3.7,3.1c0,1.2-1.2,6.2-7.3,6.2C291.2,159.8,289.6,158.7,289.6,156.7z
				 M299.4,153.5c0-0.3-0.1-0.5-0.2-0.7c-0.3-0.4-0.6-0.8-1.3-0.8c-0.8,0-1.9,0.4-3.7,1.4c-2.6,1.5-3.4,2.5-3.4,3.3
				c0,0.3,0.1,0.5,0.2,0.7c0.3,0.4,0.7,0.8,1.5,0.8c0.8,0,2-0.4,3.6-1.5C298.6,155.1,299.4,154.2,299.4,153.5z"/>
		</g>
	</g>
	<g transform="matrix(0.708661,0,0,0.708661,0,0)">
		<g class="st1">
			<path d="M286.1,151.7c-0.3,0.1-0.4,0.7-0.4,0.9v3c0,0.4,0.2,0.6,0.4,0.6c0.2-0.1,0.8-0.3,0.8-0.3c0.1,0,0.1,0,0.2,0
				c0.1,0,0.2,0.1,0.2,0.3v2.3c0,0.2-0.2,0.4-0.4,0.5c0,0-0.7,0.3-0.9,0.4c-0.2,0.1-0.4,0.5-0.4,0.7v4.5c0,0.2-0.2,0.4-0.5,0.4
				c-0.2,0-0.4-0.2-0.4-0.4v-4c0-0.2-0.2-0.6-0.4-0.6c0,0-0.1,0-0.1,0l-2,0.8c-0.2,0.1-0.3,0.3-0.3,0.7v4.5c0,0.2-0.2,0.4-0.5,0.4
				c-0.2,0-0.4-0.2-0.4-0.4V162c0-0.2-0.2-0.5-0.4-0.5c0,0-0.1,0-0.1,0c-0.3,0.1-0.7,0.3-0.7,0.3c0,0-0.1,0-0.1,0
				c-0.2,0-0.3-0.1-0.3-0.3v-2.3c0-0.2,0.2-0.4,0.4-0.5c0,0,0.7-0.3,0.9-0.4c0.2-0.1,0.4-0.4,0.4-0.7v-3.2c0-0.3-0.2-0.6-0.4-0.6
				c0,0-0.1,0-0.1,0c-0.2,0.1-0.7,0.3-0.7,0.3c0,0-0.1,0-0.1,0c-0.2,0-0.3-0.1-0.3-0.3v-2.3c0-0.2,0.2-0.4,0.4-0.5
				c0,0,0.6-0.3,0.8-0.4c0.2-0.1,0.4-0.4,0.4-0.9v-1.3v-3c0-0.2,0.2-0.4,0.5-0.4c0.2,0,0.4,0.2,0.4,0.4v3.8c0,0.3,0.1,0.6,0.4,0.6
				c0.5-0.1,1.6-0.6,2-0.8c0.3-0.2,0.4-0.6,0.4-0.9v-4.2c0-0.2,0.2-0.4,0.5-0.4c0.3,0,0.4,0.2,0.4,0.4v3.9c0,0.3,0.2,0.4,0.4,0.4
				c0.2,0,0.8-0.3,0.8-0.3c0.1,0,0.1,0,0.2,0c0.1,0,0.2,0.1,0.2,0.3v2.3c0,0.2-0.2,0.4-0.4,0.5C286.9,151.4,286.3,151.6,286.1,151.7
				z M284.8,154.5c0-0.9-0.1-1.7-0.1-1.8c-0.1-0.1-0.3-0.2-0.5-0.2c-0.8,0-2.3,0.7-2.3,1.2c-0.1,0.3-0.1,1.4-0.1,2.4
				c0,0.8,0,1.5,0.1,1.6c0,0.1,0.2,0.2,0.4,0.2c0.7,0,2.2-0.6,2.4-1.3C284.8,156.3,284.8,155.4,284.8,154.5z"/>
		</g>
	</g>
	<g transform="matrix(0.708661,0,0,0.708661,0,0)">
		<line vector-effect="none" class="st3" x1="344.6" y1="152.4" x2="344.6" y2="179.1"/>
	</g>
	<g transform="matrix(0.708661,0,0,0.708661,0,0)">
		<g class="st1">
			<path d="M344.1,152.7c0-1.9,1.7-6.2,7.3-6.2c2.1,0,3.7,1.2,3.7,3.1c0,1.2-1.2,6.2-7.3,6.2C345.7,155.8,344.1,154.7,344.1,152.7z
				 M353.9,149.5c0-0.3-0.1-0.5-0.2-0.7c-0.3-0.4-0.6-0.8-1.3-0.8c-0.8,0-1.9,0.4-3.7,1.4c-2.6,1.5-3.4,2.5-3.4,3.3
				c0,0.3,0.1,0.5,0.2,0.7c0.3,0.4,0.7,0.8,1.5,0.8c0.8,0,2-0.4,3.6-1.5C353.1,151.1,353.9,150.2,353.9,149.5z"/>
		</g>
	</g>
	<g transform="matrix(0.708661,0,0,0.708661,0,0)">
		<line vector-effect="none" class="st3" x1="411.6" y1="152.4" x2="411.6" y2="179.1"/>
	</g>
	<g transform="matrix(0.708661,0,0,0.708661,0,0)">
		<g class="st1">
			<path d="M411.1,152.7c0-1.9,1.7-6.2,7.3-6.2c2.1,0,3.7,1.2,3.7,3.1c0,1.2-1.2,6.2-7.3,6.2C412.7,155.8,411.1,154.7,411.1,152.7z
				 M420.9,149.5c0-0.3-0.1-0.5-0.2-0.7c-0.3-0.4-0.6-0.8-1.3-0.8c-0.8,0-1.9,0.4-3.7,1.4c-2.6,1.5-3.4,2.5-3.4,3.3
				c0,0.3,0.1,0.5,0.2,0.7c0.3,0.4,0.7,0.8,1.5,0.8c0.8,0,2-0.4,3.6-1.5C420.1,151.1,420.9,150.2,420.9,149.5z"/>
		</g>
	</g>
	<g transform="matrix(0.708661,0,0,0.708661,0,0)">
		<g class="st1">
			<path d="M407.6,147.7c-0.3,0.1-0.4,0.7-0.4,0.9v3c0,0.4,0.2,0.6,0.4,0.6c0.2-0.1,0.8-0.3,0.8-0.3c0.1,0,0.1,0,0.2,0
				c0.1,0,0.2,0.1,0.2,0.3v2.3c0,0.2-0.2,0.4-0.4,0.5c0,0-0.7,0.3-0.9,0.4c-0.2,0.1-0.4,0.5-0.4,0.7v4.5c0,0.2-0.2,0.4-0.5,0.4
				c-0.2,0-0.4-0.2-0.4-0.4v-4c0-0.2-0.2-0.6-0.4-0.6c0,0-0.1,0-0.1,0l-2,0.8c-0.2,0.1-0.3,0.3-0.3,0.7v4.5c0,0.2-0.2,0.4-0.5,0.4
				c-0.2,0-0.4-0.2-0.4-0.4V158c0-0.2-0.2-0.5-0.4-0.5c0,0-0.1,0-0.1,0c-0.3,0.1-0.7,0.3-0.7,0.3c0,0-0.1,0-0.1,0
				c-0.2,0-0.3-0.1-0.3-0.3v-2.3c0-0.2,0.2-0.4,0.4-0.5c0,0,0.7-0.3,0.9-0.4c0.2-0.1,0.4-0.4,0.4-0.7v-3.2c0-0.3-0.2-0.6-0.4-0.6
				c0,0-0.1,0-0.1,0c-0.2,0.1-0.7,0.3-0.7,0.3c0,0-0.1,0-0.1,0c-0.2,0-0.3-0.1-0.3-0.3v-2.3c0-0.2,0.2-0.4,0.4-0.5
				c0,0,0.6-0.3,0.8-0.4c0.2-0.1,0.4-0.4,0.4-0.9v-1.3v-3c0-0.2,0.2-0.4,0.5-0.4c0.2,0,0.4,0.2,0.4,0.4v3.8c0,0.3,0.1,0.6,0.4,0.6
				c0.5-0.1,1.6-0.6,2-0.8c0.3-0.2,0.4-0.6,0.4-0.9v-4.2c0-0.2,0.2-0.4,0.5-0.4c0.3,0,0.4,0.2,0.4,0.4v3.9c0,0.3,0.2,0.4,0.4,0.4
				c0.2,0,0.8-0.3,0.8-0.3c0.1,0,0.1,0,0.2,0c0.1,0,0.2,0.1,0.2,0.3v2.3c0,0.2-0.2,0.4-0.4,0.5C408.5,147.4,407.9,147.6,407.6,147.7
				z M406.4,150.5c0-0.9-0.1-1.7-0.1-1.8c-0.1-0.1-0.3-0.2-0.5-0.2c-0.8,0-2.3,0.7-2.3,1.2c-0.1,0.3-0.1,1.4-0.1,2.4
				c0,0.8,0,1.5,0.1,1.6c0,0.1,0.2,0.2,0.4,0.2c0.7,0,2.2-0.6,2.4-1.3C406.3,152.3,406.4,151.4,406.4,150.5z"/>
		</g>
	</g>
	<g transform="matrix(0.708661,0,0,0.708661,0,0)">
		<line vector-effect="none" class="st3" x1="466.1" y1="148.4" x2="466.1" y2="175.1"/>
	</g>
	<g transform="matrix(0.708661,0,0,0.708661,0,0)">
		<g class="st1">
			<path d="M465.6,148.7c0-1.9,1.7-6.2,7.3-6.2c2.1,0,3.7,1.2,3.7,3.1c0,1.2-1.2,6.2-7.3,6.2C467.2,151.8,465.6,150.7,465.6,148.7z
				 M475.4,145.5c0-0.3-0.1-0.5-0.2-0.7c-0.3-0.4-0.6-0.8-1.3-0.8c-0.8,0-1.9,0.4-3.7,1.4c-2.6,1.5-3.4,2.5-3.4,3.3
				c0,0.3,0.1,0.5,0.2,0.7c0.3,0.4,0.7,0.8,1.5,0.8c0.8,0,2-0.4,3.6-1.5C474.6,147.1,475.4,146.2,475.4,145.5z"/>
		</g>
	</g>
	<g transform="matrix(0.708661,0,0,0.708661,0,0)">
		<line vector-effect="none" class="st0" x1="529.2" y1="143.1" x2="546.2" y2="143.1"/>
	</g>
	<g transform="matrix(0.708661,0,0,0.708661,0,0)">
		<line vector-effect="none" class="st3" x1="532.7" y1="144.4" x2="532.7" y2="171.1"/>
	</g>
	<g transform="matrix(0.708661,0,0,0.708661,0,0)">
		<g class="st1">
			<path d="M532.2,144.7c0-1.9,1.7-6.2,7.3-6.2c2.1,0,3.7,1.2,3.7,3.1c0,1.2-1.2,6.2-7.3,6.2C533.7,147.8,532.2,146.7,532.2,144.7z
				 M541.9,141.5c0-0.3-0.1-0.5-0.2-0.7c-0.3-0.4-0.6-0.8-1.3-0.8c-0.8,0-1.9,0.4-3.7,1.4c-2.6,1.5-3.4,2.5-3.4,3.3
				c0,0.3,0.1,0.5,0.2,0.7c0.3,0.4,0.7,0.8,1.5,0.8c0.8,0,2-0.4,3.6-1.5C541.2,143.1,541.9,142.2,541.9,141.5z"/>
		</g>
	</g>
	<g transform="matrix(0.708661,0,0,0.708661,0,0)">
		<line vector-effect="none" class="st0" x1="583.7" y1="143.1" x2="600.7" y2="143.1"/>
	</g>
	<g transform="matrix(0.708661,0,0,0.708661,0,0)">
		<line vector-effect="none" class="st3" x1="587.2" y1="144.4" x2="587.2" y2="171.1"/>
	</g>
	<g transform="matrix(0.708661,0,0,0.708661,0,0)">
		<g class="st1">
			<path d="M586.7,144.7c0-1.9,1.7-6.2,7.3-6.2c2.1,0,3.7,1.2,3.7,3.1c0,1.2-1.2,6.2-7.3,6.2C588.3,147.8,586.7,146.7,586.7,144.7z
				 M596.5,141.5c0-0.3-0.1-0.5-0.2-0.7c-0.3-0.4-0.6-0.8-1.3-0.8c-0.8,0-1.9,0.4-3.7,1.4c-2.6,1.5-3.4,2.5-3.4,3.3
				c0,0.3,0.1,0.5,0.2,0.7c0.3,0.4,0.7,0.8,1.5,0.8c0.8,0,2-0.4,3.6-1.5C595.7,143.1,596.5,142.2,596.5,141.5z"/>
		</g>
	</g>
	<g transform="matrix(0.708661,0,0,0.708661,0,0)">
		<g class="st1">
			<path d="M581.2,139.7c-0.3,0.1-0.4,0.7-0.4,0.9v3c0,0.4,0.2,0.6,0.4,0.6c0.2-0.1,0.8-0.3,0.8-0.3c0.1,0,0.1,0,0.2,0
				c0.1,0,0.2,0.1,0.2,0.3v2.3c0,0.2-0.2,0.4-0.4,0.5c0,0-0.7,0.3-0.9,0.4c-0.2,0.1-0.4,0.5-0.4,0.7v4.5c0,0.2-0.2,0.4-0.5,0.4
				c-0.2,0-0.4-0.2-0.4-0.4v-4c0-0.2-0.2-0.6-0.4-0.6c0,0-0.1,0-0.1,0l-2,0.8c-0.2,0.1-0.3,0.3-0.3,0.7v4.5c0,0.2-0.2,0.4-0.5,0.4
				c-0.2,0-0.4-0.2-0.4-0.4V150c0-0.2-0.2-0.5-0.4-0.5c0,0-0.1,0-0.1,0c-0.3,0.1-0.7,0.3-0.7,0.3c0,0-0.1,0-0.1,0
				c-0.2,0-0.3-0.1-0.3-0.3v-2.3c0-0.2,0.2-0.4,0.4-0.5c0,0,0.7-0.3,0.9-0.4c0.2-0.1,0.4-0.4,0.4-0.7v-3.2c0-0.3-0.2-0.6-0.4-0.6
				c0,0-0.1,0-0.1,0c-0.2,0.1-0.7,0.3-0.7,0.3c0,0-0.1,0-0.1,0c-0.2,0-0.3-0.1-0.3-0.3v-2.3c0-0.2,0.2-0.4,0.4-0.5
				c0,0,0.6-0.3,0.8-0.4c0.2-0.1,0.4-0.4,0.4-0.9v-1.3v-3c0-0.2,0.2-0.4,0.5-0.4c0.2,0,0.4,0.2,0.4,0.4v3.8c0,0.3,0.1,0.6,0.4,0.6
				c0.5-0.1,1.6-0.6,2-0.8c0.3-0.2,0.4-0.6,0.4-0.9v-4.2c0-0.2,0.2-0.4,0.5-0.4c0.3,0,0.4,0.2,0.4,0.4v3.9c0,0.3,0.2,0.4,0.4,0.4
				c0.2,0,0.8-0.3,0.8-0.3c0.1,0,0.1,0,0.2,0c0.1,0,0.2,0.1,0.2,0.3v2.3c0,0.2-0.2,0.4-0.4,0.5C582,139.4,581.4,139.6,581.2,139.7z
				 M579.9,142.5c0-0.9-0.1-1.7-0.1-1.8c-0.1-0.1-0.3-0.2-0.5-0.2c-0.8,0-2.3,0.7-2.3,1.2c-0.1,0.3-0.1,1.4-0.1,2.4
				c0,0.8,0,1.5,0.1,1.6c0,0.1,0.2,0.2,0.4,0.2c0.7,0,2.2-0.6,2.4-1.3C579.9,144.3,579.9,143.4,579.9,142.5z"/>
		</g>
	</g>
	<g transform="matrix(0.708661,0,0,0.708661,0,0)">
		<line vector-effect="none" class="st0" x1="650.2" y1="143.1" x2="667.2" y2="143.1"/>
	</g>
	<g transform="matrix(0.708661,0,0,0.708661,0,0)">
		<line vector-effect="none" class="st3" x1="653.7" y1="140.4" x2="653.7" y2="167.1"/>
	</g>
	<g transform="matrix(0.708661,0,0,0.708661,0,0)">
		<g class="st1">
			<path d="M653.2,140.7c0-1.9,1.7-6.2,7.3-6.2c2.1,0,3.7,1.2,3.7,3.1c0,1.2-1.2,6.2-7.3,6.2C654.8,143.8,653.2,142.6,653.2,140.7z
				 M663,137.5c0-0.3-0.1-0.5-0.2-0.7c-0.3-0.4-0.6-0.8-1.3-0.8c-0.8,0-1.9,0.4-3.7,1.4c-2.6,1.5-3.4,2.5-3.4,3.3
				c0,0.3,0.1,0.5,0.2,0.7c0.3,0.4,0.7,0.8,1.5,0.8c0.8,0,2-0.4,3.6-1.5C662.2,139.1,663,138.2,663,137.5z"/>
		</g>
	</g>
	<g transform="matrix(0.708661,0,0,0.708661,0,0)">
		<line vector-effect="none" class="st0" x1="704.7" y1="143.1" x2="721.7" y2="143.1"/>
	</g>
	<g transform="matrix(0.708661,0,0,0.708661,0,0)">
		<line vector-effect="none" class="st3" x1="708.2" y1="140.4" x2="708.2" y2="167.1"/>
	</g>
	<g transform="matrix(0.708661,0,0,0.708661,0,0)">
		<g class="st1">
			<path d="M707.7,140.7c0-1.9,1.7-6.2,7.3-6.2c2.1,0,3.7,1.2,3.7,3.1c0,1.2-1.2,6.2-7.3,6.2C709.3,143.8,707.7,142.6,707.7,140.7z
				 M717.5,137.5c0-0.3-0.1-0.5-0.2-0.7c-0.3-0.4-0.6-0.8-1.3-0.8c-0.8,0-1.9,0.4-3.7,1.4c-2.6,1.5-3.4,2.5-3.4,3.3
				c0,0.3,0.1,0.5,0.2,0.7c0.3,0.4,0.7,0.8,1.5,0.8c0.8,0,2-0.4,3.6-1.5C716.7,139.1,717.5,138.2,717.5,137.5z"/>
		</g>
	</g>
	<g transform="matrix(0.708661,0,0,0.708661,0,0)">
		<g class="st1">
			<path d="M702.2,135.7c-0.3,0.1-0.4,0.7-0.4,0.9v3c0,0.4,0.2,0.6,0.4,0.6c0.2-0.1,0.8-0.3,0.8-0.3c0.1,0,0.1,0,0.2,0
				c0.1,0,0.2,0.1,0.2,0.3v2.3c0,0.2-0.2,0.4-0.4,0.5c0,0-0.7,0.3-0.9,0.4c-0.2,0.1-0.4,0.5-0.4,0.7v4.5c0,0.2-0.2,0.4-0.5,0.4
				c-0.2,0-0.4-0.2-0.4-0.4v-4c0-0.2-0.2-0.6-0.4-0.6c0,0-0.1,0-0.1,0l-2,0.8c-0.2,0.1-0.3,0.3-0.3,0.7v4.5c0,0.2-0.2,0.4-0.5,0.4
				c-0.2,0-0.4-0.2-0.4-0.4V146c0-0.2-0.2-0.5-0.4-0.5c0,0-0.1,0-0.1,0c-0.3,0.1-0.7,0.3-0.7,0.3c0,0-0.1,0-0.1,0
				c-0.2,0-0.3-0.1-0.3-0.3v-2.3c0-0.2,0.2-0.4,0.4-0.5c0,0,0.7-0.3,0.9-0.4c0.2-0.1,0.4-0.4,0.4-0.7v-3.2c0-0.3-0.2-0.6-0.4-0.6
				c0,0-0.1,0-0.1,0c-0.2,0.1-0.7,0.3-0.7,0.3c0,0-0.1,0-0.1,0c-0.2,0-0.3-0.1-0.3-0.3v-2.3c0-0.2,0.2-0.4,0.4-0.5
				c0,0,0.6-0.3,0.8-0.4c0.2-0.1,0.4-0.4,0.4-0.9v-1.3v-3c0-0.2,0.2-0.4,0.5-0.4c0.2,0,0.4,0.2,0.4,0.4v3.8c0,0.3,0.1,0.6,0.4,0.6
				c0.5-0.1,1.6-0.6,2-0.8c0.3-0.2,0.4-0.6,0.4-0.9v-4.2c0-0.2,0.2-0.4,0.5-0.4c0.3,0,0.4,0.2,0.4,0.4v3.9c0,0.3,0.2,0.4,0.4,0.4
				c0.2,0,0.8-0.3,0.8-0.3c0.1,0,0.1,0,0.2,0c0.1,0,0.2,0.1,0.2,0.3v2.3c0,0.2-0.2,0.4-0.4,0.5C703.1,135.3,702.5,135.6,702.2,135.7
				z M701,138.5c0-0.9-0.1-1.7-0.1-1.8c-0.1-0.1-0.3-0.2-0.5-0.2c-0.8,0-2.3,0.7-2.3,1.2c-0.1,0.3-0.1,1.4-0.1,2.4
				c0,0.8,0,1.5,0.1,1.6c0,0.1,0.2,0.2,0.4,0.2c0.7,0,2.2-0.6,2.4-1.3C700.9,140.3,701,139.4,701,138.5z"/>
		</g>
	</g>
	<g transform="matrix(0.708661,0,0,0.708661,0,0)">
		<line vector-effect="none" class="st0" x1="43" y1="249.2" x2="60" y2="249.2"/>
	</g>
	<g transform="matrix(0.708661,0,0,0.708661,0,0)">
		<line vector-effect="none" class="st0" x1="43" y1="241.2" x2="60" y2="241.2"/>
	</g>
	<g transform="matrix(0.708661,0,0,0.708661,0,0)">
		<line vector-effect="none" class="st3" x1="46.5" y1="242.4" x2="46.5" y2="273.2"/>
	</g>
	<g transform="matrix(0.708661,0,0,0.708661,0,0)">
		<g class="st1">
			<path d="M46,242.7c0-1.9,1.7-6.2,7.3-6.2c2.1,0,3.7,1.2,3.7,3.1c0,1.2-1.2,6.2-7.3,6.2C47.6,245.8,46,244.7,46,242.7z
				 M55.8,239.5c0-0.3-0.1-0.5-0.2-0.7c-0.3-0.4-0.6-0.8-1.3-0.8c-0.8,0-1.9,0.4-3.7,1.4c-2.6,1.5-3.4,2.5-3.4,3.3
				c0,0.3,0.1,0.5,0.2,0.7c0.3,0.4,0.7,0.8,1.5,0.8c0.8,0,2-0.4,3.6-1.5C55,241.2,55.8,240.3,55.8,239.5z"/>
		</g>
	</g>
	<g transform="matrix(0.708661,0,0,0.708661,0,0)">
		<line vector-effect="none" class="st0" x1="97" y1="249.2" x2="114" y2="249.2"/>
	</g>
	<g transform="matrix(0.708661,0,0,0.708661,0,0)">
		<line vector-effect="none" class="st0" x1="97" y1="241.2" x2="114" y2="241.2"/>
	</g>
	<g transform="matrix(0.708661,0,0,0.708661,0,0)">
		<line vector-effect="none" class="st3" x1="100.5" y1="238.4" x2="100.5" y2="273.2"/>
	</g>
	<g transform="matrix(0.708661,0,0,0.708661,0,0)">
		<g class="st1">
			<path d="M100,238.7c0-1.9,1.7-6.2,7.3-6.2c2.1,0,3.7,1.2,3.7,3.1c0,1.2-1.2,6.2-7.3,6.2C101.6,241.8,100,240.7,100,238.7z
				 M109.8,235.5c0-0.3-0.1-0.5-0.2-0.7c-0.3-0.4-0.6-0.8-1.3-0.8c-0.8,0-1.9,0.4-3.7,1.4c-2.6,1.5-3.4,2.5-3.4,3.3
				c0,0.3,0.1,0.5,0.2,0.7c0.3,0.4,0.7,0.8,1.5,0.8c0.8,0,2-0.4,3.6-1.5C109,237.2,109.8,236.3,109.8,235.5z"/>
		</g>
	</g>
	<g transform="matrix(0.708661,0,0,0.708661,0,0)">
		<line vector-effect="none" class="st0" x1="166.1" y1="249.2" x2="183.1" y2="249.2"/>
	</g>
	<g transform="matrix(0.708661,0,0,0.708661,0,0)">
		<line vector-effect="none" class="st0" x1="166.1" y1="241.2" x2="183.1" y2="241.2"/>
	</g>
	<g transform="matrix(0.708661,0,0,0.708661,0,0)">
		<line vector-effect="none" class="st3" x1="169.6" y1="238.4" x2="169.6" y2="273.2"/>
	</g>
	<g transform="matrix(0.708661,0,0,0.708661,0,0)">
		<g class="st1">
			<path d="M169.1,238.7c0-1.9,1.7-6.2,7.3-6.2c2.1,0,3.7,1.2,3.7,3.1c0,1.2-1.2,6.2-7.3,6.2C170.6,241.8,169.1,240.7,169.1,238.7z
				 M178.8,235.5c0-0.3-0.1-0.5-0.2-0.7c-0.3-0.4-0.6-0.8-1.3-0.8c-0.8,0-1.9,0.4-3.7,1.4c-2.6,1.5-3.4,2.5-3.4,3.3
				c0,0.3,0.1,0.5,0.2,0.7c0.3,0.4,0.7,0.8,1.5,0.8c0.8,0,2-0.4,3.6-1.5C178.1,237.2,178.8,236.3,178.8,235.5z"/>
		</g>
	</g>
	<g transform="matrix(0.708661,0,0,0.708661,0,0)">
		<g class="st1">
			<path d="M163.6,233.7c-0.3,0.1-0.4,0.7-0.4,0.9v3c0,0.4,0.2,0.6,0.4,0.6c0.2-0.1,0.8-0.3,0.8-0.3c0.1,0,0.1,0,0.2,0
				c0.1,0,0.2,0.1,0.2,0.3v2.3c0,0.2-0.2,0.4-0.4,0.5c0,0-0.7,0.3-0.9,0.4c-0.2,0.1-0.4,0.5-0.4,0.7v4.5c0,0.2-0.2,0.4-0.5,0.4
				c-0.2,0-0.4-0.2-0.4-0.4v-4c0-0.2-0.2-0.6-0.4-0.6c0,0-0.1,0-0.1,0l-2,0.8c-0.2,0.1-0.3,0.3-0.3,0.7v4.5c0,0.2-0.2,0.4-0.5,0.4
				c-0.2,0-0.4-0.2-0.4-0.4V244c0-0.2-0.2-0.5-0.4-0.5c0,0-0.1,0-0.1,0c-0.3,0.1-0.7,0.3-0.7,0.3c0,0-0.1,0-0.1,0
				c-0.2,0-0.3-0.1-0.3-0.3v-2.3c0-0.2,0.2-0.4,0.4-0.5c0,0,0.7-0.3,0.9-0.4c0.2-0.1,0.4-0.4,0.4-0.7v-3.2c0-0.3-0.2-0.6-0.4-0.6
				c0,0-0.1,0-0.1,0c-0.2,0.1-0.7,0.3-0.7,0.3c0,0-0.1,0-0.1,0c-0.2,0-0.3-0.1-0.3-0.3v-2.3c0-0.2,0.2-0.4,0.4-0.5
				c0,0,0.6-0.3,0.8-0.4c0.2-0.1,0.4-0.4,0.4-0.9v-1.3v-3c0-0.2,0.2-0.4,0.5-0.4c0.2,0,0.4,0.2,0.4,0.4v3.8c0,0.3,0.1,0.6,0.4,0.6
				c0.5-0.1,1.6-0.6,2-0.8c0.3-0.2,0.4-0.6,0.4-0.9v-4.2c0-0.2,0.2-0.4,0.5-0.4c0.3,0,0.4,0.2,0.4,0.4v3.9c0,0.3,0.2,0.4,0.4,0.4
				c0.2,0,0.8-0.3,0.8-0.3c0.1,0,0.1,0,0.2,0c0.1,0,0.2,0.1,0.2,0.3v2.3c0,0.2-0.2,0.4-0.4,0.5C164.4,233.4,163.8,233.6,163.6,233.7
				z M162.3,236.6c0-0.9-0.1-1.7-0.1-1.8c-0.1-0.1-0.3-0.2-0.5-0.2c-0.8,0-2.3,0.7-2.3,1.2c-0.1,0.3-0.1,1.4-0.1,2.4
				c0,0.8,0,1.5,0.1,1.6c0,0.1,0.2,0.2,0.4,0.2c0.7,0,2.2-0.6,2.4-1.3C162.2,238.3,162.3,237.4,162.3,236.6z"/>
		</g>
	</g>
	<g transform="matrix(0.708661,0,0,0.708661,0,0)">
		<line vector-effect="none" class="st0" x1="220.1" y1="249.2" x2="237.1" y2="249.2"/>
	</g>
	<g transform="matrix(0.708661,0,0,0.708661,0,0)">
		<line vector-effect="none" class="st0" x1="220.1" y1="241.2" x2="237.1" y2="241.2"/>
	</g>
	<g transform="matrix(0.708661,0,0,0.708661,0,0)">
		<line vector-effect="none" class="st0" x1="220.1" y1="233.2" x2="237.1" y2="233.2"/>
	</g>
	<g transform="matrix(0.708661,0,0,0.708661,0,0)">
		<line vector-effect="none" class="st3" x1="223.6" y1="234.4" x2="223.6" y2="273.2"/>
	</g>
	<g transform="matrix(0.708661,0,0,0.708661,0,0)">
		<g class="st1">
			<path d="M223.1,234.7c0-1.9,1.7-6.2,7.3-6.2c2.1,0,3.7,1.2,3.7,3.1c0,1.2-1.2,6.2-7.3,6.2C224.6,237.8,223.1,236.7,223.1,234.7z
				 M232.8,231.5c0-0.3-0.1-0.5-0.2-0.7c-0.3-0.4-0.6-0.8-1.3-0.8c-0.8,0-1.9,0.4-3.7,1.4c-2.6,1.5-3.4,2.5-3.4,3.3
				c0,0.3,0.1,0.5,0.2,0.7c0.3,0.4,0.7,0.8,1.5,0.8c0.8,0,2-0.4,3.6-1.5C232.1,233.2,232.8,232.3,232.8,231.5z"/>
		</g>
	</g>
	<g transform="matrix(0.708661,0,0,0.708661,0,0)">
		<line vector-effect="none" class="st0" x1="288.3" y1="249.2" x2="305.3" y2="249.2"/>
	</g>
	<g transform="matrix(0.708661,0,0,0.708661,0,0)">
		<line vector-effect="none" class="st0" x1="288.3" y1="241.2" x2="305.3" y2="241.2"/>
	</g>
	<g transform="matrix(0.708661,0,0,0.708661,0,0)">
		<line vector-effect="none" class="st0" x1="288.3" y1="233.2" x2="305.3" y2="233.2"/>
	</g>
	<g transform="matrix(0.708661,0,0,0.708661,0,0)">
		<line vector-effect="none" class="st3" x1="291.8" y1="230.4" x2="291.8" y2="273.2"/>
	</g>
	<g transform="matrix(0.708661,0,0,0.708661,0,0)">
		<g class="st1">
			<path d="M291.3,230.7c0-1.9,1.7-6.2,7.3-6.2c2.1,0,3.7,1.2,3.7,3.1c0,1.2-1.2,6.2-7.3,6.2C292.9,233.8,291.3,232.7,291.3,230.7z
				 M301.1,227.5c0-0.3-0.1-0.5-0.2-0.7c-0.3-0.4-0.6-0.8-1.3-0.8c-0.8,0-1.9,0.4-3.7,1.4c-2.6,1.5-3.4,2.5-3.4,3.3
				c0,0.3,0.1,0.5,0.2,0.7c0.3,0.4,0.7,0.8,1.5,0.8c0.8,0,2-0.4,3.6-1.5C300.3,229.2,301.1,228.3,301.1,227.5z"/>
		</g>
	</g>
	<g transform="matrix(0.708661,0,0,0.708661,0,0)">
		<g class="st1">
			<path d="M279.8,216c0-0.6,0.5-0.9,1-0.9c0.3,0,0.6,0.2,0.6,0.5c0,0.6-0.2,8.3-0.2,9c0,0.2,0.1,0.4,0.4,0.5c0.1,0,0.1,0,0.2,0
				c0.3,0,0.5-0.3,0.7-0.4c0.4-0.2,0.7-0.4,1.1-0.4c0.2-0.1,0.4-0.1,0.7-0.1c1.5,0.1,2.9,1.2,2.9,3.1c0,1.5-1,3.4-3.8,5.4
				c-0.8,0.5-1.6,1.4-2.5,2c0,0-0.1,0.1-0.2,0.1c-0.1,0-0.2,0-0.3-0.2C280,234.3,279.8,216,279.8,216z M281.7,232.2
				c0.1,0,0.2,0,0.3-0.1c1-0.6,1.9-1.6,2.3-2.4c0.4-0.7,0.5-1.3,0.5-1.9c0-0.6-0.2-1.2-0.5-1.5c-0.2-0.2-0.5-0.4-0.8-0.4
				c-0.3,0-0.5,0.1-0.8,0.2c-0.4,0.3-1.3,1-1.4,1.3c0,0.1-0.1,0.5-0.1,1c0,1.3,0.1,3.2,0.1,3.2C281.3,231.9,281.4,232.2,281.7,232.2
				z"/>
		</g>
	</g>
	<g transform="matrix(0.708661,0,0,0.708661,0,0)">
		<line vector-effect="none" class="st0" x1="342.4" y1="249.2" x2="359.4" y2="249.2"/>
	</g>
	<g transform="matrix(0.708661,0,0,0.708661,0,0)">
		<line vector-effect="none" class="st0" x1="342.4" y1="241.2" x2="359.4" y2="241.2"/>
	</g>
	<g transform="matrix(0.708661,0,0,0.708661,0,0)">
		<line vector-effect="none" class="st0" x1="342.4" y1="233.2" x2="359.4" y2="233.2"/>
	</g>
	<g transform="matrix(0.708661,0,0,0.708661,0,0)">
		<line vector-effect="none" class="st3" x1="345.9" y1="234.4" x2="345.9" y2="273.2"/>
	</g>
	<g transform="matrix(0.708661,0,0,0.708661,0,0)">
		<g class="st1">
			<path d="M345.4,234.7c0-1.9,1.7-6.2,7.3-6.2c2.1,0,3.7,1.2,3.7,3.1c0,1.2-1.2,6.2-7.3,6.2C346.9,237.8,345.4,236.7,345.4,234.7z
				 M355.1,231.5c0-0.3-0.1-0.5-0.2-0.7c-0.3-0.4-0.6-0.8-1.3-0.8c-0.8,0-1.9,0.4-3.7,1.4c-2.6,1.5-3.4,2.5-3.4,3.3
				c0,0.3,0.1,0.5,0.2,0.7c0.3,0.4,0.7,0.8,1.5,0.8c0.8,0,2-0.4,3.6-1.5C354.4,233.2,355.1,232.3,355.1,231.5z"/>
		</g>
	</g>
	<g transform="matrix(0.708661,0,0,0.708661,0,0)">
		<line vector-effect="none" class="st0" x1="410.4" y1="249.2" x2="427.4" y2="249.2"/>
	</g>
	<g transform="matrix(0.708661,0,0,0.708661,0,0)">
		<line vector-effect="none" class="st0" x1="410.4" y1="241.2" x2="427.4" y2="241.2"/>
	</g>
	<g transform="matrix(0.708661,0,0,0.708661,0,0)">
		<line vector-effect="none" class="st0" x1="410.4" y1="233.2" x2="427.4" y2="233.2"/>
	</g>
	<g transform="matrix(0.708661,0,0,0.708661,0,0)">
		<line vector-effect="none" class="st3" x1="413.9" y1="234.4" x2="413.9" y2="273.2"/>
	</g>
	<g transform="matrix(0.708661,0,0,0.708661,0,0)">
		<g class="st1">
			<path d="M413.4,234.7c0-1.9,1.7-6.2,7.3-6.2c2.1,0,3.7,1.2,3.7,3.1c0,1.2-1.2,6.2-7.3,6.2C414.9,237.8,413.4,236.7,413.4,234.7z
				 M423.1,231.5c0-0.3-0.1-0.5-0.2-0.7c-0.3-0.4-0.6-0.8-1.3-0.8c-0.8,0-1.9,0.4-3.7,1.4c-2.6,1.5-3.4,2.5-3.4,3.3
				c0,0.3,0.1,0.5,0.2,0.7c0.3,0.4,0.7,0.8,1.5,0.8c0.8,0,2-0.4,3.6-1.5C422.4,233.2,423.1,232.3,423.1,231.5z"/>
		</g>
	</g>
	<g transform="matrix(0.708661,0,0,0.708661,0,0)">
		<g class="st1">
			<path d="M401.9,220c0-0.6,0.5-0.9,1-0.9c0.3,0,0.6,0.2,0.6,0.5c0,0.6-0.2,8.3-0.2,9c0,0.2,0.1,0.4,0.4,0.5c0.1,0,0.1,0,0.2,0
				c0.3,0,0.5-0.3,0.7-0.4c0.4-0.2,0.7-0.4,1.1-0.4c0.2-0.1,0.4-0.1,0.7-0.1c1.5,0.1,2.9,1.2,2.9,3.1c0,1.5-1,3.4-3.8,5.4
				c-0.8,0.5-1.6,1.4-2.5,2c0,0-0.1,0.1-0.2,0.1s-0.2,0-0.3-0.2C402,238.3,401.9,220,401.9,220z M403.7,236.2c0.1,0,0.2,0,0.3-0.1
				c1-0.6,1.9-1.6,2.3-2.4c0.4-0.7,0.5-1.3,0.5-1.9c0-0.6-0.2-1.2-0.5-1.5c-0.2-0.2-0.5-0.4-0.8-0.4c-0.3,0-0.5,0.1-0.8,0.2
				c-0.4,0.3-1.3,1-1.4,1.3c0,0.1-0.1,0.5-0.1,1c0,1.3,0.1,3.2,0.1,3.2C403.4,235.9,403.4,236.2,403.7,236.2z"/>
		</g>
	</g>
	<g transform="matrix(0.708661,0,0,0.708661,0,0)">
		<line vector-effect="none" class="st0" x1="464.6" y1="249.2" x2="481.7" y2="249.2"/>
	</g>
	<g transform="matrix(0.708661,0,0,0.708661,0,0)">
		<line vector-effect="none" class="st0" x1="464.6" y1="241.2" x2="481.7" y2="241.2"/>
	</g>
	<g transform="matrix(0.708661,0,0,0.708661,0,0)">
		<line vector-effect="none" class="st3" x1="468.1" y1="238.4" x2="468.1" y2="273.2"/>
	</g>
	<g transform="matrix(0.708661,0,0,0.708661,0,0)">
		<g class="st1">
			<path d="M467.6,238.7c0-1.9,1.7-6.2,7.3-6.2c2.1,0,3.7,1.2,3.7,3.1c0,1.2-1.2,6.2-7.3,6.2C469.2,241.8,467.6,240.7,467.6,238.7z
				 M477.4,235.5c0-0.3-0.1-0.5-0.2-0.7c-0.3-0.4-0.6-0.8-1.3-0.8c-0.8,0-1.9,0.4-3.7,1.4c-2.6,1.5-3.4,2.5-3.4,3.3
				c0,0.3,0.1,0.5,0.2,0.7c0.3,0.4,0.7,0.8,1.5,0.8c0.8,0,2-0.4,3.6-1.5C476.6,237.2,477.4,236.3,477.4,235.5z"/>
		</g>
	</g>
	<g transform="matrix(0.708661,0,0,0.708661,0,0)">
		<line vector-effect="none" class="st0" x1="530.7" y1="249.2" x2="547.7" y2="249.2"/>
	</g>
	<g transform="matrix(0.708661,0,0,0.708661,0,0)">
		<line vector-effect="none" class="st0" x1="530.7" y1="241.2" x2="547.7" y2="241.2"/>
	</g>
	<g transform="matrix(0.708661,0,0,0.708661,0,0)">
		<line vector-effect="none" class="st3" x1="534.2" y1="242.4" x2="534.2" y2="273.2"/>
	</g>
	<g transform="matrix(0.708661,0,0,0.708661,0,0)">
		<g class="st1">
			<path d="M533.7,242.7c0-1.9,1.7-6.2,7.3-6.2c2.1,0,3.7,1.2,3.7,3.1c0,1.2-1.2,6.2-7.3,6.2C535.2,245.8,533.7,244.7,533.7,242.7z
				 M543.4,239.5c0-0.3-0.1-0.5-0.2-0.7c-0.3-0.4-0.6-0.8-1.3-0.8c-0.8,0-1.9,0.4-3.7,1.4c-2.6,1.5-3.4,2.5-3.4,3.3
				c0,0.3,0.1,0.5,0.2,0.7c0.3,0.4,0.7,0.8,1.5,0.8c0.8,0,2-0.4,3.6-1.5C542.7,241.2,543.4,240.3,543.4,239.5z"/>
		</g>
	</g>
	<g transform="matrix(0.708661,0,0,0.708661,0,0)">
		<line vector-effect="none" class="st0" x1="584.9" y1="249.2" x2="601.9" y2="249.2"/>
	</g>
	<g transform="matrix(0.708661,0,0,0.708661,0,0)">
		<line vector-effect="none" class="st0" x1="584.9" y1="241.2" x2="601.9" y2="241.2"/>
	</g>
	<g transform="matrix(0.708661,0,0,0.708661,0,0)">
		<line vector-effect="none" class="st3" x1="588.4" y1="242.4" x2="588.4" y2="273.2"/>
	</g>
	<g transform="matrix(0.708661,0,0,0.708661,0,0)">
		<g class="st1">
			<path d="M587.9,242.7c0-1.9,1.7-6.2,7.3-6.2c2.1,0,3.7,1.2,3.7,3.1c0,1.2-1.2,6.2-7.3,6.2C589.5,245.8,587.9,244.7,587.9,242.7z
				 M597.7,239.5c0-0.3-0.1-0.5-0.2-0.7c-0.3-0.4-0.6-0.8-1.3-0.8c-0.8,0-1.9,0.4-3.7,1.4c-2.6,1.5-3.4,2.5-3.4,3.3
				c0,0.3,0.1,0.5,0.2,0.7c0.3,0.4,0.7,0.8,1.5,0.8c0.8,0,2-0.4,3.6-1.5C596.9,241.2,597.7,240.3,597.7,239.5z"/>
		</g>
	</g>
	<g transform="matrix(0.708661,0,0,0.708661,0,0)">
		<g class="st1">
			<path d="M576.4,228c0-0.6,0.5-0.9,1-0.9c0.3,0,0.6,0.2,0.6,0.5c0,0.6-0.2,8.3-0.2,9c0,0.2,0.1,0.4,0.4,0.5c0.1,0,0.1,0,0.2,0
				c0.3,0,0.5-0.3,0.7-0.4c0.4-0.2,0.7-0.4,1.1-0.4c0.2-0.1,0.4-0.1,0.7-0.1c1.5,0.1,2.9,1.2,2.9,3.1c0,1.5-1,3.4-3.8,5.4
				c-0.8,0.5-1.6,1.4-2.5,2c0,0-0.1,0.1-0.2,0.1c-0.1,0-0.2,0-0.3-0.2C576.6,246.3,576.4,228,576.4,228z M578.3,244.2
				c0.1,0,0.2,0,0.3-0.1c1-0.6,1.9-1.6,2.3-2.4c0.4-0.7,0.5-1.3,0.5-1.9c0-0.6-0.2-1.2-0.5-1.5c-0.2-0.2-0.5-0.4-0.8-0.4
				c-0.3,0-0.5,0.1-0.8,0.2c-0.4,0.3-1.3,1-1.4,1.3c0,0.1-0.1,0.5-0.1,1c0,1.3,0.1,3.2,0.1,3.2C577.9,243.9,578,244.2,578.3,244.2z"
				/>
		</g>
	</g>
	<g transform="matrix(0.708661,0,0,0.708661,0,0)">
		<line vector-effect="none" class="st0" x1="651" y1="249.2" x2="668" y2="249.2"/>
	</g>
	<g transform="matrix(0.708661,0,0,0.708661,0,0)">
		<line vector-effect="none" class="st3" x1="654.5" y1="246.4" x2="654.5" y2="273.2"/>
	</g>
	<g transform="matrix(0.708661,0,0,0.708661,0,0)">
		<g class="st1">
			<path d="M654,246.7c0-1.9,1.7-6.2,7.3-6.2c2.1,0,3.7,1.2,3.7,3.1c0,1.2-1.2,6.2-7.3,6.2C655.5,249.8,654,248.7,654,246.7z
				 M663.7,243.5c0-0.3-0.1-0.5-0.2-0.7c-0.3-0.4-0.6-0.8-1.3-0.8c-0.8,0-1.9,0.4-3.7,1.4c-2.6,1.5-3.4,2.5-3.4,3.3
				c0,0.3,0.1,0.5,0.2,0.7c0.3,0.4,0.7,0.8,1.5,0.8c0.8,0,2-0.4,3.6-1.5C663,245.2,663.7,244.3,663.7,243.5z"/>
		</g>
	</g>
	<g transform="matrix(0.708661,0,0,0.708661,0,0)">
		<line vector-effect="none" class="st0" x1="705.2" y1="249.2" x2="722.2" y2="249.2"/>
	</g>
	<g transform="matrix(0.708661,0,0,0.708661,0,0)">
		<line vector-effect="none" class="st3" x1="708.7" y1="246.4" x2="708.7" y2="273.2"/>
	</g>
	<g transform="matrix(0.708661,0,0,0.708661,0,0)">
		<g class="st1">
			<path d="M708.2,246.7c0-1.9,1.7-6.2,7.3-6.2c2.1,0,3.7,1.2,3.7,3.1c0,1.2-1.2,6.2-7.3,6.2C709.8,249.8,708.2,248.7,708.2,246.7z
				 M718,243.5c0-0.3-0.1-0.5-0.2-0.7c-0.3-0.4-0.6-0.8-1.3-0.8c-0.8,0-1.9,0.4-3.7,1.4c-2.6,1.5-3.4,2.5-3.4,3.3
				c0,0.3,0.1,0.5,0.2,0.7c0.3,0.4,0.7,0.8,1.5,0.8c0.8,0,2-0.4,3.6-1.5C717.2,245.2,718,244.3,718,243.5z"/>
		</g>
	</g>
	<g transform="matrix(0.708661,0,0,0.708661,0,0)">
		<g class="st1">
			<path d="M696.7,232c0-0.6,0.5-0.9,1-0.9c0.3,0,0.6,0.2,0.6,0.5c0,0.6-0.2,8.3-0.2,9c0,0.2,0.1,0.4,0.4,0.5c0.1,0,0.1,0,0.2,0
				c0.3,0,0.5-0.3,0.7-0.4c0.4-0.2,0.7-0.4,1.1-0.4c0.2-0.1,0.4-0.1,0.7-0.1c1.5,0.1,2.9,1.2,2.9,3.1c0,1.5-1,3.4-3.8,5.4
				c-0.8,0.5-1.6,1.4-2.5,2c0,0-0.1,0.1-0.2,0.1c-0.1,0-0.2,0-0.3-0.2C696.8,250.3,696.7,232,696.7,232z M698.6,248.2
				c0.1,0,0.2,0,0.3-0.1c1-0.6,1.9-1.6,2.3-2.4c0.4-0.7,0.5-1.3,0.5-1.9c0-0.6-0.2-1.2-0.5-1.5c-0.2-0.2-0.5-0.4-0.8-0.4
				c-0.3,0-0.5,0.1-0.8,0.2c-0.4,0.3-1.3,1-1.4,1.3c0,0.1-0.1,0.5-0.1,1c0,1.3,0.1,3.2,0.1,3.2C698.2,247.9,698.3,248.2,698.6,248.2
				z"/>
		</g>
	</g>
	<g transform="matrix(0.708661,0,0,0.708661,0,0)">
		<line vector-effect="none" class="st0" x1="43" y1="355.2" x2="60" y2="355.2"/>
	</g>
	<g transform="matrix(0.708661,0,0,0.708661,0,0)">
		<line vector-effect="none" class="st3" x1="46.5" y1="356.4" x2="46.5" y2="383.2"/>
	</g>
	<g transform="matrix(0.708661,0,0,0.708661,0,0)">
		<g class="st1">
			<path d="M46,356.8c0-1.9,1.7-6.2,7.3-6.2c2.1,0,3.7,1.2,3.7,3.1c0,1.2-1.2,6.2-7.3,6.2C47.6,359.8,46,358.7,46,356.8z
				 M55.8,353.6c0-0.3-0.1-0.5-0.2-0.7c-0.3-0.4-0.6-0.8-1.3-0.8c-0.8,0-1.9,0.4-3.7,1.4c-2.6,1.5-3.4,2.5-3.4,3.3
				c0,0.3,0.1,0.5,0.2,0.7c0.3,0.4,0.7,0.8,1.5,0.8c0.8,0,2-0.4,3.6-1.5C55,355.2,55.8,354.3,55.8,353.6z"/>
		</g>
	</g>
	<g transform="matrix(0.708661,0,0,0.708661,0,0)">
		<line vector-effect="none" class="st3" x1="101.3" y1="360.4" x2="101.3" y2="387.2"/>
	</g>
	<g transform="matrix(0.708661,0,0,0.708661,0,0)">
		<g class="st1">
			<path d="M100.8,360.8c0-1.9,1.7-6.2,7.3-6.2c2.1,0,3.7,1.2,3.7,3.1c0,1.2-1.2,6.2-7.3,6.2C102.4,363.8,100.8,362.7,100.8,360.8z
				 M110.5,357.6c0-0.3-0.1-0.5-0.2-0.7c-0.3-0.4-0.6-0.8-1.3-0.8c-0.8,0-1.9,0.4-3.7,1.4c-2.6,1.5-3.4,2.5-3.4,3.3
				c0,0.3,0.1,0.5,0.2,0.7c0.3,0.4,0.7,0.8,1.5,0.8c0.8,0,2-0.4,3.6-1.5C109.8,359.2,110.5,358.3,110.5,357.6z"/>
		</g>
	</g>
	<g transform="matrix(0.708661,0,0,0.708661,0,0)">
		<line vector-effect="none" class="st3" x1="167.8" y1="360.4" x2="167.8" y2="387.2"/>
	</g>
	<g transform="matrix(0.708661,0,0,0.708661,0,0)">
		<g class="st1">
			<path d="M167.3,360.8c0-1.9,1.7-6.2,7.3-6.2c2.1,0,3.7,1.2,3.7,3.1c0,1.2-1.2,6.2-7.3,6.2C168.9,363.8,167.3,362.7,167.3,360.8z
				 M177.1,357.6c0-0.3-0.1-0.5-0.2-0.7c-0.3-0.4-0.6-0.8-1.3-0.8c-0.8,0-1.9,0.4-3.7,1.4c-2.6,1.5-3.4,2.5-3.4,3.3
				c0,0.3,0.1,0.5,0.2,0.7c0.3,0.4,0.7,0.8,1.5,0.8c0.8,0,2-0.4,3.6-1.5C176.3,359.2,177.1,358.3,177.1,357.6z"/>
		</g>
	</g>
	<g transform="matrix(0.708661,0,0,0.708661,0,0)">
		<g class="st1">
			<path d="M157.8,346c0-0.6,0.5-0.9,1-0.9c0.3,0,0.6,0.2,0.6,0.5c0,0.6-0.2,8.3-0.2,9c0,0.2,0.1,0.4,0.4,0.5c0.1,0,0.1,0,0.2,0
				c0.3,0,0.5-0.3,0.7-0.4c0.4-0.2,0.7-0.4,1.1-0.4c0.2-0.1,0.4-0.1,0.7-0.1c1.5,0.1,2.9,1.2,2.9,3.1c0,1.5-1,3.4-3.8,5.4
				c-0.8,0.5-1.6,1.4-2.5,2c0,0-0.1,0.1-0.2,0.1c-0.1,0-0.2,0-0.3-0.2C157.9,364.3,157.8,346,157.8,346z M159.7,362.3
				c0.1,0,0.2,0,0.3-0.1c1-0.6,1.9-1.6,2.3-2.4c0.4-0.7,0.5-1.3,0.5-1.9c0-0.6-0.2-1.2-0.5-1.5c-0.2-0.2-0.5-0.4-0.8-0.4
				c-0.3,0-0.5,0.1-0.8,0.2c-0.4,0.3-1.3,1-1.4,1.3c0,0.1-0.1,0.5-0.1,1c0,1.3,0.1,3.2,0.1,3.2C159.3,362,159.4,362.3,159.7,362.3z"
				/>
		</g>
	</g>
	<g transform="matrix(0.708661,0,0,0.708661,0,0)">
		<line vector-effect="none" class="st3" x1="222.6" y1="364.4" x2="222.6" y2="391.2"/>
	</g>
	<g transform="matrix(0.708661,0,0,0.708661,0,0)">
		<g class="st1">
			<path d="M222.1,364.8c0-1.9,1.7-6.2,7.3-6.2c2.1,0,3.7,1.2,3.7,3.1c0,1.2-1.2,6.2-7.3,6.2C223.6,367.8,222.1,366.7,222.1,364.8z
				 M231.8,361.6c0-0.3-0.1-0.5-0.2-0.7c-0.3-0.4-0.6-0.8-1.3-0.8c-0.8,0-1.9,0.4-3.7,1.4c-2.6,1.5-3.4,2.5-3.4,3.3
				c0,0.3,0.1,0.5,0.2,0.7c0.3,0.4,0.7,0.8,1.5,0.8c0.8,0,2-0.4,3.6-1.5C231.1,363.2,231.8,362.3,231.8,361.6z"/>
		</g>
	</g>
	<g transform="matrix(0.708661,0,0,0.708661,0,0)">
		<line vector-effect="none" class="st3" x1="289.3" y1="364.4" x2="289.3" y2="391.2"/>
	</g>
	<g transform="matrix(0.708661,0,0,0.708661,0,0)">
		<g class="st1">
			<path d="M288.8,364.8c0-1.9,1.7-6.2,7.3-6.2c2.1,0,3.7,1.2,3.7,3.1c0,1.2-1.2,6.2-7.3,6.2C290.4,367.8,288.8,366.7,288.8,364.8z
				 M298.6,361.6c0-0.3-0.1-0.5-0.2-0.7c-0.3-0.4-0.6-0.8-1.3-0.8c-0.8,0-1.9,0.4-3.7,1.4c-2.6,1.5-3.4,2.5-3.4,3.3
				c0,0.3,0.1,0.5,0.2,0.7c0.3,0.4,0.7,0.8,1.5,0.8c0.8,0,2-0.4,3.6-1.5C297.8,363.2,298.6,362.3,298.6,361.6z"/>
		</g>
	</g>
	<g transform="matrix(0.708661,0,0,0.708661,0,0)">
		<g class="st1">
			<path d="M279.3,350c0-0.6,0.5-0.9,1-0.9c0.3,0,0.6,0.2,0.6,0.5c0,0.6-0.2,8.3-0.2,9c0,0.2,0.1,0.4,0.4,0.5c0.1,0,0.1,0,0.2,0
				c0.3,0,0.5-0.3,0.7-0.4c0.4-0.2,0.7-0.4,1.1-0.4c0.2-0.1,0.4-0.1,0.7-0.1c1.5,0.1,2.9,1.2,2.9,3.1c0,1.5-1,3.4-3.8,5.4
				c-0.8,0.5-1.6,1.4-2.5,2c0,0-0.1,0.1-0.2,0.1c-0.1,0-0.2,0-0.3-0.2C279.5,368.3,279.3,350,279.3,350z M281.2,366.3
				c0.1,0,0.2,0,0.3-0.1c1-0.6,1.9-1.6,2.3-2.4c0.4-0.7,0.5-1.3,0.5-1.9c0-0.6-0.2-1.2-0.5-1.5c-0.2-0.2-0.5-0.4-0.8-0.4
				c-0.3,0-0.5,0.1-0.8,0.2c-0.4,0.3-1.3,1-1.4,1.3c0,0.1-0.1,0.5-0.1,1c0,1.3,0.1,3.2,0.1,3.2C280.8,366,280.9,366.3,281.2,366.3z"
				/>
		</g>
	</g>
	<g transform="matrix(0.708661,0,0,0.708661,0,0)">
		<line vector-effect="none" class="st3" x1="343.9" y1="368.4" x2="343.9" y2="395.2"/>
	</g>
	<g transform="matrix(0.708661,0,0,0.708661,0,0)">
		<g class="st1">
			<path d="M343.4,368.8c0-1.9,1.7-6.2,7.3-6.2c2.1,0,3.7,1.2,3.7,3.1c0,1.2-1.2,6.2-7.3,6.2C344.9,371.8,343.4,370.7,343.4,368.8z
				 M353.1,365.6c0-0.3-0.1-0.5-0.2-0.7c-0.3-0.4-0.6-0.8-1.3-0.8c-0.8,0-1.9,0.4-3.7,1.4c-2.6,1.5-3.4,2.5-3.4,3.3
				c0,0.3,0.1,0.5,0.2,0.7c0.3,0.4,0.7,0.8,1.5,0.8c0.8,0,2-0.4,3.6-1.5C352.4,367.2,353.1,366.3,353.1,365.6z"/>
		</g>
	</g>
	<g transform="matrix(0.708661,0,0,0.708661,0,0)">
		<line vector-effect="none" class="st3" x1="410.6" y1="368.4" x2="410.6" y2="395.2"/>
	</g>
	<g transform="matrix(0.708661,0,0,0.708661,0,0)">
		<g class="st1">
			<path d="M410.1,368.8c0-1.9,1.7-6.2,7.3-6.2c2.1,0,3.7,1.2,3.7,3.1c0,1.2-1.2,6.2-7.3,6.2C411.7,371.8,410.1,370.7,410.1,368.8z
				 M419.9,365.6c0-0.3-0.1-0.5-0.2-0.7c-0.3-0.4-0.6-0.8-1.3-0.8c-0.8,0-1.9,0.4-3.7,1.4c-2.6,1.5-3.4,2.5-3.4,3.3
				c0,0.3,0.1,0.5,0.2,0.7c0.3,0.4,0.7,0.8,1.5,0.8c0.8,0,2-0.4,3.6-1.5C419.1,367.2,419.9,366.3,419.9,365.6z"/>
		</g>
	</g>
	<g transform="matrix(0.708661,0,0,0.708661,0,0)">
		<g class="st1">
			<path d="M400.6,354c0-0.6,0.5-0.9,1-0.9c0.3,0,0.6,0.2,0.6,0.5c0,0.6-0.2,8.3-0.2,9c0,0.2,0.1,0.4,0.4,0.5c0.1,0,0.1,0,0.2,0
				c0.3,0,0.5-0.3,0.7-0.4c0.4-0.2,0.7-0.4,1.1-0.4c0.2-0.1,0.4-0.1,0.7-0.1c1.5,0.1,2.9,1.2,2.9,3.1c0,1.5-1,3.4-3.8,5.4
				c-0.8,0.5-1.6,1.4-2.5,2c0,0-0.1,0.1-0.2,0.1s-0.2,0-0.3-0.2C400.8,372.3,400.6,354,400.6,354z M402.5,370.3c0.1,0,0.2,0,0.3-0.1
				c1-0.6,1.9-1.6,2.3-2.4c0.4-0.7,0.5-1.3,0.5-1.9c0-0.6-0.2-1.2-0.5-1.5c-0.2-0.2-0.5-0.4-0.8-0.4c-0.3,0-0.5,0.1-0.8,0.2
				c-0.4,0.3-1.3,1-1.4,1.3c0,0.1-0.1,0.5-0.1,1c0,1.3,0.1,3.2,0.1,3.2C402.1,370,402.2,370.3,402.5,370.3z"/>
		</g>
	</g>
	<g transform="matrix(0.708661,0,0,0.708661,0,0)">
		<line vector-effect="none" class="st3" x1="465.4" y1="372.5" x2="465.4" y2="399.2"/>
	</g>
	<g transform="matrix(0.708661,0,0,0.708661,0,0)">
		<g class="st1">
			<path d="M464.9,372.8c0-1.9,1.7-6.2,7.3-6.2c2.1,0,3.7,1.2,3.7,3.1c0,1.2-1.2,6.2-7.3,6.2C466.5,375.8,464.9,374.7,464.9,372.8z
				 M474.7,369.6c0-0.3-0.1-0.5-0.2-0.7c-0.3-0.4-0.6-0.8-1.3-0.8c-0.8,0-1.9,0.4-3.7,1.4c-2.6,1.5-3.4,2.5-3.4,3.3
				c0,0.3,0.1,0.5,0.2,0.7c0.3,0.4,0.7,0.8,1.5,0.8c0.8,0,2-0.4,3.6-1.5C473.9,371.2,474.7,370.3,474.7,369.6z"/>
		</g>
	</g>
	<g transform="matrix(0.708661,0,0,0.708661,0,0)">
		<line vector-effect="none" class="st3" x1="531.9" y1="376.5" x2="531.9" y2="403.2"/>
	</g>
	<g transform="matrix(0.708661,0,0,0.708661,0,0)">
		<g class="st1">
			<path d="M531.4,376.8c0-1.9,1.7-6.2,7.3-6.2c2.1,0,3.7,1.2,3.7,3.1c0,1.2-1.2,6.2-7.3,6.2C533,379.8,531.4,378.7,531.4,376.8z
				 M541.2,373.6c0-0.3-0.1-0.5-0.2-0.7c-0.3-0.4-0.6-0.8-1.3-0.8c-0.8,0-1.9,0.4-3.7,1.4c-2.6,1.5-3.4,2.5-3.4,3.3
				c0,0.3,0.1,0.5,0.2,0.7c0.3,0.4,0.7,0.8,1.5,0.8c0.8,0,2-0.4,3.6-1.5C540.4,375.2,541.2,374.3,541.2,373.6z"/>
		</g>
	</g>
	<g transform="matrix(0.708661,0,0,0.708661,0,0)">
		<line vector-effect="none" class="st3" x1="586.7" y1="376.5" x2="586.7" y2="403.2"/>
	</g>
	<g transform="matrix(0.708661,0,0,0.708661,0,0)">
		<g class="st1">
			<path d="M586.2,376.8c0-1.9,1.7-6.2,7.3-6.2c2.1,0,3.7,1.2,3.7,3.1c0,1.2-1.2,6.2-7.3,6.2C587.8,379.8,586.2,378.7,586.2,376.8z
				 M596,373.6c0-0.3-0.1-0.5-0.2-0.7c-0.3-0.4-0.6-0.8-1.3-0.8c-0.8,0-1.9,0.4-3.7,1.4c-2.6,1.5-3.4,2.5-3.4,3.3
				c0,0.3,0.1,0.5,0.2,0.7c0.3,0.4,0.7,0.8,1.5,0.8c0.8,0,2-0.4,3.6-1.5C595.2,375.2,596,374.3,596,373.6z"/>
		</g>
	</g>
	<g transform="matrix(0.708661,0,0,0.708661,0,0)">
		<g class="st1">
			<path d="M576.7,362c0-0.6,0.5-0.9,1-0.9c0.3,0,0.6,0.2,0.6,0.5c0,0.6-0.2,8.3-0.2,9c0,0.2,0.1,0.4,0.4,0.5c0.1,0,0.1,0,0.2,0
				c0.3,0,0.5-0.3,0.7-0.4c0.4-0.2,0.7-0.4,1.1-0.4c0.2-0.1,0.4-0.1,0.7-0.1c1.5,0.1,2.9,1.2,2.9,3.1c0,1.5-1,3.4-3.8,5.4
				c-0.8,0.5-1.6,1.4-2.5,2c0,0-0.1,0.1-0.2,0.1c-0.1,0-0.2,0-0.3-0.2C576.8,380.3,576.7,362,576.7,362z M578.5,378.3
				c0.1,0,0.2,0,0.3-0.1c1-0.6,1.9-1.6,2.3-2.4c0.4-0.7,0.5-1.3,0.5-1.9c0-0.6-0.2-1.2-0.5-1.5c-0.2-0.2-0.5-0.4-0.8-0.4
				c-0.3,0-0.5,0.1-0.8,0.2c-0.4,0.3-1.3,1-1.4,1.3c0,0.1-0.1,0.5-0.1,1c0,1.3,0.1,3.2,0.1,3.2C578.2,378,578.3,378.3,578.5,378.3z"
				/>
		</g>
	</g>
	<g transform="matrix(0.708661,0,0,0.708661,0,0)">
		<line vector-effect="none" class="st3" x1="653.5" y1="380.5" x2="653.5" y2="407.2"/>
	</g>
	<g transform="matrix(0.708661,0,0,0.708661,0,0)">
		<g class="st1">
			<path d="M653,380.8c0-1.9,1.7-6.2,7.3-6.2c2.1,0,3.7,1.2,3.7,3.1c0,1.2-1.2,6.2-7.3,6.2C654.5,383.8,653,382.7,653,380.8z
				 M662.7,377.6c0-0.3-0.1-0.5-0.2-0.7c-0.3-0.4-0.6-0.8-1.3-0.8c-0.8,0-1.9,0.4-3.7,1.4c-2.6,1.5-3.4,2.5-3.4,3.3
				c0,0.3,0.1,0.5,0.2,0.7c0.3,0.4,0.7,0.8,1.5,0.8c0.8,0,2-0.4,3.6-1.5C662,379.2,662.7,378.3,662.7,377.6z"/>
		</g>
	</g>
	<g transform="matrix(0.708661,0,0,0.708661,0,0)">
		<line vector-effect="none" class="st3" x1="708" y1="380.5" x2="708" y2="407.2"/>
	</g>
	<g transform="matrix(0.708661,0,0,0.708661,0,0)">
		<g class="st1">
			<path d="M707.5,380.8c0-1.9,1.7-6.2,7.3-6.2c2.1,0,3.7,1.2,3.7,3.1c0,1.2-1.2,6.2-7.3,6.2C709,383.8,707.5,382.7,707.5,380.8z
				 M717.2,377.6c0-0.3-0.1-0.5-0.2-0.7c-0.3-0.4-0.6-0.8-1.3-0.8c-0.8,0-1.9,0.4-3.7,1.4c-2.6,1.5-3.4,2.5-3.4,3.3
				c0,0.3,0.1,0.5,0.2,0.7c0.3,0.4,0.7,0.8,1.5,0.8c0.8,0,2-0.4,3.6-1.5C716.5,379.2,717.2,378.3,717.2,377.6z"/>
		</g>
	</g>
	<g transform="matrix(0.708661,0,0,0.708661,0,0)">
		<g class="st1">
			<path d="M698,366c0-0.6,0.5-0.9,1-0.9c0.3,0,0.6,0.2,0.6,0.5c0,0.6-0.2,8.3-0.2,9c0,0.2,0.1,0.4,0.4,0.5c0.1,0,0.1,0,0.2,0
				c0.3,0,0.5-0.3,0.7-0.4c0.4-0.2,0.7-0.4,1.1-0.4c0.2-0.1,0.4-0.1,0.7-0.1c1.5,0.1,2.9,1.2,2.9,3.1c0,1.5-1,3.4-3.8,5.4
				c-0.8,0.5-1.6,1.4-2.5,2c0,0-0.1,0.1-0.2,0.1c-0.1,0-0.2,0-0.3-0.2C698.1,384.3,698,366,698,366z M699.8,382.3
				c0.1,0,0.2,0,0.3-0.1c1-0.6,1.9-1.6,2.3-2.4c0.4-0.7,0.5-1.3,0.5-1.9c0-0.6-0.2-1.2-0.5-1.5c-0.2-0.2-0.5-0.4-0.8-0.4
				c-0.3,0-0.5,0.1-0.8,0.2c-0.4,0.3-1.3,1-1.4,1.3c0,0.1-0.1,0.5-0.1,1c0,1.3,0.1,3.2,0.1,3.2C699.5,382,699.5,382.3,699.8,382.3z"
				/>
		</g>
	</g>
	<g transform="matrix(0.708661,0,0,0.708661,0,0)">
		<line vector-effect="none" class="st3" x1="56.5" y1="488" x2="56.5" y2="461.2"/>
	</g>
	<g transform="matrix(0.708661,0,0,0.708661,0,0)">
		<g class="st1">
			<path d="M46,490.8c0-1.9,1.7-6.2,7.3-6.2c2.1,0,3.7,1.2,3.7,3.1c0,1.2-1.2,6.2-7.3,6.2C47.6,493.9,46,492.8,46,490.8z
				 M55.8,487.6c0-0.3-0.1-0.5-0.2-0.7c-0.3-0.4-0.6-0.8-1.3-0.8c-0.8,0-1.9,0.4-3.7,1.4c-2.6,1.5-3.4,2.5-3.4,3.3
				c0,0.3,0.1,0.5,0.2,0.7c0.3,0.4,0.7,0.8,1.5,0.8c0.8,0,2-0.4,3.6-1.5C55,489.2,55.8,488.3,55.8,487.6z"/>
		</g>
	</g>
	<g transform="matrix(0.708661,0,0,0.708661,0,0)">
		<line vector-effect="none" class="st3" x1="122" y1="492" x2="122" y2="465.2"/>
	</g>
	<g transform="matrix(0.708661,0,0,0.708661,0,0)">
		<g class="st1">
			<path d="M111.5,494.8c0-1.9,1.7-6.2,7.3-6.2c2.1,0,3.7,1.2,3.7,3.1c0,1.2-1.2,6.2-7.3,6.2C113.1,497.9,111.5,496.8,111.5,494.8z
				 M121.3,491.6c0-0.3-0.1-0.5-0.2-0.7c-0.3-0.4-0.6-0.8-1.3-0.8c-0.8,0-1.9,0.4-3.7,1.4c-2.6,1.5-3.4,2.5-3.4,3.3
				c0,0.3,0.1,0.5,0.2,0.7c0.3,0.4,0.7,0.8,1.5,0.8c0.8,0,2-0.4,3.6-1.5C120.5,493.2,121.3,492.3,121.3,491.6z"/>
		</g>
	</g>
	<g transform="matrix(0.708661,0,0,0.708661,0,0)">
		<line vector-effect="none" class="st3" x1="199.6" y1="492" x2="199.6" y2="465.2"/>
	</g>
	<g transform="matrix(0.708661,0,0,0.708661,0,0)">
		<g class="st1">
			<path d="M189.1,494.8c0-1.9,1.7-6.2,7.3-6.2c2.1,0,3.7,1.2,3.7,3.1c0,1.2-1.2,6.2-7.3,6.2C190.6,497.9,189.1,496.8,189.1,494.8z
				 M198.8,491.6c0-0.3-0.1-0.5-0.2-0.7c-0.3-0.4-0.6-0.8-1.3-0.8c-0.8,0-1.9,0.4-3.7,1.4c-2.6,1.5-3.4,2.5-3.4,3.3
				c0,0.3,0.1,0.5,0.2,0.7c0.3,0.4,0.7,0.8,1.5,0.8c0.8,0,2-0.4,3.6-1.5C198.1,493.2,198.8,492.3,198.8,491.6z"/>
		</g>
	</g>
	<g transform="matrix(0.708661,0,0,0.708661,0,0)">
		<g class="st1">
			<path d="M179.6,480.1c0-0.6,0.5-0.9,1-0.9c0.3,0,0.6,0.2,0.6,0.5c0,0.6-0.2,8.3-0.2,9c0,0.2,0.1,0.4,0.4,0.5c0.1,0,0.1,0,0.2,0
				c0.3,0,0.5-0.3,0.7-0.4c0.4-0.2,0.7-0.4,1.1-0.4c0.2-0.1,0.4-0.1,0.7-0.1c1.5,0.1,2.9,1.2,2.9,3.1c0,1.5-1,3.4-3.8,5.4
				c-0.8,0.5-1.6,1.4-2.5,2c0,0-0.1,0.1-0.2,0.1c-0.1,0-0.2,0-0.3-0.2C179.7,498.4,179.6,480.1,179.6,480.1z M181.4,496.3
				c0.1,0,0.2,0,0.3-0.1c1-0.6,1.9-1.6,2.3-2.4c0.4-0.7,0.5-1.3,0.5-1.9c0-0.6-0.2-1.2-0.5-1.5c-0.2-0.2-0.5-0.4-0.8-0.4
				c-0.3,0-0.5,0.1-0.8,0.2c-0.4,0.3-1.3,1-1.4,1.3c0,0.1-0.1,0.5-0.1,1c0,1.3,0.1,3.2,0.1,3.2C181.1,496,181.1,496.3,181.4,496.3z"
				/>
		</g>
	</g>
	<g transform="matrix(0.708661,0,0,0.708661,0,0)">
		<line vector-effect="none" class="st3" x1="265.3" y1="496" x2="265.3" y2="469.2"/>
	</g>
	<g transform="matrix(0.708661,0,0,0.708661,0,0)">
		<g class="st1">
			<path d="M254.8,498.8c0-1.9,1.7-6.2,7.3-6.2c2.1,0,3.7,1.2,3.7,3.1c0,1.2-1.2,6.2-7.3,6.2C256.4,501.9,254.8,500.8,254.8,498.8z
				 M264.6,495.6c0-0.3-0.1-0.5-0.2-0.7c-0.3-0.4-0.6-0.8-1.3-0.8c-0.8,0-1.9,0.4-3.7,1.4c-2.6,1.5-3.4,2.5-3.4,3.3
				c0,0.3,0.1,0.5,0.2,0.7c0.3,0.4,0.7,0.8,1.5,0.8c0.8,0,2-0.4,3.6-1.5C263.8,497.2,264.6,496.3,264.6,495.6z"/>
		</g>
	</g>
	<g transform="matrix(0.708661,0,0,0.708661,0,0)">
		<line vector-effect="none" class="st3" x1="342.9" y1="496" x2="342.9" y2="469.2"/>
	</g>
	<g transform="matrix(0.708661,0,0,0.708661,0,0)">
		<g class="st1">
			<path d="M332.4,498.8c0-1.9,1.7-6.2,7.3-6.2c2.1,0,3.7,1.2,3.7,3.1c0,1.2-1.2,6.2-7.3,6.2C333.9,501.9,332.4,500.8,332.4,498.8z
				 M342.1,495.6c0-0.3-0.1-0.5-0.2-0.7c-0.3-0.4-0.6-0.8-1.3-0.8c-0.8,0-1.9,0.4-3.7,1.4c-2.6,1.5-3.4,2.5-3.4,3.3
				c0,0.3,0.1,0.5,0.2,0.7c0.3,0.4,0.7,0.8,1.5,0.8c0.8,0,2-0.4,3.6-1.5C341.4,497.2,342.1,496.3,342.1,495.6z"/>
		</g>
	</g>
	<g transform="matrix(0.708661,0,0,0.708661,0,0)">
		<g class="st1">
			<path d="M322.9,484.1c0-0.6,0.5-0.9,1-0.9c0.3,0,0.6,0.2,0.6,0.5c0,0.6-0.2,8.3-0.2,9c0,0.2,0.1,0.4,0.4,0.5c0.1,0,0.1,0,0.2,0
				c0.3,0,0.5-0.3,0.7-0.4c0.4-0.2,0.7-0.4,1.1-0.4c0.2-0.1,0.4-0.1,0.7-0.1c1.5,0.1,2.9,1.2,2.9,3.1c0,1.5-1,3.4-3.8,5.4
				c-0.8,0.5-1.6,1.4-2.5,2c0,0-0.1,0.1-0.2,0.1c-0.1,0-0.2,0-0.3-0.2C323,502.4,322.9,484.1,322.9,484.1z M324.7,500.3
				c0.1,0,0.2,0,0.3-0.1c1-0.6,1.9-1.6,2.3-2.4c0.4-0.7,0.5-1.3,0.5-1.9c0-0.6-0.2-1.2-0.5-1.5c-0.2-0.2-0.5-0.4-0.8-0.4
				c-0.3,0-0.5,0.1-0.8,0.2c-0.4,0.3-1.3,1-1.4,1.3c0,0.1-0.1,0.5-0.1,1c0,1.3,0.1,3.2,0.1,3.2C324.4,500,324.4,500.3,324.7,500.3z"
				/>
		</g>
	</g>
	<g transform="matrix(0.708661,0,0,0.708661,0,0)">
		<line vector-effect="none" class="st3" x1="408.4" y1="500" x2="408.4" y2="473.2"/>
	</g>
	<g transform="matrix(0.708661,0,0,0.708661,0,0)">
		<g class="st1">
			<path d="M397.9,502.8c0-1.9,1.7-6.2,7.3-6.2c2.1,0,3.7,1.2,3.7,3.1c0,1.2-1.2,6.2-7.3,6.2C399.4,505.9,397.9,504.8,397.9,502.8z
				 M407.6,499.6c0-0.3-0.1-0.5-0.2-0.7c-0.3-0.4-0.6-0.8-1.3-0.8c-0.8,0-1.9,0.4-3.7,1.4c-2.6,1.5-3.4,2.5-3.4,3.3
				c0,0.3,0.1,0.5,0.2,0.7c0.3,0.4,0.7,0.8,1.5,0.8c0.8,0,2-0.4,3.6-1.5C406.9,501.2,407.6,500.3,407.6,499.6z"/>
		</g>
	</g>
	<g transform="matrix(0.708661,0,0,0.708661,0,0)">
		<line vector-effect="none" class="st3" x1="485.9" y1="500" x2="485.9" y2="473.2"/>
	</g>
	<g transform="matrix(0.708661,0,0,0.708661,0,0)">
		<g class="st1">
			<path d="M475.4,502.8c0-1.9,1.7-6.2,7.3-6.2c2.1,0,3.7,1.2,3.7,3.1c0,1.2-1.2,6.2-7.3,6.2C477,505.9,475.4,504.8,475.4,502.8z
				 M485.2,499.6c0-0.3-0.1-0.5-0.2-0.7c-0.3-0.4-0.6-0.8-1.3-0.8c-0.8,0-1.9,0.4-3.7,1.4c-2.6,1.5-3.4,2.5-3.4,3.3
				c0,0.3,0.1,0.5,0.2,0.7c0.3,0.4,0.7,0.8,1.5,0.8c0.8,0,2-0.4,3.6-1.5C484.4,501.2,485.2,500.3,485.2,499.6z"/>
		</g>
	</g>
	<g transform="matrix(0.708661,0,0,0.708661,0,0)">
		<g class="st1">
			<path d="M465.9,488.1c0-0.6,0.5-0.9,1-0.9c0.3,0,0.6,0.2,0.6,0.5c0,0.6-0.2,8.3-0.2,9c0,0.2,0.1,0.4,0.4,0.5c0.1,0,0.1,0,0.2,0
				c0.3,0,0.5-0.3,0.7-0.4c0.4-0.2,0.7-0.4,1.1-0.4c0.2-0.1,0.4-0.1,0.7-0.1c1.5,0.1,2.9,1.2,2.9,3.1c0,1.5-1,3.4-3.8,5.4
				c-0.8,0.5-1.6,1.4-2.5,2c0,0-0.1,0.1-0.2,0.1s-0.2,0-0.3-0.2C466,506.4,465.9,488.1,465.9,488.1z M467.8,504.3
				c0.1,0,0.2,0,0.3-0.1c1-0.6,1.9-1.6,2.3-2.4c0.4-0.7,0.5-1.3,0.5-1.9c0-0.6-0.2-1.2-0.5-1.5c-0.2-0.2-0.5-0.4-0.8-0.4
				c-0.3,0-0.5,0.1-0.8,0.2c-0.4,0.3-1.3,1-1.4,1.3c0,0.1-0.1,0.5-0.1,1c0,1.3,0.1,3.2,0.1,3.2C467.4,504,467.5,504.3,467.8,504.3z"
				/>
		</g>
	</g>
	<g transform="matrix(0.708661,0,0,0.708661,0,0)">
		<line vector-effect="none" class="st3" x1="551.4" y1="504" x2="551.4" y2="477.2"/>
	</g>
	<g transform="matrix(0.708661,0,0,0.708661,0,0)">
		<g class="st1">
			<path d="M540.9,506.8c0-1.9,1.7-6.2,7.3-6.2c2.1,0,3.7,1.2,3.7,3.1c0,1.2-1.2,6.2-7.3,6.2C542.5,509.9,540.9,508.8,540.9,506.8z
				 M550.7,503.6c0-0.3-0.1-0.5-0.2-0.7c-0.3-0.4-0.6-0.8-1.3-0.8c-0.8,0-1.9,0.4-3.7,1.4c-2.6,1.5-3.4,2.5-3.4,3.3
				c0,0.3,0.1,0.5,0.2,0.7c0.3,0.4,0.7,0.8,1.5,0.8c0.8,0,2-0.4,3.6-1.5C549.9,505.2,550.7,504.3,550.7,503.6z"/>
		</g>
	</g>
	<g transform="matrix(0.708661,0,0,0.708661,0,0)">
		<line vector-effect="none" class="st0" x1="615.7" y1="509.2" x2="632.7" y2="509.2"/>
	</g>
	<g transform="matrix(0.708661,0,0,0.708661,0,0)">
		<line vector-effect="none" class="st3" x1="629.2" y1="508" x2="629.2" y2="481.2"/>
	</g>
	<g transform="matrix(0.708661,0,0,0.708661,0,0)">
		<g class="st1">
			<path d="M618.7,510.8c0-1.9,1.7-6.2,7.3-6.2c2.1,0,3.7,1.2,3.7,3.1c0,1.2-1.2,6.2-7.3,6.2C620.3,513.9,618.7,512.8,618.7,510.8z
				 M628.5,507.6c0-0.3-0.1-0.5-0.2-0.7c-0.3-0.4-0.6-0.8-1.3-0.8c-0.8,0-1.9,0.4-3.7,1.4c-2.6,1.5-3.4,2.5-3.4,3.3
				c0,0.3,0.1,0.5,0.2,0.7c0.3,0.4,0.7,0.8,1.5,0.8c0.8,0,2-0.4,3.6-1.5C627.7,509.2,628.5,508.3,628.5,507.6z"/>
		</g>
	</g>
	<g transform="matrix(0.708661,0,0,0.708661,0,0)">
		<g class="st1">
			<path d="M692.4,485.5H685c-0.5,0-0.8-0.4-0.8-0.8v-2.9c0-0.5,0.4-0.8,0.8-0.8h7.4c0.4,0,0.8,0.4,0.8,0.8v2.9
				C693.2,485.1,692.9,485.5,692.4,485.5z"/>
		</g>
	</g>
</g>
</svg>
