<?xml version="1.0" encoding="utf-8"?>
<!-- Generator: Adobe Illustrator 26.4.1, SVG Export Plug-In . SVG Version: 6.00 Build 0)  -->
<svg version="1.1" id="Layer_1" xmlns="http://www.w3.org/2000/svg" xmlns:xlink="http://www.w3.org/1999/xlink" x="0px" y="0px"
	 viewBox="0 0 540.3 213.8" style="enable-background:new 0 0 540.3 213.8;" xml:space="preserve">
<style type="text/css">
	.st0{fill:none;stroke:#000000;stroke-width:0.8861;stroke-linejoin:bevel;stroke-miterlimit:10;}
	.st1{enable-background:new    ;}
	.st2{fill:none;stroke:#000000;stroke-width:2.8355;stroke-linejoin:bevel;stroke-miterlimit:10;}
	.st3{fill:none;stroke:#000000;stroke-width:0.7089;stroke-linejoin:bevel;stroke-miterlimit:10;}
</style>
<g>
	<g transform="matrix(0.708661,0,0,0.708661,0,0)">
		<line vector-effect="none" class="st0" x1="191.6" y1="45.1" x2="191.6" y2="77.1"/>
	</g>
	<g transform="matrix(0.708661,0,0,0.708661,0,0)">
		<line vector-effect="none" class="st0" x1="334.6" y1="45.1" x2="334.6" y2="77.1"/>
	</g>
	<g transform="matrix(0.708661,0,0,0.708661,0,0)">
		<line vector-effect="none" class="st0" x1="476.7" y1="45.1" x2="476.7" y2="77.1"/>
	</g>
	<g transform="matrix(0.708661,0,0,0.708661,0,0)">
		<line vector-effect="none" class="st0" x1="618.9" y1="45.1" x2="618.9" y2="77.1"/>
	</g>
	<g transform="matrix(0.708661,0,0,0.708661,0,0)">
		<line vector-effect="none" class="st0" x1="761.7" y1="45.1" x2="761.7" y2="77.1"/>
	</g>
	<g transform="matrix(0.708661,0,0,0.708661,0,0)">
	</g>
	<g transform="matrix(0.708661,0,0,0.708661,251.575,386.777)">
	</g>
	<g transform="matrix(0.708661,0,0,0.708661,251.575,386.777)">
		<g class="st1">
			<path d="M-311-545.8h0.6v17.5c0,1.9-2.5,3.8-4.5,3.8c-1.2,0-2.2-0.7-2.2-1.9c0-2,2-3.8,4.5-3.8c0.7,0,1.2,0.2,1.6,0.5L-311-545.8
				z"/>
		</g>
		<g class="st1">
			<path d="M-303.3-531.5v-1.8h10.5v1.8H-303.3z M-292.7-528.9v1.9h-10.5v-1.9H-292.7z"/>
			<path d="M-279-539.7h0.7v13.2c0,0.4,0.3,0.8,0.7,0.8h2.1v0.9h-8.1v-0.9h1.7c0.5,0,0.8-0.5,0.8-0.9v-9.9c0-0.4-0.3-0.8-0.7-0.8
				h-2.4v-1C-282.3-538.4-280.7-538.9-279-539.7z"/>
			<path d="M-273.4-524.9v-0.9c0.2-0.3,0.7-1,4.5-5.6c1.1-1.3,1.8-2.8,1.8-4.4c0-1.6-0.5-2.8-2.2-2.8c-0.9,0-2.4,0.5-2.4,1.7
				c0,0.8,2.1,0.7,2.1,2.1c0,0.9-0.6,1.6-1.6,1.6c-1.4,0-1.7-1.3-1.7-2.4c0-2.6,2-4.1,4.5-4.1c2.4,0,4.4,1.4,4.4,3.9
				c0,1.7-0.9,3-2.2,4.1c-1.1,0.9-3.8,2.9-4.9,4.2l5.1,0c0.8,0,1.2-2.4,1.2-2.4h0.9l-0.3,5H-273.4z"/>
			<path d="M-262.6-532c0-3.2,1.3-7.5,5.6-7.5c4.1,0,5.4,4.6,5.4,7.5c0,3.1-1.3,7.5-5.5,7.5C-261.3-524.5-262.6-529.1-262.6-532z
				 M-257.2-525.6c2.1,0,2.1-3.8,2.1-6.5c0-3.2,0-6.5-2-6.5c-2.1,0-2.1,3.4-2.1,6.9C-259.2-529.4-259.2-525.6-257.2-525.6z"/>
		</g>
	</g>
	<g transform="matrix(0.708661,0,0,0.708661,251.575,386.777)">
	</g>
	<g transform="matrix(0.708661,0,0,0.708661,0,0)">
	</g>
	<g transform="matrix(0.708661,0,0,0.708661,0,0)">
		<line vector-effect="none" class="st0" x1="178.8" y1="151.1" x2="178.8" y2="183.1"/>
	</g>
	<g transform="matrix(0.708661,0,0,0.708661,0,0)">
		<line vector-effect="none" class="st0" x1="324.1" y1="151.1" x2="324.1" y2="183.1"/>
	</g>
	<g transform="matrix(0.708661,0,0,0.708661,0,0)">
		<line vector-effect="none" class="st0" x1="471.1" y1="151.1" x2="471.1" y2="183.1"/>
	</g>
	<g transform="matrix(0.708661,0,0,0.708661,0,0)">
		<line vector-effect="none" class="st0" x1="616.4" y1="151.1" x2="616.4" y2="183.1"/>
	</g>
	<g transform="matrix(0.708661,0,0,0.708661,0,0)">
		<line vector-effect="none" class="st0" x1="761.7" y1="151.1" x2="761.7" y2="183.1"/>
	</g>
	<g transform="matrix(0.708661,0,0,0.708661,0,0)">
		<line vector-effect="none" class="st0" x1="178.6" y1="257.2" x2="178.6" y2="289.2"/>
	</g>
	<g transform="matrix(0.708661,0,0,0.708661,0,0)">
		<line vector-effect="none" class="st0" x1="323.9" y1="257.2" x2="323.9" y2="289.2"/>
	</g>
	<g transform="matrix(0.708661,0,0,0.708661,0,0)">
		<line vector-effect="none" class="st0" x1="468.9" y1="257.2" x2="468.9" y2="289.2"/>
	</g>
	<g transform="matrix(0.708661,0,0,0.708661,0,0)">
		<line vector-effect="none" class="st0" x1="614.2" y1="257.2" x2="614.2" y2="289.2"/>
	</g>
	<g transform="matrix(0.708661,0,0,0.708661,0,0)">
		<line vector-effect="none" class="st0" x1="754.5" y1="257.2" x2="754.5" y2="289.2"/>
	</g>
	<g transform="matrix(0.708661,0,0,0.708661,0,0)">
		<line vector-effect="none" class="st2" x1="760.2" y1="257.2" x2="760.2" y2="289.2"/>
	</g>
	<g transform="matrix(0.708661,0,0,0.708661,0,0)">
	</g>
	<g transform="matrix(0.708661,0,0,0.708661,245.906,436.373)">
	</g>
	<g transform="matrix(0.708661,0,0,0.708661,245.906,436.373)">
		<g class="st1">
			<path d="M-297-559.5c0,0.4-0.2,0.7-0.5,0.7h-1.9v1.7c0,1,0.6,1.2,1,1.2c0.3,0,0.7,0.2,0.7,0.6c0,0.5-0.3,0.6-0.6,0.6h-7.5
				c-0.5,0-0.6-0.3-0.6-0.6c0-0.3,0.2-0.6,0.7-0.6c0.6,0,1.3-0.3,1.3-1.1v-1.8h-5.8c-0.4,0-0.6-0.4-0.6-0.7c0-0.1,0-0.2,0.1-0.3
				c0,0,0-0.1,0-0.1l0.2-0.3c0.9-1.3,3.6-5.7,3.6-9.6c0-0.5,0.4-0.6,0.7-0.6c0.3,0,2.1,0.1,2.6,0.1c0.6,0,2.3-0.1,2.5-0.1
				c0.3,0,0.5,0.2,0.5,0.5c0,0.1,0,0.1,0,0.1c-0.1,0.4-5.5,7.4-8.1,9.5h4.3v-2.5c0-0.4,0.2-0.6,0.3-0.7l3.8-3.6
				c0.2-0.2,0.3-0.3,0.6-0.3c0.4,0,0.4,0.3,0.4,0.5v6.6h1.9C-297.2-560.2-297-559.9-297-559.5z"/>
		</g>
	</g>
	<g transform="matrix(0.708661,0,0,0.708661,245.906,436.373)">
		<g class="st1">
			<path d="M-297-543.4c0,0.4-0.2,0.7-0.5,0.7h-1.9v1.7c0,1,0.6,1.2,1,1.2c0.3,0,0.7,0.2,0.7,0.6c0,0.5-0.3,0.6-0.6,0.6h-7.5
				c-0.5,0-0.6-0.3-0.6-0.6c0-0.3,0.2-0.6,0.7-0.6c0.6,0,1.3-0.3,1.3-1.1v-1.8h-5.8c-0.4,0-0.6-0.4-0.6-0.7c0-0.1,0-0.2,0.1-0.3
				c0,0,0-0.1,0-0.1l0.2-0.3c0.9-1.3,3.6-5.7,3.6-9.6c0-0.5,0.4-0.6,0.7-0.6c0.3,0,2.1,0.1,2.6,0.1c0.6,0,2.3-0.1,2.5-0.1
				c0.3,0,0.5,0.2,0.5,0.5c0,0.1,0,0.1,0,0.1c-0.1,0.4-5.5,7.4-8.1,9.5h4.3v-2.5c0-0.4,0.2-0.6,0.3-0.7l3.8-3.6
				c0.2-0.2,0.3-0.3,0.6-0.3c0.4,0,0.4,0.3,0.4,0.5v6.6h1.9C-297.2-544.1-297-543.8-297-543.4z"/>
		</g>
	</g>
	<g transform="matrix(0.708661,0,0,0.708661,245.906,436.373)">
	</g>
	<g transform="matrix(0.708661,0,0,0.708661,0,0)">
	</g>
	<g transform="matrix(0.708661,0,0,0.708661,0,0)">
		<line vector-effect="none" class="st3" x1="0" y1="77.1" x2="762.2" y2="77.1"/>
	</g>
	<g transform="matrix(0.708661,0,0,0.708661,0,0)">
		<line vector-effect="none" class="st3" x1="0" y1="69.1" x2="762.2" y2="69.1"/>
	</g>
	<g transform="matrix(0.708661,0,0,0.708661,0,0)">
		<line vector-effect="none" class="st3" x1="0" y1="61.1" x2="762.2" y2="61.1"/>
	</g>
	<g transform="matrix(0.708661,0,0,0.708661,0,0)">
		<line vector-effect="none" class="st3" x1="0" y1="53.1" x2="762.2" y2="53.1"/>
	</g>
	<g transform="matrix(0.708661,0,0,0.708661,0,0)">
		<line vector-effect="none" class="st3" x1="0" y1="45.1" x2="762.2" y2="45.1"/>
	</g>
	<g transform="matrix(0.708661,0,0,0.708661,0,0)">
		<g class="st1">
			<path d="M23,54c0,4.2-1.7,8.1-4.5,11.1c-3.4,3.6-7.5,6.1-11.8,8.2c-0.2,0.1-0.4,0.2-0.5,0.2c-0.3,0-0.4-0.2-0.4-0.4
				c0-0.3,0.2-0.4,0.5-0.6c4-2.3,7.3-5,9.2-8c2-3.1,2.7-6.9,2.7-10.2c0-5-1.5-8.4-4.9-8.4c-3.3,0-5.2,2.3-5.2,3.6
				c0,0.3,0.1,0.6,0.5,0.6c0.4,0,0.7-0.2,1.6-0.2c1.6,0,3.1,1.3,3.1,3.3c0,2-1.4,3.4-3.4,3.4c-2.6,0-3.9-2.2-3.9-4.8
				c0-3.1,2.5-7.1,8.1-7.1C19.6,44.7,23,48.4,23,54z M27.9,49.1c0,1-0.8,1.8-1.8,1.8c-1,0-1.8-0.8-1.8-1.8c0-1,0.8-1.8,1.8-1.8
				C27.1,47.3,27.9,48.1,27.9,49.1z M27.9,57.1c0,1-0.7,1.7-1.7,1.7c-1,0-1.7-0.7-1.7-1.7c0-1,0.7-1.7,1.7-1.7
				C27.2,55.4,27.9,56.1,27.9,57.1z"/>
		</g>
	</g>
	<g transform="matrix(0.708661,0,0,0.708661,0,0)">
		<line vector-effect="none" class="st3" x1="0" y1="183.1" x2="762.2" y2="183.1"/>
	</g>
	<g transform="matrix(0.708661,0,0,0.708661,0,0)">
		<line vector-effect="none" class="st3" x1="0" y1="175.1" x2="762.2" y2="175.1"/>
	</g>
	<g transform="matrix(0.708661,0,0,0.708661,0,0)">
		<line vector-effect="none" class="st3" x1="0" y1="167.1" x2="762.2" y2="167.1"/>
	</g>
	<g transform="matrix(0.708661,0,0,0.708661,0,0)">
		<line vector-effect="none" class="st3" x1="0" y1="159.1" x2="762.2" y2="159.1"/>
	</g>
	<g transform="matrix(0.708661,0,0,0.708661,0,0)">
		<line vector-effect="none" class="st3" x1="0" y1="151.1" x2="762.2" y2="151.1"/>
	</g>
	<g transform="matrix(0.708661,0,0,0.708661,0,0)">
		<g class="st1">
			<path d="M23,160c0,4.2-1.7,8.1-4.5,11.1c-3.4,3.6-7.5,6.1-11.8,8.2c-0.2,0.1-0.4,0.2-0.5,0.2c-0.3,0-0.4-0.2-0.4-0.4
				c0-0.3,0.2-0.4,0.5-0.6c4-2.3,7.3-5,9.2-8c2-3.1,2.7-6.9,2.7-10.2c0-5-1.5-8.4-4.9-8.4c-3.3,0-5.2,2.3-5.2,3.6
				c0,0.3,0.1,0.6,0.5,0.6c0.4,0,0.7-0.2,1.6-0.2c1.6,0,3.1,1.3,3.1,3.3c0,2-1.4,3.4-3.4,3.4c-2.6,0-3.9-2.2-3.9-4.8
				c0-3.1,2.5-7.1,8.1-7.1C19.6,150.7,23,154.5,23,160z M27.9,155.1c0,1-0.8,1.8-1.8,1.8c-1,0-1.8-0.8-1.8-1.8c0-1,0.8-1.8,1.8-1.8
				C27.1,153.4,27.9,154.1,27.9,155.1z M27.9,163.1c0,1-0.7,1.7-1.7,1.7c-1,0-1.7-0.7-1.7-1.7c0-1,0.7-1.7,1.7-1.7
				C27.2,161.4,27.9,162.1,27.9,163.1z"/>
		</g>
	</g>
	<g transform="matrix(0.708661,0,0,0.708661,0,0)">
		<line vector-effect="none" class="st3" x1="0" y1="289.2" x2="762.2" y2="289.2"/>
	</g>
	<g transform="matrix(0.708661,0,0,0.708661,0,0)">
		<line vector-effect="none" class="st3" x1="0" y1="281.2" x2="762.2" y2="281.2"/>
	</g>
	<g transform="matrix(0.708661,0,0,0.708661,0,0)">
		<line vector-effect="none" class="st3" x1="0" y1="273.2" x2="762.2" y2="273.2"/>
	</g>
	<g transform="matrix(0.708661,0,0,0.708661,0,0)">
		<line vector-effect="none" class="st3" x1="0" y1="265.2" x2="762.2" y2="265.2"/>
	</g>
	<g transform="matrix(0.708661,0,0,0.708661,0,0)">
		<line vector-effect="none" class="st3" x1="0" y1="257.2" x2="762.2" y2="257.2"/>
	</g>
	<g transform="matrix(0.708661,0,0,0.708661,0,0)">
		<g class="st1">
			<path d="M23,266.1c0,4.2-1.7,8.1-4.5,11.1c-3.4,3.6-7.5,6.1-11.8,8.2c-0.2,0.1-0.4,0.2-0.5,0.2c-0.3,0-0.4-0.2-0.4-0.4
				c0-0.3,0.2-0.4,0.5-0.6c4-2.3,7.3-5,9.2-8c2-3.1,2.7-6.9,2.7-10.2c0-5-1.5-8.4-4.9-8.4c-3.3,0-5.2,2.3-5.2,3.6
				c0,0.3,0.1,0.6,0.5,0.6c0.4,0,0.7-0.2,1.6-0.2c1.6,0,3.1,1.3,3.1,3.3c0,2-1.4,3.4-3.4,3.4c-2.6,0-3.9-2.2-3.9-4.8
				c0-3.1,2.5-7.1,8.1-7.1C19.6,256.8,23,260.5,23,266.1z M27.9,261.2c0,1-0.8,1.8-1.8,1.8c-1,0-1.8-0.8-1.8-1.8
				c0-1,0.8-1.8,1.8-1.8C27.1,259.4,27.9,260.2,27.9,261.2z M27.9,269.2c0,1-0.7,1.7-1.7,1.7c-1,0-1.7-0.7-1.7-1.7
				c0-1,0.7-1.7,1.7-1.7C27.2,267.4,27.9,268.2,27.9,269.2z"/>
		</g>
	</g>
	<g transform="matrix(0.708661,0,0,0.708661,0,0)">
		<line vector-effect="none" class="st0" x1="59.3" y1="85.1" x2="75.3" y2="85.1"/>
	</g>
	<g transform="matrix(0.708661,0,0,0.708661,0,0)">
		<line vector-effect="none" class="st3" x1="72" y1="83.9" x2="72" y2="57.1"/>
	</g>
	<g transform="matrix(0.708661,0,0,0.708661,0,0)">
		<g class="st1">
			<path d="M62,86.6c0-3.1,3.2-6,7.1-6c2.1,0,3.5,1.2,3.5,3c0,3-3.9,6-7.1,6C63.6,89.6,62,88.5,62,86.6z"/>
		</g>
	</g>
	<g transform="matrix(0.708661,0,0,0.708661,0,0)">
		<line vector-effect="none" class="st3" x1="104.5" y1="79.9" x2="104.5" y2="53.1"/>
	</g>
	<g transform="matrix(0.708661,0,0,0.708661,0,0)">
		<g class="st1">
			<path d="M94.5,82.6c0-3.1,3.2-6,7.1-6c2.1,0,3.5,1.2,3.5,3c0,3-3.9,6-7.1,6C96.1,85.6,94.5,84.5,94.5,82.6z"/>
		</g>
	</g>
	<g transform="matrix(0.708661,0,0,0.708661,0,0)">
		<line vector-effect="none" class="st3" x1="137" y1="79.9" x2="137" y2="53.1"/>
	</g>
	<g transform="matrix(0.708661,0,0,0.708661,0,0)">
		<g class="st1">
			<path d="M127,82.6c0-3.1,3.2-6,7.1-6c2.1,0,3.5,1.2,3.5,3c0,3-3.9,6-7.1,6C128.6,85.6,127,84.5,127,82.6z"/>
		</g>
	</g>
	<g transform="matrix(0.708661,0,0,0.708661,0,0)">
		<g class="st1">
			<path d="M123.5,77.7c-0.3,0.1-0.4,0.7-0.4,0.9v3c0,0.4,0.2,0.6,0.4,0.6c0.2-0.1,0.8-0.3,0.8-0.3c0.1,0,0.1,0,0.2,0
				c0.1,0,0.2,0.1,0.2,0.3v2.3c0,0.2-0.2,0.4-0.4,0.5c0,0-0.7,0.3-0.9,0.4s-0.4,0.5-0.4,0.7v4.5c0,0.2-0.2,0.4-0.5,0.4
				c-0.2,0-0.4-0.2-0.4-0.4v-4c0-0.2-0.2-0.6-0.4-0.6c0,0-0.1,0-0.1,0l-2,0.8c-0.2,0.1-0.3,0.3-0.3,0.7v4.5c0,0.2-0.2,0.4-0.5,0.4
				c-0.2,0-0.4-0.2-0.4-0.4V88c0-0.2-0.2-0.5-0.4-0.5c0,0-0.1,0-0.1,0c-0.3,0.1-0.7,0.3-0.7,0.3c0,0-0.1,0-0.1,0
				c-0.2,0-0.3-0.1-0.3-0.3v-2.3c0-0.2,0.2-0.4,0.4-0.5c0,0,0.7-0.3,0.9-0.4c0.2-0.1,0.4-0.4,0.4-0.7v-3.2c0-0.3-0.2-0.6-0.4-0.6
				c0,0-0.1,0-0.1,0c-0.2,0.1-0.7,0.3-0.7,0.3c0,0-0.1,0-0.1,0c-0.2,0-0.3-0.1-0.3-0.3v-2.3c0-0.2,0.2-0.4,0.4-0.5
				c0,0,0.6-0.3,0.8-0.4c0.2-0.1,0.4-0.4,0.4-0.9v-1.3v-3c0-0.2,0.2-0.4,0.5-0.4c0.2,0,0.4,0.2,0.4,0.4v3.8c0,0.3,0.1,0.6,0.4,0.6
				c0.5-0.1,1.6-0.6,2-0.8c0.3-0.2,0.4-0.6,0.4-0.9v-4.2c0-0.2,0.2-0.4,0.5-0.4c0.3,0,0.4,0.2,0.4,0.4v3.9c0,0.3,0.2,0.4,0.4,0.4
				c0.2,0,0.8-0.3,0.8-0.3c0.1,0,0.1,0,0.2,0c0.1,0,0.2,0.1,0.2,0.3v2.3c0,0.2-0.2,0.4-0.4,0.5C124.4,77.3,123.8,77.6,123.5,77.7z
				 M122.3,80.5c0-0.9-0.1-1.7-0.1-1.8c-0.1-0.1-0.3-0.2-0.5-0.2c-0.8,0-2.3,0.7-2.3,1.2c-0.1,0.3-0.1,1.4-0.1,2.4
				c0,0.8,0,1.5,0.1,1.6c0,0.1,0.2,0.2,0.4,0.2c0.7,0,2.2-0.6,2.4-1.3C122.2,82.3,122.3,81.4,122.3,80.5z"/>
		</g>
	</g>
	<g transform="matrix(0.708661,0,0,0.708661,0,0)">
		<line vector-effect="none" class="st3" x1="169.6" y1="75.9" x2="169.6" y2="49.1"/>
	</g>
	<g transform="matrix(0.708661,0,0,0.708661,0,0)">
		<g class="st1">
			<path d="M159.6,78.6c0-3.1,3.2-6,7.1-6c2.1,0,3.5,1.2,3.5,3c0,3-3.9,6-7.1,6C161.1,81.6,159.6,80.5,159.6,78.6z"/>
		</g>
	</g>
	<g transform="matrix(0.708661,0,0,0.708661,0,0)">
		<line vector-effect="none" class="st3" x1="214.8" y1="75.9" x2="214.8" y2="49.1"/>
	</g>
	<g transform="matrix(0.708661,0,0,0.708661,0,0)">
		<g class="st1">
			<path d="M204.8,78.6c0-3.1,3.2-6,7.1-6c2.1,0,3.5,1.2,3.5,3c0,3-3.9,6-7.1,6C206.4,81.6,204.8,80.5,204.8,78.6z"/>
		</g>
	</g>
	<g transform="matrix(0.708661,0,0,0.708661,0,0)">
		<g class="st1">
			<path d="M201.3,73.6c-0.3,0.1-0.4,0.7-0.4,0.9v3c0,0.4,0.2,0.6,0.4,0.6c0.2-0.1,0.8-0.3,0.8-0.3c0.1,0,0.1,0,0.2,0
				c0.1,0,0.2,0.1,0.2,0.3v2.3c0,0.2-0.2,0.4-0.4,0.5c0,0-0.7,0.3-0.9,0.4c-0.2,0.1-0.4,0.5-0.4,0.7v4.5c0,0.2-0.2,0.4-0.5,0.4
				c-0.2,0-0.4-0.2-0.4-0.4v-4c0-0.2-0.2-0.6-0.4-0.6c0,0-0.1,0-0.1,0l-2,0.8c-0.2,0.1-0.3,0.3-0.3,0.7v4.5c0,0.2-0.2,0.4-0.5,0.4
				c-0.2,0-0.4-0.2-0.4-0.4V84c0-0.2-0.2-0.5-0.4-0.5c0,0-0.1,0-0.1,0c-0.3,0.1-0.7,0.3-0.7,0.3c0,0-0.1,0-0.1,0
				c-0.2,0-0.3-0.1-0.3-0.3v-2.3c0-0.2,0.2-0.4,0.4-0.5c0,0,0.7-0.3,0.9-0.4c0.2-0.1,0.4-0.4,0.4-0.7v-3.2c0-0.3-0.2-0.6-0.4-0.6
				c0,0-0.1,0-0.1,0c-0.2,0.1-0.7,0.3-0.7,0.3c0,0-0.1,0-0.1,0c-0.2,0-0.3-0.1-0.3-0.3v-2.3c0-0.2,0.2-0.4,0.4-0.5
				c0,0,0.6-0.3,0.8-0.4c0.2-0.1,0.4-0.4,0.4-0.9v-1.3v-3c0-0.2,0.2-0.4,0.5-0.4c0.2,0,0.4,0.2,0.4,0.4v3.8c0,0.3,0.1,0.6,0.4,0.6
				c0.5-0.1,1.6-0.6,2-0.8c0.3-0.2,0.4-0.6,0.4-0.9v-4.2c0-0.2,0.2-0.4,0.5-0.4c0.3,0,0.4,0.2,0.4,0.4v3.9c0,0.3,0.2,0.4,0.4,0.4
				c0.2,0,0.8-0.3,0.8-0.3c0.1,0,0.1,0,0.2,0c0.1,0,0.2,0.1,0.2,0.3v2.3c0,0.2-0.2,0.4-0.4,0.5C202.2,73.3,201.6,73.6,201.3,73.6z
				 M200.1,76.5c0-0.9-0.1-1.7-0.1-1.8c-0.1-0.1-0.3-0.2-0.5-0.2c-0.8,0-2.3,0.7-2.3,1.2c-0.1,0.3-0.1,1.4-0.1,2.4
				c0,0.8,0,1.5,0.1,1.6c0,0.1,0.2,0.2,0.4,0.2c0.7,0,2.2-0.6,2.4-1.3C200,78.3,200.1,77.4,200.1,76.5z"/>
		</g>
	</g>
	<g transform="matrix(0.708661,0,0,0.708661,0,0)">
		<line vector-effect="none" class="st3" x1="247.3" y1="71.9" x2="247.3" y2="45.1"/>
	</g>
	<g transform="matrix(0.708661,0,0,0.708661,0,0)">
		<g class="st1">
			<path d="M237.3,74.6c0-3.1,3.2-6,7.1-6c2.1,0,3.5,1.2,3.5,3c0,3-3.9,6-7.1,6C238.9,77.6,237.3,76.5,237.3,74.6z"/>
		</g>
	</g>
	<g transform="matrix(0.708661,0,0,0.708661,0,0)">
		<line vector-effect="none" class="st3" x1="280.1" y1="71.9" x2="280.1" y2="45.1"/>
	</g>
	<g transform="matrix(0.708661,0,0,0.708661,0,0)">
		<g class="st1">
			<path d="M270.1,74.6c0-3.1,3.2-6,7.1-6c2.1,0,3.5,1.2,3.5,3c0,3-3.9,6-7.1,6C271.6,77.6,270.1,76.5,270.1,74.6z"/>
		</g>
	</g>
	<g transform="matrix(0.708661,0,0,0.708661,0,0)">
		<g class="st1">
			<path d="M266.6,69.6c-0.3,0.1-0.4,0.7-0.4,0.9v3c0,0.4,0.2,0.6,0.4,0.6c0.2-0.1,0.8-0.3,0.8-0.3c0.1,0,0.1,0,0.2,0
				c0.1,0,0.2,0.1,0.2,0.3v2.3c0,0.2-0.2,0.4-0.4,0.5c0,0-0.7,0.3-0.9,0.4c-0.2,0.1-0.4,0.5-0.4,0.7v4.5c0,0.2-0.2,0.4-0.5,0.4
				c-0.2,0-0.4-0.2-0.4-0.4v-4c0-0.2-0.2-0.6-0.4-0.6c0,0-0.1,0-0.1,0l-2,0.8c-0.2,0.1-0.3,0.3-0.3,0.7v4.5c0,0.2-0.2,0.4-0.5,0.4
				c-0.2,0-0.4-0.2-0.4-0.4V80c0-0.2-0.2-0.5-0.4-0.5c0,0-0.1,0-0.1,0c-0.3,0.1-0.7,0.3-0.7,0.3c0,0-0.1,0-0.1,0
				c-0.2,0-0.3-0.1-0.3-0.3v-2.3c0-0.2,0.2-0.4,0.4-0.5c0,0,0.7-0.3,0.9-0.4c0.2-0.1,0.4-0.4,0.4-0.7v-3.2c0-0.3-0.2-0.6-0.4-0.6
				c0,0-0.1,0-0.1,0c-0.2,0.1-0.7,0.3-0.7,0.3c0,0-0.1,0-0.1,0c-0.2,0-0.3-0.1-0.3-0.3v-2.3c0-0.2,0.2-0.4,0.4-0.5
				c0,0,0.6-0.3,0.8-0.4c0.2-0.1,0.4-0.4,0.4-0.9v-1.3v-3c0-0.2,0.2-0.4,0.5-0.4c0.2,0,0.4,0.2,0.4,0.4v3.8c0,0.3,0.1,0.6,0.4,0.6
				c0.5-0.1,1.6-0.6,2-0.8c0.3-0.2,0.4-0.6,0.4-0.9v-4.2c0-0.2,0.2-0.4,0.5-0.4c0.3,0,0.4,0.2,0.4,0.4v3.9c0,0.3,0.2,0.4,0.4,0.4
				c0.2,0,0.8-0.3,0.8-0.3c0.1,0,0.1,0,0.2,0c0.1,0,0.2,0.1,0.2,0.3v2.3c0,0.2-0.2,0.4-0.4,0.5C267.4,69.3,266.8,69.6,266.6,69.6z
				 M265.3,72.5c0-0.9-0.1-1.7-0.1-1.8c-0.1-0.1-0.3-0.2-0.5-0.2c-0.8,0-2.3,0.7-2.3,1.2c-0.1,0.3-0.1,1.4-0.1,2.4
				c0,0.8,0,1.5,0.1,1.6c0,0.1,0.2,0.2,0.4,0.2c0.7,0,2.2-0.6,2.4-1.3C265.3,74.3,265.3,73.4,265.3,72.5z"/>
		</g>
	</g>
	<g transform="matrix(0.708661,0,0,0.708661,0,0)">
		<line vector-effect="none" class="st3" x1="312.6" y1="67.9" x2="312.6" y2="41.1"/>
	</g>
	<g transform="matrix(0.708661,0,0,0.708661,0,0)">
		<g class="st1">
			<path d="M302.6,70.6c0-3.1,3.2-6,7.1-6c2.1,0,3.5,1.2,3.5,3c0,3-3.9,6-7.1,6C304.1,73.6,302.6,72.5,302.6,70.6z"/>
		</g>
	</g>
	<g transform="matrix(0.708661,0,0,0.708661,0,0)">
		<line vector-effect="none" class="st3" x1="357.1" y1="63.9" x2="357.1" y2="37.1"/>
	</g>
	<g transform="matrix(0.708661,0,0,0.708661,0,0)">
		<g class="st1">
			<path d="M347.1,66.6c0-3.1,3.2-6,7.1-6c2.1,0,3.5,1.2,3.5,3c0,3-3.9,6-7.1,6C348.6,69.6,347.1,68.5,347.1,66.6z"/>
		</g>
	</g>
	<g transform="matrix(0.708661,0,0,0.708661,0,0)">
		<line vector-effect="none" class="st3" x1="389.6" y1="63.9" x2="389.6" y2="37.1"/>
	</g>
	<g transform="matrix(0.708661,0,0,0.708661,0,0)">
		<g class="st1">
			<path d="M379.6,66.6c0-3.1,3.2-6,7.1-6c2.1,0,3.5,1.2,3.5,3c0,3-3.9,6-7.1,6C381.2,69.6,379.6,68.5,379.6,66.6z"/>
		</g>
	</g>
	<g transform="matrix(0.708661,0,0,0.708661,0,0)">
		<g class="st1">
			<path d="M376.1,61.6c-0.3,0.1-0.4,0.7-0.4,0.9v3c0,0.4,0.2,0.6,0.4,0.6c0.2-0.1,0.8-0.3,0.8-0.3c0.1,0,0.1,0,0.2,0
				c0.1,0,0.2,0.1,0.2,0.3v2.3c0,0.2-0.2,0.4-0.4,0.5c0,0-0.7,0.3-0.9,0.4c-0.2,0.1-0.4,0.5-0.4,0.7v4.5c0,0.2-0.2,0.4-0.5,0.4
				c-0.2,0-0.4-0.2-0.4-0.4v-4c0-0.2-0.2-0.6-0.4-0.6c0,0-0.1,0-0.1,0l-2,0.8c-0.2,0.1-0.3,0.3-0.3,0.7v4.5c0,0.2-0.2,0.4-0.5,0.4
				c-0.2,0-0.4-0.2-0.4-0.4V72c0-0.2-0.2-0.5-0.4-0.5c0,0-0.1,0-0.1,0c-0.3,0.1-0.7,0.3-0.7,0.3c0,0-0.1,0-0.1,0
				c-0.2,0-0.3-0.1-0.3-0.3v-2.3c0-0.2,0.2-0.4,0.4-0.5c0,0,0.7-0.3,0.9-0.4c0.2-0.1,0.4-0.4,0.4-0.7v-3.2c0-0.3-0.2-0.6-0.4-0.6
				c0,0-0.1,0-0.1,0c-0.2,0.1-0.7,0.3-0.7,0.3c0,0-0.1,0-0.1,0c-0.2,0-0.3-0.1-0.3-0.3v-2.3c0-0.2,0.2-0.4,0.4-0.5
				c0,0,0.6-0.3,0.8-0.4c0.2-0.1,0.4-0.4,0.4-0.9v-1.3v-3c0-0.2,0.2-0.4,0.5-0.4c0.2,0,0.4,0.2,0.4,0.4v3.8c0,0.3,0.1,0.6,0.4,0.6
				c0.5-0.1,1.6-0.6,2-0.8c0.3-0.2,0.4-0.6,0.4-0.9v-4.2c0-0.2,0.2-0.4,0.5-0.4c0.3,0,0.4,0.2,0.4,0.4v3.9c0,0.3,0.2,0.4,0.4,0.4
				c0.2,0,0.8-0.3,0.8-0.3c0.1,0,0.1,0,0.2,0c0.1,0,0.2,0.1,0.2,0.3v2.3c0,0.2-0.2,0.4-0.4,0.5C377,61.3,376.4,61.6,376.1,61.6z
				 M374.9,64.5c0-0.9-0.1-1.7-0.1-1.8c-0.1-0.1-0.3-0.2-0.5-0.2c-0.8,0-2.3,0.7-2.3,1.2c-0.1,0.3-0.1,1.4-0.1,2.4
				c0,0.8,0,1.5,0.1,1.6c0,0.1,0.2,0.2,0.4,0.2c0.7,0,2.2-0.6,2.4-1.3C374.8,66.3,374.9,65.4,374.9,64.5z"/>
		</g>
	</g>
	<g transform="matrix(0.708661,0,0,0.708661,0,0)">
		<line vector-effect="none" class="st3" x1="412.6" y1="62.4" x2="412.6" y2="89.1"/>
	</g>
	<g transform="matrix(0.708661,0,0,0.708661,0,0)">
		<g class="st1">
			<path d="M412.1,62.6c0-3.1,3.2-6,7.1-6c2.1,0,3.5,1.2,3.5,3c0,3-3.9,6-7.1,6C413.7,65.6,412.1,64.5,412.1,62.6z"/>
		</g>
	</g>
	<g transform="matrix(0.708661,0,0,0.708661,0,0)">
		<line vector-effect="none" class="st3" x1="445.1" y1="62.4" x2="445.1" y2="89.1"/>
	</g>
	<g transform="matrix(0.708661,0,0,0.708661,0,0)">
		<g class="st1">
			<path d="M444.6,62.6c0-3.1,3.2-6,7.1-6c2.1,0,3.5,1.2,3.5,3c0,3-3.9,6-7.1,6C446.2,65.6,444.6,64.5,444.6,62.6z"/>
		</g>
	</g>
	<g transform="matrix(0.708661,0,0,0.708661,0,0)">
		<g class="st1">
			<path d="M441.1,57.6c-0.3,0.1-0.4,0.7-0.4,0.9v3c0,0.4,0.2,0.6,0.4,0.6c0.2-0.1,0.8-0.3,0.8-0.3c0.1,0,0.1,0,0.2,0
				c0.1,0,0.2,0.1,0.2,0.3v2.3c0,0.2-0.2,0.4-0.4,0.5c0,0-0.7,0.3-0.9,0.4c-0.2,0.1-0.4,0.5-0.4,0.7v4.5c0,0.2-0.2,0.4-0.5,0.4
				c-0.2,0-0.4-0.2-0.4-0.4v-4c0-0.2-0.2-0.6-0.4-0.6c0,0-0.1,0-0.1,0l-2,0.8c-0.2,0.1-0.3,0.3-0.3,0.7v4.5c0,0.2-0.2,0.4-0.5,0.4
				c-0.2,0-0.4-0.2-0.4-0.4V68c0-0.2-0.2-0.5-0.4-0.5c0,0-0.1,0-0.1,0c-0.3,0.1-0.7,0.3-0.7,0.3c0,0-0.1,0-0.1,0
				c-0.2,0-0.3-0.1-0.3-0.3v-2.3c0-0.2,0.2-0.4,0.4-0.5c0,0,0.7-0.3,0.9-0.4c0.2-0.1,0.4-0.4,0.4-0.7v-3.2c0-0.3-0.2-0.6-0.4-0.6
				c0,0-0.1,0-0.1,0c-0.2,0.1-0.7,0.3-0.7,0.3c0,0-0.1,0-0.1,0c-0.2,0-0.3-0.1-0.3-0.3v-2.3c0-0.2,0.2-0.4,0.4-0.5
				c0,0,0.6-0.3,0.8-0.4c0.2-0.1,0.4-0.4,0.4-0.9v-1.3v-3c0-0.2,0.2-0.4,0.5-0.4c0.2,0,0.4,0.2,0.4,0.4v3.8c0,0.3,0.1,0.6,0.4,0.6
				c0.5-0.1,1.6-0.6,2-0.8c0.3-0.2,0.4-0.6,0.4-0.9v-4.2c0-0.2,0.2-0.4,0.5-0.4c0.3,0,0.4,0.2,0.4,0.4v3.9c0,0.3,0.2,0.4,0.4,0.4
				c0.2,0,0.8-0.3,0.8-0.3c0.1,0,0.1,0,0.2,0c0.1,0,0.2,0.1,0.2,0.3v2.3c0,0.2-0.2,0.4-0.4,0.5C442,57.3,441.4,57.5,441.1,57.6z
				 M439.9,60.5c0-0.9-0.1-1.7-0.1-1.8c-0.1-0.1-0.3-0.2-0.5-0.2c-0.8,0-2.3,0.7-2.3,1.2c-0.1,0.3-0.1,1.4-0.1,2.4
				c0,0.8,0,1.5,0.1,1.6c0,0.1,0.2,0.2,0.4,0.2c0.7,0,2.2-0.6,2.4-1.3C439.8,62.3,439.9,61.4,439.9,60.5z"/>
		</g>
	</g>
	<g transform="matrix(0.708661,0,0,0.708661,0,0)">
		<line vector-effect="none" class="st3" x1="489.7" y1="58.4" x2="489.7" y2="85.1"/>
	</g>
	<g transform="matrix(0.708661,0,0,0.708661,0,0)">
		<g class="st1">
			<path d="M489.2,58.6c0-3.1,3.2-6,7.1-6c2.1,0,3.5,1.2,3.5,3c0,3-3.9,6-7.1,6C490.7,61.6,489.2,60.5,489.2,58.6z"/>
		</g>
	</g>
	<g transform="matrix(0.708661,0,0,0.708661,0,0)">
		<line vector-effect="none" class="st3" x1="522.2" y1="54.4" x2="522.2" y2="81.1"/>
	</g>
	<g transform="matrix(0.708661,0,0,0.708661,0,0)">
		<g class="st1">
			<path d="M521.7,54.6c0-3.1,3.2-6,7.1-6c2.1,0,3.5,1.2,3.5,3c0,3-3.9,6-7.1,6C523.2,57.6,521.7,56.5,521.7,54.6z"/>
		</g>
	</g>
	<g transform="matrix(0.708661,0,0,0.708661,0,0)">
		<line vector-effect="none" class="st3" x1="554.7" y1="54.4" x2="554.7" y2="81.1"/>
	</g>
	<g transform="matrix(0.708661,0,0,0.708661,0,0)">
		<g class="st1">
			<path d="M554.2,54.6c0-3.1,3.2-6,7.1-6c2.1,0,3.5,1.2,3.5,3c0,3-3.9,6-7.1,6C555.7,57.6,554.2,56.5,554.2,54.6z"/>
		</g>
	</g>
	<g transform="matrix(0.708661,0,0,0.708661,0,0)">
		<g class="st1">
			<path d="M550.7,49.6c-0.3,0.1-0.4,0.7-0.4,0.9v3c0,0.4,0.2,0.6,0.4,0.6c0.2-0.1,0.8-0.3,0.8-0.3c0.1,0,0.1,0,0.2,0
				c0.1,0,0.2,0.1,0.2,0.3v2.3c0,0.2-0.2,0.4-0.4,0.5c0,0-0.7,0.3-0.9,0.4c-0.2,0.1-0.4,0.5-0.4,0.7v4.5c0,0.2-0.2,0.4-0.5,0.4
				c-0.2,0-0.4-0.2-0.4-0.4v-4c0-0.2-0.2-0.6-0.4-0.6c0,0-0.1,0-0.1,0l-2,0.8c-0.2,0.1-0.3,0.3-0.3,0.7v4.5c0,0.2-0.2,0.4-0.5,0.4
				c-0.2,0-0.4-0.2-0.4-0.4V60c0-0.2-0.2-0.5-0.4-0.5c0,0-0.1,0-0.1,0c-0.3,0.1-0.7,0.3-0.7,0.3c0,0-0.1,0-0.1,0
				c-0.2,0-0.3-0.1-0.3-0.3v-2.3c0-0.2,0.2-0.4,0.4-0.5c0,0,0.7-0.3,0.9-0.4c0.2-0.1,0.4-0.4,0.4-0.7v-3.2c0-0.3-0.2-0.6-0.4-0.6
				c0,0-0.1,0-0.1,0c-0.2,0.1-0.7,0.3-0.7,0.3c0,0-0.1,0-0.1,0c-0.2,0-0.3-0.1-0.3-0.3v-2.3c0-0.2,0.2-0.4,0.4-0.5
				c0,0,0.6-0.3,0.8-0.4c0.2-0.1,0.4-0.4,0.4-0.9v-1.3v-3c0-0.2,0.2-0.4,0.5-0.4c0.2,0,0.4,0.2,0.4,0.4v3.8c0,0.3,0.1,0.6,0.4,0.6
				c0.5-0.1,1.6-0.6,2-0.8c0.3-0.2,0.4-0.6,0.4-0.9v-4.2c0-0.2,0.2-0.4,0.5-0.4c0.3,0,0.4,0.2,0.4,0.4v3.9c0,0.3,0.2,0.4,0.4,0.4
				c0.2,0,0.8-0.3,0.8-0.3c0.1,0,0.1,0,0.2,0c0.1,0,0.2,0.1,0.2,0.3v2.3c0,0.2-0.2,0.4-0.4,0.5C551.5,49.3,550.9,49.5,550.7,49.6z
				 M549.4,52.5c0-0.9-0.1-1.7-0.1-1.8c-0.1-0.1-0.3-0.2-0.5-0.2c-0.8,0-2.3,0.7-2.3,1.2c-0.1,0.3-0.1,1.4-0.1,2.4
				c0,0.8,0,1.5,0.1,1.6c0,0.1,0.2,0.2,0.4,0.2c0.7,0,2.2-0.6,2.4-1.3C549.4,54.3,549.4,53.4,549.4,52.5z"/>
		</g>
	</g>
	<g transform="matrix(0.708661,0,0,0.708661,0,0)">
		<line vector-effect="none" class="st3" x1="587.4" y1="50.3" x2="587.4" y2="77.1"/>
	</g>
	<g transform="matrix(0.708661,0,0,0.708661,0,0)">
		<g class="st1">
			<path d="M586.9,50.6c0-3.1,3.2-6,7.1-6c2.1,0,3.5,1.2,3.5,3c0,3-3.9,6-7.1,6C588.5,53.6,586.9,52.5,586.9,50.6z"/>
		</g>
	</g>
	<g transform="matrix(0.708661,0,0,0.708661,0,0)">
		<line vector-effect="none" class="st3" x1="632.7" y1="50.3" x2="632.7" y2="77.1"/>
	</g>
	<g transform="matrix(0.708661,0,0,0.708661,0,0)">
		<g class="st1">
			<path d="M632.2,50.6c0-3.1,3.2-6,7.1-6c2.1,0,3.5,1.2,3.5,3c0,3-3.9,6-7.1,6C633.7,53.6,632.2,52.5,632.2,50.6z"/>
		</g>
	</g>
	<g transform="matrix(0.708661,0,0,0.708661,0,0)">
		<g class="st1">
			<path d="M628.7,45.6c-0.3,0.1-0.4,0.7-0.4,0.9v3c0,0.4,0.2,0.6,0.4,0.6c0.2-0.1,0.8-0.3,0.8-0.3c0.1,0,0.1,0,0.2,0
				c0.1,0,0.2,0.1,0.2,0.3v2.3c0,0.2-0.2,0.4-0.4,0.5c0,0-0.7,0.3-0.9,0.4c-0.2,0.1-0.4,0.5-0.4,0.7v4.5c0,0.2-0.2,0.4-0.5,0.4
				c-0.2,0-0.4-0.2-0.4-0.4v-4c0-0.2-0.2-0.6-0.4-0.6c0,0-0.1,0-0.1,0l-2,0.8c-0.2,0.1-0.3,0.3-0.3,0.7v4.5c0,0.2-0.2,0.4-0.5,0.4
				c-0.2,0-0.4-0.2-0.4-0.4V56c0-0.2-0.2-0.5-0.4-0.5c0,0-0.1,0-0.1,0c-0.3,0.1-0.7,0.3-0.7,0.3c0,0-0.1,0-0.1,0
				c-0.2,0-0.3-0.1-0.3-0.3v-2.3c0-0.2,0.2-0.4,0.4-0.5c0,0,0.7-0.3,0.9-0.4c0.2-0.1,0.4-0.4,0.4-0.7v-3.2c0-0.3-0.2-0.6-0.4-0.6
				c0,0-0.1,0-0.1,0c-0.2,0.1-0.7,0.3-0.7,0.3c0,0-0.1,0-0.1,0c-0.2,0-0.3-0.1-0.3-0.3v-2.3c0-0.2,0.2-0.4,0.4-0.5
				c0,0,0.6-0.3,0.8-0.4c0.2-0.1,0.4-0.4,0.4-0.9v-1.3v-3c0-0.2,0.2-0.4,0.5-0.4c0.2,0,0.4,0.2,0.4,0.4v3.8c0,0.3,0.1,0.6,0.4,0.6
				c0.5-0.1,1.6-0.6,2-0.8c0.3-0.2,0.4-0.6,0.4-0.9v-4.2c0-0.2,0.2-0.4,0.5-0.4c0.3,0,0.4,0.2,0.4,0.4v3.9c0,0.3,0.2,0.4,0.4,0.4
				c0.2,0,0.8-0.3,0.8-0.3c0.1,0,0.1,0,0.2,0c0.1,0,0.2,0.1,0.2,0.3v2.3c0,0.2-0.2,0.4-0.4,0.5C629.5,45.3,629,45.5,628.7,45.6z
				 M627.5,48.5c0-0.9-0.1-1.7-0.1-1.8c-0.1-0.1-0.3-0.2-0.5-0.2c-0.8,0-2.3,0.7-2.3,1.2c-0.1,0.3-0.1,1.4-0.1,2.4
				c0,0.8,0,1.5,0.1,1.6c0,0.1,0.2,0.2,0.4,0.2c0.7,0,2.2-0.6,2.4-1.3C627.4,50.3,627.5,49.4,627.5,48.5z"/>
		</g>
	</g>
	<g transform="matrix(0.708661,0,0,0.708661,0,0)">
		<line vector-effect="none" class="st3" x1="665.2" y1="46.3" x2="665.2" y2="73.1"/>
	</g>
	<g transform="matrix(0.708661,0,0,0.708661,0,0)">
		<g class="st1">
			<path d="M664.7,46.6c0-3.1,3.2-6,7.1-6c2.1,0,3.5,1.2,3.5,3c0,3-3.9,6-7.1,6C666.2,49.6,664.7,48.5,664.7,46.6z"/>
		</g>
	</g>
	<g transform="matrix(0.708661,0,0,0.708661,0,0)">
		<line vector-effect="none" class="st3" x1="697.7" y1="46.3" x2="697.7" y2="73.1"/>
	</g>
	<g transform="matrix(0.708661,0,0,0.708661,0,0)">
		<g class="st1">
			<path d="M697.2,46.6c0-3.1,3.2-6,7.1-6c2.1,0,3.5,1.2,3.5,3c0,3-3.9,6-7.1,6C698.8,49.6,697.2,48.5,697.2,46.6z"/>
		</g>
	</g>
	<g transform="matrix(0.708661,0,0,0.708661,0,0)">
		<g class="st1">
			<path d="M693.7,41.6c-0.3,0.1-0.4,0.7-0.4,0.9v3c0,0.4,0.2,0.6,0.4,0.6c0.2-0.1,0.8-0.3,0.8-0.3c0.1,0,0.1,0,0.2,0
				c0.1,0,0.2,0.1,0.2,0.3v2.3c0,0.2-0.2,0.4-0.4,0.5c0,0-0.7,0.3-0.9,0.4c-0.2,0.1-0.4,0.5-0.4,0.7v4.5c0,0.2-0.2,0.4-0.5,0.4
				c-0.2,0-0.4-0.2-0.4-0.4v-4c0-0.2-0.2-0.6-0.4-0.6c0,0-0.1,0-0.1,0l-2,0.8c-0.2,0.1-0.3,0.3-0.3,0.7v4.5c0,0.2-0.2,0.4-0.5,0.4
				c-0.2,0-0.4-0.2-0.4-0.4v-3.9c0-0.2-0.2-0.5-0.4-0.5c0,0-0.1,0-0.1,0c-0.3,0.1-0.7,0.3-0.7,0.3c0,0-0.1,0-0.1,0
				c-0.2,0-0.3-0.1-0.3-0.3v-2.3c0-0.2,0.2-0.4,0.4-0.5c0,0,0.7-0.3,0.9-0.4c0.2-0.1,0.4-0.4,0.4-0.7v-3.2c0-0.3-0.2-0.6-0.4-0.6
				c0,0-0.1,0-0.1,0c-0.2,0.1-0.7,0.3-0.7,0.3c0,0-0.1,0-0.1,0c-0.2,0-0.3-0.1-0.3-0.3v-2.3c0-0.2,0.2-0.4,0.4-0.5
				c0,0,0.6-0.3,0.8-0.4c0.2-0.1,0.4-0.4,0.4-0.9v-1.3v-3c0-0.2,0.2-0.4,0.5-0.4c0.2,0,0.4,0.2,0.4,0.4v3.8c0,0.3,0.1,0.6,0.4,0.6
				c0.5-0.1,1.6-0.6,2-0.8c0.3-0.2,0.4-0.6,0.4-0.9v-4.2c0-0.2,0.2-0.4,0.5-0.4c0.3,0,0.4,0.2,0.4,0.4v3.9c0,0.3,0.2,0.4,0.4,0.4
				c0.2,0,0.8-0.3,0.8-0.3c0.1,0,0.1,0,0.2,0c0.1,0,0.2,0.1,0.2,0.3v2.3c0,0.2-0.2,0.4-0.4,0.5C694.6,41.3,694,41.5,693.7,41.6z
				 M692.5,44.5c0-0.9-0.1-1.7-0.1-1.8c-0.1-0.1-0.3-0.2-0.5-0.2c-0.8,0-2.3,0.7-2.3,1.2c-0.1,0.3-0.1,1.4-0.1,2.4
				c0,0.8,0,1.5,0.1,1.6c0,0.1,0.2,0.2,0.4,0.2c0.7,0,2.2-0.6,2.4-1.3C692.4,46.3,692.5,45.4,692.5,44.5z"/>
		</g>
	</g>
	<g transform="matrix(0.708661,0,0,0.708661,0,0)">
		<line vector-effect="none" class="st3" x1="730.2" y1="42.3" x2="730.2" y2="69.1"/>
	</g>
	<g transform="matrix(0.708661,0,0,0.708661,0,0)">
		<g class="st1">
			<path d="M729.7,42.6c0-3.1,3.2-6,7.1-6c2.1,0,3.5,1.2,3.5,3c0,3-3.9,6-7.1,6C731.3,45.6,729.7,44.5,729.7,42.6z"/>
		</g>
	</g>
	<g transform="matrix(0.708661,0,0,0.708661,0,0)">
		<line vector-effect="none" class="st0" x1="43.3" y1="143.1" x2="59.3" y2="143.1"/>
	</g>
	<g transform="matrix(0.708661,0,0,0.708661,0,0)">
		<line vector-effect="none" class="st3" x1="46.5" y1="144.4" x2="46.5" y2="171.1"/>
	</g>
	<g transform="matrix(0.708661,0,0,0.708661,0,0)">
		<g class="st1">
			<path d="M46,144.6c0-3.1,3.2-6,7.1-6c2.1,0,3.5,1.2,3.5,3c0,3-3.9,6-7.1,6C47.6,147.6,46,146.5,46,144.6z"/>
		</g>
	</g>
	<g transform="matrix(0.708661,0,0,0.708661,0,0)">
		<line vector-effect="none" class="st0" x1="76.5" y1="143.1" x2="92.5" y2="143.1"/>
	</g>
	<g transform="matrix(0.708661,0,0,0.708661,0,0)">
		<line vector-effect="none" class="st3" x1="79.8" y1="144.4" x2="79.8" y2="171.1"/>
	</g>
	<g transform="matrix(0.708661,0,0,0.708661,0,0)">
		<g class="st1">
			<path d="M79.3,144.6c0-3.1,3.2-6,7.1-6c2.1,0,3.5,1.2,3.5,3c0,3-3.9,6-7.1,6C80.8,147.6,79.3,146.5,79.3,144.6z"/>
		</g>
	</g>
	<g transform="matrix(0.708661,0,0,0.708661,0,0)">
		<g class="st1">
			<path d="M74,139.7c-0.3,0.1-0.4,0.7-0.4,0.9v3c0,0.4,0.2,0.6,0.4,0.6c0.2-0.1,0.8-0.3,0.8-0.3c0.1,0,0.1,0,0.2,0
				c0.1,0,0.2,0.1,0.2,0.3v2.3c0,0.2-0.2,0.4-0.4,0.5c0,0-0.7,0.3-0.9,0.4c-0.2,0.1-0.4,0.5-0.4,0.7v4.5c0,0.2-0.2,0.4-0.5,0.4
				c-0.2,0-0.4-0.2-0.4-0.4v-4c0-0.2-0.2-0.6-0.4-0.6c0,0-0.1,0-0.1,0l-2,0.8c-0.2,0.1-0.3,0.3-0.3,0.7v4.5c0,0.2-0.2,0.4-0.5,0.4
				c-0.2,0-0.4-0.2-0.4-0.4V150c0-0.2-0.2-0.5-0.4-0.5c0,0-0.1,0-0.1,0c-0.3,0.1-0.7,0.3-0.7,0.3c0,0-0.1,0-0.1,0
				c-0.2,0-0.3-0.1-0.3-0.3v-2.3c0-0.2,0.2-0.4,0.4-0.5c0,0,0.7-0.3,0.9-0.4c0.2-0.1,0.4-0.4,0.4-0.7v-3.2c0-0.3-0.2-0.6-0.4-0.6
				c0,0-0.1,0-0.1,0c-0.2,0.1-0.7,0.3-0.7,0.3c0,0-0.1,0-0.1,0c-0.2,0-0.3-0.1-0.3-0.3v-2.3c0-0.2,0.2-0.4,0.4-0.5
				c0,0,0.6-0.3,0.8-0.4c0.2-0.1,0.4-0.4,0.4-0.9v-1.3v-3c0-0.2,0.2-0.4,0.5-0.4c0.2,0,0.4,0.2,0.4,0.4v3.8c0,0.3,0.1,0.6,0.4,0.6
				c0.5-0.1,1.6-0.6,2-0.8c0.3-0.2,0.4-0.6,0.4-0.9v-4.2c0-0.2,0.2-0.4,0.5-0.4c0.3,0,0.4,0.2,0.4,0.4v3.9c0,0.3,0.2,0.4,0.4,0.4
				c0.2,0,0.8-0.3,0.8-0.3c0.1,0,0.1,0,0.2,0c0.1,0,0.2,0.1,0.2,0.3v2.3c0,0.2-0.2,0.4-0.4,0.5C74.9,139.4,74.3,139.6,74,139.7z
				 M72.8,142.5c0-0.9-0.1-1.7-0.1-1.8c-0.1-0.1-0.3-0.2-0.5-0.2c-0.8,0-2.3,0.7-2.3,1.2c-0.1,0.3-0.1,1.4-0.1,2.4
				c0,0.8,0,1.5,0.1,1.6c0,0.1,0.2,0.2,0.4,0.2c0.7,0,2.2-0.6,2.4-1.3C72.7,144.3,72.8,143.4,72.8,142.5z"/>
		</g>
	</g>
	<g transform="matrix(0.708661,0,0,0.708661,0,0)">
		<line vector-effect="none" class="st0" x1="110" y1="143.1" x2="126" y2="143.1"/>
	</g>
	<g transform="matrix(0.708661,0,0,0.708661,0,0)">
		<line vector-effect="none" class="st3" x1="113.3" y1="140.4" x2="113.3" y2="167.1"/>
	</g>
	<g transform="matrix(0.708661,0,0,0.708661,0,0)">
		<g class="st1">
			<path d="M112.8,140.6c0-3.1,3.2-6,7.1-6c2.1,0,3.5,1.2,3.5,3c0,3-3.9,6-7.1,6C114.3,143.6,112.8,142.5,112.8,140.6z"/>
		</g>
	</g>
	<g transform="matrix(0.708661,0,0,0.708661,0,0)">
		<line vector-effect="none" class="st0" x1="143.3" y1="143.1" x2="159.3" y2="143.1"/>
	</g>
	<g transform="matrix(0.708661,0,0,0.708661,0,0)">
		<line vector-effect="none" class="st3" x1="146.5" y1="140.4" x2="146.5" y2="167.1"/>
	</g>
	<g transform="matrix(0.708661,0,0,0.708661,0,0)">
		<g class="st1">
			<path d="M146,140.6c0-3.1,3.2-6,7.1-6c2.1,0,3.5,1.2,3.5,3c0,3-3.9,6-7.1,6C147.6,143.6,146,142.5,146,140.6z"/>
		</g>
	</g>
	<g transform="matrix(0.708661,0,0,0.708661,0,0)">
		<g class="st1">
			<path d="M140.8,135.7c-0.3,0.1-0.4,0.7-0.4,0.9v3c0,0.4,0.2,0.6,0.4,0.6c0.2-0.1,0.8-0.3,0.8-0.3c0.1,0,0.1,0,0.2,0
				c0.1,0,0.2,0.1,0.2,0.3v2.3c0,0.2-0.2,0.4-0.4,0.5c0,0-0.7,0.3-0.9,0.4c-0.2,0.1-0.4,0.5-0.4,0.7v4.5c0,0.2-0.2,0.4-0.5,0.4
				c-0.2,0-0.4-0.2-0.4-0.4v-4c0-0.2-0.2-0.6-0.4-0.6c0,0-0.1,0-0.1,0l-2,0.8c-0.2,0.1-0.3,0.3-0.3,0.7v4.5c0,0.2-0.2,0.4-0.5,0.4
				c-0.2,0-0.4-0.2-0.4-0.4V146c0-0.2-0.2-0.5-0.4-0.5c0,0-0.1,0-0.1,0c-0.3,0.1-0.7,0.3-0.7,0.3c0,0-0.1,0-0.1,0
				c-0.2,0-0.3-0.1-0.3-0.3v-2.3c0-0.2,0.2-0.4,0.4-0.5c0,0,0.7-0.3,0.9-0.4c0.2-0.1,0.4-0.4,0.4-0.7v-3.2c0-0.3-0.2-0.6-0.4-0.6
				c0,0-0.1,0-0.1,0c-0.2,0.1-0.7,0.3-0.7,0.3c0,0-0.1,0-0.1,0c-0.2,0-0.3-0.1-0.3-0.3v-2.3c0-0.2,0.2-0.4,0.4-0.5
				c0,0,0.6-0.3,0.8-0.4c0.2-0.1,0.4-0.4,0.4-0.9v-1.3v-3c0-0.2,0.2-0.4,0.5-0.4c0.2,0,0.4,0.2,0.4,0.4v3.8c0,0.3,0.1,0.6,0.4,0.6
				c0.5-0.1,1.6-0.6,2-0.8c0.3-0.2,0.4-0.6,0.4-0.9v-4.2c0-0.2,0.2-0.4,0.5-0.4c0.3,0,0.4,0.2,0.4,0.4v3.9c0,0.3,0.2,0.4,0.4,0.4
				c0.2,0,0.8-0.3,0.8-0.3c0.1,0,0.1,0,0.2,0c0.1,0,0.2,0.1,0.2,0.3v2.3c0,0.2-0.2,0.4-0.4,0.5C141.6,135.3,141.1,135.6,140.8,135.7
				z M139.5,138.5c0-0.9-0.1-1.7-0.1-1.8c-0.1-0.1-0.3-0.2-0.5-0.2c-0.8,0-2.3,0.7-2.3,1.2c-0.1,0.3-0.1,1.4-0.1,2.4
				c0,0.8,0,1.5,0.1,1.6c0,0.1,0.2,0.2,0.4,0.2c0.7,0,2.2-0.6,2.4-1.3C139.5,140.3,139.5,139.4,139.5,138.5z"/>
		</g>
	</g>
	<g transform="matrix(0.708661,0,0,0.708661,0,0)">
		<line vector-effect="none" class="st0" x1="188.6" y1="143.1" x2="204.6" y2="143.1"/>
	</g>
	<g transform="matrix(0.708661,0,0,0.708661,0,0)">
		<line vector-effect="none" class="st0" x1="188.6" y1="135.1" x2="204.6" y2="135.1"/>
	</g>
	<g transform="matrix(0.708661,0,0,0.708661,0,0)">
		<line vector-effect="none" class="st3" x1="191.8" y1="136.4" x2="191.8" y2="167.1"/>
	</g>
	<g transform="matrix(0.708661,0,0,0.708661,0,0)">
		<g class="st1">
			<path d="M191.3,136.6c0-3.1,3.2-6,7.1-6c2.1,0,3.5,1.2,3.5,3c0,3-3.9,6-7.1,6C192.8,139.6,191.3,138.5,191.3,136.6z"/>
		</g>
	</g>
	<g transform="matrix(0.708661,0,0,0.708661,0,0)">
		<line vector-effect="none" class="st0" x1="221.8" y1="143.1" x2="237.8" y2="143.1"/>
	</g>
	<g transform="matrix(0.708661,0,0,0.708661,0,0)">
		<line vector-effect="none" class="st0" x1="221.8" y1="135.1" x2="237.8" y2="135.1"/>
	</g>
	<g transform="matrix(0.708661,0,0,0.708661,0,0)">
		<line vector-effect="none" class="st3" x1="225.1" y1="132.4" x2="225.1" y2="167.1"/>
	</g>
	<g transform="matrix(0.708661,0,0,0.708661,0,0)">
		<g class="st1">
			<path d="M224.6,132.6c0-3.1,3.2-6,7.1-6c2.1,0,3.5,1.2,3.5,3c0,3-3.9,6-7.1,6C226.1,135.6,224.6,134.5,224.6,132.6z"/>
		</g>
	</g>
	<g transform="matrix(0.708661,0,0,0.708661,0,0)">
		<line vector-effect="none" class="st0" x1="255.3" y1="143.1" x2="271.3" y2="143.1"/>
	</g>
	<g transform="matrix(0.708661,0,0,0.708661,0,0)">
		<line vector-effect="none" class="st0" x1="255.3" y1="135.1" x2="271.3" y2="135.1"/>
	</g>
	<g transform="matrix(0.708661,0,0,0.708661,0,0)">
		<line vector-effect="none" class="st3" x1="258.6" y1="132.4" x2="258.6" y2="167.1"/>
	</g>
	<g transform="matrix(0.708661,0,0,0.708661,0,0)">
		<g class="st1">
			<path d="M258.1,132.6c0-3.1,3.2-6,7.1-6c2.1,0,3.5,1.2,3.5,3c0,3-3.9,6-7.1,6C259.6,135.6,258.1,134.5,258.1,132.6z"/>
		</g>
	</g>
	<g transform="matrix(0.708661,0,0,0.708661,0,0)">
		<g class="st1">
			<path d="M252.8,127.7c-0.3,0.1-0.4,0.7-0.4,0.9v3c0,0.4,0.2,0.6,0.4,0.6c0.2-0.1,0.8-0.3,0.8-0.3c0.1,0,0.1,0,0.2,0
				c0.1,0,0.2,0.1,0.2,0.3v2.3c0,0.2-0.2,0.4-0.4,0.5c0,0-0.7,0.3-0.9,0.4c-0.2,0.1-0.4,0.5-0.4,0.7v4.5c0,0.2-0.2,0.4-0.5,0.4
				c-0.2,0-0.4-0.2-0.4-0.4v-4c0-0.2-0.2-0.6-0.4-0.6c0,0-0.1,0-0.1,0l-2,0.8c-0.2,0.1-0.3,0.3-0.3,0.7v4.5c0,0.2-0.2,0.4-0.5,0.4
				c-0.2,0-0.4-0.2-0.4-0.4V138c0-0.2-0.2-0.5-0.4-0.5c0,0-0.1,0-0.1,0c-0.3,0.1-0.7,0.3-0.7,0.3c0,0-0.1,0-0.1,0
				c-0.2,0-0.3-0.1-0.3-0.3v-2.3c0-0.2,0.2-0.4,0.4-0.5c0,0,0.7-0.3,0.9-0.4c0.2-0.1,0.4-0.4,0.4-0.7v-3.2c0-0.3-0.2-0.6-0.4-0.6
				c0,0-0.1,0-0.1,0c-0.2,0.1-0.7,0.3-0.7,0.3c0,0-0.1,0-0.1,0c-0.2,0-0.3-0.1-0.3-0.3v-2.3c0-0.2,0.2-0.4,0.4-0.5
				c0,0,0.6-0.3,0.8-0.4c0.2-0.1,0.4-0.4,0.4-0.9v-1.3v-3c0-0.2,0.2-0.4,0.5-0.4c0.2,0,0.4,0.2,0.4,0.4v3.8c0,0.3,0.1,0.6,0.4,0.6
				c0.5-0.1,1.6-0.6,2-0.8c0.3-0.2,0.4-0.6,0.4-0.9v-4.2c0-0.2,0.2-0.4,0.5-0.4c0.3,0,0.4,0.2,0.4,0.4v3.9c0,0.3,0.2,0.4,0.4,0.4
				c0.2,0,0.8-0.3,0.8-0.3c0.1,0,0.1,0,0.2,0c0.1,0,0.2,0.1,0.2,0.3v2.3c0,0.2-0.2,0.4-0.4,0.5C253.7,127.3,253.1,127.6,252.8,127.7
				z M251.6,130.5c0-0.9-0.1-1.7-0.1-1.8c-0.1-0.1-0.3-0.2-0.5-0.2c-0.8,0-2.3,0.7-2.3,1.2c-0.1,0.3-0.1,1.4-0.1,2.4
				c0,0.8,0,1.5,0.1,1.6c0,0.1,0.2,0.2,0.4,0.2c0.7,0,2.2-0.6,2.4-1.3C251.5,132.3,251.6,131.4,251.6,130.5z"/>
		</g>
	</g>
	<g transform="matrix(0.708661,0,0,0.708661,0,0)">
		<line vector-effect="none" class="st0" x1="288.6" y1="143.1" x2="304.6" y2="143.1"/>
	</g>
	<g transform="matrix(0.708661,0,0,0.708661,0,0)">
		<line vector-effect="none" class="st0" x1="288.6" y1="135.1" x2="304.6" y2="135.1"/>
	</g>
	<g transform="matrix(0.708661,0,0,0.708661,0,0)">
		<line vector-effect="none" class="st0" x1="288.6" y1="127.1" x2="304.6" y2="127.1"/>
	</g>
	<g transform="matrix(0.708661,0,0,0.708661,0,0)">
		<line vector-effect="none" class="st3" x1="291.8" y1="128.4" x2="291.8" y2="167.1"/>
	</g>
	<g transform="matrix(0.708661,0,0,0.708661,0,0)">
		<g class="st1">
			<path d="M291.3,128.6c0-3.1,3.2-6,7.1-6c2.1,0,3.5,1.2,3.5,3c0,3-3.9,6-7.1,6C292.9,131.6,291.3,130.5,291.3,128.6z"/>
		</g>
	</g>
	<g transform="matrix(0.708661,0,0,0.708661,0,0)">
		<line vector-effect="none" class="st0" x1="335.6" y1="143.1" x2="351.6" y2="143.1"/>
	</g>
	<g transform="matrix(0.708661,0,0,0.708661,0,0)">
		<line vector-effect="none" class="st0" x1="335.6" y1="135.1" x2="351.6" y2="135.1"/>
	</g>
	<g transform="matrix(0.708661,0,0,0.708661,0,0)">
		<line vector-effect="none" class="st0" x1="335.6" y1="127.1" x2="351.6" y2="127.1"/>
	</g>
	<g transform="matrix(0.708661,0,0,0.708661,0,0)">
		<line vector-effect="none" class="st3" x1="338.9" y1="124.4" x2="338.9" y2="167.1"/>
	</g>
	<g transform="matrix(0.708661,0,0,0.708661,0,0)">
		<g class="st1">
			<path d="M338.4,124.6c0-3.1,3.2-6,7.1-6c2.1,0,3.5,1.2,3.5,3c0,3-3.9,6-7.1,6C339.9,127.6,338.4,126.5,338.4,124.6z"/>
		</g>
	</g>
	<g transform="matrix(0.708661,0,0,0.708661,0,0)">
		<g class="st1">
			<path d="M327.1,110c0-0.6,0.5-0.9,1-0.9c0.3,0,0.6,0.2,0.6,0.5c0,0.6-0.2,8.3-0.2,9c0,0.2,0.1,0.4,0.4,0.5c0.1,0,0.1,0,0.2,0
				c0.3,0,0.5-0.3,0.7-0.4c0.4-0.2,0.7-0.4,1.1-0.4c0.2-0.1,0.4-0.1,0.7-0.1c1.5,0.1,2.9,1.2,2.9,3.1c0,1.5-1,3.4-3.8,5.4
				c-0.8,0.5-1.6,1.4-2.5,2c0,0-0.1,0.1-0.2,0.1c-0.1,0-0.2,0-0.3-0.2C327.2,128.2,327.1,110,327.1,110z M329,126.2
				c0.1,0,0.2,0,0.3-0.1c1-0.6,1.9-1.6,2.3-2.4c0.4-0.7,0.5-1.3,0.5-1.9c0-0.6-0.2-1.2-0.5-1.5c-0.2-0.2-0.5-0.4-0.8-0.4
				c-0.3,0-0.5,0.1-0.8,0.2c-0.4,0.3-1.3,1-1.4,1.3c0,0.1-0.1,0.5-0.1,1c0,1.3,0.1,3.2,0.1,3.2C328.6,125.9,328.7,126.2,329,126.2z"
				/>
		</g>
	</g>
	<g transform="matrix(0.708661,0,0,0.708661,0,0)">
		<line vector-effect="none" class="st0" x1="368.9" y1="143.1" x2="384.9" y2="143.1"/>
	</g>
	<g transform="matrix(0.708661,0,0,0.708661,0,0)">
		<line vector-effect="none" class="st0" x1="368.9" y1="135.1" x2="384.9" y2="135.1"/>
	</g>
	<g transform="matrix(0.708661,0,0,0.708661,0,0)">
		<line vector-effect="none" class="st0" x1="368.9" y1="127.1" x2="384.9" y2="127.1"/>
	</g>
	<g transform="matrix(0.708661,0,0,0.708661,0,0)">
		<line vector-effect="none" class="st3" x1="372.1" y1="128.4" x2="372.1" y2="167.1"/>
	</g>
	<g transform="matrix(0.708661,0,0,0.708661,0,0)">
		<g class="st1">
			<path d="M371.6,128.6c0-3.1,3.2-6,7.1-6c2.1,0,3.5,1.2,3.5,3c0,3-3.9,6-7.1,6C373.2,131.6,371.6,130.5,371.6,128.6z"/>
		</g>
	</g>
	<g transform="matrix(0.708661,0,0,0.708661,0,0)">
		<line vector-effect="none" class="st0" x1="402.4" y1="143.1" x2="418.4" y2="143.1"/>
	</g>
	<g transform="matrix(0.708661,0,0,0.708661,0,0)">
		<line vector-effect="none" class="st0" x1="402.4" y1="135.1" x2="418.4" y2="135.1"/>
	</g>
	<g transform="matrix(0.708661,0,0,0.708661,0,0)">
		<line vector-effect="none" class="st0" x1="402.4" y1="127.1" x2="418.4" y2="127.1"/>
	</g>
	<g transform="matrix(0.708661,0,0,0.708661,0,0)">
		<line vector-effect="none" class="st3" x1="405.6" y1="128.4" x2="405.6" y2="167.1"/>
	</g>
	<g transform="matrix(0.708661,0,0,0.708661,0,0)">
		<g class="st1">
			<path d="M405.1,128.6c0-3.1,3.2-6,7.1-6c2.1,0,3.5,1.2,3.5,3c0,3-3.9,6-7.1,6C406.7,131.6,405.1,130.5,405.1,128.6z"/>
		</g>
	</g>
	<g transform="matrix(0.708661,0,0,0.708661,0,0)">
		<g class="st1">
			<path d="M393.9,114c0-0.6,0.5-0.9,1-0.9c0.3,0,0.6,0.2,0.6,0.5c0,0.6-0.2,8.3-0.2,9c0,0.2,0.1,0.4,0.4,0.5c0.1,0,0.1,0,0.2,0
				c0.3,0,0.5-0.3,0.7-0.4c0.4-0.2,0.7-0.4,1.1-0.4c0.2-0.1,0.4-0.1,0.7-0.1c1.5,0.1,2.9,1.2,2.9,3.1c0,1.5-1,3.4-3.8,5.4
				c-0.8,0.5-1.6,1.4-2.5,2c0,0-0.1,0.1-0.2,0.1s-0.2,0-0.3-0.2C394,132.2,393.9,114,393.9,114z M395.7,130.2c0.1,0,0.2,0,0.3-0.1
				c1-0.6,1.9-1.6,2.3-2.4c0.4-0.7,0.5-1.3,0.5-1.9c0-0.6-0.2-1.2-0.5-1.5c-0.2-0.2-0.5-0.4-0.8-0.4c-0.3,0-0.5,0.1-0.8,0.2
				c-0.4,0.3-1.3,1-1.4,1.3c0,0.1-0.1,0.5-0.1,1c0,1.3,0.1,3.2,0.1,3.2C395.4,129.9,395.4,130.2,395.7,130.2z"/>
		</g>
	</g>
	<g transform="matrix(0.708661,0,0,0.708661,0,0)">
		<line vector-effect="none" class="st0" x1="435.6" y1="143.1" x2="451.6" y2="143.1"/>
	</g>
	<g transform="matrix(0.708661,0,0,0.708661,0,0)">
		<line vector-effect="none" class="st0" x1="435.6" y1="135.1" x2="451.6" y2="135.1"/>
	</g>
	<g transform="matrix(0.708661,0,0,0.708661,0,0)">
		<line vector-effect="none" class="st3" x1="438.9" y1="132.4" x2="438.9" y2="167.1"/>
	</g>
	<g transform="matrix(0.708661,0,0,0.708661,0,0)">
		<g class="st1">
			<path d="M438.4,132.6c0-3.1,3.2-6,7.1-6c2.1,0,3.5,1.2,3.5,3c0,3-3.9,6-7.1,6C439.9,135.6,438.4,134.5,438.4,132.6z"/>
		</g>
	</g>
	<g transform="matrix(0.708661,0,0,0.708661,0,0)">
		<g class="st1">
			<path d="M434,125.1c0.1,0,0.3,0.1,0.3,0.3v16.1c0,0.2-0.2,0.4-0.4,0.4h-0.4c-0.2,0-0.4-0.2-0.4-0.4v-4.8c0-0.3-0.2-0.4-0.5-0.4
				c-0.9,0-2.7,0.8-3.2,1c0,0-0.1,0-0.1,0c0,0-0.1,0-0.1,0c-0.2,0-0.3-0.1-0.3-0.3v-16.5c0-0.2,0.2-0.4,0.4-0.4h0.4
				c0.2,0,0.4,0.2,0.4,0.4v5.3c0,0.1,0.1,0.2,0.3,0.2c0.8,0,2.9-0.7,2.9-0.7c0,0,0.1,0,0.1,0l0.5-0.2
				C433.9,125.1,434,125.1,434,125.1z M430.1,133.2c0,0.1,0.2,0.2,0.4,0.2c0.8,0,2.6-0.7,2.6-1.3v-3.3c0-0.1-0.1-0.2-0.3-0.2
				c-0.8,0-2.7,0.8-2.7,1.3V133.2z"/>
		</g>
	</g>
	<g transform="matrix(0.708661,0,0,0.708661,0,0)">
		<line vector-effect="none" class="st0" x1="480.9" y1="143.1" x2="496.9" y2="143.1"/>
	</g>
	<g transform="matrix(0.708661,0,0,0.708661,0,0)">
		<line vector-effect="none" class="st0" x1="480.9" y1="135.1" x2="496.9" y2="135.1"/>
	</g>
	<g transform="matrix(0.708661,0,0,0.708661,0,0)">
		<line vector-effect="none" class="st3" x1="484.2" y1="136.4" x2="484.2" y2="167.1"/>
	</g>
	<g transform="matrix(0.708661,0,0,0.708661,0,0)">
		<g class="st1">
			<path d="M483.7,136.6c0-3.1,3.2-6,7.1-6c2.1,0,3.5,1.2,3.5,3c0,3-3.9,6-7.1,6C485.2,139.6,483.7,138.5,483.7,136.6z"/>
		</g>
	</g>
	<g transform="matrix(0.708661,0,0,0.708661,0,0)">
		<line vector-effect="none" class="st0" x1="514.2" y1="143.1" x2="530.2" y2="143.1"/>
	</g>
	<g transform="matrix(0.708661,0,0,0.708661,0,0)">
		<line vector-effect="none" class="st0" x1="514.2" y1="135.1" x2="530.2" y2="135.1"/>
	</g>
	<g transform="matrix(0.708661,0,0,0.708661,0,0)">
		<line vector-effect="none" class="st3" x1="517.4" y1="136.4" x2="517.4" y2="167.1"/>
	</g>
	<g transform="matrix(0.708661,0,0,0.708661,0,0)">
		<g class="st1">
			<path d="M516.9,136.6c0-3.1,3.2-6,7.1-6c2.1,0,3.5,1.2,3.5,3c0,3-3.9,6-7.1,6C518.4,139.6,516.9,138.5,516.9,136.6z"/>
		</g>
	</g>
	<g transform="matrix(0.708661,0,0,0.708661,0,0)">
		<g class="st1">
			<path d="M505.7,122c0-0.6,0.5-0.9,1-0.9c0.3,0,0.6,0.2,0.6,0.5c0,0.6-0.2,8.3-0.2,9c0,0.2,0.1,0.4,0.4,0.5c0.1,0,0.1,0,0.2,0
				c0.3,0,0.5-0.3,0.7-0.4c0.4-0.2,0.7-0.4,1.1-0.4c0.2-0.1,0.4-0.1,0.7-0.1c1.5,0.1,2.9,1.2,2.9,3.1c0,1.5-1,3.4-3.8,5.4
				c-0.8,0.5-1.6,1.4-2.5,2c0,0-0.1,0.1-0.2,0.1c-0.1,0-0.2,0-0.3-0.2C505.8,140.2,505.7,122,505.7,122z M507.5,138.2
				c0.1,0,0.2,0,0.3-0.1c1-0.6,1.9-1.6,2.3-2.4c0.4-0.7,0.5-1.3,0.5-1.9c0-0.6-0.2-1.2-0.5-1.5c-0.2-0.2-0.5-0.4-0.8-0.4
				c-0.3,0-0.5,0.1-0.8,0.2c-0.4,0.3-1.3,1-1.4,1.3c0,0.1-0.1,0.5-0.1,1c0,1.3,0.1,3.2,0.1,3.2C507.2,137.9,507.2,138.2,507.5,138.2
				z"/>
		</g>
	</g>
	<g transform="matrix(0.708661,0,0,0.708661,0,0)">
		<line vector-effect="none" class="st0" x1="547.7" y1="143.1" x2="563.7" y2="143.1"/>
	</g>
	<g transform="matrix(0.708661,0,0,0.708661,0,0)">
		<line vector-effect="none" class="st3" x1="550.9" y1="140.4" x2="550.9" y2="167.1"/>
	</g>
	<g transform="matrix(0.708661,0,0,0.708661,0,0)">
		<g class="st1">
			<path d="M550.4,140.6c0-3.1,3.2-6,7.1-6c2.1,0,3.5,1.2,3.5,3c0,3-3.9,6-7.1,6C552,143.6,550.4,142.5,550.4,140.6z"/>
		</g>
	</g>
	<g transform="matrix(0.708661,0,0,0.708661,0,0)">
		<line vector-effect="none" class="st0" x1="580.9" y1="143.1" x2="596.9" y2="143.1"/>
	</g>
	<g transform="matrix(0.708661,0,0,0.708661,0,0)">
		<line vector-effect="none" class="st3" x1="584.2" y1="140.4" x2="584.2" y2="167.1"/>
	</g>
	<g transform="matrix(0.708661,0,0,0.708661,0,0)">
		<g class="st1">
			<path d="M583.7,140.6c0-3.1,3.2-6,7.1-6c2.1,0,3.5,1.2,3.5,3c0,3-3.9,6-7.1,6C585.2,143.6,583.7,142.5,583.7,140.6z"/>
		</g>
	</g>
	<g transform="matrix(0.708661,0,0,0.708661,0,0)">
		<g class="st1">
			<path d="M572.4,126c0-0.6,0.5-0.9,1-0.9c0.3,0,0.6,0.2,0.6,0.5c0,0.6-0.2,8.3-0.2,9c0,0.2,0.1,0.4,0.4,0.5c0.1,0,0.1,0,0.2,0
				c0.3,0,0.5-0.3,0.7-0.4c0.4-0.2,0.7-0.4,1.1-0.4c0.2-0.1,0.4-0.1,0.7-0.1c1.5,0.1,2.9,1.2,2.9,3.1c0,1.5-1,3.4-3.8,5.4
				c-0.8,0.5-1.6,1.4-2.5,2c0,0-0.1,0.1-0.2,0.1c-0.1,0-0.2,0-0.3-0.2C572.6,144.3,572.4,126,572.4,126z M574.3,142.2
				c0.1,0,0.2,0,0.3-0.1c1-0.6,1.9-1.6,2.3-2.4c0.4-0.7,0.5-1.3,0.5-1.9c0-0.6-0.2-1.2-0.5-1.5c-0.2-0.2-0.5-0.4-0.8-0.4
				c-0.3,0-0.5,0.1-0.8,0.2c-0.4,0.3-1.3,1-1.4,1.3c0,0.1-0.1,0.5-0.1,1c0,1.3,0.1,3.2,0.1,3.2C573.9,141.9,574,142.2,574.3,142.2z"
				/>
		</g>
	</g>
	<g transform="matrix(0.708661,0,0,0.708661,0,0)">
		<line vector-effect="none" class="st0" x1="626.2" y1="143.1" x2="642.2" y2="143.1"/>
	</g>
	<g transform="matrix(0.708661,0,0,0.708661,0,0)">
		<line vector-effect="none" class="st3" x1="629.4" y1="144.4" x2="629.4" y2="171.1"/>
	</g>
	<g transform="matrix(0.708661,0,0,0.708661,0,0)">
		<g class="st1">
			<path d="M628.9,144.6c0-3.1,3.2-6,7.1-6c2.1,0,3.5,1.2,3.5,3c0,3-3.9,6-7.1,6C630.5,147.6,628.9,146.5,628.9,144.6z"/>
		</g>
	</g>
	<g transform="matrix(0.708661,0,0,0.708661,0,0)">
		<line vector-effect="none" class="st3" x1="662.7" y1="148.4" x2="662.7" y2="175.1"/>
	</g>
	<g transform="matrix(0.708661,0,0,0.708661,0,0)">
		<g class="st1">
			<path d="M662.2,148.6c0-3.1,3.2-6,7.1-6c2.1,0,3.5,1.2,3.5,3c0,3-3.9,6-7.1,6C663.7,151.6,662.2,150.5,662.2,148.6z"/>
		</g>
	</g>
	<g transform="matrix(0.708661,0,0,0.708661,0,0)">
		<line vector-effect="none" class="st3" x1="696.2" y1="148.4" x2="696.2" y2="175.1"/>
	</g>
	<g transform="matrix(0.708661,0,0,0.708661,0,0)">
		<g class="st1">
			<path d="M695.7,148.6c0-3.1,3.2-6,7.1-6c2.1,0,3.5,1.2,3.5,3c0,3-3.9,6-7.1,6C697.3,151.6,695.7,150.5,695.7,148.6z"/>
		</g>
	</g>
	<g transform="matrix(0.708661,0,0,0.708661,0,0)">
		<g class="st1">
			<path d="M686.2,134c0-0.6,0.5-0.9,1-0.9c0.3,0,0.6,0.2,0.6,0.5c0,0.6-0.2,8.3-0.2,9c0,0.2,0.1,0.4,0.4,0.5c0.1,0,0.1,0,0.2,0
				c0.3,0,0.5-0.3,0.7-0.4c0.4-0.2,0.7-0.4,1.1-0.4c0.2-0.1,0.4-0.1,0.7-0.1c1.5,0.1,2.9,1.2,2.9,3.1c0,1.5-1,3.4-3.8,5.4
				c-0.8,0.5-1.6,1.4-2.5,2c0,0-0.1,0.1-0.2,0.1c-0.1,0-0.2,0-0.3-0.2C686.3,152.3,686.2,134,686.2,134z M688.1,150.2
				c0.1,0,0.2,0,0.3-0.1c1-0.6,1.9-1.6,2.3-2.4c0.4-0.7,0.5-1.3,0.5-1.9c0-0.6-0.2-1.2-0.5-1.5c-0.2-0.2-0.5-0.4-0.8-0.4
				c-0.3,0-0.5,0.1-0.8,0.2c-0.4,0.3-1.3,1-1.4,1.3c0,0.1-0.1,0.5-0.1,1c0,1.3,0.1,3.2,0.1,3.2C687.7,149.9,687.8,150.2,688.1,150.2
				z"/>
		</g>
	</g>
	<g transform="matrix(0.708661,0,0,0.708661,0,0)">
		<line vector-effect="none" class="st3" x1="729.5" y1="152.4" x2="729.5" y2="179.1"/>
	</g>
	<g transform="matrix(0.708661,0,0,0.708661,0,0)">
		<g class="st1">
			<path d="M729,152.6c0-3.1,3.2-6,7.1-6c2.1,0,3.5,1.2,3.5,3c0,3-3.9,6-7.1,6C730.5,155.6,729,154.5,729,152.6z"/>
		</g>
	</g>
	<g transform="matrix(0.708661,0,0,0.708661,0,0)">
		<line vector-effect="none" class="st3" x1="46.5" y1="258.4" x2="46.5" y2="285.2"/>
	</g>
	<g transform="matrix(0.708661,0,0,0.708661,0,0)">
		<g class="st1">
			<path d="M46,258.7c0-3.1,3.2-6,7.1-6c2.1,0,3.5,1.2,3.5,3c0,3-3.9,6-7.1,6C47.6,261.7,46,260.6,46,258.7z"/>
		</g>
	</g>
	<g transform="matrix(0.708661,0,0,0.708661,0,0)">
		<g class="st1">
			<path d="M36.5,244c0-0.6,0.5-0.9,1-0.9c0.3,0,0.6,0.2,0.6,0.5c0,0.6-0.2,8.3-0.2,9c0,0.2,0.1,0.4,0.4,0.5c0.1,0,0.1,0,0.2,0
				c0.3,0,0.5-0.3,0.7-0.4c0.4-0.2,0.7-0.4,1.1-0.4c0.2-0.1,0.4-0.1,0.7-0.1c1.5,0.1,2.9,1.2,2.9,3.1c0,1.5-1,3.4-3.8,5.4
				c-0.8,0.5-1.6,1.4-2.5,2c0,0-0.1,0.1-0.2,0.1c-0.1,0-0.2,0-0.3-0.2C36.6,262.3,36.5,244,36.5,244z M38.4,260.2
				c0.1,0,0.2,0,0.3-0.1c1-0.6,1.9-1.6,2.3-2.4c0.4-0.7,0.5-1.3,0.5-1.9c0-0.6-0.2-1.2-0.5-1.5c-0.2-0.2-0.5-0.4-0.8-0.4
				c-0.3,0-0.5,0.1-0.8,0.2c-0.4,0.3-1.3,1-1.4,1.3c0,0.1-0.1,0.5-0.1,1c0,1.3,0.1,3.2,0.1,3.2C38,259.9,38.1,260.2,38.4,260.2z"/>
		</g>
	</g>
	<g transform="matrix(0.708661,0,0,0.708661,0,0)">
		<line vector-effect="none" class="st3" x1="79.8" y1="262.4" x2="79.8" y2="289.2"/>
	</g>
	<g transform="matrix(0.708661,0,0,0.708661,0,0)">
		<g class="st1">
			<path d="M79.3,262.7c0-3.1,3.2-6,7.1-6c2.1,0,3.5,1.2,3.5,3c0,3-3.9,6-7.1,6C80.8,265.7,79.3,264.6,79.3,262.7z"/>
		</g>
	</g>
	<g transform="matrix(0.708661,0,0,0.708661,0,0)">
		<line vector-effect="none" class="st3" x1="113" y1="262.4" x2="113" y2="289.2"/>
	</g>
	<g transform="matrix(0.708661,0,0,0.708661,0,0)">
		<g class="st1">
			<path d="M112.5,262.7c0-3.1,3.2-6,7.1-6c2.1,0,3.5,1.2,3.5,3c0,3-3.9,6-7.1,6C114.1,265.7,112.5,264.6,112.5,262.7z"/>
		</g>
	</g>
	<g transform="matrix(0.708661,0,0,0.708661,0,0)">
		<g class="st1">
			<path d="M103,248c0-0.6,0.5-0.9,1-0.9c0.3,0,0.6,0.2,0.6,0.5c0,0.6-0.2,8.3-0.2,9c0,0.2,0.1,0.4,0.4,0.5c0.1,0,0.1,0,0.2,0
				c0.3,0,0.5-0.3,0.7-0.4c0.4-0.2,0.7-0.4,1.1-0.4c0.2-0.1,0.4-0.1,0.7-0.1c1.5,0.1,2.9,1.2,2.9,3.1c0,1.5-1,3.4-3.8,5.4
				c-0.8,0.5-1.6,1.4-2.5,2c0,0-0.1,0.1-0.2,0.1c-0.1,0-0.2,0-0.3-0.2C103.2,266.3,103,248,103,248z M104.9,264.2
				c0.1,0,0.2,0,0.3-0.1c1-0.6,1.9-1.6,2.3-2.4c0.4-0.7,0.5-1.3,0.5-1.9c0-0.6-0.2-1.2-0.5-1.5c-0.2-0.2-0.5-0.4-0.8-0.4
				c-0.3,0-0.5,0.1-0.8,0.2c-0.4,0.3-1.3,1-1.4,1.3c0,0.1-0.1,0.5-0.1,1c0,1.3,0.1,3.2,0.1,3.2C104.5,263.9,104.6,264.2,104.9,264.2
				z"/>
		</g>
	</g>
	<g transform="matrix(0.708661,0,0,0.708661,0,0)">
		<line vector-effect="none" class="st3" x1="146.3" y1="266.4" x2="146.3" y2="293.2"/>
	</g>
	<g transform="matrix(0.708661,0,0,0.708661,0,0)">
		<g class="st1">
			<path d="M145.8,266.7c0-3.1,3.2-6,7.1-6c2.1,0,3.5,1.2,3.5,3c0,3-3.9,6-7.1,6C147.3,269.7,145.8,268.6,145.8,266.7z"/>
		</g>
	</g>
	<g transform="matrix(0.708661,0,0,0.708661,0,0)">
		<line vector-effect="none" class="st3" x1="191.6" y1="270.4" x2="191.6" y2="297.2"/>
	</g>
	<g transform="matrix(0.708661,0,0,0.708661,0,0)">
		<g class="st1">
			<path d="M191.1,270.7c0-3.1,3.2-6,7.1-6c2.1,0,3.5,1.2,3.5,3c0,3-3.9,6-7.1,6C192.6,273.7,191.1,272.6,191.1,270.7z"/>
		</g>
	</g>
	<g transform="matrix(0.708661,0,0,0.708661,0,0)">
		<line vector-effect="none" class="st3" x1="225.1" y1="270.4" x2="225.1" y2="297.2"/>
	</g>
	<g transform="matrix(0.708661,0,0,0.708661,0,0)">
		<g class="st1">
			<path d="M224.6,270.7c0-3.1,3.2-6,7.1-6c2.1,0,3.5,1.2,3.5,3c0,3-3.9,6-7.1,6C226.1,273.7,224.6,272.6,224.6,270.7z"/>
		</g>
	</g>
	<g transform="matrix(0.708661,0,0,0.708661,0,0)">
		<g class="st1">
			<path d="M215.1,256c0-0.6,0.5-0.9,1-0.9c0.3,0,0.6,0.2,0.6,0.5c0,0.6-0.2,8.3-0.2,9c0,0.2,0.1,0.4,0.4,0.5c0.1,0,0.1,0,0.2,0
				c0.3,0,0.5-0.3,0.7-0.4c0.4-0.2,0.7-0.4,1.1-0.4c0.2-0.1,0.4-0.1,0.7-0.1c1.5,0.1,2.9,1.2,2.9,3.1c0,1.5-1,3.4-3.8,5.4
				c-0.8,0.5-1.6,1.4-2.5,2c0,0-0.1,0.1-0.2,0.1c-0.1,0-0.2,0-0.3-0.2C215.2,274.3,215.1,256,215.1,256z M216.9,272.2
				c0.1,0,0.2,0,0.3-0.1c1-0.6,1.9-1.6,2.3-2.4c0.4-0.7,0.5-1.3,0.5-1.9c0-0.6-0.2-1.2-0.5-1.5c-0.2-0.2-0.5-0.4-0.8-0.4
				c-0.3,0-0.5,0.1-0.8,0.2c-0.4,0.3-1.3,1-1.4,1.3c0,0.1-0.1,0.5-0.1,1c0,1.3,0.1,3.2,0.1,3.2C216.6,271.9,216.6,272.2,216.9,272.2
				z"/>
		</g>
	</g>
	<g transform="matrix(0.708661,0,0,0.708661,0,0)">
		<line vector-effect="none" class="st3" x1="258.3" y1="274.4" x2="258.3" y2="301.2"/>
	</g>
	<g transform="matrix(0.708661,0,0,0.708661,0,0)">
		<g class="st1">
			<path d="M257.8,274.7c0-3.1,3.2-6,7.1-6c2.1,0,3.5,1.2,3.5,3c0,3-3.9,6-7.1,6C259.4,277.7,257.8,276.6,257.8,274.7z"/>
		</g>
	</g>
	<g transform="matrix(0.708661,0,0,0.708661,0,0)">
		<line vector-effect="none" class="st3" x1="291.6" y1="274.4" x2="291.6" y2="301.2"/>
	</g>
	<g transform="matrix(0.708661,0,0,0.708661,0,0)">
		<g class="st1">
			<path d="M291.1,274.7c0-3.1,3.2-6,7.1-6c2.1,0,3.5,1.2,3.5,3c0,3-3.9,6-7.1,6C292.6,277.7,291.1,276.6,291.1,274.7z"/>
		</g>
	</g>
	<g transform="matrix(0.708661,0,0,0.708661,0,0)">
		<g class="st1">
			<path d="M281.6,260c0-0.6,0.5-0.9,1-0.9c0.3,0,0.6,0.2,0.6,0.5c0,0.6-0.2,8.3-0.2,9c0,0.2,0.1,0.4,0.4,0.5c0.1,0,0.1,0,0.2,0
				c0.3,0,0.5-0.3,0.7-0.4c0.4-0.2,0.7-0.4,1.1-0.4c0.2-0.1,0.4-0.1,0.7-0.1c1.5,0.1,2.9,1.2,2.9,3.1c0,1.5-1,3.4-3.8,5.4
				c-0.8,0.5-1.6,1.4-2.5,2c0,0-0.1,0.1-0.2,0.1c-0.1,0-0.2,0-0.3-0.2C281.7,278.3,281.6,260,281.6,260z M283.4,276.2
				c0.1,0,0.2,0,0.3-0.1c1-0.6,1.9-1.6,2.3-2.4c0.4-0.7,0.5-1.3,0.5-1.9c0-0.6-0.2-1.2-0.5-1.5c-0.2-0.2-0.5-0.4-0.8-0.4
				c-0.3,0-0.5,0.1-0.8,0.2c-0.4,0.3-1.3,1-1.4,1.3c0,0.1-0.1,0.5-0.1,1c0,1.3,0.1,3.2,0.1,3.2C283.1,275.9,283.2,276.2,283.4,276.2
				z"/>
		</g>
	</g>
	<g transform="matrix(0.708661,0,0,0.708661,0,0)">
		<line vector-effect="none" class="st3" x1="346.4" y1="275.9" x2="346.4" y2="249.2"/>
	</g>
	<g transform="matrix(0.708661,0,0,0.708661,0,0)">
		<g class="st1">
			<path d="M336.4,278.7c0-3.1,3.2-6,7.1-6c2.1,0,3.5,1.2,3.5,3c0,3-3.9,6-7.1,6C337.9,281.7,336.4,280.6,336.4,278.7z"/>
		</g>
	</g>
	<g transform="matrix(0.708661,0,0,0.708661,0,0)">
		<line vector-effect="none" class="st3" x1="379.6" y1="279.9" x2="379.6" y2="253.2"/>
	</g>
	<g transform="matrix(0.708661,0,0,0.708661,0,0)">
		<g class="st1">
			<path d="M369.6,282.7c0-3.1,3.2-6,7.1-6c2.1,0,3.5,1.2,3.5,3c0,3-3.9,6-7.1,6C371.2,285.7,369.6,284.6,369.6,282.7z"/>
		</g>
	</g>
	<g transform="matrix(0.708661,0,0,0.708661,0,0)">
		<line vector-effect="none" class="st3" x1="412.9" y1="279.9" x2="412.9" y2="253.2"/>
	</g>
	<g transform="matrix(0.708661,0,0,0.708661,0,0)">
		<g class="st1">
			<path d="M402.9,282.7c0-3.1,3.2-6,7.1-6c2.1,0,3.5,1.2,3.5,3c0,3-3.9,6-7.1,6C404.4,285.7,402.9,284.6,402.9,282.7z"/>
		</g>
	</g>
	<g transform="matrix(0.708661,0,0,0.708661,0,0)">
		<g class="st1">
			<path d="M393.4,268c0-0.6,0.5-0.9,1-0.9c0.3,0,0.6,0.2,0.6,0.5c0,0.6-0.2,8.3-0.2,9c0,0.2,0.1,0.4,0.4,0.5c0.1,0,0.1,0,0.2,0
				c0.3,0,0.5-0.3,0.7-0.4c0.4-0.2,0.7-0.4,1.1-0.4c0.2-0.1,0.4-0.1,0.7-0.1c1.5,0.1,2.9,1.2,2.9,3.1c0,1.5-1,3.4-3.8,5.4
				c-0.8,0.5-1.6,1.4-2.5,2c0,0-0.1,0.1-0.2,0.1s-0.2,0-0.3-0.2C393.5,286.3,393.4,268,393.4,268z M395.2,284.2c0.1,0,0.2,0,0.3-0.1
				c1-0.6,1.9-1.6,2.3-2.4c0.4-0.7,0.5-1.3,0.5-1.9c0-0.6-0.2-1.2-0.5-1.5c-0.2-0.2-0.5-0.4-0.8-0.4c-0.3,0-0.5,0.1-0.8,0.2
				c-0.4,0.3-1.3,1-1.4,1.3c0,0.1-0.1,0.5-0.1,1c0,1.3,0.1,3.2,0.1,3.2C394.9,283.9,394.9,284.2,395.2,284.2z"/>
		</g>
	</g>
	<g transform="matrix(0.708661,0,0,0.708661,0,0)">
		<line vector-effect="none" class="st3" x1="446.1" y1="283.9" x2="446.1" y2="257.2"/>
	</g>
	<g transform="matrix(0.708661,0,0,0.708661,0,0)">
		<g class="st1">
			<path d="M436.1,286.7c0-3.1,3.2-6,7.1-6c2.1,0,3.5,1.2,3.5,3c0,3-3.9,6-7.1,6C437.7,289.7,436.1,288.6,436.1,286.7z"/>
		</g>
	</g>
	<g transform="matrix(0.708661,0,0,0.708661,0,0)">
		<line vector-effect="none" class="st3" x1="491.4" y1="283.9" x2="491.4" y2="257.2"/>
	</g>
	<g transform="matrix(0.708661,0,0,0.708661,0,0)">
		<g class="st1">
			<path d="M481.4,286.7c0-3.1,3.2-6,7.1-6c2.1,0,3.5,1.2,3.5,3c0,3-3.9,6-7.1,6C482.9,289.7,481.4,288.6,481.4,286.7z"/>
		</g>
	</g>
	<g transform="matrix(0.708661,0,0,0.708661,0,0)">
		<g class="st1">
			<path d="M471.9,272c0-0.6,0.5-0.9,1-0.9c0.3,0,0.6,0.2,0.6,0.5c0,0.6-0.2,8.3-0.2,9c0,0.2,0.1,0.4,0.4,0.5c0.1,0,0.1,0,0.2,0
				c0.3,0,0.5-0.3,0.7-0.4c0.4-0.2,0.7-0.4,1.1-0.4c0.2-0.1,0.4-0.1,0.7-0.1c1.5,0.1,2.9,1.2,2.9,3.1c0,1.5-1,3.4-3.8,5.4
				c-0.8,0.5-1.6,1.4-2.5,2c0,0-0.1,0.1-0.2,0.1s-0.2,0-0.3-0.2C472,290.3,471.9,272,471.9,272z M473.8,288.2c0.1,0,0.2,0,0.3-0.1
				c1-0.6,1.9-1.6,2.3-2.4c0.4-0.7,0.5-1.3,0.5-1.9c0-0.6-0.2-1.2-0.5-1.5c-0.2-0.2-0.5-0.4-0.8-0.4c-0.3,0-0.5,0.1-0.8,0.2
				c-0.4,0.3-1.3,1-1.4,1.3c0,0.1-0.1,0.5-0.1,1c0,1.3,0.1,3.2,0.1,3.2C473.4,287.9,473.5,288.2,473.8,288.2z"/>
		</g>
	</g>
	<g transform="matrix(0.708661,0,0,0.708661,0,0)">
		<line vector-effect="none" class="st3" x1="524.9" y1="287.9" x2="524.9" y2="261.2"/>
	</g>
	<g transform="matrix(0.708661,0,0,0.708661,0,0)">
		<g class="st1">
			<path d="M514.9,290.7c0-3.1,3.2-6,7.1-6c2.1,0,3.5,1.2,3.5,3c0,3-3.9,6-7.1,6C516.4,293.7,514.9,292.6,514.9,290.7z"/>
		</g>
	</g>
	<g transform="matrix(0.708661,0,0,0.708661,0,0)">
		<line vector-effect="none" class="st3" x1="558.2" y1="287.9" x2="558.2" y2="261.2"/>
	</g>
	<g transform="matrix(0.708661,0,0,0.708661,0,0)">
		<g class="st1">
			<path d="M548.2,290.7c0-3.1,3.2-6,7.1-6c2.1,0,3.5,1.2,3.5,3c0,3-3.9,6-7.1,6C549.7,293.7,548.2,292.6,548.2,290.7z"/>
		</g>
	</g>
	<g transform="matrix(0.708661,0,0,0.708661,0,0)">
		<g class="st1">
			<path d="M538.7,276c0-0.6,0.5-0.9,1-0.9c0.3,0,0.6,0.2,0.6,0.5c0,0.6-0.2,8.3-0.2,9c0,0.2,0.1,0.4,0.4,0.5c0.1,0,0.1,0,0.2,0
				c0.3,0,0.5-0.3,0.7-0.4c0.4-0.2,0.7-0.4,1.1-0.4c0.2-0.1,0.4-0.1,0.7-0.1c1.5,0.1,2.9,1.2,2.9,3.1c0,1.5-1,3.4-3.8,5.4
				c-0.8,0.5-1.6,1.4-2.5,2c0,0-0.1,0.1-0.2,0.1c-0.1,0-0.2,0-0.3-0.2C538.8,294.3,538.7,276,538.7,276z M540.5,292.2
				c0.1,0,0.2,0,0.3-0.1c1-0.6,1.9-1.6,2.3-2.4c0.4-0.7,0.5-1.3,0.5-1.9c0-0.6-0.2-1.2-0.5-1.5c-0.2-0.2-0.5-0.4-0.8-0.4
				c-0.3,0-0.5,0.1-0.8,0.2c-0.4,0.3-1.3,1-1.4,1.3c0,0.1-0.1,0.5-0.1,1c0,1.3,0.1,3.2,0.1,3.2C540.2,291.9,540.2,292.2,540.5,292.2
				z"/>
		</g>
	</g>
	<g transform="matrix(0.708661,0,0,0.708661,0,0)">
		<line vector-effect="none" class="st3" x1="591.4" y1="291.9" x2="591.4" y2="265.2"/>
	</g>
	<g transform="matrix(0.708661,0,0,0.708661,0,0)">
		<g class="st1">
			<path d="M581.4,294.7c0-3.1,3.2-6,7.1-6c2.1,0,3.5,1.2,3.5,3c0,3-3.9,6-7.1,6C583,297.7,581.4,296.6,581.4,294.7z"/>
		</g>
	</g>
	<g transform="matrix(0.708661,0,0,0.708661,0,0)">
		<line vector-effect="none" class="st0" x1="623.9" y1="297.2" x2="640" y2="297.2"/>
	</g>
	<g transform="matrix(0.708661,0,0,0.708661,0,0)">
		<line vector-effect="none" class="st3" x1="636.7" y1="295.9" x2="636.7" y2="269.2"/>
	</g>
	<g transform="matrix(0.708661,0,0,0.708661,0,0)">
		<g class="st1">
			<path d="M626.7,298.7c0-3.1,3.2-6,7.1-6c2.1,0,3.5,1.2,3.5,3c0,3-3.9,6-7.1,6C628.2,301.7,626.7,300.6,626.7,298.7z"/>
		</g>
	</g>
	<g transform="matrix(0.708661,0,0,0.708661,0,0)">
		<g class="st1">
			<path d="M668.6,280.1c0,0.1-0.1,0.1-0.2,0.1c-0.1,0-0.1,0-0.2,0c0,0-0.1,0-0.1,0c-0.5-0.2-1.6-0.5-2.5-0.5c-0.2,0-0.4,0-0.5,0
				c-1,0.2-1.5,1.3-1.5,2.3c0,0.3,0,0.6,0.1,0.8c0.1,0.3,0.4,1.2,0.8,1.2c0.3,0.2,0.5,0.5,0.5,0.8c0,0.1,0,0.1-0.1,0.2
				c0,0.1-0.3,0.2-0.5,0.2c-0.3,0-0.6-0.1-0.8-0.3c-2.3-1.8-3.7-3.4-3.7-5c0-1.7,1.2-3.1,2.6-3.1c0.2,0,0.4,0.1,0.5,0.1
				c0.1,0,0.3,0.1,0.5,0.1c0.2,0,0.3,0,0.4-0.2c0,0,0-0.1,0-0.1c0-0.2-0.1-0.3-0.2-0.4c-0.4-0.7-0.9-1.3-1.4-1.9l-1.6-1.9
				c0,0-0.3-0.3-0.3-0.8c0-0.3,0.1-0.6,0.4-0.9c1.4-1.5,1.9-2.9,1.9-4.1c0-2.3-1.8-3.9-2-4.3c-0.1-0.2-0.1-0.4-0.1-0.5
				c0-0.4,0.3-0.7,0.6-0.7c0.2,0,0.4,0.1,0.6,0.3c0.5,0.5,5.3,6.2,5.3,6.2s0.1,0.3,0.1,0.6c0,0.2,0,0.3-0.1,0.5
				c-0.8,1.3-2,2.8-2.1,4.7c0,0.1,0,0.3,0,0.4c0,1.8,1,3,2.2,4.5C667.8,278.7,668.6,279.8,668.6,280.1z"/>
		</g>
	</g>
	<g transform="matrix(0.708661,0,0,0.708661,0,0)">
		<g class="st1">
			<path d="M701.4,273.5h-7.4c-0.5,0-0.8-0.4-0.8-0.8v-2.9c0-0.5,0.4-0.8,0.8-0.8h7.4c0.4,0,0.8,0.4,0.8,0.8v2.9
				C702.2,273.1,701.9,273.5,701.4,273.5z"/>
		</g>
	</g>
</g>
</svg>
