<?xml version="1.0" encoding="utf-8"?>
<!-- Generator: Adobe Illustrator 26.4.1, SVG Export Plug-In . SVG Version: 6.00 Build 0)  -->
<svg version="1.1" id="Layer_1" xmlns="http://www.w3.org/2000/svg" xmlns:xlink="http://www.w3.org/1999/xlink" x="0px" y="0px"
	 viewBox="0 0 540.3 213.8" style="enable-background:new 0 0 540.3 213.8;" xml:space="preserve">
<style type="text/css">
	.st0{fill:none;stroke:#000000;stroke-width:0.8861;stroke-linejoin:bevel;stroke-miterlimit:10;}
	.st1{enable-background:new    ;}
	.st2{fill:none;stroke:#000000;stroke-width:2.8355;stroke-linejoin:bevel;stroke-miterlimit:10;}
	.st3{fill:none;stroke:#000000;stroke-width:0.7089;stroke-linejoin:bevel;stroke-miterlimit:10;}
	.st4{fill-rule:evenodd;clip-rule:evenodd;}
</style>
<g>
	<g transform="matrix(0.708661,0,0,0.708661,0,0)">
		<line vector-effect="none" class="st0" x1="286.6" y1="45.1" x2="286.6" y2="77.1"/>
	</g>
	<g transform="matrix(0.708661,0,0,0.708661,0,0)">
		<line vector-effect="none" class="st0" x1="523.9" y1="45.1" x2="523.9" y2="77.1"/>
	</g>
	<g transform="matrix(0.708661,0,0,0.708661,0,0)">
		<line vector-effect="none" class="st0" x1="761.7" y1="45.1" x2="761.7" y2="77.1"/>
	</g>
	<g transform="matrix(0.708661,0,0,0.708661,0,0)">
	</g>
	<g transform="matrix(0.708661,0,0,0.708661,251.575,512.21)">
	</g>
	<g transform="matrix(0.708661,0,0,0.708661,251.575,512.21)">
		<g class="st1">
			<path d="M-311-722.8h0.6v17.5c0,1.9-2.5,3.8-4.5,3.8c-1.2,0-2.2-0.7-2.2-1.9c0-2,2-3.8,4.5-3.8c0.7,0,1.2,0.2,1.6,0.5L-311-722.8
				z"/>
		</g>
		<g class="st1">
			<path d="M-303.3-708.5v-1.8h10.5v1.8H-303.3z M-292.7-705.9v1.9h-10.5v-1.9H-292.7z"/>
			<path d="M-279-716.7h0.7v13.2c0,0.4,0.3,0.8,0.7,0.8h2.1v0.9h-8.1v-0.9h1.7c0.5,0,0.8-0.5,0.8-0.9v-9.9c0-0.4-0.3-0.8-0.7-0.8
				h-2.4v-1C-282.3-715.4-280.7-715.9-279-716.7z"/>
			<path d="M-273.4-701.9v-0.9c0.2-0.3,0.7-1,4.5-5.6c1.1-1.3,1.8-2.8,1.8-4.4c0-1.6-0.5-2.8-2.2-2.8c-0.9,0-2.4,0.5-2.4,1.7
				c0,0.8,2.1,0.7,2.1,2.1c0,0.9-0.6,1.6-1.6,1.6c-1.4,0-1.7-1.3-1.7-2.4c0-2.6,2-4.1,4.5-4.1c2.4,0,4.4,1.4,4.4,3.9
				c0,1.7-0.9,3-2.2,4.1c-1.1,0.9-3.8,2.9-4.9,4.2l5.1,0c0.8,0,1.2-2.4,1.2-2.4h0.9l-0.3,5H-273.4z"/>
			<path d="M-262.6-709c0-3.2,1.3-7.5,5.6-7.5c4.1,0,5.4,4.6,5.4,7.5c0,3.1-1.3,7.5-5.5,7.5C-261.3-701.5-262.6-706.1-262.6-709z
				 M-257.2-702.6c2.1,0,2.1-3.8,2.1-6.5c0-3.2,0-6.5-2-6.5c-2.1,0-2.1,3.4-2.1,6.9C-259.2-706.4-259.2-702.6-257.2-702.6z"/>
		</g>
	</g>
	<g transform="matrix(0.708661,0,0,0.708661,251.575,512.21)">
	</g>
	<g transform="matrix(0.708661,0,0,0.708661,0,0)">
	</g>
	<g transform="matrix(0.708661,0,0,0.708661,0,0)">
		<line vector-effect="none" class="st0" x1="397.6" y1="151.1" x2="397.6" y2="183.1"/>
	</g>
	<g transform="matrix(0.708661,0,0,0.708661,0,0)">
		<line vector-effect="none" class="st0" x1="761.7" y1="151.1" x2="761.7" y2="183.1"/>
	</g>
	<g transform="matrix(0.708661,0,0,0.708661,0,0)">
		<line vector-effect="none" class="st0" x1="303.1" y1="257.2" x2="303.1" y2="289.2"/>
	</g>
	<g transform="matrix(0.708661,0,0,0.708661,0,0)">
		<line vector-effect="none" class="st0" x1="572.7" y1="257.2" x2="572.7" y2="289.2"/>
	</g>
	<g transform="matrix(0.708661,0,0,0.708661,0,0)">
		<line vector-effect="none" class="st0" x1="754.5" y1="257.2" x2="754.5" y2="289.2"/>
	</g>
	<g transform="matrix(0.708661,0,0,0.708661,0,0)">
		<line vector-effect="none" class="st2" x1="760.2" y1="257.2" x2="760.2" y2="289.2"/>
	</g>
	<g transform="matrix(0.708661,0,0,0.708661,0,0)">
	</g>
	<g transform="matrix(0.708661,0,0,0.708661,245.906,561.806)">
	</g>
	<g transform="matrix(0.708661,0,0,0.708661,245.906,561.806)">
		<g class="st1">
			<path d="M-297-736.5c0,0.4-0.2,0.7-0.5,0.7h-1.9v1.7c0,1,0.6,1.2,1,1.2c0.3,0,0.7,0.2,0.7,0.6c0,0.5-0.3,0.6-0.6,0.6h-7.5
				c-0.5,0-0.6-0.3-0.6-0.6c0-0.3,0.2-0.6,0.7-0.6c0.6,0,1.3-0.3,1.3-1.1v-1.8h-5.8c-0.4,0-0.6-0.4-0.6-0.7c0-0.1,0-0.2,0.1-0.3
				c0,0,0-0.1,0-0.1l0.2-0.3c0.9-1.3,3.6-5.7,3.6-9.6c0-0.5,0.4-0.6,0.7-0.6c0.3,0,2.1,0.1,2.6,0.1c0.6,0,2.3-0.1,2.5-0.1
				c0.3,0,0.5,0.2,0.5,0.5c0,0.1,0,0.1,0,0.1c-0.1,0.4-5.5,7.4-8.1,9.5h4.3v-2.5c0-0.4,0.2-0.6,0.3-0.7l3.8-3.6
				c0.2-0.2,0.3-0.3,0.6-0.3c0.4,0,0.4,0.3,0.4,0.5v6.6h1.9C-297.2-737.2-297-736.9-297-736.5z"/>
		</g>
	</g>
	<g transform="matrix(0.708661,0,0,0.708661,245.906,561.806)">
		<g class="st1">
			<path d="M-297-720.4c0,0.4-0.2,0.7-0.5,0.7h-1.9v1.7c0,1,0.6,1.2,1,1.2c0.3,0,0.7,0.2,0.7,0.6c0,0.5-0.3,0.6-0.6,0.6h-7.5
				c-0.5,0-0.6-0.3-0.6-0.6c0-0.3,0.2-0.6,0.7-0.6c0.6,0,1.3-0.3,1.3-1.1v-1.8h-5.8c-0.4,0-0.6-0.4-0.6-0.7c0-0.1,0-0.2,0.1-0.3
				c0,0,0-0.1,0-0.1l0.2-0.3c0.9-1.3,3.6-5.7,3.6-9.6c0-0.5,0.4-0.6,0.7-0.6c0.3,0,2.1,0.1,2.6,0.1c0.6,0,2.3-0.1,2.5-0.1
				c0.3,0,0.5,0.2,0.5,0.5c0,0.1,0,0.1,0,0.1c-0.1,0.4-5.5,7.4-8.1,9.5h4.3v-2.5c0-0.4,0.2-0.6,0.3-0.7l3.8-3.6
				c0.2-0.2,0.3-0.3,0.6-0.3c0.4,0,0.4,0.3,0.4,0.5v6.6h1.9C-297.2-721.1-297-720.8-297-720.4z"/>
		</g>
	</g>
	<g transform="matrix(0.708661,0,0,0.708661,245.906,561.806)">
	</g>
	<g transform="matrix(0.708661,0,0,0.708661,0,0)">
	</g>
	<g transform="matrix(0.708661,0,0,0.708661,0,0)">
		<line vector-effect="none" class="st3" x1="0" y1="77.1" x2="762.2" y2="77.1"/>
	</g>
	<g transform="matrix(0.708661,0,0,0.708661,0,0)">
		<line vector-effect="none" class="st3" x1="0" y1="69.1" x2="762.2" y2="69.1"/>
	</g>
	<g transform="matrix(0.708661,0,0,0.708661,0,0)">
		<line vector-effect="none" class="st3" x1="0" y1="61.1" x2="762.2" y2="61.1"/>
	</g>
	<g transform="matrix(0.708661,0,0,0.708661,0,0)">
		<line vector-effect="none" class="st3" x1="0" y1="53.1" x2="762.2" y2="53.1"/>
	</g>
	<g transform="matrix(0.708661,0,0,0.708661,0,0)">
		<line vector-effect="none" class="st3" x1="0" y1="45.1" x2="762.2" y2="45.1"/>
	</g>
	<g transform="matrix(0.708661,0,0,0.708661,0,0)">
		<g class="st1">
			<path d="M23,54c0,4.2-1.7,8.1-4.5,11.1c-3.4,3.6-7.5,6.1-11.8,8.2c-0.2,0.1-0.4,0.2-0.5,0.2c-0.3,0-0.4-0.2-0.4-0.4
				c0-0.3,0.2-0.4,0.5-0.6c4-2.3,7.3-5,9.2-8c2-3.1,2.7-6.9,2.7-10.2c0-5-1.5-8.4-4.9-8.4c-3.3,0-5.2,2.3-5.2,3.6
				c0,0.3,0.1,0.6,0.5,0.6c0.4,0,0.7-0.2,1.6-0.2c1.6,0,3.1,1.3,3.1,3.3c0,2-1.4,3.4-3.4,3.4c-2.6,0-3.9-2.2-3.9-4.8
				c0-3.1,2.5-7.1,8.1-7.1C19.6,44.7,23,48.4,23,54z M27.9,49.1c0,1-0.8,1.8-1.8,1.8c-1,0-1.8-0.8-1.8-1.8c0-1,0.8-1.8,1.8-1.8
				C27.1,47.3,27.9,48.1,27.9,49.1z M27.9,57.1c0,1-0.7,1.7-1.7,1.7c-1,0-1.7-0.7-1.7-1.7c0-1,0.7-1.7,1.7-1.7
				C27.2,55.4,27.9,56.1,27.9,57.1z"/>
		</g>
	</g>
	<g transform="matrix(0.708661,0,0,0.708661,0,0)">
		<path vector-effect="none" class="st4" d="M72,57.1l84.5-4v-4l-84.5,4V57.1"/>
	</g>
	<g transform="matrix(0.708661,0,0,0.708661,0,0)">
		<path vector-effect="none" class="st4" d="M184.6,49.1l84.5-4v-4l-84.5,4V49.1"/>
	</g>
	<g transform="matrix(0.708661,0,0,0.708661,0,0)">
		<path vector-effect="none" class="st4" d="M309.1,41.1l84.5-2v-4l-84.5,2V41.1"/>
	</g>
	<g transform="matrix(0.708661,0,0,0.708661,0,0)">
		<path vector-effect="none" class="st4" d="M412.1,81.1l84.5-4v-4l-84.5,4V81.1"/>
	</g>
	<g transform="matrix(0.708661,0,0,0.708661,0,0)">
		<path vector-effect="none" class="st4" d="M537.7,73.1l84.3-4v-4l-84.3,4V73.1"/>
	</g>
	<g transform="matrix(0.708661,0,0,0.708661,0,0)">
		<path vector-effect="none" class="st4" d="M650.2,63.1l84.3-2v-4l-84.3,2V63.1"/>
	</g>
	<g transform="matrix(0.708661,0,0,0.708661,0,0)">
		<line vector-effect="none" class="st3" x1="0" y1="183.1" x2="762.2" y2="183.1"/>
	</g>
	<g transform="matrix(0.708661,0,0,0.708661,0,0)">
		<line vector-effect="none" class="st3" x1="0" y1="175.1" x2="762.2" y2="175.1"/>
	</g>
	<g transform="matrix(0.708661,0,0,0.708661,0,0)">
		<line vector-effect="none" class="st3" x1="0" y1="167.1" x2="762.2" y2="167.1"/>
	</g>
	<g transform="matrix(0.708661,0,0,0.708661,0,0)">
		<line vector-effect="none" class="st3" x1="0" y1="159.1" x2="762.2" y2="159.1"/>
	</g>
	<g transform="matrix(0.708661,0,0,0.708661,0,0)">
		<line vector-effect="none" class="st3" x1="0" y1="151.1" x2="762.2" y2="151.1"/>
	</g>
	<g transform="matrix(0.708661,0,0,0.708661,0,0)">
		<g class="st1">
			<path d="M23,160c0,4.2-1.7,8.1-4.5,11.1c-3.4,3.6-7.5,6.1-11.8,8.2c-0.2,0.1-0.4,0.2-0.5,0.2c-0.3,0-0.4-0.2-0.4-0.4
				c0-0.3,0.2-0.4,0.5-0.6c4-2.3,7.3-5,9.2-8c2-3.1,2.7-6.9,2.7-10.2c0-5-1.5-8.4-4.9-8.4c-3.3,0-5.2,2.3-5.2,3.6
				c0,0.3,0.1,0.6,0.5,0.6c0.4,0,0.7-0.2,1.6-0.2c1.6,0,3.1,1.3,3.1,3.3c0,2-1.4,3.4-3.4,3.4c-2.6,0-3.9-2.2-3.9-4.8
				c0-3.1,2.5-7.1,8.1-7.1C19.6,150.7,23,154.5,23,160z M27.9,155.1c0,1-0.8,1.8-1.8,1.8c-1,0-1.8-0.8-1.8-1.8c0-1,0.8-1.8,1.8-1.8
				C27.1,153.4,27.9,154.1,27.9,155.1z M27.9,163.1c0,1-0.7,1.7-1.7,1.7c-1,0-1.7-0.7-1.7-1.7c0-1,0.7-1.7,1.7-1.7
				C27.2,161.4,27.9,162.1,27.9,163.1z"/>
		</g>
	</g>
	<g transform="matrix(0.708661,0,0,0.708661,0,0)">
		<path vector-effect="none" class="st4" d="M46.5,171.1l132-4v-4l-132,4V171.1"/>
	</g>
	<g transform="matrix(0.708661,0,0,0.708661,0,0)">
		<path vector-effect="none" class="st4" d="M222.6,167.1l132,4v-4l-132-4V167.1"/>
	</g>
	<g transform="matrix(0.708661,0,0,0.708661,0,0)">
		<path vector-effect="none" class="st4" d="M410.6,167.1l132,2v-4l-132-2V167.1"/>
	</g>
	<g transform="matrix(0.708661,0,0,0.708661,0,0)">
		<path vector-effect="none" class="st4" d="M586.7,175.1l132,4v-4l-132-4V175.1"/>
	</g>
	<g transform="matrix(0.708661,0,0,0.708661,0,0)">
		<line vector-effect="none" class="st3" x1="0" y1="289.2" x2="762.2" y2="289.2"/>
	</g>
	<g transform="matrix(0.708661,0,0,0.708661,0,0)">
		<line vector-effect="none" class="st3" x1="0" y1="281.2" x2="762.2" y2="281.2"/>
	</g>
	<g transform="matrix(0.708661,0,0,0.708661,0,0)">
		<line vector-effect="none" class="st3" x1="0" y1="273.2" x2="762.2" y2="273.2"/>
	</g>
	<g transform="matrix(0.708661,0,0,0.708661,0,0)">
		<line vector-effect="none" class="st3" x1="0" y1="265.2" x2="762.2" y2="265.2"/>
	</g>
	<g transform="matrix(0.708661,0,0,0.708661,0,0)">
		<line vector-effect="none" class="st3" x1="0" y1="257.2" x2="762.2" y2="257.2"/>
	</g>
	<g transform="matrix(0.708661,0,0,0.708661,0,0)">
		<g class="st1">
			<path d="M23,266.1c0,4.2-1.7,8.1-4.5,11.1c-3.4,3.6-7.5,6.1-11.8,8.2c-0.2,0.1-0.4,0.2-0.5,0.2c-0.3,0-0.4-0.2-0.4-0.4
				c0-0.3,0.2-0.4,0.5-0.6c4-2.3,7.3-5,9.2-8c2-3.1,2.7-6.9,2.7-10.2c0-5-1.5-8.4-4.9-8.4c-3.3,0-5.2,2.3-5.2,3.6
				c0,0.3,0.1,0.6,0.5,0.6c0.4,0,0.7-0.2,1.6-0.2c1.6,0,3.1,1.3,3.1,3.3c0,2-1.4,3.4-3.4,3.4c-2.6,0-3.9-2.2-3.9-4.8
				c0-3.1,2.5-7.1,8.1-7.1C19.6,256.8,23,260.5,23,266.1z M27.9,261.2c0,1-0.8,1.8-1.8,1.8c-1,0-1.8-0.8-1.8-1.8
				c0-1,0.8-1.8,1.8-1.8C27.1,259.4,27.9,260.2,27.9,261.2z M27.9,269.2c0,1-0.7,1.7-1.7,1.7c-1,0-1.7-0.7-1.7-1.7
				c0-1,0.7-1.7,1.7-1.7C27.2,267.4,27.9,268.2,27.9,269.2z"/>
		</g>
	</g>
	<g transform="matrix(0.708661,0,0,0.708661,0,0)">
		<path vector-effect="none" class="st4" d="M46.5,289.2l96.5,4v-4l-96.5-4V289.2"/>
	</g>
	<g transform="matrix(0.708661,0,0,0.708661,0,0)">
		<path vector-effect="none" class="st4" d="M175.3,297.2l96.5,2v-4l-96.5-2V297.2"/>
	</g>
	<g transform="matrix(0.708661,0,0,0.708661,0,0)">
		<path vector-effect="none" class="st4" d="M325.6,257.2l96.5,4v-4l-96.5-4V257.2"/>
	</g>
	<g transform="matrix(0.708661,0,0,0.708661,0,0)">
		<path vector-effect="none" class="st4" d="M454.4,265.2l96.5,4v-4l-96.5-4V265.2"/>
	</g>
	<g transform="matrix(0.708661,0,0,0.708661,0,0)">
		<line vector-effect="none" class="st0" x1="59.3" y1="85.1" x2="75.3" y2="85.1"/>
	</g>
	<g transform="matrix(0.708661,0,0,0.708661,0,0)">
		<line vector-effect="none" class="st3" x1="72" y1="83.9" x2="72" y2="53.4"/>
	</g>
	<g transform="matrix(0.708661,0,0,0.708661,0,0)">
		<g class="st1">
			<path d="M62,86.6c0-3.1,3.2-6,7.1-6c2.1,0,3.5,1.2,3.5,3c0,3-3.9,6-7.1,6C63.6,89.6,62,88.5,62,86.6z"/>
		</g>
	</g>
	<g transform="matrix(0.708661,0,0,0.708661,0,0)">
		<line vector-effect="none" class="st3" x1="100.3" y1="79.9" x2="100.3" y2="52.1"/>
	</g>
	<g transform="matrix(0.708661,0,0,0.708661,0,0)">
		<g class="st1">
			<path d="M90.3,82.6c0-3.1,3.2-6,7.1-6c2.1,0,3.5,1.2,3.5,3c0,3-3.9,6-7.1,6C91.8,85.6,90.3,84.5,90.3,82.6z"/>
		</g>
	</g>
	<g transform="matrix(0.708661,0,0,0.708661,0,0)">
		<line vector-effect="none" class="st3" x1="128.3" y1="79.9" x2="128.3" y2="50.8"/>
	</g>
	<g transform="matrix(0.708661,0,0,0.708661,0,0)">
		<g class="st1">
			<path d="M118.3,82.6c0-3.1,3.2-6,7.1-6c2.1,0,3.5,1.2,3.5,3c0,3-3.9,6-7.1,6C119.8,85.6,118.3,84.5,118.3,82.6z"/>
		</g>
	</g>
	<g transform="matrix(0.708661,0,0,0.708661,0,0)">
		<g class="st1">
			<path d="M114.8,77.7c-0.3,0.1-0.4,0.7-0.4,0.9v3c0,0.4,0.2,0.6,0.4,0.6c0.2-0.1,0.8-0.3,0.8-0.3c0.1,0,0.1,0,0.2,0
				c0.1,0,0.2,0.1,0.2,0.3v2.3c0,0.2-0.2,0.4-0.4,0.5c0,0-0.7,0.3-0.9,0.4s-0.4,0.5-0.4,0.7v4.5c0,0.2-0.2,0.4-0.5,0.4
				c-0.2,0-0.4-0.2-0.4-0.4v-4c0-0.2-0.2-0.6-0.4-0.6c0,0-0.1,0-0.1,0l-2,0.8c-0.2,0.1-0.3,0.3-0.3,0.7v4.5c0,0.2-0.2,0.4-0.5,0.4
				c-0.2,0-0.4-0.2-0.4-0.4V88c0-0.2-0.2-0.5-0.4-0.5c0,0-0.1,0-0.1,0c-0.3,0.1-0.7,0.3-0.7,0.3c0,0-0.1,0-0.1,0
				c-0.2,0-0.3-0.1-0.3-0.3v-2.3c0-0.2,0.2-0.4,0.4-0.5c0,0,0.7-0.3,0.9-0.4c0.2-0.1,0.4-0.4,0.4-0.7v-3.2c0-0.3-0.2-0.6-0.4-0.6
				c0,0-0.1,0-0.1,0c-0.2,0.1-0.7,0.3-0.7,0.3c0,0-0.1,0-0.1,0c-0.2,0-0.3-0.1-0.3-0.3v-2.3c0-0.2,0.2-0.4,0.4-0.5
				c0,0,0.6-0.3,0.8-0.4c0.2-0.1,0.4-0.4,0.4-0.9v-1.3v-3c0-0.2,0.2-0.4,0.5-0.4c0.2,0,0.4,0.2,0.4,0.4v3.8c0,0.3,0.1,0.6,0.4,0.6
				c0.5-0.1,1.6-0.6,2-0.8c0.3-0.2,0.4-0.6,0.4-0.9v-4.2c0-0.2,0.2-0.4,0.5-0.4c0.3,0,0.4,0.2,0.4,0.4v3.9c0,0.3,0.2,0.4,0.4,0.4
				c0.2,0,0.8-0.3,0.8-0.3c0.1,0,0.1,0,0.2,0c0.1,0,0.2,0.1,0.2,0.3v2.3c0,0.2-0.2,0.4-0.4,0.5C115.6,77.3,115,77.6,114.8,77.7z
				 M113.5,80.5c0-0.9-0.1-1.7-0.1-1.8c-0.1-0.1-0.3-0.2-0.5-0.2c-0.8,0-2.3,0.7-2.3,1.2c-0.1,0.3-0.1,1.4-0.1,2.4
				c0,0.8,0,1.5,0.1,1.6c0,0.1,0.2,0.2,0.4,0.2c0.7,0,2.2-0.6,2.4-1.3C113.5,82.3,113.5,81.4,113.5,80.5z"/>
		</g>
	</g>
	<g transform="matrix(0.708661,0,0,0.708661,0,0)">
		<line vector-effect="none" class="st3" x1="156.5" y1="75.9" x2="156.5" y2="49.3"/>
	</g>
	<g transform="matrix(0.708661,0,0,0.708661,0,0)">
		<g class="st1">
			<path d="M146.5,78.6c0-3.1,3.2-6,7.1-6c2.1,0,3.5,1.2,3.5,3c0,3-3.9,6-7.1,6C148.1,81.6,146.5,80.5,146.5,78.6z"/>
		</g>
	</g>
	<g transform="matrix(0.708661,0,0,0.708661,0,0)">
		<line vector-effect="none" class="st3" x1="184.6" y1="75.9" x2="184.6" y2="45.3"/>
	</g>
	<g transform="matrix(0.708661,0,0,0.708661,0,0)">
		<g class="st1">
			<path d="M174.6,78.6c0-3.1,3.2-6,7.1-6c2.1,0,3.5,1.2,3.5,3c0,3-3.9,6-7.1,6C176.1,81.6,174.6,80.5,174.6,78.6z"/>
		</g>
	</g>
	<g transform="matrix(0.708661,0,0,0.708661,0,0)">
		<g class="st1">
			<path d="M171.1,73.6c-0.3,0.1-0.4,0.7-0.4,0.9v3c0,0.4,0.2,0.6,0.4,0.6c0.2-0.1,0.8-0.3,0.8-0.3c0.1,0,0.1,0,0.2,0
				c0.1,0,0.2,0.1,0.2,0.3v2.3c0,0.2-0.2,0.4-0.4,0.5c0,0-0.7,0.3-0.9,0.4c-0.2,0.1-0.4,0.5-0.4,0.7v4.5c0,0.2-0.2,0.4-0.5,0.4
				c-0.2,0-0.4-0.2-0.4-0.4v-4c0-0.2-0.2-0.6-0.4-0.6c0,0-0.1,0-0.1,0l-2,0.8c-0.2,0.1-0.3,0.3-0.3,0.7v4.5c0,0.2-0.2,0.4-0.5,0.4
				c-0.2,0-0.4-0.2-0.4-0.4V84c0-0.2-0.2-0.5-0.4-0.5c0,0-0.1,0-0.1,0c-0.3,0.1-0.7,0.3-0.7,0.3c0,0-0.1,0-0.1,0
				c-0.2,0-0.3-0.1-0.3-0.3v-2.3c0-0.2,0.2-0.4,0.4-0.5c0,0,0.7-0.3,0.9-0.4c0.2-0.1,0.4-0.4,0.4-0.7v-3.2c0-0.3-0.2-0.6-0.4-0.6
				c0,0-0.1,0-0.1,0c-0.2,0.1-0.7,0.3-0.7,0.3c0,0-0.1,0-0.1,0c-0.2,0-0.3-0.1-0.3-0.3v-2.3c0-0.2,0.2-0.4,0.4-0.5
				c0,0,0.6-0.3,0.8-0.4c0.2-0.1,0.4-0.4,0.4-0.9v-1.3v-3c0-0.2,0.2-0.4,0.5-0.4c0.2,0,0.4,0.2,0.4,0.4v3.8c0,0.3,0.1,0.6,0.4,0.6
				c0.5-0.1,1.6-0.6,2-0.8c0.3-0.2,0.4-0.6,0.4-0.9v-4.2c0-0.2,0.2-0.4,0.5-0.4c0.3,0,0.4,0.2,0.4,0.4v3.9c0,0.3,0.2,0.4,0.4,0.4
				c0.2,0,0.8-0.3,0.8-0.3c0.1,0,0.1,0,0.2,0c0.1,0,0.2,0.1,0.2,0.3v2.3c0,0.2-0.2,0.4-0.4,0.5C171.9,73.3,171.3,73.6,171.1,73.6z
				 M169.8,76.5c0-0.9-0.1-1.7-0.1-1.8c-0.1-0.1-0.3-0.2-0.5-0.2c-0.8,0-2.3,0.7-2.3,1.2c-0.1,0.3-0.1,1.4-0.1,2.4
				c0,0.8,0,1.5,0.1,1.6c0,0.1,0.2,0.2,0.4,0.2c0.7,0,2.2-0.6,2.4-1.3C169.7,78.3,169.8,77.4,169.8,76.5z"/>
		</g>
	</g>
	<g transform="matrix(0.708661,0,0,0.708661,0,0)">
		<line vector-effect="none" class="st3" x1="212.8" y1="71.9" x2="212.8" y2="44.1"/>
	</g>
	<g transform="matrix(0.708661,0,0,0.708661,0,0)">
		<g class="st1">
			<path d="M202.8,74.6c0-3.1,3.2-6,7.1-6c2.1,0,3.5,1.2,3.5,3c0,3-3.9,6-7.1,6C204.4,77.6,202.8,76.5,202.8,74.6z"/>
		</g>
	</g>
	<g transform="matrix(0.708661,0,0,0.708661,0,0)">
		<line vector-effect="none" class="st3" x1="240.8" y1="71.9" x2="240.8" y2="42.8"/>
	</g>
	<g transform="matrix(0.708661,0,0,0.708661,0,0)">
		<g class="st1">
			<path d="M230.8,74.6c0-3.1,3.2-6,7.1-6c2.1,0,3.5,1.2,3.5,3c0,3-3.9,6-7.1,6C232.4,77.6,230.8,76.5,230.8,74.6z"/>
		</g>
	</g>
	<g transform="matrix(0.708661,0,0,0.708661,0,0)">
		<g class="st1">
			<path d="M227.3,69.6c-0.3,0.1-0.4,0.7-0.4,0.9v3c0,0.4,0.2,0.6,0.4,0.6c0.2-0.1,0.8-0.3,0.8-0.3c0.1,0,0.1,0,0.2,0
				c0.1,0,0.2,0.1,0.2,0.3v2.3c0,0.2-0.2,0.4-0.4,0.5c0,0-0.7,0.3-0.9,0.4s-0.4,0.5-0.4,0.7v4.5c0,0.2-0.2,0.4-0.5,0.4
				c-0.2,0-0.4-0.2-0.4-0.4v-4c0-0.2-0.2-0.6-0.4-0.6c0,0-0.1,0-0.1,0l-2,0.8c-0.2,0.1-0.3,0.3-0.3,0.7v4.5c0,0.2-0.2,0.4-0.5,0.4
				c-0.2,0-0.4-0.2-0.4-0.4V80c0-0.2-0.2-0.5-0.4-0.5c0,0-0.1,0-0.1,0c-0.3,0.1-0.7,0.3-0.7,0.3c0,0-0.1,0-0.1,0
				c-0.2,0-0.3-0.1-0.3-0.3v-2.3c0-0.2,0.2-0.4,0.4-0.5c0,0,0.7-0.3,0.9-0.4c0.2-0.1,0.4-0.4,0.4-0.7v-3.2c0-0.3-0.2-0.6-0.4-0.6
				c0,0-0.1,0-0.1,0c-0.2,0.1-0.7,0.3-0.7,0.3c0,0-0.1,0-0.1,0c-0.2,0-0.3-0.1-0.3-0.3v-2.3c0-0.2,0.2-0.4,0.4-0.5
				c0,0,0.6-0.3,0.8-0.4c0.2-0.1,0.4-0.4,0.4-0.9v-1.3v-3c0-0.2,0.2-0.4,0.5-0.4c0.2,0,0.4,0.2,0.4,0.4v3.8c0,0.3,0.1,0.6,0.4,0.6
				c0.5-0.1,1.6-0.6,2-0.8c0.3-0.2,0.4-0.6,0.4-0.9v-4.2c0-0.2,0.2-0.4,0.5-0.4c0.3,0,0.4,0.2,0.4,0.4v3.9c0,0.3,0.2,0.4,0.4,0.4
				c0.2,0,0.8-0.3,0.8-0.3c0.1,0,0.1,0,0.2,0c0.1,0,0.2,0.1,0.2,0.3v2.3c0,0.2-0.2,0.4-0.4,0.5C228.2,69.3,227.6,69.6,227.3,69.6z
				 M226.1,72.5c0-0.9-0.1-1.7-0.1-1.8c-0.1-0.1-0.3-0.2-0.5-0.2c-0.8,0-2.3,0.7-2.3,1.2c-0.1,0.3-0.1,1.4-0.1,2.4
				c0,0.8,0,1.5,0.1,1.6c0,0.1,0.2,0.2,0.4,0.2c0.7,0,2.2-0.6,2.4-1.3C226,74.3,226.1,73.4,226.1,72.5z"/>
		</g>
	</g>
	<g transform="matrix(0.708661,0,0,0.708661,0,0)">
		<line vector-effect="none" class="st3" x1="269.1" y1="67.9" x2="269.1" y2="41.3"/>
	</g>
	<g transform="matrix(0.708661,0,0,0.708661,0,0)">
		<g class="st1">
			<path d="M259.1,70.6c0-3.1,3.2-6,7.1-6c2.1,0,3.5,1.2,3.5,3c0,3-3.9,6-7.1,6C260.6,73.6,259.1,72.5,259.1,70.6z"/>
		</g>
	</g>
	<g transform="matrix(0.708661,0,0,0.708661,0,0)">
		<line vector-effect="none" class="st3" x1="309.1" y1="63.9" x2="309.1" y2="37.3"/>
	</g>
	<g transform="matrix(0.708661,0,0,0.708661,0,0)">
		<g class="st1">
			<path d="M299.1,66.6c0-3.1,3.2-6,7.1-6c2.1,0,3.5,1.2,3.5,3c0,3-3.9,6-7.1,6C300.6,69.6,299.1,68.5,299.1,66.6z"/>
		</g>
	</g>
	<g transform="matrix(0.708661,0,0,0.708661,0,0)">
		<line vector-effect="none" class="st3" x1="337.4" y1="63.9" x2="337.4" y2="36.8"/>
	</g>
	<g transform="matrix(0.708661,0,0,0.708661,0,0)">
		<g class="st1">
			<path d="M327.4,66.6c0-3.1,3.2-6,7.1-6c2.1,0,3.5,1.2,3.5,3c0,3-3.9,6-7.1,6C328.9,69.6,327.4,68.5,327.4,66.6z"/>
		</g>
	</g>
	<g transform="matrix(0.708661,0,0,0.708661,0,0)">
		<g class="st1">
			<path d="M323.9,61.6c-0.3,0.1-0.4,0.7-0.4,0.9v3c0,0.4,0.2,0.6,0.4,0.6c0.2-0.1,0.8-0.3,0.8-0.3c0.1,0,0.1,0,0.2,0
				c0.1,0,0.2,0.1,0.2,0.3v2.3c0,0.2-0.2,0.4-0.4,0.5c0,0-0.7,0.3-0.9,0.4c-0.2,0.1-0.4,0.5-0.4,0.7v4.5c0,0.2-0.2,0.4-0.5,0.4
				c-0.2,0-0.4-0.2-0.4-0.4v-4c0-0.2-0.2-0.6-0.4-0.6c0,0-0.1,0-0.1,0l-2,0.8c-0.2,0.1-0.3,0.3-0.3,0.7v4.5c0,0.2-0.2,0.4-0.5,0.4
				c-0.2,0-0.4-0.2-0.4-0.4V72c0-0.2-0.2-0.5-0.4-0.5c0,0-0.1,0-0.1,0c-0.3,0.1-0.7,0.3-0.7,0.3c0,0-0.1,0-0.1,0
				c-0.2,0-0.3-0.1-0.3-0.3v-2.3c0-0.2,0.2-0.4,0.4-0.5c0,0,0.7-0.3,0.9-0.4c0.2-0.1,0.4-0.4,0.4-0.7v-3.2c0-0.3-0.2-0.6-0.4-0.6
				c0,0-0.1,0-0.1,0c-0.2,0.1-0.7,0.3-0.7,0.3c0,0-0.1,0-0.1,0c-0.2,0-0.3-0.1-0.3-0.3v-2.3c0-0.2,0.2-0.4,0.4-0.5
				c0,0,0.6-0.3,0.8-0.4c0.2-0.1,0.4-0.4,0.4-0.9v-1.3v-3c0-0.2,0.2-0.4,0.5-0.4c0.2,0,0.4,0.2,0.4,0.4v3.8c0,0.3,0.1,0.6,0.4,0.6
				c0.5-0.1,1.6-0.6,2-0.8c0.3-0.2,0.4-0.6,0.4-0.9v-4.2c0-0.2,0.2-0.4,0.5-0.4c0.3,0,0.4,0.2,0.4,0.4v3.9c0,0.3,0.2,0.4,0.4,0.4
				c0.2,0,0.8-0.3,0.8-0.3c0.1,0,0.1,0,0.2,0c0.1,0,0.2,0.1,0.2,0.3v2.3c0,0.2-0.2,0.4-0.4,0.5C324.7,61.3,324.1,61.6,323.9,61.6z
				 M322.6,64.5c0-0.9-0.1-1.7-0.1-1.8c-0.1-0.1-0.3-0.2-0.5-0.2c-0.8,0-2.3,0.7-2.3,1.2c-0.1,0.3-0.1,1.4-0.1,2.4
				c0,0.8,0,1.5,0.1,1.6c0,0.1,0.2,0.2,0.4,0.2c0.7,0,2.2-0.6,2.4-1.3C322.5,66.3,322.6,65.4,322.6,64.5z"/>
		</g>
	</g>
	<g transform="matrix(0.708661,0,0,0.708661,0,0)">
		<line vector-effect="none" class="st3" x1="365.4" y1="59.9" x2="365.4" y2="36.1"/>
	</g>
	<g transform="matrix(0.708661,0,0,0.708661,0,0)">
		<g class="st1">
			<path d="M355.4,62.6c0-3.1,3.2-6,7.1-6c2.1,0,3.5,1.2,3.5,3c0,3-3.9,6-7.1,6C356.9,65.6,355.4,64.5,355.4,62.6z"/>
		</g>
	</g>
	<g transform="matrix(0.708661,0,0,0.708661,0,0)">
		<line vector-effect="none" class="st3" x1="393.6" y1="59.9" x2="393.6" y2="35.3"/>
	</g>
	<g transform="matrix(0.708661,0,0,0.708661,0,0)">
		<g class="st1">
			<path d="M383.6,62.6c0-3.1,3.2-6,7.1-6c2.1,0,3.5,1.2,3.5,3c0,3-3.9,6-7.1,6C385.2,65.6,383.6,64.5,383.6,62.6z"/>
		</g>
	</g>
	<g transform="matrix(0.708661,0,0,0.708661,0,0)">
		<g class="st1">
			<path d="M380.1,57.6c-0.3,0.1-0.4,0.7-0.4,0.9v3c0,0.4,0.2,0.6,0.4,0.6c0.2-0.1,0.8-0.3,0.8-0.3c0.1,0,0.1,0,0.2,0
				c0.1,0,0.2,0.1,0.2,0.3v2.3c0,0.2-0.2,0.4-0.4,0.5c0,0-0.7,0.3-0.9,0.4s-0.4,0.5-0.4,0.7v4.5c0,0.2-0.2,0.4-0.5,0.4
				c-0.2,0-0.4-0.2-0.4-0.4v-4c0-0.2-0.2-0.6-0.4-0.6c0,0-0.1,0-0.1,0l-2,0.8c-0.2,0.1-0.3,0.3-0.3,0.7v4.5c0,0.2-0.2,0.4-0.5,0.4
				c-0.2,0-0.4-0.2-0.4-0.4V68c0-0.2-0.2-0.5-0.4-0.5c0,0-0.1,0-0.1,0c-0.3,0.1-0.7,0.3-0.7,0.3c0,0-0.1,0-0.1,0
				c-0.2,0-0.3-0.1-0.3-0.3v-2.3c0-0.2,0.2-0.4,0.4-0.5c0,0,0.7-0.3,0.9-0.4c0.2-0.1,0.4-0.4,0.4-0.7v-3.2c0-0.3-0.2-0.6-0.4-0.6
				c0,0-0.1,0-0.1,0c-0.2,0.1-0.7,0.3-0.7,0.3c0,0-0.1,0-0.1,0c-0.2,0-0.3-0.1-0.3-0.3v-2.3c0-0.2,0.2-0.4,0.4-0.5
				c0,0,0.6-0.3,0.8-0.4c0.2-0.1,0.4-0.4,0.4-0.9v-1.3v-3c0-0.2,0.2-0.4,0.5-0.4c0.2,0,0.4,0.2,0.4,0.4v3.8c0,0.3,0.1,0.6,0.4,0.6
				c0.5-0.1,1.6-0.6,2-0.8c0.3-0.2,0.4-0.6,0.4-0.9v-4.2c0-0.2,0.2-0.4,0.5-0.4c0.3,0,0.4,0.2,0.4,0.4v3.9c0,0.3,0.2,0.4,0.4,0.4
				c0.2,0,0.8-0.3,0.8-0.3c0.1,0,0.1,0,0.2,0c0.1,0,0.2,0.1,0.2,0.3v2.3c0,0.2-0.2,0.4-0.4,0.5C381,57.3,380.4,57.5,380.1,57.6z
				 M378.9,60.5c0-0.9-0.1-1.7-0.1-1.8c-0.1-0.1-0.3-0.2-0.5-0.2c-0.8,0-2.3,0.7-2.3,1.2c-0.1,0.3-0.1,1.4-0.1,2.4
				c0,0.8,0,1.5,0.1,1.6c0,0.1,0.2,0.2,0.4,0.2c0.7,0,2.2-0.6,2.4-1.3C378.8,62.3,378.9,61.4,378.9,60.5z"/>
		</g>
	</g>
	<g transform="matrix(0.708661,0,0,0.708661,0,0)">
		<line vector-effect="none" class="st3" x1="412.1" y1="58.4" x2="412.1" y2="80.9"/>
	</g>
	<g transform="matrix(0.708661,0,0,0.708661,0,0)">
		<g class="st1">
			<path d="M411.6,58.6c0-3.1,3.2-6,7.1-6c2.1,0,3.5,1.2,3.5,3c0,3-3.9,6-7.1,6C413.2,61.6,411.6,60.5,411.6,58.6z"/>
		</g>
	</g>
	<g transform="matrix(0.708661,0,0,0.708661,0,0)">
		<line vector-effect="none" class="st3" x1="440.4" y1="54.4" x2="440.4" y2="79.6"/>
	</g>
	<g transform="matrix(0.708661,0,0,0.708661,0,0)">
		<g class="st1">
			<path d="M439.9,54.6c0-3.1,3.2-6,7.1-6c2.1,0,3.5,1.2,3.5,3c0,3-3.9,6-7.1,6C441.4,57.6,439.9,56.5,439.9,54.6z"/>
		</g>
	</g>
	<g transform="matrix(0.708661,0,0,0.708661,0,0)">
		<g class="st1">
			<path d="M437.3,47.1c0.1,0,0.3,0.1,0.3,0.3v16.1c0,0.2-0.2,0.4-0.4,0.4h-0.4c-0.2,0-0.4-0.2-0.4-0.4v-4.8c0-0.3-0.2-0.4-0.5-0.4
				c-0.9,0-2.7,0.8-3.2,1c0,0-0.1,0-0.1,0c0,0-0.1,0-0.1,0c-0.2,0-0.3-0.1-0.3-0.3V42.6c0-0.2,0.2-0.4,0.4-0.4h0.4
				c0.2,0,0.4,0.2,0.4,0.4v5.3c0,0.1,0.1,0.2,0.3,0.2c0.8,0,2.9-0.7,2.9-0.7c0,0,0.1,0,0.1,0l0.5-0.2
				C437.2,47.1,437.2,47.1,437.3,47.1z M433.3,55.1c0,0.1,0.2,0.2,0.4,0.2c0.8,0,2.6-0.7,2.6-1.3v-3.3c0-0.1-0.1-0.2-0.3-0.2
				c-0.8,0-2.7,0.8-2.7,1.3V55.1z"/>
		</g>
	</g>
	<g transform="matrix(0.708661,0,0,0.708661,0,0)">
		<line vector-effect="none" class="st3" x1="468.6" y1="54.4" x2="468.6" y2="78.4"/>
	</g>
	<g transform="matrix(0.708661,0,0,0.708661,0,0)">
		<g class="st1">
			<path d="M468.1,54.6c0-3.1,3.2-6,7.1-6c2.1,0,3.5,1.2,3.5,3c0,3-3.9,6-7.1,6C469.7,57.6,468.1,56.5,468.1,54.6z"/>
		</g>
	</g>
	<g transform="matrix(0.708661,0,0,0.708661,0,0)">
		<g class="st1">
			<path d="M464.6,49.6c-0.3,0.1-0.4,0.7-0.4,0.9v3c0,0.4,0.2,0.6,0.4,0.6c0.2-0.1,0.8-0.3,0.8-0.3c0.1,0,0.1,0,0.2,0
				c0.1,0,0.2,0.1,0.2,0.3v2.3c0,0.2-0.2,0.4-0.4,0.5c0,0-0.7,0.3-0.9,0.4c-0.2,0.1-0.4,0.5-0.4,0.7v4.5c0,0.2-0.2,0.4-0.5,0.4
				c-0.2,0-0.4-0.2-0.4-0.4v-4c0-0.2-0.2-0.6-0.4-0.6c0,0-0.1,0-0.1,0l-2,0.8c-0.2,0.1-0.3,0.3-0.3,0.7v4.5c0,0.2-0.2,0.4-0.5,0.4
				c-0.2,0-0.4-0.2-0.4-0.4V60c0-0.2-0.2-0.5-0.4-0.5c0,0-0.1,0-0.1,0c-0.3,0.1-0.7,0.3-0.7,0.3c0,0-0.1,0-0.1,0
				c-0.2,0-0.3-0.1-0.3-0.3v-2.3c0-0.2,0.2-0.4,0.4-0.5c0,0,0.7-0.3,0.9-0.4c0.2-0.1,0.4-0.4,0.4-0.7v-3.2c0-0.3-0.2-0.6-0.4-0.6
				c0,0-0.1,0-0.1,0c-0.2,0.1-0.7,0.3-0.7,0.3c0,0-0.1,0-0.1,0c-0.2,0-0.3-0.1-0.3-0.3v-2.3c0-0.2,0.2-0.4,0.4-0.5
				c0,0,0.6-0.3,0.8-0.4c0.2-0.1,0.4-0.4,0.4-0.9v-1.3v-3c0-0.2,0.2-0.4,0.5-0.4c0.2,0,0.4,0.2,0.4,0.4v3.8c0,0.3,0.1,0.6,0.4,0.6
				c0.5-0.1,1.6-0.6,2-0.8c0.3-0.2,0.4-0.6,0.4-0.9v-4.2c0-0.2,0.2-0.4,0.5-0.4c0.3,0,0.4,0.2,0.4,0.4v3.9c0,0.3,0.2,0.4,0.4,0.4
				c0.2,0,0.8-0.3,0.8-0.3c0.1,0,0.1,0,0.2,0c0.1,0,0.2,0.1,0.2,0.3v2.3c0,0.2-0.2,0.4-0.4,0.5C465.5,49.3,464.9,49.5,464.6,49.6z
				 M463.4,52.5c0-0.9-0.1-1.7-0.1-1.8c-0.1-0.1-0.3-0.2-0.5-0.2c-0.8,0-2.3,0.7-2.3,1.2c-0.1,0.3-0.1,1.4-0.1,2.4
				c0,0.8,0,1.5,0.1,1.6c0,0.1,0.2,0.2,0.4,0.2c0.7,0,2.2-0.6,2.4-1.3C463.3,54.3,463.4,53.4,463.4,52.5z"/>
		</g>
	</g>
	<g transform="matrix(0.708661,0,0,0.708661,0,0)">
		<line vector-effect="none" class="st3" x1="496.7" y1="50.3" x2="496.7" y2="76.9"/>
	</g>
	<g transform="matrix(0.708661,0,0,0.708661,0,0)">
		<g class="st1">
			<path d="M496.2,50.6c0-3.1,3.2-6,7.1-6c2.1,0,3.5,1.2,3.5,3c0,3-3.9,6-7.1,6C497.7,53.6,496.2,52.5,496.2,50.6z"/>
		</g>
	</g>
	<g transform="matrix(0.708661,0,0,0.708661,0,0)">
		<g class="st1">
			<path d="M493.5,43.1c0.1,0,0.3,0.1,0.3,0.3v16.1c0,0.2-0.2,0.4-0.4,0.4H493c-0.2,0-0.4-0.2-0.4-0.4v-4.8c0-0.3-0.2-0.4-0.5-0.4
				c-0.9,0-2.7,0.8-3.2,1c0,0-0.1,0-0.1,0c0,0-0.1,0-0.1,0c-0.2,0-0.3-0.1-0.3-0.3V38.6c0-0.2,0.2-0.4,0.4-0.4h0.4
				c0.2,0,0.4,0.2,0.4,0.4v5.3c0,0.1,0.1,0.2,0.3,0.2c0.8,0,2.9-0.7,2.9-0.7c0,0,0.1,0,0.1,0l0.5-0.2
				C493.4,43.1,493.5,43.1,493.5,43.1z M489.6,51.1c0,0.1,0.2,0.2,0.4,0.2c0.8,0,2.6-0.7,2.6-1.3v-3.3c0-0.1-0.1-0.2-0.3-0.2
				c-0.8,0-2.7,0.8-2.7,1.3V51.1z"/>
		</g>
	</g>
	<g transform="matrix(0.708661,0,0,0.708661,0,0)">
		<line vector-effect="none" class="st3" x1="537.7" y1="50.3" x2="537.7" y2="72.9"/>
	</g>
	<g transform="matrix(0.708661,0,0,0.708661,0,0)">
		<g class="st1">
			<path d="M537.2,50.6c0-3.1,3.2-6,7.1-6c2.1,0,3.5,1.2,3.5,3c0,3-3.9,6-7.1,6C538.7,53.6,537.2,52.5,537.2,50.6z"/>
		</g>
	</g>
	<g transform="matrix(0.708661,0,0,0.708661,0,0)">
		<g class="st1">
			<path d="M533.7,45.6c-0.3,0.1-0.4,0.7-0.4,0.9v3c0,0.4,0.2,0.6,0.4,0.6c0.2-0.1,0.8-0.3,0.8-0.3c0.1,0,0.1,0,0.2,0
				c0.1,0,0.2,0.1,0.2,0.3v2.3c0,0.2-0.2,0.4-0.4,0.5c0,0-0.7,0.3-0.9,0.4c-0.2,0.1-0.4,0.5-0.4,0.7v4.5c0,0.2-0.2,0.4-0.5,0.4
				c-0.2,0-0.4-0.2-0.4-0.4v-4c0-0.2-0.2-0.6-0.4-0.6c0,0-0.1,0-0.1,0l-2,0.8c-0.2,0.1-0.3,0.3-0.3,0.7v4.5c0,0.2-0.2,0.4-0.5,0.4
				c-0.2,0-0.4-0.2-0.4-0.4V56c0-0.2-0.2-0.5-0.4-0.5c0,0-0.1,0-0.1,0c-0.3,0.1-0.7,0.3-0.7,0.3c0,0-0.1,0-0.1,0
				c-0.2,0-0.3-0.1-0.3-0.3v-2.3c0-0.2,0.2-0.4,0.4-0.5c0,0,0.7-0.3,0.9-0.4c0.2-0.1,0.4-0.4,0.4-0.7v-3.2c0-0.3-0.2-0.6-0.4-0.6
				c0,0-0.1,0-0.1,0c-0.2,0.1-0.7,0.3-0.7,0.3c0,0-0.1,0-0.1,0c-0.2,0-0.3-0.1-0.3-0.3v-2.3c0-0.2,0.2-0.4,0.4-0.5
				c0,0,0.6-0.3,0.8-0.4c0.2-0.1,0.4-0.4,0.4-0.9v-1.3v-3c0-0.2,0.2-0.4,0.5-0.4c0.2,0,0.4,0.2,0.4,0.4v3.8c0,0.3,0.1,0.6,0.4,0.6
				c0.5-0.1,1.6-0.6,2-0.8c0.3-0.2,0.4-0.6,0.4-0.9v-4.2c0-0.2,0.2-0.4,0.5-0.4c0.3,0,0.4,0.2,0.4,0.4v3.9c0,0.3,0.2,0.4,0.4,0.4
				c0.2,0,0.8-0.3,0.8-0.3c0.1,0,0.1,0,0.2,0c0.1,0,0.2,0.1,0.2,0.3v2.3c0,0.2-0.2,0.4-0.4,0.5C534.5,45.3,533.9,45.5,533.7,45.6z
				 M532.4,48.5c0-0.9-0.1-1.7-0.1-1.8c-0.1-0.1-0.3-0.2-0.5-0.2c-0.8,0-2.3,0.7-2.3,1.2c-0.1,0.3-0.1,1.4-0.1,2.4
				c0,0.8,0,1.5,0.1,1.6c0,0.1,0.2,0.2,0.4,0.2c0.7,0,2.2-0.6,2.4-1.3C532.4,50.3,532.4,49.4,532.4,48.5z"/>
		</g>
	</g>
	<g transform="matrix(0.708661,0,0,0.708661,0,0)">
		<line vector-effect="none" class="st3" x1="565.7" y1="46.3" x2="565.7" y2="71.6"/>
	</g>
	<g transform="matrix(0.708661,0,0,0.708661,0,0)">
		<g class="st1">
			<path d="M565.2,46.6c0-3.1,3.2-6,7.1-6c2.1,0,3.5,1.2,3.5,3c0,3-3.9,6-7.1,6C566.7,49.6,565.2,48.5,565.2,46.6z"/>
		</g>
	</g>
	<g transform="matrix(0.708661,0,0,0.708661,0,0)">
		<line vector-effect="none" class="st3" x1="593.9" y1="46.3" x2="593.9" y2="70.4"/>
	</g>
	<g transform="matrix(0.708661,0,0,0.708661,0,0)">
		<g class="st1">
			<path d="M593.4,46.6c0-3.1,3.2-6,7.1-6c2.1,0,3.5,1.2,3.5,3c0,3-3.9,6-7.1,6C595,49.6,593.4,48.5,593.4,46.6z"/>
		</g>
	</g>
	<g transform="matrix(0.708661,0,0,0.708661,0,0)">
		<g class="st1">
			<path d="M589.9,41.6c-0.3,0.1-0.4,0.7-0.4,0.9v3c0,0.4,0.2,0.6,0.4,0.6c0.2-0.1,0.8-0.3,0.8-0.3c0.1,0,0.1,0,0.2,0
				c0.1,0,0.2,0.1,0.2,0.3v2.3c0,0.2-0.2,0.4-0.4,0.5c0,0-0.7,0.3-0.9,0.4c-0.2,0.1-0.4,0.5-0.4,0.7v4.5c0,0.2-0.2,0.4-0.5,0.4
				c-0.2,0-0.4-0.2-0.4-0.4v-4c0-0.2-0.2-0.6-0.4-0.6c0,0-0.1,0-0.1,0l-2,0.8c-0.2,0.1-0.3,0.3-0.3,0.7v4.5c0,0.2-0.2,0.4-0.5,0.4
				c-0.2,0-0.4-0.2-0.4-0.4v-3.9c0-0.2-0.2-0.5-0.4-0.5c0,0-0.1,0-0.1,0c-0.3,0.1-0.7,0.3-0.7,0.3c0,0-0.1,0-0.1,0
				c-0.2,0-0.3-0.1-0.3-0.3v-2.3c0-0.2,0.2-0.4,0.4-0.5c0,0,0.7-0.3,0.9-0.4c0.2-0.1,0.4-0.4,0.4-0.7v-3.2c0-0.3-0.2-0.6-0.4-0.6
				c0,0-0.1,0-0.1,0c-0.2,0.1-0.7,0.3-0.7,0.3c0,0-0.1,0-0.1,0c-0.2,0-0.3-0.1-0.3-0.3v-2.3c0-0.2,0.2-0.4,0.4-0.5
				c0,0,0.6-0.3,0.8-0.4c0.2-0.1,0.4-0.4,0.4-0.9v-1.3v-3c0-0.2,0.2-0.4,0.5-0.4c0.2,0,0.4,0.2,0.4,0.4v3.8c0,0.3,0.1,0.6,0.4,0.6
				c0.5-0.1,1.6-0.6,2-0.8c0.3-0.2,0.4-0.6,0.4-0.9v-4.2c0-0.2,0.2-0.4,0.5-0.4c0.3,0,0.4,0.2,0.4,0.4v3.9c0,0.3,0.2,0.4,0.4,0.4
				c0.2,0,0.8-0.3,0.8-0.3c0.1,0,0.1,0,0.2,0c0.1,0,0.2,0.1,0.2,0.3v2.3c0,0.2-0.2,0.4-0.4,0.5C590.8,41.3,590.2,41.5,589.9,41.6z
				 M588.7,44.5c0-0.9-0.1-1.7-0.1-1.8c-0.1-0.1-0.3-0.2-0.5-0.2c-0.8,0-2.3,0.7-2.3,1.2c-0.1,0.3-0.1,1.4-0.1,2.4
				c0,0.8,0,1.5,0.1,1.6c0,0.1,0.2,0.2,0.4,0.2c0.7,0,2.2-0.6,2.4-1.3C588.6,46.3,588.7,45.4,588.7,44.5z"/>
		</g>
	</g>
	<g transform="matrix(0.708661,0,0,0.708661,0,0)">
		<line vector-effect="none" class="st3" x1="621.9" y1="42.3" x2="621.9" y2="68.9"/>
	</g>
	<g transform="matrix(0.708661,0,0,0.708661,0,0)">
		<g class="st1">
			<path d="M621.4,42.6c0-3.1,3.2-6,7.1-6c2.1,0,3.5,1.2,3.5,3c0,3-3.9,6-7.1,6C623,45.6,621.4,44.5,621.4,42.6z"/>
		</g>
	</g>
	<g transform="matrix(0.708661,0,0,0.708661,0,0)">
		<line vector-effect="none" class="st0" x1="647" y1="37.1" x2="663" y2="37.1"/>
	</g>
	<g transform="matrix(0.708661,0,0,0.708661,0,0)">
		<line vector-effect="none" class="st3" x1="650.2" y1="38.3" x2="650.2" y2="62.9"/>
	</g>
	<g transform="matrix(0.708661,0,0,0.708661,0,0)">
		<g class="st1">
			<path d="M649.7,38.6c0-3.1,3.2-6,7.1-6c2.1,0,3.5,1.2,3.5,3c0,3-3.9,6-7.1,6C651.2,41.6,649.7,40.5,649.7,38.6z"/>
		</g>
	</g>
	<g transform="matrix(0.708661,0,0,0.708661,0,0)">
		<g class="st1">
			<path d="M645.3,31.1c0.1,0,0.3,0.1,0.3,0.3v16.1c0,0.2-0.2,0.4-0.4,0.4h-0.4c-0.2,0-0.4-0.2-0.4-0.4v-4.8c0-0.3-0.2-0.4-0.5-0.4
				c-0.9,0-2.7,0.8-3.2,1c0,0-0.1,0-0.1,0c0,0-0.1,0-0.1,0c-0.2,0-0.3-0.1-0.3-0.3V26.6c0-0.2,0.2-0.4,0.4-0.4h0.4
				c0.2,0,0.4,0.2,0.4,0.4v5.3c0,0.1,0.1,0.2,0.3,0.2c0.8,0,2.9-0.7,2.9-0.7c0,0,0.1,0,0.1,0l0.5-0.2
				C645.2,31.1,645.3,31.1,645.3,31.1z M641.4,39.1c0,0.1,0.2,0.2,0.4,0.2c0.8,0,2.6-0.7,2.6-1.3v-3.3c0-0.1-0.1-0.2-0.3-0.2
				c-0.8,0-2.7,0.8-2.7,1.3V39.1z"/>
		</g>
	</g>
	<g transform="matrix(0.708661,0,0,0.708661,0,0)">
		<line vector-effect="none" class="st0" x1="675" y1="37.1" x2="691" y2="37.1"/>
	</g>
	<g transform="matrix(0.708661,0,0,0.708661,0,0)">
		<line vector-effect="none" class="st3" x1="678.2" y1="38.3" x2="678.2" y2="62.4"/>
	</g>
	<g transform="matrix(0.708661,0,0,0.708661,0,0)">
		<g class="st1">
			<path d="M677.7,38.6c0-3.1,3.2-6,7.1-6c2.1,0,3.5,1.2,3.5,3c0,3-3.9,6-7.1,6C679.2,41.6,677.7,40.5,677.7,38.6z"/>
		</g>
	</g>
	<g transform="matrix(0.708661,0,0,0.708661,0,0)">
		<g class="st1">
			<path d="M672.5,33.6c-0.3,0.1-0.4,0.7-0.4,0.9v3c0,0.4,0.2,0.6,0.4,0.6c0.2-0.1,0.8-0.3,0.8-0.3c0.1,0,0.1,0,0.2,0
				c0.1,0,0.2,0.1,0.2,0.3v2.3c0,0.2-0.2,0.4-0.4,0.5c0,0-0.7,0.3-0.9,0.4c-0.2,0.1-0.4,0.5-0.4,0.7v4.5c0,0.2-0.2,0.4-0.5,0.4
				c-0.2,0-0.4-0.2-0.4-0.4v-4c0-0.2-0.2-0.6-0.4-0.6c0,0-0.1,0-0.1,0l-2,0.8c-0.2,0.1-0.3,0.3-0.3,0.7v4.5c0,0.2-0.2,0.4-0.5,0.4
				c-0.2,0-0.4-0.2-0.4-0.4v-3.9c0-0.2-0.2-0.5-0.4-0.5c0,0-0.1,0-0.1,0c-0.3,0.1-0.7,0.3-0.7,0.3c0,0-0.1,0-0.1,0
				c-0.2,0-0.3-0.1-0.3-0.3v-2.3c0-0.2,0.2-0.4,0.4-0.5c0,0,0.7-0.3,0.9-0.4c0.2-0.1,0.4-0.4,0.4-0.7v-3.2c0-0.3-0.2-0.6-0.4-0.6
				c0,0-0.1,0-0.1,0c-0.2,0.1-0.7,0.3-0.7,0.3c0,0-0.1,0-0.1,0c-0.2,0-0.3-0.1-0.3-0.3v-2.3c0-0.2,0.2-0.4,0.4-0.5
				c0,0,0.6-0.3,0.8-0.4c0.2-0.1,0.4-0.4,0.4-0.9v-1.3v-3c0-0.2,0.2-0.4,0.5-0.4c0.2,0,0.4,0.2,0.4,0.4v3.8c0,0.3,0.1,0.6,0.4,0.6
				c0.5-0.1,1.6-0.6,2-0.8c0.3-0.2,0.4-0.6,0.4-0.9v-4.2c0-0.2,0.2-0.4,0.5-0.4c0.3,0,0.4,0.2,0.4,0.4v3.9c0,0.3,0.2,0.4,0.4,0.4
				c0.2,0,0.8-0.3,0.8-0.3c0.1,0,0.1,0,0.2,0c0.1,0,0.2,0.1,0.2,0.3v2.3c0,0.2-0.2,0.4-0.4,0.5C673.3,33.3,672.7,33.5,672.5,33.6z
				 M671.2,36.5c0-0.9-0.1-1.7-0.1-1.8c-0.1-0.1-0.3-0.2-0.5-0.2c-0.8,0-2.3,0.7-2.3,1.2c-0.1,0.3-0.1,1.4-0.1,2.4
				c0,0.8,0,1.5,0.1,1.6c0,0.1,0.2,0.2,0.4,0.2c0.7,0,2.2-0.6,2.4-1.3C671.2,38.2,671.2,37.4,671.2,36.5z"/>
		</g>
	</g>
	<g transform="matrix(0.708661,0,0,0.708661,0,0)">
		<line vector-effect="none" class="st0" x1="703.2" y1="37.1" x2="719.2" y2="37.1"/>
	</g>
	<g transform="matrix(0.708661,0,0,0.708661,0,0)">
		<line vector-effect="none" class="st3" x1="706.5" y1="34.3" x2="706.5" y2="61.6"/>
	</g>
	<g transform="matrix(0.708661,0,0,0.708661,0,0)">
		<g class="st1">
			<path d="M706,34.6c0-3.1,3.2-6,7.1-6c2.1,0,3.5,1.2,3.5,3c0,3-3.9,6-7.1,6C707.5,37.6,706,36.5,706,34.6z"/>
		</g>
	</g>
	<g transform="matrix(0.708661,0,0,0.708661,0,0)">
		<g class="st1">
			<path d="M701.6,27.1c0.1,0,0.3,0.1,0.3,0.3v16.1c0,0.2-0.2,0.4-0.4,0.4H701c-0.2,0-0.4-0.2-0.4-0.4v-4.8c0-0.3-0.2-0.4-0.5-0.4
				c-0.9,0-2.7,0.8-3.2,1c0,0-0.1,0-0.1,0c0,0-0.1,0-0.1,0c-0.2,0-0.3-0.1-0.3-0.3V22.6c0-0.2,0.2-0.4,0.4-0.4h0.4
				c0.2,0,0.4,0.2,0.4,0.4v5.3c0,0.1,0.1,0.2,0.3,0.2c0.8,0,2.9-0.7,2.9-0.7c0,0,0.1,0,0.1,0l0.5-0.2
				C701.5,27.1,701.6,27.1,701.6,27.1z M697.7,35.1c0,0.1,0.2,0.2,0.4,0.2c0.8,0,2.6-0.7,2.6-1.3v-3.3c0-0.1-0.1-0.2-0.3-0.2
				c-0.8,0-2.7,0.8-2.7,1.3V35.1z"/>
		</g>
	</g>
	<g transform="matrix(0.708661,0,0,0.708661,0,0)">
		<line vector-effect="none" class="st0" x1="731.2" y1="37.1" x2="747.2" y2="37.1"/>
	</g>
	<g transform="matrix(0.708661,0,0,0.708661,0,0)">
		<line vector-effect="none" class="st3" x1="734.5" y1="34.3" x2="734.5" y2="60.9"/>
	</g>
	<g transform="matrix(0.708661,0,0,0.708661,0,0)">
		<g class="st1">
			<path d="M734,34.6c0-3.1,3.2-6,7.1-6c2.1,0,3.5,1.2,3.5,3c0,3-3.9,6-7.1,6C735.5,37.6,734,36.5,734,34.6z"/>
		</g>
	</g>
	<g transform="matrix(0.708661,0,0,0.708661,0,0)">
		<g class="st1">
			<path d="M728.7,29.6c-0.3,0.1-0.4,0.7-0.4,0.9v3c0,0.4,0.2,0.6,0.4,0.6c0.2-0.1,0.8-0.3,0.8-0.3c0.1,0,0.1,0,0.2,0
				c0.1,0,0.2,0.1,0.2,0.3v2.3c0,0.2-0.2,0.4-0.4,0.5c0,0-0.7,0.3-0.9,0.4c-0.2,0.1-0.4,0.5-0.4,0.7v4.5c0,0.2-0.2,0.4-0.5,0.4
				c-0.2,0-0.4-0.2-0.4-0.4v-4c0-0.2-0.2-0.6-0.4-0.6c0,0-0.1,0-0.1,0l-2,0.8c-0.2,0.1-0.3,0.3-0.3,0.7v4.5c0,0.2-0.2,0.4-0.5,0.4
				c-0.2,0-0.4-0.2-0.4-0.4v-3.9c0-0.2-0.2-0.5-0.4-0.5c0,0-0.1,0-0.1,0c-0.3,0.1-0.7,0.3-0.7,0.3c0,0-0.1,0-0.1,0
				c-0.2,0-0.3-0.1-0.3-0.3v-2.3c0-0.2,0.2-0.4,0.4-0.5c0,0,0.7-0.3,0.9-0.4c0.2-0.1,0.4-0.4,0.4-0.7v-3.2c0-0.3-0.2-0.6-0.4-0.6
				c0,0-0.1,0-0.1,0c-0.2,0.1-0.7,0.3-0.7,0.3c0,0-0.1,0-0.1,0c-0.2,0-0.3-0.1-0.3-0.3v-2.3c0-0.2,0.2-0.4,0.4-0.5
				c0,0,0.6-0.3,0.8-0.4c0.2-0.1,0.4-0.4,0.4-0.9v-1.3v-3c0-0.2,0.2-0.4,0.5-0.4c0.2,0,0.4,0.2,0.4,0.4v3.8c0,0.3,0.1,0.6,0.4,0.6
				c0.5-0.1,1.6-0.6,2-0.8c0.3-0.2,0.4-0.6,0.4-0.9v-4.2c0-0.2,0.2-0.4,0.5-0.4c0.3,0,0.4,0.2,0.4,0.4v3.9c0,0.3,0.2,0.4,0.4,0.4
				c0.2,0,0.8-0.3,0.8-0.3c0.1,0,0.1,0,0.2,0c0.1,0,0.2,0.1,0.2,0.3v2.3c0,0.2-0.2,0.4-0.4,0.5C729.6,29.3,729,29.5,728.7,29.6z
				 M727.5,32.5c0-0.9-0.1-1.7-0.1-1.8c-0.1-0.1-0.3-0.2-0.5-0.2c-0.8,0-2.3,0.7-2.3,1.2c-0.1,0.3-0.1,1.4-0.1,2.4
				c0,0.8,0,1.5,0.1,1.6c0,0.1,0.2,0.2,0.4,0.2c0.7,0,2.2-0.6,2.4-1.3C727.4,34.2,727.5,33.3,727.5,32.5z"/>
		</g>
	</g>
	<g transform="matrix(0.708661,0,0,0.708661,0,0)">
		<line vector-effect="none" class="st0" x1="43.3" y1="143.1" x2="59.3" y2="143.1"/>
	</g>
	<g transform="matrix(0.708661,0,0,0.708661,0,0)">
		<line vector-effect="none" class="st0" x1="43.3" y1="135.1" x2="59.3" y2="135.1"/>
	</g>
	<g transform="matrix(0.708661,0,0,0.708661,0,0)">
		<line vector-effect="none" class="st3" x1="46.5" y1="136.4" x2="46.5" y2="170.9"/>
	</g>
	<g transform="matrix(0.708661,0,0,0.708661,0,0)">
		<g class="st1">
			<path d="M46,136.6c0-3.1,3.2-6,7.1-6c2.1,0,3.5,1.2,3.5,3c0,3-3.9,6-7.1,6C47.6,139.6,46,138.5,46,136.6z"/>
		</g>
	</g>
	<g transform="matrix(0.708661,0,0,0.708661,0,0)">
		<line vector-effect="none" class="st0" x1="87.3" y1="143.1" x2="103.3" y2="143.1"/>
	</g>
	<g transform="matrix(0.708661,0,0,0.708661,0,0)">
		<line vector-effect="none" class="st0" x1="87.3" y1="135.1" x2="103.3" y2="135.1"/>
	</g>
	<g transform="matrix(0.708661,0,0,0.708661,0,0)">
		<line vector-effect="none" class="st3" x1="90.5" y1="132.4" x2="90.5" y2="169.6"/>
	</g>
	<g transform="matrix(0.708661,0,0,0.708661,0,0)">
		<g class="st1">
			<path d="M90,132.6c0-3.1,3.2-6,7.1-6c2.1,0,3.5,1.2,3.5,3c0,3-3.9,6-7.1,6C91.6,135.6,90,134.5,90,132.6z"/>
		</g>
	</g>
	<g transform="matrix(0.708661,0,0,0.708661,0,0)">
		<line vector-effect="none" class="st0" x1="131.3" y1="143.1" x2="147.3" y2="143.1"/>
	</g>
	<g transform="matrix(0.708661,0,0,0.708661,0,0)">
		<line vector-effect="none" class="st0" x1="131.3" y1="135.1" x2="147.3" y2="135.1"/>
	</g>
	<g transform="matrix(0.708661,0,0,0.708661,0,0)">
		<line vector-effect="none" class="st3" x1="134.5" y1="132.4" x2="134.5" y2="168.4"/>
	</g>
	<g transform="matrix(0.708661,0,0,0.708661,0,0)">
		<g class="st1">
			<path d="M134,132.6c0-3.1,3.2-6,7.1-6c2.1,0,3.5,1.2,3.5,3c0,3-3.9,6-7.1,6C135.6,135.6,134,134.5,134,132.6z"/>
		</g>
	</g>
	<g transform="matrix(0.708661,0,0,0.708661,0,0)">
		<g class="st1">
			<path d="M128.8,127.7c-0.3,0.1-0.4,0.7-0.4,0.9v3c0,0.4,0.2,0.6,0.4,0.6c0.2-0.1,0.8-0.3,0.8-0.3c0.1,0,0.1,0,0.2,0
				c0.1,0,0.2,0.1,0.2,0.3v2.3c0,0.2-0.2,0.4-0.4,0.5c0,0-0.7,0.3-0.9,0.4c-0.2,0.1-0.4,0.5-0.4,0.7v4.5c0,0.2-0.2,0.4-0.5,0.4
				c-0.2,0-0.4-0.2-0.4-0.4v-4c0-0.2-0.2-0.6-0.4-0.6c0,0-0.1,0-0.1,0l-2,0.8c-0.2,0.1-0.3,0.3-0.3,0.7v4.5c0,0.2-0.2,0.4-0.5,0.4
				c-0.2,0-0.4-0.2-0.4-0.4V138c0-0.2-0.2-0.5-0.4-0.5c0,0-0.1,0-0.1,0c-0.3,0.1-0.7,0.3-0.7,0.3c0,0-0.1,0-0.1,0
				c-0.2,0-0.3-0.1-0.3-0.3v-2.3c0-0.2,0.2-0.4,0.4-0.5c0,0,0.7-0.3,0.9-0.4c0.2-0.1,0.4-0.4,0.4-0.7v-3.2c0-0.3-0.2-0.6-0.4-0.6
				c0,0-0.1,0-0.1,0c-0.2,0.1-0.7,0.3-0.7,0.3c0,0-0.1,0-0.1,0c-0.2,0-0.3-0.1-0.3-0.3v-2.3c0-0.2,0.2-0.4,0.4-0.5
				c0,0,0.6-0.3,0.8-0.4c0.2-0.1,0.4-0.4,0.4-0.9v-1.3v-3c0-0.2,0.2-0.4,0.5-0.4c0.2,0,0.4,0.2,0.4,0.4v3.8c0,0.3,0.1,0.6,0.4,0.6
				c0.5-0.1,1.6-0.6,2-0.8c0.3-0.2,0.4-0.6,0.4-0.9v-4.2c0-0.2,0.2-0.4,0.5-0.4c0.3,0,0.4,0.2,0.4,0.4v3.9c0,0.3,0.2,0.4,0.4,0.4
				c0.2,0,0.8-0.3,0.8-0.3c0.1,0,0.1,0,0.2,0c0.1,0,0.2,0.1,0.2,0.3v2.3c0,0.2-0.2,0.4-0.4,0.5C129.6,127.3,129.1,127.6,128.8,127.7
				z M127.5,130.5c0-0.9-0.1-1.7-0.1-1.8c-0.1-0.1-0.3-0.2-0.5-0.2c-0.8,0-2.3,0.7-2.3,1.2c-0.1,0.3-0.1,1.4-0.1,2.4
				c0,0.8,0,1.5,0.1,1.6c0,0.1,0.2,0.2,0.4,0.2c0.7,0,2.2-0.6,2.4-1.3C127.5,132.3,127.5,131.4,127.5,130.5z"/>
		</g>
	</g>
	<g transform="matrix(0.708661,0,0,0.708661,0,0)">
		<line vector-effect="none" class="st0" x1="175.3" y1="143.1" x2="191.3" y2="143.1"/>
	</g>
	<g transform="matrix(0.708661,0,0,0.708661,0,0)">
		<line vector-effect="none" class="st0" x1="175.3" y1="135.1" x2="191.3" y2="135.1"/>
	</g>
	<g transform="matrix(0.708661,0,0,0.708661,0,0)">
		<line vector-effect="none" class="st0" x1="175.3" y1="127.1" x2="191.3" y2="127.1"/>
	</g>
	<g transform="matrix(0.708661,0,0,0.708661,0,0)">
		<line vector-effect="none" class="st3" x1="178.6" y1="128.4" x2="178.6" y2="166.9"/>
	</g>
	<g transform="matrix(0.708661,0,0,0.708661,0,0)">
		<g class="st1">
			<path d="M178.1,128.6c0-3.1,3.2-6,7.1-6c2.1,0,3.5,1.2,3.5,3c0,3-3.9,6-7.1,6C179.6,131.6,178.1,130.5,178.1,128.6z"/>
		</g>
	</g>
	<g transform="matrix(0.708661,0,0,0.708661,0,0)">
		<g class="st1">
			<path d="M173.7,121.1c0.1,0,0.3,0.1,0.3,0.3v16.1c0,0.2-0.2,0.4-0.4,0.4h-0.4c-0.2,0-0.4-0.2-0.4-0.4v-4.8c0-0.3-0.2-0.4-0.5-0.4
				c-0.9,0-2.7,0.8-3.2,1c0,0-0.1,0-0.1,0c0,0-0.1,0-0.1,0c-0.2,0-0.3-0.1-0.3-0.3v-16.5c0-0.2,0.2-0.4,0.4-0.4h0.4
				c0.2,0,0.4,0.2,0.4,0.4v5.3c0,0.1,0.1,0.2,0.3,0.2c0.8,0,2.9-0.7,2.9-0.7c0,0,0.1,0,0.1,0l0.5-0.2
				C173.6,121.1,173.6,121.1,173.7,121.1z M169.7,129.2c0,0.1,0.2,0.2,0.4,0.2c0.8,0,2.6-0.7,2.6-1.3v-3.3c0-0.1-0.1-0.2-0.3-0.2
				c-0.8,0-2.7,0.8-2.7,1.3V129.2z"/>
		</g>
	</g>
	<g transform="matrix(0.708661,0,0,0.708661,0,0)">
		<line vector-effect="none" class="st0" x1="219.3" y1="143.1" x2="235.3" y2="143.1"/>
	</g>
	<g transform="matrix(0.708661,0,0,0.708661,0,0)">
		<line vector-effect="none" class="st0" x1="219.3" y1="135.1" x2="235.3" y2="135.1"/>
	</g>
	<g transform="matrix(0.708661,0,0,0.708661,0,0)">
		<line vector-effect="none" class="st0" x1="219.3" y1="127.1" x2="235.3" y2="127.1"/>
	</g>
	<g transform="matrix(0.708661,0,0,0.708661,0,0)">
		<line vector-effect="none" class="st3" x1="222.6" y1="124.4" x2="222.6" y2="166.9"/>
	</g>
	<g transform="matrix(0.708661,0,0,0.708661,0,0)">
		<g class="st1">
			<path d="M222.1,124.6c0-3.1,3.2-6,7.1-6c2.1,0,3.5,1.2,3.5,3c0,3-3.9,6-7.1,6C223.6,127.6,222.1,126.5,222.1,124.6z"/>
		</g>
	</g>
	<g transform="matrix(0.708661,0,0,0.708661,0,0)">
		<g class="st1">
			<path d="M210.8,110c0-0.6,0.5-0.9,1-0.9c0.3,0,0.6,0.2,0.6,0.5c0,0.6-0.2,8.3-0.2,9c0,0.2,0.1,0.4,0.4,0.5c0.1,0,0.1,0,0.2,0
				c0.3,0,0.5-0.3,0.7-0.4c0.4-0.2,0.7-0.4,1.1-0.4c0.2-0.1,0.4-0.1,0.7-0.1c1.5,0.1,2.9,1.2,2.9,3.1c0,1.5-1,3.4-3.8,5.4
				c-0.8,0.5-1.6,1.4-2.5,2c0,0-0.1,0.1-0.2,0.1c-0.1,0-0.2,0-0.3-0.2C210.9,128.2,210.8,110,210.8,110z M212.7,126.2
				c0.1,0,0.2,0,0.3-0.1c1-0.6,1.9-1.6,2.3-2.4c0.4-0.7,0.5-1.3,0.5-1.9c0-0.6-0.2-1.2-0.5-1.5c-0.2-0.2-0.5-0.4-0.8-0.4
				c-0.3,0-0.5,0.1-0.8,0.2c-0.4,0.3-1.3,1-1.4,1.3c0,0.1-0.1,0.5-0.1,1c0,1.3,0.1,3.2,0.1,3.2C212.3,125.9,212.4,126.2,212.7,126.2
				z"/>
		</g>
	</g>
	<g transform="matrix(0.708661,0,0,0.708661,0,0)">
		<line vector-effect="none" class="st0" x1="263.3" y1="143.1" x2="279.3" y2="143.1"/>
	</g>
	<g transform="matrix(0.708661,0,0,0.708661,0,0)">
		<line vector-effect="none" class="st0" x1="263.3" y1="135.1" x2="279.3" y2="135.1"/>
	</g>
	<g transform="matrix(0.708661,0,0,0.708661,0,0)">
		<line vector-effect="none" class="st0" x1="263.3" y1="127.1" x2="279.3" y2="127.1"/>
	</g>
	<g transform="matrix(0.708661,0,0,0.708661,0,0)">
		<line vector-effect="none" class="st3" x1="266.6" y1="128.4" x2="266.6" y2="168.1"/>
	</g>
	<g transform="matrix(0.708661,0,0,0.708661,0,0)">
		<g class="st1">
			<path d="M266.1,128.6c0-3.1,3.2-6,7.1-6c2.1,0,3.5,1.2,3.5,3c0,3-3.9,6-7.1,6C267.6,131.6,266.1,130.5,266.1,128.6z"/>
		</g>
	</g>
	<g transform="matrix(0.708661,0,0,0.708661,0,0)">
		<line vector-effect="none" class="st0" x1="307.3" y1="143.1" x2="323.4" y2="143.1"/>
	</g>
	<g transform="matrix(0.708661,0,0,0.708661,0,0)">
		<line vector-effect="none" class="st0" x1="307.3" y1="135.1" x2="323.4" y2="135.1"/>
	</g>
	<g transform="matrix(0.708661,0,0,0.708661,0,0)">
		<line vector-effect="none" class="st0" x1="307.3" y1="127.1" x2="323.4" y2="127.1"/>
	</g>
	<g transform="matrix(0.708661,0,0,0.708661,0,0)">
		<line vector-effect="none" class="st3" x1="310.6" y1="128.4" x2="310.6" y2="169.4"/>
	</g>
	<g transform="matrix(0.708661,0,0,0.708661,0,0)">
		<g class="st1">
			<path d="M310.1,128.6c0-3.1,3.2-6,7.1-6c2.1,0,3.5,1.2,3.5,3c0,3-3.9,6-7.1,6C311.6,131.6,310.1,130.5,310.1,128.6z"/>
		</g>
	</g>
	<g transform="matrix(0.708661,0,0,0.708661,0,0)">
		<g class="st1">
			<path d="M298.8,114c0-0.6,0.5-0.9,1-0.9c0.3,0,0.6,0.2,0.6,0.5c0,0.6-0.2,8.3-0.2,9c0,0.2,0.1,0.4,0.4,0.5c0.1,0,0.1,0,0.2,0
				c0.3,0,0.5-0.3,0.7-0.4c0.4-0.2,0.7-0.4,1.1-0.4c0.2-0.1,0.4-0.1,0.7-0.1c1.5,0.1,2.9,1.2,2.9,3.1c0,1.5-1,3.4-3.8,5.4
				c-0.8,0.5-1.6,1.4-2.5,2c0,0-0.1,0.1-0.2,0.1c-0.1,0-0.2,0-0.3-0.2C299,132.2,298.8,114,298.8,114z M300.7,130.2
				c0.1,0,0.2,0,0.3-0.1c1-0.6,1.9-1.6,2.3-2.4c0.4-0.7,0.5-1.3,0.5-1.9c0-0.6-0.2-1.2-0.5-1.5c-0.2-0.2-0.5-0.4-0.8-0.4
				c-0.3,0-0.5,0.1-0.8,0.2c-0.4,0.3-1.3,1-1.4,1.3c0,0.1-0.1,0.5-0.1,1c0,1.3,0.1,3.2,0.1,3.2C300.3,129.9,300.4,130.2,300.7,130.2
				z"/>
		</g>
	</g>
	<g transform="matrix(0.708661,0,0,0.708661,0,0)">
		<line vector-effect="none" class="st0" x1="351.4" y1="143.1" x2="367.4" y2="143.1"/>
	</g>
	<g transform="matrix(0.708661,0,0,0.708661,0,0)">
		<line vector-effect="none" class="st0" x1="351.4" y1="135.1" x2="367.4" y2="135.1"/>
	</g>
	<g transform="matrix(0.708661,0,0,0.708661,0,0)">
		<line vector-effect="none" class="st3" x1="354.6" y1="132.4" x2="354.6" y2="170.9"/>
	</g>
	<g transform="matrix(0.708661,0,0,0.708661,0,0)">
		<g class="st1">
			<path d="M354.1,132.6c0-3.1,3.2-6,7.1-6c2.1,0,3.5,1.2,3.5,3c0,3-3.9,6-7.1,6C355.6,135.6,354.1,134.5,354.1,132.6z"/>
		</g>
	</g>
	<g transform="matrix(0.708661,0,0,0.708661,0,0)">
		<g class="st1">
			<path d="M349.7,125.1c0.1,0,0.3,0.1,0.3,0.3v16.1c0,0.2-0.2,0.4-0.4,0.4h-0.4c-0.2,0-0.4-0.2-0.4-0.4v-4.8c0-0.3-0.2-0.4-0.5-0.4
				c-0.9,0-2.7,0.8-3.2,1c0,0-0.1,0-0.1,0c0,0-0.1,0-0.1,0c-0.2,0-0.3-0.1-0.3-0.3v-16.5c0-0.2,0.2-0.4,0.4-0.4h0.4
				c0.2,0,0.4,0.2,0.4,0.4v5.3c0,0.1,0.1,0.2,0.3,0.2c0.8,0,2.9-0.7,2.9-0.7c0,0,0.1,0,0.1,0l0.5-0.2
				C349.6,125.1,349.7,125.1,349.7,125.1z M345.8,133.2c0,0.1,0.2,0.2,0.4,0.2c0.8,0,2.6-0.7,2.6-1.3v-3.3c0-0.1-0.1-0.2-0.3-0.2
				c-0.8,0-2.7,0.8-2.7,1.3V133.2z"/>
		</g>
	</g>
	<g transform="matrix(0.708661,0,0,0.708661,0,0)">
		<line vector-effect="none" class="st0" x1="407.4" y1="143.1" x2="423.4" y2="143.1"/>
	</g>
	<g transform="matrix(0.708661,0,0,0.708661,0,0)">
		<line vector-effect="none" class="st0" x1="407.4" y1="135.1" x2="423.4" y2="135.1"/>
	</g>
	<g transform="matrix(0.708661,0,0,0.708661,0,0)">
		<line vector-effect="none" class="st3" x1="410.6" y1="136.4" x2="410.6" y2="166.9"/>
	</g>
	<g transform="matrix(0.708661,0,0,0.708661,0,0)">
		<g class="st1">
			<path d="M410.1,136.6c0-3.1,3.2-6,7.1-6c2.1,0,3.5,1.2,3.5,3c0,3-3.9,6-7.1,6C411.7,139.6,410.1,138.5,410.1,136.6z"/>
		</g>
	</g>
	<g transform="matrix(0.708661,0,0,0.708661,0,0)">
		<line vector-effect="none" class="st0" x1="451.4" y1="143.1" x2="467.4" y2="143.1"/>
	</g>
	<g transform="matrix(0.708661,0,0,0.708661,0,0)">
		<line vector-effect="none" class="st0" x1="451.4" y1="135.1" x2="467.4" y2="135.1"/>
	</g>
	<g transform="matrix(0.708661,0,0,0.708661,0,0)">
		<line vector-effect="none" class="st3" x1="454.6" y1="136.4" x2="454.6" y2="167.4"/>
	</g>
	<g transform="matrix(0.708661,0,0,0.708661,0,0)">
		<g class="st1">
			<path d="M454.1,136.6c0-3.1,3.2-6,7.1-6c2.1,0,3.5,1.2,3.5,3c0,3-3.9,6-7.1,6C455.7,139.6,454.1,138.5,454.1,136.6z"/>
		</g>
	</g>
	<g transform="matrix(0.708661,0,0,0.708661,0,0)">
		<g class="st1">
			<path d="M442.9,122c0-0.6,0.5-0.9,1-0.9c0.3,0,0.6,0.2,0.6,0.5c0,0.6-0.2,8.3-0.2,9c0,0.2,0.1,0.4,0.4,0.5c0.1,0,0.1,0,0.2,0
				c0.3,0,0.5-0.3,0.7-0.4c0.4-0.2,0.7-0.4,1.1-0.4c0.2-0.1,0.4-0.1,0.7-0.1c1.5,0.1,2.9,1.2,2.9,3.1c0,1.5-1,3.4-3.8,5.4
				c-0.8,0.5-1.6,1.4-2.5,2c0,0-0.1,0.1-0.2,0.1s-0.2,0-0.3-0.2C443,140.2,442.9,122,442.9,122z M444.7,138.2c0.1,0,0.2,0,0.3-0.1
				c1-0.6,1.9-1.6,2.3-2.4c0.4-0.7,0.5-1.3,0.5-1.9c0-0.6-0.2-1.2-0.5-1.5c-0.2-0.2-0.5-0.4-0.8-0.4c-0.3,0-0.5,0.1-0.8,0.2
				c-0.4,0.3-1.3,1-1.4,1.3c0,0.1-0.1,0.5-0.1,1c0,1.3,0.1,3.2,0.1,3.2C444.4,137.9,444.5,138.2,444.7,138.2z"/>
		</g>
	</g>
	<g transform="matrix(0.708661,0,0,0.708661,0,0)">
		<line vector-effect="none" class="st0" x1="495.4" y1="143.1" x2="511.4" y2="143.1"/>
	</g>
	<g transform="matrix(0.708661,0,0,0.708661,0,0)">
		<line vector-effect="none" class="st3" x1="498.7" y1="140.4" x2="498.7" y2="168.1"/>
	</g>
	<g transform="matrix(0.708661,0,0,0.708661,0,0)">
		<g class="st1">
			<path d="M498.2,140.6c0-3.1,3.2-6,7.1-6c2.1,0,3.5,1.2,3.5,3c0,3-3.9,6-7.1,6C499.7,143.6,498.2,142.5,498.2,140.6z"/>
		</g>
	</g>
	<g transform="matrix(0.708661,0,0,0.708661,0,0)">
		<line vector-effect="none" class="st0" x1="539.4" y1="143.1" x2="555.4" y2="143.1"/>
	</g>
	<g transform="matrix(0.708661,0,0,0.708661,0,0)">
		<line vector-effect="none" class="st3" x1="542.7" y1="140.4" x2="542.7" y2="168.9"/>
	</g>
	<g transform="matrix(0.708661,0,0,0.708661,0,0)">
		<g class="st1">
			<path d="M542.2,140.6c0-3.1,3.2-6,7.1-6c2.1,0,3.5,1.2,3.5,3c0,3-3.9,6-7.1,6C543.7,143.6,542.2,142.5,542.2,140.6z"/>
		</g>
	</g>
	<g transform="matrix(0.708661,0,0,0.708661,0,0)">
		<g class="st1">
			<path d="M530.9,126c0-0.6,0.5-0.9,1-0.9c0.3,0,0.6,0.2,0.6,0.5c0,0.6-0.2,8.3-0.2,9c0,0.2,0.1,0.4,0.4,0.5c0.1,0,0.1,0,0.2,0
				c0.3,0,0.5-0.3,0.7-0.4c0.4-0.2,0.7-0.4,1.1-0.4c0.2-0.1,0.4-0.1,0.7-0.1c1.5,0.1,2.9,1.2,2.9,3.1c0,1.5-1,3.4-3.8,5.4
				c-0.8,0.5-1.6,1.4-2.5,2c0,0-0.1,0.1-0.2,0.1s-0.2,0-0.3-0.2C531,144.3,530.9,126,530.9,126z M532.8,142.2c0.1,0,0.2,0,0.3-0.1
				c1-0.6,1.9-1.6,2.3-2.4c0.4-0.7,0.5-1.3,0.5-1.9c0-0.6-0.2-1.2-0.5-1.5c-0.2-0.2-0.5-0.4-0.8-0.4c-0.3,0-0.5,0.1-0.8,0.2
				c-0.4,0.3-1.3,1-1.4,1.3c0,0.1-0.1,0.5-0.1,1c0,1.3,0.1,3.2,0.1,3.2C532.4,141.9,532.5,142.2,532.8,142.2z"/>
		</g>
	</g>
	<g transform="matrix(0.708661,0,0,0.708661,0,0)">
		<line vector-effect="none" class="st0" x1="583.4" y1="143.1" x2="599.4" y2="143.1"/>
	</g>
	<g transform="matrix(0.708661,0,0,0.708661,0,0)">
		<line vector-effect="none" class="st3" x1="586.7" y1="144.4" x2="586.7" y2="174.9"/>
	</g>
	<g transform="matrix(0.708661,0,0,0.708661,0,0)">
		<g class="st1">
			<path d="M586.2,144.6c0-3.1,3.2-6,7.1-6c2.1,0,3.5,1.2,3.5,3c0,3-3.9,6-7.1,6C587.7,147.6,586.2,146.5,586.2,144.6z"/>
		</g>
	</g>
	<g transform="matrix(0.708661,0,0,0.708661,0,0)">
		<line vector-effect="none" class="st3" x1="630.7" y1="148.4" x2="630.7" y2="176.1"/>
	</g>
	<g transform="matrix(0.708661,0,0,0.708661,0,0)">
		<g class="st1">
			<path d="M630.2,148.6c0-3.1,3.2-6,7.1-6c2.1,0,3.5,1.2,3.5,3c0,3-3.9,6-7.1,6C631.7,151.6,630.2,150.5,630.2,148.6z"/>
		</g>
	</g>
	<g transform="matrix(0.708661,0,0,0.708661,0,0)">
		<line vector-effect="none" class="st3" x1="674.7" y1="148.4" x2="674.7" y2="177.4"/>
	</g>
	<g transform="matrix(0.708661,0,0,0.708661,0,0)">
		<g class="st1">
			<path d="M674.2,148.6c0-3.1,3.2-6,7.1-6c2.1,0,3.5,1.2,3.5,3c0,3-3.9,6-7.1,6C675.7,151.6,674.2,150.5,674.2,148.6z"/>
		</g>
	</g>
	<g transform="matrix(0.708661,0,0,0.708661,0,0)">
		<g class="st1">
			<path d="M664.7,134c0-0.6,0.5-0.9,1-0.9c0.3,0,0.6,0.2,0.6,0.5c0,0.6-0.2,8.3-0.2,9c0,0.2,0.1,0.4,0.4,0.5c0.1,0,0.1,0,0.2,0
				c0.3,0,0.5-0.3,0.7-0.4c0.4-0.2,0.7-0.4,1.1-0.4c0.2-0.1,0.4-0.1,0.7-0.1c1.5,0.1,2.9,1.2,2.9,3.1c0,1.5-1,3.4-3.8,5.4
				c-0.8,0.5-1.6,1.4-2.5,2c0,0-0.1,0.1-0.2,0.1c-0.1,0-0.2,0-0.3-0.2C664.8,152.3,664.7,134,664.7,134z M666.6,150.2
				c0.1,0,0.2,0,0.3-0.1c1-0.6,1.9-1.6,2.3-2.4c0.4-0.7,0.5-1.3,0.5-1.9c0-0.6-0.2-1.2-0.5-1.5c-0.2-0.2-0.5-0.4-0.8-0.4
				c-0.3,0-0.5,0.1-0.8,0.2c-0.4,0.3-1.3,1-1.4,1.3c0,0.1-0.1,0.5-0.1,1c0,1.3,0.1,3.2,0.1,3.2C666.2,149.9,666.3,150.2,666.6,150.2
				z"/>
		</g>
	</g>
	<g transform="matrix(0.708661,0,0,0.708661,0,0)">
		<line vector-effect="none" class="st3" x1="718.7" y1="152.4" x2="718.7" y2="178.9"/>
	</g>
	<g transform="matrix(0.708661,0,0,0.708661,0,0)">
		<g class="st1">
			<path d="M718.2,152.6c0-3.1,3.2-6,7.1-6c2.1,0,3.5,1.2,3.5,3c0,3-3.9,6-7.1,6C719.8,155.6,718.2,154.5,718.2,152.6z"/>
		</g>
	</g>
	<g transform="matrix(0.708661,0,0,0.708661,0,0)">
		<g class="st1">
			<path d="M715.6,145.1c0.1,0,0.3,0.1,0.3,0.3v16.1c0,0.2-0.2,0.4-0.4,0.4h-0.4c-0.2,0-0.4-0.2-0.4-0.4v-4.8c0-0.3-0.2-0.4-0.5-0.4
				c-0.9,0-2.7,0.8-3.2,1c0,0-0.1,0-0.1,0c0,0-0.1,0-0.1,0c-0.2,0-0.3-0.1-0.3-0.3v-16.5c0-0.2,0.2-0.4,0.4-0.4h0.4
				c0.2,0,0.4,0.2,0.4,0.4v5.3c0,0.1,0.1,0.2,0.3,0.2c0.8,0,2.9-0.7,2.9-0.7c0,0,0.1,0,0.1,0l0.5-0.2
				C715.5,145.1,715.6,145.1,715.6,145.1z M711.7,153.2c0,0.1,0.2,0.2,0.4,0.2c0.8,0,2.6-0.7,2.6-1.3v-3.3c0-0.1-0.1-0.2-0.3-0.2
				c-0.8,0-2.7,0.8-2.7,1.3V153.2z"/>
		</g>
	</g>
	<g transform="matrix(0.708661,0,0,0.708661,0,0)">
		<line vector-effect="none" class="st3" x1="46.5" y1="258.4" x2="46.5" y2="288.9"/>
	</g>
	<g transform="matrix(0.708661,0,0,0.708661,0,0)">
		<g class="st1">
			<path d="M46,258.7c0-3.1,3.2-6,7.1-6c2.1,0,3.5,1.2,3.5,3c0,3-3.9,6-7.1,6C47.6,261.7,46,260.6,46,258.7z"/>
		</g>
	</g>
	<g transform="matrix(0.708661,0,0,0.708661,0,0)">
		<g class="st1">
			<path d="M36.5,244c0-0.6,0.5-0.9,1-0.9c0.3,0,0.6,0.2,0.6,0.5c0,0.6-0.2,8.3-0.2,9c0,0.2,0.1,0.4,0.4,0.5c0.1,0,0.1,0,0.2,0
				c0.3,0,0.5-0.3,0.7-0.4c0.4-0.2,0.7-0.4,1.1-0.4c0.2-0.1,0.4-0.1,0.7-0.1c1.5,0.1,2.9,1.2,2.9,3.1c0,1.5-1,3.4-3.8,5.4
				c-0.8,0.5-1.6,1.4-2.5,2c0,0-0.1,0.1-0.2,0.1c-0.1,0-0.2,0-0.3-0.2C36.6,262.3,36.5,244,36.5,244z M38.4,260.2
				c0.1,0,0.2,0,0.3-0.1c1-0.6,1.9-1.6,2.3-2.4c0.4-0.7,0.5-1.3,0.5-1.9c0-0.6-0.2-1.2-0.5-1.5c-0.2-0.2-0.5-0.4-0.8-0.4
				c-0.3,0-0.5,0.1-0.8,0.2c-0.4,0.3-1.3,1-1.4,1.3c0,0.1-0.1,0.5-0.1,1c0,1.3,0.1,3.2,0.1,3.2C38,259.9,38.1,260.2,38.4,260.2z"/>
		</g>
	</g>
	<g transform="matrix(0.708661,0,0,0.708661,0,0)">
		<line vector-effect="none" class="st3" x1="78.8" y1="262.4" x2="78.8" y2="290.2"/>
	</g>
	<g transform="matrix(0.708661,0,0,0.708661,0,0)">
		<g class="st1">
			<path d="M78.3,262.7c0-3.1,3.2-6,7.1-6c2.1,0,3.5,1.2,3.5,3c0,3-3.9,6-7.1,6C79.8,265.7,78.3,264.6,78.3,262.7z"/>
		</g>
	</g>
	<g transform="matrix(0.708661,0,0,0.708661,0,0)">
		<line vector-effect="none" class="st3" x1="110.8" y1="262.4" x2="110.8" y2="291.4"/>
	</g>
	<g transform="matrix(0.708661,0,0,0.708661,0,0)">
		<g class="st1">
			<path d="M110.3,262.7c0-3.1,3.2-6,7.1-6c2.1,0,3.5,1.2,3.5,3c0,3-3.9,6-7.1,6C111.8,265.7,110.3,264.6,110.3,262.7z"/>
		</g>
	</g>
	<g transform="matrix(0.708661,0,0,0.708661,0,0)">
		<g class="st1">
			<path d="M100.8,248c0-0.6,0.5-0.9,1-0.9c0.3,0,0.6,0.2,0.6,0.5c0,0.6-0.2,8.3-0.2,9c0,0.2,0.1,0.4,0.4,0.5c0.1,0,0.1,0,0.2,0
				c0.3,0,0.5-0.3,0.7-0.4c0.4-0.2,0.7-0.4,1.1-0.4c0.2-0.1,0.4-0.1,0.7-0.1c1.5,0.1,2.9,1.2,2.9,3.1c0,1.5-1,3.4-3.8,5.4
				c-0.8,0.5-1.6,1.4-2.5,2c0,0-0.1,0.1-0.2,0.1c-0.1,0-0.2,0-0.3-0.2C100.9,266.3,100.8,248,100.8,248z M102.6,264.2
				c0.1,0,0.2,0,0.3-0.1c1-0.6,1.9-1.6,2.3-2.4c0.4-0.7,0.5-1.3,0.5-1.9c0-0.6-0.2-1.2-0.5-1.5c-0.2-0.2-0.5-0.4-0.8-0.4
				c-0.3,0-0.5,0.1-0.8,0.2c-0.4,0.3-1.3,1-1.4,1.3c0,0.1-0.1,0.5-0.1,1c0,1.3,0.1,3.2,0.1,3.2C102.3,263.9,102.4,264.2,102.6,264.2
				z"/>
		</g>
	</g>
	<g transform="matrix(0.708661,0,0,0.708661,0,0)">
		<line vector-effect="none" class="st3" x1="143" y1="266.4" x2="143" y2="292.9"/>
	</g>
	<g transform="matrix(0.708661,0,0,0.708661,0,0)">
		<g class="st1">
			<path d="M142.5,266.7c0-3.1,3.2-6,7.1-6c2.1,0,3.5,1.2,3.5,3c0,3-3.9,6-7.1,6C144.1,269.7,142.5,268.6,142.5,266.7z"/>
		</g>
	</g>
	<g transform="matrix(0.708661,0,0,0.708661,0,0)">
		<line vector-effect="none" class="st3" x1="175.3" y1="270.4" x2="175.3" y2="296.9"/>
	</g>
	<g transform="matrix(0.708661,0,0,0.708661,0,0)">
		<g class="st1">
			<path d="M174.8,270.7c0-3.1,3.2-6,7.1-6c2.1,0,3.5,1.2,3.5,3c0,3-3.9,6-7.1,6C176.3,273.7,174.8,272.6,174.8,270.7z"/>
		</g>
	</g>
	<g transform="matrix(0.708661,0,0,0.708661,0,0)">
		<g class="st1">
			<path d="M172.2,263.2c0.1,0,0.3,0.1,0.3,0.3v16.1c0,0.2-0.2,0.4-0.4,0.4h-0.4c-0.2,0-0.4-0.2-0.4-0.4v-4.8c0-0.3-0.2-0.4-0.5-0.4
				c-0.9,0-2.7,0.8-3.2,1c0,0-0.1,0-0.1,0c0,0-0.1,0-0.1,0c-0.2,0-0.3-0.1-0.3-0.3v-16.5c0-0.2,0.2-0.4,0.4-0.4h0.4
				c0.2,0,0.4,0.2,0.4,0.4v5.3c0,0.1,0.1,0.2,0.3,0.2c0.8,0,2.9-0.7,2.9-0.7c0,0,0.1,0,0.1,0l0.5-0.2
				C172.1,263.2,172.1,263.2,172.2,263.2z M168.2,271.2c0,0.1,0.2,0.2,0.4,0.2c0.8,0,2.6-0.7,2.6-1.3v-3.3c0-0.1-0.1-0.2-0.3-0.2
				c-0.8,0-2.7,0.8-2.7,1.3V271.2z"/>
		</g>
	</g>
	<g transform="matrix(0.708661,0,0,0.708661,0,0)">
		<line vector-effect="none" class="st3" x1="207.6" y1="270.4" x2="207.6" y2="297.4"/>
	</g>
	<g transform="matrix(0.708661,0,0,0.708661,0,0)">
		<g class="st1">
			<path d="M207.1,270.7c0-3.1,3.2-6,7.1-6c2.1,0,3.5,1.2,3.5,3c0,3-3.9,6-7.1,6C208.6,273.7,207.1,272.6,207.1,270.7z"/>
		</g>
	</g>
	<g transform="matrix(0.708661,0,0,0.708661,0,0)">
		<g class="st1">
			<path d="M197.6,256c0-0.6,0.5-0.9,1-0.9c0.3,0,0.6,0.2,0.6,0.5c0,0.6-0.2,8.3-0.2,9c0,0.2,0.1,0.4,0.4,0.5c0.1,0,0.1,0,0.2,0
				c0.3,0,0.5-0.3,0.7-0.4c0.4-0.2,0.7-0.4,1.1-0.4c0.2-0.1,0.4-0.1,0.7-0.1c1.5,0.1,2.9,1.2,2.9,3.1c0,1.5-1,3.4-3.8,5.4
				c-0.8,0.5-1.6,1.4-2.5,2c0,0-0.1,0.1-0.2,0.1c-0.1,0-0.2,0-0.3-0.2C197.7,274.3,197.6,256,197.6,256z M199.4,272.2
				c0.1,0,0.2,0,0.3-0.1c1-0.6,1.9-1.6,2.3-2.4c0.4-0.7,0.5-1.3,0.5-1.9c0-0.6-0.2-1.2-0.5-1.5c-0.2-0.2-0.5-0.4-0.8-0.4
				c-0.3,0-0.5,0.1-0.8,0.2c-0.4,0.3-1.3,1-1.4,1.3c0,0.1-0.1,0.5-0.1,1c0,1.3,0.1,3.2,0.1,3.2C199.1,271.9,199.1,272.2,199.4,272.2
				z"/>
		</g>
	</g>
	<g transform="matrix(0.708661,0,0,0.708661,0,0)">
		<line vector-effect="none" class="st3" x1="239.6" y1="274.4" x2="239.6" y2="298.2"/>
	</g>
	<g transform="matrix(0.708661,0,0,0.708661,0,0)">
		<g class="st1">
			<path d="M239.1,274.7c0-3.1,3.2-6,7.1-6c2.1,0,3.5,1.2,3.5,3c0,3-3.9,6-7.1,6C240.6,277.7,239.1,276.6,239.1,274.7z"/>
		</g>
	</g>
	<g transform="matrix(0.708661,0,0,0.708661,0,0)">
		<g class="st1">
			<path d="M236.4,267.2c0.1,0,0.3,0.1,0.3,0.3v16.1c0,0.2-0.2,0.4-0.4,0.4h-0.4c-0.2,0-0.4-0.2-0.4-0.4v-4.8c0-0.3-0.2-0.4-0.5-0.4
				c-0.9,0-2.7,0.8-3.2,1c0,0-0.1,0-0.1,0c0,0-0.1,0-0.1,0c-0.2,0-0.3-0.1-0.3-0.3v-16.5c0-0.2,0.2-0.4,0.4-0.4h0.4
				c0.2,0,0.4,0.2,0.4,0.4v5.3c0,0.1,0.1,0.2,0.3,0.2c0.8,0,2.9-0.7,2.9-0.7c0,0,0.1,0,0.1,0l0.5-0.2
				C236.3,267.2,236.4,267.2,236.4,267.2z M232.5,275.2c0,0.1,0.2,0.2,0.4,0.2c0.8,0,2.6-0.7,2.6-1.3v-3.3c0-0.1-0.1-0.2-0.3-0.2
				c-0.8,0-2.7,0.8-2.7,1.3V275.2z"/>
		</g>
	</g>
	<g transform="matrix(0.708661,0,0,0.708661,0,0)">
		<line vector-effect="none" class="st3" x1="271.8" y1="274.4" x2="271.8" y2="298.9"/>
	</g>
	<g transform="matrix(0.708661,0,0,0.708661,0,0)">
		<g class="st1">
			<path d="M271.3,274.7c0-3.1,3.2-6,7.1-6c2.1,0,3.5,1.2,3.5,3c0,3-3.9,6-7.1,6C272.9,277.7,271.3,276.6,271.3,274.7z"/>
		</g>
	</g>
	<g transform="matrix(0.708661,0,0,0.708661,0,0)">
		<g class="st1">
			<path d="M261.8,260c0-0.6,0.5-0.9,1-0.9c0.3,0,0.6,0.2,0.6,0.5c0,0.6-0.2,8.3-0.2,9c0,0.2,0.1,0.4,0.4,0.5c0.1,0,0.1,0,0.2,0
				c0.3,0,0.5-0.3,0.7-0.4c0.4-0.2,0.7-0.4,1.1-0.4c0.2-0.1,0.4-0.1,0.7-0.1c1.5,0.1,2.9,1.2,2.9,3.1c0,1.5-1,3.4-3.8,5.4
				c-0.8,0.5-1.6,1.4-2.5,2c0,0-0.1,0.1-0.2,0.1c-0.1,0-0.2,0-0.3-0.2C262,278.3,261.8,260,261.8,260z M263.7,276.2
				c0.1,0,0.2,0,0.3-0.1c1-0.6,1.9-1.6,2.3-2.4c0.4-0.7,0.5-1.3,0.5-1.9c0-0.6-0.2-1.2-0.5-1.5c-0.2-0.2-0.5-0.4-0.8-0.4
				c-0.3,0-0.5,0.1-0.8,0.2c-0.4,0.3-1.3,1-1.4,1.3c0,0.1-0.1,0.5-0.1,1c0,1.3,0.1,3.2,0.1,3.2C263.3,275.9,263.4,276.2,263.7,276.2
				z"/>
		</g>
	</g>
	<g transform="matrix(0.708661,0,0,0.708661,0,0)">
		<line vector-effect="none" class="st3" x1="325.6" y1="275.9" x2="325.6" y2="253.4"/>
	</g>
	<g transform="matrix(0.708661,0,0,0.708661,0,0)">
		<g class="st1">
			<path d="M315.6,278.7c0-3.1,3.2-6,7.1-6c2.1,0,3.5,1.2,3.5,3c0,3-3.9,6-7.1,6C317.1,281.7,315.6,280.6,315.6,278.7z"/>
		</g>
	</g>
	<g transform="matrix(0.708661,0,0,0.708661,0,0)">
		<line vector-effect="none" class="st3" x1="357.9" y1="279.9" x2="357.9" y2="254.7"/>
	</g>
	<g transform="matrix(0.708661,0,0,0.708661,0,0)">
		<g class="st1">
			<path d="M347.9,282.7c0-3.1,3.2-6,7.1-6c2.1,0,3.5,1.2,3.5,3c0,3-3.9,6-7.1,6C349.4,285.7,347.9,284.6,347.9,282.7z"/>
		</g>
	</g>
	<g transform="matrix(0.708661,0,0,0.708661,0,0)">
		<line vector-effect="none" class="st3" x1="389.9" y1="279.9" x2="389.9" y2="255.9"/>
	</g>
	<g transform="matrix(0.708661,0,0,0.708661,0,0)">
		<g class="st1">
			<path d="M379.9,282.7c0-3.1,3.2-6,7.1-6c2.1,0,3.5,1.2,3.5,3c0,3-3.9,6-7.1,6C381.4,285.7,379.9,284.6,379.9,282.7z"/>
		</g>
	</g>
	<g transform="matrix(0.708661,0,0,0.708661,0,0)">
		<g class="st1">
			<path d="M370.4,268c0-0.6,0.5-0.9,1-0.9c0.3,0,0.6,0.2,0.6,0.5c0,0.6-0.2,8.3-0.2,9c0,0.2,0.1,0.4,0.4,0.5c0.1,0,0.1,0,0.2,0
				c0.3,0,0.5-0.3,0.7-0.4c0.4-0.2,0.7-0.4,1.1-0.4c0.2-0.1,0.4-0.1,0.7-0.1c1.5,0.1,2.9,1.2,2.9,3.1c0,1.5-1,3.4-3.8,5.4
				c-0.8,0.5-1.6,1.4-2.5,2c0,0-0.1,0.1-0.2,0.1c-0.1,0-0.2,0-0.3-0.2C370.5,286.3,370.4,268,370.4,268z M372.2,284.2
				c0.1,0,0.2,0,0.3-0.1c1-0.6,1.9-1.6,2.3-2.4c0.4-0.7,0.5-1.3,0.5-1.9c0-0.6-0.2-1.2-0.5-1.5c-0.2-0.2-0.5-0.4-0.8-0.4
				c-0.3,0-0.5,0.1-0.8,0.2c-0.4,0.3-1.3,1-1.4,1.3c0,0.1-0.1,0.5-0.1,1c0,1.3,0.1,3.2,0.1,3.2C371.9,283.9,371.9,284.2,372.2,284.2
				z"/>
		</g>
	</g>
	<g transform="matrix(0.708661,0,0,0.708661,0,0)">
		<line vector-effect="none" class="st3" x1="422.1" y1="283.9" x2="422.1" y2="257.4"/>
	</g>
	<g transform="matrix(0.708661,0,0,0.708661,0,0)">
		<g class="st1">
			<path d="M412.1,286.7c0-3.1,3.2-6,7.1-6c2.1,0,3.5,1.2,3.5,3c0,3-3.9,6-7.1,6C413.7,289.7,412.1,288.6,412.1,286.7z"/>
		</g>
	</g>
	<g transform="matrix(0.708661,0,0,0.708661,0,0)">
		<g class="st1">
			<path d="M409.5,279.2c0.1,0,0.3,0.1,0.3,0.3v16.1c0,0.2-0.2,0.4-0.4,0.4H409c-0.2,0-0.4-0.2-0.4-0.4v-4.8c0-0.3-0.2-0.4-0.5-0.4
				c-0.9,0-2.7,0.8-3.2,1c0,0-0.1,0-0.1,0c0,0-0.1,0-0.1,0c-0.2,0-0.3-0.1-0.3-0.3v-16.5c0-0.2,0.2-0.4,0.4-0.4h0.4
				c0.2,0,0.4,0.2,0.4,0.4v5.3c0,0.1,0.1,0.2,0.3,0.2c0.8,0,2.9-0.7,2.9-0.7c0,0,0.1,0,0.1,0l0.5-0.2
				C409.4,279.2,409.5,279.2,409.5,279.2z M405.6,287.2c0,0.1,0.2,0.2,0.4,0.2c0.8,0,2.6-0.7,2.6-1.3v-3.3c0-0.1-0.1-0.2-0.3-0.2
				c-0.8,0-2.7,0.8-2.7,1.3V287.2z"/>
		</g>
	</g>
	<g transform="matrix(0.708661,0,0,0.708661,0,0)">
		<line vector-effect="none" class="st3" x1="454.4" y1="283.9" x2="454.4" y2="261.4"/>
	</g>
	<g transform="matrix(0.708661,0,0,0.708661,0,0)">
		<g class="st1">
			<path d="M444.4,286.7c0-3.1,3.2-6,7.1-6c2.1,0,3.5,1.2,3.5,3c0,3-3.9,6-7.1,6C445.9,289.7,444.4,288.6,444.4,286.7z"/>
		</g>
	</g>
	<g transform="matrix(0.708661,0,0,0.708661,0,0)">
		<g class="st1">
			<path d="M434.9,272c0-0.6,0.5-0.9,1-0.9c0.3,0,0.6,0.2,0.6,0.5c0,0.6-0.2,8.3-0.2,9c0,0.2,0.1,0.4,0.4,0.5c0.1,0,0.1,0,0.2,0
				c0.3,0,0.5-0.3,0.7-0.4c0.4-0.2,0.7-0.4,1.1-0.4c0.2-0.1,0.4-0.1,0.7-0.1c1.5,0.1,2.9,1.2,2.9,3.1c0,1.5-1,3.4-3.8,5.4
				c-0.8,0.5-1.6,1.4-2.5,2c0,0-0.1,0.1-0.2,0.1s-0.2,0-0.3-0.2C435,290.3,434.9,272,434.9,272z M436.7,288.2c0.1,0,0.2,0,0.3-0.1
				c1-0.6,1.9-1.6,2.3-2.4c0.4-0.7,0.5-1.3,0.5-1.9c0-0.6-0.2-1.2-0.5-1.5c-0.2-0.2-0.5-0.4-0.8-0.4c-0.3,0-0.5,0.1-0.8,0.2
				c-0.4,0.3-1.3,1-1.4,1.3c0,0.1-0.1,0.5-0.1,1c0,1.3,0.1,3.2,0.1,3.2C436.4,287.9,436.5,288.2,436.7,288.2z"/>
		</g>
	</g>
	<g transform="matrix(0.708661,0,0,0.708661,0,0)">
		<line vector-effect="none" class="st3" x1="486.7" y1="287.9" x2="486.7" y2="262.7"/>
	</g>
	<g transform="matrix(0.708661,0,0,0.708661,0,0)">
		<g class="st1">
			<path d="M476.7,290.7c0-3.1,3.2-6,7.1-6c2.1,0,3.5,1.2,3.5,3c0,3-3.9,6-7.1,6C478.2,293.7,476.7,292.6,476.7,290.7z"/>
		</g>
	</g>
	<g transform="matrix(0.708661,0,0,0.708661,0,0)">
		<g class="st1">
			<path d="M474,283.2c0.1,0,0.3,0.1,0.3,0.3v16.1c0,0.2-0.2,0.4-0.4,0.4h-0.4c-0.2,0-0.4-0.2-0.4-0.4v-4.8c0-0.3-0.2-0.4-0.5-0.4
				c-0.9,0-2.7,0.8-3.2,1c0,0-0.1,0-0.1,0c0,0-0.1,0-0.1,0c-0.2,0-0.3-0.1-0.3-0.3v-16.5c0-0.2,0.2-0.4,0.4-0.4h0.4
				c0.2,0,0.4,0.2,0.4,0.4v5.3c0,0.1,0.1,0.2,0.3,0.2c0.8,0,2.9-0.7,2.9-0.7c0,0,0.1,0,0.1,0l0.5-0.2
				C473.9,283.2,474,283.2,474,283.2z M470.1,291.2c0,0.1,0.2,0.2,0.4,0.2c0.8,0,2.6-0.7,2.6-1.3v-3.3c0-0.1-0.1-0.2-0.3-0.2
				c-0.8,0-2.7,0.8-2.7,1.3V291.2z"/>
		</g>
	</g>
	<g transform="matrix(0.708661,0,0,0.708661,0,0)">
		<line vector-effect="none" class="st3" x1="518.7" y1="287.9" x2="518.7" y2="263.9"/>
	</g>
	<g transform="matrix(0.708661,0,0,0.708661,0,0)">
		<g class="st1">
			<path d="M508.7,290.7c0-3.1,3.2-6,7.1-6c2.1,0,3.5,1.2,3.5,3c0,3-3.9,6-7.1,6C510.2,293.7,508.7,292.6,508.7,290.7z"/>
		</g>
	</g>
	<g transform="matrix(0.708661,0,0,0.708661,0,0)">
		<g class="st1">
			<path d="M499.2,276c0-0.6,0.5-0.9,1-0.9c0.3,0,0.6,0.2,0.6,0.5c0,0.6-0.2,8.3-0.2,9c0,0.2,0.1,0.4,0.4,0.5c0.1,0,0.1,0,0.2,0
				c0.3,0,0.5-0.3,0.7-0.4c0.4-0.2,0.7-0.4,1.1-0.4c0.2-0.1,0.4-0.1,0.7-0.1c1.5,0.1,2.9,1.2,2.9,3.1c0,1.5-1,3.4-3.8,5.4
				c-0.8,0.5-1.6,1.4-2.5,2c0,0-0.1,0.1-0.2,0.1s-0.2,0-0.3-0.2C499.3,294.3,499.2,276,499.2,276z M501,292.2c0.1,0,0.2,0,0.3-0.1
				c1-0.6,1.9-1.6,2.3-2.4c0.4-0.7,0.5-1.3,0.5-1.9c0-0.6-0.2-1.2-0.5-1.5c-0.2-0.2-0.5-0.4-0.8-0.4c-0.3,0-0.5,0.1-0.8,0.2
				c-0.4,0.3-1.3,1-1.4,1.3c0,0.1-0.1,0.5-0.1,1c0,1.3,0.1,3.2,0.1,3.2C500.7,291.9,500.7,292.2,501,292.2z"/>
		</g>
	</g>
	<g transform="matrix(0.708661,0,0,0.708661,0,0)">
		<line vector-effect="none" class="st3" x1="550.9" y1="291.9" x2="550.9" y2="265.4"/>
	</g>
	<g transform="matrix(0.708661,0,0,0.708661,0,0)">
		<g class="st1">
			<path d="M540.9,294.7c0-3.1,3.2-6,7.1-6c2.1,0,3.5,1.2,3.5,3c0,3-3.9,6-7.1,6C542.5,297.7,540.9,296.6,540.9,294.7z"/>
		</g>
	</g>
	<g transform="matrix(0.708661,0,0,0.708661,0,0)">
		<line vector-effect="none" class="st0" x1="582.4" y1="297.2" x2="598.4" y2="297.2"/>
	</g>
	<g transform="matrix(0.708661,0,0,0.708661,0,0)">
		<line vector-effect="none" class="st3" x1="595.2" y1="295.9" x2="595.2" y2="269.2"/>
	</g>
	<g transform="matrix(0.708661,0,0,0.708661,0,0)">
		<g class="st1">
			<path d="M585.2,298.7c0-3.1,3.2-6,7.1-6c2.1,0,3.5,1.2,3.5,3c0,3-3.9,6-7.1,6C586.7,301.7,585.2,300.6,585.2,298.7z"/>
		</g>
	</g>
	<g transform="matrix(0.708661,0,0,0.708661,0,0)">
		<g class="st1">
			<path d="M638.3,280.1c0,0.1-0.1,0.1-0.2,0.1c-0.1,0-0.1,0-0.2,0c0,0-0.1,0-0.1,0c-0.5-0.2-1.6-0.5-2.5-0.5c-0.2,0-0.4,0-0.5,0
				c-1,0.2-1.5,1.3-1.5,2.3c0,0.3,0,0.6,0.1,0.8c0.1,0.3,0.4,1.2,0.8,1.2c0.3,0.2,0.5,0.5,0.5,0.8c0,0.1,0,0.1-0.1,0.2
				c0,0.1-0.3,0.2-0.5,0.2c-0.3,0-0.6-0.1-0.8-0.3c-2.3-1.8-3.7-3.4-3.7-5c0-1.7,1.2-3.1,2.6-3.1c0.2,0,0.4,0.1,0.5,0.1
				c0.1,0,0.3,0.1,0.5,0.1c0.2,0,0.3,0,0.4-0.2c0,0,0-0.1,0-0.1c0-0.2-0.1-0.3-0.2-0.4c-0.4-0.7-0.9-1.3-1.4-1.9l-1.6-1.9
				c0,0-0.3-0.3-0.3-0.8c0-0.3,0.1-0.6,0.4-0.9c1.4-1.5,1.9-2.9,1.9-4.1c0-2.3-1.8-3.9-2-4.3c-0.1-0.2-0.1-0.4-0.1-0.5
				c0-0.4,0.3-0.7,0.6-0.7c0.2,0,0.4,0.1,0.6,0.3c0.5,0.5,5.3,6.2,5.3,6.2s0.1,0.3,0.1,0.6c0,0.2,0,0.3-0.1,0.5
				c-0.8,1.3-2,2.8-2.1,4.7c0,0.1,0,0.3,0,0.4c0,1.8,1,3,2.2,4.5C637.5,278.7,638.3,279.8,638.3,280.1z"/>
		</g>
	</g>
	<g transform="matrix(0.708661,0,0,0.708661,0,0)">
		<g class="st1">
			<path d="M682.4,273.5H675c-0.5,0-0.8-0.4-0.8-0.8v-2.9c0-0.5,0.4-0.8,0.8-0.8h7.4c0.4,0,0.8,0.4,0.8,0.8v2.9
				C683.2,273.1,682.9,273.5,682.4,273.5z"/>
		</g>
	</g>
</g>
</svg>
