<?xml version="1.0" encoding="utf-8"?>
<!-- Generator: Adobe Illustrator 26.3.1, SVG Export Plug-In . SVG Version: 6.00 Build 0)  -->
<svg version="1.1" id="Layer_1" xmlns="http://www.w3.org/2000/svg" xmlns:xlink="http://www.w3.org/1999/xlink" x="0px" y="0px"
	 viewBox="0 0 720 432" style="enable-background:new 0 0 720 432;" xml:space="preserve">
<style type="text/css">
	.st0{fill:none;stroke:#000000;stroke-width:0.9281;stroke-linejoin:bevel;stroke-miterlimit:10;}
	.st1{enable-background:new    ;}
	.st2{fill:none;stroke:#000000;stroke-width:0.3713;stroke-linejoin:bevel;stroke-miterlimit:10;}
	.st3{fill-rule:evenodd;clip-rule:evenodd;stroke:#000000;stroke-width:0.1856;stroke-linejoin:bevel;stroke-miterlimit:10;}
	.st4{fill:none;stroke:#000000;stroke-width:2.97;stroke-linejoin:bevel;stroke-miterlimit:10;}
	.st5{fill:none;stroke:#000000;stroke-width:0.5569;stroke-linejoin:bevel;stroke-miterlimit:10;}
</style>
<g>
	<g transform="matrix(0.7425,0,0,0.7425,0,0)">
		<line vector-effect="none" class="st0" x1="192" y1="72.4" x2="192" y2="104.4"/>
	</g>
	<g transform="matrix(0.7425,0,0,0.7425,0,0)">
		<line vector-effect="none" class="st0" x1="321.5" y1="72.4" x2="321.5" y2="104.4"/>
	</g>
	<g transform="matrix(0.7425,0,0,0.7425,0,0)">
		<line vector-effect="none" class="st0" x1="451" y1="72.4" x2="451" y2="104.4"/>
	</g>
	<g transform="matrix(0.7425,0,0,0.7425,0,0)">
		<line vector-effect="none" class="st0" x1="580.8" y1="72.4" x2="580.8" y2="104.4"/>
	</g>
	<g transform="matrix(0.7425,0,0,0.7425,0,0)">
		<line vector-effect="none" class="st0" x1="710.2" y1="72.4" x2="710.2" y2="104.4"/>
	</g>
	<g transform="matrix(0.7425,0,0,0.7425,0,0)">
		<line vector-effect="none" class="st0" x1="839.8" y1="72.4" x2="839.8" y2="104.4"/>
	</g>
	<g transform="matrix(0.7425,0,0,0.7425,0,0)">
		<line vector-effect="none" class="st0" x1="969.2" y1="72.4" x2="969.2" y2="104.4"/>
	</g>
	<g transform="matrix(0.7425,0,0,0.7425,0,0)">
	</g>
	<g transform="matrix(0.7425,0,0,0.7425,178.2,102.19)">
	</g>
	<g transform="matrix(0.7425,0,0,0.7425,178.2,102.19)">
		<g class="st1">
			<path d="M-173.5-85c-3.5,0-5.9-2.4-5.9-5.9c0-3.4,2.5-6.4,6-6.4c1.2,0,3.2,0.7,3.4,0.7c0.3,0,0.5-0.2,0.7-0.7h0.6v4.2h-0.5
				c-0.4-2.1-1.8-3.4-3.9-3.4c-2.7,0-4.3,2.2-4.3,5.4c0,3.2,1.7,5.3,4.4,5.3c1.6,0,2.9-0.6,4-1.9l0.3,0.5
				C-169.8-85.7-171.4-85-173.5-85z"/>
			<path d="M-158.9-89.8v-0.3c0.7,0,1-0.2,1-1.2v-3.7c0-0.9-0.4-1.3-1.2-1.3c-0.6,0-1.3,0.3-1.8,1c0.1,0.1,0.1,0.5,0.1,1.1v1.6
				c0,0.8,0,1.2,0,1.2c0,1.1,0.2,1.3,1,1.3v0.3h-3.4v-0.3c0.7,0,1-0.2,1-1.2v-3.7c0-0.9-0.4-1.3-1.1-1.3c-0.6,0-1.2,0.3-1.8,1v4.1
				c0,0.9,0.3,1.1,1,1.1v0.3h-3.4v-0.3c0.9,0,1-0.3,1-1.3v-4c0-0.4-0.1-0.6-0.3-0.6h-0.8v-0.3l2.4-0.8v1.3c0.7-0.9,1.5-1.3,2.5-1.3
				c0.9,0,1.4,0.4,1.6,1.3c0.8-0.9,1.7-1.3,2.7-1.3c0.5,0,0.9,0.1,1.2,0.4c0.3,0.3,0.6,1.3,0.6,1.8v3.5c0,1.1,0.2,1.3,1,1.3v0.3
				H-158.9z"/>
			<path d="M-148.6-90.6c-0.5,0.6-1,0.9-1.5,0.9c-0.6,0-0.9-0.4-1-1.2c-1,0.8-1.8,1.2-2.5,1.2c-0.9,0-1.5-0.9-1.5-1.7
				c0-1.4,0.9-2.2,3.9-3.1v-1c0-0.9-0.4-1.3-1.2-1.3c-0.6,0-1.1,0.3-1.1,0.8c0,0.1,0.1,0.5,0.1,0.6c0,0.4-0.4,0.7-0.7,0.7
				c-0.4,0-0.6-0.2-0.6-0.7c0-1,1.4-1.8,2.6-1.8c1.4,0,2.3,0.8,2.3,2.3v3.6c0,0.4,0.1,0.6,0.4,0.6c0.2,0,0.5-0.1,0.8-0.4V-90.6z
				 M-151.1-94c-0.9,0.3-1.5,0.5-1.7,0.6c-0.6,0.3-0.8,0.8-0.8,1.5c0,0.7,0.4,1.3,1,1.3c0.4,0,0.9-0.2,1.5-0.6V-94z"/>
			<path d="M-147.8-96.4l2.6-0.9v6.8c0,2.7-0.9,4-2.6,4c-0.8,0-1.5-0.3-1.5-1c0-0.4,0.2-0.6,0.6-0.6c0.4,0,1.2,1,1.6,1
				c0.4,0,0.6-0.6,0.6-1.8v-6.2c0-0.6-0.2-1-0.5-1c-0.1,0-0.4,0-0.7,0.1V-96.4z M-145.9-99.3c-0.4,0-0.8-0.4-0.8-0.8
				c0-0.4,0.4-0.8,0.8-0.8s0.8,0.4,0.8,0.8C-145.1-99.7-145.5-99.3-145.9-99.3z"/>
			<path d="M-141.6-89.8h-0.7l2.4-7.4h-2.5c-0.7,0-1.2,0.4-1.5,1.1l-0.2-0.1l0.7-2h4.6L-141.6-89.8z"/>
		</g>
	</g>
	<g transform="matrix(0.7425,0,0,0.7425,178.2,102.19)">
	</g>
	<g transform="matrix(0.7425,0,0,0.7425,0,0)">
	</g>
	<g transform="matrix(0.7425,0,0,0.7425,0,0)">
		<path vector-effect="none" class="st2" d="M83.5,98.4c6.5,13.8,121,13.8,127.5,0"/>
	</g>
	<g transform="matrix(0.7425,0,0,0.7425,0,0)">
		<path vector-effect="none" class="st3" d="M83.5,98.4c6.5,12.5,121,12.5,127.5,0C204.5,113.4,90,113.4,83.5,98.4"/>
	</g>
	<g transform="matrix(0.7425,0,0,0.7425,963.765,102.19)">
	</g>
	<g transform="matrix(0.7425,0,0,0.7425,963.765,102.19)">
		<g class="st1">
			<path d="M-967-85c-3.5,0-5.9-2.4-5.9-5.9c0-3.4,2.5-6.4,6-6.4c1.2,0,3.2,0.7,3.4,0.7c0.3,0,0.5-0.2,0.7-0.7h0.6v4.2h-0.5
				c-0.4-2.1-1.8-3.4-3.9-3.4c-2.7,0-4.3,2.2-4.3,5.4c0,3.2,1.7,5.3,4.4,5.3c1.6,0,2.9-0.6,4-1.9l0.3,0.5
				C-963.3-85.7-964.9-85-967-85z"/>
			<path d="M-952.4-85.2v-0.3c0.7,0,1-0.2,1-1.2v-3.7c0-0.9-0.4-1.3-1.2-1.3c-0.6,0-1.3,0.3-1.8,1c0.1,0.1,0.1,0.5,0.1,1.1v1.6
				c0,0.8,0,1.2,0,1.2c0,1.1,0.2,1.3,1,1.3v0.3h-3.4v-0.3c0.7,0,1-0.2,1-1.2v-3.7c0-0.9-0.4-1.3-1.1-1.3c-0.6,0-1.2,0.3-1.8,1v4.1
				c0,0.9,0.3,1.1,1,1.1v0.3h-3.4v-0.3c0.9,0,1-0.3,1-1.3v-4c0-0.4-0.1-0.6-0.3-0.6h-0.8v-0.3l2.4-0.8v1.3c0.7-0.9,1.5-1.3,2.5-1.3
				c0.9,0,1.4,0.4,1.6,1.3c0.8-0.9,1.7-1.3,2.7-1.3c0.5,0,0.9,0.1,1.2,0.4c0.3,0.3,0.6,1.3,0.6,1.8v3.6c0,1.1,0.2,1.3,1,1.3v0.3
				H-952.4z"/>
			<path d="M-946-89.8h-0.7l2.4-7.4h-2.5c-0.7,0-1.2,0.4-1.5,1.1l-0.2-0.1l0.7-2h4.6L-946-89.8z"/>
		</g>
	</g>
	<g transform="matrix(0.7425,0,0,0.7425,963.765,102.19)">
	</g>
	<g transform="matrix(0.7425,0,0,0.7425,0,0)">
	</g>
	<g transform="matrix(0.7425,0,0,0.7425,1369.17,102.19)">
	</g>
	<g transform="matrix(0.7425,0,0,0.7425,1369.17,102.19)">
		<g class="st1">
			<path d="M-1379.3-91.7h2.2c1.1,0,1.4-0.5,1.5-1.6h0.3v4h-0.3c0-1.2-0.4-1.7-1.5-1.7h-2.2v3.7c0,1.5,0.2,1.8,1.7,1.8v0.3h-5v-0.3
				c1.5,0,1.7-0.3,1.7-1.8v-7.6c0-1.5-0.2-1.8-1.7-1.8V-97h8.9v2.6h-0.3c-0.4-1.6-1-2-2.6-2h-2.6V-91.7z"/>
			<path d="M-1369.9-89.8h-0.7l2.4-7.4h-2.5c-0.7,0-1.2,0.4-1.5,1.1l-0.2-0.1l0.7-2h4.6L-1369.9-89.8z"/>
		</g>
	</g>
	<g transform="matrix(0.7425,0,0,0.7425,1369.17,102.19)">
	</g>
	<g transform="matrix(0.7425,0,0,0.7425,0,0)">
	</g>
	<g transform="matrix(0.7425,0,0,0.7425,1716.66,102.19)">
	</g>
	<g transform="matrix(0.7425,0,0,0.7425,1716.66,102.19)">
		<g class="st1">
			<path d="M-1722.8-93.5h-0.3c-0.7-2.1-2-3.1-3.9-3.1c-2.7,0-4.4,2.2-4.4,5.4c0,3.2,1.9,5.8,4.5,5.8c0.9,0,1.7-0.2,2.4-0.6v-3.4
				c0-1.3-0.2-1.7-1.5-1.7v-0.4h4.5v0.4c-1.2,0-1.3,0.5-1.3,1.7v3.6c-1.3,0.7-2.6,1-4.1,1c-3.7,0-6.5-2.3-6.5-5.9
				c0-3.4,2.6-6.4,6.2-6.4c0.7,0,1.6,0.2,2.7,0.6c0.3,0.1,0.6,0.2,0.6,0.2c0.3,0,0.4-0.2,0.4-0.7h0.3L-1722.8-93.5z"/>
			<path d="M-1712.3-89.8v-0.3c0.7,0,1-0.2,1-1.2v-3.7c0-0.9-0.4-1.3-1.2-1.3c-0.6,0-1.3,0.3-1.8,1c0.1,0.1,0.1,0.5,0.1,1.1v1.6
				c0,0.8,0,1.2,0,1.2c0,1.1,0.2,1.3,1,1.3v0.3h-3.4v-0.3c0.7,0,1-0.2,1-1.2v-3.7c0-0.9-0.4-1.3-1.1-1.3c-0.6,0-1.2,0.3-1.8,1v4.1
				c0,0.9,0.3,1.1,1,1.1v0.3h-3.4v-0.3c0.9,0,1-0.3,1-1.3v-4c0-0.4-0.1-0.6-0.3-0.6h-0.8v-0.3l2.4-0.8v1.3c0.7-0.9,1.5-1.3,2.5-1.3
				c0.9,0,1.4,0.4,1.6,1.3c0.8-0.9,1.7-1.3,2.7-1.3c0.5,0,0.9,0.1,1.2,0.4c0.3,0.3,0.6,1.3,0.6,1.8v3.5c0,1.1,0.2,1.3,1,1.3v0.3
				H-1712.3z"/>
			<path d="M-1702-90.6c-0.5,0.6-1,0.9-1.5,0.9c-0.6,0-0.9-0.4-1-1.2c-1,0.8-1.8,1.2-2.5,1.2c-0.9,0-1.5-0.9-1.5-1.7
				c0-1.4,0.9-2.2,3.9-3.1v-1c0-0.9-0.4-1.3-1.2-1.3c-0.6,0-1.1,0.3-1.1,0.8c0,0.1,0.1,0.5,0.1,0.6c0,0.4-0.4,0.7-0.7,0.7
				c-0.4,0-0.6-0.2-0.6-0.7c0-1,1.4-1.8,2.6-1.8c1.4,0,2.3,0.8,2.3,2.3v3.6c0,0.4,0.1,0.6,0.4,0.6c0.2,0,0.5-0.1,0.8-0.4V-90.6z
				 M-1704.5-94c-0.9,0.3-1.5,0.5-1.7,0.6c-0.5,0.3-0.8,0.8-0.8,1.5c0,0.7,0.4,1.3,1,1.3c0.4,0,0.9-0.2,1.5-0.6V-94z"/>
			<path d="M-1701.2-96.4l2.6-0.9v6.8c0,2.7-0.9,4-2.6,4c-0.8,0-1.5-0.3-1.5-1c0-0.4,0.2-0.6,0.6-0.6c0.4,0,1.2,1,1.6,1
				c0.4,0,0.6-0.6,0.6-1.8v-6.2c0-0.6-0.2-1-0.5-1c-0.1,0-0.4,0-0.7,0.1V-96.4z M-1699.3-99.3c-0.4,0-0.8-0.4-0.8-0.8
				c0-0.4,0.4-0.8,0.8-0.8s0.8,0.4,0.8,0.8C-1698.5-99.7-1698.9-99.3-1699.3-99.3z"/>
			<path d="M-1695-89.8h-0.7l2.4-7.4h-2.5c-0.7,0-1.2,0.4-1.5,1.1l-0.2-0.1l0.7-2h4.6L-1695-89.8z"/>
		</g>
	</g>
	<g transform="matrix(0.7425,0,0,0.7425,1716.66,102.19)">
	</g>
	<g transform="matrix(0.7425,0,0,0.7425,0,0)">
	</g>
	<g transform="matrix(0.7425,0,0,0.7425,0,0)">
		<path vector-effect="none" class="st2" d="M601.8,70.4c6.5-13.8,121-13.8,127.5,0"/>
	</g>
	<g transform="matrix(0.7425,0,0,0.7425,0,0)">
		<path vector-effect="none" class="st3" d="M601.8,70.4c6.5-15,121-15,127.5,0C722.8,57.9,608.2,57.9,601.8,70.4"/>
	</g>
	<g transform="matrix(0.7425,0,0,0.7425,2495.54,102.19)">
	</g>
	<g transform="matrix(0.7425,0,0,0.7425,2495.54,102.19)">
		<g class="st1">
			<path d="M-2510.2-88.5c0,1.9-1.9,3.3-3.7,3.3h-6.5v-0.4c1.5,0,1.6-0.3,1.6-1.7v-7.5c0-1.4-0.1-1.8-1.6-1.8V-97h5.9
				c2,0,3.8,1.3,3.8,3.1c0,1.3-0.9,2.2-2.3,2.6C-2511.3-91-2510.2-89.8-2510.2-88.5z M-2512.4-93.9c0-1.3-1-2.3-2.3-2.3h-1.2
				c-0.9,0-1.1,0.3-1.1,1.3v3.2h2.3C-2513.4-91.7-2512.4-92.5-2512.4-93.9z M-2516.9-86.2c0.2,0.2,1.2,0.3,1.9,0.3
				c2.3,0,2.8-1.4,2.8-2.6c0-1.4-1.2-2.3-2.6-2.3h-2.3v4C-2517-86.5-2517-86.3-2516.9-86.2z"/>
			<path d="M-2509-97.9h0.8l-0.1,6.4c0.9-1,1.1-1.1,1.9-1.1c1.3,0,2.2,0.9,2.2,2.3c0,2-2,2.8-3.6,4.1l-1.2,1V-97.9z M-2508.2-90.6
				c-0.1,1.3-0.1,2.1-0.1,2.5c0,0.6,0.1,1.2,0.2,1.5c1.7-1.3,2.5-2.6,2.5-3.7c0-0.9-0.5-1.6-1.3-1.6
				C-2507.6-91.9-2507.9-91.2-2508.2-90.6z"/>
			<path d="M-2494.7-85.2v-0.3c0.7,0,1-0.2,1-1.2v-3.7c0-0.9-0.4-1.3-1.2-1.3c-0.6,0-1.3,0.3-1.8,1c0.1,0.1,0.1,0.5,0.1,1.1v1.6
				c0,0.8,0,1.2,0,1.2c0,1.1,0.2,1.3,1,1.3v0.3h-3.4v-0.3c0.7,0,1-0.2,1-1.2v-3.7c0-0.9-0.4-1.3-1.1-1.3c-0.6,0-1.2,0.3-1.8,1v4.1
				c0,0.9,0.3,1.1,1,1.1v0.3h-3.4v-0.3c0.9,0,1-0.3,1-1.3v-4c0-0.4-0.1-0.6-0.3-0.6h-0.8v-0.3l2.4-0.8v1.3c0.7-0.9,1.5-1.3,2.5-1.3
				c0.9,0,1.4,0.4,1.6,1.3c0.8-0.9,1.7-1.3,2.7-1.3c0.5,0,0.9,0.1,1.2,0.4c0.3,0.3,0.6,1.3,0.6,1.8v3.6c0,1.1,0.2,1.3,1,1.3v0.3
				H-2494.7z"/>
			<path d="M-2488.4-89.8h-0.7l2.4-7.4h-2.5c-0.7,0-1.2,0.4-1.5,1.1l-0.2-0.1l0.7-2h4.6L-2488.4-89.8z"/>
		</g>
	</g>
	<g transform="matrix(0.7425,0,0,0.7425,2495.54,102.19)">
	</g>
	<g transform="matrix(0.7425,0,0,0.7425,0,0)">
	</g>
	<g transform="matrix(0.7425,0,0,0.7425,0,0)">
		<line vector-effect="none" class="st0" x1="183" y1="162.2" x2="183" y2="194.2"/>
	</g>
	<g transform="matrix(0.7425,0,0,0.7425,0,0)">
		<line vector-effect="none" class="st0" x1="187.2" y1="162.2" x2="187.2" y2="194.2"/>
	</g>
	<g transform="matrix(0.7425,0,0,0.7425,0,0)">
		<line vector-effect="none" class="st0" x1="317.8" y1="162.2" x2="317.8" y2="194.2"/>
	</g>
	<g transform="matrix(0.7425,0,0,0.7425,0,0)">
		<line vector-effect="none" class="st0" x1="448" y1="162.2" x2="448" y2="194.2"/>
	</g>
	<g transform="matrix(0.7425,0,0,0.7425,0,0)">
		<line vector-effect="none" class="st0" x1="578.2" y1="162.2" x2="578.2" y2="194.2"/>
	</g>
	<g transform="matrix(0.7425,0,0,0.7425,0,0)">
		<line vector-effect="none" class="st0" x1="708.5" y1="162.2" x2="708.5" y2="194.2"/>
	</g>
	<g transform="matrix(0.7425,0,0,0.7425,0,0)">
		<line vector-effect="none" class="st0" x1="839" y1="162.2" x2="839" y2="194.2"/>
	</g>
	<g transform="matrix(0.7425,0,0,0.7425,0,0)">
		<line vector-effect="none" class="st0" x1="969.2" y1="162.2" x2="969.2" y2="194.2"/>
	</g>
	<g transform="matrix(0.7425,0,0,0.7425,0,0)">
	</g>
	<g transform="matrix(0.7425,0,0,0.7425,160.38,368.747)">
	</g>
	<g transform="matrix(0.7425,0,0,0.7425,160.38,368.747)">
		<g class="st1">
			<path d="M-152-354.5h-9.7v-0.4c1.5,0,1.6-0.3,1.6-1.7v-7.5c0-1.4-0.1-1.7-1.6-1.7v-0.4h9.6v2.7h-0.4c-0.1-1.2-0.7-1.8-1.7-1.8
				h-3.1c-0.8,0-1,0.4-1,1.2v3.3h3.1c1,0,1.7-0.7,1.7-1.7h0.4v4.2h-0.4c0-1-0.7-1.7-1.7-1.7h-3.1v3.7c0,0.8,0.2,1.2,1,1.2h3
				c1.2,0,2.3-1,2.6-2.2h0.5L-152-354.5z"/>
			<path d="M-150-367.2h0.8l-0.1,6.4c0.9-1,1.1-1.1,1.9-1.1c1.3,0,2.2,0.9,2.2,2.3c0,2-2,2.8-3.6,4.1l-1.2,1V-367.2z M-149.2-359.9
				c-0.1,1.3-0.1,2.1-0.1,2.5c0,0.6,0.1,1.2,0.2,1.5c1.7-1.3,2.5-2.6,2.5-3.7c0-0.9-0.5-1.6-1.3-1.6
				C-148.6-361.1-148.9-360.4-149.2-359.9z"/>
			<path d="M-141.6-359.1h-0.7l2.4-7.4h-2.5c-0.7,0-1.2,0.4-1.5,1.1l-0.2-0.1l0.7-2h4.6L-141.6-359.1z"/>
		</g>
	</g>
	<g transform="matrix(0.7425,0,0,0.7425,160.38,368.747)">
	</g>
	<g transform="matrix(0.7425,0,0,0.7425,0,0)">
	</g>
	<g transform="matrix(0.7425,0,0,0.7425,564.3,368.747)">
	</g>
	<g transform="matrix(0.7425,0,0,0.7425,564.3,368.747)">
		<g class="st1">
			<path d="M-561.9-354.5v-0.4c0.8,0,1.2-0.2,1.2-0.7c0-0.5-0.5-1.7-0.9-2.7h-4.7c-0.5,1-1,2.3-1,2.7c0,0.4,0.4,0.7,1.2,0.7v0.4
				h-3.6v-0.4c0.7-0.1,1.2-0.4,1.6-1.2l4.4-10.4h0.5l4.1,9.8c0.7,1.6,0.9,1.7,1.7,1.8v0.4H-561.9z M-565.9-359.1h4l-2.1-4.7
				L-565.9-359.1z"/>
			<path d="M-548.3-354.5v-0.3c0.7,0,1-0.2,1-1.2v-3.7c0-0.9-0.4-1.3-1.2-1.3c-0.6,0-1.3,0.3-1.8,1c0.1,0.1,0.1,0.5,0.1,1.1v1.6
				c0,0.8,0,1.2,0,1.2c0,1.1,0.2,1.3,1,1.3v0.3h-3.4v-0.3c0.7,0,1-0.2,1-1.2v-3.7c0-0.9-0.4-1.3-1.1-1.3c-0.6,0-1.2,0.3-1.8,1v4.1
				c0,0.9,0.3,1.1,1,1.1v0.3h-3.4v-0.3c0.9,0,1-0.3,1-1.3v-4c0-0.4-0.1-0.6-0.3-0.6h-0.8v-0.3l2.4-0.8v1.3c0.7-0.9,1.5-1.3,2.5-1.3
				c0.9,0,1.4,0.4,1.6,1.3c0.8-0.9,1.7-1.3,2.7-1.3c0.5,0,0.9,0.1,1.2,0.4c0.3,0.3,0.6,1.3,0.6,1.8v3.6c0,1.1,0.2,1.3,1,1.3v0.3
				H-548.3z"/>
			<path d="M-542-359.1h-0.7l2.4-7.4h-2.5c-0.7,0-1.2,0.4-1.5,1.1l-0.2-0.1l0.7-2h4.6L-542-359.1z"/>
		</g>
	</g>
	<g transform="matrix(0.7425,0,0,0.7425,564.3,368.747)">
	</g>
	<g transform="matrix(0.7425,0,0,0.7425,0,0)">
	</g>
	<g transform="matrix(0.7425,0,0,0.7425,970.447,368.747)">
	</g>
	<g transform="matrix(0.7425,0,0,0.7425,970.447,368.747)">
		<g class="st1">
			<path d="M-975-354.5h-5v-0.4c1.5,0,1.6-0.3,1.6-1.7v-7.5c0-1.4-0.1-1.7-1.6-1.7v-0.4h5.6c0.8,0,1.7,0.2,2.6,0.5
				c2.5,0.9,3.7,2.7,3.7,5.4C-968-356.6-970.7-354.5-975-354.5z M-975.1-365.6c-1.4,0-1.4,0.2-1.4,1.6v7.1c0,1.4,0,1.6,1.5,1.6
				c3.3,0,5.1-1.8,5.1-5C-970-363.5-971.8-365.6-975.1-365.6z"/>
			<path d="M-964.8-359.1h-0.7l2.4-7.4h-2.5c-0.7,0-1.2,0.4-1.5,1.1l-0.2-0.1l0.7-2h4.6L-964.8-359.1z"/>
		</g>
	</g>
	<g transform="matrix(0.7425,0,0,0.7425,970.447,368.747)">
	</g>
	<g transform="matrix(0.7425,0,0,0.7425,0,0)">
	</g>
	<g transform="matrix(0.7425,0,0,0.7425,1341.7,368.747)">
	</g>
	<g transform="matrix(0.7425,0,0,0.7425,1341.7,368.747)">
		<g class="st1">
			<path d="M-1344.7-357.8c0,1.9-1.9,3.3-3.7,3.3h-6.5v-0.4c1.5,0,1.6-0.3,1.6-1.7v-7.5c0-1.4-0.1-1.8-1.6-1.8v-0.4h5.9
				c2,0,3.8,1.3,3.8,3.1c0,1.3-0.9,2.2-2.3,2.6C-1345.8-360.2-1344.7-359-1344.7-357.8z M-1347-363.1c0-1.3-1-2.3-2.3-2.3h-1.2
				c-0.9,0-1.1,0.3-1.1,1.3v3.2h2.3C-1347.9-360.9-1347-361.8-1347-363.1z M-1351.4-355.5c0.2,0.2,1.2,0.3,1.9,0.3
				c2.3,0,2.8-1.4,2.8-2.6c0-1.4-1.2-2.3-2.6-2.3h-2.3v4C-1351.5-355.8-1351.5-355.5-1351.4-355.5z"/>
			<path d="M-1335.6-354.5v-0.3c0.7,0,1-0.2,1-1.2v-3.7c0-0.9-0.4-1.3-1.2-1.3c-0.6,0-1.3,0.3-1.8,1c0.1,0.1,0.1,0.5,0.1,1.1v1.6
				c0,0.8,0,1.2,0,1.2c0,1.1,0.2,1.3,1,1.3v0.3h-3.4v-0.3c0.7,0,1-0.2,1-1.2v-3.7c0-0.9-0.4-1.3-1.1-1.3c-0.6,0-1.2,0.3-1.8,1v4.1
				c0,0.9,0.3,1.1,1,1.1v0.3h-3.4v-0.3c0.9,0,1-0.3,1-1.3v-4c0-0.4-0.1-0.6-0.3-0.6h-0.8v-0.3l2.4-0.8v1.3c0.7-0.9,1.5-1.3,2.5-1.3
				c0.9,0,1.4,0.4,1.6,1.3c0.8-0.9,1.7-1.3,2.7-1.3c0.5,0,0.9,0.1,1.2,0.4c0.3,0.3,0.6,1.3,0.6,1.8v3.6c0,1.1,0.2,1.3,1,1.3v0.3
				H-1335.6z"/>
			<path d="M-1329.2-359.1h-0.7l2.4-7.4h-2.5c-0.7,0-1.2,0.4-1.5,1.1l-0.2-0.1l0.7-2h4.6L-1329.2-359.1z"/>
		</g>
	</g>
	<g transform="matrix(0.7425,0,0,0.7425,1341.7,368.747)">
	</g>
	<g transform="matrix(0.7425,0,0,0.7425,0,0)">
	</g>
	<g transform="matrix(0.7425,0,0,0.7425,1727.8,368.747)">
	</g>
	<g transform="matrix(0.7425,0,0,0.7425,1727.8,368.747)">
		<g class="st1">
			<path d="M-1735.3-354.5h-9.7v-0.4c1.5,0,1.6-0.3,1.6-1.7v-7.5c0-1.4-0.1-1.7-1.6-1.7v-0.4h9.6v2.7h-0.4c-0.1-1.2-0.7-1.8-1.7-1.8
				h-3.1c-0.8,0-1,0.4-1,1.2v3.3h3.1c1,0,1.7-0.7,1.7-1.7h0.4v4.2h-0.4c0-1-0.7-1.7-1.7-1.7h-3.1v3.7c0,0.8,0.2,1.2,1,1.2h3
				c1.2,0,2.3-1,2.6-2.2h0.5L-1735.3-354.5z"/>
			<path d="M-1725.3-354.5v-0.3c0.7,0,1-0.2,1-1.2v-3.7c0-0.9-0.4-1.3-1.2-1.3c-0.6,0-1.3,0.3-1.8,1c0.1,0.1,0.1,0.5,0.1,1.1v1.6
				c0,0.8,0,1.2,0,1.2c0,1.1,0.2,1.3,1,1.3v0.3h-3.4v-0.3c0.7,0,1-0.2,1-1.2v-3.7c0-0.9-0.4-1.3-1.1-1.3c-0.6,0-1.2,0.3-1.8,1v4.1
				c0,0.9,0.3,1.1,1,1.1v0.3h-3.4v-0.3c0.9,0,1-0.3,1-1.3v-4c0-0.4-0.1-0.6-0.3-0.6h-0.8v-0.3l2.4-0.8v1.3c0.7-0.9,1.5-1.3,2.5-1.3
				c0.9,0,1.4,0.4,1.6,1.3c0.8-0.9,1.7-1.3,2.7-1.3c0.5,0,0.9,0.1,1.2,0.4c0.3,0.3,0.6,1.3,0.6,1.8v3.6c0,1.1,0.2,1.3,1,1.3v0.3
				H-1725.3z"/>
			<path d="M-1719-359.1h-0.7l2.4-7.4h-2.5c-0.7,0-1.2,0.4-1.5,1.1l-0.2-0.1l0.7-2h4.6L-1719-359.1z"/>
		</g>
	</g>
	<g transform="matrix(0.7425,0,0,0.7425,1727.8,368.747)">
	</g>
	<g transform="matrix(0.7425,0,0,0.7425,0,0)">
	</g>
	<g transform="matrix(0.7425,0,0,0.7425,2130.23,368.747)">
	</g>
	<g transform="matrix(0.7425,0,0,0.7425,2130.23,368.747)">
		<g class="st1">
			<path d="M-2143.6-354.5v-0.4c0.8,0,1.2-0.2,1.2-0.7c0-0.5-0.5-1.7-0.9-2.7h-4.7c-0.5,1-1,2.3-1,2.7c0,0.4,0.4,0.7,1.2,0.7v0.4
				h-3.6v-0.4c0.7-0.1,1.2-0.4,1.6-1.2l4.4-10.4h0.5l4.1,9.8c0.7,1.6,0.9,1.7,1.7,1.8v0.4H-2143.6z M-2147.7-359.1h4l-2.1-4.7
				L-2147.7-359.1z"/>
			<path d="M-2136-359.1h-0.7l2.4-7.4h-2.5c-0.7,0-1.2,0.4-1.5,1.1l-0.2-0.1l0.7-2h4.6L-2136-359.1z"/>
		</g>
	</g>
	<g transform="matrix(0.7425,0,0,0.7425,2130.23,368.747)">
	</g>
	<g transform="matrix(0.7425,0,0,0.7425,0,0)">
	</g>
	<g transform="matrix(0.7425,0,0,0.7425,0,0)">
		<path vector-effect="none" class="st2" d="M729.5,156.2c6.5-13.8,122-13.8,128.5,0"/>
	</g>
	<g transform="matrix(0.7425,0,0,0.7425,0,0)">
		<path vector-effect="none" class="st3" d="M729.5,156.2c6.5-15,122-15,128.5,0C851.5,143.7,736,143.7,729.5,156.2"/>
	</g>
	<g transform="matrix(0.7425,0,0,0.7425,0,0)">
		<line vector-effect="none" class="st0" x1="215.8" y1="251.9" x2="215.8" y2="283.9"/>
	</g>
	<g transform="matrix(0.7425,0,0,0.7425,0,0)">
		<line vector-effect="none" class="st0" x1="460" y1="251.9" x2="460" y2="283.9"/>
	</g>
	<g transform="matrix(0.7425,0,0,0.7425,0,0)">
		<line vector-effect="none" class="st0" x1="464.2" y1="251.9" x2="464.2" y2="283.9"/>
	</g>
	<g transform="matrix(0.7425,0,0,0.7425,0,0)">
		<line vector-effect="none" class="st0" x1="632.5" y1="251.9" x2="632.5" y2="283.9"/>
	</g>
	<g transform="matrix(0.7425,0,0,0.7425,0,0)">
		<line vector-effect="none" class="st0" x1="801" y1="251.9" x2="801" y2="283.9"/>
	</g>
	<g transform="matrix(0.7425,0,0,0.7425,0,0)">
		<line vector-effect="none" class="st0" x1="969.2" y1="251.9" x2="969.2" y2="283.9"/>
	</g>
	<g transform="matrix(0.7425,0,0,0.7425,0,0)">
	</g>
	<g transform="matrix(0.7425,0,0,0.7425,149.242,635.305)">
	</g>
	<g transform="matrix(0.7425,0,0,0.7425,149.242,635.305)">
		<g class="st1">
			<path d="M-142.6-623.7v-0.4c0.8,0,1.2-0.2,1.2-0.7c0-0.5-0.5-1.7-0.9-2.7h-4.7c-0.5,1-1,2.3-1,2.7c0,0.4,0.4,0.7,1.2,0.7v0.4
				h-3.6v-0.4c0.7-0.1,1.2-0.4,1.6-1.2l4.4-10.4h0.5l4.1,9.8c0.7,1.6,0.9,1.7,1.7,1.8v0.4H-142.6z M-146.7-628.4h4l-2.1-4.7
				L-146.7-628.4z"/>
			<path d="M-129.1-623.7v-0.3c0.7,0,1-0.2,1-1.2v-3.7c0-0.9-0.4-1.3-1.2-1.3c-0.6,0-1.3,0.3-1.8,1c0.1,0.1,0.1,0.5,0.1,1.1v1.6
				c0,0.8,0,1.2,0,1.2c0,1.1,0.2,1.3,1,1.3v0.3h-3.4v-0.3c0.7,0,1-0.2,1-1.2v-3.7c0-0.9-0.4-1.3-1.1-1.3c-0.6,0-1.2,0.3-1.8,1v4.1
				c0,0.9,0.3,1.1,1,1.1v0.3h-3.4v-0.3c0.9,0,1-0.3,1-1.3v-4c0-0.4-0.1-0.6-0.3-0.6h-0.8v-0.3l2.4-0.8v1.3c0.7-0.9,1.5-1.3,2.5-1.3
				c0.9,0,1.4,0.4,1.6,1.3c0.8-0.9,1.7-1.3,2.7-1.3c0.5,0,0.9,0.1,1.2,0.4c0.3,0.3,0.6,1.3,0.6,1.8v3.6c0,1.1,0.2,1.3,1,1.3v0.3
				H-129.1z"/>
			<path d="M-122.7-628.3h-0.7l2.4-7.4h-2.5c-0.7,0-1.2,0.4-1.5,1.1l-0.2-0.1l0.7-2h4.6L-122.7-628.3z"/>
		</g>
	</g>
	<g transform="matrix(0.7425,0,0,0.7425,149.242,635.305)">
	</g>
	<g transform="matrix(0.7425,0,0,0.7425,0,0)">
	</g>
	<g transform="matrix(0.7425,0,0,0.7425,667.507,635.305)">
	</g>
	<g transform="matrix(0.7425,0,0,0.7425,667.507,635.305)">
		<g class="st1">
			<path d="M-669-623.7h-5v-0.4c1.5,0,1.6-0.3,1.6-1.7v-7.5c0-1.4-0.1-1.7-1.6-1.7v-0.4h5.6c0.8,0,1.7,0.2,2.6,0.5
				c2.5,0.9,3.7,2.7,3.7,5.4C-662-625.9-664.7-623.7-669-623.7z M-669.1-634.8c-1.4,0-1.4,0.2-1.4,1.6v7.1c0,1.4,0,1.6,1.5,1.6
				c3.3,0,5.1-1.8,5.1-5C-664-632.8-665.8-634.8-669.1-634.8z"/>
			<path d="M-658.8-628.3h-0.7l2.4-7.4h-2.5c-0.7,0-1.2,0.4-1.5,1.1l-0.2-0.1l0.7-2h4.6L-658.8-628.3z"/>
		</g>
	</g>
	<g transform="matrix(0.7425,0,0,0.7425,667.507,635.305)">
	</g>
	<g transform="matrix(0.7425,0,0,0.7425,0,0)">
	</g>
	<g transform="matrix(0.7425,0,0,0.7425,994.95,635.305)">
	</g>
	<g transform="matrix(0.7425,0,0,0.7425,994.95,635.305)">
		<g class="st1">
			<path d="M-999.7-623.7h-5v-0.4c1.5,0,1.6-0.3,1.6-1.7v-7.5c0-1.4-0.1-1.7-1.6-1.7v-0.4h5.6c0.8,0,1.7,0.2,2.6,0.5
				c2.5,0.9,3.7,2.7,3.7,5.4C-992.8-625.9-995.4-623.7-999.7-623.7z M-999.9-634.8c-1.4,0-1.4,0.2-1.4,1.6v7.1c0,1.4,0,1.6,1.5,1.6
				c3.3,0,5.1-1.8,5.1-5C-994.7-632.8-996.6-634.8-999.9-634.8z"/>
			<path d="M-991.6-636.4h0.8l-0.1,6.4c0.9-1,1.1-1.1,1.9-1.1c1.3,0,2.2,0.9,2.2,2.3c0,2-2,2.8-3.6,4.1l-1.2,1V-636.4z
				 M-990.8-629.1c-0.1,1.3-0.1,2.1-0.1,2.5c0,0.6,0.1,1.2,0.2,1.5c1.7-1.3,2.5-2.6,2.5-3.7c0-0.9-0.5-1.6-1.3-1.6
				C-990.2-630.4-990.5-629.7-990.8-629.1z"/>
			<path d="M-983.2-628.3h-0.7l2.4-7.4h-2.5c-0.7,0-1.2,0.4-1.5,1.1l-0.2-0.1l0.7-2h4.6L-983.2-628.3z"/>
		</g>
	</g>
	<g transform="matrix(0.7425,0,0,0.7425,994.95,635.305)">
	</g>
	<g transform="matrix(0.7425,0,0,0.7425,0,0)">
	</g>
	<g transform="matrix(0.7425,0,0,0.7425,1371.4,635.305)">
	</g>
	<g transform="matrix(0.7425,0,0,0.7425,1371.4,635.305)">
		<g class="st1">
			<path d="M-1378.7-623.5c-3.5,0-5.9-2.4-5.9-5.9c0-3.4,2.5-6.4,6-6.4c1.2,0,3.2,0.7,3.4,0.7c0.3,0,0.5-0.2,0.7-0.7h0.6v4.2h-0.5
				c-0.4-2.1-1.8-3.4-3.9-3.4c-2.7,0-4.3,2.2-4.3,5.4c0,3.2,1.7,5.3,4.4,5.3c1.6,0,2.9-0.6,4-1.9l0.3,0.5
				C-1375.1-624.2-1376.7-623.5-1378.7-623.5z"/>
			<path d="M-1364.1-628.4v-0.3c0.7,0,1-0.2,1-1.2v-3.7c0-0.9-0.4-1.3-1.2-1.3c-0.6,0-1.3,0.3-1.8,1c0.1,0.1,0.1,0.5,0.1,1.1v1.6
				c0,0.8,0,1.2,0,1.2c0,1.1,0.2,1.3,1,1.3v0.3h-3.4v-0.3c0.7,0,1-0.2,1-1.2v-3.7c0-0.9-0.4-1.3-1.1-1.3c-0.6,0-1.2,0.3-1.8,1v4.1
				c0,0.9,0.3,1.1,1,1.1v0.3h-3.4v-0.3c0.9,0,1-0.3,1-1.3v-4c0-0.4-0.1-0.6-0.3-0.6h-0.8v-0.3l2.4-0.8v1.3c0.7-0.9,1.5-1.3,2.5-1.3
				c0.9,0,1.4,0.4,1.6,1.3c0.8-0.9,1.7-1.3,2.7-1.3c0.5,0,0.9,0.1,1.2,0.4c0.3,0.3,0.6,1.3,0.6,1.8v3.5c0,1.1,0.2,1.3,1,1.3v0.3
				H-1364.1z"/>
			<path d="M-1353.8-629.1c-0.5,0.6-1,0.9-1.5,0.9c-0.6,0-0.9-0.4-1-1.2c-1,0.8-1.8,1.2-2.5,1.2c-0.9,0-1.5-0.9-1.5-1.7
				c0-1.4,0.9-2.2,3.9-3.1v-1c0-0.9-0.4-1.3-1.2-1.3c-0.6,0-1.1,0.3-1.1,0.8c0,0.1,0.1,0.5,0.1,0.6c0,0.4-0.4,0.7-0.7,0.7
				c-0.4,0-0.6-0.2-0.6-0.7c0-1,1.4-1.8,2.6-1.8c1.4,0,2.3,0.8,2.3,2.3v3.6c0,0.4,0.1,0.6,0.4,0.6c0.2,0,0.5-0.1,0.8-0.4V-629.1z
				 M-1356.3-632.5c-0.9,0.3-1.5,0.5-1.7,0.6c-0.5,0.3-0.8,0.8-0.8,1.5c0,0.7,0.4,1.3,1,1.3c0.4,0,0.9-0.2,1.5-0.6V-632.5z"/>
			<path d="M-1353-634.9l2.6-0.9v6.8c0,2.7-0.9,4-2.6,4c-0.8,0-1.5-0.3-1.5-1c0-0.4,0.2-0.6,0.5-0.6c0.4,0,1.2,1,1.6,1
				c0.4,0,0.6-0.6,0.6-1.8v-6.2c0-0.6-0.2-1-0.5-1c-0.1,0-0.4,0-0.7,0.1V-634.9z M-1351.1-637.8c-0.4,0-0.8-0.4-0.8-0.8
				c0-0.4,0.4-0.8,0.8-0.8s0.8,0.4,0.8,0.8C-1350.3-638.2-1350.7-637.8-1351.1-637.8z"/>
			<path d="M-1346.8-628.3h-0.7l2.4-7.4h-2.5c-0.7,0-1.2,0.4-1.5,1.1l-0.2-0.1l0.7-2h4.6L-1346.8-628.3z"/>
		</g>
	</g>
	<g transform="matrix(0.7425,0,0,0.7425,1371.4,635.305)">
	</g>
	<g transform="matrix(0.7425,0,0,0.7425,0,0)">
	</g>
	<g transform="matrix(0.7425,0,0,0.7425,0,0)">
		<path vector-effect="none" class="st2" d="M485.2,277.9c8.2,15.8,158,15.8,166.2,0"/>
	</g>
	<g transform="matrix(0.7425,0,0,0.7425,0,0)">
		<path vector-effect="none" class="st3" d="M485.2,277.9c8.2,14.5,158,14.5,166.2,0C643.2,294.9,493.5,294.9,485.2,277.9"/>
	</g>
	<g transform="matrix(0.7425,0,0,0.7425,2387.88,635.305)">
	</g>
	<g transform="matrix(0.7425,0,0,0.7425,2387.88,635.305)">
		<g class="st1">
			<path d="M-2405.5-623.5c-3.5,0-5.9-2.4-5.9-5.9c0-3.4,2.5-6.4,6-6.4c1.2,0,3.2,0.7,3.4,0.7c0.3,0,0.5-0.2,0.7-0.7h0.6v4.2h-0.5
				c-0.4-2.1-1.8-3.4-3.9-3.4c-2.7,0-4.3,2.2-4.3,5.4c0,3.2,1.7,5.3,4.4,5.3c1.6,0,2.9-0.6,4-1.9l0.3,0.5
				C-2401.8-624.2-2403.4-623.5-2405.5-623.5z"/>
			<path d="M-2390.9-623.7v-0.3c0.7,0,1-0.2,1-1.2v-3.7c0-0.9-0.4-1.3-1.2-1.3c-0.6,0-1.3,0.3-1.8,1c0.1,0.1,0.1,0.5,0.1,1.1v1.6
				c0,0.8,0,1.2,0,1.2c0,1.1,0.2,1.3,1,1.3v0.3h-3.4v-0.3c0.7,0,1-0.2,1-1.2v-3.7c0-0.9-0.4-1.3-1.1-1.3c-0.6,0-1.2,0.3-1.8,1v4.1
				c0,0.9,0.3,1.1,1,1.1v0.3h-3.4v-0.3c0.9,0,1-0.3,1-1.3v-4c0-0.4-0.1-0.6-0.3-0.6h-0.8v-0.3l2.4-0.8v1.3c0.7-0.9,1.5-1.3,2.5-1.3
				c0.9,0,1.4,0.4,1.6,1.3c0.8-0.9,1.7-1.3,2.7-1.3c0.5,0,0.9,0.1,1.2,0.4c0.3,0.3,0.6,1.3,0.6,1.8v3.6c0,1.1,0.2,1.3,1,1.3v0.3
				H-2390.9z"/>
			<path d="M-2384.5-628.3h-0.7l2.4-7.4h-2.5c-0.7,0-1.2,0.4-1.5,1.1l-0.2-0.1l0.7-2h4.6L-2384.5-628.3z"/>
		</g>
	</g>
	<g transform="matrix(0.7425,0,0,0.7425,2387.88,635.305)">
	</g>
	<g transform="matrix(0.7425,0,0,0.7425,0,0)">
	</g>
	<g transform="matrix(0.7425,0,0,0.7425,0,0)">
		<line vector-effect="none" class="st0" x1="230" y1="341.7" x2="230" y2="373.7"/>
	</g>
	<g transform="matrix(0.7425,0,0,0.7425,0,0)">
		<line vector-effect="none" class="st0" x1="412.5" y1="341.7" x2="412.5" y2="373.7"/>
	</g>
	<g transform="matrix(0.7425,0,0,0.7425,0,0)">
		<line vector-effect="none" class="st0" x1="594.8" y1="341.7" x2="594.8" y2="373.7"/>
	</g>
	<g transform="matrix(0.7425,0,0,0.7425,0,0)">
		<line vector-effect="none" class="st0" x1="777.2" y1="341.7" x2="777.2" y2="373.7"/>
	</g>
	<g transform="matrix(0.7425,0,0,0.7425,0,0)">
		<line vector-effect="none" class="st0" x1="965" y1="341.7" x2="965" y2="373.7"/>
	</g>
	<g transform="matrix(0.7425,0,0,0.7425,0,0)">
		<line vector-effect="none" class="st0" x1="969.2" y1="341.7" x2="969.2" y2="373.7"/>
	</g>
	<g transform="matrix(0.7425,0,0,0.7425,0,0)">
	</g>
	<g transform="matrix(0.7425,0,0,0.7425,170.775,901.862)">
	</g>
	<g transform="matrix(0.7425,0,0,0.7425,170.775,901.862)">
		<g class="st1">
			<path d="M-168.8-899.5h2.2c1.1,0,1.4-0.5,1.5-1.6h0.3v4h-0.3c0-1.2-0.4-1.7-1.5-1.7h-2.2v3.7c0,1.5,0.2,1.8,1.7,1.8v0.3h-5v-0.3
				c1.5,0,1.7-0.3,1.7-1.8v-7.6c0-1.5-0.2-1.8-1.7-1.8v-0.3h8.9v2.6h-0.3c-0.4-1.6-1-2-2.6-2h-2.6V-899.5z"/>
			<path d="M-159.4-897.6h-0.7l2.4-7.4h-2.5c-0.7,0-1.2,0.4-1.5,1.1l-0.2-0.1l0.7-2h4.6L-159.4-897.6z"/>
		</g>
	</g>
	<g transform="matrix(0.7425,0,0,0.7425,170.775,901.862)">
	</g>
	<g transform="matrix(0.7425,0,0,0.7425,0,0)">
	</g>
	<g transform="matrix(0.7425,0,0,0.7425,674.932,901.862)">
	</g>
	<g transform="matrix(0.7425,0,0,0.7425,674.932,901.862)">
		<g class="st1">
			<path d="M-670.5-901.3h-0.3c-0.7-2.1-2-3.1-3.9-3.1c-2.7,0-4.4,2.2-4.4,5.4c0,3.2,1.9,5.8,4.5,5.8c0.9,0,1.7-0.2,2.4-0.6v-3.4
				c0-1.3-0.2-1.7-1.5-1.7v-0.4h4.5v0.4c-1.2,0-1.3,0.5-1.3,1.7v3.6c-1.3,0.7-2.6,1-4.1,1c-3.7,0-6.5-2.3-6.5-5.9
				c0-3.4,2.6-6.4,6.2-6.4c0.7,0,1.6,0.2,2.7,0.6c0.3,0.1,0.6,0.2,0.6,0.2c0.3,0,0.4-0.2,0.4-0.7h0.3L-670.5-901.3z"/>
			<path d="M-660.1-897.6v-0.3c0.7,0,1-0.2,1-1.2v-3.7c0-0.9-0.4-1.3-1.2-1.3c-0.6,0-1.3,0.3-1.8,1c0.1,0.1,0.1,0.5,0.1,1.1v1.6
				c0,0.8,0,1.2,0,1.2c0,1.1,0.2,1.3,1,1.3v0.3h-3.4v-0.3c0.7,0,1-0.2,1-1.2v-3.7c0-0.9-0.4-1.3-1.1-1.3c-0.6,0-1.2,0.3-1.8,1v4.1
				c0,0.9,0.3,1.1,1,1.1v0.3h-3.4v-0.3c0.9,0,1-0.3,1-1.3v-4c0-0.4-0.1-0.6-0.3-0.6h-0.8v-0.3l2.4-0.8v1.3c0.7-0.9,1.5-1.3,2.5-1.3
				c0.9,0,1.4,0.4,1.6,1.3c0.8-0.9,1.7-1.3,2.7-1.3c0.5,0,0.9,0.1,1.2,0.4c0.3,0.3,0.6,1.3,0.6,1.8v3.5c0,1.1,0.2,1.3,1,1.3v0.3
				H-660.1z"/>
			<path d="M-649.8-898.3c-0.5,0.6-1,0.9-1.5,0.9c-0.6,0-0.9-0.4-1-1.2c-1,0.8-1.8,1.2-2.5,1.2c-0.9,0-1.5-0.9-1.5-1.7
				c0-1.4,0.9-2.2,3.9-3.1v-1c0-0.9-0.4-1.3-1.2-1.3c-0.6,0-1.1,0.3-1.1,0.8c0,0.1,0.1,0.5,0.1,0.6c0,0.4-0.4,0.7-0.7,0.7
				c-0.4,0-0.6-0.2-0.6-0.7c0-1,1.4-1.8,2.6-1.8c1.4,0,2.3,0.8,2.3,2.3v3.6c0,0.4,0.1,0.6,0.4,0.6c0.2,0,0.5-0.1,0.8-0.4V-898.3z
				 M-652.3-901.8c-0.9,0.3-1.5,0.5-1.7,0.6c-0.6,0.3-0.8,0.8-0.8,1.5c0,0.7,0.4,1.3,1,1.3c0.4,0,0.9-0.2,1.5-0.6V-901.8z"/>
			<path d="M-649-904.2l2.6-0.9v6.8c0,2.7-0.9,4-2.6,4c-0.8,0-1.5-0.3-1.5-1c0-0.4,0.2-0.6,0.6-0.6c0.4,0,1.2,1,1.6,1
				c0.4,0,0.6-0.6,0.6-1.8v-6.2c0-0.6-0.2-1-0.5-1c-0.1,0-0.4,0-0.7,0.1V-904.2z M-647.1-907.1c-0.4,0-0.8-0.4-0.8-0.8
				c0-0.4,0.4-0.8,0.8-0.8s0.8,0.4,0.8,0.8C-646.3-907.5-646.7-907.1-647.1-907.1z"/>
			<path d="M-642.8-897.6h-0.7l2.4-7.4h-2.5c-0.7,0-1.2,0.4-1.5,1.1l-0.2-0.1l0.7-2h4.6L-642.8-897.6z"/>
		</g>
	</g>
	<g transform="matrix(0.7425,0,0,0.7425,674.932,901.862)">
	</g>
	<g transform="matrix(0.7425,0,0,0.7425,0,0)">
	</g>
	<g transform="matrix(0.7425,0,0,0.7425,0,0)">
		<path vector-effect="none" class="st2" d="M251,339.7c9-16.5,171.5-16.5,180.5,0"/>
	</g>
	<g transform="matrix(0.7425,0,0,0.7425,0,0)">
		<path vector-effect="none" class="st3" d="M251,339.7c9-17.8,171.5-17.8,180.5,0C422.5,324.4,260,324.4,251,339.7"/>
	</g>
	<g transform="matrix(0.7425,0,0,0.7425,1767.89,901.862)">
	</g>
	<g transform="matrix(0.7425,0,0,0.7425,1767.89,901.862)">
		<g class="st1">
			<path d="M-1775.2-896.2c0,1.9-1.9,3.3-3.7,3.3h-6.5v-0.4c1.5,0,1.6-0.3,1.6-1.7v-7.5c0-1.4-0.1-1.8-1.6-1.8v-0.4h5.9
				c2,0,3.8,1.3,3.8,3.1c0,1.3-0.9,2.2-2.3,2.6C-1776.3-898.7-1775.2-897.5-1775.2-896.2z M-1777.5-901.6c0-1.3-1-2.3-2.3-2.3h-1.2
				c-0.9,0-1.1,0.3-1.1,1.3v3.2h2.3C-1778.4-899.4-1777.5-900.3-1777.5-901.6z M-1781.9-894c0.2,0.2,1.2,0.3,1.9,0.3
				c2.3,0,2.8-1.4,2.8-2.6c0-1.4-1.2-2.3-2.6-2.3h-2.3v4C-1782-894.3-1782-894-1781.9-894z"/>
			<path d="M-1774-905.7h0.8l-0.1,6.4c0.9-1,1.1-1.1,1.9-1.1c1.3,0,2.2,0.9,2.2,2.3c0,2-2,2.8-3.6,4.1l-1.2,1V-905.7z
				 M-1773.2-898.4c-0.1,1.3-0.1,2.1-0.1,2.5c0,0.6,0.1,1.2,0.2,1.5c1.7-1.3,2.5-2.6,2.5-3.7c0-0.9-0.5-1.6-1.3-1.6
				C-1772.6-899.6-1772.9-898.9-1773.2-898.4z"/>
			<path d="M-1759.7-893v-0.3c0.7,0,1-0.2,1-1.2v-3.7c0-0.9-0.4-1.3-1.2-1.3c-0.6,0-1.3,0.3-1.8,1c0.1,0.1,0.1,0.5,0.1,1.1v1.6
				c0,0.8,0,1.2,0,1.2c0,1.1,0.2,1.3,1,1.3v0.3h-3.4v-0.3c0.7,0,1-0.2,1-1.2v-3.7c0-0.9-0.4-1.3-1.1-1.3c-0.6,0-1.2,0.3-1.8,1v4.1
				c0,0.9,0.3,1.1,1,1.1v0.3h-3.4v-0.3c0.9,0,1-0.3,1-1.3v-4c0-0.4-0.1-0.6-0.3-0.6h-0.8v-0.3l2.4-0.8v1.3c0.7-0.9,1.5-1.3,2.5-1.3
				c0.9,0,1.4,0.4,1.6,1.3c0.8-0.9,1.7-1.3,2.7-1.3c0.5,0,0.9,0.1,1.2,0.4c0.3,0.3,0.6,1.3,0.6,1.8v3.6c0,1.1,0.2,1.3,1,1.3v0.3
				H-1759.7z"/>
			<path d="M-1753.4-897.6h-0.7l2.4-7.4h-2.5c-0.7,0-1.2,0.4-1.5,1.1l-0.2-0.1l0.7-2h4.6L-1753.4-897.6z"/>
		</g>
	</g>
	<g transform="matrix(0.7425,0,0,0.7425,1767.89,901.862)">
	</g>
	<g transform="matrix(0.7425,0,0,0.7425,0,0)">
	</g>
	<g transform="matrix(0.7425,0,0,0.7425,2327.74,901.862)">
	</g>
	<g transform="matrix(0.7425,0,0,0.7425,2327.74,901.862)">
		<g class="st1">
			<path d="M-2341.3-893h-9.7v-0.4c1.5,0,1.6-0.3,1.6-1.7v-7.5c0-1.4-0.1-1.7-1.6-1.7v-0.4h9.6v2.7h-0.4c-0.1-1.2-0.7-1.8-1.7-1.8
				h-3.1c-0.8,0-1,0.4-1,1.2v3.3h3.1c1,0,1.7-0.7,1.7-1.7h0.4v4.2h-0.4c0-1-0.7-1.7-1.7-1.7h-3.1v3.7c0,0.8,0.2,1.2,1,1.2h3
				c1.2,0,2.3-1,2.6-2.2h0.5L-2341.3-893z"/>
			<path d="M-2339.2-905.7h0.8l-0.1,6.4c0.9-1,1.1-1.1,1.9-1.1c1.3,0,2.2,0.9,2.2,2.3c0,2-2,2.8-3.6,4.1l-1.2,1V-905.7z
				 M-2338.4-898.4c-0.1,1.3-0.1,2.1-0.1,2.5c0,0.6,0.1,1.2,0.2,1.5c1.7-1.3,2.5-2.6,2.5-3.7c0-0.9-0.5-1.6-1.3-1.6
				C-2337.8-899.6-2338.1-898.9-2338.4-898.4z"/>
			<path d="M-2330.9-897.6h-0.7l2.4-7.4h-2.5c-0.7,0-1.2,0.4-1.5,1.1l-0.2-0.1l0.7-2h4.6L-2330.9-897.6z"/>
		</g>
	</g>
	<g transform="matrix(0.7425,0,0,0.7425,2327.74,901.862)">
	</g>
	<g transform="matrix(0.7425,0,0,0.7425,0,0)">
	</g>
	<g transform="matrix(0.7425,0,0,0.7425,0,0)">
		<line vector-effect="none" class="st0" x1="278" y1="431.4" x2="278" y2="463.4"/>
	</g>
	<g transform="matrix(0.7425,0,0,0.7425,0,0)">
		<line vector-effect="none" class="st0" x1="508.5" y1="431.4" x2="508.5" y2="463.4"/>
	</g>
	<g transform="matrix(0.7425,0,0,0.7425,0,0)">
		<line vector-effect="none" class="st0" x1="738.8" y1="431.4" x2="738.8" y2="463.4"/>
	</g>
	<g transform="matrix(0.7425,0,0,0.7425,0,0)">
		<line vector-effect="none" class="st0" x1="969.2" y1="431.4" x2="969.2" y2="463.4"/>
	</g>
	<g transform="matrix(0.7425,0,0,0.7425,0,0)">
	</g>
	<g transform="matrix(0.7425,0,0,0.7425,149.242,1168.42)">
	</g>
	<g transform="matrix(0.7425,0,0,0.7425,149.242,1168.42)">
		<g class="st1">
			<path d="M-142.6-1162.2v-0.4c0.8,0,1.2-0.2,1.2-0.7c0-0.5-0.5-1.7-0.9-2.7h-4.7c-0.5,1-1,2.3-1,2.7c0,0.4,0.4,0.7,1.2,0.7v0.4
				h-3.6v-0.4c0.7-0.1,1.2-0.4,1.6-1.2l4.4-10.4h0.5l4.1,9.8c0.7,1.6,0.9,1.7,1.7,1.8v0.4H-142.6z M-146.7-1166.8h4l-2.1-4.7
				L-146.7-1166.8z"/>
			<path d="M-129.1-1162.2v-0.3c0.7,0,1-0.2,1-1.2v-3.7c0-0.9-0.4-1.3-1.2-1.3c-0.6,0-1.3,0.3-1.8,1c0.1,0.1,0.1,0.5,0.1,1.1v1.6
				c0,0.8,0,1.2,0,1.2c0,1.1,0.2,1.3,1,1.3v0.3h-3.4v-0.3c0.7,0,1-0.2,1-1.2v-3.7c0-0.9-0.4-1.3-1.1-1.3c-0.6,0-1.2,0.3-1.8,1v4.1
				c0,0.9,0.3,1.1,1,1.1v0.3h-3.4v-0.3c0.9,0,1-0.3,1-1.3v-4c0-0.4-0.1-0.6-0.3-0.6h-0.8v-0.3l2.4-0.8v1.3c0.7-0.9,1.5-1.3,2.5-1.3
				c0.9,0,1.4,0.4,1.6,1.3c0.8-0.9,1.7-1.3,2.7-1.3c0.5,0,0.9,0.1,1.2,0.4c0.3,0.3,0.6,1.3,0.6,1.8v3.6c0,1.1,0.2,1.3,1,1.3v0.3
				H-129.1z"/>
			<path d="M-122.7-1166.8h-0.7l2.4-7.4h-2.5c-0.7,0-1.2,0.4-1.5,1.1l-0.2-0.1l0.7-2h4.6L-122.7-1166.8z"/>
		</g>
	</g>
	<g transform="matrix(0.7425,0,0,0.7425,149.242,1168.42)">
	</g>
	<g transform="matrix(0.7425,0,0,0.7425,0,0)">
	</g>
	<g transform="matrix(0.7425,0,0,0.7425,852.39,1168.42)">
	</g>
	<g transform="matrix(0.7425,0,0,0.7425,852.39,1168.42)">
		<g class="st1">
			<path d="M-855.7-1162.2h-5v-0.4c1.5,0,1.6-0.3,1.6-1.7v-7.5c0-1.4-0.1-1.7-1.6-1.7v-0.4h5.6c0.8,0,1.7,0.2,2.6,0.5
				c2.5,0.9,3.7,2.7,3.7,5.4C-848.8-1164.4-851.4-1162.2-855.7-1162.2z M-855.9-1173.3c-1.4,0-1.4,0.2-1.4,1.6v7.1
				c0,1.4,0,1.6,1.5,1.6c3.3,0,5.1-1.8,5.1-5C-850.7-1171.3-852.6-1173.3-855.9-1173.3z"/>
			<path d="M-845.6-1166.8h-0.7l2.4-7.4h-2.5c-0.7,0-1.2,0.4-1.5,1.1l-0.2-0.1l0.7-2h4.6L-845.6-1166.8z"/>
		</g>
	</g>
	<g transform="matrix(0.7425,0,0,0.7425,852.39,1168.42)">
	</g>
	<g transform="matrix(0.7425,0,0,0.7425,0,0)">
	</g>
	<g transform="matrix(0.7425,0,0,0.7425,1521.38,1168.42)">
	</g>
	<g transform="matrix(0.7425,0,0,0.7425,1521.38,1168.42)">
		<g class="st1">
			<path d="M-1526.2-1165.5c0,1.9-1.9,3.3-3.7,3.3h-6.5v-0.4c1.5,0,1.6-0.3,1.6-1.7v-7.5c0-1.4-0.1-1.8-1.6-1.8v-0.4h5.9
				c2,0,3.8,1.3,3.8,3.1c0,1.3-0.9,2.2-2.3,2.6C-1527.3-1168-1526.2-1166.8-1526.2-1165.5z M-1528.5-1170.9c0-1.3-1-2.3-2.3-2.3
				h-1.2c-0.9,0-1.1,0.3-1.1,1.3v3.2h2.3C-1529.4-1168.7-1528.5-1169.5-1528.5-1170.9z M-1532.9-1163.2c0.2,0.2,1.2,0.3,1.9,0.3
				c2.3,0,2.8-1.4,2.8-2.6c0-1.4-1.2-2.3-2.6-2.3h-2.3v4C-1533-1163.5-1533-1163.3-1532.9-1163.2z"/>
			<path d="M-1517.1-1162.2v-0.3c0.7,0,1-0.2,1-1.2v-3.7c0-0.9-0.4-1.3-1.2-1.3c-0.6,0-1.3,0.3-1.8,1c0.1,0.1,0.1,0.5,0.1,1.1v1.6
				c0,0.8,0,1.2,0,1.2c0,1.1,0.2,1.3,1,1.3v0.3h-3.4v-0.3c0.7,0,1-0.2,1-1.2v-3.7c0-0.9-0.4-1.3-1.1-1.3c-0.6,0-1.2,0.3-1.8,1v4.1
				c0,0.9,0.3,1.1,1,1.1v0.3h-3.4v-0.3c0.9,0,1-0.3,1-1.3v-4c0-0.4-0.1-0.6-0.3-0.6h-0.8v-0.3l2.4-0.8v1.3c0.7-0.9,1.5-1.3,2.5-1.3
				c0.9,0,1.4,0.4,1.6,1.3c0.8-0.9,1.7-1.3,2.7-1.3c0.5,0,0.9,0.1,1.2,0.4c0.3,0.3,0.6,1.3,0.6,1.8v3.6c0,1.1,0.2,1.3,1,1.3v0.3
				H-1517.1z"/>
			<path d="M-1510.7-1166.8h-0.7l2.4-7.4h-2.5c-0.7,0-1.2,0.4-1.5,1.1l-0.2-0.1l0.7-2h4.6L-1510.7-1166.8z"/>
		</g>
	</g>
	<g transform="matrix(0.7425,0,0,0.7425,1521.38,1168.42)">
	</g>
	<g transform="matrix(0.7425,0,0,0.7425,0,0)">
	</g>
	<g transform="matrix(0.7425,0,0,0.7425,2204.48,1168.42)">
	</g>
	<g transform="matrix(0.7425,0,0,0.7425,2204.48,1168.42)">
		<g class="st1">
			<path d="M-2216.7-1162.2h-9.7v-0.4c1.5,0,1.6-0.3,1.6-1.7v-7.5c0-1.4-0.1-1.7-1.6-1.7v-0.4h9.6v2.7h-0.4
				c-0.1-1.2-0.7-1.8-1.7-1.8h-3.1c-0.8,0-1,0.4-1,1.2v3.3h3.1c1,0,1.7-0.7,1.7-1.7h0.4v4.2h-0.4c0-1-0.7-1.7-1.7-1.7h-3.1v3.7
				c0,0.8,0.2,1.2,1,1.2h3c1.2,0,2.3-1,2.6-2.2h0.5L-2216.7-1162.2z"/>
			<path d="M-2206.8-1162.2v-0.3c0.7,0,1-0.2,1-1.2v-3.7c0-0.9-0.4-1.3-1.2-1.3c-0.6,0-1.3,0.3-1.8,1c0.1,0.1,0.1,0.5,0.1,1.1v1.6
				c0,0.8,0,1.2,0,1.2c0,1.1,0.2,1.3,1,1.3v0.3h-3.4v-0.3c0.7,0,1-0.2,1-1.2v-3.7c0-0.9-0.4-1.3-1.1-1.3c-0.6,0-1.2,0.3-1.8,1v4.1
				c0,0.9,0.3,1.1,1,1.1v0.3h-3.4v-0.3c0.9,0,1-0.3,1-1.3v-4c0-0.4-0.1-0.6-0.3-0.6h-0.8v-0.3l2.4-0.8v1.3c0.7-0.9,1.5-1.3,2.5-1.3
				c0.9,0,1.4,0.4,1.6,1.3c0.8-0.9,1.7-1.3,2.7-1.3c0.5,0,0.9,0.1,1.2,0.4c0.3,0.3,0.6,1.3,0.6,1.8v3.6c0,1.1,0.2,1.3,1,1.3v0.3
				H-2206.8z"/>
			<path d="M-2200.5-1166.8h-0.7l2.4-7.4h-2.5c-0.7,0-1.2,0.4-1.5,1.1l-0.2-0.1l0.7-2h4.6L-2200.5-1166.8z"/>
		</g>
	</g>
	<g transform="matrix(0.7425,0,0,0.7425,2204.48,1168.42)">
	</g>
	<g transform="matrix(0.7425,0,0,0.7425,0,0)">
	</g>
	<g transform="matrix(0.7425,0,0,0.7425,0,0)">
		<line vector-effect="none" class="st0" x1="235.2" y1="521.2" x2="235.2" y2="553.2"/>
	</g>
	<g transform="matrix(0.7425,0,0,0.7425,0,0)">
		<line vector-effect="none" class="st0" x1="502.2" y1="521.2" x2="502.2" y2="553.2"/>
	</g>
	<g transform="matrix(0.7425,0,0,0.7425,0,0)">
		<line vector-effect="none" class="st0" x1="690" y1="521.2" x2="690" y2="553.2"/>
	</g>
	<g transform="matrix(0.7425,0,0,0.7425,0,0)">
		<line vector-effect="none" class="st0" x1="962.2" y1="521.2" x2="962.2" y2="553.2"/>
	</g>
	<g transform="matrix(0.7425,0,0,0.7425,0,0)">
		<line vector-effect="none" class="st4" x1="967.8" y1="521.2" x2="967.8" y2="553.2"/>
	</g>
	<g transform="matrix(0.7425,0,0,0.7425,0,0)">
	</g>
	<g transform="matrix(0.7425,0,0,0.7425,167.062,1434.98)">
	</g>
	<g transform="matrix(0.7425,0,0,0.7425,167.062,1434.98)">
		<g class="st1">
			<path d="M-160.6-1431.5v-0.4c0.8,0,1.2-0.2,1.2-0.7c0-0.5-0.5-1.7-0.9-2.7h-4.7c-0.5,1-1,2.3-1,2.7c0,0.4,0.4,0.7,1.2,0.7v0.4
				h-3.6v-0.4c0.7-0.1,1.2-0.4,1.6-1.2l4.4-10.4h0.5l4.1,9.8c0.7,1.6,0.9,1.7,1.7,1.8v0.4H-160.6z M-164.7-1436.1h4l-2.1-4.7
				L-164.7-1436.1z"/>
			<path d="M-153-1436.1h-0.7l2.4-7.4h-2.5c-0.7,0-1.2,0.4-1.5,1.1l-0.2-0.1l0.7-2h4.6L-153-1436.1z"/>
		</g>
	</g>
	<g transform="matrix(0.7425,0,0,0.7425,167.062,1434.98)">
	</g>
	<g transform="matrix(0.7425,0,0,0.7425,0,0)">
	</g>
	<g transform="matrix(0.7425,0,0,0.7425,706.86,1434.98)">
	</g>
	<g transform="matrix(0.7425,0,0,0.7425,706.86,1434.98)">
		<g class="st1">
			<path d="M-705.9-1431.5v-0.4c0.8,0,1.2-0.2,1.2-0.7c0-0.5-0.5-1.7-0.9-2.7h-4.7c-0.5,1-1,2.3-1,2.7c0,0.4,0.4,0.7,1.2,0.7v0.4
				h-3.6v-0.4c0.7-0.1,1.2-0.4,1.6-1.2l4.4-10.4h0.5l4.1,9.8c0.7,1.6,0.9,1.7,1.7,1.8v0.4H-705.9z M-709.9-1436.1h4l-2.1-4.7
				L-709.9-1436.1z"/>
			<path d="M-692.3-1431.5v-0.3c0.7,0,1-0.2,1-1.2v-3.7c0-0.9-0.4-1.3-1.2-1.3c-0.6,0-1.3,0.3-1.8,1c0.1,0.1,0.1,0.5,0.1,1.1v1.6
				c0,0.8,0,1.2,0,1.2c0,1.1,0.2,1.3,1,1.3v0.3h-3.4v-0.3c0.7,0,1-0.2,1-1.2v-3.7c0-0.9-0.4-1.3-1.1-1.3c-0.6,0-1.2,0.3-1.8,1v4.1
				c0,0.9,0.3,1.1,1,1.1v0.3h-3.4v-0.3c0.9,0,1-0.3,1-1.3v-4c0-0.4-0.1-0.6-0.3-0.6h-0.8v-0.3l2.4-0.8v1.3c0.7-0.9,1.5-1.3,2.5-1.3
				c0.9,0,1.4,0.4,1.6,1.3c0.8-0.9,1.7-1.3,2.7-1.3c0.5,0,0.9,0.1,1.2,0.4c0.3,0.3,0.6,1.3,0.6,1.8v3.6c0,1.1,0.2,1.3,1,1.3v0.3
				H-692.3z"/>
			<path d="M-686-1436.1h-0.7l2.4-7.4h-2.5c-0.7,0-1.2,0.4-1.5,1.1l-0.2-0.1l0.7-2h4.6L-686-1436.1z"/>
		</g>
	</g>
	<g transform="matrix(0.7425,0,0,0.7425,706.86,1434.98)">
	</g>
	<g transform="matrix(0.7425,0,0,0.7425,0,0)">
	</g>
	<g transform="matrix(0.7425,0,0,0.7425,1104.1,1434.98)">
	</g>
	<g transform="matrix(0.7425,0,0,0.7425,1104.1,1434.98)">
		<g class="st1">
			<path d="M-1110-1431.5h-5v-0.4c1.5,0,1.6-0.3,1.6-1.7v-7.5c0-1.4-0.1-1.7-1.6-1.7v-0.4h5.6c0.8,0,1.7,0.2,2.6,0.5
				c2.5,0.9,3.7,2.7,3.7,5.4C-1103-1433.6-1105.7-1431.5-1110-1431.5z M-1110.1-1442.6c-1.4,0-1.4,0.2-1.4,1.6v7.1
				c0,1.4,0,1.6,1.5,1.6c3.3,0,5.1-1.8,5.1-5C-1105-1440.5-1106.8-1442.6-1110.1-1442.6z"/>
			<path d="M-1099.8-1436.1h-0.7l2.4-7.4h-2.5c-0.7,0-1.2,0.4-1.5,1.1l-0.2-0.1l0.7-2h4.6L-1099.8-1436.1z"/>
		</g>
	</g>
	<g transform="matrix(0.7425,0,0,0.7425,1104.1,1434.98)">
	</g>
	<g transform="matrix(0.7425,0,0,0.7425,0,0)">
	</g>
	<g transform="matrix(0.7425,0,0,0.7425,1516.93,1434.98)">
	</g>
	<g transform="matrix(0.7425,0,0,0.7425,1516.93,1434.98)">
		<g class="st1">
			<path d="M-1521.1-1439.8h-0.3c-0.7-2.1-2-3.1-3.9-3.1c-2.7,0-4.4,2.2-4.4,5.4c0,3.2,1.9,5.8,4.5,5.8c0.9,0,1.7-0.2,2.4-0.6v-3.4
				c0-1.3-0.2-1.7-1.5-1.7v-0.4h4.5v0.4c-1.2,0-1.3,0.5-1.3,1.7v3.6c-1.3,0.7-2.6,1-4.1,1c-3.7,0-6.5-2.3-6.5-5.9
				c0-3.4,2.6-6.4,6.2-6.4c0.7,0,1.6,0.2,2.7,0.6c0.3,0.1,0.5,0.2,0.6,0.2c0.3,0,0.4-0.2,0.4-0.7h0.3L-1521.1-1439.8z"/>
			<path d="M-1513.8-1444.3c-2.3,0.6-3.3,1.5-3.7,3.5c0.5-0.4,1.1-0.6,1.7-0.6c1.4,0,2.3,1.1,2.3,2.6c0,1.7-1.1,2.9-2.6,2.9
				c-1.8,0-2.8-1.6-2.8-3.5c0-1.5,0.5-2.7,1.5-3.7c0.9-0.9,1.4-1.1,3.7-1.4L-1513.8-1444.3z M-1516.4-1440.8c-0.5,0-1,0.2-1.3,0.6
				c-0.1,0.3-0.1,0.7-0.1,1.2c0,1.7,0.6,2.7,1.8,2.7c0.9,0,1.3-0.7,1.3-2.1C-1514.7-1440-1515.3-1440.8-1516.4-1440.8z"/>
		</g>
	</g>
	<g transform="matrix(0.7425,0,0,0.7425,1516.93,1434.98)">
	</g>
	<g transform="matrix(0.7425,0,0,0.7425,0,0)">
	</g>
	<g transform="matrix(0.7425,0,0,0.7425,2057.47,1434.98)">
	</g>
	<g transform="matrix(0.7425,0,0,0.7425,2057.47,1434.98)">
		<g class="st1">
			<path d="M-2073-1431.5h-5v-0.4c1.5,0,1.6-0.3,1.6-1.7v-7.5c0-1.4-0.1-1.7-1.6-1.7v-0.4h5.6c0.8,0,1.7,0.2,2.6,0.5
				c2.5,0.9,3.7,2.7,3.7,5.4C-2066-1433.6-2068.7-1431.5-2073-1431.5z M-2073.1-1442.6c-1.4,0-1.4,0.2-1.4,1.6v7.1
				c0,1.4,0,1.6,1.5,1.6c3.3,0,5.1-1.8,5.1-5C-2068-1440.5-2069.8-1442.6-2073.1-1442.6z"/>
			<path d="M-2056.9-1431.5v-0.3c0.7,0,1-0.2,1-1.2v-3.7c0-0.9-0.4-1.3-1.2-1.3c-0.6,0-1.3,0.3-1.8,1c0.1,0.1,0.1,0.5,0.1,1.1v1.6
				c0,0.8,0,1.2,0,1.2c0,1.1,0.2,1.3,1,1.3v0.3h-3.4v-0.3c0.7,0,1-0.2,1-1.2v-3.7c0-0.9-0.4-1.3-1.1-1.3c-0.6,0-1.2,0.3-1.8,1v4.1
				c0,0.9,0.3,1.1,1,1.1v0.3h-3.4v-0.3c0.9,0,1-0.3,1-1.3v-4c0-0.4-0.1-0.6-0.3-0.6h-0.8v-0.3l2.4-0.8v1.3c0.7-0.9,1.5-1.3,2.5-1.3
				c0.9,0,1.4,0.4,1.6,1.3c0.8-0.9,1.7-1.3,2.7-1.3c0.5,0,0.9,0.1,1.2,0.4c0.3,0.3,0.6,1.3,0.6,1.8v3.6c0,1.1,0.2,1.3,1,1.3v0.3
				H-2056.9z"/>
			<path d="M-2050.6-1436.1h-0.7l2.4-7.4h-2.5c-0.7,0-1.2,0.4-1.5,1.1l-0.2-0.1l0.7-2h4.6L-2050.6-1436.1z"/>
		</g>
	</g>
	<g transform="matrix(0.7425,0,0,0.7425,2057.47,1434.98)">
	</g>
	<g transform="matrix(0.7425,0,0,0.7425,0,0)">
	</g>
	<g transform="matrix(0.7425,0,0,0.7425,2453.96,1434.98)">
	</g>
	<g transform="matrix(0.7425,0,0,0.7425,2453.96,1434.98)">
		<g class="st1">
			<path d="M-2467.5-1439.8h-0.3c-0.7-2.1-2-3.1-3.9-3.1c-2.7,0-4.4,2.2-4.4,5.4c0,3.2,1.9,5.8,4.5,5.8c0.9,0,1.7-0.2,2.4-0.6v-3.4
				c0-1.3-0.2-1.7-1.5-1.7v-0.4h4.5v0.4c-1.2,0-1.3,0.5-1.3,1.7v3.6c-1.3,0.7-2.6,1-4.1,1c-3.7,0-6.5-2.3-6.5-5.9
				c0-3.4,2.6-6.4,6.2-6.4c0.7,0,1.6,0.2,2.7,0.6c0.3,0.1,0.5,0.2,0.6,0.2c0.3,0,0.4-0.2,0.4-0.7h0.3L-2467.5-1439.8z"/>
			<path d="M-2463-1436.1h-0.7l2.4-7.4h-2.5c-0.7,0-1.2,0.4-1.5,1.1l-0.2-0.1l0.7-2h4.6L-2463-1436.1z"/>
		</g>
	</g>
	<g transform="matrix(0.7425,0,0,0.7425,2453.96,1434.98)">
	</g>
	<g transform="matrix(0.7425,0,0,0.7425,0,0)">
	</g>
	<g transform="matrix(0.7425,0,0,0.7425,147.757,117.388)">
	</g>
	<g transform="matrix(0.7425,0,0,0.7425,147.757,117.388)">
		<g class="st1">
			<path d="M-138.6-73.8v0.8c0,0.3,0,0.5,0,0.6c0,0.8,0.3,1,1.8,1.1l0.1,0.9h-7.9l0.1-0.9c1-0.1,1.6-0.3,1.8-0.6
				c0.1-0.2,0.1-0.8,0.1-1.9h-6.6v-1.3c2-2.5,3.8-7.1,4.1-10.3h5.5c-0.3,1.5-1.5,3.2-3.4,5.2c-2.2,2.2-3.5,3.8-4,5.1h4.4v-3.7l4-3.6
				v7.3h2v1.4H-138.6z"/>
		</g>
	</g>
	<g transform="matrix(0.7425,0,0,0.7425,147.757,117.388)">
		<g class="st1">
			<path d="M-138.6-57.6v0.8c0,0.3,0,0.5,0,0.6c0,0.8,0.3,1,1.8,1.1l0.1,0.9h-7.9l0.1-0.9c1-0.1,1.6-0.3,1.8-0.6
				c0.1-0.2,0.1-0.8,0.1-1.9h-6.6v-1.3c2-2.5,3.8-7.1,4.1-10.3h5.5c-0.3,1.5-1.5,3.2-3.4,5.2c-2.2,2.2-3.5,3.8-4,5.1h4.4v-3.7l4-3.6
				v7.3h2v1.4H-138.6z"/>
		</g>
	</g>
	<g transform="matrix(0.7425,0,0,0.7425,147.757,117.388)">
	</g>
	<g transform="matrix(0.7425,0,0,0.7425,0,0)">
	</g>
	<g transform="matrix(0.7425,0,0,0.7425,0,0)">
		<line vector-effect="none" class="st5" x1="0" y1="104.4" x2="969.8" y2="104.4"/>
	</g>
	<g transform="matrix(0.7425,0,0,0.7425,0,0)">
		<line vector-effect="none" class="st5" x1="0" y1="96.4" x2="969.8" y2="96.4"/>
	</g>
	<g transform="matrix(0.7425,0,0,0.7425,0,0)">
		<line vector-effect="none" class="st5" x1="0" y1="88.4" x2="969.8" y2="88.4"/>
	</g>
	<g transform="matrix(0.7425,0,0,0.7425,0,0)">
		<line vector-effect="none" class="st5" x1="0" y1="80.4" x2="969.8" y2="80.4"/>
	</g>
	<g transform="matrix(0.7425,0,0,0.7425,0,0)">
		<line vector-effect="none" class="st5" x1="0" y1="72.4" x2="969.8" y2="72.4"/>
	</g>
	<g transform="matrix(0.7425,0,0,0.7425,0,0)">
		<g class="st1">
			<path d="M11.7,95.3c4.7-4.2,7.6-9.8,7.6-14.9c0-4.1-2.3-7.1-6-7.1c-2.6,0-5.4,2.2-5.4,4.4c0,0.4,0.1,0.5,0.2,0.5
				c-0.1,0,0.9-1,2.2-1c1.4,0,2.5,1.3,2.5,2.8c0,2-1.4,3.6-3.4,3.6c-2,0-3.3-2.1-3.3-4.6c0-3.8,3.7-6.7,7.8-6.7
				c7.5,0,9.5,5.2,9.5,9.4c0,2.7-0.7,4.7-3.2,8.6c-3.1,4.9-10.4,8.5-13,8.5c-0.7,0-1-0.3-1-0.7C8.6,97.3,10.4,96.4,11.7,95.3z
				 M27.8,74.8c0.9,0,1.6,0.7,1.6,1.6S28.7,78,27.8,78c-0.9,0-1.6-0.7-1.6-1.6S26.9,74.8,27.8,74.8z M27.8,82.8
				c0.9,0,1.6,0.7,1.6,1.6c0,0.9-0.7,1.6-1.6,1.6c-0.9,0-1.6-0.7-1.6-1.6C26.2,83.5,26.9,82.8,27.8,82.8z"/>
		</g>
	</g>
	<g transform="matrix(0.7425,0,0,0.7425,0,0)">
		<g class="st1">
			<path d="M40.3,69.4V74l1.7-0.5v2.9l-1.7,0.5v5.5l1.7-0.5v2.9l-1.7,0.5v5h-0.8v-4.8l-3.1,1v4.8h-0.8v-4.6L34,87.4v-2.9l1.7-0.5
				v-5.5L34,78.9V76l1.7-0.5v-5h0.8v4.8l3.1-1v-4.8H40.3z M39.5,77.1l-3.1,1v5.5l3.1-1V77.1z"/>
		</g>
	</g>
	<g transform="matrix(0.7425,0,0,0.7425,0,0)">
		<line vector-effect="none" class="st5" x1="0" y1="194.2" x2="969.8" y2="194.2"/>
	</g>
	<g transform="matrix(0.7425,0,0,0.7425,0,0)">
		<line vector-effect="none" class="st5" x1="0" y1="186.2" x2="969.8" y2="186.2"/>
	</g>
	<g transform="matrix(0.7425,0,0,0.7425,0,0)">
		<line vector-effect="none" class="st5" x1="0" y1="178.2" x2="969.8" y2="178.2"/>
	</g>
	<g transform="matrix(0.7425,0,0,0.7425,0,0)">
		<line vector-effect="none" class="st5" x1="0" y1="170.2" x2="969.8" y2="170.2"/>
	</g>
	<g transform="matrix(0.7425,0,0,0.7425,0,0)">
		<line vector-effect="none" class="st5" x1="0" y1="162.2" x2="969.8" y2="162.2"/>
	</g>
	<g transform="matrix(0.7425,0,0,0.7425,0,0)">
		<g class="st1">
			<path d="M11.7,185c4.7-4.2,7.6-9.8,7.6-14.9c0-4.1-2.3-7.1-6-7.1c-2.6,0-5.4,2.2-5.4,4.4c0,0.4,0.1,0.5,0.2,0.5
				c-0.1,0,0.9-1,2.2-1c1.4,0,2.5,1.3,2.5,2.8c0,2-1.4,3.6-3.4,3.6c-2,0-3.3-2.1-3.3-4.6c0-3.8,3.7-6.7,7.8-6.7
				c7.5,0,9.5,5.2,9.5,9.4c0,2.7-0.7,4.7-3.2,8.6c-3.1,4.9-10.4,8.5-13,8.5c-0.7,0-1-0.3-1-0.7C8.6,187.1,10.4,186.2,11.7,185z
				 M27.8,164.6c0.9,0,1.6,0.7,1.6,1.6s-0.7,1.6-1.6,1.6c-0.9,0-1.6-0.7-1.6-1.6S26.9,164.6,27.8,164.6z M27.8,172.5
				c0.9,0,1.6,0.7,1.6,1.6c0,0.9-0.7,1.6-1.6,1.6c-0.9,0-1.6-0.7-1.6-1.6C26.2,173.2,26.9,172.5,27.8,172.5z"/>
		</g>
	</g>
	<g transform="matrix(0.7425,0,0,0.7425,0,0)">
		<g class="st1">
			<path d="M40.3,159.2v4.6l1.7-0.5v2.9l-1.7,0.5v5.5l1.7-0.5v2.9l-1.7,0.5v5h-0.8v-4.8l-3.1,1v4.8h-0.8v-4.6l-1.7,0.5v-2.9l1.7-0.5
				v-5.5l-1.7,0.5v-2.9l1.7-0.5v-5h0.8v4.8l3.1-1v-4.8H40.3z M39.5,166.9l-3.1,1v5.5l3.1-1V166.9z"/>
		</g>
	</g>
	<g transform="matrix(0.7425,0,0,0.7425,0,0)">
		<line vector-effect="none" class="st5" x1="0" y1="283.9" x2="969.8" y2="283.9"/>
	</g>
	<g transform="matrix(0.7425,0,0,0.7425,0,0)">
		<line vector-effect="none" class="st5" x1="0" y1="275.9" x2="969.8" y2="275.9"/>
	</g>
	<g transform="matrix(0.7425,0,0,0.7425,0,0)">
		<line vector-effect="none" class="st5" x1="0" y1="267.9" x2="969.8" y2="267.9"/>
	</g>
	<g transform="matrix(0.7425,0,0,0.7425,0,0)">
		<line vector-effect="none" class="st5" x1="0" y1="259.9" x2="969.8" y2="259.9"/>
	</g>
	<g transform="matrix(0.7425,0,0,0.7425,0,0)">
		<line vector-effect="none" class="st5" x1="0" y1="251.9" x2="969.8" y2="251.9"/>
	</g>
	<g transform="matrix(0.7425,0,0,0.7425,0,0)">
		<g class="st1">
			<path d="M11.7,274.8c4.7-4.2,7.6-9.8,7.6-14.9c0-4.1-2.3-7.1-6-7.1c-2.6,0-5.4,2.2-5.4,4.4c0,0.4,0.1,0.5,0.2,0.5
				c-0.1,0,0.9-1,2.2-1c1.4,0,2.5,1.3,2.5,2.8c0,2-1.4,3.6-3.4,3.6c-2,0-3.3-2.1-3.3-4.6c0-3.8,3.7-6.7,7.8-6.7
				c7.5,0,9.5,5.2,9.5,9.4c0,2.7-0.7,4.7-3.2,8.6c-3.1,4.9-10.4,8.5-13,8.5c-0.7,0-1-0.3-1-0.7C8.6,276.8,10.4,275.9,11.7,274.8z
				 M27.8,254.3c0.9,0,1.6,0.7,1.6,1.6s-0.7,1.6-1.6,1.6c-0.9,0-1.6-0.7-1.6-1.6S26.9,254.3,27.8,254.3z M27.8,262.3
				c0.9,0,1.6,0.7,1.6,1.6c0,0.9-0.7,1.6-1.6,1.6c-0.9,0-1.6-0.7-1.6-1.6C26.2,263,26.9,262.3,27.8,262.3z"/>
		</g>
	</g>
	<g transform="matrix(0.7425,0,0,0.7425,0,0)">
		<g class="st1">
			<path d="M40.3,248.9v4.6l1.7-0.5v2.9l-1.7,0.5v5.5l1.7-0.5v2.9l-1.7,0.5v5h-0.8v-4.8l-3.1,1v4.8h-0.8v-4.6l-1.7,0.5v-2.9l1.7-0.5
				v-5.5l-1.7,0.5v-2.9l1.7-0.5v-5h0.8v4.8l3.1-1v-4.8H40.3z M39.5,256.6l-3.1,1v5.5l3.1-1V256.6z"/>
		</g>
	</g>
	<g transform="matrix(0.7425,0,0,0.7425,0,0)">
		<line vector-effect="none" class="st5" x1="0" y1="373.7" x2="969.8" y2="373.7"/>
	</g>
	<g transform="matrix(0.7425,0,0,0.7425,0,0)">
		<line vector-effect="none" class="st5" x1="0" y1="365.7" x2="969.8" y2="365.7"/>
	</g>
	<g transform="matrix(0.7425,0,0,0.7425,0,0)">
		<line vector-effect="none" class="st5" x1="0" y1="357.7" x2="969.8" y2="357.7"/>
	</g>
	<g transform="matrix(0.7425,0,0,0.7425,0,0)">
		<line vector-effect="none" class="st5" x1="0" y1="349.7" x2="969.8" y2="349.7"/>
	</g>
	<g transform="matrix(0.7425,0,0,0.7425,0,0)">
		<line vector-effect="none" class="st5" x1="0" y1="341.7" x2="969.8" y2="341.7"/>
	</g>
	<g transform="matrix(0.7425,0,0,0.7425,0,0)">
		<g class="st1">
			<path d="M11.7,364.5c4.7-4.2,7.6-9.8,7.6-14.9c0-4.1-2.3-7.1-6-7.1c-2.6,0-5.4,2.2-5.4,4.4c0,0.4,0.1,0.5,0.2,0.5
				c-0.1,0,0.9-1,2.2-1c1.4,0,2.5,1.3,2.5,2.8c0,2-1.4,3.6-3.4,3.6c-2,0-3.3-2.1-3.3-4.6c0-3.8,3.7-6.7,7.8-6.7
				c7.5,0,9.5,5.2,9.5,9.4c0,2.7-0.7,4.7-3.2,8.6c-3.1,4.9-10.4,8.5-13,8.5c-0.7,0-1-0.3-1-0.7C8.6,366.6,10.4,365.7,11.7,364.5z
				 M27.8,344.1c0.9,0,1.6,0.7,1.6,1.6c0,0.9-0.7,1.6-1.6,1.6c-0.9,0-1.6-0.7-1.6-1.6C26.2,344.8,26.9,344.1,27.8,344.1z M27.8,352
				c0.9,0,1.6,0.7,1.6,1.6c0,0.9-0.7,1.6-1.6,1.6c-0.9,0-1.6-0.7-1.6-1.6C26.2,352.7,26.9,352,27.8,352z"/>
		</g>
	</g>
	<g transform="matrix(0.7425,0,0,0.7425,0,0)">
		<g class="st1">
			<path d="M40.3,338.7v4.6l1.7-0.5v2.9l-1.7,0.5v5.5l1.7-0.5v2.9l-1.7,0.5v5h-0.8v-4.8l-3.1,1v4.8h-0.8v-4.6l-1.7,0.5v-2.9l1.7-0.5
				v-5.5l-1.7,0.5v-2.9l1.7-0.5v-5h0.8v4.8l3.1-1v-4.8H40.3z M39.5,346.4l-3.1,1v5.5l3.1-1V346.4z"/>
		</g>
	</g>
	<g transform="matrix(0.7425,0,0,0.7425,0,0)">
		<line vector-effect="none" class="st5" x1="0" y1="463.4" x2="969.8" y2="463.4"/>
	</g>
	<g transform="matrix(0.7425,0,0,0.7425,0,0)">
		<line vector-effect="none" class="st5" x1="0" y1="455.4" x2="969.8" y2="455.4"/>
	</g>
	<g transform="matrix(0.7425,0,0,0.7425,0,0)">
		<line vector-effect="none" class="st5" x1="0" y1="447.4" x2="969.8" y2="447.4"/>
	</g>
	<g transform="matrix(0.7425,0,0,0.7425,0,0)">
		<line vector-effect="none" class="st5" x1="0" y1="439.4" x2="969.8" y2="439.4"/>
	</g>
	<g transform="matrix(0.7425,0,0,0.7425,0,0)">
		<line vector-effect="none" class="st5" x1="0" y1="431.4" x2="969.8" y2="431.4"/>
	</g>
	<g transform="matrix(0.7425,0,0,0.7425,0,0)">
		<g class="st1">
			<path d="M11.7,454.3c4.7-4.2,7.6-9.8,7.6-14.9c0-4.1-2.3-7.1-6-7.1c-2.6,0-5.4,2.2-5.4,4.4c0,0.4,0.1,0.5,0.2,0.5
				c-0.1,0,0.9-1,2.2-1c1.4,0,2.5,1.3,2.5,2.8c0,2-1.4,3.6-3.4,3.6c-2,0-3.3-2.1-3.3-4.6c0-3.8,3.7-6.7,7.8-6.7
				c7.5,0,9.5,5.2,9.5,9.4c0,2.7-0.7,4.7-3.2,8.6c-3.1,4.9-10.4,8.5-13,8.5c-0.7,0-1-0.3-1-0.7C8.6,456.3,10.4,455.4,11.7,454.3z
				 M27.8,433.8c0.9,0,1.6,0.7,1.6,1.6c0,0.9-0.7,1.6-1.6,1.6c-0.9,0-1.6-0.7-1.6-1.6C26.2,434.5,26.9,433.8,27.8,433.8z
				 M27.8,441.8c0.9,0,1.6,0.7,1.6,1.6c0,0.9-0.7,1.6-1.6,1.6c-0.9,0-1.6-0.7-1.6-1.6C26.2,442.5,26.9,441.8,27.8,441.8z"/>
		</g>
	</g>
	<g transform="matrix(0.7425,0,0,0.7425,0,0)">
		<g class="st1">
			<path d="M40.3,428.4v4.6l1.7-0.5v2.9l-1.7,0.5v5.5l1.7-0.5v2.9l-1.7,0.5v5h-0.8v-4.8l-3.1,1v4.8h-0.8v-4.6l-1.7,0.5v-2.9l1.7-0.5
				v-5.5l-1.7,0.5V435l1.7-0.5v-5h0.8v4.8l3.1-1v-4.8H40.3z M39.5,436.1l-3.1,1v5.5l3.1-1V436.1z"/>
		</g>
	</g>
	<g transform="matrix(0.7425,0,0,0.7425,0,0)">
		<line vector-effect="none" class="st5" x1="0" y1="553.2" x2="969.8" y2="553.2"/>
	</g>
	<g transform="matrix(0.7425,0,0,0.7425,0,0)">
		<line vector-effect="none" class="st5" x1="0" y1="545.2" x2="969.8" y2="545.2"/>
	</g>
	<g transform="matrix(0.7425,0,0,0.7425,0,0)">
		<line vector-effect="none" class="st5" x1="0" y1="537.2" x2="969.8" y2="537.2"/>
	</g>
	<g transform="matrix(0.7425,0,0,0.7425,0,0)">
		<line vector-effect="none" class="st5" x1="0" y1="529.2" x2="969.8" y2="529.2"/>
	</g>
	<g transform="matrix(0.7425,0,0,0.7425,0,0)">
		<line vector-effect="none" class="st5" x1="0" y1="521.2" x2="969.8" y2="521.2"/>
	</g>
	<g transform="matrix(0.7425,0,0,0.7425,0,0)">
		<g class="st1">
			<path d="M11.7,544c4.7-4.2,7.6-9.8,7.6-14.9c0-4.1-2.3-7.1-6-7.1c-2.6,0-5.4,2.2-5.4,4.4c0,0.4,0.1,0.5,0.2,0.5
				c-0.1,0,0.9-1,2.2-1c1.4,0,2.5,1.3,2.5,2.8c0,2-1.4,3.6-3.4,3.6c-2,0-3.3-2.1-3.3-4.6c0-3.8,3.7-6.7,7.8-6.7
				c7.5,0,9.5,5.2,9.5,9.4c0,2.7-0.7,4.7-3.2,8.6c-3.1,4.9-10.4,8.5-13,8.5c-0.7,0-1-0.3-1-0.7C8.6,546.1,10.4,545.2,11.7,544z
				 M27.8,523.6c0.9,0,1.6,0.7,1.6,1.6c0,0.9-0.7,1.6-1.6,1.6c-0.9,0-1.6-0.7-1.6-1.6C26.2,524.3,26.9,523.6,27.8,523.6z
				 M27.8,531.5c0.9,0,1.6,0.7,1.6,1.6c0,0.9-0.7,1.6-1.6,1.6c-0.9,0-1.6-0.7-1.6-1.6C26.2,532.2,26.9,531.5,27.8,531.5z"/>
		</g>
	</g>
	<g transform="matrix(0.7425,0,0,0.7425,0,0)">
		<g class="st1">
			<path d="M40.3,518.2v4.6l1.7-0.5v2.9l-1.7,0.5v5.5l1.7-0.5v2.9l-1.7,0.5v5h-0.8v-4.8l-3.1,1v4.8h-0.8v-4.6l-1.7,0.5v-2.9l1.7-0.5
				v-5.5l-1.7,0.5v-2.9l1.7-0.5v-5h0.8v4.8l3.1-1v-4.8H40.3z M39.5,525.9l-3.1,1v5.5l3.1-1V525.9z"/>
		</g>
	</g>
	<g transform="matrix(0.7425,0,0,0.7425,0,0)">
		<g class="st1">
			<path d="M82.6,88.1c3.6,0,7.3,1.9,7.3,4.3c0,2.7-3.1,4.3-7.6,4.3c-4.1,0-7.3-1.7-7.3-4.3C75,89.8,78.7,88.1,82.6,88.1z
				 M85.7,91.5c-1-1.9-2-2.7-4.2-2.7c-2,0-3.1,0.8-3.1,2.5c0,2.4,2.2,4.8,4.2,4.8c1.9,0,3.4-0.2,3.8-2
				C86.5,93.3,86.2,92.5,85.7,91.5z"/>
		</g>
	</g>
	<g transform="matrix(0.7425,0,0,0.7425,0,0)">
		<g class="st1">
			<path d="M212.1,88.1c3.6,0,7.3,1.9,7.3,4.3c0,2.7-3.1,4.3-7.6,4.3c-4.1,0-7.3-1.7-7.3-4.3C204.5,89.8,208.2,88.1,212.1,88.1z
				 M215.2,91.5c-1-1.9-2-2.7-4.2-2.7c-2,0-3.1,0.8-3.1,2.5c0,2.4,2.2,4.8,4.2,4.8c1.9,0,3.4-0.2,3.8-2
				C216,93.3,215.7,92.5,215.2,91.5z"/>
		</g>
	</g>
	<g transform="matrix(0.7425,0,0,0.7425,0,0)">
		<g class="st1">
			<path d="M341.6,88.1c3.6,0,7.3,1.9,7.3,4.3c0,2.7-3.1,4.3-7.6,4.3c-4.1,0-7.3-1.7-7.3-4.3C334,89.8,337.7,88.1,341.6,88.1z
				 M344.7,91.5c-1-1.9-2-2.7-4.2-2.7c-2,0-3.1,0.8-3.1,2.5c0,2.4,2.2,4.8,4.2,4.8c1.9,0,3.4-0.2,3.8-2
				C345.5,93.3,345.2,92.5,344.7,91.5z"/>
		</g>
	</g>
	<g transform="matrix(0.7425,0,0,0.7425,0,0)">
		<g class="st1">
			<path d="M471.1,76.1c3.6,0,7.3,1.9,7.3,4.3c0,2.7-3.1,4.3-7.6,4.3c-4.1,0-7.3-1.7-7.3-4.3C463.5,77.8,467.2,76.1,471.1,76.1z
				 M474.2,79.5c-1-1.9-2-2.7-4.2-2.7c-2,0-3.1,0.8-3.1,2.5c0,2.4,2.2,4.8,4.2,4.8c1.9,0,3.4-0.2,3.8-2
				C475,81.3,474.7,80.5,474.2,79.5z"/>
		</g>
	</g>
	<g transform="matrix(0.7425,0,0,0.7425,0,0)">
		<g class="st1">
			<path d="M460.4,91.3v-6.4l-4.9,1.7V69.4h0.8v6.4l4.9-1.7v17.2H460.4z M456.3,83.8l4.1-1.5V77l-4.1,1.5V83.8z"/>
		</g>
	</g>
	<g transform="matrix(0.7425,0,0,0.7425,0,0)">
		<g class="st1">
			<path d="M600.9,72.1c3.6,0,7.3,1.9,7.3,4.3c0,2.7-3.1,4.3-7.6,4.3c-4.1,0-7.3-1.7-7.3-4.3C593.3,73.8,597,72.1,600.9,72.1z
				 M604,75.5c-1-1.9-2-2.7-4.2-2.7c-2,0-3.1,0.8-3.1,2.5c0,2.4,2.2,4.8,4.2,4.8c1.9,0,3.4-0.2,3.8-2
				C604.7,77.3,604.4,76.5,604,75.5z"/>
		</g>
	</g>
	<g transform="matrix(0.7425,0,0,0.7425,0,0)">
		<g class="st1">
			<path d="M730.4,72.1c3.6,0,7.3,1.9,7.3,4.3c0,2.7-3.1,4.3-7.6,4.3c-4.1,0-7.3-1.7-7.3-4.3C722.7,73.8,726.5,72.1,730.4,72.1z
				 M733.5,75.5c-1-1.9-2-2.7-4.2-2.7c-2,0-3.1,0.8-3.1,2.5c0,2.4,2.2,4.8,4.2,4.8c1.9,0,3.4-0.2,3.8-2
				C734.2,77.3,733.9,76.5,733.5,75.5z"/>
		</g>
	</g>
	<g transform="matrix(0.7425,0,0,0.7425,0,0)">
		<g class="st1">
			<path d="M859.9,92.1c3.6,0,7.3,1.9,7.3,4.3c0,2.7-3.1,4.3-7.6,4.3c-4.1,0-7.3-1.7-7.3-4.3C852.3,93.8,856,92.1,859.9,92.1z
				 M863,95.5c-1-1.9-2-2.7-4.2-2.7c-2,0-3.1,0.8-3.1,2.5c0,2.4,2.2,4.8,4.2,4.8c1.9,0,3.4-0.2,3.8-2
				C863.7,97.3,863.4,96.5,863,95.5z"/>
		</g>
	</g>
	<g transform="matrix(0.7425,0,0,0.7425,0,0)">
		<g class="st1">
			<path d="M842.8,83h1l-0.2,10.1c0.6-1.1,1.6-1.6,3-1.6c1.9,0,3.6,1.3,3.6,3.1c-0.1,1.2-0.8,2.8-2.8,4.3l-4.5,3.3V83z M843.7,94.1
				c-0.1,1.2-0.2,2.3-0.2,3.1c0,1.6,0.1,2.6,0.2,3.2c1.7-1.1,3.9-4.3,3.9-5.9c0-1-0.8-1.7-1.8-1.7C844.8,92.8,844.2,93.3,843.7,94.1
				z"/>
		</g>
	</g>
	<g transform="matrix(0.7425,0,0,0.7425,0,0)">
		<g class="st1">
			<path d="M67.6,169.8c3.6,0,7.3,1.9,7.3,4.3c0,2.7-3.1,4.3-7.6,4.3c-4.1,0-7.3-1.7-7.3-4.3C60,171.6,63.7,169.8,67.6,169.8z
				 M70.7,173.3c-1-1.9-2-2.7-4.2-2.7c-2,0-3.1,0.8-3.1,2.5c0,2.4,2.2,4.8,4.2,4.8c1.9,0,3.4-0.2,3.8-2
				C71.5,175.1,71.2,174.2,70.7,173.3z"/>
		</g>
	</g>
	<g transform="matrix(0.7425,0,0,0.7425,0,0)">
		<g class="st1">
			<path d="M50.5,160.8h1l-0.2,10.1c0.6-1.1,1.6-1.6,3-1.6c1.9,0,3.6,1.3,3.6,3.1c-0.1,1.2-0.8,2.8-2.8,4.3l-4.5,3.3V160.8z
				 M51.4,171.9c-0.1,1.2-0.2,2.3-0.2,3.1c0,1.6,0.1,2.6,0.2,3.2c1.7-1.1,3.9-4.3,3.9-5.9c0-1-0.8-1.7-1.8-1.7
				C52.6,170.6,51.9,171,51.4,171.9z"/>
		</g>
	</g>
	<g transform="matrix(0.7425,0,0,0.7425,0,0)">
		<g class="st1">
			<path d="M207.4,157.8c3.6,0,7.3,1.9,7.3,4.3c0,2.7-3.1,4.3-7.6,4.3c-4.1,0-7.3-1.7-7.3-4.3C199.8,159.6,203.5,157.8,207.4,157.8z
				 M210.5,161.3c-1-1.9-2-2.7-4.2-2.7c-2,0-3.1,0.8-3.1,2.5c0,2.4,2.2,4.8,4.2,4.8c1.9,0,3.4-0.2,3.8-2
				C211.2,163.1,210.9,162.2,210.5,161.3z"/>
		</g>
	</g>
	<g transform="matrix(0.7425,0,0,0.7425,0,0)">
		<g class="st1">
			<path d="M337.9,173.8c3.6,0,7.3,1.9,7.3,4.3c0,2.7-3.1,4.3-7.6,4.3c-4.1,0-7.3-1.7-7.3-4.3C330.3,175.6,334,173.8,337.9,173.8z
				 M341,177.3c-1-1.9-2-2.7-4.2-2.7c-2,0-3.1,0.8-3.1,2.5c0,2.4,2.2,4.8,4.2,4.8c1.9,0,3.4-0.2,3.8-2
				C341.7,179.1,341.4,178.2,341,177.3z"/>
		</g>
	</g>
	<g transform="matrix(0.7425,0,0,0.7425,0,0)">
		<g class="st1">
			<path d="M468.1,181.8c3.6,0,7.3,1.9,7.3,4.3c0,2.7-3.1,4.3-7.6,4.3c-4.1,0-7.3-1.7-7.3-4.3C460.5,183.6,464.2,181.8,468.1,181.8z
				 M471.2,185.3c-1-1.9-2-2.7-4.2-2.7c-2,0-3.1,0.8-3.1,2.5c0,2.4,2.2,4.8,4.2,4.8c1.9,0,3.4-0.2,3.8-2
				C472,187.1,471.7,186.2,471.2,185.3z"/>
		</g>
	</g>
	<g transform="matrix(0.7425,0,0,0.7425,0,0)">
		<g class="st1">
			<path d="M598.4,169.8c3.6,0,7.3,1.9,7.3,4.3c0,2.7-3.1,4.3-7.6,4.3c-4.1,0-7.3-1.7-7.3-4.3C590.7,171.6,594.5,169.8,598.4,169.8z
				 M601.5,173.3c-1-1.9-2-2.7-4.2-2.7c-2,0-3.1,0.8-3.1,2.5c0,2.4,2.2,4.8,4.2,4.8c1.9,0,3.4-0.2,3.8-2
				C602.2,175.1,601.9,174.2,601.5,173.3z"/>
		</g>
	</g>
	<g transform="matrix(0.7425,0,0,0.7425,0,0)">
		<g class="st1">
			<path d="M728.6,157.8c3.6,0,7.3,1.9,7.3,4.3c0,2.7-3.1,4.3-7.6,4.3c-4.1,0-7.3-1.7-7.3-4.3C721,159.6,724.7,157.8,728.6,157.8z
				 M731.7,161.3c-1-1.9-2-2.7-4.2-2.7c-2,0-3.1,0.8-3.1,2.5c0,2.4,2.2,4.8,4.2,4.8c1.9,0,3.4-0.2,3.8-2
				C732.5,163.1,732.2,162.2,731.7,161.3z"/>
		</g>
	</g>
	<g transform="matrix(0.7425,0,0,0.7425,0,0)">
		<g class="st1">
			<path d="M859.1,157.8c3.6,0,7.3,1.9,7.3,4.3c0,2.7-3.1,4.3-7.6,4.3c-4.1,0-7.3-1.7-7.3-4.3C851.5,159.6,855.2,157.8,859.1,157.8z
				 M862.2,161.3c-1-1.9-2-2.7-4.2-2.7c-2,0-3.1,0.8-3.1,2.5c0,2.4,2.2,4.8,4.2,4.8c1.9,0,3.4-0.2,3.8-2
				C863,163.1,862.7,162.2,862.2,161.3z"/>
		</g>
	</g>
	<g transform="matrix(0.7425,0,0,0.7425,0,0)">
		<g class="st1">
			<path d="M67.6,247.6c3.6,0,7.3,1.9,7.3,4.3c0,2.7-3.1,4.3-7.6,4.3c-4.1,0-7.3-1.7-7.3-4.3C60,249.3,63.7,247.6,67.6,247.6z
				 M70.7,251c-1-1.9-2-2.7-4.2-2.7c-2,0-3.1,0.8-3.1,2.5c0,2.4,2.2,4.8,4.2,4.8c1.9,0,3.4-0.2,3.8-2C71.5,252.8,71.2,252,70.7,251z
				"/>
		</g>
	</g>
	<g transform="matrix(0.7425,0,0,0.7425,0,0)">
		<line vector-effect="none" class="st5" x1="228.5" y1="269.2" x2="228.5" y2="295.9"/>
	</g>
	<g transform="matrix(0.7425,0,0,0.7425,0,0)">
		<g class="st1">
			<path d="M235.1,263.6c2.7,0,4.4,1.2,4.4,3.2c0,3-3.7,5.4-7.3,5.4c-2.2,0-3.9-1.1-3.9-2.8C228.2,266.4,231.9,263.6,235.1,263.6z
				 M229,269.8c0,1,0.6,1.5,1.8,1.5c2.3,0,8-3.4,8-5.2c0-1-0.6-1.5-1.8-1.5C234.9,264.5,229,267.8,229,269.8z"/>
		</g>
	</g>
	<g transform="matrix(0.7425,0,0,0.7425,0,0)">
		<line vector-effect="none" class="st5" x1="342" y1="269.2" x2="342" y2="295.9"/>
	</g>
	<g transform="matrix(0.7425,0,0,0.7425,0,0)">
		<g class="st1">
			<path d="M348.6,263.6c2.7,0,4.4,1.2,4.4,3.2c0,3-3.7,5.4-7.3,5.4c-2.2,0-3.9-1.1-3.9-2.8C341.8,266.4,345.4,263.6,348.6,263.6z
				 M342.5,269.8c0,1,0.6,1.5,1.8,1.5c2.3,0,8-3.4,8-5.2c0-1-0.6-1.5-1.8-1.5C348.4,264.5,342.5,267.8,342.5,269.8z"/>
		</g>
	</g>
	<g transform="matrix(0.7425,0,0,0.7425,0,0)">
		<g class="st1">
			<path d="M332.3,254.5h1l-0.2,10.1c0.6-1.1,1.6-1.6,3-1.6c1.9,0,3.6,1.3,3.6,3.1c-0.1,1.2-0.8,2.8-2.8,4.3l-4.5,3.3V254.5z
				 M333.2,265.6c-0.1,1.2-0.2,2.3-0.2,3.1c0,1.6,0.1,2.6,0.2,3.2c1.7-1.1,3.9-4.3,3.9-5.9c0-1-0.8-1.7-1.8-1.7
				C334.3,264.3,333.7,264.8,333.2,265.6z"/>
		</g>
	</g>
	<g transform="matrix(0.7425,0,0,0.7425,0,0)">
		<g class="st1">
			<path d="M484.4,267.6c3.6,0,7.3,1.9,7.3,4.3c0,2.7-3.1,4.3-7.6,4.3c-4.1,0-7.3-1.7-7.3-4.3C476.7,269.3,480.5,267.6,484.4,267.6z
				 M487.5,271c-1-1.9-2-2.7-4.2-2.7c-2,0-3.1,0.8-3.1,2.5c0,2.4,2.2,4.8,4.2,4.8c1.9,0,3.4-0.2,3.8-2
				C488.2,272.8,487.9,272,487.5,271z"/>
		</g>
	</g>
	<g transform="matrix(0.7425,0,0,0.7425,0,0)">
		<g class="st1">
			<path d="M652.6,267.6c3.6,0,7.3,1.9,7.3,4.3c0,2.7-3.1,4.3-7.6,4.3c-4.1,0-7.3-1.7-7.3-4.3C645,269.3,648.7,267.6,652.6,267.6z
				 M655.7,271c-1-1.9-2-2.7-4.2-2.7c-2,0-3.1,0.8-3.1,2.5c0,2.4,2.2,4.8,4.2,4.8c1.9,0,3.4-0.2,3.8-2
				C656.5,272.8,656.2,272,655.7,271z"/>
		</g>
	</g>
	<g transform="matrix(0.7425,0,0,0.7425,0,0)">
		<g class="st1">
			<path d="M821.1,267.6c3.6,0,7.3,1.9,7.3,4.3c0,2.7-3.1,4.3-7.6,4.3c-4.1,0-7.3-1.7-7.3-4.3C813.5,269.3,817.2,267.6,821.1,267.6z
				 M824.2,271c-1-1.9-2-2.7-4.2-2.7c-2,0-3.1,0.8-3.1,2.5c0,2.4,2.2,4.8,4.2,4.8c1.9,0,3.4-0.2,3.8-2
				C825,272.8,824.7,272,824.2,271z"/>
		</g>
	</g>
	<g transform="matrix(0.7425,0,0,0.7425,0,0)">
		<g class="st1">
			<path d="M67.6,345.3c3.6,0,7.3,1.9,7.3,4.3c0,2.7-3.1,4.3-7.6,4.3c-4.1,0-7.3-1.7-7.3-4.3C60,347.1,63.7,345.3,67.6,345.3z
				 M70.7,348.8c-1-1.9-2-2.7-4.2-2.7c-2,0-3.1,0.8-3.1,2.5c0,2.4,2.2,4.8,4.2,4.8c1.9,0,3.4-0.2,3.8-2
				C71.5,350.6,71.2,349.7,70.7,348.8z"/>
		</g>
	</g>
	<g transform="matrix(0.7425,0,0,0.7425,0,0)">
		<g class="st1">
			<path d="M56.9,360.6v-6.4l-4.9,1.7v-17.2h0.8v6.4l4.9-1.7v17.2H56.9z M52.8,353.1l4.1-1.5v-5.4l-4.1,1.5V353.1z"/>
		</g>
	</g>
	<g transform="matrix(0.7425,0,0,0.7425,0,0)">
		<g class="st1">
			<path d="M250.1,341.3c3.6,0,7.3,1.9,7.3,4.3c0,2.7-3.1,4.3-7.6,4.3c-4.1,0-7.3-1.7-7.3-4.3C242.5,343.1,246.2,341.3,250.1,341.3z
				 M253.2,344.8c-1-1.9-2-2.7-4.2-2.7c-2,0-3.1,0.8-3.1,2.5c0,2.4,2.2,4.8,4.2,4.8c1.9,0,3.4-0.2,3.8-2
				C254,346.6,253.7,345.7,253.2,344.8z"/>
		</g>
	</g>
	<g transform="matrix(0.7425,0,0,0.7425,0,0)">
		<g class="st1">
			<path d="M432.6,341.3c3.6,0,7.3,1.9,7.3,4.3c0,2.7-3.1,4.3-7.6,4.3c-4.1,0-7.3-1.7-7.3-4.3C425,343.1,428.7,341.3,432.6,341.3z
				 M435.7,344.8c-1-1.9-2-2.7-4.2-2.7c-2,0-3.1,0.8-3.1,2.5c0,2.4,2.2,4.8,4.2,4.8c1.9,0,3.4-0.2,3.8-2
				C436.5,346.6,436.2,345.7,435.7,344.8z"/>
		</g>
	</g>
	<g transform="matrix(0.7425,0,0,0.7425,0,0)">
		<g class="st1">
			<path d="M614.9,361.3c3.6,0,7.3,1.9,7.3,4.3c0,2.7-3.1,4.3-7.6,4.3c-4.1,0-7.3-1.7-7.3-4.3C607.2,363.1,611,361.3,614.9,361.3z
				 M618,364.8c-1-1.9-2-2.7-4.2-2.7c-2,0-3.1,0.8-3.1,2.5c0,2.4,2.2,4.8,4.2,4.8c1.9,0,3.4-0.2,3.8-2
				C618.7,366.6,618.4,365.7,618,364.8z"/>
		</g>
	</g>
	<g transform="matrix(0.7425,0,0,0.7425,0,0)">
		<g class="st1">
			<path d="M597.7,352.3h1l-0.2,10.1c0.6-1.1,1.6-1.6,3-1.6c1.9,0,3.6,1.3,3.6,3.1c-0.1,1.2-0.8,2.8-2.8,4.3l-4.5,3.3V352.3z
				 M598.7,363.4c-0.1,1.2-0.2,2.3-0.2,3.1c0,1.6,0.1,2.6,0.2,3.2c1.7-1.1,3.9-4.3,3.9-5.9c0-1-0.8-1.7-1.8-1.7
				C599.8,362.1,599.2,362.5,598.7,363.4z"/>
		</g>
	</g>
	<g transform="matrix(0.7425,0,0,0.7425,0,0)">
		<g class="st1">
			<path d="M797.4,349.3c3.6,0,7.3,1.9,7.3,4.3c0,2.7-3.1,4.3-7.6,4.3c-4.1,0-7.3-1.7-7.3-4.3C789.8,351.1,793.5,349.3,797.4,349.3z
				 M800.5,352.8c-1-1.9-2-2.7-4.2-2.7c-2,0-3.1,0.8-3.1,2.5c0,2.4,2.2,4.8,4.2,4.8c1.9,0,3.4-0.2,3.8-2
				C801.2,354.6,800.9,353.7,800.5,352.8z"/>
		</g>
	</g>
	<g transform="matrix(0.7425,0,0,0.7425,0,0)">
		<g class="st1">
			<path d="M780.3,340.3h1l-0.2,10.1c0.6-1.1,1.6-1.6,3-1.6c1.9,0,3.6,1.3,3.6,3.1c-0.1,1.2-0.8,2.8-2.8,4.3l-4.5,3.3V340.3z
				 M781.2,351.4c-0.1,1.2-0.2,2.3-0.2,3.1c0,1.6,0.1,2.6,0.2,3.2c1.7-1.1,3.9-4.3,3.9-5.9c0-1-0.8-1.7-1.8-1.7
				C782.3,350.1,781.7,350.5,781.2,351.4z"/>
		</g>
	</g>
	<g transform="matrix(0.7425,0,0,0.7425,0,0)">
		<g class="st1">
			<path d="M67.6,427.1c3.6,0,7.3,1.9,7.3,4.3c0,2.7-3.1,4.3-7.6,4.3c-4.1,0-7.3-1.7-7.3-4.3C60,428.8,63.7,427.1,67.6,427.1z
				 M70.7,430.5c-1-1.9-2-2.7-4.2-2.7c-2,0-3.1,0.8-3.1,2.5c0,2.4,2.2,4.8,4.2,4.8c1.9,0,3.4-0.2,3.8-2
				C71.5,432.3,71.2,431.5,70.7,430.5z"/>
		</g>
	</g>
	<g transform="matrix(0.7425,0,0,0.7425,0,0)">
		<g class="st1">
			<path d="M298.1,443.1c3.6,0,7.3,1.9,7.3,4.3c0,2.7-3.1,4.3-7.6,4.3c-4.1,0-7.3-1.7-7.3-4.3C290.5,444.8,294.2,443.1,298.1,443.1z
				 M301.2,446.5c-1-1.9-2-2.7-4.2-2.7c-2,0-3.1,0.8-3.1,2.5c0,2.4,2.2,4.8,4.2,4.8c1.9,0,3.4-0.2,3.8-2
				C302,448.3,301.7,447.5,301.2,446.5z"/>
		</g>
	</g>
	<g transform="matrix(0.7425,0,0,0.7425,0,0)">
		<g class="st1">
			<path d="M528.6,451.1c3.6,0,7.3,1.9,7.3,4.3c0,2.7-3.1,4.3-7.6,4.3c-4.1,0-7.3-1.7-7.3-4.3C521,452.8,524.7,451.1,528.6,451.1z
				 M531.7,454.5c-1-1.9-2-2.7-4.2-2.7c-2,0-3.1,0.8-3.1,2.5c0,2.4,2.2,4.8,4.2,4.8c1.9,0,3.4-0.2,3.8-2
				C532.5,456.3,532.2,455.5,531.7,454.5z"/>
		</g>
	</g>
	<g transform="matrix(0.7425,0,0,0.7425,0,0)">
		<g class="st1">
			<path d="M758.9,439.1c3.6,0,7.3,1.9,7.3,4.3c0,2.7-3.1,4.3-7.6,4.3c-4.1,0-7.3-1.7-7.3-4.3C751.2,440.8,755,439.1,758.9,439.1z
				 M762,442.5c-1-1.9-2-2.7-4.2-2.7c-2,0-3.1,0.8-3.1,2.5c0,2.4,2.2,4.8,4.2,4.8c1.9,0,3.4-0.2,3.8-2
				C762.7,444.3,762.4,443.5,762,442.5z"/>
		</g>
	</g>
	<g transform="matrix(0.7425,0,0,0.7425,0,0)">
		<g class="st1">
			<path d="M67.6,516.8c3.6,0,7.3,1.9,7.3,4.3c0,2.7-3.1,4.3-7.6,4.3c-4.1,0-7.3-1.7-7.3-4.3C60,518.6,63.7,516.8,67.6,516.8z
				 M70.7,520.3c-1-1.9-2-2.7-4.2-2.7c-2,0-3.1,0.8-3.1,2.5c0,2.4,2.2,4.8,4.2,4.8c1.9,0,3.4-0.2,3.8-2
				C71.5,522.1,71.2,521.2,70.7,520.3z"/>
		</g>
	</g>
	<g transform="matrix(0.7425,0,0,0.7425,0,0)">
		<line vector-effect="none" class="st5" x1="248" y1="522.4" x2="248" y2="549.2"/>
	</g>
	<g transform="matrix(0.7425,0,0,0.7425,0,0)">
		<g class="st1">
			<path d="M254.6,516.8c2.7,0,4.4,1.2,4.4,3.2c0,3-3.7,5.4-7.3,5.4c-2.2,0-3.9-1.1-3.9-2.8C247.8,519.7,251.4,516.8,254.6,516.8z
				 M248.5,523c0,1,0.6,1.5,1.8,1.5c2.3,0,8-3.4,8-5.2c0-1-0.6-1.5-1.8-1.5C254.4,517.8,248.5,521,248.5,523z"/>
		</g>
	</g>
	<g transform="matrix(0.7425,0,0,0.7425,0,0)">
		<line vector-effect="none" class="st5" x1="375.5" y1="538.4" x2="375.5" y2="565.2"/>
	</g>
	<g transform="matrix(0.7425,0,0,0.7425,0,0)">
		<g class="st1">
			<path d="M382.1,532.8c2.7,0,4.4,1.2,4.4,3.2c0,3-3.7,5.4-7.3,5.4c-2.2,0-3.9-1.1-3.9-2.8C375.2,535.7,378.9,532.8,382.1,532.8z
				 M376,539c0,1,0.6,1.5,1.8,1.5c2.3,0,8-3.4,8-5.2c0-1-0.6-1.5-1.8-1.5C381.9,533.8,376,537,376,539z"/>
		</g>
	</g>
	<g transform="matrix(0.7425,0,0,0.7425,0,0)">
		<g class="st1">
			<path d="M522.4,520.8c3.6,0,7.3,1.9,7.3,4.3c0,2.7-3.1,4.3-7.6,4.3c-4.1,0-7.3-1.7-7.3-4.3C514.8,522.6,518.5,520.8,522.4,520.8z
				 M525.5,524.3c-1-1.9-2-2.7-4.2-2.7c-2,0-3.1,0.8-3.1,2.5c0,2.4,2.2,4.8,4.2,4.8c1.9,0,3.4-0.2,3.8-2
				C526.2,526.1,525.9,525.2,525.5,524.3z"/>
		</g>
	</g>
	<g transform="matrix(0.7425,0,0,0.7425,0,0)">
		<line vector-effect="none" class="st5" x1="702.8" y1="538.4" x2="702.8" y2="565.2"/>
	</g>
	<g transform="matrix(0.7425,0,0,0.7425,0,0)">
		<g class="st1">
			<path d="M709.4,532.8c2.7,0,4.4,1.2,4.4,3.2c0,3-3.7,5.4-7.3,5.4c-2.2,0-3.9-1.1-3.9-2.8C702.5,535.7,706.1,532.8,709.4,532.8z
				 M703.2,539c0,1,0.6,1.5,1.8,1.5c2.3,0,8-3.4,8-5.2c0-1-0.6-1.5-1.8-1.5C709.2,533.8,703.2,537,703.2,539z"/>
		</g>
	</g>
	<g transform="matrix(0.7425,0,0,0.7425,0,0)">
		<line vector-effect="none" class="st5" x1="830.2" y1="526.4" x2="830.2" y2="553.2"/>
	</g>
	<g transform="matrix(0.7425,0,0,0.7425,0,0)">
		<g class="st1">
			<path d="M836.9,520.8c2.7,0,4.4,1.2,4.4,3.2c0,3-3.7,5.4-7.3,5.4c-2.2,0-3.9-1.1-3.9-2.8C830,523.7,833.6,520.8,836.9,520.8z
				 M830.7,527c0,1,0.6,1.5,1.8,1.5c2.3,0,8-3.4,8-5.2c0-1-0.6-1.5-1.8-1.5C836.7,521.8,830.7,525,830.7,527z"/>
		</g>
	</g>
</g>
</svg>
