<?xml version="1.0" encoding="utf-8"?>
<!-- Generator: Adobe Illustrator 26.3.1, SVG Export Plug-In . SVG Version: 6.00 Build 0)  -->
<svg version="1.1" id="Layer_1" xmlns="http://www.w3.org/2000/svg" xmlns:xlink="http://www.w3.org/1999/xlink" x="0px" y="0px"
	 viewBox="0 0 720 432" style="enable-background:new 0 0 720 432;" xml:space="preserve">
<style type="text/css">
	.st0{fill:none;stroke:#000000;stroke-width:0.9281;stroke-linejoin:bevel;stroke-miterlimit:10;}
	.st1{enable-background:new    ;}
	.st2{fill:none;stroke:#000000;stroke-width:2.97;stroke-linejoin:bevel;stroke-miterlimit:10;}
	.st3{fill:none;stroke:#000000;stroke-width:0.5569;stroke-linejoin:bevel;stroke-miterlimit:10;}
	.st4{fill-rule:evenodd;clip-rule:evenodd;}
</style>
<g>
	<g transform="matrix(0.7425,0,0,0.7425,0,0)">
		<line vector-effect="none" class="st0" x1="198.2" y1="72.4" x2="198.2" y2="104.4"/>
	</g>
	<g transform="matrix(0.7425,0,0,0.7425,0,0)">
		<line vector-effect="none" class="st0" x1="295.5" y1="72.4" x2="295.5" y2="104.4"/>
	</g>
	<g transform="matrix(0.7425,0,0,0.7425,0,0)">
		<line vector-effect="none" class="st0" x1="442.5" y1="72.4" x2="442.5" y2="104.4"/>
	</g>
	<g transform="matrix(0.7425,0,0,0.7425,0,0)">
		<line vector-effect="none" class="st0" x1="589.2" y1="72.4" x2="589.2" y2="104.4"/>
	</g>
	<g transform="matrix(0.7425,0,0,0.7425,0,0)">
		<line vector-effect="none" class="st0" x1="725" y1="72.4" x2="725" y2="104.4"/>
	</g>
	<g transform="matrix(0.7425,0,0,0.7425,0,0)">
		<line vector-effect="none" class="st0" x1="822.5" y1="72.4" x2="822.5" y2="104.4"/>
	</g>
	<g transform="matrix(0.7425,0,0,0.7425,0,0)">
		<line vector-effect="none" class="st0" x1="969.2" y1="72.4" x2="969.2" y2="104.4"/>
	</g>
	<g transform="matrix(0.7425,0,0,0.7425,0,0)">
	</g>
	<g transform="matrix(0.7425,0,0,0.7425,178.2,102.19)">
	</g>
	<g transform="matrix(0.7425,0,0,0.7425,178.2,102.19)">
		<g class="st1">
			<path d="M-173.5-85c-3.5,0-5.9-2.4-5.9-5.9c0-3.4,2.5-6.4,6-6.4c1.2,0,3.2,0.7,3.4,0.7c0.3,0,0.5-0.2,0.7-0.7h0.6v4.2h-0.5
				c-0.4-2.1-1.8-3.4-3.9-3.4c-2.7,0-4.3,2.2-4.3,5.4c0,3.2,1.7,5.3,4.4,5.3c1.6,0,2.9-0.6,4-1.9l0.3,0.5
				C-169.8-85.7-171.4-85-173.5-85z"/>
			<path d="M-158.9-89.8v-0.3c0.7,0,1-0.2,1-1.2v-3.7c0-0.9-0.4-1.3-1.2-1.3c-0.6,0-1.3,0.3-1.8,1c0.1,0.1,0.1,0.5,0.1,1.1v1.6
				c0,0.8,0,1.2,0,1.2c0,1.1,0.2,1.3,1,1.3v0.3h-3.4v-0.3c0.7,0,1-0.2,1-1.2v-3.7c0-0.9-0.4-1.3-1.1-1.3c-0.6,0-1.2,0.3-1.8,1v4.1
				c0,0.9,0.3,1.1,1,1.1v0.3h-3.4v-0.3c0.9,0,1-0.3,1-1.3v-4c0-0.4-0.1-0.6-0.3-0.6h-0.8v-0.3l2.4-0.8v1.3c0.7-0.9,1.5-1.3,2.5-1.3
				c0.9,0,1.4,0.4,1.6,1.3c0.8-0.9,1.7-1.3,2.7-1.3c0.5,0,0.9,0.1,1.2,0.4c0.3,0.3,0.6,1.3,0.6,1.8v3.5c0,1.1,0.2,1.3,1,1.3v0.3
				H-158.9z"/>
			<path d="M-148.6-90.6c-0.5,0.6-1,0.9-1.5,0.9c-0.6,0-0.9-0.4-1-1.2c-1,0.8-1.8,1.2-2.5,1.2c-0.9,0-1.5-0.9-1.5-1.7
				c0-1.4,0.9-2.2,3.9-3.1v-1c0-0.9-0.4-1.3-1.2-1.3c-0.6,0-1.1,0.3-1.1,0.8c0,0.1,0.1,0.5,0.1,0.6c0,0.4-0.4,0.7-0.7,0.7
				c-0.4,0-0.6-0.2-0.6-0.7c0-1,1.4-1.8,2.6-1.8c1.4,0,2.3,0.8,2.3,2.3v3.6c0,0.4,0.1,0.6,0.4,0.6c0.2,0,0.5-0.1,0.8-0.4V-90.6z
				 M-151.1-94c-0.9,0.3-1.5,0.5-1.7,0.6c-0.6,0.3-0.8,0.8-0.8,1.5c0,0.7,0.4,1.3,1,1.3c0.4,0,0.9-0.2,1.5-0.6V-94z"/>
			<path d="M-147.8-96.4l2.6-0.9v6.8c0,2.7-0.9,4-2.6,4c-0.8,0-1.5-0.3-1.5-1c0-0.4,0.2-0.6,0.6-0.6c0.4,0,1.2,1,1.6,1
				c0.4,0,0.6-0.6,0.6-1.8v-6.2c0-0.6-0.2-1-0.5-1c-0.1,0-0.4,0-0.7,0.1V-96.4z M-145.9-99.3c-0.4,0-0.8-0.4-0.8-0.8
				c0-0.4,0.4-0.8,0.8-0.8s0.8,0.4,0.8,0.8C-145.1-99.7-145.5-99.3-145.9-99.3z"/>
			<path d="M-141.6-89.8h-0.7l2.4-7.4h-2.5c-0.7,0-1.2,0.4-1.5,1.1l-0.2-0.1l0.7-2h4.6L-141.6-89.8z"/>
		</g>
	</g>
	<g transform="matrix(0.7425,0,0,0.7425,178.2,102.19)">
	</g>
	<g transform="matrix(0.7425,0,0,0.7425,0,0)">
	</g>
	<g transform="matrix(0.7425,0,0,0.7425,886.545,102.19)">
	</g>
	<g transform="matrix(0.7425,0,0,0.7425,886.545,102.19)">
		<g class="st1">
			<path d="M-889-85c-3.5,0-5.9-2.4-5.9-5.9c0-3.4,2.5-6.4,6-6.4c1.2,0,3.2,0.7,3.4,0.7c0.3,0,0.5-0.2,0.7-0.7h0.6v4.2h-0.5
				c-0.4-2.1-1.8-3.4-3.9-3.4c-2.7,0-4.3,2.2-4.3,5.4c0,3.2,1.7,5.3,4.4,5.3c1.6,0,2.9-0.6,4-1.9l0.3,0.5
				C-885.3-85.7-886.9-85-889-85z"/>
			<path d="M-874.4-85.2v-0.3c0.7,0,1-0.2,1-1.2v-3.7c0-0.9-0.4-1.3-1.2-1.3c-0.6,0-1.3,0.3-1.8,1c0.1,0.1,0.1,0.5,0.1,1.1v1.6
				c0,0.8,0,1.2,0,1.2c0,1.1,0.2,1.3,1,1.3v0.3h-3.4v-0.3c0.7,0,1-0.2,1-1.2v-3.7c0-0.9-0.4-1.3-1.1-1.3c-0.6,0-1.2,0.3-1.8,1v4.1
				c0,0.9,0.3,1.1,1,1.1v0.3h-3.4v-0.3c0.9,0,1-0.3,1-1.3v-4c0-0.4-0.1-0.6-0.3-0.6h-0.8v-0.3l2.4-0.8v1.3c0.7-0.9,1.5-1.3,2.5-1.3
				c0.9,0,1.4,0.4,1.6,1.3c0.8-0.9,1.7-1.3,2.7-1.3c0.5,0,0.9,0.1,1.2,0.4c0.3,0.3,0.6,1.3,0.6,1.8v3.6c0,1.1,0.2,1.3,1,1.3v0.3
				H-874.4z"/>
			<path d="M-868-89.8h-0.7l2.4-7.4h-2.5c-0.7,0-1.2,0.4-1.5,1.1l-0.2-0.1l0.7-2h4.6L-868-89.8z"/>
		</g>
	</g>
	<g transform="matrix(0.7425,0,0,0.7425,886.545,102.19)">
	</g>
	<g transform="matrix(0.7425,0,0,0.7425,0,0)">
	</g>
	<g transform="matrix(0.7425,0,0,0.7425,1343.92,102.19)">
	</g>
	<g transform="matrix(0.7425,0,0,0.7425,1343.92,102.19)">
		<g class="st1">
			<path d="M-1353.8-91.7h2.2c1.1,0,1.4-0.5,1.5-1.6h0.3v4h-0.3c0-1.2-0.4-1.7-1.5-1.7h-2.2v3.7c0,1.5,0.2,1.8,1.7,1.8v0.3h-5v-0.3
				c1.5,0,1.7-0.3,1.7-1.8v-7.6c0-1.5-0.2-1.8-1.7-1.8V-97h8.9v2.6h-0.3c-0.4-1.6-1-2-2.6-2h-2.6V-91.7z"/>
			<path d="M-1344.4-89.8h-0.7l2.4-7.4h-2.5c-0.7,0-1.2,0.4-1.5,1.1l-0.2-0.1l0.7-2h4.6L-1344.4-89.8z"/>
		</g>
	</g>
	<g transform="matrix(0.7425,0,0,0.7425,1343.92,102.19)">
	</g>
	<g transform="matrix(0.7425,0,0,0.7425,0,0)">
	</g>
	<g transform="matrix(0.7425,0,0,0.7425,1741.9,102.19)">
	</g>
	<g transform="matrix(0.7425,0,0,0.7425,1741.9,102.19)">
		<g class="st1">
			<path d="M-1748.3-93.5h-0.3c-0.7-2.1-2-3.1-3.9-3.1c-2.7,0-4.4,2.2-4.4,5.4c0,3.2,1.9,5.8,4.5,5.8c0.9,0,1.7-0.2,2.4-0.6v-3.4
				c0-1.3-0.2-1.7-1.5-1.7v-0.4h4.5v0.4c-1.2,0-1.3,0.5-1.3,1.7v3.6c-1.3,0.7-2.6,1-4.1,1c-3.7,0-6.5-2.3-6.5-5.9
				c0-3.4,2.6-6.4,6.2-6.4c0.7,0,1.6,0.2,2.7,0.6c0.3,0.1,0.6,0.2,0.6,0.2c0.3,0,0.4-0.2,0.4-0.7h0.3L-1748.3-93.5z"/>
			<path d="M-1737.8-89.8v-0.3c0.7,0,1-0.2,1-1.2v-3.7c0-0.9-0.4-1.3-1.2-1.3c-0.6,0-1.3,0.3-1.8,1c0.1,0.1,0.1,0.5,0.1,1.1v1.6
				c0,0.8,0,1.2,0,1.2c0,1.1,0.2,1.3,1,1.3v0.3h-3.4v-0.3c0.7,0,1-0.2,1-1.2v-3.7c0-0.9-0.4-1.3-1.1-1.3c-0.6,0-1.2,0.3-1.8,1v4.1
				c0,0.9,0.3,1.1,1,1.1v0.3h-3.4v-0.3c0.9,0,1-0.3,1-1.3v-4c0-0.4-0.1-0.6-0.3-0.6h-0.8v-0.3l2.4-0.8v1.3c0.7-0.9,1.5-1.3,2.5-1.3
				c0.9,0,1.4,0.4,1.6,1.3c0.8-0.9,1.7-1.3,2.7-1.3c0.5,0,0.9,0.1,1.2,0.4c0.3,0.3,0.6,1.3,0.6,1.8v3.5c0,1.1,0.2,1.3,1,1.3v0.3
				H-1737.8z"/>
			<path d="M-1727.5-90.6c-0.5,0.6-1,0.9-1.5,0.9c-0.6,0-0.9-0.4-1-1.2c-1,0.8-1.8,1.2-2.5,1.2c-0.9,0-1.5-0.9-1.5-1.7
				c0-1.4,0.9-2.2,3.9-3.1v-1c0-0.9-0.4-1.3-1.2-1.3c-0.6,0-1.1,0.3-1.1,0.8c0,0.1,0.1,0.5,0.1,0.6c0,0.4-0.4,0.7-0.7,0.7
				c-0.4,0-0.6-0.2-0.6-0.7c0-1,1.4-1.8,2.6-1.8c1.4,0,2.3,0.8,2.3,2.3v3.6c0,0.4,0.1,0.6,0.4,0.6c0.2,0,0.5-0.1,0.8-0.4V-90.6z
				 M-1730-94c-0.9,0.3-1.5,0.5-1.7,0.6c-0.5,0.3-0.8,0.8-0.8,1.5c0,0.7,0.4,1.3,1,1.3c0.4,0,0.9-0.2,1.5-0.6V-94z"/>
			<path d="M-1726.7-96.4l2.6-0.9v6.8c0,2.7-0.9,4-2.6,4c-0.8,0-1.5-0.3-1.5-1c0-0.4,0.2-0.6,0.6-0.6c0.4,0,1.2,1,1.6,1
				c0.4,0,0.6-0.6,0.6-1.8v-6.2c0-0.6-0.2-1-0.5-1c-0.1,0-0.4,0-0.7,0.1V-96.4z M-1724.8-99.3c-0.4,0-0.8-0.4-0.8-0.8
				c0-0.4,0.4-0.8,0.8-0.8s0.8,0.4,0.8,0.8C-1724-99.7-1724.4-99.3-1724.8-99.3z"/>
			<path d="M-1720.5-89.8h-0.7l2.4-7.4h-2.5c-0.7,0-1.2,0.4-1.5,1.1l-0.2-0.1l0.7-2h4.6L-1720.5-89.8z"/>
		</g>
	</g>
	<g transform="matrix(0.7425,0,0,0.7425,1741.9,102.19)">
	</g>
	<g transform="matrix(0.7425,0,0,0.7425,0,0)">
	</g>
	<g transform="matrix(0.7425,0,0,0.7425,2444.31,102.19)">
	</g>
	<g transform="matrix(0.7425,0,0,0.7425,2444.31,102.19)">
		<g class="st1">
			<path d="M-2458.5-88.5c0,1.9-1.9,3.3-3.7,3.3h-6.5v-0.4c1.5,0,1.6-0.3,1.6-1.7v-7.5c0-1.4-0.1-1.8-1.6-1.8V-97h5.9
				c2,0,3.8,1.3,3.8,3.1c0,1.3-0.9,2.2-2.3,2.6C-2459.5-91-2458.5-89.8-2458.5-88.5z M-2460.7-93.9c0-1.3-1-2.3-2.3-2.3h-1.2
				c-0.9,0-1.1,0.3-1.1,1.3v3.2h2.3C-2461.6-91.7-2460.7-92.5-2460.7-93.9z M-2465.1-86.2c0.2,0.2,1.2,0.3,1.9,0.3
				c2.3,0,2.8-1.4,2.8-2.6c0-1.4-1.2-2.3-2.6-2.3h-2.3v4C-2465.3-86.5-2465.2-86.3-2465.1-86.2z"/>
			<path d="M-2457.2-97.9h0.8l-0.1,6.4c0.9-1,1.1-1.1,1.9-1.1c1.3,0,2.2,0.9,2.2,2.3c0,2-2,2.8-3.6,4.1l-1.2,1V-97.9z M-2456.5-90.6
				c-0.1,1.3-0.1,2.1-0.1,2.5c0,0.6,0.1,1.2,0.2,1.5c1.7-1.3,2.5-2.6,2.5-3.7c0-0.9-0.5-1.6-1.3-1.6
				C-2455.8-91.9-2456.1-91.2-2456.5-90.6z"/>
			<path d="M-2443-85.2v-0.3c0.7,0,1-0.2,1-1.2v-3.7c0-0.9-0.4-1.3-1.2-1.3c-0.6,0-1.3,0.3-1.8,1c0.1,0.1,0.1,0.5,0.1,1.1v1.6
				c0,0.8,0,1.2,0,1.2c0,1.1,0.2,1.3,1,1.3v0.3h-3.4v-0.3c0.7,0,1-0.2,1-1.2v-3.7c0-0.9-0.4-1.3-1.1-1.3c-0.6,0-1.2,0.3-1.8,1v4.1
				c0,0.9,0.3,1.1,1,1.1v0.3h-3.4v-0.3c0.9,0,1-0.3,1-1.3v-4c0-0.4-0.1-0.6-0.3-0.6h-0.8v-0.3l2.4-0.8v1.3c0.7-0.9,1.5-1.3,2.5-1.3
				c0.9,0,1.4,0.4,1.6,1.3c0.8-0.9,1.7-1.3,2.7-1.3c0.5,0,0.9,0.1,1.2,0.4c0.3,0.3,0.6,1.3,0.6,1.8v3.6c0,1.1,0.2,1.3,1,1.3v0.3
				H-2443z"/>
			<path d="M-2436.6-89.8h-0.7l2.4-7.4h-2.5c-0.7,0-1.2,0.4-1.5,1.1l-0.2-0.1l0.7-2h4.6L-2436.6-89.8z"/>
		</g>
	</g>
	<g transform="matrix(0.7425,0,0,0.7425,2444.31,102.19)">
	</g>
	<g transform="matrix(0.7425,0,0,0.7425,0,0)">
	</g>
	<g transform="matrix(0.7425,0,0,0.7425,0,0)">
		<line vector-effect="none" class="st0" x1="191.2" y1="162.2" x2="191.2" y2="194.2"/>
	</g>
	<g transform="matrix(0.7425,0,0,0.7425,0,0)">
		<line vector-effect="none" class="st0" x1="195.5" y1="162.2" x2="195.5" y2="194.2"/>
	</g>
	<g transform="matrix(0.7425,0,0,0.7425,0,0)">
		<line vector-effect="none" class="st0" x1="333.8" y1="162.2" x2="333.8" y2="194.2"/>
	</g>
	<g transform="matrix(0.7425,0,0,0.7425,0,0)">
		<line vector-effect="none" class="st0" x1="472.2" y1="162.2" x2="472.2" y2="194.2"/>
	</g>
	<g transform="matrix(0.7425,0,0,0.7425,0,0)">
		<line vector-effect="none" class="st0" x1="610.8" y1="162.2" x2="610.8" y2="194.2"/>
	</g>
	<g transform="matrix(0.7425,0,0,0.7425,0,0)">
		<line vector-effect="none" class="st0" x1="749.2" y1="162.2" x2="749.2" y2="194.2"/>
	</g>
	<g transform="matrix(0.7425,0,0,0.7425,0,0)">
		<line vector-effect="none" class="st0" x1="877.2" y1="162.2" x2="877.2" y2="194.2"/>
	</g>
	<g transform="matrix(0.7425,0,0,0.7425,0,0)">
		<line vector-effect="none" class="st0" x1="969.2" y1="162.2" x2="969.2" y2="194.2"/>
	</g>
	<g transform="matrix(0.7425,0,0,0.7425,0,0)">
	</g>
	<g transform="matrix(0.7425,0,0,0.7425,160.38,368.747)">
	</g>
	<g transform="matrix(0.7425,0,0,0.7425,160.38,368.747)">
		<g class="st1">
			<path d="M-152-354.5h-9.7v-0.4c1.5,0,1.6-0.3,1.6-1.7v-7.5c0-1.4-0.1-1.7-1.6-1.7v-0.4h9.6v2.7h-0.4c-0.1-1.2-0.7-1.8-1.7-1.8
				h-3.1c-0.8,0-1,0.4-1,1.2v3.3h3.1c1,0,1.7-0.7,1.7-1.7h0.4v4.2h-0.4c0-1-0.7-1.7-1.7-1.7h-3.1v3.7c0,0.8,0.2,1.2,1,1.2h3
				c1.2,0,2.3-1,2.6-2.2h0.5L-152-354.5z"/>
			<path d="M-150-367.2h0.8l-0.1,6.4c0.9-1,1.1-1.1,1.9-1.1c1.3,0,2.2,0.9,2.2,2.3c0,2-2,2.8-3.6,4.1l-1.2,1V-367.2z M-149.2-359.9
				c-0.1,1.3-0.1,2.1-0.1,2.5c0,0.6,0.1,1.2,0.2,1.5c1.7-1.3,2.5-2.6,2.5-3.7c0-0.9-0.5-1.6-1.3-1.6
				C-148.6-361.1-148.9-360.4-149.2-359.9z"/>
			<path d="M-141.6-359.1h-0.7l2.4-7.4h-2.5c-0.7,0-1.2,0.4-1.5,1.1l-0.2-0.1l0.7-2h4.6L-141.6-359.1z"/>
		</g>
	</g>
	<g transform="matrix(0.7425,0,0,0.7425,160.38,368.747)">
	</g>
	<g transform="matrix(0.7425,0,0,0.7425,0,0)">
	</g>
	<g transform="matrix(0.7425,0,0,0.7425,588.802,368.747)">
	</g>
	<g transform="matrix(0.7425,0,0,0.7425,588.802,368.747)">
		<g class="st1">
			<path d="M-586.6-354.5v-0.4c0.8,0,1.2-0.2,1.2-0.7c0-0.5-0.5-1.7-0.9-2.7h-4.7c-0.5,1-1,2.3-1,2.7c0,0.4,0.4,0.7,1.2,0.7v0.4
				h-3.6v-0.4c0.7-0.1,1.2-0.4,1.6-1.2l4.4-10.4h0.5l4.1,9.8c0.7,1.6,0.9,1.7,1.7,1.8v0.4H-586.6z M-590.7-359.1h4l-2.1-4.7
				L-590.7-359.1z"/>
			<path d="M-573.1-354.5v-0.3c0.7,0,1-0.2,1-1.2v-3.7c0-0.9-0.4-1.3-1.2-1.3c-0.6,0-1.3,0.3-1.8,1c0.1,0.1,0.1,0.5,0.1,1.1v1.6
				c0,0.8,0,1.2,0,1.2c0,1.1,0.2,1.3,1,1.3v0.3h-3.4v-0.3c0.7,0,1-0.2,1-1.2v-3.7c0-0.9-0.4-1.3-1.1-1.3c-0.6,0-1.2,0.3-1.8,1v4.1
				c0,0.9,0.3,1.1,1,1.1v0.3h-3.4v-0.3c0.9,0,1-0.3,1-1.3v-4c0-0.4-0.1-0.6-0.3-0.6h-0.8v-0.3l2.4-0.8v1.3c0.7-0.9,1.5-1.3,2.5-1.3
				c0.9,0,1.4,0.4,1.6,1.3c0.8-0.9,1.7-1.3,2.7-1.3c0.5,0,0.9,0.1,1.2,0.4c0.3,0.3,0.6,1.3,0.6,1.8v3.6c0,1.1,0.2,1.3,1,1.3v0.3
				H-573.1z"/>
			<path d="M-566.7-359.1h-0.7l2.4-7.4h-2.5c-0.7,0-1.2,0.4-1.5,1.1l-0.2-0.1l0.7-2h4.6L-566.7-359.1z"/>
		</g>
	</g>
	<g transform="matrix(0.7425,0,0,0.7425,588.802,368.747)">
	</g>
	<g transform="matrix(0.7425,0,0,0.7425,0,0)">
	</g>
	<g transform="matrix(0.7425,0,0,0.7425,1017.97,368.747)">
	</g>
	<g transform="matrix(0.7425,0,0,0.7425,1017.97,368.747)">
		<g class="st1">
			<path d="M-1023-354.5h-5v-0.4c1.5,0,1.6-0.3,1.6-1.7v-7.5c0-1.4-0.1-1.7-1.6-1.7v-0.4h5.6c0.8,0,1.7,0.2,2.6,0.5
				c2.5,0.9,3.7,2.7,3.7,5.4C-1016-356.6-1018.7-354.5-1023-354.5z M-1023.1-365.6c-1.4,0-1.4,0.2-1.4,1.6v7.1c0,1.4,0,1.6,1.5,1.6
				c3.3,0,5.1-1.8,5.1-5C-1018-363.5-1019.8-365.6-1023.1-365.6z"/>
			<path d="M-1012.8-359.1h-0.7l2.4-7.4h-2.5c-0.7,0-1.2,0.4-1.5,1.1l-0.2-0.1l0.7-2h4.6L-1012.8-359.1z"/>
		</g>
	</g>
	<g transform="matrix(0.7425,0,0,0.7425,1017.97,368.747)">
	</g>
	<g transform="matrix(0.7425,0,0,0.7425,0,0)">
	</g>
	<g transform="matrix(0.7425,0,0,0.7425,1413.72,368.747)">
	</g>
	<g transform="matrix(0.7425,0,0,0.7425,1413.72,368.747)">
		<g class="st1">
			<path d="M-1417.5-357.8c0,1.9-1.9,3.3-3.7,3.3h-6.5v-0.4c1.5,0,1.6-0.3,1.6-1.7v-7.5c0-1.4-0.1-1.8-1.6-1.8v-0.4h5.9
				c2,0,3.8,1.3,3.8,3.1c0,1.3-0.9,2.2-2.3,2.6C-1418.5-360.2-1417.5-359-1417.5-357.8z M-1419.7-363.1c0-1.3-1-2.3-2.3-2.3h-1.2
				c-0.9,0-1.1,0.3-1.1,1.3v3.2h2.3C-1420.6-360.9-1419.7-361.8-1419.7-363.1z M-1424.1-355.5c0.2,0.2,1.2,0.3,1.9,0.3
				c2.3,0,2.8-1.4,2.8-2.6c0-1.4-1.2-2.3-2.6-2.3h-2.3v4C-1424.3-355.8-1424.2-355.5-1424.1-355.5z"/>
			<path d="M-1408.3-354.5v-0.3c0.7,0,1-0.2,1-1.2v-3.7c0-0.9-0.4-1.3-1.2-1.3c-0.6,0-1.3,0.3-1.8,1c0.1,0.1,0.1,0.5,0.1,1.1v1.6
				c0,0.8,0,1.2,0,1.2c0,1.1,0.2,1.3,1,1.3v0.3h-3.4v-0.3c0.7,0,1-0.2,1-1.2v-3.7c0-0.9-0.4-1.3-1.1-1.3c-0.6,0-1.2,0.3-1.8,1v4.1
				c0,0.9,0.3,1.1,1,1.1v0.3h-3.4v-0.3c0.9,0,1-0.3,1-1.3v-4c0-0.4-0.1-0.6-0.3-0.6h-0.8v-0.3l2.4-0.8v1.3c0.7-0.9,1.5-1.3,2.5-1.3
				c0.9,0,1.4,0.4,1.6,1.3c0.8-0.9,1.7-1.3,2.7-1.3c0.5,0,0.9,0.1,1.2,0.4c0.3,0.3,0.6,1.3,0.6,1.8v3.6c0,1.1,0.2,1.3,1,1.3v0.3
				H-1408.3z"/>
			<path d="M-1402-359.1h-0.7l2.4-7.4h-2.5c-0.7,0-1.2,0.4-1.5,1.1l-0.2-0.1l0.7-2h4.6L-1402-359.1z"/>
		</g>
	</g>
	<g transform="matrix(0.7425,0,0,0.7425,1413.72,368.747)">
	</g>
	<g transform="matrix(0.7425,0,0,0.7425,0,0)">
	</g>
	<g transform="matrix(0.7425,0,0,0.7425,1824.32,368.747)">
	</g>
	<g transform="matrix(0.7425,0,0,0.7425,1824.32,368.747)">
		<g class="st1">
			<path d="M-1832.7-354.5h-9.7v-0.4c1.5,0,1.6-0.3,1.6-1.7v-7.5c0-1.4-0.1-1.7-1.6-1.7v-0.4h9.6v2.7h-0.4c-0.1-1.2-0.7-1.8-1.7-1.8
				h-3.1c-0.8,0-1,0.4-1,1.2v3.3h3.1c1,0,1.7-0.7,1.7-1.7h0.4v4.2h-0.4c0-1-0.7-1.7-1.7-1.7h-3.1v3.7c0,0.8,0.2,1.2,1,1.2h3
				c1.2,0,2.3-1,2.6-2.2h0.5L-1832.7-354.5z"/>
			<path d="M-1822.8-354.5v-0.3c0.7,0,1-0.2,1-1.2v-3.7c0-0.9-0.4-1.3-1.2-1.3c-0.6,0-1.3,0.3-1.8,1c0.1,0.1,0.1,0.5,0.1,1.1v1.6
				c0,0.8,0,1.2,0,1.2c0,1.1,0.2,1.3,1,1.3v0.3h-3.4v-0.3c0.7,0,1-0.2,1-1.2v-3.7c0-0.9-0.4-1.3-1.1-1.3c-0.6,0-1.2,0.3-1.8,1v4.1
				c0,0.9,0.3,1.1,1,1.1v0.3h-3.4v-0.3c0.9,0,1-0.3,1-1.3v-4c0-0.4-0.1-0.6-0.3-0.6h-0.8v-0.3l2.4-0.8v1.3c0.7-0.9,1.5-1.3,2.5-1.3
				c0.9,0,1.4,0.4,1.6,1.3c0.8-0.9,1.7-1.3,2.7-1.3c0.5,0,0.9,0.1,1.2,0.4c0.3,0.3,0.6,1.3,0.6,1.8v3.6c0,1.1,0.2,1.3,1,1.3v0.3
				H-1822.8z"/>
			<path d="M-1816.5-359.1h-0.7l2.4-7.4h-2.5c-0.7,0-1.2,0.4-1.5,1.1l-0.2-0.1l0.7-2h4.6L-1816.5-359.1z"/>
		</g>
	</g>
	<g transform="matrix(0.7425,0,0,0.7425,1824.32,368.747)">
	</g>
	<g transform="matrix(0.7425,0,0,0.7425,0,0)">
	</g>
	<g transform="matrix(0.7425,0,0,0.7425,2251.26,368.747)">
	</g>
	<g transform="matrix(0.7425,0,0,0.7425,2251.26,368.747)">
		<g class="st1">
			<path d="M-2265.9-354.5v-0.4c0.8,0,1.2-0.2,1.2-0.7c0-0.5-0.5-1.7-0.9-2.7h-4.7c-0.5,1-1,2.3-1,2.7c0,0.4,0.4,0.7,1.2,0.7v0.4
				h-3.6v-0.4c0.7-0.1,1.2-0.4,1.6-1.2l4.4-10.4h0.5l4.1,9.8c0.7,1.6,0.9,1.7,1.7,1.8v0.4H-2265.9z M-2269.9-359.1h4l-2.1-4.7
				L-2269.9-359.1z"/>
			<path d="M-2258.2-359.1h-0.7l2.4-7.4h-2.5c-0.7,0-1.2,0.4-1.5,1.1l-0.2-0.1l0.7-2h4.6L-2258.2-359.1z"/>
		</g>
	</g>
	<g transform="matrix(0.7425,0,0,0.7425,2251.26,368.747)">
	</g>
	<g transform="matrix(0.7425,0,0,0.7425,0,0)">
	</g>
	<g transform="matrix(0.7425,0,0,0.7425,0,0)">
		<line vector-effect="none" class="st0" x1="234.2" y1="251.9" x2="234.2" y2="283.9"/>
	</g>
	<g transform="matrix(0.7425,0,0,0.7425,0,0)">
		<line vector-effect="none" class="st0" x1="483" y1="251.9" x2="483" y2="283.9"/>
	</g>
	<g transform="matrix(0.7425,0,0,0.7425,0,0)">
		<line vector-effect="none" class="st0" x1="487.2" y1="251.9" x2="487.2" y2="283.9"/>
	</g>
	<g transform="matrix(0.7425,0,0,0.7425,0,0)">
		<line vector-effect="none" class="st0" x1="659.8" y1="251.9" x2="659.8" y2="283.9"/>
	</g>
	<g transform="matrix(0.7425,0,0,0.7425,0,0)">
		<line vector-effect="none" class="st0" x1="782.5" y1="251.9" x2="782.5" y2="283.9"/>
	</g>
	<g transform="matrix(0.7425,0,0,0.7425,0,0)">
		<line vector-effect="none" class="st0" x1="969.2" y1="251.9" x2="969.2" y2="283.9"/>
	</g>
	<g transform="matrix(0.7425,0,0,0.7425,0,0)">
	</g>
	<g transform="matrix(0.7425,0,0,0.7425,149.242,635.305)">
	</g>
	<g transform="matrix(0.7425,0,0,0.7425,149.242,635.305)">
		<g class="st1">
			<path d="M-142.6-623.7v-0.4c0.8,0,1.2-0.2,1.2-0.7c0-0.5-0.5-1.7-0.9-2.7h-4.7c-0.5,1-1,2.3-1,2.7c0,0.4,0.4,0.7,1.2,0.7v0.4
				h-3.6v-0.4c0.7-0.1,1.2-0.4,1.6-1.2l4.4-10.4h0.5l4.1,9.8c0.7,1.6,0.9,1.7,1.7,1.8v0.4H-142.6z M-146.7-628.4h4l-2.1-4.7
				L-146.7-628.4z"/>
			<path d="M-129.1-623.7v-0.3c0.7,0,1-0.2,1-1.2v-3.7c0-0.9-0.4-1.3-1.2-1.3c-0.6,0-1.3,0.3-1.8,1c0.1,0.1,0.1,0.5,0.1,1.1v1.6
				c0,0.8,0,1.2,0,1.2c0,1.1,0.2,1.3,1,1.3v0.3h-3.4v-0.3c0.7,0,1-0.2,1-1.2v-3.7c0-0.9-0.4-1.3-1.1-1.3c-0.6,0-1.2,0.3-1.8,1v4.1
				c0,0.9,0.3,1.1,1,1.1v0.3h-3.4v-0.3c0.9,0,1-0.3,1-1.3v-4c0-0.4-0.1-0.6-0.3-0.6h-0.8v-0.3l2.4-0.8v1.3c0.7-0.9,1.5-1.3,2.5-1.3
				c0.9,0,1.4,0.4,1.6,1.3c0.8-0.9,1.7-1.3,2.7-1.3c0.5,0,0.9,0.1,1.2,0.4c0.3,0.3,0.6,1.3,0.6,1.8v3.6c0,1.1,0.2,1.3,1,1.3v0.3
				H-129.1z"/>
			<path d="M-122.7-628.3h-0.7l2.4-7.4h-2.5c-0.7,0-1.2,0.4-1.5,1.1l-0.2-0.1l0.7-2h4.6L-122.7-628.3z"/>
		</g>
	</g>
	<g transform="matrix(0.7425,0,0,0.7425,149.242,635.305)">
	</g>
	<g transform="matrix(0.7425,0,0,0.7425,0,0)">
	</g>
	<g transform="matrix(0.7425,0,0,0.7425,722.452,635.305)">
	</g>
	<g transform="matrix(0.7425,0,0,0.7425,722.452,635.305)">
		<g class="st1">
			<path d="M-724.5-623.7h-5v-0.4c1.5,0,1.6-0.3,1.6-1.7v-7.5c0-1.4-0.1-1.7-1.6-1.7v-0.4h5.6c0.8,0,1.7,0.2,2.6,0.5
				c2.5,0.9,3.7,2.7,3.7,5.4C-717.5-625.9-720.2-623.7-724.5-623.7z M-724.6-634.8c-1.4,0-1.4,0.2-1.4,1.6v7.1c0,1.4,0,1.6,1.5,1.6
				c3.3,0,5.1-1.8,5.1-5C-719.5-632.8-721.3-634.8-724.6-634.8z"/>
			<path d="M-714.3-628.3h-0.7l2.4-7.4h-2.5c-0.7,0-1.2,0.4-1.5,1.1l-0.2-0.1l0.7-2h4.6L-714.3-628.3z"/>
		</g>
	</g>
	<g transform="matrix(0.7425,0,0,0.7425,722.452,635.305)">
	</g>
	<g transform="matrix(0.7425,0,0,0.7425,0,0)">
	</g>
	<g transform="matrix(0.7425,0,0,0.7425,1056.58,635.305)">
	</g>
	<g transform="matrix(0.7425,0,0,0.7425,1056.58,635.305)">
		<g class="st1">
			<path d="M-1062-623.7h-5v-0.4c1.5,0,1.6-0.3,1.6-1.7v-7.5c0-1.4-0.1-1.7-1.6-1.7v-0.4h5.6c0.8,0,1.7,0.2,2.6,0.5
				c2.5,0.9,3.7,2.7,3.7,5.4C-1055-625.9-1057.7-623.7-1062-623.7z M-1062.1-634.8c-1.4,0-1.4,0.2-1.4,1.6v7.1c0,1.4,0,1.6,1.5,1.6
				c3.3,0,5.1-1.8,5.1-5C-1057-632.8-1058.8-634.8-1062.1-634.8z"/>
			<path d="M-1053.8-636.4h0.8l-0.1,6.4c0.9-1,1.1-1.1,1.9-1.1c1.3,0,2.2,0.9,2.2,2.3c0,2-2,2.8-3.6,4.1l-1.2,1V-636.4z
				 M-1053-629.1c-0.1,1.3-0.1,2.1-0.1,2.5c0,0.6,0.1,1.2,0.2,1.5c1.7-1.3,2.5-2.6,2.5-3.7c0-0.9-0.5-1.6-1.3-1.6
				C-1052.4-630.4-1052.7-629.7-1053-629.1z"/>
			<path d="M-1045.5-628.3h-0.7l2.4-7.4h-2.5c-0.7,0-1.2,0.4-1.5,1.1l-0.2-0.1l0.7-2h4.6L-1045.5-628.3z"/>
		</g>
	</g>
	<g transform="matrix(0.7425,0,0,0.7425,1056.58,635.305)">
	</g>
	<g transform="matrix(0.7425,0,0,0.7425,0,0)">
	</g>
	<g transform="matrix(0.7425,0,0,0.7425,1439.71,635.305)">
	</g>
	<g transform="matrix(0.7425,0,0,0.7425,1439.71,635.305)">
		<g class="st1">
			<path d="M-1447.7-623.5c-3.5,0-5.9-2.4-5.9-5.9c0-3.4,2.5-6.4,6-6.4c1.2,0,3.2,0.7,3.4,0.7c0.3,0,0.5-0.2,0.7-0.7h0.6v4.2h-0.5
				c-0.4-2.1-1.8-3.4-3.9-3.4c-2.7,0-4.3,2.2-4.3,5.4c0,3.2,1.7,5.3,4.4,5.3c1.6,0,2.9-0.6,4-1.9l0.3,0.5
				C-1444.1-624.2-1445.7-623.5-1447.7-623.5z"/>
			<path d="M-1433.1-628.4v-0.3c0.7,0,1-0.2,1-1.2v-3.7c0-0.9-0.4-1.3-1.2-1.3c-0.6,0-1.3,0.3-1.8,1c0.1,0.1,0.1,0.5,0.1,1.1v1.6
				c0,0.8,0,1.2,0,1.2c0,1.1,0.2,1.3,1,1.3v0.3h-3.4v-0.3c0.7,0,1-0.2,1-1.2v-3.7c0-0.9-0.4-1.3-1.1-1.3c-0.6,0-1.2,0.3-1.8,1v4.1
				c0,0.9,0.3,1.1,1,1.1v0.3h-3.4v-0.3c0.9,0,1-0.3,1-1.3v-4c0-0.4-0.1-0.6-0.3-0.6h-0.8v-0.3l2.4-0.8v1.3c0.7-0.9,1.5-1.3,2.5-1.3
				c0.9,0,1.4,0.4,1.6,1.3c0.8-0.9,1.7-1.3,2.7-1.3c0.5,0,0.9,0.1,1.2,0.4c0.3,0.3,0.6,1.3,0.6,1.8v3.5c0,1.1,0.2,1.3,1,1.3v0.3
				H-1433.1z"/>
			<path d="M-1422.8-629.1c-0.5,0.6-1,0.9-1.5,0.9c-0.6,0-0.9-0.4-1-1.2c-1,0.8-1.8,1.2-2.5,1.2c-0.9,0-1.5-0.9-1.5-1.7
				c0-1.4,0.9-2.2,3.9-3.1v-1c0-0.9-0.4-1.3-1.2-1.3c-0.5,0-1.1,0.3-1.1,0.8c0,0.1,0.1,0.5,0.1,0.6c0,0.4-0.4,0.7-0.7,0.7
				c-0.4,0-0.6-0.2-0.6-0.7c0-1,1.4-1.8,2.6-1.8c1.4,0,2.3,0.8,2.3,2.3v3.6c0,0.4,0.1,0.6,0.4,0.6c0.2,0,0.5-0.1,0.8-0.4V-629.1z
				 M-1425.3-632.5c-0.9,0.3-1.5,0.5-1.7,0.6c-0.6,0.3-0.8,0.8-0.8,1.5c0,0.7,0.4,1.3,1,1.3c0.4,0,0.9-0.2,1.5-0.6V-632.5z"/>
			<path d="M-1422-634.9l2.6-0.9v6.8c0,2.7-0.9,4-2.6,4c-0.8,0-1.5-0.3-1.5-1c0-0.4,0.2-0.6,0.6-0.6c0.4,0,1.2,1,1.6,1
				c0.4,0,0.6-0.6,0.6-1.8v-6.2c0-0.6-0.2-1-0.5-1c-0.1,0-0.4,0-0.7,0.1V-634.9z M-1420.1-637.8c-0.4,0-0.8-0.4-0.8-0.8
				c0-0.4,0.4-0.8,0.8-0.8s0.8,0.4,0.8,0.8C-1419.3-638.2-1419.7-637.8-1420.1-637.8z"/>
			<path d="M-1415.8-628.3h-0.7l2.4-7.4h-2.5c-0.7,0-1.2,0.4-1.5,1.1l-0.2-0.1l0.7-2h4.6L-1415.8-628.3z"/>
		</g>
	</g>
	<g transform="matrix(0.7425,0,0,0.7425,1439.71,635.305)">
	</g>
	<g transform="matrix(0.7425,0,0,0.7425,0,0)">
	</g>
	<g transform="matrix(0.7425,0,0,0.7425,2332.93,635.305)">
	</g>
	<g transform="matrix(0.7425,0,0,0.7425,2332.93,635.305)">
		<g class="st1">
			<path d="M-2350-623.5c-3.5,0-5.9-2.4-5.9-5.9c0-3.4,2.5-6.4,6-6.4c1.2,0,3.2,0.7,3.4,0.7c0.3,0,0.5-0.2,0.7-0.7h0.6v4.2h-0.5
				c-0.4-2.1-1.8-3.4-3.9-3.4c-2.7,0-4.3,2.2-4.3,5.4c0,3.2,1.7,5.3,4.4,5.3c1.6,0,2.9-0.6,4-1.9l0.3,0.5
				C-2346.3-624.2-2347.9-623.5-2350-623.5z"/>
			<path d="M-2335.4-623.7v-0.3c0.7,0,1-0.2,1-1.2v-3.7c0-0.9-0.4-1.3-1.2-1.3c-0.6,0-1.3,0.3-1.8,1c0.1,0.1,0.1,0.5,0.1,1.1v1.6
				c0,0.8,0,1.2,0,1.2c0,1.1,0.2,1.3,1,1.3v0.3h-3.4v-0.3c0.7,0,1-0.2,1-1.2v-3.7c0-0.9-0.4-1.3-1.1-1.3c-0.6,0-1.2,0.3-1.8,1v4.1
				c0,0.9,0.3,1.1,1,1.1v0.3h-3.4v-0.3c0.9,0,1-0.3,1-1.3v-4c0-0.4-0.1-0.6-0.3-0.6h-0.8v-0.3l2.4-0.8v1.3c0.7-0.9,1.5-1.3,2.5-1.3
				c0.9,0,1.4,0.4,1.6,1.3c0.8-0.9,1.7-1.3,2.7-1.3c0.5,0,0.9,0.1,1.2,0.4c0.3,0.3,0.6,1.3,0.6,1.8v3.6c0,1.1,0.2,1.3,1,1.3v0.3
				H-2335.4z"/>
			<path d="M-2329-628.3h-0.7l2.4-7.4h-2.5c-0.7,0-1.2,0.4-1.5,1.1l-0.2-0.1l0.7-2h4.6L-2329-628.3z"/>
		</g>
	</g>
	<g transform="matrix(0.7425,0,0,0.7425,2332.93,635.305)">
	</g>
	<g transform="matrix(0.7425,0,0,0.7425,0,0)">
	</g>
	<g transform="matrix(0.7425,0,0,0.7425,0,0)">
		<line vector-effect="none" class="st0" x1="246.8" y1="341.7" x2="246.8" y2="373.7"/>
	</g>
	<g transform="matrix(0.7425,0,0,0.7425,0,0)">
		<line vector-effect="none" class="st0" x1="430.8" y1="341.7" x2="430.8" y2="373.7"/>
	</g>
	<g transform="matrix(0.7425,0,0,0.7425,0,0)">
		<line vector-effect="none" class="st0" x1="561.2" y1="341.7" x2="561.2" y2="373.7"/>
	</g>
	<g transform="matrix(0.7425,0,0,0.7425,0,0)">
		<line vector-effect="none" class="st0" x1="760.5" y1="341.7" x2="760.5" y2="373.7"/>
	</g>
	<g transform="matrix(0.7425,0,0,0.7425,0,0)">
		<line vector-effect="none" class="st0" x1="965" y1="341.7" x2="965" y2="373.7"/>
	</g>
	<g transform="matrix(0.7425,0,0,0.7425,0,0)">
		<line vector-effect="none" class="st0" x1="969.2" y1="341.7" x2="969.2" y2="373.7"/>
	</g>
	<g transform="matrix(0.7425,0,0,0.7425,0,0)">
	</g>
	<g transform="matrix(0.7425,0,0,0.7425,170.775,901.862)">
	</g>
	<g transform="matrix(0.7425,0,0,0.7425,170.775,901.862)">
		<g class="st1">
			<path d="M-168.8-899.5h2.2c1.1,0,1.4-0.5,1.5-1.6h0.3v4h-0.3c0-1.2-0.4-1.7-1.5-1.7h-2.2v3.7c0,1.5,0.2,1.8,1.7,1.8v0.3h-5v-0.3
				c1.5,0,1.7-0.3,1.7-1.8v-7.6c0-1.5-0.2-1.8-1.7-1.8v-0.3h8.9v2.6h-0.3c-0.4-1.6-1-2-2.6-2h-2.6V-899.5z"/>
			<path d="M-159.4-897.6h-0.7l2.4-7.4h-2.5c-0.7,0-1.2,0.4-1.5,1.1l-0.2-0.1l0.7-2h4.6L-159.4-897.6z"/>
		</g>
	</g>
	<g transform="matrix(0.7425,0,0,0.7425,170.775,901.862)">
	</g>
	<g transform="matrix(0.7425,0,0,0.7425,0,0)">
	</g>
	<g transform="matrix(0.7425,0,0,0.7425,724.68,901.862)">
	</g>
	<g transform="matrix(0.7425,0,0,0.7425,724.68,901.862)">
		<g class="st1">
			<path d="M-720.8-901.3h-0.3c-0.7-2.1-2-3.1-3.9-3.1c-2.7,0-4.4,2.2-4.4,5.4c0,3.2,1.9,5.8,4.5,5.8c0.9,0,1.7-0.2,2.4-0.6v-3.4
				c0-1.3-0.2-1.7-1.5-1.7v-0.4h4.5v0.4c-1.2,0-1.3,0.5-1.3,1.7v3.6c-1.3,0.7-2.6,1-4.1,1c-3.7,0-6.5-2.3-6.5-5.9
				c0-3.4,2.6-6.4,6.2-6.4c0.7,0,1.6,0.2,2.7,0.6c0.3,0.1,0.6,0.2,0.6,0.2c0.3,0,0.4-0.2,0.4-0.7h0.3L-720.8-901.3z"/>
			<path d="M-710.3-897.6v-0.3c0.7,0,1-0.2,1-1.2v-3.7c0-0.9-0.4-1.3-1.2-1.3c-0.6,0-1.3,0.3-1.8,1c0.1,0.1,0.1,0.5,0.1,1.1v1.6
				c0,0.8,0,1.2,0,1.2c0,1.1,0.2,1.3,1,1.3v0.3h-3.4v-0.3c0.7,0,1-0.2,1-1.2v-3.7c0-0.9-0.4-1.3-1.1-1.3c-0.6,0-1.2,0.3-1.8,1v4.1
				c0,0.9,0.3,1.1,1,1.1v0.3h-3.4v-0.3c0.9,0,1-0.3,1-1.3v-4c0-0.4-0.1-0.6-0.3-0.6h-0.8v-0.3l2.4-0.8v1.3c0.7-0.9,1.5-1.3,2.5-1.3
				c0.9,0,1.4,0.4,1.6,1.3c0.8-0.9,1.7-1.3,2.7-1.3c0.5,0,0.9,0.1,1.2,0.4c0.3,0.3,0.6,1.3,0.6,1.8v3.5c0,1.1,0.2,1.3,1,1.3v0.3
				H-710.3z"/>
			<path d="M-700-898.3c-0.5,0.6-1,0.9-1.5,0.9c-0.6,0-0.9-0.4-1-1.2c-1,0.8-1.8,1.2-2.5,1.2c-0.9,0-1.5-0.9-1.5-1.7
				c0-1.4,0.9-2.2,3.9-3.1v-1c0-0.9-0.4-1.3-1.2-1.3c-0.6,0-1.1,0.3-1.1,0.8c0,0.1,0.1,0.5,0.1,0.6c0,0.4-0.4,0.7-0.7,0.7
				c-0.4,0-0.6-0.2-0.6-0.7c0-1,1.4-1.8,2.6-1.8c1.4,0,2.3,0.8,2.3,2.3v3.6c0,0.4,0.1,0.6,0.4,0.6c0.2,0,0.5-0.1,0.8-0.4V-898.3z
				 M-702.5-901.8c-0.9,0.3-1.5,0.5-1.7,0.6c-0.6,0.3-0.8,0.8-0.8,1.5c0,0.7,0.4,1.3,1,1.3c0.4,0,0.9-0.2,1.5-0.6V-901.8z"/>
			<path d="M-699.2-904.2l2.6-0.9v6.8c0,2.7-0.9,4-2.6,4c-0.8,0-1.5-0.3-1.5-1c0-0.4,0.2-0.6,0.6-0.6c0.4,0,1.2,1,1.6,1
				c0.4,0,0.6-0.6,0.6-1.8v-6.2c0-0.6-0.2-1-0.5-1c-0.1,0-0.4,0-0.7,0.1V-904.2z M-697.3-907.1c-0.4,0-0.8-0.4-0.8-0.8
				c0-0.4,0.4-0.8,0.8-0.8c0.4,0,0.8,0.4,0.8,0.8C-696.5-907.5-696.9-907.1-697.3-907.1z"/>
			<path d="M-693-897.6h-0.7l2.4-7.4h-2.5c-0.7,0-1.2,0.4-1.5,1.1l-0.2-0.1l0.7-2h4.6L-693-897.6z"/>
		</g>
	</g>
	<g transform="matrix(0.7425,0,0,0.7425,724.68,901.862)">
	</g>
	<g transform="matrix(0.7425,0,0,0.7425,0,0)">
	</g>
	<g transform="matrix(0.7425,0,0,0.7425,1668.4,901.862)">
	</g>
	<g transform="matrix(0.7425,0,0,0.7425,1668.4,901.862)">
		<g class="st1">
			<path d="M-1674.7-896.2c0,1.9-1.9,3.3-3.7,3.3h-6.5v-0.4c1.5,0,1.6-0.3,1.6-1.7v-7.5c0-1.4-0.1-1.8-1.6-1.8v-0.4h5.9
				c2,0,3.8,1.3,3.8,3.1c0,1.3-0.9,2.2-2.3,2.6C-1675.8-898.7-1674.7-897.5-1674.7-896.2z M-1677-901.6c0-1.3-1-2.3-2.3-2.3h-1.2
				c-0.9,0-1.1,0.3-1.1,1.3v3.2h2.3C-1677.9-899.4-1677-900.3-1677-901.6z M-1681.4-894c0.2,0.2,1.2,0.3,1.9,0.3
				c2.3,0,2.8-1.4,2.8-2.6c0-1.4-1.2-2.3-2.6-2.3h-2.3v4C-1681.5-894.3-1681.5-894-1681.4-894z"/>
			<path d="M-1673.5-905.7h0.8l-0.1,6.4c0.9-1,1.1-1.1,1.9-1.1c1.3,0,2.2,0.9,2.2,2.3c0,2-2,2.8-3.6,4.1l-1.2,1V-905.7z
				 M-1672.7-898.4c-0.1,1.3-0.1,2.1-0.1,2.5c0,0.6,0.1,1.2,0.2,1.5c1.7-1.3,2.5-2.6,2.5-3.7c0-0.9-0.5-1.6-1.3-1.6
				C-1672.1-899.6-1672.4-898.9-1672.7-898.4z"/>
			<path d="M-1659.2-893v-0.3c0.7,0,1-0.2,1-1.2v-3.7c0-0.9-0.4-1.3-1.2-1.3c-0.6,0-1.3,0.3-1.8,1c0.1,0.1,0.1,0.5,0.1,1.1v1.6
				c0,0.8,0,1.2,0,1.2c0,1.1,0.2,1.3,1,1.3v0.3h-3.4v-0.3c0.7,0,1-0.2,1-1.2v-3.7c0-0.9-0.4-1.3-1.1-1.3c-0.6,0-1.2,0.3-1.8,1v4.1
				c0,0.9,0.3,1.1,1,1.1v0.3h-3.4v-0.3c0.9,0,1-0.3,1-1.3v-4c0-0.4-0.1-0.6-0.3-0.6h-0.8v-0.3l2.4-0.8v1.3c0.7-0.9,1.5-1.3,2.5-1.3
				c0.9,0,1.4,0.4,1.6,1.3c0.8-0.9,1.7-1.3,2.7-1.3c0.5,0,0.9,0.1,1.2,0.4c0.3,0.3,0.6,1.3,0.6,1.8v3.6c0,1.1,0.2,1.3,1,1.3v0.3
				H-1659.2z"/>
			<path d="M-1652.9-897.6h-0.7l2.4-7.4h-2.5c-0.7,0-1.2,0.4-1.5,1.1l-0.2-0.1l0.7-2h4.6L-1652.9-897.6z"/>
		</g>
	</g>
	<g transform="matrix(0.7425,0,0,0.7425,1668.4,901.862)">
	</g>
	<g transform="matrix(0.7425,0,0,0.7425,0,0)">
	</g>
	<g transform="matrix(0.7425,0,0,0.7425,2277.99,901.862)">
	</g>
	<g transform="matrix(0.7425,0,0,0.7425,2277.99,901.862)">
		<g class="st1">
			<path d="M-2291-893h-9.7v-0.4c1.5,0,1.6-0.3,1.6-1.7v-7.5c0-1.4-0.1-1.7-1.6-1.7v-0.4h9.6v2.7h-0.4c-0.1-1.2-0.7-1.8-1.7-1.8
				h-3.1c-0.8,0-1,0.4-1,1.2v3.3h3.1c1,0,1.7-0.7,1.7-1.7h0.4v4.2h-0.4c0-1-0.7-1.7-1.7-1.7h-3.1v3.7c0,0.8,0.2,1.2,1,1.2h3
				c1.2,0,2.3-1,2.6-2.2h0.5L-2291-893z"/>
			<path d="M-2289-905.7h0.8l-0.1,6.4c0.9-1,1.1-1.1,1.9-1.1c1.3,0,2.2,0.9,2.2,2.3c0,2-2,2.8-3.6,4.1l-1.2,1V-905.7z
				 M-2288.2-898.4c-0.1,1.3-0.1,2.1-0.1,2.5c0,0.6,0.1,1.2,0.2,1.5c1.7-1.3,2.5-2.6,2.5-3.7c0-0.9-0.5-1.6-1.3-1.6
				C-2287.6-899.6-2287.9-898.9-2288.2-898.4z"/>
			<path d="M-2280.6-897.6h-0.7l2.4-7.4h-2.5c-0.7,0-1.2,0.4-1.5,1.1l-0.2-0.1l0.7-2h4.6L-2280.6-897.6z"/>
		</g>
	</g>
	<g transform="matrix(0.7425,0,0,0.7425,2277.99,901.862)">
	</g>
	<g transform="matrix(0.7425,0,0,0.7425,0,0)">
	</g>
	<g transform="matrix(0.7425,0,0,0.7425,0,0)">
		<line vector-effect="none" class="st0" x1="278" y1="431.4" x2="278" y2="463.4"/>
	</g>
	<g transform="matrix(0.7425,0,0,0.7425,0,0)">
		<line vector-effect="none" class="st0" x1="508.5" y1="431.4" x2="508.5" y2="463.4"/>
	</g>
	<g transform="matrix(0.7425,0,0,0.7425,0,0)">
		<line vector-effect="none" class="st0" x1="738.8" y1="431.4" x2="738.8" y2="463.4"/>
	</g>
	<g transform="matrix(0.7425,0,0,0.7425,0,0)">
		<line vector-effect="none" class="st0" x1="969.2" y1="431.4" x2="969.2" y2="463.4"/>
	</g>
	<g transform="matrix(0.7425,0,0,0.7425,0,0)">
	</g>
	<g transform="matrix(0.7425,0,0,0.7425,149.242,1168.42)">
	</g>
	<g transform="matrix(0.7425,0,0,0.7425,149.242,1168.42)">
		<g class="st1">
			<path d="M-142.6-1162.2v-0.4c0.8,0,1.2-0.2,1.2-0.7c0-0.5-0.5-1.7-0.9-2.7h-4.7c-0.5,1-1,2.3-1,2.7c0,0.4,0.4,0.7,1.2,0.7v0.4
				h-3.6v-0.4c0.7-0.1,1.2-0.4,1.6-1.2l4.4-10.4h0.5l4.1,9.8c0.7,1.6,0.9,1.7,1.7,1.8v0.4H-142.6z M-146.7-1166.8h4l-2.1-4.7
				L-146.7-1166.8z"/>
			<path d="M-129.1-1162.2v-0.3c0.7,0,1-0.2,1-1.2v-3.7c0-0.9-0.4-1.3-1.2-1.3c-0.6,0-1.3,0.3-1.8,1c0.1,0.1,0.1,0.5,0.1,1.1v1.6
				c0,0.8,0,1.2,0,1.2c0,1.1,0.2,1.3,1,1.3v0.3h-3.4v-0.3c0.7,0,1-0.2,1-1.2v-3.7c0-0.9-0.4-1.3-1.1-1.3c-0.6,0-1.2,0.3-1.8,1v4.1
				c0,0.9,0.3,1.1,1,1.1v0.3h-3.4v-0.3c0.9,0,1-0.3,1-1.3v-4c0-0.4-0.1-0.6-0.3-0.6h-0.8v-0.3l2.4-0.8v1.3c0.7-0.9,1.5-1.3,2.5-1.3
				c0.9,0,1.4,0.4,1.6,1.3c0.8-0.9,1.7-1.3,2.7-1.3c0.5,0,0.9,0.1,1.2,0.4c0.3,0.3,0.6,1.3,0.6,1.8v3.6c0,1.1,0.2,1.3,1,1.3v0.3
				H-129.1z"/>
			<path d="M-122.7-1166.8h-0.7l2.4-7.4h-2.5c-0.7,0-1.2,0.4-1.5,1.1l-0.2-0.1l0.7-2h4.6L-122.7-1166.8z"/>
		</g>
	</g>
	<g transform="matrix(0.7425,0,0,0.7425,149.242,1168.42)">
	</g>
	<g transform="matrix(0.7425,0,0,0.7425,0,0)">
	</g>
	<g transform="matrix(0.7425,0,0,0.7425,852.39,1168.42)">
	</g>
	<g transform="matrix(0.7425,0,0,0.7425,852.39,1168.42)">
		<g class="st1">
			<path d="M-855.7-1162.2h-5v-0.4c1.5,0,1.6-0.3,1.6-1.7v-7.5c0-1.4-0.1-1.7-1.6-1.7v-0.4h5.6c0.8,0,1.7,0.2,2.6,0.5
				c2.5,0.9,3.7,2.7,3.7,5.4C-848.8-1164.4-851.4-1162.2-855.7-1162.2z M-855.9-1173.3c-1.4,0-1.4,0.2-1.4,1.6v7.1
				c0,1.4,0,1.6,1.5,1.6c3.3,0,5.1-1.8,5.1-5C-850.7-1171.3-852.6-1173.3-855.9-1173.3z"/>
			<path d="M-845.6-1166.8h-0.7l2.4-7.4h-2.5c-0.7,0-1.2,0.4-1.5,1.1l-0.2-0.1l0.7-2h4.6L-845.6-1166.8z"/>
		</g>
	</g>
	<g transform="matrix(0.7425,0,0,0.7425,852.39,1168.42)">
	</g>
	<g transform="matrix(0.7425,0,0,0.7425,0,0)">
	</g>
	<g transform="matrix(0.7425,0,0,0.7425,1521.38,1168.42)">
	</g>
	<g transform="matrix(0.7425,0,0,0.7425,1521.38,1168.42)">
		<g class="st1">
			<path d="M-1526.2-1165.5c0,1.9-1.9,3.3-3.7,3.3h-6.5v-0.4c1.5,0,1.6-0.3,1.6-1.7v-7.5c0-1.4-0.1-1.8-1.6-1.8v-0.4h5.9
				c2,0,3.8,1.3,3.8,3.1c0,1.3-0.9,2.2-2.3,2.6C-1527.3-1168-1526.2-1166.8-1526.2-1165.5z M-1528.5-1170.9c0-1.3-1-2.3-2.3-2.3
				h-1.2c-0.9,0-1.1,0.3-1.1,1.3v3.2h2.3C-1529.4-1168.7-1528.5-1169.5-1528.5-1170.9z M-1532.9-1163.2c0.2,0.2,1.2,0.3,1.9,0.3
				c2.3,0,2.8-1.4,2.8-2.6c0-1.4-1.2-2.3-2.6-2.3h-2.3v4C-1533-1163.5-1533-1163.3-1532.9-1163.2z"/>
			<path d="M-1517.1-1162.2v-0.3c0.7,0,1-0.2,1-1.2v-3.7c0-0.9-0.4-1.3-1.2-1.3c-0.6,0-1.3,0.3-1.8,1c0.1,0.1,0.1,0.5,0.1,1.1v1.6
				c0,0.8,0,1.2,0,1.2c0,1.1,0.2,1.3,1,1.3v0.3h-3.4v-0.3c0.7,0,1-0.2,1-1.2v-3.7c0-0.9-0.4-1.3-1.1-1.3c-0.6,0-1.2,0.3-1.8,1v4.1
				c0,0.9,0.3,1.1,1,1.1v0.3h-3.4v-0.3c0.9,0,1-0.3,1-1.3v-4c0-0.4-0.1-0.6-0.3-0.6h-0.8v-0.3l2.4-0.8v1.3c0.7-0.9,1.5-1.3,2.5-1.3
				c0.9,0,1.4,0.4,1.6,1.3c0.8-0.9,1.7-1.3,2.7-1.3c0.5,0,0.9,0.1,1.2,0.4c0.3,0.3,0.6,1.3,0.6,1.8v3.6c0,1.1,0.2,1.3,1,1.3v0.3
				H-1517.1z"/>
			<path d="M-1510.7-1166.8h-0.7l2.4-7.4h-2.5c-0.7,0-1.2,0.4-1.5,1.1l-0.2-0.1l0.7-2h4.6L-1510.7-1166.8z"/>
		</g>
	</g>
	<g transform="matrix(0.7425,0,0,0.7425,1521.38,1168.42)">
	</g>
	<g transform="matrix(0.7425,0,0,0.7425,0,0)">
	</g>
	<g transform="matrix(0.7425,0,0,0.7425,2204.48,1168.42)">
	</g>
	<g transform="matrix(0.7425,0,0,0.7425,2204.48,1168.42)">
		<g class="st1">
			<path d="M-2216.7-1162.2h-9.7v-0.4c1.5,0,1.6-0.3,1.6-1.7v-7.5c0-1.4-0.1-1.7-1.6-1.7v-0.4h9.6v2.7h-0.4
				c-0.1-1.2-0.7-1.8-1.7-1.8h-3.1c-0.8,0-1,0.4-1,1.2v3.3h3.1c1,0,1.7-0.7,1.7-1.7h0.4v4.2h-0.4c0-1-0.7-1.7-1.7-1.7h-3.1v3.7
				c0,0.8,0.2,1.2,1,1.2h3c1.2,0,2.3-1,2.6-2.2h0.5L-2216.7-1162.2z"/>
			<path d="M-2206.8-1162.2v-0.3c0.7,0,1-0.2,1-1.2v-3.7c0-0.9-0.4-1.3-1.2-1.3c-0.6,0-1.3,0.3-1.8,1c0.1,0.1,0.1,0.5,0.1,1.1v1.6
				c0,0.8,0,1.2,0,1.2c0,1.1,0.2,1.3,1,1.3v0.3h-3.4v-0.3c0.7,0,1-0.2,1-1.2v-3.7c0-0.9-0.4-1.3-1.1-1.3c-0.6,0-1.2,0.3-1.8,1v4.1
				c0,0.9,0.3,1.1,1,1.1v0.3h-3.4v-0.3c0.9,0,1-0.3,1-1.3v-4c0-0.4-0.1-0.6-0.3-0.6h-0.8v-0.3l2.4-0.8v1.3c0.7-0.9,1.5-1.3,2.5-1.3
				c0.9,0,1.4,0.4,1.6,1.3c0.8-0.9,1.7-1.3,2.7-1.3c0.5,0,0.9,0.1,1.2,0.4c0.3,0.3,0.6,1.3,0.6,1.8v3.6c0,1.1,0.2,1.3,1,1.3v0.3
				H-2206.8z"/>
			<path d="M-2200.5-1166.8h-0.7l2.4-7.4h-2.5c-0.7,0-1.2,0.4-1.5,1.1l-0.2-0.1l0.7-2h4.6L-2200.5-1166.8z"/>
		</g>
	</g>
	<g transform="matrix(0.7425,0,0,0.7425,2204.48,1168.42)">
	</g>
	<g transform="matrix(0.7425,0,0,0.7425,0,0)">
	</g>
	<g transform="matrix(0.7425,0,0,0.7425,0,0)">
		<line vector-effect="none" class="st0" x1="244.8" y1="521.2" x2="244.8" y2="553.2"/>
	</g>
	<g transform="matrix(0.7425,0,0,0.7425,0,0)">
		<line vector-effect="none" class="st0" x1="502.2" y1="521.2" x2="502.2" y2="553.2"/>
	</g>
	<g transform="matrix(0.7425,0,0,0.7425,0,0)">
		<line vector-effect="none" class="st0" x1="699.5" y1="521.2" x2="699.5" y2="553.2"/>
	</g>
	<g transform="matrix(0.7425,0,0,0.7425,0,0)">
		<line vector-effect="none" class="st0" x1="962.2" y1="521.2" x2="962.2" y2="553.2"/>
	</g>
	<g transform="matrix(0.7425,0,0,0.7425,0,0)">
		<line vector-effect="none" class="st2" x1="967.8" y1="521.2" x2="967.8" y2="553.2"/>
	</g>
	<g transform="matrix(0.7425,0,0,0.7425,0,0)">
	</g>
	<g transform="matrix(0.7425,0,0,0.7425,167.062,1434.98)">
	</g>
	<g transform="matrix(0.7425,0,0,0.7425,167.062,1434.98)">
		<g class="st1">
			<path d="M-160.6-1431.5v-0.4c0.8,0,1.2-0.2,1.2-0.7c0-0.5-0.5-1.7-0.9-2.7h-4.7c-0.5,1-1,2.3-1,2.7c0,0.4,0.4,0.7,1.2,0.7v0.4
				h-3.6v-0.4c0.7-0.1,1.2-0.4,1.6-1.2l4.4-10.4h0.5l4.1,9.8c0.7,1.6,0.9,1.7,1.7,1.8v0.4H-160.6z M-164.7-1436.1h4l-2.1-4.7
				L-164.7-1436.1z"/>
			<path d="M-153-1436.1h-0.7l2.4-7.4h-2.5c-0.7,0-1.2,0.4-1.5,1.1l-0.2-0.1l0.7-2h4.6L-153-1436.1z"/>
		</g>
	</g>
	<g transform="matrix(0.7425,0,0,0.7425,167.062,1434.98)">
	</g>
	<g transform="matrix(0.7425,0,0,0.7425,0,0)">
	</g>
	<g transform="matrix(0.7425,0,0,0.7425,735.075,1434.98)">
	</g>
	<g transform="matrix(0.7425,0,0,0.7425,735.075,1434.98)">
		<g class="st1">
			<path d="M-734.4-1431.5v-0.4c0.8,0,1.2-0.2,1.2-0.7c0-0.5-0.5-1.7-0.9-2.7h-4.7c-0.5,1-1,2.3-1,2.7c0,0.4,0.4,0.7,1.2,0.7v0.4
				h-3.6v-0.4c0.7-0.1,1.2-0.4,1.6-1.2l4.4-10.4h0.5l4.1,9.8c0.7,1.6,0.9,1.7,1.7,1.8v0.4H-734.4z M-738.4-1436.1h4l-2.1-4.7
				L-738.4-1436.1z"/>
			<path d="M-720.8-1431.5v-0.3c0.7,0,1-0.2,1-1.2v-3.7c0-0.9-0.4-1.3-1.2-1.3c-0.6,0-1.3,0.3-1.8,1c0.1,0.1,0.1,0.5,0.1,1.1v1.6
				c0,0.8,0,1.2,0,1.2c0,1.1,0.2,1.3,1,1.3v0.3h-3.4v-0.3c0.7,0,1-0.2,1-1.2v-3.7c0-0.9-0.4-1.3-1.1-1.3c-0.6,0-1.2,0.3-1.8,1v4.1
				c0,0.9,0.3,1.1,1,1.1v0.3h-3.4v-0.3c0.9,0,1-0.3,1-1.3v-4c0-0.4-0.1-0.6-0.3-0.6h-0.8v-0.3l2.4-0.8v1.3c0.7-0.9,1.5-1.3,2.5-1.3
				c0.9,0,1.4,0.4,1.6,1.3c0.8-0.9,1.7-1.3,2.7-1.3c0.5,0,0.9,0.1,1.2,0.4c0.3,0.3,0.6,1.3,0.6,1.8v3.6c0,1.1,0.2,1.3,1,1.3v0.3
				H-720.8z"/>
			<path d="M-714.5-1436.1h-0.7l2.4-7.4h-2.5c-0.7,0-1.2,0.4-1.5,1.1l-0.2-0.1l0.7-2h4.6L-714.5-1436.1z"/>
		</g>
	</g>
	<g transform="matrix(0.7425,0,0,0.7425,735.075,1434.98)">
	</g>
	<g transform="matrix(0.7425,0,0,0.7425,0,0)">
	</g>
	<g transform="matrix(0.7425,0,0,0.7425,1118.2,1434.98)">
	</g>
	<g transform="matrix(0.7425,0,0,0.7425,1118.2,1434.98)">
		<g class="st1">
			<path d="M-1124.2-1431.5h-5v-0.4c1.5,0,1.6-0.3,1.6-1.7v-7.5c0-1.4-0.1-1.7-1.6-1.7v-0.4h5.6c0.8,0,1.7,0.2,2.6,0.5
				c2.5,0.9,3.7,2.7,3.7,5.4C-1117.3-1433.6-1119.9-1431.5-1124.2-1431.5z M-1124.4-1442.6c-1.4,0-1.4,0.2-1.4,1.6v7.1
				c0,1.4,0,1.6,1.5,1.6c3.3,0,5.1-1.8,5.1-5C-1119.2-1440.5-1121.1-1442.6-1124.4-1442.6z"/>
			<path d="M-1114.1-1436.1h-0.7l2.4-7.4h-2.5c-0.7,0-1.2,0.4-1.5,1.1l-0.2-0.1l0.7-2h4.6L-1114.1-1436.1z"/>
		</g>
	</g>
	<g transform="matrix(0.7425,0,0,0.7425,1118.2,1434.98)">
	</g>
	<g transform="matrix(0.7425,0,0,0.7425,0,0)">
	</g>
	<g transform="matrix(0.7425,0,0,0.7425,1516.93,1434.98)">
	</g>
	<g transform="matrix(0.7425,0,0,0.7425,1516.93,1434.98)">
		<g class="st1">
			<path d="M-1521.1-1439.8h-0.3c-0.7-2.1-2-3.1-3.9-3.1c-2.7,0-4.4,2.2-4.4,5.4c0,3.2,1.9,5.8,4.5,5.8c0.9,0,1.7-0.2,2.4-0.6v-3.4
				c0-1.3-0.2-1.7-1.5-1.7v-0.4h4.5v0.4c-1.2,0-1.3,0.5-1.3,1.7v3.6c-1.3,0.7-2.6,1-4.1,1c-3.7,0-6.5-2.3-6.5-5.9
				c0-3.4,2.6-6.4,6.2-6.4c0.7,0,1.6,0.2,2.7,0.6c0.3,0.1,0.5,0.2,0.6,0.2c0.3,0,0.4-0.2,0.4-0.7h0.3L-1521.1-1439.8z"/>
			<path d="M-1513.8-1444.3c-2.3,0.6-3.3,1.5-3.7,3.5c0.5-0.4,1.1-0.6,1.7-0.6c1.4,0,2.3,1.1,2.3,2.6c0,1.7-1.1,2.9-2.6,2.9
				c-1.8,0-2.8-1.6-2.8-3.5c0-1.5,0.5-2.7,1.5-3.7c0.9-0.9,1.4-1.1,3.7-1.4L-1513.8-1444.3z M-1516.4-1440.8c-0.5,0-1,0.2-1.3,0.6
				c-0.1,0.3-0.1,0.7-0.1,1.2c0,1.7,0.6,2.7,1.8,2.7c0.9,0,1.3-0.7,1.3-2.1C-1514.7-1440-1515.3-1440.8-1516.4-1440.8z"/>
		</g>
	</g>
	<g transform="matrix(0.7425,0,0,0.7425,1516.93,1434.98)">
	</g>
	<g transform="matrix(0.7425,0,0,0.7425,0,0)">
	</g>
	<g transform="matrix(0.7425,0,0,0.7425,2085.68,1434.98)">
	</g>
	<g transform="matrix(0.7425,0,0,0.7425,2085.68,1434.98)">
		<g class="st1">
			<path d="M-2101.5-1431.5h-5v-0.4c1.5,0,1.6-0.3,1.6-1.7v-7.5c0-1.4-0.1-1.7-1.6-1.7v-0.4h5.6c0.8,0,1.7,0.2,2.6,0.5
				c2.5,0.9,3.7,2.7,3.7,5.4C-2094.5-1433.6-2097.2-1431.5-2101.5-1431.5z M-2101.6-1442.6c-1.4,0-1.4,0.2-1.4,1.6v7.1
				c0,1.4,0,1.6,1.5,1.6c3.3,0,5.1-1.8,5.1-5C-2096.5-1440.5-2098.3-1442.6-2101.6-1442.6z"/>
			<path d="M-2085.4-1431.5v-0.3c0.7,0,1-0.2,1-1.2v-3.7c0-0.9-0.4-1.3-1.2-1.3c-0.6,0-1.3,0.3-1.8,1c0.1,0.1,0.1,0.5,0.1,1.1v1.6
				c0,0.8,0,1.2,0,1.2c0,1.1,0.2,1.3,1,1.3v0.3h-3.4v-0.3c0.7,0,1-0.2,1-1.2v-3.7c0-0.9-0.4-1.3-1.1-1.3c-0.6,0-1.2,0.3-1.8,1v4.1
				c0,0.9,0.3,1.1,1,1.1v0.3h-3.4v-0.3c0.9,0,1-0.3,1-1.3v-4c0-0.4-0.1-0.6-0.3-0.6h-0.8v-0.3l2.4-0.8v1.3c0.7-0.9,1.5-1.3,2.5-1.3
				c0.9,0,1.4,0.4,1.6,1.3c0.8-0.9,1.7-1.3,2.7-1.3c0.5,0,0.9,0.1,1.2,0.4c0.3,0.3,0.6,1.3,0.6,1.8v3.6c0,1.1,0.2,1.3,1,1.3v0.3
				H-2085.4z"/>
			<path d="M-2079.1-1436.1h-0.7l2.4-7.4h-2.5c-0.7,0-1.2,0.4-1.5,1.1l-0.2-0.1l0.7-2h4.6L-2079.1-1436.1z"/>
		</g>
	</g>
	<g transform="matrix(0.7425,0,0,0.7425,2085.68,1434.98)">
	</g>
	<g transform="matrix(0.7425,0,0,0.7425,0,0)">
	</g>
	<g transform="matrix(0.7425,0,0,0.7425,2468.07,1434.98)">
	</g>
	<g transform="matrix(0.7425,0,0,0.7425,2468.07,1434.98)">
		<g class="st1">
			<path d="M-2481.8-1439.8h-0.3c-0.7-2.1-2-3.1-3.9-3.1c-2.7,0-4.4,2.2-4.4,5.4c0,3.2,1.9,5.8,4.5,5.8c0.9,0,1.7-0.2,2.4-0.6v-3.4
				c0-1.3-0.2-1.7-1.5-1.7v-0.4h4.5v0.4c-1.2,0-1.3,0.5-1.3,1.7v3.6c-1.3,0.7-2.6,1-4.1,1c-3.7,0-6.5-2.3-6.5-5.9
				c0-3.4,2.6-6.4,6.2-6.4c0.7,0,1.6,0.2,2.7,0.6c0.3,0.1,0.5,0.2,0.6,0.2c0.3,0,0.4-0.2,0.4-0.7h0.3L-2481.8-1439.8z"/>
			<path d="M-2477.2-1436.1h-0.7l2.4-7.4h-2.5c-0.7,0-1.2,0.4-1.5,1.1l-0.2-0.1l0.7-2h4.6L-2477.2-1436.1z"/>
		</g>
	</g>
	<g transform="matrix(0.7425,0,0,0.7425,2468.07,1434.98)">
	</g>
	<g transform="matrix(0.7425,0,0,0.7425,0,0)">
	</g>
	<g transform="matrix(0.7425,0,0,0.7425,147.757,117.388)">
	</g>
	<g transform="matrix(0.7425,0,0,0.7425,147.757,117.388)">
		<g class="st1">
			<path d="M-138.6-73.8v0.8c0,0.3,0,0.5,0,0.6c0,0.8,0.3,1,1.8,1.1l0.1,0.9h-7.9l0.1-0.9c1-0.1,1.6-0.3,1.8-0.6
				c0.1-0.2,0.1-0.8,0.1-1.9h-6.6v-1.3c2-2.5,3.8-7.1,4.1-10.3h5.5c-0.3,1.5-1.5,3.2-3.4,5.2c-2.2,2.2-3.5,3.8-4,5.1h4.4v-3.7l4-3.6
				v7.3h2v1.4H-138.6z"/>
		</g>
	</g>
	<g transform="matrix(0.7425,0,0,0.7425,147.757,117.388)">
		<g class="st1">
			<path d="M-138.6-57.6v0.8c0,0.3,0,0.5,0,0.6c0,0.8,0.3,1,1.8,1.1l0.1,0.9h-7.9l0.1-0.9c1-0.1,1.6-0.3,1.8-0.6
				c0.1-0.2,0.1-0.8,0.1-1.9h-6.6v-1.3c2-2.5,3.8-7.1,4.1-10.3h5.5c-0.3,1.5-1.5,3.2-3.4,5.2c-2.2,2.2-3.5,3.8-4,5.1h4.4v-3.7l4-3.6
				v7.3h2v1.4H-138.6z"/>
		</g>
	</g>
	<g transform="matrix(0.7425,0,0,0.7425,147.757,117.388)">
	</g>
	<g transform="matrix(0.7425,0,0,0.7425,0,0)">
	</g>
	<g transform="matrix(0.7425,0,0,0.7425,0,0)">
		<line vector-effect="none" class="st3" x1="0" y1="104.4" x2="969.8" y2="104.4"/>
	</g>
	<g transform="matrix(0.7425,0,0,0.7425,0,0)">
		<line vector-effect="none" class="st3" x1="0" y1="96.4" x2="969.8" y2="96.4"/>
	</g>
	<g transform="matrix(0.7425,0,0,0.7425,0,0)">
		<line vector-effect="none" class="st3" x1="0" y1="88.4" x2="969.8" y2="88.4"/>
	</g>
	<g transform="matrix(0.7425,0,0,0.7425,0,0)">
		<line vector-effect="none" class="st3" x1="0" y1="80.4" x2="969.8" y2="80.4"/>
	</g>
	<g transform="matrix(0.7425,0,0,0.7425,0,0)">
		<line vector-effect="none" class="st3" x1="0" y1="72.4" x2="969.8" y2="72.4"/>
	</g>
	<g transform="matrix(0.7425,0,0,0.7425,0,0)">
		<g class="st1">
			<path d="M11.7,95.3c4.7-4.2,7.6-9.8,7.6-14.9c0-4.1-2.3-7.1-6-7.1c-2.6,0-5.4,2.2-5.4,4.4c0,0.4,0.1,0.5,0.2,0.5
				c-0.1,0,0.9-1,2.2-1c1.4,0,2.5,1.3,2.5,2.8c0,2-1.4,3.6-3.4,3.6c-2,0-3.3-2.1-3.3-4.6c0-3.8,3.7-6.7,7.8-6.7
				c7.5,0,9.5,5.2,9.5,9.4c0,2.7-0.7,4.7-3.2,8.6c-3.1,4.9-10.4,8.5-13,8.5c-0.7,0-1-0.3-1-0.7C8.6,97.3,10.4,96.4,11.7,95.3z
				 M27.8,74.8c0.9,0,1.6,0.7,1.6,1.6S28.7,78,27.8,78c-0.9,0-1.6-0.7-1.6-1.6S26.9,74.8,27.8,74.8z M27.8,82.8
				c0.9,0,1.6,0.7,1.6,1.6c0,0.9-0.7,1.6-1.6,1.6c-0.9,0-1.6-0.7-1.6-1.6C26.2,83.5,26.9,82.8,27.8,82.8z"/>
		</g>
	</g>
	<g transform="matrix(0.7425,0,0,0.7425,0,0)">
		<g class="st1">
			<path d="M40.3,69.4V74l1.7-0.5v2.9l-1.7,0.5v5.5l1.7-0.5v2.9l-1.7,0.5v5h-0.8v-4.8l-3.1,1v4.8h-0.8v-4.6L34,87.4v-2.9l1.7-0.5
				v-5.5L34,78.9V76l1.7-0.5v-5h0.8v4.8l3.1-1v-4.8H40.3z M39.5,77.1l-3.1,1v5.5l3.1-1V77.1z"/>
		</g>
	</g>
	<g transform="matrix(0.7425,0,0,0.7425,0,0)">
		<line vector-effect="none" class="st3" x1="0" y1="194.2" x2="969.8" y2="194.2"/>
	</g>
	<g transform="matrix(0.7425,0,0,0.7425,0,0)">
		<line vector-effect="none" class="st3" x1="0" y1="186.2" x2="969.8" y2="186.2"/>
	</g>
	<g transform="matrix(0.7425,0,0,0.7425,0,0)">
		<line vector-effect="none" class="st3" x1="0" y1="178.2" x2="969.8" y2="178.2"/>
	</g>
	<g transform="matrix(0.7425,0,0,0.7425,0,0)">
		<line vector-effect="none" class="st3" x1="0" y1="170.2" x2="969.8" y2="170.2"/>
	</g>
	<g transform="matrix(0.7425,0,0,0.7425,0,0)">
		<line vector-effect="none" class="st3" x1="0" y1="162.2" x2="969.8" y2="162.2"/>
	</g>
	<g transform="matrix(0.7425,0,0,0.7425,0,0)">
		<g class="st1">
			<path d="M11.7,185c4.7-4.2,7.6-9.8,7.6-14.9c0-4.1-2.3-7.1-6-7.1c-2.6,0-5.4,2.2-5.4,4.4c0,0.4,0.1,0.5,0.2,0.5
				c-0.1,0,0.9-1,2.2-1c1.4,0,2.5,1.3,2.5,2.8c0,2-1.4,3.6-3.4,3.6c-2,0-3.3-2.1-3.3-4.6c0-3.8,3.7-6.7,7.8-6.7
				c7.5,0,9.5,5.2,9.5,9.4c0,2.7-0.7,4.7-3.2,8.6c-3.1,4.9-10.4,8.5-13,8.5c-0.7,0-1-0.3-1-0.7C8.6,187.1,10.4,186.2,11.7,185z
				 M27.8,164.6c0.9,0,1.6,0.7,1.6,1.6s-0.7,1.6-1.6,1.6c-0.9,0-1.6-0.7-1.6-1.6S26.9,164.6,27.8,164.6z M27.8,172.5
				c0.9,0,1.6,0.7,1.6,1.6c0,0.9-0.7,1.6-1.6,1.6c-0.9,0-1.6-0.7-1.6-1.6C26.2,173.2,26.9,172.5,27.8,172.5z"/>
		</g>
	</g>
	<g transform="matrix(0.7425,0,0,0.7425,0,0)">
		<g class="st1">
			<path d="M40.3,159.2v4.6l1.7-0.5v2.9l-1.7,0.5v5.5l1.7-0.5v2.9l-1.7,0.5v5h-0.8v-4.8l-3.1,1v4.8h-0.8v-4.6l-1.7,0.5v-2.9l1.7-0.5
				v-5.5l-1.7,0.5v-2.9l1.7-0.5v-5h0.8v4.8l3.1-1v-4.8H40.3z M39.5,166.9l-3.1,1v5.5l3.1-1V166.9z"/>
		</g>
	</g>
	<g transform="matrix(0.7425,0,0,0.7425,0,0)">
		<line vector-effect="none" class="st3" x1="0" y1="283.9" x2="969.8" y2="283.9"/>
	</g>
	<g transform="matrix(0.7425,0,0,0.7425,0,0)">
		<line vector-effect="none" class="st3" x1="0" y1="275.9" x2="969.8" y2="275.9"/>
	</g>
	<g transform="matrix(0.7425,0,0,0.7425,0,0)">
		<line vector-effect="none" class="st3" x1="0" y1="267.9" x2="969.8" y2="267.9"/>
	</g>
	<g transform="matrix(0.7425,0,0,0.7425,0,0)">
		<line vector-effect="none" class="st3" x1="0" y1="259.9" x2="969.8" y2="259.9"/>
	</g>
	<g transform="matrix(0.7425,0,0,0.7425,0,0)">
		<line vector-effect="none" class="st3" x1="0" y1="251.9" x2="969.8" y2="251.9"/>
	</g>
	<g transform="matrix(0.7425,0,0,0.7425,0,0)">
		<g class="st1">
			<path d="M11.7,274.8c4.7-4.2,7.6-9.8,7.6-14.9c0-4.1-2.3-7.1-6-7.1c-2.6,0-5.4,2.2-5.4,4.4c0,0.4,0.1,0.5,0.2,0.5
				c-0.1,0,0.9-1,2.2-1c1.4,0,2.5,1.3,2.5,2.8c0,2-1.4,3.6-3.4,3.6c-2,0-3.3-2.1-3.3-4.6c0-3.8,3.7-6.7,7.8-6.7
				c7.5,0,9.5,5.2,9.5,9.4c0,2.7-0.7,4.7-3.2,8.6c-3.1,4.9-10.4,8.5-13,8.5c-0.7,0-1-0.3-1-0.7C8.6,276.8,10.4,275.9,11.7,274.8z
				 M27.8,254.3c0.9,0,1.6,0.7,1.6,1.6s-0.7,1.6-1.6,1.6c-0.9,0-1.6-0.7-1.6-1.6S26.9,254.3,27.8,254.3z M27.8,262.3
				c0.9,0,1.6,0.7,1.6,1.6c0,0.9-0.7,1.6-1.6,1.6c-0.9,0-1.6-0.7-1.6-1.6C26.2,263,26.9,262.3,27.8,262.3z"/>
		</g>
	</g>
	<g transform="matrix(0.7425,0,0,0.7425,0,0)">
		<g class="st1">
			<path d="M40.3,248.9v4.6l1.7-0.5v2.9l-1.7,0.5v5.5l1.7-0.5v2.9l-1.7,0.5v5h-0.8v-4.8l-3.1,1v4.8h-0.8v-4.6l-1.7,0.5v-2.9l1.7-0.5
				v-5.5l-1.7,0.5v-2.9l1.7-0.5v-5h0.8v4.8l3.1-1v-4.8H40.3z M39.5,256.6l-3.1,1v5.5l3.1-1V256.6z"/>
		</g>
	</g>
	<g transform="matrix(0.7425,0,0,0.7425,0,0)">
		<path vector-effect="none" class="st4" d="M247,293.9l34.2-4v-4l-34.2,4V293.9"/>
	</g>
	<g transform="matrix(0.7425,0,0,0.7425,0,0)">
		<path vector-effect="none" class="st4" d="M362.8,293.9l34.2-4v-4l-34.2,4V293.9"/>
	</g>
	<g transform="matrix(0.7425,0,0,0.7425,0,0)">
		<line vector-effect="none" class="st3" x1="0" y1="373.7" x2="969.8" y2="373.7"/>
	</g>
	<g transform="matrix(0.7425,0,0,0.7425,0,0)">
		<line vector-effect="none" class="st3" x1="0" y1="365.7" x2="969.8" y2="365.7"/>
	</g>
	<g transform="matrix(0.7425,0,0,0.7425,0,0)">
		<line vector-effect="none" class="st3" x1="0" y1="357.7" x2="969.8" y2="357.7"/>
	</g>
	<g transform="matrix(0.7425,0,0,0.7425,0,0)">
		<line vector-effect="none" class="st3" x1="0" y1="349.7" x2="969.8" y2="349.7"/>
	</g>
	<g transform="matrix(0.7425,0,0,0.7425,0,0)">
		<line vector-effect="none" class="st3" x1="0" y1="341.7" x2="969.8" y2="341.7"/>
	</g>
	<g transform="matrix(0.7425,0,0,0.7425,0,0)">
		<g class="st1">
			<path d="M11.7,364.5c4.7-4.2,7.6-9.8,7.6-14.9c0-4.1-2.3-7.1-6-7.1c-2.6,0-5.4,2.2-5.4,4.4c0,0.4,0.1,0.5,0.2,0.5
				c-0.1,0,0.9-1,2.2-1c1.4,0,2.5,1.3,2.5,2.8c0,2-1.4,3.6-3.4,3.6c-2,0-3.3-2.1-3.3-4.6c0-3.8,3.7-6.7,7.8-6.7
				c7.5,0,9.5,5.2,9.5,9.4c0,2.7-0.7,4.7-3.2,8.6c-3.1,4.9-10.4,8.5-13,8.5c-0.7,0-1-0.3-1-0.7C8.6,366.6,10.4,365.7,11.7,364.5z
				 M27.8,344.1c0.9,0,1.6,0.7,1.6,1.6c0,0.9-0.7,1.6-1.6,1.6c-0.9,0-1.6-0.7-1.6-1.6C26.2,344.8,26.9,344.1,27.8,344.1z M27.8,352
				c0.9,0,1.6,0.7,1.6,1.6c0,0.9-0.7,1.6-1.6,1.6c-0.9,0-1.6-0.7-1.6-1.6C26.2,352.7,26.9,352,27.8,352z"/>
		</g>
	</g>
	<g transform="matrix(0.7425,0,0,0.7425,0,0)">
		<g class="st1">
			<path d="M40.3,338.7v4.6l1.7-0.5v2.9l-1.7,0.5v5.5l1.7-0.5v2.9l-1.7,0.5v5h-0.8v-4.8l-3.1,1v4.8h-0.8v-4.6l-1.7,0.5v-2.9l1.7-0.5
				v-5.5l-1.7,0.5v-2.9l1.7-0.5v-5h0.8v4.8l3.1-1v-4.8H40.3z M39.5,346.4l-3.1,1v5.5l3.1-1V346.4z"/>
		</g>
	</g>
	<g transform="matrix(0.7425,0,0,0.7425,0,0)">
		<line vector-effect="none" class="st3" x1="0" y1="463.4" x2="969.8" y2="463.4"/>
	</g>
	<g transform="matrix(0.7425,0,0,0.7425,0,0)">
		<line vector-effect="none" class="st3" x1="0" y1="455.4" x2="969.8" y2="455.4"/>
	</g>
	<g transform="matrix(0.7425,0,0,0.7425,0,0)">
		<line vector-effect="none" class="st3" x1="0" y1="447.4" x2="969.8" y2="447.4"/>
	</g>
	<g transform="matrix(0.7425,0,0,0.7425,0,0)">
		<line vector-effect="none" class="st3" x1="0" y1="439.4" x2="969.8" y2="439.4"/>
	</g>
	<g transform="matrix(0.7425,0,0,0.7425,0,0)">
		<line vector-effect="none" class="st3" x1="0" y1="431.4" x2="969.8" y2="431.4"/>
	</g>
	<g transform="matrix(0.7425,0,0,0.7425,0,0)">
		<g class="st1">
			<path d="M11.7,454.3c4.7-4.2,7.6-9.8,7.6-14.9c0-4.1-2.3-7.1-6-7.1c-2.6,0-5.4,2.2-5.4,4.4c0,0.4,0.1,0.5,0.2,0.5
				c-0.1,0,0.9-1,2.2-1c1.4,0,2.5,1.3,2.5,2.8c0,2-1.4,3.6-3.4,3.6c-2,0-3.3-2.1-3.3-4.6c0-3.8,3.7-6.7,7.8-6.7
				c7.5,0,9.5,5.2,9.5,9.4c0,2.7-0.7,4.7-3.2,8.6c-3.1,4.9-10.4,8.5-13,8.5c-0.7,0-1-0.3-1-0.7C8.6,456.3,10.4,455.4,11.7,454.3z
				 M27.8,433.8c0.9,0,1.6,0.7,1.6,1.6c0,0.9-0.7,1.6-1.6,1.6c-0.9,0-1.6-0.7-1.6-1.6C26.2,434.5,26.9,433.8,27.8,433.8z
				 M27.8,441.8c0.9,0,1.6,0.7,1.6,1.6c0,0.9-0.7,1.6-1.6,1.6c-0.9,0-1.6-0.7-1.6-1.6C26.2,442.5,26.9,441.8,27.8,441.8z"/>
		</g>
	</g>
	<g transform="matrix(0.7425,0,0,0.7425,0,0)">
		<g class="st1">
			<path d="M40.3,428.4v4.6l1.7-0.5v2.9l-1.7,0.5v5.5l1.7-0.5v2.9l-1.7,0.5v5h-0.8v-4.8l-3.1,1v4.8h-0.8v-4.6l-1.7,0.5v-2.9l1.7-0.5
				v-5.5l-1.7,0.5V435l1.7-0.5v-5h0.8v4.8l3.1-1v-4.8H40.3z M39.5,436.1l-3.1,1v5.5l3.1-1V436.1z"/>
		</g>
	</g>
	<g transform="matrix(0.7425,0,0,0.7425,0,0)">
		<line vector-effect="none" class="st3" x1="0" y1="553.2" x2="969.8" y2="553.2"/>
	</g>
	<g transform="matrix(0.7425,0,0,0.7425,0,0)">
		<line vector-effect="none" class="st3" x1="0" y1="545.2" x2="969.8" y2="545.2"/>
	</g>
	<g transform="matrix(0.7425,0,0,0.7425,0,0)">
		<line vector-effect="none" class="st3" x1="0" y1="537.2" x2="969.8" y2="537.2"/>
	</g>
	<g transform="matrix(0.7425,0,0,0.7425,0,0)">
		<line vector-effect="none" class="st3" x1="0" y1="529.2" x2="969.8" y2="529.2"/>
	</g>
	<g transform="matrix(0.7425,0,0,0.7425,0,0)">
		<line vector-effect="none" class="st3" x1="0" y1="521.2" x2="969.8" y2="521.2"/>
	</g>
	<g transform="matrix(0.7425,0,0,0.7425,0,0)">
		<g class="st1">
			<path d="M11.7,544c4.7-4.2,7.6-9.8,7.6-14.9c0-4.1-2.3-7.1-6-7.1c-2.6,0-5.4,2.2-5.4,4.4c0,0.4,0.1,0.5,0.2,0.5
				c-0.1,0,0.9-1,2.2-1c1.4,0,2.5,1.3,2.5,2.8c0,2-1.4,3.6-3.4,3.6c-2,0-3.3-2.1-3.3-4.6c0-3.8,3.7-6.7,7.8-6.7
				c7.5,0,9.5,5.2,9.5,9.4c0,2.7-0.7,4.7-3.2,8.6c-3.1,4.9-10.4,8.5-13,8.5c-0.7,0-1-0.3-1-0.7C8.6,546.1,10.4,545.2,11.7,544z
				 M27.8,523.6c0.9,0,1.6,0.7,1.6,1.6c0,0.9-0.7,1.6-1.6,1.6c-0.9,0-1.6-0.7-1.6-1.6C26.2,524.3,26.9,523.6,27.8,523.6z
				 M27.8,531.5c0.9,0,1.6,0.7,1.6,1.6c0,0.9-0.7,1.6-1.6,1.6c-0.9,0-1.6-0.7-1.6-1.6C26.2,532.2,26.9,531.5,27.8,531.5z"/>
		</g>
	</g>
	<g transform="matrix(0.7425,0,0,0.7425,0,0)">
		<g class="st1">
			<path d="M40.3,518.2v4.6l1.7-0.5v2.9l-1.7,0.5v5.5l1.7-0.5v2.9l-1.7,0.5v5h-0.8v-4.8l-3.1,1v4.8h-0.8v-4.6l-1.7,0.5v-2.9l1.7-0.5
				v-5.5l-1.7,0.5v-2.9l1.7-0.5v-5h0.8v4.8l3.1-1v-4.8H40.3z M39.5,525.9l-3.1,1v5.5l3.1-1V525.9z"/>
		</g>
	</g>
	<g transform="matrix(0.7425,0,0,0.7425,0,0)">
		<path vector-effect="none" class="st4" d="M257.5,549.2l36.5-4v-4l-36.5,4V549.2"/>
	</g>
	<g transform="matrix(0.7425,0,0,0.7425,0,0)">
		<path vector-effect="none" class="st4" d="M380.2,563.2l36.2-4v-4l-36.2,4V563.2"/>
	</g>
	<g transform="matrix(0.7425,0,0,0.7425,0,0)">
		<path vector-effect="none" class="st4" d="M712.2,563.2l36.5-4v-4l-36.5,4V563.2"/>
	</g>
	<g transform="matrix(0.7425,0,0,0.7425,0,0)">
		<path vector-effect="none" class="st4" d="M835,549.2l36.2-4v-4l-36.2,4V549.2"/>
	</g>
	<g transform="matrix(0.7425,0,0,0.7425,0,0)">
		<line vector-effect="none" class="st3" x1="86" y1="91.2" x2="86" y2="64.4"/>
	</g>
	<g transform="matrix(0.7425,0,0,0.7425,0,0)">
		<g class="st1">
			<path d="M81.9,88.1c2.7,0,4.4,1.2,4.4,3.2c0,3-3.7,5.4-7.3,5.4c-2.2,0-3.9-1.1-3.9-2.8C75,90.9,78.6,88.1,81.9,88.1z M75.7,94.3
				c0,1,0.6,1.5,1.8,1.5c2.3,0,8-3.4,8-5.2c0-1-0.6-1.5-1.8-1.5C81.7,89,75.7,92.3,75.7,94.3z"/>
		</g>
	</g>
	<g transform="matrix(0.7425,0,0,0.7425,0,0)">
		<line vector-effect="none" class="st3" x1="137.2" y1="85.7" x2="137.2" y2="112.4"/>
	</g>
	<g transform="matrix(0.7425,0,0,0.7425,0,0)">
		<g class="st1">
			<path d="M143.9,80.1c2.7,0,4.4,1.2,4.4,3.2c0,3-3.7,5.4-7.3,5.4c-2.2,0-3.9-1.1-3.9-2.8C137,82.9,140.6,80.1,143.9,80.1z
				 M137.7,86.3c0,1,0.6,1.5,1.8,1.5c2.3,0,8-3.4,8-5.2c0-1-0.6-1.5-1.8-1.5C143.7,81,137.7,84.3,137.7,86.3z"/>
		</g>
	</g>
	<g transform="matrix(0.7425,0,0,0.7425,0,0)">
		<g class="st1">
			<path d="M218.4,72.1c3.6,0,7.3,1.9,7.3,4.3c0,2.7-3.1,4.3-7.6,4.3c-4.1,0-7.3-1.7-7.3-4.3C210.8,73.8,214.5,72.1,218.4,72.1z
				 M221.5,75.5c-1-1.9-2-2.7-4.2-2.7c-2,0-3.1,0.8-3.1,2.5c0,2.4,2.2,4.8,4.2,4.8c1.9,0,3.4-0.2,3.8-2
				C222.2,77.3,221.9,76.5,221.5,75.5z"/>
		</g>
	</g>
	<g transform="matrix(0.7425,0,0,0.7425,0,0)">
		<line vector-effect="none" class="st3" x1="318.8" y1="91.2" x2="318.8" y2="64.4"/>
	</g>
	<g transform="matrix(0.7425,0,0,0.7425,0,0)">
		<g class="st1">
			<path d="M308,93.8c0-2.9,4.1-5.6,7.3-5.6c2.1,0,3.6,1.1,3.6,2.8c0,2.8-4.1,5.6-7.4,5.6C309.6,96.6,308,95.6,308,93.8z"/>
		</g>
	</g>
	<g transform="matrix(0.7425,0,0,0.7425,0,0)">
		<line vector-effect="none" class="st3" x1="344.8" y1="85.7" x2="344.8" y2="112.4"/>
	</g>
	<g transform="matrix(0.7425,0,0,0.7425,0,0)">
		<g class="st1">
			<path d="M344.5,85.8c0-2.9,4.1-5.6,7.3-5.6c2.1,0,3.6,1.1,3.6,2.8c0,2.8-4.1,5.6-7.4,5.6C346.1,88.6,344.5,87.6,344.5,85.8z"/>
		</g>
	</g>
	<g transform="matrix(0.7425,0,0,0.7425,0,0)">
		<g class="st1">
			<path d="M335,71h1l-0.2,10.1c0.6-1.1,1.6-1.6,3-1.6c1.9,0,3.6,1.3,3.6,3.1c-0.1,1.2-0.8,2.8-2.8,4.3l-4.5,3.3V71z M335.9,82.1
				c-0.1,1.2-0.2,2.3-0.2,3.1c0,1.6,0.1,2.6,0.2,3.2c1.7-1.1,3.9-4.3,3.9-5.9c0-1-0.8-1.7-1.8-1.7C337.1,80.8,336.4,81.3,335.9,82.1
				z"/>
		</g>
	</g>
	<g transform="matrix(0.7425,0,0,0.7425,0,0)">
		<line vector-effect="none" class="st3" x1="381.2" y1="77.7" x2="381.2" y2="104.4"/>
	</g>
	<g transform="matrix(0.7425,0,0,0.7425,0,0)">
		<g class="st1">
			<path d="M387.9,72.1c2.7,0,4.4,1.2,4.4,3.2c0,3-3.7,5.4-7.3,5.4c-2.2,0-3.9-1.1-3.9-2.8C381,74.9,384.6,72.1,387.9,72.1z
				 M381.7,78.3c0,1,0.6,1.5,1.8,1.5c2.3,0,8-3.4,8-5.2c0-1-0.6-1.5-1.8-1.5C387.7,73,381.7,76.3,381.7,78.3z"/>
		</g>
	</g>
	<g transform="matrix(0.7425,0,0,0.7425,0,0)">
		<line vector-effect="none" class="st3" x1="455.2" y1="81.7" x2="455.2" y2="108.4"/>
	</g>
	<g transform="matrix(0.7425,0,0,0.7425,0,0)">
		<g class="st1">
			<path d="M455,81.8c0-2.9,4.1-5.6,7.3-5.6c2.1,0,3.6,1.1,3.6,2.8c0,2.8-4.1,5.6-7.4,5.6C456.6,84.6,455,83.6,455,81.8z"/>
		</g>
	</g>
	<g transform="matrix(0.7425,0,0,0.7425,0,0)">
		<g class="st1">
			<path d="M451.9,91.3v-6.4l-4.9,1.7V69.4h0.8v6.4l4.9-1.7v17.2H451.9z M447.8,83.8l4.1-1.5V77l-4.1,1.5V83.8z"/>
		</g>
	</g>
	<g transform="matrix(0.7425,0,0,0.7425,0,0)">
		<line vector-effect="none" class="st3" x1="491.8" y1="73.7" x2="491.8" y2="100.4"/>
	</g>
	<g transform="matrix(0.7425,0,0,0.7425,0,0)">
		<g class="st1">
			<path d="M491.5,73.8c0-2.9,4.1-5.6,7.3-5.6c2.1,0,3.6,1.1,3.6,2.8c0,2.8-4.1,5.6-7.4,5.6C493.1,76.6,491.5,75.6,491.5,73.8z"/>
		</g>
	</g>
	<g transform="matrix(0.7425,0,0,0.7425,0,0)">
		<line vector-effect="none" class="st0" x1="525" y1="64.4" x2="542.2" y2="64.4"/>
	</g>
	<g transform="matrix(0.7425,0,0,0.7425,0,0)">
		<line vector-effect="none" class="st3" x1="528.2" y1="65.7" x2="528.2" y2="92.4"/>
	</g>
	<g transform="matrix(0.7425,0,0,0.7425,0,0)">
		<g class="st1">
			<path d="M534.9,60.1c2.7,0,4.4,1.2,4.4,3.2c0,3-3.7,5.4-7.3,5.4c-2.2,0-3.9-1.1-3.9-2.8C528,62.9,531.6,60.1,534.9,60.1z
				 M528.7,66.3c0,1,0.6,1.5,1.8,1.5c2.3,0,8-3.4,8-5.2c0-1-0.6-1.5-1.8-1.5C534.7,61,528.7,64.3,528.7,66.3z"/>
		</g>
	</g>
	<g transform="matrix(0.7425,0,0,0.7425,0,0)">
		<line vector-effect="none" class="st3" x1="602" y1="77.7" x2="602" y2="104.4"/>
	</g>
	<g transform="matrix(0.7425,0,0,0.7425,0,0)">
		<g class="st1">
			<path d="M608.6,72.1c2.7,0,4.4,1.2,4.4,3.2c0,3-3.7,5.4-7.3,5.4c-2.2,0-3.9-1.1-3.9-2.8C601.7,74.9,605.4,72.1,608.6,72.1z
				 M602.5,78.3c0,1,0.6,1.5,1.8,1.5c2.3,0,8-3.4,8-5.2c0-1-0.6-1.5-1.8-1.5C608.4,73,602.5,76.3,602.5,78.3z"/>
		</g>
	</g>
	<g transform="matrix(0.7425,0,0,0.7425,0,0)">
		<line vector-effect="none" class="st3" x1="664" y1="69.7" x2="664" y2="96.4"/>
	</g>
	<g transform="matrix(0.7425,0,0,0.7425,0,0)">
		<g class="st1">
			<path d="M670.6,64.1c2.7,0,4.4,1.2,4.4,3.2c0,3-3.7,5.4-7.3,5.4c-2.2,0-3.9-1.1-3.9-2.8C663.7,66.9,667.4,64.1,670.6,64.1z
				 M664.5,70.3c0,1,0.6,1.5,1.8,1.5c2.3,0,8-3.4,8-5.2c0-1-0.6-1.5-1.8-1.5C670.4,65,664.5,68.3,664.5,70.3z"/>
		</g>
	</g>
	<g transform="matrix(0.7425,0,0,0.7425,0,0)">
		<line vector-effect="none" class="st0" x1="733.5" y1="64.4" x2="756.5" y2="64.4"/>
	</g>
	<g transform="matrix(0.7425,0,0,0.7425,0,0)">
		<g class="st1">
			<path d="M745.1,56.1c3.6,0,7.3,1.9,7.3,4.3c0,2.7-3.1,4.3-7.6,4.3c-4.1,0-7.3-1.7-7.3-4.3C737.5,57.8,741.2,56.1,745.1,56.1z
				 M748.2,59.5c-1-1.9-2-2.7-4.2-2.7c-2,0-3.1,0.8-3.1,2.5c0,2.4,2.2,4.8,4.2,4.8c1.9,0,3.4-0.2,3.8-2
				C749,61.3,748.7,60.5,748.2,59.5z"/>
		</g>
	</g>
	<g transform="matrix(0.7425,0,0,0.7425,0,0)">
		<line vector-effect="none" class="st3" x1="845.8" y1="95.2" x2="845.8" y2="68.4"/>
	</g>
	<g transform="matrix(0.7425,0,0,0.7425,0,0)">
		<g class="st1">
			<path d="M835,97.8c0-2.9,4.1-5.6,7.3-5.6c2.1,0,3.6,1.1,3.6,2.8c0,2.8-4.1,5.6-7.4,5.6C836.6,100.6,835,99.6,835,97.8z"/>
		</g>
	</g>
	<g transform="matrix(0.7425,0,0,0.7425,0,0)">
		<g class="st1">
			<path d="M825.5,83h1l-0.2,10.1c0.6-1.1,1.6-1.6,3-1.6c1.9,0,3.6,1.3,3.6,3.1c-0.1,1.2-0.8,2.8-2.8,4.3l-4.5,3.3V83z M826.4,94.1
				c-0.1,1.2-0.2,2.3-0.2,3.1c0,1.6,0.1,2.6,0.2,3.2c1.7-1.1,3.9-4.3,3.9-5.9c0-1-0.8-1.7-1.8-1.7C827.6,92.8,826.9,93.3,826.4,94.1
				z"/>
		</g>
	</g>
	<g transform="matrix(0.7425,0,0,0.7425,0,0)">
		<line vector-effect="none" class="st3" x1="871.8" y1="89.7" x2="871.8" y2="116.4"/>
	</g>
	<g transform="matrix(0.7425,0,0,0.7425,0,0)">
		<g class="st1">
			<path d="M871.5,89.8c0-2.9,4.1-5.6,7.3-5.6c2.1,0,3.6,1.1,3.6,2.8c0,2.8-4.1,5.6-7.4,5.6C873.1,92.6,871.5,91.6,871.5,89.8z"/>
		</g>
	</g>
	<g transform="matrix(0.7425,0,0,0.7425,0,0)">
		<g class="st1">
			<path d="M862,75h1l-0.2,10.1c0.6-1.1,1.6-1.6,3-1.6c1.9,0,3.6,1.3,3.6,3.1c-0.1,1.2-0.8,2.8-2.8,4.3l-4.5,3.3V75z M862.9,86.1
				c-0.1,1.2-0.2,2.3-0.2,3.1c0,1.6,0.1,2.6,0.2,3.2c1.7-1.1,3.9-4.3,3.9-5.9c0-1-0.8-1.7-1.8-1.7C864.1,84.8,863.4,85.3,862.9,86.1
				z"/>
		</g>
	</g>
	<g transform="matrix(0.7425,0,0,0.7425,0,0)">
		<line vector-effect="none" class="st3" x1="908" y1="81.7" x2="908" y2="108.4"/>
	</g>
	<g transform="matrix(0.7425,0,0,0.7425,0,0)">
		<g class="st1">
			<path d="M914.6,76.1c2.7,0,4.4,1.2,4.4,3.2c0,3-3.7,5.4-7.3,5.4c-2.2,0-3.9-1.1-3.9-2.8C907.7,78.9,911.4,76.1,914.6,76.1z
				 M908.5,82.3c0,1,0.6,1.5,1.8,1.5c2.3,0,8-3.4,8-5.2c0-1-0.6-1.5-1.8-1.5C914.4,77,908.5,80.3,908.5,82.3z"/>
		</g>
	</g>
	<g transform="matrix(0.7425,0,0,0.7425,0,0)">
		<g class="st1">
			<path d="M904.6,91.3v-6.4l-4.9,1.7V69.4h0.8v6.4l4.9-1.7v17.2H904.6z M900.5,83.8l4.1-1.5V77l-4.1,1.5V83.8z"/>
		</g>
	</g>
	<g transform="matrix(0.7425,0,0,0.7425,0,0)">
		<line vector-effect="none" class="st3" x1="60.2" y1="175.4" x2="60.2" y2="202.2"/>
	</g>
	<g transform="matrix(0.7425,0,0,0.7425,0,0)">
		<g class="st1">
			<path d="M60,175.5c0-2.9,4.1-5.6,7.3-5.6c2.1,0,3.6,1.1,3.6,2.8c0,2.8-4.1,5.6-7.4,5.6C61.6,178.3,60,177.3,60,175.5z"/>
		</g>
	</g>
	<g transform="matrix(0.7425,0,0,0.7425,0,0)">
		<g class="st1">
			<path d="M50.5,160.8h1l-0.2,10.1c0.6-1.1,1.6-1.6,3-1.6c1.9,0,3.6,1.3,3.6,3.1c-0.1,1.2-0.8,2.8-2.8,4.3l-4.5,3.3V160.8z
				 M51.4,171.9c-0.1,1.2-0.2,2.3-0.2,3.1c0,1.6,0.1,2.6,0.2,3.2c1.7-1.1,3.9-4.3,3.9-5.9c0-1-0.8-1.7-1.8-1.7
				C52.6,170.6,51.9,171,51.4,171.9z"/>
		</g>
	</g>
	<g transform="matrix(0.7425,0,0,0.7425,0,0)">
		<line vector-effect="none" class="st3" x1="94.5" y1="167.4" x2="94.5" y2="194.2"/>
	</g>
	<g transform="matrix(0.7425,0,0,0.7425,0,0)">
		<g class="st1">
			<path d="M94.3,167.5c0-2.9,4.1-5.6,7.3-5.6c2.1,0,3.6,1.1,3.6,2.8c0,2.8-4.1,5.6-7.4,5.6C95.8,170.3,94.3,169.3,94.3,167.5z"/>
		</g>
	</g>
	<g transform="matrix(0.7425,0,0,0.7425,0,0)">
		<line vector-effect="none" class="st3" x1="128.8" y1="159.4" x2="128.8" y2="186.2"/>
	</g>
	<g transform="matrix(0.7425,0,0,0.7425,0,0)">
		<g class="st1">
			<path d="M135.4,153.8c2.7,0,4.4,1.2,4.4,3.2c0,3-3.7,5.4-7.3,5.4c-2.2,0-3.9-1.1-3.9-2.8C128.5,156.7,132.1,153.8,135.4,153.8z
				 M129.2,160c0,1,0.6,1.5,1.8,1.5c2.3,0,8-3.4,8-5.2c0-1-0.6-1.5-1.8-1.5C135.2,154.8,129.2,158,129.2,160z"/>
		</g>
	</g>
	<g transform="matrix(0.7425,0,0,0.7425,0,0)">
		<g class="st1">
			<path d="M119,144.8h1l-0.2,10.1c0.6-1.1,1.6-1.6,3-1.6c1.9,0,3.6,1.3,3.6,3.1c-0.1,1.2-0.8,2.8-2.8,4.3L119,164V144.8z
				 M119.9,155.9c-0.1,1.2-0.2,2.3-0.2,3.1c0,1.6,0.1,2.6,0.2,3.2c1.7-1.1,3.9-4.3,3.9-5.9c0-1-0.8-1.7-1.8-1.7
				C121.1,154.6,120.4,155,119.9,155.9z"/>
		</g>
	</g>
	<g transform="matrix(0.7425,0,0,0.7425,0,0)">
		<line vector-effect="none" class="st3" x1="218.8" y1="188.9" x2="218.8" y2="162.2"/>
	</g>
	<g transform="matrix(0.7425,0,0,0.7425,0,0)">
		<g class="st1">
			<path d="M208,191.5c0-2.9,4.1-5.6,7.3-5.6c2.1,0,3.6,1.1,3.6,2.8c0,2.8-4.1,5.6-7.4,5.6C209.6,194.3,208,193.3,208,191.5z"/>
		</g>
	</g>
	<g transform="matrix(0.7425,0,0,0.7425,0,0)">
		<line vector-effect="none" class="st3" x1="253" y1="180.9" x2="253" y2="154.2"/>
	</g>
	<g transform="matrix(0.7425,0,0,0.7425,0,0)">
		<g class="st1">
			<path d="M242.2,183.5c0-2.9,4.1-5.6,7.3-5.6c2.1,0,3.6,1.1,3.6,2.8c0,2.8-4.1,5.6-7.4,5.6C243.8,186.3,242.2,185.3,242.2,183.5z"
				/>
		</g>
	</g>
	<g transform="matrix(0.7425,0,0,0.7425,0,0)">
		<line vector-effect="none" class="st3" x1="276.5" y1="175.4" x2="276.5" y2="202.2"/>
	</g>
	<g transform="matrix(0.7425,0,0,0.7425,0,0)">
		<g class="st1">
			<path d="M283.1,169.8c2.7,0,4.4,1.2,4.4,3.2c0,3-3.7,5.4-7.3,5.4c-2.2,0-3.9-1.1-3.9-2.8C276.3,172.7,279.9,169.8,283.1,169.8z
				 M277,176c0,1,0.6,1.5,1.8,1.5c2.3,0,8-3.4,8-5.2c0-1-0.6-1.5-1.8-1.5C282.9,170.8,277,174,277,176z"/>
		</g>
	</g>
	<g transform="matrix(0.7425,0,0,0.7425,0,0)">
		<g class="st1">
			<path d="M273.1,185.1v-6.4l-4.9,1.7v-17.2h0.8v6.4l4.9-1.7v17.2H273.1z M269,177.6l4.1-1.5v-5.4l-4.1,1.5V177.6z"/>
		</g>
	</g>
	<g transform="matrix(0.7425,0,0,0.7425,0,0)">
		<line vector-effect="none" class="st3" x1="346.5" y1="179.4" x2="346.5" y2="206.2"/>
	</g>
	<g transform="matrix(0.7425,0,0,0.7425,0,0)">
		<g class="st1">
			<path d="M346.3,179.5c0-2.9,4.1-5.6,7.3-5.6c2.1,0,3.6,1.1,3.6,2.8c0,2.8-4.1,5.6-7.4,5.6C347.8,182.3,346.3,181.3,346.3,179.5z"
				/>
		</g>
	</g>
	<g transform="matrix(0.7425,0,0,0.7425,0,0)">
		<line vector-effect="none" class="st3" x1="380.8" y1="171.4" x2="380.8" y2="198.2"/>
	</g>
	<g transform="matrix(0.7425,0,0,0.7425,0,0)">
		<g class="st1">
			<path d="M380.5,171.5c0-2.9,4.1-5.6,7.3-5.6c2.1,0,3.6,1.1,3.6,2.8c0,2.8-4.1,5.6-7.4,5.6C382.1,174.3,380.5,173.3,380.5,171.5z"
				/>
		</g>
	</g>
	<g transform="matrix(0.7425,0,0,0.7425,0,0)">
		<line vector-effect="none" class="st3" x1="415" y1="163.4" x2="415" y2="190.2"/>
	</g>
	<g transform="matrix(0.7425,0,0,0.7425,0,0)">
		<g class="st1">
			<path d="M421.6,157.8c2.7,0,4.4,1.2,4.4,3.2c0,3-3.7,5.4-7.3,5.4c-2.2,0-3.9-1.1-3.9-2.8C414.8,160.7,418.4,157.8,421.6,157.8z
				 M415.5,164c0,1,0.6,1.5,1.8,1.5c2.3,0,8-3.4,8-5.2c0-1-0.6-1.5-1.8-1.5C421.4,158.8,415.5,162,415.5,164z"/>
		</g>
	</g>
	<g transform="matrix(0.7425,0,0,0.7425,0,0)">
		<line vector-effect="none" class="st3" x1="495.5" y1="184.9" x2="495.5" y2="158.2"/>
	</g>
	<g transform="matrix(0.7425,0,0,0.7425,0,0)">
		<g class="st1">
			<path d="M484.7,187.5c0-2.9,4.1-5.6,7.3-5.6c2.1,0,3.6,1.1,3.6,2.8c0,2.8-4.1,5.6-7.4,5.6C486.3,190.3,484.7,189.3,484.7,187.5z"
				/>
		</g>
	</g>
	<g transform="matrix(0.7425,0,0,0.7425,0,0)">
		<line vector-effect="none" class="st3" x1="519.2" y1="179.4" x2="519.2" y2="206.2"/>
	</g>
	<g transform="matrix(0.7425,0,0,0.7425,0,0)">
		<g class="st1">
			<path d="M519,179.5c0-2.9,4.1-5.6,7.3-5.6c2.1,0,3.6,1.1,3.6,2.8c0,2.8-4.1,5.6-7.4,5.6C520.6,182.3,519,181.3,519,179.5z"/>
		</g>
	</g>
	<g transform="matrix(0.7425,0,0,0.7425,0,0)">
		<line vector-effect="none" class="st3" x1="553.5" y1="171.4" x2="553.5" y2="198.2"/>
	</g>
	<g transform="matrix(0.7425,0,0,0.7425,0,0)">
		<g class="st1">
			<path d="M560.1,165.8c2.7,0,4.4,1.2,4.4,3.2c0,3-3.7,5.4-7.3,5.4c-2.2,0-3.9-1.1-3.9-2.8C553.2,168.7,556.9,165.8,560.1,165.8z
				 M554,172c0,1,0.6,1.5,1.8,1.5c2.3,0,8-3.4,8-5.2c0-1-0.6-1.5-1.8-1.5C559.9,166.8,554,170,554,172z"/>
		</g>
	</g>
	<g transform="matrix(0.7425,0,0,0.7425,0,0)">
		<line vector-effect="none" class="st3" x1="623.5" y1="175.4" x2="623.5" y2="202.2"/>
	</g>
	<g transform="matrix(0.7425,0,0,0.7425,0,0)">
		<g class="st1">
			<path d="M623.2,175.5c0-2.9,4.1-5.6,7.3-5.6c2.1,0,3.6,1.1,3.6,2.8c0,2.8-4.1,5.6-7.4,5.6C624.8,178.3,623.2,177.3,623.2,175.5z"
				/>
		</g>
	</g>
	<g transform="matrix(0.7425,0,0,0.7425,0,0)">
		<line vector-effect="none" class="st3" x1="657.8" y1="167.4" x2="657.8" y2="194.2"/>
	</g>
	<g transform="matrix(0.7425,0,0,0.7425,0,0)">
		<g class="st1">
			<path d="M657.5,167.5c0-2.9,4.1-5.6,7.3-5.6c2.1,0,3.6,1.1,3.6,2.8c0,2.8-4.1,5.6-7.4,5.6C659.1,170.3,657.5,169.3,657.5,167.5z"
				/>
		</g>
	</g>
	<g transform="matrix(0.7425,0,0,0.7425,0,0)">
		<line vector-effect="none" class="st3" x1="692" y1="159.4" x2="692" y2="186.2"/>
	</g>
	<g transform="matrix(0.7425,0,0,0.7425,0,0)">
		<g class="st1">
			<path d="M698.6,153.8c2.7,0,4.4,1.2,4.4,3.2c0,3-3.7,5.4-7.3,5.4c-2.2,0-3.9-1.1-3.9-2.8C691.7,156.7,695.4,153.8,698.6,153.8z
				 M692.5,160c0,1,0.6,1.5,1.8,1.5c2.3,0,8-3.4,8-5.2c0-1-0.6-1.5-1.8-1.5C698.4,154.8,692.5,158,692.5,160z"/>
		</g>
	</g>
	<g transform="matrix(0.7425,0,0,0.7425,0,0)">
		<line vector-effect="none" class="st3" x1="762" y1="163.4" x2="762" y2="190.2"/>
	</g>
	<g transform="matrix(0.7425,0,0,0.7425,0,0)">
		<g class="st1">
			<path d="M768.6,157.8c2.7,0,4.4,1.2,4.4,3.2c0,3-3.7,5.4-7.3,5.4c-2.2,0-3.9-1.1-3.9-2.8C761.8,160.7,765.4,157.8,768.6,157.8z
				 M762.5,164c0,1,0.6,1.5,1.8,1.5c2.3,0,8-3.4,8-5.2c0-1-0.6-1.5-1.8-1.5C768.4,158.8,762.5,162,762.5,164z"/>
		</g>
	</g>
	<g transform="matrix(0.7425,0,0,0.7425,0,0)">
		<line vector-effect="none" class="st0" x1="816.8" y1="154.2" x2="834" y2="154.2"/>
	</g>
	<g transform="matrix(0.7425,0,0,0.7425,0,0)">
		<line vector-effect="none" class="st3" x1="820" y1="155.4" x2="820" y2="182.2"/>
	</g>
	<g transform="matrix(0.7425,0,0,0.7425,0,0)">
		<g class="st1">
			<path d="M826.6,149.8c2.7,0,4.4,1.2,4.4,3.2c0,3-3.7,5.4-7.3,5.4c-2.2,0-3.9-1.1-3.9-2.8C819.7,152.7,823.4,149.8,826.6,149.8z
				 M820.5,156c0,1,0.6,1.5,1.8,1.5c2.3,0,8-3.4,8-5.2c0-1-0.6-1.5-1.8-1.5C826.4,150.8,820.5,154,820.5,156z"/>
		</g>
	</g>
	<g transform="matrix(0.7425,0,0,0.7425,0,0)">
		<g class="st1">
			<path d="M813.8,143.2v4.6l1.7-0.5v2.9l-1.7,0.5v5.5l1.7-0.5v2.9l-1.7,0.5v5H813v-4.8l-3.1,1v4.8h-0.8v-4.6l-1.7,0.5v-2.9l1.7-0.5
				v-5.5l-1.7,0.5v-2.9l1.7-0.5v-5h0.8v4.8l3.1-1v-4.8H813.8z M813,150.9l-3.1,1v5.5l3.1-1V150.9z"/>
		</g>
	</g>
	<g transform="matrix(0.7425,0,0,0.7425,0,0)">
		<line vector-effect="none" class="st0" x1="885.8" y1="154.2" x2="908.8" y2="154.2"/>
	</g>
	<g transform="matrix(0.7425,0,0,0.7425,0,0)">
		<line vector-effect="none" class="st0" x1="885.8" y1="146.2" x2="908.8" y2="146.2"/>
	</g>
	<g transform="matrix(0.7425,0,0,0.7425,0,0)">
		<g class="st1">
			<path d="M897.4,141.8c3.6,0,7.3,1.9,7.3,4.3c0,2.7-3.1,4.3-7.6,4.3c-4.1,0-7.3-1.7-7.3-4.3C889.8,143.6,893.5,141.8,897.4,141.8z
				 M900.5,145.3c-1-1.9-2-2.7-4.2-2.7c-2,0-3.1,0.8-3.1,2.5c0,2.4,2.2,4.8,4.2,4.8c1.9,0,3.4-0.2,3.8-2
				C901.2,147.1,900.9,146.2,900.5,145.3z"/>
		</g>
	</g>
	<g transform="matrix(0.7425,0,0,0.7425,0,0)">
		<line vector-effect="none" class="st3" x1="60.2" y1="253.2" x2="60.2" y2="279.9"/>
	</g>
	<g transform="matrix(0.7425,0,0,0.7425,0,0)">
		<g class="st1">
			<path d="M60,253.3c0-2.9,4.1-5.6,7.3-5.6c2.1,0,3.6,1.1,3.6,2.8c0,2.8-4.1,5.6-7.4,5.6C61.6,256.1,60,255.1,60,253.3z"/>
		</g>
	</g>
	<g transform="matrix(0.7425,0,0,0.7425,0,0)">
		<line vector-effect="none" class="st0" x1="104.2" y1="243.9" x2="121.2" y2="243.9"/>
	</g>
	<g transform="matrix(0.7425,0,0,0.7425,0,0)">
		<line vector-effect="none" class="st3" x1="107.5" y1="245.2" x2="107.5" y2="271.9"/>
	</g>
	<g transform="matrix(0.7425,0,0,0.7425,0,0)">
		<g class="st1">
			<path d="M107.3,245.3c0-2.9,4.1-5.6,7.3-5.6c2.1,0,3.6,1.1,3.6,2.8c0,2.8-4.1,5.6-7.4,5.6C108.8,248.1,107.3,247.1,107.3,245.3z"
				/>
		</g>
	</g>
	<g transform="matrix(0.7425,0,0,0.7425,0,0)">
		<g class="st1">
			<path d="M102.1,254.8v-6.4l-4.9,1.7v-17.2h0.8v6.4l4.9-1.7v17.2H102.1z M98.1,247.3l4.1-1.5v-5.4l-4.1,1.5V247.3z"/>
		</g>
	</g>
	<g transform="matrix(0.7425,0,0,0.7425,0,0)">
		<line vector-effect="none" class="st0" x1="151.5" y1="243.9" x2="168.8" y2="243.9"/>
	</g>
	<g transform="matrix(0.7425,0,0,0.7425,0,0)">
		<line vector-effect="none" class="st0" x1="151.5" y1="235.9" x2="168.8" y2="235.9"/>
	</g>
	<g transform="matrix(0.7425,0,0,0.7425,0,0)">
		<line vector-effect="none" class="st3" x1="154.8" y1="237.2" x2="154.8" y2="267.9"/>
	</g>
	<g transform="matrix(0.7425,0,0,0.7425,0,0)">
		<g class="st1">
			<path d="M161.4,231.6c2.7,0,4.4,1.2,4.4,3.2c0,3-3.7,5.4-7.3,5.4c-2.2,0-3.9-1.1-3.9-2.8C154.5,234.4,158.1,231.6,161.4,231.6z
				 M155.2,237.8c0,1,0.6,1.5,1.8,1.5c2.3,0,8-3.4,8-5.2c0-1-0.6-1.5-1.8-1.5C161.2,232.5,155.2,235.8,155.2,237.8z"/>
		</g>
	</g>
	<g transform="matrix(0.7425,0,0,0.7425,0,0)">
		<g class="st1">
			<path d="M149.4,246.8v-6.4l-4.9,1.7v-17.2h0.8v6.4l4.9-1.7v17.2H149.4z M145.3,239.3l4.1-1.5v-5.4l-4.1,1.5V239.3z"/>
		</g>
	</g>
	<g transform="matrix(0.7425,0,0,0.7425,0,0)">
		<line vector-effect="none" class="st3" x1="247" y1="269.2" x2="247" y2="293.7"/>
	</g>
	<g transform="matrix(0.7425,0,0,0.7425,0,0)">
		<g class="st1">
			<path d="M246.8,269.3c0-2.9,4.1-5.6,7.3-5.6c2.1,0,3.6,1.1,3.6,2.8c0,2.8-4.1,5.6-7.4,5.6C248.3,272.1,246.8,271.1,246.8,269.3z"
				/>
		</g>
	</g>
	<g transform="matrix(0.7425,0,0,0.7425,0,0)">
		<line vector-effect="none" class="st3" x1="281.2" y1="261.2" x2="281.2" y2="289.7"/>
	</g>
	<g transform="matrix(0.7425,0,0,0.7425,0,0)">
		<g class="st1">
			<path d="M281,261.3c0-2.9,4.1-5.6,7.3-5.6c2.1,0,3.6,1.1,3.6,2.8c0,2.8-4.1,5.6-7.4,5.6C282.6,264.1,281,263.1,281,261.3z"/>
		</g>
	</g>
	<g transform="matrix(0.7425,0,0,0.7425,0,0)">
		<g class="st1">
			<path d="M277.1,248.9v4.6l1.7-0.5v2.9l-1.7,0.5v5.5l1.7-0.5v2.9l-1.7,0.5v5h-0.8v-4.8l-3.1,1v4.8h-0.8v-4.6l-1.7,0.5v-2.9
				l1.7-0.5v-5.5l-1.7,0.5v-2.9l1.7-0.5v-5h0.8v4.8l3.1-1v-4.8H277.1z M276.3,256.6l-3.1,1v5.5l3.1-1V256.6z"/>
		</g>
	</g>
	<g transform="matrix(0.7425,0,0,0.7425,0,0)">
		<line vector-effect="none" class="st3" x1="315.5" y1="253.2" x2="315.5" y2="279.9"/>
	</g>
	<g transform="matrix(0.7425,0,0,0.7425,0,0)">
		<g class="st1">
			<path d="M315.3,253.3c0-2.9,4.1-5.6,7.3-5.6c2.1,0,3.6,1.1,3.6,2.8c0,2.8-4.1,5.6-7.4,5.6C316.8,256.1,315.3,255.1,315.3,253.3z"
				/>
		</g>
	</g>
	<g transform="matrix(0.7425,0,0,0.7425,0,0)">
		<g class="st1">
			<path d="M312.1,262.8v-6.4l-4.9,1.7v-17.2h0.8v6.4l4.9-1.7v17.2H312.1z M308,255.3l4.1-1.5v-5.4L308,250V255.3z"/>
		</g>
	</g>
	<g transform="matrix(0.7425,0,0,0.7425,0,0)">
		<line vector-effect="none" class="st3" x1="362.8" y1="269.2" x2="362.8" y2="293.7"/>
	</g>
	<g transform="matrix(0.7425,0,0,0.7425,0,0)">
		<g class="st1">
			<path d="M362.5,269.3c0-2.9,4.1-5.6,7.3-5.6c2.1,0,3.6,1.1,3.6,2.8c0,2.8-4.1,5.6-7.4,5.6C364.1,272.1,362.5,271.1,362.5,269.3z"
				/>
		</g>
	</g>
	<g transform="matrix(0.7425,0,0,0.7425,0,0)">
		<g class="st1">
			<path d="M353,254.5h1l-0.2,10.1c0.6-1.1,1.6-1.6,3-1.6c1.9,0,3.6,1.3,3.6,3.1c-0.1,1.2-0.8,2.8-2.8,4.3l-4.5,3.3V254.5z
				 M353.9,265.6c-0.1,1.2-0.2,2.3-0.2,3.1c0,1.6,0.1,2.6,0.2,3.2c1.7-1.1,3.9-4.3,3.9-5.9c0-1-0.8-1.7-1.8-1.7
				C355.1,264.3,354.4,264.8,353.9,265.6z"/>
		</g>
	</g>
	<g transform="matrix(0.7425,0,0,0.7425,0,0)">
		<line vector-effect="none" class="st3" x1="397" y1="261.2" x2="397" y2="289.7"/>
	</g>
	<g transform="matrix(0.7425,0,0,0.7425,0,0)">
		<g class="st1">
			<path d="M396.8,261.3c0-2.9,4.1-5.6,7.3-5.6c2.1,0,3.6,1.1,3.6,2.8c0,2.8-4.1,5.6-7.4,5.6C398.3,264.1,396.8,263.1,396.8,261.3z"
				/>
		</g>
	</g>
	<g transform="matrix(0.7425,0,0,0.7425,0,0)">
		<g class="st1">
			<path d="M393.6,270.8v-6.4l-4.9,1.7v-17.2h0.8v6.4l4.9-1.7v17.2H393.6z M389.5,263.3l4.1-1.5v-5.4l-4.1,1.5V263.3z"/>
		</g>
	</g>
	<g transform="matrix(0.7425,0,0,0.7425,0,0)">
		<line vector-effect="none" class="st3" x1="431.2" y1="253.2" x2="431.2" y2="279.9"/>
	</g>
	<g transform="matrix(0.7425,0,0,0.7425,0,0)">
		<g class="st1">
			<path d="M431,253.3c0-2.9,4.1-5.6,7.3-5.6c2.1,0,3.6,1.1,3.6,2.8c0,2.8-4.1,5.6-7.4,5.6C432.6,256.1,431,255.1,431,253.3z"/>
		</g>
	</g>
	<g transform="matrix(0.7425,0,0,0.7425,0,0)">
		<g class="st1">
			<path d="M421.5,238.5h1l-0.2,10.1c0.6-1.1,1.6-1.6,3-1.6c1.9,0,3.6,1.3,3.6,3.1c-0.1,1.2-0.8,2.8-2.8,4.3l-4.5,3.3V238.5z
				 M422.4,249.6c-0.1,1.2-0.2,2.3-0.2,3.1c0,1.6,0.1,2.6,0.2,3.2c1.7-1.1,3.9-4.3,3.9-5.9c0-1-0.8-1.7-1.8-1.7
				C423.6,248.3,422.9,248.8,422.4,249.6z"/>
		</g>
	</g>
	<g transform="matrix(0.7425,0,0,0.7425,0,0)">
		<line vector-effect="none" class="st3" x1="510.8" y1="270.7" x2="510.8" y2="243.9"/>
	</g>
	<g transform="matrix(0.7425,0,0,0.7425,0,0)">
		<g class="st1">
			<path d="M506.6,267.6c2.7,0,4.4,1.2,4.4,3.2c0,3-3.7,5.4-7.3,5.4c-2.2,0-3.9-1.1-3.9-2.8C499.8,270.4,503.4,267.6,506.6,267.6z
				 M500.5,273.8c0,1,0.6,1.5,1.8,1.5c2.3,0,8-3.4,8-5.2c0-1-0.6-1.5-1.8-1.5C506.4,268.5,500.5,271.8,500.5,273.8z"/>
		</g>
	</g>
	<g transform="matrix(0.7425,0,0,0.7425,0,0)">
		<line vector-effect="none" class="st3" x1="580.2" y1="265.2" x2="580.2" y2="291.9"/>
	</g>
	<g transform="matrix(0.7425,0,0,0.7425,0,0)">
		<g class="st1">
			<path d="M586.9,259.6c2.7,0,4.4,1.2,4.4,3.2c0,3-3.7,5.4-7.3,5.4c-2.2,0-3.9-1.1-3.9-2.8C580,262.4,583.6,259.6,586.9,259.6z
				 M580.7,265.8c0,1,0.6,1.5,1.8,1.5c2.3,0,8-3.4,8-5.2c0-1-0.6-1.5-1.8-1.5C586.7,260.5,580.7,263.8,580.7,265.8z"/>
		</g>
	</g>
	<g transform="matrix(0.7425,0,0,0.7425,0,0)">
		<g class="st1">
			<path d="M679.9,251.6c3.6,0,7.3,1.9,7.3,4.3c0,2.7-3.1,4.3-7.6,4.3c-4.1,0-7.3-1.7-7.3-4.3C672.2,253.3,676,251.6,679.9,251.6z
				 M683,255c-1-1.9-2-2.7-4.2-2.7c-2,0-3.1,0.8-3.1,2.5c0,2.4,2.2,4.8,4.2,4.8c1.9,0,3.4-0.2,3.8-2C683.7,256.8,683.4,256,683,255z
				"/>
		</g>
	</g>
	<g transform="matrix(0.7425,0,0,0.7425,0,0)">
		<line vector-effect="none" class="st3" x1="805.8" y1="270.7" x2="805.8" y2="243.9"/>
	</g>
	<g transform="matrix(0.7425,0,0,0.7425,0,0)">
		<g class="st1">
			<path d="M795,273.3c0-2.9,4.1-5.6,7.3-5.6c2.1,0,3.6,1.1,3.6,2.8c0,2.8-4.1,5.6-7.4,5.6C796.6,276.1,795,275.1,795,273.3z"/>
		</g>
	</g>
	<g transform="matrix(0.7425,0,0,0.7425,0,0)">
		<line vector-effect="none" class="st3" x1="842.5" y1="265.2" x2="842.5" y2="291.9"/>
	</g>
	<g transform="matrix(0.7425,0,0,0.7425,0,0)">
		<g class="st1">
			<path d="M842.2,265.3c0-2.9,4.1-5.6,7.3-5.6c2.1,0,3.6,1.1,3.6,2.8c0,2.8-4.1,5.6-7.4,5.6C843.8,268.1,842.2,267.1,842.2,265.3z"
				/>
		</g>
	</g>
	<g transform="matrix(0.7425,0,0,0.7425,0,0)">
		<g class="st1">
			<path d="M832.7,250.5h1l-0.2,10.1c0.6-1.1,1.6-1.6,3-1.6c1.9,0,3.6,1.3,3.6,3.1c-0.1,1.2-0.8,2.8-2.8,4.3l-4.5,3.3V250.5z
				 M833.7,261.6c-0.1,1.2-0.2,2.3-0.2,3.1c0,1.6,0.1,2.6,0.2,3.2c1.7-1.1,3.9-4.3,3.9-5.9c0-1-0.8-1.7-1.8-1.7
				C834.8,260.3,834.2,260.8,833.7,261.6z"/>
		</g>
	</g>
	<g transform="matrix(0.7425,0,0,0.7425,0,0)">
		<line vector-effect="none" class="st3" x1="889.8" y1="257.2" x2="889.8" y2="283.9"/>
	</g>
	<g transform="matrix(0.7425,0,0,0.7425,0,0)">
		<g class="st1">
			<path d="M896.4,251.6c2.7,0,4.4,1.2,4.4,3.2c0,3-3.7,5.4-7.3,5.4c-2.2,0-3.9-1.1-3.9-2.8C889.5,254.4,893.1,251.6,896.4,251.6z
				 M890.2,257.8c0,1,0.6,1.5,1.8,1.5c2.3,0,8-3.4,8-5.2c0-1-0.6-1.5-1.8-1.5C896.2,252.5,890.2,255.8,890.2,257.8z"/>
		</g>
	</g>
	<g transform="matrix(0.7425,0,0,0.7425,0,0)">
		<line vector-effect="none" class="st3" x1="60.2" y1="350.9" x2="60.2" y2="377.7"/>
	</g>
	<g transform="matrix(0.7425,0,0,0.7425,0,0)">
		<g class="st1">
			<path d="M60,351c0-2.9,4.1-5.6,7.3-5.6c2.1,0,3.6,1.1,3.6,2.8c0,2.8-4.1,5.6-7.4,5.6C61.6,353.8,60,352.8,60,351z"/>
		</g>
	</g>
	<g transform="matrix(0.7425,0,0,0.7425,0,0)">
		<g class="st1">
			<path d="M56.9,360.6v-6.4l-4.9,1.7v-17.2h0.8v6.4l4.9-1.7v17.2H56.9z M52.8,353.1l4.1-1.5v-5.4l-4.1,1.5V353.1z"/>
		</g>
	</g>
	<g transform="matrix(0.7425,0,0,0.7425,0,0)">
		<line vector-effect="none" class="st3" x1="111" y1="342.9" x2="111" y2="369.7"/>
	</g>
	<g transform="matrix(0.7425,0,0,0.7425,0,0)">
		<g class="st1">
			<path d="M110.8,343c0-2.9,4.1-5.6,7.3-5.6c2.1,0,3.6,1.1,3.6,2.8c0,2.8-4.1,5.6-7.4,5.6C112.3,345.8,110.8,344.8,110.8,343z"/>
		</g>
	</g>
	<g transform="matrix(0.7425,0,0,0.7425,0,0)">
		<line vector-effect="none" class="st0" x1="158.2" y1="333.7" x2="175.5" y2="333.7"/>
	</g>
	<g transform="matrix(0.7425,0,0,0.7425,0,0)">
		<line vector-effect="none" class="st3" x1="161.5" y1="334.9" x2="161.5" y2="361.7"/>
	</g>
	<g transform="matrix(0.7425,0,0,0.7425,0,0)">
		<g class="st1">
			<path d="M168.1,329.3c2.7,0,4.4,1.2,4.4,3.2c0,3-3.7,5.4-7.3,5.4c-2.2,0-3.9-1.1-3.9-2.8C161.3,332.2,164.9,329.3,168.1,329.3z
				 M162,335.5c0,1,0.6,1.5,1.8,1.5c2.3,0,8-3.4,8-5.2c0-1-0.6-1.5-1.8-1.5C167.9,330.3,162,333.5,162,335.5z"/>
		</g>
	</g>
	<g transform="matrix(0.7425,0,0,0.7425,0,0)">
		<line vector-effect="none" class="st3" x1="259.5" y1="346.9" x2="259.5" y2="373.7"/>
	</g>
	<g transform="matrix(0.7425,0,0,0.7425,0,0)">
		<g class="st1">
			<path d="M266.1,341.3c2.7,0,4.4,1.2,4.4,3.2c0,3-3.7,5.4-7.3,5.4c-2.2,0-3.9-1.1-3.9-2.8C259.3,344.2,262.9,341.3,266.1,341.3z
				 M260,347.5c0,1,0.6,1.5,1.8,1.5c2.3,0,8-3.4,8-5.2c0-1-0.6-1.5-1.8-1.5C265.9,342.3,260,345.5,260,347.5z"/>
		</g>
	</g>
	<g transform="matrix(0.7425,0,0,0.7425,0,0)">
		<line vector-effect="none" class="st3" x1="345.5" y1="338.9" x2="345.5" y2="365.7"/>
	</g>
	<g transform="matrix(0.7425,0,0,0.7425,0,0)">
		<g class="st1">
			<path d="M352.1,333.3c2.7,0,4.4,1.2,4.4,3.2c0,3-3.7,5.4-7.3,5.4c-2.2,0-3.9-1.1-3.9-2.8C345.3,336.2,348.9,333.3,352.1,333.3z
				 M346,339.5c0,1,0.6,1.5,1.8,1.5c2.3,0,8-3.4,8-5.2c0-1-0.6-1.5-1.8-1.5C351.9,334.3,346,337.5,346,339.5z"/>
		</g>
	</g>
	<g transform="matrix(0.7425,0,0,0.7425,0,0)">
		<line vector-effect="none" class="st0" x1="439.2" y1="333.7" x2="462.2" y2="333.7"/>
	</g>
	<g transform="matrix(0.7425,0,0,0.7425,0,0)">
		<g class="st1">
			<path d="M450.9,325.3c3.6,0,7.3,1.9,7.3,4.3c0,2.7-3.1,4.3-7.6,4.3c-4.1,0-7.3-1.7-7.3-4.3C443.3,327.1,447,325.3,450.9,325.3z
				 M454,328.8c-1-1.9-2-2.7-4.2-2.7c-2,0-3.1,0.8-3.1,2.5c0,2.4,2.2,4.8,4.2,4.8c1.9,0,3.4-0.2,3.8-2
				C454.7,330.6,454.4,329.7,454,328.8z"/>
		</g>
	</g>
	<g transform="matrix(0.7425,0,0,0.7425,0,0)">
		<line vector-effect="none" class="st3" x1="584.5" y1="364.4" x2="584.5" y2="337.7"/>
	</g>
	<g transform="matrix(0.7425,0,0,0.7425,0,0)">
		<g class="st1">
			<path d="M573.8,367c0-2.9,4.1-5.6,7.3-5.6c2.1,0,3.6,1.1,3.6,2.8c0,2.8-4.1,5.6-7.4,5.6C575.3,369.8,573.8,368.8,573.8,367z"/>
		</g>
	</g>
	<g transform="matrix(0.7425,0,0,0.7425,0,0)">
		<g class="st1">
			<path d="M564.2,352.3h1l-0.2,10.1c0.6-1.1,1.6-1.6,3-1.6c1.9,0,3.6,1.3,3.6,3.1c-0.1,1.2-0.8,2.8-2.8,4.3l-4.5,3.3V352.3z
				 M565.2,363.4c-0.1,1.2-0.2,2.3-0.2,3.1c0,1.6,0.1,2.6,0.2,3.2c1.7-1.1,3.9-4.3,3.9-5.9c0-1-0.8-1.7-1.8-1.7
				C566.3,362.1,565.7,362.5,565.2,363.4z"/>
		</g>
	</g>
	<g transform="matrix(0.7425,0,0,0.7425,0,0)">
		<line vector-effect="none" class="st3" x1="624.5" y1="358.9" x2="624.5" y2="385.7"/>
	</g>
	<g transform="matrix(0.7425,0,0,0.7425,0,0)">
		<g class="st1">
			<path d="M624.3,359c0-2.9,4.1-5.6,7.3-5.6c2.1,0,3.6,1.1,3.6,2.8c0,2.8-4.1,5.6-7.4,5.6C625.8,361.8,624.3,360.8,624.3,359z"/>
		</g>
	</g>
	<g transform="matrix(0.7425,0,0,0.7425,0,0)">
		<g class="st1">
			<path d="M614.8,344.3h1l-0.2,10.1c0.6-1.1,1.6-1.6,3-1.6c1.9,0,3.6,1.3,3.6,3.1c-0.1,1.2-0.8,2.8-2.8,4.3l-4.5,3.3V344.3z
				 M615.7,355.4c-0.1,1.2-0.2,2.3-0.2,3.1c0,1.6,0.1,2.6,0.2,3.2c1.7-1.1,3.9-4.3,3.9-5.9c0-1-0.8-1.7-1.8-1.7
				C616.8,354.1,616.2,354.5,615.7,355.4z"/>
		</g>
	</g>
	<g transform="matrix(0.7425,0,0,0.7425,0,0)">
		<line vector-effect="none" class="st3" x1="675.2" y1="350.9" x2="675.2" y2="377.7"/>
	</g>
	<g transform="matrix(0.7425,0,0,0.7425,0,0)">
		<g class="st1">
			<path d="M681.9,345.3c2.7,0,4.4,1.2,4.4,3.2c0,3-3.7,5.4-7.3,5.4c-2.2,0-3.9-1.1-3.9-2.8C675,348.2,678.6,345.3,681.9,345.3z
				 M675.7,351.5c0,1,0.6,1.5,1.8,1.5c2.3,0,8-3.4,8-5.2c0-1-0.6-1.5-1.8-1.5C681.7,346.3,675.7,349.5,675.7,351.5z"/>
		</g>
	</g>
	<g transform="matrix(0.7425,0,0,0.7425,0,0)">
		<g class="st1">
			<path d="M671.9,360.6v-6.4l-4.9,1.7v-17.2h0.8v6.4l4.9-1.7v17.2H671.9z M667.8,353.1l4.1-1.5v-5.4l-4.1,1.5V353.1z"/>
		</g>
	</g>
	<g transform="matrix(0.7425,0,0,0.7425,0,0)">
		<line vector-effect="none" class="st3" x1="773.2" y1="354.9" x2="773.2" y2="381.7"/>
	</g>
	<g transform="matrix(0.7425,0,0,0.7425,0,0)">
		<g class="st1">
			<path d="M773,355c0-2.9,4.1-5.6,7.3-5.6c2.1,0,3.6,1.1,3.6,2.8c0,2.8-4.1,5.6-7.4,5.6C774.6,357.8,773,356.8,773,355z"/>
		</g>
	</g>
	<g transform="matrix(0.7425,0,0,0.7425,0,0)">
		<g class="st1">
			<path d="M763.5,340.3h1l-0.2,10.1c0.6-1.1,1.6-1.6,3-1.6c1.9,0,3.6,1.3,3.6,3.1c-0.1,1.2-0.8,2.8-2.8,4.3l-4.5,3.3V340.3z
				 M764.4,351.4c-0.1,1.2-0.2,2.3-0.2,3.1c0,1.6,0.1,2.6,0.2,3.2c1.7-1.1,3.9-4.3,3.9-5.9c0-1-0.8-1.7-1.8-1.7
				C765.6,350.1,764.9,350.5,764.4,351.4z"/>
		</g>
	</g>
	<g transform="matrix(0.7425,0,0,0.7425,0,0)">
		<line vector-effect="none" class="st3" x1="824" y1="346.9" x2="824" y2="373.7"/>
	</g>
	<g transform="matrix(0.7425,0,0,0.7425,0,0)">
		<g class="st1">
			<path d="M823.8,347c0-2.9,4.1-5.6,7.3-5.6c2.1,0,3.6,1.1,3.6,2.8c0,2.8-4.1,5.6-7.4,5.6C825.3,349.8,823.8,348.8,823.8,347z"/>
		</g>
	</g>
	<g transform="matrix(0.7425,0,0,0.7425,0,0)">
		<line vector-effect="none" class="st3" x1="874.5" y1="338.9" x2="874.5" y2="365.7"/>
	</g>
	<g transform="matrix(0.7425,0,0,0.7425,0,0)">
		<g class="st1">
			<path d="M881.1,333.3c2.7,0,4.4,1.2,4.4,3.2c0,3-3.7,5.4-7.3,5.4c-2.2,0-3.9-1.1-3.9-2.8C874.3,336.2,877.9,333.3,881.1,333.3z
				 M875,339.5c0,1,0.6,1.5,1.8,1.5c2.3,0,8-3.4,8-5.2c0-1-0.6-1.5-1.8-1.5C880.9,334.3,875,337.5,875,339.5z"/>
		</g>
	</g>
	<g transform="matrix(0.7425,0,0,0.7425,0,0)">
		<g class="st1">
			<path d="M864.8,324.3h1l-0.2,10.1c0.6-1.1,1.6-1.6,3-1.6c1.9,0,3.6,1.3,3.6,3.1c-0.1,1.2-0.8,2.8-2.8,4.3l-4.5,3.3V324.3z
				 M865.7,335.4c-0.1,1.2-0.2,2.3-0.2,3.1c0,1.6,0.1,2.6,0.2,3.2c1.7-1.1,3.9-4.3,3.9-5.9c0-1-0.8-1.7-1.8-1.7
				C866.8,334.1,866.2,334.5,865.7,335.4z"/>
		</g>
	</g>
	<g transform="matrix(0.7425,0,0,0.7425,0,0)">
		<line vector-effect="none" class="st3" x1="70.8" y1="458.2" x2="70.8" y2="431.4"/>
	</g>
	<g transform="matrix(0.7425,0,0,0.7425,0,0)">
		<g class="st1">
			<path d="M60,460.8c0-2.9,4.1-5.6,7.3-5.6c2.1,0,3.6,1.1,3.6,2.8c0,2.8-4.1,5.6-7.4,5.6C61.6,463.6,60,462.6,60,460.8z"/>
		</g>
	</g>
	<g transform="matrix(0.7425,0,0,0.7425,0,0)">
		<line vector-effect="none" class="st3" x1="129.8" y1="450.2" x2="129.8" y2="423.4"/>
	</g>
	<g transform="matrix(0.7425,0,0,0.7425,0,0)">
		<g class="st1">
			<path d="M119,452.8c0-2.9,4.1-5.6,7.3-5.6c2.1,0,3.6,1.1,3.6,2.8c0,2.8-4.1,5.6-7.4,5.6C120.6,455.6,119,454.6,119,452.8z"/>
		</g>
	</g>
	<g transform="matrix(0.7425,0,0,0.7425,0,0)">
		<line vector-effect="none" class="st3" x1="178.5" y1="444.7" x2="178.5" y2="471.4"/>
	</g>
	<g transform="matrix(0.7425,0,0,0.7425,0,0)">
		<g class="st1">
			<path d="M185.1,439.1c2.7,0,4.4,1.2,4.4,3.2c0,3-3.7,5.4-7.3,5.4c-2.2,0-3.9-1.1-3.9-2.8C178.2,441.9,181.9,439.1,185.1,439.1z
				 M179,445.3c0,1,0.6,1.5,1.8,1.5c2.3,0,8-3.4,8-5.2c0-1-0.6-1.5-1.8-1.5C184.9,440,179,443.3,179,445.3z"/>
		</g>
	</g>
	<g transform="matrix(0.7425,0,0,0.7425,0,0)">
		<g class="st1">
			<path d="M175.1,454.3v-6.4l-4.9,1.7v-17.2h0.8v6.4l4.9-1.7v17.2H175.1z M171,446.8l4.1-1.5V440l-4.1,1.5V446.8z"/>
		</g>
	</g>
	<g transform="matrix(0.7425,0,0,0.7425,0,0)">
		<line vector-effect="none" class="st3" x1="290.8" y1="448.7" x2="290.8" y2="475.4"/>
	</g>
	<g transform="matrix(0.7425,0,0,0.7425,0,0)">
		<g class="st1">
			<path d="M290.5,448.8c0-2.9,4.1-5.6,7.3-5.6c2.1,0,3.6,1.1,3.6,2.8c0,2.8-4.1,5.6-7.4,5.6C292.1,451.6,290.5,450.6,290.5,448.8z"
				/>
		</g>
	</g>
	<g transform="matrix(0.7425,0,0,0.7425,0,0)">
		<line vector-effect="none" class="st3" x1="349.8" y1="440.7" x2="349.8" y2="467.4"/>
	</g>
	<g transform="matrix(0.7425,0,0,0.7425,0,0)">
		<g class="st1">
			<path d="M349.5,440.8c0-2.9,4.1-5.6,7.3-5.6c2.1,0,3.6,1.1,3.6,2.8c0,2.8-4.1,5.6-7.4,5.6C351.1,443.6,349.5,442.6,349.5,440.8z"
				/>
		</g>
	</g>
	<g transform="matrix(0.7425,0,0,0.7425,0,0)">
		<line vector-effect="none" class="st3" x1="409" y1="432.7" x2="409" y2="459.4"/>
	</g>
	<g transform="matrix(0.7425,0,0,0.7425,0,0)">
		<g class="st1">
			<path d="M415.6,427.1c2.7,0,4.4,1.2,4.4,3.2c0,3-3.7,5.4-7.3,5.4c-2.2,0-3.9-1.1-3.9-2.8C408.8,429.9,412.4,427.1,415.6,427.1z
				 M409.5,433.3c0,1,0.6,1.5,1.8,1.5c2.3,0,8-3.4,8-5.2c0-1-0.6-1.5-1.8-1.5C415.4,428,409.5,431.3,409.5,433.3z"/>
		</g>
	</g>
	<g transform="matrix(0.7425,0,0,0.7425,0,0)">
		<line vector-effect="none" class="st3" x1="531.8" y1="454.2" x2="531.8" y2="427.4"/>
	</g>
	<g transform="matrix(0.7425,0,0,0.7425,0,0)">
		<g class="st1">
			<path d="M521,456.8c0-2.9,4.1-5.6,7.3-5.6c2.1,0,3.6,1.1,3.6,2.8c0,2.8-4.1,5.6-7.4,5.6C522.6,459.6,521,458.6,521,456.8z"/>
		</g>
	</g>
	<g transform="matrix(0.7425,0,0,0.7425,0,0)">
		<line vector-effect="none" class="st3" x1="580.2" y1="448.7" x2="580.2" y2="475.4"/>
	</g>
	<g transform="matrix(0.7425,0,0,0.7425,0,0)">
		<g class="st1">
			<path d="M580,448.8c0-2.9,4.1-5.6,7.3-5.6c2.1,0,3.6,1.1,3.6,2.8c0,2.8-4.1,5.6-7.4,5.6C581.6,451.6,580,450.6,580,448.8z"/>
		</g>
	</g>
	<g transform="matrix(0.7425,0,0,0.7425,0,0)">
		<line vector-effect="none" class="st3" x1="639.2" y1="440.7" x2="639.2" y2="467.4"/>
	</g>
	<g transform="matrix(0.7425,0,0,0.7425,0,0)">
		<g class="st1">
			<path d="M645.9,435.1c2.7,0,4.4,1.2,4.4,3.2c0,3-3.7,5.4-7.3,5.4c-2.2,0-3.9-1.1-3.9-2.8C639,437.9,642.6,435.1,645.9,435.1z
				 M639.7,441.3c0,1,0.6,1.5,1.8,1.5c2.3,0,8-3.4,8-5.2c0-1-0.6-1.5-1.8-1.5C645.7,436,639.7,439.3,639.7,441.3z"/>
		</g>
	</g>
	<g transform="matrix(0.7425,0,0,0.7425,0,0)">
		<line vector-effect="none" class="st3" x1="751.5" y1="444.7" x2="751.5" y2="471.4"/>
	</g>
	<g transform="matrix(0.7425,0,0,0.7425,0,0)">
		<g class="st1">
			<path d="M751.2,444.8c0-2.9,4.1-5.6,7.3-5.6c2.1,0,3.6,1.1,3.6,2.8c0,2.8-4.1,5.6-7.4,5.6C752.8,447.6,751.2,446.6,751.2,444.8z"
				/>
		</g>
	</g>
	<g transform="matrix(0.7425,0,0,0.7425,0,0)">
		<line vector-effect="none" class="st3" x1="810.8" y1="436.7" x2="810.8" y2="463.4"/>
	</g>
	<g transform="matrix(0.7425,0,0,0.7425,0,0)">
		<g class="st1">
			<path d="M810.5,436.8c0-2.9,4.1-5.6,7.3-5.6c2.1,0,3.6,1.1,3.6,2.8c0,2.8-4.1,5.6-7.4,5.6C812.1,439.6,810.5,438.6,810.5,436.8z"
				/>
		</g>
	</g>
	<g transform="matrix(0.7425,0,0,0.7425,0,0)">
		<line vector-effect="none" class="st3" x1="869.8" y1="428.7" x2="869.8" y2="455.4"/>
	</g>
	<g transform="matrix(0.7425,0,0,0.7425,0,0)">
		<g class="st1">
			<path d="M876.4,423.1c2.7,0,4.4,1.2,4.4,3.2c0,3-3.7,5.4-7.3,5.4c-2.2,0-3.9-1.1-3.9-2.8C869.5,425.9,873.1,423.1,876.4,423.1z
				 M870.2,429.3c0,1,0.6,1.5,1.8,1.5c2.3,0,8-3.4,8-5.2c0-1-0.6-1.5-1.8-1.5C876.2,424,870.2,427.3,870.2,429.3z"/>
		</g>
	</g>
	<g transform="matrix(0.7425,0,0,0.7425,0,0)">
		<line vector-effect="none" class="st3" x1="60.2" y1="522.4" x2="60.2" y2="549.2"/>
	</g>
	<g transform="matrix(0.7425,0,0,0.7425,0,0)">
		<g class="st1">
			<path d="M60,522.5c0-2.9,4.1-5.6,7.3-5.6c2.1,0,3.6,1.1,3.6,2.8c0,2.8-4.1,5.6-7.4,5.6C61.6,525.3,60,524.3,60,522.5z"/>
		</g>
	</g>
	<g transform="matrix(0.7425,0,0,0.7425,0,0)">
		<line vector-effect="none" class="st0" x1="107.2" y1="513.2" x2="124.2" y2="513.2"/>
	</g>
	<g transform="matrix(0.7425,0,0,0.7425,0,0)">
		<line vector-effect="none" class="st3" x1="110.5" y1="514.4" x2="110.5" y2="541.2"/>
	</g>
	<g transform="matrix(0.7425,0,0,0.7425,0,0)">
		<g class="st1">
			<path d="M110.3,514.5c0-2.9,4.1-5.6,7.3-5.6c2.1,0,3.6,1.1,3.6,2.8c0,2.8-4.1,5.6-7.4,5.6C111.8,517.3,110.3,516.3,110.3,514.5z"
				/>
		</g>
	</g>
	<g transform="matrix(0.7425,0,0,0.7425,0,0)">
		<g class="st1">
			<path d="M104.3,502.2v4.6l1.7-0.5v2.9l-1.7,0.5v5.5l1.7-0.5v2.9l-1.7,0.5v5h-0.8v-4.8l-3.1,1v4.8h-0.8v-4.6l-1.7,0.5v-2.9
				l1.7-0.5v-5.5l-1.7,0.5v-2.9l1.7-0.5v-5h0.8v4.8l3.1-1v-4.8H104.3z M103.5,509.9l-3.1,1v5.5l3.1-1V509.9z"/>
		</g>
	</g>
	<g transform="matrix(0.7425,0,0,0.7425,0,0)">
		<line vector-effect="none" class="st0" x1="157.2" y1="513.2" x2="174.5" y2="513.2"/>
	</g>
	<g transform="matrix(0.7425,0,0,0.7425,0,0)">
		<line vector-effect="none" class="st0" x1="157.2" y1="505.2" x2="174.5" y2="505.2"/>
	</g>
	<g transform="matrix(0.7425,0,0,0.7425,0,0)">
		<line vector-effect="none" class="st3" x1="160.5" y1="506.4" x2="160.5" y2="537.2"/>
	</g>
	<g transform="matrix(0.7425,0,0,0.7425,0,0)">
		<g class="st1">
			<path d="M167.1,500.8c2.7,0,4.4,1.2,4.4,3.2c0,3-3.7,5.4-7.3,5.4c-2.2,0-3.9-1.1-3.9-2.8C160.3,503.7,163.9,500.8,167.1,500.8z
				 M161,507c0,1,0.6,1.5,1.8,1.5c2.3,0,8-3.4,8-5.2c0-1-0.6-1.5-1.8-1.5C166.9,501.8,161,505,161,507z"/>
		</g>
	</g>
	<g transform="matrix(0.7425,0,0,0.7425,0,0)">
		<line vector-effect="none" class="st3" x1="257.5" y1="522.4" x2="257.5" y2="548.9"/>
	</g>
	<g transform="matrix(0.7425,0,0,0.7425,0,0)">
		<g class="st1">
			<path d="M257.3,522.5c0-2.9,4.1-5.6,7.3-5.6c2.1,0,3.6,1.1,3.6,2.8c0,2.8-4.1,5.6-7.4,5.6C258.8,525.3,257.3,524.3,257.3,522.5z"
				/>
		</g>
	</g>
	<g transform="matrix(0.7425,0,0,0.7425,0,0)">
		<line vector-effect="none" class="st0" x1="290.8" y1="513.2" x2="307.8" y2="513.2"/>
	</g>
	<g transform="matrix(0.7425,0,0,0.7425,0,0)">
		<line vector-effect="none" class="st3" x1="294" y1="514.4" x2="294" y2="544.9"/>
	</g>
	<g transform="matrix(0.7425,0,0,0.7425,0,0)">
		<g class="st1">
			<path d="M293.8,514.5c0-2.9,4.1-5.6,7.3-5.6c2.1,0,3.6,1.1,3.6,2.8c0,2.8-4.1,5.6-7.4,5.6C295.3,517.3,293.8,516.3,293.8,514.5z"
				/>
		</g>
	</g>
	<g transform="matrix(0.7425,0,0,0.7425,0,0)">
		<g class="st1">
			<path d="M288.6,524.1v-6.4l-4.9,1.7v-17.2h0.8v6.4l4.9-1.7v17.2H288.6z M284.5,516.6l4.1-1.5v-5.4l-4.1,1.5V516.6z"/>
		</g>
	</g>
	<g transform="matrix(0.7425,0,0,0.7425,0,0)">
		<line vector-effect="none" class="st0" x1="327" y1="513.2" x2="344" y2="513.2"/>
	</g>
	<g transform="matrix(0.7425,0,0,0.7425,0,0)">
		<line vector-effect="none" class="st0" x1="327" y1="505.2" x2="344" y2="505.2"/>
	</g>
	<g transform="matrix(0.7425,0,0,0.7425,0,0)">
		<line vector-effect="none" class="st3" x1="330.2" y1="506.4" x2="330.2" y2="537.2"/>
	</g>
	<g transform="matrix(0.7425,0,0,0.7425,0,0)">
		<g class="st1">
			<path d="M330,506.5c0-2.9,4.1-5.6,7.3-5.6c2.1,0,3.6,1.1,3.6,2.8c0,2.8-4.1,5.6-7.4,5.6C331.6,509.3,330,508.3,330,506.5z"/>
		</g>
	</g>
	<g transform="matrix(0.7425,0,0,0.7425,0,0)">
		<line vector-effect="none" class="st3" x1="380.2" y1="538.4" x2="380.2" y2="562.9"/>
	</g>
	<g transform="matrix(0.7425,0,0,0.7425,0,0)">
		<g class="st1">
			<path d="M380,538.5c0-2.9,4.1-5.6,7.3-5.6c2.1,0,3.6,1.1,3.6,2.8c0,2.8-4.1,5.6-7.4,5.6C381.6,541.3,380,540.3,380,538.5z"/>
		</g>
	</g>
	<g transform="matrix(0.7425,0,0,0.7425,0,0)">
		<line vector-effect="none" class="st3" x1="416.5" y1="530.4" x2="416.5" y2="558.9"/>
	</g>
	<g transform="matrix(0.7425,0,0,0.7425,0,0)">
		<g class="st1">
			<path d="M416.2,530.5c0-2.9,4.1-5.6,7.3-5.6c2.1,0,3.6,1.1,3.6,2.8c0,2.8-4.1,5.6-7.4,5.6C417.8,533.3,416.2,532.3,416.2,530.5z"
				/>
		</g>
	</g>
	<g transform="matrix(0.7425,0,0,0.7425,0,0)">
		<line vector-effect="none" class="st3" x1="452.8" y1="522.4" x2="452.8" y2="549.2"/>
	</g>
	<g transform="matrix(0.7425,0,0,0.7425,0,0)">
		<g class="st1">
			<path d="M452.5,522.5c0-2.9,4.1-5.6,7.3-5.6c2.1,0,3.6,1.1,3.6,2.8c0,2.8-4.1,5.6-7.4,5.6C454.1,525.3,452.5,524.3,452.5,522.5z"
				/>
		</g>
	</g>
	<g transform="matrix(0.7425,0,0,0.7425,0,0)">
		<line vector-effect="none" class="st3" x1="515" y1="526.4" x2="515" y2="553.2"/>
	</g>
	<g transform="matrix(0.7425,0,0,0.7425,0,0)">
		<g class="st1">
			<path d="M514.8,526.5c0-2.9,4.1-5.6,7.3-5.6c2.1,0,3.6,1.1,3.6,2.8c0,2.8-4.1,5.6-7.4,5.6C516.3,529.3,514.8,528.3,514.8,526.5z"
				/>
		</g>
	</g>
	<g transform="matrix(0.7425,0,0,0.7425,0,0)">
		<line vector-effect="none" class="st3" x1="565.2" y1="518.4" x2="565.2" y2="545.2"/>
	</g>
	<g transform="matrix(0.7425,0,0,0.7425,0,0)">
		<g class="st1">
			<path d="M565,518.5c0-2.9,4.1-5.6,7.3-5.6c2.1,0,3.6,1.1,3.6,2.8c0,2.8-4.1,5.6-7.4,5.6C566.6,521.3,565,520.3,565,518.5z"/>
		</g>
	</g>
	<g transform="matrix(0.7425,0,0,0.7425,0,0)">
		<line vector-effect="none" class="st0" x1="612" y1="513.2" x2="629.2" y2="513.2"/>
	</g>
	<g transform="matrix(0.7425,0,0,0.7425,0,0)">
		<line vector-effect="none" class="st3" x1="615.2" y1="510.4" x2="615.2" y2="537.2"/>
	</g>
	<g transform="matrix(0.7425,0,0,0.7425,0,0)">
		<g class="st1">
			<path d="M621.9,504.8c2.7,0,4.4,1.2,4.4,3.2c0,3-3.7,5.4-7.3,5.4c-2.2,0-3.9-1.1-3.9-2.8C615,507.7,618.6,504.8,621.9,504.8z
				 M615.7,511c0,1,0.6,1.5,1.8,1.5c2.3,0,8-3.4,8-5.2c0-1-0.6-1.5-1.8-1.5C621.7,505.8,615.7,509,615.7,511z"/>
		</g>
	</g>
	<g transform="matrix(0.7425,0,0,0.7425,0,0)">
		<line vector-effect="none" class="st3" x1="712.2" y1="538.4" x2="712.2" y2="562.9"/>
	</g>
	<g transform="matrix(0.7425,0,0,0.7425,0,0)">
		<g class="st1">
			<path d="M712,538.5c0-2.9,4.1-5.6,7.3-5.6c2.1,0,3.6,1.1,3.6,2.8c0,2.8-4.1,5.6-7.4,5.6C713.6,541.3,712,540.3,712,538.5z"/>
		</g>
	</g>
	<g transform="matrix(0.7425,0,0,0.7425,0,0)">
		<line vector-effect="none" class="st3" x1="748.8" y1="530.4" x2="748.8" y2="558.9"/>
	</g>
	<g transform="matrix(0.7425,0,0,0.7425,0,0)">
		<g class="st1">
			<path d="M748.5,530.5c0-2.9,4.1-5.6,7.3-5.6c2.1,0,3.6,1.1,3.6,2.8c0,2.8-4.1,5.6-7.4,5.6C750.1,533.3,748.5,532.3,748.5,530.5z"
				/>
		</g>
	</g>
	<g transform="matrix(0.7425,0,0,0.7425,0,0)">
		<g class="st1">
			<path d="M745.4,540.1v-6.4l-4.9,1.7v-17.2h0.8v6.4l4.9-1.7v17.2H745.4z M741.3,532.6l4.1-1.5v-5.4l-4.1,1.5V532.6z"/>
		</g>
	</g>
	<g transform="matrix(0.7425,0,0,0.7425,0,0)">
		<line vector-effect="none" class="st3" x1="785" y1="522.4" x2="785" y2="549.2"/>
	</g>
	<g transform="matrix(0.7425,0,0,0.7425,0,0)">
		<g class="st1">
			<path d="M784.7,522.5c0-2.9,4.1-5.6,7.3-5.6c2.1,0,3.6,1.1,3.6,2.8c0,2.8-4.1,5.6-7.4,5.6C786.3,525.3,784.7,524.3,784.7,522.5z"
				/>
		</g>
	</g>
	<g transform="matrix(0.7425,0,0,0.7425,0,0)">
		<line vector-effect="none" class="st3" x1="835" y1="526.4" x2="835" y2="548.9"/>
	</g>
	<g transform="matrix(0.7425,0,0,0.7425,0,0)">
		<g class="st1">
			<path d="M834.7,526.5c0-2.9,4.1-5.6,7.3-5.6c2.1,0,3.6,1.1,3.6,2.8c0,2.8-4.1,5.6-7.4,5.6C836.3,529.3,834.7,528.3,834.7,526.5z"
				/>
		</g>
	</g>
	<g transform="matrix(0.7425,0,0,0.7425,0,0)">
		<line vector-effect="none" class="st3" x1="871.2" y1="518.4" x2="871.2" y2="544.9"/>
	</g>
	<g transform="matrix(0.7425,0,0,0.7425,0,0)">
		<g class="st1">
			<path d="M871,518.5c0-2.9,4.1-5.6,7.3-5.6c2.1,0,3.6,1.1,3.6,2.8c0,2.8-4.1,5.6-7.4,5.6C872.6,521.3,871,520.3,871,518.5z"/>
		</g>
	</g>
	<g transform="matrix(0.7425,0,0,0.7425,0,0)">
		<line vector-effect="none" class="st0" x1="904.2" y1="513.2" x2="921.2" y2="513.2"/>
	</g>
	<g transform="matrix(0.7425,0,0,0.7425,0,0)">
		<line vector-effect="none" class="st3" x1="907.5" y1="510.4" x2="907.5" y2="537.2"/>
	</g>
	<g transform="matrix(0.7425,0,0,0.7425,0,0)">
		<g class="st1">
			<path d="M907.2,510.5c0-2.9,4.1-5.6,7.3-5.6c2.1,0,3.6,1.1,3.6,2.8c0,2.8-4.1,5.6-7.4,5.6C908.8,513.3,907.2,512.3,907.2,510.5z"
				/>
		</g>
	</g>
</g>
</svg>
