<?xml version="1.0" encoding="utf-8"?>
<!-- Generator: Adobe Illustrator 26.3.1, SVG Export Plug-In . SVG Version: 6.00 Build 0)  -->
<svg version="1.1" id="Layer_1" xmlns="http://www.w3.org/2000/svg" xmlns:xlink="http://www.w3.org/1999/xlink" x="0px" y="0px"
	 viewBox="0 0 720 432" style="enable-background:new 0 0 720 432;" xml:space="preserve">
<style type="text/css">
	.st0{fill:none;stroke:#000000;stroke-width:3.0118;stroke-linejoin:bevel;stroke-miterlimit:10;}
	.st1{fill:none;stroke:#000000;stroke-width:0.9412;stroke-linejoin:bevel;stroke-miterlimit:10;}
	.st2{enable-background:new    ;}
	.st3{fill:none;stroke:#000000;stroke-width:0.5647;stroke-linejoin:bevel;stroke-miterlimit:10;}
	.st4{fill:none;stroke:#000000;stroke-width:0.3765;stroke-linejoin:bevel;stroke-miterlimit:10;}
	.st5{fill-rule:evenodd;clip-rule:evenodd;stroke:#000000;stroke-width:0.1882;stroke-linejoin:bevel;stroke-miterlimit:10;}
</style>
<g>
	<g transform="matrix(0.752953,0,0,0.752953,0,0)">
		<line vector-effect="none" class="st0" x1="59" y1="95.2" x2="59" y2="127.2"/>
	</g>
	<g transform="matrix(0.752953,0,0,0.752953,0,0)">
		<line vector-effect="none" class="st1" x1="64.5" y1="95.2" x2="64.5" y2="127.2"/>
	</g>
	<g transform="matrix(0.752953,0,0,0.752953,0,0)">
		<g class="st2">
			<path d="M71.3,107.3c0,0.7-0.7,1.4-1.5,1.4c-0.7,0-1.5-0.7-1.5-1.4c0-0.9,0.7-1.5,1.5-1.5C70.6,105.7,71.3,106.4,71.3,107.3z"/>
		</g>
	</g>
	<g transform="matrix(0.752953,0,0,0.752953,0,0)">
		<g class="st2">
			<path d="M71.3,115.2c0,0.7-0.7,1.4-1.5,1.4c-0.7,0-1.5-0.7-1.5-1.4c0-0.9,0.7-1.5,1.5-1.5C70.6,113.7,71.3,114.4,71.3,115.2z"/>
		</g>
	</g>
	<g transform="matrix(0.752953,0,0,0.752953,0,0)">
		<line vector-effect="none" class="st1" x1="292" y1="95.2" x2="292" y2="127.2"/>
	</g>
	<g transform="matrix(0.752953,0,0,0.752953,0,0)">
		<line vector-effect="none" class="st1" x1="513.2" y1="95.2" x2="513.2" y2="127.2"/>
	</g>
	<g transform="matrix(0.752953,0,0,0.752953,0,0)">
		<line vector-effect="none" class="st1" x1="734.5" y1="95.2" x2="734.5" y2="127.2"/>
	</g>
	<g transform="matrix(0.752953,0,0,0.752953,0,0)">
		<line vector-effect="none" class="st1" x1="955.8" y1="95.2" x2="955.8" y2="127.2"/>
	</g>
	<g transform="matrix(0.752953,0,0,0.752953,0,0)">
	</g>
	<g transform="matrix(0.752953,0,0,0.752953,222.874,172.929)">
	</g>
	<g transform="matrix(0.752953,0,0,0.752953,222.874,172.929)">
		<g class="st2">
			<path d="M-216.7-154.4h-5v-0.4c1.5,0,1.6-0.3,1.6-1.7v-7.5c0-1.4-0.1-1.7-1.6-1.7v-0.4h5.6c0.8,0,1.7,0.2,2.6,0.5
				c2.4,0.9,3.7,2.7,3.7,5.4C-209.8-156.6-212.4-154.4-216.7-154.4z M-216.9-165.5c-1.4,0-1.4,0.2-1.4,1.6v7.1c0,1.4,0,1.6,1.5,1.6
				c3.3,0,5.1-1.8,5.1-5C-211.7-163.4-213.6-165.5-216.9-165.5z"/>
			<path d="M-200.7-154.4v-0.3c0.7,0,1-0.2,1-1.2v-3.7c0-0.9-0.4-1.3-1.2-1.3c-0.6,0-1.3,0.3-1.8,1c0.1,0.1,0.1,0.5,0.1,1.1v1.6
				c0,0.8,0,1.2,0,1.2c0,1.1,0.2,1.3,1,1.3v0.3h-3.4v-0.3c0.7,0,1-0.2,1-1.2v-3.7c0-0.9-0.4-1.3-1.1-1.3c-0.6,0-1.2,0.3-1.8,1v4.1
				c0,0.9,0.3,1.1,1,1.1v0.3h-3.4v-0.3c0.9,0,1-0.3,1-1.3v-4c0-0.4-0.1-0.6-0.3-0.6h-0.8v-0.3l2.4-0.8v1.3c0.7-0.9,1.5-1.3,2.5-1.3
				c0.9,0,1.4,0.4,1.6,1.3c0.8-0.9,1.7-1.3,2.7-1.3c0.5,0,0.9,0.1,1.2,0.4c0.3,0.3,0.6,1.3,0.6,1.8v3.5c0,1.1,0.2,1.3,1,1.3v0.3
				H-200.7z"/>
			<path d="M-194.3-159h-0.7l2.4-7.4h-2.5c-0.7,0-1.2,0.4-1.5,1.1l-0.2-0.1l0.7-2h4.6L-194.3-159z"/>
		</g>
	</g>
	<g transform="matrix(0.752953,0,0,0.752953,222.874,172.929)">
	</g>
	<g transform="matrix(0.752953,0,0,0.752953,0,0)">
	</g>
	<g transform="matrix(0.752953,0,0,0.752953,556.432,172.929)">
	</g>
	<g transform="matrix(0.752953,0,0,0.752953,556.432,172.929)">
		<g class="st2">
			<path d="M-543-162.7h-0.3c-0.7-2.1-2-3.1-3.9-3.1c-2.7,0-4.4,2.2-4.4,5.4c0,3.2,1.9,5.8,4.5,5.8c0.9,0,1.7-0.2,2.4-0.6v-3.4
				c0-1.3-0.2-1.7-1.5-1.7v-0.4h4.5v0.4c-1.2,0-1.3,0.5-1.3,1.7v3.6c-1.3,0.7-2.6,1-4.1,1c-3.7,0-6.5-2.3-6.5-5.9
				c0-3.4,2.6-6.4,6.2-6.4c0.7,0,1.6,0.2,2.7,0.6c0.3,0.1,0.6,0.2,0.6,0.2c0.3,0,0.4-0.2,0.4-0.7h0.3L-543-162.7z"/>
			<path d="M-538.5-159h-0.7l2.4-7.4h-2.5c-0.7,0-1.2,0.4-1.5,1.1l-0.2-0.1l0.7-2h4.6L-538.5-159z"/>
		</g>
	</g>
	<g transform="matrix(0.752953,0,0,0.752953,556.432,172.929)">
	</g>
	<g transform="matrix(0.752953,0,0,0.752953,0,0)">
	</g>
	<g transform="matrix(0.752953,0,0,0.752953,889.237,172.929)">
	</g>
	<g transform="matrix(0.752953,0,0,0.752953,889.237,172.929)">
		<g class="st2">
			<path d="M-880.5-154.4h-5v-0.4c1.5,0,1.6-0.3,1.6-1.7v-7.5c0-1.4-0.1-1.7-1.6-1.7v-0.4h5.6c0.8,0,1.7,0.2,2.6,0.5
				c2.4,0.9,3.7,2.7,3.7,5.4C-873.5-156.6-876.2-154.4-880.5-154.4z M-880.6-165.5c-1.4,0-1.4,0.2-1.4,1.6v7.1c0,1.4,0,1.6,1.5,1.6
				c3.3,0,5.1-1.8,5.1-5C-875.5-163.4-877.3-165.5-880.6-165.5z"/>
			<path d="M-864.4-154.4v-0.3c0.7,0,1-0.2,1-1.2v-3.7c0-0.9-0.4-1.3-1.2-1.3c-0.6,0-1.3,0.3-1.8,1c0.1,0.1,0.1,0.5,0.1,1.1v1.6
				c0,0.8,0,1.2,0,1.2c0,1.1,0.2,1.3,1,1.3v0.3h-3.4v-0.3c0.7,0,1-0.2,1-1.2v-3.7c0-0.9-0.4-1.3-1.1-1.3c-0.6,0-1.2,0.3-1.8,1v4.1
				c0,0.9,0.3,1.1,1,1.1v0.3h-3.4v-0.3c0.9,0,1-0.3,1-1.3v-4c0-0.4-0.1-0.6-0.3-0.6h-0.8v-0.3l2.4-0.8v1.3c0.7-0.9,1.5-1.3,2.5-1.3
				c0.9,0,1.4,0.4,1.6,1.3c0.8-0.9,1.7-1.3,2.7-1.3c0.5,0,0.9,0.1,1.2,0.4c0.3,0.3,0.6,1.3,0.6,1.8v3.5c0,1.1,0.2,1.3,1,1.3v0.3
				H-864.4z"/>
			<path d="M-858.1-159h-0.7l2.4-7.4h-2.5c-0.7,0-1.2,0.4-1.5,1.1l-0.2-0.1l0.7-2h4.6L-858.1-159z"/>
		</g>
	</g>
	<g transform="matrix(0.752953,0,0,0.752953,889.237,172.929)">
	</g>
	<g transform="matrix(0.752953,0,0,0.752953,0,0)">
	</g>
	<g transform="matrix(0.752953,0,0,0.752953,1222.8,172.929)">
	</g>
	<g transform="matrix(0.752953,0,0,0.752953,1222.8,172.929)">
		<g class="st2">
			<path d="M-1206.8-162.7h-0.3c-0.7-2.1-2-3.1-3.9-3.1c-2.7,0-4.4,2.2-4.4,5.4c0,3.2,1.9,5.8,4.5,5.8c0.9,0,1.7-0.2,2.4-0.6v-3.4
				c0-1.3-0.2-1.7-1.5-1.7v-0.4h4.5v0.4c-1.2,0-1.3,0.5-1.3,1.7v3.6c-1.3,0.7-2.6,1-4.1,1c-3.7,0-6.5-2.3-6.5-5.9
				c0-3.4,2.6-6.4,6.2-6.4c0.7,0,1.6,0.2,2.7,0.6c0.3,0.1,0.6,0.2,0.6,0.2c0.3,0,0.4-0.2,0.4-0.7h0.3L-1206.8-162.7z"/>
			<path d="M-1202.2-159h-0.7l2.4-7.4h-2.5c-0.7,0-1.2,0.4-1.5,1.1l-0.2-0.1l0.7-2h4.6L-1202.2-159z"/>
		</g>
	</g>
	<g transform="matrix(0.752953,0,0,0.752953,1222.8,172.929)">
	</g>
	<g transform="matrix(0.752953,0,0,0.752953,0,0)">
	</g>
	<g transform="matrix(0.752953,0,0,0.752953,1557.86,172.929)">
	</g>
	<g transform="matrix(0.752953,0,0,0.752953,1557.86,172.929)">
		<g class="st2">
			<path d="M-1541.8-154.4h-9.7v-0.4c1.5,0,1.6-0.3,1.6-1.7v-7.5c0-1.4-0.1-1.7-1.6-1.7v-0.4h9.5v2.7h-0.4c-0.1-1.2-0.7-1.8-1.7-1.8
				h-3.1c-0.8,0-1,0.4-1,1.2v3.3h3.1c1,0,1.7-0.7,1.7-1.7h0.4v4.2h-0.4c0-1-0.7-1.7-1.7-1.7h-3.1v3.7c0,0.8,0.2,1.2,1,1.2h3
				c1.2,0,2.3-1,2.6-2.2h0.5L-1541.8-154.4z"/>
			<path d="M-1531.8-154.4v-0.3c0.7,0,1-0.2,1-1.2v-3.7c0-0.9-0.4-1.3-1.2-1.3c-0.6,0-1.3,0.3-1.8,1c0.1,0.1,0.1,0.5,0.1,1.1v1.6
				c0,0.8,0,1.2,0,1.2c0,1.1,0.2,1.3,1,1.3v0.3h-3.4v-0.3c0.7,0,1-0.2,1-1.2v-3.7c0-0.9-0.4-1.3-1.1-1.3c-0.6,0-1.2,0.3-1.8,1v4.1
				c0,0.9,0.3,1.1,1,1.1v0.3h-3.4v-0.3c0.9,0,1-0.3,1-1.3v-4c0-0.4-0.1-0.6-0.3-0.6h-0.8v-0.3l2.4-0.8v1.3c0.7-0.9,1.5-1.3,2.5-1.3
				c0.9,0,1.4,0.4,1.6,1.3c0.8-0.9,1.7-1.3,2.7-1.3c0.5,0,0.9,0.1,1.2,0.4c0.3,0.3,0.6,1.3,0.6,1.8v3.5c0,1.1,0.2,1.3,1,1.3v0.3
				H-1531.8z"/>
			<path d="M-1525.5-159h-0.7l2.4-7.4h-2.5c-0.7,0-1.2,0.4-1.5,1.1l-0.2-0.1l0.7-2h4.6L-1525.5-159z"/>
		</g>
	</g>
	<g transform="matrix(0.752953,0,0,0.752953,1557.86,172.929)">
	</g>
	<g transform="matrix(0.752953,0,0,0.752953,0,0)">
	</g>
	<g transform="matrix(0.752953,0,0,0.752953,1889.16,172.929)">
	</g>
	<g transform="matrix(0.752953,0,0,0.752953,1889.16,172.929)">
		<g class="st2">
			<path d="M-1873.6-154.4v-0.4c0.8,0,1.2-0.2,1.2-0.7c0-0.5-0.5-1.7-0.9-2.7h-4.7c-0.5,1-1,2.3-1,2.7c0,0.4,0.4,0.7,1.2,0.7v0.4
				h-3.5v-0.4c0.7-0.1,1.2-0.4,1.6-1.2l4.4-10.4h0.5l4.1,9.8c0.7,1.6,0.9,1.7,1.7,1.8v0.4H-1873.6z M-1877.7-159h4l-2.1-4.7
				L-1877.7-159z"/>
			<path d="M-1866-159h-0.7l2.4-7.4h-2.5c-0.7,0-1.2,0.4-1.5,1.1l-0.2-0.1l0.7-2h4.6L-1866-159z"/>
		</g>
	</g>
	<g transform="matrix(0.752953,0,0,0.752953,1889.16,172.929)">
	</g>
	<g transform="matrix(0.752953,0,0,0.752953,0,0)">
	</g>
	<g transform="matrix(0.752953,0,0,0.752953,2224.22,172.929)">
	</g>
	<g transform="matrix(0.752953,0,0,0.752953,2224.22,172.929)">
		<g class="st2">
			<path d="M-2205.5-154.4h-9.7v-0.4c1.5,0,1.6-0.3,1.6-1.7v-7.5c0-1.4-0.1-1.7-1.6-1.7v-0.4h9.6v2.7h-0.4c-0.1-1.2-0.7-1.8-1.7-1.8
				h-3.1c-0.8,0-1,0.4-1,1.2v3.3h3.1c1,0,1.7-0.7,1.7-1.7h0.4v4.2h-0.4c0-1-0.7-1.7-1.7-1.7h-3.1v3.7c0,0.8,0.2,1.2,1,1.2h3
				c1.2,0,2.3-1,2.6-2.2h0.5L-2205.5-154.4z"/>
			<path d="M-2195.6-154.4v-0.3c0.7,0,1-0.2,1-1.2v-3.7c0-0.9-0.4-1.3-1.2-1.3c-0.6,0-1.3,0.3-1.8,1c0.1,0.1,0.1,0.5,0.1,1.1v1.6
				c0,0.8,0,1.2,0,1.2c0,1.1,0.2,1.3,1,1.3v0.3h-3.4v-0.3c0.7,0,1-0.2,1-1.2v-3.7c0-0.9-0.4-1.3-1.1-1.3c-0.6,0-1.2,0.3-1.8,1v4.1
				c0,0.9,0.3,1.1,1,1.1v0.3h-3.4v-0.3c0.9,0,1-0.3,1-1.3v-4c0-0.4-0.1-0.6-0.3-0.6h-0.8v-0.3l2.4-0.8v1.3c0.7-0.9,1.5-1.3,2.5-1.3
				c0.9,0,1.4,0.4,1.6,1.3c0.8-0.9,1.7-1.3,2.7-1.3c0.5,0,0.9,0.1,1.2,0.4c0.3,0.3,0.6,1.3,0.6,1.8v3.5c0,1.1,0.2,1.3,1,1.3v0.3
				H-2195.6z"/>
			<path d="M-2189.2-159h-0.7l2.4-7.4h-2.5c-0.7,0-1.2,0.4-1.5,1.1l-0.2-0.1l0.7-2h4.6L-2189.2-159z"/>
		</g>
	</g>
	<g transform="matrix(0.752953,0,0,0.752953,2224.22,172.929)">
	</g>
	<g transform="matrix(0.752953,0,0,0.752953,0,0)">
	</g>
	<g transform="matrix(0.752953,0,0,0.752953,2555.52,172.929)">
	</g>
	<g transform="matrix(0.752953,0,0,0.752953,2555.52,172.929)">
		<g class="st2">
			<path d="M-2537.4-154.4v-0.4c0.8,0,1.2-0.2,1.2-0.7c0-0.5-0.5-1.7-0.9-2.7h-4.7c-0.5,1-1,2.3-1,2.7c0,0.4,0.4,0.7,1.2,0.7v0.4
				h-3.5v-0.4c0.7-0.1,1.2-0.4,1.6-1.2l4.4-10.4h0.5l4.1,9.8c0.7,1.6,0.9,1.7,1.7,1.8v0.4H-2537.4z M-2541.4-159h4l-2.1-4.7
				L-2541.4-159z"/>
			<path d="M-2529.7-159h-0.7l2.4-7.4h-2.5c-0.7,0-1.2,0.4-1.5,1.1l-0.2-0.1l0.7-2h4.6L-2529.7-159z"/>
		</g>
	</g>
	<g transform="matrix(0.752953,0,0,0.752953,2555.52,172.929)">
	</g>
	<g transform="matrix(0.752953,0,0,0.752953,0,0)">
	</g>
	<g transform="matrix(0.752953,0,0,0.752953,190.497,78.7628)">
	</g>
	<g transform="matrix(0.752953,0,0,0.752953,190.497,78.7628)">
		<g class="st2">
			<path d="M-180.4-61.7h-5.3l-0.6,1.5c-0.2,0.5-0.3,0.9-0.3,1.2c0,0.4,0.2,0.7,0.5,0.9c0.2,0.1,0.7,0.2,1.5,0.3v0.4h-5v-0.4
				c0.5-0.1,1-0.3,1.3-0.7c0.3-0.4,0.8-1.1,1.3-2.2l5.3-11.9h0.2l5.4,12.2c0.5,1.2,0.9,1.9,1.3,2.2c0.2,0.2,0.6,0.4,1.1,0.4v0.4
				h-7.2v-0.4h0.3c0.6,0,1-0.1,1.2-0.2c0.2-0.1,0.2-0.3,0.2-0.5c0-0.1,0-0.3-0.1-0.4c0-0.1-0.1-0.3-0.3-0.8L-180.4-61.7z
				 M-180.8-62.5l-2.2-5.1l-2.3,5.1H-180.8z"/>
		</g>
	</g>
	<g transform="matrix(0.752953,0,0,0.752953,190.497,78.7628)">
	</g>
	<g transform="matrix(0.752953,0,0,0.752953,0,0)">
	</g>
	<g transform="matrix(0.752953,0,0,0.752953,0,0)">
		<rect x="59.2" y="25.8" class="st3" width="24.2" height="26.5"/>
	</g>
	<g transform="matrix(0.752953,0,0,0.752953,0,0)">
		<line vector-effect="none" class="st1" x1="198.5" y1="202.2" x2="198.5" y2="234.2"/>
	</g>
	<g transform="matrix(0.752953,0,0,0.752953,0,0)">
		<line vector-effect="none" class="st1" x1="363.2" y1="202.2" x2="363.2" y2="234.2"/>
	</g>
	<g transform="matrix(0.752953,0,0,0.752953,0,0)">
		<line vector-effect="none" class="st1" x1="528.2" y1="202.2" x2="528.2" y2="234.2"/>
	</g>
	<g transform="matrix(0.752953,0,0,0.752953,0,0)">
		<line vector-effect="none" class="st1" x1="704.5" y1="202.2" x2="704.5" y2="234.2"/>
	</g>
	<g transform="matrix(0.752953,0,0,0.752953,0,0)">
		<line vector-effect="none" class="st0" x1="710" y1="202.2" x2="710" y2="234.2"/>
	</g>
	<g transform="matrix(0.752953,0,0,0.752953,0,0)">
		<g class="st2">
			<path d="M700.8,214.3c0,0.7-0.7,1.4-1.5,1.4c-0.7,0-1.5-0.7-1.5-1.4c0-0.9,0.7-1.5,1.5-1.5C700.1,212.7,700.8,213.4,700.8,214.3z
				"/>
		</g>
	</g>
	<g transform="matrix(0.752953,0,0,0.752953,0,0)">
		<g class="st2">
			<path d="M700.8,222.2c0,0.7-0.7,1.4-1.5,1.4c-0.7,0-1.5-0.7-1.5-1.4c0-0.9,0.7-1.5,1.5-1.5C700.1,220.7,700.8,221.4,700.8,222.2z
				"/>
		</g>
	</g>
	<g transform="matrix(0.752953,0,0,0.752953,0,0)">
		<line vector-effect="none" class="st1" x1="828.8" y1="202.2" x2="828.8" y2="234.2"/>
	</g>
	<g transform="matrix(0.752953,0,0,0.752953,0,0)">
		<line vector-effect="none" class="st1" x1="951.5" y1="202.2" x2="951.5" y2="234.2"/>
	</g>
	<g transform="matrix(0.752953,0,0,0.752953,0,0)">
		<line vector-effect="none" class="st1" x1="955.8" y1="202.2" x2="955.8" y2="234.2"/>
	</g>
	<g transform="matrix(0.752953,0,0,0.752953,0,0)">
	</g>
	<g transform="matrix(0.752953,0,0,0.752953,110.684,495.193)">
	</g>
	<g transform="matrix(0.752953,0,0,0.752953,110.684,495.193)">
		<g class="st2">
			<path d="M-102.1-475.4v-0.4c0.8,0,1.2-0.2,1.2-0.7c0-0.5-0.5-1.7-0.9-2.7h-4.7c-0.5,1-1,2.3-1,2.7c0,0.4,0.4,0.7,1.2,0.7v0.4
				h-3.6v-0.4c0.7-0.1,1.2-0.4,1.6-1.2l4.4-10.4h0.5l4.1,9.8c0.7,1.6,0.9,1.7,1.7,1.8v0.4H-102.1z M-106.2-480h4l-2.1-4.7
				L-106.2-480z"/>
			<path d="M-88.6-475.4v-0.3c0.7,0,1-0.2,1-1.2v-3.7c0-0.9-0.4-1.3-1.2-1.3c-0.6,0-1.3,0.3-1.8,1c0.1,0.1,0.1,0.5,0.1,1.1v1.6
				c0,0.8,0,1.2,0,1.2c0,1.1,0.2,1.3,1,1.3v0.3h-3.4v-0.3c0.7,0,1-0.2,1-1.2v-3.7c0-0.9-0.4-1.3-1.1-1.3c-0.6,0-1.2,0.3-1.8,1v4.1
				c0,0.9,0.3,1.1,1,1.1v0.3h-3.4v-0.3c0.9,0,1-0.3,1-1.3v-4c0-0.4-0.1-0.6-0.3-0.6h-0.8v-0.3l2.4-0.8v1.3c0.7-0.9,1.5-1.3,2.5-1.3
				c0.9,0,1.4,0.4,1.6,1.3c0.8-0.9,1.7-1.3,2.7-1.3c0.5,0,0.9,0.1,1.2,0.4c0.3,0.3,0.6,1.3,0.6,1.8v3.5c0,1.1,0.2,1.3,1,1.3v0.3
				H-88.6z"/>
			<path d="M-82.2-480H-83l2.4-7.4h-2.5c-0.7,0-1.2,0.4-1.5,1.1l-0.2-0.1l0.7-2h4.6L-82.2-480z"/>
		</g>
	</g>
	<g transform="matrix(0.752953,0,0,0.752953,110.684,495.193)">
	</g>
	<g transform="matrix(0.752953,0,0,0.752953,0,0)">
	</g>
	<g transform="matrix(0.752953,0,0,0.752953,359.911,495.193)">
	</g>
	<g transform="matrix(0.752953,0,0,0.752953,359.911,495.193)">
		<g class="st2">
			<path d="M-353.2-475.4h-5v-0.4c1.5,0,1.6-0.3,1.6-1.7v-7.5c0-1.4-0.1-1.7-1.6-1.7v-0.4h5.6c0.8,0,1.7,0.2,2.6,0.5
				c2.5,0.9,3.7,2.7,3.7,5.4C-346.3-477.6-348.9-475.4-353.2-475.4z M-353.4-486.5c-1.4,0-1.4,0.2-1.4,1.6v7.1c0,1.4,0,1.6,1.5,1.6
				c3.3,0,5.1-1.8,5.1-5C-348.2-484.4-350.1-486.5-353.4-486.5z"/>
			<path d="M-343.1-480h-0.7l2.4-7.4h-2.5c-0.7,0-1.2,0.4-1.5,1.1l-0.2-0.1l0.7-2h4.6L-343.1-480z"/>
		</g>
	</g>
	<g transform="matrix(0.752953,0,0,0.752953,359.911,495.193)">
	</g>
	<g transform="matrix(0.752953,0,0,0.752953,0,0)">
	</g>
	<g transform="matrix(0.752953,0,0,0.752953,597.844,495.193)">
	</g>
	<g transform="matrix(0.752953,0,0,0.752953,597.844,495.193)">
		<g class="st2">
			<path d="M-587.4-475.4v-0.4c0.8,0,1.2-0.2,1.2-0.7c0-0.5-0.5-1.7-0.9-2.7h-4.7c-0.5,1-1,2.3-1,2.7c0,0.4,0.4,0.7,1.2,0.7v0.4
				h-3.6v-0.4c0.7-0.1,1.2-0.4,1.6-1.2l4.4-10.4h0.5l4.1,9.8c0.7,1.6,0.9,1.7,1.7,1.8v0.4H-587.4z M-591.4-480h4l-2.1-4.7
				L-591.4-480z"/>
			<path d="M-581.8-488.1h0.8l-0.1,6.4c0.9-1,1.1-1.1,1.9-1.1c1.3,0,2.2,0.9,2.2,2.3c0,2-2,2.8-3.6,4.1l-1.2,1V-488.1z M-581-480.8
				c-0.1,1.3-0.1,2.1-0.1,2.5c0,0.6,0.1,1.2,0.2,1.5c1.7-1.3,2.5-2.6,2.5-3.7c0-0.9-0.5-1.6-1.3-1.6
				C-580.4-482.1-580.6-481.4-581-480.8z"/>
			<path d="M-567.5-475.4v-0.3c0.7,0,1-0.2,1-1.2v-3.7c0-0.9-0.4-1.3-1.2-1.3c-0.6,0-1.3,0.3-1.8,1c0.1,0.1,0.1,0.5,0.1,1.1v1.6
				c0,0.8,0,1.2,0,1.2c0,1.1,0.2,1.3,1,1.3v0.3h-3.4v-0.3c0.7,0,1-0.2,1-1.2v-3.7c0-0.9-0.4-1.3-1.1-1.3c-0.6,0-1.2,0.3-1.8,1v4.1
				c0,0.9,0.3,1.1,1,1.1v0.3h-3.4v-0.3c0.9,0,1-0.3,1-1.3v-4c0-0.4-0.1-0.6-0.3-0.6h-0.8v-0.3l2.4-0.8v1.3c0.7-0.9,1.5-1.3,2.5-1.3
				c0.9,0,1.4,0.4,1.6,1.3c0.8-0.9,1.7-1.3,2.7-1.3c0.5,0,0.9,0.1,1.2,0.4c0.3,0.3,0.6,1.3,0.6,1.8v3.5c0,1.1,0.2,1.3,1,1.3v0.3
				H-567.5z"/>
			<path d="M-561.1-480h-0.7l2.4-7.4h-2.5c-0.7,0-1.2,0.4-1.5,1.1l-0.2-0.1l0.7-2h4.6L-561.1-480z"/>
		</g>
	</g>
	<g transform="matrix(0.752953,0,0,0.752953,597.844,495.193)">
	</g>
	<g transform="matrix(0.752953,0,0,0.752953,0,0)">
	</g>
	<g transform="matrix(0.752953,0,0,0.752953,846.319,495.193)">
	</g>
	<g transform="matrix(0.752953,0,0,0.752953,846.319,495.193)">
		<g class="st2">
			<path d="M-837.7-475.4h-5v-0.4c1.5,0,1.6-0.3,1.6-1.7v-7.5c0-1.4-0.1-1.7-1.6-1.7v-0.4h5.6c0.8,0,1.7,0.2,2.6,0.5
				c2.5,0.9,3.7,2.7,3.7,5.4C-830.8-477.6-833.4-475.4-837.7-475.4z M-837.9-486.5c-1.4,0-1.4,0.2-1.4,1.6v7.1c0,1.4,0,1.6,1.5,1.6
				c3.3,0,5.1-1.8,5.1-5C-832.7-484.4-834.6-486.5-837.9-486.5z"/>
			<path d="M-829.6-488.1h0.8l-0.1,6.4c0.9-1,1.1-1.1,1.9-1.1c1.3,0,2.2,0.9,2.2,2.3c0,2-2,2.8-3.6,4.1l-1.2,1V-488.1z
				 M-828.8-480.8c-0.1,1.3-0.1,2.1-0.1,2.5c0,0.6,0.1,1.2,0.2,1.5c1.7-1.3,2.5-2.6,2.5-3.7c0-0.9-0.5-1.6-1.3-1.6
				C-828.2-482.1-828.5-481.4-828.8-480.8z"/>
			<path d="M-821.2-480h-0.7l2.4-7.4h-2.5c-0.7,0-1.2,0.4-1.5,1.1l-0.2-0.1l0.7-2h4.6L-821.2-480z"/>
		</g>
	</g>
	<g transform="matrix(0.752953,0,0,0.752953,846.319,495.193)">
	</g>
	<g transform="matrix(0.752953,0,0,0.752953,0,0)">
	</g>
	<g transform="matrix(0.752953,0,0,0.752953,1088.02,495.193)">
	</g>
	<g transform="matrix(0.752953,0,0,0.752953,1088.02,495.193)">
		<g class="st2">
			<path d="M-1077.2-475.2c-3.5,0-5.9-2.4-5.9-5.9c0-3.4,2.5-6.4,6-6.4c1.2,0,3.2,0.7,3.4,0.7c0.3,0,0.5-0.2,0.7-0.7h0.6v4.2h-0.5
				c-0.4-2.1-1.8-3.4-3.9-3.4c-2.7,0-4.3,2.2-4.3,5.4c0,3.2,1.7,5.3,4.4,5.3c1.6,0,2.9-0.6,4-1.9l0.3,0.5
				C-1073.6-475.9-1075.2-475.2-1077.2-475.2z"/>
			<path d="M-1062.6-480v-0.3c0.7,0,1-0.2,1-1.2v-3.7c0-0.9-0.4-1.3-1.2-1.3c-0.6,0-1.3,0.3-1.8,1c0.1,0.1,0.1,0.5,0.1,1.1v1.6
				c0,0.8,0,1.2,0,1.2c0,1.1,0.2,1.3,1,1.3v0.3h-3.4v-0.3c0.7,0,1-0.2,1-1.2v-3.7c0-0.9-0.4-1.3-1.1-1.3c-0.6,0-1.2,0.3-1.8,1v4.1
				c0,0.9,0.3,1.1,1,1.1v0.3h-3.4v-0.3c0.9,0,1-0.3,1-1.3v-4c0-0.4-0.1-0.6-0.3-0.6h-0.8v-0.3l2.4-0.8v1.3c0.7-0.9,1.5-1.3,2.5-1.3
				c0.9,0,1.4,0.4,1.6,1.3c0.8-0.9,1.7-1.3,2.7-1.3c0.5,0,0.9,0.1,1.2,0.4c0.3,0.3,0.6,1.3,0.6,1.8v3.5c0,1.1,0.2,1.3,1,1.3v0.3
				H-1062.6z"/>
			<path d="M-1052.3-480.8c-0.5,0.6-1,0.9-1.5,0.9c-0.6,0-0.9-0.4-1-1.2c-1,0.8-1.8,1.2-2.5,1.2c-0.9,0-1.5-0.9-1.5-1.7
				c0-1.4,0.9-2.2,3.9-3.1v-1c0-0.9-0.4-1.3-1.2-1.3c-0.5,0-1.1,0.3-1.1,0.8c0,0.1,0.1,0.5,0.1,0.6c0,0.4-0.4,0.7-0.7,0.7
				c-0.4,0-0.6-0.2-0.6-0.7c0-1,1.4-1.8,2.6-1.8c1.4,0,2.3,0.8,2.3,2.3v3.6c0,0.4,0.1,0.6,0.4,0.6c0.2,0,0.5-0.1,0.8-0.4V-480.8z
				 M-1054.8-484.2c-0.9,0.3-1.5,0.5-1.7,0.6c-0.5,0.3-0.8,0.8-0.8,1.5c0,0.7,0.4,1.3,1,1.3c0.4,0,0.9-0.2,1.5-0.6V-484.2z"/>
			<path d="M-1051.5-486.6l2.6-0.9v6.8c0,2.7-0.9,4-2.6,4c-0.8,0-1.5-0.3-1.5-1c0-0.4,0.2-0.6,0.5-0.6c0.4,0,1.2,1,1.6,1
				c0.4,0,0.6-0.6,0.6-1.8v-6.2c0-0.6-0.2-1-0.5-1c-0.1,0-0.4,0-0.7,0.1V-486.6z M-1049.7-489.5c-0.4,0-0.8-0.4-0.8-0.8
				c0-0.4,0.4-0.8,0.8-0.8c0.4,0,0.8,0.4,0.8,0.8C-1048.8-489.9-1049.2-489.5-1049.7-489.5z"/>
			<path d="M-1045.3-480h-0.7l2.4-7.4h-2.5c-0.7,0-1.2,0.4-1.5,1.1l-0.2-0.1l0.7-2h4.6L-1045.3-480z"/>
		</g>
	</g>
	<g transform="matrix(0.752953,0,0,0.752953,1088.02,495.193)">
	</g>
	<g transform="matrix(0.752953,0,0,0.752953,0,0)">
	</g>
	<g transform="matrix(0.752953,0,0,0.752953,1334.23,495.193)">
	</g>
	<g transform="matrix(0.752953,0,0,0.752953,1334.23,495.193)">
		<g class="st2">
			<path d="M-1323.7-475.4h-5v-0.4c1.5,0,1.6-0.3,1.6-1.7v-7.5c0-1.4-0.1-1.7-1.6-1.7v-0.4h5.6c0.8,0,1.7,0.2,2.6,0.5
				c2.5,0.9,3.7,2.7,3.7,5.4C-1316.8-477.6-1319.4-475.4-1323.7-475.4z M-1323.9-486.5c-1.4,0-1.4,0.2-1.4,1.6v7.1
				c0,1.4,0,1.6,1.5,1.6c3.3,0,5.1-1.8,5.1-5C-1318.7-484.4-1320.6-486.5-1323.9-486.5z"/>
			<path d="M-1307.7-475.4v-0.3c0.7,0,1-0.2,1-1.2v-3.7c0-0.9-0.4-1.3-1.2-1.3c-0.6,0-1.3,0.3-1.8,1c0.1,0.1,0.1,0.5,0.1,1.1v1.6
				c0,0.8,0,1.2,0,1.2c0,1.1,0.2,1.3,1,1.3v0.3h-3.4v-0.3c0.7,0,1-0.2,1-1.2v-3.7c0-0.9-0.4-1.3-1.1-1.3c-0.6,0-1.2,0.3-1.8,1v4.1
				c0,0.9,0.3,1.1,1,1.1v0.3h-3.4v-0.3c0.9,0,1-0.3,1-1.3v-4c0-0.4-0.1-0.6-0.3-0.6h-0.8v-0.3l2.4-0.8v1.3c0.7-0.9,1.5-1.3,2.5-1.3
				c0.9,0,1.4,0.4,1.6,1.3c0.8-0.9,1.7-1.3,2.7-1.3c0.5,0,0.9,0.1,1.2,0.4c0.3,0.3,0.6,1.3,0.6,1.8v3.5c0,1.1,0.2,1.3,1,1.3v0.3
				H-1307.7z"/>
			<path d="M-1301.3-480h-0.7l2.4-7.4h-2.5c-0.7,0-1.2,0.4-1.5,1.1l-0.2-0.1l0.7-2h4.6L-1301.3-480z"/>
		</g>
	</g>
	<g transform="matrix(0.752953,0,0,0.752953,1334.23,495.193)">
	</g>
	<g transform="matrix(0.752953,0,0,0.752953,0,0)">
	</g>
	<g transform="matrix(0.752953,0,0,0.752953,1603.04,495.193)">
	</g>
	<g transform="matrix(0.752953,0,0,0.752953,1603.04,495.193)">
		<g class="st2">
			<path d="M-1586.8-475.4h-9.7v-0.4c1.5,0,1.6-0.3,1.6-1.7v-7.5c0-1.4-0.1-1.7-1.6-1.7v-0.4h9.6v2.7h-0.4c-0.1-1.2-0.7-1.8-1.7-1.8
				h-3.1c-0.8,0-1,0.4-1,1.2v3.3h3.1c1,0,1.7-0.7,1.7-1.7h0.4v4.2h-0.4c0-1-0.7-1.7-1.7-1.7h-3.1v3.7c0,0.8,0.2,1.2,1,1.2h3
				c1.2,0,2.3-1,2.6-2.2h0.5L-1586.8-475.4z"/>
			<path d="M-1576.8-475.4v-0.3c0.7,0,1-0.2,1-1.2v-3.7c0-0.9-0.4-1.3-1.2-1.3c-0.6,0-1.3,0.3-1.8,1c0.1,0.1,0.1,0.5,0.1,1.1v1.6
				c0,0.8,0,1.2,0,1.2c0,1.1,0.2,1.3,1,1.3v0.3h-3.4v-0.3c0.7,0,1-0.2,1-1.2v-3.7c0-0.9-0.4-1.3-1.1-1.3c-0.6,0-1.2,0.3-1.8,1v4.1
				c0,0.9,0.3,1.1,1,1.1v0.3h-3.4v-0.3c0.9,0,1-0.3,1-1.3v-4c0-0.4-0.1-0.6-0.3-0.6h-0.8v-0.3l2.4-0.8v1.3c0.7-0.9,1.5-1.3,2.5-1.3
				c0.9,0,1.4,0.4,1.6,1.3c0.8-0.9,1.7-1.3,2.7-1.3c0.5,0,0.9,0.1,1.2,0.4c0.3,0.3,0.6,1.3,0.6,1.8v3.5c0,1.1,0.2,1.3,1,1.3v0.3
				H-1576.8z"/>
			<path d="M-1570.5-480h-0.7l2.4-7.4h-2.5c-0.7,0-1.2,0.4-1.5,1.1l-0.2-0.1l0.7-2h4.6L-1570.5-480z"/>
		</g>
	</g>
	<g transform="matrix(0.752953,0,0,0.752953,1603.04,495.193)">
	</g>
	<g transform="matrix(0.752953,0,0,0.752953,0,0)">
	</g>
	<g transform="matrix(0.752953,0,0,0.752953,1849.25,495.193)">
	</g>
	<g transform="matrix(0.752953,0,0,0.752953,1849.25,495.193)">
		<g class="st2">
			<path d="M-1833.9-475.4v-0.4c0.8,0,1.2-0.2,1.2-0.7c0-0.5-0.5-1.7-0.9-2.7h-4.7c-0.5,1-1,2.3-1,2.7c0,0.4,0.4,0.7,1.2,0.7v0.4
				h-3.6v-0.4c0.7-0.1,1.2-0.4,1.6-1.2l4.4-10.4h0.5l4.1,9.8c0.7,1.6,0.9,1.7,1.7,1.8v0.4H-1833.9z M-1837.9-480h4l-2.1-4.7
				L-1837.9-480z"/>
			<path d="M-1826.2-480h-0.7l2.4-7.4h-2.5c-0.7,0-1.2,0.4-1.5,1.1l-0.2-0.1l0.7-2h4.6L-1826.2-480z"/>
		</g>
	</g>
	<g transform="matrix(0.752953,0,0,0.752953,1849.25,495.193)">
	</g>
	<g transform="matrix(0.752953,0,0,0.752953,0,0)">
	</g>
	<g transform="matrix(0.752953,0,0,0.752953,2136.88,495.193)">
	</g>
	<g transform="matrix(0.752953,0,0,0.752953,2136.88,495.193)">
		<g class="st2">
			<path d="M-2122-475.2c-3.5,0-5.9-2.4-5.9-5.9c0-3.4,2.5-6.4,6-6.4c1.2,0,3.2,0.7,3.4,0.7c0.3,0,0.5-0.2,0.7-0.7h0.6v4.2h-0.5
				c-0.4-2.1-1.8-3.4-3.9-3.4c-2.7,0-4.3,2.2-4.3,5.4c0,3.2,1.7,5.3,4.4,5.3c1.6,0,2.9-0.6,4-1.9l0.3,0.5
				C-2118.3-475.9-2119.9-475.2-2122-475.2z"/>
			<path d="M-2107.4-480v-0.3c0.7,0,1-0.2,1-1.2v-3.7c0-0.9-0.4-1.3-1.2-1.3c-0.6,0-1.3,0.3-1.8,1c0.1,0.1,0.1,0.5,0.1,1.1v1.6
				c0,0.8,0,1.2,0,1.2c0,1.1,0.2,1.3,1,1.3v0.3h-3.4v-0.3c0.7,0,1-0.2,1-1.2v-3.7c0-0.9-0.4-1.3-1.1-1.3c-0.6,0-1.2,0.3-1.8,1v4.1
				c0,0.9,0.3,1.1,1,1.1v0.3h-3.4v-0.3c0.9,0,1-0.3,1-1.3v-4c0-0.4-0.1-0.6-0.3-0.6h-0.8v-0.3l2.4-0.8v1.3c0.7-0.9,1.5-1.3,2.5-1.3
				c0.9,0,1.4,0.4,1.6,1.3c0.8-0.9,1.7-1.3,2.7-1.3c0.5,0,0.9,0.1,1.2,0.4c0.3,0.3,0.6,1.3,0.6,1.8v3.5c0,1.1,0.2,1.3,1,1.3v0.3
				H-2107.4z"/>
			<path d="M-2097.1-480.8c-0.5,0.6-1,0.9-1.5,0.9c-0.6,0-0.9-0.4-1-1.2c-1,0.8-1.8,1.2-2.5,1.2c-0.9,0-1.5-0.9-1.5-1.7
				c0-1.4,0.9-2.2,3.9-3.1v-1c0-0.9-0.4-1.3-1.2-1.3c-0.6,0-1.1,0.3-1.1,0.8c0,0.1,0.1,0.5,0.1,0.6c0,0.4-0.4,0.7-0.7,0.7
				c-0.4,0-0.6-0.2-0.6-0.7c0-1,1.4-1.8,2.6-1.8c1.4,0,2.3,0.8,2.3,2.3v3.6c0,0.4,0.1,0.6,0.4,0.6c0.2,0,0.5-0.1,0.8-0.4V-480.8z
				 M-2099.6-484.2c-0.9,0.3-1.5,0.5-1.7,0.6c-0.6,0.3-0.8,0.8-0.8,1.5c0,0.7,0.4,1.3,1,1.3c0.4,0,0.9-0.2,1.5-0.6V-484.2z"/>
			<path d="M-2096.3-486.6l2.6-0.9v6.8c0,2.7-0.9,4-2.6,4c-0.8,0-1.5-0.3-1.5-1c0-0.4,0.2-0.6,0.5-0.6c0.4,0,1.2,1,1.6,1
				c0.4,0,0.6-0.6,0.6-1.8v-6.2c0-0.6-0.2-1-0.5-1c-0.1,0-0.4,0-0.7,0.1V-486.6z M-2094.4-489.5c-0.4,0-0.8-0.4-0.8-0.8
				c0-0.4,0.4-0.8,0.8-0.8c0.4,0,0.8,0.4,0.8,0.8C-2093.6-489.9-2094-489.5-2094.4-489.5z"/>
			<path d="M-2090.1-480h-0.7l2.4-7.4h-2.5c-0.7,0-1.2,0.4-1.5,1.1l-0.2-0.1l0.7-2h4.6L-2090.1-480z"/>
		</g>
	</g>
	<g transform="matrix(0.752953,0,0,0.752953,2136.88,495.193)">
	</g>
	<g transform="matrix(0.752953,0,0,0.752953,0,0)">
	</g>
	<g transform="matrix(0.752953,0,0,0.752953,0,0)">
		<path vector-effect="none" class="st4" d="M732.5,228.2c9.2,13,106,13,115.2,0"/>
	</g>
	<g transform="matrix(0.752953,0,0,0.752953,0,0)">
		<path vector-effect="none" class="st5" d="M732.5,228.2c9.2,11.8,106,11.8,115.2,0C838.5,242.5,741.8,242.5,732.5,228.2"/>
	</g>
	<g transform="matrix(0.752953,0,0,0.752953,0,0)">
		<line vector-effect="none" class="st1" x1="363.8" y1="141.5" x2="363.8" y2="162"/>
	</g>
	<g transform="matrix(0.752953,0,0,0.752953,0,0)">
	</g>
	<g transform="matrix(0.752953,0,0,0.752953,1107.59,431.662)">
	</g>
	<g transform="matrix(0.752953,0,0,0.752953,1107.59,431.662)">
		<g class="st2">
			<path d="M-1101.2-424l2.9-1.4h0.3v9.9c0,0.7,0,1.1,0.1,1.2c0.1,0.2,0.2,0.3,0.3,0.4c0.2,0.1,0.5,0.1,1.1,0.1v0.3h-4.4v-0.3
				c0.6,0,0.9-0.1,1.1-0.1c0.2-0.1,0.3-0.2,0.3-0.3c0.1-0.1,0.1-0.6,0.1-1.3v-6.3c0-0.9,0-1.4-0.1-1.6c0-0.2-0.1-0.3-0.2-0.4
				c-0.1-0.1-0.2-0.1-0.4-0.1c-0.2,0-0.5,0.1-0.9,0.3L-1101.2-424z"/>
			<path d="M-1092.2-415.1c0.3,0,0.5,0.1,0.7,0.3c0.2,0.2,0.3,0.4,0.3,0.7s-0.1,0.5-0.3,0.7c-0.2,0.2-0.4,0.3-0.7,0.3
				s-0.5-0.1-0.7-0.3c-0.2-0.2-0.3-0.4-0.3-0.7c0-0.3,0.1-0.5,0.3-0.7C-1092.6-415-1092.4-415.1-1092.2-415.1z"/>
		</g>
	</g>
	<g transform="matrix(0.752953,0,0,0.752953,1107.59,431.662)">
	</g>
	<g transform="matrix(0.752953,0,0,0.752953,0,0)">
	</g>
	<g transform="matrix(0.752953,0,0,0.752953,0,0)">
		<line vector-effect="none" class="st1" x1="704.5" y1="141.5" x2="704.5" y2="162"/>
	</g>
	<g transform="matrix(0.752953,0,0,0.752953,0,0)">
		<line vector-effect="none" class="st1" x1="363.8" y1="142" x2="704.5" y2="142"/>
	</g>
	<g transform="matrix(0.752953,0,0,0.752953,0,0)">
		<line vector-effect="none" class="st1" x1="712" y1="141.5" x2="712" y2="162"/>
	</g>
	<g transform="matrix(0.752953,0,0,0.752953,0,0)">
	</g>
	<g transform="matrix(0.752953,0,0,0.752953,2156.46,431.662)">
	</g>
	<g transform="matrix(0.752953,0,0,0.752953,2156.46,431.662)">
		<g class="st2">
			<path d="M-2139.9-415.7l-0.8,2.3h-6.9v-0.3c2-1.9,3.5-3.4,4.3-4.6c0.8-1.2,1.2-2.3,1.2-3.2c0-0.7-0.2-1.4-0.7-1.8
				c-0.5-0.5-1-0.7-1.6-0.7c-0.6,0-1.1,0.2-1.6,0.5c-0.5,0.3-0.8,0.8-1,1.5h-0.3c0.1-1.1,0.5-1.9,1.1-2.5s1.3-0.9,2.2-0.9
				c1,0,1.7,0.3,2.4,0.9c0.6,0.6,1,1.3,1,2.2c0,0.6-0.1,1.2-0.4,1.8c-0.4,0.9-1.1,1.9-2.1,3c-1.4,1.6-2.3,2.5-2.7,2.8h3.1
				c0.6,0,1.1,0,1.3-0.1c0.3,0,0.5-0.1,0.7-0.3c0.2-0.1,0.4-0.3,0.5-0.6H-2139.9z"/>
			<path d="M-2136.9-415.1c0.3,0,0.5,0.1,0.7,0.3c0.2,0.2,0.3,0.4,0.3,0.7s-0.1,0.5-0.3,0.7c-0.2,0.2-0.4,0.3-0.7,0.3
				s-0.5-0.1-0.7-0.3c-0.2-0.2-0.3-0.4-0.3-0.7c0-0.3,0.1-0.5,0.3-0.7C-2137.4-415-2137.2-415.1-2136.9-415.1z"/>
		</g>
	</g>
	<g transform="matrix(0.752953,0,0,0.752953,2156.46,431.662)">
	</g>
	<g transform="matrix(0.752953,0,0,0.752953,0,0)">
	</g>
	<g transform="matrix(0.752953,0,0,0.752953,0,0)">
		<line vector-effect="none" class="st1" x1="712" y1="142" x2="829" y2="142"/>
	</g>
	<g transform="matrix(0.752953,0,0,0.752953,0,0)">
		<line vector-effect="none" class="st1" x1="203.5" y1="309.8" x2="203.5" y2="341.8"/>
	</g>
	<g transform="matrix(0.752953,0,0,0.752953,0,0)">
		<line vector-effect="none" class="st1" x1="373.8" y1="309.8" x2="373.8" y2="341.8"/>
	</g>
	<g transform="matrix(0.752953,0,0,0.752953,0,0)">
		<line vector-effect="none" class="st1" x1="494.8" y1="309.8" x2="494.8" y2="341.8"/>
	</g>
	<g transform="matrix(0.752953,0,0,0.752953,0,0)">
		<line vector-effect="none" class="st1" x1="615.5" y1="309.8" x2="615.5" y2="341.8"/>
	</g>
	<g transform="matrix(0.752953,0,0,0.752953,0,0)">
		<line vector-effect="none" class="st1" x1="785.8" y1="309.8" x2="785.8" y2="341.8"/>
	</g>
	<g transform="matrix(0.752953,0,0,0.752953,0,0)">
		<line vector-effect="none" class="st1" x1="955.8" y1="309.8" x2="955.8" y2="341.8"/>
	</g>
	<g transform="matrix(0.752953,0,0,0.752953,0,0)">
	</g>
	<g transform="matrix(0.752953,0,0,0.752953,110.684,818.962)">
	</g>
	<g transform="matrix(0.752953,0,0,0.752953,110.684,818.962)">
		<g class="st2">
			<path d="M-99-806.2h-0.3c-0.7-2.1-2-3.1-3.9-3.1c-2.7,0-4.4,2.2-4.4,5.4c0,3.2,1.9,5.8,4.5,5.8c0.9,0,1.7-0.2,2.4-0.6v-3.4
				c0-1.3-0.2-1.7-1.5-1.7v-0.4h4.5v0.4c-1.2,0-1.3,0.5-1.3,1.7v3.6c-1.3,0.7-2.6,1-4.1,1c-3.7,0-6.5-2.3-6.5-5.9
				c0-3.4,2.6-6.4,6.2-6.4c0.7,0,1.6,0.2,2.7,0.6c0.3,0.1,0.6,0.2,0.6,0.2c0.3,0,0.4-0.2,0.4-0.7h0.3L-99-806.2z"/>
			<path d="M-88.6-797.9v-0.3c0.7,0,1-0.2,1-1.2v-3.7c0-0.9-0.4-1.3-1.2-1.3c-0.6,0-1.3,0.3-1.8,1c0.1,0.1,0.1,0.5,0.1,1.1v1.6
				c0,0.8,0,1.2,0,1.2c0,1.1,0.2,1.3,1,1.3v0.3h-3.4v-0.3c0.7,0,1-0.2,1-1.2v-3.7c0-0.9-0.4-1.3-1.1-1.3c-0.6,0-1.2,0.3-1.8,1v4.1
				c0,0.9,0.3,1.1,1,1.1v0.3h-3.4v-0.3c0.9,0,1-0.3,1-1.3v-4c0-0.4-0.1-0.6-0.3-0.6h-0.8v-0.3l2.4-0.8v1.3c0.7-0.9,1.5-1.3,2.5-1.3
				c0.9,0,1.4,0.4,1.6,1.3c0.8-0.9,1.7-1.3,2.7-1.3c0.5,0,0.9,0.1,1.2,0.4c0.3,0.3,0.6,1.3,0.6,1.8v3.6c0,1.1,0.2,1.3,1,1.3v0.3
				H-88.6z"/>
			<path d="M-82.2-802.5H-83l2.4-7.4h-2.5c-0.7,0-1.2,0.4-1.5,1.1l-0.2-0.1l0.7-2h4.6L-82.2-802.5z"/>
		</g>
	</g>
	<g transform="matrix(0.752953,0,0,0.752953,110.684,818.962)">
	</g>
	<g transform="matrix(0.752953,0,0,0.752953,0,0)">
	</g>
	<g transform="matrix(0.752953,0,0,0.752953,367.441,818.962)">
	</g>
	<g transform="matrix(0.752953,0,0,0.752953,367.441,818.962)">
		<g class="st2">
			<path d="M-359.5-797.7c-3.5,0-5.9-2.4-5.9-5.9c0-3.4,2.5-6.4,6-6.4c1.2,0,3.2,0.7,3.4,0.7c0.3,0,0.5-0.2,0.7-0.7h0.6v4.2h-0.5
				c-0.4-2.1-1.8-3.4-3.9-3.4c-2.7,0-4.3,2.2-4.3,5.4c0,3.2,1.7,5.3,4.4,5.3c1.6,0,2.9-0.6,4-1.9l0.3,0.5
				C-355.8-798.4-357.4-797.7-359.5-797.7z"/>
			<path d="M-350.8-802.5h-0.7l2.4-7.4h-2.5c-0.7,0-1.2,0.4-1.5,1.1l-0.2-0.1l0.7-2h4.6L-350.8-802.5z"/>
		</g>
	</g>
	<g transform="matrix(0.752953,0,0,0.752953,367.441,818.962)">
	</g>
	<g transform="matrix(0.752953,0,0,0.752953,0,0)">
	</g>
	<g transform="matrix(0.752953,0,0,0.752953,622.692,818.962)">
	</g>
	<g transform="matrix(0.752953,0,0,0.752953,622.692,818.962)">
		<g class="st2">
			<path d="M-609-806.2h-0.3c-0.7-2.1-2-3.1-3.9-3.1c-2.7,0-4.4,2.2-4.4,5.4c0,3.2,1.9,5.8,4.5,5.8c0.9,0,1.7-0.2,2.4-0.6v-3.4
				c0-1.3-0.2-1.7-1.5-1.7v-0.4h4.5v0.4c-1.2,0-1.3,0.5-1.3,1.7v3.6c-1.3,0.7-2.6,1-4.1,1c-3.7,0-6.5-2.3-6.5-5.9
				c0-3.4,2.6-6.4,6.2-6.4c0.7,0,1.6,0.2,2.7,0.6c0.3,0.1,0.6,0.2,0.6,0.2c0.3,0,0.4-0.2,0.4-0.7h0.3L-609-806.2z"/>
			<path d="M-598.6-797.9v-0.3c0.7,0,1-0.2,1-1.2v-3.7c0-0.9-0.4-1.3-1.2-1.3c-0.6,0-1.3,0.3-1.8,1c0.1,0.1,0.1,0.5,0.1,1.1v1.6
				c0,0.8,0,1.2,0,1.2c0,1.1,0.2,1.3,1,1.3v0.3h-3.4v-0.3c0.7,0,1-0.2,1-1.2v-3.7c0-0.9-0.4-1.3-1.1-1.3c-0.6,0-1.2,0.3-1.8,1v4.1
				c0,0.9,0.3,1.1,1,1.1v0.3h-3.4v-0.3c0.9,0,1-0.3,1-1.3v-4c0-0.4-0.1-0.6-0.3-0.6h-0.8v-0.3l2.4-0.8v1.3c0.7-0.9,1.5-1.3,2.5-1.3
				c0.9,0,1.4,0.4,1.6,1.3c0.8-0.9,1.7-1.3,2.7-1.3c0.5,0,0.9,0.1,1.2,0.4c0.3,0.3,0.6,1.3,0.6,1.8v3.6c0,1.1,0.2,1.3,1,1.3v0.3
				H-598.6z"/>
			<path d="M-592.2-802.5h-0.7l2.4-7.4h-2.5c-0.7,0-1.2,0.4-1.5,1.1l-0.2-0.1l0.7-2h4.6L-592.2-802.5z"/>
		</g>
	</g>
	<g transform="matrix(0.752953,0,0,0.752953,622.692,818.962)">
	</g>
	<g transform="matrix(0.752953,0,0,0.752953,0,0)">
	</g>
	<g transform="matrix(0.752953,0,0,0.752953,879.449,818.962)">
	</g>
	<g transform="matrix(0.752953,0,0,0.752953,879.449,818.962)">
		<g class="st2">
			<path d="M-869.5-797.7c-3.5,0-5.9-2.4-5.9-5.9c0-3.4,2.5-6.4,6-6.4c1.2,0,3.2,0.7,3.4,0.7c0.3,0,0.5-0.2,0.7-0.7h0.6v4.2h-0.5
				c-0.4-2.1-1.8-3.4-3.9-3.4c-2.7,0-4.3,2.2-4.3,5.4c0,3.2,1.7,5.3,4.4,5.3c1.6,0,2.9-0.6,4-1.9l0.3,0.5
				C-865.8-798.4-867.4-797.7-869.5-797.7z"/>
			<path d="M-860.8-802.5h-0.7l2.4-7.4h-2.5c-0.7,0-1.2,0.4-1.5,1.1l-0.2-0.1l0.7-2h4.6L-860.8-802.5z"/>
		</g>
	</g>
	<g transform="matrix(0.752953,0,0,0.752953,879.449,818.962)">
	</g>
	<g transform="matrix(0.752953,0,0,0.752953,0,0)">
	</g>
	<g transform="matrix(0.752953,0,0,0.752953,1122.65,818.962)">
	</g>
	<g transform="matrix(0.752953,0,0,0.752953,1122.65,818.962)">
		<g class="st2">
			<path d="M-1114.6-804.4h2.2c1.1,0,1.4-0.5,1.5-1.6h0.3v4h-0.3c0-1.2-0.4-1.7-1.5-1.7h-2.2v3.7c0,1.5,0.2,1.8,1.7,1.8v0.3h-5v-0.3
				c1.5,0,1.7-0.3,1.7-1.8v-7.6c0-1.5-0.2-1.8-1.7-1.8v-0.3h8.9v2.6h-0.3c-0.4-1.6-1-2-2.6-2h-2.6V-804.4z"/>
			<path d="M-1099.2-802.5v-0.3c0.7,0,1-0.2,1-1.2v-3.7c0-0.9-0.4-1.3-1.2-1.3c-0.6,0-1.3,0.3-1.8,1c0.1,0.1,0.1,0.5,0.1,1.1v1.6
				c0,0.8,0,1.2,0,1.2c0,1.1,0.2,1.3,1,1.3v0.3h-3.4v-0.3c0.7,0,1-0.2,1-1.2v-3.7c0-0.9-0.4-1.3-1.1-1.3c-0.6,0-1.2,0.3-1.8,1v4.1
				c0,0.9,0.3,1.1,1,1.1v0.3h-3.4v-0.3c0.9,0,1-0.3,1-1.3v-4c0-0.4-0.1-0.6-0.3-0.6h-0.8v-0.3l2.4-0.8v1.3c0.7-0.9,1.5-1.3,2.5-1.3
				c0.9,0,1.4,0.4,1.6,1.3c0.8-0.9,1.7-1.3,2.7-1.3c0.5,0,0.9,0.1,1.2,0.4c0.3,0.3,0.6,1.3,0.6,1.8v3.5c0,1.1,0.2,1.3,1,1.3v0.3
				H-1099.2z"/>
			<path d="M-1088.9-803.3c-0.5,0.6-1,0.9-1.5,0.9c-0.6,0-0.9-0.4-1-1.2c-1,0.8-1.8,1.2-2.5,1.2c-0.9,0-1.5-0.9-1.5-1.7
				c0-1.4,0.9-2.2,3.9-3.1v-1c0-0.9-0.4-1.4-1.2-1.4c-0.5,0-1.1,0.3-1.1,0.8c0,0.1,0.1,0.5,0.1,0.6c0,0.4-0.4,0.7-0.7,0.7
				c-0.4,0-0.6-0.2-0.6-0.7c0-1,1.4-1.8,2.6-1.8c1.4,0,2.3,0.8,2.3,2.3v3.6c0,0.4,0.1,0.6,0.4,0.6c0.2,0,0.5-0.1,0.8-0.4V-803.3z
				 M-1091.5-806.7c-0.9,0.3-1.5,0.5-1.7,0.6c-0.5,0.3-0.8,0.8-0.8,1.5c0,0.7,0.4,1.3,1,1.3c0.4,0,0.9-0.2,1.5-0.6V-806.7z"/>
			<path d="M-1088.2-809.1l2.6-0.9v6.8c0,2.7-0.9,4-2.6,4c-0.8,0-1.5-0.3-1.5-1c0-0.4,0.2-0.6,0.5-0.6c0.4,0,1.2,1,1.6,1
				c0.4,0,0.6-0.6,0.6-1.8v-6.2c0-0.6-0.2-1-0.5-1c-0.1,0-0.4,0-0.7,0.1V-809.1z M-1086.3-812c-0.4,0-0.8-0.4-0.8-0.8
				c0-0.4,0.4-0.8,0.8-0.8c0.4,0,0.8,0.4,0.8,0.8C-1085.4-812.4-1085.8-812-1086.3-812z"/>
			<path d="M-1081.9-802.5h-0.7l2.4-7.4h-2.5c-0.7,0-1.2,0.4-1.5,1.1l-0.2-0.1l0.7-2h4.6L-1081.9-802.5z"/>
		</g>
	</g>
	<g transform="matrix(0.752953,0,0,0.752953,1122.65,818.962)">
	</g>
	<g transform="matrix(0.752953,0,0,0.752953,0,0)">
	</g>
	<g transform="matrix(0.752953,0,0,0.752953,0,0)">
		<path vector-effect="none" class="st4" d="M394.8,311.8c8.5-13.2,110.5-13.2,119,0"/>
	</g>
	<g transform="matrix(0.752953,0,0,0.752953,0,0)">
		<path vector-effect="none" class="st5" d="M394.8,311.8c8.5-14.5,110.5-14.5,119,0C505.2,299.8,403.2,299.8,394.8,311.8"/>
	</g>
	<g transform="matrix(0.752953,0,0,0.752953,1863.56,818.962)">
	</g>
	<g transform="matrix(0.752953,0,0,0.752953,1863.56,818.962)">
		<g class="st2">
			<path d="M-1848.1-797.9v-0.4c0.8,0,1.2-0.2,1.2-0.7c0-0.5-0.5-1.7-0.9-2.7h-4.7c-0.5,1-1,2.3-1,2.7c0,0.4,0.4,0.7,1.2,0.7v0.4
				h-3.6v-0.4c0.7-0.1,1.2-0.4,1.6-1.2l4.4-10.4h0.5l4.1,9.8c0.7,1.6,0.9,1.7,1.7,1.8v0.4H-1848.1z M-1852.2-802.5h4l-2.1-4.7
				L-1852.2-802.5z"/>
			<path d="M-1834.6-797.9v-0.3c0.7,0,1-0.2,1-1.2v-3.7c0-0.9-0.4-1.3-1.2-1.3c-0.6,0-1.3,0.3-1.8,1c0.1,0.1,0.1,0.5,0.1,1.1v1.6
				c0,0.8,0,1.2,0,1.2c0,1.1,0.2,1.3,1,1.3v0.3h-3.4v-0.3c0.7,0,1-0.2,1-1.2v-3.7c0-0.9-0.4-1.3-1.1-1.3c-0.6,0-1.2,0.3-1.8,1v4.1
				c0,0.9,0.3,1.1,1,1.1v0.3h-3.4v-0.3c0.9,0,1-0.3,1-1.3v-4c0-0.4-0.1-0.6-0.3-0.6h-0.8v-0.3l2.4-0.8v1.3c0.7-0.9,1.5-1.3,2.5-1.3
				c0.9,0,1.4,0.4,1.6,1.3c0.8-0.9,1.7-1.3,2.7-1.3c0.5,0,0.9,0.1,1.2,0.4c0.3,0.3,0.6,1.3,0.6,1.8v3.6c0,1.1,0.2,1.3,1,1.3v0.3
				H-1834.6z"/>
			<path d="M-1828.2-802.5h-0.7l2.4-7.4h-2.5c-0.7,0-1.2,0.4-1.5,1.1l-0.2-0.1l0.7-2h4.6L-1828.2-802.5z"/>
		</g>
	</g>
	<g transform="matrix(0.752953,0,0,0.752953,1863.56,818.962)">
	</g>
	<g transform="matrix(0.752953,0,0,0.752953,0,0)">
	</g>
	<g transform="matrix(0.752953,0,0,0.752953,2121.07,818.962)">
	</g>
	<g transform="matrix(0.752953,0,0,0.752953,2121.07,818.962)">
		<g class="st2">
			<path d="M-2107.5-797.9h-5v-0.4c1.5,0,1.6-0.3,1.6-1.7v-7.5c0-1.4-0.1-1.7-1.6-1.7v-0.4h5.6c0.8,0,1.7,0.2,2.6,0.5
				c2.4,0.9,3.7,2.7,3.7,5.4C-2100.6-800.1-2103.2-797.9-2107.5-797.9z M-2107.6-809c-1.4,0-1.4,0.2-1.4,1.6v7.1
				c0,1.4,0,1.6,1.5,1.6c3.3,0,5.1-1.8,5.1-5C-2102.5-806.9-2104.3-809-2107.6-809z"/>
			<path d="M-2097.3-802.5h-0.7l2.4-7.4h-2.5c-0.7,0-1.2,0.4-1.5,1.1l-0.2-0.1l0.7-2h4.6L-2097.3-802.5z"/>
		</g>
	</g>
	<g transform="matrix(0.752953,0,0,0.752953,2121.07,818.962)">
	</g>
	<g transform="matrix(0.752953,0,0,0.752953,0,0)">
	</g>
	<g transform="matrix(0.752953,0,0,0.752953,2376.32,818.962)">
	</g>
	<g transform="matrix(0.752953,0,0,0.752953,2376.32,818.962)">
		<g class="st2">
			<path d="M-2358.9-797.9v-0.4c0.8,0,1.2-0.2,1.2-0.7c0-0.5-0.5-1.7-0.9-2.7h-4.7c-0.5,1-1,2.3-1,2.7c0,0.4,0.4,0.7,1.2,0.7v0.4
				h-3.6v-0.4c0.7-0.1,1.2-0.4,1.6-1.2l4.4-10.4h0.5l4.1,9.8c0.7,1.6,0.9,1.7,1.7,1.8v0.4H-2358.9z M-2362.9-802.5h4l-2.1-4.7
				L-2362.9-802.5z"/>
			<path d="M-2345.3-797.9v-0.3c0.7,0,1-0.2,1-1.2v-3.7c0-0.9-0.4-1.3-1.2-1.3c-0.6,0-1.3,0.3-1.8,1c0.1,0.1,0.1,0.5,0.1,1.1v1.6
				c0,0.8,0,1.2,0,1.2c0,1.1,0.2,1.3,1,1.3v0.3h-3.4v-0.3c0.7,0,1-0.2,1-1.2v-3.7c0-0.9-0.4-1.3-1.1-1.3c-0.6,0-1.2,0.3-1.8,1v4.1
				c0,0.9,0.3,1.1,1,1.1v0.3h-3.4v-0.3c0.9,0,1-0.3,1-1.3v-4c0-0.4-0.1-0.6-0.3-0.6h-0.8v-0.3l2.4-0.8v1.3c0.7-0.9,1.5-1.3,2.5-1.3
				c0.9,0,1.4,0.4,1.6,1.3c0.8-0.9,1.7-1.3,2.7-1.3c0.5,0,0.9,0.1,1.2,0.4c0.3,0.3,0.6,1.3,0.6,1.8v3.6c0,1.1,0.2,1.3,1,1.3v0.3
				H-2345.3z"/>
			<path d="M-2339-802.5h-0.7l2.4-7.4h-2.5c-0.7,0-1.2,0.4-1.5,1.1l-0.2-0.1l0.7-2h4.6L-2339-802.5z"/>
		</g>
	</g>
	<g transform="matrix(0.752953,0,0,0.752953,2376.32,818.962)">
	</g>
	<g transform="matrix(0.752953,0,0,0.752953,0,0)">
	</g>
	<g transform="matrix(0.752953,0,0,0.752953,2633.08,818.962)">
	</g>
	<g transform="matrix(0.752953,0,0,0.752953,2633.08,818.962)">
		<g class="st2">
			<path d="M-2617.5-797.9h-5v-0.4c1.5,0,1.6-0.3,1.6-1.7v-7.5c0-1.4-0.1-1.7-1.6-1.7v-0.4h5.6c0.8,0,1.7,0.2,2.6,0.5
				c2.5,0.9,3.7,2.7,3.7,5.4C-2610.6-800.1-2613.2-797.9-2617.5-797.9z M-2617.6-809c-1.4,0-1.4,0.2-1.4,1.6v7.1
				c0,1.4,0,1.6,1.5,1.6c3.3,0,5.1-1.8,5.1-5C-2612.5-806.9-2614.3-809-2617.6-809z"/>
			<path d="M-2607.3-802.5h-0.7l2.4-7.4h-2.5c-0.7,0-1.2,0.4-1.5,1.1l-0.2-0.1l0.7-2h4.6L-2607.3-802.5z"/>
		</g>
	</g>
	<g transform="matrix(0.752953,0,0,0.752953,2633.08,818.962)">
	</g>
	<g transform="matrix(0.752953,0,0,0.752953,0,0)">
	</g>
	<g transform="matrix(0.752953,0,0,0.752953,79.813,724.796)">
	</g>
	<g transform="matrix(0.752953,0,0,0.752953,79.813,724.796)">
		<g class="st2">
			<path d="M-69.5-708.9c1.4,0.3,2.4,0.7,3,1.2c0.8,0.7,1.2,1.5,1.2,2.6c0,1.1-0.5,2-1.4,2.8c-1.1,0.9-2.7,1.3-4.8,1.3H-79v-0.4
				c0.7,0,1.2-0.1,1.4-0.2c0.2-0.1,0.4-0.3,0.5-0.5c0.1-0.2,0.1-0.7,0.1-1.5v-9.7c0-0.8,0-1.3-0.1-1.5c-0.1-0.2-0.3-0.4-0.5-0.5
				c-0.2-0.1-0.7-0.2-1.4-0.2v-0.4h7.1c1.7,0,2.9,0.2,3.6,0.5c0.7,0.3,1.3,0.8,1.7,1.4c0.4,0.6,0.6,1.2,0.6,1.9
				c0,0.7-0.3,1.4-0.8,1.9S-68.2-709.2-69.5-708.9z M-73.5-708.3v4.8l0,0.5c0,0.4,0.1,0.7,0.3,0.9c0.2,0.2,0.5,0.3,0.9,0.3
				c0.6,0,1.1-0.1,1.6-0.4c0.5-0.3,0.9-0.6,1.1-1.1c0.3-0.5,0.4-1,0.4-1.7c0-0.7-0.2-1.3-0.5-1.9c-0.3-0.6-0.8-0.9-1.3-1.2
				C-71.5-708.2-72.4-708.3-73.5-708.3z M-73.5-709.1c1,0,1.8-0.1,2.3-0.4c0.5-0.2,0.9-0.6,1.1-1c0.3-0.4,0.4-1,0.4-1.6
				c0-0.7-0.1-1.2-0.4-1.6c-0.3-0.4-0.6-0.7-1.1-1c-0.5-0.2-1.3-0.3-2.3-0.3V-709.1z"/>
		</g>
	</g>
	<g transform="matrix(0.752953,0,0,0.752953,79.813,724.796)">
	</g>
	<g transform="matrix(0.752953,0,0,0.752953,0,0)">
	</g>
	<g transform="matrix(0.752953,0,0,0.752953,0,0)">
		<rect x="22.8" y="240.2" class="st3" width="22.5" height="26.5"/>
	</g>
	<g transform="matrix(0.752953,0,0,0.752953,0,0)">
		<line vector-effect="none" class="st1" x1="227.2" y1="417.8" x2="227.2" y2="449.8"/>
	</g>
	<g transform="matrix(0.752953,0,0,0.752953,0,0)">
		<line vector-effect="none" class="st1" x1="370" y1="417.8" x2="370" y2="449.8"/>
	</g>
	<g transform="matrix(0.752953,0,0,0.752953,0,0)">
		<line vector-effect="none" class="st1" x1="374.2" y1="417.8" x2="374.2" y2="449.8"/>
	</g>
	<g transform="matrix(0.752953,0,0,0.752953,0,0)">
		<line vector-effect="none" class="st1" x1="568" y1="417.8" x2="568" y2="449.8"/>
	</g>
	<g transform="matrix(0.752953,0,0,0.752953,0,0)">
		<line vector-effect="none" class="st1" x1="762" y1="417.8" x2="762" y2="449.8"/>
	</g>
	<g transform="matrix(0.752953,0,0,0.752953,0,0)">
		<line vector-effect="none" class="st1" x1="955.8" y1="417.8" x2="955.8" y2="449.8"/>
	</g>
	<g transform="matrix(0.752953,0,0,0.752953,0,0)">
	</g>
	<g transform="matrix(0.752953,0,0,0.752953,128.755,1144.24)">
	</g>
	<g transform="matrix(0.752953,0,0,0.752953,128.755,1144.24)">
		<g class="st2">
			<path d="M-117-1130.2h-0.3c-0.7-2.1-2-3.1-3.9-3.1c-2.7,0-4.4,2.2-4.4,5.4c0,3.2,1.9,5.8,4.5,5.8c0.9,0,1.7-0.2,2.4-0.6v-3.4
				c0-1.3-0.2-1.7-1.5-1.7v-0.4h4.5v0.4c-1.2,0-1.3,0.5-1.3,1.7v3.6c-1.3,0.7-2.6,1-4.1,1c-3.7,0-6.5-2.3-6.5-5.9
				c0-3.4,2.6-6.4,6.2-6.4c0.7,0,1.6,0.2,2.7,0.6c0.3,0.1,0.6,0.2,0.6,0.2c0.3,0,0.4-0.2,0.4-0.7h0.3L-117-1130.2z"/>
			<path d="M-112.5-1126.5h-0.7l2.4-7.4h-2.5c-0.7,0-1.2,0.4-1.5,1.1l-0.2-0.1l0.7-2h4.6L-112.5-1126.5z"/>
		</g>
	</g>
	<g transform="matrix(0.752953,0,0,0.752953,128.755,1144.24)">
	</g>
	<g transform="matrix(0.752953,0,0,0.752953,0,0)">
	</g>
	<g transform="matrix(0.752953,0,0,0.752953,384.759,1144.24)">
	</g>
	<g transform="matrix(0.752953,0,0,0.752953,384.759,1144.24)">
		<g class="st2">
			<path d="M-378-1121.9h-5v-0.4c1.5,0,1.6-0.3,1.6-1.7v-7.5c0-1.4-0.1-1.7-1.6-1.7v-0.4h5.6c0.8,0,1.7,0.2,2.6,0.5
				c2.4,0.9,3.7,2.7,3.7,5.4C-371-1124.1-373.7-1121.9-378-1121.9z M-378.1-1133c-1.4,0-1.4,0.2-1.4,1.6v7.1c0,1.4,0,1.6,1.5,1.6
				c3.3,0,5.1-1.8,5.1-5C-373-1130.9-374.8-1133-378.1-1133z"/>
			<path d="M-361.9-1121.9v-0.3c0.7,0,1-0.2,1-1.2v-3.7c0-0.9-0.4-1.3-1.2-1.3c-0.6,0-1.3,0.3-1.8,1c0.1,0.1,0.1,0.5,0.1,1.1v1.6
				c0,0.8,0,1.2,0,1.2c0,1.1,0.2,1.3,1,1.3v0.3h-3.4v-0.3c0.7,0,1-0.2,1-1.2v-3.7c0-0.9-0.4-1.3-1.1-1.3c-0.6,0-1.2,0.3-1.8,1v4.1
				c0,0.9,0.3,1.1,1,1.1v0.3h-3.4v-0.3c0.9,0,1-0.3,1-1.3v-4c0-0.4-0.1-0.6-0.3-0.6h-0.8v-0.3l2.4-0.8v1.3c0.7-0.9,1.5-1.3,2.5-1.3
				c0.9,0,1.4,0.4,1.6,1.3c0.8-0.9,1.7-1.3,2.7-1.3c0.5,0,0.9,0.1,1.2,0.4c0.3,0.3,0.6,1.3,0.6,1.8v3.6c0,1.1,0.2,1.3,1,1.3v0.3
				H-361.9z"/>
			<path d="M-355.6-1126.5h-0.7l2.4-7.4h-2.5c-0.7,0-1.2,0.4-1.5,1.1l-0.2-0.1l0.7-2h4.6L-355.6-1126.5z"/>
		</g>
	</g>
	<g transform="matrix(0.752953,0,0,0.752953,384.759,1144.24)">
	</g>
	<g transform="matrix(0.752953,0,0,0.752953,0,0)">
	</g>
	<g transform="matrix(0.752953,0,0,0.752953,712.293,1144.24)">
	</g>
	<g transform="matrix(0.752953,0,0,0.752953,712.293,1144.24)">
		<g class="st2">
			<path d="M-698.3-1130.2h-0.3c-0.7-2.1-2-3.1-3.9-3.1c-2.7,0-4.4,2.2-4.4,5.4c0,3.2,1.9,5.8,4.5,5.8c0.9,0,1.7-0.2,2.4-0.6v-3.4
				c0-1.3-0.2-1.7-1.5-1.7v-0.4h4.5v0.4c-1.2,0-1.3,0.5-1.3,1.7v3.6c-1.3,0.7-2.6,1-4.1,1c-3.7,0-6.5-2.3-6.5-5.9
				c0-3.4,2.6-6.4,6.2-6.4c0.7,0,1.6,0.2,2.7,0.6c0.3,0.1,0.6,0.2,0.6,0.2c0.3,0,0.4-0.2,0.4-0.7h0.3L-698.3-1130.2z"/>
			<path d="M-693.7-1126.5h-0.7l2.4-7.4h-2.5c-0.7,0-1.2,0.4-1.5,1.1l-0.2-0.1l0.7-2h4.6L-693.7-1126.5z"/>
		</g>
	</g>
	<g transform="matrix(0.752953,0,0,0.752953,712.293,1144.24)">
	</g>
	<g transform="matrix(0.752953,0,0,0.752953,0,0)">
	</g>
	<g transform="matrix(0.752953,0,0,0.752953,1136.96,1144.24)">
	</g>
	<g transform="matrix(0.752953,0,0,0.752953,1136.96,1144.24)">
		<g class="st2">
			<path d="M-1127.2-1121.9h-5v-0.4c1.5,0,1.6-0.3,1.6-1.7v-7.5c0-1.4-0.1-1.7-1.6-1.7v-0.4h5.6c0.8,0,1.7,0.2,2.6,0.5
				c2.4,0.9,3.7,2.7,3.7,5.4C-1120.3-1124.1-1122.9-1121.9-1127.2-1121.9z M-1127.4-1133c-1.4,0-1.4,0.2-1.4,1.6v7.1
				c0,1.4,0,1.6,1.5,1.6c3.3,0,5.1-1.8,5.1-5C-1122.2-1130.9-1124.1-1133-1127.4-1133z"/>
			<path d="M-1111.2-1121.9v-0.3c0.7,0,1-0.2,1-1.2v-3.7c0-0.9-0.4-1.3-1.2-1.3c-0.6,0-1.3,0.3-1.8,1c0.1,0.1,0.1,0.5,0.1,1.1v1.6
				c0,0.8,0,1.2,0,1.2c0,1.1,0.2,1.3,1,1.3v0.3h-3.4v-0.3c0.7,0,1-0.2,1-1.2v-3.7c0-0.9-0.4-1.3-1.1-1.3c-0.6,0-1.2,0.3-1.8,1v4.1
				c0,0.9,0.3,1.1,1,1.1v0.3h-3.4v-0.3c0.9,0,1-0.3,1-1.3v-4c0-0.4-0.1-0.6-0.3-0.6h-0.8v-0.3l2.4-0.8v1.3c0.7-0.9,1.5-1.3,2.5-1.3
				c0.9,0,1.4,0.4,1.6,1.3c0.8-0.9,1.7-1.3,2.7-1.3c0.5,0,0.9,0.1,1.2,0.4c0.3,0.3,0.6,1.3,0.6,1.8v3.6c0,1.1,0.2,1.3,1,1.3v0.3
				H-1111.2z"/>
			<path d="M-1104.8-1126.5h-0.7l2.4-7.4h-2.5c-0.7,0-1.2,0.4-1.5,1.1l-0.2-0.1l0.7-2h4.6L-1104.8-1126.5z"/>
		</g>
	</g>
	<g transform="matrix(0.752953,0,0,0.752953,1136.96,1144.24)">
	</g>
	<g transform="matrix(0.752953,0,0,0.752953,0,0)">
	</g>
	<g transform="matrix(0.752953,0,0,0.752953,1429.1,1144.24)">
	</g>
	<g transform="matrix(0.752953,0,0,0.752953,1429.1,1144.24)">
		<g class="st2">
			<path d="M-1412.3-1130.2h-0.3c-0.7-2.1-2-3.1-3.9-3.1c-2.7,0-4.4,2.2-4.4,5.4c0,3.2,1.9,5.8,4.5,5.8c0.9,0,1.7-0.2,2.4-0.6v-3.4
				c0-1.3-0.2-1.7-1.5-1.7v-0.4h4.5v0.4c-1.2,0-1.3,0.5-1.3,1.7v3.6c-1.3,0.7-2.6,1-4.1,1c-3.7,0-6.5-2.3-6.5-5.9
				c0-3.4,2.6-6.4,6.2-6.4c0.7,0,1.6,0.2,2.7,0.6c0.3,0.1,0.5,0.2,0.6,0.2c0.3,0,0.4-0.2,0.4-0.7h0.3L-1412.3-1130.2z"/>
			<path d="M-1407.7-1126.5h-0.7l2.4-7.4h-2.5c-0.7,0-1.2,0.4-1.5,1.1l-0.2-0.1l0.7-2h4.6L-1407.7-1126.5z"/>
		</g>
	</g>
	<g transform="matrix(0.752953,0,0,0.752953,1429.1,1144.24)">
	</g>
	<g transform="matrix(0.752953,0,0,0.752953,0,0)">
	</g>
	<g transform="matrix(0.752953,0,0,0.752953,1720.5,1144.24)">
	</g>
	<g transform="matrix(0.752953,0,0,0.752953,1720.5,1144.24)">
		<g class="st2">
			<path d="M-1708.5-1121.9h-5v-0.4c1.5,0,1.6-0.3,1.6-1.7v-7.5c0-1.4-0.1-1.7-1.6-1.7v-0.4h5.6c0.8,0,1.7,0.2,2.6,0.5
				c2.4,0.9,3.7,2.7,3.7,5.4C-1701.6-1124.1-1704.2-1121.9-1708.5-1121.9z M-1708.6-1133c-1.4,0-1.4,0.2-1.4,1.6v7.1
				c0,1.4,0,1.6,1.5,1.6c3.3,0,5.1-1.8,5.1-5C-1703.5-1130.9-1705.3-1133-1708.6-1133z"/>
			<path d="M-1692.4-1121.9v-0.3c0.7,0,1-0.2,1-1.2v-3.7c0-0.9-0.4-1.3-1.2-1.3c-0.6,0-1.3,0.3-1.8,1c0.1,0.1,0.1,0.5,0.1,1.1v1.6
				c0,0.8,0,1.2,0,1.2c0,1.1,0.2,1.3,1,1.3v0.3h-3.4v-0.3c0.7,0,1-0.2,1-1.2v-3.7c0-0.9-0.4-1.3-1.1-1.3c-0.6,0-1.2,0.3-1.8,1v4.1
				c0,0.9,0.3,1.1,1,1.1v0.3h-3.4v-0.3c0.9,0,1-0.3,1-1.3v-4c0-0.4-0.1-0.6-0.3-0.6h-0.8v-0.3l2.4-0.8v1.3c0.7-0.9,1.5-1.3,2.5-1.3
				c0.9,0,1.4,0.4,1.6,1.3c0.8-0.9,1.7-1.3,2.7-1.3c0.5,0,0.9,0.1,1.2,0.4c0.3,0.3,0.6,1.3,0.6,1.8v3.6c0,1.1,0.2,1.3,1,1.3v0.3
				H-1692.4z"/>
			<path d="M-1686.1-1126.5h-0.7l2.4-7.4h-2.5c-0.7,0-1.2,0.4-1.5,1.1l-0.2-0.1l0.7-2h4.6L-1686.1-1126.5z"/>
		</g>
	</g>
	<g transform="matrix(0.752953,0,0,0.752953,1720.5,1144.24)">
	</g>
	<g transform="matrix(0.752953,0,0,0.752953,0,0)">
	</g>
	<g transform="matrix(0.752953,0,0,0.752953,2012.64,1144.24)">
	</g>
	<g transform="matrix(0.752953,0,0,0.752953,2012.64,1144.24)">
		<g class="st2">
			<path d="M-1993.5-1130.2h-0.3c-0.7-2.1-2-3.1-3.9-3.1c-2.7,0-4.4,2.2-4.4,5.4c0,3.2,1.9,5.8,4.5,5.8c0.9,0,1.7-0.2,2.4-0.6v-3.4
				c0-1.3-0.2-1.7-1.5-1.7v-0.4h4.5v0.4c-1.2,0-1.3,0.5-1.3,1.7v3.6c-1.3,0.7-2.6,1-4.1,1c-3.7,0-6.5-2.3-6.5-5.9
				c0-3.4,2.6-6.4,6.2-6.4c0.7,0,1.6,0.2,2.7,0.6c0.3,0.1,0.5,0.2,0.6,0.2c0.3,0,0.4-0.2,0.4-0.7h0.3L-1993.5-1130.2z"/>
			<path d="M-1989-1126.5h-0.7l2.4-7.4h-2.5c-0.7,0-1.2,0.4-1.5,1.1l-0.2-0.1l0.7-2h4.6L-1989-1126.5z"/>
		</g>
	</g>
	<g transform="matrix(0.752953,0,0,0.752953,2012.64,1144.24)">
	</g>
	<g transform="matrix(0.752953,0,0,0.752953,0,0)">
	</g>
	<g transform="matrix(0.752953,0,0,0.752953,2307.05,1144.24)">
	</g>
	<g transform="matrix(0.752953,0,0,0.752953,2307.05,1144.24)">
		<g class="st2">
			<path d="M-2288-1121.9h-9.7v-0.4c1.5,0,1.6-0.3,1.6-1.7v-7.5c0-1.4-0.1-1.7-1.6-1.7v-0.4h9.6v2.7h-0.4c-0.1-1.2-0.7-1.8-1.7-1.8
				h-3.1c-0.8,0-1,0.4-1,1.2v3.3h3.1c1,0,1.7-0.7,1.7-1.7h0.4v4.2h-0.4c0-1-0.7-1.7-1.7-1.7h-3.1v3.7c0,0.8,0.2,1.2,1,1.2h3
				c1.2,0,2.3-1,2.6-2.2h0.5L-2288-1121.9z"/>
			<path d="M-2278.1-1121.9v-0.3c0.7,0,1-0.2,1-1.2v-3.7c0-0.9-0.4-1.3-1.2-1.3c-0.6,0-1.3,0.3-1.8,1c0.1,0.1,0.1,0.5,0.1,1.1v1.6
				c0,0.8,0,1.2,0,1.2c0,1.1,0.2,1.3,1,1.3v0.3h-3.4v-0.3c0.7,0,1-0.2,1-1.2v-3.7c0-0.9-0.4-1.3-1.1-1.3c-0.6,0-1.2,0.3-1.8,1v4.1
				c0,0.9,0.3,1.1,1,1.1v0.3h-3.4v-0.3c0.9,0,1-0.3,1-1.3v-4c0-0.4-0.1-0.6-0.3-0.6h-0.8v-0.3l2.4-0.8v1.3c0.7-0.9,1.5-1.3,2.5-1.3
				c0.9,0,1.4,0.4,1.6,1.3c0.8-0.9,1.7-1.3,2.7-1.3c0.5,0,0.9,0.1,1.2,0.4c0.3,0.3,0.6,1.3,0.6,1.8v3.6c0,1.1,0.2,1.3,1,1.3v0.3
				H-2278.1z"/>
			<path d="M-2271.7-1126.5h-0.7l2.4-7.4h-2.5c-0.7,0-1.2,0.4-1.5,1.1l-0.2-0.1l0.7-2h4.6L-2271.7-1126.5z"/>
		</g>
	</g>
	<g transform="matrix(0.752953,0,0,0.752953,2307.05,1144.24)">
	</g>
	<g transform="matrix(0.752953,0,0,0.752953,0,0)">
	</g>
	<g transform="matrix(0.752953,0,0,0.752953,2596.18,1144.24)">
	</g>
	<g transform="matrix(0.752953,0,0,0.752953,2596.18,1144.24)">
		<g class="st2">
			<path d="M-2577.9-1121.9v-0.4c0.8,0,1.2-0.2,1.2-0.7c0-0.5-0.5-1.7-0.9-2.7h-4.7c-0.5,1-1,2.3-1,2.7c0,0.4,0.4,0.7,1.2,0.7v0.4
				h-3.6v-0.4c0.7-0.1,1.2-0.4,1.6-1.2l4.4-10.4h0.5l4.1,9.8c0.7,1.6,0.9,1.7,1.7,1.8v0.4H-2577.9z M-2581.9-1126.5h4l-2.1-4.7
				L-2581.9-1126.5z"/>
			<path d="M-2570.2-1126.5h-0.7l2.4-7.4h-2.5c-0.7,0-1.2,0.4-1.5,1.1l-0.2-0.1l0.7-2h4.6L-2570.2-1126.5z"/>
		</g>
	</g>
	<g transform="matrix(0.752953,0,0,0.752953,2596.18,1144.24)">
	</g>
	<g transform="matrix(0.752953,0,0,0.752953,0,0)">
	</g>
	<g transform="matrix(0.752953,0,0,0.752953,1104.58,1050.07)">
	</g>
	<g transform="matrix(0.752953,0,0,0.752953,1104.58,1050.07)">
		<g class="st2">
			<path d="M-1090.9-1029.2h-5.3l-0.6,1.4c-0.2,0.5-0.3,0.9-0.3,1.2c0,0.4,0.2,0.7,0.5,0.9c0.2,0.1,0.7,0.2,1.5,0.3v0.4h-5v-0.4
				c0.5-0.1,1-0.3,1.3-0.7c0.3-0.4,0.8-1.1,1.3-2.2l5.3-11.9h0.2l5.4,12.2c0.5,1.2,0.9,1.9,1.3,2.2c0.2,0.2,0.6,0.4,1.1,0.4v0.4
				h-7.2v-0.4h0.3c0.6,0,1-0.1,1.2-0.2c0.2-0.1,0.2-0.3,0.2-0.5c0-0.1,0-0.3-0.1-0.4c0-0.1-0.1-0.3-0.3-0.8L-1090.9-1029.2z
				 M-1091.3-1030l-2.2-5.1l-2.3,5.1H-1091.3z"/>
		</g>
	</g>
	<g transform="matrix(0.752953,0,0,0.752953,1104.58,1050.07)">
	</g>
	<g transform="matrix(0.752953,0,0,0.752953,0,0)">
	</g>
	<g transform="matrix(0.752953,0,0,0.752953,0,0)">
		<rect x="362.8" y="348.2" class="st3" width="24.2" height="26.5"/>
	</g>
	<g transform="matrix(0.752953,0,0,0.752953,0,0)">
		<line vector-effect="none" class="st1" x1="215.5" y1="513.5" x2="215.5" y2="545.5"/>
	</g>
	<g transform="matrix(0.752953,0,0,0.752953,0,0)">
		<line vector-effect="none" class="st1" x1="397.5" y1="513.5" x2="397.5" y2="545.5"/>
	</g>
	<g transform="matrix(0.752953,0,0,0.752953,0,0)">
		<line vector-effect="none" class="st1" x1="579.5" y1="513.5" x2="579.5" y2="545.5"/>
	</g>
	<g transform="matrix(0.752953,0,0,0.752953,0,0)">
		<line vector-effect="none" class="st1" x1="761.5" y1="513.5" x2="761.5" y2="545.5"/>
	</g>
	<g transform="matrix(0.752953,0,0,0.752953,0,0)">
		<line vector-effect="none" class="st1" x1="948.8" y1="513.5" x2="948.8" y2="545.5"/>
	</g>
	<g transform="matrix(0.752953,0,0,0.752953,0,0)">
		<line vector-effect="none" class="st0" x1="954.2" y1="513.5" x2="954.2" y2="545.5"/>
	</g>
	<g transform="matrix(0.752953,0,0,0.752953,0,0)">
	</g>
	<g transform="matrix(0.752953,0,0,0.752953,112.943,1432.62)">
	</g>
	<g transform="matrix(0.752953,0,0,0.752953,112.943,1432.62)">
		<g class="st2">
			<path d="M-102.5-1409.2h-9.7v-0.4c1.5,0,1.6-0.3,1.6-1.7v-7.5c0-1.4-0.1-1.7-1.6-1.7v-0.4h9.6v2.7h-0.4c-0.1-1.2-0.7-1.8-1.7-1.8
				h-3.1c-0.8,0-1,0.4-1,1.2v3.3h3.1c1,0,1.7-0.7,1.7-1.7h0.4v4.2h-0.4c0-1-0.7-1.7-1.7-1.7h-3.1v3.7c0,0.8,0.2,1.2,1,1.2h3
				c1.2,0,2.3-1,2.6-2.2h0.5L-102.5-1409.2z"/>
			<path d="M-92.6-1409.2v-0.3c0.7,0,1-0.2,1-1.2v-3.7c0-0.9-0.4-1.3-1.2-1.3c-0.6,0-1.3,0.3-1.8,1c0.1,0.1,0.1,0.5,0.1,1.1v1.6
				c0,0.8,0,1.2,0,1.2c0,1.1,0.2,1.3,1,1.3v0.3h-3.4v-0.3c0.7,0,1-0.2,1-1.2v-3.7c0-0.9-0.4-1.3-1.1-1.3c-0.6,0-1.2,0.3-1.8,1v4.1
				c0,0.9,0.3,1.1,1,1.1v0.3h-3.4v-0.3c0.9,0,1-0.3,1-1.3v-4c0-0.4-0.1-0.6-0.3-0.6h-0.8v-0.3l2.4-0.8v1.3c0.7-0.9,1.5-1.3,2.5-1.3
				c0.9,0,1.4,0.4,1.6,1.3c0.8-0.9,1.7-1.3,2.7-1.3c0.5,0,0.9,0.1,1.2,0.4c0.3,0.3,0.6,1.3,0.6,1.8v3.6c0,1.1,0.2,1.3,1,1.3v0.3
				H-92.6z"/>
			<path d="M-86.2-1413.8H-87l2.4-7.4h-2.5c-0.7,0-1.2,0.4-1.5,1.1l-0.2-0.1l0.7-2h4.6L-86.2-1413.8z"/>
		</g>
	</g>
	<g transform="matrix(0.752953,0,0,0.752953,112.943,1432.62)">
	</g>
	<g transform="matrix(0.752953,0,0,0.752953,0,0)">
	</g>
	<g transform="matrix(0.752953,0,0,0.752953,384.759,1432.62)">
	</g>
	<g transform="matrix(0.752953,0,0,0.752953,384.759,1432.62)">
		<g class="st2">
			<path d="M-375.1-1409.2v-0.4c0.8,0,1.2-0.2,1.2-0.7c0-0.5-0.5-1.7-0.9-2.7h-4.7c-0.5,1-1,2.3-1,2.7c0,0.4,0.4,0.7,1.2,0.7v0.4
				h-3.6v-0.4c0.7-0.1,1.2-0.4,1.6-1.2l4.4-10.4h0.5l4.1,9.8c0.7,1.6,0.9,1.7,1.7,1.8v0.4H-375.1z M-379.2-1413.8h4l-2.1-4.7
				L-379.2-1413.8z"/>
			<path d="M-367.5-1413.8h-0.7l2.4-7.4h-2.5c-0.7,0-1.2,0.4-1.5,1.1l-0.2-0.1l0.7-2h4.6L-367.5-1413.8z"/>
		</g>
	</g>
	<g transform="matrix(0.752953,0,0,0.752953,384.759,1432.62)">
	</g>
	<g transform="matrix(0.752953,0,0,0.752953,0,0)">
	</g>
	<g transform="matrix(0.752953,0,0,0.752953,658.834,1432.62)">
	</g>
	<g transform="matrix(0.752953,0,0,0.752953,658.834,1432.62)">
		<g class="st2">
			<path d="M-648.1-1409.2v-0.4c0.8,0,1.2-0.2,1.2-0.7c0-0.5-0.5-1.7-0.9-2.7h-4.7c-0.5,1-1,2.3-1,2.7c0,0.4,0.4,0.7,1.2,0.7v0.4
				h-3.6v-0.4c0.7-0.1,1.2-0.4,1.6-1.2l4.4-10.4h0.5l4.1,9.8c0.7,1.6,0.9,1.7,1.7,1.8v0.4H-648.1z M-652.2-1413.8h4l-2.1-4.7
				L-652.2-1413.8z"/>
			<path d="M-634.6-1409.2v-0.3c0.7,0,1-0.2,1-1.2v-3.7c0-0.9-0.4-1.3-1.2-1.3c-0.6,0-1.3,0.3-1.8,1c0.1,0.1,0.1,0.5,0.1,1.1v1.6
				c0,0.8,0,1.2,0,1.2c0,1.1,0.2,1.3,1,1.3v0.3h-3.4v-0.3c0.7,0,1-0.2,1-1.2v-3.7c0-0.9-0.4-1.3-1.1-1.3c-0.6,0-1.2,0.3-1.8,1v4.1
				c0,0.9,0.3,1.1,1,1.1v0.3h-3.4v-0.3c0.9,0,1-0.3,1-1.3v-4c0-0.4-0.1-0.6-0.3-0.6h-0.8v-0.3l2.4-0.8v1.3c0.7-0.9,1.5-1.3,2.5-1.3
				c0.9,0,1.4,0.4,1.6,1.3c0.8-0.9,1.7-1.3,2.7-1.3c0.5,0,0.9,0.1,1.2,0.4c0.3,0.3,0.6,1.3,0.6,1.8v3.6c0,1.1,0.2,1.3,1,1.3v0.3
				H-634.6z"/>
			<path d="M-628.2-1413.8h-0.7l2.4-7.4h-2.5c-0.7,0-1.2,0.4-1.5,1.1l-0.2-0.1l0.7-2h4.6L-628.2-1413.8z"/>
		</g>
	</g>
	<g transform="matrix(0.752953,0,0,0.752953,658.834,1432.62)">
	</g>
	<g transform="matrix(0.752953,0,0,0.752953,0,0)">
	</g>
	<g transform="matrix(0.752953,0,0,0.752953,933.661,1432.62)">
	</g>
	<g transform="matrix(0.752953,0,0,0.752953,933.661,1432.62)">
		<g class="st2">
			<path d="M-924.7-1409.2h-5v-0.4c1.5,0,1.6-0.3,1.6-1.7v-7.5c0-1.4-0.1-1.7-1.6-1.7v-0.4h5.6c0.8,0,1.7,0.2,2.6,0.5
				c2.5,0.9,3.7,2.7,3.7,5.4C-917.8-1411.3-920.4-1409.2-924.7-1409.2z M-924.9-1420.3c-1.4,0-1.4,0.2-1.4,1.6v7.1
				c0,1.4,0,1.6,1.5,1.6c3.3,0,5.1-1.8,5.1-5C-919.7-1418.2-921.6-1420.3-924.9-1420.3z"/>
			<path d="M-914.6-1413.8h-0.7l2.4-7.4h-2.5c-0.7,0-1.2,0.4-1.5,1.1l-0.2-0.1l0.7-2h4.6L-914.6-1413.8z"/>
		</g>
	</g>
	<g transform="matrix(0.752953,0,0,0.752953,933.661,1432.62)">
	</g>
	<g transform="matrix(0.752953,0,0,0.752953,0,0)">
	</g>
	<g transform="matrix(0.752953,0,0,0.752953,1197.19,1432.62)">
	</g>
	<g transform="matrix(0.752953,0,0,0.752953,1197.19,1432.62)">
		<g class="st2">
			<path d="M-1184.4-1409.2v-0.4c0.8,0,1.2-0.2,1.2-0.7c0-0.5-0.5-1.7-0.9-2.7h-4.7c-0.5,1-1,2.3-1,2.7c0,0.4,0.4,0.7,1.2,0.7v0.4
				h-3.5v-0.4c0.7-0.1,1.2-0.4,1.6-1.2l4.4-10.4h0.5l4.1,9.8c0.7,1.6,0.9,1.7,1.7,1.8v0.4H-1184.4z M-1188.4-1413.8h4l-2.1-4.7
				L-1188.4-1413.8z"/>
			<path d="M-1178.8-1421.9h0.8l-0.1,6.4c0.9-1,1.1-1.1,1.9-1.1c1.3,0,2.2,0.9,2.2,2.3c0,2-2,2.8-3.5,4.1l-1.2,1V-1421.9z
				 M-1178-1414.6c-0.1,1.3-0.1,2.1-0.1,2.5c0,0.6,0.1,1.2,0.2,1.5c1.7-1.4,2.5-2.6,2.5-3.7c0-0.9-0.5-1.6-1.3-1.6
				C-1177.3-1415.8-1177.6-1415.1-1178-1414.6z"/>
			<path d="M-1164.5-1409.2v-0.3c0.7,0,1-0.2,1-1.2v-3.7c0-0.9-0.4-1.3-1.2-1.3c-0.6,0-1.3,0.3-1.8,1c0.1,0.1,0.1,0.5,0.1,1.1v1.6
				c0,0.8,0,1.2,0,1.2c0,1.1,0.2,1.3,1,1.3v0.3h-3.4v-0.3c0.7,0,1-0.2,1-1.2v-3.7c0-0.9-0.4-1.3-1.1-1.3c-0.6,0-1.2,0.3-1.8,1v4.1
				c0,0.9,0.3,1.1,1,1.1v0.3h-3.4v-0.3c0.9,0,1-0.3,1-1.3v-4c0-0.4-0.1-0.6-0.3-0.6h-0.8v-0.3l2.4-0.8v1.3c0.7-0.9,1.5-1.3,2.5-1.3
				c0.9,0,1.4,0.4,1.6,1.3c0.8-0.9,1.7-1.3,2.7-1.3c0.5,0,0.9,0.1,1.2,0.4c0.3,0.3,0.6,1.3,0.6,1.8v3.6c0,1.1,0.2,1.3,1,1.3v0.3
				H-1164.5z"/>
			<path d="M-1158.1-1413.8h-0.7l2.4-7.4h-2.5c-0.7,0-1.2,0.4-1.5,1.1l-0.2-0.1l0.7-2h4.6L-1158.1-1413.8z"/>
		</g>
	</g>
	<g transform="matrix(0.752953,0,0,0.752953,1197.19,1432.62)">
	</g>
	<g transform="matrix(0.752953,0,0,0.752953,0,0)">
	</g>
	<g transform="matrix(0.752953,0,0,0.752953,1472.02,1432.62)">
	</g>
	<g transform="matrix(0.752953,0,0,0.752953,1472.02,1432.62)">
		<g class="st2">
			<path d="M-1461-1409.2h-5v-0.4c1.5,0,1.6-0.3,1.6-1.7v-7.5c0-1.4-0.1-1.7-1.6-1.7v-0.4h5.6c0.8,0,1.7,0.2,2.6,0.5
				c2.4,0.9,3.7,2.7,3.7,5.4C-1454-1411.3-1456.7-1409.2-1461-1409.2z M-1461.1-1420.3c-1.4,0-1.4,0.2-1.4,1.6v7.1
				c0,1.4,0,1.6,1.5,1.6c3.3,0,5.1-1.8,5.1-5C-1456-1418.2-1457.8-1420.3-1461.1-1420.3z"/>
			<path d="M-1452.8-1421.9h0.8l-0.1,6.4c0.9-1,1.1-1.1,1.9-1.1c1.3,0,2.2,0.9,2.2,2.3c0,2-2,2.8-3.5,4.1l-1.2,1V-1421.9z
				 M-1452-1414.6c-0.1,1.3-0.1,2.1-0.1,2.5c0,0.6,0.1,1.2,0.2,1.5c1.7-1.4,2.5-2.6,2.5-3.7c0-0.9-0.5-1.6-1.3-1.6
				C-1451.4-1415.8-1451.7-1415.1-1452-1414.6z"/>
			<path d="M-1444.5-1413.8h-0.7l2.4-7.4h-2.5c-0.7,0-1.2,0.4-1.5,1.1l-0.2-0.1l0.7-2h4.6L-1444.5-1413.8z"/>
		</g>
	</g>
	<g transform="matrix(0.752953,0,0,0.752953,1472.02,1432.62)">
	</g>
	<g transform="matrix(0.752953,0,0,0.752953,0,0)">
	</g>
	<g transform="matrix(0.752953,0,0,0.752953,1739.32,1432.62)">
	</g>
	<g transform="matrix(0.752953,0,0,0.752953,1739.32,1432.62)">
		<g class="st2">
			<path d="M-1726-1409c-3.5,0-5.9-2.4-5.9-5.9c0-3.4,2.5-6.4,6-6.4c1.2,0,3.2,0.7,3.4,0.7c0.3,0,0.5-0.2,0.7-0.7h0.6v4.2h-0.5
				c-0.4-2.1-1.8-3.4-3.9-3.4c-2.7,0-4.3,2.2-4.3,5.4c0,3.2,1.7,5.3,4.4,5.3c1.6,0,2.9-0.6,4-1.9l0.3,0.5
				C-1722.3-1409.7-1723.9-1409-1726-1409z"/>
			<path d="M-1711.4-1413.8v-0.3c0.7,0,1-0.2,1-1.2v-3.7c0-0.9-0.4-1.3-1.2-1.3c-0.6,0-1.3,0.3-1.8,1c0.1,0.1,0.1,0.5,0.1,1.1v1.6
				c0,0.8,0,1.2,0,1.2c0,1.1,0.2,1.3,1,1.3v0.3h-3.4v-0.3c0.7,0,1-0.2,1-1.2v-3.7c0-0.9-0.4-1.3-1.1-1.3c-0.6,0-1.2,0.3-1.8,1v4.1
				c0,0.9,0.3,1.1,1,1.1v0.3h-3.4v-0.3c0.9,0,1-0.3,1-1.3v-4c0-0.4-0.1-0.6-0.3-0.6h-0.8v-0.3l2.4-0.8v1.3c0.7-0.9,1.5-1.3,2.5-1.3
				c0.9,0,1.4,0.4,1.6,1.3c0.8-0.9,1.7-1.3,2.7-1.3c0.5,0,0.9,0.1,1.2,0.4c0.3,0.3,0.6,1.3,0.6,1.8v3.5c0,1.1,0.2,1.3,1,1.3v0.3
				H-1711.4z"/>
			<path d="M-1701.1-1414.5c-0.5,0.6-1,0.9-1.5,0.9c-0.6,0-0.9-0.4-1-1.2c-1,0.8-1.8,1.2-2.5,1.2c-0.9,0-1.5-0.9-1.5-1.7
				c0-1.4,0.9-2.2,3.9-3.1v-1c0-0.9-0.4-1.4-1.2-1.4c-0.5,0-1.1,0.3-1.1,0.8c0,0.1,0.1,0.5,0.1,0.6c0,0.4-0.4,0.7-0.7,0.7
				c-0.4,0-0.6-0.2-0.6-0.7c0-1,1.4-1.8,2.6-1.8c1.4,0,2.3,0.8,2.3,2.3v3.6c0,0.4,0.1,0.6,0.4,0.6c0.2,0,0.5-0.1,0.8-0.4V-1414.5z
				 M-1703.6-1418c-0.9,0.3-1.5,0.5-1.7,0.6c-0.5,0.3-0.8,0.8-0.8,1.5c0,0.7,0.4,1.3,1,1.3c0.4,0,0.9-0.2,1.5-0.6V-1418z"/>
			<path d="M-1700.3-1420.4l2.6-0.9v6.8c0,2.7-0.9,4-2.6,4c-0.8,0-1.5-0.3-1.5-1c0-0.4,0.2-0.6,0.5-0.6c0.4,0,1.2,1,1.6,1
				c0.4,0,0.6-0.6,0.6-1.8v-6.2c0-0.6-0.2-1-0.5-1c-0.1,0-0.4,0-0.7,0.1V-1420.4z M-1698.4-1423.3c-0.4,0-0.8-0.4-0.8-0.8
				c0-0.4,0.4-0.8,0.8-0.8c0.4,0,0.8,0.4,0.8,0.8C-1697.6-1423.7-1698-1423.3-1698.4-1423.3z"/>
			<path d="M-1694.1-1413.8h-0.7l2.4-7.4h-2.5c-0.7,0-1.2,0.4-1.5,1.1l-0.2-0.1l0.7-2h4.6L-1694.1-1413.8z"/>
		</g>
	</g>
	<g transform="matrix(0.752953,0,0,0.752953,1739.32,1432.62)">
	</g>
	<g transform="matrix(0.752953,0,0,0.752953,0,0)">
	</g>
	<g transform="matrix(0.752953,0,0,0.752953,2011.14,1432.62)">
	</g>
	<g transform="matrix(0.752953,0,0,0.752953,2011.14,1432.62)">
		<g class="st2">
			<path d="M-1998-1409.2h-5v-0.4c1.5,0,1.6-0.3,1.6-1.7v-7.5c0-1.4-0.1-1.7-1.6-1.7v-0.4h5.6c0.8,0,1.7,0.2,2.6,0.5
				c2.5,0.9,3.7,2.7,3.7,5.4C-1991.1-1411.3-1993.7-1409.2-1998-1409.2z M-1998.1-1420.3c-1.4,0-1.4,0.2-1.4,1.6v7.1
				c0,1.4,0,1.6,1.5,1.6c3.3,0,5.1-1.8,5.1-5C-1993-1418.2-1994.8-1420.3-1998.1-1420.3z"/>
			<path d="M-1981.9-1409.2v-0.3c0.7,0,1-0.2,1-1.2v-3.7c0-0.9-0.4-1.3-1.2-1.3c-0.6,0-1.3,0.3-1.8,1c0.1,0.1,0.1,0.5,0.1,1.1v1.6
				c0,0.8,0,1.2,0,1.2c0,1.1,0.2,1.3,1,1.3v0.3h-3.4v-0.3c0.7,0,1-0.2,1-1.2v-3.7c0-0.9-0.4-1.3-1.1-1.3c-0.6,0-1.2,0.3-1.8,1v4.1
				c0,0.9,0.3,1.1,1,1.1v0.3h-3.4v-0.3c0.9,0,1-0.3,1-1.3v-4c0-0.4-0.1-0.6-0.3-0.6h-0.8v-0.3l2.4-0.8v1.3c0.7-0.9,1.5-1.3,2.5-1.3
				c0.9,0,1.4,0.4,1.6,1.3c0.8-0.9,1.7-1.3,2.7-1.3c0.5,0,0.9,0.1,1.2,0.4c0.3,0.3,0.6,1.3,0.6,1.8v3.6c0,1.1,0.2,1.3,1,1.3v0.3
				H-1981.9z"/>
			<path d="M-1975.6-1413.8h-0.7l2.4-7.4h-2.5c-0.7,0-1.2,0.4-1.5,1.1l-0.2-0.1l0.7-2h4.6L-1975.6-1413.8z"/>
		</g>
	</g>
	<g transform="matrix(0.752953,0,0,0.752953,2011.14,1432.62)">
	</g>
	<g transform="matrix(0.752953,0,0,0.752953,0,0)">
	</g>
	<g transform="matrix(0.752953,0,0,0.752953,2305.54,1432.62)">
	</g>
	<g transform="matrix(0.752953,0,0,0.752953,2305.54,1432.62)">
		<g class="st2">
			<path d="M-2286.5-1409.2h-9.7v-0.4c1.5,0,1.6-0.3,1.6-1.7v-7.5c0-1.4-0.1-1.7-1.6-1.7v-0.4h9.6v2.7h-0.4
				c-0.1-1.2-0.7-1.8-1.7-1.8h-3.1c-0.8,0-1,0.4-1,1.2v3.3h3.1c1,0,1.7-0.7,1.7-1.7h0.4v4.2h-0.4c0-1-0.7-1.7-1.7-1.7h-3.1v3.7
				c0,0.8,0.2,1.2,1,1.2h3c1.2,0,2.3-1,2.6-2.2h0.5L-2286.5-1409.2z"/>
			<path d="M-2276.6-1409.2v-0.3c0.7,0,1-0.2,1-1.2v-3.7c0-0.9-0.4-1.3-1.2-1.3c-0.6,0-1.3,0.3-1.8,1c0.1,0.1,0.1,0.5,0.1,1.1v1.6
				c0,0.8,0,1.2,0,1.2c0,1.1,0.2,1.3,1,1.3v0.3h-3.4v-0.3c0.7,0,1-0.2,1-1.2v-3.7c0-0.9-0.4-1.3-1.1-1.3c-0.6,0-1.2,0.3-1.8,1v4.1
				c0,0.9,0.3,1.1,1,1.1v0.3h-3.4v-0.3c0.9,0,1-0.3,1-1.3v-4c0-0.4-0.1-0.6-0.3-0.6h-0.8v-0.3l2.4-0.8v1.3c0.7-0.9,1.5-1.3,2.5-1.3
				c0.9,0,1.4,0.4,1.6,1.3c0.8-0.9,1.7-1.3,2.7-1.3c0.5,0,0.9,0.1,1.2,0.4c0.3,0.3,0.6,1.3,0.6,1.8v3.6c0,1.1,0.2,1.3,1,1.3v0.3
				H-2276.6z"/>
			<path d="M-2270.2-1413.8h-0.7l2.4-7.4h-2.5c-0.7,0-1.2,0.4-1.5,1.1l-0.2-0.1l0.7-2h4.6L-2270.2-1413.8z"/>
		</g>
	</g>
	<g transform="matrix(0.752953,0,0,0.752953,2305.54,1432.62)">
	</g>
	<g transform="matrix(0.752953,0,0,0.752953,0,0)">
	</g>
	<g transform="matrix(0.752953,0,0,0.752953,2577.36,1432.62)">
	</g>
	<g transform="matrix(0.752953,0,0,0.752953,2577.36,1432.62)">
		<g class="st2">
			<path d="M-2559.1-1409.2v-0.4c0.8,0,1.2-0.2,1.2-0.7c0-0.5-0.5-1.7-0.9-2.7h-4.7c-0.5,1-1,2.3-1,2.7c0,0.4,0.4,0.7,1.2,0.7v0.4
				h-3.6v-0.4c0.7-0.1,1.2-0.4,1.6-1.2l4.4-10.4h0.5l4.1,9.8c0.7,1.6,0.9,1.7,1.7,1.8v0.4H-2559.1z M-2563.2-1413.8h4l-2.1-4.7
				L-2563.2-1413.8z"/>
			<path d="M-2551.5-1413.8h-0.7l2.4-7.4h-2.5c-0.7,0-1.2,0.4-1.5,1.1l-0.2-0.1l0.7-2h4.6L-2551.5-1413.8z"/>
		</g>
	</g>
	<g transform="matrix(0.752953,0,0,0.752953,2577.36,1432.62)">
	</g>
	<g transform="matrix(0.752953,0,0,0.752953,0,0)">
	</g>
	<g transform="matrix(0.752953,0,0,0.752953,119.719,188.341)">
	</g>
	<g transform="matrix(0.752953,0,0,0.752953,119.719,188.341)">
		<g class="st2">
			<path d="M-108.6-143v0.8c0,0.3,0,0.5,0,0.6c0,0.8,0.3,1,1.8,1.1l0.1,0.9h-7.9l0.1-0.9c1-0.1,1.6-0.3,1.8-0.6
				c0.1-0.2,0.1-0.8,0.1-1.9h-6.6v-1.3c2-2.5,3.8-7.1,4.1-10.3h5.5c-0.3,1.5-1.5,3.2-3.4,5.2c-2.2,2.2-3.5,3.8-4,5.1h4.4v-3.7l4-3.6
				v7.3h2v1.4H-108.6z"/>
		</g>
	</g>
	<g transform="matrix(0.752953,0,0,0.752953,119.719,188.341)">
		<g class="st2">
			<path d="M-108.6-126.8v0.8c0,0.3,0,0.5,0,0.6c0,0.8,0.3,1,1.8,1.1l0.1,0.9h-7.9l0.1-0.9c1-0.1,1.6-0.3,1.8-0.6
				c0.1-0.2,0.1-0.8,0.1-1.9h-6.6v-1.3c2-2.5,3.8-7.1,4.1-10.3h5.5c-0.3,1.5-1.5,3.2-3.4,5.2c-2.2,2.2-3.5,3.8-4,5.1h4.4v-3.7l4-3.6
				v7.3h2v1.4H-108.6z"/>
		</g>
	</g>
	<g transform="matrix(0.752953,0,0,0.752953,119.719,188.341)">
	</g>
	<g transform="matrix(0.752953,0,0,0.752953,0,0)">
		<line vector-effect="none" class="st3" x1="0" y1="127.2" x2="956.2" y2="127.2"/>
	</g>
	<g transform="matrix(0.752953,0,0,0.752953,0,0)">
		<line vector-effect="none" class="st3" x1="0" y1="119.2" x2="956.2" y2="119.2"/>
	</g>
	<g transform="matrix(0.752953,0,0,0.752953,0,0)">
		<line vector-effect="none" class="st3" x1="0" y1="111.2" x2="956.2" y2="111.2"/>
	</g>
	<g transform="matrix(0.752953,0,0,0.752953,0,0)">
		<line vector-effect="none" class="st3" x1="0" y1="103.2" x2="956.2" y2="103.2"/>
	</g>
	<g transform="matrix(0.752953,0,0,0.752953,0,0)">
		<line vector-effect="none" class="st3" x1="0" y1="95.2" x2="956.2" y2="95.2"/>
	</g>
	<g transform="matrix(0.752953,0,0,0.752953,0,0)">
		<g class="st2">
			<path d="M11.7,118.1c4.7-4.2,7.6-9.8,7.6-14.9c0-4.1-2.3-7.1-6-7.1c-2.6,0-5.4,2.2-5.4,4.4c0,0.4,0.1,0.5,0.2,0.5
				c-0.1,0,0.9-1,2.2-1c1.4,0,2.5,1.3,2.5,2.8c0,2-1.4,3.6-3.4,3.6c-2,0-3.3-2.1-3.3-4.6c0-3.8,3.7-6.7,7.8-6.7
				c7.5,0,9.5,5.2,9.5,9.4c0,2.7-0.7,4.7-3.2,8.6c-3.1,4.9-10.4,8.5-13,8.5c-0.7,0-1-0.3-1-0.7C8.6,120.2,10.4,119.2,11.7,118.1z
				 M27.8,97.7c0.9,0,1.6,0.7,1.6,1.6s-0.7,1.6-1.6,1.6c-0.9,0-1.6-0.7-1.6-1.6S26.9,97.7,27.8,97.7z M27.8,105.6
				c0.9,0,1.6,0.7,1.6,1.6c0,0.9-0.7,1.6-1.6,1.6c-0.9,0-1.6-0.7-1.6-1.6C26.2,106.3,26.9,105.6,27.8,105.6z"/>
		</g>
	</g>
	<g transform="matrix(0.752953,0,0,0.752953,0,0)">
		<line vector-effect="none" class="st3" x1="0" y1="234.2" x2="956.2" y2="234.2"/>
	</g>
	<g transform="matrix(0.752953,0,0,0.752953,0,0)">
		<line vector-effect="none" class="st3" x1="0" y1="226.2" x2="956.2" y2="226.2"/>
	</g>
	<g transform="matrix(0.752953,0,0,0.752953,0,0)">
		<line vector-effect="none" class="st3" x1="0" y1="218.2" x2="956.2" y2="218.2"/>
	</g>
	<g transform="matrix(0.752953,0,0,0.752953,0,0)">
		<line vector-effect="none" class="st3" x1="0" y1="210.2" x2="956.2" y2="210.2"/>
	</g>
	<g transform="matrix(0.752953,0,0,0.752953,0,0)">
		<line vector-effect="none" class="st3" x1="0" y1="202.2" x2="956.2" y2="202.2"/>
	</g>
	<g transform="matrix(0.752953,0,0,0.752953,0,0)">
		<g class="st2">
			<path d="M11.7,225.1c4.7-4.2,7.6-9.8,7.6-14.9c0-4.1-2.3-7.1-6-7.1c-2.6,0-5.4,2.2-5.4,4.4c0,0.4,0.1,0.5,0.2,0.5
				c-0.1,0,0.9-1,2.2-1c1.4,0,2.5,1.3,2.5,2.8c0,2-1.4,3.6-3.4,3.6c-2,0-3.3-2.1-3.3-4.6c0-3.8,3.7-6.7,7.8-6.7
				c7.5,0,9.5,5.2,9.5,9.4c0,2.7-0.7,4.7-3.2,8.6c-3.1,4.9-10.4,8.5-13,8.5c-0.7,0-1-0.3-1-0.7C8.6,227.2,10.4,226.2,11.7,225.1z
				 M27.8,204.6c0.9,0,1.6,0.7,1.6,1.6s-0.7,1.6-1.6,1.6c-0.9,0-1.6-0.7-1.6-1.6S26.9,204.6,27.8,204.6z M27.8,212.6
				c0.9,0,1.6,0.7,1.6,1.6c0,0.9-0.7,1.6-1.6,1.6c-0.9,0-1.6-0.7-1.6-1.6C26.2,213.3,26.9,212.6,27.8,212.6z"/>
		</g>
	</g>
	<g transform="matrix(0.752953,0,0,0.752953,0,0)">
		<line vector-effect="none" class="st3" x1="0" y1="341.8" x2="956.2" y2="341.8"/>
	</g>
	<g transform="matrix(0.752953,0,0,0.752953,0,0)">
		<line vector-effect="none" class="st3" x1="0" y1="333.8" x2="956.2" y2="333.8"/>
	</g>
	<g transform="matrix(0.752953,0,0,0.752953,0,0)">
		<line vector-effect="none" class="st3" x1="0" y1="325.8" x2="956.2" y2="325.8"/>
	</g>
	<g transform="matrix(0.752953,0,0,0.752953,0,0)">
		<line vector-effect="none" class="st3" x1="0" y1="317.8" x2="956.2" y2="317.8"/>
	</g>
	<g transform="matrix(0.752953,0,0,0.752953,0,0)">
		<line vector-effect="none" class="st3" x1="0" y1="309.8" x2="956.2" y2="309.8"/>
	</g>
	<g transform="matrix(0.752953,0,0,0.752953,0,0)">
		<g class="st2">
			<path d="M11.7,332.6c4.7-4.2,7.6-9.8,7.6-14.9c0-4.1-2.3-7.1-6-7.1c-2.6,0-5.4,2.2-5.4,4.4c0,0.4,0.1,0.5,0.2,0.5
				c-0.1,0,0.9-1,2.2-1c1.4,0,2.5,1.3,2.5,2.8c0,2-1.4,3.6-3.4,3.6c-2,0-3.3-2.1-3.3-4.6c0-3.8,3.7-6.7,7.8-6.7
				c7.5,0,9.5,5.2,9.5,9.4c0,2.7-0.7,4.7-3.2,8.6c-3.1,4.9-10.4,8.5-13,8.5c-0.7,0-1-0.3-1-0.7C8.6,334.7,10.4,333.7,11.7,332.6z
				 M27.8,312.1c0.9,0,1.6,0.7,1.6,1.6s-0.7,1.6-1.6,1.6c-0.9,0-1.6-0.7-1.6-1.6S26.9,312.1,27.8,312.1z M27.8,320.1
				c0.9,0,1.6,0.7,1.6,1.6c0,0.9-0.7,1.6-1.6,1.6c-0.9,0-1.6-0.7-1.6-1.6C26.2,320.8,26.9,320.1,27.8,320.1z"/>
		</g>
	</g>
	<g transform="matrix(0.752953,0,0,0.752953,0,0)">
		<line vector-effect="none" class="st3" x1="0" y1="449.8" x2="956.2" y2="449.8"/>
	</g>
	<g transform="matrix(0.752953,0,0,0.752953,0,0)">
		<line vector-effect="none" class="st3" x1="0" y1="441.8" x2="956.2" y2="441.8"/>
	</g>
	<g transform="matrix(0.752953,0,0,0.752953,0,0)">
		<line vector-effect="none" class="st3" x1="0" y1="433.8" x2="956.2" y2="433.8"/>
	</g>
	<g transform="matrix(0.752953,0,0,0.752953,0,0)">
		<line vector-effect="none" class="st3" x1="0" y1="425.8" x2="956.2" y2="425.8"/>
	</g>
	<g transform="matrix(0.752953,0,0,0.752953,0,0)">
		<line vector-effect="none" class="st3" x1="0" y1="417.8" x2="956.2" y2="417.8"/>
	</g>
	<g transform="matrix(0.752953,0,0,0.752953,0,0)">
		<g class="st2">
			<path d="M11.7,440.6c4.7-4.2,7.6-9.8,7.6-14.9c0-4.1-2.3-7.1-6-7.1c-2.6,0-5.4,2.2-5.4,4.4c0,0.4,0.1,0.5,0.2,0.5
				c-0.1,0,0.9-1,2.2-1c1.4,0,2.5,1.3,2.5,2.8c0,2-1.4,3.6-3.4,3.6c-2,0-3.3-2.1-3.3-4.6c0-3.8,3.7-6.7,7.8-6.7
				c7.5,0,9.5,5.2,9.5,9.4c0,2.7-0.7,4.7-3.2,8.6c-3.1,4.9-10.4,8.5-13,8.5c-0.7,0-1-0.3-1-0.7C8.6,442.7,10.4,441.8,11.7,440.6z
				 M27.8,420.2c0.9,0,1.6,0.7,1.6,1.6s-0.7,1.6-1.6,1.6c-0.9,0-1.6-0.7-1.6-1.6S26.9,420.2,27.8,420.2z M27.8,428.1
				c0.9,0,1.6,0.7,1.6,1.6s-0.7,1.6-1.6,1.6c-0.9,0-1.6-0.7-1.6-1.6S26.9,428.1,27.8,428.1z"/>
		</g>
	</g>
	<g transform="matrix(0.752953,0,0,0.752953,0,0)">
		<line vector-effect="none" class="st3" x1="0" y1="545.5" x2="956.2" y2="545.5"/>
	</g>
	<g transform="matrix(0.752953,0,0,0.752953,0,0)">
		<line vector-effect="none" class="st3" x1="0" y1="537.5" x2="956.2" y2="537.5"/>
	</g>
	<g transform="matrix(0.752953,0,0,0.752953,0,0)">
		<line vector-effect="none" class="st3" x1="0" y1="529.5" x2="956.2" y2="529.5"/>
	</g>
	<g transform="matrix(0.752953,0,0,0.752953,0,0)">
		<line vector-effect="none" class="st3" x1="0" y1="521.5" x2="956.2" y2="521.5"/>
	</g>
	<g transform="matrix(0.752953,0,0,0.752953,0,0)">
		<line vector-effect="none" class="st3" x1="0" y1="513.5" x2="956.2" y2="513.5"/>
	</g>
	<g transform="matrix(0.752953,0,0,0.752953,0,0)">
		<g class="st2">
			<path d="M11.7,536.4c4.7-4.2,7.6-9.8,7.6-14.9c0-4.1-2.3-7.1-6-7.1c-2.6,0-5.4,2.2-5.4,4.4c0,0.4,0.1,0.5,0.2,0.5
				c-0.1,0,0.9-1,2.2-1c1.4,0,2.5,1.3,2.5,2.8c0,2-1.4,3.6-3.4,3.6c-2,0-3.3-2.1-3.3-4.6c0-3.8,3.7-6.7,7.8-6.7
				c7.5,0,9.5,5.2,9.5,9.4c0,2.7-0.7,4.7-3.2,8.6c-3.1,4.9-10.4,8.5-13,8.5c-0.7,0-1-0.3-1-0.7C8.6,538.4,10.4,537.5,11.7,536.4z
				 M27.8,515.9c0.9,0,1.6,0.7,1.6,1.6c0,0.9-0.7,1.6-1.6,1.6c-0.9,0-1.6-0.7-1.6-1.6C26.2,516.6,26.9,515.9,27.8,515.9z
				 M27.8,523.9c0.9,0,1.6,0.7,1.6,1.6c0,0.9-0.7,1.6-1.6,1.6c-0.9,0-1.6-0.7-1.6-1.6C26.2,524.6,26.9,523.9,27.8,523.9z"/>
		</g>
	</g>
	<g transform="matrix(0.752953,0,0,0.752953,0,0)">
		<line vector-effect="none" class="st3" x1="83.5" y1="112.5" x2="83.5" y2="139.2"/>
	</g>
	<g transform="matrix(0.752953,0,0,0.752953,0,0)">
		<g class="st2">
			<path d="M90.1,106.9c2.7,0,4.4,1.2,4.4,3.2c0,3-3.7,5.4-7.3,5.4c-2.2,0-3.9-1.1-3.9-2.8C83.2,109.8,86.9,106.9,90.1,106.9z
				 M84,113.1c0,1,0.6,1.5,1.8,1.5c2.3,0,8-3.4,8-5.2c0-1-0.6-1.5-1.8-1.5C89.9,107.9,84,111.1,84,113.1z"/>
		</g>
	</g>
	<g transform="matrix(0.752953,0,0,0.752953,0,0)">
		<line vector-effect="none" class="st3" x1="188.2" y1="100.5" x2="188.2" y2="127.2"/>
	</g>
	<g transform="matrix(0.752953,0,0,0.752953,0,0)">
		<g class="st2">
			<path d="M194.9,94.9c2.7,0,4.4,1.2,4.4,3.2c0,3-3.7,5.4-7.3,5.4c-2.2,0-3.9-1.1-3.9-2.8C188,97.8,191.6,94.9,194.9,94.9z
				 M188.7,101.1c0,1,0.6,1.5,1.8,1.5c2.3,0,8-3.4,8-5.2c0-1-0.6-1.5-1.8-1.5C194.7,95.9,188.7,99.1,188.7,101.1z"/>
		</g>
	</g>
	<g transform="matrix(0.752953,0,0,0.752953,0,0)">
		<line vector-effect="none" class="st3" x1="304.8" y1="112.5" x2="304.8" y2="139.2"/>
	</g>
	<g transform="matrix(0.752953,0,0,0.752953,0,0)">
		<g class="st2">
			<path d="M311.4,106.9c2.7,0,4.4,1.2,4.4,3.2c0,3-3.7,5.4-7.3,5.4c-2.2,0-3.9-1.1-3.9-2.8C304.5,109.8,308.1,106.9,311.4,106.9z
				 M305.2,113.1c0,1,0.6,1.5,1.8,1.5c2.3,0,8-3.4,8-5.2c0-1-0.6-1.5-1.8-1.5C311.2,107.9,305.2,111.1,305.2,113.1z"/>
		</g>
	</g>
	<g transform="matrix(0.752953,0,0,0.752953,0,0)">
		<line vector-effect="none" class="st3" x1="409.5" y1="100.5" x2="409.5" y2="127.2"/>
	</g>
	<g transform="matrix(0.752953,0,0,0.752953,0,0)">
		<g class="st2">
			<path d="M416.1,94.9c2.7,0,4.4,1.2,4.4,3.2c0,3-3.7,5.4-7.3,5.4c-2.2,0-3.9-1.1-3.9-2.8C409.3,97.8,412.9,94.9,416.1,94.9z
				 M410,101.1c0,1,0.6,1.5,1.8,1.5c2.3,0,8-3.4,8-5.2c0-1-0.6-1.5-1.8-1.5C415.9,95.9,410,99.1,410,101.1z"/>
		</g>
	</g>
	<g transform="matrix(0.752953,0,0,0.752953,0,0)">
		<line vector-effect="none" class="st3" x1="526" y1="108.5" x2="526" y2="135.2"/>
	</g>
	<g transform="matrix(0.752953,0,0,0.752953,0,0)">
		<g class="st2">
			<path d="M532.6,102.9c2.7,0,4.4,1.2,4.4,3.2c0,3-3.7,5.4-7.3,5.4c-2.2,0-3.9-1.1-3.9-2.8C525.8,105.8,529.4,102.9,532.6,102.9z
				 M526.5,109.1c0,1,0.6,1.5,1.8,1.5c2.3,0,8-3.4,8-5.2c0-1-0.6-1.5-1.8-1.5C532.4,103.9,526.5,107.1,526.5,109.1z"/>
		</g>
	</g>
	<g transform="matrix(0.752953,0,0,0.752953,0,0)">
		<line vector-effect="none" class="st3" x1="630.8" y1="96.5" x2="630.8" y2="123.2"/>
	</g>
	<g transform="matrix(0.752953,0,0,0.752953,0,0)">
		<g class="st2">
			<path d="M637.4,90.9c2.7,0,4.4,1.2,4.4,3.2c0,3-3.7,5.4-7.3,5.4c-2.2,0-3.9-1.1-3.9-2.8C630.5,93.8,634.1,90.9,637.4,90.9z
				 M631.2,97.1c0,1,0.6,1.5,1.8,1.5c2.3,0,8-3.4,8-5.2c0-1-0.6-1.5-1.8-1.5C637.2,91.9,631.2,95.1,631.2,97.1z"/>
		</g>
	</g>
	<g transform="matrix(0.752953,0,0,0.752953,0,0)">
		<line vector-effect="none" class="st3" x1="747.2" y1="108.5" x2="747.2" y2="135.2"/>
	</g>
	<g transform="matrix(0.752953,0,0,0.752953,0,0)">
		<g class="st2">
			<path d="M753.9,102.9c2.7,0,4.4,1.2,4.4,3.2c0,3-3.7,5.4-7.3,5.4c-2.2,0-3.9-1.1-3.9-2.8C747,105.8,750.6,102.9,753.9,102.9z
				 M747.7,109.1c0,1,0.6,1.5,1.8,1.5c2.3,0,8-3.4,8-5.2c0-1-0.6-1.5-1.8-1.5C753.7,103.9,747.7,107.1,747.7,109.1z"/>
		</g>
	</g>
	<g transform="matrix(0.752953,0,0,0.752953,0,0)">
		<line vector-effect="none" class="st3" x1="852" y1="96.5" x2="852" y2="123.2"/>
	</g>
	<g transform="matrix(0.752953,0,0,0.752953,0,0)">
		<g class="st2">
			<path d="M858.6,90.9c2.7,0,4.4,1.2,4.4,3.2c0,3-3.7,5.4-7.3,5.4c-2.2,0-3.9-1.1-3.9-2.8C851.8,93.8,855.4,90.9,858.6,90.9z
				 M852.5,97.1c0,1,0.6,1.5,1.8,1.5c2.3,0,8-3.4,8-5.2c0-1-0.6-1.5-1.8-1.5C858.4,91.9,852.5,95.1,852.5,97.1z"/>
		</g>
	</g>
	<g transform="matrix(0.752953,0,0,0.752953,0,0)">
		<line vector-effect="none" class="st3" x1="46.2" y1="203.5" x2="46.2" y2="230.2"/>
	</g>
	<g transform="matrix(0.752953,0,0,0.752953,0,0)">
		<g class="st2">
			<path d="M52.9,197.9c2.7,0,4.4,1.2,4.4,3.2c0,3-3.7,5.4-7.3,5.4c-2.2,0-3.9-1.1-3.9-2.8C46,200.8,49.6,197.9,52.9,197.9z
				 M46.7,204.1c0,1,0.6,1.5,1.8,1.5c2.3,0,8-3.4,8-5.2c0-1-0.6-1.5-1.8-1.5C52.7,198.9,46.7,202.1,46.7,204.1z"/>
		</g>
	</g>
	<g transform="matrix(0.752953,0,0,0.752953,0,0)">
		<line vector-effect="none" class="st3" x1="122.8" y1="219.5" x2="122.8" y2="246.2"/>
	</g>
	<g transform="matrix(0.752953,0,0,0.752953,0,0)">
		<g class="st2">
			<path d="M129.4,213.9c2.7,0,4.4,1.2,4.4,3.2c0,3-3.7,5.4-7.3,5.4c-2.2,0-3.9-1.1-3.9-2.8C122.5,216.8,126.1,213.9,129.4,213.9z
				 M123.2,220.1c0,1,0.6,1.5,1.8,1.5c2.3,0,8-3.4,8-5.2c0-1-0.6-1.5-1.8-1.5C129.2,214.9,123.2,218.1,123.2,220.1z"/>
		</g>
	</g>
	<g transform="matrix(0.752953,0,0,0.752953,0,0)">
		<line vector-effect="none" class="st3" x1="211.2" y1="203.5" x2="211.2" y2="230.2"/>
	</g>
	<g transform="matrix(0.752953,0,0,0.752953,0,0)">
		<g class="st2">
			<path d="M217.9,197.9c2.7,0,4.4,1.2,4.4,3.2c0,3-3.7,5.4-7.3,5.4c-2.2,0-3.9-1.1-3.9-2.8C211,200.8,214.6,197.9,217.9,197.9z
				 M211.7,204.1c0,1,0.6,1.5,1.8,1.5c2.3,0,8-3.4,8-5.2c0-1-0.6-1.5-1.8-1.5C217.7,198.9,211.7,202.1,211.7,204.1z"/>
		</g>
	</g>
	<g transform="matrix(0.752953,0,0,0.752953,0,0)">
		<g class="st2">
			<path d="M201.5,188.8h1l-0.2,10.1c0.6-1.1,1.6-1.6,3-1.6c1.9,0,3.6,1.3,3.6,3.1c-0.1,1.2-0.8,2.8-2.8,4.3l-4.5,3.3V188.8z
				 M202.4,200c-0.1,1.2-0.2,2.3-0.2,3.1c0,1.6,0.1,2.6,0.2,3.2c1.7-1.1,3.9-4.3,3.9-5.9c0-1-0.8-1.7-1.8-1.7
				C203.6,198.6,202.9,199.1,202.4,200z"/>
		</g>
	</g>
	<g transform="matrix(0.752953,0,0,0.752953,0,0)">
		<line vector-effect="none" class="st3" x1="287.5" y1="219.5" x2="287.5" y2="246.2"/>
	</g>
	<g transform="matrix(0.752953,0,0,0.752953,0,0)">
		<g class="st2">
			<path d="M294.1,213.9c2.7,0,4.4,1.2,4.4,3.2c0,3-3.7,5.4-7.3,5.4c-2.2,0-3.9-1.1-3.9-2.8C287.2,216.8,290.9,213.9,294.1,213.9z
				 M288,220.1c0,1,0.6,1.5,1.8,1.5c2.3,0,8-3.4,8-5.2c0-1-0.6-1.5-1.8-1.5C293.9,214.9,288,218.1,288,220.1z"/>
		</g>
	</g>
	<g transform="matrix(0.752953,0,0,0.752953,0,0)">
		<g class="st2">
			<path d="M277.7,204.8h1l-0.2,10.1c0.6-1.1,1.6-1.6,3-1.6c1.9,0,3.6,1.3,3.6,3.1c-0.1,1.2-0.8,2.8-2.8,4.3l-4.5,3.3V204.8z
				 M278.7,216c-0.1,1.2-0.2,2.3-0.2,3.1c0,1.6,0.1,2.6,0.2,3.2c1.7-1.1,3.9-4.3,3.9-5.9c0-1-0.8-1.7-1.8-1.7
				C279.8,214.6,279.2,215.1,278.7,216z"/>
		</g>
	</g>
	<g transform="matrix(0.752953,0,0,0.752953,0,0)">
		<line vector-effect="none" class="st3" x1="386.8" y1="221" x2="386.8" y2="194.2"/>
	</g>
	<g transform="matrix(0.752953,0,0,0.752953,0,0)">
		<g class="st2">
			<path d="M382.6,217.9c2.7,0,4.4,1.2,4.4,3.2c0,3-3.7,5.4-7.3,5.4c-2.2,0-3.9-1.1-3.9-2.8C375.7,220.8,379.4,217.9,382.6,217.9z
				 M376.5,224.1c0,1,0.6,1.5,1.8,1.5c2.3,0,8-3.4,8-5.2c0-1-0.6-1.5-1.8-1.5C382.4,218.9,376.5,222.1,376.5,224.1z"/>
		</g>
	</g>
	<g transform="matrix(0.752953,0,0,0.752953,0,0)">
		<line vector-effect="none" class="st3" x1="452.5" y1="219.5" x2="452.5" y2="246.2"/>
	</g>
	<g transform="matrix(0.752953,0,0,0.752953,0,0)">
		<g class="st2">
			<path d="M459.1,213.9c2.7,0,4.4,1.2,4.4,3.2c0,3-3.7,5.4-7.3,5.4c-2.2,0-3.9-1.1-3.9-2.8C452.3,216.8,455.9,213.9,459.1,213.9z
				 M453,220.1c0,1,0.6,1.5,1.8,1.5c2.3,0,8-3.4,8-5.2c0-1-0.6-1.5-1.8-1.5C458.9,214.9,453,218.1,453,220.1z"/>
		</g>
	</g>
	<g transform="matrix(0.752953,0,0,0.752953,0,0)">
		<g class="st2">
			<path d="M449.1,229.2v-6.4l-4.9,1.7v-17.2h0.8v6.4l4.9-1.7v17.2H449.1z M445,221.6l4.1-1.5v-5.4l-4.1,1.5V221.6z"/>
		</g>
	</g>
	<g transform="matrix(0.752953,0,0,0.752953,0,0)">
		<line vector-effect="none" class="st3" x1="541" y1="215.5" x2="541" y2="242.2"/>
	</g>
	<g transform="matrix(0.752953,0,0,0.752953,0,0)">
		<g class="st2">
			<path d="M547.6,209.9c2.7,0,4.4,1.2,4.4,3.2c0,3-3.7,5.4-7.3,5.4c-2.2,0-3.9-1.1-3.9-2.8C540.7,212.8,544.4,209.9,547.6,209.9z
				 M541.5,216.1c0,1,0.6,1.5,1.8,1.5c2.3,0,8-3.4,8-5.2c0-1-0.6-1.5-1.8-1.5C547.4,210.9,541.5,214.1,541.5,216.1z"/>
		</g>
	</g>
	<g transform="matrix(0.752953,0,0,0.752953,0,0)">
		<line vector-effect="none" class="st3" x1="617.5" y1="203.5" x2="617.5" y2="230.2"/>
	</g>
	<g transform="matrix(0.752953,0,0,0.752953,0,0)">
		<g class="st2">
			<path d="M624.1,197.9c2.7,0,4.4,1.2,4.4,3.2c0,3-3.7,5.4-7.3,5.4c-2.2,0-3.9-1.1-3.9-2.8C617.3,200.8,620.9,197.9,624.1,197.9z
				 M618,204.1c0,1,0.6,1.5,1.8,1.5c2.3,0,8-3.4,8-5.2c0-1-0.6-1.5-1.8-1.5C623.9,198.9,618,202.1,618,204.1z"/>
		</g>
	</g>
	<g transform="matrix(0.752953,0,0,0.752953,0,0)">
		<g class="st2">
			<path d="M731.6,217.9c3.6,0,7.3,1.9,7.3,4.3c0,2.7-3.1,4.3-7.6,4.3c-4.1,0-7.3-1.7-7.3-4.3C724,219.7,727.7,217.9,731.6,217.9z
				 M734.7,221.4c-1-1.9-2-2.7-4.2-2.7c-2,0-3.1,0.8-3.1,2.5c0,2.4,2.2,4.8,4.2,4.8c1.9,0,3.4-0.2,3.8-2
				C735.5,223.1,735.2,222.3,734.7,221.4z"/>
		</g>
	</g>
	<g transform="matrix(0.752953,0,0,0.752953,0,0)">
		<g class="st2">
			<path d="M848.9,217.9c3.6,0,7.3,1.9,7.3,4.3c0,2.7-3.1,4.3-7.6,4.3c-4.1,0-7.3-1.7-7.3-4.3C841.3,219.7,845,217.9,848.9,217.9z
				 M852,221.4c-1-1.9-2-2.7-4.2-2.7c-2,0-3.1,0.8-3.1,2.5c0,2.4,2.2,4.8,4.2,4.8c1.9,0,3.4-0.2,3.8-2
				C852.7,223.1,852.4,222.3,852,221.4z"/>
		</g>
	</g>
	<g transform="matrix(0.752953,0,0,0.752953,0,0)">
		<line vector-effect="none" class="st3" x1="46.2" y1="315" x2="46.2" y2="341.8"/>
	</g>
	<g transform="matrix(0.752953,0,0,0.752953,0,0)">
		<g class="st2">
			<path d="M52.9,309.4c2.7,0,4.4,1.2,4.4,3.2c0,3-3.7,5.4-7.3,5.4c-2.2,0-3.9-1.1-3.9-2.8C46,312.3,49.6,309.4,52.9,309.4z
				 M46.7,315.6c0,1,0.6,1.5,1.8,1.5c2.3,0,8-3.4,8-5.2c0-1-0.6-1.5-1.8-1.5C52.7,310.4,46.7,313.6,46.7,315.6z"/>
		</g>
	</g>
	<g transform="matrix(0.752953,0,0,0.752953,0,0)">
		<line vector-effect="none" class="st1" x1="122" y1="301.8" x2="139.2" y2="301.8"/>
	</g>
	<g transform="matrix(0.752953,0,0,0.752953,0,0)">
		<line vector-effect="none" class="st3" x1="125.2" y1="303" x2="125.2" y2="329.8"/>
	</g>
	<g transform="matrix(0.752953,0,0,0.752953,0,0)">
		<g class="st2">
			<path d="M131.9,297.4c2.7,0,4.4,1.2,4.4,3.2c0,3-3.7,5.4-7.3,5.4c-2.2,0-3.9-1.1-3.9-2.8C125,300.3,128.6,297.4,131.9,297.4z
				 M125.7,303.6c0,1,0.6,1.5,1.8,1.5c2.3,0,8-3.4,8-5.2c0-1-0.6-1.5-1.8-1.5C131.7,298.4,125.7,301.6,125.7,303.6z"/>
		</g>
	</g>
	<g transform="matrix(0.752953,0,0,0.752953,0,0)">
		<line vector-effect="none" class="st3" x1="216.2" y1="315" x2="216.2" y2="341.8"/>
	</g>
	<g transform="matrix(0.752953,0,0,0.752953,0,0)">
		<g class="st2">
			<path d="M222.9,309.4c2.7,0,4.4,1.2,4.4,3.2c0,3-3.7,5.4-7.3,5.4c-2.2,0-3.9-1.1-3.9-2.8C216,312.3,219.6,309.4,222.9,309.4z
				 M216.7,315.6c0,1,0.6,1.5,1.8,1.5c2.3,0,8-3.4,8-5.2c0-1-0.6-1.5-1.8-1.5C222.7,310.4,216.7,313.6,216.7,315.6z"/>
		</g>
	</g>
	<g transform="matrix(0.752953,0,0,0.752953,0,0)">
		<line vector-effect="none" class="st1" x1="292" y1="301.8" x2="309.2" y2="301.8"/>
	</g>
	<g transform="matrix(0.752953,0,0,0.752953,0,0)">
		<line vector-effect="none" class="st3" x1="295.2" y1="303" x2="295.2" y2="329.8"/>
	</g>
	<g transform="matrix(0.752953,0,0,0.752953,0,0)">
		<g class="st2">
			<path d="M301.9,297.4c2.7,0,4.4,1.2,4.4,3.2c0,3-3.7,5.4-7.3,5.4c-2.2,0-3.9-1.1-3.9-2.8C295,300.3,298.6,297.4,301.9,297.4z
				 M295.7,303.6c0,1,0.6,1.5,1.8,1.5c2.3,0,8-3.4,8-5.2c0-1-0.6-1.5-1.8-1.5C301.7,298.4,295.7,301.6,295.7,303.6z"/>
		</g>
	</g>
	<g transform="matrix(0.752953,0,0,0.752953,0,0)">
		<g class="st2">
			<path d="M393.9,313.4c3.6,0,7.3,1.9,7.3,4.3c0,2.7-3.1,4.3-7.6,4.3c-4.1,0-7.3-1.7-7.3-4.3C386.3,315.2,390,313.4,393.9,313.4z
				 M397,316.9c-1-1.9-2-2.7-4.2-2.7c-2,0-3.1,0.8-3.1,2.5c0,2.4,2.2,4.8,4.2,4.8c1.9,0,3.4-0.2,3.8-2
				C397.7,318.6,397.4,317.8,397,316.9z"/>
		</g>
	</g>
	<g transform="matrix(0.752953,0,0,0.752953,0,0)">
		<g class="st2">
			<path d="M514.9,313.4c3.6,0,7.3,1.9,7.3,4.3c0,2.7-3.1,4.3-7.6,4.3c-4.1,0-7.3-1.7-7.3-4.3C507.3,315.2,511,313.4,514.9,313.4z
				 M518,316.9c-1-1.9-2-2.7-4.2-2.7c-2,0-3.1,0.8-3.1,2.5c0,2.4,2.2,4.8,4.2,4.8c1.9,0,3.4-0.2,3.8-2
				C518.7,318.6,518.4,317.8,518,316.9z"/>
		</g>
	</g>
	<g transform="matrix(0.752953,0,0,0.752953,0,0)">
		<line vector-effect="none" class="st3" x1="628.2" y1="311" x2="628.2" y2="337.8"/>
	</g>
	<g transform="matrix(0.752953,0,0,0.752953,0,0)">
		<g class="st2">
			<path d="M634.9,305.4c2.7,0,4.4,1.2,4.4,3.2c0,3-3.7,5.4-7.3,5.4c-2.2,0-3.9-1.1-3.9-2.8C628,308.3,631.6,305.4,634.9,305.4z
				 M628.7,311.6c0,1,0.6,1.5,1.8,1.5c2.3,0,8-3.4,8-5.2c0-1-0.6-1.5-1.8-1.5C634.7,306.4,628.7,309.6,628.7,311.6z"/>
		</g>
	</g>
	<g transform="matrix(0.752953,0,0,0.752953,0,0)">
		<line vector-effect="none" class="st3" x1="707.5" y1="327" x2="707.5" y2="353.8"/>
	</g>
	<g transform="matrix(0.752953,0,0,0.752953,0,0)">
		<g class="st2">
			<path d="M714.1,321.4c2.7,0,4.4,1.2,4.4,3.2c0,3-3.7,5.4-7.3,5.4c-2.2,0-3.9-1.1-3.9-2.8C707.3,324.3,710.9,321.4,714.1,321.4z
				 M708,327.6c0,1,0.6,1.5,1.8,1.5c2.3,0,8-3.4,8-5.2c0-1-0.6-1.5-1.8-1.5C713.9,322.4,708,325.6,708,327.6z"/>
		</g>
	</g>
	<g transform="matrix(0.752953,0,0,0.752953,0,0)">
		<line vector-effect="none" class="st3" x1="798.5" y1="311" x2="798.5" y2="337.8"/>
	</g>
	<g transform="matrix(0.752953,0,0,0.752953,0,0)">
		<g class="st2">
			<path d="M805.1,305.4c2.7,0,4.4,1.2,4.4,3.2c0,3-3.7,5.4-7.3,5.4c-2.2,0-3.9-1.1-3.9-2.8C798.3,308.3,801.9,305.4,805.1,305.4z
				 M799,311.6c0,1,0.6,1.5,1.8,1.5c2.3,0,8-3.4,8-5.2c0-1-0.6-1.5-1.8-1.5C804.9,306.4,799,309.6,799,311.6z"/>
		</g>
	</g>
	<g transform="matrix(0.752953,0,0,0.752953,0,0)">
		<line vector-effect="none" class="st3" x1="877.5" y1="327" x2="877.5" y2="353.8"/>
	</g>
	<g transform="matrix(0.752953,0,0,0.752953,0,0)">
		<g class="st2">
			<path d="M884.1,321.4c2.7,0,4.4,1.2,4.4,3.2c0,3-3.7,5.4-7.3,5.4c-2.2,0-3.9-1.1-3.9-2.8C877.3,324.3,880.9,321.4,884.1,321.4z
				 M878,327.6c0,1,0.6,1.5,1.8,1.5c2.3,0,8-3.4,8-5.2c0-1-0.6-1.5-1.8-1.5C883.9,322.4,878,325.6,878,327.6z"/>
		</g>
	</g>
	<g transform="matrix(0.752953,0,0,0.752953,0,0)">
		<line vector-effect="none" class="st3" x1="46.2" y1="423" x2="46.2" y2="449.8"/>
	</g>
	<g transform="matrix(0.752953,0,0,0.752953,0,0)">
		<g class="st2">
			<path d="M52.9,417.4c2.7,0,4.4,1.2,4.4,3.2c0,3-3.7,5.4-7.3,5.4c-2.2,0-3.9-1.1-3.9-2.8C46,420.3,49.6,417.4,52.9,417.4z
				 M46.7,423.6c0,1,0.6,1.5,1.8,1.5c2.3,0,8-3.4,8-5.2c0-1-0.6-1.5-1.8-1.5C52.7,418.4,46.7,421.6,46.7,423.6z"/>
		</g>
	</g>
	<g transform="matrix(0.752953,0,0,0.752953,0,0)">
		<line vector-effect="none" class="st3" x1="137.2" y1="435" x2="137.2" y2="461.8"/>
	</g>
	<g transform="matrix(0.752953,0,0,0.752953,0,0)">
		<g class="st2">
			<path d="M143.9,429.4c2.7,0,4.4,1.2,4.4,3.2c0,3-3.7,5.4-7.3,5.4c-2.2,0-3.9-1.1-3.9-2.8C137,432.3,140.6,429.4,143.9,429.4z
				 M137.7,435.6c0,1,0.6,1.5,1.8,1.5c2.3,0,8-3.4,8-5.2c0-1-0.6-1.5-1.8-1.5C143.7,430.4,137.7,433.6,137.7,435.6z"/>
		</g>
	</g>
	<g transform="matrix(0.752953,0,0,0.752953,0,0)">
		<g class="st2">
			<path d="M247.4,417.4c3.6,0,7.3,1.9,7.3,4.3c0,2.7-3.1,4.3-7.6,4.3c-4.1,0-7.3-1.7-7.3-4.3C239.8,419.2,243.5,417.4,247.4,417.4z
				 M250.5,420.9c-1-1.9-2-2.7-4.2-2.7c-2,0-3.1,0.8-3.1,2.5c0,2.4,2.2,4.8,4.2,4.8c1.9,0,3.4-0.2,3.8-2
				C251.2,422.6,250.9,421.8,250.5,420.9z"/>
		</g>
	</g>
	<g transform="matrix(0.752953,0,0,0.752953,0,0)">
		<line vector-effect="none" class="st3" x1="387" y1="435" x2="387" y2="461.8"/>
	</g>
	<g transform="matrix(0.752953,0,0,0.752953,0,0)">
		<g class="st2">
			<path d="M393.6,429.4c2.7,0,4.4,1.2,4.4,3.2c0,3-3.7,5.4-7.3,5.4c-2.2,0-3.9-1.1-3.9-2.8C386.8,432.3,390.4,429.4,393.6,429.4z
				 M387.5,435.6c0,1,0.6,1.5,1.8,1.5c2.3,0,8-3.4,8-5.2c0-1-0.6-1.5-1.8-1.5C393.4,430.4,387.5,433.6,387.5,435.6z"/>
		</g>
	</g>
	<g transform="matrix(0.752953,0,0,0.752953,0,0)">
		<line vector-effect="none" class="st3" x1="478" y1="423" x2="478" y2="449.8"/>
	</g>
	<g transform="matrix(0.752953,0,0,0.752953,0,0)">
		<g class="st2">
			<path d="M484.6,417.4c2.7,0,4.4,1.2,4.4,3.2c0,3-3.7,5.4-7.3,5.4c-2.2,0-3.9-1.1-3.9-2.8C477.8,420.3,481.4,417.4,484.6,417.4z
				 M478.5,423.6c0,1,0.6,1.5,1.8,1.5c2.3,0,8-3.4,8-5.2c0-1-0.6-1.5-1.8-1.5C484.4,418.4,478.5,421.6,478.5,423.6z"/>
		</g>
	</g>
	<g transform="matrix(0.752953,0,0,0.752953,0,0)">
		<line vector-effect="none" class="st3" x1="580.8" y1="435" x2="580.8" y2="461.8"/>
	</g>
	<g transform="matrix(0.752953,0,0,0.752953,0,0)">
		<g class="st2">
			<path d="M587.4,429.4c2.7,0,4.4,1.2,4.4,3.2c0,3-3.7,5.4-7.3,5.4c-2.2,0-3.9-1.1-3.9-2.8C580.5,432.3,584.1,429.4,587.4,429.4z
				 M581.2,435.6c0,1,0.6,1.5,1.8,1.5c2.3,0,8-3.4,8-5.2c0-1-0.6-1.5-1.8-1.5C587.2,430.4,581.2,433.6,581.2,435.6z"/>
		</g>
	</g>
	<g transform="matrix(0.752953,0,0,0.752953,0,0)">
		<line vector-effect="none" class="st3" x1="671.8" y1="423" x2="671.8" y2="449.8"/>
	</g>
	<g transform="matrix(0.752953,0,0,0.752953,0,0)">
		<g class="st2">
			<path d="M678.4,417.4c2.7,0,4.4,1.2,4.4,3.2c0,3-3.7,5.4-7.3,5.4c-2.2,0-3.9-1.1-3.9-2.8C671.5,420.3,675.1,417.4,678.4,417.4z
				 M672.2,423.6c0,1,0.6,1.5,1.8,1.5c2.3,0,8-3.4,8-5.2c0-1-0.6-1.5-1.8-1.5C678.2,418.4,672.2,421.6,672.2,423.6z"/>
		</g>
	</g>
	<g transform="matrix(0.752953,0,0,0.752953,0,0)">
		<line vector-effect="none" class="st3" x1="774.8" y1="431" x2="774.8" y2="457.8"/>
	</g>
	<g transform="matrix(0.752953,0,0,0.752953,0,0)">
		<g class="st2">
			<path d="M781.4,425.4c2.7,0,4.4,1.2,4.4,3.2c0,3-3.7,5.4-7.3,5.4c-2.2,0-3.9-1.1-3.9-2.8C774.5,428.3,778.1,425.4,781.4,425.4z
				 M775.2,431.6c0,1,0.6,1.5,1.8,1.5c2.3,0,8-3.4,8-5.2c0-1-0.6-1.5-1.8-1.5C781.2,426.4,775.2,429.6,775.2,431.6z"/>
		</g>
	</g>
	<g transform="matrix(0.752953,0,0,0.752953,0,0)">
		<line vector-effect="none" class="st3" x1="865.5" y1="419" x2="865.5" y2="445.8"/>
	</g>
	<g transform="matrix(0.752953,0,0,0.752953,0,0)">
		<g class="st2">
			<path d="M872.1,413.4c2.7,0,4.4,1.2,4.4,3.2c0,3-3.7,5.4-7.3,5.4c-2.2,0-3.9-1.1-3.9-2.8C865.2,416.3,868.9,413.4,872.1,413.4z
				 M866,419.6c0,1,0.6,1.5,1.8,1.5c2.3,0,8-3.4,8-5.2c0-1-0.6-1.5-1.8-1.5C871.9,414.4,866,417.6,866,419.6z"/>
		</g>
	</g>
	<g transform="matrix(0.752953,0,0,0.752953,0,0)">
		<line vector-effect="none" class="st3" x1="46.2" y1="526.8" x2="46.2" y2="553.5"/>
	</g>
	<g transform="matrix(0.752953,0,0,0.752953,0,0)">
		<g class="st2">
			<path d="M52.9,521.1c2.7,0,4.4,1.2,4.4,3.2c0,3-3.7,5.4-7.3,5.4c-2.2,0-3.9-1.1-3.9-2.8C46,524,49.6,521.1,52.9,521.1z
				 M46.7,527.4c0,1,0.6,1.5,1.8,1.5c2.3,0,8-3.4,8-5.2c0-1-0.6-1.5-1.8-1.5C52.7,522.1,46.7,525.4,46.7,527.4z"/>
		</g>
	</g>
	<g transform="matrix(0.752953,0,0,0.752953,0,0)">
		<line vector-effect="none" class="st3" x1="131.2" y1="514.8" x2="131.2" y2="541.5"/>
	</g>
	<g transform="matrix(0.752953,0,0,0.752953,0,0)">
		<g class="st2">
			<path d="M137.9,509.1c2.7,0,4.4,1.2,4.4,3.2c0,3-3.7,5.4-7.3,5.4c-2.2,0-3.9-1.1-3.9-2.8C131,512,134.6,509.1,137.9,509.1z
				 M131.7,515.4c0,1,0.6,1.5,1.8,1.5c2.3,0,8-3.4,8-5.2c0-1-0.6-1.5-1.8-1.5C137.7,510.1,131.7,513.4,131.7,515.4z"/>
		</g>
	</g>
	<g transform="matrix(0.752953,0,0,0.752953,0,0)">
		<line vector-effect="none" class="st3" x1="228.2" y1="514.8" x2="228.2" y2="541.5"/>
	</g>
	<g transform="matrix(0.752953,0,0,0.752953,0,0)">
		<g class="st2">
			<path d="M234.9,509.1c2.7,0,4.4,1.2,4.4,3.2c0,3-3.7,5.4-7.3,5.4c-2.2,0-3.9-1.1-3.9-2.8C228,512,231.6,509.1,234.9,509.1z
				 M228.7,515.4c0,1,0.6,1.5,1.8,1.5c2.3,0,8-3.4,8-5.2c0-1-0.6-1.5-1.8-1.5C234.7,510.1,228.7,513.4,228.7,515.4z"/>
		</g>
	</g>
	<g transform="matrix(0.752953,0,0,0.752953,0,0)">
		<line vector-effect="none" class="st3" x1="313.2" y1="530.8" x2="313.2" y2="557.5"/>
	</g>
	<g transform="matrix(0.752953,0,0,0.752953,0,0)">
		<g class="st2">
			<path d="M319.9,525.1c2.7,0,4.4,1.2,4.4,3.2c0,3-3.7,5.4-7.3,5.4c-2.2,0-3.9-1.1-3.9-2.8C313,528,316.6,525.1,319.9,525.1z
				 M313.7,531.4c0,1,0.6,1.5,1.8,1.5c2.3,0,8-3.4,8-5.2c0-1-0.6-1.5-1.8-1.5C319.7,526.1,313.7,529.4,313.7,531.4z"/>
		</g>
	</g>
	<g transform="matrix(0.752953,0,0,0.752953,0,0)">
		<line vector-effect="none" class="st3" x1="410.2" y1="514.8" x2="410.2" y2="541.5"/>
	</g>
	<g transform="matrix(0.752953,0,0,0.752953,0,0)">
		<g class="st2">
			<path d="M416.9,509.1c2.7,0,4.4,1.2,4.4,3.2c0,3-3.7,5.4-7.3,5.4c-2.2,0-3.9-1.1-3.9-2.8C410,512,413.6,509.1,416.9,509.1z
				 M410.7,515.4c0,1,0.6,1.5,1.8,1.5c2.3,0,8-3.4,8-5.2c0-1-0.6-1.5-1.8-1.5C416.7,510.1,410.7,513.4,410.7,515.4z"/>
		</g>
	</g>
	<g transform="matrix(0.752953,0,0,0.752953,0,0)">
		<g class="st2">
			<path d="M400.5,500.1h1l-0.2,10.1c0.6-1.1,1.6-1.6,3-1.6c1.9,0,3.6,1.3,3.6,3.1c-0.1,1.2-0.8,2.8-2.8,4.3l-4.5,3.3V500.1z
				 M401.4,511.2c-0.1,1.2-0.2,2.3-0.2,3.1c0,1.6,0.1,2.6,0.2,3.2c1.7-1.1,3.9-4.3,3.9-5.9c0-1-0.8-1.7-1.8-1.7
				C402.6,509.9,401.9,510.3,401.4,511.2z"/>
		</g>
	</g>
	<g transform="matrix(0.752953,0,0,0.752953,0,0)">
		<line vector-effect="none" class="st3" x1="495.2" y1="530.8" x2="495.2" y2="557.5"/>
	</g>
	<g transform="matrix(0.752953,0,0,0.752953,0,0)">
		<g class="st2">
			<path d="M501.9,525.1c2.7,0,4.4,1.2,4.4,3.2c0,3-3.7,5.4-7.3,5.4c-2.2,0-3.9-1.1-3.9-2.8C495,528,498.6,525.1,501.9,525.1z
				 M495.7,531.4c0,1,0.6,1.5,1.8,1.5c2.3,0,8-3.4,8-5.2c0-1-0.6-1.5-1.8-1.5C501.7,526.1,495.7,529.4,495.7,531.4z"/>
		</g>
	</g>
	<g transform="matrix(0.752953,0,0,0.752953,0,0)">
		<g class="st2">
			<path d="M485.5,516.1h1l-0.2,10.1c0.6-1.1,1.6-1.6,3-1.6c1.9,0,3.6,1.3,3.6,3.1c-0.1,1.2-0.8,2.8-2.8,4.3l-4.5,3.3V516.1z
				 M486.4,527.2c-0.1,1.2-0.2,2.3-0.2,3.1c0,1.6,0.1,2.6,0.2,3.2c1.7-1.1,3.9-4.3,3.9-5.9c0-1-0.8-1.7-1.8-1.7
				C487.6,525.9,486.9,526.3,486.4,527.2z"/>
		</g>
	</g>
	<g transform="matrix(0.752953,0,0,0.752953,0,0)">
		<line vector-effect="none" class="st3" x1="603" y1="532.2" x2="603" y2="505.5"/>
	</g>
	<g transform="matrix(0.752953,0,0,0.752953,0,0)">
		<g class="st2">
			<path d="M598.9,529.1c2.7,0,4.4,1.2,4.4,3.2c0,3-3.7,5.4-7.3,5.4c-2.2,0-3.9-1.1-3.9-2.8C592,532,595.6,529.1,598.9,529.1z
				 M592.7,535.4c0,1,0.6,1.5,1.8,1.5c2.3,0,8-3.4,8-5.2c0-1-0.6-1.5-1.8-1.5C598.7,530.1,592.7,533.4,592.7,535.4z"/>
		</g>
	</g>
	<g transform="matrix(0.752953,0,0,0.752953,0,0)">
		<line vector-effect="none" class="st3" x1="677.2" y1="530.8" x2="677.2" y2="557.5"/>
	</g>
	<g transform="matrix(0.752953,0,0,0.752953,0,0)">
		<g class="st2">
			<path d="M683.9,525.1c2.7,0,4.4,1.2,4.4,3.2c0,3-3.7,5.4-7.3,5.4c-2.2,0-3.9-1.1-3.9-2.8C677,528,680.6,525.1,683.9,525.1z
				 M677.7,531.4c0,1,0.6,1.5,1.8,1.5c2.3,0,8-3.4,8-5.2c0-1-0.6-1.5-1.8-1.5C683.7,526.1,677.7,529.4,677.7,531.4z"/>
		</g>
	</g>
	<g transform="matrix(0.752953,0,0,0.752953,0,0)">
		<g class="st2">
			<path d="M673.9,540.4V534l-4.9,1.7v-17.2h0.8v6.4l4.9-1.7v17.2H673.9z M669.8,532.9l4.1-1.5V526l-4.1,1.5V532.9z"/>
		</g>
	</g>
	<g transform="matrix(0.752953,0,0,0.752953,0,0)">
		<line vector-effect="none" class="st3" x1="774.2" y1="526.8" x2="774.2" y2="553.5"/>
	</g>
	<g transform="matrix(0.752953,0,0,0.752953,0,0)">
		<g class="st2">
			<path d="M780.9,521.1c2.7,0,4.4,1.2,4.4,3.2c0,3-3.7,5.4-7.3,5.4c-2.2,0-3.9-1.1-3.9-2.8C774,524,777.6,521.1,780.9,521.1z
				 M774.7,527.4c0,1,0.6,1.5,1.8,1.5c2.3,0,8-3.4,8-5.2c0-1-0.6-1.5-1.8-1.5C780.7,522.1,774.7,525.4,774.7,527.4z"/>
		</g>
	</g>
	<g transform="matrix(0.752953,0,0,0.752953,0,0)">
		<line vector-effect="none" class="st3" x1="859.2" y1="514.8" x2="859.2" y2="541.5"/>
	</g>
	<g transform="matrix(0.752953,0,0,0.752953,0,0)">
		<g class="st2">
			<path d="M865.9,509.1c2.7,0,4.4,1.2,4.4,3.2c0,3-3.7,5.4-7.3,5.4c-2.2,0-3.9-1.1-3.9-2.8C859,512,862.6,509.1,865.9,509.1z
				 M859.7,515.4c0,1,0.6,1.5,1.8,1.5c2.3,0,8-3.4,8-5.2c0-1-0.6-1.5-1.8-1.5C865.7,510.1,859.7,513.4,859.7,515.4z"/>
		</g>
	</g>
</g>
</svg>
