<?xml version="1.0" encoding="utf-8"?>
<!-- Generator: Adobe Illustrator 26.3.1, SVG Export Plug-In . SVG Version: 6.00 Build 0)  -->
<svg version="1.1" id="Layer_1" xmlns="http://www.w3.org/2000/svg" xmlns:xlink="http://www.w3.org/1999/xlink" x="0px" y="0px"
	 viewBox="0 0 720 432" style="enable-background:new 0 0 720 432;" xml:space="preserve">
<style type="text/css">
	.st0{fill:none;stroke:#000000;stroke-width:3.0118;stroke-linejoin:bevel;stroke-miterlimit:10;}
	.st1{fill:none;stroke:#000000;stroke-width:0.9412;stroke-linejoin:bevel;stroke-miterlimit:10;}
	.st2{enable-background:new    ;}
	.st3{fill:none;stroke:#000000;stroke-width:0.5647;stroke-linejoin:bevel;stroke-miterlimit:10;}
	.st4{fill:none;stroke:#000000;stroke-width:0.3765;stroke-linejoin:bevel;stroke-miterlimit:10;}
	.st5{fill-rule:evenodd;clip-rule:evenodd;stroke:#000000;stroke-width:0.1882;stroke-linejoin:bevel;stroke-miterlimit:10;}
</style>
<g>
	<g transform="matrix(0.752953,0,0,0.752953,0,0)">
		<line vector-effect="none" class="st0" x1="59" y1="95.2" x2="59" y2="127.2"/>
	</g>
	<g transform="matrix(0.752953,0,0,0.752953,0,0)">
		<line vector-effect="none" class="st1" x1="64.5" y1="95.2" x2="64.5" y2="127.2"/>
	</g>
	<g transform="matrix(0.752953,0,0,0.752953,0,0)">
		<g class="st2">
			<path d="M71.3,107.3c0,0.7-0.7,1.4-1.5,1.4c-0.7,0-1.5-0.7-1.5-1.4c0-0.9,0.7-1.5,1.5-1.5C70.6,105.7,71.3,106.4,71.3,107.3z"/>
		</g>
	</g>
	<g transform="matrix(0.752953,0,0,0.752953,0,0)">
		<g class="st2">
			<path d="M71.3,115.2c0,0.7-0.7,1.4-1.5,1.4c-0.7,0-1.5-0.7-1.5-1.4c0-0.9,0.7-1.5,1.5-1.5C70.6,113.7,71.3,114.4,71.3,115.2z"/>
		</g>
	</g>
	<g transform="matrix(0.752953,0,0,0.752953,0,0)">
		<line vector-effect="none" class="st1" x1="292" y1="95.2" x2="292" y2="127.2"/>
	</g>
	<g transform="matrix(0.752953,0,0,0.752953,0,0)">
		<line vector-effect="none" class="st1" x1="513.2" y1="95.2" x2="513.2" y2="127.2"/>
	</g>
	<g transform="matrix(0.752953,0,0,0.752953,0,0)">
		<line vector-effect="none" class="st1" x1="734.5" y1="95.2" x2="734.5" y2="127.2"/>
	</g>
	<g transform="matrix(0.752953,0,0,0.752953,0,0)">
		<line vector-effect="none" class="st1" x1="955.8" y1="95.2" x2="955.8" y2="127.2"/>
	</g>
	<g transform="matrix(0.752953,0,0,0.752953,0,0)">
	</g>
	<g transform="matrix(0.752953,0,0,0.752953,222.874,172.929)">
	</g>
	<g transform="matrix(0.752953,0,0,0.752953,222.874,172.929)">
		<g class="st2">
			<path d="M-216.7-154.4h-5v-0.4c1.5,0,1.6-0.3,1.6-1.7v-7.5c0-1.4-0.1-1.7-1.6-1.7v-0.4h5.6c0.8,0,1.7,0.2,2.6,0.5
				c2.4,0.9,3.7,2.7,3.7,5.4C-209.8-156.6-212.4-154.4-216.7-154.4z M-216.9-165.5c-1.4,0-1.4,0.2-1.4,1.6v7.1c0,1.4,0,1.6,1.5,1.6
				c3.3,0,5.1-1.8,5.1-5C-211.7-163.4-213.6-165.5-216.9-165.5z"/>
			<path d="M-200.7-154.4v-0.3c0.7,0,1-0.2,1-1.2v-3.7c0-0.9-0.4-1.3-1.2-1.3c-0.6,0-1.3,0.3-1.8,1c0.1,0.1,0.1,0.5,0.1,1.1v1.6
				c0,0.8,0,1.2,0,1.2c0,1.1,0.2,1.3,1,1.3v0.3h-3.4v-0.3c0.7,0,1-0.2,1-1.2v-3.7c0-0.9-0.4-1.3-1.1-1.3c-0.6,0-1.2,0.3-1.8,1v4.1
				c0,0.9,0.3,1.1,1,1.1v0.3h-3.4v-0.3c0.9,0,1-0.3,1-1.3v-4c0-0.4-0.1-0.6-0.3-0.6h-0.8v-0.3l2.4-0.8v1.3c0.7-0.9,1.5-1.3,2.5-1.3
				c0.9,0,1.4,0.4,1.6,1.3c0.8-0.9,1.7-1.3,2.7-1.3c0.5,0,0.9,0.1,1.2,0.4c0.3,0.3,0.6,1.3,0.6,1.8v3.5c0,1.1,0.2,1.3,1,1.3v0.3
				H-200.7z"/>
			<path d="M-194.3-159h-0.7l2.4-7.4h-2.5c-0.7,0-1.2,0.4-1.5,1.1l-0.2-0.1l0.7-2h4.6L-194.3-159z"/>
		</g>
	</g>
	<g transform="matrix(0.752953,0,0,0.752953,222.874,172.929)">
	</g>
	<g transform="matrix(0.752953,0,0,0.752953,0,0)">
	</g>
	<g transform="matrix(0.752953,0,0,0.752953,556.432,172.929)">
	</g>
	<g transform="matrix(0.752953,0,0,0.752953,556.432,172.929)">
		<g class="st2">
			<path d="M-543-162.7h-0.3c-0.7-2.1-2-3.1-3.9-3.1c-2.7,0-4.4,2.2-4.4,5.4c0,3.2,1.9,5.8,4.5,5.8c0.9,0,1.7-0.2,2.4-0.6v-3.4
				c0-1.3-0.2-1.7-1.5-1.7v-0.4h4.5v0.4c-1.2,0-1.3,0.5-1.3,1.7v3.6c-1.3,0.7-2.6,1-4.1,1c-3.7,0-6.5-2.3-6.5-5.9
				c0-3.4,2.6-6.4,6.2-6.4c0.7,0,1.6,0.2,2.7,0.6c0.3,0.1,0.6,0.2,0.6,0.2c0.3,0,0.4-0.2,0.4-0.7h0.3L-543-162.7z"/>
			<path d="M-538.5-159h-0.7l2.4-7.4h-2.5c-0.7,0-1.2,0.4-1.5,1.1l-0.2-0.1l0.7-2h4.6L-538.5-159z"/>
		</g>
	</g>
	<g transform="matrix(0.752953,0,0,0.752953,556.432,172.929)">
	</g>
	<g transform="matrix(0.752953,0,0,0.752953,0,0)">
	</g>
	<g transform="matrix(0.752953,0,0,0.752953,889.237,172.929)">
	</g>
	<g transform="matrix(0.752953,0,0,0.752953,889.237,172.929)">
		<g class="st2">
			<path d="M-880.5-154.4h-5v-0.4c1.5,0,1.6-0.3,1.6-1.7v-7.5c0-1.4-0.1-1.7-1.6-1.7v-0.4h5.6c0.8,0,1.7,0.2,2.6,0.5
				c2.4,0.9,3.7,2.7,3.7,5.4C-873.5-156.6-876.2-154.4-880.5-154.4z M-880.6-165.5c-1.4,0-1.4,0.2-1.4,1.6v7.1c0,1.4,0,1.6,1.5,1.6
				c3.3,0,5.1-1.8,5.1-5C-875.5-163.4-877.3-165.5-880.6-165.5z"/>
			<path d="M-864.4-154.4v-0.3c0.7,0,1-0.2,1-1.2v-3.7c0-0.9-0.4-1.3-1.2-1.3c-0.6,0-1.3,0.3-1.8,1c0.1,0.1,0.1,0.5,0.1,1.1v1.6
				c0,0.8,0,1.2,0,1.2c0,1.1,0.2,1.3,1,1.3v0.3h-3.4v-0.3c0.7,0,1-0.2,1-1.2v-3.7c0-0.9-0.4-1.3-1.1-1.3c-0.6,0-1.2,0.3-1.8,1v4.1
				c0,0.9,0.3,1.1,1,1.1v0.3h-3.4v-0.3c0.9,0,1-0.3,1-1.3v-4c0-0.4-0.1-0.6-0.3-0.6h-0.8v-0.3l2.4-0.8v1.3c0.7-0.9,1.5-1.3,2.5-1.3
				c0.9,0,1.4,0.4,1.6,1.3c0.8-0.9,1.7-1.3,2.7-1.3c0.5,0,0.9,0.1,1.2,0.4c0.3,0.3,0.6,1.3,0.6,1.8v3.5c0,1.1,0.2,1.3,1,1.3v0.3
				H-864.4z"/>
			<path d="M-858.1-159h-0.7l2.4-7.4h-2.5c-0.7,0-1.2,0.4-1.5,1.1l-0.2-0.1l0.7-2h4.6L-858.1-159z"/>
		</g>
	</g>
	<g transform="matrix(0.752953,0,0,0.752953,889.237,172.929)">
	</g>
	<g transform="matrix(0.752953,0,0,0.752953,0,0)">
	</g>
	<g transform="matrix(0.752953,0,0,0.752953,1222.8,172.929)">
	</g>
	<g transform="matrix(0.752953,0,0,0.752953,1222.8,172.929)">
		<g class="st2">
			<path d="M-1206.8-162.7h-0.3c-0.7-2.1-2-3.1-3.9-3.1c-2.7,0-4.4,2.2-4.4,5.4c0,3.2,1.9,5.8,4.5,5.8c0.9,0,1.7-0.2,2.4-0.6v-3.4
				c0-1.3-0.2-1.7-1.5-1.7v-0.4h4.5v0.4c-1.2,0-1.3,0.5-1.3,1.7v3.6c-1.3,0.7-2.6,1-4.1,1c-3.7,0-6.5-2.3-6.5-5.9
				c0-3.4,2.6-6.4,6.2-6.4c0.7,0,1.6,0.2,2.7,0.6c0.3,0.1,0.6,0.2,0.6,0.2c0.3,0,0.4-0.2,0.4-0.7h0.3L-1206.8-162.7z"/>
			<path d="M-1202.2-159h-0.7l2.4-7.4h-2.5c-0.7,0-1.2,0.4-1.5,1.1l-0.2-0.1l0.7-2h4.6L-1202.2-159z"/>
		</g>
	</g>
	<g transform="matrix(0.752953,0,0,0.752953,1222.8,172.929)">
	</g>
	<g transform="matrix(0.752953,0,0,0.752953,0,0)">
	</g>
	<g transform="matrix(0.752953,0,0,0.752953,1557.86,172.929)">
	</g>
	<g transform="matrix(0.752953,0,0,0.752953,1557.86,172.929)">
		<g class="st2">
			<path d="M-1541.8-154.4h-9.7v-0.4c1.5,0,1.6-0.3,1.6-1.7v-7.5c0-1.4-0.1-1.7-1.6-1.7v-0.4h9.5v2.7h-0.4c-0.1-1.2-0.7-1.8-1.7-1.8
				h-3.1c-0.8,0-1,0.4-1,1.2v3.3h3.1c1,0,1.7-0.7,1.7-1.7h0.4v4.2h-0.4c0-1-0.7-1.7-1.7-1.7h-3.1v3.7c0,0.8,0.2,1.2,1,1.2h3
				c1.2,0,2.3-1,2.6-2.2h0.5L-1541.8-154.4z"/>
			<path d="M-1531.8-154.4v-0.3c0.7,0,1-0.2,1-1.2v-3.7c0-0.9-0.4-1.3-1.2-1.3c-0.6,0-1.3,0.3-1.8,1c0.1,0.1,0.1,0.5,0.1,1.1v1.6
				c0,0.8,0,1.2,0,1.2c0,1.1,0.2,1.3,1,1.3v0.3h-3.4v-0.3c0.7,0,1-0.2,1-1.2v-3.7c0-0.9-0.4-1.3-1.1-1.3c-0.6,0-1.2,0.3-1.8,1v4.1
				c0,0.9,0.3,1.1,1,1.1v0.3h-3.4v-0.3c0.9,0,1-0.3,1-1.3v-4c0-0.4-0.1-0.6-0.3-0.6h-0.8v-0.3l2.4-0.8v1.3c0.7-0.9,1.5-1.3,2.5-1.3
				c0.9,0,1.4,0.4,1.6,1.3c0.8-0.9,1.7-1.3,2.7-1.3c0.5,0,0.9,0.1,1.2,0.4c0.3,0.3,0.6,1.3,0.6,1.8v3.5c0,1.1,0.2,1.3,1,1.3v0.3
				H-1531.8z"/>
			<path d="M-1525.5-159h-0.7l2.4-7.4h-2.5c-0.7,0-1.2,0.4-1.5,1.1l-0.2-0.1l0.7-2h4.6L-1525.5-159z"/>
		</g>
	</g>
	<g transform="matrix(0.752953,0,0,0.752953,1557.86,172.929)">
	</g>
	<g transform="matrix(0.752953,0,0,0.752953,0,0)">
	</g>
	<g transform="matrix(0.752953,0,0,0.752953,1892.17,172.929)">
	</g>
	<g transform="matrix(0.752953,0,0,0.752953,1892.17,172.929)">
		<g class="st2">
			<path d="M-1876.6-154.4v-0.4c0.8,0,1.2-0.2,1.2-0.7c0-0.5-0.5-1.7-0.9-2.7h-4.7c-0.5,1-1,2.3-1,2.7c0,0.4,0.4,0.7,1.2,0.7v0.4
				h-3.6v-0.4c0.7-0.1,1.2-0.4,1.6-1.2l4.4-10.4h0.5l4.1,9.8c0.7,1.6,0.9,1.7,1.7,1.8v0.4H-1876.6z M-1880.7-159h4l-2.1-4.7
				L-1880.7-159z"/>
			<path d="M-1869-159h-0.7l2.4-7.4h-2.5c-0.7,0-1.2,0.4-1.5,1.1l-0.2-0.1l0.7-2h4.6L-1869-159z"/>
		</g>
	</g>
	<g transform="matrix(0.752953,0,0,0.752953,1892.17,172.929)">
	</g>
	<g transform="matrix(0.752953,0,0,0.752953,0,0)">
	</g>
	<g transform="matrix(0.752953,0,0,0.752953,2224.22,172.929)">
	</g>
	<g transform="matrix(0.752953,0,0,0.752953,2224.22,172.929)">
		<g class="st2">
			<path d="M-2205.5-154.4h-9.7v-0.4c1.5,0,1.6-0.3,1.6-1.7v-7.5c0-1.4-0.1-1.7-1.6-1.7v-0.4h9.6v2.7h-0.4c-0.1-1.2-0.7-1.8-1.7-1.8
				h-3.1c-0.8,0-1,0.4-1,1.2v3.3h3.1c1,0,1.7-0.7,1.7-1.7h0.4v4.2h-0.4c0-1-0.7-1.7-1.7-1.7h-3.1v3.7c0,0.8,0.2,1.2,1,1.2h3
				c1.2,0,2.3-1,2.6-2.2h0.5L-2205.5-154.4z"/>
			<path d="M-2195.6-154.4v-0.3c0.7,0,1-0.2,1-1.2v-3.7c0-0.9-0.4-1.3-1.2-1.3c-0.6,0-1.3,0.3-1.8,1c0.1,0.1,0.1,0.5,0.1,1.1v1.6
				c0,0.8,0,1.2,0,1.2c0,1.1,0.2,1.3,1,1.3v0.3h-3.4v-0.3c0.7,0,1-0.2,1-1.2v-3.7c0-0.9-0.4-1.3-1.1-1.3c-0.6,0-1.2,0.3-1.8,1v4.1
				c0,0.9,0.3,1.1,1,1.1v0.3h-3.4v-0.3c0.9,0,1-0.3,1-1.3v-4c0-0.4-0.1-0.6-0.3-0.6h-0.8v-0.3l2.4-0.8v1.3c0.7-0.9,1.5-1.3,2.5-1.3
				c0.9,0,1.4,0.4,1.6,1.3c0.8-0.9,1.7-1.3,2.7-1.3c0.5,0,0.9,0.1,1.2,0.4c0.3,0.3,0.6,1.3,0.6,1.8v3.5c0,1.1,0.2,1.3,1,1.3v0.3
				H-2195.6z"/>
			<path d="M-2189.2-159h-0.7l2.4-7.4h-2.5c-0.7,0-1.2,0.4-1.5,1.1l-0.2-0.1l0.7-2h4.6L-2189.2-159z"/>
		</g>
	</g>
	<g transform="matrix(0.752953,0,0,0.752953,2224.22,172.929)">
	</g>
	<g transform="matrix(0.752953,0,0,0.752953,0,0)">
	</g>
	<g transform="matrix(0.752953,0,0,0.752953,2558.53,172.929)">
	</g>
	<g transform="matrix(0.752953,0,0,0.752953,2558.53,172.929)">
		<g class="st2">
			<path d="M-2540.4-154.4v-0.4c0.8,0,1.2-0.2,1.2-0.7c0-0.5-0.5-1.7-0.9-2.7h-4.7c-0.5,1-1,2.3-1,2.7c0,0.4,0.4,0.7,1.2,0.7v0.4
				h-3.6v-0.4c0.7-0.1,1.2-0.4,1.6-1.2l4.4-10.4h0.5l4.1,9.8c0.7,1.6,0.9,1.7,1.7,1.8v0.4H-2540.4z M-2544.4-159h4l-2.1-4.7
				L-2544.4-159z"/>
			<path d="M-2532.7-159h-0.7l2.4-7.4h-2.5c-0.7,0-1.2,0.4-1.5,1.1l-0.2-0.1l0.7-2h4.6L-2532.7-159z"/>
		</g>
	</g>
	<g transform="matrix(0.752953,0,0,0.752953,2558.53,172.929)">
	</g>
	<g transform="matrix(0.752953,0,0,0.752953,0,0)">
	</g>
	<g transform="matrix(0.752953,0,0,0.752953,190.497,78.7628)">
	</g>
	<g transform="matrix(0.752953,0,0,0.752953,190.497,78.7628)">
		<g class="st2">
			<path d="M-180.4-61.7h-5.3l-0.6,1.5c-0.2,0.5-0.3,0.9-0.3,1.2c0,0.4,0.2,0.7,0.5,0.9c0.2,0.1,0.7,0.2,1.5,0.3v0.4h-5v-0.4
				c0.5-0.1,1-0.3,1.3-0.7c0.3-0.4,0.8-1.1,1.3-2.2l5.3-11.9h0.2l5.4,12.2c0.5,1.2,0.9,1.9,1.3,2.2c0.2,0.2,0.6,0.4,1.1,0.4v0.4
				h-7.2v-0.4h0.3c0.6,0,1-0.1,1.2-0.2c0.2-0.1,0.2-0.3,0.2-0.5c0-0.1,0-0.3-0.1-0.4c0-0.1-0.1-0.3-0.3-0.8L-180.4-61.7z
				 M-180.8-62.5l-2.2-5.1l-2.3,5.1H-180.8z"/>
		</g>
	</g>
	<g transform="matrix(0.752953,0,0,0.752953,190.497,78.7628)">
	</g>
	<g transform="matrix(0.752953,0,0,0.752953,0,0)">
	</g>
	<g transform="matrix(0.752953,0,0,0.752953,0,0)">
		<rect x="59.2" y="25.8" class="st3" width="24.2" height="26.5"/>
	</g>
	<g transform="matrix(0.752953,0,0,0.752953,0,0)">
		<line vector-effect="none" class="st1" x1="198.5" y1="195.5" x2="198.5" y2="227.5"/>
	</g>
	<g transform="matrix(0.752953,0,0,0.752953,0,0)">
		<line vector-effect="none" class="st1" x1="363.2" y1="195.5" x2="363.2" y2="227.5"/>
	</g>
	<g transform="matrix(0.752953,0,0,0.752953,0,0)">
		<line vector-effect="none" class="st1" x1="528.2" y1="195.5" x2="528.2" y2="227.5"/>
	</g>
	<g transform="matrix(0.752953,0,0,0.752953,0,0)">
		<line vector-effect="none" class="st1" x1="704.5" y1="195.5" x2="704.5" y2="227.5"/>
	</g>
	<g transform="matrix(0.752953,0,0,0.752953,0,0)">
		<line vector-effect="none" class="st0" x1="710" y1="195.5" x2="710" y2="227.5"/>
	</g>
	<g transform="matrix(0.752953,0,0,0.752953,0,0)">
		<g class="st2">
			<path d="M700.8,207.5c0,0.7-0.7,1.4-1.5,1.4c-0.7,0-1.5-0.7-1.5-1.4c0-0.9,0.7-1.5,1.5-1.5C700.1,206,700.8,206.6,700.8,207.5z"
				/>
		</g>
	</g>
	<g transform="matrix(0.752953,0,0,0.752953,0,0)">
		<g class="st2">
			<path d="M700.8,215.5c0,0.7-0.7,1.4-1.5,1.4c-0.7,0-1.5-0.7-1.5-1.4c0-0.9,0.7-1.5,1.5-1.5C700.1,214,700.8,214.6,700.8,215.5z"
				/>
		</g>
	</g>
	<g transform="matrix(0.752953,0,0,0.752953,0,0)">
		<line vector-effect="none" class="st1" x1="828.8" y1="195.5" x2="828.8" y2="227.5"/>
	</g>
	<g transform="matrix(0.752953,0,0,0.752953,0,0)">
		<line vector-effect="none" class="st1" x1="951.5" y1="195.5" x2="951.5" y2="227.5"/>
	</g>
	<g transform="matrix(0.752953,0,0,0.752953,0,0)">
		<line vector-effect="none" class="st1" x1="955.8" y1="195.5" x2="955.8" y2="227.5"/>
	</g>
	<g transform="matrix(0.752953,0,0,0.752953,0,0)">
	</g>
	<g transform="matrix(0.752953,0,0,0.752953,110.684,474.863)">
	</g>
	<g transform="matrix(0.752953,0,0,0.752953,110.684,474.863)">
		<g class="st2">
			<path d="M-102.1-455.2v-0.4c0.8,0,1.2-0.2,1.2-0.7c0-0.5-0.5-1.7-0.9-2.7h-4.7c-0.5,1-1,2.3-1,2.7c0,0.4,0.4,0.7,1.2,0.7v0.4
				h-3.6v-0.4c0.7-0.1,1.2-0.4,1.6-1.2l4.4-10.4h0.5l4.1,9.8c0.7,1.6,0.9,1.7,1.7,1.8v0.4H-102.1z M-106.2-459.8h4l-2.1-4.7
				L-106.2-459.8z"/>
			<path d="M-88.6-455.2v-0.3c0.7,0,1-0.2,1-1.2v-3.7c0-0.9-0.4-1.3-1.2-1.3c-0.6,0-1.3,0.3-1.8,1c0.1,0.1,0.1,0.5,0.1,1.1v1.6
				c0,0.8,0,1.2,0,1.2c0,1.1,0.2,1.3,1,1.3v0.3h-3.4v-0.3c0.7,0,1-0.2,1-1.2v-3.7c0-0.9-0.4-1.3-1.1-1.3c-0.6,0-1.2,0.3-1.8,1v4.1
				c0,0.9,0.3,1.1,1,1.1v0.3h-3.4v-0.3c0.9,0,1-0.3,1-1.3v-4c0-0.4-0.1-0.6-0.3-0.6h-0.8v-0.3l2.4-0.8v1.3c0.7-0.9,1.5-1.3,2.5-1.3
				c0.9,0,1.4,0.4,1.6,1.3c0.8-0.9,1.7-1.3,2.7-1.3c0.5,0,0.9,0.1,1.2,0.4c0.3,0.3,0.6,1.3,0.6,1.8v3.6c0,1.1,0.2,1.3,1,1.3v0.3
				H-88.6z"/>
			<path d="M-82.2-459.8H-83l2.4-7.4h-2.5c-0.7,0-1.2,0.4-1.5,1.1l-0.2-0.1l0.7-2h4.6L-82.2-459.8z"/>
		</g>
	</g>
	<g transform="matrix(0.752953,0,0,0.752953,110.684,474.863)">
	</g>
	<g transform="matrix(0.752953,0,0,0.752953,0,0)">
	</g>
	<g transform="matrix(0.752953,0,0,0.752953,359.911,474.863)">
	</g>
	<g transform="matrix(0.752953,0,0,0.752953,359.911,474.863)">
		<g class="st2">
			<path d="M-353.2-455.2h-5v-0.4c1.5,0,1.6-0.3,1.6-1.7v-7.5c0-1.4-0.1-1.7-1.6-1.7v-0.4h5.6c0.8,0,1.7,0.2,2.6,0.5
				c2.5,0.9,3.7,2.7,3.7,5.4C-346.3-457.3-348.9-455.2-353.2-455.2z M-353.4-466.3c-1.4,0-1.4,0.2-1.4,1.6v7.1c0,1.4,0,1.6,1.5,1.6
				c3.3,0,5.1-1.8,5.1-5C-348.2-464.2-350.1-466.3-353.4-466.3z"/>
			<path d="M-343.1-459.8h-0.7l2.4-7.4h-2.5c-0.7,0-1.2,0.4-1.5,1.1l-0.2-0.1l0.7-2h4.6L-343.1-459.8z"/>
		</g>
	</g>
	<g transform="matrix(0.752953,0,0,0.752953,359.911,474.863)">
	</g>
	<g transform="matrix(0.752953,0,0,0.752953,0,0)">
	</g>
	<g transform="matrix(0.752953,0,0,0.752953,597.844,474.863)">
	</g>
	<g transform="matrix(0.752953,0,0,0.752953,597.844,474.863)">
		<g class="st2">
			<path d="M-587.4-455.2v-0.4c0.8,0,1.2-0.2,1.2-0.7c0-0.5-0.5-1.7-0.9-2.7h-4.7c-0.5,1-1,2.3-1,2.7c0,0.4,0.4,0.7,1.2,0.7v0.4
				h-3.6v-0.4c0.7-0.1,1.2-0.4,1.6-1.2l4.4-10.4h0.5l4.1,9.8c0.7,1.6,0.9,1.7,1.7,1.8v0.4H-587.4z M-591.4-459.8h4l-2.1-4.7
				L-591.4-459.8z"/>
			<path d="M-581.8-467.9h0.8l-0.1,6.4c0.9-1,1.1-1.1,1.9-1.1c1.3,0,2.2,0.9,2.2,2.3c0,2-2,2.8-3.6,4.1l-1.2,1V-467.9z M-581-460.6
				c-0.1,1.3-0.1,2.1-0.1,2.5c0,0.6,0.1,1.2,0.2,1.5c1.7-1.3,2.5-2.6,2.5-3.7c0-0.9-0.5-1.6-1.3-1.6
				C-580.4-461.8-580.6-461.1-581-460.6z"/>
			<path d="M-567.5-455.2v-0.3c0.7,0,1-0.2,1-1.2v-3.7c0-0.9-0.4-1.3-1.2-1.3c-0.6,0-1.3,0.3-1.8,1c0.1,0.1,0.1,0.5,0.1,1.1v1.6
				c0,0.8,0,1.2,0,1.2c0,1.1,0.2,1.3,1,1.3v0.3h-3.4v-0.3c0.7,0,1-0.2,1-1.2v-3.7c0-0.9-0.4-1.3-1.1-1.3c-0.6,0-1.2,0.3-1.8,1v4.1
				c0,0.9,0.3,1.1,1,1.1v0.3h-3.4v-0.3c0.9,0,1-0.3,1-1.3v-4c0-0.4-0.1-0.6-0.3-0.6h-0.8v-0.3l2.4-0.8v1.3c0.7-0.9,1.5-1.3,2.5-1.3
				c0.9,0,1.4,0.4,1.6,1.3c0.8-0.9,1.7-1.3,2.7-1.3c0.5,0,0.9,0.1,1.2,0.4c0.3,0.3,0.6,1.3,0.6,1.8v3.6c0,1.1,0.2,1.3,1,1.3v0.3
				H-567.5z"/>
			<path d="M-561.1-459.8h-0.7l2.4-7.4h-2.5c-0.7,0-1.2,0.4-1.5,1.1l-0.2-0.1l0.7-2h4.6L-561.1-459.8z"/>
		</g>
	</g>
	<g transform="matrix(0.752953,0,0,0.752953,597.844,474.863)">
	</g>
	<g transform="matrix(0.752953,0,0,0.752953,0,0)">
	</g>
	<g transform="matrix(0.752953,0,0,0.752953,846.319,474.863)">
	</g>
	<g transform="matrix(0.752953,0,0,0.752953,846.319,474.863)">
		<g class="st2">
			<path d="M-837.7-455.2h-5v-0.4c1.5,0,1.6-0.3,1.6-1.7v-7.5c0-1.4-0.1-1.7-1.6-1.7v-0.4h5.6c0.8,0,1.7,0.2,2.6,0.5
				c2.5,0.9,3.7,2.7,3.7,5.4C-830.8-457.3-833.4-455.2-837.7-455.2z M-837.9-466.3c-1.4,0-1.4,0.2-1.4,1.6v7.1c0,1.4,0,1.6,1.5,1.6
				c3.3,0,5.1-1.8,5.1-5C-832.7-464.2-834.6-466.3-837.9-466.3z"/>
			<path d="M-829.6-467.9h0.8l-0.1,6.4c0.9-1,1.1-1.1,1.9-1.1c1.3,0,2.2,0.9,2.2,2.3c0,2-2,2.8-3.6,4.1l-1.2,1V-467.9z
				 M-828.8-460.6c-0.1,1.3-0.1,2.1-0.1,2.5c0,0.6,0.1,1.2,0.2,1.5c1.7-1.3,2.5-2.6,2.5-3.7c0-0.9-0.5-1.6-1.3-1.6
				C-828.2-461.8-828.5-461.1-828.8-460.6z"/>
			<path d="M-821.2-459.8h-0.7l2.4-7.4h-2.5c-0.7,0-1.2,0.4-1.5,1.1l-0.2-0.1l0.7-2h4.6L-821.2-459.8z"/>
		</g>
	</g>
	<g transform="matrix(0.752953,0,0,0.752953,846.319,474.863)">
	</g>
	<g transform="matrix(0.752953,0,0,0.752953,0,0)">
	</g>
	<g transform="matrix(0.752953,0,0,0.752953,1088.02,474.863)">
	</g>
	<g transform="matrix(0.752953,0,0,0.752953,1088.02,474.863)">
		<g class="st2">
			<path d="M-1077.2-454.9c-3.5,0-5.9-2.4-5.9-5.9c0-3.4,2.5-6.4,6-6.4c1.2,0,3.2,0.7,3.4,0.7c0.3,0,0.5-0.2,0.7-0.7h0.6v4.2h-0.5
				c-0.4-2.1-1.8-3.4-3.9-3.4c-2.7,0-4.3,2.2-4.3,5.4c0,3.2,1.7,5.3,4.4,5.3c1.6,0,2.9-0.6,4-1.9l0.3,0.5
				C-1073.6-455.7-1075.2-454.9-1077.2-454.9z"/>
			<path d="M-1062.6-459.8v-0.3c0.7,0,1-0.2,1-1.2v-3.7c0-0.9-0.4-1.3-1.2-1.3c-0.6,0-1.3,0.3-1.8,1c0.1,0.1,0.1,0.5,0.1,1.1v1.6
				c0,0.8,0,1.2,0,1.2c0,1.1,0.2,1.3,1,1.3v0.3h-3.4v-0.3c0.7,0,1-0.2,1-1.2v-3.7c0-0.9-0.4-1.3-1.1-1.3c-0.6,0-1.2,0.3-1.8,1v4.1
				c0,0.9,0.3,1.1,1,1.1v0.3h-3.4v-0.3c0.9,0,1-0.3,1-1.3v-4c0-0.4-0.1-0.6-0.3-0.6h-0.8v-0.3l2.4-0.8v1.3c0.7-0.9,1.5-1.3,2.5-1.3
				c0.9,0,1.4,0.4,1.6,1.3c0.8-0.9,1.7-1.3,2.7-1.3c0.5,0,0.9,0.1,1.2,0.4c0.3,0.3,0.6,1.3,0.6,1.8v3.5c0,1.1,0.2,1.3,1,1.3v0.3
				H-1062.6z"/>
			<path d="M-1052.3-460.5c-0.5,0.6-1,0.9-1.5,0.9c-0.6,0-0.9-0.4-1-1.2c-1,0.8-1.8,1.2-2.5,1.2c-0.9,0-1.5-0.9-1.5-1.7
				c0-1.4,0.9-2.2,3.9-3.1v-1c0-0.9-0.4-1.3-1.2-1.3c-0.5,0-1.1,0.3-1.1,0.8c0,0.1,0.1,0.5,0.1,0.6c0,0.4-0.4,0.7-0.7,0.7
				c-0.4,0-0.6-0.2-0.6-0.7c0-1,1.4-1.8,2.6-1.8c1.4,0,2.3,0.8,2.3,2.3v3.6c0,0.4,0.1,0.6,0.4,0.6c0.2,0,0.5-0.1,0.8-0.4V-460.5z
				 M-1054.8-464c-0.9,0.3-1.5,0.5-1.7,0.6c-0.5,0.3-0.8,0.8-0.8,1.5c0,0.7,0.4,1.3,1,1.3c0.4,0,0.9-0.2,1.5-0.6V-464z"/>
			<path d="M-1051.5-466.4l2.6-0.9v6.8c0,2.7-0.9,4-2.6,4c-0.8,0-1.5-0.3-1.5-1c0-0.4,0.2-0.6,0.5-0.6c0.4,0,1.2,1,1.6,1
				c0.4,0,0.6-0.6,0.6-1.8v-6.2c0-0.6-0.2-1-0.5-1c-0.1,0-0.4,0-0.7,0.1V-466.4z M-1049.7-469.3c-0.4,0-0.8-0.4-0.8-0.8
				c0-0.4,0.4-0.8,0.8-0.8c0.4,0,0.8,0.4,0.8,0.8C-1048.8-469.7-1049.2-469.3-1049.7-469.3z"/>
			<path d="M-1045.3-459.8h-0.7l2.4-7.4h-2.5c-0.7,0-1.2,0.4-1.5,1.1l-0.2-0.1l0.7-2h4.6L-1045.3-459.8z"/>
		</g>
	</g>
	<g transform="matrix(0.752953,0,0,0.752953,1088.02,474.863)">
	</g>
	<g transform="matrix(0.752953,0,0,0.752953,0,0)">
	</g>
	<g transform="matrix(0.752953,0,0,0.752953,1334.23,474.863)">
	</g>
	<g transform="matrix(0.752953,0,0,0.752953,1334.23,474.863)">
		<g class="st2">
			<path d="M-1323.7-455.2h-5v-0.4c1.5,0,1.6-0.3,1.6-1.7v-7.5c0-1.4-0.1-1.7-1.6-1.7v-0.4h5.6c0.8,0,1.7,0.2,2.6,0.5
				c2.5,0.9,3.7,2.7,3.7,5.4C-1316.8-457.3-1319.4-455.2-1323.7-455.2z M-1323.9-466.3c-1.4,0-1.4,0.2-1.4,1.6v7.1
				c0,1.4,0,1.6,1.5,1.6c3.3,0,5.1-1.8,5.1-5C-1318.7-464.2-1320.6-466.3-1323.9-466.3z"/>
			<path d="M-1307.7-455.2v-0.3c0.7,0,1-0.2,1-1.2v-3.7c0-0.9-0.4-1.3-1.2-1.3c-0.6,0-1.3,0.3-1.8,1c0.1,0.1,0.1,0.5,0.1,1.1v1.6
				c0,0.8,0,1.2,0,1.2c0,1.1,0.2,1.3,1,1.3v0.3h-3.4v-0.3c0.7,0,1-0.2,1-1.2v-3.7c0-0.9-0.4-1.3-1.1-1.3c-0.6,0-1.2,0.3-1.8,1v4.1
				c0,0.9,0.3,1.1,1,1.1v0.3h-3.4v-0.3c0.9,0,1-0.3,1-1.3v-4c0-0.4-0.1-0.6-0.3-0.6h-0.8v-0.3l2.4-0.8v1.3c0.7-0.9,1.5-1.3,2.5-1.3
				c0.9,0,1.4,0.4,1.6,1.3c0.8-0.9,1.7-1.3,2.7-1.3c0.5,0,0.9,0.1,1.2,0.4c0.3,0.3,0.6,1.3,0.6,1.8v3.6c0,1.1,0.2,1.3,1,1.3v0.3
				H-1307.7z"/>
			<path d="M-1301.3-459.8h-0.7l2.4-7.4h-2.5c-0.7,0-1.2,0.4-1.5,1.1l-0.2-0.1l0.7-2h4.6L-1301.3-459.8z"/>
		</g>
	</g>
	<g transform="matrix(0.752953,0,0,0.752953,1334.23,474.863)">
	</g>
	<g transform="matrix(0.752953,0,0,0.752953,0,0)">
	</g>
	<g transform="matrix(0.752953,0,0,0.752953,1603.04,474.863)">
	</g>
	<g transform="matrix(0.752953,0,0,0.752953,1603.04,474.863)">
		<g class="st2">
			<path d="M-1586.8-455.2h-9.7v-0.4c1.5,0,1.6-0.3,1.6-1.7v-7.5c0-1.4-0.1-1.7-1.6-1.7v-0.4h9.6v2.7h-0.4c-0.1-1.2-0.7-1.8-1.7-1.8
				h-3.1c-0.8,0-1,0.4-1,1.2v3.3h3.1c1,0,1.7-0.7,1.7-1.7h0.4v4.2h-0.4c0-1-0.7-1.7-1.7-1.7h-3.1v3.7c0,0.8,0.2,1.2,1,1.2h3
				c1.2,0,2.3-1,2.6-2.2h0.5L-1586.8-455.2z"/>
			<path d="M-1576.8-455.2v-0.3c0.7,0,1-0.2,1-1.2v-3.7c0-0.9-0.4-1.3-1.2-1.3c-0.6,0-1.3,0.3-1.8,1c0.1,0.1,0.1,0.5,0.1,1.1v1.6
				c0,0.8,0,1.2,0,1.2c0,1.1,0.2,1.3,1,1.3v0.3h-3.4v-0.3c0.7,0,1-0.2,1-1.2v-3.7c0-0.9-0.4-1.3-1.1-1.3c-0.6,0-1.2,0.3-1.8,1v4.1
				c0,0.9,0.3,1.1,1,1.1v0.3h-3.4v-0.3c0.9,0,1-0.3,1-1.3v-4c0-0.4-0.1-0.6-0.3-0.6h-0.8v-0.3l2.4-0.8v1.3c0.7-0.9,1.5-1.3,2.5-1.3
				c0.9,0,1.4,0.4,1.6,1.3c0.8-0.9,1.7-1.3,2.7-1.3c0.5,0,0.9,0.1,1.2,0.4c0.3,0.3,0.6,1.3,0.6,1.8v3.6c0,1.1,0.2,1.3,1,1.3v0.3
				H-1576.8z"/>
			<path d="M-1570.5-459.8h-0.7l2.4-7.4h-2.5c-0.7,0-1.2,0.4-1.5,1.1l-0.2-0.1l0.7-2h4.6L-1570.5-459.8z"/>
		</g>
	</g>
	<g transform="matrix(0.752953,0,0,0.752953,1603.04,474.863)">
	</g>
	<g transform="matrix(0.752953,0,0,0.752953,0,0)">
	</g>
	<g transform="matrix(0.752953,0,0,0.752953,1852.26,474.863)">
	</g>
	<g transform="matrix(0.752953,0,0,0.752953,1852.26,474.863)">
		<g class="st2">
			<path d="M-1836.9-455.2v-0.4c0.8,0,1.2-0.2,1.2-0.7c0-0.5-0.5-1.7-0.9-2.7h-4.7c-0.5,1-1,2.3-1,2.7c0,0.4,0.4,0.7,1.2,0.7v0.4
				h-3.5v-0.4c0.7-0.1,1.2-0.4,1.6-1.2l4.4-10.4h0.5l4.1,9.8c0.7,1.6,0.9,1.7,1.7,1.8v0.4H-1836.9z M-1840.9-459.8h4l-2.1-4.7
				L-1840.9-459.8z"/>
			<path d="M-1829.2-459.8h-0.7l2.4-7.4h-2.5c-0.7,0-1.2,0.4-1.5,1.1l-0.2-0.1l0.7-2h4.6L-1829.2-459.8z"/>
		</g>
	</g>
	<g transform="matrix(0.752953,0,0,0.752953,1852.26,474.863)">
	</g>
	<g transform="matrix(0.752953,0,0,0.752953,0,0)">
	</g>
	<g transform="matrix(0.752953,0,0,0.752953,2121.82,474.863)">
	</g>
	<g transform="matrix(0.752953,0,0,0.752953,2121.82,474.863)">
		<g class="st2">
			<path d="M-2107-454.9c-3.5,0-5.9-2.4-5.9-5.9c0-3.4,2.5-6.4,6-6.4c1.2,0,3.2,0.7,3.4,0.7c0.3,0,0.5-0.2,0.7-0.7h0.6v4.2h-0.5
				c-0.4-2.1-1.8-3.4-3.9-3.4c-2.7,0-4.3,2.2-4.3,5.4c0,3.2,1.7,5.3,4.4,5.3c1.6,0,2.9-0.6,4-1.9l0.3,0.5
				C-2103.3-455.7-2104.9-454.9-2107-454.9z"/>
			<path d="M-2092.4-459.8v-0.3c0.7,0,1-0.2,1-1.2v-3.7c0-0.9-0.4-1.3-1.2-1.3c-0.6,0-1.3,0.3-1.8,1c0.1,0.1,0.1,0.5,0.1,1.1v1.6
				c0,0.8,0,1.2,0,1.2c0,1.1,0.2,1.3,1,1.3v0.3h-3.4v-0.3c0.7,0,1-0.2,1-1.2v-3.7c0-0.9-0.4-1.3-1.1-1.3c-0.6,0-1.2,0.3-1.8,1v4.1
				c0,0.9,0.3,1.1,1,1.1v0.3h-3.4v-0.3c0.9,0,1-0.3,1-1.3v-4c0-0.4-0.1-0.6-0.3-0.6h-0.8v-0.3l2.4-0.8v1.3c0.7-0.9,1.5-1.3,2.5-1.3
				c0.9,0,1.4,0.4,1.6,1.3c0.8-0.9,1.7-1.3,2.7-1.3c0.5,0,0.9,0.1,1.2,0.4c0.3,0.3,0.6,1.3,0.6,1.8v3.5c0,1.1,0.2,1.3,1,1.3v0.3
				H-2092.4z"/>
			<path d="M-2082.1-460.5c-0.5,0.6-1,0.9-1.5,0.9c-0.6,0-0.9-0.4-1-1.2c-1,0.8-1.8,1.2-2.5,1.2c-0.9,0-1.5-0.9-1.5-1.7
				c0-1.4,0.9-2.2,3.9-3.1v-1c0-0.9-0.4-1.3-1.2-1.3c-0.5,0-1.1,0.3-1.1,0.8c0,0.1,0.1,0.5,0.1,0.6c0,0.4-0.4,0.7-0.7,0.7
				c-0.4,0-0.6-0.2-0.6-0.7c0-1,1.4-1.8,2.6-1.8c1.4,0,2.3,0.8,2.3,2.3v3.6c0,0.4,0.1,0.6,0.4,0.6c0.2,0,0.5-0.1,0.8-0.4V-460.5z
				 M-2084.6-464c-0.9,0.3-1.5,0.5-1.7,0.6c-0.5,0.3-0.8,0.8-0.8,1.5c0,0.7,0.4,1.3,1,1.3c0.4,0,0.9-0.2,1.5-0.6V-464z"/>
			<path d="M-2081.3-466.4l2.6-0.9v6.8c0,2.7-0.9,4-2.6,4c-0.8,0-1.5-0.3-1.5-1c0-0.4,0.2-0.6,0.6-0.6c0.4,0,1.2,1,1.6,1
				c0.4,0,0.6-0.6,0.6-1.8v-6.2c0-0.6-0.2-1-0.5-1c-0.1,0-0.4,0-0.7,0.1V-466.4z M-2079.4-469.3c-0.4,0-0.8-0.4-0.8-0.8
				c0-0.4,0.4-0.8,0.8-0.8c0.4,0,0.8,0.4,0.8,0.8C-2078.6-469.7-2079-469.3-2079.4-469.3z"/>
			<path d="M-2075.1-459.8h-0.7l2.4-7.4h-2.5c-0.7,0-1.2,0.4-1.5,1.1l-0.2-0.1l0.7-2h4.6L-2075.1-459.8z"/>
		</g>
	</g>
	<g transform="matrix(0.752953,0,0,0.752953,2121.82,474.863)">
	</g>
	<g transform="matrix(0.752953,0,0,0.752953,0,0)">
	</g>
	<g transform="matrix(0.752953,0,0,0.752953,0,0)">
		<path vector-effect="none" class="st4" d="M732.5,185.5c9.2-13,106-13,115.2,0"/>
	</g>
	<g transform="matrix(0.752953,0,0,0.752953,0,0)">
		<path vector-effect="none" class="st5" d="M732.5,185.5c9.2-14.2,106-14.2,115.2,0C838.5,173.8,741.8,173.8,732.5,185.5"/>
	</g>
	<g transform="matrix(0.752953,0,0,0.752953,0,0)">
		<line vector-effect="none" class="st1" x1="363.8" y1="134.8" x2="363.8" y2="155.2"/>
	</g>
	<g transform="matrix(0.752953,0,0,0.752953,0,0)">
	</g>
	<g transform="matrix(0.752953,0,0,0.752953,1107.59,411.333)">
	</g>
	<g transform="matrix(0.752953,0,0,0.752953,1107.59,411.333)">
		<g class="st2">
			<path d="M-1101.2-403.7l2.9-1.4h0.3v9.9c0,0.7,0,1.1,0.1,1.2c0.1,0.2,0.2,0.3,0.3,0.4c0.2,0.1,0.5,0.1,1.1,0.1v0.3h-4.4v-0.3
				c0.6,0,0.9-0.1,1.1-0.1c0.2-0.1,0.3-0.2,0.3-0.3c0.1-0.1,0.1-0.6,0.1-1.3v-6.3c0-0.9,0-1.4-0.1-1.6c0-0.2-0.1-0.3-0.2-0.4
				c-0.1-0.1-0.2-0.1-0.4-0.1c-0.2,0-0.5,0.1-0.9,0.3L-1101.2-403.7z"/>
			<path d="M-1092.2-394.8c0.3,0,0.5,0.1,0.7,0.3c0.2,0.2,0.3,0.4,0.3,0.7c0,0.3-0.1,0.5-0.3,0.7c-0.2,0.2-0.4,0.3-0.7,0.3
				s-0.5-0.1-0.7-0.3c-0.2-0.2-0.3-0.4-0.3-0.7c0-0.3,0.1-0.5,0.3-0.7C-1092.6-394.7-1092.4-394.8-1092.2-394.8z"/>
		</g>
	</g>
	<g transform="matrix(0.752953,0,0,0.752953,1107.59,411.333)">
	</g>
	<g transform="matrix(0.752953,0,0,0.752953,0,0)">
	</g>
	<g transform="matrix(0.752953,0,0,0.752953,0,0)">
		<line vector-effect="none" class="st1" x1="704.5" y1="134.8" x2="704.5" y2="155.2"/>
	</g>
	<g transform="matrix(0.752953,0,0,0.752953,0,0)">
		<line vector-effect="none" class="st1" x1="363.8" y1="135.2" x2="704.5" y2="135.2"/>
	</g>
	<g transform="matrix(0.752953,0,0,0.752953,0,0)">
		<line vector-effect="none" class="st1" x1="712" y1="134.8" x2="712" y2="155.2"/>
	</g>
	<g transform="matrix(0.752953,0,0,0.752953,0,0)">
	</g>
	<g transform="matrix(0.752953,0,0,0.752953,2156.46,411.333)">
	</g>
	<g transform="matrix(0.752953,0,0,0.752953,2156.46,411.333)">
		<g class="st2">
			<path d="M-2139.9-395.4l-0.8,2.3h-6.9v-0.3c2-1.9,3.5-3.4,4.3-4.6c0.8-1.2,1.2-2.3,1.2-3.2c0-0.7-0.2-1.4-0.7-1.8
				c-0.5-0.5-1-0.7-1.6-0.7c-0.6,0-1.1,0.2-1.6,0.5c-0.5,0.3-0.8,0.8-1,1.5h-0.3c0.1-1.1,0.5-1.9,1.1-2.5s1.3-0.9,2.2-0.9
				c1,0,1.7,0.3,2.4,0.9c0.6,0.6,1,1.3,1,2.2c0,0.6-0.1,1.2-0.4,1.8c-0.4,0.9-1.1,1.9-2.1,3c-1.4,1.6-2.3,2.5-2.7,2.8h3.1
				c0.6,0,1.1,0,1.3-0.1c0.3,0,0.5-0.1,0.7-0.3c0.2-0.1,0.4-0.3,0.5-0.6H-2139.9z"/>
			<path d="M-2136.9-394.8c0.3,0,0.5,0.1,0.7,0.3c0.2,0.2,0.3,0.4,0.3,0.7c0,0.3-0.1,0.5-0.3,0.7c-0.2,0.2-0.4,0.3-0.7,0.3
				s-0.5-0.1-0.7-0.3c-0.2-0.2-0.3-0.4-0.3-0.7c0-0.3,0.1-0.5,0.3-0.7C-2137.4-394.7-2137.2-394.8-2136.9-394.8z"/>
		</g>
	</g>
	<g transform="matrix(0.752953,0,0,0.752953,2156.46,411.333)">
	</g>
	<g transform="matrix(0.752953,0,0,0.752953,0,0)">
	</g>
	<g transform="matrix(0.752953,0,0,0.752953,0,0)">
		<line vector-effect="none" class="st1" x1="712" y1="135.2" x2="829" y2="135.2"/>
	</g>
	<g transform="matrix(0.752953,0,0,0.752953,0,0)">
		<line vector-effect="none" class="st1" x1="203.5" y1="304.8" x2="203.5" y2="336.8"/>
	</g>
	<g transform="matrix(0.752953,0,0,0.752953,0,0)">
		<line vector-effect="none" class="st1" x1="373.8" y1="304.8" x2="373.8" y2="336.8"/>
	</g>
	<g transform="matrix(0.752953,0,0,0.752953,0,0)">
		<line vector-effect="none" class="st1" x1="494.8" y1="304.8" x2="494.8" y2="336.8"/>
	</g>
	<g transform="matrix(0.752953,0,0,0.752953,0,0)">
		<line vector-effect="none" class="st1" x1="615.5" y1="304.8" x2="615.5" y2="336.8"/>
	</g>
	<g transform="matrix(0.752953,0,0,0.752953,0,0)">
		<line vector-effect="none" class="st1" x1="785.8" y1="304.8" x2="785.8" y2="336.8"/>
	</g>
	<g transform="matrix(0.752953,0,0,0.752953,0,0)">
		<line vector-effect="none" class="st1" x1="955.8" y1="304.8" x2="955.8" y2="336.8"/>
	</g>
	<g transform="matrix(0.752953,0,0,0.752953,0,0)">
	</g>
	<g transform="matrix(0.752953,0,0,0.752953,110.684,803.903)">
	</g>
	<g transform="matrix(0.752953,0,0,0.752953,110.684,803.903)">
		<g class="st2">
			<path d="M-99-791.2h-0.3c-0.7-2.1-2-3.1-3.9-3.1c-2.7,0-4.4,2.2-4.4,5.4c0,3.2,1.9,5.8,4.5,5.8c0.9,0,1.7-0.2,2.4-0.6v-3.4
				c0-1.3-0.2-1.7-1.5-1.7v-0.4h4.5v0.4c-1.2,0-1.3,0.5-1.3,1.7v3.6c-1.3,0.7-2.6,1-4.1,1c-3.7,0-6.5-2.3-6.5-5.9
				c0-3.4,2.6-6.4,6.2-6.4c0.7,0,1.6,0.2,2.7,0.6c0.3,0.1,0.6,0.2,0.6,0.2c0.3,0,0.4-0.2,0.4-0.7h0.3L-99-791.2z"/>
			<path d="M-88.6-782.9v-0.3c0.7,0,1-0.2,1-1.2v-3.7c0-0.9-0.4-1.3-1.2-1.3c-0.6,0-1.3,0.3-1.8,1c0.1,0.1,0.1,0.5,0.1,1.1v1.6
				c0,0.8,0,1.2,0,1.2c0,1.1,0.2,1.3,1,1.3v0.3h-3.4v-0.3c0.7,0,1-0.2,1-1.2v-3.7c0-0.9-0.4-1.3-1.1-1.3c-0.6,0-1.2,0.3-1.8,1v4.1
				c0,0.9,0.3,1.1,1,1.1v0.3h-3.4v-0.3c0.9,0,1-0.3,1-1.3v-4c0-0.4-0.1-0.6-0.3-0.6h-0.8v-0.3l2.4-0.8v1.3c0.7-0.9,1.5-1.3,2.5-1.3
				c0.9,0,1.4,0.4,1.6,1.3c0.8-0.9,1.7-1.3,2.7-1.3c0.5,0,0.9,0.1,1.2,0.4c0.3,0.3,0.6,1.3,0.6,1.8v3.6c0,1.1,0.2,1.3,1,1.3v0.3
				H-88.6z"/>
			<path d="M-82.2-787.5H-83l2.4-7.4h-2.5c-0.7,0-1.2,0.4-1.5,1.1l-0.2-0.1l0.7-2h4.6L-82.2-787.5z"/>
		</g>
	</g>
	<g transform="matrix(0.752953,0,0,0.752953,110.684,803.903)">
	</g>
	<g transform="matrix(0.752953,0,0,0.752953,0,0)">
	</g>
	<g transform="matrix(0.752953,0,0,0.752953,367.441,803.903)">
	</g>
	<g transform="matrix(0.752953,0,0,0.752953,367.441,803.903)">
		<g class="st2">
			<path d="M-359.5-782.7c-3.5,0-5.9-2.4-5.9-5.9c0-3.4,2.5-6.4,6-6.4c1.2,0,3.2,0.7,3.4,0.7c0.3,0,0.5-0.2,0.7-0.7h0.6v4.2h-0.5
				c-0.4-2.1-1.8-3.4-3.9-3.4c-2.7,0-4.3,2.2-4.3,5.4c0,3.2,1.7,5.3,4.4,5.3c1.6,0,2.9-0.6,4-1.9l0.3,0.5
				C-355.8-783.4-357.4-782.7-359.5-782.7z"/>
			<path d="M-350.8-787.5h-0.7l2.4-7.4h-2.5c-0.7,0-1.2,0.4-1.5,1.1l-0.2-0.1l0.7-2h4.6L-350.8-787.5z"/>
		</g>
	</g>
	<g transform="matrix(0.752953,0,0,0.752953,367.441,803.903)">
	</g>
	<g transform="matrix(0.752953,0,0,0.752953,0,0)">
	</g>
	<g transform="matrix(0.752953,0,0,0.752953,622.692,803.903)">
	</g>
	<g transform="matrix(0.752953,0,0,0.752953,622.692,803.903)">
		<g class="st2">
			<path d="M-609-791.2h-0.3c-0.7-2.1-2-3.1-3.9-3.1c-2.7,0-4.4,2.2-4.4,5.4c0,3.2,1.9,5.8,4.5,5.8c0.9,0,1.7-0.2,2.4-0.6v-3.4
				c0-1.3-0.2-1.7-1.5-1.7v-0.4h4.5v0.4c-1.2,0-1.3,0.5-1.3,1.7v3.6c-1.3,0.7-2.6,1-4.1,1c-3.7,0-6.5-2.3-6.5-5.9
				c0-3.4,2.6-6.4,6.2-6.4c0.7,0,1.6,0.2,2.7,0.6c0.3,0.1,0.6,0.2,0.6,0.2c0.3,0,0.4-0.2,0.4-0.7h0.3L-609-791.2z"/>
			<path d="M-598.6-782.9v-0.3c0.7,0,1-0.2,1-1.2v-3.7c0-0.9-0.4-1.3-1.2-1.3c-0.6,0-1.3,0.3-1.8,1c0.1,0.1,0.1,0.5,0.1,1.1v1.6
				c0,0.8,0,1.2,0,1.2c0,1.1,0.2,1.3,1,1.3v0.3h-3.4v-0.3c0.7,0,1-0.2,1-1.2v-3.7c0-0.9-0.4-1.3-1.1-1.3c-0.6,0-1.2,0.3-1.8,1v4.1
				c0,0.9,0.3,1.1,1,1.1v0.3h-3.4v-0.3c0.9,0,1-0.3,1-1.3v-4c0-0.4-0.1-0.6-0.3-0.6h-0.8v-0.3l2.4-0.8v1.3c0.7-0.9,1.5-1.3,2.5-1.3
				c0.9,0,1.4,0.4,1.6,1.3c0.8-0.9,1.7-1.3,2.7-1.3c0.5,0,0.9,0.1,1.2,0.4c0.3,0.3,0.6,1.3,0.6,1.8v3.6c0,1.1,0.2,1.3,1,1.3v0.3
				H-598.6z"/>
			<path d="M-592.2-787.5h-0.7l2.4-7.4h-2.5c-0.7,0-1.2,0.4-1.5,1.1l-0.2-0.1l0.7-2h4.6L-592.2-787.5z"/>
		</g>
	</g>
	<g transform="matrix(0.752953,0,0,0.752953,622.692,803.903)">
	</g>
	<g transform="matrix(0.752953,0,0,0.752953,0,0)">
	</g>
	<g transform="matrix(0.752953,0,0,0.752953,879.449,803.903)">
	</g>
	<g transform="matrix(0.752953,0,0,0.752953,879.449,803.903)">
		<g class="st2">
			<path d="M-869.5-782.7c-3.5,0-5.9-2.4-5.9-5.9c0-3.4,2.5-6.4,6-6.4c1.2,0,3.2,0.7,3.4,0.7c0.3,0,0.5-0.2,0.7-0.7h0.6v4.2h-0.5
				c-0.4-2.1-1.8-3.4-3.9-3.4c-2.7,0-4.3,2.2-4.3,5.4c0,3.2,1.7,5.3,4.4,5.3c1.6,0,2.9-0.6,4-1.9l0.3,0.5
				C-865.8-783.4-867.4-782.7-869.5-782.7z"/>
			<path d="M-860.8-787.5h-0.7l2.4-7.4h-2.5c-0.7,0-1.2,0.4-1.5,1.1l-0.2-0.1l0.7-2h4.6L-860.8-787.5z"/>
		</g>
	</g>
	<g transform="matrix(0.752953,0,0,0.752953,879.449,803.903)">
	</g>
	<g transform="matrix(0.752953,0,0,0.752953,0,0)">
	</g>
	<g transform="matrix(0.752953,0,0,0.752953,1122.65,803.903)">
	</g>
	<g transform="matrix(0.752953,0,0,0.752953,1122.65,803.903)">
		<g class="st2">
			<path d="M-1114.6-789.4h2.2c1.1,0,1.4-0.5,1.5-1.6h0.3v4h-0.3c0-1.2-0.4-1.7-1.5-1.7h-2.2v3.7c0,1.5,0.2,1.8,1.7,1.8v0.3h-5v-0.3
				c1.5,0,1.7-0.3,1.7-1.8v-7.6c0-1.5-0.2-1.8-1.7-1.8v-0.3h8.9v2.6h-0.3c-0.4-1.6-1-2-2.6-2h-2.6V-789.4z"/>
			<path d="M-1099.2-787.5v-0.3c0.7,0,1-0.2,1-1.2v-3.7c0-0.9-0.4-1.3-1.2-1.3c-0.6,0-1.3,0.3-1.8,1c0.1,0.1,0.1,0.5,0.1,1.1v1.6
				c0,0.8,0,1.2,0,1.2c0,1.1,0.2,1.3,1,1.3v0.3h-3.4v-0.3c0.7,0,1-0.2,1-1.2v-3.7c0-0.9-0.4-1.3-1.1-1.3c-0.6,0-1.2,0.3-1.8,1v4.1
				c0,0.9,0.3,1.1,1,1.1v0.3h-3.4v-0.3c0.9,0,1-0.3,1-1.3v-4c0-0.4-0.1-0.6-0.3-0.6h-0.8v-0.3l2.4-0.8v1.3c0.7-0.9,1.5-1.3,2.5-1.3
				c0.9,0,1.4,0.4,1.6,1.3c0.8-0.9,1.7-1.3,2.7-1.3c0.5,0,0.9,0.1,1.2,0.4c0.3,0.3,0.6,1.3,0.6,1.8v3.5c0,1.1,0.2,1.3,1,1.3v0.3
				H-1099.2z"/>
			<path d="M-1088.9-788.3c-0.5,0.6-1,0.9-1.5,0.9c-0.6,0-0.9-0.4-1-1.2c-1,0.8-1.8,1.2-2.5,1.2c-0.9,0-1.5-0.9-1.5-1.7
				c0-1.4,0.9-2.2,3.9-3.1v-1c0-0.9-0.4-1.4-1.2-1.4c-0.5,0-1.1,0.3-1.1,0.8c0,0.1,0.1,0.5,0.1,0.6c0,0.4-0.4,0.7-0.7,0.7
				c-0.4,0-0.6-0.2-0.6-0.7c0-1,1.4-1.8,2.6-1.8c1.4,0,2.3,0.8,2.3,2.3v3.6c0,0.4,0.1,0.6,0.4,0.6c0.2,0,0.5-0.1,0.8-0.4V-788.3z
				 M-1091.5-791.7c-0.9,0.3-1.5,0.5-1.7,0.6c-0.5,0.3-0.8,0.8-0.8,1.5c0,0.7,0.4,1.3,1,1.3c0.4,0,0.9-0.2,1.5-0.6V-791.7z"/>
			<path d="M-1088.2-794.1l2.6-0.9v6.8c0,2.7-0.9,4-2.6,4c-0.8,0-1.5-0.3-1.5-1c0-0.4,0.2-0.6,0.5-0.6c0.4,0,1.2,1,1.6,1
				c0.4,0,0.6-0.6,0.6-1.8v-6.2c0-0.6-0.2-1-0.5-1c-0.1,0-0.4,0-0.7,0.1V-794.1z M-1086.3-797c-0.4,0-0.8-0.4-0.8-0.8
				c0-0.4,0.4-0.8,0.8-0.8c0.4,0,0.8,0.4,0.8,0.8C-1085.4-797.4-1085.8-797-1086.3-797z"/>
			<path d="M-1081.9-787.5h-0.7l2.4-7.4h-2.5c-0.7,0-1.2,0.4-1.5,1.1l-0.2-0.1l0.7-2h4.6L-1081.9-787.5z"/>
		</g>
	</g>
	<g transform="matrix(0.752953,0,0,0.752953,1122.65,803.903)">
	</g>
	<g transform="matrix(0.752953,0,0,0.752953,0,0)">
	</g>
	<g transform="matrix(0.752953,0,0,0.752953,0,0)">
		<path vector-effect="none" class="st4" d="M394.8,310.8c8.5-13.2,110.5-13.2,119,0"/>
	</g>
	<g transform="matrix(0.752953,0,0,0.752953,0,0)">
		<path vector-effect="none" class="st5" d="M394.8,310.8c8.5-14.5,110.5-14.5,119,0C505.2,298.8,403.2,298.8,394.8,310.8"/>
	</g>
	<g transform="matrix(0.752953,0,0,0.752953,1863.56,803.903)">
	</g>
	<g transform="matrix(0.752953,0,0,0.752953,1863.56,803.903)">
		<g class="st2">
			<path d="M-1848.1-782.9v-0.4c0.8,0,1.2-0.2,1.2-0.7c0-0.5-0.5-1.7-0.9-2.7h-4.7c-0.5,1-1,2.3-1,2.7c0,0.4,0.4,0.7,1.2,0.7v0.4
				h-3.6v-0.4c0.7-0.1,1.2-0.4,1.6-1.2l4.4-10.4h0.5l4.1,9.8c0.7,1.6,0.9,1.7,1.7,1.8v0.4H-1848.1z M-1852.2-787.5h4l-2.1-4.7
				L-1852.2-787.5z"/>
			<path d="M-1834.6-782.9v-0.3c0.7,0,1-0.2,1-1.2v-3.7c0-0.9-0.4-1.3-1.2-1.3c-0.6,0-1.3,0.3-1.8,1c0.1,0.1,0.1,0.5,0.1,1.1v1.6
				c0,0.8,0,1.2,0,1.2c0,1.1,0.2,1.3,1,1.3v0.3h-3.4v-0.3c0.7,0,1-0.2,1-1.2v-3.7c0-0.9-0.4-1.3-1.1-1.3c-0.6,0-1.2,0.3-1.8,1v4.1
				c0,0.9,0.3,1.1,1,1.1v0.3h-3.4v-0.3c0.9,0,1-0.3,1-1.3v-4c0-0.4-0.1-0.6-0.3-0.6h-0.8v-0.3l2.4-0.8v1.3c0.7-0.9,1.5-1.3,2.5-1.3
				c0.9,0,1.4,0.4,1.6,1.3c0.8-0.9,1.7-1.3,2.7-1.3c0.5,0,0.9,0.1,1.2,0.4c0.3,0.3,0.6,1.3,0.6,1.8v3.6c0,1.1,0.2,1.3,1,1.3v0.3
				H-1834.6z"/>
			<path d="M-1828.2-787.5h-0.7l2.4-7.4h-2.5c-0.7,0-1.2,0.4-1.5,1.1l-0.2-0.1l0.7-2h4.6L-1828.2-787.5z"/>
		</g>
	</g>
	<g transform="matrix(0.752953,0,0,0.752953,1863.56,803.903)">
	</g>
	<g transform="matrix(0.752953,0,0,0.752953,0,0)">
	</g>
	<g transform="matrix(0.752953,0,0,0.752953,2121.07,803.903)">
	</g>
	<g transform="matrix(0.752953,0,0,0.752953,2121.07,803.903)">
		<g class="st2">
			<path d="M-2107.5-782.9h-5v-0.4c1.5,0,1.6-0.3,1.6-1.7v-7.5c0-1.4-0.1-1.7-1.6-1.7v-0.4h5.6c0.8,0,1.7,0.2,2.6,0.5
				c2.4,0.9,3.7,2.7,3.7,5.4C-2100.6-785.1-2103.2-782.9-2107.5-782.9z M-2107.6-794c-1.4,0-1.4,0.2-1.4,1.6v7.1
				c0,1.4,0,1.6,1.5,1.6c3.3,0,5.1-1.8,5.1-5C-2102.5-791.9-2104.3-794-2107.6-794z"/>
			<path d="M-2097.3-787.5h-0.7l2.4-7.4h-2.5c-0.7,0-1.2,0.4-1.5,1.1l-0.2-0.1l0.7-2h4.6L-2097.3-787.5z"/>
		</g>
	</g>
	<g transform="matrix(0.752953,0,0,0.752953,2121.07,803.903)">
	</g>
	<g transform="matrix(0.752953,0,0,0.752953,0,0)">
	</g>
	<g transform="matrix(0.752953,0,0,0.752953,2376.32,803.903)">
	</g>
	<g transform="matrix(0.752953,0,0,0.752953,2376.32,803.903)">
		<g class="st2">
			<path d="M-2358.9-782.9v-0.4c0.8,0,1.2-0.2,1.2-0.7c0-0.5-0.5-1.7-0.9-2.7h-4.7c-0.5,1-1,2.3-1,2.7c0,0.4,0.4,0.7,1.2,0.7v0.4
				h-3.6v-0.4c0.7-0.1,1.2-0.4,1.6-1.2l4.4-10.4h0.5l4.1,9.8c0.7,1.6,0.9,1.7,1.7,1.8v0.4H-2358.9z M-2362.9-787.5h4l-2.1-4.7
				L-2362.9-787.5z"/>
			<path d="M-2345.3-782.9v-0.3c0.7,0,1-0.2,1-1.2v-3.7c0-0.9-0.4-1.3-1.2-1.3c-0.6,0-1.3,0.3-1.8,1c0.1,0.1,0.1,0.5,0.1,1.1v1.6
				c0,0.8,0,1.2,0,1.2c0,1.1,0.2,1.3,1,1.3v0.3h-3.4v-0.3c0.7,0,1-0.2,1-1.2v-3.7c0-0.9-0.4-1.3-1.1-1.3c-0.6,0-1.2,0.3-1.8,1v4.1
				c0,0.9,0.3,1.1,1,1.1v0.3h-3.4v-0.3c0.9,0,1-0.3,1-1.3v-4c0-0.4-0.1-0.6-0.3-0.6h-0.8v-0.3l2.4-0.8v1.3c0.7-0.9,1.5-1.3,2.5-1.3
				c0.9,0,1.4,0.4,1.6,1.3c0.8-0.9,1.7-1.3,2.7-1.3c0.5,0,0.9,0.1,1.2,0.4c0.3,0.3,0.6,1.3,0.6,1.8v3.6c0,1.1,0.2,1.3,1,1.3v0.3
				H-2345.3z"/>
			<path d="M-2339-787.5h-0.7l2.4-7.4h-2.5c-0.7,0-1.2,0.4-1.5,1.1l-0.2-0.1l0.7-2h4.6L-2339-787.5z"/>
		</g>
	</g>
	<g transform="matrix(0.752953,0,0,0.752953,2376.32,803.903)">
	</g>
	<g transform="matrix(0.752953,0,0,0.752953,0,0)">
	</g>
	<g transform="matrix(0.752953,0,0,0.752953,2633.08,803.903)">
	</g>
	<g transform="matrix(0.752953,0,0,0.752953,2633.08,803.903)">
		<g class="st2">
			<path d="M-2617.5-782.9h-5v-0.4c1.5,0,1.6-0.3,1.6-1.7v-7.5c0-1.4-0.1-1.7-1.6-1.7v-0.4h5.6c0.8,0,1.7,0.2,2.6,0.5
				c2.5,0.9,3.7,2.7,3.7,5.4C-2610.6-785.1-2613.2-782.9-2617.5-782.9z M-2617.6-794c-1.4,0-1.4,0.2-1.4,1.6v7.1
				c0,1.4,0,1.6,1.5,1.6c3.3,0,5.1-1.8,5.1-5C-2612.5-791.9-2614.3-794-2617.6-794z"/>
			<path d="M-2607.3-787.5h-0.7l2.4-7.4h-2.5c-0.7,0-1.2,0.4-1.5,1.1l-0.2-0.1l0.7-2h4.6L-2607.3-787.5z"/>
		</g>
	</g>
	<g transform="matrix(0.752953,0,0,0.752953,2633.08,803.903)">
	</g>
	<g transform="matrix(0.752953,0,0,0.752953,0,0)">
	</g>
	<g transform="matrix(0.752953,0,0,0.752953,79.813,709.737)">
	</g>
	<g transform="matrix(0.752953,0,0,0.752953,79.813,709.737)">
		<g class="st2">
			<path d="M-69.5-693.9c1.4,0.3,2.4,0.7,3,1.2c0.8,0.7,1.2,1.5,1.2,2.6c0,1.1-0.5,2-1.4,2.8c-1.1,0.9-2.7,1.3-4.8,1.3H-79v-0.4
				c0.7,0,1.2-0.1,1.4-0.2c0.2-0.1,0.4-0.3,0.5-0.5c0.1-0.2,0.1-0.7,0.1-1.5v-9.7c0-0.8,0-1.3-0.1-1.5c-0.1-0.2-0.3-0.4-0.5-0.5
				c-0.2-0.1-0.7-0.2-1.4-0.2v-0.4h7.1c1.7,0,2.9,0.2,3.6,0.5c0.7,0.3,1.3,0.8,1.7,1.4s0.6,1.2,0.6,1.9c0,0.7-0.3,1.4-0.8,1.9
				C-67.3-694.6-68.2-694.2-69.5-693.9z M-73.5-693.3v4.8l0,0.5c0,0.4,0.1,0.7,0.3,0.9c0.2,0.2,0.5,0.3,0.9,0.3
				c0.6,0,1.1-0.1,1.6-0.4c0.5-0.3,0.9-0.6,1.1-1.1c0.3-0.5,0.4-1,0.4-1.7c0-0.7-0.2-1.3-0.5-1.9c-0.3-0.6-0.8-0.9-1.3-1.2
				C-71.5-693.2-72.4-693.3-73.5-693.3z M-73.5-694.1c1,0,1.8-0.1,2.3-0.4c0.5-0.2,0.9-0.6,1.1-1c0.3-0.4,0.4-1,0.4-1.6
				c0-0.7-0.1-1.2-0.4-1.6c-0.3-0.4-0.6-0.7-1.1-1c-0.5-0.2-1.3-0.3-2.3-0.3V-694.1z"/>
		</g>
	</g>
	<g transform="matrix(0.752953,0,0,0.752953,79.813,709.737)">
	</g>
	<g transform="matrix(0.752953,0,0,0.752953,0,0)">
	</g>
	<g transform="matrix(0.752953,0,0,0.752953,0,0)">
		<rect x="22.8" y="235.2" class="st3" width="22.5" height="26.5"/>
	</g>
	<g transform="matrix(0.752953,0,0,0.752953,0,0)">
		<line vector-effect="none" class="st1" x1="227.2" y1="413.8" x2="227.2" y2="445.8"/>
	</g>
	<g transform="matrix(0.752953,0,0,0.752953,0,0)">
		<line vector-effect="none" class="st1" x1="370" y1="413.8" x2="370" y2="445.8"/>
	</g>
	<g transform="matrix(0.752953,0,0,0.752953,0,0)">
		<line vector-effect="none" class="st1" x1="374.2" y1="413.8" x2="374.2" y2="445.8"/>
	</g>
	<g transform="matrix(0.752953,0,0,0.752953,0,0)">
		<line vector-effect="none" class="st1" x1="568" y1="413.8" x2="568" y2="445.8"/>
	</g>
	<g transform="matrix(0.752953,0,0,0.752953,0,0)">
		<line vector-effect="none" class="st1" x1="762" y1="413.8" x2="762" y2="445.8"/>
	</g>
	<g transform="matrix(0.752953,0,0,0.752953,0,0)">
		<line vector-effect="none" class="st1" x1="955.8" y1="413.8" x2="955.8" y2="445.8"/>
	</g>
	<g transform="matrix(0.752953,0,0,0.752953,0,0)">
	</g>
	<g transform="matrix(0.752953,0,0,0.752953,128.755,1132.19)">
	</g>
	<g transform="matrix(0.752953,0,0,0.752953,128.755,1132.19)">
		<g class="st2">
			<path d="M-117-1118.2h-0.3c-0.7-2.1-2-3.1-3.9-3.1c-2.7,0-4.4,2.2-4.4,5.4c0,3.2,1.9,5.8,4.5,5.8c0.9,0,1.7-0.2,2.4-0.6v-3.4
				c0-1.3-0.2-1.7-1.5-1.7v-0.4h4.5v0.4c-1.2,0-1.3,0.5-1.3,1.7v3.6c-1.3,0.7-2.6,1-4.1,1c-3.7,0-6.5-2.3-6.5-5.9
				c0-3.4,2.6-6.4,6.2-6.4c0.7,0,1.6,0.2,2.7,0.6c0.3,0.1,0.6,0.2,0.6,0.2c0.3,0,0.4-0.2,0.4-0.7h0.3L-117-1118.2z"/>
			<path d="M-112.5-1114.5h-0.7l2.4-7.4h-2.5c-0.7,0-1.2,0.4-1.5,1.1l-0.2-0.1l0.7-2h4.6L-112.5-1114.5z"/>
		</g>
	</g>
	<g transform="matrix(0.752953,0,0,0.752953,128.755,1132.19)">
	</g>
	<g transform="matrix(0.752953,0,0,0.752953,0,0)">
	</g>
	<g transform="matrix(0.752953,0,0,0.752953,384.759,1132.19)">
	</g>
	<g transform="matrix(0.752953,0,0,0.752953,384.759,1132.19)">
		<g class="st2">
			<path d="M-378-1109.9h-5v-0.4c1.5,0,1.6-0.3,1.6-1.7v-7.5c0-1.4-0.1-1.7-1.6-1.7v-0.4h5.6c0.8,0,1.7,0.2,2.6,0.5
				c2.4,0.9,3.7,2.7,3.7,5.4C-371-1112.1-373.7-1109.9-378-1109.9z M-378.1-1121c-1.4,0-1.4,0.2-1.4,1.6v7.1c0,1.4,0,1.6,1.5,1.6
				c3.3,0,5.1-1.8,5.1-5C-373-1118.9-374.8-1121-378.1-1121z"/>
			<path d="M-361.9-1109.9v-0.3c0.7,0,1-0.2,1-1.2v-3.7c0-0.9-0.4-1.3-1.2-1.3c-0.6,0-1.3,0.3-1.8,1c0.1,0.1,0.1,0.5,0.1,1.1v1.6
				c0,0.8,0,1.2,0,1.2c0,1.1,0.2,1.3,1,1.3v0.3h-3.4v-0.3c0.7,0,1-0.2,1-1.2v-3.7c0-0.9-0.4-1.3-1.1-1.3c-0.6,0-1.2,0.3-1.8,1v4.1
				c0,0.9,0.3,1.1,1,1.1v0.3h-3.4v-0.3c0.9,0,1-0.3,1-1.3v-4c0-0.4-0.1-0.6-0.3-0.6h-0.8v-0.3l2.4-0.8v1.3c0.7-0.9,1.5-1.3,2.5-1.3
				c0.9,0,1.4,0.4,1.6,1.3c0.8-0.9,1.7-1.3,2.7-1.3c0.5,0,0.9,0.1,1.2,0.4c0.3,0.3,0.6,1.3,0.6,1.8v3.6c0,1.1,0.2,1.3,1,1.3v0.3
				H-361.9z"/>
			<path d="M-355.6-1114.5h-0.7l2.4-7.4h-2.5c-0.7,0-1.2,0.4-1.5,1.1l-0.2-0.1l0.7-2h4.6L-355.6-1114.5z"/>
		</g>
	</g>
	<g transform="matrix(0.752953,0,0,0.752953,384.759,1132.19)">
	</g>
	<g transform="matrix(0.752953,0,0,0.752953,0,0)">
	</g>
	<g transform="matrix(0.752953,0,0,0.752953,712.293,1132.19)">
	</g>
	<g transform="matrix(0.752953,0,0,0.752953,712.293,1132.19)">
		<g class="st2">
			<path d="M-698.3-1118.2h-0.3c-0.7-2.1-2-3.1-3.9-3.1c-2.7,0-4.4,2.2-4.4,5.4c0,3.2,1.9,5.8,4.5,5.8c0.9,0,1.7-0.2,2.4-0.6v-3.4
				c0-1.3-0.2-1.7-1.5-1.7v-0.4h4.5v0.4c-1.2,0-1.3,0.5-1.3,1.7v3.6c-1.3,0.7-2.6,1-4.1,1c-3.7,0-6.5-2.3-6.5-5.9
				c0-3.4,2.6-6.4,6.2-6.4c0.7,0,1.6,0.2,2.7,0.6c0.3,0.1,0.6,0.2,0.6,0.2c0.3,0,0.4-0.2,0.4-0.7h0.3L-698.3-1118.2z"/>
			<path d="M-693.7-1114.5h-0.7l2.4-7.4h-2.5c-0.7,0-1.2,0.4-1.5,1.1l-0.2-0.1l0.7-2h4.6L-693.7-1114.5z"/>
		</g>
	</g>
	<g transform="matrix(0.752953,0,0,0.752953,712.293,1132.19)">
	</g>
	<g transform="matrix(0.752953,0,0,0.752953,0,0)">
	</g>
	<g transform="matrix(0.752953,0,0,0.752953,1136.96,1132.19)">
	</g>
	<g transform="matrix(0.752953,0,0,0.752953,1136.96,1132.19)">
		<g class="st2">
			<path d="M-1127.2-1109.9h-5v-0.4c1.5,0,1.6-0.3,1.6-1.7v-7.5c0-1.4-0.1-1.7-1.6-1.7v-0.4h5.6c0.8,0,1.7,0.2,2.6,0.5
				c2.4,0.9,3.7,2.7,3.7,5.4C-1120.3-1112.1-1122.9-1109.9-1127.2-1109.9z M-1127.4-1121c-1.4,0-1.4,0.2-1.4,1.6v7.1
				c0,1.4,0,1.6,1.5,1.6c3.3,0,5.1-1.8,5.1-5C-1122.2-1118.9-1124.1-1121-1127.4-1121z"/>
			<path d="M-1111.2-1109.9v-0.3c0.7,0,1-0.2,1-1.2v-3.7c0-0.9-0.4-1.3-1.2-1.3c-0.6,0-1.3,0.3-1.8,1c0.1,0.1,0.1,0.5,0.1,1.1v1.6
				c0,0.8,0,1.2,0,1.2c0,1.1,0.2,1.3,1,1.3v0.3h-3.4v-0.3c0.7,0,1-0.2,1-1.2v-3.7c0-0.9-0.4-1.3-1.1-1.3c-0.6,0-1.2,0.3-1.8,1v4.1
				c0,0.9,0.3,1.1,1,1.1v0.3h-3.4v-0.3c0.9,0,1-0.3,1-1.3v-4c0-0.4-0.1-0.6-0.3-0.6h-0.8v-0.3l2.4-0.8v1.3c0.7-0.9,1.5-1.3,2.5-1.3
				c0.9,0,1.4,0.4,1.6,1.3c0.8-0.9,1.7-1.3,2.7-1.3c0.5,0,0.9,0.1,1.2,0.4c0.3,0.3,0.6,1.3,0.6,1.8v3.6c0,1.1,0.2,1.3,1,1.3v0.3
				H-1111.2z"/>
			<path d="M-1104.8-1114.5h-0.7l2.4-7.4h-2.5c-0.7,0-1.2,0.4-1.5,1.1l-0.2-0.1l0.7-2h4.6L-1104.8-1114.5z"/>
		</g>
	</g>
	<g transform="matrix(0.752953,0,0,0.752953,1136.96,1132.19)">
	</g>
	<g transform="matrix(0.752953,0,0,0.752953,0,0)">
	</g>
	<g transform="matrix(0.752953,0,0,0.752953,1429.1,1132.19)">
	</g>
	<g transform="matrix(0.752953,0,0,0.752953,1429.1,1132.19)">
		<g class="st2">
			<path d="M-1412.3-1118.2h-0.3c-0.7-2.1-2-3.1-3.9-3.1c-2.7,0-4.4,2.2-4.4,5.4c0,3.2,1.9,5.8,4.5,5.8c0.9,0,1.7-0.2,2.4-0.6v-3.4
				c0-1.3-0.2-1.7-1.5-1.7v-0.4h4.5v0.4c-1.2,0-1.3,0.5-1.3,1.7v3.6c-1.3,0.7-2.6,1-4.1,1c-3.7,0-6.5-2.3-6.5-5.9
				c0-3.4,2.6-6.4,6.2-6.4c0.7,0,1.6,0.2,2.7,0.6c0.3,0.1,0.5,0.2,0.6,0.2c0.3,0,0.4-0.2,0.4-0.7h0.3L-1412.3-1118.2z"/>
			<path d="M-1407.7-1114.5h-0.7l2.4-7.4h-2.5c-0.7,0-1.2,0.4-1.5,1.1l-0.2-0.1l0.7-2h4.6L-1407.7-1114.5z"/>
		</g>
	</g>
	<g transform="matrix(0.752953,0,0,0.752953,1429.1,1132.19)">
	</g>
	<g transform="matrix(0.752953,0,0,0.752953,0,0)">
	</g>
	<g transform="matrix(0.752953,0,0,0.752953,1720.5,1132.19)">
	</g>
	<g transform="matrix(0.752953,0,0,0.752953,1720.5,1132.19)">
		<g class="st2">
			<path d="M-1708.5-1109.9h-5v-0.4c1.5,0,1.6-0.3,1.6-1.7v-7.5c0-1.4-0.1-1.7-1.6-1.7v-0.4h5.6c0.8,0,1.7,0.2,2.6,0.5
				c2.4,0.9,3.7,2.7,3.7,5.4C-1701.6-1112.1-1704.2-1109.9-1708.5-1109.9z M-1708.6-1121c-1.4,0-1.4,0.2-1.4,1.6v7.1
				c0,1.4,0,1.6,1.5,1.6c3.3,0,5.1-1.8,5.1-5C-1703.5-1118.9-1705.3-1121-1708.6-1121z"/>
			<path d="M-1692.4-1109.9v-0.3c0.7,0,1-0.2,1-1.2v-3.7c0-0.9-0.4-1.3-1.2-1.3c-0.6,0-1.3,0.3-1.8,1c0.1,0.1,0.1,0.5,0.1,1.1v1.6
				c0,0.8,0,1.2,0,1.2c0,1.1,0.2,1.3,1,1.3v0.3h-3.4v-0.3c0.7,0,1-0.2,1-1.2v-3.7c0-0.9-0.4-1.3-1.1-1.3c-0.6,0-1.2,0.3-1.8,1v4.1
				c0,0.9,0.3,1.1,1,1.1v0.3h-3.4v-0.3c0.9,0,1-0.3,1-1.3v-4c0-0.4-0.1-0.6-0.3-0.6h-0.8v-0.3l2.4-0.8v1.3c0.7-0.9,1.5-1.3,2.5-1.3
				c0.9,0,1.4,0.4,1.6,1.3c0.8-0.9,1.7-1.3,2.7-1.3c0.5,0,0.9,0.1,1.2,0.4c0.3,0.3,0.6,1.3,0.6,1.8v3.6c0,1.1,0.2,1.3,1,1.3v0.3
				H-1692.4z"/>
			<path d="M-1686.1-1114.5h-0.7l2.4-7.4h-2.5c-0.7,0-1.2,0.4-1.5,1.1l-0.2-0.1l0.7-2h4.6L-1686.1-1114.5z"/>
		</g>
	</g>
	<g transform="matrix(0.752953,0,0,0.752953,1720.5,1132.19)">
	</g>
	<g transform="matrix(0.752953,0,0,0.752953,0,0)">
	</g>
	<g transform="matrix(0.752953,0,0,0.752953,2012.64,1132.19)">
	</g>
	<g transform="matrix(0.752953,0,0,0.752953,2012.64,1132.19)">
		<g class="st2">
			<path d="M-1993.5-1118.2h-0.3c-0.7-2.1-2-3.1-3.9-3.1c-2.7,0-4.4,2.2-4.4,5.4c0,3.2,1.9,5.8,4.5,5.8c0.9,0,1.7-0.2,2.4-0.6v-3.4
				c0-1.3-0.2-1.7-1.5-1.7v-0.4h4.5v0.4c-1.2,0-1.3,0.5-1.3,1.7v3.6c-1.3,0.7-2.6,1-4.1,1c-3.7,0-6.5-2.3-6.5-5.9
				c0-3.4,2.6-6.4,6.2-6.4c0.7,0,1.6,0.2,2.7,0.6c0.3,0.1,0.5,0.2,0.6,0.2c0.3,0,0.4-0.2,0.4-0.7h0.3L-1993.5-1118.2z"/>
			<path d="M-1989-1114.5h-0.7l2.4-7.4h-2.5c-0.7,0-1.2,0.4-1.5,1.1l-0.2-0.1l0.7-2h4.6L-1989-1114.5z"/>
		</g>
	</g>
	<g transform="matrix(0.752953,0,0,0.752953,2012.64,1132.19)">
	</g>
	<g transform="matrix(0.752953,0,0,0.752953,0,0)">
	</g>
	<g transform="matrix(0.752953,0,0,0.752953,2307.05,1132.19)">
	</g>
	<g transform="matrix(0.752953,0,0,0.752953,2307.05,1132.19)">
		<g class="st2">
			<path d="M-2288-1109.9h-9.7v-0.4c1.5,0,1.6-0.3,1.6-1.7v-7.5c0-1.4-0.1-1.7-1.6-1.7v-0.4h9.6v2.7h-0.4c-0.1-1.2-0.7-1.8-1.7-1.8
				h-3.1c-0.8,0-1,0.4-1,1.2v3.3h3.1c1,0,1.7-0.7,1.7-1.7h0.4v4.2h-0.4c0-1-0.7-1.7-1.7-1.7h-3.1v3.7c0,0.8,0.2,1.2,1,1.2h3
				c1.2,0,2.3-1,2.6-2.2h0.5L-2288-1109.9z"/>
			<path d="M-2278.1-1109.9v-0.3c0.7,0,1-0.2,1-1.2v-3.7c0-0.9-0.4-1.3-1.2-1.3c-0.6,0-1.3,0.3-1.8,1c0.1,0.1,0.1,0.5,0.1,1.1v1.6
				c0,0.8,0,1.2,0,1.2c0,1.1,0.2,1.3,1,1.3v0.3h-3.4v-0.3c0.7,0,1-0.2,1-1.2v-3.7c0-0.9-0.4-1.3-1.1-1.3c-0.6,0-1.2,0.3-1.8,1v4.1
				c0,0.9,0.3,1.1,1,1.1v0.3h-3.4v-0.3c0.9,0,1-0.3,1-1.3v-4c0-0.4-0.1-0.6-0.3-0.6h-0.8v-0.3l2.4-0.8v1.3c0.7-0.9,1.5-1.3,2.5-1.3
				c0.9,0,1.4,0.4,1.6,1.3c0.8-0.9,1.7-1.3,2.7-1.3c0.5,0,0.9,0.1,1.2,0.4c0.3,0.3,0.6,1.3,0.6,1.8v3.6c0,1.1,0.2,1.3,1,1.3v0.3
				H-2278.1z"/>
			<path d="M-2271.7-1114.5h-0.7l2.4-7.4h-2.5c-0.7,0-1.2,0.4-1.5,1.1l-0.2-0.1l0.7-2h4.6L-2271.7-1114.5z"/>
		</g>
	</g>
	<g transform="matrix(0.752953,0,0,0.752953,2307.05,1132.19)">
	</g>
	<g transform="matrix(0.752953,0,0,0.752953,0,0)">
	</g>
	<g transform="matrix(0.752953,0,0,0.752953,2599.19,1132.19)">
	</g>
	<g transform="matrix(0.752953,0,0,0.752953,2599.19,1132.19)">
		<g class="st2">
			<path d="M-2580.9-1109.9v-0.4c0.8,0,1.2-0.2,1.2-0.7c0-0.5-0.5-1.7-0.9-2.7h-4.7c-0.5,1-1,2.3-1,2.7c0,0.4,0.4,0.7,1.2,0.7v0.4
				h-3.5v-0.4c0.7-0.1,1.2-0.4,1.6-1.2l4.4-10.4h0.5l4.1,9.8c0.7,1.6,0.9,1.7,1.7,1.8v0.4H-2580.9z M-2584.9-1114.5h4l-2.1-4.7
				L-2584.9-1114.5z"/>
			<path d="M-2573.2-1114.5h-0.7l2.4-7.4h-2.5c-0.7,0-1.2,0.4-1.5,1.1l-0.2-0.1l0.7-2h4.6L-2573.2-1114.5z"/>
		</g>
	</g>
	<g transform="matrix(0.752953,0,0,0.752953,2599.19,1132.19)">
	</g>
	<g transform="matrix(0.752953,0,0,0.752953,0,0)">
	</g>
	<g transform="matrix(0.752953,0,0,0.752953,1104.58,1038.02)">
	</g>
	<g transform="matrix(0.752953,0,0,0.752953,1104.58,1038.02)">
		<g class="st2">
			<path d="M-1090.9-1017.2h-5.3l-0.6,1.5c-0.2,0.5-0.3,0.9-0.3,1.2c0,0.4,0.2,0.7,0.5,0.9c0.2,0.1,0.7,0.2,1.5,0.3v0.4h-5v-0.4
				c0.5-0.1,1-0.3,1.3-0.7c0.3-0.4,0.8-1.1,1.3-2.2l5.3-11.9h0.2l5.4,12.2c0.5,1.2,0.9,1.9,1.3,2.2c0.2,0.2,0.6,0.4,1.1,0.4v0.4
				h-7.2v-0.4h0.3c0.6,0,1-0.1,1.2-0.2c0.2-0.1,0.2-0.3,0.2-0.5c0-0.1,0-0.3-0.1-0.4c0-0.1-0.1-0.3-0.3-0.8L-1090.9-1017.2z
				 M-1091.3-1018l-2.2-5.1l-2.3,5.1H-1091.3z"/>
		</g>
	</g>
	<g transform="matrix(0.752953,0,0,0.752953,1104.58,1038.02)">
	</g>
	<g transform="matrix(0.752953,0,0,0.752953,0,0)">
	</g>
	<g transform="matrix(0.752953,0,0,0.752953,0,0)">
		<rect x="362.8" y="344.2" class="st3" width="24.2" height="26.5"/>
	</g>
	<g transform="matrix(0.752953,0,0,0.752953,0,0)">
		<line vector-effect="none" class="st1" x1="215.5" y1="513.5" x2="215.5" y2="545.5"/>
	</g>
	<g transform="matrix(0.752953,0,0,0.752953,0,0)">
		<line vector-effect="none" class="st1" x1="397.5" y1="513.5" x2="397.5" y2="545.5"/>
	</g>
	<g transform="matrix(0.752953,0,0,0.752953,0,0)">
		<line vector-effect="none" class="st1" x1="579.5" y1="513.5" x2="579.5" y2="545.5"/>
	</g>
	<g transform="matrix(0.752953,0,0,0.752953,0,0)">
		<line vector-effect="none" class="st1" x1="761.5" y1="513.5" x2="761.5" y2="545.5"/>
	</g>
	<g transform="matrix(0.752953,0,0,0.752953,0,0)">
		<line vector-effect="none" class="st1" x1="948.8" y1="513.5" x2="948.8" y2="545.5"/>
	</g>
	<g transform="matrix(0.752953,0,0,0.752953,0,0)">
		<line vector-effect="none" class="st0" x1="954.2" y1="513.5" x2="954.2" y2="545.5"/>
	</g>
	<g transform="matrix(0.752953,0,0,0.752953,0,0)">
	</g>
	<g transform="matrix(0.752953,0,0,0.752953,112.943,1432.62)">
	</g>
	<g transform="matrix(0.752953,0,0,0.752953,112.943,1432.62)">
		<g class="st2">
			<path d="M-102.5-1409.2h-9.7v-0.4c1.5,0,1.6-0.3,1.6-1.7v-7.5c0-1.4-0.1-1.7-1.6-1.7v-0.4h9.6v2.7h-0.4c-0.1-1.2-0.7-1.8-1.7-1.8
				h-3.1c-0.8,0-1,0.4-1,1.2v3.3h3.1c1,0,1.7-0.7,1.7-1.7h0.4v4.2h-0.4c0-1-0.7-1.7-1.7-1.7h-3.1v3.7c0,0.8,0.2,1.2,1,1.2h3
				c1.2,0,2.3-1,2.6-2.2h0.5L-102.5-1409.2z"/>
			<path d="M-92.6-1409.2v-0.3c0.7,0,1-0.2,1-1.2v-3.7c0-0.9-0.4-1.3-1.2-1.3c-0.6,0-1.3,0.3-1.8,1c0.1,0.1,0.1,0.5,0.1,1.1v1.6
				c0,0.8,0,1.2,0,1.2c0,1.1,0.2,1.3,1,1.3v0.3h-3.4v-0.3c0.7,0,1-0.2,1-1.2v-3.7c0-0.9-0.4-1.3-1.1-1.3c-0.6,0-1.2,0.3-1.8,1v4.1
				c0,0.9,0.3,1.1,1,1.1v0.3h-3.4v-0.3c0.9,0,1-0.3,1-1.3v-4c0-0.4-0.1-0.6-0.3-0.6h-0.8v-0.3l2.4-0.8v1.3c0.7-0.9,1.5-1.3,2.5-1.3
				c0.9,0,1.4,0.4,1.6,1.3c0.8-0.9,1.7-1.3,2.7-1.3c0.5,0,0.9,0.1,1.2,0.4c0.3,0.3,0.6,1.3,0.6,1.8v3.6c0,1.1,0.2,1.3,1,1.3v0.3
				H-92.6z"/>
			<path d="M-86.2-1413.8H-87l2.4-7.4h-2.5c-0.7,0-1.2,0.4-1.5,1.1l-0.2-0.1l0.7-2h4.6L-86.2-1413.8z"/>
		</g>
	</g>
	<g transform="matrix(0.752953,0,0,0.752953,112.943,1432.62)">
	</g>
	<g transform="matrix(0.752953,0,0,0.752953,0,0)">
	</g>
	<g transform="matrix(0.752953,0,0,0.752953,387.771,1432.62)">
	</g>
	<g transform="matrix(0.752953,0,0,0.752953,387.771,1432.62)">
		<g class="st2">
			<path d="M-378.1-1409.2v-0.4c0.8,0,1.2-0.2,1.2-0.7c0-0.5-0.5-1.7-0.9-2.7h-4.7c-0.5,1-1,2.3-1,2.7c0,0.4,0.4,0.7,1.2,0.7v0.4
				h-3.6v-0.4c0.7-0.1,1.2-0.4,1.6-1.2l4.4-10.4h0.5l4.1,9.8c0.7,1.6,0.9,1.7,1.7,1.8v0.4H-378.1z M-382.2-1413.8h4l-2.1-4.7
				L-382.2-1413.8z"/>
			<path d="M-370.5-1413.8h-0.7l2.4-7.4h-2.5c-0.7,0-1.2,0.4-1.5,1.1l-0.2-0.1l0.7-2h4.6L-370.5-1413.8z"/>
		</g>
	</g>
	<g transform="matrix(0.752953,0,0,0.752953,387.771,1432.62)">
	</g>
	<g transform="matrix(0.752953,0,0,0.752953,0,0)">
	</g>
	<g transform="matrix(0.752953,0,0,0.752953,658.834,1432.62)">
	</g>
	<g transform="matrix(0.752953,0,0,0.752953,658.834,1432.62)">
		<g class="st2">
			<path d="M-648.1-1409.2v-0.4c0.8,0,1.2-0.2,1.2-0.7c0-0.5-0.5-1.7-0.9-2.7h-4.7c-0.5,1-1,2.3-1,2.7c0,0.4,0.4,0.7,1.2,0.7v0.4
				h-3.6v-0.4c0.7-0.1,1.2-0.4,1.6-1.2l4.4-10.4h0.5l4.1,9.8c0.7,1.6,0.9,1.7,1.7,1.8v0.4H-648.1z M-652.2-1413.8h4l-2.1-4.7
				L-652.2-1413.8z"/>
			<path d="M-634.6-1409.2v-0.3c0.7,0,1-0.2,1-1.2v-3.7c0-0.9-0.4-1.3-1.2-1.3c-0.6,0-1.3,0.3-1.8,1c0.1,0.1,0.1,0.5,0.1,1.1v1.6
				c0,0.8,0,1.2,0,1.2c0,1.1,0.2,1.3,1,1.3v0.3h-3.4v-0.3c0.7,0,1-0.2,1-1.2v-3.7c0-0.9-0.4-1.3-1.1-1.3c-0.6,0-1.2,0.3-1.8,1v4.1
				c0,0.9,0.3,1.1,1,1.1v0.3h-3.4v-0.3c0.9,0,1-0.3,1-1.3v-4c0-0.4-0.1-0.6-0.3-0.6h-0.8v-0.3l2.4-0.8v1.3c0.7-0.9,1.5-1.3,2.5-1.3
				c0.9,0,1.4,0.4,1.6,1.3c0.8-0.9,1.7-1.3,2.7-1.3c0.5,0,0.9,0.1,1.2,0.4c0.3,0.3,0.6,1.3,0.6,1.8v3.6c0,1.1,0.2,1.3,1,1.3v0.3
				H-634.6z"/>
			<path d="M-628.2-1413.8h-0.7l2.4-7.4h-2.5c-0.7,0-1.2,0.4-1.5,1.1l-0.2-0.1l0.7-2h4.6L-628.2-1413.8z"/>
		</g>
	</g>
	<g transform="matrix(0.752953,0,0,0.752953,658.834,1432.62)">
	</g>
	<g transform="matrix(0.752953,0,0,0.752953,0,0)">
	</g>
	<g transform="matrix(0.752953,0,0,0.752953,933.661,1432.62)">
	</g>
	<g transform="matrix(0.752953,0,0,0.752953,933.661,1432.62)">
		<g class="st2">
			<path d="M-924.7-1409.2h-5v-0.4c1.5,0,1.6-0.3,1.6-1.7v-7.5c0-1.4-0.1-1.7-1.6-1.7v-0.4h5.6c0.8,0,1.7,0.2,2.6,0.5
				c2.5,0.9,3.7,2.7,3.7,5.4C-917.8-1411.3-920.4-1409.2-924.7-1409.2z M-924.9-1420.3c-1.4,0-1.4,0.2-1.4,1.6v7.1
				c0,1.4,0,1.6,1.5,1.6c3.3,0,5.1-1.8,5.1-5C-919.7-1418.2-921.6-1420.3-924.9-1420.3z"/>
			<path d="M-914.6-1413.8h-0.7l2.4-7.4h-2.5c-0.7,0-1.2,0.4-1.5,1.1l-0.2-0.1l0.7-2h4.6L-914.6-1413.8z"/>
		</g>
	</g>
	<g transform="matrix(0.752953,0,0,0.752953,933.661,1432.62)">
	</g>
	<g transform="matrix(0.752953,0,0,0.752953,0,0)">
	</g>
	<g transform="matrix(0.752953,0,0,0.752953,1197.19,1432.62)">
	</g>
	<g transform="matrix(0.752953,0,0,0.752953,1197.19,1432.62)">
		<g class="st2">
			<path d="M-1184.4-1409.2v-0.4c0.8,0,1.2-0.2,1.2-0.7c0-0.5-0.5-1.7-0.9-2.7h-4.7c-0.5,1-1,2.3-1,2.7c0,0.4,0.4,0.7,1.2,0.7v0.4
				h-3.5v-0.4c0.7-0.1,1.2-0.4,1.6-1.2l4.4-10.4h0.5l4.1,9.8c0.7,1.6,0.9,1.7,1.7,1.8v0.4H-1184.4z M-1188.4-1413.8h4l-2.1-4.7
				L-1188.4-1413.8z"/>
			<path d="M-1178.8-1421.9h0.8l-0.1,6.4c0.9-1,1.1-1.1,1.9-1.1c1.3,0,2.2,0.9,2.2,2.3c0,2-2,2.8-3.5,4.1l-1.2,1V-1421.9z
				 M-1178-1414.6c-0.1,1.3-0.1,2.1-0.1,2.5c0,0.6,0.1,1.2,0.2,1.5c1.7-1.4,2.5-2.6,2.5-3.7c0-0.9-0.5-1.6-1.3-1.6
				C-1177.3-1415.8-1177.6-1415.1-1178-1414.6z"/>
			<path d="M-1164.5-1409.2v-0.3c0.7,0,1-0.2,1-1.2v-3.7c0-0.9-0.4-1.3-1.2-1.3c-0.6,0-1.3,0.3-1.8,1c0.1,0.1,0.1,0.5,0.1,1.1v1.6
				c0,0.8,0,1.2,0,1.2c0,1.1,0.2,1.3,1,1.3v0.3h-3.4v-0.3c0.7,0,1-0.2,1-1.2v-3.7c0-0.9-0.4-1.3-1.1-1.3c-0.6,0-1.2,0.3-1.8,1v4.1
				c0,0.9,0.3,1.1,1,1.1v0.3h-3.4v-0.3c0.9,0,1-0.3,1-1.3v-4c0-0.4-0.1-0.6-0.3-0.6h-0.8v-0.3l2.4-0.8v1.3c0.7-0.9,1.5-1.3,2.5-1.3
				c0.9,0,1.4,0.4,1.6,1.3c0.8-0.9,1.7-1.3,2.7-1.3c0.5,0,0.9,0.1,1.2,0.4c0.3,0.3,0.6,1.3,0.6,1.8v3.6c0,1.1,0.2,1.3,1,1.3v0.3
				H-1164.5z"/>
			<path d="M-1158.1-1413.8h-0.7l2.4-7.4h-2.5c-0.7,0-1.2,0.4-1.5,1.1l-0.2-0.1l0.7-2h4.6L-1158.1-1413.8z"/>
		</g>
	</g>
	<g transform="matrix(0.752953,0,0,0.752953,1197.19,1432.62)">
	</g>
	<g transform="matrix(0.752953,0,0,0.752953,0,0)">
	</g>
	<g transform="matrix(0.752953,0,0,0.752953,1472.02,1432.62)">
	</g>
	<g transform="matrix(0.752953,0,0,0.752953,1472.02,1432.62)">
		<g class="st2">
			<path d="M-1461-1409.2h-5v-0.4c1.5,0,1.6-0.3,1.6-1.7v-7.5c0-1.4-0.1-1.7-1.6-1.7v-0.4h5.6c0.8,0,1.7,0.2,2.6,0.5
				c2.4,0.9,3.7,2.7,3.7,5.4C-1454-1411.3-1456.7-1409.2-1461-1409.2z M-1461.1-1420.3c-1.4,0-1.4,0.2-1.4,1.6v7.1
				c0,1.4,0,1.6,1.5,1.6c3.3,0,5.1-1.8,5.1-5C-1456-1418.2-1457.8-1420.3-1461.1-1420.3z"/>
			<path d="M-1452.8-1421.9h0.8l-0.1,6.4c0.9-1,1.1-1.1,1.9-1.1c1.3,0,2.2,0.9,2.2,2.3c0,2-2,2.8-3.5,4.1l-1.2,1V-1421.9z
				 M-1452-1414.6c-0.1,1.3-0.1,2.1-0.1,2.5c0,0.6,0.1,1.2,0.2,1.5c1.7-1.4,2.5-2.6,2.5-3.7c0-0.9-0.5-1.6-1.3-1.6
				C-1451.4-1415.8-1451.7-1415.1-1452-1414.6z"/>
			<path d="M-1444.5-1413.8h-0.7l2.4-7.4h-2.5c-0.7,0-1.2,0.4-1.5,1.1l-0.2-0.1l0.7-2h4.6L-1444.5-1413.8z"/>
		</g>
	</g>
	<g transform="matrix(0.752953,0,0,0.752953,1472.02,1432.62)">
	</g>
	<g transform="matrix(0.752953,0,0,0.752953,0,0)">
	</g>
	<g transform="matrix(0.752953,0,0,0.752953,1739.32,1432.62)">
	</g>
	<g transform="matrix(0.752953,0,0,0.752953,1739.32,1432.62)">
		<g class="st2">
			<path d="M-1726-1409c-3.5,0-5.9-2.4-5.9-5.9c0-3.4,2.5-6.4,6-6.4c1.2,0,3.2,0.7,3.4,0.7c0.3,0,0.5-0.2,0.7-0.7h0.6v4.2h-0.5
				c-0.4-2.1-1.8-3.4-3.9-3.4c-2.7,0-4.3,2.2-4.3,5.4c0,3.2,1.7,5.3,4.4,5.3c1.6,0,2.9-0.6,4-1.9l0.3,0.5
				C-1722.3-1409.7-1723.9-1409-1726-1409z"/>
			<path d="M-1711.4-1413.8v-0.3c0.7,0,1-0.2,1-1.2v-3.7c0-0.9-0.4-1.3-1.2-1.3c-0.6,0-1.3,0.3-1.8,1c0.1,0.1,0.1,0.5,0.1,1.1v1.6
				c0,0.8,0,1.2,0,1.2c0,1.1,0.2,1.3,1,1.3v0.3h-3.4v-0.3c0.7,0,1-0.2,1-1.2v-3.7c0-0.9-0.4-1.3-1.1-1.3c-0.6,0-1.2,0.3-1.8,1v4.1
				c0,0.9,0.3,1.1,1,1.1v0.3h-3.4v-0.3c0.9,0,1-0.3,1-1.3v-4c0-0.4-0.1-0.6-0.3-0.6h-0.8v-0.3l2.4-0.8v1.3c0.7-0.9,1.5-1.3,2.5-1.3
				c0.9,0,1.4,0.4,1.6,1.3c0.8-0.9,1.7-1.3,2.7-1.3c0.5,0,0.9,0.1,1.2,0.4c0.3,0.3,0.6,1.3,0.6,1.8v3.5c0,1.1,0.2,1.3,1,1.3v0.3
				H-1711.4z"/>
			<path d="M-1701.1-1414.5c-0.5,0.6-1,0.9-1.5,0.9c-0.6,0-0.9-0.4-1-1.2c-1,0.8-1.8,1.2-2.5,1.2c-0.9,0-1.5-0.9-1.5-1.7
				c0-1.4,0.9-2.2,3.9-3.1v-1c0-0.9-0.4-1.4-1.2-1.4c-0.5,0-1.1,0.3-1.1,0.8c0,0.1,0.1,0.5,0.1,0.6c0,0.4-0.4,0.7-0.7,0.7
				c-0.4,0-0.6-0.2-0.6-0.7c0-1,1.4-1.8,2.6-1.8c1.4,0,2.3,0.8,2.3,2.3v3.6c0,0.4,0.1,0.6,0.4,0.6c0.2,0,0.5-0.1,0.8-0.4V-1414.5z
				 M-1703.6-1418c-0.9,0.3-1.5,0.5-1.7,0.6c-0.5,0.3-0.8,0.8-0.8,1.5c0,0.7,0.4,1.3,1,1.3c0.4,0,0.9-0.2,1.5-0.6V-1418z"/>
			<path d="M-1700.3-1420.4l2.6-0.9v6.8c0,2.7-0.9,4-2.6,4c-0.8,0-1.5-0.3-1.5-1c0-0.4,0.2-0.6,0.5-0.6c0.4,0,1.2,1,1.6,1
				c0.4,0,0.6-0.6,0.6-1.8v-6.2c0-0.6-0.2-1-0.5-1c-0.1,0-0.4,0-0.7,0.1V-1420.4z M-1698.4-1423.3c-0.4,0-0.8-0.4-0.8-0.8
				c0-0.4,0.4-0.8,0.8-0.8c0.4,0,0.8,0.4,0.8,0.8C-1697.6-1423.7-1698-1423.3-1698.4-1423.3z"/>
			<path d="M-1694.1-1413.8h-0.7l2.4-7.4h-2.5c-0.7,0-1.2,0.4-1.5,1.1l-0.2-0.1l0.7-2h4.6L-1694.1-1413.8z"/>
		</g>
	</g>
	<g transform="matrix(0.752953,0,0,0.752953,1739.32,1432.62)">
	</g>
	<g transform="matrix(0.752953,0,0,0.752953,0,0)">
	</g>
	<g transform="matrix(0.752953,0,0,0.752953,2011.14,1432.62)">
	</g>
	<g transform="matrix(0.752953,0,0,0.752953,2011.14,1432.62)">
		<g class="st2">
			<path d="M-1998-1409.2h-5v-0.4c1.5,0,1.6-0.3,1.6-1.7v-7.5c0-1.4-0.1-1.7-1.6-1.7v-0.4h5.6c0.8,0,1.7,0.2,2.6,0.5
				c2.5,0.9,3.7,2.7,3.7,5.4C-1991.1-1411.3-1993.7-1409.2-1998-1409.2z M-1998.1-1420.3c-1.4,0-1.4,0.2-1.4,1.6v7.1
				c0,1.4,0,1.6,1.5,1.6c3.3,0,5.1-1.8,5.1-5C-1993-1418.2-1994.8-1420.3-1998.1-1420.3z"/>
			<path d="M-1981.9-1409.2v-0.3c0.7,0,1-0.2,1-1.2v-3.7c0-0.9-0.4-1.3-1.2-1.3c-0.6,0-1.3,0.3-1.8,1c0.1,0.1,0.1,0.5,0.1,1.1v1.6
				c0,0.8,0,1.2,0,1.2c0,1.1,0.2,1.3,1,1.3v0.3h-3.4v-0.3c0.7,0,1-0.2,1-1.2v-3.7c0-0.9-0.4-1.3-1.1-1.3c-0.6,0-1.2,0.3-1.8,1v4.1
				c0,0.9,0.3,1.1,1,1.1v0.3h-3.4v-0.3c0.9,0,1-0.3,1-1.3v-4c0-0.4-0.1-0.6-0.3-0.6h-0.8v-0.3l2.4-0.8v1.3c0.7-0.9,1.5-1.3,2.5-1.3
				c0.9,0,1.4,0.4,1.6,1.3c0.8-0.9,1.7-1.3,2.7-1.3c0.5,0,0.9,0.1,1.2,0.4c0.3,0.3,0.6,1.3,0.6,1.8v3.6c0,1.1,0.2,1.3,1,1.3v0.3
				H-1981.9z"/>
			<path d="M-1975.6-1413.8h-0.7l2.4-7.4h-2.5c-0.7,0-1.2,0.4-1.5,1.1l-0.2-0.1l0.7-2h4.6L-1975.6-1413.8z"/>
		</g>
	</g>
	<g transform="matrix(0.752953,0,0,0.752953,2011.14,1432.62)">
	</g>
	<g transform="matrix(0.752953,0,0,0.752953,0,0)">
	</g>
	<g transform="matrix(0.752953,0,0,0.752953,2305.54,1432.62)">
	</g>
	<g transform="matrix(0.752953,0,0,0.752953,2305.54,1432.62)">
		<g class="st2">
			<path d="M-2286.5-1409.2h-9.7v-0.4c1.5,0,1.6-0.3,1.6-1.7v-7.5c0-1.4-0.1-1.7-1.6-1.7v-0.4h9.6v2.7h-0.4
				c-0.1-1.2-0.7-1.8-1.7-1.8h-3.1c-0.8,0-1,0.4-1,1.2v3.3h3.1c1,0,1.7-0.7,1.7-1.7h0.4v4.2h-0.4c0-1-0.7-1.7-1.7-1.7h-3.1v3.7
				c0,0.8,0.2,1.2,1,1.2h3c1.2,0,2.3-1,2.6-2.2h0.5L-2286.5-1409.2z"/>
			<path d="M-2276.6-1409.2v-0.3c0.7,0,1-0.2,1-1.2v-3.7c0-0.9-0.4-1.3-1.2-1.3c-0.6,0-1.3,0.3-1.8,1c0.1,0.1,0.1,0.5,0.1,1.1v1.6
				c0,0.8,0,1.2,0,1.2c0,1.1,0.2,1.3,1,1.3v0.3h-3.4v-0.3c0.7,0,1-0.2,1-1.2v-3.7c0-0.9-0.4-1.3-1.1-1.3c-0.6,0-1.2,0.3-1.8,1v4.1
				c0,0.9,0.3,1.1,1,1.1v0.3h-3.4v-0.3c0.9,0,1-0.3,1-1.3v-4c0-0.4-0.1-0.6-0.3-0.6h-0.8v-0.3l2.4-0.8v1.3c0.7-0.9,1.5-1.3,2.5-1.3
				c0.9,0,1.4,0.4,1.6,1.3c0.8-0.9,1.7-1.3,2.7-1.3c0.5,0,0.9,0.1,1.2,0.4c0.3,0.3,0.6,1.3,0.6,1.8v3.6c0,1.1,0.2,1.3,1,1.3v0.3
				H-2276.6z"/>
			<path d="M-2270.2-1413.8h-0.7l2.4-7.4h-2.5c-0.7,0-1.2,0.4-1.5,1.1l-0.2-0.1l0.7-2h4.6L-2270.2-1413.8z"/>
		</g>
	</g>
	<g transform="matrix(0.752953,0,0,0.752953,2305.54,1432.62)">
	</g>
	<g transform="matrix(0.752953,0,0,0.752953,0,0)">
	</g>
	<g transform="matrix(0.752953,0,0,0.752953,2580.37,1432.62)">
	</g>
	<g transform="matrix(0.752953,0,0,0.752953,2580.37,1432.62)">
		<g class="st2">
			<path d="M-2562.1-1409.2v-0.4c0.8,0,1.2-0.2,1.2-0.7c0-0.5-0.5-1.7-0.9-2.7h-4.7c-0.5,1-1,2.3-1,2.7c0,0.4,0.4,0.7,1.2,0.7v0.4
				h-3.5v-0.4c0.7-0.1,1.2-0.4,1.6-1.2l4.4-10.4h0.5l4.1,9.8c0.7,1.6,0.9,1.7,1.7,1.8v0.4H-2562.1z M-2566.2-1413.8h4l-2.1-4.7
				L-2566.2-1413.8z"/>
			<path d="M-2554.5-1413.8h-0.7l2.4-7.4h-2.5c-0.7,0-1.2,0.4-1.5,1.1l-0.2-0.1l0.7-2h4.6L-2554.5-1413.8z"/>
		</g>
	</g>
	<g transform="matrix(0.752953,0,0,0.752953,2580.37,1432.62)">
	</g>
	<g transform="matrix(0.752953,0,0,0.752953,0,0)">
	</g>
	<g transform="matrix(0.752953,0,0,0.752953,119.719,188.341)">
	</g>
	<g transform="matrix(0.752953,0,0,0.752953,119.719,188.341)">
		<g class="st2">
			<path d="M-108.6-143v0.8c0,0.3,0,0.5,0,0.6c0,0.8,0.3,1,1.8,1.1l0.1,0.9h-7.9l0.1-0.9c1-0.1,1.6-0.3,1.8-0.6
				c0.1-0.2,0.1-0.8,0.1-1.9h-6.6v-1.3c2-2.5,3.8-7.1,4.1-10.3h5.5c-0.3,1.5-1.5,3.2-3.4,5.2c-2.2,2.2-3.5,3.8-4,5.1h4.4v-3.7l4-3.6
				v7.3h2v1.4H-108.6z"/>
		</g>
	</g>
	<g transform="matrix(0.752953,0,0,0.752953,119.719,188.341)">
		<g class="st2">
			<path d="M-108.6-126.8v0.8c0,0.3,0,0.5,0,0.6c0,0.8,0.3,1,1.8,1.1l0.1,0.9h-7.9l0.1-0.9c1-0.1,1.6-0.3,1.8-0.6
				c0.1-0.2,0.1-0.8,0.1-1.9h-6.6v-1.3c2-2.5,3.8-7.1,4.1-10.3h5.5c-0.3,1.5-1.5,3.2-3.4,5.2c-2.2,2.2-3.5,3.8-4,5.1h4.4v-3.7l4-3.6
				v7.3h2v1.4H-108.6z"/>
		</g>
	</g>
	<g transform="matrix(0.752953,0,0,0.752953,119.719,188.341)">
	</g>
	<g transform="matrix(0.752953,0,0,0.752953,0,0)">
		<line vector-effect="none" class="st3" x1="0" y1="127.2" x2="956.2" y2="127.2"/>
	</g>
	<g transform="matrix(0.752953,0,0,0.752953,0,0)">
		<line vector-effect="none" class="st3" x1="0" y1="119.2" x2="956.2" y2="119.2"/>
	</g>
	<g transform="matrix(0.752953,0,0,0.752953,0,0)">
		<line vector-effect="none" class="st3" x1="0" y1="111.2" x2="956.2" y2="111.2"/>
	</g>
	<g transform="matrix(0.752953,0,0,0.752953,0,0)">
		<line vector-effect="none" class="st3" x1="0" y1="103.2" x2="956.2" y2="103.2"/>
	</g>
	<g transform="matrix(0.752953,0,0,0.752953,0,0)">
		<line vector-effect="none" class="st3" x1="0" y1="95.2" x2="956.2" y2="95.2"/>
	</g>
	<g transform="matrix(0.752953,0,0,0.752953,0,0)">
		<g class="st2">
			<path d="M11.7,118.1c4.7-4.2,7.6-9.8,7.6-14.9c0-4.1-2.3-7.1-6-7.1c-2.6,0-5.4,2.2-5.4,4.4c0,0.4,0.1,0.5,0.2,0.5
				c-0.1,0,0.9-1,2.2-1c1.4,0,2.5,1.3,2.5,2.8c0,2-1.4,3.6-3.4,3.6c-2,0-3.3-2.1-3.3-4.6c0-3.8,3.7-6.7,7.8-6.7
				c7.5,0,9.5,5.2,9.5,9.4c0,2.7-0.7,4.7-3.2,8.6c-3.1,4.9-10.4,8.5-13,8.5c-0.7,0-1-0.3-1-0.7C8.6,120.2,10.4,119.2,11.7,118.1z
				 M27.8,97.7c0.9,0,1.6,0.7,1.6,1.6s-0.7,1.6-1.6,1.6c-0.9,0-1.6-0.7-1.6-1.6S26.9,97.7,27.8,97.7z M27.8,105.6
				c0.9,0,1.6,0.7,1.6,1.6c0,0.9-0.7,1.6-1.6,1.6c-0.9,0-1.6-0.7-1.6-1.6C26.2,106.3,26.9,105.6,27.8,105.6z"/>
		</g>
	</g>
	<g transform="matrix(0.752953,0,0,0.752953,0,0)">
		<line vector-effect="none" class="st3" x1="0" y1="227.5" x2="956.2" y2="227.5"/>
	</g>
	<g transform="matrix(0.752953,0,0,0.752953,0,0)">
		<line vector-effect="none" class="st3" x1="0" y1="219.5" x2="956.2" y2="219.5"/>
	</g>
	<g transform="matrix(0.752953,0,0,0.752953,0,0)">
		<line vector-effect="none" class="st3" x1="0" y1="211.5" x2="956.2" y2="211.5"/>
	</g>
	<g transform="matrix(0.752953,0,0,0.752953,0,0)">
		<line vector-effect="none" class="st3" x1="0" y1="203.5" x2="956.2" y2="203.5"/>
	</g>
	<g transform="matrix(0.752953,0,0,0.752953,0,0)">
		<line vector-effect="none" class="st3" x1="0" y1="195.5" x2="956.2" y2="195.5"/>
	</g>
	<g transform="matrix(0.752953,0,0,0.752953,0,0)">
		<g class="st2">
			<path d="M11.7,218.4c4.7-4.2,7.6-9.8,7.6-14.9c0-4.1-2.3-7.1-6-7.1c-2.6,0-5.4,2.2-5.4,4.4c0,0.4,0.1,0.5,0.2,0.5
				c-0.1,0,0.9-1,2.2-1c1.4,0,2.5,1.3,2.5,2.8c0,2-1.4,3.6-3.4,3.6c-2,0-3.3-2.1-3.3-4.6c0-3.8,3.7-6.7,7.8-6.7
				c7.5,0,9.5,5.2,9.5,9.4c0,2.7-0.7,4.7-3.2,8.6c-3.1,4.9-10.4,8.5-13,8.5c-0.7,0-1-0.3-1-0.7C8.6,220.4,10.4,219.5,11.7,218.4z
				 M27.8,197.9c0.9,0,1.6,0.7,1.6,1.6s-0.7,1.6-1.6,1.6c-0.9,0-1.6-0.7-1.6-1.6S26.9,197.9,27.8,197.9z M27.8,205.9
				c0.9,0,1.6,0.7,1.6,1.6c0,0.9-0.7,1.6-1.6,1.6c-0.9,0-1.6-0.7-1.6-1.6C26.2,206.6,26.9,205.9,27.8,205.9z"/>
		</g>
	</g>
	<g transform="matrix(0.752953,0,0,0.752953,0,0)">
		<line vector-effect="none" class="st3" x1="0" y1="336.8" x2="956.2" y2="336.8"/>
	</g>
	<g transform="matrix(0.752953,0,0,0.752953,0,0)">
		<line vector-effect="none" class="st3" x1="0" y1="328.8" x2="956.2" y2="328.8"/>
	</g>
	<g transform="matrix(0.752953,0,0,0.752953,0,0)">
		<line vector-effect="none" class="st3" x1="0" y1="320.8" x2="956.2" y2="320.8"/>
	</g>
	<g transform="matrix(0.752953,0,0,0.752953,0,0)">
		<line vector-effect="none" class="st3" x1="0" y1="312.8" x2="956.2" y2="312.8"/>
	</g>
	<g transform="matrix(0.752953,0,0,0.752953,0,0)">
		<line vector-effect="none" class="st3" x1="0" y1="304.8" x2="956.2" y2="304.8"/>
	</g>
	<g transform="matrix(0.752953,0,0,0.752953,0,0)">
		<g class="st2">
			<path d="M11.7,327.6c4.7-4.2,7.6-9.8,7.6-14.9c0-4.1-2.3-7.1-6-7.1c-2.6,0-5.4,2.2-5.4,4.4c0,0.4,0.1,0.5,0.2,0.5
				c-0.1,0,0.9-1,2.2-1c1.4,0,2.5,1.3,2.5,2.8c0,2-1.4,3.6-3.4,3.6c-2,0-3.3-2.1-3.3-4.6c0-3.8,3.7-6.7,7.8-6.7
				c7.5,0,9.5,5.2,9.5,9.4c0,2.7-0.7,4.7-3.2,8.6c-3.1,4.9-10.4,8.5-13,8.5c-0.7,0-1-0.3-1-0.7C8.6,329.7,10.4,328.7,11.7,327.6z
				 M27.8,307.2c0.9,0,1.6,0.7,1.6,1.6s-0.7,1.6-1.6,1.6c-0.9,0-1.6-0.7-1.6-1.6S26.9,307.2,27.8,307.2z M27.8,315.1
				c0.9,0,1.6,0.7,1.6,1.6c0,0.9-0.7,1.6-1.6,1.6c-0.9,0-1.6-0.7-1.6-1.6C26.2,315.8,26.9,315.1,27.8,315.1z"/>
		</g>
	</g>
	<g transform="matrix(0.752953,0,0,0.752953,0,0)">
		<line vector-effect="none" class="st3" x1="0" y1="445.8" x2="956.2" y2="445.8"/>
	</g>
	<g transform="matrix(0.752953,0,0,0.752953,0,0)">
		<line vector-effect="none" class="st3" x1="0" y1="437.8" x2="956.2" y2="437.8"/>
	</g>
	<g transform="matrix(0.752953,0,0,0.752953,0,0)">
		<line vector-effect="none" class="st3" x1="0" y1="429.8" x2="956.2" y2="429.8"/>
	</g>
	<g transform="matrix(0.752953,0,0,0.752953,0,0)">
		<line vector-effect="none" class="st3" x1="0" y1="421.8" x2="956.2" y2="421.8"/>
	</g>
	<g transform="matrix(0.752953,0,0,0.752953,0,0)">
		<line vector-effect="none" class="st3" x1="0" y1="413.8" x2="956.2" y2="413.8"/>
	</g>
	<g transform="matrix(0.752953,0,0,0.752953,0,0)">
		<g class="st2">
			<path d="M11.7,436.6c4.7-4.2,7.6-9.8,7.6-14.9c0-4.1-2.3-7.1-6-7.1c-2.6,0-5.4,2.2-5.4,4.4c0,0.4,0.1,0.5,0.2,0.5
				c-0.1,0,0.9-1,2.2-1c1.4,0,2.5,1.3,2.5,2.8c0,2-1.4,3.6-3.4,3.6c-2,0-3.3-2.1-3.3-4.6c0-3.8,3.7-6.7,7.8-6.7
				c7.5,0,9.5,5.2,9.5,9.4c0,2.7-0.7,4.7-3.2,8.6c-3.1,4.9-10.4,8.5-13,8.5c-0.7,0-1-0.3-1-0.7C8.6,438.7,10.4,437.8,11.7,436.6z
				 M27.8,416.2c0.9,0,1.6,0.7,1.6,1.6s-0.7,1.6-1.6,1.6c-0.9,0-1.6-0.7-1.6-1.6S26.9,416.2,27.8,416.2z M27.8,424.1
				c0.9,0,1.6,0.7,1.6,1.6s-0.7,1.6-1.6,1.6c-0.9,0-1.6-0.7-1.6-1.6S26.9,424.1,27.8,424.1z"/>
		</g>
	</g>
	<g transform="matrix(0.752953,0,0,0.752953,0,0)">
		<line vector-effect="none" class="st3" x1="0" y1="545.5" x2="956.2" y2="545.5"/>
	</g>
	<g transform="matrix(0.752953,0,0,0.752953,0,0)">
		<line vector-effect="none" class="st3" x1="0" y1="537.5" x2="956.2" y2="537.5"/>
	</g>
	<g transform="matrix(0.752953,0,0,0.752953,0,0)">
		<line vector-effect="none" class="st3" x1="0" y1="529.5" x2="956.2" y2="529.5"/>
	</g>
	<g transform="matrix(0.752953,0,0,0.752953,0,0)">
		<line vector-effect="none" class="st3" x1="0" y1="521.5" x2="956.2" y2="521.5"/>
	</g>
	<g transform="matrix(0.752953,0,0,0.752953,0,0)">
		<line vector-effect="none" class="st3" x1="0" y1="513.5" x2="956.2" y2="513.5"/>
	</g>
	<g transform="matrix(0.752953,0,0,0.752953,0,0)">
		<g class="st2">
			<path d="M11.7,536.4c4.7-4.2,7.6-9.8,7.6-14.9c0-4.1-2.3-7.1-6-7.1c-2.6,0-5.4,2.2-5.4,4.4c0,0.4,0.1,0.5,0.2,0.5
				c-0.1,0,0.9-1,2.2-1c1.4,0,2.5,1.3,2.5,2.8c0,2-1.4,3.6-3.4,3.6c-2,0-3.3-2.1-3.3-4.6c0-3.8,3.7-6.7,7.8-6.7
				c7.5,0,9.5,5.2,9.5,9.4c0,2.7-0.7,4.7-3.2,8.6c-3.1,4.9-10.4,8.5-13,8.5c-0.7,0-1-0.3-1-0.7C8.6,538.4,10.4,537.5,11.7,536.4z
				 M27.8,515.9c0.9,0,1.6,0.7,1.6,1.6c0,0.9-0.7,1.6-1.6,1.6c-0.9,0-1.6-0.7-1.6-1.6C26.2,516.6,26.9,515.9,27.8,515.9z
				 M27.8,523.9c0.9,0,1.6,0.7,1.6,1.6c0,0.9-0.7,1.6-1.6,1.6c-0.9,0-1.6-0.7-1.6-1.6C26.2,524.6,26.9,523.9,27.8,523.9z"/>
		</g>
	</g>
	<g transform="matrix(0.752953,0,0,0.752953,0,0)">
		<line vector-effect="none" class="st1" x1="80.2" y1="87.2" x2="97.5" y2="87.2"/>
	</g>
	<g transform="matrix(0.752953,0,0,0.752953,0,0)">
		<line vector-effect="none" class="st3" x1="83.5" y1="88.5" x2="83.5" y2="115.2"/>
	</g>
	<g transform="matrix(0.752953,0,0,0.752953,0,0)">
		<g class="st2">
			<path d="M90.1,82.9c2.7,0,4.4,1.2,4.4,3.2c0,3-3.7,5.4-7.3,5.4c-2.2,0-3.9-1.1-3.9-2.8C83.2,85.8,86.9,82.9,90.1,82.9z M84,89.1
				c0,1,0.6,1.5,1.8,1.5c2.3,0,8-3.4,8-5.2c0-1-0.6-1.5-1.8-1.5C89.9,83.9,84,87.1,84,89.1z"/>
		</g>
	</g>
	<g transform="matrix(0.752953,0,0,0.752953,0,0)">
		<line vector-effect="none" class="st3" x1="188.2" y1="92.5" x2="188.2" y2="119.2"/>
	</g>
	<g transform="matrix(0.752953,0,0,0.752953,0,0)">
		<g class="st2">
			<path d="M194.9,86.9c2.7,0,4.4,1.2,4.4,3.2c0,3-3.7,5.4-7.3,5.4c-2.2,0-3.9-1.1-3.9-2.8C188,89.8,191.6,86.9,194.9,86.9z
				 M188.7,93.1c0,1,0.6,1.5,1.8,1.5c2.3,0,8-3.4,8-5.2c0-1-0.6-1.5-1.8-1.5C194.7,87.9,188.7,91.1,188.7,93.1z"/>
		</g>
	</g>
	<g transform="matrix(0.752953,0,0,0.752953,0,0)">
		<line vector-effect="none" class="st1" x1="301.5" y1="87.2" x2="318.8" y2="87.2"/>
	</g>
	<g transform="matrix(0.752953,0,0,0.752953,0,0)">
		<line vector-effect="none" class="st3" x1="304.8" y1="88.5" x2="304.8" y2="115.2"/>
	</g>
	<g transform="matrix(0.752953,0,0,0.752953,0,0)">
		<g class="st2">
			<path d="M311.4,82.9c2.7,0,4.4,1.2,4.4,3.2c0,3-3.7,5.4-7.3,5.4c-2.2,0-3.9-1.1-3.9-2.8C304.5,85.8,308.1,82.9,311.4,82.9z
				 M305.2,89.1c0,1,0.6,1.5,1.8,1.5c2.3,0,8-3.4,8-5.2c0-1-0.6-1.5-1.8-1.5C311.2,83.9,305.2,87.1,305.2,89.1z"/>
		</g>
	</g>
	<g transform="matrix(0.752953,0,0,0.752953,0,0)">
		<line vector-effect="none" class="st3" x1="409.5" y1="92.5" x2="409.5" y2="119.2"/>
	</g>
	<g transform="matrix(0.752953,0,0,0.752953,0,0)">
		<g class="st2">
			<path d="M416.1,86.9c2.7,0,4.4,1.2,4.4,3.2c0,3-3.7,5.4-7.3,5.4c-2.2,0-3.9-1.1-3.9-2.8C409.3,89.8,412.9,86.9,416.1,86.9z
				 M410,93.1c0,1,0.6,1.5,1.8,1.5c2.3,0,8-3.4,8-5.2c0-1-0.6-1.5-1.8-1.5C415.9,87.9,410,91.1,410,93.1z"/>
		</g>
	</g>
	<g transform="matrix(0.752953,0,0,0.752953,0,0)">
		<line vector-effect="none" class="st1" x1="522.8" y1="87.2" x2="540" y2="87.2"/>
	</g>
	<g transform="matrix(0.752953,0,0,0.752953,0,0)">
		<line vector-effect="none" class="st3" x1="526" y1="84.5" x2="526" y2="111.2"/>
	</g>
	<g transform="matrix(0.752953,0,0,0.752953,0,0)">
		<g class="st2">
			<path d="M532.6,78.9c2.7,0,4.4,1.2,4.4,3.2c0,3-3.7,5.4-7.3,5.4c-2.2,0-3.9-1.1-3.9-2.8C525.8,81.8,529.4,78.9,532.6,78.9z
				 M526.5,85.1c0,1,0.6,1.5,1.8,1.5c2.3,0,8-3.4,8-5.2c0-1-0.6-1.5-1.8-1.5C532.4,79.9,526.5,83.1,526.5,85.1z"/>
		</g>
	</g>
	<g transform="matrix(0.752953,0,0,0.752953,0,0)">
		<line vector-effect="none" class="st1" x1="627.5" y1="87.2" x2="644.8" y2="87.2"/>
	</g>
	<g transform="matrix(0.752953,0,0,0.752953,0,0)">
		<line vector-effect="none" class="st3" x1="630.8" y1="88.5" x2="630.8" y2="115.2"/>
	</g>
	<g transform="matrix(0.752953,0,0,0.752953,0,0)">
		<g class="st2">
			<path d="M637.4,82.9c2.7,0,4.4,1.2,4.4,3.2c0,3-3.7,5.4-7.3,5.4c-2.2,0-3.9-1.1-3.9-2.8C630.5,85.8,634.1,82.9,637.4,82.9z
				 M631.2,89.1c0,1,0.6,1.5,1.8,1.5c2.3,0,8-3.4,8-5.2c0-1-0.6-1.5-1.8-1.5C637.2,83.9,631.2,87.1,631.2,89.1z"/>
		</g>
	</g>
	<g transform="matrix(0.752953,0,0,0.752953,0,0)">
		<g class="st2">
			<path d="M624.6,76.2v4.6l1.7-0.5v2.9l-1.7,0.5v5.5l1.7-0.5v2.9l-1.7,0.5v5h-0.8v-4.8l-3.1,1v4.8h-0.8v-4.6l-1.7,0.5v-2.9l1.7-0.5
				v-5.5l-1.7,0.5v-2.9l1.7-0.5v-5h0.8v4.8l3.1-1v-4.8H624.6z M623.8,84l-3.1,1v5.5l3.1-1V84z"/>
		</g>
	</g>
	<g transform="matrix(0.752953,0,0,0.752953,0,0)">
		<line vector-effect="none" class="st1" x1="744" y1="87.2" x2="761.2" y2="87.2"/>
	</g>
	<g transform="matrix(0.752953,0,0,0.752953,0,0)">
		<line vector-effect="none" class="st3" x1="747.2" y1="84.5" x2="747.2" y2="111.2"/>
	</g>
	<g transform="matrix(0.752953,0,0,0.752953,0,0)">
		<g class="st2">
			<path d="M753.9,78.9c2.7,0,4.4,1.2,4.4,3.2c0,3-3.7,5.4-7.3,5.4c-2.2,0-3.9-1.1-3.9-2.8C747,81.8,750.6,78.9,753.9,78.9z
				 M747.7,85.1c0,1,0.6,1.5,1.8,1.5c2.3,0,8-3.4,8-5.2c0-1-0.6-1.5-1.8-1.5C753.7,79.9,747.7,83.1,747.7,85.1z"/>
		</g>
	</g>
	<g transform="matrix(0.752953,0,0,0.752953,0,0)">
		<line vector-effect="none" class="st1" x1="848.8" y1="87.2" x2="866" y2="87.2"/>
	</g>
	<g transform="matrix(0.752953,0,0,0.752953,0,0)">
		<line vector-effect="none" class="st3" x1="852" y1="88.5" x2="852" y2="115.2"/>
	</g>
	<g transform="matrix(0.752953,0,0,0.752953,0,0)">
		<g class="st2">
			<path d="M858.6,82.9c2.7,0,4.4,1.2,4.4,3.2c0,3-3.7,5.4-7.3,5.4c-2.2,0-3.9-1.1-3.9-2.8C851.8,85.8,855.4,82.9,858.6,82.9z
				 M852.5,89.1c0,1,0.6,1.5,1.8,1.5c2.3,0,8-3.4,8-5.2c0-1-0.6-1.5-1.8-1.5C858.4,83.9,852.5,87.1,852.5,89.1z"/>
		</g>
	</g>
	<g transform="matrix(0.752953,0,0,0.752953,0,0)">
		<g class="st2">
			<path d="M845.8,76.2v4.6l1.7-0.5v2.9l-1.7,0.5v5.5l1.7-0.5v2.9l-1.7,0.5v5H845v-4.8l-3.1,1v4.8h-0.8v-4.6l-1.7,0.5v-2.9l1.7-0.5
				v-5.5l-1.7,0.5v-2.9l1.7-0.5v-5h0.8v4.8l3.1-1v-4.8H845.8z M845,84l-3.1,1v5.5l3.1-1V84z"/>
		</g>
	</g>
	<g transform="matrix(0.752953,0,0,0.752953,0,0)">
		<line vector-effect="none" class="st3" x1="46.2" y1="200.8" x2="46.2" y2="227.5"/>
	</g>
	<g transform="matrix(0.752953,0,0,0.752953,0,0)">
		<g class="st2">
			<path d="M52.9,195.1c2.7,0,4.4,1.2,4.4,3.2c0,3-3.7,5.4-7.3,5.4c-2.2,0-3.9-1.1-3.9-2.8C46,198,49.6,195.1,52.9,195.1z
				 M46.7,201.4c0,1,0.6,1.5,1.8,1.5c2.3,0,8-3.4,8-5.2c0-1-0.6-1.5-1.8-1.5C52.7,196.1,46.7,199.4,46.7,201.4z"/>
		</g>
	</g>
	<g transform="matrix(0.752953,0,0,0.752953,0,0)">
		<line vector-effect="none" class="st3" x1="122.8" y1="204.8" x2="122.8" y2="231.5"/>
	</g>
	<g transform="matrix(0.752953,0,0,0.752953,0,0)">
		<g class="st2">
			<path d="M129.4,199.1c2.7,0,4.4,1.2,4.4,3.2c0,3-3.7,5.4-7.3,5.4c-2.2,0-3.9-1.1-3.9-2.8C122.5,202,126.1,199.1,129.4,199.1z
				 M123.2,205.4c0,1,0.6,1.5,1.8,1.5c2.3,0,8-3.4,8-5.2c0-1-0.6-1.5-1.8-1.5C129.2,200.1,123.2,203.4,123.2,205.4z"/>
		</g>
	</g>
	<g transform="matrix(0.752953,0,0,0.752953,0,0)">
		<g class="st2">
			<path d="M118.6,192.5v4.6l1.7-0.5v2.9l-1.7,0.5v5.5l1.7-0.5v2.9l-1.7,0.5v5h-0.8v-4.8l-3.1,1v4.8h-0.8v-4.6l-1.7,0.5v-2.9
				l1.7-0.5v-5.5l-1.7,0.5v-2.9l1.7-0.5v-5h0.8v4.8l3.1-1v-4.8H118.6z M117.8,200.2l-3.1,1v5.5l3.1-1V200.2z"/>
		</g>
	</g>
	<g transform="matrix(0.752953,0,0,0.752953,0,0)">
		<line vector-effect="none" class="st3" x1="211.2" y1="200.8" x2="211.2" y2="227.5"/>
	</g>
	<g transform="matrix(0.752953,0,0,0.752953,0,0)">
		<g class="st2">
			<path d="M217.9,195.1c2.7,0,4.4,1.2,4.4,3.2c0,3-3.7,5.4-7.3,5.4c-2.2,0-3.9-1.1-3.9-2.8C211,198,214.6,195.1,217.9,195.1z
				 M211.7,201.4c0,1,0.6,1.5,1.8,1.5c2.3,0,8-3.4,8-5.2c0-1-0.6-1.5-1.8-1.5C217.7,196.1,211.7,199.4,211.7,201.4z"/>
		</g>
	</g>
	<g transform="matrix(0.752953,0,0,0.752953,0,0)">
		<g class="st2">
			<path d="M201.5,186.1h1l-0.2,10.1c0.6-1.1,1.6-1.6,3-1.6c1.9,0,3.6,1.3,3.6,3.1c-0.1,1.2-0.8,2.8-2.8,4.3l-4.5,3.3V186.1z
				 M202.4,197.2c-0.1,1.2-0.2,2.3-0.2,3.1c0,1.6,0.1,2.6,0.2,3.2c1.7-1.1,3.9-4.3,3.9-5.9c0-1-0.8-1.7-1.8-1.7
				C203.6,195.9,202.9,196.3,202.4,197.2z"/>
		</g>
	</g>
	<g transform="matrix(0.752953,0,0,0.752953,0,0)">
		<line vector-effect="none" class="st3" x1="287.5" y1="204.8" x2="287.5" y2="231.5"/>
	</g>
	<g transform="matrix(0.752953,0,0,0.752953,0,0)">
		<g class="st2">
			<path d="M294.1,199.1c2.7,0,4.4,1.2,4.4,3.2c0,3-3.7,5.4-7.3,5.4c-2.2,0-3.9-1.1-3.9-2.8C287.2,202,290.9,199.1,294.1,199.1z
				 M288,205.4c0,1,0.6,1.5,1.8,1.5c2.3,0,8-3.4,8-5.2c0-1-0.6-1.5-1.8-1.5C293.9,200.1,288,203.4,288,205.4z"/>
		</g>
	</g>
	<g transform="matrix(0.752953,0,0,0.752953,0,0)">
		<line vector-effect="none" class="st3" x1="376" y1="192.8" x2="376" y2="219.5"/>
	</g>
	<g transform="matrix(0.752953,0,0,0.752953,0,0)">
		<g class="st2">
			<path d="M382.6,187.1c2.7,0,4.4,1.2,4.4,3.2c0,3-3.7,5.4-7.3,5.4c-2.2,0-3.9-1.1-3.9-2.8C375.7,190,379.4,187.1,382.6,187.1z
				 M376.5,193.4c0,1,0.6,1.5,1.8,1.5c2.3,0,8-3.4,8-5.2c0-1-0.6-1.5-1.8-1.5C382.4,188.1,376.5,191.4,376.5,193.4z"/>
		</g>
	</g>
	<g transform="matrix(0.752953,0,0,0.752953,0,0)">
		<line vector-effect="none" class="st1" x1="449.2" y1="187.5" x2="466.5" y2="187.5"/>
	</g>
	<g transform="matrix(0.752953,0,0,0.752953,0,0)">
		<line vector-effect="none" class="st3" x1="452.5" y1="188.8" x2="452.5" y2="215.5"/>
	</g>
	<g transform="matrix(0.752953,0,0,0.752953,0,0)">
		<g class="st2">
			<path d="M459.1,183.1c2.7,0,4.4,1.2,4.4,3.2c0,3-3.7,5.4-7.3,5.4c-2.2,0-3.9-1.1-3.9-2.8C452.3,186,455.9,183.1,459.1,183.1z
				 M453,189.4c0,1,0.6,1.5,1.8,1.5c2.3,0,8-3.4,8-5.2c0-1-0.6-1.5-1.8-1.5C458.9,184.1,453,187.4,453,189.4z"/>
		</g>
	</g>
	<g transform="matrix(0.752953,0,0,0.752953,0,0)">
		<line vector-effect="none" class="st1" x1="537.8" y1="187.5" x2="555" y2="187.5"/>
	</g>
	<g transform="matrix(0.752953,0,0,0.752953,0,0)">
		<line vector-effect="none" class="st3" x1="541" y1="184.8" x2="541" y2="211.5"/>
	</g>
	<g transform="matrix(0.752953,0,0,0.752953,0,0)">
		<g class="st2">
			<path d="M547.6,179.1c2.7,0,4.4,1.2,4.4,3.2c0,3-3.7,5.4-7.3,5.4c-2.2,0-3.9-1.1-3.9-2.8C540.7,182,544.4,179.1,547.6,179.1z
				 M541.5,185.4c0,1,0.6,1.5,1.8,1.5c2.3,0,8-3.4,8-5.2c0-1-0.6-1.5-1.8-1.5C547.4,180.1,541.5,183.4,541.5,185.4z"/>
		</g>
	</g>
	<g transform="matrix(0.752953,0,0,0.752953,0,0)">
		<line vector-effect="none" class="st1" x1="614.2" y1="187.5" x2="631.5" y2="187.5"/>
	</g>
	<g transform="matrix(0.752953,0,0,0.752953,0,0)">
		<line vector-effect="none" class="st3" x1="617.5" y1="188.8" x2="617.5" y2="215.5"/>
	</g>
	<g transform="matrix(0.752953,0,0,0.752953,0,0)">
		<g class="st2">
			<path d="M624.1,183.1c2.7,0,4.4,1.2,4.4,3.2c0,3-3.7,5.4-7.3,5.4c-2.2,0-3.9-1.1-3.9-2.8C617.3,186,620.9,183.1,624.1,183.1z
				 M618,189.4c0,1,0.6,1.5,1.8,1.5c2.3,0,8-3.4,8-5.2c0-1-0.6-1.5-1.8-1.5C623.9,184.1,618,187.4,618,189.4z"/>
		</g>
	</g>
	<g transform="matrix(0.752953,0,0,0.752953,0,0)">
		<g class="st2">
			<path d="M611.3,176.5v4.6l1.7-0.5v2.9l-1.7,0.5v5.5l1.7-0.5v2.9l-1.7,0.5v5h-0.8v-4.8l-3.1,1v4.8h-0.8v-4.6l-1.7,0.5v-2.9
				l1.7-0.5v-5.5L605,186v-2.9l1.7-0.5v-5h0.8v4.8l3.1-1v-4.8H611.3z M610.5,184.2l-3.1,1v5.5l3.1-1V184.2z"/>
		</g>
	</g>
	<g transform="matrix(0.752953,0,0,0.752953,0,0)">
		<g class="st2">
			<path d="M731.6,187.2c3.6,0,7.3,1.9,7.3,4.3c0,2.7-3.1,4.3-7.6,4.3c-4.1,0-7.3-1.7-7.3-4.3C724,188.9,727.7,187.2,731.6,187.2z
				 M734.7,190.6c-1-1.9-2-2.7-4.2-2.7c-2,0-3.1,0.8-3.1,2.5c0,2.4,2.2,4.8,4.2,4.8c1.9,0,3.4-0.2,3.8-2
				C735.5,192.4,735.2,191.6,734.7,190.6z"/>
		</g>
	</g>
	<g transform="matrix(0.752953,0,0,0.752953,0,0)">
		<g class="st2">
			<path d="M848.9,187.2c3.6,0,7.3,1.9,7.3,4.3c0,2.7-3.1,4.3-7.6,4.3c-4.1,0-7.3-1.7-7.3-4.3C841.3,188.9,845,187.2,848.9,187.2z
				 M852,190.6c-1-1.9-2-2.7-4.2-2.7c-2,0-3.1,0.8-3.1,2.5c0,2.4,2.2,4.8,4.2,4.8c1.9,0,3.4-0.2,3.8-2
				C852.7,192.4,852.4,191.6,852,190.6z"/>
		</g>
	</g>
	<g transform="matrix(0.752953,0,0,0.752953,0,0)">
		<line vector-effect="none" class="st3" x1="46.2" y1="314" x2="46.2" y2="340.8"/>
	</g>
	<g transform="matrix(0.752953,0,0,0.752953,0,0)">
		<g class="st2">
			<path d="M52.9,308.4c2.7,0,4.4,1.2,4.4,3.2c0,3-3.7,5.4-7.3,5.4c-2.2,0-3.9-1.1-3.9-2.8C46,311.3,49.6,308.4,52.9,308.4z
				 M46.7,314.6c0,1,0.6,1.5,1.8,1.5c2.3,0,8-3.4,8-5.2c0-1-0.6-1.5-1.8-1.5C52.7,309.4,46.7,312.6,46.7,314.6z"/>
		</g>
	</g>
	<g transform="matrix(0.752953,0,0,0.752953,0,0)">
		<line vector-effect="none" class="st3" x1="125.2" y1="318" x2="125.2" y2="344.8"/>
	</g>
	<g transform="matrix(0.752953,0,0,0.752953,0,0)">
		<g class="st2">
			<path d="M131.9,312.4c2.7,0,4.4,1.2,4.4,3.2c0,3-3.7,5.4-7.3,5.4c-2.2,0-3.9-1.1-3.9-2.8C125,315.3,128.6,312.4,131.9,312.4z
				 M125.7,318.6c0,1,0.6,1.5,1.8,1.5c2.3,0,8-3.4,8-5.2c0-1-0.6-1.5-1.8-1.5C131.7,313.4,125.7,316.6,125.7,318.6z"/>
		</g>
	</g>
	<g transform="matrix(0.752953,0,0,0.752953,0,0)">
		<line vector-effect="none" class="st3" x1="216.2" y1="314" x2="216.2" y2="340.8"/>
	</g>
	<g transform="matrix(0.752953,0,0,0.752953,0,0)">
		<g class="st2">
			<path d="M222.9,308.4c2.7,0,4.4,1.2,4.4,3.2c0,3-3.7,5.4-7.3,5.4c-2.2,0-3.9-1.1-3.9-2.8C216,311.3,219.6,308.4,222.9,308.4z
				 M216.7,314.6c0,1,0.6,1.5,1.8,1.5c2.3,0,8-3.4,8-5.2c0-1-0.6-1.5-1.8-1.5C222.7,309.4,216.7,312.6,216.7,314.6z"/>
		</g>
	</g>
	<g transform="matrix(0.752953,0,0,0.752953,0,0)">
		<line vector-effect="none" class="st3" x1="295.2" y1="318" x2="295.2" y2="344.8"/>
	</g>
	<g transform="matrix(0.752953,0,0,0.752953,0,0)">
		<g class="st2">
			<path d="M301.9,312.4c2.7,0,4.4,1.2,4.4,3.2c0,3-3.7,5.4-7.3,5.4c-2.2,0-3.9-1.1-3.9-2.8C295,315.3,298.6,312.4,301.9,312.4z
				 M295.7,318.6c0,1,0.6,1.5,1.8,1.5c2.3,0,8-3.4,8-5.2c0-1-0.6-1.5-1.8-1.5C301.7,313.4,295.7,316.6,295.7,318.6z"/>
		</g>
	</g>
	<g transform="matrix(0.752953,0,0,0.752953,0,0)">
		<g class="st2">
			<path d="M393.9,312.4c3.6,0,7.3,1.9,7.3,4.3c0,2.7-3.1,4.3-7.6,4.3c-4.1,0-7.3-1.7-7.3-4.3C386.3,314.2,390,312.4,393.9,312.4z
				 M397,315.9c-1-1.9-2-2.7-4.2-2.7c-2,0-3.1,0.8-3.1,2.5c0,2.4,2.2,4.8,4.2,4.8c1.9,0,3.4-0.2,3.8-2
				C397.7,317.6,397.4,316.8,397,315.9z"/>
		</g>
	</g>
	<g transform="matrix(0.752953,0,0,0.752953,0,0)">
		<g class="st2">
			<path d="M514.9,312.4c3.6,0,7.3,1.9,7.3,4.3c0,2.7-3.1,4.3-7.6,4.3c-4.1,0-7.3-1.7-7.3-4.3C507.3,314.2,511,312.4,514.9,312.4z
				 M518,315.9c-1-1.9-2-2.7-4.2-2.7c-2,0-3.1,0.8-3.1,2.5c0,2.4,2.2,4.8,4.2,4.8c1.9,0,3.4-0.2,3.8-2
				C518.7,317.6,518.4,316.8,518,315.9z"/>
		</g>
	</g>
	<g transform="matrix(0.752953,0,0,0.752953,0,0)">
		<line vector-effect="none" class="st3" x1="628.2" y1="310" x2="628.2" y2="336.8"/>
	</g>
	<g transform="matrix(0.752953,0,0,0.752953,0,0)">
		<g class="st2">
			<path d="M634.9,304.4c2.7,0,4.4,1.2,4.4,3.2c0,3-3.7,5.4-7.3,5.4c-2.2,0-3.9-1.1-3.9-2.8C628,307.3,631.6,304.4,634.9,304.4z
				 M628.7,310.6c0,1,0.6,1.5,1.8,1.5c2.3,0,8-3.4,8-5.2c0-1-0.6-1.5-1.8-1.5C634.7,305.4,628.7,308.6,628.7,310.6z"/>
		</g>
	</g>
	<g transform="matrix(0.752953,0,0,0.752953,0,0)">
		<line vector-effect="none" class="st3" x1="707.5" y1="314" x2="707.5" y2="340.8"/>
	</g>
	<g transform="matrix(0.752953,0,0,0.752953,0,0)">
		<g class="st2">
			<path d="M714.1,308.4c2.7,0,4.4,1.2,4.4,3.2c0,3-3.7,5.4-7.3,5.4c-2.2,0-3.9-1.1-3.9-2.8C707.3,311.3,710.9,308.4,714.1,308.4z
				 M708,314.6c0,1,0.6,1.5,1.8,1.5c2.3,0,8-3.4,8-5.2c0-1-0.6-1.5-1.8-1.5C713.9,309.4,708,312.6,708,314.6z"/>
		</g>
	</g>
	<g transform="matrix(0.752953,0,0,0.752953,0,0)">
		<g class="st2">
			<path d="M703.3,301.7v4.6l1.7-0.5v2.9l-1.7,0.5v5.5l1.7-0.5v2.9l-1.7,0.5v5h-0.8v-4.8l-3.1,1v4.8h-0.8v-4.6l-1.7,0.5v-2.9
				l1.7-0.5v-5.5l-1.7,0.5v-2.9l1.7-0.5v-5h0.8v4.8l3.1-1v-4.8H703.3z M702.5,309.5l-3.1,1v5.5l3.1-1V309.5z"/>
		</g>
	</g>
	<g transform="matrix(0.752953,0,0,0.752953,0,0)">
		<line vector-effect="none" class="st3" x1="798.5" y1="310" x2="798.5" y2="336.8"/>
	</g>
	<g transform="matrix(0.752953,0,0,0.752953,0,0)">
		<g class="st2">
			<path d="M805.1,304.4c2.7,0,4.4,1.2,4.4,3.2c0,3-3.7,5.4-7.3,5.4c-2.2,0-3.9-1.1-3.9-2.8C798.3,307.3,801.9,304.4,805.1,304.4z
				 M799,310.6c0,1,0.6,1.5,1.8,1.5c2.3,0,8-3.4,8-5.2c0-1-0.6-1.5-1.8-1.5C804.9,305.4,799,308.6,799,310.6z"/>
		</g>
	</g>
	<g transform="matrix(0.752953,0,0,0.752953,0,0)">
		<line vector-effect="none" class="st3" x1="877.5" y1="314" x2="877.5" y2="340.8"/>
	</g>
	<g transform="matrix(0.752953,0,0,0.752953,0,0)">
		<g class="st2">
			<path d="M884.1,308.4c2.7,0,4.4,1.2,4.4,3.2c0,3-3.7,5.4-7.3,5.4c-2.2,0-3.9-1.1-3.9-2.8C877.3,311.3,880.9,308.4,884.1,308.4z
				 M878,314.6c0,1,0.6,1.5,1.8,1.5c2.3,0,8-3.4,8-5.2c0-1-0.6-1.5-1.8-1.5C883.9,309.4,878,312.6,878,314.6z"/>
		</g>
	</g>
	<g transform="matrix(0.752953,0,0,0.752953,0,0)">
		<g class="st2">
			<path d="M873.3,301.7v4.6l1.7-0.5v2.9l-1.7,0.5v5.5l1.7-0.5v2.9l-1.7,0.5v5h-0.8v-4.8l-3.1,1v4.8h-0.8v-4.6l-1.7,0.5v-2.9
				l1.7-0.5v-5.5l-1.7,0.5v-2.9l1.7-0.5v-5h0.8v4.8l3.1-1v-4.8H873.3z M872.5,309.5l-3.1,1v5.5l3.1-1V309.5z"/>
		</g>
	</g>
	<g transform="matrix(0.752953,0,0,0.752953,0,0)">
		<line vector-effect="none" class="st3" x1="46.2" y1="411" x2="46.2" y2="437.8"/>
	</g>
	<g transform="matrix(0.752953,0,0,0.752953,0,0)">
		<g class="st2">
			<path d="M52.9,405.4c2.7,0,4.4,1.2,4.4,3.2c0,3-3.7,5.4-7.3,5.4c-2.2,0-3.9-1.1-3.9-2.8C46,408.3,49.6,405.4,52.9,405.4z
				 M46.7,411.6c0,1,0.6,1.5,1.8,1.5c2.3,0,8-3.4,8-5.2c0-1-0.6-1.5-1.8-1.5C52.7,406.4,46.7,409.6,46.7,411.6z"/>
		</g>
	</g>
	<g transform="matrix(0.752953,0,0,0.752953,0,0)">
		<line vector-effect="none" class="st1" x1="134" y1="405.8" x2="151.2" y2="405.8"/>
	</g>
	<g transform="matrix(0.752953,0,0,0.752953,0,0)">
		<line vector-effect="none" class="st3" x1="137.2" y1="407" x2="137.2" y2="433.8"/>
	</g>
	<g transform="matrix(0.752953,0,0,0.752953,0,0)">
		<g class="st2">
			<path d="M143.9,401.4c2.7,0,4.4,1.2,4.4,3.2c0,3-3.7,5.4-7.3,5.4c-2.2,0-3.9-1.1-3.9-2.8C137,404.3,140.6,401.4,143.9,401.4z
				 M137.7,407.6c0,1,0.6,1.5,1.8,1.5c2.3,0,8-3.4,8-5.2c0-1-0.6-1.5-1.8-1.5C143.7,402.4,137.7,405.6,137.7,407.6z"/>
		</g>
	</g>
	<g transform="matrix(0.752953,0,0,0.752953,0,0)">
		<g class="st2">
			<path d="M247.4,405.4c3.6,0,7.3,1.9,7.3,4.3c0,2.7-3.1,4.3-7.6,4.3c-4.1,0-7.3-1.7-7.3-4.3C239.8,407.2,243.5,405.4,247.4,405.4z
				 M250.5,408.9c-1-1.9-2-2.7-4.2-2.7c-2,0-3.1,0.8-3.1,2.5c0,2.4,2.2,4.8,4.2,4.8c1.9,0,3.4-0.2,3.8-2
				C251.2,410.6,250.9,409.8,250.5,408.9z"/>
		</g>
	</g>
	<g transform="matrix(0.752953,0,0,0.752953,0,0)">
		<line vector-effect="none" class="st1" x1="383.8" y1="405.8" x2="401" y2="405.8"/>
	</g>
	<g transform="matrix(0.752953,0,0,0.752953,0,0)">
		<line vector-effect="none" class="st3" x1="387" y1="407" x2="387" y2="433.8"/>
	</g>
	<g transform="matrix(0.752953,0,0,0.752953,0,0)">
		<g class="st2">
			<path d="M393.6,401.4c2.7,0,4.4,1.2,4.4,3.2c0,3-3.7,5.4-7.3,5.4c-2.2,0-3.9-1.1-3.9-2.8C386.8,404.3,390.4,401.4,393.6,401.4z
				 M387.5,407.6c0,1,0.6,1.5,1.8,1.5c2.3,0,8-3.4,8-5.2c0-1-0.6-1.5-1.8-1.5C393.4,402.4,387.5,405.6,387.5,407.6z"/>
		</g>
	</g>
	<g transform="matrix(0.752953,0,0,0.752953,0,0)">
		<line vector-effect="none" class="st3" x1="478" y1="411" x2="478" y2="437.8"/>
	</g>
	<g transform="matrix(0.752953,0,0,0.752953,0,0)">
		<g class="st2">
			<path d="M484.6,405.4c2.7,0,4.4,1.2,4.4,3.2c0,3-3.7,5.4-7.3,5.4c-2.2,0-3.9-1.1-3.9-2.8C477.8,408.3,481.4,405.4,484.6,405.4z
				 M478.5,411.6c0,1,0.6,1.5,1.8,1.5c2.3,0,8-3.4,8-5.2c0-1-0.6-1.5-1.8-1.5C484.4,406.4,478.5,409.6,478.5,411.6z"/>
		</g>
	</g>
	<g transform="matrix(0.752953,0,0,0.752953,0,0)">
		<line vector-effect="none" class="st1" x1="577.5" y1="405.8" x2="594.8" y2="405.8"/>
	</g>
	<g transform="matrix(0.752953,0,0,0.752953,0,0)">
		<line vector-effect="none" class="st3" x1="580.8" y1="407" x2="580.8" y2="433.8"/>
	</g>
	<g transform="matrix(0.752953,0,0,0.752953,0,0)">
		<g class="st2">
			<path d="M587.4,401.4c2.7,0,4.4,1.2,4.4,3.2c0,3-3.7,5.4-7.3,5.4c-2.2,0-3.9-1.1-3.9-2.8C580.5,404.3,584.1,401.4,587.4,401.4z
				 M581.2,407.6c0,1,0.6,1.5,1.8,1.5c2.3,0,8-3.4,8-5.2c0-1-0.6-1.5-1.8-1.5C587.2,402.4,581.2,405.6,581.2,407.6z"/>
		</g>
	</g>
	<g transform="matrix(0.752953,0,0,0.752953,0,0)">
		<line vector-effect="none" class="st3" x1="671.8" y1="411" x2="671.8" y2="437.8"/>
	</g>
	<g transform="matrix(0.752953,0,0,0.752953,0,0)">
		<g class="st2">
			<path d="M678.4,405.4c2.7,0,4.4,1.2,4.4,3.2c0,3-3.7,5.4-7.3,5.4c-2.2,0-3.9-1.1-3.9-2.8C671.5,408.3,675.1,405.4,678.4,405.4z
				 M672.2,411.6c0,1,0.6,1.5,1.8,1.5c2.3,0,8-3.4,8-5.2c0-1-0.6-1.5-1.8-1.5C678.2,406.4,672.2,409.6,672.2,411.6z"/>
		</g>
	</g>
	<g transform="matrix(0.752953,0,0,0.752953,0,0)">
		<line vector-effect="none" class="st1" x1="771.5" y1="405.8" x2="788.8" y2="405.8"/>
	</g>
	<g transform="matrix(0.752953,0,0,0.752953,0,0)">
		<line vector-effect="none" class="st3" x1="774.8" y1="403" x2="774.8" y2="429.8"/>
	</g>
	<g transform="matrix(0.752953,0,0,0.752953,0,0)">
		<g class="st2">
			<path d="M781.4,397.4c2.7,0,4.4,1.2,4.4,3.2c0,3-3.7,5.4-7.3,5.4c-2.2,0-3.9-1.1-3.9-2.8C774.5,400.3,778.1,397.4,781.4,397.4z
				 M775.2,403.6c0,1,0.6,1.5,1.8,1.5c2.3,0,8-3.4,8-5.2c0-1-0.6-1.5-1.8-1.5C781.2,398.4,775.2,401.6,775.2,403.6z"/>
		</g>
	</g>
	<g transform="matrix(0.752953,0,0,0.752953,0,0)">
		<line vector-effect="none" class="st1" x1="862.2" y1="405.8" x2="879.5" y2="405.8"/>
	</g>
	<g transform="matrix(0.752953,0,0,0.752953,0,0)">
		<line vector-effect="none" class="st3" x1="865.5" y1="407" x2="865.5" y2="433.8"/>
	</g>
	<g transform="matrix(0.752953,0,0,0.752953,0,0)">
		<g class="st2">
			<path d="M872.1,401.4c2.7,0,4.4,1.2,4.4,3.2c0,3-3.7,5.4-7.3,5.4c-2.2,0-3.9-1.1-3.9-2.8C865.2,404.3,868.9,401.4,872.1,401.4z
				 M866,407.6c0,1,0.6,1.5,1.8,1.5c2.3,0,8-3.4,8-5.2c0-1-0.6-1.5-1.8-1.5C871.9,402.4,866,405.6,866,407.6z"/>
		</g>
	</g>
	<g transform="matrix(0.752953,0,0,0.752953,0,0)">
		<g class="st2">
			<path d="M859.3,394.7v4.6l1.7-0.5v2.9l-1.7,0.5v5.5l1.7-0.5v2.9l-1.7,0.5v5h-0.8v-4.8l-3.1,1v4.8h-0.8v-4.6l-1.7,0.5v-2.9
				l1.7-0.5v-5.5l-1.7,0.5v-2.9l1.7-0.5v-5h0.8v4.8l3.1-1v-4.8H859.3z M858.5,402.5l-3.1,1v5.5l3.1-1V402.5z"/>
		</g>
	</g>
	<g transform="matrix(0.752953,0,0,0.752953,0,0)">
		<line vector-effect="none" class="st1" x1="43" y1="505.5" x2="60.2" y2="505.5"/>
	</g>
	<g transform="matrix(0.752953,0,0,0.752953,0,0)">
		<line vector-effect="none" class="st3" x1="46.2" y1="502.8" x2="46.2" y2="529.5"/>
	</g>
	<g transform="matrix(0.752953,0,0,0.752953,0,0)">
		<g class="st2">
			<path d="M52.9,497.1c2.7,0,4.4,1.2,4.4,3.2c0,3-3.7,5.4-7.3,5.4c-2.2,0-3.9-1.1-3.9-2.8C46,500,49.6,497.1,52.9,497.1z
				 M46.7,503.4c0,1,0.6,1.5,1.8,1.5c2.3,0,8-3.4,8-5.2c0-1-0.6-1.5-1.8-1.5C52.7,498.1,46.7,501.4,46.7,503.4z"/>
		</g>
	</g>
	<g transform="matrix(0.752953,0,0,0.752953,0,0)">
		<line vector-effect="none" class="st1" x1="128" y1="505.5" x2="145.2" y2="505.5"/>
	</g>
	<g transform="matrix(0.752953,0,0,0.752953,0,0)">
		<line vector-effect="none" class="st3" x1="131.2" y1="506.8" x2="131.2" y2="533.5"/>
	</g>
	<g transform="matrix(0.752953,0,0,0.752953,0,0)">
		<g class="st2">
			<path d="M137.9,501.1c2.7,0,4.4,1.2,4.4,3.2c0,3-3.7,5.4-7.3,5.4c-2.2,0-3.9-1.1-3.9-2.8C131,504,134.6,501.1,137.9,501.1z
				 M131.7,507.4c0,1,0.6,1.5,1.8,1.5c2.3,0,8-3.4,8-5.2c0-1-0.6-1.5-1.8-1.5C137.7,502.1,131.7,505.4,131.7,507.4z"/>
		</g>
	</g>
	<g transform="matrix(0.752953,0,0,0.752953,0,0)">
		<g class="st2">
			<path d="M125.1,494.5v4.6l1.7-0.5v2.9l-1.7,0.5v5.5l1.7-0.5v2.9l-1.7,0.5v5h-0.8v-4.8l-3.1,1v4.8h-0.8v-4.6l-1.7,0.5v-2.9
				l1.7-0.5v-5.5l-1.7,0.5v-2.9l1.7-0.5v-5h0.8v4.8l3.1-1v-4.8H125.1z M124.3,502.2l-3.1,1v5.5l3.1-1V502.2z"/>
		</g>
	</g>
	<g transform="matrix(0.752953,0,0,0.752953,0,0)">
		<line vector-effect="none" class="st3" x1="228.2" y1="518.8" x2="228.2" y2="545.5"/>
	</g>
	<g transform="matrix(0.752953,0,0,0.752953,0,0)">
		<g class="st2">
			<path d="M234.9,513.1c2.7,0,4.4,1.2,4.4,3.2c0,3-3.7,5.4-7.3,5.4c-2.2,0-3.9-1.1-3.9-2.8C228,516,231.6,513.1,234.9,513.1z
				 M228.7,519.4c0,1,0.6,1.5,1.8,1.5c2.3,0,8-3.4,8-5.2c0-1-0.6-1.5-1.8-1.5C234.7,514.1,228.7,517.4,228.7,519.4z"/>
		</g>
	</g>
	<g transform="matrix(0.752953,0,0,0.752953,0,0)">
		<line vector-effect="none" class="st3" x1="313.2" y1="522.8" x2="313.2" y2="549.5"/>
	</g>
	<g transform="matrix(0.752953,0,0,0.752953,0,0)">
		<g class="st2">
			<path d="M319.9,517.1c2.7,0,4.4,1.2,4.4,3.2c0,3-3.7,5.4-7.3,5.4c-2.2,0-3.9-1.1-3.9-2.8C313,520,316.6,517.1,319.9,517.1z
				 M313.7,523.4c0,1,0.6,1.5,1.8,1.5c2.3,0,8-3.4,8-5.2c0-1-0.6-1.5-1.8-1.5C319.7,518.1,313.7,521.4,313.7,523.4z"/>
		</g>
	</g>
	<g transform="matrix(0.752953,0,0,0.752953,0,0)">
		<g class="st2">
			<path d="M309.1,510.5v4.6l1.7-0.5v2.9l-1.7,0.5v5.5l1.7-0.5v2.9l-1.7,0.5v5h-0.8v-4.8l-3.1,1v4.8h-0.8v-4.6l-1.7,0.5v-2.9
				l1.7-0.5v-5.5l-1.7,0.5v-2.9l1.7-0.5v-5h0.8v4.8l3.1-1v-4.8H309.1z M308.3,518.2l-3.1,1v5.5l3.1-1V518.2z"/>
		</g>
	</g>
	<g transform="matrix(0.752953,0,0,0.752953,0,0)">
		<line vector-effect="none" class="st3" x1="410.2" y1="518.8" x2="410.2" y2="545.5"/>
	</g>
	<g transform="matrix(0.752953,0,0,0.752953,0,0)">
		<g class="st2">
			<path d="M416.9,513.1c2.7,0,4.4,1.2,4.4,3.2c0,3-3.7,5.4-7.3,5.4c-2.2,0-3.9-1.1-3.9-2.8C410,516,413.6,513.1,416.9,513.1z
				 M410.7,519.4c0,1,0.6,1.5,1.8,1.5c2.3,0,8-3.4,8-5.2c0-1-0.6-1.5-1.8-1.5C416.7,514.1,410.7,517.4,410.7,519.4z"/>
		</g>
	</g>
	<g transform="matrix(0.752953,0,0,0.752953,0,0)">
		<g class="st2">
			<path d="M400.5,504.1h1l-0.2,10.1c0.6-1.1,1.6-1.6,3-1.6c1.9,0,3.6,1.3,3.6,3.1c-0.1,1.2-0.8,2.8-2.8,4.3l-4.5,3.3V504.1z
				 M401.4,515.2c-0.1,1.2-0.2,2.3-0.2,3.1c0,1.6,0.1,2.6,0.2,3.2c1.7-1.1,3.9-4.3,3.9-5.9c0-1-0.8-1.7-1.8-1.7
				C402.6,513.9,401.9,514.3,401.4,515.2z"/>
		</g>
	</g>
	<g transform="matrix(0.752953,0,0,0.752953,0,0)">
		<line vector-effect="none" class="st3" x1="495.2" y1="522.8" x2="495.2" y2="549.5"/>
	</g>
	<g transform="matrix(0.752953,0,0,0.752953,0,0)">
		<g class="st2">
			<path d="M501.9,517.1c2.7,0,4.4,1.2,4.4,3.2c0,3-3.7,5.4-7.3,5.4c-2.2,0-3.9-1.1-3.9-2.8C495,520,498.6,517.1,501.9,517.1z
				 M495.7,523.4c0,1,0.6,1.5,1.8,1.5c2.3,0,8-3.4,8-5.2c0-1-0.6-1.5-1.8-1.5C501.7,518.1,495.7,521.4,495.7,523.4z"/>
		</g>
	</g>
	<g transform="matrix(0.752953,0,0,0.752953,0,0)">
		<line vector-effect="none" class="st3" x1="592.2" y1="510.8" x2="592.2" y2="537.5"/>
	</g>
	<g transform="matrix(0.752953,0,0,0.752953,0,0)">
		<g class="st2">
			<path d="M598.9,505.1c2.7,0,4.4,1.2,4.4,3.2c0,3-3.7,5.4-7.3,5.4c-2.2,0-3.9-1.1-3.9-2.8C592,508,595.6,505.1,598.9,505.1z
				 M592.7,511.4c0,1,0.6,1.5,1.8,1.5c2.3,0,8-3.4,8-5.2c0-1-0.6-1.5-1.8-1.5C598.7,506.1,592.7,509.4,592.7,511.4z"/>
		</g>
	</g>
	<g transform="matrix(0.752953,0,0,0.752953,0,0)">
		<line vector-effect="none" class="st1" x1="674" y1="505.5" x2="691.2" y2="505.5"/>
	</g>
	<g transform="matrix(0.752953,0,0,0.752953,0,0)">
		<line vector-effect="none" class="st3" x1="677.2" y1="506.8" x2="677.2" y2="533.5"/>
	</g>
	<g transform="matrix(0.752953,0,0,0.752953,0,0)">
		<g class="st2">
			<path d="M683.9,501.1c2.7,0,4.4,1.2,4.4,3.2c0,3-3.7,5.4-7.3,5.4c-2.2,0-3.9-1.1-3.9-2.8C677,504,680.6,501.1,683.9,501.1z
				 M677.7,507.4c0,1,0.6,1.5,1.8,1.5c2.3,0,8-3.4,8-5.2c0-1-0.6-1.5-1.8-1.5C683.7,502.1,677.7,505.4,677.7,507.4z"/>
		</g>
	</g>
	<g transform="matrix(0.752953,0,0,0.752953,0,0)">
		<line vector-effect="none" class="st1" x1="771" y1="505.5" x2="788.2" y2="505.5"/>
	</g>
	<g transform="matrix(0.752953,0,0,0.752953,0,0)">
		<line vector-effect="none" class="st3" x1="774.2" y1="502.8" x2="774.2" y2="529.5"/>
	</g>
	<g transform="matrix(0.752953,0,0,0.752953,0,0)">
		<g class="st2">
			<path d="M780.9,497.1c2.7,0,4.4,1.2,4.4,3.2c0,3-3.7,5.4-7.3,5.4c-2.2,0-3.9-1.1-3.9-2.8C774,500,777.6,497.1,780.9,497.1z
				 M774.7,503.4c0,1,0.6,1.5,1.8,1.5c2.3,0,8-3.4,8-5.2c0-1-0.6-1.5-1.8-1.5C780.7,498.1,774.7,501.4,774.7,503.4z"/>
		</g>
	</g>
	<g transform="matrix(0.752953,0,0,0.752953,0,0)">
		<line vector-effect="none" class="st1" x1="856" y1="505.5" x2="873.2" y2="505.5"/>
	</g>
	<g transform="matrix(0.752953,0,0,0.752953,0,0)">
		<line vector-effect="none" class="st3" x1="859.2" y1="506.8" x2="859.2" y2="533.5"/>
	</g>
	<g transform="matrix(0.752953,0,0,0.752953,0,0)">
		<g class="st2">
			<path d="M865.9,501.1c2.7,0,4.4,1.2,4.4,3.2c0,3-3.7,5.4-7.3,5.4c-2.2,0-3.9-1.1-3.9-2.8C859,504,862.6,501.1,865.9,501.1z
				 M859.7,507.4c0,1,0.6,1.5,1.8,1.5c2.3,0,8-3.4,8-5.2c0-1-0.6-1.5-1.8-1.5C865.7,502.1,859.7,505.4,859.7,507.4z"/>
		</g>
	</g>
	<g transform="matrix(0.752953,0,0,0.752953,0,0)">
		<g class="st2">
			<path d="M853.1,494.5v4.6l1.7-0.5v2.9l-1.7,0.5v5.5l1.7-0.5v2.9l-1.7,0.5v5h-0.8v-4.8l-3.1,1v4.8h-0.8v-4.6l-1.7,0.5v-2.9
				l1.7-0.5v-5.5l-1.7,0.5v-2.9l1.7-0.5v-5h0.8v4.8l3.1-1v-4.8H853.1z M852.3,502.2l-3.1,1v5.5l3.1-1V502.2z"/>
		</g>
	</g>
</g>
</svg>
