<?xml version="1.0" encoding="utf-8"?>
<!-- Generator: Adobe Illustrator 26.4.1, SVG Export Plug-In . SVG Version: 6.00 Build 0)  -->
<svg version="1.1" id="Layer_1" xmlns="http://www.w3.org/2000/svg" xmlns:xlink="http://www.w3.org/1999/xlink" x="0px" y="0px"
	 viewBox="0 0 792 612" style="enable-background:new 0 0 792 612;" xml:space="preserve">
<style type="text/css">
	.st0{fill:none;stroke:#000000;stroke-width:1.8381;stroke-linejoin:bevel;stroke-miterlimit:1.4705;}
	.st1{fill:none;stroke:#000000;stroke-width:5.8819;stroke-linejoin:bevel;stroke-miterlimit:1.4705;}
	.st2{enable-background:new    ;}
	.st3{fill:none;stroke:#000000;stroke-width:1.4705;stroke-linejoin:bevel;stroke-miterlimit:1.4705;}
</style>
<g>
	<g transform="matrix(1.47047,0,0,1.47047,0,0)">
		<line vector-effect="none" class="st0" x1="301.1" y1="49.8" x2="301.1" y2="81.8"/>
	</g>
	<g transform="matrix(1.47047,0,0,1.47047,0,0)">
		<line vector-effect="none" class="st0" x1="509.1" y1="49.8" x2="509.1" y2="81.8"/>
	</g>
	<g transform="matrix(1.47047,0,0,1.47047,0,0)">
		<line vector-effect="none" class="st0" x1="196.3" y1="126.2" x2="196.3" y2="158.2"/>
	</g>
	<g transform="matrix(1.47047,0,0,1.47047,0,0)">
		<line vector-effect="none" class="st0" x1="294.6" y1="126.2" x2="294.6" y2="158.2"/>
	</g>
	<g transform="matrix(1.47047,0,0,1.47047,0,0)">
		<line vector-effect="none" class="st0" x1="410.8" y1="126.2" x2="410.8" y2="158.2"/>
	</g>
	<g transform="matrix(1.47047,0,0,1.47047,0,0)">
		<line vector-effect="none" class="st0" x1="509.1" y1="126.2" x2="509.1" y2="158.2"/>
	</g>
	<g transform="matrix(1.47047,0,0,1.47047,0,0)">
		<line vector-effect="none" class="st0" x1="196.3" y1="202.5" x2="196.3" y2="234.5"/>
	</g>
	<g transform="matrix(1.47047,0,0,1.47047,0,0)">
		<line vector-effect="none" class="st0" x1="294.6" y1="202.5" x2="294.6" y2="234.5"/>
	</g>
	<g transform="matrix(1.47047,0,0,1.47047,0,0)">
		<line vector-effect="none" class="st0" x1="410.8" y1="202.5" x2="410.8" y2="234.5"/>
	</g>
	<g transform="matrix(1.47047,0,0,1.47047,0,0)">
		<line vector-effect="none" class="st0" x1="509.1" y1="202.5" x2="509.1" y2="234.5"/>
	</g>
	<g transform="matrix(1.47047,0,0,1.47047,0,0)">
		<line vector-effect="none" class="st0" x1="230.1" y1="279" x2="230.1" y2="311"/>
	</g>
	<g transform="matrix(1.47047,0,0,1.47047,0,0)">
		<line vector-effect="none" class="st0" x1="359.1" y1="279" x2="359.1" y2="311"/>
	</g>
	<g transform="matrix(1.47047,0,0,1.47047,0,0)">
		<line vector-effect="none" class="st0" x1="509.1" y1="279" x2="509.1" y2="311"/>
	</g>
	<g transform="matrix(1.47047,0,0,1.47047,0,0)">
		<line vector-effect="none" class="st0" x1="224.8" y1="355.5" x2="224.8" y2="387.5"/>
	</g>
	<g transform="matrix(1.47047,0,0,1.47047,0,0)">
		<line vector-effect="none" class="st0" x1="393.3" y1="355.5" x2="393.3" y2="387.5"/>
	</g>
	<g transform="matrix(1.47047,0,0,1.47047,0,0)">
		<line vector-effect="none" class="st0" x1="502.1" y1="355.5" x2="502.1" y2="387.5"/>
	</g>
	<g transform="matrix(1.47047,0,0,1.47047,0,0)">
		<line vector-effect="none" class="st1" x1="507.6" y1="355.5" x2="507.6" y2="387.5"/>
	</g>
	<g transform="matrix(1.47047,0,0,1.47047,0,0)">
	</g>
	<g transform="matrix(1.47047,0,0,1.47047,483.785,96.6915)">
	</g>
	<g transform="matrix(1.47047,0,0,1.47047,483.785,96.6915)">
		<g class="st2">
			<path d="M-235.9,0.1h-6.8v-0.7c0.5,0,1.6-0.3,1.6-0.8v-2.4h-5.6v-0.7c2.5-1.6,4.2-6.9,4.8-11.8h4l-7.5,11.8h4.3v-4.4l3.6-3v7.4
				h1.5v0.7h-1.5v2.4c0,0.5,1,0.8,1.5,0.8V0.1z"/>
		</g>
	</g>
	<g transform="matrix(1.47047,0,0,1.47047,483.785,96.6915)">
		<g class="st2">
			<path d="M-235.9,16.4h-6.8v-0.7c0.5,0,1.6-0.3,1.6-0.8v-2.4h-5.6v-0.7c2.5-1.6,4.2-6.9,4.8-11.8h4l-7.5,11.8h4.3V7.5l3.6-3v7.4
				h1.5v0.7h-1.5v2.4c0,0.5,1,0.8,1.5,0.8V16.4z"/>
		</g>
	</g>
	<g transform="matrix(1.47047,0,0,1.47047,483.785,96.6915)">
	</g>
	<g transform="matrix(1.47047,0,0,1.47047,0,0)">
	</g>
	<g transform="matrix(1.47047,0,0,1.47047,0,0)">
		<line vector-effect="none" class="st3" x1="24.6" y1="81.8" x2="509.6" y2="81.8"/>
	</g>
	<g transform="matrix(1.47047,0,0,1.47047,0,0)">
		<line vector-effect="none" class="st3" x1="24.6" y1="73.8" x2="509.6" y2="73.8"/>
	</g>
	<g transform="matrix(1.47047,0,0,1.47047,0,0)">
		<line vector-effect="none" class="st3" x1="24.6" y1="65.8" x2="509.6" y2="65.8"/>
	</g>
	<g transform="matrix(1.47047,0,0,1.47047,0,0)">
		<line vector-effect="none" class="st3" x1="24.6" y1="57.8" x2="509.6" y2="57.8"/>
	</g>
	<g transform="matrix(1.47047,0,0,1.47047,0,0)">
		<line vector-effect="none" class="st3" x1="24.6" y1="49.8" x2="509.6" y2="49.8"/>
	</g>
	<g transform="matrix(1.47047,0,0,1.47047,0,0)">
		<g class="st2">
			<path d="M30.6,75.4c5.1-3.2,8.3-5.2,11.1-10.2c1.2-2.2,2-5.3,2-7.5c0-3-1.3-7.2-4.7-7.2c-0.2,0-0.4,0-0.7,0.1
				c-2.3,0.4-3.9,1.1-5,2.9c-0.1,0.2-0.1,0.3-0.1,0.4c0,0.5,0.3,0.9,1,0.9c0.2,0,0.8-0.2,1.2-0.3c0.2,0,0.4-0.1,0.6-0.1
				c1.5,0,2.6,1.2,2.6,2.7c0,2-1.8,3-3.6,3c-1.9,0-3.8-1.1-3.8-3.5c0-4.1,5-7.1,8.1-7.1c4.5,0,8.9,2.9,8.9,7.8
				c0,10.2-10.4,15.2-17.6,18.7L30.6,75.4z M51.6,52.3c1.1,0,1.9,0.8,1.9,1.8c0,0.8-0.8,1.7-1.9,1.7c-1.2,0-1.9-0.9-1.9-1.7
				C49.8,53.1,50.4,52.3,51.6,52.3z M51.6,59.5c1.1,0,1.9,0.8,1.9,1.8c0,0.8-0.8,1.8-1.9,1.8c-1.2,0-1.9-1-1.9-1.8
				C49.8,60.3,50.4,59.5,51.6,59.5z"/>
		</g>
	</g>
	<g transform="matrix(1.47047,0,0,1.47047,0,0)">
		<g class="st2">
			<path d="M58.6,78.9V59.1h0.7V70c0.9-0.6,2.1-1.1,3.1-1.1c1.3,0,2.3,0.7,2.3,2.9C64.8,73.8,60.3,77.8,58.6,78.9z M59.2,76.8
				c1.2-1.1,3.1-3.2,3.1-5.1c0-1.2-0.6-1.7-1.4-1.7c-0.5,0-1.1,0.2-1.6,0.7L59.2,76.8z"/>
		</g>
	</g>
	<g transform="matrix(1.47047,0,0,1.47047,0,0)">
		<g class="st2">
			<path d="M67.6,66.9V47.1h0.7V58c0.9-0.6,2.1-1.1,3.1-1.1c1.3,0,2.3,0.7,2.3,2.9C73.8,61.8,69.3,65.8,67.6,66.9z M68.2,64.8
				c1.2-1.1,3.1-3.2,3.1-5.1c0-1.2-0.6-1.7-1.4-1.7c-0.5,0-1.1,0.2-1.6,0.7L68.2,64.8z"/>
		</g>
	</g>
	<g transform="matrix(1.47047,0,0,1.47047,592.6,76.4725)">
	</g>
	<g transform="matrix(1.47047,0,0,1.47047,592.6,76.4725)">
		<g class="st2">
			<path d="M-289.1-20.1l-0.4,0.9c-1.4,0.7-2.9,1.1-4.5,1.1c-2.3,0-4.1-0.6-5.5-1.9c-1.4-1.3-2.1-3-2.1-5c0-1.4,0.4-2.7,1.1-3.7
				c0.7-1.1,1.6-1.9,2.8-2.4c1.2-0.5,2.5-0.8,3.9-0.8c0.8,0,1.7,0.1,2.5,0.3c0.8,0.2,1.5,0.4,2,0.6l0.1,0.1
				c-0.1,0.4-0.3,1.2-0.4,2.6l-0.1,0.1h-0.4l-0.1-0.1l-0.1-1.6c-0.5-0.4-1-0.6-1.7-0.9c-0.6-0.2-1.3-0.3-2-0.3c-1.1,0-2,0.2-2.8,0.7
				c-0.8,0.5-1.5,1.1-2,2c-0.5,0.9-0.7,1.9-0.7,3.2c0,1.3,0.3,2.4,0.8,3.3c0.5,0.9,1.3,1.7,2.2,2.2c0.9,0.5,2,0.8,3.3,0.8
				c0.6,0,1.1-0.1,1.6-0.2c0.5-0.1,0.9-0.2,1.3-0.4c0.3-0.2,0.7-0.3,1-0.6L-289.1-20.1z"/>
			<path d="M-287.9-22.8c0-0.7,0.2-1.5,0.5-2.2c0.3-0.7,0.8-1.3,1.6-1.8c0.8-0.5,1.7-0.8,2.7-0.8c1.3,0,2.4,0.4,3.2,1.2
				c0.8,0.8,1.2,1.9,1.2,3.2c0,1.4-0.5,2.6-1.4,3.5c-0.9,0.9-2.1,1.4-3.4,1.4c-0.9,0-1.7-0.2-2.3-0.7c-0.7-0.5-1.2-1.1-1.5-1.7
				C-287.7-21.3-287.9-22-287.9-22.8z M-286.1-23.5c0,0.9,0.1,1.7,0.3,2.4c0.2,0.7,0.6,1.2,1.1,1.7c0.5,0.4,1,0.6,1.7,0.6
				c0.7,0,1.4-0.3,1.8-0.9c0.5-0.6,0.7-1.5,0.7-2.6c0-1.3-0.3-2.4-0.8-3.3c-0.5-0.9-1.3-1.3-2.3-1.3c-0.8,0-1.5,0.3-1.9,0.9
				C-285.9-25.4-286.1-24.6-286.1-23.5z"/>
			<path d="M-274.8-27.5l0.2,0.1c-0.1,0.8-0.1,1.9-0.1,3.1v2.2c0,0.8,0.1,1.4,0.2,1.7c0.1,0.3,0.3,0.6,0.6,0.7
				c0.3,0.2,0.7,0.2,1.1,0.2c0.5,0,0.9-0.1,1.3-0.3c0.4-0.2,0.7-0.4,0.9-0.8c0.3-0.3,0.4-0.5,0.4-0.7c0-0.1,0.1-0.4,0.1-0.9l0-1.1
				v-1c0-0.3,0-0.6,0-1c0-0.4,0-0.7-0.1-0.8c0-0.1-0.1-0.2-0.1-0.2c-0.1,0-0.2-0.1-0.5-0.1l-0.8,0l-0.1-0.1v-0.4l0.1-0.1
				c1.2-0.1,2.2-0.4,3-0.7l0.2,0.1c-0.1,0.8-0.1,1.9-0.1,3.1v1.7c0,0.1,0,0.9,0,2.3c0,0.5,0,0.9,0.1,1c0.1,0.1,0.1,0.2,0.2,0.2
				c0.1,0,0.4,0.1,0.8,0.1h0.3l0.1,0.1v0.4l-0.1,0.1c-0.9-0.1-1.5-0.1-1.8-0.1c-0.4,0-0.8,0-1.3,0.1l-0.1-0.1c0-0.6,0.1-1.2,0.1-1.6
				c-0.4,0.3-0.8,0.7-1.4,1.2c-0.2,0.2-0.5,0.4-0.8,0.5c-0.4,0.1-0.8,0.2-1.2,0.2c-0.7,0-1.2-0.1-1.6-0.3c-0.4-0.2-0.7-0.5-0.8-0.9
				c-0.2-0.4-0.2-1.1-0.2-2l0-0.7v-1.8c0-0.3,0-0.6,0-1c0-0.4,0-0.7-0.1-0.8c0-0.1-0.1-0.2-0.1-0.2c-0.1,0-0.2-0.1-0.5-0.1l-0.8,0
				l-0.1-0.1v-0.4l0.1-0.1C-276.6-26.9-275.6-27.1-274.8-27.5z"/>
			<path d="M-263.2-27.5l0.2,0.1c0,0.4-0.1,1-0.1,1.7c0.5-0.4,1-0.8,1.4-1.3c0.1-0.1,0.3-0.2,0.4-0.3c0.1-0.1,0.3-0.1,0.6-0.2
				c0.3-0.1,0.5-0.1,0.8-0.1c0.5,0,0.9,0.1,1.4,0.3s0.8,0.4,1,0.7c0.2,0.3,0.4,0.6,0.5,0.9c0.1,0.4,0.1,0.8,0.1,1.3v1.7
				c0,0.1,0,0.9,0,2.3c0,0.6,0.1,0.9,0.2,1.1c0.1,0.1,0.5,0.2,1.2,0.2l0.1,0.1v0.4l-0.1,0.1c-0.8-0.1-1.3-0.1-1.6-0.1
				c-0.2,0-0.6,0-1.4,0.1l-0.1-0.1c0.1-0.8,0.1-1.9,0.1-3.2V-23c0-0.7,0-1.3-0.1-1.6c0-0.3-0.1-0.6-0.3-0.9
				c-0.2-0.3-0.4-0.5-0.7-0.6c-0.3-0.1-0.6-0.2-1.1-0.2c-0.3,0-0.6,0-0.8,0.1c-0.2,0.1-0.5,0.2-0.8,0.4c-0.3,0.2-0.5,0.4-0.6,0.6
				c-0.1,0.2-0.2,0.3-0.2,0.5c0,0.2,0,0.5,0,1v1.6c0,0.1,0,0.6,0,1.3c0,0.7,0.1,1.2,0.1,1.3c0,0.1,0.1,0.2,0.1,0.3
				c0.1,0.1,0.1,0.1,0.2,0.1c0.1,0,0.4,0,1,0.1l0.1,0.1v0.4l-0.1,0.1c-0.8-0.1-1.5-0.1-2.3-0.1c-0.7,0-1.5,0-2.3,0.1l-0.1-0.1v-0.4
				l0.1-0.1c0.6,0,1-0.1,1-0.1c0.1,0,0.1-0.1,0.2-0.1c0.1-0.1,0.1-0.2,0.1-0.3c0-0.1,0-0.5,0.1-1.2c0-0.7,0-1.2,0-1.6v-1.9
				c0-0.3,0-0.6,0-1c0-0.4,0-0.7-0.1-0.8c0-0.1-0.1-0.2-0.1-0.2c-0.1,0-0.2-0.1-0.5-0.1l-0.8,0l-0.1-0.1v-0.4l0.1-0.1
				C-265-26.9-264-27.1-263.2-27.5z"/>
			<path d="M-254.8-25.9v-0.2l0.1-0.1c0.6-0.2,1.1-0.4,1.4-0.6c0-1.6,0-2.6-0.1-2.9c0.6-0.2,1.2-0.5,1.6-0.7l0.2,0.2
				c-0.1,0.4-0.1,1.5-0.2,3.4c0.3,0,0.7,0,1,0c0.7,0,1.3,0,1.6-0.1l0.1,0.1l-0.2,0.8l-0.1,0.1c-0.3,0-0.7,0-1.1,0
				c-0.4,0-0.8,0-1.4,0l-0.1,3.8c0,0.9,0,1.5,0.1,1.7c0,0.3,0.2,0.5,0.3,0.6c0.2,0.2,0.5,0.2,0.8,0.2c0.4,0,0.8-0.1,1.2-0.3l0.2,0.3
				c-0.2,0.1-0.5,0.4-1.1,0.9c-0.3,0.2-0.7,0.2-1,0.2c-1.4,0-2.1-0.7-2.1-2c0-0.5,0-0.9,0-1.3c0-0.1,0-0.2,0-0.3v-3.9h-0.4
				C-254-25.8-254.3-25.8-254.8-25.9L-254.8-25.9z"/>
			<path d="M-243.5-22.8c0-0.7,0.2-1.5,0.5-2.2c0.3-0.7,0.8-1.3,1.6-1.8c0.8-0.5,1.7-0.8,2.7-0.8c1.3,0,2.4,0.4,3.2,1.2
				c0.8,0.8,1.2,1.9,1.2,3.2c0,1.4-0.5,2.6-1.4,3.5c-0.9,0.9-2.1,1.4-3.4,1.4c-0.9,0-1.7-0.2-2.3-0.7c-0.7-0.5-1.2-1.1-1.5-1.7
				C-243.3-21.3-243.5-22-243.5-22.8z M-241.7-23.5c0,0.9,0.1,1.7,0.3,2.4c0.2,0.7,0.6,1.2,1.1,1.7s1,0.6,1.7,0.6
				c0.7,0,1.4-0.3,1.8-0.9c0.5-0.6,0.7-1.5,0.7-2.6c0-1.3-0.3-2.4-0.8-3.3c-0.5-0.9-1.3-1.3-2.3-1.3c-0.8,0-1.5,0.3-1.9,0.9
				C-241.5-25.4-241.7-24.6-241.7-23.5z"/>
			<path d="M-225.5-26.8v-0.6c0-0.8,0-1.4,0.1-1.7c0.1-0.3,0.2-0.6,0.4-0.9c0.2-0.3,0.6-0.7,1.1-1.3c0.5-0.6,1-0.9,1.2-1
				c0.3-0.1,0.5-0.2,0.8-0.2c0.3,0,0.5,0,0.8,0.1v1.5l-0.2,0.1c-0.4-0.3-0.8-0.5-1.2-0.5c-0.3,0-0.6,0.1-0.8,0.2
				c-0.2,0.1-0.4,0.4-0.5,0.7c-0.1,0.3-0.1,0.8-0.1,1.5v1.9h1c0.5,0,1,0,1.5-0.1l0.1,0.1l-0.2,0.8l-0.1,0.1c-0.2,0-0.3,0-0.4,0
				l-1.2,0h-0.7v3.8c0,0.2,0,0.7,0,1.4c0,0.7,0.1,1.1,0.1,1.3c0,0.1,0.1,0.2,0.1,0.3c0.1,0.1,0.2,0.1,0.3,0.1c0.1,0,0.6,0,1.3,0.1
				l0.1,0.1v0.4l-0.1,0.1c-0.2,0-0.6,0-1.1,0c-0.5,0-1,0-1.5,0c-0.7,0-1.5,0-2.3,0.1l-0.1-0.1v-0.4l0.1-0.1c0.6,0,1-0.1,1-0.1
				c0.1,0,0.2-0.1,0.2-0.1c0.1-0.1,0.1-0.2,0.1-0.3s0-0.5,0.1-1.2c0-0.7,0-1.2,0-1.6v-3.6h-4.5v3.8c0,0.2,0,0.7,0,1.4
				c0,0.7,0.1,1.1,0.1,1.3c0,0.1,0.1,0.2,0.1,0.3c0.1,0.1,0.2,0.1,0.3,0.1c0.1,0,0.5,0,1.1,0.1l0.1,0.1v0.4l-0.1,0.1
				c-0.2,0-0.6,0-1,0c-0.4,0-0.9,0-1.4,0c-0.7,0-1.4,0-2.3,0.1l-0.1-0.1v-0.4l0.1-0.1c0.6,0,1-0.1,1-0.1c0.1,0,0.2-0.1,0.2-0.1
				c0.1-0.1,0.1-0.2,0.1-0.3c0-0.1,0-0.5,0.1-1.2c0-0.7,0-1.2,0-1.6v-3.6l-1.2,0.1l-0.1-0.1v-0.2l0.1-0.1l1.2-0.6v-0.6
				c0-0.6,0-1.1,0.1-1.4c0.1-0.3,0.2-0.6,0.3-0.9c0.2-0.3,0.4-0.6,0.8-1c0.4-0.4,0.7-0.8,1-1c0.3-0.3,0.5-0.4,0.8-0.5
				c0.2-0.1,0.5-0.1,0.8-0.1c0.2,0,0.5,0,0.8,0.1l0,1.5l-0.2,0.1c-0.4-0.3-0.8-0.5-1.2-0.5c-0.3,0-0.6,0.1-0.8,0.2
				c-0.2,0.1-0.4,0.4-0.5,0.7c-0.1,0.3-0.1,0.8-0.1,1.5v1.9H-225.5z"/>
		</g>
	</g>
	<g transform="matrix(1.47047,0,0,1.47047,592.6,76.4725)">
	</g>
	<g transform="matrix(1.47047,0,0,1.47047,0,0)">
	</g>
	<g transform="matrix(1.47047,0,0,1.47047,0,0)">
		<line vector-effect="none" class="st3" x1="24.6" y1="158.2" x2="509.6" y2="158.2"/>
	</g>
	<g transform="matrix(1.47047,0,0,1.47047,0,0)">
		<line vector-effect="none" class="st3" x1="24.6" y1="150.2" x2="509.6" y2="150.2"/>
	</g>
	<g transform="matrix(1.47047,0,0,1.47047,0,0)">
		<line vector-effect="none" class="st3" x1="24.6" y1="142.2" x2="509.6" y2="142.2"/>
	</g>
	<g transform="matrix(1.47047,0,0,1.47047,0,0)">
		<line vector-effect="none" class="st3" x1="24.6" y1="134.2" x2="509.6" y2="134.2"/>
	</g>
	<g transform="matrix(1.47047,0,0,1.47047,0,0)">
		<line vector-effect="none" class="st3" x1="24.6" y1="126.2" x2="509.6" y2="126.2"/>
	</g>
	<g transform="matrix(1.47047,0,0,1.47047,0,0)">
		<g class="st2">
			<path d="M30.6,151.9c5.1-3.2,8.3-5.2,11.1-10.2c1.2-2.2,2-5.3,2-7.5c0-3-1.3-7.2-4.7-7.2c-0.2,0-0.4,0-0.7,0.1
				c-2.3,0.4-3.9,1.1-5,2.9c-0.1,0.2-0.1,0.3-0.1,0.4c0,0.5,0.3,0.9,1,0.9c0.2,0,0.8-0.2,1.2-0.3c0.2,0,0.4-0.1,0.6-0.1
				c1.5,0,2.6,1.2,2.6,2.7c0,2-1.8,3-3.6,3c-1.9,0-3.8-1.1-3.8-3.5c0-4.1,5-7.1,8.1-7.1c4.5,0,8.9,2.9,8.9,7.8
				c0,10.2-10.4,15.2-17.6,18.7L30.6,151.9z M51.6,128.8c1.1,0,1.9,0.8,1.9,1.8c0,0.8-0.8,1.7-1.9,1.7c-1.2,0-1.9-0.9-1.9-1.7
				C49.8,129.6,50.4,128.8,51.6,128.8z M51.6,136c1.1,0,1.9,0.8,1.9,1.8c0,0.8-0.8,1.8-1.9,1.8c-1.2,0-1.9-1-1.9-1.8
				C49.8,136.8,50.4,136,51.6,136z"/>
		</g>
	</g>
	<g transform="matrix(1.47047,0,0,1.47047,0,0)">
		<g class="st2">
			<path d="M58.6,155.4v-19.8h0.7v10.9c0.9-0.6,2.1-1.1,3.1-1.1c1.3,0,2.3,0.7,2.3,2.9C64.8,150.3,60.3,154.3,58.6,155.4z
				 M59.2,153.3c1.2-1.1,3.1-3.2,3.1-5.1c0-1.2-0.6-1.7-1.4-1.7c-0.5,0-1.1,0.2-1.6,0.7L59.2,153.3z"/>
		</g>
	</g>
	<g transform="matrix(1.47047,0,0,1.47047,0,0)">
		<g class="st2">
			<path d="M67.6,143.4v-19.8h0.7v10.9c0.9-0.6,2.1-1.1,3.1-1.1c1.3,0,2.3,0.7,2.3,2.9C73.8,138.3,69.3,142.3,67.6,143.4z
				 M68.2,141.3c1.2-1.1,3.1-3.2,3.1-5.1c0-1.2-0.6-1.7-1.4-1.7c-0.5,0-1.1,0.2-1.6,0.7L68.2,141.3z"/>
		</g>
	</g>
	<g transform="matrix(1.47047,0,0,1.47047,0,0)">
		<line vector-effect="none" class="st3" x1="24.6" y1="234.5" x2="509.6" y2="234.5"/>
	</g>
	<g transform="matrix(1.47047,0,0,1.47047,0,0)">
		<line vector-effect="none" class="st3" x1="24.6" y1="226.5" x2="509.6" y2="226.5"/>
	</g>
	<g transform="matrix(1.47047,0,0,1.47047,0,0)">
		<line vector-effect="none" class="st3" x1="24.6" y1="218.5" x2="509.6" y2="218.5"/>
	</g>
	<g transform="matrix(1.47047,0,0,1.47047,0,0)">
		<line vector-effect="none" class="st3" x1="24.6" y1="210.5" x2="509.6" y2="210.5"/>
	</g>
	<g transform="matrix(1.47047,0,0,1.47047,0,0)">
		<line vector-effect="none" class="st3" x1="24.6" y1="202.5" x2="509.6" y2="202.5"/>
	</g>
	<g transform="matrix(1.47047,0,0,1.47047,0,0)">
		<g class="st2">
			<path d="M30.6,228.2c5.1-3.2,8.3-5.2,11.1-10.2c1.2-2.2,2-5.3,2-7.5c0-3-1.3-7.2-4.7-7.2c-0.2,0-0.4,0-0.7,0.1
				c-2.3,0.4-3.9,1.1-5,2.9c-0.1,0.2-0.1,0.3-0.1,0.4c0,0.5,0.3,0.9,1,0.9c0.2,0,0.8-0.2,1.2-0.3c0.2,0,0.4-0.1,0.6-0.1
				c1.5,0,2.6,1.2,2.6,2.7c0,2-1.8,3-3.6,3c-1.9,0-3.8-1.1-3.8-3.5c0-4.1,5-7.1,8.1-7.1c4.5,0,8.9,2.9,8.9,7.8
				c0,10.2-10.4,15.2-17.6,18.7L30.6,228.2z M51.6,205.1c1.1,0,1.9,0.8,1.9,1.8c0,0.8-0.8,1.7-1.9,1.7c-1.2,0-1.9-0.9-1.9-1.7
				C49.8,205.9,50.4,205.1,51.6,205.1z M51.6,212.2c1.1,0,1.9,0.8,1.9,1.8c0,0.8-0.8,1.8-1.9,1.8c-1.2,0-1.9-1-1.9-1.8
				C49.8,213.1,50.4,212.2,51.6,212.2z"/>
		</g>
	</g>
	<g transform="matrix(1.47047,0,0,1.47047,0,0)">
		<g class="st2">
			<path d="M58.6,231.7v-19.8h0.7v10.9c0.9-0.6,2.1-1.1,3.1-1.1c1.3,0,2.3,0.7,2.3,2.9C64.8,226.6,60.3,230.5,58.6,231.7z
				 M59.2,229.5c1.2-1.1,3.1-3.2,3.1-5.1c0-1.2-0.6-1.7-1.4-1.7c-0.5,0-1.1,0.2-1.6,0.7L59.2,229.5z"/>
		</g>
	</g>
	<g transform="matrix(1.47047,0,0,1.47047,0,0)">
		<g class="st2">
			<path d="M67.6,219.7v-19.8h0.7v10.9c0.9-0.6,2.1-1.1,3.1-1.1c1.3,0,2.3,0.7,2.3,2.9C73.8,214.6,69.3,218.5,67.6,219.7z
				 M68.2,217.5c1.2-1.1,3.1-3.2,3.1-5.1c0-1.2-0.6-1.7-1.4-1.7c-0.5,0-1.1,0.2-1.6,0.7L68.2,217.5z"/>
		</g>
	</g>
	<g transform="matrix(1.47047,0,0,1.47047,0,0)">
		<line vector-effect="none" class="st3" x1="24.6" y1="311" x2="509.6" y2="311"/>
	</g>
	<g transform="matrix(1.47047,0,0,1.47047,0,0)">
		<line vector-effect="none" class="st3" x1="24.6" y1="303" x2="509.6" y2="303"/>
	</g>
	<g transform="matrix(1.47047,0,0,1.47047,0,0)">
		<line vector-effect="none" class="st3" x1="24.6" y1="295" x2="509.6" y2="295"/>
	</g>
	<g transform="matrix(1.47047,0,0,1.47047,0,0)">
		<line vector-effect="none" class="st3" x1="24.6" y1="287" x2="509.6" y2="287"/>
	</g>
	<g transform="matrix(1.47047,0,0,1.47047,0,0)">
		<line vector-effect="none" class="st3" x1="24.6" y1="279" x2="509.6" y2="279"/>
	</g>
	<g transform="matrix(1.47047,0,0,1.47047,0,0)">
		<g class="st2">
			<path d="M30.6,304.7c5.1-3.2,8.3-5.2,11.1-10.2c1.2-2.2,2-5.3,2-7.5c0-3-1.3-7.2-4.7-7.2c-0.2,0-0.4,0-0.7,0.1
				c-2.3,0.4-3.9,1.1-5,2.9c-0.1,0.2-0.1,0.3-0.1,0.4c0,0.5,0.3,0.9,1,0.9c0.2,0,0.8-0.2,1.2-0.3c0.2,0,0.4-0.1,0.6-0.1
				c1.5,0,2.6,1.2,2.6,2.7c0,2-1.8,3-3.6,3c-1.9,0-3.8-1.1-3.8-3.5c0-4.1,5-7.1,8.1-7.1c4.5,0,8.9,2.9,8.9,7.8
				c0,10.2-10.4,15.2-17.6,18.7L30.6,304.7z M51.6,281.6c1.1,0,1.9,0.8,1.9,1.8c0,0.8-0.8,1.7-1.9,1.7c-1.2,0-1.9-0.9-1.9-1.7
				C49.8,282.4,50.4,281.6,51.6,281.6z M51.6,288.7c1.1,0,1.9,0.8,1.9,1.8c0,0.8-0.8,1.8-1.9,1.8c-1.2,0-1.9-1-1.9-1.8
				C49.8,289.6,50.4,288.7,51.6,288.7z"/>
		</g>
	</g>
	<g transform="matrix(1.47047,0,0,1.47047,0,0)">
		<g class="st2">
			<path d="M58.6,308.2v-19.8h0.7v10.9c0.9-0.6,2.1-1.1,3.1-1.1c1.3,0,2.3,0.7,2.3,2.9C64.8,303.1,60.3,307,58.6,308.2z M59.2,306
				c1.2-1.1,3.1-3.2,3.1-5.1c0-1.2-0.6-1.7-1.4-1.7c-0.5,0-1.1,0.2-1.6,0.7L59.2,306z"/>
		</g>
	</g>
	<g transform="matrix(1.47047,0,0,1.47047,0,0)">
		<g class="st2">
			<path d="M67.6,296.2v-19.8h0.7v10.9c0.9-0.6,2.1-1.1,3.1-1.1c1.3,0,2.3,0.7,2.3,2.9C73.8,291.1,69.3,295,67.6,296.2z M68.2,294
				c1.2-1.1,3.1-3.2,3.1-5.1c0-1.2-0.6-1.7-1.4-1.7c-0.5,0-1.1,0.2-1.6,0.7L68.2,294z"/>
		</g>
	</g>
	<g transform="matrix(1.47047,0,0,1.47047,0,0)">
		<line vector-effect="none" class="st3" x1="24.6" y1="387.5" x2="509.6" y2="387.5"/>
	</g>
	<g transform="matrix(1.47047,0,0,1.47047,0,0)">
		<line vector-effect="none" class="st3" x1="24.6" y1="379.5" x2="509.6" y2="379.5"/>
	</g>
	<g transform="matrix(1.47047,0,0,1.47047,0,0)">
		<line vector-effect="none" class="st3" x1="24.6" y1="371.5" x2="509.6" y2="371.5"/>
	</g>
	<g transform="matrix(1.47047,0,0,1.47047,0,0)">
		<line vector-effect="none" class="st3" x1="24.6" y1="363.5" x2="509.6" y2="363.5"/>
	</g>
	<g transform="matrix(1.47047,0,0,1.47047,0,0)">
		<line vector-effect="none" class="st3" x1="24.6" y1="355.5" x2="509.6" y2="355.5"/>
	</g>
	<g transform="matrix(1.47047,0,0,1.47047,0,0)">
		<g class="st2">
			<path d="M30.6,381.2c5.1-3.2,8.3-5.2,11.1-10.2c1.2-2.2,2-5.3,2-7.5c0-3-1.3-7.2-4.7-7.2c-0.2,0-0.4,0-0.7,0.1
				c-2.3,0.4-3.9,1.1-5,2.9c-0.1,0.2-0.1,0.3-0.1,0.4c0,0.5,0.3,0.9,1,0.9c0.2,0,0.8-0.2,1.2-0.3c0.2,0,0.4-0.1,0.6-0.1
				c1.5,0,2.6,1.2,2.6,2.7c0,2-1.8,3-3.6,3c-1.9,0-3.8-1.1-3.8-3.5c0-4.1,5-7.1,8.1-7.1c4.5,0,8.9,2.9,8.9,7.8
				c0,10.2-10.4,15.2-17.6,18.7L30.6,381.2z M51.6,358.1c1.1,0,1.9,0.8,1.9,1.8c0,0.8-0.8,1.7-1.9,1.7c-1.2,0-1.9-0.9-1.9-1.7
				C49.8,358.9,50.4,358.1,51.6,358.1z M51.6,365.2c1.1,0,1.9,0.8,1.9,1.8c0,0.8-0.8,1.8-1.9,1.8c-1.2,0-1.9-1-1.9-1.8
				C49.8,366.1,50.4,365.2,51.6,365.2z"/>
		</g>
	</g>
	<g transform="matrix(1.47047,0,0,1.47047,0,0)">
		<g class="st2">
			<path d="M58.6,384.7v-19.8h0.7v10.9c0.9-0.6,2.1-1.1,3.1-1.1c1.3,0,2.3,0.7,2.3,2.9C64.8,379.6,60.3,383.5,58.6,384.7z
				 M59.2,382.5c1.2-1.1,3.1-3.2,3.1-5.1c0-1.2-0.6-1.7-1.4-1.7c-0.5,0-1.1,0.2-1.6,0.7L59.2,382.5z"/>
		</g>
	</g>
	<g transform="matrix(1.47047,0,0,1.47047,0,0)">
		<g class="st2">
			<path d="M67.6,372.7v-19.8h0.7v10.9c0.9-0.6,2.1-1.1,3.1-1.1c1.3,0,2.3,0.7,2.3,2.9C73.8,367.6,69.3,371.5,67.6,372.7z
				 M68.2,370.5c1.2-1.1,3.1-3.2,3.1-5.1c0-1.2-0.6-1.7-1.4-1.7c-0.5,0-1.1,0.2-1.6,0.7L68.2,370.5z"/>
		</g>
	</g>
	<g transform="matrix(1.47047,0,0,1.47047,0,0)">
		<g class="st2">
			<path d="M421.4,351.5c0-4.4-4.8-7-8.7-7c-3.9,0-8.6,2.8-8.6,7h-0.9c0-5.4,4-10,9.5-10c5.5,0,9.7,4.5,9.7,10H421.4z M412.6,351.5
				c-0.9,0-1.6-0.5-1.6-1.4c0-0.9,0.7-1.4,1.6-1.4c0.9,0,1.6,0.4,1.6,1.4S413.4,351.5,412.6,351.5z"/>
		</g>
	</g>
	<g transform="matrix(1.47047,0,0,1.47047,0,0)">
		<line vector-effect="none" class="st3" x1="106.1" y1="69" x2="106.1" y2="93.8"/>
	</g>
	<g transform="matrix(1.47047,0,0,1.47047,0,0)">
		<g class="st2">
			<path d="M109.7,65l3.7-3.4l0.7,0.7l-3.7,3.3l3.7,3.3l-0.7,0.7l-3.7-3.3l-3.6,3.3l-0.7-0.7l3.6-3.3l-3.6-3.3l0.7-0.7L109.7,65z"/>
		</g>
	</g>
	<g transform="matrix(1.47047,0,0,1.47047,0,0)">
		<line vector-effect="none" class="st3" x1="155.1" y1="69" x2="155.1" y2="93.8"/>
	</g>
	<g transform="matrix(1.47047,0,0,1.47047,0,0)">
		<g class="st2">
			<path d="M158.7,65l3.7-3.4l0.7,0.7l-3.7,3.3l3.7,3.3l-0.7,0.7l-3.7-3.3l-3.6,3.3l-0.7-0.7l3.6-3.3l-3.6-3.3l0.7-0.7L158.7,65z"/>
		</g>
	</g>
	<g transform="matrix(1.47047,0,0,1.47047,0,0)">
		<line vector-effect="none" class="st3" x1="204.1" y1="69" x2="204.1" y2="93.8"/>
	</g>
	<g transform="matrix(1.47047,0,0,1.47047,0,0)">
		<g class="st2">
			<path d="M207.7,65l3.7-3.4l0.7,0.7l-3.7,3.3l3.7,3.3l-0.7,0.7l-3.7-3.3l-3.6,3.3l-0.7-0.7l3.6-3.3l-3.6-3.3l0.7-0.7L207.7,65z"/>
		</g>
	</g>
	<g transform="matrix(1.47047,0,0,1.47047,0,0)">
		<line vector-effect="none" class="st3" x1="253.1" y1="69" x2="253.1" y2="93.8"/>
	</g>
	<g transform="matrix(1.47047,0,0,1.47047,0,0)">
		<g class="st2">
			<path d="M256.7,65l3.7-3.4l0.7,0.7l-3.7,3.3l3.7,3.3l-0.7,0.7l-3.7-3.3l-3.6,3.3l-0.7-0.7l3.6-3.3l-3.6-3.3l0.7-0.7L256.7,65z"/>
		</g>
	</g>
	<g transform="matrix(1.47047,0,0,1.47047,0,0)">
		<line vector-effect="none" class="st3" x1="314.1" y1="69" x2="314.1" y2="93.8"/>
	</g>
	<g transform="matrix(1.47047,0,0,1.47047,0,0)">
		<g class="st2">
			<path d="M317.7,65l3.7-3.4l0.7,0.7l-3.7,3.3l3.7,3.3l-0.7,0.7l-3.7-3.3l-3.6,3.3l-0.7-0.7l3.6-3.3l-3.6-3.3l0.7-0.7L317.7,65z"/>
		</g>
	</g>
	<g transform="matrix(1.47047,0,0,1.47047,0,0)">
		<line vector-effect="none" class="st3" x1="363.1" y1="69" x2="363.1" y2="93.8"/>
	</g>
	<g transform="matrix(1.47047,0,0,1.47047,0,0)">
		<g class="st2">
			<path d="M366.7,65l3.7-3.4l0.7,0.7l-3.7,3.3l3.7,3.3l-0.7,0.7l-3.7-3.3l-3.6,3.3l-0.7-0.7l3.6-3.3l-3.6-3.3l0.7-0.7L366.7,65z"/>
		</g>
	</g>
	<g transform="matrix(1.47047,0,0,1.47047,0,0)">
		<line vector-effect="none" class="st3" x1="412.1" y1="69" x2="412.1" y2="93.8"/>
	</g>
	<g transform="matrix(1.47047,0,0,1.47047,0,0)">
		<g class="st2">
			<path d="M415.7,65l3.7-3.4l0.7,0.7l-3.7,3.3l3.7,3.3l-0.7,0.7l-3.7-3.3l-3.6,3.3l-0.7-0.7l3.6-3.3l-3.6-3.3l0.7-0.7L415.7,65z"/>
		</g>
	</g>
	<g transform="matrix(1.47047,0,0,1.47047,0,0)">
		<line vector-effect="none" class="st3" x1="461.1" y1="69" x2="461.1" y2="93.8"/>
	</g>
	<g transform="matrix(1.47047,0,0,1.47047,0,0)">
		<g class="st2">
			<path d="M464.7,65l3.7-3.4l0.7,0.7l-3.7,3.3l3.7,3.3l-0.7,0.7l-3.7-3.3l-3.6,3.3l-0.7-0.7l3.6-3.3l-3.6-3.3l0.7-0.7L464.7,65z"/>
		</g>
	</g>
	<g transform="matrix(1.47047,0,0,1.47047,0,0)">
		<line vector-effect="none" class="st3" x1="93.1" y1="123.5" x2="93.1" y2="150.2"/>
	</g>
	<g transform="matrix(1.47047,0,0,1.47047,0,0)">
		<g class="st2">
			<path d="M98.7,118.2c2.1,0,3.8,1.1,3.8,3.2c0,2.7-3.2,5.1-6.1,5.1c-2.1,0-3.8-1.2-3.8-3.2C92.6,120.5,95.8,118.2,98.7,118.2z"/>
		</g>
	</g>
	<g transform="matrix(1.47047,0,0,1.47047,0,0)">
		<line vector-effect="none" class="st3" x1="119.1" y1="127.5" x2="119.1" y2="154.2"/>
	</g>
	<g transform="matrix(1.47047,0,0,1.47047,0,0)">
		<g class="st2">
			<path d="M124.7,122.2c2.1,0,3.8,1.1,3.8,3.2c0,2.7-3.2,5.1-6.1,5.1c-2.1,0-3.8-1.2-3.8-3.2C118.6,124.5,121.8,122.2,124.7,122.2z
				"/>
		</g>
	</g>
	<g transform="matrix(1.47047,0,0,1.47047,0,0)">
		<line vector-effect="none" class="st3" x1="145.1" y1="131.5" x2="145.1" y2="158.2"/>
	</g>
	<g transform="matrix(1.47047,0,0,1.47047,0,0)">
		<g class="st2">
			<path d="M150.7,126.2c2.1,0,3.8,1.1,3.8,3.2c0,2.7-3.2,5.1-6.1,5.1c-2.1,0-3.8-1.2-3.8-3.2C144.6,128.5,147.8,126.2,150.7,126.2z
				"/>
		</g>
	</g>
	<g transform="matrix(1.47047,0,0,1.47047,0,0)">
		<line vector-effect="none" class="st3" x1="171.1" y1="123.5" x2="171.1" y2="150.2"/>
	</g>
	<g transform="matrix(1.47047,0,0,1.47047,0,0)">
		<g class="st2">
			<path d="M176.7,118.2c2.1,0,3.8,1.1,3.8,3.2c0,2.7-3.2,5.1-6.1,5.1c-2.1,0-3.8-1.2-3.8-3.2C170.6,120.5,173.8,118.2,176.7,118.2z
				"/>
		</g>
	</g>
	<g transform="matrix(1.47047,0,0,1.47047,0,0)">
		<line vector-effect="none" class="st3" x1="209.3" y1="127.5" x2="209.3" y2="154.2"/>
	</g>
	<g transform="matrix(1.47047,0,0,1.47047,0,0)">
		<g class="st2">
			<path d="M215.5,122c1.3,0,2.4,0.6,2.9,1.4c0.2,0.4,0.4,0.9,0.4,1.4c0,1.4-0.9,3-3,4.4c-1,0.6-2.5,1.3-3.9,1.3c-1,0-2-0.4-2.6-1.3
				c-0.4-0.6-0.5-1.1-0.5-1.7c0-1.9,1.9-3.6,3.2-4.4C213.2,122.4,214.4,122,215.5,122z M209.9,128.1c0,0.2,0,0.4,0.1,0.5
				c0.2,0.4,0.6,0.5,1.1,0.5c1.1,0,2.5-0.7,3.7-1.5c1.4-0.9,2.9-1.9,2.9-3.1c0-0.2-0.1-0.5-0.2-0.7c-0.3-0.5-0.7-0.7-1.2-0.7
				c-1,0-2.4,0.7-3.5,1.3C211.4,125.5,209.9,127,209.9,128.1z"/>
		</g>
	</g>
	<g transform="matrix(1.47047,0,0,1.47047,0,0)">
		<g class="st2">
			<path d="M251.8,138.4h10.3v3.8h-10.3V138.4z"/>
		</g>
	</g>
	<g transform="matrix(1.47047,0,0,1.47047,0,0)">
		<line vector-effect="none" class="st3" x1="307.6" y1="127.5" x2="307.6" y2="154.2"/>
	</g>
	<g transform="matrix(1.47047,0,0,1.47047,0,0)">
		<g class="st2">
			<path d="M313.2,122.2c2.1,0,3.8,1.1,3.8,3.2c0,2.7-3.2,5.1-6.1,5.1c-2.1,0-3.8-1.2-3.8-3.2C307.1,124.5,310.3,122.2,313.2,122.2z
				"/>
		</g>
	</g>
	<g transform="matrix(1.47047,0,0,1.47047,0,0)">
		<line vector-effect="none" class="st3" x1="333.6" y1="131.5" x2="333.6" y2="158.2"/>
	</g>
	<g transform="matrix(1.47047,0,0,1.47047,0,0)">
		<g class="st2">
			<path d="M339.2,126.2c2.1,0,3.8,1.1,3.8,3.2c0,2.7-3.2,5.1-6.1,5.1c-2.1,0-3.8-1.2-3.8-3.2C333.1,128.5,336.3,126.2,339.2,126.2z
				"/>
		</g>
	</g>
	<g transform="matrix(1.47047,0,0,1.47047,0,0)">
		<line vector-effect="none" class="st3" x1="359.6" y1="135.5" x2="359.6" y2="162.2"/>
	</g>
	<g transform="matrix(1.47047,0,0,1.47047,0,0)">
		<g class="st2">
			<path d="M365.2,130.2c2.1,0,3.8,1.1,3.8,3.2c0,2.7-3.2,5.1-6.1,5.1c-2.1,0-3.8-1.2-3.8-3.2C359.1,132.5,362.3,130.2,365.2,130.2z
				"/>
		</g>
	</g>
	<g transform="matrix(1.47047,0,0,1.47047,0,0)">
		<line vector-effect="none" class="st3" x1="385.6" y1="127.5" x2="385.6" y2="154.2"/>
	</g>
	<g transform="matrix(1.47047,0,0,1.47047,0,0)">
		<g class="st2">
			<path d="M391.2,122.2c2.1,0,3.8,1.1,3.8,3.2c0,2.7-3.2,5.1-6.1,5.1c-2.1,0-3.8-1.2-3.8-3.2C385.1,124.5,388.3,122.2,391.2,122.2z
				"/>
		</g>
	</g>
	<g transform="matrix(1.47047,0,0,1.47047,0,0)">
		<line vector-effect="none" class="st3" x1="423.8" y1="131.5" x2="423.8" y2="158.2"/>
	</g>
	<g transform="matrix(1.47047,0,0,1.47047,0,0)">
		<g class="st2">
			<path d="M430,126c1.3,0,2.4,0.6,2.9,1.4c0.2,0.4,0.4,0.9,0.4,1.4c0,1.4-0.9,3-3,4.4c-1,0.6-2.5,1.3-3.9,1.3c-1,0-2-0.4-2.6-1.3
				c-0.4-0.6-0.5-1.1-0.5-1.7c0-1.9,1.9-3.6,3.2-4.4C427.7,126.4,428.9,126,430,126z M424.4,132.1c0,0.2,0,0.4,0.1,0.5
				c0.2,0.4,0.6,0.5,1.1,0.5c1.1,0,2.5-0.7,3.7-1.5c1.4-0.9,2.9-1.9,2.9-3.1c0-0.2-0.1-0.5-0.2-0.7c-0.3-0.5-0.7-0.7-1.2-0.7
				c-1,0-2.4,0.7-3.5,1.3C425.9,129.5,424.4,131,424.4,132.1z"/>
		</g>
	</g>
	<g transform="matrix(1.47047,0,0,1.47047,0,0)">
		<g class="st2">
			<path d="M466.3,138.4h10.3v3.8h-10.3V138.4z"/>
		</g>
	</g>
	<g transform="matrix(1.47047,0,0,1.47047,0,0)">
		<line vector-effect="none" class="st3" x1="93.1" y1="207.8" x2="93.1" y2="234.5"/>
	</g>
	<g transform="matrix(1.47047,0,0,1.47047,0,0)">
		<g class="st2">
			<path d="M98.7,202.4c2.1,0,3.8,1.1,3.8,3.2c0,2.7-3.2,5.1-6.1,5.1c-2.1,0-3.8-1.2-3.8-3.2C92.6,204.7,95.8,202.4,98.7,202.4z"/>
		</g>
	</g>
	<g transform="matrix(1.47047,0,0,1.47047,0,0)">
		<line vector-effect="none" class="st3" x1="119.1" y1="211.8" x2="119.1" y2="238.5"/>
	</g>
	<g transform="matrix(1.47047,0,0,1.47047,0,0)">
		<g class="st2">
			<path d="M124.7,206.4c2.1,0,3.8,1.1,3.8,3.2c0,2.7-3.2,5.1-6.1,5.1c-2.1,0-3.8-1.2-3.8-3.2C118.6,208.7,121.8,206.4,124.7,206.4z
				"/>
		</g>
	</g>
	<g transform="matrix(1.47047,0,0,1.47047,0,0)">
		<line vector-effect="none" class="st3" x1="145.1" y1="215.8" x2="145.1" y2="242.5"/>
	</g>
	<g transform="matrix(1.47047,0,0,1.47047,0,0)">
		<g class="st2">
			<path d="M150.7,210.4c2.1,0,3.8,1.1,3.8,3.2c0,2.7-3.2,5.1-6.1,5.1c-2.1,0-3.8-1.2-3.8-3.2C144.6,212.7,147.8,210.4,150.7,210.4z
				"/>
		</g>
	</g>
	<g transform="matrix(1.47047,0,0,1.47047,0,0)">
		<line vector-effect="none" class="st3" x1="171.1" y1="207.8" x2="171.1" y2="234.5"/>
	</g>
	<g transform="matrix(1.47047,0,0,1.47047,0,0)">
		<g class="st2">
			<path d="M176.7,202.4c2.1,0,3.8,1.1,3.8,3.2c0,2.7-3.2,5.1-6.1,5.1c-2.1,0-3.8-1.2-3.8-3.2C170.6,204.7,173.8,202.4,176.7,202.4z
				"/>
		</g>
	</g>
	<g transform="matrix(1.47047,0,0,1.47047,0,0)">
		<line vector-effect="none" class="st3" x1="209.3" y1="211.8" x2="209.3" y2="238.5"/>
	</g>
	<g transform="matrix(1.47047,0,0,1.47047,0,0)">
		<g class="st2">
			<path d="M215.5,206.3c1.3,0,2.4,0.6,2.9,1.4c0.2,0.4,0.4,0.9,0.4,1.4c0,1.4-0.9,3-3,4.4c-1,0.6-2.5,1.3-3.9,1.3
				c-1,0-2-0.4-2.6-1.3c-0.4-0.6-0.5-1.1-0.5-1.7c0-1.9,1.9-3.6,3.2-4.4C213.2,206.6,214.4,206.3,215.5,206.3z M209.9,212.4
				c0,0.2,0,0.4,0.1,0.5c0.2,0.4,0.6,0.5,1.1,0.5c1.1,0,2.5-0.7,3.7-1.5c1.4-0.9,2.9-1.9,2.9-3.1c0-0.2-0.1-0.5-0.2-0.7
				c-0.3-0.5-0.7-0.7-1.2-0.7c-1,0-2.4,0.7-3.5,1.3C211.4,209.8,209.9,211.2,209.9,212.4z"/>
		</g>
	</g>
	<g transform="matrix(1.47047,0,0,1.47047,0,0)">
		<g class="st2">
			<path d="M251.8,214.7h10.3v3.8h-10.3V214.7z"/>
		</g>
	</g>
	<g transform="matrix(1.47047,0,0,1.47047,0,0)">
		<line vector-effect="none" class="st3" x1="307.6" y1="211.8" x2="307.6" y2="238.5"/>
	</g>
	<g transform="matrix(1.47047,0,0,1.47047,0,0)">
		<g class="st2">
			<path d="M313.2,206.4c2.1,0,3.8,1.1,3.8,3.2c0,2.7-3.2,5.1-6.1,5.1c-2.1,0-3.8-1.2-3.8-3.2C307.1,208.7,310.3,206.4,313.2,206.4z
				"/>
		</g>
	</g>
	<g transform="matrix(1.47047,0,0,1.47047,0,0)">
		<line vector-effect="none" class="st3" x1="333.6" y1="215.8" x2="333.6" y2="242.5"/>
	</g>
	<g transform="matrix(1.47047,0,0,1.47047,0,0)">
		<g class="st2">
			<path d="M339.2,210.4c2.1,0,3.8,1.1,3.8,3.2c0,2.7-3.2,5.1-6.1,5.1c-2.1,0-3.8-1.2-3.8-3.2C333.1,212.7,336.3,210.4,339.2,210.4z
				"/>
		</g>
	</g>
	<g transform="matrix(1.47047,0,0,1.47047,0,0)">
		<line vector-effect="none" class="st3" x1="359.6" y1="219.8" x2="359.6" y2="246.5"/>
	</g>
	<g transform="matrix(1.47047,0,0,1.47047,0,0)">
		<g class="st2">
			<path d="M365.2,214.4c2.1,0,3.8,1.1,3.8,3.2c0,2.7-3.2,5.1-6.1,5.1c-2.1,0-3.8-1.2-3.8-3.2C359.1,216.7,362.3,214.4,365.2,214.4z
				"/>
		</g>
	</g>
	<g transform="matrix(1.47047,0,0,1.47047,0,0)">
		<line vector-effect="none" class="st3" x1="385.6" y1="211.8" x2="385.6" y2="238.5"/>
	</g>
	<g transform="matrix(1.47047,0,0,1.47047,0,0)">
		<g class="st2">
			<path d="M391.2,206.4c2.1,0,3.8,1.1,3.8,3.2c0,2.7-3.2,5.1-6.1,5.1c-2.1,0-3.8-1.2-3.8-3.2C385.1,208.7,388.3,206.4,391.2,206.4z
				"/>
		</g>
	</g>
	<g transform="matrix(1.47047,0,0,1.47047,0,0)">
		<line vector-effect="none" class="st3" x1="423.8" y1="215.8" x2="423.8" y2="242.5"/>
	</g>
	<g transform="matrix(1.47047,0,0,1.47047,0,0)">
		<g class="st2">
			<path d="M430,210.3c1.3,0,2.4,0.6,2.9,1.4c0.2,0.4,0.4,0.9,0.4,1.4c0,1.4-0.9,3-3,4.4c-1,0.6-2.5,1.3-3.9,1.3c-1,0-2-0.4-2.6-1.3
				c-0.4-0.6-0.5-1.1-0.5-1.7c0-1.9,1.9-3.6,3.2-4.4C427.7,210.6,428.9,210.3,430,210.3z M424.4,216.4c0,0.2,0,0.4,0.1,0.5
				c0.2,0.4,0.6,0.5,1.1,0.5c1.1,0,2.5-0.7,3.7-1.5c1.4-0.9,2.9-1.9,2.9-3.1c0-0.2-0.1-0.5-0.2-0.7c-0.3-0.5-0.7-0.7-1.2-0.7
				c-1,0-2.4,0.7-3.5,1.3C425.9,213.8,424.4,215.2,424.4,216.4z"/>
		</g>
	</g>
	<g transform="matrix(1.47047,0,0,1.47047,0,0)">
		<g class="st2">
			<path d="M466.3,214.7h10.3v3.8h-10.3V214.7z"/>
		</g>
	</g>
	<g transform="matrix(1.47047,0,0,1.47047,0,0)">
		<line vector-effect="none" class="st3" x1="93.1" y1="292.2" x2="93.1" y2="319"/>
	</g>
	<g transform="matrix(1.47047,0,0,1.47047,0,0)">
		<g class="st2">
			<path d="M98.7,286.9c2.1,0,3.8,1.1,3.8,3.2c0,2.7-3.2,5.1-6.1,5.1c-2.1,0-3.8-1.2-3.8-3.2C92.6,289.2,95.8,286.9,98.7,286.9z"/>
		</g>
	</g>
	<g transform="matrix(1.47047,0,0,1.47047,0,0)">
		<line vector-effect="none" class="st3" x1="127.6" y1="296.2" x2="127.6" y2="323"/>
	</g>
	<g transform="matrix(1.47047,0,0,1.47047,0,0)">
		<g class="st2">
			<path d="M133.2,290.9c2.1,0,3.8,1.1,3.8,3.2c0,2.7-3.2,5.1-6.1,5.1c-2.1,0-3.8-1.2-3.8-3.2C127.1,293.2,130.3,290.9,133.2,290.9z
				"/>
		</g>
	</g>
	<g transform="matrix(1.47047,0,0,1.47047,0,0)">
		<line vector-effect="none" class="st3" x1="171.1" y1="297.8" x2="171.1" y2="271"/>
	</g>
	<g transform="matrix(1.47047,0,0,1.47047,0,0)">
		<g class="st2">
			<path d="M167.7,294.9c2.1,0,3.8,1.1,3.8,3.2c0,2.7-3.2,5.1-6.1,5.1c-2.1,0-3.8-1.2-3.8-3.2C161.6,297.2,164.8,294.9,167.7,294.9z
				"/>
		</g>
	</g>
	<g transform="matrix(1.47047,0,0,1.47047,0,0)">
		<line vector-effect="none" class="st3" x1="196.6" y1="292.2" x2="196.6" y2="319"/>
	</g>
	<g transform="matrix(1.47047,0,0,1.47047,0,0)">
		<g class="st2">
			<path d="M202.2,286.9c2.1,0,3.8,1.1,3.8,3.2c0,2.7-3.2,5.1-6.1,5.1c-2.1,0-3.8-1.2-3.8-3.2C196.1,289.2,199.3,286.9,202.2,286.9z
				"/>
		</g>
	</g>
	<g transform="matrix(1.47047,0,0,1.47047,0,0)">
		<line vector-effect="none" class="st3" x1="243.1" y1="296.2" x2="243.1" y2="323"/>
	</g>
	<g transform="matrix(1.47047,0,0,1.47047,0,0)">
		<g class="st2">
			<path d="M249.2,290.8c1.3,0,2.4,0.6,2.9,1.4c0.2,0.4,0.4,0.9,0.4,1.4c0,1.4-0.9,3-3,4.4c-1,0.6-2.5,1.3-3.9,1.3
				c-1,0-2-0.4-2.6-1.3c-0.4-0.6-0.5-1.1-0.5-1.7c0-1.9,1.9-3.6,3.2-4.4C246.9,291.1,248.2,290.8,249.2,290.8z M243.6,296.9
				c0,0.2,0,0.4,0.1,0.5c0.2,0.4,0.6,0.5,1.1,0.5c1.1,0,2.5-0.7,3.7-1.5c1.4-0.9,2.9-1.9,2.9-3.1c0-0.2-0.1-0.5-0.2-0.7
				c-0.3-0.5-0.7-0.7-1.2-0.7c-1,0-2.4,0.7-3.5,1.3C245.2,294.3,243.6,295.7,243.6,296.9z"/>
		</g>
	</g>
	<g transform="matrix(1.47047,0,0,1.47047,0,0)">
		<g class="st2">
			<path d="M301.1,291.2h10.3v3.8h-10.3V291.2z"/>
		</g>
	</g>
	<g transform="matrix(1.47047,0,0,1.47047,0,0)">
		<line vector-effect="none" class="st3" x1="372.1" y1="296.2" x2="372.1" y2="323"/>
	</g>
	<g transform="matrix(1.47047,0,0,1.47047,0,0)">
		<g class="st2">
			<path d="M377.7,290.9c2.1,0,3.8,1.1,3.8,3.2c0,2.7-3.2,5.1-6.1,5.1c-2.1,0-3.8-1.2-3.8-3.2C371.6,293.2,374.8,290.9,377.7,290.9z
				"/>
		</g>
	</g>
	<g transform="matrix(1.47047,0,0,1.47047,0,0)">
		<line vector-effect="none" class="st3" x1="415.6" y1="297.8" x2="415.6" y2="271"/>
	</g>
	<g transform="matrix(1.47047,0,0,1.47047,0,0)">
		<g class="st2">
			<path d="M412.2,294.9c2.1,0,3.8,1.1,3.8,3.2c0,2.7-3.2,5.1-6.1,5.1c-2.1,0-3.8-1.2-3.8-3.2C406.1,297.2,409.3,294.9,412.2,294.9z
				"/>
		</g>
	</g>
	<g transform="matrix(1.47047,0,0,1.47047,0,0)">
		<line vector-effect="none" class="st3" x1="450.1" y1="301.8" x2="450.1" y2="275"/>
	</g>
	<g transform="matrix(1.47047,0,0,1.47047,0,0)">
		<g class="st2">
			<path d="M446.7,298.9c2.1,0,3.8,1.1,3.8,3.2c0,2.7-3.2,5.1-6.1,5.1c-2.1,0-3.8-1.2-3.8-3.2C440.6,301.2,443.8,298.9,446.7,298.9z
				"/>
		</g>
	</g>
	<g transform="matrix(1.47047,0,0,1.47047,0,0)">
		<line vector-effect="none" class="st3" x1="475.6" y1="296.2" x2="475.6" y2="323"/>
	</g>
	<g transform="matrix(1.47047,0,0,1.47047,0,0)">
		<g class="st2">
			<path d="M481.2,290.9c2.1,0,3.8,1.1,3.8,3.2c0,2.7-3.2,5.1-6.1,5.1c-2.1,0-3.8-1.2-3.8-3.2C475.1,293.2,478.3,290.9,481.2,290.9z
				"/>
		</g>
	</g>
	<g transform="matrix(1.47047,0,0,1.47047,0,0)">
		<line vector-effect="none" class="st3" x1="102.1" y1="374.2" x2="102.1" y2="347.5"/>
	</g>
	<g transform="matrix(1.47047,0,0,1.47047,0,0)">
		<g class="st2">
			<path d="M99.2,371.3c1.3,0,2.4,0.6,2.9,1.4c0.2,0.4,0.4,0.9,0.4,1.4c0,1.4-0.9,3-3,4.4c-1,0.6-2.5,1.3-3.9,1.3
				c-1,0-2-0.4-2.6-1.3c-0.4-0.6-0.5-1.1-0.5-1.7c0-1.9,1.9-3.6,3.2-4.4C96.9,371.6,98.2,371.3,99.2,371.3z M93.6,377.4
				c0,0.2,0,0.4,0.1,0.5c0.2,0.4,0.6,0.5,1.1,0.5c1.1,0,2.5-0.7,3.7-1.5c1.4-0.9,2.9-1.9,2.9-3.1c0-0.2-0.1-0.5-0.2-0.7
				c-0.3-0.5-0.7-0.7-1.2-0.7c-1,0-2.4,0.7-3.5,1.3C95.2,374.8,93.6,376.2,93.6,377.4z"/>
		</g>
	</g>
	<g transform="matrix(1.47047,0,0,1.47047,0,0)">
		<g class="st2">
			<path d="M158.8,367.7h10.3v3.8h-10.3V367.7z"/>
		</g>
	</g>
	<g transform="matrix(1.47047,0,0,1.47047,0,0)">
		<line vector-effect="none" class="st3" x1="246.8" y1="374.2" x2="246.8" y2="347.5"/>
	</g>
	<g transform="matrix(1.47047,0,0,1.47047,0,0)">
		<g class="st2">
			<path d="M243.4,371.4c2.1,0,3.8,1.1,3.8,3.2c0,2.7-3.2,5.1-6.1,5.1c-2.1,0-3.8-1.2-3.8-3.2C237.3,373.7,240.6,371.4,243.4,371.4z
				"/>
		</g>
	</g>
	<g transform="matrix(1.47047,0,0,1.47047,0,0)">
		<line vector-effect="none" class="st3" x1="285.8" y1="378.2" x2="285.8" y2="351.5"/>
	</g>
	<g transform="matrix(1.47047,0,0,1.47047,0,0)">
		<g class="st2">
			<path d="M282.4,375.4c2.1,0,3.8,1.1,3.8,3.2c0,2.7-3.2,5.1-6.1,5.1c-2.1,0-3.8-1.2-3.8-3.2C276.3,377.7,279.6,375.4,282.4,375.4z
				"/>
		</g>
	</g>
	<g transform="matrix(1.47047,0,0,1.47047,0,0)">
		<line vector-effect="none" class="st3" x1="325.1" y1="382.2" x2="325.1" y2="355.5"/>
	</g>
	<g transform="matrix(1.47047,0,0,1.47047,0,0)">
		<g class="st2">
			<path d="M321.7,379.4c2.1,0,3.8,1.1,3.8,3.2c0,2.7-3.2,5.1-6.1,5.1c-2.1,0-3.8-1.2-3.8-3.2C315.6,381.7,318.8,379.4,321.7,379.4z
				"/>
		</g>
	</g>
	<g transform="matrix(1.47047,0,0,1.47047,0,0)">
		<line vector-effect="none" class="st3" x1="364.1" y1="374.2" x2="364.1" y2="347.5"/>
	</g>
	<g transform="matrix(1.47047,0,0,1.47047,0,0)">
		<g class="st2">
			<path d="M360.7,371.4c2.1,0,3.8,1.1,3.8,3.2c0,2.7-3.2,5.1-6.1,5.1c-2.1,0-3.8-1.2-3.8-3.2C354.6,373.7,357.8,371.4,360.7,371.4z
				"/>
		</g>
	</g>
	<g transform="matrix(1.47047,0,0,1.47047,0,0)">
		<g class="st2">
			<path d="M412.7,375.5c2.7,0,6.8,1.3,6.8,4c0,3.1-3.9,4-6.6,4h-0.2c-2.8,0-6.8-0.9-6.8-3.9C405.8,376.8,409.9,375.5,412.7,375.5z
				 M409.3,378.9c0,1.5,1,3.2,2.1,3.8c0.4,0.2,0.9,0.3,1.4,0.3c1.2,0,2.5-0.5,2.8-1.2c0.1-0.3,0.2-0.6,0.2-0.9c0-1.4-0.8-3.3-1.8-4
				c-0.5-0.4-1.2-0.5-1.9-0.5c-0.8,0-1.7,0.3-2.1,0.7C409.5,377.5,409.3,378.2,409.3,378.9z"/>
		</g>
	</g>
</g>
</svg>
