<?xml version="1.0" encoding="utf-8"?>
<!-- Generator: Adobe Illustrator 26.3.1, SVG Export Plug-In . SVG Version: 6.00 Build 0)  -->
<svg version="1.1" id="Layer_1" xmlns="http://www.w3.org/2000/svg" xmlns:xlink="http://www.w3.org/1999/xlink" x="0px" y="0px"
	 viewBox="0 0 792 612" style="enable-background:new 0 0 792 612;" xml:space="preserve">
<style type="text/css">
	.st0{fill:none;stroke:#000000;stroke-width:2.4803;stroke-linejoin:bevel;stroke-miterlimit:10;}
	.st1{fill:none;stroke:#000000;stroke-width:0.7751;stroke-linejoin:bevel;stroke-miterlimit:10;}
	.st2{enable-background:new    ;}
	.st3{fill:none;stroke:#000000;stroke-width:0.4651;stroke-linejoin:bevel;stroke-miterlimit:10;}
	.st4{fill-rule:evenodd;clip-rule:evenodd;stroke:#000000;stroke-width:0.155;stroke-linejoin:bevel;stroke-miterlimit:10;}
	.st5{fill:none;stroke:#000000;stroke-width:0.6201;stroke-linejoin:bevel;stroke-miterlimit:10;}
	.st6{fill-rule:evenodd;clip-rule:evenodd;}
</style>
<g>
	<g transform="matrix(0.620079,0,0,0.620079,0,0)">
		<line vector-effect="none" class="st0" x1="131.2" y1="197.2" x2="131.2" y2="229.2"/>
	</g>
	<g transform="matrix(0.620079,0,0,0.620079,0,0)">
		<line vector-effect="none" class="st1" x1="137" y1="197.2" x2="137" y2="229.2"/>
	</g>
	<g transform="matrix(0.620079,0,0,0.620079,0,0)">
		<g class="st2">
			<path d="M142.5,210.8c-0.9,0-1.6-0.7-1.6-1.6s0.7-1.6,1.6-1.6s1.6,0.7,1.6,1.6S143.3,210.8,142.5,210.8z"/>
		</g>
	</g>
	<g transform="matrix(0.620079,0,0,0.620079,0,0)">
		<g class="st2">
			<path d="M142.5,218.8c-0.9,0-1.6-0.7-1.6-1.6s0.7-1.6,1.6-1.6s1.6,0.7,1.6,1.6S143.3,218.8,142.5,218.8z"/>
		</g>
	</g>
	<g transform="matrix(0.620079,0,0,0.620079,0,0)">
		<line vector-effect="none" class="st1" x1="352" y1="197.2" x2="352" y2="229.2"/>
	</g>
	<g transform="matrix(0.620079,0,0,0.620079,0,0)">
		<line vector-effect="none" class="st0" x1="357.7" y1="197.2" x2="357.7" y2="229.2"/>
	</g>
	<g transform="matrix(0.620079,0,0,0.620079,0,0)">
		<g class="st2">
			<path d="M346.5,210.8c-0.9,0-1.6-0.7-1.6-1.6s0.7-1.6,1.6-1.6s1.6,0.7,1.6,1.6S347.3,210.8,346.5,210.8z"/>
		</g>
	</g>
	<g transform="matrix(0.620079,0,0,0.620079,0,0)">
		<g class="st2">
			<path d="M346.5,218.8c-0.9,0-1.6-0.7-1.6-1.6s0.7-1.6,1.6-1.6s1.6,0.7,1.6,1.6S347.3,218.8,346.5,218.8z"/>
		</g>
	</g>
	<g transform="matrix(0.620079,0,0,0.620079,0,0)">
		<line vector-effect="none" class="st0" x1="357.7" y1="197.2" x2="357.7" y2="229.2"/>
	</g>
	<g transform="matrix(0.620079,0,0,0.620079,0,0)">
		<line vector-effect="none" class="st1" x1="363.5" y1="197.2" x2="363.5" y2="229.2"/>
	</g>
	<g transform="matrix(0.620079,0,0,0.620079,0,0)">
		<g class="st2">
			<path d="M369,210.8c-0.9,0-1.6-0.7-1.6-1.6s0.7-1.6,1.6-1.6c0.9,0,1.6,0.7,1.6,1.6S369.8,210.8,369,210.8z"/>
		</g>
	</g>
	<g transform="matrix(0.620079,0,0,0.620079,0,0)">
		<g class="st2">
			<path d="M369,218.8c-0.9,0-1.6-0.7-1.6-1.6s0.7-1.6,1.6-1.6c0.9,0,1.6,0.7,1.6,1.6S369.8,218.8,369,218.8z"/>
		</g>
	</g>
	<g transform="matrix(0.620079,0,0,0.620079,0,0)">
		<line vector-effect="none" class="st1" x1="567" y1="197.2" x2="567" y2="229.2"/>
	</g>
	<g transform="matrix(0.620079,0,0,0.620079,0,0)">
		<line vector-effect="none" class="st0" x1="572.7" y1="197.2" x2="572.7" y2="229.2"/>
	</g>
	<g transform="matrix(0.620079,0,0,0.620079,0,0)">
		<g class="st2">
			<path d="M561.5,210.8c-0.9,0-1.6-0.7-1.6-1.6s0.7-1.6,1.6-1.6s1.6,0.7,1.6,1.6S562.3,210.8,561.5,210.8z"/>
		</g>
	</g>
	<g transform="matrix(0.620079,0,0,0.620079,0,0)">
		<g class="st2">
			<path d="M561.5,218.8c-0.9,0-1.6-0.7-1.6-1.6s0.7-1.6,1.6-1.6s1.6,0.7,1.6,1.6S562.3,218.8,561.5,218.8z"/>
		</g>
	</g>
	<g transform="matrix(0.620079,0,0,0.620079,0,0)">
		<line vector-effect="none" class="st0" x1="572.7" y1="197.2" x2="572.7" y2="229.2"/>
	</g>
	<g transform="matrix(0.620079,0,0,0.620079,0,0)">
		<line vector-effect="none" class="st1" x1="578.5" y1="197.2" x2="578.5" y2="229.2"/>
	</g>
	<g transform="matrix(0.620079,0,0,0.620079,0,0)">
		<g class="st2">
			<path d="M584,210.8c-0.9,0-1.6-0.7-1.6-1.6s0.7-1.6,1.6-1.6s1.6,0.7,1.6,1.6S584.8,210.8,584,210.8z"/>
		</g>
	</g>
	<g transform="matrix(0.620079,0,0,0.620079,0,0)">
		<g class="st2">
			<path d="M584,218.8c-0.9,0-1.6-0.7-1.6-1.6s0.7-1.6,1.6-1.6s1.6,0.7,1.6,1.6S584.8,218.8,584,218.8z"/>
		</g>
	</g>
	<g transform="matrix(0.620079,0,0,0.620079,0,0)">
		<line vector-effect="none" class="st1" x1="781.7" y1="197.2" x2="781.7" y2="229.2"/>
	</g>
	<g transform="matrix(0.620079,0,0,0.620079,0,0)">
		<line vector-effect="none" class="st0" x1="787.5" y1="197.2" x2="787.5" y2="229.2"/>
	</g>
	<g transform="matrix(0.620079,0,0,0.620079,0,0)">
		<g class="st2">
			<path d="M776.2,210.8c-0.9,0-1.6-0.7-1.6-1.6s0.7-1.6,1.6-1.6c0.9,0,1.6,0.7,1.6,1.6S777.1,210.8,776.2,210.8z"/>
		</g>
	</g>
	<g transform="matrix(0.620079,0,0,0.620079,0,0)">
		<g class="st2">
			<path d="M776.2,218.8c-0.9,0-1.6-0.7-1.6-1.6s0.7-1.6,1.6-1.6c0.9,0,1.6,0.7,1.6,1.6S777.1,218.8,776.2,218.8z"/>
		</g>
	</g>
	<g transform="matrix(0.620079,0,0,0.620079,0,0)">
		<line vector-effect="none" class="st0" x1="787.5" y1="197.2" x2="787.5" y2="229.2"/>
	</g>
	<g transform="matrix(0.620079,0,0,0.620079,0,0)">
		<line vector-effect="none" class="st1" x1="793.2" y1="197.2" x2="793.2" y2="229.2"/>
	</g>
	<g transform="matrix(0.620079,0,0,0.620079,0,0)">
		<g class="st2">
			<path d="M798.7,210.8c-0.9,0-1.6-0.7-1.6-1.6s0.7-1.6,1.6-1.6s1.6,0.7,1.6,1.6S799.6,210.8,798.7,210.8z"/>
		</g>
	</g>
	<g transform="matrix(0.620079,0,0,0.620079,0,0)">
		<g class="st2">
			<path d="M798.7,218.8c-0.9,0-1.6-0.7-1.6-1.6s0.7-1.6,1.6-1.6s1.6,0.7,1.6,1.6S799.6,218.8,798.7,218.8z"/>
		</g>
	</g>
	<g transform="matrix(0.620079,0,0,0.620079,0,0)">
		<line vector-effect="none" class="st1" x1="996.7" y1="197.2" x2="996.7" y2="229.2"/>
	</g>
	<g transform="matrix(0.620079,0,0,0.620079,0,0)">
		<line vector-effect="none" class="st0" x1="1002.5" y1="197.2" x2="1002.5" y2="229.2"/>
	</g>
	<g transform="matrix(0.620079,0,0,0.620079,0,0)">
		<g class="st2">
			<path d="M991.2,210.8c-0.9,0-1.6-0.7-1.6-1.6s0.7-1.6,1.6-1.6s1.6,0.7,1.6,1.6S992.1,210.8,991.2,210.8z"/>
		</g>
	</g>
	<g transform="matrix(0.620079,0,0,0.620079,0,0)">
		<g class="st2">
			<path d="M991.2,218.8c-0.9,0-1.6-0.7-1.6-1.6s0.7-1.6,1.6-1.6s1.6,0.7,1.6,1.6S992.1,218.8,991.2,218.8z"/>
		</g>
	</g>
	<g transform="matrix(0.620079,0,0,0.620079,0,0)">
		<line vector-effect="none" class="st0" x1="1002.5" y1="197.2" x2="1002.5" y2="229.2"/>
	</g>
	<g transform="matrix(0.620079,0,0,0.620079,0,0)">
		<line vector-effect="none" class="st1" x1="1008.2" y1="197.2" x2="1008.2" y2="229.2"/>
	</g>
	<g transform="matrix(0.620079,0,0,0.620079,0,0)">
		<g class="st2">
			<path d="M1013.7,210.8c-0.9,0-1.6-0.7-1.6-1.6s0.7-1.6,1.6-1.6c0.9,0,1.6,0.7,1.6,1.6S1014.6,210.8,1013.7,210.8z"/>
		</g>
	</g>
	<g transform="matrix(0.620079,0,0,0.620079,0,0)">
		<g class="st2">
			<path d="M1013.7,218.8c-0.9,0-1.6-0.7-1.6-1.6s0.7-1.6,1.6-1.6c0.9,0,1.6,0.7,1.6,1.6S1014.6,218.8,1013.7,218.8z"/>
		</g>
	</g>
	<g transform="matrix(0.620079,0,0,0.620079,0,0)">
		<line vector-effect="none" class="st1" x1="1211.7" y1="197.2" x2="1211.7" y2="229.2"/>
	</g>
	<g transform="matrix(0.620079,0,0,0.620079,0,0)">
		<line vector-effect="none" class="st0" x1="1217.5" y1="197.2" x2="1217.5" y2="229.2"/>
	</g>
	<g transform="matrix(0.620079,0,0,0.620079,0,0)">
		<g class="st2">
			<path d="M1206.2,210.8c-0.9,0-1.6-0.7-1.6-1.6s0.7-1.6,1.6-1.6c0.9,0,1.6,0.7,1.6,1.6S1207.1,210.8,1206.2,210.8z"/>
		</g>
	</g>
	<g transform="matrix(0.620079,0,0,0.620079,0,0)">
		<g class="st2">
			<path d="M1206.2,218.8c-0.9,0-1.6-0.7-1.6-1.6s0.7-1.6,1.6-1.6c0.9,0,1.6,0.7,1.6,1.6S1207.1,218.8,1206.2,218.8z"/>
		</g>
	</g>
	<g transform="matrix(0.620079,0,0,0.620079,386.309,602.336)">
	</g>
	<g transform="matrix(0.620079,0,0,0.620079,386.309,602.336)">
		<g class="st2">
			<path d="M-461.7-723.4h0.9v11.8c0,0.3,0.4,0.6,0.6,0.6h2.1v0.7h-6.7v-0.7h1.8c0.3,0,0.6-0.4,0.6-0.6v-9.3c0-0.3-0.2-0.4-0.5-0.4
				h-2.2v-0.6C-463.9-722.1-462.6-722.5-461.7-723.4z"/>
		</g>
	</g>
	<g transform="matrix(0.620079,0,0,0.620079,386.309,602.336)">
	</g>
	<g transform="matrix(0.620079,0,0,0.620079,0,0)">
	</g>
	<g transform="matrix(0.620079,0,0,0.620079,479.941,602.336)">
	</g>
	<g transform="matrix(0.620079,0,0,0.620079,479.941,602.336)">
		<g class="st2">
			<path d="M-579.7-710.4v-0.5c0.8-0.9,2.5-2.8,2.7-3.1c2.7-2.7,3.9-5.2,3.9-6.3c0-1.5-0.9-2.4-2.4-2.4c-1.1,0-2.8,0.6-2.8,1.9
				c0,0.8,1.5,0.3,1.5,1.7c0,0.6-0.5,1.1-1.1,1.1c-0.7,0-1.4-0.6-1.4-1.9c0-2.2,2-3.5,4-3.5c2,0,4,1.3,4,3.5c0,1.8-1.2,3.1-2.5,4.2
				c-1.4,1.2-2.7,2.3-4,3.9l4.8,0c1.1,0,1.1-1.5,1.3-2.3h0.6l-0.3,3.8H-579.7z"/>
		</g>
	</g>
	<g transform="matrix(0.620079,0,0,0.620079,479.941,602.336)">
	</g>
	<g transform="matrix(0.620079,0,0,0.620079,0,0)">
	</g>
	<g transform="matrix(0.620079,0,0,0.620079,0,0)">
		<path vector-effect="none" class="st3" d="M162.2,183.2c7-6.8,28.5-6.8,35.8,0"/>
	</g>
	<g transform="matrix(0.620079,0,0,0.620079,0,0)">
		<path vector-effect="none" class="st4" d="M162.2,183.2c7-7.8,28.5-7.8,35.8,0C190.7,177.5,169.2,177.5,162.2,183.2"/>
	</g>
	<g transform="matrix(0.620079,0,0,0.620079,573.573,602.336)">
	</g>
	<g transform="matrix(0.620079,0,0,0.620079,573.573,602.336)">
		<g class="st2">
			<path d="M-691.6-714.7c0.7,0,1.1,0.4,1.1,1.2c0,0.9-1,0.9-1,1.4c0,1.1,1.7,1.3,2.4,1.3c2.1,0,2.9-1,2.9-3c0-1.6-0.5-3-2.3-3
				c-0.5,0-0.9,0-1.4,0c-0.3,0-0.6,0-0.6-0.4c0-0.3,0.1-0.4,0.4-0.4c0.3,0,1.4,0,1.6,0c1.4-0.1,1.9-1.3,1.9-2.5
				c0-1.5-0.5-2.8-2.2-2.8c-0.5,0-2.2,0.3-2.2,1.1c0,0.5,0.8,0.8,0.8,1.6c0,0.6-0.4,0.8-1,0.8c-0.8,0-1-0.7-1-1.4
				c0-1.9,1.9-2.7,3.5-2.7c2,0,3.9,1,3.9,3.2c0,1.6-1,2.3-2.3,3c0.4,0.2,0.9,0.4,1.3,0.6c1.1,0.6,1.5,1.8,1.5,2.9
				c0,2.5-2.2,3.6-4.5,3.6c-1.9,0-3.9-0.9-3.9-3.1C-692.8-713.9-692.4-714.7-691.6-714.7z"/>
		</g>
	</g>
	<g transform="matrix(0.620079,0,0,0.620079,573.573,602.336)">
	</g>
	<g transform="matrix(0.620079,0,0,0.620079,0,0)">
	</g>
	<g transform="matrix(0.620079,0,0,0.620079,636.201,602.336)">
	</g>
	<g transform="matrix(0.620079,0,0,0.620079,636.201,602.336)">
		<g class="st2">
			<path d="M-768.4-714.2c0-2.1,1.3-3.2,3.2-4.3c-0.4-0.9-0.8-1.9-0.8-3c0-1.8,1.5-3.2,3.3-3.2c1.5,0,2.8,0.9,2.8,2.5
				c0,1.9-1.6,2.9-3.2,3.6c0.7,1.4,2,3.6,3.1,4.8c0.7-0.6,1.4-1.8,1.4-2.8c0-1-1-1.1-1.9-1.1v-0.6h5.1v0.6c-1.1,0-1.7,0.3-2.2,1.3
				c-0.1,0.2-0.9,1.7-1,1.9c-0.1,0.2-0.8,1.2-0.9,1.4c0.6,0.6,1.3,1.3,2.2,1.3c1,0,1.3-1.2,1.4-2h0.6c0,1.6-0.8,3.5-2.6,3.5
				c-1.1,0-2.1-0.7-2.9-1.5c-1.2,0.8-2.3,1.5-3.7,1.5C-766.7-710.3-768.4-711.9-768.4-714.2z M-766.6-715.1c0,1.7,1.3,3.7,3.1,3.7
				c0.9,0,1.6-0.4,2.3-0.9c-1.1-1.1-2.5-3.6-3.5-5.3C-765.8-717.3-766.6-716.3-766.6-715.1z M-764.3-722.1c0,0.5,0.4,2.1,1,2.8
				c1.5-0.8,2.2-1.5,2.2-2.8c0-1-0.6-1.9-1.6-1.9C-763.8-724-764.3-723-764.3-722.1z"/>
		</g>
	</g>
	<g transform="matrix(0.620079,0,0,0.620079,636.201,602.336)">
	</g>
	<g transform="matrix(0.620079,0,0,0.620079,0,0)">
	</g>
	<g transform="matrix(0.620079,0,0,0.620079,709.37,602.336)">
	</g>
	<g transform="matrix(0.620079,0,0,0.620079,709.37,602.336)">
		<g class="st2">
			<path d="M-857.3-713.8v-0.9l6.3-8.8h0.7v8.9h2.1v0.8h-2.1v2.1c0,0.2,0.2,0.5,0.6,0.5h1v0.7h-5.2v-0.7h1.3c0.3,0,0.6-0.4,0.6-0.6
				v-2H-857.3z M-852-714.6v-6.3l-4.5,6.3H-852z"/>
		</g>
	</g>
	<g transform="matrix(0.620079,0,0,0.620079,709.37,602.336)">
	</g>
	<g transform="matrix(0.620079,0,0,0.620079,0,0)">
	</g>
	<g transform="matrix(0.620079,0,0,0.620079,771.378,602.336)">
	</g>
	<g transform="matrix(0.620079,0,0,0.620079,771.378,602.336)">
		<g class="st2">
			<path d="M-931.9-714.2c0-2.1,1.3-3.2,3.2-4.3c-0.4-0.9-0.8-1.9-0.8-3c0-1.8,1.5-3.2,3.3-3.2c1.5,0,2.8,0.9,2.8,2.5
				c0,1.9-1.6,2.9-3.2,3.6c0.7,1.4,2,3.6,3.1,4.8c0.7-0.6,1.4-1.8,1.4-2.8c0-1-1-1.1-1.9-1.1v-0.6h5.1v0.6c-1.1,0-1.7,0.3-2.2,1.3
				c-0.1,0.2-0.9,1.7-1,1.9c-0.1,0.2-0.8,1.2-0.9,1.4c0.6,0.6,1.3,1.3,2.2,1.3c1,0,1.3-1.2,1.4-2h0.6c0,1.6-0.8,3.5-2.6,3.5
				c-1.1,0-2.1-0.7-2.9-1.5c-1.2,0.8-2.3,1.5-3.7,1.5C-930.2-710.3-931.9-711.9-931.9-714.2z M-930.1-715.1c0,1.7,1.3,3.7,3.1,3.7
				c0.9,0,1.6-0.4,2.3-0.9c-1.1-1.1-2.5-3.6-3.5-5.3C-929.3-717.3-930.1-716.3-930.1-715.1z M-927.8-722.1c0,0.5,0.4,2.1,1,2.8
				c1.5-0.8,2.2-1.5,2.2-2.8c0-1-0.6-1.9-1.6-1.9C-927.3-724-927.8-723-927.8-722.1z"/>
		</g>
	</g>
	<g transform="matrix(0.620079,0,0,0.620079,771.378,602.336)">
	</g>
	<g transform="matrix(0.620079,0,0,0.620079,0,0)">
	</g>
	<g transform="matrix(0.620079,0,0,0.620079,326.781,365.65)">
	</g>
	<g transform="matrix(0.620079,0,0,0.620079,326.781,365.65)">
		<g class="st2">
			<path d="M-389-441.5h0.6v17.5c0,1.9-2.5,3.8-4.5,3.8c-1.2,0-2.2-0.7-2.2-1.9c0-2,2-3.8,4.4-3.8c0.7,0,1.2,0.2,1.6,0.5L-389-441.5
				z"/>
		</g>
		<g class="st2">
			<path d="M-381.3-427.3v-1.8h10.5v1.8H-381.3z M-370.8-424.7v1.9h-10.5v-1.9H-370.8z"/>
			<path d="M-359.9-427.6c-1.7-0.9-2.6-1.7-2.6-3.7c0-2.5,2-4.1,4.4-4.1c1.8,0,4.2,0.9,4.2,3.1c0,1.6-1.2,2.3-2.4,3.1
				c2,1.1,3.1,2,3.1,4.2c0,3-2.3,4.7-5.1,4.7c-2.4,0-4.8-1-4.8-3.7C-363.1-426-361.6-426.9-359.9-427.6z M-358.1-421.2
				c1.6,0,3-0.9,3-2.6c-0.1-1.8-2.4-2.9-3.9-3.3c-1.3,0.4-1.9,1.7-1.9,3C-360.9-422.4-359.9-421.2-358.1-421.2z M-357.2-429.5
				c0.9-0.5,1.5-1.5,1.5-2.5c0-1.6-0.9-2.5-2.5-2.5c-1.3,0-2.3,0.7-2.3,2.1C-360.5-430.6-358.6-430-357.2-429.5z"/>
			<path d="M-348.9-427.6c-1.7-0.9-2.6-1.7-2.6-3.7c0-2.5,2-4.1,4.4-4.1c1.8,0,4.2,0.9,4.2,3.1c0,1.6-1.2,2.3-2.4,3.1
				c2,1.1,3.1,2,3.1,4.2c0,3-2.3,4.7-5.1,4.7c-2.4,0-4.8-1-4.8-3.7C-352-426-350.6-426.9-348.9-427.6z M-347-421.2
				c1.6,0,3-0.9,3-2.6c-0.1-1.8-2.4-2.9-3.9-3.3c-1.3,0.4-1.9,1.7-1.9,3C-349.8-422.4-348.8-421.2-347-421.2z M-346.2-429.5
				c0.9-0.5,1.5-1.5,1.5-2.5c0-1.6-0.9-2.5-2.5-2.5c-1.3,0-2.3,0.7-2.3,2.1C-349.5-430.6-347.6-430-346.2-429.5z"/>
		</g>
	</g>
	<g transform="matrix(0.620079,0,0,0.620079,326.781,365.65)">
	</g>
	<g transform="matrix(0.620079,0,0,0.620079,0,0)">
	</g>
	<g transform="matrix(0.620079,0,0,0.620079,888.573,365.65)">
	</g>
	<g transform="matrix(0.620079,0,0,0.620079,888.573,365.65)">
		<g class="st2">
			<path d="M-1068.5-441.5h0.6v17.5c0,1.9-2.5,3.8-4.5,3.8c-1.2,0-2.2-0.7-2.2-1.9c0-2,2-3.8,4.4-3.8c0.7,0,1.2,0.2,1.6,0.5
				L-1068.5-441.5z"/>
		</g>
		<g class="st2">
			<path d="M-1060.8-427.3v-1.8h10.5v1.8H-1060.8z M-1050.3-424.7v1.9h-10.5v-1.9H-1050.3z"/>
			<path d="M-1037.7-435.4c3.8,0,5,3.6,5,6.8c0,3.5-1.7,8.3-5.9,8.3c-1.5,0-3.5-0.8-3.5-2.6c0-0.9,0.5-1.7,1.5-1.7
				c0.9,0,1.4,0.6,1.4,1.4c0,0.5-0.4,0.9-0.4,1.4c0,0.4,0.5,0.5,0.9,0.5c1.8,0,2.5-2.2,2.7-3.6c0-0.4,0.2-2.2,0.2-2.6
				c-1,0.9-1.7,1.3-3,1.3c-2.4,0-3.8-2-3.8-4.2C-1042.6-433.3-1040.7-435.4-1037.7-435.4z M-1039.7-430.8c0,1.3,0.1,3.2,1.8,3.2
				c1.7,0,2.1-2.2,2.1-3.5c0-1.3-0.3-3.3-2-3.3C-1039.5-434.4-1039.7-432.1-1039.7-430.8z"/>
			<path d="M-1028.2-427.6c-1.7-0.9-2.6-1.7-2.6-3.7c0-2.5,2-4.1,4.4-4.1c1.8,0,4.2,0.9,4.2,3.1c0,1.6-1.2,2.3-2.4,3.1
				c2,1.1,3.1,2,3.1,4.2c0,3-2.3,4.7-5.1,4.7c-2.4,0-4.8-1-4.8-3.7C-1031.4-426-1030-426.9-1028.2-427.6z M-1026.4-421.2
				c1.6,0,3-0.9,3-2.6c-0.1-1.8-2.4-2.9-3.9-3.3c-1.3,0.4-1.9,1.7-1.9,3C-1029.2-422.4-1028.2-421.2-1026.4-421.2z M-1025.6-429.5
				c0.9-0.5,1.5-1.5,1.5-2.5c0-1.6-0.9-2.5-2.5-2.5c-1.3,0-2.3,0.7-2.3,2.1C-1028.8-430.6-1027-430-1025.6-429.5z"/>
		</g>
	</g>
	<g transform="matrix(0.620079,0,0,0.620079,888.573,365.65)">
	</g>
	<g transform="matrix(0.620079,0,0,0.620079,0,0)">
	</g>
	<g transform="matrix(0.620079,0,0,0.620079,1421.84,365.65)">
	</g>
	<g transform="matrix(0.620079,0,0,0.620079,1421.84,365.65)">
		<g class="st2">
			<path d="M-1713.5-441.5h0.6v17.5c0,1.9-2.5,3.8-4.5,3.8c-1.2,0-2.2-0.7-2.2-1.9c0-2,2-3.8,4.4-3.8c0.7,0,1.2,0.2,1.6,0.5
				L-1713.5-441.5z"/>
		</g>
		<g class="st2">
			<path d="M-1705.8-427.3v-1.8h10.5v1.8H-1705.8z M-1695.3-424.7v1.9h-10.5v-1.9H-1695.3z"/>
			<path d="M-1681.6-435.4h0.7v13.1c0,0.4,0.3,0.8,0.7,0.8h2.1v0.9h-8.1v-0.9h1.7c0.5,0,0.8-0.5,0.8-0.9v-9.9c0-0.4-0.3-0.8-0.7-0.8
				h-2.4v-1C-1684.9-434.2-1683.3-434.6-1681.6-435.4z"/>
			<path d="M-1676-427.8c0-3.2,1.3-7.5,5.6-7.5c4.1,0,5.4,4.6,5.4,7.5c0,3.1-1.3,7.5-5.5,7.5C-1674.8-420.3-1676-424.8-1676-427.8z
				 M-1670.6-421.3c2.1,0,2.1-3.8,2.1-6.5c0-3.2,0-6.5-2-6.5c-2.1,0-2.1,3.4-2.1,6.9C-1672.6-425.1-1672.7-421.3-1670.6-421.3z"/>
			<path d="M-1660.8-427.6c-1.7-0.9-2.6-1.7-2.6-3.7c0-2.5,2-4.1,4.4-4.1c1.8,0,4.2,0.9,4.2,3.1c0,1.6-1.2,2.3-2.4,3.1
				c2,1.1,3.1,2,3.1,4.2c0,3-2.3,4.7-5.1,4.7c-2.4,0-4.8-1-4.8-3.7C-1664-426-1662.6-426.9-1660.8-427.6z M-1659-421.2
				c1.6,0,3-0.9,3-2.6c-0.1-1.8-2.4-2.9-3.9-3.3c-1.3,0.4-1.9,1.7-1.9,3C-1661.8-422.4-1660.8-421.2-1659-421.2z M-1658.2-429.5
				c0.9-0.5,1.5-1.5,1.5-2.5c0-1.6-0.9-2.5-2.5-2.5c-1.3,0-2.3,0.7-2.3,2.1C-1661.4-430.6-1659.6-430-1658.2-429.5z"/>
		</g>
	</g>
	<g transform="matrix(0.620079,0,0,0.620079,1421.84,365.65)">
	</g>
	<g transform="matrix(0.620079,0,0,0.620079,0,0)">
	</g>
	<g transform="matrix(0.620079,0,0,0.620079,1954.49,365.65)">
	</g>
	<g transform="matrix(0.620079,0,0,0.620079,1954.49,365.65)">
		<g class="st2">
			<path d="M-2357.8-441.5h0.6v17.5c0,1.9-2.5,3.8-4.5,3.8c-1.2,0-2.2-0.7-2.2-1.9c0-2,2-3.8,4.4-3.8c0.7,0,1.2,0.2,1.6,0.5
				L-2357.8-441.5z"/>
		</g>
		<g class="st2">
			<path d="M-2350.1-427.3v-1.8h10.5v1.8H-2350.1z M-2339.6-424.7v1.9h-10.5v-1.9H-2339.6z"/>
			<path d="M-2325.9-435.4h0.7v13.1c0,0.4,0.3,0.8,0.7,0.8h2.1v0.9h-8.1v-0.9h1.7c0.5,0,0.8-0.5,0.8-0.9v-9.9c0-0.4-0.3-0.8-0.7-0.8
				h-2.4v-1C-2329.1-434.2-2327.5-434.6-2325.9-435.4z"/>
			<path d="M-2314.3-435.4h0.7v13.1c0,0.4,0.3,0.8,0.7,0.8h2.1v0.9h-8.1v-0.9h1.7c0.5,0,0.8-0.5,0.8-0.9v-9.9c0-0.4-0.3-0.8-0.7-0.8
				h-2.4v-1C-2317.6-434.2-2316-434.6-2314.3-435.4z"/>
			<path d="M-2305.6-427.6c-1.7-0.9-2.6-1.7-2.6-3.7c0-2.5,2-4.1,4.4-4.1c1.8,0,4.2,0.9,4.2,3.1c0,1.6-1.2,2.3-2.4,3.1
				c2,1.1,3.1,2,3.1,4.2c0,3-2.3,4.7-5.1,4.7c-2.4,0-4.8-1-4.8-3.7C-2308.8-426-2307.3-426.9-2305.6-427.6z M-2303.7-421.2
				c1.6,0,3-0.9,3-2.6c-0.1-1.8-2.4-2.9-3.9-3.3c-1.3,0.4-1.9,1.7-1.9,3C-2306.6-422.4-2305.6-421.2-2303.7-421.2z M-2302.9-429.5
				c0.9-0.5,1.5-1.5,1.5-2.5c0-1.6-0.9-2.5-2.5-2.5c-1.3,0-2.3,0.7-2.3,2.1C-2306.2-430.6-2304.3-430-2302.9-429.5z"/>
		</g>
	</g>
	<g transform="matrix(0.620079,0,0,0.620079,1954.49,365.65)">
	</g>
	<g transform="matrix(0.620079,0,0,0.620079,0,0)">
	</g>
	<g transform="matrix(0.620079,0,0,0.620079,2487.76,365.65)">
	</g>
	<g transform="matrix(0.620079,0,0,0.620079,2487.76,365.65)">
		<g class="st2">
			<path d="M-3002.8-441.5h0.6v17.5c0,1.9-2.5,3.8-4.5,3.8c-1.2,0-2.2-0.7-2.2-1.9c0-2,2-3.8,4.5-3.8c0.7,0,1.2,0.2,1.6,0.5
				L-3002.8-441.5z"/>
		</g>
		<g class="st2">
			<path d="M-2995.1-427.3v-1.8h10.5v1.8H-2995.1z M-2984.6-424.7v1.9h-10.5v-1.9H-2984.6z"/>
			<path d="M-2970.9-435.4h0.7v13.1c0,0.4,0.3,0.8,0.7,0.8h2.1v0.9h-8.1v-0.9h1.7c0.5,0,0.8-0.5,0.8-0.9v-9.9c0-0.4-0.3-0.8-0.7-0.8
				h-2.4v-1C-2974.1-434.2-2972.5-434.6-2970.9-435.4z"/>
			<path d="M-2965.3-420.6v-0.9c0.2-0.3,0.7-1,4.5-5.6c1.1-1.3,1.8-2.8,1.8-4.4c0-1.6-0.5-2.8-2.2-2.8c-0.9,0-2.4,0.5-2.4,1.7
				c0,0.8,2.1,0.7,2.1,2.1c0,0.9-0.6,1.6-1.6,1.6c-1.4,0-1.7-1.3-1.7-2.4c0-2.6,2-4.1,4.5-4.1c2.4,0,4.4,1.4,4.4,3.9
				c0,1.7-0.9,3-2.2,4.1c-1.1,0.9-3.8,2.9-4.8,4.2l5.1,0c0.8,0,1.2-2.4,1.2-2.4h0.9l-0.3,5H-2965.3z"/>
			<path d="M-2951.2-427.6c-1.7-0.9-2.6-1.7-2.6-3.7c0-2.5,2-4.1,4.4-4.1c1.8,0,4.2,0.9,4.2,3.1c0,1.6-1.2,2.3-2.4,3.1
				c2,1.1,3.1,2,3.1,4.2c0,3-2.3,4.7-5.1,4.7c-2.3,0-4.8-1-4.8-3.7C-2954.4-426-2953-426.9-2951.2-427.6z M-2949.4-421.2
				c1.6,0,3-0.9,3-2.6c-0.1-1.8-2.4-2.9-3.9-3.3c-1.3,0.4-1.9,1.7-1.9,3C-2952.2-422.4-2951.2-421.2-2949.4-421.2z M-2948.6-429.5
				c0.9-0.5,1.5-1.5,1.5-2.5c0-1.6-0.9-2.5-2.5-2.5c-1.3,0-2.3,0.7-2.3,2.1C-2951.8-430.6-2950-430-2948.6-429.5z"/>
		</g>
	</g>
	<g transform="matrix(0.620079,0,0,0.620079,2487.76,365.65)">
	</g>
	<g transform="matrix(0.620079,0,0,0.620079,0,0)">
	</g>
	<g transform="matrix(0.620079,0,0,0.620079,0,0)">
		<line vector-effect="none" class="st0" x1="107.2" y1="312" x2="107.2" y2="344"/>
	</g>
	<g transform="matrix(0.620079,0,0,0.620079,0,0)">
		<line vector-effect="none" class="st1" x1="113" y1="312" x2="113" y2="344"/>
	</g>
	<g transform="matrix(0.620079,0,0,0.620079,0,0)">
		<g class="st2">
			<path d="M118.5,325.6c-0.9,0-1.6-0.7-1.6-1.6s0.7-1.6,1.6-1.6s1.6,0.7,1.6,1.6S119.3,325.6,118.5,325.6z"/>
		</g>
	</g>
	<g transform="matrix(0.620079,0,0,0.620079,0,0)">
		<g class="st2">
			<path d="M118.5,333.6c-0.9,0-1.6-0.7-1.6-1.6s0.7-1.6,1.6-1.6s1.6,0.7,1.6,1.6S119.3,333.6,118.5,333.6z"/>
		</g>
	</g>
	<g transform="matrix(0.620079,0,0,0.620079,0,0)">
		<line vector-effect="none" class="st1" x1="337" y1="312" x2="337" y2="344"/>
	</g>
	<g transform="matrix(0.620079,0,0,0.620079,0,0)">
		<line vector-effect="none" class="st0" x1="342.7" y1="312" x2="342.7" y2="344"/>
	</g>
	<g transform="matrix(0.620079,0,0,0.620079,0,0)">
		<g class="st2">
			<path d="M331.5,325.6c-0.9,0-1.6-0.7-1.6-1.6s0.7-1.6,1.6-1.6s1.6,0.7,1.6,1.6S332.3,325.6,331.5,325.6z"/>
		</g>
	</g>
	<g transform="matrix(0.620079,0,0,0.620079,0,0)">
		<g class="st2">
			<path d="M331.5,333.6c-0.9,0-1.6-0.7-1.6-1.6s0.7-1.6,1.6-1.6s1.6,0.7,1.6,1.6S332.3,333.6,331.5,333.6z"/>
		</g>
	</g>
	<g transform="matrix(0.620079,0,0,0.620079,0,0)">
		<line vector-effect="none" class="st0" x1="342.7" y1="312" x2="342.7" y2="344"/>
	</g>
	<g transform="matrix(0.620079,0,0,0.620079,0,0)">
		<line vector-effect="none" class="st1" x1="348.5" y1="312" x2="348.5" y2="344"/>
	</g>
	<g transform="matrix(0.620079,0,0,0.620079,0,0)">
		<g class="st2">
			<path d="M354,325.6c-0.9,0-1.6-0.7-1.6-1.6s0.7-1.6,1.6-1.6s1.6,0.7,1.6,1.6S354.8,325.6,354,325.6z"/>
		</g>
	</g>
	<g transform="matrix(0.620079,0,0,0.620079,0,0)">
		<g class="st2">
			<path d="M354,333.6c-0.9,0-1.6-0.7-1.6-1.6s0.7-1.6,1.6-1.6s1.6,0.7,1.6,1.6S354.8,333.6,354,333.6z"/>
		</g>
	</g>
	<g transform="matrix(0.620079,0,0,0.620079,0,0)">
		<line vector-effect="none" class="st1" x1="572.7" y1="312" x2="572.7" y2="344"/>
	</g>
	<g transform="matrix(0.620079,0,0,0.620079,0,0)">
		<line vector-effect="none" class="st0" x1="578.5" y1="312" x2="578.5" y2="344"/>
	</g>
	<g transform="matrix(0.620079,0,0,0.620079,0,0)">
		<g class="st2">
			<path d="M567.2,325.6c-0.9,0-1.6-0.7-1.6-1.6s0.7-1.6,1.6-1.6s1.6,0.7,1.6,1.6S568.1,325.6,567.2,325.6z"/>
		</g>
	</g>
	<g transform="matrix(0.620079,0,0,0.620079,0,0)">
		<g class="st2">
			<path d="M567.2,333.6c-0.9,0-1.6-0.7-1.6-1.6s0.7-1.6,1.6-1.6s1.6,0.7,1.6,1.6S568.1,333.6,567.2,333.6z"/>
		</g>
	</g>
	<g transform="matrix(0.620079,0,0,0.620079,0,0)">
		<line vector-effect="none" class="st0" x1="578.5" y1="312" x2="578.5" y2="344"/>
	</g>
	<g transform="matrix(0.620079,0,0,0.620079,0,0)">
		<line vector-effect="none" class="st1" x1="584.2" y1="312" x2="584.2" y2="344"/>
	</g>
	<g transform="matrix(0.620079,0,0,0.620079,0,0)">
		<g class="st2">
			<path d="M589.7,325.6c-0.9,0-1.6-0.7-1.6-1.6s0.7-1.6,1.6-1.6s1.6,0.7,1.6,1.6S590.6,325.6,589.7,325.6z"/>
		</g>
	</g>
	<g transform="matrix(0.620079,0,0,0.620079,0,0)">
		<g class="st2">
			<path d="M589.7,333.6c-0.9,0-1.6-0.7-1.6-1.6s0.7-1.6,1.6-1.6s1.6,0.7,1.6,1.6S590.6,333.6,589.7,333.6z"/>
		</g>
	</g>
	<g transform="matrix(0.620079,0,0,0.620079,0,0)">
		<line vector-effect="none" class="st1" x1="808.2" y1="312" x2="808.2" y2="344"/>
	</g>
	<g transform="matrix(0.620079,0,0,0.620079,0,0)">
		<line vector-effect="none" class="st0" x1="814" y1="312" x2="814" y2="344"/>
	</g>
	<g transform="matrix(0.620079,0,0,0.620079,0,0)">
		<g class="st2">
			<path d="M802.7,325.6c-0.9,0-1.6-0.7-1.6-1.6s0.7-1.6,1.6-1.6s1.6,0.7,1.6,1.6S803.6,325.6,802.7,325.6z"/>
		</g>
	</g>
	<g transform="matrix(0.620079,0,0,0.620079,0,0)">
		<g class="st2">
			<path d="M802.7,333.6c-0.9,0-1.6-0.7-1.6-1.6s0.7-1.6,1.6-1.6s1.6,0.7,1.6,1.6S803.6,333.6,802.7,333.6z"/>
		</g>
	</g>
	<g transform="matrix(0.620079,0,0,0.620079,0,0)">
		<line vector-effect="none" class="st0" x1="814" y1="312" x2="814" y2="344"/>
	</g>
	<g transform="matrix(0.620079,0,0,0.620079,0,0)">
		<line vector-effect="none" class="st1" x1="819.7" y1="312" x2="819.7" y2="344"/>
	</g>
	<g transform="matrix(0.620079,0,0,0.620079,0,0)">
		<g class="st2">
			<path d="M825.2,325.6c-0.9,0-1.6-0.7-1.6-1.6s0.7-1.6,1.6-1.6c0.9,0,1.6,0.7,1.6,1.6S826.1,325.6,825.2,325.6z"/>
		</g>
	</g>
	<g transform="matrix(0.620079,0,0,0.620079,0,0)">
		<g class="st2">
			<path d="M825.2,333.6c-0.9,0-1.6-0.7-1.6-1.6s0.7-1.6,1.6-1.6c0.9,0,1.6,0.7,1.6,1.6S826.1,333.6,825.2,333.6z"/>
		</g>
	</g>
	<g transform="matrix(0.620079,0,0,0.620079,0,0)">
		<line vector-effect="none" class="st1" x1="1043.7" y1="312" x2="1043.7" y2="344"/>
	</g>
	<g transform="matrix(0.620079,0,0,0.620079,0,0)">
		<line vector-effect="none" class="st0" x1="1049.5" y1="312" x2="1049.5" y2="344"/>
	</g>
	<g transform="matrix(0.620079,0,0,0.620079,0,0)">
		<g class="st2">
			<path d="M1038.2,325.6c-0.9,0-1.6-0.7-1.6-1.6s0.7-1.6,1.6-1.6s1.6,0.7,1.6,1.6S1039.1,325.6,1038.2,325.6z"/>
		</g>
	</g>
	<g transform="matrix(0.620079,0,0,0.620079,0,0)">
		<g class="st2">
			<path d="M1038.2,333.6c-0.9,0-1.6-0.7-1.6-1.6s0.7-1.6,1.6-1.6s1.6,0.7,1.6,1.6S1039.1,333.6,1038.2,333.6z"/>
		</g>
	</g>
	<g transform="matrix(0.620079,0,0,0.620079,0,0)">
		<line vector-effect="none" class="st1" x1="1211.7" y1="312" x2="1211.7" y2="344"/>
	</g>
	<g transform="matrix(0.620079,0,0,0.620079,0,0)">
		<line vector-effect="none" class="st0" x1="1217.5" y1="312" x2="1217.5" y2="344"/>
	</g>
	<g transform="matrix(0.620079,0,0,0.620079,0,0)">
	</g>
	<g transform="matrix(0.620079,0,0,0.620079,267.254,650.266)">
	</g>
	<g transform="matrix(0.620079,0,0,0.620079,267.254,650.266)">
		<g class="st2">
			<path d="M-317-785.8h0.6v17.5c0,1.9-2.5,3.8-4.5,3.8c-1.2,0-2.2-0.7-2.2-1.9c0-2,2-3.8,4.4-3.8c0.7,0,1.2,0.2,1.6,0.5L-317-785.8
				z"/>
		</g>
		<g class="st2">
			<path d="M-309.3-771.5v-1.8h10.5v1.8H-309.3z M-298.8-768.9v1.9h-10.5v-1.9H-298.8z"/>
			<path d="M-285.1-779.7h0.7v13.1c0,0.4,0.3,0.8,0.7,0.8h2.1v0.9h-8.1v-0.9h1.7c0.5,0,0.8-0.5,0.8-0.9v-9.9c0-0.4-0.3-0.8-0.7-0.8
				h-2.4v-1C-288.4-778.4-286.8-778.8-285.1-779.7z"/>
			<path d="M-279.5-768.1c0-1.1,0.4-2,1.6-2c0.9,0,1.5,0.5,1.5,1.4c0,1.2-1.3,1.4-1.3,2c0,0.8,1.4,1.2,2,1.2c2,0,2.6-1.6,2.6-3.3
				c0-1.1-0.3-3.2-1.7-3.2h-1.9c-0.2,0-0.3-0.4-0.3-0.6c0-0.2,0.1-0.5,0.4-0.5h1.6c1.4,0,1.7-1.7,1.7-2.7c0-1.6-0.5-2.8-2.3-2.8
				c-0.5,0-1.4,0.1-1.4,0.8c0,0.6,1.1,0.7,1.1,1.8c0,0.8-0.5,1.4-1.3,1.4c-1,0-1.6-0.7-1.6-1.7c0-2.1,2.1-3.2,4-3.2
				c2.2,0,4.4,1.2,4.4,3.6c0,1.7-1.2,2.7-2.7,3.4c1.9,0.6,3.3,1.9,3.3,4c0,2.8-2.5,4.1-5,4.1C-277.3-764.6-279.5-765.5-279.5-768.1z
				"/>
			<path d="M-265.7-771.9c-1.7-0.9-2.6-1.7-2.6-3.7c0-2.5,2-4.1,4.4-4.1c1.8,0,4.2,0.9,4.2,3.1c0,1.6-1.2,2.3-2.4,3.1
				c2,1.1,3.1,2,3.1,4.2c0,3-2.3,4.7-5.1,4.7c-2.4,0-4.8-1-4.8-3.7C-268.9-770.2-267.5-771.1-265.7-771.9z M-263.9-765.5
				c1.6,0,3-0.9,3-2.6c-0.1-1.8-2.4-2.9-3.9-3.3c-1.3,0.4-1.9,1.7-1.9,3C-266.7-766.7-265.7-765.5-263.9-765.5z M-263.1-773.7
				c0.9-0.5,1.5-1.5,1.5-2.5c0-1.6-0.9-2.5-2.5-2.5c-1.3,0-2.3,0.7-2.3,2.1C-266.3-774.8-264.5-774.3-263.1-773.7z"/>
		</g>
	</g>
	<g transform="matrix(0.620079,0,0,0.620079,267.254,650.266)">
	</g>
	<g transform="matrix(0.620079,0,0,0.620079,0,0)">
	</g>
	<g transform="matrix(0.620079,0,0,0.620079,851.368,650.266)">
	</g>
	<g transform="matrix(0.620079,0,0,0.620079,851.368,650.266)">
		<g class="st2">
			<path d="M-1023.5-785.8h0.6v17.5c0,1.9-2.5,3.8-4.5,3.8c-1.2,0-2.2-0.7-2.2-1.9c0-2,2-3.8,4.4-3.8c0.7,0,1.2,0.2,1.6,0.5
				L-1023.5-785.8z"/>
		</g>
		<g class="st2">
			<path d="M-1015.8-771.5v-1.8h10.5v1.8H-1015.8z M-1005.3-768.9v1.9h-10.5v-1.9H-1005.3z"/>
			<path d="M-991.6-779.7h0.7v13.1c0,0.4,0.3,0.8,0.7,0.8h2.1v0.9h-8.1v-0.9h1.7c0.5,0,0.8-0.5,0.8-0.9v-9.9c0-0.4-0.3-0.8-0.7-0.8
				h-2.4v-1C-994.9-778.4-993.3-778.8-991.6-779.7z"/>
			<path d="M-979.2-779.7h0.9v10.1h2v1.1h-2v2c0,0.4,0.3,0.7,0.7,0.7h0.8v0.9h-6.3v-0.9h1.3c0.5,0,0.8-0.4,0.8-0.8v-1.9h-5.3v-1.4
				L-979.2-779.7z M-981-769.6v-6l-4.3,6H-981z"/>
			<path d="M-972.1-771.9c-1.7-0.9-2.6-1.7-2.6-3.7c0-2.5,2-4.1,4.4-4.1c1.8,0,4.2,0.9,4.2,3.1c0,1.6-1.2,2.3-2.4,3.1
				c2,1.1,3.1,2,3.1,4.2c0,3-2.3,4.7-5.1,4.7c-2.4,0-4.8-1-4.8-3.7C-975.2-770.2-973.8-771.1-972.1-771.9z M-970.2-765.5
				c1.6,0,3-0.9,3-2.6c-0.1-1.8-2.4-2.9-3.9-3.3c-1.3,0.4-1.9,1.7-1.9,3C-973-766.7-972-765.5-970.2-765.5z M-969.4-773.7
				c0.9-0.5,1.5-1.5,1.5-2.5c0-1.6-0.9-2.5-2.5-2.5c-1.3,0-2.3,0.7-2.3,2.1C-972.7-774.8-970.8-774.3-969.4-773.7z"/>
		</g>
	</g>
	<g transform="matrix(0.620079,0,0,0.620079,851.368,650.266)">
	</g>
	<g transform="matrix(0.620079,0,0,0.620079,0,0)">
	</g>
	<g transform="matrix(0.620079,0,0,0.620079,1436.1,650.266)">
	</g>
	<g transform="matrix(0.620079,0,0,0.620079,1436.1,650.266)">
		<g class="st2">
			<path d="M-1730.8-785.8h0.6v17.5c0,1.9-2.5,3.8-4.5,3.8c-1.2,0-2.2-0.7-2.2-1.9c0-2,2-3.8,4.4-3.8c0.7,0,1.2,0.2,1.6,0.5
				L-1730.8-785.8z"/>
		</g>
		<g class="st2">
			<path d="M-1723.1-771.5v-1.8h10.5v1.8H-1723.1z M-1712.5-768.9v1.9h-10.5v-1.9H-1712.5z"/>
			<path d="M-1698.9-779.7h0.7v13.1c0,0.4,0.3,0.8,0.7,0.8h2.1v0.9h-8.1v-0.9h1.7c0.5,0,0.8-0.5,0.8-0.9v-9.9c0-0.4-0.3-0.8-0.7-0.8
				h-2.4v-1C-1702.1-778.4-1700.5-778.8-1698.9-779.7z"/>
			<path d="M-1693.3-767.9c0-0.8,0.3-2,1.7-2c0.9,0,1.6,0.5,1.6,1.4c0,1.3-1.5,1.3-1.5,1.9c0,0.8,1.3,1,2,1c2.2,0,2.6-2.2,2.6-4
				c0-1.6-0.4-3.7-2.3-3.7c-0.6,0-1.9,0.2-2.2,0.8c0,0.5-0.1,1.3-0.7,1.3c-0.3,0-0.6-0.1-0.6-0.5c0-0.5,0.3-0.9,0.5-1.3l0.4-6.5
				c0-0.1,0.3,0,0.4,0c1,0.1,2.5,0.4,3.8,0.4c1,0,1.8-0.2,2.7-0.4c0.1,0,0.1,0,0.1,0.3c0,0.5-0.3,1.1-0.6,1.5
				c-0.9,1.1-2.1,1.4-3.5,1.4c-0.7,0-1.4,0-2.2-0.1c-0.2,1-0.2,1.7-0.2,2.8c0.9-0.4,1.8-0.6,2.7-0.6c2.7,0,4.8,2,4.8,4.7
				c0,3.1-2.2,5.1-5.2,5.1C-1691.2-764.6-1693.3-765.6-1693.3-767.9z"/>
			<path d="M-1679.5-771.9c-1.7-0.9-2.6-1.7-2.6-3.7c0-2.5,2-4.1,4.4-4.1c1.8,0,4.2,0.9,4.2,3.1c0,1.6-1.2,2.3-2.4,3.1
				c2,1.1,3.1,2,3.1,4.2c0,3-2.3,4.7-5.1,4.7c-2.4,0-4.8-1-4.8-3.7C-1682.7-770.2-1681.3-771.1-1679.5-771.9z M-1677.7-765.5
				c1.6,0,3-0.9,3-2.6c-0.1-1.8-2.4-2.9-3.9-3.3c-1.3,0.4-1.9,1.7-1.9,3C-1680.5-766.7-1679.5-765.5-1677.7-765.5z M-1676.9-773.7
				c0.9-0.5,1.5-1.5,1.5-2.5c0-1.6-0.9-2.5-2.5-2.5c-1.3,0-2.3,0.7-2.3,2.1C-1680.1-774.8-1678.3-774.3-1676.9-773.7z"/>
		</g>
	</g>
	<g transform="matrix(0.620079,0,0,0.620079,1436.1,650.266)">
	</g>
	<g transform="matrix(0.620079,0,0,0.620079,0,0)">
	</g>
	<g transform="matrix(0.620079,0,0,0.620079,2020.22,650.266)">
	</g>
	<g transform="matrix(0.620079,0,0,0.620079,2020.22,650.266)">
		<g class="st2">
			<path d="M-2437.3-785.8h0.6v17.5c0,1.9-2.5,3.8-4.5,3.8c-1.2,0-2.2-0.7-2.2-1.9c0-2,2-3.8,4.5-3.8c0.6,0,1.2,0.2,1.6,0.5
				L-2437.3-785.8z"/>
		</g>
		<g class="st2">
			<path d="M-2429.6-771.5v-1.8h10.5v1.8H-2429.6z M-2419.1-768.9v1.9h-10.5v-1.9H-2419.1z"/>
			<path d="M-2405.4-779.7h0.7v13.1c0,0.4,0.3,0.8,0.7,0.8h2.1v0.9h-8.1v-0.9h1.7c0.5,0,0.8-0.5,0.8-0.9v-9.9c0-0.4-0.3-0.8-0.7-0.8
				h-2.4v-1C-2408.6-778.4-2407-778.8-2405.4-779.7z"/>
			<path d="M-2393.9-779.7c1.5,0,3.4,0.8,3.4,2.6c0,1-0.5,1.7-1.6,1.7c-0.8,0-1.3-0.6-1.3-1.4c0-0.5,0.4-0.9,0.4-1.4
				c0-0.5-0.5-0.6-0.9-0.6c-2.6,0.1-2.7,4.4-2.8,6.4c0.8-0.8,1.9-1.3,3.1-1.3c2.5,0,3.7,1.9,3.7,4.2c0,2.9-1.9,5-4.8,5
				c-3.9,0-5.1-3.7-5.1-7C-2399.8-775.1-2398.2-779.7-2393.9-779.7z M-2396.6-769.1c0,1.2,0.2,3.6,1.9,3.6c1.7,0,1.9-2.4,1.9-3.6
				c0-1.2-0.1-3.3-1.7-3.3C-2396.2-772.4-2396.6-770.3-2396.6-769.1z"/>
			<path d="M-2385.4-771.9c-1.7-0.9-2.6-1.7-2.6-3.7c0-2.5,2-4.1,4.4-4.1c1.8,0,4.2,0.9,4.2,3.1c0,1.6-1.2,2.3-2.4,3.1
				c2,1.1,3.1,2,3.1,4.2c0,3-2.3,4.7-5.1,4.7c-2.3,0-4.8-1-4.8-3.7C-2388.5-770.2-2387.1-771.1-2385.4-771.9z M-2383.5-765.5
				c1.6,0,3-0.9,3-2.6c-0.1-1.8-2.4-2.9-3.9-3.3c-1.3,0.4-1.9,1.7-1.9,3C-2386.3-766.7-2385.3-765.5-2383.5-765.5z M-2382.7-773.7
				c0.9-0.5,1.5-1.5,1.5-2.5c0-1.6-0.9-2.5-2.5-2.5c-1.3,0-2.3,0.7-2.3,2.1C-2386-774.8-2384.1-774.3-2382.7-773.7z"/>
		</g>
	</g>
	<g transform="matrix(0.620079,0,0,0.620079,2020.22,650.266)">
	</g>
	<g transform="matrix(0.620079,0,0,0.620079,0,0)">
	</g>
	<g transform="matrix(0.620079,0,0,0.620079,275.315,418.967)">
	</g>
	<g transform="matrix(0.620079,0,0,0.620079,275.315,418.967)">
		<g class="st2">
			<path d="M-318.8-467.2c0,0.4-0.2,0.7-0.5,0.7h-1.9v1.7c0,1,0.6,1.2,1,1.2c0.3,0,0.7,0.2,0.7,0.6c0,0.5-0.3,0.6-0.6,0.6h-7.5
				c-0.5,0-0.6-0.3-0.6-0.6c0-0.3,0.2-0.6,0.7-0.6c0.6,0,1.3-0.3,1.3-1.1v-1.8h-5.8c-0.4,0-0.6-0.4-0.6-0.7c0-0.1,0-0.2,0.1-0.3
				c0,0,0-0.1,0-0.1l0.2-0.3c0.9-1.3,3.6-5.7,3.6-9.6c0-0.5,0.4-0.6,0.7-0.6c0.3,0,2.1,0.1,2.6,0.1c0.6,0,2.3-0.1,2.5-0.1
				c0.3,0,0.5,0.2,0.5,0.5c0,0.1,0,0.1,0,0.1c-0.1,0.4-5.5,7.4-8.1,9.5h4.3v-2.5c0-0.4,0.2-0.6,0.3-0.7l3.8-3.6
				c0.2-0.2,0.3-0.3,0.6-0.3c0.4,0,0.4,0.3,0.4,0.5v6.6h1.9C-319-468-318.8-467.6-318.8-467.2z"/>
		</g>
	</g>
	<g transform="matrix(0.620079,0,0,0.620079,275.315,418.967)">
		<g class="st2">
			<path d="M-318.8-451.2c0,0.4-0.2,0.7-0.5,0.7h-1.9v1.7c0,1,0.6,1.2,1,1.2c0.3,0,0.7,0.2,0.7,0.6c0,0.5-0.3,0.6-0.6,0.6h-7.5
				c-0.5,0-0.6-0.3-0.6-0.6c0-0.3,0.2-0.6,0.7-0.6c0.6,0,1.3-0.3,1.3-1.1v-1.8h-5.8c-0.4,0-0.6-0.4-0.6-0.7c0-0.1,0-0.2,0.1-0.3
				c0,0,0-0.1,0-0.1l0.2-0.3c0.9-1.3,3.6-5.7,3.6-9.6c0-0.5,0.4-0.6,0.7-0.6c0.3,0,2.1,0.1,2.6,0.1c0.6,0,2.3-0.1,2.5-0.1
				c0.3,0,0.5,0.2,0.5,0.5c0,0.1,0,0.1,0,0.1c-0.1,0.4-5.5,7.4-8.1,9.5h4.3v-2.5c0-0.4,0.2-0.6,0.3-0.7l3.8-3.6
				c0.2-0.2,0.3-0.3,0.6-0.3c0.4,0,0.4,0.3,0.4,0.5v6.6h1.9C-319-451.9-318.8-451.6-318.8-451.2z"/>
		</g>
	</g>
	<g transform="matrix(0.620079,0,0,0.620079,275.315,418.967)">
	</g>
	<g transform="matrix(0.620079,0,0,0.620079,0,0)">
	</g>
	<g transform="matrix(0.620079,0,0,0.620079,0,0)">
		<line vector-effect="none" class="st5" x1="58.2" y1="229.2" x2="1219.5" y2="229.2"/>
	</g>
	<g transform="matrix(0.620079,0,0,0.620079,0,0)">
		<line vector-effect="none" class="st5" x1="58.2" y1="221.2" x2="1219.5" y2="221.2"/>
	</g>
	<g transform="matrix(0.620079,0,0,0.620079,0,0)">
		<line vector-effect="none" class="st5" x1="58.2" y1="213.2" x2="1219.5" y2="213.2"/>
	</g>
	<g transform="matrix(0.620079,0,0,0.620079,0,0)">
		<line vector-effect="none" class="st5" x1="58.2" y1="205.2" x2="1219.5" y2="205.2"/>
	</g>
	<g transform="matrix(0.620079,0,0,0.620079,0,0)">
		<line vector-effect="none" class="st5" x1="58.2" y1="197.2" x2="1219.5" y2="197.2"/>
	</g>
	<g transform="matrix(0.620079,0,0,0.620079,0,0)">
		<g class="st2">
			<path d="M81.2,206.1c0,4.2-1.7,8.1-4.4,11.1c-3.4,3.6-7.5,6.1-11.7,8.2c-0.2,0.1-0.4,0.2-0.5,0.2c-0.3,0-0.4-0.2-0.4-0.4
				c0-0.3,0.2-0.4,0.5-0.6c4-2.3,7.3-5,9.2-8c2-3.1,2.7-6.9,2.7-10.2c0-5-1.5-8.3-4.9-8.3c-3.3,0-5.2,2.3-5.2,3.6
				c0,0.3,0.1,0.6,0.5,0.6s0.7-0.2,1.6-0.2c1.6,0,3.1,1.3,3.1,3.3c0,2-1.4,3.4-3.4,3.4c-2.6,0-3.9-2.2-3.9-4.8
				c0-3.1,2.5-7.1,8.1-7.1C77.8,196.9,81.2,200.6,81.2,206.1z M86.1,201.3c0,1-0.8,1.8-1.8,1.8c-1,0-1.8-0.8-1.8-1.8
				s0.8-1.8,1.8-1.8C85.3,199.5,86.1,200.3,86.1,201.3z M86.1,209.2c0,1-0.7,1.7-1.7,1.7c-1,0-1.7-0.7-1.7-1.7c0-1,0.7-1.7,1.7-1.7
				C85.3,207.5,86.1,208.3,86.1,209.2z"/>
		</g>
	</g>
	<g transform="matrix(0.620079,0,0,0.620079,0,0)">
		<g class="st2">
			<path d="M92.2,208.1c0-0.6,0.5-0.9,1-0.9c0.3,0,0.6,0.2,0.6,0.5c0,0.6-0.2,8.3-0.2,9c0,0.2,0.1,0.4,0.4,0.5c0.1,0,0.1,0,0.2,0
				c0.3,0,0.5-0.3,0.7-0.4c0.4-0.2,0.7-0.4,1.1-0.4c0.2-0.1,0.4-0.1,0.7-0.1c1.5,0.1,2.9,1.2,2.9,3.1c0,1.5-1,3.4-3.8,5.4
				c-0.8,0.5-1.6,1.4-2.5,2c0,0-0.1,0.1-0.2,0.1s-0.2,0-0.3-0.2C92.3,226.4,92.2,208.1,92.2,208.1z M94.1,224.3c0.1,0,0.2,0,0.3-0.1
				c1-0.6,1.9-1.6,2.3-2.4c0.4-0.7,0.5-1.3,0.5-1.9c0-0.6-0.2-1.2-0.5-1.5c-0.2-0.2-0.5-0.4-0.8-0.4c-0.3,0-0.5,0.1-0.8,0.2
				c-0.4,0.3-1.3,1-1.4,1.3c0,0.1-0.1,0.5-0.1,1c0,1.3,0.1,3.2,0.1,3.2C93.7,224,93.8,224.3,94.1,224.3z"/>
		</g>
	</g>
	<g transform="matrix(0.620079,0,0,0.620079,0,0)">
		<g class="st2">
			<path d="M156.5,179.2c-0.2,0-0.4-0.3-0.4-0.5c0-0.1-0.1-0.2-0.1-0.3c0-0.2,0.1-0.3,0.4-0.5c0,0,6.8-2.3,7.2-2.4
				c0.2-0.1,0.3-0.1,0.3-0.2s-0.1-0.2-0.2-0.2c-0.3-0.1-7.2-2.5-7.2-2.5c-0.4-0.1-0.4-0.3-0.4-0.4c0-0.1,0-0.2,0.1-0.3
				c0.1-0.3,0.2-0.4,0.5-0.4c0.1,0,0.2,0,0.3,0.1l9.6,3.3c0.4,0.1,0.4,0.3,0.4,0.6s0,0.5-0.4,0.6c0,0-9.7,3.3-9.8,3.3
				C156.6,179.2,156.5,179.2,156.5,179.2z"/>
		</g>
	</g>
	<g transform="matrix(0.620079,0,0,0.620079,0,0)">
		<g class="st2">
			<path d="M264.2,181.2c-0.7,0-1.3-0.6-1.3-1.3c0-0.7,0.6-1.3,1.3-1.3c0.7,0,1.3,0.6,1.3,1.3C265.6,180.6,265,181.2,264.2,181.2z"
				/>
		</g>
	</g>
	<g transform="matrix(0.620079,0,0,0.620079,0,0)">
		<g class="st2">
			<path d="M259.5,176.5c-0.2,0-0.4-0.3-0.4-0.5c0-0.1-0.1-0.2-0.1-0.3c0-0.2,0.1-0.3,0.4-0.5c0,0,6.8-2.3,7.2-2.4
				c0.2-0.1,0.3-0.1,0.3-0.2s-0.1-0.2-0.2-0.2c-0.3-0.1-7.2-2.5-7.2-2.5c-0.4-0.1-0.4-0.3-0.4-0.4c0-0.1,0-0.2,0.1-0.3
				c0.1-0.3,0.2-0.4,0.5-0.4c0.1,0,0.2,0,0.3,0.1l9.6,3.3c0.4,0.1,0.4,0.3,0.4,0.6s0,0.5-0.4,0.6c0,0-9.7,3.3-9.8,3.3
				C259.6,176.5,259.5,176.5,259.5,176.5z"/>
		</g>
	</g>
	<g transform="matrix(0.620079,0,0,0.620079,0,0)">
		<g class="st2">
			<path d="M291.5,181.2c-0.7,0-1.3-0.6-1.3-1.3c0-0.7,0.6-1.3,1.3-1.3c0.7,0,1.3,0.6,1.3,1.3C292.8,180.6,292.2,181.2,291.5,181.2z
				"/>
		</g>
	</g>
	<g transform="matrix(0.620079,0,0,0.620079,0,0)">
		<g class="st2">
			<path d="M286.7,176.5c-0.2,0-0.4-0.3-0.4-0.5c0-0.1-0.1-0.2-0.1-0.3c0-0.2,0.1-0.3,0.4-0.5c0,0,6.8-2.3,7.2-2.4
				c0.2-0.1,0.3-0.1,0.3-0.2s-0.1-0.2-0.2-0.2c-0.3-0.1-7.2-2.5-7.2-2.5c-0.4-0.1-0.4-0.3-0.4-0.4c0-0.1,0-0.2,0.1-0.3
				c0.1-0.3,0.2-0.4,0.5-0.4c0.1,0,0.2,0,0.3,0.1l9.6,3.3c0.4,0.1,0.4,0.3,0.4,0.6s0,0.5-0.4,0.6c0,0-9.7,3.3-9.8,3.3
				C286.8,176.5,286.7,176.5,286.7,176.5z"/>
		</g>
	</g>
	<g transform="matrix(0.620079,0,0,0.620079,0,0)">
		<g class="st2">
			<path d="M318.7,181.2c-0.7,0-1.3-0.6-1.3-1.3c0-0.7,0.6-1.3,1.3-1.3c0.7,0,1.3,0.6,1.3,1.3C320.1,180.6,319.5,181.2,318.7,181.2z
				"/>
		</g>
	</g>
	<g transform="matrix(0.620079,0,0,0.620079,0,0)">
		<g class="st2">
			<path d="M314,176.5c-0.2,0-0.4-0.3-0.4-0.5c0-0.1-0.1-0.2-0.1-0.3c0-0.2,0.1-0.3,0.4-0.5c0,0,6.8-2.3,7.2-2.4
				c0.2-0.1,0.3-0.1,0.3-0.2s-0.1-0.2-0.2-0.2c-0.3-0.1-7.2-2.5-7.2-2.5c-0.4-0.1-0.4-0.3-0.4-0.4c0-0.1,0-0.2,0.1-0.3
				c0.1-0.3,0.2-0.4,0.5-0.4c0.1,0,0.2,0,0.3,0.1l9.6,3.3c0.4,0.1,0.4,0.3,0.4,0.6s0,0.5-0.4,0.6c0,0-9.7,3.3-9.8,3.3
				C314.1,176.5,314,176.5,314,176.5z"/>
		</g>
	</g>
	<g transform="matrix(0.620079,0,0,0.620079,0,0)">
		<path vector-effect="none" class="st6" d="M286.7,215.2H314v-4h-27.2V215.2"/>
	</g>
	<g transform="matrix(0.620079,0,0,0.620079,0,0)">
		<g class="st2">
			<path d="M383.2,181.2c-0.2,0-0.4-0.3-0.4-0.5c0-0.1-0.1-0.2-0.1-0.3c0-0.2,0.1-0.3,0.4-0.5c0,0,6.8-2.3,7.2-2.4
				c0.2-0.1,0.3-0.1,0.3-0.2s-0.1-0.2-0.2-0.2c-0.3-0.1-7.2-2.5-7.2-2.5c-0.4-0.1-0.4-0.3-0.4-0.4c0-0.1,0-0.2,0.1-0.3
				c0.1-0.3,0.2-0.4,0.5-0.4c0.1,0,0.2,0,0.3,0.1l9.6,3.3c0.4,0.1,0.4,0.3,0.4,0.6s0,0.5-0.4,0.6c0,0-9.7,3.3-9.8,3.3
				C383.3,181.2,383.2,181.2,383.2,181.2z"/>
		</g>
	</g>
	<g transform="matrix(0.620079,0,0,0.620079,0,0)">
		<g class="st2">
			<path d="M479.2,181.2c-0.7,0-1.3-0.6-1.3-1.3c0-0.7,0.6-1.3,1.3-1.3c0.7,0,1.3,0.6,1.3,1.3C480.6,180.6,480,181.2,479.2,181.2z"
				/>
		</g>
	</g>
	<g transform="matrix(0.620079,0,0,0.620079,0,0)">
		<g class="st2">
			<path d="M474.5,176.5c-0.2,0-0.4-0.3-0.4-0.5c0-0.1-0.1-0.2-0.1-0.3c0-0.2,0.1-0.3,0.4-0.5c0,0,6.8-2.3,7.2-2.4
				c0.2-0.1,0.3-0.1,0.3-0.2s-0.1-0.2-0.2-0.2c-0.3-0.1-7.2-2.5-7.2-2.5c-0.4-0.1-0.4-0.3-0.4-0.4c0-0.1,0-0.2,0.1-0.3
				c0.1-0.3,0.2-0.4,0.5-0.4c0.1,0,0.2,0,0.3,0.1l9.6,3.3c0.4,0.1,0.4,0.3,0.4,0.6s0,0.5-0.4,0.6c0,0-9.7,3.3-9.8,3.3
				C474.6,176.5,474.5,176.5,474.5,176.5z"/>
		</g>
	</g>
	<g transform="matrix(0.620079,0,0,0.620079,0,0)">
		<g class="st2">
			<path d="M506.5,181.2c-0.7,0-1.3-0.6-1.3-1.3c0-0.7,0.6-1.3,1.3-1.3c0.7,0,1.3,0.6,1.3,1.3C507.8,180.6,507.2,181.2,506.5,181.2z
				"/>
		</g>
	</g>
	<g transform="matrix(0.620079,0,0,0.620079,0,0)">
		<g class="st2">
			<path d="M501.7,176.5c-0.2,0-0.4-0.3-0.4-0.5c0-0.1-0.1-0.2-0.1-0.3c0-0.2,0.1-0.3,0.4-0.5c0,0,6.8-2.3,7.2-2.4
				c0.2-0.1,0.3-0.1,0.3-0.2s-0.1-0.2-0.2-0.2c-0.3-0.1-7.2-2.5-7.2-2.5c-0.4-0.1-0.4-0.3-0.4-0.4c0-0.1,0-0.2,0.1-0.3
				c0.1-0.3,0.2-0.4,0.5-0.4c0.1,0,0.2,0,0.3,0.1l9.6,3.3c0.4,0.1,0.4,0.3,0.4,0.6s0,0.5-0.4,0.6c0,0-9.7,3.3-9.8,3.3
				C501.8,176.5,501.7,176.5,501.7,176.5z"/>
		</g>
	</g>
	<g transform="matrix(0.620079,0,0,0.620079,0,0)">
		<g class="st2">
			<path d="M533.7,181.2c-0.7,0-1.3-0.6-1.3-1.3c0-0.7,0.6-1.3,1.3-1.3c0.7,0,1.3,0.6,1.3,1.3C535.1,180.6,534.5,181.2,533.7,181.2z
				"/>
		</g>
	</g>
	<g transform="matrix(0.620079,0,0,0.620079,0,0)">
		<g class="st2">
			<path d="M529,176.5c-0.2,0-0.4-0.3-0.4-0.5c0-0.1-0.1-0.2-0.1-0.3c0-0.2,0.1-0.3,0.4-0.5c0,0,6.8-2.3,7.2-2.4
				c0.2-0.1,0.3-0.1,0.3-0.2s-0.1-0.2-0.2-0.2c-0.3-0.1-7.2-2.5-7.2-2.5c-0.4-0.1-0.4-0.3-0.4-0.4c0-0.1,0-0.2,0.1-0.3
				c0.1-0.3,0.2-0.4,0.5-0.4c0.1,0,0.2,0,0.3,0.1l9.6,3.3c0.4,0.1,0.4,0.3,0.4,0.6s0,0.5-0.4,0.6c0,0-9.7,3.3-9.8,3.3
				C529.1,176.5,529,176.5,529,176.5z"/>
		</g>
	</g>
	<g transform="matrix(0.620079,0,0,0.620079,0,0)">
		<path vector-effect="none" class="st6" d="M501.7,215.2H529v-4h-27.3V215.2"/>
	</g>
	<g transform="matrix(0.620079,0,0,0.620079,0,0)">
		<g class="st2">
			<path d="M598.2,181.2c-0.2,0-0.4-0.3-0.4-0.5c0-0.1-0.1-0.2-0.1-0.3c0-0.2,0.1-0.3,0.4-0.5c0,0,6.8-2.3,7.2-2.4
				c0.2-0.1,0.3-0.1,0.3-0.2s-0.1-0.2-0.2-0.2c-0.3-0.1-7.2-2.5-7.2-2.5c-0.4-0.1-0.4-0.3-0.4-0.4c0-0.1,0-0.2,0.1-0.3
				c0.1-0.3,0.2-0.4,0.5-0.4c0.1,0,0.2,0,0.3,0.1l9.6,3.3c0.4,0.1,0.4,0.3,0.4,0.6s0,0.5-0.4,0.6c0,0-9.7,3.3-9.8,3.3
				C598.3,181.2,598.2,181.2,598.2,181.2z"/>
		</g>
	</g>
	<g transform="matrix(0.620079,0,0,0.620079,0,0)">
		<g class="st2">
			<path d="M694,181.2c-0.7,0-1.3-0.6-1.3-1.3c0-0.7,0.6-1.3,1.3-1.3c0.7,0,1.3,0.6,1.3,1.3C695.3,180.6,694.7,181.2,694,181.2z"/>
		</g>
	</g>
	<g transform="matrix(0.620079,0,0,0.620079,0,0)">
		<g class="st2">
			<path d="M689.2,176.5c-0.2,0-0.4-0.3-0.4-0.5c0-0.1-0.1-0.2-0.1-0.3c0-0.2,0.1-0.3,0.4-0.5c0,0,6.8-2.3,7.2-2.4
				c0.2-0.1,0.3-0.1,0.3-0.2s-0.1-0.2-0.2-0.2c-0.3-0.1-7.2-2.5-7.2-2.5c-0.4-0.1-0.4-0.3-0.4-0.4c0-0.1,0-0.2,0.1-0.3
				c0.1-0.3,0.2-0.4,0.5-0.4c0.1,0,0.2,0,0.3,0.1l9.6,3.3c0.4,0.1,0.4,0.3,0.4,0.6s0,0.5-0.4,0.6c0,0-9.7,3.3-9.8,3.3
				C689.3,176.5,689.2,176.5,689.2,176.5z"/>
		</g>
	</g>
	<g transform="matrix(0.620079,0,0,0.620079,0,0)">
		<g class="st2">
			<path d="M721.5,181.2c-0.7,0-1.3-0.6-1.3-1.3c0-0.7,0.6-1.3,1.3-1.3s1.3,0.6,1.3,1.3C722.8,180.6,722.2,181.2,721.5,181.2z"/>
		</g>
	</g>
	<g transform="matrix(0.620079,0,0,0.620079,0,0)">
		<g class="st2">
			<path d="M716.7,176.5c-0.2,0-0.4-0.3-0.4-0.5c0-0.1-0.1-0.2-0.1-0.3c0-0.2,0.1-0.3,0.4-0.5c0,0,6.8-2.3,7.2-2.4
				c0.2-0.1,0.3-0.1,0.3-0.2s-0.1-0.2-0.2-0.2c-0.3-0.1-7.2-2.5-7.2-2.5c-0.4-0.1-0.4-0.3-0.4-0.4c0-0.1,0-0.2,0.1-0.3
				c0.1-0.3,0.2-0.4,0.5-0.4c0.1,0,0.2,0,0.3,0.1l9.6,3.3c0.4,0.1,0.4,0.3,0.4,0.6s0,0.5-0.4,0.6c0,0-9.7,3.3-9.8,3.3
				C716.8,176.5,716.7,176.5,716.7,176.5z"/>
		</g>
	</g>
	<g transform="matrix(0.620079,0,0,0.620079,0,0)">
		<g class="st2">
			<path d="M748.7,181.2c-0.7,0-1.3-0.6-1.3-1.3c0-0.7,0.6-1.3,1.3-1.3c0.7,0,1.3,0.6,1.3,1.3C750.1,180.6,749.5,181.2,748.7,181.2z
				"/>
		</g>
	</g>
	<g transform="matrix(0.620079,0,0,0.620079,0,0)">
		<g class="st2">
			<path d="M744,176.5c-0.2,0-0.4-0.3-0.4-0.5c0-0.1-0.1-0.2-0.1-0.3c0-0.2,0.1-0.3,0.4-0.5c0,0,6.8-2.3,7.2-2.4
				c0.2-0.1,0.3-0.1,0.3-0.2s-0.1-0.2-0.2-0.2c-0.3-0.1-7.2-2.5-7.2-2.5c-0.4-0.1-0.4-0.3-0.4-0.4c0-0.1,0-0.2,0.1-0.3
				c0.1-0.3,0.2-0.4,0.5-0.4c0.1,0,0.2,0,0.3,0.1l9.6,3.3c0.4,0.1,0.4,0.3,0.4,0.6s0,0.5-0.4,0.6c0,0-9.7,3.3-9.8,3.3
				C744.1,176.5,744,176.5,744,176.5z"/>
		</g>
	</g>
	<g transform="matrix(0.620079,0,0,0.620079,0,0)">
		<path vector-effect="none" class="st6" d="M716.7,215.2H744v-4h-27.2V215.2"/>
	</g>
	<g transform="matrix(0.620079,0,0,0.620079,0,0)">
		<g class="st2">
			<path d="M813,181.2c-0.2,0-0.4-0.3-0.4-0.5c0-0.1-0.1-0.2-0.1-0.3c0-0.2,0.1-0.3,0.4-0.5c0,0,6.8-2.3,7.2-2.4
				c0.2-0.1,0.3-0.1,0.3-0.2s-0.1-0.2-0.2-0.2c-0.3-0.1-7.2-2.5-7.2-2.5c-0.4-0.1-0.4-0.3-0.4-0.4c0-0.1,0-0.2,0.1-0.3
				c0.1-0.3,0.2-0.4,0.5-0.4c0.1,0,0.2,0,0.3,0.1l9.6,3.3c0.4,0.1,0.4,0.3,0.4,0.6s0,0.5-0.4,0.6c0,0-9.7,3.3-9.8,3.3
				C813.1,181.2,813,181.2,813,181.2z"/>
		</g>
	</g>
	<g transform="matrix(0.620079,0,0,0.620079,0,0)">
		<g class="st2">
			<path d="M909,181.2c-0.7,0-1.3-0.6-1.3-1.3c0-0.7,0.6-1.3,1.3-1.3c0.7,0,1.3,0.6,1.3,1.3C910.3,180.6,909.7,181.2,909,181.2z"/>
		</g>
	</g>
	<g transform="matrix(0.620079,0,0,0.620079,0,0)">
		<g class="st2">
			<path d="M904.2,176.5c-0.2,0-0.4-0.3-0.4-0.5c0-0.1-0.1-0.2-0.1-0.3c0-0.2,0.1-0.3,0.4-0.5c0,0,6.8-2.3,7.2-2.4
				c0.2-0.1,0.3-0.1,0.3-0.2s-0.1-0.2-0.2-0.2c-0.3-0.1-7.2-2.5-7.2-2.5c-0.4-0.1-0.4-0.3-0.4-0.4c0-0.1,0-0.2,0.1-0.3
				c0.1-0.3,0.2-0.4,0.5-0.4c0.1,0,0.2,0,0.3,0.1l9.6,3.3c0.4,0.1,0.4,0.3,0.4,0.6s0,0.5-0.4,0.6c0,0-9.7,3.3-9.8,3.3
				C904.3,176.5,904.2,176.5,904.2,176.5z"/>
		</g>
	</g>
	<g transform="matrix(0.620079,0,0,0.620079,0,0)">
		<g class="st2">
			<path d="M936.5,181.2c-0.7,0-1.3-0.6-1.3-1.3c0-0.7,0.6-1.3,1.3-1.3c0.7,0,1.3,0.6,1.3,1.3C937.8,180.6,937.2,181.2,936.5,181.2z
				"/>
		</g>
	</g>
	<g transform="matrix(0.620079,0,0,0.620079,0,0)">
		<g class="st2">
			<path d="M931.7,176.5c-0.2,0-0.4-0.3-0.4-0.5c0-0.1-0.1-0.2-0.1-0.3c0-0.2,0.1-0.3,0.4-0.5c0,0,6.8-2.3,7.2-2.4
				c0.2-0.1,0.3-0.1,0.3-0.2s-0.1-0.2-0.2-0.2c-0.3-0.1-7.2-2.5-7.2-2.5c-0.4-0.1-0.4-0.3-0.4-0.4c0-0.1,0-0.2,0.1-0.3
				c0.1-0.3,0.2-0.4,0.5-0.4c0.1,0,0.2,0,0.3,0.1l9.6,3.3c0.4,0.1,0.4,0.3,0.4,0.6s0,0.5-0.4,0.6c0,0-9.7,3.3-9.8,3.3
				C931.8,176.5,931.7,176.5,931.7,176.5z"/>
		</g>
	</g>
	<g transform="matrix(0.620079,0,0,0.620079,0,0)">
		<g class="st2">
			<path d="M963.7,181.2c-0.7,0-1.3-0.6-1.3-1.3c0-0.7,0.6-1.3,1.3-1.3c0.7,0,1.3,0.6,1.3,1.3C965.1,180.6,964.5,181.2,963.7,181.2z
				"/>
		</g>
	</g>
	<g transform="matrix(0.620079,0,0,0.620079,0,0)">
		<g class="st2">
			<path d="M959,176.5c-0.2,0-0.4-0.3-0.4-0.5c0-0.1-0.1-0.2-0.1-0.3c0-0.2,0.1-0.3,0.4-0.5c0,0,6.8-2.3,7.2-2.4
				c0.2-0.1,0.3-0.1,0.3-0.2s-0.1-0.2-0.2-0.2c-0.3-0.1-7.2-2.5-7.2-2.5c-0.4-0.1-0.4-0.3-0.4-0.4c0-0.1,0-0.2,0.1-0.3
				c0.1-0.3,0.2-0.4,0.5-0.4c0.1,0,0.2,0,0.3,0.1l9.6,3.3c0.4,0.1,0.4,0.3,0.4,0.6s0,0.5-0.4,0.6c0,0-9.7,3.3-9.8,3.3
				C959.1,176.5,959,176.5,959,176.5z"/>
		</g>
	</g>
	<g transform="matrix(0.620079,0,0,0.620079,0,0)">
		<path vector-effect="none" class="st6" d="M931.7,215.2H959v-4h-27.2V215.2"/>
	</g>
	<g transform="matrix(0.620079,0,0,0.620079,0,0)">
		<g class="st2">
			<path d="M1028,181.2c-0.2,0-0.4-0.3-0.4-0.5c0-0.1-0.1-0.2-0.1-0.3c0-0.2,0.1-0.3,0.4-0.5c0,0,6.8-2.3,7.2-2.4
				c0.2-0.1,0.3-0.1,0.3-0.2s-0.1-0.2-0.2-0.2c-0.3-0.1-7.2-2.5-7.2-2.5c-0.4-0.1-0.4-0.3-0.4-0.4c0-0.1,0-0.2,0.1-0.3
				c0.1-0.3,0.2-0.4,0.5-0.4c0.1,0,0.2,0,0.3,0.1l9.6,3.3c0.4,0.1,0.4,0.3,0.4,0.6s0,0.5-0.4,0.6c0,0-9.7,3.3-9.8,3.3
				C1028.1,181.2,1028,181.2,1028,181.2z"/>
		</g>
	</g>
	<g transform="matrix(0.620079,0,0,0.620079,0,0)">
		<g class="st2">
			<path d="M1124,181.2c-0.7,0-1.3-0.6-1.3-1.3c0-0.7,0.6-1.3,1.3-1.3c0.7,0,1.3,0.6,1.3,1.3C1125.3,180.6,1124.7,181.2,1124,181.2z
				"/>
		</g>
	</g>
	<g transform="matrix(0.620079,0,0,0.620079,0,0)">
		<g class="st2">
			<path d="M1119.2,176.5c-0.2,0-0.4-0.3-0.4-0.5c0-0.1-0.1-0.2-0.1-0.3c0-0.2,0.1-0.3,0.4-0.5c0,0,6.8-2.3,7.2-2.4
				c0.2-0.1,0.3-0.1,0.3-0.2s-0.1-0.2-0.2-0.2c-0.3-0.1-7.2-2.5-7.2-2.5c-0.4-0.1-0.4-0.3-0.4-0.4c0-0.1,0-0.2,0.1-0.3
				c0.1-0.3,0.2-0.4,0.5-0.4c0.1,0,0.2,0,0.3,0.1l9.6,3.3c0.4,0.1,0.4,0.3,0.4,0.6s0,0.5-0.4,0.6c0,0-9.7,3.3-9.8,3.3
				C1119.3,176.5,1119.2,176.5,1119.2,176.5z"/>
		</g>
	</g>
	<g transform="matrix(0.620079,0,0,0.620079,0,0)">
		<g class="st2">
			<path d="M1151.2,181.2c-0.7,0-1.3-0.6-1.3-1.3c0-0.7,0.6-1.3,1.3-1.3c0.7,0,1.3,0.6,1.3,1.3
				C1152.6,180.6,1152,181.2,1151.2,181.2z"/>
		</g>
	</g>
	<g transform="matrix(0.620079,0,0,0.620079,0,0)">
		<g class="st2">
			<path d="M1146.5,176.5c-0.2,0-0.4-0.3-0.4-0.5c0-0.1-0.1-0.2-0.1-0.3c0-0.2,0.1-0.3,0.4-0.5c0,0,6.8-2.3,7.2-2.4
				c0.2-0.1,0.3-0.1,0.3-0.2s-0.1-0.2-0.2-0.2c-0.3-0.1-7.2-2.5-7.2-2.5c-0.4-0.1-0.4-0.3-0.4-0.4c0-0.1,0-0.2,0.1-0.3
				c0.1-0.3,0.2-0.4,0.5-0.4c0.1,0,0.2,0,0.3,0.1l9.6,3.3c0.4,0.1,0.4,0.3,0.4,0.6s0,0.5-0.4,0.6c0,0-9.7,3.3-9.8,3.3
				C1146.6,176.5,1146.5,176.5,1146.5,176.5z"/>
		</g>
	</g>
	<g transform="matrix(0.620079,0,0,0.620079,0,0)">
		<g class="st2">
			<path d="M1178.7,181.2c-0.7,0-1.3-0.6-1.3-1.3c0-0.7,0.6-1.3,1.3-1.3s1.3,0.6,1.3,1.3C1180.1,180.6,1179.5,181.2,1178.7,181.2z"
				/>
		</g>
	</g>
	<g transform="matrix(0.620079,0,0,0.620079,0,0)">
		<g class="st2">
			<path d="M1174,176.5c-0.2,0-0.4-0.3-0.4-0.5c0-0.1-0.1-0.2-0.1-0.3c0-0.2,0.1-0.3,0.4-0.5c0,0,6.8-2.3,7.2-2.4
				c0.2-0.1,0.3-0.1,0.3-0.2s-0.1-0.2-0.2-0.2c-0.3-0.1-7.2-2.5-7.2-2.5c-0.4-0.1-0.4-0.3-0.4-0.4c0-0.1,0-0.2,0.1-0.3
				c0.1-0.3,0.2-0.4,0.5-0.4c0.1,0,0.2,0,0.3,0.1l9.6,3.3c0.4,0.1,0.4,0.3,0.4,0.6s0,0.5-0.4,0.6c0,0-9.7,3.3-9.8,3.3
				C1174.1,176.5,1174,176.5,1174,176.5z"/>
		</g>
	</g>
	<g transform="matrix(0.620079,0,0,0.620079,0,0)">
		<path vector-effect="none" class="st6" d="M1146.5,215.2h27.5v-4h-27.5V215.2"/>
	</g>
	<g transform="matrix(0.620079,0,0,0.620079,0,0)">
		<line vector-effect="none" class="st5" x1="58.2" y1="344" x2="1219.5" y2="344"/>
	</g>
	<g transform="matrix(0.620079,0,0,0.620079,0,0)">
		<line vector-effect="none" class="st5" x1="58.2" y1="336" x2="1219.5" y2="336"/>
	</g>
	<g transform="matrix(0.620079,0,0,0.620079,0,0)">
		<line vector-effect="none" class="st5" x1="58.2" y1="328" x2="1219.5" y2="328"/>
	</g>
	<g transform="matrix(0.620079,0,0,0.620079,0,0)">
		<line vector-effect="none" class="st5" x1="58.2" y1="320" x2="1219.5" y2="320"/>
	</g>
	<g transform="matrix(0.620079,0,0,0.620079,0,0)">
		<line vector-effect="none" class="st5" x1="58.2" y1="312" x2="1219.5" y2="312"/>
	</g>
	<g transform="matrix(0.620079,0,0,0.620079,0,0)">
		<g class="st2">
			<path d="M81.2,320.9c0,4.2-1.7,8.1-4.4,11.1c-3.4,3.6-7.5,6.1-11.7,8.2c-0.2,0.1-0.4,0.2-0.5,0.2c-0.3,0-0.4-0.2-0.4-0.4
				c0-0.3,0.2-0.4,0.5-0.6c4-2.3,7.3-5,9.2-8c2-3.1,2.7-6.9,2.7-10.2c0-5-1.5-8.3-4.9-8.3c-3.3,0-5.2,2.3-5.2,3.6
				c0,0.3,0.1,0.6,0.5,0.6s0.7-0.2,1.6-0.2c1.6,0,3.1,1.3,3.1,3.3c0,2-1.4,3.4-3.4,3.4c-2.6,0-3.9-2.2-3.9-4.8
				c0-3.1,2.5-7.1,8.1-7.1C77.8,311.6,81.2,315.3,81.2,320.9z M86.1,316c0,1-0.8,1.8-1.8,1.8c-1,0-1.8-0.8-1.8-1.8s0.8-1.8,1.8-1.8
				C85.3,314.2,86.1,315,86.1,316z M86.1,324c0,1-0.7,1.7-1.7,1.7c-1,0-1.7-0.7-1.7-1.7s0.7-1.7,1.7-1.7
				C85.3,322.3,86.1,323,86.1,324z"/>
		</g>
	</g>
	<g transform="matrix(0.620079,0,0,0.620079,0,0)">
		<g class="st2">
			<path d="M92.2,322.9c0-0.6,0.5-0.9,1-0.9c0.3,0,0.6,0.2,0.6,0.5c0,0.6-0.2,8.3-0.2,9c0,0.2,0.1,0.4,0.4,0.5c0.1,0,0.1,0,0.2,0
				c0.3,0,0.5-0.3,0.7-0.4c0.4-0.2,0.7-0.4,1.1-0.4c0.2-0.1,0.4-0.1,0.7-0.1c1.5,0.1,2.9,1.2,2.9,3.1c0,1.5-1,3.4-3.8,5.4
				c-0.8,0.5-1.6,1.4-2.5,2c0,0-0.1,0.1-0.2,0.1s-0.2,0-0.3-0.2C92.3,341.1,92.2,322.9,92.2,322.9z M94.1,339.1c0.1,0,0.2,0,0.3-0.1
				c1-0.6,1.9-1.6,2.3-2.4c0.4-0.7,0.5-1.3,0.5-1.9c0-0.6-0.2-1.2-0.5-1.5c-0.2-0.2-0.5-0.4-0.8-0.4c-0.3,0-0.5,0.1-0.8,0.2
				c-0.4,0.3-1.3,1-1.4,1.3c0,0.1-0.1,0.5-0.1,1c0,1.3,0.1,3.2,0.1,3.2C93.7,338.8,93.8,339.1,94.1,339.1z"/>
		</g>
	</g>
	<g transform="matrix(0.620079,0,0,0.620079,0,0)">
		<g class="st2">
			<path d="M132.7,296c-0.2,0-0.4-0.3-0.4-0.5c0-0.1-0.1-0.2-0.1-0.3c0-0.2,0.1-0.3,0.4-0.5c0,0,6.8-2.3,7.2-2.4
				c0.2-0.1,0.3-0.1,0.3-0.2s-0.1-0.2-0.2-0.2c-0.3-0.1-7.2-2.5-7.2-2.5c-0.4-0.1-0.4-0.3-0.4-0.4c0-0.1,0-0.2,0.1-0.3
				c0.1-0.3,0.2-0.4,0.5-0.4c0.1,0,0.2,0,0.3,0.1l9.6,3.3c0.4,0.1,0.4,0.3,0.4,0.6s0,0.5-0.4,0.6c0,0-9.7,3.3-9.8,3.3
				C132.8,296,132.7,296,132.7,296z"/>
		</g>
	</g>
	<g transform="matrix(0.620079,0,0,0.620079,0,0)">
		<g class="st2">
			<path d="M239.5,295.9c-0.7,0-1.3-0.6-1.3-1.3c0-0.7,0.6-1.3,1.3-1.3c0.7,0,1.3,0.6,1.3,1.3C240.8,295.3,240.2,295.9,239.5,295.9z
				"/>
		</g>
	</g>
	<g transform="matrix(0.620079,0,0,0.620079,0,0)">
		<g class="st2">
			<path d="M234.7,291.2c-0.2,0-0.4-0.3-0.4-0.5c0-0.1-0.1-0.2-0.1-0.3c0-0.2,0.1-0.3,0.4-0.5c0,0,6.8-2.3,7.2-2.4
				c0.2-0.1,0.3-0.1,0.3-0.2s-0.1-0.2-0.2-0.2c-0.3-0.1-7.2-2.5-7.2-2.5c-0.4-0.1-0.4-0.3-0.4-0.4c0-0.1,0-0.2,0.1-0.3
				c0.1-0.3,0.2-0.4,0.5-0.4c0.1,0,0.2,0,0.3,0.1l9.6,3.3c0.4,0.1,0.4,0.3,0.4,0.6s0,0.5-0.4,0.6c0,0-9.7,3.3-9.8,3.3
				C234.8,291.2,234.7,291.2,234.7,291.2z"/>
		</g>
	</g>
	<g transform="matrix(0.620079,0,0,0.620079,0,0)">
		<g class="st2">
			<path d="M270.2,295.9c-0.7,0-1.3-0.6-1.3-1.3c0-0.7,0.6-1.3,1.3-1.3c0.7,0,1.3,0.6,1.3,1.3C271.6,295.3,271,295.9,270.2,295.9z"
				/>
		</g>
	</g>
	<g transform="matrix(0.620079,0,0,0.620079,0,0)">
		<g class="st2">
			<path d="M265.5,291.2c-0.2,0-0.4-0.3-0.4-0.5c0-0.1-0.1-0.2-0.1-0.3c0-0.2,0.1-0.3,0.4-0.5c0,0,6.8-2.3,7.2-2.4
				c0.2-0.1,0.3-0.1,0.3-0.2s-0.1-0.2-0.2-0.2c-0.3-0.1-7.2-2.5-7.2-2.5c-0.4-0.1-0.4-0.3-0.4-0.4c0-0.1,0-0.2,0.1-0.3
				c0.1-0.3,0.2-0.4,0.5-0.4c0.1,0,0.2,0,0.3,0.1l9.6,3.3c0.4,0.1,0.4,0.3,0.4,0.6s0,0.5-0.4,0.6c0,0-9.7,3.3-9.8,3.3
				C265.6,291.2,265.5,291.2,265.5,291.2z"/>
		</g>
	</g>
	<g transform="matrix(0.620079,0,0,0.620079,0,0)">
		<g class="st2">
			<path d="M300.7,295.9c-0.7,0-1.3-0.6-1.3-1.3c0-0.7,0.6-1.3,1.3-1.3c0.7,0,1.3,0.6,1.3,1.3C302.1,295.3,301.5,295.9,300.7,295.9z
				"/>
		</g>
	</g>
	<g transform="matrix(0.620079,0,0,0.620079,0,0)">
		<g class="st2">
			<path d="M296,291.2c-0.2,0-0.4-0.3-0.4-0.5c0-0.1-0.1-0.2-0.1-0.3c0-0.2,0.1-0.3,0.4-0.5c0,0,6.8-2.3,7.2-2.4
				c0.2-0.1,0.3-0.1,0.3-0.2s-0.1-0.2-0.2-0.2c-0.3-0.1-7.2-2.5-7.2-2.5c-0.4-0.1-0.4-0.3-0.4-0.4c0-0.1,0-0.2,0.1-0.3
				c0.1-0.3,0.2-0.4,0.5-0.4c0.1,0,0.2,0,0.3,0.1l9.6,3.3c0.4,0.1,0.4,0.3,0.4,0.6s0,0.5-0.4,0.6c0,0-9.7,3.3-9.8,3.3
				C296.1,291.2,296,291.2,296,291.2z"/>
		</g>
	</g>
	<g transform="matrix(0.620079,0,0,0.620079,0,0)">
		<path vector-effect="none" class="st6" d="M265.5,330H296v-4h-30.5V330"/>
	</g>
	<g transform="matrix(0.620079,0,0,0.620079,0,0)">
		<g class="st2">
			<path d="M368.2,296c-0.2,0-0.4-0.3-0.4-0.5c0-0.1-0.1-0.2-0.1-0.3c0-0.2,0.1-0.3,0.4-0.5c0,0,6.8-2.3,7.2-2.4
				c0.2-0.1,0.3-0.1,0.3-0.2s-0.1-0.2-0.2-0.2c-0.3-0.1-7.2-2.5-7.2-2.5c-0.4-0.1-0.4-0.3-0.4-0.4c0-0.1,0-0.2,0.1-0.3
				c0.1-0.3,0.2-0.4,0.5-0.4c0.1,0,0.2,0,0.3,0.1l9.6,3.3c0.4,0.1,0.4,0.3,0.4,0.6s0,0.5-0.4,0.6c0,0-9.7,3.3-9.8,3.3
				C368.3,296,368.2,296,368.2,296z"/>
		</g>
	</g>
	<g transform="matrix(0.620079,0,0,0.620079,0,0)">
		<g class="st2">
			<path d="M475.2,295.9c-0.7,0-1.3-0.6-1.3-1.3c0-0.7,0.6-1.3,1.3-1.3c0.7,0,1.3,0.6,1.3,1.3C476.6,295.3,476,295.9,475.2,295.9z"
				/>
		</g>
	</g>
	<g transform="matrix(0.620079,0,0,0.620079,0,0)">
		<g class="st2">
			<path d="M470.5,291.2c-0.2,0-0.4-0.3-0.4-0.5c0-0.1-0.1-0.2-0.1-0.3c0-0.2,0.1-0.3,0.4-0.5c0,0,6.8-2.3,7.2-2.4
				c0.2-0.1,0.3-0.1,0.3-0.2s-0.1-0.2-0.2-0.2c-0.3-0.1-7.2-2.5-7.2-2.5c-0.4-0.1-0.4-0.3-0.4-0.4c0-0.1,0-0.2,0.1-0.3
				c0.1-0.3,0.2-0.4,0.5-0.4c0.1,0,0.2,0,0.3,0.1l9.6,3.3c0.4,0.1,0.4,0.3,0.4,0.6s0,0.5-0.4,0.6c0,0-9.7,3.3-9.8,3.3
				C470.6,291.2,470.5,291.2,470.5,291.2z"/>
		</g>
	</g>
	<g transform="matrix(0.620079,0,0,0.620079,0,0)">
		<g class="st2">
			<path d="M505.7,295.9c-0.7,0-1.3-0.6-1.3-1.3c0-0.7,0.6-1.3,1.3-1.3c0.7,0,1.3,0.6,1.3,1.3C507.1,295.3,506.5,295.9,505.7,295.9z
				"/>
		</g>
	</g>
	<g transform="matrix(0.620079,0,0,0.620079,0,0)">
		<g class="st2">
			<path d="M501,291.2c-0.2,0-0.4-0.3-0.4-0.5c0-0.1-0.1-0.2-0.1-0.3c0-0.2,0.1-0.3,0.4-0.5c0,0,6.8-2.3,7.2-2.4
				c0.2-0.1,0.3-0.1,0.3-0.2s-0.1-0.2-0.2-0.2c-0.3-0.1-7.2-2.5-7.2-2.5c-0.4-0.1-0.4-0.3-0.4-0.4c0-0.1,0-0.2,0.1-0.3
				c0.1-0.3,0.2-0.4,0.5-0.4c0.1,0,0.2,0,0.3,0.1l9.6,3.3c0.4,0.1,0.4,0.3,0.4,0.6s0,0.5-0.4,0.6c0,0-9.7,3.3-9.8,3.3
				C501.1,291.2,501,291.2,501,291.2z"/>
		</g>
	</g>
	<g transform="matrix(0.620079,0,0,0.620079,0,0)">
		<g class="st2">
			<path d="M536.2,295.9c-0.7,0-1.3-0.6-1.3-1.3c0-0.7,0.6-1.3,1.3-1.3c0.7,0,1.3,0.6,1.3,1.3C537.6,295.3,537,295.9,536.2,295.9z"
				/>
		</g>
	</g>
	<g transform="matrix(0.620079,0,0,0.620079,0,0)">
		<g class="st2">
			<path d="M531.5,291.2c-0.2,0-0.4-0.3-0.4-0.5c0-0.1-0.1-0.2-0.1-0.3c0-0.2,0.1-0.3,0.4-0.5c0,0,6.8-2.3,7.2-2.4
				c0.2-0.1,0.3-0.1,0.3-0.2s-0.1-0.2-0.2-0.2c-0.3-0.1-7.2-2.5-7.2-2.5c-0.4-0.1-0.4-0.3-0.4-0.4c0-0.1,0-0.2,0.1-0.3
				c0.1-0.3,0.2-0.4,0.5-0.4c0.1,0,0.2,0,0.3,0.1l9.6,3.3c0.4,0.1,0.4,0.3,0.4,0.6s0,0.5-0.4,0.6c0,0-9.7,3.3-9.8,3.3
				C531.6,291.2,531.5,291.2,531.5,291.2z"/>
		</g>
	</g>
	<g transform="matrix(0.620079,0,0,0.620079,0,0)">
		<path vector-effect="none" class="st6" d="M501,330h30.5v-4H501V330"/>
	</g>
	<g transform="matrix(0.620079,0,0,0.620079,0,0)">
		<g class="st2">
			<path d="M604,296c-0.2,0-0.4-0.3-0.4-0.5c0-0.1-0.1-0.2-0.1-0.3c0-0.2,0.1-0.3,0.4-0.5c0,0,6.8-2.3,7.2-2.4
				c0.2-0.1,0.3-0.1,0.3-0.2s-0.1-0.2-0.2-0.2c-0.3-0.1-7.2-2.5-7.2-2.5c-0.4-0.1-0.4-0.3-0.4-0.4c0-0.1,0-0.2,0.1-0.3
				c0.1-0.3,0.2-0.4,0.5-0.4c0.1,0,0.2,0,0.3,0.1l9.6,3.3c0.4,0.1,0.4,0.3,0.4,0.6s0,0.5-0.4,0.6c0,0-9.7,3.3-9.8,3.3
				C604.1,296,604,296,604,296z"/>
		</g>
	</g>
	<g transform="matrix(0.620079,0,0,0.620079,0,0)">
		<g class="st2">
			<path d="M710.7,295.9c-0.7,0-1.3-0.6-1.3-1.3c0-0.7,0.6-1.3,1.3-1.3s1.3,0.6,1.3,1.3C712.1,295.3,711.5,295.9,710.7,295.9z"/>
		</g>
	</g>
	<g transform="matrix(0.620079,0,0,0.620079,0,0)">
		<g class="st2">
			<path d="M706,291.2c-0.2,0-0.4-0.3-0.4-0.5c0-0.1-0.1-0.2-0.1-0.3c0-0.2,0.1-0.3,0.4-0.5c0,0,6.8-2.3,7.2-2.4
				c0.2-0.1,0.3-0.1,0.3-0.2s-0.1-0.2-0.2-0.2c-0.3-0.1-7.2-2.5-7.2-2.5c-0.4-0.1-0.4-0.3-0.4-0.4c0-0.1,0-0.2,0.1-0.3
				c0.1-0.3,0.2-0.4,0.5-0.4c0.1,0,0.2,0,0.3,0.1l9.6,3.3c0.4,0.1,0.4,0.3,0.4,0.6s0,0.5-0.4,0.6c0,0-9.7,3.3-9.8,3.3
				C706.1,291.2,706,291.2,706,291.2z"/>
		</g>
	</g>
	<g transform="matrix(0.620079,0,0,0.620079,0,0)">
		<g class="st2">
			<path d="M741.2,295.9c-0.7,0-1.3-0.6-1.3-1.3c0-0.7,0.6-1.3,1.3-1.3c0.7,0,1.3,0.6,1.3,1.3C742.6,295.3,742,295.9,741.2,295.9z"
				/>
		</g>
	</g>
	<g transform="matrix(0.620079,0,0,0.620079,0,0)">
		<g class="st2">
			<path d="M736.5,291.2c-0.2,0-0.4-0.3-0.4-0.5c0-0.1-0.1-0.2-0.1-0.3c0-0.2,0.1-0.3,0.4-0.5c0,0,6.8-2.3,7.2-2.4
				c0.2-0.1,0.3-0.1,0.3-0.2s-0.1-0.2-0.2-0.2c-0.3-0.1-7.2-2.5-7.2-2.5c-0.4-0.1-0.4-0.3-0.4-0.4c0-0.1,0-0.2,0.1-0.3
				c0.1-0.3,0.2-0.4,0.5-0.4c0.1,0,0.2,0,0.3,0.1l9.6,3.3c0.4,0.1,0.4,0.3,0.4,0.6s0,0.5-0.4,0.6c0,0-9.7,3.3-9.8,3.3
				C736.6,291.2,736.5,291.2,736.5,291.2z"/>
		</g>
	</g>
	<g transform="matrix(0.620079,0,0,0.620079,0,0)">
		<g class="st2">
			<path d="M771.7,295.9c-0.7,0-1.3-0.6-1.3-1.3c0-0.7,0.6-1.3,1.3-1.3c0.7,0,1.3,0.6,1.3,1.3C773.1,295.3,772.5,295.9,771.7,295.9z
				"/>
		</g>
	</g>
	<g transform="matrix(0.620079,0,0,0.620079,0,0)">
		<g class="st2">
			<path d="M767,291.2c-0.2,0-0.4-0.3-0.4-0.5c0-0.1-0.1-0.2-0.1-0.3c0-0.2,0.1-0.3,0.4-0.5c0,0,6.8-2.3,7.2-2.4
				c0.2-0.1,0.3-0.1,0.3-0.2s-0.1-0.2-0.2-0.2c-0.3-0.1-7.2-2.5-7.2-2.5c-0.4-0.1-0.4-0.3-0.4-0.4c0-0.1,0-0.2,0.1-0.3
				c0.1-0.3,0.2-0.4,0.5-0.4c0.1,0,0.2,0,0.3,0.1l9.6,3.3c0.4,0.1,0.4,0.3,0.4,0.6s0,0.5-0.4,0.6c0,0-9.7,3.3-9.8,3.3
				C767.1,291.2,767,291.2,767,291.2z"/>
		</g>
	</g>
	<g transform="matrix(0.620079,0,0,0.620079,0,0)">
		<path vector-effect="none" class="st6" d="M736.5,330H767v-4h-30.5V330"/>
	</g>
	<g transform="matrix(0.620079,0,0,0.620079,0,0)">
		<g class="st2">
			<path d="M839.5,296c-0.2,0-0.4-0.3-0.4-0.5c0-0.1-0.1-0.2-0.1-0.3c0-0.2,0.1-0.3,0.4-0.5c0,0,6.8-2.3,7.2-2.4
				c0.2-0.1,0.3-0.1,0.3-0.2s-0.1-0.2-0.2-0.2c-0.3-0.1-7.2-2.5-7.2-2.5c-0.4-0.1-0.4-0.3-0.4-0.4c0-0.1,0-0.2,0.1-0.3
				c0.1-0.3,0.2-0.4,0.5-0.4c0.1,0,0.2,0,0.3,0.1l9.6,3.3c0.4,0.1,0.4,0.3,0.4,0.6s0,0.5-0.4,0.6c0,0-9.7,3.3-9.8,3.3
				C839.6,296,839.5,296,839.5,296z"/>
		</g>
	</g>
	<g transform="matrix(0.620079,0,0,0.620079,0,0)">
		<g class="st2">
			<path d="M946.2,295.9c-0.7,0-1.3-0.6-1.3-1.3c0-0.7,0.6-1.3,1.3-1.3c0.7,0,1.3,0.6,1.3,1.3C947.6,295.3,947,295.9,946.2,295.9z"
				/>
		</g>
	</g>
	<g transform="matrix(0.620079,0,0,0.620079,0,0)">
		<g class="st2">
			<path d="M941.5,291.2c-0.2,0-0.4-0.3-0.4-0.5c0-0.1-0.1-0.2-0.1-0.3c0-0.2,0.1-0.3,0.4-0.5c0,0,6.8-2.3,7.2-2.4
				c0.2-0.1,0.3-0.1,0.3-0.2s-0.1-0.2-0.2-0.2c-0.3-0.1-7.2-2.5-7.2-2.5c-0.4-0.1-0.4-0.3-0.4-0.4c0-0.1,0-0.2,0.1-0.3
				c0.1-0.3,0.2-0.4,0.5-0.4c0.1,0,0.2,0,0.3,0.1l9.6,3.3c0.4,0.1,0.4,0.3,0.4,0.6s0,0.5-0.4,0.6c0,0-9.7,3.3-9.8,3.3
				C941.6,291.2,941.5,291.2,941.5,291.2z"/>
		</g>
	</g>
	<g transform="matrix(0.620079,0,0,0.620079,0,0)">
		<g class="st2">
			<path d="M976.7,295.9c-0.7,0-1.3-0.6-1.3-1.3c0-0.7,0.6-1.3,1.3-1.3c0.7,0,1.3,0.6,1.3,1.3C978.1,295.3,977.5,295.9,976.7,295.9z
				"/>
		</g>
	</g>
	<g transform="matrix(0.620079,0,0,0.620079,0,0)">
		<g class="st2">
			<path d="M972,291.2c-0.2,0-0.4-0.3-0.4-0.5c0-0.1-0.1-0.2-0.1-0.3c0-0.2,0.1-0.3,0.4-0.5c0,0,6.8-2.3,7.2-2.4
				c0.2-0.1,0.3-0.1,0.3-0.2s-0.1-0.2-0.2-0.2c-0.3-0.1-7.2-2.5-7.2-2.5c-0.4-0.1-0.4-0.3-0.4-0.4c0-0.1,0-0.2,0.1-0.3
				c0.1-0.3,0.2-0.4,0.5-0.4c0.1,0,0.2,0,0.3,0.1l9.6,3.3c0.4,0.1,0.4,0.3,0.4,0.6s0,0.5-0.4,0.6c0,0-9.7,3.3-9.8,3.3
				C972.1,291.2,972,291.2,972,291.2z"/>
		</g>
	</g>
	<g transform="matrix(0.620079,0,0,0.620079,0,0)">
		<g class="st2">
			<path d="M1007.5,295.9c-0.7,0-1.3-0.6-1.3-1.3c0-0.7,0.6-1.3,1.3-1.3c0.7,0,1.3,0.6,1.3,1.3
				C1008.8,295.3,1008.2,295.9,1007.5,295.9z"/>
		</g>
	</g>
	<g transform="matrix(0.620079,0,0,0.620079,0,0)">
		<g class="st2">
			<path d="M1002.7,291.2c-0.2,0-0.4-0.3-0.4-0.5c0-0.1-0.1-0.2-0.1-0.3c0-0.2,0.1-0.3,0.4-0.5c0,0,6.8-2.3,7.2-2.4
				c0.2-0.1,0.3-0.1,0.3-0.2s-0.1-0.2-0.2-0.2c-0.3-0.1-7.2-2.5-7.2-2.5c-0.4-0.1-0.4-0.3-0.4-0.4c0-0.1,0-0.2,0.1-0.3
				c0.1-0.3,0.2-0.4,0.5-0.4c0.1,0,0.2,0,0.3,0.1l9.6,3.3c0.4,0.1,0.4,0.3,0.4,0.6s0,0.5-0.4,0.6c0,0-9.7,3.3-9.8,3.3
				C1002.8,291.2,1002.7,291.2,1002.7,291.2z"/>
		</g>
	</g>
	<g transform="matrix(0.620079,0,0,0.620079,0,0)">
		<path vector-effect="none" class="st6" d="M972,330h30.7v-4H972V330"/>
	</g>
	<g transform="matrix(0.620079,0,0,0.620079,0,0)">
		<g class="st2">
			<path d="M1064.2,296c-0.2,0-0.4-0.3-0.4-0.5c0-0.1-0.1-0.2-0.1-0.3c0-0.2,0.1-0.3,0.4-0.5c0,0,6.8-2.3,7.2-2.4
				c0.2-0.1,0.3-0.1,0.3-0.2s-0.1-0.2-0.2-0.2c-0.3-0.1-7.2-2.5-7.2-2.5c-0.4-0.1-0.4-0.3-0.4-0.4c0-0.1,0-0.2,0.1-0.3
				c0.1-0.3,0.2-0.4,0.5-0.4c0.1,0,0.2,0,0.3,0.1l9.6,3.3c0.4,0.1,0.4,0.3,0.4,0.6s0,0.5-0.4,0.6c0,0-9.7,3.3-9.8,3.3
				C1064.3,296,1064.2,296,1064.2,296z"/>
		</g>
	</g>
	<g transform="matrix(0.620079,0,0,0.620079,0,0)">
		<line vector-effect="none" class="st1" x1="153.2" y1="189.2" x2="169.2" y2="189.2"/>
	</g>
	<g transform="matrix(0.620079,0,0,0.620079,0,0)">
		<line vector-effect="none" class="st5" x1="156.5" y1="190.5" x2="156.5" y2="217.2"/>
	</g>
	<g transform="matrix(0.620079,0,0,0.620079,0,0)">
		<g class="st2">
			<path d="M156,190.8c0-3.1,3.2-6,7.1-6c2.1,0,3.5,1.2,3.5,3c0,3-3.9,6-7.1,6C157.5,193.8,156,192.6,156,190.8z"/>
		</g>
	</g>
	<g transform="matrix(0.620079,0,0,0.620079,0,0)">
		<line vector-effect="none" class="st1" x1="191" y1="189.2" x2="207" y2="189.2"/>
	</g>
	<g transform="matrix(0.620079,0,0,0.620079,0,0)">
		<line vector-effect="none" class="st5" x1="194.2" y1="190.5" x2="194.2" y2="217.2"/>
	</g>
	<g transform="matrix(0.620079,0,0,0.620079,0,0)">
		<g class="st2">
			<path d="M193.7,190.8c0-3.1,3.2-6,7.1-6c2.1,0,3.5,1.2,3.5,3c0,3-3.9,6-7.1,6C195.2,193.8,193.7,192.6,193.7,190.8z"/>
		</g>
	</g>
	<g transform="matrix(0.620079,0,0,0.620079,0,0)">
		<g class="st2">
			<path d="M239.4,208.4c0,0.2-0.2,0.7-0.3,1.2c0,0-3.1,11.2-3.2,11.3c-0.3,0.3-0.8,0.3-1.1,0.3c-0.2,0-0.9,0-0.9-0.4
				c0.6-2.1,2.9-8.5,3-9c0-0.1,0-0.3,0-0.4c0-0.2,0-0.3-0.2-0.3c0,0-0.1,0-0.2,0c-0.4,0.2-0.7,0.4-1.2,0.5c-0.4,0.1-0.8,0.2-1.2,0.2
				c-0.3,0-0.6-0.1-0.8-0.1c-0.3-0.1-0.6-0.2-0.9-0.4c-0.5-0.4-0.9-1-0.9-1.6c0-1.2,1-2.1,2.1-2.1c1.2,0,2.1,1,2.1,2.1v0.3
				c1.1,0,2.7-1.9,2.9-2.1c0.2-0.1,0.3-0.1,0.4-0.1C239,207.9,239.4,208,239.4,208.4z"/>
		</g>
	</g>
	<g transform="matrix(0.620079,0,0,0.620079,0,0)">
		<line vector-effect="none" class="st1" x1="256.2" y1="189.2" x2="272.2" y2="189.2"/>
	</g>
	<g transform="matrix(0.620079,0,0,0.620079,0,0)">
		<line vector-effect="none" class="st5" x1="259.5" y1="190.5" x2="259.5" y2="217.2"/>
	</g>
	<g transform="matrix(0.620079,0,0,0.620079,0,0)">
		<g class="st2">
			<path d="M259,190.8c0-3.1,3.2-6,7.1-6c2.1,0,3.5,1.2,3.5,3c0,3-3.9,6-7.1,6C260.5,193.8,259,192.6,259,190.8z"/>
		</g>
	</g>
	<g transform="matrix(0.620079,0,0,0.620079,0,0)">
		<g class="st2">
			<path d="M259.1,209.2c0.1,0,0.2,0,0.3,0c1.1-0.1,4.2-0.4,5.9-5.2c0.3-0.9,0.6-2.5,0.6-4.2c0-1.6-0.2-3.3-0.8-4.7
				c-0.1-0.2-0.1-0.3-0.1-0.4c0-0.4,0.3-0.7,0.5-0.8c0.1,0,0.1,0,0.2,0c0.2,0,0.5,0.2,0.7,0.5c0.1,0.3,1.1,3.6,1.1,5.4v0.2
				c-0.1,3.5-1.6,6.8-3.6,9.6c-1.6,2.1-3.1,4.2-3.6,6.8c-0.1,0.4-0.4,0.7-0.7,0.7c-0.2,0-0.4-0.4-0.4-0.4V209.2z"/>
		</g>
	</g>
	<g transform="matrix(0.620079,0,0,0.620079,0,0)">
		<line vector-effect="none" class="st1" x1="283.5" y1="189.2" x2="299.5" y2="189.2"/>
	</g>
	<g transform="matrix(0.620079,0,0,0.620079,0,0)">
		<line vector-effect="none" class="st5" x1="286.7" y1="190.5" x2="286.7" y2="215"/>
	</g>
	<g transform="matrix(0.620079,0,0,0.620079,0,0)">
		<g class="st2">
			<path d="M286.2,190.8c0-3.1,3.2-6,7.1-6c2.1,0,3.5,1.2,3.5,3c0,3-3.9,6-7.1,6C287.7,193.8,286.2,192.6,286.2,190.8z"/>
		</g>
	</g>
	<g transform="matrix(0.620079,0,0,0.620079,0,0)">
		<line vector-effect="none" class="st1" x1="310.7" y1="189.2" x2="326.7" y2="189.2"/>
	</g>
	<g transform="matrix(0.620079,0,0,0.620079,0,0)">
		<line vector-effect="none" class="st5" x1="314" y1="190.5" x2="314" y2="215"/>
	</g>
	<g transform="matrix(0.620079,0,0,0.620079,0,0)">
		<g class="st2">
			<path d="M313.5,190.8c0-3.1,3.2-6,7.1-6c2.1,0,3.5,1.2,3.5,3c0,3-3.9,6-7.1,6C315,193.8,313.5,192.6,313.5,190.8z"/>
		</g>
	</g>
	<g transform="matrix(0.620079,0,0,0.620079,0,0)">
		<line vector-effect="none" class="st1" x1="379.5" y1="189.2" x2="396.5" y2="189.2"/>
	</g>
	<g transform="matrix(0.620079,0,0,0.620079,0,0)">
		<line vector-effect="none" class="st5" x1="383" y1="190.5" x2="383" y2="217.2"/>
	</g>
	<g transform="matrix(0.620079,0,0,0.620079,0,0)">
		<g class="st2">
			<path d="M382.5,190.8c0-1.9,1.7-6.2,7.3-6.2c2.1,0,3.6,1.2,3.6,3.1c0,1.2-1.2,6.2-7.3,6.2C384,193.9,382.5,192.8,382.5,190.8z
				 M392.2,187.6c0-0.3-0.1-0.5-0.2-0.7c-0.3-0.4-0.6-0.8-1.3-0.8c-0.8,0-1.9,0.4-3.7,1.4c-2.6,1.5-3.4,2.5-3.4,3.3
				c0,0.3,0.1,0.5,0.2,0.7c0.3,0.4,0.7,0.8,1.5,0.8c0.8,0,2-0.4,3.6-1.5C391.4,189.2,392.2,188.4,392.2,187.6z"/>
		</g>
	</g>
	<g transform="matrix(0.620079,0,0,0.620079,0,0)">
		<g class="st2">
			<path d="M454.4,208.4c0,0.2-0.2,0.7-0.3,1.2c0,0-3.1,11.2-3.2,11.3c-0.3,0.3-0.8,0.3-1.1,0.3c-0.2,0-0.9,0-0.9-0.4
				c0.6-2.1,2.9-8.5,3-9c0-0.1,0-0.3,0-0.4c0-0.2,0-0.3-0.2-0.3c0,0-0.1,0-0.2,0c-0.4,0.2-0.7,0.4-1.2,0.5c-0.4,0.1-0.8,0.2-1.2,0.2
				c-0.3,0-0.6-0.1-0.8-0.1c-0.3-0.1-0.6-0.2-0.9-0.4c-0.5-0.4-0.9-1-0.9-1.6c0-1.2,1-2.1,2.1-2.1c1.2,0,2.1,1,2.1,2.1v0.3
				c1.1,0,2.7-1.9,2.9-2.1c0.2-0.1,0.3-0.1,0.4-0.1C454,207.9,454.4,208,454.4,208.4z"/>
		</g>
	</g>
	<g transform="matrix(0.620079,0,0,0.620079,0,0)">
		<line vector-effect="none" class="st1" x1="471.2" y1="189.2" x2="487.2" y2="189.2"/>
	</g>
	<g transform="matrix(0.620079,0,0,0.620079,0,0)">
		<line vector-effect="none" class="st5" x1="474.5" y1="190.5" x2="474.5" y2="217.2"/>
	</g>
	<g transform="matrix(0.620079,0,0,0.620079,0,0)">
		<g class="st2">
			<path d="M474,190.8c0-3.1,3.2-6,7.1-6c2.1,0,3.5,1.2,3.5,3c0,3-3.9,6-7.1,6C475.5,193.8,474,192.6,474,190.8z"/>
		</g>
	</g>
	<g transform="matrix(0.620079,0,0,0.620079,0,0)">
		<g class="st2">
			<path d="M474.1,209.2c0.1,0,0.2,0,0.3,0c1.1-0.1,4.2-0.4,5.9-5.2c0.3-0.9,0.6-2.5,0.6-4.2c0-1.6-0.2-3.3-0.8-4.7
				c-0.1-0.2-0.1-0.3-0.1-0.4c0-0.4,0.3-0.7,0.5-0.8c0.1,0,0.1,0,0.2,0c0.2,0,0.5,0.2,0.7,0.5c0.1,0.3,1.1,3.6,1.1,5.4v0.2
				c-0.1,3.5-1.6,6.8-3.6,9.6c-1.6,2.1-3.1,4.2-3.6,6.8c-0.1,0.4-0.4,0.7-0.7,0.7c-0.2,0-0.4-0.4-0.4-0.4V209.2z"/>
		</g>
	</g>
	<g transform="matrix(0.620079,0,0,0.620079,0,0)">
		<line vector-effect="none" class="st1" x1="498.5" y1="189.2" x2="514.5" y2="189.2"/>
	</g>
	<g transform="matrix(0.620079,0,0,0.620079,0,0)">
		<line vector-effect="none" class="st5" x1="501.7" y1="190.5" x2="501.7" y2="215"/>
	</g>
	<g transform="matrix(0.620079,0,0,0.620079,0,0)">
		<g class="st2">
			<path d="M501.2,190.8c0-3.1,3.2-6,7.1-6c2.1,0,3.5,1.2,3.5,3c0,3-3.9,6-7.1,6C502.7,193.8,501.2,192.6,501.2,190.8z"/>
		</g>
	</g>
	<g transform="matrix(0.620079,0,0,0.620079,0,0)">
		<line vector-effect="none" class="st1" x1="525.7" y1="189.2" x2="541.7" y2="189.2"/>
	</g>
	<g transform="matrix(0.620079,0,0,0.620079,0,0)">
		<line vector-effect="none" class="st5" x1="529" y1="190.5" x2="529" y2="215"/>
	</g>
	<g transform="matrix(0.620079,0,0,0.620079,0,0)">
		<g class="st2">
			<path d="M528.5,190.8c0-3.1,3.2-6,7.1-6c2.1,0,3.5,1.2,3.5,3c0,3-3.9,6-7.1,6C530,193.8,528.5,192.6,528.5,190.8z"/>
		</g>
	</g>
	<g transform="matrix(0.620079,0,0,0.620079,0,0)">
		<line vector-effect="none" class="st1" x1="594.5" y1="189.2" x2="611.5" y2="189.2"/>
	</g>
	<g transform="matrix(0.620079,0,0,0.620079,0,0)">
		<line vector-effect="none" class="st5" x1="598" y1="190.5" x2="598" y2="217.2"/>
	</g>
	<g transform="matrix(0.620079,0,0,0.620079,0,0)">
		<g class="st2">
			<path d="M597.5,190.8c0-1.9,1.7-6.2,7.3-6.2c2.1,0,3.6,1.2,3.6,3.1c0,1.2-1.2,6.2-7.3,6.2C599,193.9,597.5,192.8,597.5,190.8z
				 M607.2,187.6c0-0.3-0.1-0.5-0.2-0.7c-0.3-0.4-0.6-0.8-1.3-0.8c-0.8,0-1.9,0.4-3.7,1.4c-2.6,1.5-3.4,2.5-3.4,3.3
				c0,0.3,0.1,0.5,0.2,0.7c0.3,0.4,0.7,0.8,1.5,0.8c0.8,0,2-0.4,3.6-1.5C606.4,189.2,607.2,188.4,607.2,187.6z"/>
		</g>
	</g>
	<g transform="matrix(0.620079,0,0,0.620079,0,0)">
		<g class="st2">
			<path d="M669.4,208.4c0,0.2-0.2,0.7-0.3,1.2c0,0-3.1,11.2-3.2,11.3c-0.3,0.3-0.8,0.3-1.1,0.3c-0.2,0-0.9,0-0.9-0.4
				c0.6-2.1,2.9-8.5,3-9c0-0.1,0-0.3,0-0.4c0-0.2,0-0.3-0.2-0.3c0,0-0.1,0-0.2,0c-0.4,0.2-0.7,0.4-1.2,0.5c-0.4,0.1-0.8,0.2-1.2,0.2
				c-0.3,0-0.6-0.1-0.8-0.1c-0.3-0.1-0.6-0.2-0.9-0.4c-0.5-0.4-0.9-1-0.9-1.6c0-1.2,1-2.1,2.1-2.1c1.2,0,2.1,1,2.1,2.1v0.3
				c1.1,0,2.7-1.9,2.9-2.1c0.2-0.1,0.3-0.1,0.4-0.1C669,207.9,669.4,208,669.4,208.4z"/>
		</g>
	</g>
	<g transform="matrix(0.620079,0,0,0.620079,0,0)">
		<line vector-effect="none" class="st1" x1="686" y1="189.2" x2="702" y2="189.2"/>
	</g>
	<g transform="matrix(0.620079,0,0,0.620079,0,0)">
		<line vector-effect="none" class="st5" x1="689.2" y1="190.5" x2="689.2" y2="217.2"/>
	</g>
	<g transform="matrix(0.620079,0,0,0.620079,0,0)">
		<g class="st2">
			<path d="M688.7,190.8c0-3.1,3.2-6,7.1-6c2.1,0,3.5,1.2,3.5,3c0,3-3.9,6-7.1,6C690.2,193.8,688.7,192.6,688.7,190.8z"/>
		</g>
	</g>
	<g transform="matrix(0.620079,0,0,0.620079,0,0)">
		<g class="st2">
			<path d="M688.9,209.2c0.1,0,0.2,0,0.3,0c1.1-0.1,4.2-0.4,5.9-5.2c0.3-0.9,0.6-2.5,0.6-4.2c0-1.6-0.2-3.3-0.8-4.7
				c-0.1-0.2-0.1-0.3-0.1-0.4c0-0.4,0.3-0.7,0.5-0.8c0.1,0,0.1,0,0.2,0c0.2,0,0.5,0.2,0.7,0.5c0.1,0.3,1.1,3.6,1.1,5.4v0.2
				c-0.1,3.5-1.6,6.8-3.6,9.6c-1.6,2.1-3.1,4.2-3.6,6.8c-0.1,0.4-0.4,0.7-0.7,0.7c-0.2,0-0.4-0.4-0.4-0.4V209.2z"/>
		</g>
	</g>
	<g transform="matrix(0.620079,0,0,0.620079,0,0)">
		<line vector-effect="none" class="st1" x1="713.5" y1="189.2" x2="729.5" y2="189.2"/>
	</g>
	<g transform="matrix(0.620079,0,0,0.620079,0,0)">
		<line vector-effect="none" class="st5" x1="716.7" y1="190.5" x2="716.7" y2="215"/>
	</g>
	<g transform="matrix(0.620079,0,0,0.620079,0,0)">
		<g class="st2">
			<path d="M716.2,190.8c0-3.1,3.2-6,7.1-6c2.1,0,3.5,1.2,3.5,3c0,3-3.9,6-7.1,6C717.7,193.8,716.2,192.6,716.2,190.8z"/>
		</g>
	</g>
	<g transform="matrix(0.620079,0,0,0.620079,0,0)">
		<line vector-effect="none" class="st1" x1="740.7" y1="189.2" x2="756.7" y2="189.2"/>
	</g>
	<g transform="matrix(0.620079,0,0,0.620079,0,0)">
		<line vector-effect="none" class="st5" x1="744" y1="190.5" x2="744" y2="215"/>
	</g>
	<g transform="matrix(0.620079,0,0,0.620079,0,0)">
		<g class="st2">
			<path d="M743.5,190.8c0-3.1,3.2-6,7.1-6c2.1,0,3.5,1.2,3.5,3c0,3-3.9,6-7.1,6C745,193.8,743.5,192.6,743.5,190.8z"/>
		</g>
	</g>
	<g transform="matrix(0.620079,0,0,0.620079,0,0)">
		<line vector-effect="none" class="st1" x1="809.2" y1="189.2" x2="826.2" y2="189.2"/>
	</g>
	<g transform="matrix(0.620079,0,0,0.620079,0,0)">
		<line vector-effect="none" class="st5" x1="812.7" y1="190.5" x2="812.7" y2="217.2"/>
	</g>
	<g transform="matrix(0.620079,0,0,0.620079,0,0)">
		<g class="st2">
			<path d="M812.2,190.8c0-1.9,1.7-6.2,7.3-6.2c2.1,0,3.6,1.2,3.6,3.1c0,1.2-1.2,6.2-7.3,6.2C813.8,193.9,812.2,192.8,812.2,190.8z
				 M822,187.6c0-0.3-0.1-0.5-0.2-0.7c-0.3-0.4-0.6-0.8-1.3-0.8c-0.8,0-1.9,0.4-3.7,1.4c-2.6,1.5-3.4,2.5-3.4,3.3
				c0,0.3,0.1,0.5,0.2,0.7c0.3,0.4,0.7,0.8,1.5,0.8c0.8,0,2-0.4,3.6-1.5C821.2,189.2,822,188.4,822,187.6z"/>
		</g>
	</g>
	<g transform="matrix(0.620079,0,0,0.620079,0,0)">
		<g class="st2">
			<path d="M884.4,208.4c0,0.2-0.2,0.7-0.3,1.2c0,0-3.1,11.2-3.2,11.3c-0.3,0.3-0.8,0.3-1.1,0.3c-0.2,0-0.9,0-0.9-0.4
				c0.6-2.1,2.9-8.5,3-9c0-0.1,0-0.3,0-0.4c0-0.2,0-0.3-0.2-0.3c0,0-0.1,0-0.2,0c-0.4,0.2-0.7,0.4-1.2,0.5c-0.4,0.1-0.8,0.2-1.2,0.2
				c-0.3,0-0.6-0.1-0.8-0.1c-0.3-0.1-0.6-0.2-0.9-0.4c-0.5-0.4-0.9-1-0.9-1.6c0-1.2,1-2.1,2.1-2.1c1.2,0,2.1,1,2.1,2.1v0.3
				c1.1,0,2.7-1.9,2.9-2.1c0.2-0.1,0.3-0.1,0.4-0.1C884,207.9,884.4,208,884.4,208.4z"/>
		</g>
	</g>
	<g transform="matrix(0.620079,0,0,0.620079,0,0)">
		<line vector-effect="none" class="st1" x1="901" y1="189.2" x2="917" y2="189.2"/>
	</g>
	<g transform="matrix(0.620079,0,0,0.620079,0,0)">
		<line vector-effect="none" class="st5" x1="904.2" y1="190.5" x2="904.2" y2="217.2"/>
	</g>
	<g transform="matrix(0.620079,0,0,0.620079,0,0)">
		<g class="st2">
			<path d="M903.7,190.8c0-3.1,3.2-6,7.1-6c2.1,0,3.5,1.2,3.5,3c0,3-3.9,6-7.1,6C905.2,193.8,903.7,192.6,903.7,190.8z"/>
		</g>
	</g>
	<g transform="matrix(0.620079,0,0,0.620079,0,0)">
		<g class="st2">
			<path d="M903.9,209.2c0.1,0,0.2,0,0.3,0c1.1-0.1,4.2-0.4,5.9-5.2c0.3-0.9,0.6-2.5,0.6-4.2c0-1.6-0.2-3.3-0.8-4.7
				c-0.1-0.2-0.1-0.3-0.1-0.4c0-0.4,0.3-0.7,0.5-0.8c0.1,0,0.1,0,0.2,0c0.2,0,0.5,0.2,0.7,0.5c0.1,0.3,1.1,3.6,1.1,5.4v0.2
				c-0.1,3.5-1.6,6.8-3.6,9.6c-1.6,2.1-3.1,4.2-3.6,6.8c-0.1,0.4-0.4,0.7-0.7,0.7c-0.2,0-0.4-0.4-0.4-0.4V209.2z"/>
		</g>
	</g>
	<g transform="matrix(0.620079,0,0,0.620079,0,0)">
		<line vector-effect="none" class="st1" x1="928.5" y1="189.2" x2="944.5" y2="189.2"/>
	</g>
	<g transform="matrix(0.620079,0,0,0.620079,0,0)">
		<line vector-effect="none" class="st5" x1="931.7" y1="190.5" x2="931.7" y2="215"/>
	</g>
	<g transform="matrix(0.620079,0,0,0.620079,0,0)">
		<g class="st2">
			<path d="M931.2,190.8c0-3.1,3.2-6,7.1-6c2.1,0,3.5,1.2,3.5,3c0,3-3.9,6-7.1,6C932.7,193.8,931.2,192.6,931.2,190.8z"/>
		</g>
	</g>
	<g transform="matrix(0.620079,0,0,0.620079,0,0)">
		<line vector-effect="none" class="st1" x1="955.7" y1="189.2" x2="971.7" y2="189.2"/>
	</g>
	<g transform="matrix(0.620079,0,0,0.620079,0,0)">
		<line vector-effect="none" class="st5" x1="959" y1="190.5" x2="959" y2="215"/>
	</g>
	<g transform="matrix(0.620079,0,0,0.620079,0,0)">
		<g class="st2">
			<path d="M958.5,190.8c0-3.1,3.2-6,7.1-6c2.1,0,3.5,1.2,3.5,3c0,3-3.9,6-7.1,6C960,193.8,958.5,192.6,958.5,190.8z"/>
		</g>
	</g>
	<g transform="matrix(0.620079,0,0,0.620079,0,0)">
		<line vector-effect="none" class="st1" x1="1024.2" y1="189.2" x2="1041.2" y2="189.2"/>
	</g>
	<g transform="matrix(0.620079,0,0,0.620079,0,0)">
		<line vector-effect="none" class="st5" x1="1027.7" y1="190.5" x2="1027.7" y2="217.2"/>
	</g>
	<g transform="matrix(0.620079,0,0,0.620079,0,0)">
		<g class="st2">
			<path d="M1027.2,190.8c0-1.9,1.7-6.2,7.3-6.2c2.1,0,3.6,1.2,3.6,3.1c0,1.2-1.2,6.2-7.3,6.2
				C1028.8,193.9,1027.2,192.8,1027.2,190.8z M1037,187.6c0-0.3-0.1-0.5-0.2-0.7c-0.3-0.4-0.6-0.8-1.3-0.8c-0.8,0-1.9,0.4-3.7,1.4
				c-2.6,1.5-3.4,2.5-3.4,3.3c0,0.3,0.1,0.5,0.2,0.7c0.3,0.4,0.7,0.8,1.5,0.8c0.8,0,2-0.4,3.6-1.5
				C1036.2,189.2,1037,188.4,1037,187.6z"/>
		</g>
	</g>
	<g transform="matrix(0.620079,0,0,0.620079,0,0)">
		<g class="st2">
			<path d="M1099.4,208.4c0,0.2-0.2,0.7-0.3,1.2c0,0-3.1,11.2-3.2,11.3c-0.3,0.3-0.8,0.3-1.1,0.3c-0.2,0-0.9,0-0.9-0.4
				c0.6-2.1,2.9-8.5,3-9c0-0.1,0-0.3,0-0.4c0-0.2,0-0.3-0.2-0.3c0,0-0.1,0-0.2,0c-0.4,0.2-0.7,0.4-1.2,0.5c-0.4,0.1-0.8,0.2-1.2,0.2
				c-0.3,0-0.6-0.1-0.8-0.1c-0.3-0.1-0.6-0.2-0.9-0.4c-0.5-0.4-0.9-1-0.9-1.6c0-1.2,1-2.1,2.1-2.1s2.1,1,2.1,2.1v0.3
				c1.1,0,2.7-1.9,2.9-2.1c0.2-0.1,0.3-0.1,0.4-0.1C1099,207.9,1099.4,208,1099.4,208.4z"/>
		</g>
	</g>
	<g transform="matrix(0.620079,0,0,0.620079,0,0)">
		<line vector-effect="none" class="st1" x1="1116" y1="189.2" x2="1132" y2="189.2"/>
	</g>
	<g transform="matrix(0.620079,0,0,0.620079,0,0)">
		<line vector-effect="none" class="st5" x1="1119.2" y1="190.5" x2="1119.2" y2="217.2"/>
	</g>
	<g transform="matrix(0.620079,0,0,0.620079,0,0)">
		<g class="st2">
			<path d="M1118.7,190.8c0-3.1,3.2-6,7.1-6c2.1,0,3.5,1.2,3.5,3c0,3-3.9,6-7.1,6C1120.2,193.8,1118.7,192.6,1118.7,190.8z"/>
		</g>
	</g>
	<g transform="matrix(0.620079,0,0,0.620079,0,0)">
		<g class="st2">
			<path d="M1118.9,209.2c0.1,0,0.2,0,0.3,0c1.1-0.1,4.2-0.4,5.9-5.2c0.3-0.9,0.6-2.5,0.6-4.2c0-1.6-0.2-3.3-0.8-4.7
				c-0.1-0.2-0.1-0.3-0.1-0.4c0-0.4,0.3-0.7,0.5-0.8c0.1,0,0.1,0,0.2,0c0.2,0,0.5,0.2,0.7,0.5c0.1,0.3,1.1,3.6,1.1,5.4v0.2
				c-0.1,3.5-1.6,6.8-3.6,9.6c-1.6,2.1-3.1,4.2-3.6,6.8c-0.1,0.4-0.4,0.7-0.7,0.7c-0.2,0-0.4-0.4-0.4-0.4V209.2z"/>
		</g>
	</g>
	<g transform="matrix(0.620079,0,0,0.620079,0,0)">
		<line vector-effect="none" class="st1" x1="1143.2" y1="189.2" x2="1159.2" y2="189.2"/>
	</g>
	<g transform="matrix(0.620079,0,0,0.620079,0,0)">
		<line vector-effect="none" class="st5" x1="1146.5" y1="190.5" x2="1146.5" y2="215"/>
	</g>
	<g transform="matrix(0.620079,0,0,0.620079,0,0)">
		<g class="st2">
			<path d="M1146,190.8c0-3.1,3.2-6,7.1-6c2.1,0,3.5,1.2,3.5,3c0,3-3.9,6-7.1,6C1147.5,193.8,1146,192.6,1146,190.8z"/>
		</g>
	</g>
	<g transform="matrix(0.620079,0,0,0.620079,0,0)">
		<line vector-effect="none" class="st1" x1="1170.7" y1="189.2" x2="1186.7" y2="189.2"/>
	</g>
	<g transform="matrix(0.620079,0,0,0.620079,0,0)">
		<line vector-effect="none" class="st5" x1="1174" y1="190.5" x2="1174" y2="215"/>
	</g>
	<g transform="matrix(0.620079,0,0,0.620079,0,0)">
		<g class="st2">
			<path d="M1173.5,190.8c0-3.1,3.2-6,7.1-6c2.1,0,3.5,1.2,3.5,3c0,3-3.9,6-7.1,6C1175,193.8,1173.5,192.6,1173.5,190.8z"/>
		</g>
	</g>
	<g transform="matrix(0.620079,0,0,0.620079,0,0)">
		<line vector-effect="none" class="st1" x1="129" y1="304" x2="146" y2="304"/>
	</g>
	<g transform="matrix(0.620079,0,0,0.620079,0,0)">
		<line vector-effect="none" class="st5" x1="132.5" y1="305.2" x2="132.5" y2="332"/>
	</g>
	<g transform="matrix(0.620079,0,0,0.620079,0,0)">
		<g class="st2">
			<path d="M132,305.6c0-1.9,1.7-6.2,7.3-6.2c2.1,0,3.6,1.2,3.6,3.1c0,1.2-1.2,6.2-7.3,6.2C133.5,308.6,132,307.5,132,305.6z
				 M141.7,302.4c0-0.3-0.1-0.5-0.2-0.7c-0.3-0.4-0.6-0.8-1.3-0.8c-0.8,0-1.9,0.4-3.7,1.4c-2.6,1.5-3.4,2.5-3.4,3.3
				c0,0.3,0.1,0.5,0.2,0.7c0.3,0.4,0.7,0.8,1.5,0.8c0.8,0,2-0.4,3.6-1.5C140.9,304,141.7,303.1,141.7,302.4z"/>
		</g>
	</g>
	<g transform="matrix(0.620079,0,0,0.620079,0,0)">
		<g class="st2">
			<path d="M211.6,323.2c0,0.2-0.2,0.7-0.3,1.2c0,0-3.1,11.2-3.2,11.3c-0.3,0.3-0.8,0.3-1.1,0.3c-0.2,0-0.9,0-0.9-0.4
				c0.6-2.1,2.9-8.5,3-9c0-0.1,0-0.3,0-0.4c0-0.2,0-0.3-0.2-0.3c0,0-0.1,0-0.2,0c-0.4,0.2-0.7,0.4-1.2,0.5c-0.4,0.1-0.8,0.2-1.2,0.2
				c-0.3,0-0.6-0.1-0.8-0.1c-0.3-0.1-0.6-0.2-0.9-0.4c-0.5-0.4-0.9-1-0.9-1.6c0-1.2,1-2.1,2.1-2.1c1.2,0,2.1,1,2.1,2.1v0.3
				c1.1,0,2.7-1.9,2.9-2.1c0.2-0.1,0.3-0.1,0.4-0.1C211.3,322.7,211.6,322.8,211.6,323.2z"/>
		</g>
	</g>
	<g transform="matrix(0.620079,0,0,0.620079,0,0)">
		<line vector-effect="none" class="st1" x1="231.5" y1="304" x2="247.5" y2="304"/>
	</g>
	<g transform="matrix(0.620079,0,0,0.620079,0,0)">
		<line vector-effect="none" class="st5" x1="234.7" y1="305.2" x2="234.7" y2="332"/>
	</g>
	<g transform="matrix(0.620079,0,0,0.620079,0,0)">
		<g class="st2">
			<path d="M234.2,305.5c0-3.1,3.2-6,7.1-6c2.1,0,3.5,1.2,3.5,3c0,3-3.9,6-7.1,6C235.7,308.5,234.2,307.4,234.2,305.5z"/>
		</g>
	</g>
	<g transform="matrix(0.620079,0,0,0.620079,0,0)">
		<g class="st2">
			<path d="M234.4,324c0.1,0,0.2,0,0.3,0c1.1-0.1,4.2-0.4,5.9-5.2c0.3-0.9,0.6-2.5,0.6-4.2c0-1.6-0.2-3.3-0.8-4.7
				c-0.1-0.2-0.1-0.3-0.1-0.4c0-0.4,0.3-0.7,0.5-0.8c0.1,0,0.1,0,0.2,0c0.2,0,0.5,0.2,0.7,0.5c0.1,0.3,1.1,3.6,1.1,5.4v0.2
				c-0.1,3.5-1.6,6.8-3.6,9.6c-1.6,2.1-3.1,4.2-3.6,6.8c-0.1,0.4-0.4,0.7-0.7,0.7c-0.2,0-0.4-0.4-0.4-0.4V324z"/>
		</g>
	</g>
	<g transform="matrix(0.620079,0,0,0.620079,0,0)">
		<line vector-effect="none" class="st1" x1="262.2" y1="304" x2="278.2" y2="304"/>
	</g>
	<g transform="matrix(0.620079,0,0,0.620079,0,0)">
		<line vector-effect="none" class="st5" x1="265.5" y1="305.2" x2="265.5" y2="329.8"/>
	</g>
	<g transform="matrix(0.620079,0,0,0.620079,0,0)">
		<g class="st2">
			<path d="M265,305.5c0-3.1,3.2-6,7.1-6c2.1,0,3.5,1.2,3.5,3c0,3-3.9,6-7.1,6C266.5,308.5,265,307.4,265,305.5z"/>
		</g>
	</g>
	<g transform="matrix(0.620079,0,0,0.620079,0,0)">
		<line vector-effect="none" class="st1" x1="292.7" y1="304" x2="308.7" y2="304"/>
	</g>
	<g transform="matrix(0.620079,0,0,0.620079,0,0)">
		<line vector-effect="none" class="st5" x1="296" y1="305.2" x2="296" y2="329.8"/>
	</g>
	<g transform="matrix(0.620079,0,0,0.620079,0,0)">
		<g class="st2">
			<path d="M295.5,305.5c0-3.1,3.2-6,7.1-6c2.1,0,3.5,1.2,3.5,3c0,3-3.9,6-7.1,6C297,308.5,295.5,307.4,295.5,305.5z"/>
		</g>
	</g>
	<g transform="matrix(0.620079,0,0,0.620079,0,0)">
		<line vector-effect="none" class="st1" x1="364.5" y1="304" x2="381.5" y2="304"/>
	</g>
	<g transform="matrix(0.620079,0,0,0.620079,0,0)">
		<line vector-effect="none" class="st5" x1="368" y1="305.2" x2="368" y2="332"/>
	</g>
	<g transform="matrix(0.620079,0,0,0.620079,0,0)">
		<g class="st2">
			<path d="M367.5,305.6c0-1.9,1.7-6.2,7.3-6.2c2.1,0,3.6,1.2,3.6,3.1c0,1.2-1.2,6.2-7.3,6.2C369,308.6,367.5,307.5,367.5,305.6z
				 M377.2,302.4c0-0.3-0.1-0.5-0.2-0.7c-0.3-0.4-0.6-0.8-1.3-0.8c-0.8,0-1.9,0.4-3.7,1.4c-2.6,1.5-3.4,2.5-3.4,3.3
				c0,0.3,0.1,0.5,0.2,0.7c0.3,0.4,0.7,0.8,1.5,0.8c0.8,0,2-0.4,3.6-1.5C376.4,304,377.2,303.1,377.2,302.4z"/>
		</g>
	</g>
	<g transform="matrix(0.620079,0,0,0.620079,0,0)">
		<g class="st2">
			<path d="M447.1,323.2c0,0.2-0.2,0.7-0.3,1.2c0,0-3.1,11.2-3.2,11.3c-0.3,0.3-0.8,0.3-1.1,0.3c-0.2,0-0.9,0-0.9-0.4
				c0.6-2.1,2.9-8.5,3-9c0-0.1,0-0.3,0-0.4c0-0.2,0-0.3-0.2-0.3c0,0-0.1,0-0.2,0c-0.4,0.2-0.7,0.4-1.2,0.5c-0.4,0.1-0.8,0.2-1.2,0.2
				c-0.3,0-0.6-0.1-0.8-0.1c-0.3-0.1-0.6-0.2-0.9-0.4c-0.5-0.4-0.9-1-0.9-1.6c0-1.2,1-2.1,2.1-2.1c1.2,0,2.1,1,2.1,2.1v0.3
				c1.1,0,2.7-1.9,2.9-2.1c0.2-0.1,0.3-0.1,0.4-0.1C446.8,322.7,447.1,322.8,447.1,323.2z"/>
		</g>
	</g>
	<g transform="matrix(0.620079,0,0,0.620079,0,0)">
		<line vector-effect="none" class="st1" x1="467.2" y1="304" x2="483.2" y2="304"/>
	</g>
	<g transform="matrix(0.620079,0,0,0.620079,0,0)">
		<line vector-effect="none" class="st5" x1="470.5" y1="305.2" x2="470.5" y2="332"/>
	</g>
	<g transform="matrix(0.620079,0,0,0.620079,0,0)">
		<g class="st2">
			<path d="M470,305.5c0-3.1,3.2-6,7.1-6c2.1,0,3.5,1.2,3.5,3c0,3-3.9,6-7.1,6C471.5,308.5,470,307.4,470,305.5z"/>
		</g>
	</g>
	<g transform="matrix(0.620079,0,0,0.620079,0,0)">
		<g class="st2">
			<path d="M470.1,324c0.1,0,0.2,0,0.3,0c1.1-0.1,4.2-0.4,5.9-5.2c0.3-0.9,0.6-2.5,0.6-4.2c0-1.6-0.2-3.3-0.8-4.7
				c-0.1-0.2-0.1-0.3-0.1-0.4c0-0.4,0.3-0.7,0.5-0.8c0.1,0,0.1,0,0.2,0c0.2,0,0.5,0.2,0.7,0.5c0.1,0.3,1.1,3.6,1.1,5.4v0.2
				c-0.1,3.5-1.6,6.8-3.6,9.6c-1.6,2.1-3.1,4.2-3.6,6.8c-0.1,0.4-0.4,0.7-0.7,0.7c-0.2,0-0.4-0.4-0.4-0.4V324z"/>
		</g>
	</g>
	<g transform="matrix(0.620079,0,0,0.620079,0,0)">
		<line vector-effect="none" class="st1" x1="497.7" y1="304" x2="513.7" y2="304"/>
	</g>
	<g transform="matrix(0.620079,0,0,0.620079,0,0)">
		<line vector-effect="none" class="st5" x1="501" y1="305.2" x2="501" y2="329.8"/>
	</g>
	<g transform="matrix(0.620079,0,0,0.620079,0,0)">
		<g class="st2">
			<path d="M500.5,305.5c0-3.1,3.2-6,7.1-6c2.1,0,3.5,1.2,3.5,3c0,3-3.9,6-7.1,6C502,308.5,500.5,307.4,500.5,305.5z"/>
		</g>
	</g>
	<g transform="matrix(0.620079,0,0,0.620079,0,0)">
		<line vector-effect="none" class="st1" x1="528.2" y1="304" x2="544.2" y2="304"/>
	</g>
	<g transform="matrix(0.620079,0,0,0.620079,0,0)">
		<line vector-effect="none" class="st5" x1="531.5" y1="305.2" x2="531.5" y2="329.8"/>
	</g>
	<g transform="matrix(0.620079,0,0,0.620079,0,0)">
		<g class="st2">
			<path d="M531,305.5c0-3.1,3.2-6,7.1-6c2.1,0,3.5,1.2,3.5,3c0,3-3.9,6-7.1,6C532.5,308.5,531,307.4,531,305.5z"/>
		</g>
	</g>
	<g transform="matrix(0.620079,0,0,0.620079,0,0)">
		<line vector-effect="none" class="st1" x1="600.2" y1="304" x2="617.2" y2="304"/>
	</g>
	<g transform="matrix(0.620079,0,0,0.620079,0,0)">
		<line vector-effect="none" class="st5" x1="603.7" y1="305.2" x2="603.7" y2="332"/>
	</g>
	<g transform="matrix(0.620079,0,0,0.620079,0,0)">
		<g class="st2">
			<path d="M603.2,305.6c0-1.9,1.7-6.2,7.3-6.2c2.1,0,3.6,1.2,3.6,3.1c0,1.2-1.2,6.2-7.3,6.2C604.8,308.6,603.2,307.5,603.2,305.6z
				 M613,302.4c0-0.3-0.1-0.5-0.2-0.7c-0.3-0.4-0.6-0.8-1.3-0.8c-0.8,0-1.9,0.4-3.7,1.4c-2.6,1.5-3.4,2.5-3.4,3.3
				c0,0.3,0.1,0.5,0.2,0.7c0.3,0.4,0.7,0.8,1.5,0.8c0.8,0,2-0.4,3.6-1.5C612.2,304,613,303.1,613,302.4z"/>
		</g>
	</g>
	<g transform="matrix(0.620079,0,0,0.620079,0,0)">
		<g class="st2">
			<path d="M682.9,323.2c0,0.2-0.2,0.7-0.3,1.2c0,0-3.1,11.2-3.2,11.3c-0.3,0.3-0.8,0.3-1.1,0.3c-0.2,0-0.9,0-0.9-0.4
				c0.6-2.1,2.9-8.5,3-9c0-0.1,0-0.3,0-0.4c0-0.2,0-0.3-0.2-0.3c0,0-0.1,0-0.2,0c-0.4,0.2-0.7,0.4-1.2,0.5c-0.4,0.1-0.8,0.2-1.2,0.2
				c-0.3,0-0.6-0.1-0.8-0.1c-0.3-0.1-0.6-0.2-0.9-0.4c-0.5-0.4-0.9-1-0.9-1.6c0-1.2,1-2.1,2.1-2.1c1.2,0,2.1,1,2.1,2.1v0.3
				c1.1,0,2.7-1.9,2.9-2.1c0.2-0.1,0.3-0.1,0.4-0.1C682.5,322.7,682.9,322.8,682.9,323.2z"/>
		</g>
	</g>
	<g transform="matrix(0.620079,0,0,0.620079,0,0)">
		<line vector-effect="none" class="st1" x1="702.7" y1="304" x2="718.7" y2="304"/>
	</g>
	<g transform="matrix(0.620079,0,0,0.620079,0,0)">
		<line vector-effect="none" class="st5" x1="706" y1="305.2" x2="706" y2="332"/>
	</g>
	<g transform="matrix(0.620079,0,0,0.620079,0,0)">
		<g class="st2">
			<path d="M705.5,305.5c0-3.1,3.2-6,7.1-6c2.1,0,3.5,1.2,3.5,3c0,3-3.9,6-7.1,6C707,308.5,705.5,307.4,705.5,305.5z"/>
		</g>
	</g>
	<g transform="matrix(0.620079,0,0,0.620079,0,0)">
		<g class="st2">
			<path d="M705.6,324c0.1,0,0.2,0,0.3,0c1.1-0.1,4.2-0.4,5.9-5.2c0.3-0.9,0.6-2.5,0.6-4.2c0-1.6-0.2-3.3-0.8-4.7
				c-0.1-0.2-0.1-0.3-0.1-0.4c0-0.4,0.3-0.7,0.5-0.8c0.1,0,0.1,0,0.2,0c0.2,0,0.5,0.2,0.7,0.5c0.1,0.3,1.1,3.6,1.1,5.4v0.2
				c-0.1,3.5-1.6,6.8-3.6,9.6c-1.6,2.1-3.1,4.2-3.6,6.8c-0.1,0.4-0.4,0.7-0.7,0.7c-0.2,0-0.4-0.4-0.4-0.4V324z"/>
		</g>
	</g>
	<g transform="matrix(0.620079,0,0,0.620079,0,0)">
		<line vector-effect="none" class="st1" x1="733.2" y1="304" x2="749.2" y2="304"/>
	</g>
	<g transform="matrix(0.620079,0,0,0.620079,0,0)">
		<line vector-effect="none" class="st5" x1="736.5" y1="305.2" x2="736.5" y2="329.8"/>
	</g>
	<g transform="matrix(0.620079,0,0,0.620079,0,0)">
		<g class="st2">
			<path d="M736,305.5c0-3.1,3.2-6,7.1-6c2.1,0,3.5,1.2,3.5,3c0,3-3.9,6-7.1,6C737.5,308.5,736,307.4,736,305.5z"/>
		</g>
	</g>
	<g transform="matrix(0.620079,0,0,0.620079,0,0)">
		<line vector-effect="none" class="st1" x1="763.7" y1="304" x2="779.7" y2="304"/>
	</g>
	<g transform="matrix(0.620079,0,0,0.620079,0,0)">
		<line vector-effect="none" class="st5" x1="767" y1="305.2" x2="767" y2="329.8"/>
	</g>
	<g transform="matrix(0.620079,0,0,0.620079,0,0)">
		<g class="st2">
			<path d="M766.5,305.5c0-3.1,3.2-6,7.1-6c2.1,0,3.5,1.2,3.5,3c0,3-3.9,6-7.1,6C768,308.5,766.5,307.4,766.5,305.5z"/>
		</g>
	</g>
	<g transform="matrix(0.620079,0,0,0.620079,0,0)">
		<line vector-effect="none" class="st1" x1="835.7" y1="304" x2="852.7" y2="304"/>
	</g>
	<g transform="matrix(0.620079,0,0,0.620079,0,0)">
		<line vector-effect="none" class="st5" x1="839.2" y1="305.2" x2="839.2" y2="332"/>
	</g>
	<g transform="matrix(0.620079,0,0,0.620079,0,0)">
		<g class="st2">
			<path d="M838.7,305.6c0-1.9,1.7-6.2,7.3-6.2c2.1,0,3.6,1.2,3.6,3.1c0,1.2-1.2,6.2-7.3,6.2C840.3,308.6,838.7,307.5,838.7,305.6z
				 M848.5,302.4c0-0.3-0.1-0.5-0.2-0.7c-0.3-0.4-0.6-0.8-1.3-0.8c-0.8,0-1.9,0.4-3.7,1.4c-2.6,1.5-3.4,2.5-3.4,3.3
				c0,0.3,0.1,0.5,0.2,0.7c0.3,0.4,0.7,0.8,1.5,0.8c0.8,0,2-0.4,3.6-1.5C847.7,304,848.5,303.1,848.5,302.4z"/>
		</g>
	</g>
	<g transform="matrix(0.620079,0,0,0.620079,0,0)">
		<g class="st2">
			<path d="M918.4,323.2c0,0.2-0.2,0.7-0.3,1.2c0,0-3.1,11.2-3.2,11.3c-0.3,0.3-0.8,0.3-1.1,0.3c-0.2,0-0.9,0-0.9-0.4
				c0.6-2.1,2.9-8.5,3-9c0-0.1,0-0.3,0-0.4c0-0.2,0-0.3-0.2-0.3c0,0-0.1,0-0.2,0c-0.4,0.2-0.7,0.4-1.2,0.5c-0.4,0.1-0.8,0.2-1.2,0.2
				c-0.3,0-0.6-0.1-0.8-0.1c-0.3-0.1-0.6-0.2-0.9-0.4c-0.5-0.4-0.9-1-0.9-1.6c0-1.2,1-2.1,2.1-2.1s2.1,1,2.1,2.1v0.3
				c1.1,0,2.7-1.9,2.9-2.1c0.2-0.1,0.3-0.1,0.4-0.1C918,322.7,918.4,322.8,918.4,323.2z"/>
		</g>
	</g>
	<g transform="matrix(0.620079,0,0,0.620079,0,0)">
		<line vector-effect="none" class="st1" x1="938.2" y1="304" x2="954.2" y2="304"/>
	</g>
	<g transform="matrix(0.620079,0,0,0.620079,0,0)">
		<line vector-effect="none" class="st5" x1="941.5" y1="305.2" x2="941.5" y2="332"/>
	</g>
	<g transform="matrix(0.620079,0,0,0.620079,0,0)">
		<g class="st2">
			<path d="M941,305.5c0-3.1,3.2-6,7.1-6c2.1,0,3.5,1.2,3.5,3c0,3-3.9,6-7.1,6C942.5,308.5,941,307.4,941,305.5z"/>
		</g>
	</g>
	<g transform="matrix(0.620079,0,0,0.620079,0,0)">
		<g class="st2">
			<path d="M941.1,324c0.1,0,0.2,0,0.3,0c1.1-0.1,4.2-0.4,5.9-5.2c0.3-0.9,0.6-2.5,0.6-4.2c0-1.6-0.2-3.3-0.8-4.7
				c-0.1-0.2-0.1-0.3-0.1-0.4c0-0.4,0.3-0.7,0.5-0.8c0.1,0,0.1,0,0.2,0c0.2,0,0.5,0.2,0.7,0.5c0.1,0.3,1.1,3.6,1.1,5.4v0.2
				c-0.1,3.5-1.6,6.8-3.6,9.6c-1.6,2.1-3.1,4.2-3.6,6.8c-0.1,0.4-0.4,0.7-0.7,0.7c-0.2,0-0.4-0.4-0.4-0.4V324z"/>
		</g>
	</g>
	<g transform="matrix(0.620079,0,0,0.620079,0,0)">
		<line vector-effect="none" class="st1" x1="968.7" y1="304" x2="984.7" y2="304"/>
	</g>
	<g transform="matrix(0.620079,0,0,0.620079,0,0)">
		<line vector-effect="none" class="st5" x1="972" y1="305.2" x2="972" y2="329.8"/>
	</g>
	<g transform="matrix(0.620079,0,0,0.620079,0,0)">
		<g class="st2">
			<path d="M971.5,305.5c0-3.1,3.2-6,7.1-6c2.1,0,3.5,1.2,3.5,3c0,3-3.9,6-7.1,6C973,308.5,971.5,307.4,971.5,305.5z"/>
		</g>
	</g>
	<g transform="matrix(0.620079,0,0,0.620079,0,0)">
		<line vector-effect="none" class="st1" x1="999.5" y1="304" x2="1015.5" y2="304"/>
	</g>
	<g transform="matrix(0.620079,0,0,0.620079,0,0)">
		<line vector-effect="none" class="st5" x1="1002.7" y1="305.2" x2="1002.7" y2="329.8"/>
	</g>
	<g transform="matrix(0.620079,0,0,0.620079,0,0)">
		<g class="st2">
			<path d="M1002.2,305.5c0-3.1,3.2-6,7.1-6c2.1,0,3.5,1.2,3.5,3c0,3-3.9,6-7.1,6C1003.7,308.5,1002.2,307.4,1002.2,305.5z"/>
		</g>
	</g>
	<g transform="matrix(0.620079,0,0,0.620079,0,0)">
		<line vector-effect="none" class="st1" x1="1060.5" y1="304" x2="1077.5" y2="304"/>
	</g>
	<g transform="matrix(0.620079,0,0,0.620079,0,0)">
		<line vector-effect="none" class="st5" x1="1064" y1="305.2" x2="1064" y2="332"/>
	</g>
	<g transform="matrix(0.620079,0,0,0.620079,0,0)">
		<g class="st2">
			<path d="M1063.5,305.6c0-1.9,1.7-6.2,7.3-6.2c2.1,0,3.6,1.2,3.6,3.1c0,1.2-1.2,6.2-7.3,6.2C1065,308.6,1063.5,307.5,1063.5,305.6
				z M1073.2,302.4c0-0.3-0.1-0.5-0.2-0.7c-0.3-0.4-0.6-0.8-1.3-0.8c-0.8,0-1.9,0.4-3.7,1.4c-2.6,1.5-3.4,2.5-3.4,3.3
				c0,0.3,0.1,0.5,0.2,0.7c0.3,0.4,0.7,0.8,1.5,0.8c0.8,0,2-0.4,3.6-1.5C1072.4,304,1073.2,303.1,1073.2,302.4z"/>
		</g>
	</g>
	<g transform="matrix(0.620079,0,0,0.620079,0,0)">
		<g class="st2">
			<path d="M1143.4,328.3h-7.4c-0.5,0-0.8-0.4-0.8-0.8v-2.9c0-0.5,0.4-0.8,0.8-0.8h7.4c0.4,0,0.8,0.4,0.8,0.8v2.9
				C1144.2,327.9,1143.8,328.3,1143.4,328.3z"/>
		</g>
	</g>
</g>
</svg>
