<?xml version="1.0" encoding="utf-8"?>
<!-- Generator: Adobe Illustrator 26.3.1, SVG Export Plug-In . SVG Version: 6.00 Build 0)  -->
<svg version="1.1" id="Layer_1" xmlns="http://www.w3.org/2000/svg" xmlns:xlink="http://www.w3.org/1999/xlink" x="0px" y="0px"
	 viewBox="0 0 720.1 66.6" style="enable-background:new 0 0 720.1 66.6;" xml:space="preserve">
<style type="text/css">
	.st0{fill:none;stroke:#000000;stroke-width:0.4806;stroke-linejoin:bevel;stroke-miterlimit:6.2008;}
	.st1{fill:none;stroke:#000000;stroke-width:1.538;stroke-linejoin:bevel;stroke-miterlimit:6.2008;}
	.st2{enable-background:new    ;}
	.st3{fill:none;stroke:#000000;stroke-width:0.3845;stroke-linejoin:bevel;stroke-miterlimit:6.2008;}
	.st4{fill-rule:evenodd;clip-rule:evenodd;}
</style>
<g>
	<g transform="matrix(0.620079,0,0,0.620079,0,0)">
		<line vector-effect="none" class="st0" x1="228.3" y1="49.1" x2="228.3" y2="81.1"/>
	</g>
	<g transform="matrix(0.620079,0,0,0.620079,0,0)">
		<line vector-effect="none" class="st0" x1="375" y1="49.1" x2="375" y2="81.1"/>
	</g>
	<g transform="matrix(0.620079,0,0,0.620079,0,0)">
		<line vector-effect="none" class="st0" x1="490.3" y1="49.1" x2="490.3" y2="81.1"/>
	</g>
	<g transform="matrix(0.620079,0,0,0.620079,0,0)">
		<line vector-effect="none" class="st0" x1="605.5" y1="49.1" x2="605.5" y2="81.1"/>
	</g>
	<g transform="matrix(0.620079,0,0,0.620079,0,0)">
		<line vector-effect="none" class="st0" x1="737.8" y1="49.1" x2="737.8" y2="81.1"/>
	</g>
	<g transform="matrix(0.620079,0,0,0.620079,0,0)">
		<line vector-effect="none" class="st0" x1="912" y1="49.1" x2="912" y2="81.1"/>
	</g>
	<g transform="matrix(0.620079,0,0,0.620079,0,0)">
		<line vector-effect="none" class="st0" x1="1094.5" y1="49.1" x2="1094.5" y2="81.1"/>
	</g>
	<g transform="matrix(0.620079,0,0,0.620079,0,0)">
		<line vector-effect="none" class="st0" x1="1153.5" y1="49.1" x2="1153.5" y2="81.1"/>
	</g>
	<g transform="matrix(0.620079,0,0,0.620079,0,0)">
		<line vector-effect="none" class="st1" x1="1159.3" y1="49.1" x2="1159.3" y2="81.1"/>
	</g>
	<g transform="matrix(0.620079,0,0,0.620079,0,0)">
	</g>
	<g transform="matrix(0.620079,0,0,0.620079,270.354,369.99)">
	</g>
	<g transform="matrix(0.620079,0,0,0.620079,270.354,369.99)">
		<g class="st2">
			<path d="M-379-596.7h0.6v17.5c0,1.9-2.5,3.8-4.5,3.8c-1.2,0-2.2-0.7-2.2-1.9c0-2,2-3.8,4.4-3.8c0.7,0,1.2,0.2,1.6,0.5L-379-596.7
				z"/>
		</g>
		<g class="st2">
			<path d="M-371.3-582.4v-1.8h10.5v1.8H-371.3z M-360.8-579.8v1.9h-10.5v-1.9H-360.8z"/>
			<path d="M-349.8-582.8c-1.7-0.9-2.6-1.7-2.6-3.7c0-2.5,2-4.1,4.4-4.1c1.8,0,4.2,0.9,4.2,3.1c0,1.6-1.2,2.3-2.4,3.1
				c2,1.1,3.1,2,3.1,4.2c0,3-2.3,4.7-5.1,4.7c-2.4,0-4.8-1-4.8-3.7C-353-581.1-351.6-582-349.8-582.8z M-348-576.4
				c1.6,0,3-0.9,3-2.6c-0.1-1.8-2.4-2.9-3.9-3.3c-1.3,0.4-1.9,1.7-1.9,3C-350.8-577.6-349.8-576.4-348-576.4z M-347.2-584.6
				c0.9-0.5,1.5-1.5,1.5-2.5c0-1.6-0.9-2.5-2.5-2.5c-1.3,0-2.3,0.7-2.3,2.1C-350.4-585.7-348.6-585.2-347.2-584.6z"/>
			<path d="M-342-582.9c0-3.2,1.3-7.5,5.6-7.5c4.1,0,5.4,4.6,5.4,7.5c0,3.1-1.3,7.5-5.5,7.5C-340.7-575.5-342-580-342-582.9z
				 M-336.6-576.5c2.1,0,2.1-3.8,2.1-6.5c0-3.2,0-6.5-2-6.5c-2.1,0-2.1,3.4-2.1,6.9C-338.6-580.3-338.6-576.5-336.6-576.5z"/>
		</g>
	</g>
	<g transform="matrix(0.620079,0,0,0.620079,270.354,369.99)">
	</g>
	<g transform="matrix(0.620079,0,0,0.620079,0,0)">
	</g>
	<g transform="matrix(0.620079,0,0,0.620079,265.394,423.307)">
	</g>
	<g transform="matrix(0.620079,0,0,0.620079,265.394,423.307)">
		<g class="st2">
			<path d="M-366.7-629.3c0,0.7-0.2,1.4-0.7,2c-0.4,0.4-0.7,0.6-1.2,0.9c-0.3,0.2-0.6,0.2-1,0.3c-0.1,0-0.1,0.2-0.1,0.3s0,0.1,0,0.2
				c0.1,0.1,0.2,0.1,0.3,0.2l1,0.3l0.7,0.4c0.3,0.2,0.5,0.4,0.7,0.7c0.3,0.3,0.5,0.6,0.6,0.9c0.2,0.4,0.2,0.8,0.3,1.3v0.2
				c0,2.8-3.2,4.4-6.3,4.4h-0.3c-3.1-0.1-5.3-1.4-5.4-3.9c0-0.7,0.1-1.5,0.7-1.9c0.4-0.4,1-0.7,1.5-0.8c0.1,0,0.2,0,0.4,0
				c0.8,0,1.7,0.5,2.1,1.3c0.1,0.3,0.2,0.6,0.2,1c0,0.9-0.7,1.4-0.7,2.1v0.2c0,0.5,0.9,0.7,1.1,0.7c0,0,0.4,0,0.5,0
				c0.7,0,1.8-0.5,1.8-3.4c0-0.4-0.1-2.7-3.7-2.7c-0.3,0-0.8-0.1-0.8-0.5c0-0.4,0.4-0.6,0.7-0.7c2-0.1,3.7-0.7,3.7-2.6v-0.2
				c0-0.5,0-0.9-0.1-1.4c-0.2-0.9-0.9-1.3-1.7-1.4h-0.3c-0.3,0-0.6,0-0.9,0.1c-0.2,0-1,0.3-1,0.6v0.1c0,0.5,0.5,0.5,0.6,0.5
				s0.9,0.1,1,1.3v0.3c0,1-0.7,2-2.1,2h-0.2c-1.9-0.1-2.5-1.5-2.5-2.5c0-1.7,2.7-3.7,5.4-3.7c0.2,0,0.3,0,0.5,0
				C-370.6-633.1-366.7-632.2-366.7-629.3z"/>
		</g>
	</g>
	<g transform="matrix(0.620079,0,0,0.620079,265.394,423.307)">
		<g class="st2">
			<path d="M-365-606.3c0,0.4-0.2,0.7-0.5,0.7h-1.9v1.7c0,1,0.6,1.2,1,1.2s0.7,0.2,0.7,0.6c0,0.5-0.3,0.6-0.6,0.6h-7.5
				c-0.5,0-0.6-0.3-0.6-0.6s0.2-0.6,0.7-0.6c0.6,0,1.3-0.3,1.3-1.1v-1.8h-5.8c-0.4,0-0.6-0.4-0.6-0.7c0-0.1,0-0.2,0.1-0.3v-0.1
				l0.2-0.3c0.9-1.3,3.6-5.7,3.6-9.6c0-0.5,0.4-0.6,0.7-0.6c0.3,0,2.1,0.1,2.6,0.1c0.6,0,2.3-0.1,2.5-0.1c0.3,0,0.5,0.2,0.5,0.5
				c0,0.1,0,0.1,0,0.1c-0.1,0.4-5.5,7.4-8.1,9.5h4.3v-2.5c0-0.4,0.2-0.6,0.3-0.7l3.8-3.6c0.2-0.2,0.3-0.3,0.6-0.3
				c0.4,0,0.4,0.3,0.4,0.5v6.6h1.9C-365.2-607-365-606.7-365-606.3z"/>
		</g>
	</g>
	<g transform="matrix(0.620079,0,0,0.620079,265.394,423.307)">
	</g>
	<g transform="matrix(0.620079,0,0,0.620079,0,0)">
	</g>
	<g transform="matrix(0.620079,0,0,0.620079,0,0)">
		<line vector-effect="none" class="st3" x1="0" y1="81.1" x2="1161.3" y2="81.1"/>
	</g>
	<g transform="matrix(0.620079,0,0,0.620079,0,0)">
		<line vector-effect="none" class="st3" x1="0" y1="73.1" x2="1161.3" y2="73.1"/>
	</g>
	<g transform="matrix(0.620079,0,0,0.620079,0,0)">
		<line vector-effect="none" class="st3" x1="0" y1="65.1" x2="1161.3" y2="65.1"/>
	</g>
	<g transform="matrix(0.620079,0,0,0.620079,0,0)">
		<line vector-effect="none" class="st3" x1="0" y1="57.1" x2="1161.3" y2="57.1"/>
	</g>
	<g transform="matrix(0.620079,0,0,0.620079,0,0)">
		<line vector-effect="none" class="st3" x1="0" y1="49.1" x2="1161.3" y2="49.1"/>
	</g>
	<g transform="matrix(0.620079,0,0,0.620079,0,0)">
		<g class="st2">
			<path d="M23,58c0,4.2-1.7,8.1-4.4,11.1c-3.4,3.6-7.5,6.1-11.7,8.2c-0.2,0.1-0.4,0.2-0.5,0.2c-0.3,0-0.4-0.2-0.4-0.4
				c0-0.3,0.2-0.4,0.5-0.6c4-2.3,7.3-5,9.2-8c2-3.1,2.7-6.9,2.7-10.2c0-5-1.5-8.3-4.9-8.3c-3.3,0-5.2,2.3-5.2,3.6
				c0,0.3,0.1,0.6,0.5,0.6S9.5,54,10.4,54c1.6,0,3.1,1.3,3.1,3.3s-1.4,3.4-3.4,3.4c-2.6,0-3.9-2.2-3.9-4.8c0-3.1,2.5-7.1,8.1-7.1
				C19.6,48.7,23,52.4,23,58z M27.9,53.1c0,1-0.8,1.8-1.8,1.8s-1.8-0.8-1.8-1.8s0.8-1.8,1.8-1.8C27.1,51.3,27.9,52.1,27.9,53.1z
				 M27.9,61.1c0,1-0.7,1.7-1.7,1.7s-1.7-0.7-1.7-1.7s0.7-1.7,1.7-1.7C27.1,59.4,27.9,60.1,27.9,61.1z"/>
		</g>
	</g>
	<g transform="matrix(0.620079,0,0,0.620079,0,0)">
		<g class="st2">
			<path d="M34,60c0-0.6,0.5-0.9,1-0.9c0.3,0,0.6,0.2,0.6,0.5c0,0.6-0.2,8.3-0.2,9c0,0.2,0.1,0.4,0.4,0.5c0.1,0,0.1,0,0.2,0
				c0.3,0,0.5-0.3,0.7-0.4c0.4-0.2,0.7-0.4,1.1-0.4c0.2-0.1,0.4-0.1,0.7-0.1c1.5,0.1,2.9,1.2,2.9,3.1c0,1.5-1,3.4-3.8,5.4
				c-0.8,0.5-1.6,1.4-2.5,2c0,0-0.1,0.1-0.2,0.1s-0.2,0-0.3-0.2C34.1,78.2,34,60,34,60z M35.9,76.2c0.1,0,0.2,0,0.3-0.1
				c1-0.6,1.9-1.6,2.3-2.4c0.4-0.7,0.5-1.3,0.5-1.9c0-0.6-0.2-1.2-0.5-1.5c-0.2-0.2-0.5-0.4-0.8-0.4s-0.5,0.1-0.8,0.2
				c-0.4,0.3-1.3,1-1.4,1.3c0,0.1-0.1,0.5-0.1,1c0,1.3,0.1,3.2,0.1,3.2C35.5,75.9,35.6,76.2,35.9,76.2z"/>
		</g>
	</g>
	<g transform="matrix(0.620079,0,0,0.620079,0,0)">
		<g class="st2">
			<path d="M75.5,56.8c-0.2,0-0.4-0.3-0.4-0.5c0-0.1-0.1-0.2-0.1-0.3c0-0.2,0.1-0.3,0.4-0.5c0,0,6.8-2.3,7.2-2.4
				c0.2-0.1,0.3-0.1,0.3-0.2s-0.1-0.2-0.2-0.2c-0.3-0.1-7.2-2.5-7.2-2.5c-0.4-0.1-0.4-0.3-0.4-0.4c0-0.1,0-0.2,0.1-0.3
				c0.1-0.3,0.2-0.4,0.5-0.4c0.1,0,0.2,0,0.3,0.1l9.6,3.3c0.4,0.1,0.4,0.3,0.4,0.6s0,0.5-0.4,0.6c0,0-9.7,3.3-9.8,3.3
				C75.6,56.8,75.5,56.8,75.5,56.8z"/>
		</g>
	</g>
	<g transform="matrix(0.620079,0,0,0.620079,0,0)">
		<g class="st2">
			<path d="M105.3,41.1c-0.2,0-0.4-0.3-0.4-0.5c0-0.1-0.1-0.2-0.1-0.3c0-0.2,0.1-0.3,0.4-0.5c0,0,6.8-2.3,7.2-2.4
				c0.2-0.1,0.3-0.1,0.3-0.2s-0.1-0.2-0.2-0.2c-0.3-0.1-7.2-2.5-7.2-2.5c-0.4-0.1-0.4-0.3-0.4-0.4c0-0.1,0-0.2,0.1-0.3
				c0.1-0.3,0.2-0.4,0.5-0.4c0.1,0,0.2,0,0.3,0.1l9.6,3.3c0.4,0.1,0.4,0.3,0.4,0.6s0,0.5-0.4,0.6c0,0-9.7,3.3-9.8,3.3
				C105.4,41.1,105.3,41.1,105.3,41.1z"/>
		</g>
	</g>
	<g transform="matrix(0.620079,0,0,0.620079,0,0)">
		<path vector-effect="none" class="st4" d="M75.5,91.1h29.8v-4H75.5V91.1"/>
	</g>
	<g transform="matrix(0.620079,0,0,0.620079,0,0)">
		<g class="st2">
			<path d="M121,29.1c-0.2,0-0.4-0.3-0.4-0.5c0-0.1-0.1-0.2-0.1-0.3c0-0.2,0.1-0.3,0.4-0.5c0,0,6.8-2.3,7.2-2.4
				c0.2-0.1,0.3-0.1,0.3-0.2s-0.1-0.2-0.2-0.2c-0.3-0.1-7.2-2.5-7.2-2.5c-0.4-0.1-0.4-0.3-0.4-0.4c0-0.1,0-0.2,0.1-0.3
				c0.1-0.3,0.2-0.4,0.5-0.4c0.1,0,0.2,0,0.3,0.1l9.6,3.3c0.4,0.1,0.4,0.3,0.4,0.6s0,0.5-0.4,0.6c0,0-9.7,3.3-9.8,3.3
				C121.1,29.1,121,29.1,121,29.1z"/>
		</g>
	</g>
	<g transform="matrix(0.620079,0,0,0.620079,0,0)">
		<path vector-effect="none" class="st4" d="M121,65.1h36v-4h-36V65.1"/>
	</g>
	<g transform="matrix(0.620079,0,0,0.620079,0,0)">
		<path vector-effect="none" class="st4" d="M175,65.1h36v-4h-36L175,65.1"/>
	</g>
	<g transform="matrix(0.620079,0,0,0.620079,0,0)">
		<g class="st2">
			<path d="M241.3,41.1c-0.2,0-0.4-0.3-0.4-0.5c0-0.1-0.1-0.2-0.1-0.3c0-0.2,0.1-0.3,0.4-0.5c0,0,6.8-2.3,7.2-2.4
				c0.2-0.1,0.3-0.1,0.3-0.2s-0.1-0.2-0.2-0.2c-0.3-0.1-7.2-2.5-7.2-2.5c-0.4-0.1-0.4-0.3-0.4-0.4c0-0.1,0-0.2,0.1-0.3
				c0.1-0.3,0.2-0.4,0.5-0.4c0.1,0,0.2,0,0.3,0.1l9.6,3.3c0.4,0.1,0.4,0.3,0.4,0.6s0,0.5-0.4,0.6c0,0-9.7,3.3-9.8,3.3
				C241.4,41.1,241.3,41.1,241.3,41.1z"/>
		</g>
	</g>
	<g transform="matrix(0.620079,0,0,0.620079,0,0)">
		<path vector-effect="none" class="st4" d="M241.3,83.1h29.8v-4h-29.8V83.1"/>
	</g>
	<g transform="matrix(0.620079,0,0,0.620079,0,0)">
		<g class="st2">
			<path d="M285.8,41.1c-0.2,0-0.4-0.3-0.4-0.5c0-0.1-0.1-0.2-0.1-0.3c0-0.2,0.1-0.3,0.4-0.5c0,0,6.8-2.3,7.2-2.4
				c0.2-0.1,0.3-0.1,0.3-0.2S293.1,37,293,37c-0.3-0.1-7.2-2.5-7.2-2.5c-0.4-0.1-0.4-0.3-0.4-0.4c0-0.1,0-0.2,0.1-0.3
				c0.1-0.3,0.2-0.4,0.5-0.4c0.1,0,0.2,0,0.3,0.1l9.6,3.3c0.4,0.1,0.4,0.3,0.4,0.6s0,0.5-0.4,0.6c0,0-9.7,3.3-9.8,3.3
				C285.9,41.1,285.8,41.1,285.8,41.1z"/>
		</g>
	</g>
	<g transform="matrix(0.620079,0,0,0.620079,0,0)">
		<path vector-effect="none" class="st4" d="M285.8,75.1h29.8v-4h-29.8V75.1"/>
	</g>
	<g transform="matrix(0.620079,0,0,0.620079,0,0)">
		<path vector-effect="none" class="st4" d="M330.3,75.1h29.8v-4h-29.8V75.1"/>
	</g>
	<g transform="matrix(0.620079,0,0,0.620079,0,0)">
		<g class="st2">
			<path d="M388,41.1c-0.2,0-0.4-0.3-0.4-0.5c0-0.1-0.1-0.2-0.1-0.3c0-0.2,0.1-0.3,0.4-0.5c0,0,6.8-2.3,7.2-2.4
				c0.2-0.1,0.3-0.1,0.3-0.2s-0.1-0.2-0.2-0.2c-0.3-0.1-7.2-2.5-7.2-2.5c-0.4-0.1-0.4-0.3-0.4-0.4c0-0.1,0-0.2,0.1-0.3
				c0.1-0.3,0.2-0.4,0.5-0.4c0.1,0,0.2,0,0.3,0.1l9.6,3.3c0.4,0.1,0.4,0.3,0.4,0.6s0,0.5-0.4,0.6c0,0-9.7,3.3-9.8,3.3
				C388.1,41.1,388,41.1,388,41.1z"/>
		</g>
	</g>
	<g transform="matrix(0.620079,0,0,0.620079,0,0)">
		<g class="st2">
			<path d="M405,45.1c-0.2,0-0.4-0.3-0.4-0.5c0-0.1-0.1-0.2-0.1-0.3c0-0.2,0.1-0.3,0.4-0.5c0,0,6.8-2.3,7.2-2.4
				c0.2-0.1,0.3-0.1,0.3-0.2c0-0.1-0.1-0.2-0.2-0.2c-0.3-0.1-7.2-2.5-7.2-2.5c-0.4-0.1-0.4-0.3-0.4-0.4c0-0.1,0-0.2,0.1-0.3
				c0.1-0.3,0.2-0.4,0.5-0.4c0.1,0,0.2,0,0.3,0.1l9.6,3.3c0.4,0.1,0.4,0.3,0.4,0.6s0,0.5-0.4,0.6c0,0-9.7,3.3-9.8,3.3
				C405.1,45.1,405,45.1,405,45.1z"/>
		</g>
	</g>
	<g transform="matrix(0.620079,0,0,0.620079,0,0)">
		<path vector-effect="none" class="st4" d="M388,75.1l17,2v-4l-17-2V75.1"/>
	</g>
	<g transform="matrix(0.620079,0,0,0.620079,0,0)">
		<g class="st2">
			<path d="M422,48.8c-0.2,0-0.4-0.3-0.4-0.5c0-0.1-0.1-0.2-0.1-0.3c0-0.2,0.1-0.3,0.4-0.5c0,0,6.8-2.3,7.2-2.4
				c0.2-0.1,0.3-0.1,0.3-0.2s-0.1-0.2-0.2-0.2c-0.3-0.1-7.2-2.5-7.2-2.5c-0.4-0.1-0.4-0.3-0.4-0.4c0-0.1,0-0.2,0.1-0.3
				c0.1-0.3,0.2-0.4,0.5-0.4c0.1,0,0.2,0,0.3,0.1l9.6,3.3c0.4,0.1,0.4,0.3,0.4,0.6s0,0.5-0.4,0.6c0,0-9.7,3.3-9.8,3.3
				C422.1,48.8,422,48.8,422,48.8z"/>
		</g>
	</g>
	<g transform="matrix(0.620079,0,0,0.620079,0,0)">
		<path vector-effect="none" class="st4" d="M422,83.1h17v-4h-17V83.1"/>
	</g>
	<g transform="matrix(0.620079,0,0,0.620079,0,0)">
		<g class="st2">
			<path d="M473,45.1c-0.2,0-0.4-0.3-0.4-0.5c0-0.1-0.1-0.2-0.1-0.3c0-0.2,0.1-0.3,0.4-0.5c0,0,6.8-2.3,7.2-2.4
				c0.2-0.1,0.3-0.1,0.3-0.2c0-0.1-0.1-0.2-0.2-0.2c-0.3-0.1-7.2-2.5-7.2-2.5c-0.4-0.1-0.4-0.3-0.4-0.4c0-0.1,0-0.2,0.1-0.3
				c0.1-0.3,0.2-0.4,0.5-0.4c0.1,0,0.2,0,0.3,0.1l9.6,3.3c0.4,0.1,0.4,0.3,0.4,0.6s0,0.5-0.4,0.6c0,0-9.7,3.3-9.8,3.3
				C473.1,45.1,473,45.1,473,45.1z"/>
		</g>
	</g>
	<g transform="matrix(0.620079,0,0,0.620079,0,0)">
		<path vector-effect="none" class="st4" d="M456,83.1l17-2v-4l-17,2V83.1"/>
	</g>
	<g transform="matrix(0.620079,0,0,0.620079,0,0)">
		<g class="st2">
			<path d="M503.3,41.1c-0.2,0-0.4-0.3-0.4-0.5c0-0.1-0.1-0.2-0.1-0.3c0-0.2,0.1-0.3,0.4-0.5c0,0,6.8-2.3,7.2-2.4
				c0.2-0.1,0.3-0.1,0.3-0.2s-0.1-0.2-0.2-0.2c-0.3-0.1-7.2-2.5-7.2-2.5c-0.4-0.1-0.4-0.3-0.4-0.4c0-0.1,0-0.2,0.1-0.3
				c0.1-0.3,0.2-0.4,0.5-0.4c0.1,0,0.2,0,0.3,0.1l9.6,3.3c0.4,0.1,0.4,0.3,0.4,0.6s0,0.5-0.4,0.6c0,0-9.7,3.3-9.8,3.3
				C503.4,41.1,503.3,41.1,503.3,41.1z"/>
		</g>
	</g>
	<g transform="matrix(0.620079,0,0,0.620079,0,0)">
		<path vector-effect="none" class="st4" d="M503.3,75.1h17v-4h-17V75.1"/>
	</g>
	<g transform="matrix(0.620079,0,0,0.620079,0,0)">
		<path vector-effect="none" class="st4" d="M537.3,75.1h17v-4h-17V75.1"/>
	</g>
	<g transform="matrix(0.620079,0,0,0.620079,0,0)">
		<path vector-effect="none" class="st4" d="M571.3,75.1h17v-4h-17V75.1"/>
	</g>
	<g transform="matrix(0.620079,0,0,0.620079,0,0)">
		<g class="st2">
			<path d="M639,41.1c-0.2,0-0.4-0.3-0.4-0.5c0-0.1-0.1-0.2-0.1-0.3c0-0.2,0.1-0.3,0.4-0.5c0,0,6.8-2.3,7.2-2.4
				c0.2-0.1,0.3-0.1,0.3-0.2s-0.1-0.2-0.2-0.2c-0.3-0.1-7.2-2.5-7.2-2.5c-0.4-0.1-0.4-0.3-0.4-0.4c0-0.1,0-0.2,0.1-0.3
				c0.1-0.3,0.2-0.4,0.5-0.4c0.1,0,0.2,0,0.3,0.1l9.6,3.3c0.4,0.1,0.4,0.3,0.4,0.6s0,0.5-0.4,0.6c0,0-9.7,3.3-9.8,3.3
				C639.1,41.1,639,41.1,639,41.1z"/>
		</g>
	</g>
	<g transform="matrix(0.620079,0,0,0.620079,0,0)">
		<g class="st2">
			<path d="M668.5,41.1c-0.2,0-0.4-0.3-0.4-0.5c0-0.1-0.1-0.2-0.1-0.3c0-0.2,0.1-0.3,0.4-0.5c0,0,6.8-2.3,7.2-2.4
				c0.2-0.1,0.3-0.1,0.3-0.2s-0.1-0.2-0.2-0.2c-0.3-0.1-7.2-2.5-7.2-2.5c-0.4-0.1-0.4-0.3-0.4-0.4c0-0.1,0-0.2,0.1-0.3
				c0.1-0.3,0.2-0.4,0.5-0.4c0.1,0,0.2,0,0.3,0.1l9.6,3.3c0.4,0.1,0.4,0.3,0.4,0.6s0,0.5-0.4,0.6c0,0-9.7,3.3-9.8,3.3
				C668.6,41.1,668.5,41.1,668.5,41.1z"/>
		</g>
	</g>
	<g transform="matrix(0.620079,0,0,0.620079,0,0)">
		<path vector-effect="none" class="st4" d="M639,75.1h29.5v-4H639V75.1"/>
	</g>
	<g transform="matrix(0.620079,0,0,0.620079,0,0)">
		<g class="st2">
			<path d="M684.5,29.1c-0.2,0-0.4-0.3-0.4-0.5c0-0.1-0.1-0.2-0.1-0.3c0-0.2,0.1-0.3,0.4-0.5c0,0,6.8-2.3,7.2-2.4
				c0.2-0.1,0.3-0.1,0.3-0.2s-0.1-0.2-0.2-0.2c-0.3-0.1-7.2-2.5-7.2-2.5c-0.4-0.1-0.4-0.3-0.4-0.4c0-0.1,0-0.2,0.1-0.3
				c0.1-0.3,0.2-0.4,0.5-0.4c0.1,0,0.2,0,0.3,0.1l9.6,3.3c0.4,0.1,0.4,0.3,0.4,0.6s0,0.5-0.4,0.6c0,0-9.7,3.3-9.8,3.3
				C684.6,29.1,684.5,29.1,684.5,29.1z"/>
		</g>
	</g>
	<g transform="matrix(0.620079,0,0,0.620079,0,0)">
		<path vector-effect="none" class="st4" d="M684.5,65.1h36v-4h-36V65.1"/>
	</g>
	<g transform="matrix(0.620079,0,0,0.620079,0,0)">
		<path vector-effect="none" class="st4" d="M750.8,65.1h36v-4h-36V65.1"/>
	</g>
	<g transform="matrix(0.620079,0,0,0.620079,0,0)">
		<g class="st2">
			<path d="M804.8,21.1c-0.2,0-0.4-0.3-0.4-0.5c0-0.1-0.1-0.2-0.1-0.3c0-0.2,0.1-0.3,0.4-0.5c0,0,6.8-2.3,7.2-2.4
				c0.2-0.1,0.3-0.1,0.3-0.2S812.1,17,812,17c-0.3-0.1-7.2-2.5-7.2-2.5c-0.4-0.1-0.4-0.3-0.4-0.4c0-0.1,0-0.2,0.1-0.3
				c0.1-0.3,0.2-0.4,0.5-0.4c0.1,0,0.2,0,0.3,0.1l9.6,3.3c0.4,0.1,0.4,0.3,0.4,0.6s0,0.5-0.4,0.6c0,0-9.7,3.3-9.8,3.3
				C804.9,21.1,804.8,21.1,804.8,21.1z"/>
		</g>
	</g>
	<g transform="matrix(0.620079,0,0,0.620079,0,0)">
		<path vector-effect="none" class="st4" d="M804.8,65.1h36v-4h-36V65.1"/>
	</g>
	<g transform="matrix(0.620079,0,0,0.620079,0,0)">
		<path vector-effect="none" class="st4" d="M858.8,65.1h36v-4h-36V65.1"/>
	</g>
	<g transform="matrix(0.620079,0,0,0.620079,0,0)">
		<g class="st2">
			<path d="M925,21.1c-0.2,0-0.4-0.3-0.4-0.5c0-0.1-0.1-0.2-0.1-0.3c0-0.2,0.1-0.3,0.4-0.5c0,0,6.8-2.3,7.2-2.4
				c0.2-0.1,0.3-0.1,0.3-0.2s-0.1-0.2-0.2-0.2c-0.3-0.1-7.2-2.5-7.2-2.5c-0.4-0.1-0.4-0.3-0.4-0.4c0-0.1,0-0.2,0.1-0.3
				c0.1-0.3,0.2-0.4,0.5-0.4c0.1,0,0.2,0,0.3,0.1l9.6,3.3c0.4,0.1,0.4,0.3,0.4,0.6s0,0.5-0.4,0.6c0,0-9.7,3.3-9.8,3.3
				C925.1,21.1,925,21.1,925,21.1z"/>
		</g>
	</g>
	<g transform="matrix(0.620079,0,0,0.620079,0,0)">
		<g class="st2">
			<path d="M961,25.1c-0.2,0-0.4-0.3-0.4-0.5c0-0.1-0.1-0.2-0.1-0.3c0-0.2,0.1-0.3,0.4-0.5c0,0,6.8-2.3,7.2-2.4
				c0.2-0.1,0.3-0.1,0.3-0.2s-0.1-0.2-0.2-0.2c-0.3-0.1-7.2-2.5-7.2-2.5c-0.4-0.1-0.4-0.3-0.4-0.4c0-0.1,0-0.2,0.1-0.3
				c0.1-0.3,0.2-0.4,0.5-0.4c0.1,0,0.2,0,0.3,0.1l9.6,3.3c0.4,0.1,0.4,0.3,0.4,0.6s0,0.5-0.4,0.6c0,0-9.7,3.3-9.8,3.3
				C961.1,25.1,961,25.1,961,25.1z"/>
		</g>
	</g>
	<g transform="matrix(0.620079,0,0,0.620079,0,0)">
		<path vector-effect="none" class="st4" d="M925,65.1l36,2v-4l-36-2V65.1"/>
	</g>
	<g transform="matrix(0.620079,0,0,0.620079,0,0)">
		<g class="st2">
			<path d="M1005.3,25.1c-0.2,0-0.4-0.3-0.4-0.5c0-0.1-0.1-0.2-0.1-0.3c0-0.2,0.1-0.3,0.4-0.5c0,0,6.8-2.3,7.2-2.4
				c0.2-0.1,0.3-0.1,0.3-0.2s-0.1-0.2-0.2-0.2c-0.3-0.1-7.2-2.5-7.2-2.5c-0.4-0.1-0.4-0.3-0.4-0.4c0-0.1,0-0.2,0.1-0.3
				c0.1-0.3,0.2-0.4,0.5-0.4c0.1,0,0.2,0,0.3,0.1l9.6,3.3c0.4,0.1,0.4,0.3,0.4,0.6s0,0.5-0.4,0.6c0,0-9.7,3.3-9.8,3.3
				C1005.4,25.1,1005.3,25.1,1005.3,25.1z"/>
		</g>
	</g>
	<g transform="matrix(0.620079,0,0,0.620079,0,0)">
		<path vector-effect="none" class="st4" d="M979,65.1h44.2v-4H979V65.1"/>
	</g>
	<g transform="matrix(0.620079,0,0,0.620079,0,0)">
		<g class="st2">
			<path d="M1041.3,29.1c-0.2,0-0.4-0.3-0.4-0.5c0-0.1-0.1-0.2-0.1-0.3c0-0.2,0.1-0.3,0.4-0.5c0,0,6.8-2.3,7.2-2.4
				c0.2-0.1,0.3-0.1,0.3-0.2s-0.1-0.2-0.2-0.2c-0.3-0.1-7.2-2.5-7.2-2.5c-0.4-0.1-0.4-0.3-0.4-0.4c0-0.1,0-0.2,0.1-0.3
				c0.1-0.3,0.2-0.4,0.5-0.4c0.1,0,0.2,0,0.3,0.1l9.6,3.3c0.4,0.1,0.4,0.3,0.4,0.6s0,0.5-0.4,0.6c0,0-9.7,3.3-9.8,3.3
				C1041.4,29.1,1041.3,29.1,1041.3,29.1z"/>
		</g>
	</g>
	<g transform="matrix(0.620079,0,0,0.620079,0,0)">
		<path vector-effect="none" class="st4" d="M1041.3,65.1h36v-4h-36V65.1"/>
	</g>
	<g transform="matrix(0.620079,0,0,0.620079,348.484,595.176)">
	</g>
	<g transform="matrix(0.620079,0,0,0.620079,348.484,595.176)">
		<g class="st2">
			<path d="M-479.2-855c0-1,0.6-1.7,1.4-1.7c0.6,0,1.1,0.4,1.1,1.1c0,0.8-0.4,1.1-0.7,1.3c-0.2,0.1-0.4,0.2-0.4,0.3
				c0,0.3,0.5,0.5,1.1,0.5c1.8,0,2.7-1.8,2.7-3.1c0-0.9-0.5-1.6-1.6-1.6h-0.3c-0.4,0-0.6-0.2-0.6-0.4c0-0.3,0.2-0.4,0.6-0.4h0.3
				c1.7,0,2.7-1.1,2.7-2.6c0-0.6-0.4-1.3-1.5-1.3c-0.6,0-1,0.2-1,0.4c0,0.1,0.1,0.2,0.4,0.4c0.1,0.2,0.3,0.4,0.3,0.7
				c0,0.8-0.6,1.4-1.3,1.4c-0.7,0-1.1-0.5-1.1-1.3c0.1-1.6,1.6-2.5,3.4-2.5s3.2,0.9,3.2,2.5c0,1.2-1,2.1-2.2,2.6
				c-0.2,0.1-0.4,0.2-0.4,0.3s0.1,0.2,0.3,0.3c0.8,0.4,1.1,1.1,1.1,1.8c0,2.3-2,3.8-4.5,3.8C-478.2-852.8-479.2-853.9-479.2-855z"/>
		</g>
	</g>
	<g transform="matrix(0.620079,0,0,0.620079,348.484,595.176)">
	</g>
	<g transform="matrix(0.620079,0,0,0.620079,0,0)">
	</g>
	<g transform="matrix(0.620079,0,0,0.620079,469.4,570.993)">
	</g>
	<g transform="matrix(0.620079,0,0,0.620079,469.4,570.993)">
		<g class="st2">
			<path d="M-625.4-825.8c0-1,0.6-1.7,1.4-1.7c0.6,0,1.1,0.4,1.1,1.1c0,0.8-0.4,1.1-0.7,1.3c-0.2,0.1-0.4,0.2-0.4,0.3
				c0,0.3,0.5,0.5,1.1,0.5c1.8,0,2.7-1.8,2.7-3.1c0-0.9-0.5-1.6-1.6-1.6h-0.3c-0.4,0-0.6-0.2-0.6-0.4c0-0.3,0.2-0.4,0.6-0.4h0.3
				c1.7,0,2.7-1.1,2.7-2.6c0-0.6-0.4-1.3-1.5-1.3c-0.6,0-1,0.2-1,0.4c0,0.1,0.1,0.2,0.4,0.4c0.1,0.2,0.3,0.4,0.3,0.7
				c0,0.8-0.6,1.4-1.3,1.4s-1.1-0.5-1.1-1.3c0.1-1.6,1.6-2.5,3.4-2.5c1.8,0,3.2,0.9,3.2,2.5c0,1.2-1,2.1-2.2,2.6
				c-0.2,0.1-0.4,0.2-0.4,0.3s0.1,0.2,0.3,0.3c0.8,0.4,1.1,1.1,1.1,1.8c0,2.3-2,3.8-4.5,3.8C-624.5-823.6-625.4-824.6-625.4-825.8z"
				/>
		</g>
	</g>
	<g transform="matrix(0.620079,0,0,0.620079,469.4,570.993)">
	</g>
	<g transform="matrix(0.620079,0,0,0.620079,0,0)">
	</g>
	<g transform="matrix(0.620079,0,0,0.620079,603.337,570.993)">
	</g>
	<g transform="matrix(0.620079,0,0,0.620079,603.337,570.993)">
		<g class="st2">
			<path d="M-787.4-825.8c0-1,0.6-1.7,1.4-1.7c0.6,0,1.1,0.4,1.1,1.1c0,0.8-0.4,1.1-0.7,1.3c-0.2,0.1-0.4,0.2-0.4,0.3
				c0,0.3,0.5,0.5,1.1,0.5c1.8,0,2.7-1.8,2.7-3.1c0-0.9-0.5-1.6-1.6-1.6h-0.3c-0.4,0-0.6-0.2-0.6-0.4c0-0.3,0.2-0.4,0.6-0.4h0.3
				c1.7,0,2.7-1.1,2.7-2.6c0-0.6-0.4-1.3-1.5-1.3c-0.6,0-1,0.2-1,0.4c0,0.1,0.1,0.2,0.4,0.4c0.1,0.2,0.3,0.4,0.3,0.7
				c0,0.8-0.6,1.4-1.3,1.4s-1.1-0.5-1.1-1.3c0.1-1.6,1.6-2.5,3.4-2.5c1.8,0,3.2,0.9,3.2,2.5c0,1.2-1,2.1-2.2,2.6
				c-0.2,0.1-0.4,0.2-0.4,0.3s0.1,0.2,0.3,0.3c0.8,0.4,1.1,1.1,1.1,1.8c0,2.3-2,3.8-4.5,3.8C-786.5-823.6-787.4-824.6-787.4-825.8z"
				/>
		</g>
	</g>
	<g transform="matrix(0.620079,0,0,0.620079,603.337,570.993)">
	</g>
	<g transform="matrix(0.620079,0,0,0.620079,0,0)">
	</g>
	<g transform="matrix(0.620079,0,0,0.620079,759.596,575.333)">
	</g>
	<g transform="matrix(0.620079,0,0,0.620079,759.596,575.333)">
		<g class="st2">
			<path d="M-976.4-831c0-1,0.6-1.7,1.4-1.7c0.6,0,1.1,0.4,1.1,1.1c0,0.8-0.4,1.1-0.7,1.3c-0.2,0.1-0.4,0.2-0.4,0.3
				c0,0.3,0.5,0.5,1.1,0.5c1.8,0,2.7-1.8,2.7-3.1c0-0.9-0.5-1.6-1.6-1.6h-0.3c-0.4,0-0.6-0.2-0.6-0.4c0-0.3,0.2-0.4,0.6-0.4h0.3
				c1.7,0,2.7-1.1,2.7-2.6c0-0.6-0.4-1.3-1.5-1.3c-0.6,0-1,0.2-1,0.4c0,0.1,0.1,0.2,0.4,0.4c0.1,0.2,0.3,0.4,0.3,0.7
				c0,0.8-0.6,1.4-1.3,1.4s-1.1-0.5-1.1-1.3c0.1-1.6,1.6-2.5,3.4-2.5c1.8,0,3.2,0.9,3.2,2.5c0,1.2-1,2.1-2.2,2.6
				c-0.2,0.1-0.4,0.2-0.4,0.3s0.1,0.2,0.3,0.3c0.8,0.4,1.1,1.1,1.1,1.8c0,2.3-2,3.8-4.5,3.8C-975.5-828.8-976.4-829.9-976.4-831z"/>
		</g>
	</g>
	<g transform="matrix(0.620079,0,0,0.620079,759.596,575.333)">
	</g>
	<g transform="matrix(0.620079,0,0,0.620079,0,0)">
	</g>
	<g transform="matrix(0.620079,0,0,0.620079,869.97,570.993)">
	</g>
	<g transform="matrix(0.620079,0,0,0.620079,869.97,570.993)">
		<g class="st2">
			<path d="M-1109.9-825.8c0-1,0.6-1.7,1.4-1.7c0.6,0,1.1,0.4,1.1,1.1c0,0.8-0.4,1.1-0.7,1.3c-0.2,0.1-0.4,0.2-0.4,0.3
				c0,0.3,0.5,0.5,1.1,0.5c1.8,0,2.7-1.8,2.7-3.1c0-0.9-0.5-1.6-1.6-1.6h-0.3c-0.4,0-0.6-0.2-0.6-0.4c0-0.3,0.2-0.4,0.6-0.4h0.3
				c1.7,0,2.7-1.1,2.7-2.6c0-0.6-0.4-1.3-1.5-1.3c-0.6,0-1,0.2-1,0.4c0,0.1,0.1,0.2,0.4,0.4c0.1,0.2,0.3,0.4,0.3,0.7
				c0,0.8-0.6,1.4-1.3,1.4c-0.7,0-1.1-0.5-1.1-1.3c0.1-1.6,1.6-2.5,3.4-2.5s3.2,0.9,3.2,2.5c0,1.2-1,2.1-2.2,2.6
				c-0.2,0.1-0.4,0.2-0.4,0.3s0.1,0.2,0.3,0.3c0.8,0.4,1.1,1.1,1.1,1.8c0,2.3-2,3.8-4.5,3.8C-1109-823.6-1109.9-824.6-1109.9-825.8z
				"/>
		</g>
	</g>
	<g transform="matrix(0.620079,0,0,0.620079,869.97,570.993)">
	</g>
	<g transform="matrix(0.620079,0,0,0.620079,0,0)">
	</g>
	<g transform="matrix(0.620079,0,0,0.620079,980.344,570.993)">
	</g>
	<g transform="matrix(0.620079,0,0,0.620079,980.344,570.993)">
		<g class="st2">
			<path d="M-1243.4-825.8c0-1,0.6-1.7,1.4-1.7c0.6,0,1.1,0.4,1.1,1.1c0,0.8-0.4,1.1-0.7,1.3c-0.2,0.1-0.4,0.2-0.4,0.3
				c0,0.3,0.5,0.5,1.1,0.5c1.8,0,2.7-1.8,2.7-3.1c0-0.9-0.5-1.6-1.6-1.6h-0.3c-0.4,0-0.6-0.2-0.6-0.4c0-0.3,0.2-0.4,0.6-0.4h0.3
				c1.7,0,2.7-1.1,2.7-2.6c0-0.6-0.4-1.3-1.5-1.3c-0.6,0-1,0.2-1,0.4c0,0.1,0.1,0.2,0.4,0.4c0.1,0.2,0.3,0.4,0.3,0.7
				c0,0.8-0.6,1.4-1.3,1.4c-0.7,0-1.1-0.5-1.1-1.3c0.1-1.6,1.6-2.5,3.4-2.5s3.2,0.9,3.2,2.5c0,1.2-1,2.1-2.2,2.6
				c-0.2,0.1-0.4,0.2-0.4,0.3s0.1,0.2,0.3,0.3c0.8,0.4,1.1,1.1,1.1,1.8c0,2.3-2,3.8-4.5,3.8
				C-1242.5-823.6-1243.4-824.6-1243.4-825.8z"/>
		</g>
	</g>
	<g transform="matrix(0.620079,0,0,0.620079,980.344,570.993)">
	</g>
	<g transform="matrix(0.620079,0,0,0.620079,0,0)">
	</g>
	<g transform="matrix(0.620079,0,0,0.620079,1746.14,570.993)">
	</g>
	<g transform="matrix(0.620079,0,0,0.620079,1746.14,570.993)">
		<g class="st2">
			<path d="M-2169.7-825.8c0-1,0.6-1.7,1.4-1.7c0.6,0,1.1,0.4,1.1,1.1c0,0.8-0.4,1.1-0.7,1.3c-0.2,0.1-0.4,0.2-0.4,0.3
				c0,0.3,0.5,0.5,1.1,0.5c1.8,0,2.7-1.8,2.7-3.1c0-0.9-0.5-1.6-1.6-1.6h-0.3c-0.4,0-0.6-0.2-0.6-0.4c0-0.3,0.2-0.4,0.6-0.4h0.3
				c1.7,0,2.7-1.1,2.7-2.6c0-0.6-0.4-1.3-1.5-1.3c-0.6,0-1,0.2-1,0.4c0,0.1,0.1,0.2,0.4,0.4c0.1,0.2,0.3,0.4,0.3,0.7
				c0,0.8-0.6,1.4-1.3,1.4s-1.1-0.5-1.1-1.3c0.1-1.6,1.6-2.5,3.4-2.5c1.8,0,3.2,0.9,3.2,2.5c0,1.2-1,2.1-2.2,2.6
				c-0.2,0.1-0.4,0.2-0.4,0.3s0.1,0.2,0.3,0.3c0.8,0.4,1.1,1.1,1.1,1.8c0,2.3-2,3.8-4.5,3.8
				C-2168.7-823.6-2169.7-824.6-2169.7-825.8z"/>
		</g>
	</g>
	<g transform="matrix(0.620079,0,0,0.620079,1746.14,570.993)">
	</g>
	<g transform="matrix(0.620079,0,0,0.620079,0,0)">
	</g>
	<g transform="matrix(0.620079,0,0,0.620079,1867.06,570.993)">
	</g>
	<g transform="matrix(0.620079,0,0,0.620079,1867.06,570.993)">
		<g class="st2">
			<path d="M-2315.9-825.8c0-1,0.6-1.7,1.4-1.7c0.6,0,1.1,0.4,1.1,1.1c0,0.8-0.4,1.1-0.7,1.3c-0.2,0.1-0.4,0.2-0.4,0.3
				c0,0.3,0.5,0.5,1.1,0.5c1.8,0,2.7-1.8,2.7-3.1c0-0.9-0.5-1.6-1.6-1.6h-0.3c-0.4,0-0.6-0.2-0.6-0.4c0-0.3,0.2-0.4,0.6-0.4h0.3
				c1.7,0,2.7-1.1,2.7-2.6c0-0.6-0.4-1.3-1.5-1.3c-0.6,0-1,0.2-1,0.4c0,0.1,0.1,0.2,0.4,0.4c0.1,0.2,0.3,0.4,0.3,0.7
				c0,0.8-0.6,1.4-1.3,1.4s-1.1-0.5-1.1-1.3c0.1-1.6,1.6-2.5,3.4-2.5c1.8,0,3.2,0.9,3.2,2.5c0,1.2-1,2.1-2.2,2.6
				c-0.2,0.1-0.4,0.2-0.4,0.3s0.1,0.2,0.3,0.3c0.8,0.4,1.1,1.1,1.1,1.8c0,2.3-2,3.8-4.5,3.8C-2315-823.6-2315.9-824.6-2315.9-825.8z
				"/>
		</g>
	</g>
	<g transform="matrix(0.620079,0,0,0.620079,1867.06,570.993)">
	</g>
	<g transform="matrix(0.620079,0,0,0.620079,0,0)">
	</g>
	<g transform="matrix(0.620079,0,0,0.620079,2031.38,570.993)">
	</g>
	<g transform="matrix(0.620079,0,0,0.620079,2031.38,570.993)">
		<g class="st2">
			<path d="M-2514.7-825.8c0-1,0.6-1.7,1.4-1.7c0.6,0,1.1,0.4,1.1,1.1c0,0.8-0.4,1.1-0.7,1.3c-0.2,0.1-0.4,0.2-0.4,0.3
				c0,0.3,0.5,0.5,1.1,0.5c1.8,0,2.7-1.8,2.7-3.1c0-0.9-0.5-1.6-1.6-1.6h-0.3c-0.4,0-0.6-0.2-0.6-0.4c0-0.3,0.2-0.4,0.6-0.4h0.3
				c1.7,0,2.7-1.1,2.7-2.6c0-0.6-0.4-1.3-1.5-1.3c-0.6,0-1,0.2-1,0.4c0,0.1,0.1,0.2,0.4,0.4c0.1,0.2,0.3,0.4,0.3,0.7
				c0,0.8-0.6,1.4-1.3,1.4s-1.1-0.5-1.1-1.3c0.1-1.6,1.6-2.5,3.4-2.5c1.8,0,3.2,0.9,3.2,2.5c0,1.2-1,2.1-2.2,2.6
				c-0.2,0.1-0.4,0.2-0.4,0.3s0.1,0.2,0.3,0.3c0.8,0.4,1.1,1.1,1.1,1.8c0,2.3-2,3.8-4.5,3.8
				C-2513.7-823.6-2514.7-824.6-2514.7-825.8z"/>
		</g>
	</g>
	<g transform="matrix(0.620079,0,0,0.620079,2031.38,570.993)">
	</g>
	<g transform="matrix(0.620079,0,0,0.620079,0,0)">
	</g>
	<g transform="matrix(0.620079,0,0,0.620079,2165.31,570.993)">
	</g>
	<g transform="matrix(0.620079,0,0,0.620079,2165.31,570.993)">
		<g class="st2">
			<path d="M-2676.7-825.8c0-1,0.6-1.7,1.4-1.7c0.6,0,1.1,0.4,1.1,1.1c0,0.8-0.4,1.1-0.7,1.3c-0.2,0.1-0.4,0.2-0.4,0.3
				c0,0.3,0.5,0.5,1.1,0.5c1.8,0,2.7-1.8,2.7-3.1c0-0.9-0.5-1.6-1.6-1.6h-0.3c-0.4,0-0.6-0.2-0.6-0.4c0-0.3,0.2-0.4,0.6-0.4h0.3
				c1.7,0,2.7-1.1,2.7-2.6c0-0.6-0.4-1.3-1.5-1.3c-0.6,0-1,0.2-1,0.4c0,0.1,0.1,0.2,0.4,0.4c0.1,0.2,0.3,0.4,0.3,0.7
				c0,0.8-0.6,1.4-1.3,1.4s-1.1-0.5-1.1-1.3c0.1-1.6,1.6-2.5,3.4-2.5c1.8,0,3.2,0.9,3.2,2.5c0,1.2-1,2.1-2.2,2.6
				c-0.2,0.1-0.4,0.2-0.4,0.3s0.1,0.2,0.3,0.3c0.8,0.4,1.1,1.1,1.1,1.8c0,2.3-2,3.8-4.5,3.8
				C-2675.7-823.6-2676.7-824.6-2676.7-825.8z"/>
		</g>
	</g>
	<g transform="matrix(0.620079,0,0,0.620079,2165.31,570.993)">
	</g>
	<g transform="matrix(0.620079,0,0,0.620079,0,0)">
	</g>
	<g transform="matrix(0.620079,0,0,0.620079,2299.25,570.993)">
	</g>
	<g transform="matrix(0.620079,0,0,0.620079,2299.25,570.993)">
		<g class="st2">
			<path d="M-2838.7-825.8c0-1,0.6-1.7,1.4-1.7c0.6,0,1.1,0.4,1.1,1.1c0,0.8-0.4,1.1-0.7,1.3c-0.2,0.1-0.4,0.2-0.4,0.3
				c0,0.3,0.5,0.5,1.1,0.5c1.8,0,2.7-1.8,2.7-3.1c0-0.9-0.5-1.6-1.6-1.6h-0.3c-0.4,0-0.6-0.2-0.6-0.4c0-0.3,0.2-0.4,0.6-0.4h0.3
				c1.7,0,2.7-1.1,2.7-2.6c0-0.6-0.4-1.3-1.5-1.3c-0.6,0-1,0.2-1,0.4c0,0.1,0.1,0.2,0.4,0.4c0.1,0.2,0.3,0.4,0.3,0.7
				c0,0.8-0.6,1.4-1.3,1.4s-1.1-0.5-1.1-1.3c0.1-1.6,1.6-2.5,3.4-2.5c1.8,0,3.2,0.9,3.2,2.5c0,1.2-1,2.1-2.2,2.6
				c-0.2,0.1-0.4,0.2-0.4,0.3s0.1,0.2,0.3,0.3c0.8,0.4,1.1,1.1,1.1,1.8c0,2.3-2,3.8-4.5,3.8
				C-2837.7-823.6-2838.7-824.6-2838.7-825.8z"/>
		</g>
	</g>
	<g transform="matrix(0.620079,0,0,0.620079,2299.25,570.993)">
	</g>
	<g transform="matrix(0.620079,0,0,0.620079,0,0)">
	</g>
	<g transform="matrix(0.620079,0,0,0.620079,2463.57,570.993)">
	</g>
	<g transform="matrix(0.620079,0,0,0.620079,2463.57,570.993)">
		<g class="st2">
			<path d="M-3037.4-825.8c0-1,0.6-1.7,1.4-1.7c0.6,0,1.1,0.4,1.1,1.1c0,0.8-0.4,1.1-0.7,1.3c-0.2,0.1-0.4,0.2-0.4,0.3
				c0,0.3,0.5,0.5,1.1,0.5c1.8,0,2.7-1.8,2.7-3.1c0-0.9-0.5-1.6-1.6-1.6h-0.3c-0.4,0-0.6-0.2-0.6-0.4c0-0.3,0.2-0.4,0.6-0.4h0.3
				c1.7,0,2.7-1.1,2.7-2.6c0-0.6-0.4-1.3-1.5-1.3c-0.6,0-1,0.2-1,0.4c0,0.1,0.1,0.2,0.4,0.4c0.1,0.2,0.3,0.4,0.3,0.7
				c0,0.8-0.6,1.4-1.3,1.4s-1.1-0.5-1.1-1.3c0.1-1.6,1.6-2.5,3.4-2.5c1.8,0,3.2,0.9,3.2,2.5c0,1.2-1,2.1-2.2,2.6
				c-0.2,0.1-0.4,0.2-0.4,0.3s0.1,0.2,0.3,0.3c0.8,0.4,1.1,1.1,1.1,1.8c0,2.3-2,3.8-4.5,3.8
				C-3036.5-823.6-3037.4-824.6-3037.4-825.8z"/>
		</g>
	</g>
	<g transform="matrix(0.620079,0,0,0.620079,2463.57,570.993)">
	</g>
	<g transform="matrix(0.620079,0,0,0.620079,0,0)">
	</g>
	<g transform="matrix(0.620079,0,0,0.620079,2607.43,570.993)">
	</g>
	<g transform="matrix(0.620079,0,0,0.620079,2607.43,570.993)">
		<g class="st2">
			<path d="M-3211.4-825.8c0-1,0.6-1.7,1.4-1.7c0.6,0,1.1,0.4,1.1,1.1c0,0.8-0.4,1.1-0.7,1.3c-0.2,0.1-0.4,0.2-0.4,0.3
				c0,0.3,0.5,0.5,1.1,0.5c1.8,0,2.7-1.8,2.7-3.1c0-0.9-0.5-1.6-1.6-1.6h-0.3c-0.4,0-0.6-0.2-0.6-0.4c0-0.3,0.2-0.4,0.6-0.4h0.3
				c1.7,0,2.7-1.1,2.7-2.6c0-0.6-0.4-1.3-1.5-1.3c-0.6,0-1,0.2-1,0.4c0,0.1,0.1,0.2,0.4,0.4c0.1,0.2,0.3,0.4,0.3,0.7
				c0,0.8-0.6,1.4-1.3,1.4s-1.1-0.5-1.1-1.3c0.1-1.6,1.6-2.5,3.4-2.5c1.8,0,3.2,0.9,3.2,2.5c0,1.2-1,2.1-2.2,2.6
				c-0.2,0.1-0.4,0.2-0.4,0.3s0.1,0.2,0.3,0.3c0.8,0.4,1.1,1.1,1.1,1.8c0,2.3-2,3.8-4.5,3.8
				C-3210.5-823.6-3211.4-824.6-3211.4-825.8z"/>
		</g>
	</g>
	<g transform="matrix(0.620079,0,0,0.620079,2607.43,570.993)">
	</g>
	<g transform="matrix(0.620079,0,0,0.620079,0,0)">
	</g>
	<g transform="matrix(0.620079,0,0,0.620079,2751.91,570.993)">
	</g>
	<g transform="matrix(0.620079,0,0,0.620079,2751.91,570.993)">
		<g class="st2">
			<path d="M-3386.2-825.8c0-1,0.6-1.7,1.4-1.7c0.6,0,1.1,0.4,1.1,1.1c0,0.8-0.4,1.1-0.7,1.3c-0.2,0.1-0.4,0.2-0.4,0.3
				c0,0.3,0.5,0.5,1.1,0.5c1.8,0,2.7-1.8,2.7-3.1c0-0.9-0.5-1.6-1.6-1.6h-0.3c-0.4,0-0.6-0.2-0.6-0.4c0-0.3,0.2-0.4,0.6-0.4h0.3
				c1.7,0,2.7-1.1,2.7-2.6c0-0.6-0.4-1.3-1.5-1.3c-0.6,0-1,0.2-1,0.4c0,0.1,0.1,0.2,0.4,0.4c0.1,0.2,0.3,0.4,0.3,0.7
				c0,0.8-0.6,1.4-1.3,1.4s-1.1-0.5-1.1-1.3c0.1-1.6,1.6-2.5,3.4-2.5c1.8,0,3.2,0.9,3.2,2.5c0,1.2-1,2.1-2.2,2.6
				c-0.2,0.1-0.4,0.2-0.4,0.3s0.1,0.2,0.3,0.3c0.8,0.4,1.1,1.1,1.1,1.8c0,2.3-2,3.8-4.5,3.8
				C-3385.2-823.6-3386.2-824.6-3386.2-825.8z"/>
		</g>
	</g>
	<g transform="matrix(0.620079,0,0,0.620079,2751.91,570.993)">
	</g>
	<g transform="matrix(0.620079,0,0,0.620079,0,0)">
	</g>
	<g transform="matrix(0.620079,0,0,0.620079,0,0)">
		<line vector-effect="none" class="st3" x1="75.5" y1="66.3" x2="75.5" y2="90.9"/>
	</g>
	<g transform="matrix(0.620079,0,0,0.620079,0,0)">
		<g class="st2">
			<path d="M75,66.6c0-3.1,3.2-6,7.1-6c2.1,0,3.5,1.2,3.5,3c0,3-3.9,6-7.1,6C76.5,69.6,75,68.5,75,66.6z"/>
		</g>
	</g>
	<g transform="matrix(0.620079,0,0,0.620079,0,0)">
		<line vector-effect="none" class="st3" x1="90.3" y1="66.3" x2="90.3" y2="90.9"/>
	</g>
	<g transform="matrix(0.620079,0,0,0.620079,0,0)">
		<g class="st2">
			<path d="M89.8,66.6c0-3.1,3.2-6,7.1-6c2.1,0,3.5,1.2,3.5,3c0,3-3.9,6-7.1,6C91.3,69.6,89.8,68.5,89.8,66.6z"/>
		</g>
	</g>
	<g transform="matrix(0.620079,0,0,0.620079,0,0)">
		<line vector-effect="none" class="st3" x1="105.3" y1="50.3" x2="105.3" y2="90.9"/>
	</g>
	<g transform="matrix(0.620079,0,0,0.620079,0,0)">
		<g class="st2">
			<path d="M104.8,50.6c0-3.1,3.2-6,7.1-6c2.1,0,3.5,1.2,3.5,3c0,3-3.9,6-7.1,6C106.3,53.6,104.8,52.5,104.8,50.6z"/>
		</g>
	</g>
	<g transform="matrix(0.620079,0,0,0.620079,0,0)">
		<line vector-effect="none" class="st0" x1="117.8" y1="41.1" x2="133.8" y2="41.1"/>
	</g>
	<g transform="matrix(0.620079,0,0,0.620079,0,0)">
		<line vector-effect="none" class="st3" x1="121" y1="38.3" x2="121" y2="64.9"/>
	</g>
	<g transform="matrix(0.620079,0,0,0.620079,0,0)">
		<g class="st2">
			<path d="M120.5,38.6c0-3.1,3.2-6,7.1-6c2.1,0,3.5,1.2,3.5,3c0,3-3.9,6-7.1,6C122,41.6,120.5,40.5,120.5,38.6z"/>
		</g>
	</g>
	<g transform="matrix(0.620079,0,0,0.620079,0,0)">
		<line vector-effect="none" class="st0" x1="135.8" y1="41.1" x2="151.8" y2="41.1"/>
	</g>
	<g transform="matrix(0.620079,0,0,0.620079,0,0)">
		<line vector-effect="none" class="st3" x1="139" y1="38.3" x2="139" y2="64.9"/>
	</g>
	<g transform="matrix(0.620079,0,0,0.620079,0,0)">
		<g class="st2">
			<path d="M138.5,38.6c0-3.1,3.2-6,7.1-6c2.1,0,3.5,1.2,3.5,3c0,3-3.9,6-7.1,6C140,41.6,138.5,40.5,138.5,38.6z"/>
		</g>
	</g>
	<g transform="matrix(0.620079,0,0,0.620079,0,0)">
		<line vector-effect="none" class="st0" x1="153.8" y1="41.1" x2="169.8" y2="41.1"/>
	</g>
	<g transform="matrix(0.620079,0,0,0.620079,0,0)">
		<line vector-effect="none" class="st3" x1="157" y1="38.3" x2="157" y2="64.9"/>
	</g>
	<g transform="matrix(0.620079,0,0,0.620079,0,0)">
		<g class="st2">
			<path d="M156.5,38.6c0-3.1,3.2-6,7.1-6c2.1,0,3.5,1.2,3.5,3c0,3-3.9,6-7.1,6C158,41.6,156.5,40.5,156.5,38.6z"/>
		</g>
	</g>
	<g transform="matrix(0.620079,0,0,0.620079,0,0)">
		<line vector-effect="none" class="st0" x1="171.8" y1="41.1" x2="187.8" y2="41.1"/>
	</g>
	<g transform="matrix(0.620079,0,0,0.620079,0,0)">
		<line vector-effect="none" class="st3" x1="175" y1="38.3" x2="175" y2="64.9"/>
	</g>
	<g transform="matrix(0.620079,0,0,0.620079,0,0)">
		<g class="st2">
			<path d="M174.5,38.6c0-3.1,3.2-6,7.1-6c2.1,0,3.5,1.2,3.5,3c0,3-3.9,6-7.1,6C176,41.6,174.5,40.5,174.5,38.6z"/>
		</g>
	</g>
	<g transform="matrix(0.620079,0,0,0.620079,0,0)">
		<line vector-effect="none" class="st0" x1="189.8" y1="41.1" x2="205.8" y2="41.1"/>
	</g>
	<g transform="matrix(0.620079,0,0,0.620079,0,0)">
		<line vector-effect="none" class="st3" x1="193" y1="38.3" x2="193" y2="64.9"/>
	</g>
	<g transform="matrix(0.620079,0,0,0.620079,0,0)">
		<g class="st2">
			<path d="M192.5,38.6c0-3.1,3.2-6,7.1-6c2.1,0,3.5,1.2,3.5,3c0,3-3.9,6-7.1,6C194,41.6,192.5,40.5,192.5,38.6z"/>
		</g>
	</g>
	<g transform="matrix(0.620079,0,0,0.620079,0,0)">
		<line vector-effect="none" class="st0" x1="207.8" y1="41.1" x2="223.8" y2="41.1"/>
	</g>
	<g transform="matrix(0.620079,0,0,0.620079,0,0)">
		<line vector-effect="none" class="st3" x1="211" y1="38.3" x2="211" y2="64.9"/>
	</g>
	<g transform="matrix(0.620079,0,0,0.620079,0,0)">
		<g class="st2">
			<path d="M210.5,38.6c0-3.1,3.2-6,7.1-6c2.1,0,3.5,1.2,3.5,3c0,3-3.9,6-7.1,6C212,41.6,210.5,40.5,210.5,38.6z"/>
		</g>
	</g>
	<g transform="matrix(0.620079,0,0,0.620079,0,0)">
		<line vector-effect="none" class="st3" x1="241.3" y1="50.3" x2="241.3" y2="82.9"/>
	</g>
	<g transform="matrix(0.620079,0,0,0.620079,0,0)">
		<g class="st2">
			<path d="M240.8,50.6c0-3.1,3.2-6,7.1-6c2.1,0,3.5,1.2,3.5,3c0,3-3.9,6-7.1,6C242.3,53.6,240.8,52.5,240.8,50.6z"/>
		</g>
	</g>
	<g transform="matrix(0.620079,0,0,0.620079,0,0)">
		<line vector-effect="none" class="st3" x1="256.3" y1="58.3" x2="256.3" y2="82.9"/>
	</g>
	<g transform="matrix(0.620079,0,0,0.620079,0,0)">
		<g class="st2">
			<path d="M255.8,58.6c0-3.1,3.2-6,7.1-6c2.1,0,3.5,1.2,3.5,3c0,3-3.9,6-7.1,6C257.3,61.6,255.8,60.5,255.8,58.6z"/>
		</g>
	</g>
	<g transform="matrix(0.620079,0,0,0.620079,0,0)">
		<line vector-effect="none" class="st3" x1="271" y1="54.3" x2="271" y2="82.9"/>
	</g>
	<g transform="matrix(0.620079,0,0,0.620079,0,0)">
		<g class="st2">
			<path d="M270.5,54.6c0-3.1,3.2-6,7.1-6c2.1,0,3.5,1.2,3.5,3c0,3-3.9,6-7.1,6C272,57.6,270.5,56.5,270.5,54.6z"/>
		</g>
	</g>
	<g transform="matrix(0.620079,0,0,0.620079,0,0)">
		<line vector-effect="none" class="st3" x1="285.8" y1="50.3" x2="285.8" y2="74.9"/>
	</g>
	<g transform="matrix(0.620079,0,0,0.620079,0,0)">
		<g class="st2">
			<path d="M285.3,50.6c0-3.1,3.2-6,7.1-6c2.1,0,3.5,1.2,3.5,3c0,3-3.9,6-7.1,6C286.8,53.6,285.3,52.5,285.3,50.6z"/>
		</g>
	</g>
	<g transform="matrix(0.620079,0,0,0.620079,0,0)">
		<line vector-effect="none" class="st3" x1="300.8" y1="50.3" x2="300.8" y2="74.9"/>
	</g>
	<g transform="matrix(0.620079,0,0,0.620079,0,0)">
		<g class="st2">
			<path d="M300.3,50.6c0-3.1,3.2-6,7.1-6c2.1,0,3.5,1.2,3.5,3c0,3-3.9,6-7.1,6C301.8,53.6,300.3,52.5,300.3,50.6z"/>
		</g>
	</g>
	<g transform="matrix(0.620079,0,0,0.620079,0,0)">
		<line vector-effect="none" class="st3" x1="315.5" y1="50.3" x2="315.5" y2="74.9"/>
	</g>
	<g transform="matrix(0.620079,0,0,0.620079,0,0)">
		<g class="st2">
			<path d="M315,50.6c0-3.1,3.2-6,7.1-6c2.1,0,3.5,1.2,3.5,3c0,3-3.9,6-7.1,6C316.5,53.6,315,52.5,315,50.6z"/>
		</g>
	</g>
	<g transform="matrix(0.620079,0,0,0.620079,0,0)">
		<line vector-effect="none" class="st3" x1="330.3" y1="50.3" x2="330.3" y2="74.9"/>
	</g>
	<g transform="matrix(0.620079,0,0,0.620079,0,0)">
		<g class="st2">
			<path d="M329.8,50.6c0-3.1,3.2-6,7.1-6c2.1,0,3.5,1.2,3.5,3c0,3-3.9,6-7.1,6C331.3,53.6,329.8,52.5,329.8,50.6z"/>
		</g>
	</g>
	<g transform="matrix(0.620079,0,0,0.620079,0,0)">
		<line vector-effect="none" class="st3" x1="345.3" y1="50.3" x2="345.3" y2="74.9"/>
	</g>
	<g transform="matrix(0.620079,0,0,0.620079,0,0)">
		<g class="st2">
			<path d="M344.8,50.6c0-3.1,3.2-6,7.1-6c2.1,0,3.5,1.2,3.5,3c0,3-3.9,6-7.1,6C346.3,53.6,344.8,52.5,344.8,50.6z"/>
		</g>
	</g>
	<g transform="matrix(0.620079,0,0,0.620079,0,0)">
		<line vector-effect="none" class="st3" x1="360" y1="50.3" x2="360" y2="74.9"/>
	</g>
	<g transform="matrix(0.620079,0,0,0.620079,0,0)">
		<g class="st2">
			<path d="M359.5,50.6c0-3.1,3.2-6,7.1-6c2.1,0,3.5,1.2,3.5,3c0,3-3.9,6-7.1,6C361,53.6,359.5,52.5,359.5,50.6z"/>
		</g>
	</g>
	<g transform="matrix(0.620079,0,0,0.620079,0,0)">
		<line vector-effect="none" class="st3" x1="388" y1="50.3" x2="388" y2="74.9"/>
	</g>
	<g transform="matrix(0.620079,0,0,0.620079,0,0)">
		<g class="st2">
			<path d="M387.5,50.6c0-3.1,3.2-6,7.1-6c2.1,0,3.5,1.2,3.5,3c0,3-3.9,6-7.1,6C389,53.6,387.5,52.5,387.5,50.6z"/>
		</g>
	</g>
	<g transform="matrix(0.620079,0,0,0.620079,0,0)">
		<line vector-effect="none" class="st3" x1="405" y1="54.3" x2="405" y2="76.9"/>
	</g>
	<g transform="matrix(0.620079,0,0,0.620079,0,0)">
		<g class="st2">
			<path d="M404.5,54.6c0-3.1,3.2-6,7.1-6c2.1,0,3.5,1.2,3.5,3c0,3-3.9,6-7.1,6C406,57.6,404.5,56.5,404.5,54.6z"/>
		</g>
	</g>
	<g transform="matrix(0.620079,0,0,0.620079,0,0)">
		<line vector-effect="none" class="st3" x1="422" y1="58.3" x2="422" y2="82.9"/>
	</g>
	<g transform="matrix(0.620079,0,0,0.620079,0,0)">
		<g class="st2">
			<path d="M421.5,58.6c0-3.1,3.2-6,7.1-6c2.1,0,3.5,1.2,3.5,3c0,3-3.9,6-7.1,6C423,61.6,421.5,60.5,421.5,58.6z"/>
		</g>
	</g>
	<g transform="matrix(0.620079,0,0,0.620079,0,0)">
		<line vector-effect="none" class="st3" x1="439" y1="58.3" x2="439" y2="82.9"/>
	</g>
	<g transform="matrix(0.620079,0,0,0.620079,0,0)">
		<g class="st2">
			<path d="M438.5,58.6c0-3.1,3.2-6,7.1-6c2.1,0,3.5,1.2,3.5,3c0,3-3.9,6-7.1,6C440,61.6,438.5,60.5,438.5,58.6z"/>
		</g>
	</g>
	<g transform="matrix(0.620079,0,0,0.620079,0,0)">
		<line vector-effect="none" class="st3" x1="456" y1="58.3" x2="456" y2="82.9"/>
	</g>
	<g transform="matrix(0.620079,0,0,0.620079,0,0)">
		<g class="st2">
			<path d="M455.5,58.6c0-3.1,3.2-6,7.1-6c2.1,0,3.5,1.2,3.5,3c0,3-3.9,6-7.1,6C457,61.6,455.5,60.5,455.5,58.6z"/>
		</g>
	</g>
	<g transform="matrix(0.620079,0,0,0.620079,0,0)">
		<line vector-effect="none" class="st3" x1="473" y1="54.3" x2="473" y2="80.9"/>
	</g>
	<g transform="matrix(0.620079,0,0,0.620079,0,0)">
		<g class="st2">
			<path d="M472.5,54.6c0-3.1,3.2-6,7.1-6c2.1,0,3.5,1.2,3.5,3c0,3-3.9,6-7.1,6C474,57.6,472.5,56.5,472.5,54.6z"/>
		</g>
	</g>
	<g transform="matrix(0.620079,0,0,0.620079,0,0)">
		<line vector-effect="none" class="st3" x1="503.3" y1="50.3" x2="503.3" y2="74.9"/>
	</g>
	<g transform="matrix(0.620079,0,0,0.620079,0,0)">
		<g class="st2">
			<path d="M502.8,50.6c0-3.1,3.2-6,7.1-6c2.1,0,3.5,1.2,3.5,3c0,3-3.9,6-7.1,6C504.3,53.6,502.8,52.5,502.8,50.6z"/>
		</g>
	</g>
	<g transform="matrix(0.620079,0,0,0.620079,0,0)">
		<line vector-effect="none" class="st3" x1="520.3" y1="50.3" x2="520.3" y2="74.9"/>
	</g>
	<g transform="matrix(0.620079,0,0,0.620079,0,0)">
		<g class="st2">
			<path d="M519.8,50.6c0-3.1,3.2-6,7.1-6c2.1,0,3.5,1.2,3.5,3c0,3-3.9,6-7.1,6C521.3,53.6,519.8,52.5,519.8,50.6z"/>
		</g>
	</g>
	<g transform="matrix(0.620079,0,0,0.620079,0,0)">
		<line vector-effect="none" class="st3" x1="537.3" y1="50.3" x2="537.3" y2="74.9"/>
	</g>
	<g transform="matrix(0.620079,0,0,0.620079,0,0)">
		<g class="st2">
			<path d="M536.8,50.6c0-3.1,3.2-6,7.1-6c2.1,0,3.5,1.2,3.5,3c0,3-3.9,6-7.1,6C538.3,53.6,536.8,52.5,536.8,50.6z"/>
		</g>
	</g>
	<g transform="matrix(0.620079,0,0,0.620079,0,0)">
		<line vector-effect="none" class="st3" x1="554.3" y1="50.3" x2="554.3" y2="74.9"/>
	</g>
	<g transform="matrix(0.620079,0,0,0.620079,0,0)">
		<g class="st2">
			<path d="M553.8,50.6c0-3.1,3.2-6,7.1-6c2.1,0,3.5,1.2,3.5,3c0,3-3.9,6-7.1,6C555.3,53.6,553.8,52.5,553.8,50.6z"/>
		</g>
	</g>
	<g transform="matrix(0.620079,0,0,0.620079,0,0)">
		<line vector-effect="none" class="st3" x1="571.3" y1="50.3" x2="571.3" y2="74.9"/>
	</g>
	<g transform="matrix(0.620079,0,0,0.620079,0,0)">
		<g class="st2">
			<path d="M570.8,50.6c0-3.1,3.2-6,7.1-6c2.1,0,3.5,1.2,3.5,3c0,3-3.9,6-7.1,6C572.3,53.6,570.8,52.5,570.8,50.6z"/>
		</g>
	</g>
	<g transform="matrix(0.620079,0,0,0.620079,0,0)">
		<line vector-effect="none" class="st3" x1="588.3" y1="50.3" x2="588.3" y2="74.9"/>
	</g>
	<g transform="matrix(0.620079,0,0,0.620079,0,0)">
		<g class="st2">
			<path d="M587.8,50.6c0-3.1,3.2-6,7.1-6c2.1,0,3.5,1.2,3.5,3c0,3-3.9,6-7.1,6C589.3,53.6,587.8,52.5,587.8,50.6z"/>
		</g>
	</g>
	<g transform="matrix(0.620079,0,0,0.620079,0,0)">
		<g class="st2">
			<path d="M626.6,72.1c0,0.1-0.1,0.1-0.2,0.1c-0.1,0-0.1,0-0.2,0h-0.1c-0.5-0.2-1.6-0.5-2.5-0.5c-0.2,0-0.4,0-0.5,0
				c-1,0.2-1.5,1.3-1.5,2.3c0,0.3,0,0.6,0.1,0.8c0.1,0.3,0.4,1.2,0.8,1.2c0.3,0.2,0.5,0.5,0.5,0.8c0,0.1,0,0.1-0.1,0.2
				c0,0.1-0.3,0.2-0.5,0.2c-0.3,0-0.6-0.1-0.8-0.3c-2.3-1.8-3.7-3.4-3.7-5c0-1.7,1.2-3.1,2.6-3.1c0.2,0,0.4,0.1,0.5,0.1
				s0.3,0.1,0.5,0.1s0.3,0,0.4-0.2v-0.1c0-0.2-0.1-0.3-0.2-0.4c-0.4-0.7-0.9-1.3-1.4-1.9l-1.6-1.9c0,0-0.3-0.3-0.3-0.8
				c0-0.3,0.1-0.6,0.4-0.9c1.4-1.5,1.9-2.9,1.9-4.1c0-2.3-1.8-3.9-1.9-4.3c-0.1-0.2-0.1-0.4-0.1-0.5c0-0.4,0.3-0.7,0.6-0.7
				c0.2,0,0.4,0.1,0.6,0.3c0.5,0.5,5.3,6.2,5.3,6.2s0.1,0.3,0.1,0.6c0,0.2,0,0.3-0.1,0.5c-0.8,1.3-2,2.8-2.1,4.7c0,0.1,0,0.3,0,0.4
				c0,1.8,1,3,2.2,4.4C625.8,70.6,626.6,71.7,626.6,72.1z"/>
		</g>
	</g>
	<g transform="matrix(0.620079,0,0,0.620079,0,0)">
		<line vector-effect="none" class="st3" x1="639" y1="50.3" x2="639" y2="74.9"/>
	</g>
	<g transform="matrix(0.620079,0,0,0.620079,0,0)">
		<g class="st2">
			<path d="M638.5,50.6c0-3.1,3.2-6,7.1-6c2.1,0,3.5,1.2,3.5,3c0,3-3.9,6-7.1,6C640,53.6,638.5,52.5,638.5,50.6z"/>
		</g>
	</g>
	<g transform="matrix(0.620079,0,0,0.620079,0,0)">
		<line vector-effect="none" class="st3" x1="653.8" y1="50.3" x2="653.8" y2="74.9"/>
	</g>
	<g transform="matrix(0.620079,0,0,0.620079,0,0)">
		<g class="st2">
			<path d="M653.3,50.6c0-3.1,3.2-6,7.1-6c2.1,0,3.5,1.2,3.5,3c0,3-3.9,6-7.1,6C654.8,53.6,653.3,52.5,653.3,50.6z"/>
		</g>
	</g>
	<g transform="matrix(0.620079,0,0,0.620079,0,0)">
		<line vector-effect="none" class="st3" x1="668.5" y1="50.3" x2="668.5" y2="74.9"/>
	</g>
	<g transform="matrix(0.620079,0,0,0.620079,0,0)">
		<g class="st2">
			<path d="M668,50.6c0-3.1,3.2-6,7.1-6c2.1,0,3.5,1.2,3.5,3c0,3-3.9,6-7.1,6C669.5,53.6,668,52.5,668,50.6z"/>
		</g>
	</g>
	<g transform="matrix(0.620079,0,0,0.620079,0,0)">
		<line vector-effect="none" class="st0" x1="681.3" y1="41.1" x2="697.3" y2="41.1"/>
	</g>
	<g transform="matrix(0.620079,0,0,0.620079,0,0)">
		<line vector-effect="none" class="st3" x1="684.5" y1="38.3" x2="684.5" y2="64.9"/>
	</g>
	<g transform="matrix(0.620079,0,0,0.620079,0,0)">
		<g class="st2">
			<path d="M684,38.6c0-3.1,3.2-6,7.1-6c2.1,0,3.5,1.2,3.5,3c0,3-3.9,6-7.1,6C685.5,41.6,684,40.5,684,38.6z"/>
		</g>
	</g>
	<g transform="matrix(0.620079,0,0,0.620079,0,0)">
		<line vector-effect="none" class="st0" x1="699.3" y1="41.1" x2="715.3" y2="41.1"/>
	</g>
	<g transform="matrix(0.620079,0,0,0.620079,0,0)">
		<line vector-effect="none" class="st3" x1="702.5" y1="38.3" x2="702.5" y2="64.9"/>
	</g>
	<g transform="matrix(0.620079,0,0,0.620079,0,0)">
		<g class="st2">
			<path d="M702,38.6c0-3.1,3.2-6,7.1-6c2.1,0,3.5,1.2,3.5,3c0,3-3.9,6-7.1,6C703.5,41.6,702,40.5,702,38.6z"/>
		</g>
	</g>
	<g transform="matrix(0.620079,0,0,0.620079,0,0)">
		<line vector-effect="none" class="st0" x1="717.3" y1="41.1" x2="733.3" y2="41.1"/>
	</g>
	<g transform="matrix(0.620079,0,0,0.620079,0,0)">
		<line vector-effect="none" class="st3" x1="720.5" y1="38.3" x2="720.5" y2="64.9"/>
	</g>
	<g transform="matrix(0.620079,0,0,0.620079,0,0)">
		<g class="st2">
			<path d="M720,38.6c0-3.1,3.2-6,7.1-6c2.1,0,3.5,1.2,3.5,3c0,3-3.9,6-7.1,6C721.5,41.6,720,40.5,720,38.6z"/>
		</g>
	</g>
	<g transform="matrix(0.620079,0,0,0.620079,0,0)">
		<line vector-effect="none" class="st0" x1="747.5" y1="41.1" x2="763.5" y2="41.1"/>
	</g>
	<g transform="matrix(0.620079,0,0,0.620079,0,0)">
		<line vector-effect="none" class="st3" x1="750.8" y1="38.3" x2="750.8" y2="64.9"/>
	</g>
	<g transform="matrix(0.620079,0,0,0.620079,0,0)">
		<g class="st2">
			<path d="M750.3,38.6c0-3.1,3.2-6,7.1-6c2.1,0,3.5,1.2,3.5,3c0,3-3.9,6-7.1,6C751.8,41.6,750.3,40.5,750.3,38.6z"/>
		</g>
	</g>
	<g transform="matrix(0.620079,0,0,0.620079,0,0)">
		<line vector-effect="none" class="st0" x1="765.5" y1="41.1" x2="781.5" y2="41.1"/>
	</g>
	<g transform="matrix(0.620079,0,0,0.620079,0,0)">
		<line vector-effect="none" class="st3" x1="768.8" y1="38.3" x2="768.8" y2="64.9"/>
	</g>
	<g transform="matrix(0.620079,0,0,0.620079,0,0)">
		<g class="st2">
			<path d="M768.3,38.6c0-3.1,3.2-6,7.1-6c2.1,0,3.5,1.2,3.5,3c0,3-3.9,6-7.1,6C769.8,41.6,768.3,40.5,768.3,38.6z"/>
		</g>
	</g>
	<g transform="matrix(0.620079,0,0,0.620079,0,0)">
		<line vector-effect="none" class="st0" x1="783.5" y1="41.1" x2="799.5" y2="41.1"/>
	</g>
	<g transform="matrix(0.620079,0,0,0.620079,0,0)">
		<line vector-effect="none" class="st3" x1="786.8" y1="38.3" x2="786.8" y2="64.9"/>
	</g>
	<g transform="matrix(0.620079,0,0,0.620079,0,0)">
		<g class="st2">
			<path d="M786.3,38.6c0-3.1,3.2-6,7.1-6c2.1,0,3.5,1.2,3.5,3c0,3-3.9,6-7.1,6C787.8,41.6,786.3,40.5,786.3,38.6z"/>
		</g>
	</g>
	<g transform="matrix(0.620079,0,0,0.620079,0,0)">
		<line vector-effect="none" class="st0" x1="801.5" y1="41.1" x2="817.5" y2="41.1"/>
	</g>
	<g transform="matrix(0.620079,0,0,0.620079,0,0)">
		<line vector-effect="none" class="st0" x1="801.5" y1="33.1" x2="817.5" y2="33.1"/>
	</g>
	<g transform="matrix(0.620079,0,0,0.620079,0,0)">
		<line vector-effect="none" class="st3" x1="804.8" y1="30.3" x2="804.8" y2="64.9"/>
	</g>
	<g transform="matrix(0.620079,0,0,0.620079,0,0)">
		<g class="st2">
			<path d="M804.3,30.6c0-3.1,3.2-6,7.1-6c2.1,0,3.5,1.2,3.5,3c0,3-3.9,6-7.1,6C805.8,33.6,804.3,32.5,804.3,30.6z"/>
		</g>
	</g>
	<g transform="matrix(0.620079,0,0,0.620079,0,0)">
		<line vector-effect="none" class="st0" x1="819.5" y1="41.1" x2="835.5" y2="41.1"/>
	</g>
	<g transform="matrix(0.620079,0,0,0.620079,0,0)">
		<line vector-effect="none" class="st0" x1="819.5" y1="33.1" x2="835.5" y2="33.1"/>
	</g>
	<g transform="matrix(0.620079,0,0,0.620079,0,0)">
		<line vector-effect="none" class="st3" x1="822.8" y1="30.3" x2="822.8" y2="64.9"/>
	</g>
	<g transform="matrix(0.620079,0,0,0.620079,0,0)">
		<g class="st2">
			<path d="M822.3,30.6c0-3.1,3.2-6,7.1-6c2.1,0,3.5,1.2,3.5,3c0,3-3.9,6-7.1,6C823.8,33.6,822.3,32.5,822.3,30.6z"/>
		</g>
	</g>
	<g transform="matrix(0.620079,0,0,0.620079,0,0)">
		<line vector-effect="none" class="st0" x1="837.5" y1="41.1" x2="853.5" y2="41.1"/>
	</g>
	<g transform="matrix(0.620079,0,0,0.620079,0,0)">
		<line vector-effect="none" class="st0" x1="837.5" y1="33.1" x2="853.5" y2="33.1"/>
	</g>
	<g transform="matrix(0.620079,0,0,0.620079,0,0)">
		<line vector-effect="none" class="st3" x1="840.8" y1="30.3" x2="840.8" y2="64.9"/>
	</g>
	<g transform="matrix(0.620079,0,0,0.620079,0,0)">
		<g class="st2">
			<path d="M840.3,30.6c0-3.1,3.2-6,7.1-6c2.1,0,3.5,1.2,3.5,3c0,3-3.9,6-7.1,6C841.8,33.6,840.3,32.5,840.3,30.6z"/>
		</g>
	</g>
	<g transform="matrix(0.620079,0,0,0.620079,0,0)">
		<line vector-effect="none" class="st0" x1="855.5" y1="41.1" x2="871.5" y2="41.1"/>
	</g>
	<g transform="matrix(0.620079,0,0,0.620079,0,0)">
		<line vector-effect="none" class="st0" x1="855.5" y1="33.1" x2="871.5" y2="33.1"/>
	</g>
	<g transform="matrix(0.620079,0,0,0.620079,0,0)">
		<line vector-effect="none" class="st3" x1="858.8" y1="30.3" x2="858.8" y2="64.9"/>
	</g>
	<g transform="matrix(0.620079,0,0,0.620079,0,0)">
		<g class="st2">
			<path d="M858.3,30.6c0-3.1,3.2-6,7.1-6c2.1,0,3.5,1.2,3.5,3c0,3-3.9,6-7.1,6C859.8,33.6,858.3,32.5,858.3,30.6z"/>
		</g>
	</g>
	<g transform="matrix(0.620079,0,0,0.620079,0,0)">
		<line vector-effect="none" class="st0" x1="873.5" y1="41.1" x2="889.5" y2="41.1"/>
	</g>
	<g transform="matrix(0.620079,0,0,0.620079,0,0)">
		<line vector-effect="none" class="st0" x1="873.5" y1="33.1" x2="889.5" y2="33.1"/>
	</g>
	<g transform="matrix(0.620079,0,0,0.620079,0,0)">
		<line vector-effect="none" class="st3" x1="876.8" y1="30.3" x2="876.8" y2="64.9"/>
	</g>
	<g transform="matrix(0.620079,0,0,0.620079,0,0)">
		<g class="st2">
			<path d="M876.3,30.6c0-3.1,3.2-6,7.1-6c2.1,0,3.5,1.2,3.5,3c0,3-3.9,6-7.1,6C877.8,33.6,876.3,32.5,876.3,30.6z"/>
		</g>
	</g>
	<g transform="matrix(0.620079,0,0,0.620079,0,0)">
		<line vector-effect="none" class="st0" x1="891.5" y1="41.1" x2="907.5" y2="41.1"/>
	</g>
	<g transform="matrix(0.620079,0,0,0.620079,0,0)">
		<line vector-effect="none" class="st0" x1="891.5" y1="33.1" x2="907.5" y2="33.1"/>
	</g>
	<g transform="matrix(0.620079,0,0,0.620079,0,0)">
		<line vector-effect="none" class="st3" x1="894.8" y1="30.3" x2="894.8" y2="64.9"/>
	</g>
	<g transform="matrix(0.620079,0,0,0.620079,0,0)">
		<g class="st2">
			<path d="M894.3,30.6c0-3.1,3.2-6,7.1-6c2.1,0,3.5,1.2,3.5,3c0,3-3.9,6-7.1,6C895.8,33.6,894.3,32.5,894.3,30.6z"/>
		</g>
	</g>
	<g transform="matrix(0.620079,0,0,0.620079,0,0)">
		<line vector-effect="none" class="st0" x1="921.8" y1="41.1" x2="937.8" y2="41.1"/>
	</g>
	<g transform="matrix(0.620079,0,0,0.620079,0,0)">
		<line vector-effect="none" class="st0" x1="921.8" y1="33.1" x2="937.8" y2="33.1"/>
	</g>
	<g transform="matrix(0.620079,0,0,0.620079,0,0)">
		<line vector-effect="none" class="st3" x1="925" y1="30.3" x2="925" y2="64.9"/>
	</g>
	<g transform="matrix(0.620079,0,0,0.620079,0,0)">
		<g class="st2">
			<path d="M924.5,30.6c0-3.1,3.2-6,7.1-6c2.1,0,3.5,1.2,3.5,3c0,3-3.9,6-7.1,6C926,33.6,924.5,32.5,924.5,30.6z"/>
		</g>
	</g>
	<g transform="matrix(0.620079,0,0,0.620079,0,0)">
		<line vector-effect="none" class="st0" x1="939.8" y1="41.1" x2="955.8" y2="41.1"/>
	</g>
	<g transform="matrix(0.620079,0,0,0.620079,0,0)">
		<line vector-effect="none" class="st0" x1="939.8" y1="33.1" x2="955.8" y2="33.1"/>
	</g>
	<g transform="matrix(0.620079,0,0,0.620079,0,0)">
		<line vector-effect="none" class="st3" x1="943" y1="30.3" x2="943" y2="65.9"/>
	</g>
	<g transform="matrix(0.620079,0,0,0.620079,0,0)">
		<g class="st2">
			<path d="M942.5,30.6c0-3.1,3.2-6,7.1-6c2.1,0,3.5,1.2,3.5,3c0,3-3.9,6-7.1,6C944,33.6,942.5,32.5,942.5,30.6z"/>
		</g>
	</g>
	<g transform="matrix(0.620079,0,0,0.620079,0,0)">
		<line vector-effect="none" class="st0" x1="957.8" y1="41.1" x2="973.8" y2="41.1"/>
	</g>
	<g transform="matrix(0.620079,0,0,0.620079,0,0)">
		<line vector-effect="none" class="st0" x1="957.8" y1="33.1" x2="973.8" y2="33.1"/>
	</g>
	<g transform="matrix(0.620079,0,0,0.620079,0,0)">
		<line vector-effect="none" class="st3" x1="961" y1="34.3" x2="961" y2="66.9"/>
	</g>
	<g transform="matrix(0.620079,0,0,0.620079,0,0)">
		<g class="st2">
			<path d="M960.5,34.6c0-3.1,3.2-6,7.1-6c2.1,0,3.5,1.2,3.5,3c0,3-3.9,6-7.1,6C962,37.6,960.5,36.5,960.5,34.6z"/>
		</g>
	</g>
	<g transform="matrix(0.620079,0,0,0.620079,0,0)">
		<line vector-effect="none" class="st0" x1="975.8" y1="41.1" x2="991.8" y2="41.1"/>
	</g>
	<g transform="matrix(0.620079,0,0,0.620079,0,0)">
		<line vector-effect="none" class="st0" x1="975.8" y1="33.1" x2="991.8" y2="33.1"/>
	</g>
	<g transform="matrix(0.620079,0,0,0.620079,0,0)">
		<line vector-effect="none" class="st3" x1="979" y1="34.3" x2="979" y2="64.9"/>
	</g>
	<g transform="matrix(0.620079,0,0,0.620079,0,0)">
		<g class="st2">
			<path d="M978.5,34.6c0-3.1,3.2-6,7.1-6c2.1,0,3.5,1.2,3.5,3c0,3-3.9,6-7.1,6C980,37.6,978.5,36.5,978.5,34.6z"/>
		</g>
	</g>
	<g transform="matrix(0.620079,0,0,0.620079,0,0)">
		<line vector-effect="none" class="st0" x1="1002" y1="41.1" x2="1018" y2="41.1"/>
	</g>
	<g transform="matrix(0.620079,0,0,0.620079,0,0)">
		<line vector-effect="none" class="st0" x1="1002" y1="33.1" x2="1018" y2="33.1"/>
	</g>
	<g transform="matrix(0.620079,0,0,0.620079,0,0)">
		<line vector-effect="none" class="st3" x1="1005.3" y1="34.3" x2="1005.3" y2="64.9"/>
	</g>
	<g transform="matrix(0.620079,0,0,0.620079,0,0)">
		<g class="st2">
			<path d="M1004.8,34.6c0-3.1,3.2-6,7.1-6c2.1,0,3.5,1.2,3.5,3c0,3-3.9,6-7.1,6C1006.3,37.6,1004.8,36.5,1004.8,34.6z"/>
		</g>
	</g>
	<g transform="matrix(0.620079,0,0,0.620079,0,0)">
		<g class="st2">
			<path d="M993.5,20c0-0.6,0.5-0.9,1-0.9c0.3,0,0.6,0.2,0.6,0.5c0,0.6-0.2,8.3-0.2,9c0,0.2,0.1,0.4,0.4,0.5c0.1,0,0.1,0,0.2,0
				c0.3,0,0.5-0.3,0.7-0.4c0.4-0.2,0.7-0.4,1.1-0.4c0.2-0.1,0.4-0.1,0.7-0.1c1.5,0.1,2.9,1.2,2.9,3.1c0,1.5-1,3.4-3.8,5.4
				c-0.8,0.5-1.6,1.4-2.5,2c0,0-0.1,0.1-0.2,0.1s-0.2,0-0.3-0.2C993.6,38.2,993.5,20,993.5,20z M995.4,36.2c0.1,0,0.2,0,0.3-0.1
				c1-0.6,1.9-1.6,2.3-2.4c0.4-0.7,0.5-1.3,0.5-1.9c0-0.6-0.2-1.2-0.5-1.5c-0.2-0.2-0.5-0.4-0.8-0.4s-0.5,0.1-0.8,0.2
				c-0.4,0.3-1.3,1-1.4,1.3c0,0.1-0.1,0.5-0.1,1c0,1.3,0.1,3.2,0.1,3.2C995,35.9,995.1,36.2,995.4,36.2z"/>
		</g>
	</g>
	<g transform="matrix(0.620079,0,0,0.620079,0,0)">
		<line vector-effect="none" class="st0" x1="1020" y1="41.1" x2="1036" y2="41.1"/>
	</g>
	<g transform="matrix(0.620079,0,0,0.620079,0,0)">
		<line vector-effect="none" class="st0" x1="1020" y1="33.1" x2="1036" y2="33.1"/>
	</g>
	<g transform="matrix(0.620079,0,0,0.620079,0,0)">
		<line vector-effect="none" class="st3" x1="1023.3" y1="34.3" x2="1023.3" y2="64.9"/>
	</g>
	<g transform="matrix(0.620079,0,0,0.620079,0,0)">
		<g class="st2">
			<path d="M1022.8,34.6c0-3.1,3.2-6,7.1-6c2.1,0,3.5,1.2,3.5,3c0,3-3.9,6-7.1,6C1024.3,37.6,1022.8,36.5,1022.8,34.6z"/>
		</g>
	</g>
	<g transform="matrix(0.620079,0,0,0.620079,0,0)">
		<line vector-effect="none" class="st0" x1="1038" y1="41.1" x2="1054" y2="41.1"/>
	</g>
	<g transform="matrix(0.620079,0,0,0.620079,0,0)">
		<line vector-effect="none" class="st3" x1="1041.3" y1="38.3" x2="1041.3" y2="64.9"/>
	</g>
	<g transform="matrix(0.620079,0,0,0.620079,0,0)">
		<g class="st2">
			<path d="M1040.8,38.6c0-3.1,3.2-6,7.1-6c2.1,0,3.5,1.2,3.5,3c0,3-3.9,6-7.1,6C1042.3,41.6,1040.8,40.5,1040.8,38.6z"/>
		</g>
	</g>
	<g transform="matrix(0.620079,0,0,0.620079,0,0)">
		<line vector-effect="none" class="st0" x1="1056" y1="41.1" x2="1072" y2="41.1"/>
	</g>
	<g transform="matrix(0.620079,0,0,0.620079,0,0)">
		<line vector-effect="none" class="st3" x1="1059.3" y1="38.3" x2="1059.3" y2="64.9"/>
	</g>
	<g transform="matrix(0.620079,0,0,0.620079,0,0)">
		<g class="st2">
			<path d="M1058.8,38.6c0-3.1,3.2-6,7.1-6c2.1,0,3.5,1.2,3.5,3c0,3-3.9,6-7.1,6C1060.3,41.6,1058.8,40.5,1058.8,38.6z"/>
		</g>
	</g>
	<g transform="matrix(0.620079,0,0,0.620079,0,0)">
		<line vector-effect="none" class="st0" x1="1074" y1="41.1" x2="1090" y2="41.1"/>
	</g>
	<g transform="matrix(0.620079,0,0,0.620079,0,0)">
		<line vector-effect="none" class="st3" x1="1077.3" y1="38.3" x2="1077.3" y2="64.9"/>
	</g>
	<g transform="matrix(0.620079,0,0,0.620079,0,0)">
		<g class="st2">
			<path d="M1076.8,38.6c0-3.1,3.2-6,7.1-6c2.1,0,3.5,1.2,3.5,3c0,3-3.9,6-7.1,6C1078.3,41.6,1076.8,40.5,1076.8,38.6z"/>
		</g>
	</g>
	<g transform="matrix(0.620079,0,0,0.620079,0,0)">
		<line vector-effect="none" class="st0" x1="1104" y1="41.1" x2="1121" y2="41.1"/>
	</g>
	<g transform="matrix(0.620079,0,0,0.620079,0,0)">
		<line vector-effect="none" class="st3" x1="1107.5" y1="38.3" x2="1107.5" y2="65.1"/>
	</g>
	<g transform="matrix(0.620079,0,0,0.620079,0,0)">
		<g class="st2">
			<path d="M1107,38.7c0-1.9,1.7-6.2,7.3-6.2c2.1,0,3.6,1.2,3.6,3.1c0,1.2-1.2,6.2-7.3,6.2C1108.6,41.7,1107,40.6,1107,38.7z
				 M1116.8,35.5c0-0.3-0.1-0.5-0.2-0.7c-0.3-0.4-0.6-0.8-1.3-0.8c-0.8,0-1.9,0.4-3.7,1.4c-2.6,1.5-3.4,2.5-3.4,3.3
				c0,0.3,0.1,0.5,0.2,0.7c0.3,0.4,0.7,0.8,1.5,0.8s2-0.4,3.6-1.5C1116,37.1,1116.8,36.2,1116.8,35.5z"/>
		</g>
	</g>
	<g transform="matrix(0.620079,0,0,0.620079,0,0)">
		<g class="st2">
			<path d="M1122.5,38.7c-0.9,0-1.6-0.7-1.6-1.6c0-0.9,0.7-1.6,1.6-1.6s1.6,0.7,1.6,1.6C1124.1,38,1123.4,38.7,1122.5,38.7z"/>
		</g>
	</g>
</g>
</svg>
