<?xml version="1.0" encoding="utf-8"?>
<!-- Generator: Adobe Illustrator 26.3.1, SVG Export Plug-In . SVG Version: 6.00 Build 0)  -->
<svg version="1.1" id="Layer_1" xmlns="http://www.w3.org/2000/svg" xmlns:xlink="http://www.w3.org/1999/xlink" x="0px" y="0px"
	 viewBox="0 0 720.1 64.2" style="enable-background:new 0 0 720.1 64.2;" xml:space="preserve">
<style type="text/css">
	.st0{fill:none;stroke:#000000;stroke-width:0.4806;stroke-linejoin:bevel;stroke-miterlimit:6.2008;}
	.st1{fill:none;stroke:#000000;stroke-width:1.538;stroke-linejoin:bevel;stroke-miterlimit:6.2008;}
	.st2{fill:none;stroke:#000000;stroke-width:0.2884;stroke-linejoin:bevel;stroke-miterlimit:6.2008;}
	
		.st3{fill-rule:evenodd;clip-rule:evenodd;stroke:#000000;stroke-width:9.611224e-02;stroke-linejoin:bevel;stroke-miterlimit:6.2008;}
	.st4{enable-background:new    ;}
	.st5{fill:none;stroke:#000000;stroke-width:0.3845;stroke-linejoin:bevel;stroke-miterlimit:6.2008;}
	.st6{fill-rule:evenodd;clip-rule:evenodd;}
</style>
<g>
	<g transform="matrix(0.620079,0,0,0.620079,0,0)">
		<line vector-effect="none" class="st0" x1="202" y1="49.1" x2="202" y2="81.1"/>
	</g>
	<g transform="matrix(0.620079,0,0,0.620079,0,0)">
		<line vector-effect="none" class="st0" x1="357" y1="49.1" x2="357" y2="81.1"/>
	</g>
	<g transform="matrix(0.620079,0,0,0.620079,0,0)">
		<line vector-effect="none" class="st0" x1="514.3" y1="49.1" x2="514.3" y2="81.1"/>
	</g>
	<g transform="matrix(0.620079,0,0,0.620079,0,0)">
		<line vector-effect="none" class="st0" x1="609.5" y1="49.1" x2="609.5" y2="81.1"/>
	</g>
	<g transform="matrix(0.620079,0,0,0.620079,0,0)">
		<line vector-effect="none" class="st0" x1="777" y1="49.1" x2="777" y2="81.1"/>
	</g>
	<g transform="matrix(0.620079,0,0,0.620079,0,0)">
		<line vector-effect="none" class="st0" x1="900.3" y1="49.1" x2="900.3" y2="81.1"/>
	</g>
	<g transform="matrix(0.620079,0,0,0.620079,0,0)">
		<line vector-effect="none" class="st0" x1="1053" y1="49.1" x2="1053" y2="81.1"/>
	</g>
	<g transform="matrix(0.620079,0,0,0.620079,0,0)">
		<line vector-effect="none" class="st0" x1="1153.5" y1="49.1" x2="1153.5" y2="81.1"/>
	</g>
	<g transform="matrix(0.620079,0,0,0.620079,0,0)">
		<line vector-effect="none" class="st1" x1="1159.3" y1="49.1" x2="1159.3" y2="81.1"/>
	</g>
	<g transform="matrix(0.620079,0,0,0.620079,0,0)">
		<path vector-effect="none" class="st2" d="M742.5,31.1c10.2-8.2,41-8.2,51.2,0"/>
	</g>
	<g transform="matrix(0.620079,0,0,0.620079,0,0)">
		<path vector-effect="none" class="st3" d="M742.5,31.1c10.2-9.2,41-9.2,51.2,0C783.5,23.9,752.8,23.9,742.5,31.1"/>
	</g>
	<g transform="matrix(0.620079,0,0,0.620079,0,0)">
		<path vector-effect="none" class="st2" d="M1018.5,31.1c10.2-8.2,41-8.2,51.2,0"/>
	</g>
	<g transform="matrix(0.620079,0,0,0.620079,0,0)">
		<path vector-effect="none" class="st3" d="M1018.5,31.1c10.2-9.2,41-9.2,51.2,0C1059.5,23.9,1028.8,23.9,1018.5,31.1"/>
	</g>
	<g transform="matrix(0.620079,0,0,0.620079,270.354,1533.26)">
	</g>
	<g transform="matrix(0.620079,0,0,0.620079,270.354,1533.26)">
		<g class="st4">
			<path d="M-379-2472.7h0.6v17.5c0,1.9-2.5,3.8-4.5,3.8c-1.2,0-2.2-0.7-2.2-1.9c0-2,2-3.8,4.4-3.8c0.7,0,1.2,0.2,1.6,0.5
				L-379-2472.7z"/>
		</g>
		<g class="st4">
			<path d="M-371.3-2458.4v-1.8h10.5v1.8H-371.3z M-360.8-2455.8v1.9h-10.5v-1.9H-360.8z"/>
			<path d="M-347.1-2466.6h0.7v13.1c0,0.4,0.3,0.8,0.7,0.8h2.1v0.9h-8.1v-0.9h1.7c0.5,0,0.8-0.5,0.8-0.9v-9.9c0-0.4-0.3-0.8-0.7-0.8
				h-2.4v-1C-350.3-2465.3-348.7-2465.7-347.1-2466.6z"/>
			<path d="M-335.6-2466.6c1.5,0,3.4,0.8,3.4,2.6c0,1-0.5,1.7-1.6,1.7c-0.8,0-1.3-0.6-1.3-1.4c0-0.5,0.4-0.9,0.4-1.4
				s-0.5-0.6-0.9-0.6c-2.6,0.1-2.7,4.4-2.8,6.4c0.8-0.8,1.9-1.3,3.1-1.3c2.5,0,3.7,1.9,3.7,4.2c0,2.9-1.9,5-4.8,5
				c-3.9,0-5.1-3.7-5.1-7C-341.5-2462-339.9-2466.6-335.6-2466.6z M-338.3-2456c0,1.2,0.2,3.6,1.9,3.6c1.7,0,1.9-2.3,1.9-3.6
				c0-1.2-0.1-3.3-1.7-3.3C-337.9-2459.3-338.3-2457.2-338.3-2456z"/>
			<path d="M-330.2-2458.9c0-3.2,1.3-7.5,5.6-7.5c4.1,0,5.4,4.6,5.4,7.5c0,3.1-1.3,7.5-5.5,7.5C-329-2451.5-330.2-2456-330.2-2458.9
				z M-324.8-2452.5c2.1,0,2.1-3.8,2.1-6.5c0-3.2,0-6.5-2-6.5c-2.1,0-2.1,3.4-2.1,6.9C-326.8-2456.3-326.9-2452.5-324.8-2452.5z"/>
		</g>
	</g>
	<g transform="matrix(0.620079,0,0,0.620079,270.354,1533.26)">
	</g>
	<g transform="matrix(0.620079,0,0,0.620079,0,0)">
	</g>
	<g transform="matrix(0.620079,0,0,0.620079,265.394,1586.58)">
	</g>
	<g transform="matrix(0.620079,0,0,0.620079,265.394,1586.58)">
		<g class="st4">
			<path d="M-366.7-2505.3c0,0.7-0.2,1.4-0.7,2c-0.4,0.4-0.7,0.6-1.2,0.9c-0.3,0.2-0.6,0.2-1,0.3c-0.1,0-0.1,0.2-0.1,0.3
				s0,0.1,0,0.2c0.1,0.1,0.2,0.1,0.3,0.2l1,0.3l0.7,0.4c0.3,0.2,0.5,0.4,0.7,0.7c0.3,0.3,0.5,0.6,0.6,0.9c0.2,0.4,0.2,0.8,0.3,1.3
				v0.2c0,2.8-3.2,4.4-6.3,4.4h-0.3c-3.1-0.1-5.3-1.4-5.4-3.9c0-0.7,0.1-1.5,0.7-1.9c0.4-0.4,1-0.7,1.5-0.8c0.1,0,0.2,0,0.4,0
				c0.8,0,1.7,0.5,2.1,1.3c0.1,0.3,0.2,0.6,0.2,1c0,0.9-0.7,1.4-0.7,2.1v0.2c0,0.5,0.9,0.7,1.1,0.7c0,0,0.4,0,0.5,0
				c0.7,0,1.8-0.5,1.8-3.4c0-0.4-0.1-2.7-3.7-2.7c-0.3,0-0.8-0.1-0.8-0.5c0-0.4,0.4-0.6,0.7-0.7c2-0.1,3.7-0.7,3.7-2.6v-0.2
				c0-0.5,0-0.9-0.1-1.4c-0.2-0.9-0.9-1.3-1.7-1.4h-0.3c-0.3,0-0.6,0-0.9,0.1c-0.2,0-1,0.3-1,0.6v0.1c0,0.5,0.5,0.5,0.6,0.5
				c0.2,0.1,0.9,0.1,1,1.3v0.3c0,1-0.7,2-2.1,2h-0.2c-1.9-0.1-2.5-1.5-2.5-2.5c0-1.7,2.7-3.7,5.4-3.7c0.2,0,0.3,0,0.5,0
				C-370.6-2509.1-366.7-2508.2-366.7-2505.3z"/>
		</g>
	</g>
	<g transform="matrix(0.620079,0,0,0.620079,265.394,1586.58)">
		<g class="st4">
			<path d="M-365-2482.3c0,0.4-0.2,0.7-0.5,0.7h-1.9v1.7c0,1,0.6,1.2,1,1.2s0.7,0.2,0.7,0.6c0,0.5-0.3,0.6-0.6,0.6h-7.5
				c-0.5,0-0.6-0.3-0.6-0.6s0.2-0.6,0.7-0.6c0.6,0,1.3-0.3,1.3-1.1v-1.8h-5.8c-0.4,0-0.6-0.4-0.6-0.7c0-0.1,0-0.2,0.1-0.3v-0.1
				l0.2-0.3c0.9-1.3,3.6-5.7,3.6-9.6c0-0.5,0.4-0.6,0.7-0.6c0.3,0,2.1,0.1,2.6,0.1c0.6,0,2.3-0.1,2.5-0.1c0.3,0,0.5,0.2,0.5,0.5
				c0,0.1,0,0.1,0,0.1c-0.1,0.4-5.5,7.4-8.1,9.5h4.3v-2.5c0-0.4,0.2-0.6,0.3-0.7l3.8-3.6c0.2-0.2,0.3-0.3,0.6-0.3
				c0.4,0,0.4,0.3,0.4,0.5v6.6h1.9C-365.2-2483-365-2482.7-365-2482.3z"/>
		</g>
	</g>
	<g transform="matrix(0.620079,0,0,0.620079,265.394,1586.58)">
	</g>
	<g transform="matrix(0.620079,0,0,0.620079,0,0)">
	</g>
	<g transform="matrix(0.620079,0,0,0.620079,0,0)">
		<line vector-effect="none" class="st5" x1="0" y1="81.1" x2="1161.3" y2="81.1"/>
	</g>
	<g transform="matrix(0.620079,0,0,0.620079,0,0)">
		<line vector-effect="none" class="st5" x1="0" y1="73.1" x2="1161.3" y2="73.1"/>
	</g>
	<g transform="matrix(0.620079,0,0,0.620079,0,0)">
		<line vector-effect="none" class="st5" x1="0" y1="65.1" x2="1161.3" y2="65.1"/>
	</g>
	<g transform="matrix(0.620079,0,0,0.620079,0,0)">
		<line vector-effect="none" class="st5" x1="0" y1="57.1" x2="1161.3" y2="57.1"/>
	</g>
	<g transform="matrix(0.620079,0,0,0.620079,0,0)">
		<line vector-effect="none" class="st5" x1="0" y1="49.1" x2="1161.3" y2="49.1"/>
	</g>
	<g transform="matrix(0.620079,0,0,0.620079,0,0)">
		<g class="st4">
			<path d="M23,58c0,4.2-1.7,8.1-4.4,11.1c-3.4,3.6-7.5,6.1-11.7,8.2c-0.2,0.1-0.4,0.2-0.5,0.2c-0.3,0-0.4-0.2-0.4-0.4
				c0-0.3,0.2-0.4,0.5-0.6c4-2.3,7.3-5,9.2-8c2-3.1,2.7-6.9,2.7-10.2c0-5-1.5-8.3-4.9-8.3c-3.3,0-5.2,2.3-5.2,3.6
				c0,0.3,0.1,0.6,0.5,0.6S9.5,54,10.4,54c1.6,0,3.1,1.3,3.1,3.3s-1.4,3.4-3.4,3.4c-2.6,0-3.9-2.2-3.9-4.8c0-3.1,2.5-7.1,8.1-7.1
				C19.6,48.7,23,52.4,23,58z M27.9,53.1c0,1-0.8,1.8-1.8,1.8s-1.8-0.8-1.8-1.8s0.8-1.8,1.8-1.8C27.1,51.3,27.9,52.1,27.9,53.1z
				 M27.9,61.1c0,1-0.7,1.7-1.7,1.7s-1.7-0.7-1.7-1.7s0.7-1.7,1.7-1.7C27.1,59.4,27.9,60.1,27.9,61.1z"/>
		</g>
	</g>
	<g transform="matrix(0.620079,0,0,0.620079,0,0)">
		<g class="st4">
			<path d="M34,60c0-0.6,0.5-0.9,1-0.9c0.3,0,0.6,0.2,0.6,0.5c0,0.6-0.2,8.3-0.2,9c0,0.2,0.1,0.4,0.4,0.5c0.1,0,0.1,0,0.2,0
				c0.3,0,0.5-0.3,0.7-0.4c0.4-0.2,0.7-0.4,1.1-0.4c0.2-0.1,0.4-0.1,0.7-0.1c1.5,0.1,2.9,1.2,2.9,3.1c0,1.5-1,3.4-3.8,5.4
				c-0.8,0.5-1.6,1.4-2.5,2c0,0-0.1,0.1-0.2,0.1s-0.2,0-0.3-0.2C34.1,78.2,34,60,34,60z M35.9,76.2c0.1,0,0.2,0,0.3-0.1
				c1-0.6,1.9-1.6,2.3-2.4c0.4-0.7,0.5-1.3,0.5-1.9c0-0.6-0.2-1.2-0.5-1.5c-0.2-0.2-0.5-0.4-0.8-0.4s-0.5,0.1-0.8,0.2
				c-0.4,0.3-1.3,1-1.4,1.3c0,0.1-0.1,0.5-0.1,1c0,1.3,0.1,3.2,0.1,3.2C35.5,75.9,35.6,76.2,35.9,76.2z"/>
		</g>
	</g>
	<g transform="matrix(0.620079,0,0,0.620079,0,0)">
		<path vector-effect="none" class="st2" d="M81.5,53.1c4.8-13.8,42-29.5,55.2-23.2"/>
	</g>
	<g transform="matrix(0.620079,0,0,0.620079,0,0)">
		<path vector-effect="none" class="st3" d="M81.5,53.1c4.2-14.8,41.5-30.5,55.2-23.2C124,24.6,86.8,40.3,81.5,53.1"/>
	</g>
	<g transform="matrix(0.620079,0,0,0.620079,0,0)">
		<path vector-effect="none" class="st6" d="M215,83.1h48.8v-4H215V83.1"/>
	</g>
	<g transform="matrix(0.620079,0,0,0.620079,0,0)">
		<path vector-effect="none" class="st6" d="M370,75.1l29.8,2v-4l-29.8-2V75.1"/>
	</g>
	<g transform="matrix(0.620079,0,0,0.620079,0,0)">
		<path vector-effect="none" class="st2" d="M376,41.9c18-16,136.8-16,155,0"/>
	</g>
	<g transform="matrix(0.620079,0,0,0.620079,0,0)">
		<path vector-effect="none" class="st3" d="M376,41.9c18-17,136.8-17,155,0C512.8,26.9,394,26.9,376,41.9"/>
	</g>
	<g transform="matrix(0.620079,0,0,0.620079,0,0)">
		<path vector-effect="none" class="st6" d="M663.8,81.1h48.5v-4h-48.5V81.1"/>
	</g>
	<g transform="matrix(0.620079,0,0,0.620079,0,0)">
		<line vector-effect="none" class="st0" x1="909" y1="91.6" x2="909" y2="83.1"/>
	</g>
	<g transform="matrix(0.620079,0,0,0.620079,0,0)">
		<line vector-effect="none" class="st0" x1="989.3" y1="91.6" x2="989.3" y2="83.1"/>
	</g>
	<g transform="matrix(0.620079,0,0,0.620079,0,0)">
		<line vector-effect="none" class="st0" x1="909" y1="91.1" x2="941.8" y2="91.1"/>
	</g>
	<g transform="matrix(0.620079,0,0,0.620079,0,0)">
		<line vector-effect="none" class="st0" x1="956.3" y1="91.1" x2="989.3" y2="91.1"/>
	</g>
	<g transform="matrix(0.620079,0,0,0.620079,0,0)">
	</g>
	<g transform="matrix(0.620079,0,0,0.620079,2484.04,1734.26)">
	</g>
	<g transform="matrix(0.620079,0,0,0.620079,2484.04,1734.26)">
		<g class="st4">
			<path d="M-3062.2-2701.8c0-1,0.6-1.7,1.4-1.7c0.6,0,1.1,0.4,1.1,1.1c0,0.8-0.4,1.1-0.7,1.3c-0.2,0.1-0.4,0.2-0.4,0.3
				c0,0.3,0.5,0.5,1.1,0.5c1.8,0,2.7-1.8,2.7-3.1c0-0.9-0.5-1.6-1.6-1.6h-0.3c-0.4,0-0.6-0.2-0.6-0.4c0-0.3,0.2-0.4,0.6-0.4h0.3
				c1.7,0,2.7-1.1,2.7-2.6c0-0.6-0.4-1.3-1.5-1.3c-0.6,0-1,0.2-1,0.4c0,0.1,0.1,0.2,0.4,0.4c0.1,0.2,0.3,0.4,0.3,0.7
				c0,0.8-0.6,1.4-1.3,1.4s-1.1-0.5-1.1-1.3c0.1-1.6,1.6-2.5,3.4-2.5c1.8,0,3.2,0.9,3.2,2.5c0,1.2-1,2.1-2.2,2.6
				c-0.2,0.1-0.4,0.2-0.4,0.3s0.1,0.2,0.3,0.3c0.8,0.4,1.1,1.1,1.1,1.8c0,2.3-2,3.8-4.5,3.8
				C-3061.3-2699.6-3062.2-2700.6-3062.2-2701.8z"/>
		</g>
	</g>
	<g transform="matrix(0.620079,0,0,0.620079,2484.04,1734.26)">
	</g>
	<g transform="matrix(0.620079,0,0,0.620079,0,0)">
	</g>
	<g transform="matrix(0.620079,0,0,0.620079,0,0)">
		<path vector-effect="none" class="st2" d="M919.3,21.9c18.2-15.2,133-11.5,150.5,4.8"/>
	</g>
	<g transform="matrix(0.620079,0,0,0.620079,0,0)">
		<path vector-effect="none" class="st3" d="M919.3,21.9c18.2-16.2,133-12.5,150.5,4.8C1052.3,11.3,937.5,7.6,919.3,21.9"/>
	</g>
	<g transform="matrix(0.620079,0,0,0.620079,0,0)">
		<line vector-effect="none" class="st0" x1="71.3" y1="103.6" x2="71.3" y2="95.1"/>
	</g>
	<g transform="matrix(0.620079,0,0,0.620079,0,0)">
		<line vector-effect="none" class="st0" x1="118.5" y1="91.6" x2="118.5" y2="83.1"/>
	</g>
	<g transform="matrix(0.620079,0,0,0.620079,0,0)">
		<line vector-effect="none" class="st0" x1="71.3" y1="103.1" x2="87.8" y2="98.9"/>
	</g>
	<g transform="matrix(0.620079,0,0,0.620079,0,0)">
		<line vector-effect="none" class="st0" x1="101.8" y1="95.3" x2="118.5" y2="91.1"/>
	</g>
	<g transform="matrix(0.620079,0,0,0.620079,0,0)">
	</g>
	<g transform="matrix(0.620079,0,0,0.620079,365.226,1749.14)">
	</g>
	<g transform="matrix(0.620079,0,0,0.620079,365.226,1749.14)">
		<g class="st4">
			<path d="M-499.4-2719.8c0-1,0.6-1.7,1.4-1.7c0.6,0,1.1,0.4,1.1,1.1c0,0.8-0.4,1.1-0.7,1.3c-0.2,0.1-0.4,0.2-0.4,0.3
				c0,0.3,0.5,0.5,1.1,0.5c1.8,0,2.7-1.8,2.7-3.1c0-0.9-0.5-1.6-1.6-1.6h-0.3c-0.4,0-0.6-0.2-0.6-0.4c0-0.3,0.2-0.4,0.6-0.4h0.3
				c1.7,0,2.7-1.1,2.7-2.6c0-0.6-0.4-1.3-1.5-1.3c-0.6,0-1,0.2-1,0.4c0,0.1,0.1,0.2,0.4,0.4c0.1,0.2,0.3,0.4,0.3,0.7
				c0,0.8-0.6,1.4-1.3,1.4c-0.7,0-1.1-0.5-1.1-1.3c0.1-1.6,1.6-2.6,3.4-2.6s3.2,0.9,3.2,2.5c0,1.2-1,2.1-2.2,2.6
				c-0.2,0.1-0.4,0.2-0.4,0.3s0.1,0.2,0.3,0.3c0.8,0.4,1.1,1.1,1.1,1.8c0,2.3-2,3.8-4.5,3.8
				C-498.5-2717.5-499.4-2718.6-499.4-2719.8z"/>
		</g>
	</g>
	<g transform="matrix(0.620079,0,0,0.620079,365.226,1749.14)">
	</g>
	<g transform="matrix(0.620079,0,0,0.620079,0,0)">
	</g>
	<g transform="matrix(0.620079,0,0,0.620079,0,0)">
		<path vector-effect="none" class="st2" d="M221,41.9c8.5-9.5,39-7.2,46.2,3.2"/>
	</g>
	<g transform="matrix(0.620079,0,0,0.620079,0,0)">
		<path vector-effect="none" class="st3" d="M221,41.9c8.5-10.5,39-8.2,46.2,3.2C260,35.6,229.5,33.3,221,41.9"/>
	</g>
	<g transform="matrix(0.620079,0,0,0.620079,718.051,1738.6)">
	</g>
	<g transform="matrix(0.620079,0,0,0.620079,718.051,1738.6)">
		<g class="st4">
			<path d="M-926.2-2707c0-1,0.6-1.7,1.4-1.7c0.6,0,1.1,0.4,1.1,1.1c0,0.8-0.4,1.1-0.7,1.3c-0.2,0.1-0.4,0.2-0.4,0.3
				c0,0.3,0.5,0.5,1.1,0.5c1.8,0,2.7-1.8,2.7-3.1c0-0.9-0.5-1.6-1.6-1.6h-0.3c-0.4,0-0.6-0.2-0.6-0.4c0-0.3,0.2-0.4,0.6-0.4h0.3
				c1.7,0,2.7-1.1,2.7-2.6c0-0.7-0.4-1.3-1.5-1.3c-0.6,0-1,0.2-1,0.4c0,0.1,0.1,0.2,0.4,0.4c0.1,0.2,0.3,0.4,0.3,0.7
				c0,0.8-0.6,1.4-1.3,1.4s-1.1-0.5-1.1-1.3c0.1-1.6,1.6-2.5,3.4-2.5c1.8,0,3.2,0.9,3.2,2.5c0,1.2-1,2.1-2.2,2.6
				c-0.2,0.1-0.4,0.2-0.4,0.3s0.1,0.2,0.3,0.3c0.8,0.4,1.1,1.1,1.1,1.8c0,2.3-2,3.8-4.5,3.8C-925.2-2704.8-926.2-2705.9-926.2-2707z
				"/>
		</g>
	</g>
	<g transform="matrix(0.620079,0,0,0.620079,718.051,1738.6)">
	</g>
	<g transform="matrix(0.620079,0,0,0.620079,0,0)">
	</g>
	<g transform="matrix(0.620079,0,0,0.620079,1831.09,1734.26)">
	</g>
	<g transform="matrix(0.620079,0,0,0.620079,1831.09,1734.26)">
		<g class="st4">
			<path d="M-2272.4-2701.8c0-1,0.6-1.7,1.4-1.7c0.6,0,1.1,0.4,1.1,1.1c0,0.8-0.4,1.1-0.7,1.3c-0.2,0.1-0.4,0.2-0.4,0.3
				c0,0.3,0.5,0.5,1.1,0.5c1.8,0,2.7-1.8,2.7-3.1c0-0.9-0.5-1.6-1.6-1.6h-0.3c-0.4,0-0.6-0.2-0.6-0.4c0-0.3,0.2-0.4,0.6-0.4h0.3
				c1.7,0,2.7-1.1,2.7-2.6c0-0.6-0.4-1.3-1.5-1.3c-0.6,0-1,0.2-1,0.4c0,0.1,0.1,0.2,0.4,0.4c0.1,0.2,0.3,0.4,0.3,0.7
				c0,0.8-0.6,1.4-1.3,1.4s-1.1-0.5-1.1-1.3c0.1-1.6,1.6-2.5,3.4-2.5c1.8,0,3.2,0.9,3.2,2.5c0,1.2-1,2.1-2.2,2.6
				c-0.2,0.1-0.4,0.2-0.4,0.3s0.1,0.2,0.3,0.3c0.8,0.4,1.1,1.1,1.1,1.8c0,2.3-2,3.8-4.5,3.8
				C-2271.5-2699.6-2272.4-2700.6-2272.4-2701.8z"/>
		</g>
	</g>
	<g transform="matrix(0.620079,0,0,0.620079,1831.09,1734.26)">
	</g>
	<g transform="matrix(0.620079,0,0,0.620079,0,0)">
	</g>
	<g transform="matrix(0.620079,0,0,0.620079,0,0)">
		<line vector-effect="none" class="st5" x1="75.5" y1="66.3" x2="75.5" y2="93.1"/>
	</g>
	<g transform="matrix(0.620079,0,0,0.620079,0,0)">
		<g class="st4">
			<path d="M75,66.6c0-3.1,3.2-6,7.1-6c2.1,0,3.5,1.2,3.5,3c0,3-3.9,6-7.1,6C76.5,69.6,75,68.5,75,66.6z"/>
		</g>
	</g>
	<g transform="matrix(0.620079,0,0,0.620079,0,0)">
		<line vector-effect="none" class="st5" x1="108.8" y1="50.3" x2="108.8" y2="77.1"/>
	</g>
	<g transform="matrix(0.620079,0,0,0.620079,0,0)">
		<g class="st4">
			<path d="M108.3,50.6c0-3.1,3.2-6,7.1-6c2.1,0,3.5,1.2,3.5,3c0,3-3.9,6-7.1,6C109.8,53.6,108.3,52.5,108.3,50.6z"/>
		</g>
	</g>
	<g transform="matrix(0.620079,0,0,0.620079,0,0)">
		<g class="st4">
			<path d="M108.4,69.1c0.1,0,0.2,0,0.3,0c1.1-0.1,4.2-0.4,5.9-5.2c0.3-0.9,0.6-2.5,0.6-4.2c0-1.6-0.2-3.3-0.8-4.7
				c-0.1-0.2-0.1-0.3-0.1-0.4c0-0.4,0.3-0.7,0.5-0.8c0.1,0,0.1,0,0.2,0c0.2,0,0.5,0.2,0.7,0.5c0.1,0.3,1.1,3.6,1.1,5.4v0.2
				c-0.1,3.5-1.6,6.8-3.6,9.6c-1.6,2.1-3.1,4.2-3.6,6.8c-0.1,0.4-0.4,0.7-0.7,0.7c-0.2,0-0.4-0.4-0.4-0.4L108.4,69.1L108.4,69.1z"/>
		</g>
	</g>
	<g transform="matrix(0.620079,0,0,0.620079,0,0)">
		<line vector-effect="none" class="st0" x1="129.5" y1="41.1" x2="146.5" y2="41.1"/>
	</g>
	<g transform="matrix(0.620079,0,0,0.620079,0,0)">
		<line vector-effect="none" class="st5" x1="133" y1="38.3" x2="133" y2="65.1"/>
	</g>
	<g transform="matrix(0.620079,0,0,0.620079,0,0)">
		<g class="st4">
			<path d="M132.5,38.7c0-1.9,1.7-6.2,7.3-6.2c2.1,0,3.6,1.2,3.6,3.1c0,1.2-1.2,6.2-7.3,6.2C134.1,41.7,132.5,40.6,132.5,38.7z
				 M142.3,35.5c0-0.3-0.1-0.5-0.2-0.7c-0.3-0.4-0.6-0.8-1.3-0.8c-0.8,0-1.9,0.4-3.7,1.4c-2.6,1.5-3.4,2.5-3.4,3.3
				c0,0.3,0.1,0.5,0.2,0.7c0.3,0.4,0.7,0.8,1.5,0.8s2-0.4,3.6-1.5C141.5,37.1,142.3,36.2,142.3,35.5z"/>
		</g>
	</g>
	<g transform="matrix(0.620079,0,0,0.620079,0,0)">
		<line vector-effect="none" class="st5" x1="215" y1="50.3" x2="215" y2="82.9"/>
	</g>
	<g transform="matrix(0.620079,0,0,0.620079,0,0)">
		<g class="st4">
			<path d="M214.5,50.6c0-3.1,3.2-6,7.1-6c2.1,0,3.5,1.2,3.5,3c0,3-3.9,6-7.1,6C216,53.6,214.5,52.5,214.5,50.6z"/>
		</g>
	</g>
	<g transform="matrix(0.620079,0,0,0.620079,0,0)">
		<line vector-effect="none" class="st5" x1="239.3" y1="58.3" x2="239.3" y2="82.9"/>
	</g>
	<g transform="matrix(0.620079,0,0,0.620079,0,0)">
		<g class="st4">
			<path d="M238.8,58.6c0-3.1,3.2-6,7.1-6c2.1,0,3.5,1.2,3.5,3c0,3-3.9,6-7.1,6C240.3,61.6,238.8,60.5,238.8,58.6z"/>
		</g>
	</g>
	<g transform="matrix(0.620079,0,0,0.620079,0,0)">
		<line vector-effect="none" class="st5" x1="263.8" y1="54.3" x2="263.8" y2="82.9"/>
	</g>
	<g transform="matrix(0.620079,0,0,0.620079,0,0)">
		<g class="st4">
			<path d="M263.3,54.6c0-3.1,3.2-6,7.1-6c2.1,0,3.5,1.2,3.5,3c0,3-3.9,6-7.1,6C264.8,57.6,263.3,56.5,263.3,54.6z"/>
		</g>
	</g>
	<g transform="matrix(0.620079,0,0,0.620079,0,0)">
		<line vector-effect="none" class="st5" x1="288" y1="50.3" x2="288" y2="77.1"/>
	</g>
	<g transform="matrix(0.620079,0,0,0.620079,0,0)">
		<g class="st4">
			<path d="M287.5,50.7c0-1.9,1.7-6.2,7.3-6.2c2.1,0,3.6,1.2,3.6,3.1c0,1.2-1.2,6.2-7.3,6.2C289.1,53.7,287.5,52.6,287.5,50.7z
				 M297.3,47.5c0-0.3-0.1-0.5-0.2-0.7c-0.3-0.4-0.6-0.8-1.3-0.8c-0.8,0-1.9,0.4-3.7,1.4c-2.6,1.5-3.4,2.5-3.4,3.3
				c0,0.3,0.1,0.5,0.2,0.7c0.3,0.4,0.7,0.8,1.5,0.8s2-0.4,3.6-1.5C296.5,49.1,297.3,48.2,297.3,47.5z"/>
		</g>
	</g>
	<g transform="matrix(0.620079,0,0,0.620079,0,0)">
		<line vector-effect="none" class="st5" x1="370" y1="50.3" x2="370" y2="74.9"/>
	</g>
	<g transform="matrix(0.620079,0,0,0.620079,0,0)">
		<g class="st4">
			<path d="M369.5,50.6c0-3.1,3.2-6,7.1-6c2.1,0,3.5,1.2,3.5,3c0,3-3.9,6-7.1,6C371,53.6,369.5,52.5,369.5,50.6z"/>
		</g>
	</g>
	<g transform="matrix(0.620079,0,0,0.620079,0,0)">
		<line vector-effect="none" class="st5" x1="399.8" y1="54.3" x2="399.8" y2="76.9"/>
	</g>
	<g transform="matrix(0.620079,0,0,0.620079,0,0)">
		<g class="st4">
			<path d="M399.3,54.6c0-3.1,3.2-6,7.1-6c2.1,0,3.5,1.2,3.5,3c0,3-3.9,6-7.1,6C400.8,57.6,399.3,56.5,399.3,54.6z"/>
		</g>
	</g>
	<g transform="matrix(0.620079,0,0,0.620079,0,0)">
		<line vector-effect="none" class="st5" x1="429.8" y1="58.3" x2="429.8" y2="85.1"/>
	</g>
	<g transform="matrix(0.620079,0,0,0.620079,0,0)">
		<g class="st4">
			<path d="M429.3,58.6c0-3.1,3.2-6,7.1-6c2.1,0,3.5,1.2,3.5,3c0,3-3.9,6-7.1,6C430.8,61.6,429.3,60.5,429.3,58.6z"/>
		</g>
	</g>
	<g transform="matrix(0.620079,0,0,0.620079,0,0)">
		<g class="st4">
			<path d="M444.3,54.7c-0.9,0-1.6-0.7-1.6-1.6c0-0.9,0.7-1.6,1.6-1.6s1.6,0.7,1.6,1.6C445.9,54,445.1,54.7,444.3,54.7z"/>
		</g>
	</g>
	<g transform="matrix(0.620079,0,0,0.620079,0,0)">
		<line vector-effect="none" class="st5" x1="485.3" y1="54.3" x2="485.3" y2="81.1"/>
	</g>
	<g transform="matrix(0.620079,0,0,0.620079,0,0)">
		<g class="st4">
			<path d="M484.8,54.6c0-3.1,3.2-6,7.1-6c2.1,0,3.5,1.2,3.5,3c0,3-3.9,6-7.1,6C486.3,57.6,484.8,56.5,484.8,54.6z"/>
		</g>
	</g>
	<g transform="matrix(0.620079,0,0,0.620079,0,0)">
		<g class="st4">
			<path d="M484.9,73.1c0.1,0,0.2,0,0.3,0c1.1-0.1,4.2-0.4,5.9-5.2c0.3-0.9,0.6-2.5,0.6-4.2c0-1.6-0.2-3.3-0.8-4.7
				c-0.1-0.2-0.1-0.3-0.1-0.4c0-0.4,0.3-0.7,0.5-0.8c0.1,0,0.1,0,0.2,0c0.2,0,0.5,0.2,0.7,0.5c0.1,0.3,1.1,3.6,1.1,5.4v0.2
				c-0.1,3.5-1.6,6.8-3.6,9.6c-1.6,2.1-3.1,4.2-3.6,6.8c-0.1,0.4-0.4,0.7-0.7,0.7c-0.2,0-0.4-0.4-0.4-0.4v-7.5H484.9z"/>
		</g>
	</g>
	<g transform="matrix(0.620079,0,0,0.620079,0,0)">
		<line vector-effect="none" class="st5" x1="527.3" y1="50.3" x2="527.3" y2="77.1"/>
	</g>
	<g transform="matrix(0.620079,0,0,0.620079,0,0)">
		<g class="st4">
			<path d="M526.8,50.7c0-1.9,1.7-6.2,7.3-6.2c2.1,0,3.6,1.2,3.6,3.1c0,1.2-1.2,6.2-7.3,6.2C528.3,53.7,526.8,52.6,526.8,50.7z
				 M536.5,47.5c0-0.3-0.1-0.5-0.2-0.7c-0.3-0.4-0.6-0.8-1.3-0.8c-0.8,0-1.9,0.4-3.7,1.4c-2.6,1.5-3.4,2.5-3.4,3.3
				c0,0.3,0.1,0.5,0.2,0.7c0.3,0.4,0.7,0.8,1.5,0.8s2-0.4,3.6-1.5C535.7,49.1,536.5,48.2,536.5,47.5z"/>
		</g>
	</g>
	<g transform="matrix(0.620079,0,0,0.620079,0,0)">
		<g class="st4">
			<path d="M542.3,46.7c-0.9,0-1.6-0.7-1.6-1.6s0.7-1.6,1.6-1.6s1.6,0.7,1.6,1.6S543.1,46.7,542.3,46.7z"/>
		</g>
	</g>
	<g transform="matrix(0.620079,0,0,0.620079,0,0)">
		<g class="st4">
			<path d="M630.6,72.1c0,0.1-0.1,0.1-0.2,0.1c-0.1,0-0.1,0-0.2,0h-0.1c-0.5-0.2-1.6-0.5-2.5-0.5c-0.2,0-0.4,0-0.5,0
				c-1,0.2-1.5,1.3-1.5,2.3c0,0.3,0,0.6,0.1,0.8c0.1,0.3,0.4,1.1,0.8,1.1c0.3,0.2,0.5,0.5,0.5,0.8c0,0.1,0,0.1-0.1,0.2
				c0,0.1-0.3,0.2-0.5,0.2c-0.3,0-0.6-0.1-0.8-0.3c-2.3-1.8-3.7-3.4-3.7-5c0-1.7,1.2-3.1,2.6-3.1c0.2,0,0.4,0.1,0.5,0.1
				s0.3,0.1,0.5,0.1s0.3,0,0.4-0.2v-0.1c0-0.2-0.1-0.3-0.2-0.4c-0.4-0.7-0.9-1.3-1.4-1.9l-1.6-1.9c0,0-0.3-0.3-0.3-0.8
				c0-0.3,0.1-0.6,0.4-0.9c1.4-1.5,1.9-2.9,1.9-4.1c0-2.3-1.8-3.9-2-4.3c-0.1-0.2-0.1-0.4-0.1-0.5c0-0.4,0.3-0.7,0.6-0.7
				c0.2,0,0.4,0.1,0.6,0.3c0.5,0.5,5.3,6.2,5.3,6.2s0.1,0.3,0.1,0.6c0,0.2,0,0.3-0.1,0.5c-0.8,1.3-2,2.8-2.1,4.7c0,0.1,0,0.3,0,0.4
				c0,1.8,1,3,2.2,4.4C629.8,70.6,630.6,71.7,630.6,72.1z"/>
		</g>
	</g>
	<g transform="matrix(0.620079,0,0,0.620079,0,0)">
		<line vector-effect="none" class="st5" x1="663.8" y1="50.3" x2="663.8" y2="80.9"/>
	</g>
	<g transform="matrix(0.620079,0,0,0.620079,0,0)">
		<g class="st4">
			<path d="M663.3,50.6c0-3.1,3.2-6,7.1-6c2.1,0,3.5,1.2,3.5,3c0,3-3.9,6-7.1,6C664.8,53.6,663.3,52.5,663.3,50.6z"/>
		</g>
	</g>
	<g transform="matrix(0.620079,0,0,0.620079,0,0)">
		<g class="st4">
			<path d="M695.4,60.3c0,0.2-0.2,0.7-0.3,1.2c0,0-3.1,11.2-3.2,11.3c-0.3,0.3-0.8,0.3-1.1,0.3c-0.2,0-0.9,0-0.9-0.4
				c0.6-2.1,2.9-8.5,3-9c0-0.1,0-0.3,0-0.4c0-0.2,0-0.3-0.2-0.3c0,0-0.1,0-0.2,0c-0.4,0.2-0.7,0.4-1.2,0.5c-0.4,0.1-0.8,0.2-1.2,0.2
				c-0.3,0-0.6-0.1-0.8-0.1c-0.3-0.1-0.6-0.2-0.9-0.4c-0.5-0.4-0.9-1-0.9-1.6c0-1.2,1-2.1,2.1-2.1s2.1,1,2.1,2.1v0.3
				c1.1,0,2.7-1.9,2.9-2.1c0.2-0.1,0.3-0.1,0.4-0.1C695.1,59.8,695.4,59.9,695.4,60.3z"/>
		</g>
	</g>
	<g transform="matrix(0.620079,0,0,0.620079,0,0)">
		<line vector-effect="none" class="st5" x1="712.3" y1="50.3" x2="712.3" y2="80.9"/>
	</g>
	<g transform="matrix(0.620079,0,0,0.620079,0,0)">
		<g class="st4">
			<path d="M711.8,50.6c0-3.1,3.2-6,7.1-6c2.1,0,3.5,1.2,3.5,3c0,3-3.9,6-7.1,6C713.3,53.6,711.8,52.5,711.8,50.6z"/>
		</g>
	</g>
	<g transform="matrix(0.620079,0,0,0.620079,0,0)">
		<line vector-effect="none" class="st0" x1="733.5" y1="41.1" x2="749.5" y2="41.1"/>
	</g>
	<g transform="matrix(0.620079,0,0,0.620079,0,0)">
		<line vector-effect="none" class="st5" x1="736.8" y1="38.3" x2="736.8" y2="65.1"/>
	</g>
	<g transform="matrix(0.620079,0,0,0.620079,0,0)">
		<g class="st4">
			<path d="M736.3,38.6c0-3.1,3.2-6,7.1-6c2.1,0,3.5,1.2,3.5,3c0,3-3.9,6-7.1,6C737.8,41.6,736.3,40.5,736.3,38.6z"/>
		</g>
	</g>
	<g transform="matrix(0.620079,0,0,0.620079,0,0)">
		<line vector-effect="none" class="st0" x1="786.8" y1="41.1" x2="802.8" y2="41.1"/>
	</g>
	<g transform="matrix(0.620079,0,0,0.620079,0,0)">
		<line vector-effect="none" class="st5" x1="790" y1="38.3" x2="790" y2="65.1"/>
	</g>
	<g transform="matrix(0.620079,0,0,0.620079,0,0)">
		<g class="st4">
			<path d="M789.5,38.6c0-3.1,3.2-6,7.1-6c2.1,0,3.5,1.2,3.5,3c0,3-3.9,6-7.1,6C791,41.6,789.5,40.5,789.5,38.6z"/>
		</g>
	</g>
	<g transform="matrix(0.620079,0,0,0.620079,0,0)">
		<line vector-effect="none" class="st0" x1="827.8" y1="41.1" x2="844.8" y2="41.1"/>
	</g>
	<g transform="matrix(0.620079,0,0,0.620079,0,0)">
		<line vector-effect="none" class="st0" x1="827.8" y1="33.1" x2="844.8" y2="33.1"/>
	</g>
	<g transform="matrix(0.620079,0,0,0.620079,0,0)">
		<line vector-effect="none" class="st5" x1="831.3" y1="30.3" x2="831.3" y2="65.1"/>
	</g>
	<g transform="matrix(0.620079,0,0,0.620079,0,0)">
		<g class="st4">
			<path d="M830.8,30.7c0-1.9,1.7-6.2,7.3-6.2c2.1,0,3.6,1.2,3.6,3.1c0,1.2-1.2,6.2-7.3,6.2C832.3,33.7,830.8,32.6,830.8,30.7z
				 M840.5,27.5c0-0.3-0.1-0.5-0.2-0.7c-0.3-0.4-0.6-0.8-1.3-0.8c-0.8,0-1.9,0.4-3.7,1.4c-2.6,1.5-3.4,2.5-3.4,3.3
				c0,0.3,0.1,0.5,0.2,0.7c0.3,0.4,0.7,0.8,1.5,0.8s2-0.4,3.6-1.5C839.7,29.1,840.5,28.2,840.5,27.5z"/>
		</g>
	</g>
	<g transform="matrix(0.620079,0,0,0.620079,0,0)">
		<line vector-effect="none" class="st0" x1="910" y1="41.1" x2="926" y2="41.1"/>
	</g>
	<g transform="matrix(0.620079,0,0,0.620079,0,0)">
		<line vector-effect="none" class="st0" x1="910" y1="33.1" x2="926" y2="33.1"/>
	</g>
	<g transform="matrix(0.620079,0,0,0.620079,0,0)">
		<line vector-effect="none" class="st5" x1="913.3" y1="30.3" x2="913.3" y2="65.1"/>
	</g>
	<g transform="matrix(0.620079,0,0,0.620079,0,0)">
		<g class="st4">
			<path d="M912.8,30.6c0-3.1,3.2-6,7.1-6c2.1,0,3.5,1.2,3.5,3c0,3-3.9,6-7.1,6C914.3,33.6,912.8,32.5,912.8,30.6z"/>
		</g>
	</g>
	<g transform="matrix(0.620079,0,0,0.620079,0,0)">
		<line vector-effect="none" class="st0" x1="943" y1="41.1" x2="959" y2="41.1"/>
	</g>
	<g transform="matrix(0.620079,0,0,0.620079,0,0)">
		<line vector-effect="none" class="st0" x1="943" y1="33.1" x2="959" y2="33.1"/>
	</g>
	<g transform="matrix(0.620079,0,0,0.620079,0,0)">
		<line vector-effect="none" class="st5" x1="946.3" y1="34.3" x2="946.3" y2="65.1"/>
	</g>
	<g transform="matrix(0.620079,0,0,0.620079,0,0)">
		<g class="st4">
			<path d="M945.8,34.6c0-3.1,3.2-6,7.1-6c2.1,0,3.5,1.2,3.5,3c0,3-3.9,6-7.1,6C947.3,37.6,945.8,36.5,945.8,34.6z"/>
		</g>
	</g>
	<g transform="matrix(0.620079,0,0,0.620079,0,0)">
		<line vector-effect="none" class="st0" x1="976.3" y1="41.1" x2="992.3" y2="41.1"/>
	</g>
	<g transform="matrix(0.620079,0,0,0.620079,0,0)">
		<line vector-effect="none" class="st0" x1="976.3" y1="33.1" x2="992.3" y2="33.1"/>
	</g>
	<g transform="matrix(0.620079,0,0,0.620079,0,0)">
		<line vector-effect="none" class="st5" x1="979.5" y1="34.3" x2="979.5" y2="65.1"/>
	</g>
	<g transform="matrix(0.620079,0,0,0.620079,0,0)">
		<g class="st4">
			<path d="M979,34.6c0-3.1,3.2-6,7.1-6c2.1,0,3.5,1.2,3.5,3c0,3-3.9,6-7.1,6C980.5,37.6,979,36.5,979,34.6z"/>
		</g>
	</g>
	<g transform="matrix(0.620079,0,0,0.620079,0,0)">
		<g class="st4">
			<path d="M967.8,20c0-0.6,0.5-0.9,1-0.9c0.3,0,0.6,0.2,0.6,0.5c0,0.6-0.2,8.3-0.2,9c0,0.2,0.1,0.4,0.4,0.5c0.1,0,0.1,0,0.2,0
				c0.3,0,0.5-0.3,0.7-0.4c0.4-0.2,0.7-0.4,1.1-0.4c0.2-0.1,0.4-0.1,0.7-0.1c1.5,0.1,2.9,1.2,2.9,3.1c0,1.5-1,3.4-3.8,5.4
				c-0.8,0.5-1.6,1.4-2.5,1.9c0,0-0.1,0.1-0.2,0.1s-0.2,0-0.3-0.2C967.9,38.2,967.8,20,967.8,20z M969.6,36.2c0.1,0,0.2,0,0.3-0.1
				c1-0.6,1.9-1.6,2.3-2.4c0.4-0.7,0.5-1.3,0.5-1.9c0-0.6-0.2-1.2-0.5-1.5c-0.2-0.2-0.5-0.4-0.8-0.4s-0.5,0.1-0.8,0.2
				c-0.4,0.3-1.3,1-1.4,1.3c0,0.1-0.1,0.5-0.1,1c0,1.3,0.1,3.2,0.1,3.2C969.3,35.9,969.3,36.2,969.6,36.2z"/>
		</g>
	</g>
	<g transform="matrix(0.620079,0,0,0.620079,0,0)">
		<line vector-effect="none" class="st0" x1="1009.5" y1="41.1" x2="1025.5" y2="41.1"/>
	</g>
	<g transform="matrix(0.620079,0,0,0.620079,0,0)">
		<line vector-effect="none" class="st5" x1="1012.8" y1="38.3" x2="1012.8" y2="65.1"/>
	</g>
	<g transform="matrix(0.620079,0,0,0.620079,0,0)">
		<g class="st4">
			<path d="M1012.3,38.6c0-3.1,3.2-6,7.1-6c2.1,0,3.5,1.2,3.5,3c0,3-3.9,6-7.1,6C1013.8,41.6,1012.3,40.5,1012.3,38.6z"/>
		</g>
	</g>
	<g transform="matrix(0.620079,0,0,0.620079,0,0)">
		<line vector-effect="none" class="st0" x1="1062.5" y1="41.1" x2="1079.5" y2="41.1"/>
	</g>
	<g transform="matrix(0.620079,0,0,0.620079,0,0)">
		<line vector-effect="none" class="st5" x1="1066" y1="38.3" x2="1066" y2="65.1"/>
	</g>
	<g transform="matrix(0.620079,0,0,0.620079,0,0)">
		<g class="st4">
			<path d="M1065.5,38.7c0-1.9,1.7-6.2,7.3-6.2c2.1,0,3.6,1.2,3.6,3.1c0,1.2-1.2,6.2-7.3,6.2C1067.1,41.7,1065.5,40.6,1065.5,38.7z
				 M1075.3,35.5c0-0.3-0.1-0.5-0.2-0.7c-0.3-0.4-0.6-0.8-1.3-0.8c-0.8,0-1.9,0.4-3.7,1.4c-2.6,1.5-3.4,2.5-3.4,3.3
				c0,0.3,0.1,0.5,0.2,0.7c0.3,0.4,0.7,0.8,1.5,0.8s2-0.4,3.6-1.5C1074.5,37.1,1075.3,36.2,1075.3,35.5z"/>
		</g>
	</g>
	<g transform="matrix(0.620079,0,0,0.620079,0,0)">
		<g class="st4">
			<path d="M1081,38.7c-0.9,0-1.6-0.7-1.6-1.6s0.7-1.6,1.6-1.6s1.6,0.7,1.6,1.6S1081.9,38.7,1081,38.7z"/>
		</g>
	</g>
</g>
</svg>
