<?xml version="1.0" encoding="utf-8"?>
<!-- Generator: Adobe Illustrator 26.3.1, SVG Export Plug-In . SVG Version: 6.00 Build 0)  -->
<svg version="1.1" id="Layer_1" xmlns="http://www.w3.org/2000/svg" xmlns:xlink="http://www.w3.org/1999/xlink" x="0px" y="0px"
	 viewBox="0 0 792 612" style="enable-background:new 0 0 792 612;" xml:space="preserve">
<style type="text/css">
	.st0{fill:none;stroke:#000000;stroke-width:0.7751;stroke-linejoin:bevel;stroke-miterlimit:10;}
	.st1{fill:none;stroke:#000000;stroke-width:2.4803;stroke-linejoin:bevel;stroke-miterlimit:10;}
	.st2{fill:none;stroke:#000000;stroke-width:0.4651;stroke-linejoin:bevel;stroke-miterlimit:10;}
	.st3{fill-rule:evenodd;clip-rule:evenodd;stroke:#000000;stroke-width:0.155;stroke-linejoin:bevel;stroke-miterlimit:10;}
	.st4{enable-background:new    ;}
	.st5{fill:none;stroke:#000000;stroke-width:0.6201;stroke-linejoin:bevel;stroke-miterlimit:10;}
	.st6{fill-rule:evenodd;clip-rule:evenodd;}
</style>
<g>
	<g transform="matrix(0.620079,0,0,0.620079,0,0)">
		<line vector-effect="none" class="st0" x1="260.2" y1="668" x2="260.2" y2="700"/>
	</g>
	<g transform="matrix(0.620079,0,0,0.620079,0,0)">
		<line vector-effect="none" class="st0" x1="415.2" y1="668" x2="415.2" y2="700"/>
	</g>
	<g transform="matrix(0.620079,0,0,0.620079,0,0)">
		<line vector-effect="none" class="st0" x1="572.5" y1="668" x2="572.5" y2="700"/>
	</g>
	<g transform="matrix(0.620079,0,0,0.620079,0,0)">
		<line vector-effect="none" class="st0" x1="667.7" y1="668" x2="667.7" y2="700"/>
	</g>
	<g transform="matrix(0.620079,0,0,0.620079,0,0)">
		<line vector-effect="none" class="st0" x1="835.2" y1="668" x2="835.2" y2="700"/>
	</g>
	<g transform="matrix(0.620079,0,0,0.620079,0,0)">
		<line vector-effect="none" class="st0" x1="958.5" y1="668" x2="958.5" y2="700"/>
	</g>
	<g transform="matrix(0.620079,0,0,0.620079,0,0)">
		<line vector-effect="none" class="st0" x1="1111.2" y1="668" x2="1111.2" y2="700"/>
	</g>
	<g transform="matrix(0.620079,0,0,0.620079,0,0)">
		<line vector-effect="none" class="st0" x1="1211.7" y1="668" x2="1211.7" y2="700"/>
	</g>
	<g transform="matrix(0.620079,0,0,0.620079,0,0)">
		<line vector-effect="none" class="st1" x1="1217.5" y1="668" x2="1217.5" y2="700"/>
	</g>
	<g transform="matrix(0.620079,0,0,0.620079,0,0)">
		<path vector-effect="none" class="st2" d="M800.7,650c10.2-8.2,41-8.2,51.2,0"/>
	</g>
	<g transform="matrix(0.620079,0,0,0.620079,0,0)">
		<path vector-effect="none" class="st3" d="M800.7,650c10.2-9.2,41-9.2,51.2,0C841.7,642.8,811,642.8,800.7,650"/>
	</g>
	<g transform="matrix(0.620079,0,0,0.620079,0,0)">
		<path vector-effect="none" class="st2" d="M1076.7,650c10.2-8.2,41-8.2,51.2,0"/>
	</g>
	<g transform="matrix(0.620079,0,0,0.620079,0,0)">
		<path vector-effect="none" class="st3" d="M1076.7,650c10.2-9.2,41-9.2,51.2,0C1117.7,642.8,1087,642.8,1076.7,650"/>
	</g>
	<g transform="matrix(0.620079,0,0,0.620079,270.354,1533.26)">
	</g>
	<g transform="matrix(0.620079,0,0,0.620079,270.354,1533.26)">
		<g class="st4">
			<path d="M-320.8-1853.8h0.6v17.5c0,1.9-2.5,3.8-4.5,3.8c-1.2,0-2.2-0.7-2.2-1.9c0-2,2-3.8,4.4-3.8c0.7,0,1.2,0.2,1.6,0.5
				L-320.8-1853.8z"/>
		</g>
		<g class="st4">
			<path d="M-313.1-1839.5v-1.8h10.5v1.8H-313.1z M-302.6-1836.9v1.9h-10.5v-1.9H-302.6z"/>
			<path d="M-288.9-1847.7h0.7v13.1c0,0.4,0.3,0.8,0.7,0.8h2.1v0.9h-8.1v-0.9h1.7c0.5,0,0.8-0.5,0.8-0.9v-9.9c0-0.4-0.3-0.8-0.7-0.8
				h-2.4v-1C-292.1-1846.4-290.5-1846.8-288.9-1847.7z"/>
			<path d="M-277.4-1847.7c1.5,0,3.4,0.8,3.4,2.6c0,1-0.5,1.7-1.6,1.7c-0.8,0-1.3-0.6-1.3-1.4c0-0.5,0.4-0.9,0.4-1.4
				c0-0.5-0.5-0.6-0.9-0.6c-2.6,0.1-2.7,4.4-2.8,6.4c0.8-0.8,1.9-1.3,3.1-1.3c2.5,0,3.7,1.9,3.7,4.2c0,2.9-1.9,5-4.8,5
				c-3.9,0-5.1-3.7-5.1-7C-283.3-1843.1-281.7-1847.7-277.4-1847.7z M-280.1-1837.1c0,1.2,0.2,3.6,1.9,3.6c1.7,0,1.9-2.3,1.9-3.6
				c0-1.2-0.1-3.3-1.7-3.3C-279.7-1840.4-280.1-1838.3-280.1-1837.1z"/>
			<path d="M-272-1840c0-3.2,1.3-7.5,5.6-7.5c4.1,0,5.4,4.6,5.4,7.5c0,3.1-1.3,7.5-5.5,7.5C-270.8-1832.6-272-1837.1-272-1840z
				 M-266.6-1833.6c2.1,0,2.1-3.8,2.1-6.5c0-3.2,0-6.5-2-6.5c-2.1,0-2.1,3.4-2.1,6.9C-268.6-1837.4-268.7-1833.6-266.6-1833.6z"/>
		</g>
	</g>
	<g transform="matrix(0.620079,0,0,0.620079,270.354,1533.26)">
	</g>
	<g transform="matrix(0.620079,0,0,0.620079,0,0)">
	</g>
	<g transform="matrix(0.620079,0,0,0.620079,265.394,1586.58)">
	</g>
	<g transform="matrix(0.620079,0,0,0.620079,265.394,1586.58)">
		<g class="st4">
			<path d="M-308.5-1886.4c0,0.7-0.2,1.4-0.7,2c-0.4,0.4-0.7,0.6-1.2,0.9c-0.3,0.2-0.6,0.2-1,0.3c-0.1,0-0.1,0.2-0.1,0.3
				c0,0.1,0,0.1,0,0.2c0.1,0.1,0.2,0.1,0.3,0.2l1,0.3l0.7,0.4c0.3,0.2,0.5,0.4,0.7,0.7c0.3,0.3,0.5,0.6,0.6,0.9
				c0.2,0.4,0.2,0.8,0.3,1.3v0.2c0,2.8-3.2,4.4-6.3,4.4h-0.3c-3.1-0.1-5.3-1.4-5.4-3.9c0-0.7,0.1-1.5,0.7-1.9c0.4-0.4,1-0.7,1.5-0.8
				c0.1,0,0.2,0,0.4,0c0.8,0,1.7,0.5,2.1,1.3c0.1,0.3,0.2,0.6,0.2,1c0,0.9-0.7,1.4-0.7,2.1v0.2c0,0.5,0.9,0.7,1.1,0.7
				c0,0,0.4,0,0.5,0c0.7,0,1.8-0.5,1.8-3.4c0-0.4-0.1-2.7-3.7-2.7c-0.3,0-0.8-0.1-0.8-0.5c0-0.4,0.4-0.6,0.7-0.7
				c2-0.1,3.7-0.7,3.7-2.6v-0.2c0-0.5,0-0.9-0.1-1.4c-0.2-0.9-0.9-1.3-1.7-1.4h-0.3c-0.3,0-0.6,0-0.9,0.1c-0.2,0-1,0.3-1,0.6v0.1
				c0,0.5,0.5,0.5,0.6,0.5c0.2,0.1,0.9,0.1,1,1.3v0.3c0,1-0.7,2-2.1,2h-0.2c-1.9-0.1-2.5-1.5-2.5-2.5c0-1.7,2.7-3.7,5.4-3.7
				c0.2,0,0.3,0,0.5,0C-312.4-1890.2-308.5-1889.3-308.5-1886.4z"/>
		</g>
	</g>
	<g transform="matrix(0.620079,0,0,0.620079,265.394,1586.58)">
		<g class="st4">
			<path d="M-306.8-1863.4c0,0.4-0.2,0.7-0.5,0.7h-1.9v1.7c0,1,0.6,1.2,1,1.2s0.7,0.2,0.7,0.6c0,0.5-0.3,0.6-0.6,0.6h-7.5
				c-0.5,0-0.6-0.3-0.6-0.6c0-0.3,0.2-0.6,0.7-0.6c0.6,0,1.3-0.3,1.3-1.1v-1.8h-5.8c-0.4,0-0.6-0.4-0.6-0.7c0-0.1,0-0.2,0.1-0.3
				c0,0,0-0.1,0-0.1l0.2-0.3c0.9-1.3,3.6-5.7,3.6-9.6c0-0.5,0.4-0.6,0.7-0.6c0.3,0,2.1,0.1,2.6,0.1c0.6,0,2.3-0.1,2.5-0.1
				c0.3,0,0.5,0.2,0.5,0.5c0,0.1,0,0.1,0,0.1c-0.1,0.4-5.5,7.4-8.1,9.5h4.3v-2.5c0-0.4,0.2-0.6,0.3-0.7l3.8-3.6
				c0.2-0.2,0.3-0.3,0.6-0.3c0.4,0,0.4,0.3,0.4,0.5v6.6h1.9C-307-1864.1-306.8-1863.8-306.8-1863.4z"/>
		</g>
	</g>
	<g transform="matrix(0.620079,0,0,0.620079,265.394,1586.58)">
	</g>
	<g transform="matrix(0.620079,0,0,0.620079,0,0)">
	</g>
	<g transform="matrix(0.620079,0,0,0.620079,0,0)">
		<line vector-effect="none" class="st5" x1="58.2" y1="700" x2="1219.5" y2="700"/>
	</g>
	<g transform="matrix(0.620079,0,0,0.620079,0,0)">
		<line vector-effect="none" class="st5" x1="58.2" y1="692" x2="1219.5" y2="692"/>
	</g>
	<g transform="matrix(0.620079,0,0,0.620079,0,0)">
		<line vector-effect="none" class="st5" x1="58.2" y1="684" x2="1219.5" y2="684"/>
	</g>
	<g transform="matrix(0.620079,0,0,0.620079,0,0)">
		<line vector-effect="none" class="st5" x1="58.2" y1="676" x2="1219.5" y2="676"/>
	</g>
	<g transform="matrix(0.620079,0,0,0.620079,0,0)">
		<line vector-effect="none" class="st5" x1="58.2" y1="668" x2="1219.5" y2="668"/>
	</g>
	<g transform="matrix(0.620079,0,0,0.620079,0,0)">
		<g class="st4">
			<path d="M81.2,676.9c0,4.2-1.7,8.1-4.4,11.1c-3.4,3.6-7.5,6.1-11.7,8.2c-0.2,0.1-0.4,0.2-0.5,0.2c-0.3,0-0.4-0.2-0.4-0.4
				c0-0.3,0.2-0.4,0.5-0.6c4-2.3,7.3-5,9.2-8c2-3.1,2.7-6.9,2.7-10.2c0-5-1.5-8.3-4.9-8.3c-3.3,0-5.2,2.3-5.2,3.6
				c0,0.3,0.1,0.6,0.5,0.6s0.7-0.2,1.6-0.2c1.6,0,3.1,1.3,3.1,3.3c0,2-1.4,3.4-3.4,3.4c-2.6,0-3.9-2.2-3.9-4.8
				c0-3.1,2.5-7.1,8.1-7.1C77.8,667.6,81.2,671.3,81.2,676.9z M86.1,672c0,1-0.8,1.8-1.8,1.8c-1,0-1.8-0.8-1.8-1.8
				c0-1,0.8-1.8,1.8-1.8C85.3,670.2,86.1,671,86.1,672z M86.1,680c0,1-0.7,1.7-1.7,1.7c-1,0-1.7-0.7-1.7-1.7c0-1,0.7-1.7,1.7-1.7
				C85.3,678.3,86.1,679,86.1,680z"/>
		</g>
	</g>
	<g transform="matrix(0.620079,0,0,0.620079,0,0)">
		<g class="st4">
			<path d="M92.2,678.9c0-0.6,0.5-0.9,1-0.9c0.3,0,0.6,0.2,0.6,0.5c0,0.6-0.2,8.3-0.2,9c0,0.2,0.1,0.4,0.4,0.5c0.1,0,0.1,0,0.2,0
				c0.3,0,0.5-0.3,0.7-0.4c0.4-0.2,0.7-0.4,1.1-0.4c0.2-0.1,0.4-0.1,0.7-0.1c1.5,0.1,2.9,1.2,2.9,3.1c0,1.5-1,3.4-3.8,5.4
				c-0.8,0.5-1.6,1.4-2.5,2c0,0-0.1,0.1-0.2,0.1s-0.2,0-0.3-0.2C92.3,697.1,92.2,678.9,92.2,678.9z M94.1,695.1c0.1,0,0.2,0,0.3-0.1
				c1-0.6,1.9-1.6,2.3-2.4c0.4-0.7,0.5-1.3,0.5-1.9c0-0.6-0.2-1.2-0.5-1.5c-0.2-0.2-0.5-0.4-0.8-0.4c-0.3,0-0.5,0.1-0.8,0.2
				c-0.4,0.3-1.3,1-1.4,1.3c0,0.1-0.1,0.5-0.1,1c0,1.3,0.1,3.2,0.1,3.2C93.7,694.8,93.8,695.1,94.1,695.1z"/>
		</g>
	</g>
	<g transform="matrix(0.620079,0,0,0.620079,0,0)">
		<path vector-effect="none" class="st2" d="M139.7,672c4.8-13.8,42-29.5,55.2-23.2"/>
	</g>
	<g transform="matrix(0.620079,0,0,0.620079,0,0)">
		<path vector-effect="none" class="st3" d="M139.7,672c4.2-14.8,41.5-30.5,55.2-23.2C182.2,643.5,145,659.2,139.7,672"/>
	</g>
	<g transform="matrix(0.620079,0,0,0.620079,0,0)">
		<path vector-effect="none" class="st6" d="M273.2,702H322v-4h-48.8V702"/>
	</g>
	<g transform="matrix(0.620079,0,0,0.620079,0,0)">
		<path vector-effect="none" class="st6" d="M428.2,694l29.8,2v-4l-29.8-2V694"/>
	</g>
	<g transform="matrix(0.620079,0,0,0.620079,0,0)">
		<path vector-effect="none" class="st2" d="M434.2,660.8c18-16,136.8-16,155,0"/>
	</g>
	<g transform="matrix(0.620079,0,0,0.620079,0,0)">
		<path vector-effect="none" class="st3" d="M434.2,660.8c18-17,136.8-17,155,0C571,645.8,452.2,645.8,434.2,660.8"/>
	</g>
	<g transform="matrix(0.620079,0,0,0.620079,0,0)">
		<path vector-effect="none" class="st6" d="M722,700h48.5v-4H722V700"/>
	</g>
	<g transform="matrix(0.620079,0,0,0.620079,0,0)">
		<line vector-effect="none" class="st0" x1="967.2" y1="710.5" x2="967.2" y2="702"/>
	</g>
	<g transform="matrix(0.620079,0,0,0.620079,0,0)">
		<line vector-effect="none" class="st0" x1="1047.5" y1="710.5" x2="1047.5" y2="702"/>
	</g>
	<g transform="matrix(0.620079,0,0,0.620079,0,0)">
		<line vector-effect="none" class="st0" x1="967.2" y1="710" x2="1000" y2="710"/>
	</g>
	<g transform="matrix(0.620079,0,0,0.620079,0,0)">
		<line vector-effect="none" class="st0" x1="1014.5" y1="710" x2="1047.5" y2="710"/>
	</g>
	<g transform="matrix(0.620079,0,0,0.620079,0,0)">
	</g>
	<g transform="matrix(0.620079,0,0,0.620079,2484.04,1734.26)">
	</g>
	<g transform="matrix(0.620079,0,0,0.620079,2484.04,1734.26)">
		<g class="st4">
			<path d="M-3004-2082.9c0-1,0.6-1.7,1.4-1.7c0.6,0,1.1,0.4,1.1,1.1c0,0.8-0.4,1.1-0.7,1.3c-0.2,0.1-0.4,0.2-0.4,0.3
				c0,0.3,0.5,0.5,1.1,0.5c1.8,0,2.7-1.8,2.7-3.1c0-0.9-0.5-1.6-1.6-1.6h-0.3c-0.4,0-0.6-0.2-0.6-0.4c0-0.3,0.2-0.4,0.6-0.4h0.3
				c1.7,0,2.7-1.1,2.7-2.6c0-0.6-0.4-1.3-1.5-1.3c-0.6,0-1,0.2-1,0.4c0,0.1,0.1,0.2,0.4,0.4c0.1,0.2,0.3,0.4,0.3,0.7
				c0,0.8-0.6,1.4-1.3,1.4c-0.7,0-1.1-0.5-1.1-1.3c0.1-1.6,1.6-2.5,3.4-2.5c1.8,0,3.2,0.9,3.2,2.5c0,1.2-1,2.1-2.2,2.6
				c-0.2,0.1-0.4,0.2-0.4,0.3c0,0.1,0.1,0.2,0.3,0.3c0.8,0.4,1.1,1.1,1.1,1.8c0,2.3-2,3.8-4.5,3.8
				C-3003.1-2080.7-3004-2081.7-3004-2082.9z"/>
		</g>
	</g>
	<g transform="matrix(0.620079,0,0,0.620079,2484.04,1734.26)">
	</g>
	<g transform="matrix(0.620079,0,0,0.620079,0,0)">
	</g>
	<g transform="matrix(0.620079,0,0,0.620079,0,0)">
		<path vector-effect="none" class="st2" d="M977.5,640.8c18.2-15.2,133-11.5,150.5,4.8"/>
	</g>
	<g transform="matrix(0.620079,0,0,0.620079,0,0)">
		<path vector-effect="none" class="st3" d="M977.5,640.8c18.2-16.2,133-12.5,150.5,4.8C1110.5,630.2,995.7,626.5,977.5,640.8"/>
	</g>
	<g transform="matrix(0.620079,0,0,0.620079,0,0)">
		<line vector-effect="none" class="st0" x1="129.5" y1="722.5" x2="129.5" y2="714"/>
	</g>
	<g transform="matrix(0.620079,0,0,0.620079,0,0)">
		<line vector-effect="none" class="st0" x1="176.7" y1="710.5" x2="176.7" y2="702"/>
	</g>
	<g transform="matrix(0.620079,0,0,0.620079,0,0)">
		<line vector-effect="none" class="st0" x1="129.5" y1="722" x2="146" y2="717.8"/>
	</g>
	<g transform="matrix(0.620079,0,0,0.620079,0,0)">
		<line vector-effect="none" class="st0" x1="160" y1="714.2" x2="176.7" y2="710"/>
	</g>
	<g transform="matrix(0.620079,0,0,0.620079,0,0)">
	</g>
	<g transform="matrix(0.620079,0,0,0.620079,365.226,1749.14)">
	</g>
	<g transform="matrix(0.620079,0,0,0.620079,365.226,1749.14)">
		<g class="st4">
			<path d="M-441.2-2100.9c0-1,0.6-1.7,1.4-1.7c0.6,0,1.1,0.4,1.1,1.1c0,0.8-0.4,1.1-0.7,1.3c-0.2,0.1-0.4,0.2-0.4,0.3
				c0,0.3,0.5,0.5,1.1,0.5c1.8,0,2.7-1.8,2.7-3.1c0-0.9-0.5-1.6-1.6-1.6h-0.3c-0.4,0-0.6-0.2-0.6-0.4c0-0.3,0.2-0.4,0.6-0.4h0.3
				c1.7,0,2.7-1.1,2.7-2.6c0-0.6-0.4-1.3-1.5-1.3c-0.6,0-1,0.2-1,0.4c0,0.1,0.1,0.2,0.4,0.4c0.1,0.2,0.3,0.4,0.3,0.7
				c0,0.8-0.6,1.4-1.3,1.4c-0.7,0-1.1-0.5-1.1-1.3c0.1-1.6,1.6-2.6,3.4-2.6c1.8,0,3.2,0.9,3.2,2.5c0,1.2-1,2.1-2.2,2.6
				c-0.2,0.1-0.4,0.2-0.4,0.3c0,0.1,0.1,0.2,0.3,0.3c0.8,0.4,1.1,1.1,1.1,1.8c0,2.3-2,3.8-4.5,3.8
				C-440.3-2098.6-441.2-2099.7-441.2-2100.9z"/>
		</g>
	</g>
	<g transform="matrix(0.620079,0,0,0.620079,365.226,1749.14)">
	</g>
	<g transform="matrix(0.620079,0,0,0.620079,0,0)">
	</g>
	<g transform="matrix(0.620079,0,0,0.620079,0,0)">
		<path vector-effect="none" class="st2" d="M279.2,660.8c8.5-9.5,39-7.2,46.2,3.2"/>
	</g>
	<g transform="matrix(0.620079,0,0,0.620079,0,0)">
		<path vector-effect="none" class="st3" d="M279.2,660.8c8.5-10.5,39-8.2,46.2,3.2C318.2,654.5,287.7,652.2,279.2,660.8"/>
	</g>
	<g transform="matrix(0.620079,0,0,0.620079,718.051,1738.6)">
	</g>
	<g transform="matrix(0.620079,0,0,0.620079,718.051,1738.6)">
		<g class="st4">
			<path d="M-868-2088.1c0-1,0.6-1.7,1.4-1.7c0.6,0,1.1,0.4,1.1,1.1c0,0.8-0.4,1.1-0.7,1.3c-0.2,0.1-0.4,0.2-0.4,0.3
				c0,0.3,0.5,0.5,1.1,0.5c1.8,0,2.7-1.8,2.7-3.1c0-0.9-0.5-1.6-1.6-1.6h-0.3c-0.4,0-0.6-0.2-0.6-0.4c0-0.3,0.2-0.4,0.6-0.4h0.3
				c1.7,0,2.7-1.1,2.7-2.6c0-0.7-0.4-1.3-1.5-1.3c-0.6,0-1,0.2-1,0.4c0,0.1,0.1,0.2,0.4,0.4c0.1,0.2,0.3,0.4,0.3,0.7
				c0,0.8-0.6,1.4-1.3,1.4c-0.7,0-1.1-0.5-1.1-1.3c0.1-1.6,1.6-2.5,3.4-2.5c1.8,0,3.2,0.9,3.2,2.5c0,1.2-1,2.1-2.2,2.6
				c-0.2,0.1-0.4,0.2-0.4,0.3c0,0.1,0.1,0.2,0.3,0.3c0.8,0.4,1.1,1.1,1.1,1.8c0,2.3-2,3.8-4.5,3.8C-867-2085.9-868-2087-868-2088.1z
				"/>
		</g>
	</g>
	<g transform="matrix(0.620079,0,0,0.620079,718.051,1738.6)">
	</g>
	<g transform="matrix(0.620079,0,0,0.620079,0,0)">
	</g>
	<g transform="matrix(0.620079,0,0,0.620079,1831.09,1734.26)">
	</g>
	<g transform="matrix(0.620079,0,0,0.620079,1831.09,1734.26)">
		<g class="st4">
			<path d="M-2214.2-2082.9c0-1,0.6-1.7,1.4-1.7c0.6,0,1.1,0.4,1.1,1.1c0,0.8-0.4,1.1-0.7,1.3c-0.2,0.1-0.4,0.2-0.4,0.3
				c0,0.3,0.5,0.5,1.1,0.5c1.8,0,2.7-1.8,2.7-3.1c0-0.9-0.5-1.6-1.6-1.6h-0.3c-0.4,0-0.6-0.2-0.6-0.4c0-0.3,0.2-0.4,0.6-0.4h0.3
				c1.7,0,2.7-1.1,2.7-2.6c0-0.6-0.4-1.3-1.5-1.3c-0.6,0-1,0.2-1,0.4c0,0.1,0.1,0.2,0.4,0.4c0.1,0.2,0.3,0.4,0.3,0.7
				c0,0.8-0.6,1.4-1.3,1.4c-0.7,0-1.1-0.5-1.1-1.3c0.1-1.6,1.6-2.5,3.4-2.5c1.8,0,3.2,0.9,3.2,2.5c0,1.2-1,2.1-2.2,2.6
				c-0.2,0.1-0.4,0.2-0.4,0.3c0,0.1,0.1,0.2,0.3,0.3c0.8,0.4,1.1,1.1,1.1,1.8c0,2.3-2,3.8-4.5,3.8
				C-2213.3-2080.7-2214.2-2081.7-2214.2-2082.9z"/>
		</g>
	</g>
	<g transform="matrix(0.620079,0,0,0.620079,1831.09,1734.26)">
	</g>
	<g transform="matrix(0.620079,0,0,0.620079,0,0)">
	</g>
	<g transform="matrix(0.620079,0,0,0.620079,0,0)">
		<line vector-effect="none" class="st5" x1="133.7" y1="685.2" x2="133.7" y2="712"/>
	</g>
	<g transform="matrix(0.620079,0,0,0.620079,0,0)">
		<g class="st4">
			<path d="M133.2,685.5c0-3.1,3.2-6,7.1-6c2.1,0,3.5,1.2,3.5,3c0,3-3.9,6-7.1,6C134.7,688.5,133.2,687.4,133.2,685.5z"/>
		</g>
	</g>
	<g transform="matrix(0.620079,0,0,0.620079,0,0)">
		<line vector-effect="none" class="st5" x1="167" y1="669.2" x2="167" y2="696"/>
	</g>
	<g transform="matrix(0.620079,0,0,0.620079,0,0)">
		<g class="st4">
			<path d="M166.5,669.5c0-3.1,3.2-6,7.1-6c2.1,0,3.5,1.2,3.5,3c0,3-3.9,6-7.1,6C168,672.5,166.5,671.4,166.5,669.5z"/>
		</g>
	</g>
	<g transform="matrix(0.620079,0,0,0.620079,0,0)">
		<g class="st4">
			<path d="M166.6,688c0.1,0,0.2,0,0.3,0c1.1-0.1,4.2-0.4,5.9-5.2c0.3-0.9,0.6-2.5,0.6-4.2c0-1.6-0.2-3.3-0.8-4.7
				c-0.1-0.2-0.1-0.3-0.1-0.4c0-0.4,0.3-0.7,0.5-0.8c0.1,0,0.1,0,0.2,0c0.2,0,0.5,0.2,0.7,0.5c0.1,0.3,1.1,3.6,1.1,5.4v0.2
				c-0.1,3.5-1.6,6.8-3.6,9.6c-1.6,2.1-3.1,4.2-3.6,6.8c-0.1,0.4-0.4,0.7-0.7,0.7c-0.2,0-0.4-0.4-0.4-0.4V688z"/>
		</g>
	</g>
	<g transform="matrix(0.620079,0,0,0.620079,0,0)">
		<line vector-effect="none" class="st0" x1="187.7" y1="660" x2="204.7" y2="660"/>
	</g>
	<g transform="matrix(0.620079,0,0,0.620079,0,0)">
		<line vector-effect="none" class="st5" x1="191.2" y1="657.2" x2="191.2" y2="684"/>
	</g>
	<g transform="matrix(0.620079,0,0,0.620079,0,0)">
		<g class="st4">
			<path d="M190.7,657.6c0-1.9,1.7-6.2,7.3-6.2c2.1,0,3.6,1.2,3.6,3.1c0,1.2-1.2,6.2-7.3,6.2C192.3,660.6,190.7,659.5,190.7,657.6z
				 M200.5,654.4c0-0.3-0.1-0.5-0.2-0.7c-0.3-0.4-0.6-0.8-1.3-0.8c-0.8,0-1.9,0.4-3.7,1.4c-2.6,1.5-3.4,2.5-3.4,3.3
				c0,0.3,0.1,0.5,0.2,0.7c0.3,0.4,0.7,0.8,1.5,0.8c0.8,0,2-0.4,3.6-1.5C199.7,656,200.5,655.1,200.5,654.4z"/>
		</g>
	</g>
	<g transform="matrix(0.620079,0,0,0.620079,0,0)">
		<line vector-effect="none" class="st5" x1="273.2" y1="669.2" x2="273.2" y2="701.8"/>
	</g>
	<g transform="matrix(0.620079,0,0,0.620079,0,0)">
		<g class="st4">
			<path d="M272.7,669.5c0-3.1,3.2-6,7.1-6c2.1,0,3.5,1.2,3.5,3c0,3-3.9,6-7.1,6C274.2,672.5,272.7,671.4,272.7,669.5z"/>
		</g>
	</g>
	<g transform="matrix(0.620079,0,0,0.620079,0,0)">
		<line vector-effect="none" class="st5" x1="297.5" y1="677.2" x2="297.5" y2="701.8"/>
	</g>
	<g transform="matrix(0.620079,0,0,0.620079,0,0)">
		<g class="st4">
			<path d="M297,677.5c0-3.1,3.2-6,7.1-6c2.1,0,3.5,1.2,3.5,3c0,3-3.9,6-7.1,6C298.5,680.5,297,679.4,297,677.5z"/>
		</g>
	</g>
	<g transform="matrix(0.620079,0,0,0.620079,0,0)">
		<line vector-effect="none" class="st5" x1="322" y1="673.2" x2="322" y2="701.8"/>
	</g>
	<g transform="matrix(0.620079,0,0,0.620079,0,0)">
		<g class="st4">
			<path d="M321.5,673.5c0-3.1,3.2-6,7.1-6c2.1,0,3.5,1.2,3.5,3c0,3-3.9,6-7.1,6C323,676.5,321.5,675.4,321.5,673.5z"/>
		</g>
	</g>
	<g transform="matrix(0.620079,0,0,0.620079,0,0)">
		<line vector-effect="none" class="st5" x1="346.2" y1="669.2" x2="346.2" y2="696"/>
	</g>
	<g transform="matrix(0.620079,0,0,0.620079,0,0)">
		<g class="st4">
			<path d="M345.7,669.6c0-1.9,1.7-6.2,7.3-6.2c2.1,0,3.6,1.2,3.6,3.1c0,1.2-1.2,6.2-7.3,6.2C347.3,672.6,345.7,671.5,345.7,669.6z
				 M355.5,666.4c0-0.3-0.1-0.5-0.2-0.7c-0.3-0.4-0.6-0.8-1.3-0.8c-0.8,0-1.9,0.4-3.7,1.4c-2.6,1.5-3.4,2.5-3.4,3.3
				c0,0.3,0.1,0.5,0.2,0.7c0.3,0.4,0.7,0.8,1.5,0.8c0.8,0,2-0.4,3.6-1.5C354.7,668,355.5,667.1,355.5,666.4z"/>
		</g>
	</g>
	<g transform="matrix(0.620079,0,0,0.620079,0,0)">
		<line vector-effect="none" class="st5" x1="428.2" y1="669.2" x2="428.2" y2="693.8"/>
	</g>
	<g transform="matrix(0.620079,0,0,0.620079,0,0)">
		<g class="st4">
			<path d="M427.7,669.5c0-3.1,3.2-6,7.1-6c2.1,0,3.5,1.2,3.5,3c0,3-3.9,6-7.1,6C429.2,672.5,427.7,671.4,427.7,669.5z"/>
		</g>
	</g>
	<g transform="matrix(0.620079,0,0,0.620079,0,0)">
		<line vector-effect="none" class="st5" x1="458" y1="673.2" x2="458" y2="695.8"/>
	</g>
	<g transform="matrix(0.620079,0,0,0.620079,0,0)">
		<g class="st4">
			<path d="M457.5,673.5c0-3.1,3.2-6,7.1-6c2.1,0,3.5,1.2,3.5,3c0,3-3.9,6-7.1,6C459,676.5,457.5,675.4,457.5,673.5z"/>
		</g>
	</g>
	<g transform="matrix(0.620079,0,0,0.620079,0,0)">
		<line vector-effect="none" class="st5" x1="488" y1="677.2" x2="488" y2="704"/>
	</g>
	<g transform="matrix(0.620079,0,0,0.620079,0,0)">
		<g class="st4">
			<path d="M487.5,677.5c0-3.1,3.2-6,7.1-6c2.1,0,3.5,1.2,3.5,3c0,3-3.9,6-7.1,6C489,680.5,487.5,679.4,487.5,677.5z"/>
		</g>
	</g>
	<g transform="matrix(0.620079,0,0,0.620079,0,0)">
		<g class="st4">
			<path d="M502.5,673.6c-0.9,0-1.6-0.7-1.6-1.6c0-0.9,0.7-1.6,1.6-1.6s1.6,0.7,1.6,1.6C504.1,672.9,503.3,673.6,502.5,673.6z"/>
		</g>
	</g>
	<g transform="matrix(0.620079,0,0,0.620079,0,0)">
		<line vector-effect="none" class="st5" x1="543.5" y1="673.2" x2="543.5" y2="700"/>
	</g>
	<g transform="matrix(0.620079,0,0,0.620079,0,0)">
		<g class="st4">
			<path d="M543,673.5c0-3.1,3.2-6,7.1-6c2.1,0,3.5,1.2,3.5,3c0,3-3.9,6-7.1,6C544.5,676.5,543,675.4,543,673.5z"/>
		</g>
	</g>
	<g transform="matrix(0.620079,0,0,0.620079,0,0)">
		<g class="st4">
			<path d="M543.1,692c0.1,0,0.2,0,0.3,0c1.1-0.1,4.2-0.4,5.9-5.2c0.3-0.9,0.6-2.5,0.6-4.2c0-1.6-0.2-3.3-0.8-4.7
				c-0.1-0.2-0.1-0.3-0.1-0.4c0-0.4,0.3-0.7,0.5-0.8c0.1,0,0.1,0,0.2,0c0.2,0,0.5,0.2,0.7,0.5c0.1,0.3,1.1,3.6,1.1,5.4v0.2
				c-0.1,3.5-1.6,6.8-3.6,9.6c-1.6,2.1-3.1,4.2-3.6,6.8c-0.1,0.4-0.4,0.7-0.7,0.7c-0.2,0-0.4-0.4-0.4-0.4V692z"/>
		</g>
	</g>
	<g transform="matrix(0.620079,0,0,0.620079,0,0)">
		<line vector-effect="none" class="st5" x1="585.5" y1="669.2" x2="585.5" y2="696"/>
	</g>
	<g transform="matrix(0.620079,0,0,0.620079,0,0)">
		<g class="st4">
			<path d="M585,669.6c0-1.9,1.7-6.2,7.3-6.2c2.1,0,3.6,1.2,3.6,3.1c0,1.2-1.2,6.2-7.3,6.2C586.5,672.6,585,671.5,585,669.6z
				 M594.7,666.4c0-0.3-0.1-0.5-0.2-0.7c-0.3-0.4-0.6-0.8-1.3-0.8c-0.8,0-1.9,0.4-3.7,1.4c-2.6,1.5-3.4,2.5-3.4,3.3
				c0,0.3,0.1,0.5,0.2,0.7c0.3,0.4,0.7,0.8,1.5,0.8c0.8,0,2-0.4,3.6-1.5C593.9,668,594.7,667.1,594.7,666.4z"/>
		</g>
	</g>
	<g transform="matrix(0.620079,0,0,0.620079,0,0)">
		<g class="st4">
			<path d="M600.5,665.6c-0.9,0-1.6-0.7-1.6-1.6s0.7-1.6,1.6-1.6s1.6,0.7,1.6,1.6S601.3,665.6,600.5,665.6z"/>
		</g>
	</g>
	<g transform="matrix(0.620079,0,0,0.620079,0,0)">
		<g class="st4">
			<path d="M688.8,691c0,0.1-0.1,0.1-0.2,0.1c-0.1,0-0.1,0-0.2,0c0,0-0.1,0-0.1,0c-0.5-0.2-1.6-0.5-2.5-0.5c-0.2,0-0.4,0-0.5,0
				c-1,0.2-1.5,1.3-1.5,2.3c0,0.3,0,0.6,0.1,0.8c0.1,0.3,0.4,1.1,0.8,1.1c0.3,0.2,0.5,0.5,0.5,0.8c0,0.1,0,0.1-0.1,0.2
				c0,0.1-0.3,0.2-0.5,0.2c-0.3,0-0.6-0.1-0.8-0.3c-2.3-1.8-3.7-3.4-3.7-5c0-1.7,1.2-3.1,2.6-3.1c0.2,0,0.4,0.1,0.5,0.1
				c0.1,0,0.3,0.1,0.5,0.1c0.2,0,0.3,0,0.4-0.2c0,0,0-0.1,0-0.1c0-0.2-0.1-0.3-0.2-0.4c-0.4-0.7-0.9-1.3-1.4-1.9l-1.6-1.9
				c0,0-0.3-0.3-0.3-0.8c0-0.3,0.1-0.6,0.4-0.9c1.4-1.5,1.9-2.9,1.9-4.1c0-2.3-1.8-3.9-2-4.3c-0.1-0.2-0.1-0.4-0.1-0.5
				c0-0.4,0.3-0.7,0.6-0.7c0.2,0,0.4,0.1,0.6,0.3c0.5,0.5,5.3,6.2,5.3,6.2s0.1,0.3,0.1,0.6c0,0.2,0,0.3-0.1,0.5
				c-0.8,1.3-2,2.8-2.1,4.7c0,0.1,0,0.3,0,0.4c0,1.8,1,3,2.2,4.4C688,689.5,688.8,690.6,688.8,691z"/>
		</g>
	</g>
	<g transform="matrix(0.620079,0,0,0.620079,0,0)">
		<line vector-effect="none" class="st5" x1="722" y1="669.2" x2="722" y2="699.8"/>
	</g>
	<g transform="matrix(0.620079,0,0,0.620079,0,0)">
		<g class="st4">
			<path d="M721.5,669.5c0-3.1,3.2-6,7.1-6c2.1,0,3.5,1.2,3.5,3c0,3-3.9,6-7.1,6C723,672.5,721.5,671.4,721.5,669.5z"/>
		</g>
	</g>
	<g transform="matrix(0.620079,0,0,0.620079,0,0)">
		<g class="st4">
			<path d="M753.6,679.2c0,0.2-0.2,0.7-0.3,1.2c0,0-3.1,11.2-3.2,11.3c-0.3,0.3-0.8,0.3-1.1,0.3c-0.2,0-0.9,0-0.9-0.4
				c0.6-2.1,2.9-8.5,3-9c0-0.1,0-0.3,0-0.4c0-0.2,0-0.3-0.2-0.3c0,0-0.1,0-0.2,0c-0.4,0.2-0.7,0.4-1.2,0.5c-0.4,0.1-0.8,0.2-1.2,0.2
				c-0.3,0-0.6-0.1-0.8-0.1c-0.3-0.1-0.6-0.2-0.9-0.4c-0.5-0.4-0.9-1-0.9-1.6c0-1.2,1-2.1,2.1-2.1s2.1,1,2.1,2.1v0.3
				c1.1,0,2.7-1.9,2.9-2.1c0.2-0.1,0.3-0.1,0.4-0.1C753.3,678.7,753.6,678.8,753.6,679.2z"/>
		</g>
	</g>
	<g transform="matrix(0.620079,0,0,0.620079,0,0)">
		<line vector-effect="none" class="st5" x1="770.5" y1="669.2" x2="770.5" y2="699.8"/>
	</g>
	<g transform="matrix(0.620079,0,0,0.620079,0,0)">
		<g class="st4">
			<path d="M770,669.5c0-3.1,3.2-6,7.1-6c2.1,0,3.5,1.2,3.5,3c0,3-3.9,6-7.1,6C771.5,672.5,770,671.4,770,669.5z"/>
		</g>
	</g>
	<g transform="matrix(0.620079,0,0,0.620079,0,0)">
		<line vector-effect="none" class="st0" x1="791.7" y1="660" x2="807.7" y2="660"/>
	</g>
	<g transform="matrix(0.620079,0,0,0.620079,0,0)">
		<line vector-effect="none" class="st5" x1="795" y1="657.2" x2="795" y2="684"/>
	</g>
	<g transform="matrix(0.620079,0,0,0.620079,0,0)">
		<g class="st4">
			<path d="M794.5,657.5c0-3.1,3.2-6,7.1-6c2.1,0,3.5,1.2,3.5,3c0,3-3.9,6-7.1,6C796,660.5,794.5,659.4,794.5,657.5z"/>
		</g>
	</g>
	<g transform="matrix(0.620079,0,0,0.620079,0,0)">
		<line vector-effect="none" class="st0" x1="845" y1="660" x2="861" y2="660"/>
	</g>
	<g transform="matrix(0.620079,0,0,0.620079,0,0)">
		<line vector-effect="none" class="st5" x1="848.2" y1="657.2" x2="848.2" y2="684"/>
	</g>
	<g transform="matrix(0.620079,0,0,0.620079,0,0)">
		<g class="st4">
			<path d="M847.7,657.5c0-3.1,3.2-6,7.1-6c2.1,0,3.5,1.2,3.5,3c0,3-3.9,6-7.1,6C849.2,660.5,847.7,659.4,847.7,657.5z"/>
		</g>
	</g>
	<g transform="matrix(0.620079,0,0,0.620079,0,0)">
		<line vector-effect="none" class="st0" x1="886" y1="660" x2="903" y2="660"/>
	</g>
	<g transform="matrix(0.620079,0,0,0.620079,0,0)">
		<line vector-effect="none" class="st0" x1="886" y1="652" x2="903" y2="652"/>
	</g>
	<g transform="matrix(0.620079,0,0,0.620079,0,0)">
		<line vector-effect="none" class="st5" x1="889.5" y1="649.2" x2="889.5" y2="684"/>
	</g>
	<g transform="matrix(0.620079,0,0,0.620079,0,0)">
		<g class="st4">
			<path d="M889,649.6c0-1.9,1.7-6.2,7.3-6.2c2.1,0,3.6,1.2,3.6,3.1c0,1.2-1.2,6.2-7.3,6.2C890.5,652.6,889,651.5,889,649.6z
				 M898.7,646.4c0-0.3-0.1-0.5-0.2-0.7c-0.3-0.4-0.6-0.8-1.3-0.8c-0.8,0-1.9,0.4-3.7,1.4c-2.6,1.5-3.4,2.5-3.4,3.3
				c0,0.3,0.1,0.5,0.2,0.7c0.3,0.4,0.7,0.8,1.5,0.8c0.8,0,2-0.4,3.6-1.5C897.9,648,898.7,647.1,898.7,646.4z"/>
		</g>
	</g>
	<g transform="matrix(0.620079,0,0,0.620079,0,0)">
		<line vector-effect="none" class="st0" x1="968.2" y1="660" x2="984.2" y2="660"/>
	</g>
	<g transform="matrix(0.620079,0,0,0.620079,0,0)">
		<line vector-effect="none" class="st0" x1="968.2" y1="652" x2="984.2" y2="652"/>
	</g>
	<g transform="matrix(0.620079,0,0,0.620079,0,0)">
		<line vector-effect="none" class="st5" x1="971.5" y1="649.2" x2="971.5" y2="684"/>
	</g>
	<g transform="matrix(0.620079,0,0,0.620079,0,0)">
		<g class="st4">
			<path d="M971,649.5c0-3.1,3.2-6,7.1-6c2.1,0,3.5,1.2,3.5,3c0,3-3.9,6-7.1,6C972.5,652.5,971,651.4,971,649.5z"/>
		</g>
	</g>
	<g transform="matrix(0.620079,0,0,0.620079,0,0)">
		<line vector-effect="none" class="st0" x1="1001.2" y1="660" x2="1017.2" y2="660"/>
	</g>
	<g transform="matrix(0.620079,0,0,0.620079,0,0)">
		<line vector-effect="none" class="st0" x1="1001.2" y1="652" x2="1017.2" y2="652"/>
	</g>
	<g transform="matrix(0.620079,0,0,0.620079,0,0)">
		<line vector-effect="none" class="st5" x1="1004.5" y1="653.2" x2="1004.5" y2="684"/>
	</g>
	<g transform="matrix(0.620079,0,0,0.620079,0,0)">
		<g class="st4">
			<path d="M1004,653.5c0-3.1,3.2-6,7.1-6c2.1,0,3.5,1.2,3.5,3c0,3-3.9,6-7.1,6C1005.5,656.5,1004,655.4,1004,653.5z"/>
		</g>
	</g>
	<g transform="matrix(0.620079,0,0,0.620079,0,0)">
		<line vector-effect="none" class="st0" x1="1034.5" y1="660" x2="1050.5" y2="660"/>
	</g>
	<g transform="matrix(0.620079,0,0,0.620079,0,0)">
		<line vector-effect="none" class="st0" x1="1034.5" y1="652" x2="1050.5" y2="652"/>
	</g>
	<g transform="matrix(0.620079,0,0,0.620079,0,0)">
		<line vector-effect="none" class="st5" x1="1037.7" y1="653.2" x2="1037.7" y2="684"/>
	</g>
	<g transform="matrix(0.620079,0,0,0.620079,0,0)">
		<g class="st4">
			<path d="M1037.2,653.5c0-3.1,3.2-6,7.1-6c2.1,0,3.5,1.2,3.5,3c0,3-3.9,6-7.1,6C1038.7,656.5,1037.2,655.4,1037.2,653.5z"/>
		</g>
	</g>
	<g transform="matrix(0.620079,0,0,0.620079,0,0)">
		<g class="st4">
			<path d="M1026,638.9c0-0.6,0.5-0.9,1-0.9c0.3,0,0.6,0.2,0.6,0.5c0,0.6-0.2,8.3-0.2,9c0,0.2,0.1,0.4,0.4,0.5c0.1,0,0.1,0,0.2,0
				c0.3,0,0.5-0.3,0.7-0.4c0.4-0.2,0.7-0.4,1.1-0.4c0.2-0.1,0.4-0.1,0.7-0.1c1.5,0.1,2.9,1.2,2.9,3.1c0,1.5-1,3.4-3.8,5.4
				c-0.8,0.5-1.6,1.4-2.5,1.9c0,0-0.1,0.1-0.2,0.1c-0.1,0-0.2,0-0.3-0.2C1026.1,657.1,1026,638.9,1026,638.9z M1027.8,655.1
				c0.1,0,0.2,0,0.3-0.1c1-0.6,1.9-1.6,2.3-2.4c0.4-0.7,0.5-1.3,0.5-1.9c0-0.6-0.2-1.2-0.5-1.5c-0.2-0.2-0.5-0.4-0.8-0.4
				c-0.3,0-0.5,0.1-0.8,0.2c-0.4,0.3-1.3,1-1.4,1.3c0,0.1-0.1,0.5-0.1,1c0,1.3,0.1,3.2,0.1,3.2
				C1027.5,654.8,1027.5,655.1,1027.8,655.1z"/>
		</g>
	</g>
	<g transform="matrix(0.620079,0,0,0.620079,0,0)">
		<line vector-effect="none" class="st0" x1="1067.7" y1="660" x2="1083.7" y2="660"/>
	</g>
	<g transform="matrix(0.620079,0,0,0.620079,0,0)">
		<line vector-effect="none" class="st5" x1="1071" y1="657.2" x2="1071" y2="684"/>
	</g>
	<g transform="matrix(0.620079,0,0,0.620079,0,0)">
		<g class="st4">
			<path d="M1070.5,657.5c0-3.1,3.2-6,7.1-6c2.1,0,3.5,1.2,3.5,3c0,3-3.9,6-7.1,6C1072,660.5,1070.5,659.4,1070.5,657.5z"/>
		</g>
	</g>
	<g transform="matrix(0.620079,0,0,0.620079,0,0)">
		<line vector-effect="none" class="st0" x1="1120.7" y1="660" x2="1137.7" y2="660"/>
	</g>
	<g transform="matrix(0.620079,0,0,0.620079,0,0)">
		<line vector-effect="none" class="st5" x1="1124.2" y1="657.2" x2="1124.2" y2="684"/>
	</g>
	<g transform="matrix(0.620079,0,0,0.620079,0,0)">
		<g class="st4">
			<path d="M1123.7,657.6c0-1.9,1.7-6.2,7.3-6.2c2.1,0,3.6,1.2,3.6,3.1c0,1.2-1.2,6.2-7.3,6.2
				C1125.3,660.6,1123.7,659.5,1123.7,657.6z M1133.5,654.4c0-0.3-0.1-0.5-0.2-0.7c-0.3-0.4-0.6-0.8-1.3-0.8c-0.8,0-1.9,0.4-3.7,1.4
				c-2.6,1.5-3.4,2.5-3.4,3.3c0,0.3,0.1,0.5,0.2,0.7c0.3,0.4,0.7,0.8,1.5,0.8c0.8,0,2-0.4,3.6-1.5
				C1132.7,656,1133.5,655.1,1133.5,654.4z"/>
		</g>
	</g>
	<g transform="matrix(0.620079,0,0,0.620079,0,0)">
		<g class="st4">
			<path d="M1139.2,657.6c-0.9,0-1.6-0.7-1.6-1.6s0.7-1.6,1.6-1.6c0.9,0,1.6,0.7,1.6,1.6S1140.1,657.6,1139.2,657.6z"/>
		</g>
	</g>
</g>
</svg>
