<?xml version="1.0" encoding="utf-8"?>
<!-- Generator: Adobe Illustrator 26.3.1, SVG Export Plug-In . SVG Version: 6.00 Build 0)  -->
<svg version="1.1" id="Layer_1" xmlns="http://www.w3.org/2000/svg" xmlns:xlink="http://www.w3.org/1999/xlink" x="0px" y="0px"
	 viewBox="0 0 792 612" style="enable-background:new 0 0 792 612;" xml:space="preserve">
<style type="text/css">
	.st0{fill:none;stroke:#000000;stroke-width:2.4803;stroke-linejoin:bevel;stroke-miterlimit:10;}
	.st1{fill:none;stroke:#000000;stroke-width:0.7751;stroke-linejoin:bevel;stroke-miterlimit:10;}
	.st2{enable-background:new    ;}
	.st3{fill:none;stroke:#000000;stroke-width:0.6201;stroke-linejoin:bevel;stroke-miterlimit:10;}
	.st4{fill-rule:evenodd;clip-rule:evenodd;}
</style>
<g>
	<g transform="matrix(0.620079,0,0,0.620079,0,0)">
		<line vector-effect="none" class="st0" x1="131.2" y1="433" x2="131.2" y2="465"/>
	</g>
	<g transform="matrix(0.620079,0,0,0.620079,0,0)">
		<line vector-effect="none" class="st1" x1="137" y1="433" x2="137" y2="465"/>
	</g>
	<g transform="matrix(0.620079,0,0,0.620079,0,0)">
		<g class="st2">
			<path d="M142.5,446.6c-0.9,0-1.6-0.7-1.6-1.6s0.7-1.6,1.6-1.6s1.6,0.7,1.6,1.6S143.3,446.6,142.5,446.6z"/>
		</g>
	</g>
	<g transform="matrix(0.620079,0,0,0.620079,0,0)">
		<g class="st2">
			<path d="M142.5,454.6c-0.9,0-1.6-0.7-1.6-1.6s0.7-1.6,1.6-1.6s1.6,0.7,1.6,1.6S143.3,454.6,142.5,454.6z"/>
		</g>
	</g>
	<g transform="matrix(0.620079,0,0,0.620079,0,0)">
		<line vector-effect="none" class="st1" x1="359.7" y1="433" x2="359.7" y2="465"/>
	</g>
	<g transform="matrix(0.620079,0,0,0.620079,0,0)">
		<line vector-effect="none" class="st0" x1="365.5" y1="433" x2="365.5" y2="465"/>
	</g>
	<g transform="matrix(0.620079,0,0,0.620079,0,0)">
		<g class="st2">
			<path d="M354.2,446.6c-0.9,0-1.6-0.7-1.6-1.6s0.7-1.6,1.6-1.6s1.6,0.7,1.6,1.6S355.1,446.6,354.2,446.6z"/>
		</g>
	</g>
	<g transform="matrix(0.620079,0,0,0.620079,0,0)">
		<g class="st2">
			<path d="M354.2,454.6c-0.9,0-1.6-0.7-1.6-1.6s0.7-1.6,1.6-1.6s1.6,0.7,1.6,1.6S355.1,454.6,354.2,454.6z"/>
		</g>
	</g>
	<g transform="matrix(0.620079,0,0,0.620079,0,0)">
		<line vector-effect="none" class="st0" x1="365.5" y1="433" x2="365.5" y2="465"/>
	</g>
	<g transform="matrix(0.620079,0,0,0.620079,0,0)">
		<line vector-effect="none" class="st1" x1="371.2" y1="433" x2="371.2" y2="465"/>
	</g>
	<g transform="matrix(0.620079,0,0,0.620079,0,0)">
		<g class="st2">
			<path d="M376.7,446.6c-0.9,0-1.6-0.7-1.6-1.6s0.7-1.6,1.6-1.6s1.6,0.7,1.6,1.6S377.6,446.6,376.7,446.6z"/>
		</g>
	</g>
	<g transform="matrix(0.620079,0,0,0.620079,0,0)">
		<g class="st2">
			<path d="M376.7,454.6c-0.9,0-1.6-0.7-1.6-1.6s0.7-1.6,1.6-1.6s1.6,0.7,1.6,1.6S377.6,454.6,376.7,454.6z"/>
		</g>
	</g>
	<g transform="matrix(0.620079,0,0,0.620079,0,0)">
		<line vector-effect="none" class="st1" x1="594" y1="433" x2="594" y2="465"/>
	</g>
	<g transform="matrix(0.620079,0,0,0.620079,0,0)">
		<line vector-effect="none" class="st0" x1="599.7" y1="433" x2="599.7" y2="465"/>
	</g>
	<g transform="matrix(0.620079,0,0,0.620079,0,0)">
		<g class="st2">
			<path d="M588.5,446.6c-0.9,0-1.6-0.7-1.6-1.6s0.7-1.6,1.6-1.6c0.9,0,1.6,0.7,1.6,1.6S589.3,446.6,588.5,446.6z"/>
		</g>
	</g>
	<g transform="matrix(0.620079,0,0,0.620079,0,0)">
		<g class="st2">
			<path d="M588.5,454.6c-0.9,0-1.6-0.7-1.6-1.6s0.7-1.6,1.6-1.6c0.9,0,1.6,0.7,1.6,1.6S589.3,454.6,588.5,454.6z"/>
		</g>
	</g>
	<g transform="matrix(0.620079,0,0,0.620079,0,0)">
		<line vector-effect="none" class="st0" x1="599.7" y1="433" x2="599.7" y2="465"/>
	</g>
	<g transform="matrix(0.620079,0,0,0.620079,0,0)">
		<line vector-effect="none" class="st1" x1="605.5" y1="433" x2="605.5" y2="465"/>
	</g>
	<g transform="matrix(0.620079,0,0,0.620079,0,0)">
		<g class="st2">
			<path d="M611,446.6c-0.9,0-1.6-0.7-1.6-1.6s0.7-1.6,1.6-1.6s1.6,0.7,1.6,1.6S611.8,446.6,611,446.6z"/>
		</g>
	</g>
	<g transform="matrix(0.620079,0,0,0.620079,0,0)">
		<g class="st2">
			<path d="M611,454.6c-0.9,0-1.6-0.7-1.6-1.6s0.7-1.6,1.6-1.6s1.6,0.7,1.6,1.6S611.8,454.6,611,454.6z"/>
		</g>
	</g>
	<g transform="matrix(0.620079,0,0,0.620079,0,0)">
		<line vector-effect="none" class="st1" x1="828" y1="433" x2="828" y2="465"/>
	</g>
	<g transform="matrix(0.620079,0,0,0.620079,0,0)">
		<line vector-effect="none" class="st0" x1="833.7" y1="433" x2="833.7" y2="465"/>
	</g>
	<g transform="matrix(0.620079,0,0,0.620079,0,0)">
		<g class="st2">
			<path d="M822.5,446.6c-0.9,0-1.6-0.7-1.6-1.6s0.7-1.6,1.6-1.6c0.9,0,1.6,0.7,1.6,1.6S823.3,446.6,822.5,446.6z"/>
		</g>
	</g>
	<g transform="matrix(0.620079,0,0,0.620079,0,0)">
		<g class="st2">
			<path d="M822.5,454.6c-0.9,0-1.6-0.7-1.6-1.6s0.7-1.6,1.6-1.6c0.9,0,1.6,0.7,1.6,1.6S823.3,454.6,822.5,454.6z"/>
		</g>
	</g>
	<g transform="matrix(0.620079,0,0,0.620079,0,0)">
		<line vector-effect="none" class="st0" x1="833.7" y1="433" x2="833.7" y2="465"/>
	</g>
	<g transform="matrix(0.620079,0,0,0.620079,0,0)">
		<line vector-effect="none" class="st1" x1="839.5" y1="433" x2="839.5" y2="465"/>
	</g>
	<g transform="matrix(0.620079,0,0,0.620079,0,0)">
		<g class="st2">
			<path d="M845,446.6c-0.9,0-1.6-0.7-1.6-1.6s0.7-1.6,1.6-1.6s1.6,0.7,1.6,1.6S845.8,446.6,845,446.6z"/>
		</g>
	</g>
	<g transform="matrix(0.620079,0,0,0.620079,0,0)">
		<g class="st2">
			<path d="M845,454.6c-0.9,0-1.6-0.7-1.6-1.6s0.7-1.6,1.6-1.6s1.6,0.7,1.6,1.6S845.8,454.6,845,454.6z"/>
		</g>
	</g>
	<g transform="matrix(0.620079,0,0,0.620079,0,0)">
		<line vector-effect="none" class="st1" x1="1062.2" y1="433" x2="1062.2" y2="465"/>
	</g>
	<g transform="matrix(0.620079,0,0,0.620079,0,0)">
		<line vector-effect="none" class="st0" x1="1068" y1="433" x2="1068" y2="465"/>
	</g>
	<g transform="matrix(0.620079,0,0,0.620079,0,0)">
		<g class="st2">
			<path d="M1056.7,446.6c-0.9,0-1.6-0.7-1.6-1.6s0.7-1.6,1.6-1.6s1.6,0.7,1.6,1.6S1057.6,446.6,1056.7,446.6z"/>
		</g>
	</g>
	<g transform="matrix(0.620079,0,0,0.620079,0,0)">
		<g class="st2">
			<path d="M1056.7,454.6c-0.9,0-1.6-0.7-1.6-1.6s0.7-1.6,1.6-1.6s1.6,0.7,1.6,1.6S1057.6,454.6,1056.7,454.6z"/>
		</g>
	</g>
	<g transform="matrix(0.620079,0,0,0.620079,0,0)">
		<line vector-effect="none" class="st1" x1="1211.7" y1="433" x2="1211.7" y2="465"/>
	</g>
	<g transform="matrix(0.620079,0,0,0.620079,0,0)">
		<line vector-effect="none" class="st0" x1="1217.5" y1="433" x2="1217.5" y2="465"/>
	</g>
	<g transform="matrix(0.620079,0,0,0.620079,0,0)">
	</g>
	<g transform="matrix(0.620079,0,0,0.620079,326.781,950.384)">
	</g>
	<g transform="matrix(0.620079,0,0,0.620079,326.781,950.384)">
		<g class="st2">
			<path d="M-389-1148.8h0.6v17.5c0,1.9-2.5,3.8-4.5,3.8c-1.2,0-2.2-0.7-2.2-1.9c0-2,2-3.8,4.4-3.8c0.7,0,1.2,0.2,1.6,0.5
				L-389-1148.8z"/>
		</g>
		<g class="st2">
			<path d="M-381.3-1134.5v-1.8h10.5v1.8H-381.3z M-370.8-1131.9v1.9h-10.5v-1.9H-370.8z"/>
			<path d="M-359.9-1134.9c-1.7-0.9-2.6-1.7-2.6-3.7c0-2.5,2-4.1,4.4-4.1c1.8,0,4.2,0.9,4.2,3.1c0,1.6-1.2,2.3-2.4,3.1
				c2,1.1,3.1,2,3.1,4.2c0,3-2.3,4.7-5.1,4.7c-2.4,0-4.8-1-4.8-3.7C-363.1-1133.2-361.6-1134.1-359.9-1134.9z M-358.1-1128.5
				c1.6,0,3-0.9,3-2.6c-0.1-1.8-2.4-2.9-3.9-3.3c-1.3,0.4-1.9,1.7-1.9,3C-360.9-1129.7-359.9-1128.5-358.1-1128.5z M-357.2-1136.7
				c0.9-0.5,1.5-1.5,1.5-2.5c0-1.6-0.9-2.5-2.5-2.5c-1.3,0-2.3,0.7-2.3,2.1C-360.5-1137.8-358.6-1137.3-357.2-1136.7z"/>
			<path d="M-348.9-1134.9c-1.7-0.9-2.6-1.7-2.6-3.7c0-2.5,2-4.1,4.4-4.1c1.8,0,4.2,0.9,4.2,3.1c0,1.6-1.2,2.3-2.4,3.1
				c2,1.1,3.1,2,3.1,4.2c0,3-2.3,4.7-5.1,4.7c-2.4,0-4.8-1-4.8-3.7C-352-1133.2-350.6-1134.1-348.9-1134.9z M-347-1128.5
				c1.6,0,3-0.9,3-2.6c-0.1-1.8-2.4-2.9-3.9-3.3c-1.3,0.4-1.9,1.7-1.9,3C-349.8-1129.7-348.8-1128.5-347-1128.5z M-346.2-1136.7
				c0.9-0.5,1.5-1.5,1.5-2.5c0-1.6-0.9-2.5-2.5-2.5c-1.3,0-2.3,0.7-2.3,2.1C-349.5-1137.8-347.6-1137.3-346.2-1136.7z"/>
		</g>
	</g>
	<g transform="matrix(0.620079,0,0,0.620079,326.781,950.384)">
	</g>
	<g transform="matrix(0.620079,0,0,0.620079,0,0)">
	</g>
	<g transform="matrix(0.620079,0,0,0.620079,907.795,950.384)">
	</g>
	<g transform="matrix(0.620079,0,0,0.620079,907.795,950.384)">
		<g class="st2">
			<path d="M-1091.8-1148.8h0.6v17.5c0,1.9-2.5,3.8-4.5,3.8c-1.2,0-2.2-0.7-2.2-1.9c0-2,2-3.8,4.4-3.8c0.7,0,1.2,0.2,1.6,0.5
				L-1091.8-1148.8z"/>
		</g>
		<g class="st2">
			<path d="M-1084.1-1134.5v-1.8h10.5v1.8H-1084.1z M-1073.6-1131.9v1.9h-10.5v-1.9H-1073.6z"/>
			<path d="M-1060.9-1142.6c3.8,0,5,3.6,5,6.8c0,3.5-1.7,8.3-5.9,8.3c-1.5,0-3.5-0.8-3.5-2.6c0-0.9,0.5-1.7,1.5-1.7
				c0.9,0,1.4,0.6,1.4,1.4c0,0.5-0.4,0.9-0.4,1.4c0,0.4,0.5,0.5,0.9,0.5c1.8,0,2.5-2.2,2.7-3.6c0-0.4,0.2-2.2,0.2-2.6
				c-1,0.9-1.7,1.3-3,1.3c-2.4,0-3.8-2-3.8-4.2C-1065.8-1140.6-1064-1142.6-1060.9-1142.6z M-1062.9-1138.1c0,1.3,0.1,3.2,1.8,3.2
				c1.7,0,2.1-2.2,2.1-3.5c0-1.3-0.3-3.3-2-3.3C-1062.8-1141.7-1062.9-1139.3-1062.9-1138.1z"/>
			<path d="M-1051.5-1134.9c-1.7-0.9-2.6-1.7-2.6-3.7c0-2.5,2-4.1,4.4-4.1c1.8,0,4.2,0.9,4.2,3.1c0,1.6-1.2,2.3-2.4,3.1
				c2,1.1,3.1,2,3.1,4.2c0,3-2.3,4.7-5.1,4.7c-2.4,0-4.8-1-4.8-3.7C-1054.6-1133.2-1053.2-1134.1-1051.5-1134.9z M-1049.6-1128.5
				c1.6,0,3-0.9,3-2.6c-0.1-1.8-2.4-2.9-3.9-3.3c-1.3,0.4-1.9,1.7-1.9,3C-1052.4-1129.7-1051.4-1128.5-1049.6-1128.5z
				 M-1048.8-1136.7c0.9-0.5,1.5-1.5,1.5-2.5c0-1.6-0.9-2.5-2.5-2.5c-1.3,0-2.3,0.7-2.3,2.1
				C-1052.1-1137.8-1050.2-1137.3-1048.8-1136.7z"/>
		</g>
	</g>
	<g transform="matrix(0.620079,0,0,0.620079,907.795,950.384)">
	</g>
	<g transform="matrix(0.620079,0,0,0.620079,0,0)">
	</g>
	<g transform="matrix(0.620079,0,0,0.620079,1488.81,950.384)">
	</g>
	<g transform="matrix(0.620079,0,0,0.620079,1488.81,950.384)">
		<g class="st2">
			<path d="M-1794.5-1148.8h0.6v17.5c0,1.9-2.5,3.8-4.5,3.8c-1.2,0-2.2-0.7-2.2-1.9c0-2,2-3.8,4.4-3.8c0.7,0,1.2,0.2,1.6,0.5
				L-1794.5-1148.8z"/>
		</g>
		<g class="st2">
			<path d="M-1786.8-1134.5v-1.8h10.5v1.8H-1786.8z M-1776.3-1131.9v1.9h-10.5v-1.9H-1776.3z"/>
			<path d="M-1762.6-1142.7h0.7v13.1c0,0.4,0.3,0.8,0.7,0.8h2.1v0.9h-8.1v-0.9h1.7c0.5,0,0.8-0.5,0.8-0.9v-9.9
				c0-0.4-0.3-0.8-0.7-0.8h-2.4v-1C-1765.9-1141.4-1764.3-1141.8-1762.6-1142.7z"/>
			<path d="M-1757-1135c0-3.2,1.3-7.5,5.6-7.5c4.1,0,5.4,4.6,5.4,7.5c0,3.1-1.3,7.5-5.5,7.5C-1755.8-1127.6-1757-1132.1-1757-1135z
				 M-1751.6-1128.6c2.1,0,2.1-3.8,2.1-6.5c0-3.2,0-6.5-2-6.5c-2.1,0-2.1,3.4-2.1,6.9C-1753.6-1132.4-1753.7-1128.6-1751.6-1128.6z"
				/>
			<path d="M-1741.8-1134.9c-1.7-0.9-2.6-1.7-2.6-3.7c0-2.5,2-4.1,4.4-4.1c1.8,0,4.2,0.9,4.2,3.1c0,1.6-1.2,2.3-2.4,3.1
				c2,1.1,3.1,2,3.1,4.2c0,3-2.3,4.7-5.1,4.7c-2.3,0-4.8-1-4.8-3.7C-1745-1133.2-1743.6-1134.1-1741.8-1134.9z M-1740-1128.5
				c1.6,0,3-0.9,3-2.6c-0.1-1.8-2.4-2.9-3.9-3.3c-1.3,0.4-1.9,1.7-1.9,3C-1742.8-1129.7-1741.8-1128.5-1740-1128.5z M-1739.2-1136.7
				c0.9-0.5,1.5-1.5,1.5-2.5c0-1.6-0.9-2.5-2.5-2.5c-1.3,0-2.3,0.7-2.3,2.1C-1742.4-1137.8-1740.6-1137.3-1739.2-1136.7z"/>
		</g>
	</g>
	<g transform="matrix(0.620079,0,0,0.620079,1488.81,950.384)">
	</g>
	<g transform="matrix(0.620079,0,0,0.620079,0,0)">
	</g>
	<g transform="matrix(0.620079,0,0,0.620079,2069.2,950.384)">
	</g>
	<g transform="matrix(0.620079,0,0,0.620079,2069.2,950.384)">
		<g class="st2">
			<path d="M-2496.5-1148.8h0.6v17.5c0,1.9-2.5,3.8-4.5,3.8c-1.2,0-2.2-0.7-2.2-1.9c0-2,2-3.8,4.4-3.8c0.7,0,1.2,0.2,1.6,0.5
				L-2496.5-1148.8z"/>
		</g>
		<g class="st2">
			<path d="M-2488.8-1134.5v-1.8h10.5v1.8H-2488.8z M-2478.3-1131.9v1.9h-10.5v-1.9H-2478.3z"/>
			<path d="M-2464.6-1142.7h0.7v13.1c0,0.4,0.3,0.8,0.7,0.8h2.1v0.9h-8.1v-0.9h1.7c0.5,0,0.8-0.5,0.8-0.9v-9.9
				c0-0.4-0.3-0.8-0.7-0.8h-2.4v-1C-2467.9-1141.4-2466.3-1141.8-2464.6-1142.7z"/>
			<path d="M-2453.1-1142.7h0.7v13.1c0,0.4,0.3,0.8,0.7,0.8h2.1v0.9h-8.1v-0.9h1.7c0.5,0,0.8-0.5,0.8-0.9v-9.9
				c0-0.4-0.3-0.8-0.7-0.8h-2.4v-1C-2456.3-1141.4-2454.7-1141.8-2453.1-1142.7z"/>
			<path d="M-2444.3-1134.9c-1.7-0.9-2.6-1.7-2.6-3.7c0-2.5,2-4.1,4.4-4.1c1.8,0,4.2,0.9,4.2,3.1c0,1.6-1.2,2.3-2.4,3.1
				c2,1.1,3.1,2,3.1,4.2c0,3-2.3,4.7-5.1,4.7c-2.3,0-4.8-1-4.8-3.7C-2447.5-1133.2-2446.1-1134.1-2444.3-1134.9z M-2442.5-1128.5
				c1.6,0,3-0.9,3-2.6c-0.1-1.8-2.4-2.9-3.9-3.3c-1.3,0.4-1.9,1.7-1.9,3C-2445.3-1129.7-2444.3-1128.5-2442.5-1128.5z
				 M-2441.7-1136.7c0.9-0.5,1.5-1.5,1.5-2.5c0-1.6-0.9-2.5-2.5-2.5c-1.3,0-2.3,0.7-2.3,2.1
				C-2444.9-1137.8-2443.1-1137.3-2441.7-1136.7z"/>
		</g>
	</g>
	<g transform="matrix(0.620079,0,0,0.620079,2069.2,950.384)">
	</g>
	<g transform="matrix(0.620079,0,0,0.620079,0,0)">
	</g>
	<g transform="matrix(0.620079,0,0,0.620079,275.315,1003.7)">
	</g>
	<g transform="matrix(0.620079,0,0,0.620079,275.315,1003.7)">
		<g class="st2">
			<path d="M-318.8-1174.5c0,0.4-0.2,0.7-0.5,0.7h-1.9v1.7c0,1,0.6,1.2,1,1.2c0.3,0,0.7,0.2,0.7,0.6c0,0.5-0.3,0.6-0.6,0.6h-7.5
				c-0.5,0-0.6-0.3-0.6-0.6c0-0.3,0.2-0.6,0.7-0.6c0.6,0,1.3-0.3,1.3-1.1v-1.8h-5.8c-0.4,0-0.6-0.4-0.6-0.7c0-0.1,0-0.2,0.1-0.3
				c0,0,0-0.1,0-0.1l0.2-0.3c0.9-1.3,3.6-5.7,3.6-9.6c0-0.5,0.4-0.6,0.7-0.6c0.3,0,2.1,0.1,2.6,0.1c0.6,0,2.3-0.1,2.5-0.1
				c0.3,0,0.5,0.2,0.5,0.5c0,0.1,0,0.1,0,0.1c-0.1,0.4-5.5,7.4-8.1,9.5h4.3v-2.5c0-0.4,0.2-0.6,0.3-0.7l3.8-3.6
				c0.2-0.2,0.3-0.3,0.6-0.3c0.4,0,0.4,0.3,0.4,0.5v6.6h1.9C-319-1175.2-318.8-1174.9-318.8-1174.5z"/>
		</g>
	</g>
	<g transform="matrix(0.620079,0,0,0.620079,275.315,1003.7)">
		<g class="st2">
			<path d="M-318.8-1158.4c0,0.4-0.2,0.7-0.5,0.7h-1.9v1.7c0,1,0.6,1.2,1,1.2c0.3,0,0.7,0.2,0.7,0.6c0,0.5-0.3,0.6-0.6,0.6h-7.5
				c-0.5,0-0.6-0.3-0.6-0.6c0-0.3,0.2-0.6,0.7-0.6c0.6,0,1.3-0.3,1.3-1.1v-1.8h-5.8c-0.4,0-0.6-0.4-0.6-0.7c0-0.1,0-0.2,0.1-0.3
				c0,0,0-0.1,0-0.1l0.2-0.3c0.9-1.3,3.6-5.7,3.6-9.6c0-0.5,0.4-0.6,0.7-0.6c0.3,0,2.1,0.1,2.6,0.1c0.6,0,2.3-0.1,2.5-0.1
				c0.3,0,0.5,0.2,0.5,0.5c0,0.1,0,0.1,0,0.1c-0.1,0.4-5.5,7.4-8.1,9.5h4.3v-2.5c0-0.4,0.2-0.6,0.3-0.7l3.8-3.6
				c0.2-0.2,0.3-0.3,0.6-0.3c0.4,0,0.4,0.3,0.4,0.5v6.6h1.9C-319-1159.1-318.8-1158.8-318.8-1158.4z"/>
		</g>
	</g>
	<g transform="matrix(0.620079,0,0,0.620079,275.315,1003.7)">
	</g>
	<g transform="matrix(0.620079,0,0,0.620079,0,0)">
	</g>
	<g transform="matrix(0.620079,0,0,0.620079,0,0)">
		<line vector-effect="none" class="st3" x1="58.2" y1="465" x2="1219.5" y2="465"/>
	</g>
	<g transform="matrix(0.620079,0,0,0.620079,0,0)">
		<line vector-effect="none" class="st3" x1="58.2" y1="457" x2="1219.5" y2="457"/>
	</g>
	<g transform="matrix(0.620079,0,0,0.620079,0,0)">
		<line vector-effect="none" class="st3" x1="58.2" y1="449" x2="1219.5" y2="449"/>
	</g>
	<g transform="matrix(0.620079,0,0,0.620079,0,0)">
		<line vector-effect="none" class="st3" x1="58.2" y1="441" x2="1219.5" y2="441"/>
	</g>
	<g transform="matrix(0.620079,0,0,0.620079,0,0)">
		<line vector-effect="none" class="st3" x1="58.2" y1="433" x2="1219.5" y2="433"/>
	</g>
	<g transform="matrix(0.620079,0,0,0.620079,0,0)">
		<g class="st2">
			<path d="M81.2,441.9c0,4.2-1.7,8.1-4.4,11.1c-3.4,3.6-7.5,6.1-11.7,8.2c-0.2,0.1-0.4,0.2-0.5,0.2c-0.3,0-0.4-0.2-0.4-0.4
				c0-0.3,0.2-0.4,0.5-0.6c4-2.3,7.3-5,9.2-8c2-3.1,2.7-6.9,2.7-10.2c0-5-1.5-8.3-4.9-8.3c-3.3,0-5.2,2.3-5.2,3.6
				c0,0.3,0.1,0.6,0.5,0.6s0.7-0.2,1.6-0.2c1.6,0,3.1,1.3,3.1,3.3c0,2-1.4,3.4-3.4,3.4c-2.6,0-3.9-2.2-3.9-4.8
				c0-3.1,2.5-7.1,8.1-7.1C77.8,432.6,81.2,436.3,81.2,441.9z M86.1,437c0,1-0.8,1.8-1.8,1.8c-1,0-1.8-0.8-1.8-1.8
				c0-1,0.8-1.8,1.8-1.8C85.3,435.2,86.1,436,86.1,437z M86.1,445c0,1-0.7,1.7-1.7,1.7c-1,0-1.7-0.7-1.7-1.7s0.7-1.7,1.7-1.7
				C85.3,443.3,86.1,444,86.1,445z"/>
		</g>
	</g>
	<g transform="matrix(0.620079,0,0,0.620079,0,0)">
		<g class="st2">
			<path d="M92.2,443.9c0-0.6,0.5-0.9,1-0.9c0.3,0,0.6,0.2,0.6,0.5c0,0.6-0.2,8.3-0.2,9c0,0.2,0.1,0.4,0.4,0.5c0.1,0,0.1,0,0.2,0
				c0.3,0,0.5-0.3,0.7-0.4c0.4-0.2,0.7-0.4,1.1-0.4c0.2-0.1,0.4-0.1,0.7-0.1c1.5,0.1,2.9,1.2,2.9,3.1c0,1.5-1,3.4-3.8,5.4
				c-0.8,0.5-1.6,1.4-2.5,2c0,0-0.1,0.1-0.2,0.1s-0.2,0-0.3-0.2C92.3,462.1,92.2,443.9,92.2,443.9z M94.1,460.1c0.1,0,0.2,0,0.3-0.1
				c1-0.6,1.9-1.6,2.3-2.4c0.4-0.7,0.5-1.3,0.5-1.9c0-0.6-0.2-1.2-0.5-1.5c-0.2-0.2-0.5-0.4-0.8-0.4c-0.3,0-0.5,0.1-0.8,0.2
				c-0.4,0.3-1.3,1-1.4,1.3c0,0.1-0.1,0.5-0.1,1c0,1.3,0.1,3.2,0.1,3.2C93.7,459.8,93.8,460.1,94.1,460.1z"/>
		</g>
	</g>
	<g transform="matrix(0.620079,0,0,0.620079,0,0)">
		<g class="st2">
			<path d="M219,421c-0.2,0-0.4-0.3-0.4-0.5c0-0.1-0.1-0.2-0.1-0.3c0-0.2,0.1-0.3,0.4-0.5c0,0,6.8-2.3,7.2-2.4
				c0.2-0.1,0.3-0.1,0.3-0.2s-0.1-0.2-0.2-0.2c-0.3-0.1-7.2-2.5-7.2-2.5c-0.4-0.1-0.4-0.3-0.4-0.4c0-0.1,0-0.2,0.1-0.3
				c0.1-0.3,0.2-0.4,0.5-0.4c0.1,0,0.2,0,0.3,0.1l9.6,3.3c0.4,0.1,0.4,0.3,0.4,0.6s0,0.5-0.4,0.6c0,0-9.7,3.3-9.8,3.3
				C219.1,421,219,421,219,421z"/>
		</g>
	</g>
	<g transform="matrix(0.620079,0,0,0.620079,0,0)">
		<g class="st2">
			<path d="M262.5,421c-0.2,0-0.4-0.3-0.4-0.5c0-0.1-0.1-0.2-0.1-0.3c0-0.2,0.1-0.3,0.4-0.5c0,0,6.8-2.3,7.2-2.4
				c0.2-0.1,0.3-0.1,0.3-0.2s-0.1-0.2-0.2-0.2c-0.3-0.1-7.2-2.5-7.2-2.5c-0.4-0.1-0.4-0.3-0.4-0.4c0-0.1,0-0.2,0.1-0.3
				c0.1-0.3,0.2-0.4,0.5-0.4c0.1,0,0.2,0,0.3,0.1l9.6,3.3c0.4,0.1,0.4,0.3,0.4,0.6s0,0.5-0.4,0.6c0,0-9.7,3.3-9.8,3.3
				C262.6,421,262.5,421,262.5,421z"/>
		</g>
	</g>
	<g transform="matrix(0.620079,0,0,0.620079,0,0)">
		<path vector-effect="none" class="st4" d="M219,457h43.5v-4H219V457"/>
	</g>
	<g transform="matrix(0.620079,0,0,0.620079,0,0)">
		<g class="st2">
			<path d="M305.7,421c-0.2,0-0.4-0.3-0.4-0.5c0-0.1-0.1-0.2-0.1-0.3c0-0.2,0.1-0.3,0.4-0.5c0,0,6.8-2.3,7.2-2.4
				c0.2-0.1,0.3-0.1,0.3-0.2s-0.1-0.2-0.2-0.2c-0.3-0.1-7.2-2.5-7.2-2.5c-0.4-0.1-0.4-0.3-0.4-0.4c0-0.1,0-0.2,0.1-0.3
				c0.1-0.3,0.2-0.4,0.5-0.4c0.1,0,0.2,0,0.3,0.1l9.6,3.3c0.4,0.1,0.4,0.3,0.4,0.6s0,0.5-0.4,0.6c0,0-9.7,3.3-9.8,3.3
				C305.8,421,305.7,421,305.7,421z"/>
		</g>
	</g>
	<g transform="matrix(0.620079,0,0,0.620079,0,0)">
		<path vector-effect="none" class="st4" d="M284,457h43.5v-4H284V457"/>
	</g>
	<g transform="matrix(0.620079,0,0,0.620079,0,0)">
		<g class="st2">
			<path d="M453.2,421c-0.2,0-0.4-0.3-0.4-0.5c0-0.1-0.1-0.2-0.1-0.3c0-0.2,0.1-0.3,0.4-0.5c0,0,6.8-2.3,7.2-2.4
				c0.2-0.1,0.3-0.1,0.3-0.2s-0.1-0.2-0.2-0.2c-0.3-0.1-7.2-2.5-7.2-2.5c-0.4-0.1-0.4-0.3-0.4-0.4c0-0.1,0-0.2,0.1-0.3
				c0.1-0.3,0.2-0.4,0.5-0.4c0.1,0,0.2,0,0.3,0.1l9.6,3.3c0.4,0.1,0.4,0.3,0.4,0.6s0,0.5-0.4,0.6c0,0-9.7,3.3-9.8,3.3
				C453.3,421,453.2,421,453.2,421z"/>
		</g>
	</g>
	<g transform="matrix(0.620079,0,0,0.620079,0,0)">
		<g class="st2">
			<path d="M496.5,421c-0.2,0-0.4-0.3-0.4-0.5c0-0.1-0.1-0.2-0.1-0.3c0-0.2,0.1-0.3,0.4-0.5c0,0,6.8-2.3,7.2-2.4
				c0.2-0.1,0.3-0.1,0.3-0.2s-0.1-0.2-0.2-0.2c-0.3-0.1-7.2-2.5-7.2-2.5c-0.4-0.1-0.4-0.3-0.4-0.4c0-0.1,0-0.2,0.1-0.3
				c0.1-0.3,0.2-0.4,0.5-0.4c0.1,0,0.2,0,0.3,0.1l9.6,3.3c0.4,0.1,0.4,0.3,0.4,0.6s0,0.5-0.4,0.6c0,0-9.7,3.3-9.8,3.3
				C496.6,421,496.5,421,496.5,421z"/>
		</g>
	</g>
	<g transform="matrix(0.620079,0,0,0.620079,0,0)">
		<path vector-effect="none" class="st4" d="M453.2,457h43.2v-4h-43.2V457"/>
	</g>
	<g transform="matrix(0.620079,0,0,0.620079,0,0)">
		<g class="st2">
			<path d="M540,421c-0.2,0-0.4-0.3-0.4-0.5c0-0.1-0.1-0.2-0.1-0.3c0-0.2,0.1-0.3,0.4-0.5c0,0,6.8-2.3,7.2-2.4
				c0.2-0.1,0.3-0.1,0.3-0.2s-0.1-0.2-0.2-0.2c-0.3-0.1-7.2-2.5-7.2-2.5c-0.4-0.1-0.4-0.3-0.4-0.4c0-0.1,0-0.2,0.1-0.3
				c0.1-0.3,0.2-0.4,0.5-0.4c0.1,0,0.2,0,0.3,0.1l9.6,3.3c0.4,0.1,0.4,0.3,0.4,0.6s0,0.5-0.4,0.6c0,0-9.7,3.3-9.8,3.3
				C540.1,421,540,421,540,421z"/>
		</g>
	</g>
	<g transform="matrix(0.620079,0,0,0.620079,0,0)">
		<path vector-effect="none" class="st4" d="M518.2,457h43.5v-4h-43.5V457"/>
	</g>
	<g transform="matrix(0.620079,0,0,0.620079,0,0)">
		<g class="st2">
			<path d="M687.2,421c-0.2,0-0.4-0.3-0.4-0.5c0-0.1-0.1-0.2-0.1-0.3c0-0.2,0.1-0.3,0.4-0.5c0,0,6.8-2.3,7.2-2.4
				c0.2-0.1,0.3-0.1,0.3-0.2s-0.1-0.2-0.2-0.2c-0.3-0.1-7.2-2.5-7.2-2.5c-0.4-0.1-0.4-0.3-0.4-0.4c0-0.1,0-0.2,0.1-0.3
				c0.1-0.3,0.2-0.4,0.5-0.4c0.1,0,0.2,0,0.3,0.1l9.6,3.3c0.4,0.1,0.4,0.3,0.4,0.6s0,0.5-0.4,0.6c0,0-9.7,3.3-9.8,3.3
				C687.3,421,687.2,421,687.2,421z"/>
		</g>
	</g>
	<g transform="matrix(0.620079,0,0,0.620079,0,0)">
		<g class="st2">
			<path d="M730.7,421c-0.2,0-0.4-0.3-0.4-0.5c0-0.1-0.1-0.2-0.1-0.3c0-0.2,0.1-0.3,0.4-0.5c0,0,6.8-2.3,7.2-2.4
				c0.2-0.1,0.3-0.1,0.3-0.2s-0.1-0.2-0.2-0.2c-0.3-0.1-7.2-2.5-7.2-2.5c-0.4-0.1-0.4-0.3-0.4-0.4c0-0.1,0-0.2,0.1-0.3
				c0.1-0.3,0.2-0.4,0.5-0.4c0.1,0,0.2,0,0.3,0.1l9.6,3.3c0.4,0.1,0.4,0.3,0.4,0.6s0,0.5-0.4,0.6c0,0-9.7,3.3-9.8,3.3
				C730.8,421,730.7,421,730.7,421z"/>
		</g>
	</g>
	<g transform="matrix(0.620079,0,0,0.620079,0,0)">
		<path vector-effect="none" class="st4" d="M687.2,457h43.5v-4h-43.5V457"/>
	</g>
	<g transform="matrix(0.620079,0,0,0.620079,0,0)">
		<g class="st2">
			<path d="M774.2,421c-0.2,0-0.4-0.3-0.4-0.5c0-0.1-0.1-0.2-0.1-0.3c0-0.2,0.1-0.3,0.4-0.5c0,0,6.8-2.3,7.2-2.4
				c0.2-0.1,0.3-0.1,0.3-0.2s-0.1-0.2-0.2-0.2c-0.3-0.1-7.2-2.5-7.2-2.5c-0.4-0.1-0.4-0.3-0.4-0.4c0-0.1,0-0.2,0.1-0.3
				c0.1-0.3,0.2-0.4,0.5-0.4c0.1,0,0.2,0,0.3,0.1l9.6,3.3c0.4,0.1,0.4,0.3,0.4,0.6s0,0.5-0.4,0.6c0,0-9.7,3.3-9.8,3.3
				C774.3,421,774.2,421,774.2,421z"/>
		</g>
	</g>
	<g transform="matrix(0.620079,0,0,0.620079,0,0)">
		<path vector-effect="none" class="st4" d="M752.5,457H796v-4h-43.5V457"/>
	</g>
	<g transform="matrix(0.620079,0,0,0.620079,0,0)">
		<g class="st2">
			<path d="M921.5,421c-0.2,0-0.4-0.3-0.4-0.5c0-0.1-0.1-0.2-0.1-0.3c0-0.2,0.1-0.3,0.4-0.5c0,0,6.8-2.3,7.2-2.4
				c0.2-0.1,0.3-0.1,0.3-0.2s-0.1-0.2-0.2-0.2c-0.3-0.1-7.2-2.5-7.2-2.5c-0.4-0.1-0.4-0.3-0.4-0.4c0-0.1,0-0.2,0.1-0.3
				c0.1-0.3,0.2-0.4,0.5-0.4c0.1,0,0.2,0,0.3,0.1l9.6,3.3c0.4,0.1,0.4,0.3,0.4,0.6s0,0.5-0.4,0.6c0,0-9.7,3.3-9.8,3.3
				C921.6,421,921.5,421,921.5,421z"/>
		</g>
	</g>
	<g transform="matrix(0.620079,0,0,0.620079,0,0)">
		<g class="st2">
			<path d="M965,421c-0.2,0-0.4-0.3-0.4-0.5c0-0.1-0.1-0.2-0.1-0.3c0-0.2,0.1-0.3,0.4-0.5c0,0,6.8-2.3,7.2-2.4
				c0.2-0.1,0.3-0.1,0.3-0.2s-0.1-0.2-0.2-0.2c-0.3-0.1-7.2-2.5-7.2-2.5c-0.4-0.1-0.4-0.3-0.4-0.4c0-0.1,0-0.2,0.1-0.3
				c0.1-0.3,0.2-0.4,0.5-0.4c0.1,0,0.2,0,0.3,0.1l9.6,3.3c0.4,0.1,0.4,0.3,0.4,0.6s0,0.5-0.4,0.6c0,0-9.7,3.3-9.8,3.3
				C965.1,421,965,421,965,421z"/>
		</g>
	</g>
	<g transform="matrix(0.620079,0,0,0.620079,0,0)">
		<path vector-effect="none" class="st4" d="M921.5,457H965v-4h-43.5V457"/>
	</g>
	<g transform="matrix(0.620079,0,0,0.620079,0,0)">
		<g class="st2">
			<path d="M1008.5,421c-0.2,0-0.4-0.3-0.4-0.5c0-0.1-0.1-0.2-0.1-0.3c0-0.2,0.1-0.3,0.4-0.5c0,0,6.8-2.3,7.2-2.4
				c0.2-0.1,0.3-0.1,0.3-0.2s-0.1-0.2-0.2-0.2c-0.3-0.1-7.2-2.5-7.2-2.5c-0.4-0.1-0.4-0.3-0.4-0.4c0-0.1,0-0.2,0.1-0.3
				c0.1-0.3,0.2-0.4,0.5-0.4c0.1,0,0.2,0,0.3,0.1l9.6,3.3c0.4,0.1,0.4,0.3,0.4,0.6s0,0.5-0.4,0.6c0,0-9.7,3.3-9.8,3.3
				C1008.6,421,1008.5,421,1008.5,421z"/>
		</g>
	</g>
	<g transform="matrix(0.620079,0,0,0.620079,0,0)">
		<path vector-effect="none" class="st4" d="M986.7,457h43.2v-4h-43.2V457"/>
	</g>
	<g transform="matrix(0.620079,0,0,0.620079,577.293,1151.39)">
	</g>
	<g transform="matrix(0.620079,0,0,0.620079,577.293,1151.39)">
		<g class="st2">
			<path d="M-697.7-1377.9c0-1,0.6-1.7,1.4-1.7c0.6,0,1.1,0.4,1.1,1.1c0,0.8-0.4,1.1-0.7,1.3c-0.2,0.1-0.4,0.2-0.4,0.3
				c0,0.3,0.5,0.5,1.1,0.5c1.8,0,2.7-1.8,2.7-3.1c0-0.9-0.5-1.6-1.6-1.6h-0.3c-0.4,0-0.6-0.2-0.6-0.4c0-0.3,0.2-0.4,0.6-0.4h0.3
				c1.7,0,2.7-1.1,2.7-2.6c0-0.6-0.4-1.3-1.5-1.3c-0.6,0-1,0.2-1,0.4c0,0.1,0.1,0.2,0.4,0.4c0.1,0.2,0.3,0.4,0.3,0.7
				c0,0.8-0.6,1.4-1.3,1.4c-0.7,0-1.1-0.5-1.1-1.3c0.1-1.6,1.6-2.5,3.4-2.5c1.8,0,3.2,0.9,3.2,2.5c0,1.2-1,2.1-2.2,2.6
				c-0.2,0.1-0.4,0.2-0.4,0.3c0,0.1,0.1,0.2,0.3,0.3c0.8,0.4,1.1,1.1,1.1,1.8c0,2.3-2,3.8-4.5,3.8
				C-696.8-1375.7-697.7-1376.7-697.7-1377.9z"/>
		</g>
	</g>
	<g transform="matrix(0.620079,0,0,0.620079,577.293,1151.39)">
	</g>
	<g transform="matrix(0.620079,0,0,0.620079,0,0)">
	</g>
	<g transform="matrix(0.620079,0,0,0.620079,738.514,1151.39)">
	</g>
	<g transform="matrix(0.620079,0,0,0.620079,738.514,1151.39)">
		<g class="st2">
			<path d="M-892.7-1377.9c0-1,0.6-1.7,1.4-1.7c0.6,0,1.1,0.4,1.1,1.1c0,0.8-0.4,1.1-0.7,1.3c-0.2,0.1-0.4,0.2-0.4,0.3
				c0,0.3,0.5,0.5,1.1,0.5c1.8,0,2.7-1.8,2.7-3.1c0-0.9-0.5-1.6-1.6-1.6h-0.3c-0.4,0-0.6-0.2-0.6-0.4c0-0.3,0.2-0.4,0.6-0.4h0.3
				c1.7,0,2.7-1.1,2.7-2.6c0-0.6-0.4-1.3-1.5-1.3c-0.6,0-1,0.2-1,0.4c0,0.1,0.1,0.2,0.4,0.4c0.1,0.2,0.3,0.4,0.3,0.7
				c0,0.8-0.6,1.4-1.3,1.4c-0.7,0-1.1-0.5-1.1-1.3c0.1-1.6,1.6-2.5,3.4-2.5c1.8,0,3.2,0.9,3.2,2.5c0,1.2-1,2.1-2.2,2.6
				c-0.2,0.1-0.4,0.2-0.4,0.3c0,0.1,0.1,0.2,0.3,0.3c0.8,0.4,1.1,1.1,1.1,1.8c0,2.3-2,3.8-4.5,3.8
				C-891.8-1375.7-892.7-1376.7-892.7-1377.9z"/>
		</g>
	</g>
	<g transform="matrix(0.620079,0,0,0.620079,738.514,1151.39)">
	</g>
	<g transform="matrix(0.620079,0,0,0.620079,0,0)">
	</g>
	<g transform="matrix(0.620079,0,0,0.620079,1157.69,1151.39)">
	</g>
	<g transform="matrix(0.620079,0,0,0.620079,1157.69,1151.39)">
		<g class="st2">
			<path d="M-1399.7-1377.9c0-1,0.6-1.7,1.4-1.7c0.6,0,1.1,0.4,1.1,1.1c0,0.8-0.4,1.1-0.7,1.3c-0.2,0.1-0.4,0.2-0.4,0.3
				c0,0.3,0.5,0.5,1.1,0.5c1.8,0,2.7-1.8,2.7-3.1c0-0.9-0.5-1.6-1.6-1.6h-0.3c-0.4,0-0.6-0.2-0.6-0.4c0-0.3,0.2-0.4,0.6-0.4h0.3
				c1.7,0,2.7-1.1,2.7-2.6c0-0.6-0.4-1.3-1.5-1.3c-0.6,0-1,0.2-1,0.4c0,0.1,0.1,0.2,0.4,0.4c0.1,0.2,0.3,0.4,0.3,0.7
				c0,0.8-0.6,1.4-1.3,1.4c-0.7,0-1.1-0.5-1.1-1.3c0.1-1.6,1.6-2.5,3.4-2.5c1.8,0,3.2,0.9,3.2,2.5c0,1.2-1,2.1-2.2,2.6
				c-0.2,0.1-0.4,0.2-0.4,0.3c0,0.1,0.1,0.2,0.3,0.3c0.8,0.4,1.1,1.1,1.1,1.8c0,2.3-2,3.8-4.5,3.8
				C-1398.8-1375.7-1399.7-1376.7-1399.7-1377.9z"/>
		</g>
	</g>
	<g transform="matrix(0.620079,0,0,0.620079,1157.69,1151.39)">
	</g>
	<g transform="matrix(0.620079,0,0,0.620079,0,0)">
	</g>
	<g transform="matrix(0.620079,0,0,0.620079,1319.53,1151.39)">
	</g>
	<g transform="matrix(0.620079,0,0,0.620079,1319.53,1151.39)">
		<g class="st2">
			<path d="M-1595.5-1377.9c0-1,0.6-1.7,1.4-1.7c0.6,0,1.1,0.4,1.1,1.1c0,0.8-0.4,1.1-0.7,1.3c-0.2,0.1-0.4,0.2-0.4,0.3
				c0,0.3,0.5,0.5,1.1,0.5c1.8,0,2.7-1.8,2.7-3.1c0-0.9-0.5-1.6-1.6-1.6h-0.3c-0.4,0-0.6-0.2-0.6-0.4c0-0.3,0.2-0.4,0.6-0.4h0.3
				c1.7,0,2.7-1.1,2.7-2.6c0-0.6-0.4-1.3-1.5-1.3c-0.6,0-1,0.2-1,0.4c0,0.1,0.1,0.2,0.4,0.4c0.1,0.2,0.3,0.4,0.3,0.7
				c0,0.8-0.6,1.4-1.3,1.4c-0.7,0-1.1-0.5-1.1-1.3c0.1-1.6,1.6-2.5,3.4-2.5c1.8,0,3.2,0.9,3.2,2.5c0,1.2-1,2.1-2.2,2.6
				c-0.2,0.1-0.4,0.2-0.4,0.3c0,0.1,0.1,0.2,0.3,0.3c0.8,0.4,1.1,1.1,1.1,1.8c0,2.3-2,3.8-4.5,3.8
				C-1594.6-1375.7-1595.5-1376.7-1595.5-1377.9z"/>
		</g>
	</g>
	<g transform="matrix(0.620079,0,0,0.620079,1319.53,1151.39)">
	</g>
	<g transform="matrix(0.620079,0,0,0.620079,0,0)">
	</g>
	<g transform="matrix(0.620079,0,0,0.620079,1738.7,1151.39)">
	</g>
	<g transform="matrix(0.620079,0,0,0.620079,1738.7,1151.39)">
		<g class="st2">
			<path d="M-2102.5-1377.9c0-1,0.6-1.7,1.4-1.7c0.6,0,1.1,0.4,1.1,1.1c0,0.8-0.4,1.1-0.7,1.3c-0.2,0.1-0.4,0.2-0.4,0.3
				c0,0.3,0.5,0.5,1.1,0.5c1.8,0,2.7-1.8,2.7-3.1c0-0.9-0.5-1.6-1.6-1.6h-0.3c-0.4,0-0.6-0.2-0.6-0.4c0-0.3,0.2-0.4,0.6-0.4h0.3
				c1.7,0,2.7-1.1,2.7-2.6c0-0.6-0.4-1.3-1.5-1.3c-0.6,0-1,0.2-1,0.4c0,0.1,0.1,0.2,0.4,0.4c0.1,0.2,0.3,0.4,0.3,0.7
				c0,0.8-0.6,1.4-1.3,1.4c-0.7,0-1.1-0.5-1.1-1.3c0.1-1.6,1.6-2.5,3.4-2.5c1.8,0,3.2,0.9,3.2,2.5c0,1.2-1,2.1-2.2,2.6
				c-0.2,0.1-0.4,0.2-0.4,0.3c0,0.1,0.1,0.2,0.3,0.3c0.8,0.4,1.1,1.1,1.1,1.8c0,2.3-2,3.8-4.5,3.8
				C-2101.5-1375.7-2102.5-1376.7-2102.5-1377.9z"/>
		</g>
	</g>
	<g transform="matrix(0.620079,0,0,0.620079,1738.7,1151.39)">
	</g>
	<g transform="matrix(0.620079,0,0,0.620079,0,0)">
	</g>
	<g transform="matrix(0.620079,0,0,0.620079,1900.54,1151.39)">
	</g>
	<g transform="matrix(0.620079,0,0,0.620079,1900.54,1151.39)">
		<g class="st2">
			<path d="M-2298.2-1377.9c0-1,0.6-1.7,1.4-1.7c0.6,0,1.1,0.4,1.1,1.1c0,0.8-0.4,1.1-0.7,1.3c-0.2,0.1-0.4,0.2-0.4,0.3
				c0,0.3,0.5,0.5,1.1,0.5c1.8,0,2.7-1.8,2.7-3.1c0-0.9-0.5-1.6-1.6-1.6h-0.3c-0.4,0-0.6-0.2-0.6-0.4c0-0.3,0.2-0.4,0.6-0.4h0.3
				c1.7,0,2.7-1.1,2.7-2.6c0-0.6-0.4-1.3-1.5-1.3c-0.6,0-1,0.2-1,0.4c0,0.1,0.1,0.2,0.4,0.4c0.1,0.2,0.3,0.4,0.3,0.7
				c0,0.8-0.6,1.4-1.3,1.4c-0.7,0-1.1-0.5-1.1-1.3c0.1-1.6,1.6-2.5,3.4-2.5c1.8,0,3.2,0.9,3.2,2.5c0,1.2-1,2.1-2.2,2.6
				c-0.2,0.1-0.4,0.2-0.4,0.3c0,0.1,0.1,0.2,0.3,0.3c0.8,0.4,1.1,1.1,1.1,1.8c0,2.3-2,3.8-4.5,3.8
				C-2297.3-1375.7-2298.2-1376.7-2298.2-1377.9z"/>
		</g>
	</g>
	<g transform="matrix(0.620079,0,0,0.620079,1900.54,1151.39)">
	</g>
	<g transform="matrix(0.620079,0,0,0.620079,0,0)">
	</g>
	<g transform="matrix(0.620079,0,0,0.620079,2319.71,1151.39)">
	</g>
	<g transform="matrix(0.620079,0,0,0.620079,2319.71,1151.39)">
		<g class="st2">
			<path d="M-2805.2-1377.9c0-1,0.6-1.7,1.4-1.7c0.6,0,1.1,0.4,1.1,1.1c0,0.8-0.4,1.1-0.7,1.3c-0.2,0.1-0.4,0.2-0.4,0.3
				c0,0.3,0.5,0.5,1.1,0.5c1.8,0,2.7-1.8,2.7-3.1c0-0.9-0.5-1.6-1.6-1.6h-0.3c-0.4,0-0.6-0.2-0.6-0.4c0-0.3,0.2-0.4,0.6-0.4h0.3
				c1.7,0,2.7-1.1,2.7-2.6c0-0.6-0.4-1.3-1.5-1.3c-0.6,0-1,0.2-1,0.4c0,0.1,0.1,0.2,0.4,0.4c0.1,0.2,0.3,0.4,0.3,0.7
				c0,0.8-0.6,1.4-1.3,1.4c-0.7,0-1.1-0.5-1.1-1.3c0.1-1.6,1.6-2.5,3.4-2.5c1.8,0,3.2,0.9,3.2,2.5c0,1.2-1,2.1-2.2,2.6
				c-0.2,0.1-0.4,0.2-0.4,0.3c0,0.1,0.1,0.2,0.3,0.3c0.8,0.4,1.1,1.1,1.1,1.8c0,2.3-2,3.8-4.5,3.8
				C-2804.3-1375.7-2805.2-1376.7-2805.2-1377.9z"/>
		</g>
	</g>
	<g transform="matrix(0.620079,0,0,0.620079,2319.71,1151.39)">
	</g>
	<g transform="matrix(0.620079,0,0,0.620079,0,0)">
	</g>
	<g transform="matrix(0.620079,0,0,0.620079,2480.94,1151.39)">
	</g>
	<g transform="matrix(0.620079,0,0,0.620079,2480.94,1151.39)">
		<g class="st2">
			<path d="M-3000.2-1377.9c0-1,0.6-1.7,1.4-1.7c0.6,0,1.1,0.4,1.1,1.1c0,0.8-0.4,1.1-0.7,1.3c-0.2,0.1-0.4,0.2-0.4,0.3
				c0,0.3,0.5,0.5,1.1,0.5c1.8,0,2.7-1.8,2.7-3.1c0-0.9-0.5-1.6-1.6-1.6h-0.3c-0.4,0-0.6-0.2-0.6-0.4c0-0.3,0.2-0.4,0.6-0.4h0.3
				c1.7,0,2.7-1.1,2.7-2.6c0-0.6-0.4-1.3-1.5-1.3c-0.6,0-1,0.2-1,0.4c0,0.1,0.1,0.2,0.4,0.4c0.1,0.2,0.3,0.4,0.3,0.7
				c0,0.8-0.6,1.4-1.3,1.4c-0.7,0-1.1-0.5-1.1-1.3c0.1-1.6,1.6-2.5,3.4-2.5c1.8,0,3.2,0.9,3.2,2.5c0,1.2-1,2.1-2.2,2.6
				c-0.2,0.1-0.4,0.2-0.4,0.3c0,0.1,0.1,0.2,0.3,0.3c0.8,0.4,1.1,1.1,1.1,1.8c0,2.3-2,3.8-4.5,3.8
				C-2999.3-1375.7-3000.2-1376.7-3000.2-1377.9z"/>
		</g>
	</g>
	<g transform="matrix(0.620079,0,0,0.620079,2480.94,1151.39)">
	</g>
	<g transform="matrix(0.620079,0,0,0.620079,0,0)">
	</g>
	<g transform="matrix(0.620079,0,0,0.620079,0,0)">
		<line vector-effect="none" class="st3" x1="156.5" y1="430.2" x2="156.5" y2="457"/>
	</g>
	<g transform="matrix(0.620079,0,0,0.620079,0,0)">
		<g class="st2">
			<path d="M156,430.6c0-1.9,1.7-6.2,7.3-6.2c2.1,0,3.6,1.2,3.6,3.1c0,1.2-1.2,6.2-7.3,6.2C157.5,433.6,156,432.5,156,430.6z
				 M165.7,427.4c0-0.3-0.1-0.5-0.2-0.7c-0.3-0.4-0.6-0.8-1.3-0.8c-0.8,0-1.9,0.4-3.7,1.4c-2.6,1.5-3.4,2.5-3.4,3.3
				c0,0.3,0.1,0.5,0.2,0.7c0.3,0.4,0.7,0.8,1.5,0.8c0.8,0,2-0.4,3.6-1.5C164.9,429,165.7,428.1,165.7,427.4z"/>
		</g>
	</g>
	<g transform="matrix(0.620079,0,0,0.620079,0,0)">
		<line vector-effect="none" class="st3" x1="219" y1="430.2" x2="219" y2="456.8"/>
	</g>
	<g transform="matrix(0.620079,0,0,0.620079,0,0)">
		<g class="st2">
			<path d="M218.5,430.5c0-3.1,3.2-6,7.1-6c2.1,0,3.5,1.2,3.5,3c0,3-3.9,6-7.1,6C220,433.5,218.5,432.4,218.5,430.5z"/>
		</g>
	</g>
	<g transform="matrix(0.620079,0,0,0.620079,0,0)">
		<line vector-effect="none" class="st3" x1="240.7" y1="430.2" x2="240.7" y2="456.8"/>
	</g>
	<g transform="matrix(0.620079,0,0,0.620079,0,0)">
		<g class="st2">
			<path d="M240.2,430.5c0-3.1,3.2-6,7.1-6c2.1,0,3.5,1.2,3.5,3c0,3-3.9,6-7.1,6C241.7,433.5,240.2,432.4,240.2,430.5z"/>
		</g>
	</g>
	<g transform="matrix(0.620079,0,0,0.620079,0,0)">
		<line vector-effect="none" class="st3" x1="262.5" y1="430.2" x2="262.5" y2="456.8"/>
	</g>
	<g transform="matrix(0.620079,0,0,0.620079,0,0)">
		<g class="st2">
			<path d="M262,430.5c0-3.1,3.2-6,7.1-6c2.1,0,3.5,1.2,3.5,3c0,3-3.9,6-7.1,6C263.5,433.5,262,432.4,262,430.5z"/>
		</g>
	</g>
	<g transform="matrix(0.620079,0,0,0.620079,0,0)">
		<line vector-effect="none" class="st3" x1="284" y1="430.2" x2="284" y2="456.8"/>
	</g>
	<g transform="matrix(0.620079,0,0,0.620079,0,0)">
		<g class="st2">
			<path d="M283.5,430.5c0-3.1,3.2-6,7.1-6c2.1,0,3.5,1.2,3.5,3c0,3-3.9,6-7.1,6C285,433.5,283.5,432.4,283.5,430.5z"/>
		</g>
	</g>
	<g transform="matrix(0.620079,0,0,0.620079,0,0)">
		<line vector-effect="none" class="st3" x1="305.7" y1="430.2" x2="305.7" y2="456.8"/>
	</g>
	<g transform="matrix(0.620079,0,0,0.620079,0,0)">
		<g class="st2">
			<path d="M305.2,430.5c0-3.1,3.2-6,7.1-6c2.1,0,3.5,1.2,3.5,3c0,3-3.9,6-7.1,6C306.7,433.5,305.2,432.4,305.2,430.5z"/>
		</g>
	</g>
	<g transform="matrix(0.620079,0,0,0.620079,0,0)">
		<line vector-effect="none" class="st3" x1="327.5" y1="430.2" x2="327.5" y2="456.8"/>
	</g>
	<g transform="matrix(0.620079,0,0,0.620079,0,0)">
		<g class="st2">
			<path d="M327,430.5c0-3.1,3.2-6,7.1-6c2.1,0,3.5,1.2,3.5,3c0,3-3.9,6-7.1,6C328.5,433.5,327,432.4,327,430.5z"/>
		</g>
	</g>
	<g transform="matrix(0.620079,0,0,0.620079,0,0)">
		<line vector-effect="none" class="st3" x1="390.7" y1="430.2" x2="390.7" y2="457"/>
	</g>
	<g transform="matrix(0.620079,0,0,0.620079,0,0)">
		<g class="st2">
			<path d="M390.2,430.6c0-1.9,1.7-6.2,7.3-6.2c2.1,0,3.6,1.2,3.6,3.1c0,1.2-1.2,6.2-7.3,6.2C391.8,433.6,390.2,432.5,390.2,430.6z
				 M400,427.4c0-0.3-0.1-0.5-0.2-0.7c-0.3-0.4-0.6-0.8-1.3-0.8c-0.8,0-1.9,0.4-3.7,1.4c-2.6,1.5-3.4,2.5-3.4,3.3
				c0,0.3,0.1,0.5,0.2,0.7c0.3,0.4,0.7,0.8,1.5,0.8c0.8,0,2-0.4,3.6-1.5C399.2,429,400,428.1,400,427.4z"/>
		</g>
	</g>
	<g transform="matrix(0.620079,0,0,0.620079,0,0)">
		<line vector-effect="none" class="st3" x1="453.2" y1="430.2" x2="453.2" y2="456.8"/>
	</g>
	<g transform="matrix(0.620079,0,0,0.620079,0,0)">
		<g class="st2">
			<path d="M452.7,430.5c0-3.1,3.2-6,7.1-6c2.1,0,3.5,1.2,3.5,3c0,3-3.9,6-7.1,6C454.2,433.5,452.7,432.4,452.7,430.5z"/>
		</g>
	</g>
	<g transform="matrix(0.620079,0,0,0.620079,0,0)">
		<line vector-effect="none" class="st3" x1="475" y1="430.2" x2="475" y2="456.8"/>
	</g>
	<g transform="matrix(0.620079,0,0,0.620079,0,0)">
		<g class="st2">
			<path d="M474.5,430.5c0-3.1,3.2-6,7.1-6c2.1,0,3.5,1.2,3.5,3c0,3-3.9,6-7.1,6C476,433.5,474.5,432.4,474.5,430.5z"/>
		</g>
	</g>
	<g transform="matrix(0.620079,0,0,0.620079,0,0)">
		<line vector-effect="none" class="st3" x1="496.5" y1="430.2" x2="496.5" y2="456.8"/>
	</g>
	<g transform="matrix(0.620079,0,0,0.620079,0,0)">
		<g class="st2">
			<path d="M496,430.5c0-3.1,3.2-6,7.1-6c2.1,0,3.5,1.2,3.5,3c0,3-3.9,6-7.1,6C497.5,433.5,496,432.4,496,430.5z"/>
		</g>
	</g>
	<g transform="matrix(0.620079,0,0,0.620079,0,0)">
		<line vector-effect="none" class="st3" x1="518.2" y1="430.2" x2="518.2" y2="456.8"/>
	</g>
	<g transform="matrix(0.620079,0,0,0.620079,0,0)">
		<g class="st2">
			<path d="M517.7,430.5c0-3.1,3.2-6,7.1-6c2.1,0,3.5,1.2,3.5,3c0,3-3.9,6-7.1,6C519.2,433.5,517.7,432.4,517.7,430.5z"/>
		</g>
	</g>
	<g transform="matrix(0.620079,0,0,0.620079,0,0)">
		<line vector-effect="none" class="st3" x1="540" y1="430.2" x2="540" y2="456.8"/>
	</g>
	<g transform="matrix(0.620079,0,0,0.620079,0,0)">
		<g class="st2">
			<path d="M539.5,430.5c0-3.1,3.2-6,7.1-6c2.1,0,3.5,1.2,3.5,3c0,3-3.9,6-7.1,6C541,433.5,539.5,432.4,539.5,430.5z"/>
		</g>
	</g>
	<g transform="matrix(0.620079,0,0,0.620079,0,0)">
		<line vector-effect="none" class="st3" x1="561.7" y1="430.2" x2="561.7" y2="456.8"/>
	</g>
	<g transform="matrix(0.620079,0,0,0.620079,0,0)">
		<g class="st2">
			<path d="M561.2,430.5c0-3.1,3.2-6,7.1-6c2.1,0,3.5,1.2,3.5,3c0,3-3.9,6-7.1,6C562.7,433.5,561.2,432.4,561.2,430.5z"/>
		</g>
	</g>
	<g transform="matrix(0.620079,0,0,0.620079,0,0)">
		<line vector-effect="none" class="st3" x1="625" y1="430.2" x2="625" y2="457"/>
	</g>
	<g transform="matrix(0.620079,0,0,0.620079,0,0)">
		<g class="st2">
			<path d="M624.5,430.6c0-1.9,1.7-6.2,7.3-6.2c2.1,0,3.6,1.2,3.6,3.1c0,1.2-1.2,6.2-7.3,6.2C626,433.6,624.5,432.5,624.5,430.6z
				 M634.2,427.4c0-0.3-0.1-0.5-0.2-0.7c-0.3-0.4-0.6-0.8-1.3-0.8c-0.8,0-1.9,0.4-3.7,1.4c-2.6,1.5-3.4,2.5-3.4,3.3
				c0,0.3,0.1,0.5,0.2,0.7c0.3,0.4,0.7,0.8,1.5,0.8c0.8,0,2-0.4,3.6-1.5C633.4,429,634.2,428.1,634.2,427.4z"/>
		</g>
	</g>
	<g transform="matrix(0.620079,0,0,0.620079,0,0)">
		<line vector-effect="none" class="st3" x1="687.2" y1="430.2" x2="687.2" y2="456.8"/>
	</g>
	<g transform="matrix(0.620079,0,0,0.620079,0,0)">
		<g class="st2">
			<path d="M686.7,430.5c0-3.1,3.2-6,7.1-6c2.1,0,3.5,1.2,3.5,3c0,3-3.9,6-7.1,6C688.2,433.5,686.7,432.4,686.7,430.5z"/>
		</g>
	</g>
	<g transform="matrix(0.620079,0,0,0.620079,0,0)">
		<line vector-effect="none" class="st3" x1="709" y1="430.2" x2="709" y2="456.8"/>
	</g>
	<g transform="matrix(0.620079,0,0,0.620079,0,0)">
		<g class="st2">
			<path d="M708.5,430.5c0-3.1,3.2-6,7.1-6c2.1,0,3.5,1.2,3.5,3c0,3-3.9,6-7.1,6C710,433.5,708.5,432.4,708.5,430.5z"/>
		</g>
	</g>
	<g transform="matrix(0.620079,0,0,0.620079,0,0)">
		<line vector-effect="none" class="st3" x1="730.7" y1="430.2" x2="730.7" y2="456.8"/>
	</g>
	<g transform="matrix(0.620079,0,0,0.620079,0,0)">
		<g class="st2">
			<path d="M730.2,430.5c0-3.1,3.2-6,7.1-6c2.1,0,3.5,1.2,3.5,3c0,3-3.9,6-7.1,6C731.7,433.5,730.2,432.4,730.2,430.5z"/>
		</g>
	</g>
	<g transform="matrix(0.620079,0,0,0.620079,0,0)">
		<line vector-effect="none" class="st3" x1="752.5" y1="430.2" x2="752.5" y2="456.8"/>
	</g>
	<g transform="matrix(0.620079,0,0,0.620079,0,0)">
		<g class="st2">
			<path d="M752,430.5c0-3.1,3.2-6,7.1-6c2.1,0,3.5,1.2,3.5,3c0,3-3.9,6-7.1,6C753.5,433.5,752,432.4,752,430.5z"/>
		</g>
	</g>
	<g transform="matrix(0.620079,0,0,0.620079,0,0)">
		<line vector-effect="none" class="st3" x1="774.2" y1="430.2" x2="774.2" y2="456.8"/>
	</g>
	<g transform="matrix(0.620079,0,0,0.620079,0,0)">
		<g class="st2">
			<path d="M773.7,430.5c0-3.1,3.2-6,7.1-6c2.1,0,3.5,1.2,3.5,3c0,3-3.9,6-7.1,6C775.2,433.5,773.7,432.4,773.7,430.5z"/>
		</g>
	</g>
	<g transform="matrix(0.620079,0,0,0.620079,0,0)">
		<line vector-effect="none" class="st3" x1="796" y1="430.2" x2="796" y2="456.8"/>
	</g>
	<g transform="matrix(0.620079,0,0,0.620079,0,0)">
		<g class="st2">
			<path d="M795.5,430.5c0-3.1,3.2-6,7.1-6c2.1,0,3.5,1.2,3.5,3c0,3-3.9,6-7.1,6C797,433.5,795.5,432.4,795.5,430.5z"/>
		</g>
	</g>
	<g transform="matrix(0.620079,0,0,0.620079,0,0)">
		<line vector-effect="none" class="st3" x1="859" y1="430.2" x2="859" y2="457"/>
	</g>
	<g transform="matrix(0.620079,0,0,0.620079,0,0)">
		<g class="st2">
			<path d="M858.5,430.6c0-1.9,1.7-6.2,7.3-6.2c2.1,0,3.6,1.2,3.6,3.1c0,1.2-1.2,6.2-7.3,6.2C860,433.6,858.5,432.5,858.5,430.6z
				 M868.2,427.4c0-0.3-0.1-0.5-0.2-0.7c-0.3-0.4-0.6-0.8-1.3-0.8c-0.8,0-1.9,0.4-3.7,1.4c-2.6,1.5-3.4,2.5-3.4,3.3
				c0,0.3,0.1,0.5,0.2,0.7c0.3,0.4,0.7,0.8,1.5,0.8c0.8,0,2-0.4,3.6-1.5C867.4,429,868.2,428.1,868.2,427.4z"/>
		</g>
	</g>
	<g transform="matrix(0.620079,0,0,0.620079,0,0)">
		<line vector-effect="none" class="st3" x1="921.5" y1="430.2" x2="921.5" y2="456.8"/>
	</g>
	<g transform="matrix(0.620079,0,0,0.620079,0,0)">
		<g class="st2">
			<path d="M921,430.5c0-3.1,3.2-6,7.1-6c2.1,0,3.5,1.2,3.5,3c0,3-3.9,6-7.1,6C922.5,433.5,921,432.4,921,430.5z"/>
		</g>
	</g>
	<g transform="matrix(0.620079,0,0,0.620079,0,0)">
		<line vector-effect="none" class="st3" x1="943.2" y1="430.2" x2="943.2" y2="456.8"/>
	</g>
	<g transform="matrix(0.620079,0,0,0.620079,0,0)">
		<g class="st2">
			<path d="M942.7,430.5c0-3.1,3.2-6,7.1-6c2.1,0,3.5,1.2,3.5,3c0,3-3.9,6-7.1,6C944.2,433.5,942.7,432.4,942.7,430.5z"/>
		</g>
	</g>
	<g transform="matrix(0.620079,0,0,0.620079,0,0)">
		<line vector-effect="none" class="st3" x1="965" y1="430.2" x2="965" y2="456.8"/>
	</g>
	<g transform="matrix(0.620079,0,0,0.620079,0,0)">
		<g class="st2">
			<path d="M964.5,430.5c0-3.1,3.2-6,7.1-6c2.1,0,3.5,1.2,3.5,3c0,3-3.9,6-7.1,6C966,433.5,964.5,432.4,964.5,430.5z"/>
		</g>
	</g>
	<g transform="matrix(0.620079,0,0,0.620079,0,0)">
		<line vector-effect="none" class="st3" x1="986.7" y1="430.2" x2="986.7" y2="456.8"/>
	</g>
	<g transform="matrix(0.620079,0,0,0.620079,0,0)">
		<g class="st2">
			<path d="M986.2,430.5c0-3.1,3.2-6,7.1-6c2.1,0,3.5,1.2,3.5,3c0,3-3.9,6-7.1,6C987.7,433.5,986.2,432.4,986.2,430.5z"/>
		</g>
	</g>
	<g transform="matrix(0.620079,0,0,0.620079,0,0)">
		<line vector-effect="none" class="st3" x1="1008.5" y1="430.2" x2="1008.5" y2="456.8"/>
	</g>
	<g transform="matrix(0.620079,0,0,0.620079,0,0)">
		<g class="st2">
			<path d="M1008,430.5c0-3.1,3.2-6,7.1-6c2.1,0,3.5,1.2,3.5,3c0,3-3.9,6-7.1,6C1009.5,433.5,1008,432.4,1008,430.5z"/>
		</g>
	</g>
	<g transform="matrix(0.620079,0,0,0.620079,0,0)">
		<line vector-effect="none" class="st3" x1="1030" y1="430.2" x2="1030" y2="456.8"/>
	</g>
	<g transform="matrix(0.620079,0,0,0.620079,0,0)">
		<g class="st2">
			<path d="M1029.5,430.5c0-3.1,3.2-6,7.1-6c2.1,0,3.5,1.2,3.5,3c0,3-3.9,6-7.1,6C1031,433.5,1029.5,432.4,1029.5,430.5z"/>
		</g>
	</g>
	<g transform="matrix(0.620079,0,0,0.620079,0,0)">
		<line vector-effect="none" class="st3" x1="1082.5" y1="430.2" x2="1082.5" y2="457"/>
	</g>
	<g transform="matrix(0.620079,0,0,0.620079,0,0)">
		<g class="st2">
			<path d="M1082,430.6c0-1.9,1.7-6.2,7.3-6.2c2.1,0,3.6,1.2,3.6,3.1c0,1.2-1.2,6.2-7.3,6.2C1083.5,433.6,1082,432.5,1082,430.6z
				 M1091.7,427.4c0-0.3-0.1-0.5-0.2-0.7c-0.3-0.4-0.6-0.8-1.3-0.8c-0.8,0-1.9,0.4-3.7,1.4c-2.6,1.5-3.4,2.5-3.4,3.3
				c0,0.3,0.1,0.5,0.2,0.7c0.3,0.4,0.7,0.8,1.5,0.8c0.8,0,2-0.4,3.6-1.5C1090.9,429,1091.7,428.1,1091.7,427.4z"/>
		</g>
	</g>
	<g transform="matrix(0.620079,0,0,0.620079,0,0)">
		<g class="st2">
			<path d="M1152.6,449.3h-7.4c-0.5,0-0.8-0.4-0.8-0.8v-2.9c0-0.5,0.4-0.8,0.8-0.8h7.4c0.4,0,0.8,0.4,0.8,0.8v2.9
				C1153.5,448.9,1153.1,449.3,1152.6,449.3z"/>
		</g>
	</g>
</g>
</svg>
