<?xml version="1.0" encoding="utf-8"?>
<!-- Generator: Adobe Illustrator 26.3.1, SVG Export Plug-In . SVG Version: 6.00 Build 0)  -->
<svg version="1.1" id="Layer_1" xmlns="http://www.w3.org/2000/svg" xmlns:xlink="http://www.w3.org/1999/xlink" x="0px" y="0px"
	 viewBox="0 0 792 612" style="enable-background:new 0 0 792 612;" xml:space="preserve">
<style type="text/css">
	.st0{fill:none;stroke:#000000;stroke-width:2.4803;stroke-linejoin:bevel;stroke-miterlimit:10;}
	.st1{fill:none;stroke:#000000;stroke-width:0.7751;stroke-linejoin:bevel;stroke-miterlimit:10;}
	.st2{enable-background:new    ;}
	.st3{fill:none;stroke:#000000;stroke-width:0.4651;stroke-linejoin:bevel;stroke-miterlimit:10;}
	.st4{fill-rule:evenodd;clip-rule:evenodd;stroke:#000000;stroke-width:0.155;stroke-linejoin:bevel;stroke-miterlimit:10;}
	.st5{fill:none;stroke:#000000;stroke-width:0.6201;stroke-linejoin:bevel;stroke-miterlimit:10;}
	.st6{fill-rule:evenodd;clip-rule:evenodd;}
</style>
<g>
	<g transform="matrix(0.620079,0,0,0.620079,0,0)">
		<line vector-effect="none" class="st0" x1="131.2" y1="665.8" x2="131.2" y2="697.8"/>
	</g>
	<g transform="matrix(0.620079,0,0,0.620079,0,0)">
		<line vector-effect="none" class="st1" x1="137" y1="665.8" x2="137" y2="697.8"/>
	</g>
	<g transform="matrix(0.620079,0,0,0.620079,0,0)">
		<g class="st2">
			<path d="M142.5,679.3c-0.9,0-1.6-0.7-1.6-1.6c0-0.9,0.7-1.6,1.6-1.6s1.6,0.7,1.6,1.6C144.1,678.6,143.3,679.3,142.5,679.3z"/>
		</g>
	</g>
	<g transform="matrix(0.620079,0,0,0.620079,0,0)">
		<g class="st2">
			<path d="M142.5,687.3c-0.9,0-1.6-0.7-1.6-1.6c0-0.9,0.7-1.6,1.6-1.6s1.6,0.7,1.6,1.6C144.1,686.6,143.3,687.3,142.5,687.3z"/>
		</g>
	</g>
	<g transform="matrix(0.620079,0,0,0.620079,0,0)">
		<line vector-effect="none" class="st1" x1="379.2" y1="665.8" x2="379.2" y2="697.8"/>
	</g>
	<g transform="matrix(0.620079,0,0,0.620079,0,0)">
		<line vector-effect="none" class="st0" x1="385" y1="665.8" x2="385" y2="697.8"/>
	</g>
	<g transform="matrix(0.620079,0,0,0.620079,0,0)">
		<g class="st2">
			<path d="M373.7,679.3c-0.9,0-1.6-0.7-1.6-1.6c0-0.9,0.7-1.6,1.6-1.6s1.6,0.7,1.6,1.6C375.3,678.6,374.6,679.3,373.7,679.3z"/>
		</g>
	</g>
	<g transform="matrix(0.620079,0,0,0.620079,0,0)">
		<g class="st2">
			<path d="M373.7,687.3c-0.9,0-1.6-0.7-1.6-1.6c0-0.9,0.7-1.6,1.6-1.6s1.6,0.7,1.6,1.6C375.3,686.6,374.6,687.3,373.7,687.3z"/>
		</g>
	</g>
	<g transform="matrix(0.620079,0,0,0.620079,0,0)">
		<line vector-effect="none" class="st0" x1="385" y1="665.8" x2="385" y2="697.8"/>
	</g>
	<g transform="matrix(0.620079,0,0,0.620079,0,0)">
		<line vector-effect="none" class="st1" x1="390.7" y1="665.8" x2="390.7" y2="697.8"/>
	</g>
	<g transform="matrix(0.620079,0,0,0.620079,0,0)">
		<g class="st2">
			<path d="M396.2,679.3c-0.9,0-1.6-0.7-1.6-1.6c0-0.9,0.7-1.6,1.6-1.6s1.6,0.7,1.6,1.6C397.8,678.6,397.1,679.3,396.2,679.3z"/>
		</g>
	</g>
	<g transform="matrix(0.620079,0,0,0.620079,0,0)">
		<g class="st2">
			<path d="M396.2,687.3c-0.9,0-1.6-0.7-1.6-1.6c0-0.9,0.7-1.6,1.6-1.6s1.6,0.7,1.6,1.6C397.8,686.6,397.1,687.3,396.2,687.3z"/>
		</g>
	</g>
	<g transform="matrix(0.620079,0,0,0.620079,0,0)">
		<line vector-effect="none" class="st1" x1="587.5" y1="665.8" x2="587.5" y2="697.8"/>
	</g>
	<g transform="matrix(0.620079,0,0,0.620079,0,0)">
		<line vector-effect="none" class="st0" x1="593.2" y1="665.8" x2="593.2" y2="697.8"/>
	</g>
	<g transform="matrix(0.620079,0,0,0.620079,0,0)">
		<g class="st2">
			<path d="M582,679.3c-0.9,0-1.6-0.7-1.6-1.6c0-0.9,0.7-1.6,1.6-1.6s1.6,0.7,1.6,1.6C583.6,678.6,582.8,679.3,582,679.3z"/>
		</g>
	</g>
	<g transform="matrix(0.620079,0,0,0.620079,0,0)">
		<g class="st2">
			<path d="M582,687.3c-0.9,0-1.6-0.7-1.6-1.6c0-0.9,0.7-1.6,1.6-1.6s1.6,0.7,1.6,1.6C583.6,686.6,582.8,687.3,582,687.3z"/>
		</g>
	</g>
	<g transform="matrix(0.620079,0,0,0.620079,0,0)">
		<line vector-effect="none" class="st0" x1="593.2" y1="665.8" x2="593.2" y2="697.8"/>
	</g>
	<g transform="matrix(0.620079,0,0,0.620079,0,0)">
		<line vector-effect="none" class="st1" x1="599" y1="665.8" x2="599" y2="697.8"/>
	</g>
	<g transform="matrix(0.620079,0,0,0.620079,0,0)">
		<g class="st2">
			<path d="M604.5,679.3c-0.9,0-1.6-0.7-1.6-1.6c0-0.9,0.7-1.6,1.6-1.6s1.6,0.7,1.6,1.6C606.1,678.6,605.3,679.3,604.5,679.3z"/>
		</g>
	</g>
	<g transform="matrix(0.620079,0,0,0.620079,0,0)">
		<g class="st2">
			<path d="M604.5,687.3c-0.9,0-1.6-0.7-1.6-1.6c0-0.9,0.7-1.6,1.6-1.6s1.6,0.7,1.6,1.6C606.1,686.6,605.3,687.3,604.5,687.3z"/>
		</g>
	</g>
	<g transform="matrix(0.620079,0,0,0.620079,0,0)">
		<line vector-effect="none" class="st1" x1="795.5" y1="665.8" x2="795.5" y2="697.8"/>
	</g>
	<g transform="matrix(0.620079,0,0,0.620079,0,0)">
		<line vector-effect="none" class="st0" x1="801.2" y1="665.8" x2="801.2" y2="697.8"/>
	</g>
	<g transform="matrix(0.620079,0,0,0.620079,0,0)">
		<g class="st2">
			<path d="M790,679.3c-0.9,0-1.6-0.7-1.6-1.6c0-0.9,0.7-1.6,1.6-1.6s1.6,0.7,1.6,1.6C791.6,678.6,790.8,679.3,790,679.3z"/>
		</g>
	</g>
	<g transform="matrix(0.620079,0,0,0.620079,0,0)">
		<g class="st2">
			<path d="M790,687.3c-0.9,0-1.6-0.7-1.6-1.6c0-0.9,0.7-1.6,1.6-1.6s1.6,0.7,1.6,1.6C791.6,686.6,790.8,687.3,790,687.3z"/>
		</g>
	</g>
	<g transform="matrix(0.620079,0,0,0.620079,0,0)">
		<line vector-effect="none" class="st0" x1="801.2" y1="665.8" x2="801.2" y2="697.8"/>
	</g>
	<g transform="matrix(0.620079,0,0,0.620079,0,0)">
		<line vector-effect="none" class="st1" x1="807" y1="665.8" x2="807" y2="697.8"/>
	</g>
	<g transform="matrix(0.620079,0,0,0.620079,0,0)">
		<g class="st2">
			<path d="M812.5,679.3c-0.9,0-1.6-0.7-1.6-1.6c0-0.9,0.7-1.6,1.6-1.6s1.6,0.7,1.6,1.6C814.1,678.6,813.3,679.3,812.5,679.3z"/>
		</g>
	</g>
	<g transform="matrix(0.620079,0,0,0.620079,0,0)">
		<g class="st2">
			<path d="M812.5,687.3c-0.9,0-1.6-0.7-1.6-1.6c0-0.9,0.7-1.6,1.6-1.6s1.6,0.7,1.6,1.6C814.1,686.6,813.3,687.3,812.5,687.3z"/>
		</g>
	</g>
	<g transform="matrix(0.620079,0,0,0.620079,0,0)">
		<line vector-effect="none" class="st1" x1="1003.7" y1="665.8" x2="1003.7" y2="697.8"/>
	</g>
	<g transform="matrix(0.620079,0,0,0.620079,0,0)">
		<line vector-effect="none" class="st0" x1="1009.5" y1="665.8" x2="1009.5" y2="697.8"/>
	</g>
	<g transform="matrix(0.620079,0,0,0.620079,0,0)">
		<g class="st2">
			<path d="M998.2,679.3c-0.9,0-1.6-0.7-1.6-1.6c0-0.9,0.7-1.6,1.6-1.6s1.6,0.7,1.6,1.6C999.8,678.6,999.1,679.3,998.2,679.3z"/>
		</g>
	</g>
	<g transform="matrix(0.620079,0,0,0.620079,0,0)">
		<g class="st2">
			<path d="M998.2,687.3c-0.9,0-1.6-0.7-1.6-1.6c0-0.9,0.7-1.6,1.6-1.6s1.6,0.7,1.6,1.6C999.8,686.6,999.1,687.3,998.2,687.3z"/>
		</g>
	</g>
	<g transform="matrix(0.620079,0,0,0.620079,0,0)">
		<line vector-effect="none" class="st0" x1="1009.5" y1="665.8" x2="1009.5" y2="697.8"/>
	</g>
	<g transform="matrix(0.620079,0,0,0.620079,0,0)">
		<line vector-effect="none" class="st1" x1="1015.2" y1="665.8" x2="1015.2" y2="697.8"/>
	</g>
	<g transform="matrix(0.620079,0,0,0.620079,0,0)">
		<g class="st2">
			<path d="M1020.7,679.3c-0.9,0-1.6-0.7-1.6-1.6c0-0.9,0.7-1.6,1.6-1.6c0.9,0,1.6,0.7,1.6,1.6
				C1022.3,678.6,1021.6,679.3,1020.7,679.3z"/>
		</g>
	</g>
	<g transform="matrix(0.620079,0,0,0.620079,0,0)">
		<g class="st2">
			<path d="M1020.7,687.3c-0.9,0-1.6-0.7-1.6-1.6c0-0.9,0.7-1.6,1.6-1.6c0.9,0,1.6,0.7,1.6,1.6
				C1022.3,686.6,1021.6,687.3,1020.7,687.3z"/>
		</g>
	</g>
	<g transform="matrix(0.620079,0,0,0.620079,0,0)">
		<line vector-effect="none" class="st1" x1="1211.7" y1="665.8" x2="1211.7" y2="697.8"/>
	</g>
	<g transform="matrix(0.620079,0,0,0.620079,0,0)">
		<line vector-effect="none" class="st0" x1="1217.5" y1="665.8" x2="1217.5" y2="697.8"/>
	</g>
	<g transform="matrix(0.620079,0,0,0.620079,0,0)">
		<g class="st2">
			<path d="M1206.2,679.3c-0.9,0-1.6-0.7-1.6-1.6c0-0.9,0.7-1.6,1.6-1.6c0.9,0,1.6,0.7,1.6,1.6
				C1207.8,678.6,1207.1,679.3,1206.2,679.3z"/>
		</g>
	</g>
	<g transform="matrix(0.620079,0,0,0.620079,0,0)">
		<g class="st2">
			<path d="M1206.2,687.3c-0.9,0-1.6-0.7-1.6-1.6c0-0.9,0.7-1.6,1.6-1.6c0.9,0,1.6,0.7,1.6,1.6
				C1207.8,686.6,1207.1,687.3,1206.2,687.3z"/>
		</g>
	</g>
	<g transform="matrix(0.620079,0,0,0.620079,0,0)">
		<path vector-effect="none" class="st3" d="M231,655.8c4.5-5.5,17.5-5.5,22,0"/>
	</g>
	<g transform="matrix(0.620079,0,0,0.620079,0,0)">
		<path vector-effect="none" class="st4" d="M231,655.8c4.5-6.5,17.5-6.5,22,0C248.5,651.2,235.5,651.2,231,655.8"/>
	</g>
	<g transform="matrix(0.620079,0,0,0.620079,0,0)">
		<path vector-effect="none" class="st3" d="M279,655.8c4.2-5.5,17.2-5.5,21.8,0"/>
	</g>
	<g transform="matrix(0.620079,0,0,0.620079,0,0)">
		<path vector-effect="none" class="st4" d="M279,655.8c4.2-6.5,17.2-6.5,21.8,0C296.2,651.2,283.2,651.2,279,655.8"/>
	</g>
	<g transform="matrix(0.620079,0,0,0.620079,0,0)">
		<path vector-effect="none" class="st3" d="M326.7,655.8c4.2-5.5,17.2-5.5,21.8,0"/>
	</g>
	<g transform="matrix(0.620079,0,0,0.620079,0,0)">
		<path vector-effect="none" class="st4" d="M326.7,655.8c4.2-6.5,17.2-6.5,21.8,0C344,651.2,331,651.2,326.7,655.8"/>
	</g>
	<g transform="matrix(0.620079,0,0,0.620079,326.781,1527.68)">
	</g>
	<g transform="matrix(0.620079,0,0,0.620079,326.781,1527.68)">
		<g class="st2">
			<path d="M-389-1847h0.6v17.5c0,1.9-2.5,3.8-4.5,3.8c-1.2,0-2.2-0.7-2.2-1.9c0-2,2-3.8,4.4-3.8c0.7,0,1.2,0.2,1.6,0.5L-389-1847z"
				/>
		</g>
		<g class="st2">
			<path d="M-381.3-1832.8v-1.8h10.5v1.8H-381.3z M-370.8-1830.2v1.9h-10.5v-1.9H-370.8z"/>
			<path d="M-359.9-1833.1c-1.7-0.9-2.6-1.7-2.6-3.7c0-2.5,2-4.1,4.4-4.1c1.8,0,4.2,0.9,4.2,3.1c0,1.6-1.2,2.3-2.4,3.1
				c2,1.1,3.1,2,3.1,4.2c0,3-2.3,4.7-5.1,4.7c-2.4,0-4.8-1.1-4.8-3.7C-363.1-1831.5-361.6-1832.4-359.9-1833.1z M-358.1-1826.7
				c1.6,0,3-0.9,3-2.6c-0.1-1.8-2.4-2.9-3.9-3.3c-1.3,0.4-1.9,1.7-1.9,3C-360.9-1827.9-359.9-1826.7-358.1-1826.7z M-357.2-1835
				c0.9-0.5,1.5-1.5,1.5-2.5c0-1.6-0.9-2.5-2.5-2.5c-1.3,0-2.3,0.7-2.3,2.1C-360.5-1836.1-358.6-1835.5-357.2-1835z"/>
			<path d="M-348.9-1833.1c-1.7-0.9-2.6-1.7-2.6-3.7c0-2.5,2-4.1,4.4-4.1c1.8,0,4.2,0.9,4.2,3.1c0,1.6-1.2,2.3-2.4,3.1
				c2,1.1,3.1,2,3.1,4.2c0,3-2.3,4.7-5.1,4.7c-2.4,0-4.8-1.1-4.8-3.7C-352-1831.5-350.6-1832.4-348.9-1833.1z M-347-1826.7
				c1.6,0,3-0.9,3-2.6c-0.1-1.8-2.4-2.9-3.9-3.3c-1.3,0.4-1.9,1.7-1.9,3C-349.8-1827.9-348.8-1826.7-347-1826.7z M-346.2-1835
				c0.9-0.5,1.5-1.5,1.5-2.5c0-1.6-0.9-2.5-2.5-2.5c-1.3,0-2.3,0.7-2.3,2.1C-349.5-1836.1-347.6-1835.5-346.2-1835z"/>
		</g>
	</g>
	<g transform="matrix(0.620079,0,0,0.620079,326.781,1527.68)">
	</g>
	<g transform="matrix(0.620079,0,0,0.620079,0,0)">
	</g>
	<g transform="matrix(0.620079,0,0,0.620079,956.161,1527.68)">
	</g>
	<g transform="matrix(0.620079,0,0,0.620079,956.161,1527.68)">
		<g class="st2">
			<path d="M-1150.3-1847h0.6v17.5c0,1.9-2.5,3.8-4.5,3.8c-1.2,0-2.2-0.7-2.2-1.9c0-2,2-3.8,4.4-3.8c0.7,0,1.2,0.2,1.6,0.5
				L-1150.3-1847z"/>
		</g>
		<g class="st2">
			<path d="M-1142.6-1832.8v-1.8h10.5v1.8H-1142.6z M-1132.1-1830.2v1.9h-10.5v-1.9H-1132.1z"/>
			<path d="M-1119.4-1840.9c3.8,0,5,3.6,5,6.8c0,3.5-1.7,8.3-5.9,8.3c-1.5,0-3.5-0.8-3.5-2.6c0-0.9,0.5-1.7,1.5-1.7
				c0.9,0,1.4,0.6,1.4,1.4c0,0.5-0.4,0.9-0.4,1.4c0,0.4,0.5,0.5,0.9,0.5c1.8,0,2.5-2.2,2.7-3.6c0-0.4,0.2-2.2,0.2-2.6
				c-1,0.9-1.7,1.3-3,1.3c-2.4,0-3.8-2-3.8-4.2C-1124.3-1838.8-1122.5-1840.9-1119.4-1840.9z M-1121.4-1836.3c0,1.3,0.1,3.2,1.8,3.2
				c1.7,0,2.1-2.2,2.1-3.5c0-1.3-0.3-3.3-2-3.3C-1121.3-1839.9-1121.4-1837.6-1121.4-1836.3z"/>
			<path d="M-1110-1833.1c-1.7-0.9-2.6-1.7-2.6-3.7c0-2.5,2-4.1,4.4-4.1c1.8,0,4.2,0.9,4.2,3.1c0,1.6-1.2,2.3-2.4,3.1
				c2,1.1,3.1,2,3.1,4.2c0,3-2.3,4.7-5.1,4.7c-2.4,0-4.8-1.1-4.8-3.7C-1113.1-1831.5-1111.7-1832.4-1110-1833.1z M-1108.1-1826.7
				c1.6,0,3-0.9,3-2.6c-0.1-1.8-2.4-2.9-3.9-3.3c-1.3,0.4-1.9,1.7-1.9,3C-1110.9-1827.9-1109.9-1826.7-1108.1-1826.7z M-1107.3-1835
				c0.9-0.5,1.5-1.5,1.5-2.5c0-1.6-0.9-2.5-2.5-2.5c-1.3,0-2.3,0.7-2.3,2.1C-1110.6-1836.1-1108.7-1835.5-1107.3-1835z"/>
		</g>
	</g>
	<g transform="matrix(0.620079,0,0,0.620079,956.161,1527.68)">
	</g>
	<g transform="matrix(0.620079,0,0,0.620079,0,0)">
	</g>
	<g transform="matrix(0.620079,0,0,0.620079,1472.69,1527.68)">
	</g>
	<g transform="matrix(0.620079,0,0,0.620079,1472.69,1527.68)">
		<g class="st2">
			<path d="M-1775-1847h0.6v17.5c0,1.9-2.5,3.8-4.5,3.8c-1.2,0-2.2-0.7-2.2-1.9c0-2,2-3.8,4.4-3.8c0.7,0,1.2,0.2,1.6,0.5L-1775-1847
				z"/>
		</g>
		<g class="st2">
			<path d="M-1767.3-1832.8v-1.8h10.5v1.8H-1767.3z M-1756.8-1830.2v1.9h-10.5v-1.9H-1756.8z"/>
			<path d="M-1743.1-1840.9h0.7v13.1c0,0.4,0.3,0.8,0.7,0.8h2.1v0.9h-8.1v-0.9h1.7c0.5,0,0.8-0.5,0.8-0.9v-9.9
				c0-0.4-0.3-0.8-0.7-0.8h-2.4v-1C-1746.4-1839.7-1744.8-1840.1-1743.1-1840.9z"/>
			<path d="M-1737.5-1833.3c0-3.2,1.3-7.5,5.6-7.5c4.1,0,5.4,4.6,5.4,7.5c0,3.1-1.3,7.5-5.5,7.5
				C-1736.3-1825.8-1737.5-1830.3-1737.5-1833.3z M-1732.1-1826.8c2.1,0,2.1-3.8,2.1-6.5c0-3.2,0-6.5-2-6.5c-2.1,0-2.1,3.4-2.1,6.9
				C-1734.1-1830.6-1734.2-1826.8-1732.1-1826.8z"/>
			<path d="M-1722.3-1833.1c-1.7-0.9-2.6-1.7-2.6-3.7c0-2.5,2-4.1,4.4-4.1c1.8,0,4.2,0.9,4.2,3.1c0,1.6-1.2,2.3-2.4,3.1
				c2,1.1,3.1,2,3.1,4.2c0,3-2.3,4.7-5.1,4.7c-2.4,0-4.8-1.1-4.8-3.7C-1725.5-1831.5-1724.1-1832.4-1722.3-1833.1z M-1720.5-1826.7
				c1.6,0,3-0.9,3-2.6c-0.1-1.8-2.4-2.9-3.9-3.3c-1.3,0.4-1.9,1.7-1.9,3C-1723.3-1827.9-1722.3-1826.7-1720.5-1826.7z M-1719.7-1835
				c0.9-0.5,1.5-1.5,1.5-2.5c0-1.6-0.9-2.5-2.5-2.5c-1.3,0-2.3,0.7-2.3,2.1C-1722.9-1836.1-1721.1-1835.5-1719.7-1835z"/>
		</g>
	</g>
	<g transform="matrix(0.620079,0,0,0.620079,1472.69,1527.68)">
	</g>
	<g transform="matrix(0.620079,0,0,0.620079,0,0)">
	</g>
	<g transform="matrix(0.620079,0,0,0.620079,1988.59,1527.68)">
	</g>
	<g transform="matrix(0.620079,0,0,0.620079,1988.59,1527.68)">
		<g class="st2">
			<path d="M-2399-1847h0.6v17.5c0,1.9-2.5,3.8-4.5,3.8c-1.2,0-2.2-0.7-2.2-1.9c0-2,2-3.8,4.4-3.8c0.7,0,1.2,0.2,1.6,0.5L-2399-1847
				z"/>
		</g>
		<g class="st2">
			<path d="M-2391.3-1832.8v-1.8h10.5v1.8H-2391.3z M-2380.8-1830.2v1.9h-10.5v-1.9H-2380.8z"/>
			<path d="M-2367.1-1840.9h0.7v13.1c0,0.4,0.3,0.8,0.7,0.8h2.1v0.9h-8.1v-0.9h1.7c0.5,0,0.8-0.5,0.8-0.9v-9.9
				c0-0.4-0.3-0.8-0.7-0.8h-2.4v-1C-2370.4-1839.7-2368.8-1840.1-2367.1-1840.9z"/>
			<path d="M-2355.6-1840.9h0.7v13.1c0,0.4,0.3,0.8,0.7,0.8h2.1v0.9h-8.1v-0.9h1.7c0.5,0,0.8-0.5,0.8-0.9v-9.9
				c0-0.4-0.3-0.8-0.7-0.8h-2.4v-1C-2358.8-1839.7-2357.2-1840.1-2355.6-1840.9z"/>
			<path d="M-2346.8-1833.1c-1.7-0.9-2.6-1.7-2.6-3.7c0-2.5,2-4.1,4.4-4.1c1.8,0,4.2,0.9,4.2,3.1c0,1.6-1.2,2.3-2.4,3.1
				c2,1.1,3.1,2,3.1,4.2c0,3-2.3,4.7-5.1,4.7c-2.3,0-4.8-1.1-4.8-3.7C-2350-1831.5-2348.6-1832.4-2346.8-1833.1z M-2345-1826.7
				c1.6,0,3-0.9,3-2.6c-0.1-1.8-2.4-2.9-3.9-3.3c-1.3,0.4-1.9,1.7-1.9,3C-2347.8-1827.9-2346.8-1826.7-2345-1826.7z M-2344.2-1835
				c0.9-0.5,1.5-1.5,1.5-2.5c0-1.6-0.9-2.5-2.5-2.5c-1.3,0-2.3,0.7-2.3,2.1C-2347.4-1836.1-2345.6-1835.5-2344.2-1835z"/>
		</g>
	</g>
	<g transform="matrix(0.620079,0,0,0.620079,1988.59,1527.68)">
	</g>
	<g transform="matrix(0.620079,0,0,0.620079,0,0)">
	</g>
	<g transform="matrix(0.620079,0,0,0.620079,2505.12,1527.68)">
	</g>
	<g transform="matrix(0.620079,0,0,0.620079,2505.12,1527.68)">
		<g class="st2">
			<path d="M-3023.8-1847h0.6v17.5c0,1.9-2.5,3.8-4.5,3.8c-1.2,0-2.2-0.7-2.2-1.9c0-2,2-3.8,4.5-3.8c0.7,0,1.2,0.2,1.6,0.5
				L-3023.8-1847z"/>
		</g>
		<g class="st2">
			<path d="M-3016.1-1832.8v-1.8h10.5v1.8H-3016.1z M-3005.6-1830.2v1.9h-10.5v-1.9H-3005.6z"/>
			<path d="M-2991.9-1840.9h0.7v13.1c0,0.4,0.3,0.8,0.7,0.8h2.1v0.9h-8.1v-0.9h1.7c0.5,0,0.8-0.5,0.8-0.9v-9.9
				c0-0.4-0.3-0.8-0.7-0.8h-2.4v-1C-2995.1-1839.7-2993.5-1840.1-2991.9-1840.9z"/>
			<path d="M-2986.3-1826.1v-0.9c0.2-0.3,0.7-1,4.5-5.6c1.1-1.3,1.8-2.8,1.8-4.4c0-1.6-0.5-2.8-2.2-2.8c-0.9,0-2.4,0.5-2.4,1.7
				c0,0.8,2.1,0.7,2.1,2.1c0,0.9-0.6,1.6-1.6,1.6c-1.4,0-1.7-1.3-1.7-2.4c0-2.6,2-4.1,4.5-4.1c2.4,0,4.4,1.4,4.4,3.9
				c0,1.7-0.9,3-2.2,4.1c-1.1,0.9-3.8,2.9-4.8,4.2l5.1,0c0.8,0,1.2-2.4,1.2-2.4h0.9l-0.3,5H-2986.3z"/>
			<path d="M-2972.2-1833.1c-1.7-0.9-2.6-1.7-2.6-3.7c0-2.5,2-4.1,4.4-4.1c1.8,0,4.2,0.9,4.2,3.1c0,1.6-1.2,2.3-2.4,3.1
				c2,1.1,3.1,2,3.1,4.2c0,3-2.3,4.7-5.1,4.7c-2.3,0-4.8-1.1-4.8-3.7C-2975.4-1831.5-2974-1832.4-2972.2-1833.1z M-2970.4-1826.7
				c1.6,0,3-0.9,3-2.6c-0.1-1.8-2.4-2.9-3.9-3.3c-1.3,0.4-1.9,1.7-1.9,3C-2973.2-1827.9-2972.2-1826.7-2970.4-1826.7z M-2969.6-1835
				c0.9-0.5,1.5-1.5,1.5-2.5c0-1.6-0.9-2.5-2.5-2.5c-1.3,0-2.3,0.7-2.3,2.1C-2972.8-1836.1-2971-1835.5-2969.6-1835z"/>
		</g>
	</g>
	<g transform="matrix(0.620079,0,0,0.620079,2505.12,1527.68)">
	</g>
	<g transform="matrix(0.620079,0,0,0.620079,0,0)">
	</g>
	<g transform="matrix(0.620079,0,0,0.620079,0,0)">
		<line vector-effect="none" class="st0" x1="107.2" y1="782.2" x2="107.2" y2="814.2"/>
	</g>
	<g transform="matrix(0.620079,0,0,0.620079,0,0)">
		<line vector-effect="none" class="st1" x1="113" y1="782.2" x2="113" y2="814.2"/>
	</g>
	<g transform="matrix(0.620079,0,0,0.620079,0,0)">
		<g class="st2">
			<path d="M118.5,795.8c-0.9,0-1.6-0.7-1.6-1.6c0-0.9,0.7-1.6,1.6-1.6s1.6,0.7,1.6,1.6C120.1,795.1,119.3,795.8,118.5,795.8z"/>
		</g>
	</g>
	<g transform="matrix(0.620079,0,0,0.620079,0,0)">
		<g class="st2">
			<path d="M118.5,803.8c-0.9,0-1.6-0.7-1.6-1.6s0.7-1.6,1.6-1.6s1.6,0.7,1.6,1.6S119.3,803.8,118.5,803.8z"/>
		</g>
	</g>
	<g transform="matrix(0.620079,0,0,0.620079,0,0)">
		<line vector-effect="none" class="st1" x1="333.5" y1="782.2" x2="333.5" y2="814.2"/>
	</g>
	<g transform="matrix(0.620079,0,0,0.620079,0,0)">
		<line vector-effect="none" class="st0" x1="339.2" y1="782.2" x2="339.2" y2="814.2"/>
	</g>
	<g transform="matrix(0.620079,0,0,0.620079,0,0)">
		<g class="st2">
			<path d="M328,795.8c-0.9,0-1.6-0.7-1.6-1.6c0-0.9,0.7-1.6,1.6-1.6s1.6,0.7,1.6,1.6C329.6,795.1,328.8,795.8,328,795.8z"/>
		</g>
	</g>
	<g transform="matrix(0.620079,0,0,0.620079,0,0)">
		<g class="st2">
			<path d="M328,803.8c-0.9,0-1.6-0.7-1.6-1.6s0.7-1.6,1.6-1.6s1.6,0.7,1.6,1.6S328.8,803.8,328,803.8z"/>
		</g>
	</g>
	<g transform="matrix(0.620079,0,0,0.620079,0,0)">
		<line vector-effect="none" class="st0" x1="339.2" y1="782.2" x2="339.2" y2="814.2"/>
	</g>
	<g transform="matrix(0.620079,0,0,0.620079,0,0)">
		<line vector-effect="none" class="st1" x1="345" y1="782.2" x2="345" y2="814.2"/>
	</g>
	<g transform="matrix(0.620079,0,0,0.620079,0,0)">
		<g class="st2">
			<path d="M350.5,795.8c-0.9,0-1.6-0.7-1.6-1.6c0-0.9,0.7-1.6,1.6-1.6s1.6,0.7,1.6,1.6C352.1,795.1,351.3,795.8,350.5,795.8z"/>
		</g>
	</g>
	<g transform="matrix(0.620079,0,0,0.620079,0,0)">
		<g class="st2">
			<path d="M350.5,803.8c-0.9,0-1.6-0.7-1.6-1.6s0.7-1.6,1.6-1.6s1.6,0.7,1.6,1.6S351.3,803.8,350.5,803.8z"/>
		</g>
	</g>
	<g transform="matrix(0.620079,0,0,0.620079,0,0)">
		<line vector-effect="none" class="st1" x1="565.7" y1="782.2" x2="565.7" y2="814.2"/>
	</g>
	<g transform="matrix(0.620079,0,0,0.620079,0,0)">
		<line vector-effect="none" class="st0" x1="571.5" y1="782.2" x2="571.5" y2="814.2"/>
	</g>
	<g transform="matrix(0.620079,0,0,0.620079,0,0)">
		<g class="st2">
			<path d="M560.2,795.8c-0.9,0-1.6-0.7-1.6-1.6c0-0.9,0.7-1.6,1.6-1.6s1.6,0.7,1.6,1.6C561.8,795.1,561.1,795.8,560.2,795.8z"/>
		</g>
	</g>
	<g transform="matrix(0.620079,0,0,0.620079,0,0)">
		<g class="st2">
			<path d="M560.2,803.8c-0.9,0-1.6-0.7-1.6-1.6s0.7-1.6,1.6-1.6s1.6,0.7,1.6,1.6S561.1,803.8,560.2,803.8z"/>
		</g>
	</g>
	<g transform="matrix(0.620079,0,0,0.620079,0,0)">
		<line vector-effect="none" class="st0" x1="571.5" y1="782.2" x2="571.5" y2="814.2"/>
	</g>
	<g transform="matrix(0.620079,0,0,0.620079,0,0)">
		<line vector-effect="none" class="st1" x1="577.2" y1="782.2" x2="577.2" y2="814.2"/>
	</g>
	<g transform="matrix(0.620079,0,0,0.620079,0,0)">
		<g class="st2">
			<path d="M582.7,795.8c-0.9,0-1.6-0.7-1.6-1.6c0-0.9,0.7-1.6,1.6-1.6s1.6,0.7,1.6,1.6C584.3,795.1,583.6,795.8,582.7,795.8z"/>
		</g>
	</g>
	<g transform="matrix(0.620079,0,0,0.620079,0,0)">
		<g class="st2">
			<path d="M582.7,803.8c-0.9,0-1.6-0.7-1.6-1.6s0.7-1.6,1.6-1.6s1.6,0.7,1.6,1.6S583.6,803.8,582.7,803.8z"/>
		</g>
	</g>
	<g transform="matrix(0.620079,0,0,0.620079,0,0)">
		<line vector-effect="none" class="st1" x1="797.7" y1="782.2" x2="797.7" y2="814.2"/>
	</g>
	<g transform="matrix(0.620079,0,0,0.620079,0,0)">
		<line vector-effect="none" class="st0" x1="803.5" y1="782.2" x2="803.5" y2="814.2"/>
	</g>
	<g transform="matrix(0.620079,0,0,0.620079,0,0)">
		<g class="st2">
			<path d="M792.2,795.8c-0.9,0-1.6-0.7-1.6-1.6c0-0.9,0.7-1.6,1.6-1.6s1.6,0.7,1.6,1.6C793.8,795.1,793.1,795.8,792.2,795.8z"/>
		</g>
	</g>
	<g transform="matrix(0.620079,0,0,0.620079,0,0)">
		<g class="st2">
			<path d="M792.2,803.8c-0.9,0-1.6-0.7-1.6-1.6s0.7-1.6,1.6-1.6s1.6,0.7,1.6,1.6S793.1,803.8,792.2,803.8z"/>
		</g>
	</g>
	<g transform="matrix(0.620079,0,0,0.620079,0,0)">
		<line vector-effect="none" class="st0" x1="803.5" y1="782.2" x2="803.5" y2="814.2"/>
	</g>
	<g transform="matrix(0.620079,0,0,0.620079,0,0)">
		<line vector-effect="none" class="st1" x1="809.2" y1="782.2" x2="809.2" y2="814.2"/>
	</g>
	<g transform="matrix(0.620079,0,0,0.620079,0,0)">
		<g class="st2">
			<path d="M814.7,795.8c-0.9,0-1.6-0.7-1.6-1.6c0-0.9,0.7-1.6,1.6-1.6c0.9,0,1.6,0.7,1.6,1.6C816.3,795.1,815.6,795.8,814.7,795.8z
				"/>
		</g>
	</g>
	<g transform="matrix(0.620079,0,0,0.620079,0,0)">
		<g class="st2">
			<path d="M814.7,803.8c-0.9,0-1.6-0.7-1.6-1.6s0.7-1.6,1.6-1.6c0.9,0,1.6,0.7,1.6,1.6S815.6,803.8,814.7,803.8z"/>
		</g>
	</g>
	<g transform="matrix(0.620079,0,0,0.620079,0,0)">
		<line vector-effect="none" class="st1" x1="1029.7" y1="782.2" x2="1029.7" y2="814.2"/>
	</g>
	<g transform="matrix(0.620079,0,0,0.620079,0,0)">
		<line vector-effect="none" class="st0" x1="1035.5" y1="782.2" x2="1035.5" y2="814.2"/>
	</g>
	<g transform="matrix(0.620079,0,0,0.620079,0,0)">
		<g class="st2">
			<path d="M1024.2,795.8c-0.9,0-1.6-0.7-1.6-1.6c0-0.9,0.7-1.6,1.6-1.6s1.6,0.7,1.6,1.6C1025.8,795.1,1025.1,795.8,1024.2,795.8z"
				/>
		</g>
	</g>
	<g transform="matrix(0.620079,0,0,0.620079,0,0)">
		<g class="st2">
			<path d="M1024.2,803.8c-0.9,0-1.6-0.7-1.6-1.6s0.7-1.6,1.6-1.6s1.6,0.7,1.6,1.6S1025.1,803.8,1024.2,803.8z"/>
		</g>
	</g>
	<g transform="matrix(0.620079,0,0,0.620079,0,0)">
		<line vector-effect="none" class="st1" x1="1211.7" y1="782.2" x2="1211.7" y2="814.2"/>
	</g>
	<g transform="matrix(0.620079,0,0,0.620079,0,0)">
		<line vector-effect="none" class="st0" x1="1217.5" y1="782.2" x2="1217.5" y2="814.2"/>
	</g>
	<g transform="matrix(0.620079,0,0,0.620079,0,0)">
	</g>
	<g transform="matrix(0.620079,0,0,0.620079,267.254,1816.63)">
	</g>
	<g transform="matrix(0.620079,0,0,0.620079,267.254,1816.63)">
		<g class="st2">
			<path d="M-317-2196.5h0.6v17.5c0,1.9-2.5,3.8-4.5,3.8c-1.2,0-2.2-0.7-2.2-1.9c0-2,2-3.8,4.4-3.8c0.7,0,1.2,0.2,1.6,0.5
				L-317-2196.5z"/>
		</g>
		<g class="st2">
			<path d="M-309.3-2182.2v-1.8h10.5v1.8H-309.3z M-298.8-2179.7v1.9h-10.5v-1.9H-298.8z"/>
			<path d="M-285.1-2190.4h0.7v13.1c0,0.4,0.3,0.8,0.7,0.8h2.1v0.9h-8.1v-0.9h1.7c0.5,0,0.8-0.5,0.8-0.9v-9.9c0-0.4-0.3-0.8-0.7-0.8
				h-2.4v-1C-288.4-2189.2-286.8-2189.6-285.1-2190.4z"/>
			<path d="M-279.5-2178.8c0-1.1,0.4-2,1.6-2c0.9,0,1.5,0.5,1.5,1.4c0,1.2-1.3,1.4-1.3,2c0,0.8,1.4,1.2,2,1.2c2,0,2.6-1.6,2.6-3.3
				c0-1.1-0.3-3.2-1.7-3.2h-1.9c-0.2,0-0.3-0.4-0.3-0.6c0-0.2,0.1-0.5,0.4-0.5h1.6c1.4,0,1.7-1.7,1.7-2.7c0-1.6-0.5-2.8-2.3-2.8
				c-0.5,0-1.4,0.1-1.4,0.8c0,0.6,1.1,0.7,1.1,1.8c0,0.8-0.5,1.4-1.3,1.4c-1,0-1.6-0.7-1.6-1.7c0-2.1,2.1-3.2,4-3.2
				c2.2,0,4.4,1.2,4.4,3.6c0,1.7-1.2,2.7-2.7,3.4c1.9,0.6,3.3,1.9,3.3,4c0,2.8-2.5,4.1-5,4.1
				C-277.3-2175.3-279.5-2176.2-279.5-2178.8z"/>
			<path d="M-265.7-2182.6c-1.7-0.9-2.6-1.7-2.6-3.7c0-2.5,2-4.1,4.4-4.1c1.8,0,4.2,0.9,4.2,3.1c0,1.6-1.2,2.3-2.4,3.1
				c2,1.1,3.1,2,3.1,4.2c0,3-2.3,4.7-5.1,4.7c-2.4,0-4.8-1-4.8-3.7C-268.9-2181-267.5-2181.9-265.7-2182.6z M-263.9-2176.2
				c1.6,0,3-0.9,3-2.6c-0.1-1.8-2.4-2.9-3.9-3.3c-1.3,0.4-1.9,1.7-1.9,3C-266.7-2177.4-265.7-2176.2-263.9-2176.2z M-263.1-2184.5
				c0.9-0.5,1.5-1.5,1.5-2.5c0-1.6-0.9-2.5-2.5-2.5c-1.3,0-2.3,0.7-2.3,2.1C-266.3-2185.6-264.5-2185-263.1-2184.5z"/>
		</g>
	</g>
	<g transform="matrix(0.620079,0,0,0.620079,267.254,1816.63)">
	</g>
	<g transform="matrix(0.620079,0,0,0.620079,0,0)">
	</g>
	<g transform="matrix(0.620079,0,0,0.620079,842.687,1816.63)">
	</g>
	<g transform="matrix(0.620079,0,0,0.620079,842.687,1816.63)">
		<g class="st2">
			<path d="M-1013-2196.5h0.6v17.5c0,1.9-2.5,3.8-4.5,3.8c-1.2,0-2.2-0.7-2.2-1.9c0-2,2-3.8,4.4-3.8c0.7,0,1.2,0.2,1.6,0.5
				L-1013-2196.5z"/>
		</g>
		<g class="st2">
			<path d="M-1005.3-2182.2v-1.8h10.5v1.8H-1005.3z M-994.8-2179.7v1.9h-10.5v-1.9H-994.8z"/>
			<path d="M-981.1-2190.4h0.7v13.1c0,0.4,0.3,0.8,0.7,0.8h2.1v0.9h-8.1v-0.9h1.7c0.5,0,0.8-0.5,0.8-0.9v-9.9c0-0.4-0.3-0.8-0.7-0.8
				h-2.4v-1C-984.4-2189.2-982.8-2189.6-981.1-2190.4z"/>
			<path d="M-968.7-2190.4h0.9v10.1h2v1.1h-2v2c0,0.4,0.3,0.7,0.7,0.7h0.8v0.9h-6.3v-0.9h1.3c0.5,0,0.8-0.4,0.8-0.8v-1.9h-5.3v-1.4
				L-968.7-2190.4z M-970.5-2180.4v-6l-4.3,6H-970.5z"/>
			<path d="M-961.6-2182.6c-1.7-0.9-2.6-1.7-2.6-3.7c0-2.5,2-4.1,4.4-4.1c1.8,0,4.2,0.9,4.2,3.1c0,1.6-1.2,2.3-2.4,3.1
				c2,1.1,3.1,2,3.1,4.2c0,3-2.3,4.7-5.1,4.7c-2.4,0-4.8-1-4.8-3.7C-964.7-2181-963.3-2181.9-961.6-2182.6z M-959.7-2176.2
				c1.6,0,3-0.9,3-2.6c-0.1-1.8-2.4-2.9-3.9-3.3c-1.3,0.4-1.9,1.7-1.9,3C-962.5-2177.4-961.5-2176.2-959.7-2176.2z M-958.9-2184.5
				c0.9-0.5,1.5-1.5,1.5-2.5c0-1.6-0.9-2.5-2.5-2.5c-1.3,0-2.3,0.7-2.3,2.1C-962.2-2185.6-960.3-2185-958.9-2184.5z"/>
		</g>
	</g>
	<g transform="matrix(0.620079,0,0,0.620079,842.687,1816.63)">
	</g>
	<g transform="matrix(0.620079,0,0,0.620079,0,0)">
	</g>
	<g transform="matrix(0.620079,0,0,0.620079,1418.74,1816.63)">
	</g>
	<g transform="matrix(0.620079,0,0,0.620079,1418.74,1816.63)">
		<g class="st2">
			<path d="M-1709.8-2196.5h0.6v17.5c0,1.9-2.5,3.8-4.5,3.8c-1.2,0-2.2-0.7-2.2-1.9c0-2,2-3.8,4.4-3.8c0.7,0,1.2,0.2,1.6,0.5
				L-1709.8-2196.5z"/>
		</g>
		<g class="st2">
			<path d="M-1702.1-2182.2v-1.8h10.5v1.8H-1702.1z M-1691.6-2179.7v1.9h-10.5v-1.9H-1691.6z"/>
			<path d="M-1677.9-2190.4h0.7v13.1c0,0.4,0.3,0.8,0.7,0.8h2.1v0.9h-8.1v-0.9h1.7c0.5,0,0.8-0.5,0.8-0.9v-9.9
				c0-0.4-0.3-0.8-0.7-0.8h-2.4v-1C-1681.1-2189.2-1679.5-2189.6-1677.9-2190.4z"/>
			<path d="M-1672.3-2178.7c0-0.8,0.3-2,1.7-2c0.9,0,1.6,0.5,1.6,1.4c0,1.3-1.5,1.3-1.5,1.9c0,0.8,1.3,1,2,1c2.2,0,2.6-2.2,2.6-4
				c0-1.6-0.4-3.7-2.3-3.7c-0.6,0-1.9,0.2-2.2,0.8c0,0.5-0.1,1.3-0.7,1.3c-0.3,0-0.6-0.1-0.6-0.5c0-0.5,0.3-0.9,0.5-1.3l0.4-6.5
				c0-0.1,0.3,0,0.4,0c1,0.1,2.5,0.4,3.8,0.4c1,0,1.8-0.2,2.7-0.4c0.1,0,0.1,0,0.1,0.3c0,0.5-0.3,1.1-0.6,1.5
				c-0.9,1.1-2.1,1.4-3.5,1.4c-0.7,0-1.4,0-2.2-0.1c-0.2,1-0.2,1.7-0.2,2.8c0.9-0.4,1.8-0.6,2.7-0.6c2.7,0,4.8,2,4.8,4.7
				c0,3.1-2.2,5.1-5.2,5.1C-1670.2-2175.3-1672.3-2176.4-1672.3-2178.7z"/>
			<path d="M-1658.5-2182.6c-1.7-0.9-2.6-1.7-2.6-3.7c0-2.5,2-4.1,4.4-4.1c1.8,0,4.2,0.9,4.2,3.1c0,1.6-1.2,2.3-2.4,3.1
				c2,1.1,3.1,2,3.1,4.2c0,3-2.3,4.7-5.1,4.7c-2.4,0-4.8-1-4.8-3.7C-1661.7-2181-1660.3-2181.9-1658.5-2182.6z M-1656.7-2176.2
				c1.6,0,3-0.9,3-2.6c-0.1-1.8-2.4-2.9-3.9-3.3c-1.3,0.4-1.9,1.7-1.9,3C-1659.5-2177.4-1658.5-2176.2-1656.7-2176.2z
				 M-1655.9-2184.5c0.9-0.5,1.5-1.5,1.5-2.5c0-1.6-0.9-2.5-2.5-2.5c-1.3,0-2.3,0.7-2.3,2.1
				C-1659.1-2185.6-1657.3-2185-1655.9-2184.5z"/>
		</g>
	</g>
	<g transform="matrix(0.620079,0,0,0.620079,1418.74,1816.63)">
	</g>
	<g transform="matrix(0.620079,0,0,0.620079,0,0)">
	</g>
	<g transform="matrix(0.620079,0,0,0.620079,1994.17,1816.63)">
	</g>
	<g transform="matrix(0.620079,0,0,0.620079,1994.17,1816.63)">
		<g class="st2">
			<path d="M-2405.8-2196.5h0.6v17.5c0,1.9-2.5,3.8-4.5,3.8c-1.2,0-2.2-0.7-2.2-1.9c0-2,2-3.8,4.4-3.8c0.7,0,1.2,0.2,1.6,0.5
				L-2405.8-2196.5z"/>
		</g>
		<g class="st2">
			<path d="M-2398.1-2182.2v-1.8h10.5v1.8H-2398.1z M-2387.5-2179.7v1.9h-10.5v-1.9H-2387.5z"/>
			<path d="M-2373.9-2190.4h0.7v13.1c0,0.4,0.3,0.8,0.7,0.8h2.1v0.9h-8.1v-0.9h1.7c0.5,0,0.8-0.5,0.8-0.9v-9.9
				c0-0.4-0.3-0.8-0.7-0.8h-2.4v-1C-2377.1-2189.2-2375.5-2189.6-2373.9-2190.4z"/>
			<path d="M-2362.3-2190.4c1.5,0,3.4,0.8,3.4,2.6c0,1-0.5,1.7-1.6,1.7c-0.8,0-1.3-0.6-1.3-1.4c0-0.5,0.4-0.9,0.4-1.4
				c0-0.5-0.5-0.6-0.9-0.6c-2.6,0.1-2.7,4.4-2.8,6.4c0.8-0.8,1.9-1.3,3.1-1.3c2.5,0,3.7,1.9,3.7,4.2c0,2.9-1.9,5-4.8,5
				c-3.9,0-5.1-3.7-5.1-7C-2368.3-2185.8-2366.6-2190.4-2362.3-2190.4z M-2365.1-2179.8c0,1.2,0.2,3.6,1.9,3.6
				c1.7,0,1.9-2.3,1.9-3.6c0-1.2-0.1-3.3-1.7-3.3C-2364.7-2183.1-2365.1-2181.1-2365.1-2179.8z"/>
			<path d="M-2353.9-2182.6c-1.7-0.9-2.6-1.7-2.6-3.7c0-2.5,2-4.1,4.4-4.1c1.8,0,4.2,0.9,4.2,3.1c0,1.6-1.2,2.3-2.4,3.1
				c2,1.1,3.1,2,3.1,4.2c0,3-2.3,4.7-5.1,4.7c-2.4,0-4.8-1-4.8-3.7C-2357-2181-2355.6-2181.9-2353.9-2182.6z M-2352-2176.2
				c1.6,0,3-0.9,3-2.6c-0.1-1.8-2.4-2.9-3.9-3.3c-1.3,0.4-1.9,1.7-1.9,3C-2354.8-2177.4-2353.8-2176.2-2352-2176.2z M-2351.2-2184.5
				c0.9-0.5,1.5-1.5,1.5-2.5c0-1.6-0.9-2.5-2.5-2.5c-1.3,0-2.3,0.7-2.3,2.1C-2354.4-2185.6-2352.6-2185-2351.2-2184.5z"/>
		</g>
	</g>
	<g transform="matrix(0.620079,0,0,0.620079,1994.17,1816.63)">
	</g>
	<g transform="matrix(0.620079,0,0,0.620079,0,0)">
	</g>
	<g transform="matrix(0.620079,0,0,0.620079,275.315,1580.99)">
	</g>
	<g transform="matrix(0.620079,0,0,0.620079,275.315,1580.99)">
		<g class="st2">
			<path d="M-318.8-1872.7c0,0.4-0.2,0.7-0.5,0.7h-1.9v1.7c0,1,0.6,1.2,1,1.2c0.3,0,0.7,0.2,0.7,0.6s-0.3,0.6-0.6,0.6h-7.5
				c-0.5,0-0.6-0.3-0.6-0.6s0.2-0.6,0.7-0.6c0.6,0,1.3-0.3,1.3-1.1v-1.8h-5.8c-0.4,0-0.6-0.4-0.6-0.7c0-0.1,0-0.2,0.1-0.3
				c0,0,0-0.1,0-0.1l0.2-0.3c0.9-1.3,3.6-5.7,3.6-9.6c0-0.5,0.4-0.6,0.7-0.6c0.3,0,2.1,0.1,2.6,0.1c0.6,0,2.3-0.1,2.5-0.1
				c0.3,0,0.5,0.2,0.5,0.5c0,0.1,0,0.1,0,0.1c-0.1,0.4-5.5,7.4-8.1,9.5h4.3v-2.5c0-0.4,0.2-0.6,0.3-0.7l3.8-3.6
				c0.2-0.2,0.3-0.3,0.6-0.3c0.4,0,0.4,0.3,0.4,0.5v6.6h1.9C-319-1873.5-318.8-1873.1-318.8-1872.7z"/>
		</g>
	</g>
	<g transform="matrix(0.620079,0,0,0.620079,275.315,1580.99)">
		<g class="st2">
			<path d="M-318.8-1856.7c0,0.4-0.2,0.7-0.5,0.7h-1.9v1.7c0,1,0.6,1.2,1,1.2c0.3,0,0.7,0.2,0.7,0.6c0,0.5-0.3,0.6-0.6,0.6h-7.5
				c-0.5,0-0.6-0.3-0.6-0.6c0-0.3,0.2-0.6,0.7-0.6c0.6,0,1.3-0.3,1.3-1.1v-1.8h-5.8c-0.4,0-0.6-0.4-0.6-0.7c0-0.1,0-0.2,0.1-0.3
				c0,0,0-0.1,0-0.1l0.2-0.3c0.9-1.3,3.6-5.7,3.6-9.6c0-0.5,0.4-0.6,0.7-0.6c0.3,0,2.1,0.1,2.6,0.1c0.6,0,2.3-0.1,2.5-0.1
				c0.3,0,0.5,0.2,0.5,0.5c0,0.1,0,0.1,0,0.1c-0.1,0.4-5.5,7.4-8.1,9.5h4.3v-2.5c0-0.4,0.2-0.6,0.3-0.7l3.8-3.6
				c0.2-0.2,0.3-0.3,0.6-0.3c0.4,0,0.4,0.3,0.4,0.5v6.6h1.9C-319-1857.4-318.8-1857.1-318.8-1856.7z"/>
		</g>
	</g>
	<g transform="matrix(0.620079,0,0,0.620079,275.315,1580.99)">
	</g>
	<g transform="matrix(0.620079,0,0,0.620079,0,0)">
	</g>
	<g transform="matrix(0.620079,0,0,0.620079,0,0)">
		<line vector-effect="none" class="st5" x1="58.2" y1="697.8" x2="1219.5" y2="697.8"/>
	</g>
	<g transform="matrix(0.620079,0,0,0.620079,0,0)">
		<line vector-effect="none" class="st5" x1="58.2" y1="689.8" x2="1219.5" y2="689.8"/>
	</g>
	<g transform="matrix(0.620079,0,0,0.620079,0,0)">
		<line vector-effect="none" class="st5" x1="58.2" y1="681.8" x2="1219.5" y2="681.8"/>
	</g>
	<g transform="matrix(0.620079,0,0,0.620079,0,0)">
		<line vector-effect="none" class="st5" x1="58.2" y1="673.8" x2="1219.5" y2="673.8"/>
	</g>
	<g transform="matrix(0.620079,0,0,0.620079,0,0)">
		<line vector-effect="none" class="st5" x1="58.2" y1="665.8" x2="1219.5" y2="665.8"/>
	</g>
	<g transform="matrix(0.620079,0,0,0.620079,0,0)">
		<g class="st2">
			<path d="M81.2,674.6c0,4.2-1.7,8.1-4.4,11.1c-3.4,3.6-7.5,6.1-11.7,8.2c-0.2,0.1-0.4,0.2-0.5,0.2c-0.3,0-0.4-0.2-0.4-0.4
				c0-0.3,0.2-0.4,0.5-0.6c4-2.3,7.3-5,9.2-8c2-3.1,2.7-6.9,2.7-10.2c0-5-1.5-8.4-4.9-8.4c-3.3,0-5.2,2.3-5.2,3.6
				c0,0.3,0.1,0.6,0.5,0.6s0.7-0.2,1.6-0.2c1.6,0,3.1,1.3,3.1,3.3c0,2-1.4,3.4-3.4,3.4c-2.6,0-3.9-2.2-3.9-4.8
				c0-3.1,2.5-7.1,8.1-7.1C77.8,665.4,81.2,669.1,81.2,674.6z M86.1,669.8c0,1-0.8,1.8-1.8,1.8c-1,0-1.8-0.8-1.8-1.8
				c0-1,0.8-1.8,1.8-1.8C85.3,668,86.1,668.8,86.1,669.8z M86.1,677.7c0,1-0.7,1.7-1.7,1.7c-1,0-1.7-0.7-1.7-1.7
				c0-1,0.7-1.7,1.7-1.7C85.3,676,86.1,676.8,86.1,677.7z"/>
		</g>
	</g>
	<g transform="matrix(0.620079,0,0,0.620079,0,0)">
		<g class="st2">
			<path d="M92.2,676.6c0-0.6,0.5-0.9,1-0.9c0.3,0,0.6,0.2,0.6,0.5c0,0.6-0.2,8.3-0.2,9c0,0.2,0.1,0.4,0.4,0.5c0.1,0,0.1,0,0.2,0
				c0.3,0,0.5-0.3,0.7-0.4c0.4-0.2,0.7-0.4,1.1-0.4c0.2-0.1,0.4-0.1,0.7-0.1c1.5,0.1,2.9,1.2,2.9,3.1c0,1.5-1,3.4-3.8,5.4
				c-0.8,0.5-1.6,1.4-2.5,2c0,0-0.1,0.1-0.2,0.1s-0.2,0-0.3-0.2C92.3,694.9,92.2,676.6,92.2,676.6z M94.1,692.8c0.1,0,0.2,0,0.3-0.1
				c1-0.6,1.9-1.6,2.3-2.4c0.4-0.7,0.5-1.3,0.5-1.9c0-0.6-0.2-1.2-0.5-1.5c-0.2-0.2-0.5-0.4-0.8-0.4c-0.3,0-0.5,0.1-0.8,0.2
				c-0.4,0.3-1.3,1-1.4,1.3c0,0.1-0.1,0.5-0.1,1c0,1.3,0.1,3.2,0.1,3.2C93.7,692.5,93.8,692.8,94.1,692.8z"/>
		</g>
	</g>
	<g transform="matrix(0.620079,0,0,0.620079,0,0)">
		<g class="st2">
			<path d="M156.7,653.7c-0.2,0-0.4-0.3-0.4-0.5c0-0.1-0.1-0.2-0.1-0.3c0-0.2,0.1-0.3,0.4-0.5c0,0,6.8-2.3,7.2-2.4
				c0.2-0.1,0.3-0.1,0.3-0.2s-0.1-0.2-0.2-0.2c-0.3-0.1-7.2-2.5-7.2-2.5c-0.4-0.1-0.4-0.3-0.4-0.4c0-0.1,0-0.2,0.1-0.3
				c0.1-0.3,0.2-0.4,0.5-0.4c0.1,0,0.2,0,0.3,0.1l9.6,3.3c0.4,0.1,0.4,0.3,0.4,0.6s0,0.5-0.4,0.6c0,0-9.7,3.3-9.8,3.3
				C156.8,653.7,156.7,653.7,156.7,653.7z"/>
		</g>
	</g>
	<g transform="matrix(0.620079,0,0,0.620079,0,0)">
		<g class="st2">
			<path d="M225.4,649.8c-0.8,0-0.8-0.4-0.8-0.8s0-0.8,0.8-0.8h9.3c0.8,0,0.8,0.4,0.8,0.8s0,0.8-0.8,0.8H225.4z"/>
		</g>
	</g>
	<g transform="matrix(0.620079,0,0,0.620079,0,0)">
		<g class="st2">
			<path d="M225.2,646.2c-0.2,0-0.4-0.3-0.4-0.5c0-0.1-0.1-0.2-0.1-0.3c0-0.2,0.1-0.3,0.4-0.5c0,0,6.8-2.3,7.2-2.4
				c0.2-0.1,0.3-0.1,0.3-0.2s-0.1-0.2-0.2-0.2c-0.3-0.1-7.2-2.5-7.2-2.5c-0.4-0.1-0.4-0.3-0.4-0.4c0-0.1,0-0.2,0.1-0.3
				c0.1-0.3,0.2-0.4,0.5-0.4c0.1,0,0.2,0,0.3,0.1l9.6,3.3c0.4,0.1,0.4,0.3,0.4,0.6s0,0.5-0.4,0.6c0,0-9.7,3.3-9.8,3.3
				C225.3,646.2,225.2,646.2,225.2,646.2z"/>
		</g>
	</g>
	<g transform="matrix(0.620079,0,0,0.620079,0,0)">
		<g class="st2">
			<path d="M273.4,649.8c-0.8,0-0.8-0.4-0.8-0.8s0-0.8,0.8-0.8h9.3c0.8,0,0.8,0.4,0.8,0.8s0,0.8-0.8,0.8H273.4z"/>
		</g>
	</g>
	<g transform="matrix(0.620079,0,0,0.620079,0,0)">
		<g class="st2">
			<path d="M273.2,646.2c-0.2,0-0.4-0.3-0.4-0.5c0-0.1-0.1-0.2-0.1-0.3c0-0.2,0.1-0.3,0.4-0.5c0,0,6.8-2.3,7.2-2.4
				c0.2-0.1,0.3-0.1,0.3-0.2s-0.1-0.2-0.2-0.2c-0.3-0.1-7.2-2.5-7.2-2.5c-0.4-0.1-0.4-0.3-0.4-0.4c0-0.1,0-0.2,0.1-0.3
				c0.1-0.3,0.2-0.4,0.5-0.4c0.1,0,0.2,0,0.3,0.1l9.6,3.3c0.4,0.1,0.4,0.3,0.4,0.6s0,0.5-0.4,0.6c0,0-9.7,3.3-9.8,3.3
				C273.3,646.2,273.2,646.2,273.2,646.2z"/>
		</g>
	</g>
	<g transform="matrix(0.620079,0,0,0.620079,0,0)">
		<path vector-effect="none" class="st6" d="M225.2,689.8h48v-4h-48V689.8"/>
	</g>
	<g transform="matrix(0.620079,0,0,0.620079,0,0)">
		<g class="st2">
			<path d="M321.2,649.8c-0.8,0-0.8-0.4-0.8-0.8s0-0.8,0.8-0.8h9.3c0.8,0,0.8,0.4,0.8,0.8s0,0.8-0.8,0.8H321.2z"/>
		</g>
	</g>
	<g transform="matrix(0.620079,0,0,0.620079,0,0)">
		<g class="st2">
			<path d="M321,646.2c-0.2,0-0.4-0.3-0.4-0.5c0-0.1-0.1-0.2-0.1-0.3c0-0.2,0.1-0.3,0.4-0.5c0,0,6.8-2.3,7.2-2.4
				c0.2-0.1,0.3-0.1,0.3-0.2s-0.1-0.2-0.2-0.2c-0.3-0.1-7.2-2.5-7.2-2.5c-0.4-0.1-0.4-0.3-0.4-0.4c0-0.1,0-0.2,0.1-0.3
				c0.1-0.3,0.2-0.4,0.5-0.4c0.1,0,0.2,0,0.3,0.1l9.6,3.3c0.4,0.1,0.4,0.3,0.4,0.6s0,0.5-0.4,0.6c0,0-9.7,3.3-9.8,3.3
				C321.1,646.2,321,646.2,321,646.2z"/>
		</g>
	</g>
	<g transform="matrix(0.620079,0,0,0.620079,0,0)">
		<path vector-effect="none" class="st6" d="M297,689.8h47.8v-4H297V689.8"/>
	</g>
	<g transform="matrix(0.620079,0,0,0.620079,0,0)">
		<g class="st2">
			<path d="M410.5,653.7c-0.2,0-0.4-0.3-0.4-0.5c0-0.1-0.1-0.2-0.1-0.3c0-0.2,0.1-0.3,0.4-0.5c0,0,6.8-2.3,7.2-2.4
				c0.2-0.1,0.3-0.1,0.3-0.2s-0.1-0.2-0.2-0.2c-0.3-0.1-7.2-2.5-7.2-2.5c-0.4-0.1-0.4-0.3-0.4-0.4c0-0.1,0-0.2,0.1-0.3
				c0.1-0.3,0.2-0.4,0.5-0.4c0.1,0,0.2,0,0.3,0.1l9.6,3.3c0.4,0.1,0.4,0.3,0.4,0.6s0,0.5-0.4,0.6c0,0-9.7,3.3-9.8,3.3
				C410.6,653.7,410.5,653.7,410.5,653.7z"/>
		</g>
	</g>
	<g transform="matrix(0.620079,0,0,0.620079,0,0)">
		<g class="st2">
			<path d="M479.2,653.8c-0.8,0-0.8-0.4-0.8-0.8s0-0.8,0.8-0.8h9.3c0.8,0,0.8,0.4,0.8,0.8s0,0.8-0.8,0.8H479.2z"/>
		</g>
	</g>
	<g transform="matrix(0.620079,0,0,0.620079,0,0)">
		<g class="st2">
			<path d="M479,650.2c-0.2,0-0.4-0.3-0.4-0.5c0-0.1-0.1-0.2-0.1-0.3c0-0.2,0.1-0.3,0.4-0.5c0,0,6.8-2.3,7.2-2.4
				c0.2-0.1,0.3-0.1,0.3-0.2c0-0.1-0.1-0.2-0.2-0.2c-0.3-0.1-7.2-2.5-7.2-2.5c-0.4-0.1-0.4-0.3-0.4-0.4c0-0.1,0-0.2,0.1-0.3
				c0.1-0.3,0.2-0.4,0.5-0.4c0.1,0,0.2,0,0.3,0.1l9.6,3.3c0.4,0.1,0.4,0.3,0.4,0.6c0,0.3,0,0.5-0.4,0.6c0,0-9.7,3.3-9.8,3.3
				C479.1,650.2,479,650.2,479,650.2z"/>
		</g>
	</g>
	<g transform="matrix(0.620079,0,0,0.620079,0,0)">
		<g class="st2">
			<path d="M511.9,653.8c-0.8,0-0.8-0.4-0.8-0.8s0-0.8,0.8-0.8h9.3c0.8,0,0.8,0.4,0.8,0.8s0,0.8-0.8,0.8H511.9z"/>
		</g>
	</g>
	<g transform="matrix(0.620079,0,0,0.620079,0,0)">
		<g class="st2">
			<path d="M511.7,650.2c-0.2,0-0.4-0.3-0.4-0.5c0-0.1-0.1-0.2-0.1-0.3c0-0.2,0.1-0.3,0.4-0.5c0,0,6.8-2.3,7.2-2.4
				c0.2-0.1,0.3-0.1,0.3-0.2c0-0.1-0.1-0.2-0.2-0.2c-0.3-0.1-7.2-2.5-7.2-2.5c-0.4-0.1-0.4-0.3-0.4-0.4c0-0.1,0-0.2,0.1-0.3
				c0.1-0.3,0.2-0.4,0.5-0.4c0.1,0,0.2,0,0.3,0.1l9.6,3.3c0.4,0.1,0.4,0.3,0.4,0.6c0,0.3,0,0.5-0.4,0.6c0,0-9.7,3.3-9.8,3.3
				C511.8,650.2,511.7,650.2,511.7,650.2z"/>
		</g>
	</g>
	<g transform="matrix(0.620079,0,0,0.620079,0,0)">
		<g class="st2">
			<path d="M544.4,653.8c-0.8,0-0.8-0.4-0.8-0.8s0-0.8,0.8-0.8h9.3c0.8,0,0.8,0.4,0.8,0.8s0,0.8-0.8,0.8H544.4z"/>
		</g>
	</g>
	<g transform="matrix(0.620079,0,0,0.620079,0,0)">
		<g class="st2">
			<path d="M544.2,650.2c-0.2,0-0.4-0.3-0.4-0.5c0-0.1-0.1-0.2-0.1-0.3c0-0.2,0.1-0.3,0.4-0.5c0,0,6.8-2.3,7.2-2.4
				c0.2-0.1,0.3-0.1,0.3-0.2c0-0.1-0.1-0.2-0.2-0.2c-0.3-0.1-7.2-2.5-7.2-2.5c-0.4-0.1-0.4-0.3-0.4-0.4c0-0.1,0-0.2,0.1-0.3
				c0.1-0.3,0.2-0.4,0.5-0.4c0.1,0,0.2,0,0.3,0.1l9.6,3.3c0.4,0.1,0.4,0.3,0.4,0.6c0,0.3,0,0.5-0.4,0.6c0,0-9.7,3.3-9.8,3.3
				C544.3,650.2,544.2,650.2,544.2,650.2z"/>
		</g>
	</g>
	<g transform="matrix(0.620079,0,0,0.620079,0,0)">
		<line vector-effect="none" class="st1" x1="474.7" y1="708.2" x2="474.7" y2="699.8"/>
	</g>
	<g transform="matrix(0.620079,0,0,0.620079,0,0)">
		<line vector-effect="none" class="st1" x1="554" y1="708.2" x2="554" y2="699.8"/>
	</g>
	<g transform="matrix(0.620079,0,0,0.620079,0,0)">
		<line vector-effect="none" class="st1" x1="474.7" y1="707.8" x2="507" y2="707.8"/>
	</g>
	<g transform="matrix(0.620079,0,0,0.620079,0,0)">
		<line vector-effect="none" class="st1" x1="521.5" y1="707.8" x2="554" y2="707.8"/>
	</g>
	<g transform="matrix(0.620079,0,0,0.620079,0,0)">
	</g>
	<g transform="matrix(0.620079,0,0,0.620079,1261.24,1728.68)">
	</g>
	<g transform="matrix(0.620079,0,0,0.620079,1261.24,1728.68)">
		<g class="st2">
			<path d="M-1525-2076.1c0-1,0.6-1.7,1.4-1.7c0.6,0,1.1,0.4,1.1,1.1c0,0.8-0.4,1.1-0.7,1.3c-0.2,0.1-0.4,0.2-0.4,0.3
				c0,0.3,0.5,0.5,1.1,0.5c1.8,0,2.7-1.8,2.7-3.1c0-0.9-0.5-1.6-1.6-1.6h-0.3c-0.4,0-0.6-0.2-0.6-0.4c0-0.3,0.2-0.4,0.6-0.4h0.3
				c1.7,0,2.7-1.1,2.7-2.6c0-0.6-0.4-1.3-1.5-1.3c-0.6,0-1,0.2-1,0.4c0,0.1,0.1,0.2,0.4,0.4c0.1,0.2,0.3,0.4,0.3,0.7
				c0,0.8-0.6,1.4-1.3,1.4c-0.7,0-1.1-0.5-1.1-1.3c0.1-1.6,1.6-2.6,3.4-2.6c1.8,0,3.2,0.9,3.2,2.5c0,1.2-1,2.1-2.2,2.6
				c-0.2,0.1-0.4,0.2-0.4,0.3c0,0.1,0.1,0.2,0.3,0.3c0.8,0.4,1.1,1.1,1.1,1.8c0,2.3-2,3.8-4.5,3.8
				C-1524-2073.9-1525-2075-1525-2076.1z"/>
		</g>
	</g>
	<g transform="matrix(0.620079,0,0,0.620079,1261.24,1728.68)">
	</g>
	<g transform="matrix(0.620079,0,0,0.620079,0,0)">
	</g>
	<g transform="matrix(0.620079,0,0,0.620079,0,0)">
		<g class="st2">
			<path d="M618.7,653.7c-0.2,0-0.4-0.3-0.4-0.5c0-0.1-0.1-0.2-0.1-0.3c0-0.2,0.1-0.3,0.4-0.5c0,0,6.8-2.3,7.2-2.4
				c0.2-0.1,0.3-0.1,0.3-0.2s-0.1-0.2-0.2-0.2c-0.3-0.1-7.2-2.5-7.2-2.5c-0.4-0.1-0.4-0.3-0.4-0.4c0-0.1,0-0.2,0.1-0.3
				c0.1-0.3,0.2-0.4,0.5-0.4c0.1,0,0.2,0,0.3,0.1l9.6,3.3c0.4,0.1,0.4,0.3,0.4,0.6s0,0.5-0.4,0.6c0,0-9.7,3.3-9.8,3.3
				C618.8,653.7,618.7,653.7,618.7,653.7z"/>
		</g>
	</g>
	<g transform="matrix(0.620079,0,0,0.620079,0,0)">
		<g class="st2">
			<path d="M687.4,653.8c-0.8,0-0.8-0.4-0.8-0.8s0-0.8,0.8-0.8h9.3c0.8,0,0.8,0.4,0.8,0.8s0,0.8-0.8,0.8H687.4z"/>
		</g>
	</g>
	<g transform="matrix(0.620079,0,0,0.620079,0,0)">
		<g class="st2">
			<path d="M687.2,650.2c-0.2,0-0.4-0.3-0.4-0.5c0-0.1-0.1-0.2-0.1-0.3c0-0.2,0.1-0.3,0.4-0.5c0,0,6.8-2.3,7.2-2.4
				c0.2-0.1,0.3-0.1,0.3-0.2c0-0.1-0.1-0.2-0.2-0.2c-0.3-0.1-7.2-2.5-7.2-2.5c-0.4-0.1-0.4-0.3-0.4-0.4c0-0.1,0-0.2,0.1-0.3
				c0.1-0.3,0.2-0.4,0.5-0.4c0.1,0,0.2,0,0.3,0.1l9.6,3.3c0.4,0.1,0.4,0.3,0.4,0.6c0,0.3,0,0.5-0.4,0.6c0,0-9.7,3.3-9.8,3.3
				C687.3,650.2,687.2,650.2,687.2,650.2z"/>
		</g>
	</g>
	<g transform="matrix(0.620079,0,0,0.620079,0,0)">
		<g class="st2">
			<path d="M719.9,653.8c-0.8,0-0.8-0.4-0.8-0.8s0-0.8,0.8-0.8h9.3c0.8,0,0.8,0.4,0.8,0.8s0,0.8-0.8,0.8H719.9z"/>
		</g>
	</g>
	<g transform="matrix(0.620079,0,0,0.620079,0,0)">
		<g class="st2">
			<path d="M719.7,650.2c-0.2,0-0.4-0.3-0.4-0.5c0-0.1-0.1-0.2-0.1-0.3c0-0.2,0.1-0.3,0.4-0.5c0,0,6.8-2.3,7.2-2.4
				c0.2-0.1,0.3-0.1,0.3-0.2c0-0.1-0.1-0.2-0.2-0.2c-0.3-0.1-7.2-2.5-7.2-2.5c-0.4-0.1-0.4-0.3-0.4-0.4c0-0.1,0-0.2,0.1-0.3
				c0.1-0.3,0.2-0.4,0.5-0.4c0.1,0,0.2,0,0.3,0.1l9.6,3.3c0.4,0.1,0.4,0.3,0.4,0.6c0,0.3,0,0.5-0.4,0.6c0,0-9.7,3.3-9.8,3.3
				C719.8,650.2,719.7,650.2,719.7,650.2z"/>
		</g>
	</g>
	<g transform="matrix(0.620079,0,0,0.620079,0,0)">
		<g class="st2">
			<path d="M752.7,653.8c-0.8,0-0.8-0.4-0.8-0.8s0-0.8,0.8-0.8h9.3c0.8,0,0.8,0.4,0.8,0.8s0,0.8-0.8,0.8H752.7z"/>
		</g>
	</g>
	<g transform="matrix(0.620079,0,0,0.620079,0,0)">
		<g class="st2">
			<path d="M752.5,650.2c-0.2,0-0.4-0.3-0.4-0.5c0-0.1-0.1-0.2-0.1-0.3c0-0.2,0.1-0.3,0.4-0.5c0,0,6.8-2.3,7.2-2.4
				c0.2-0.1,0.3-0.1,0.3-0.2c0-0.1-0.1-0.2-0.2-0.2c-0.3-0.1-7.2-2.5-7.2-2.5c-0.4-0.1-0.4-0.3-0.4-0.4c0-0.1,0-0.2,0.1-0.3
				c0.1-0.3,0.2-0.4,0.5-0.4c0.1,0,0.2,0,0.3,0.1l9.6,3.3c0.4,0.1,0.4,0.3,0.4,0.6c0,0.3,0,0.5-0.4,0.6c0,0-9.7,3.3-9.8,3.3
				C752.6,650.2,752.5,650.2,752.5,650.2z"/>
		</g>
	</g>
	<g transform="matrix(0.620079,0,0,0.620079,0,0)">
		<line vector-effect="none" class="st1" x1="683" y1="708.2" x2="683" y2="699.8"/>
	</g>
	<g transform="matrix(0.620079,0,0,0.620079,0,0)">
		<line vector-effect="none" class="st1" x1="762.2" y1="708.2" x2="762.2" y2="699.8"/>
	</g>
	<g transform="matrix(0.620079,0,0,0.620079,0,0)">
		<line vector-effect="none" class="st1" x1="683" y1="707.8" x2="715.2" y2="707.8"/>
	</g>
	<g transform="matrix(0.620079,0,0,0.620079,0,0)">
		<line vector-effect="none" class="st1" x1="729.7" y1="707.8" x2="762.2" y2="707.8"/>
	</g>
	<g transform="matrix(0.620079,0,0,0.620079,0,0)">
	</g>
	<g transform="matrix(0.620079,0,0,0.620079,1777.77,1728.68)">
	</g>
	<g transform="matrix(0.620079,0,0,0.620079,1777.77,1728.68)">
		<g class="st2">
			<path d="M-2149.7-2076.1c0-1,0.6-1.7,1.4-1.7c0.6,0,1.1,0.4,1.1,1.1c0,0.8-0.4,1.1-0.7,1.3c-0.2,0.1-0.4,0.2-0.4,0.3
				c0,0.3,0.5,0.5,1.1,0.5c1.8,0,2.7-1.8,2.7-3.1c0-0.9-0.5-1.6-1.6-1.6h-0.3c-0.4,0-0.6-0.2-0.6-0.4c0-0.3,0.2-0.4,0.6-0.4h0.3
				c1.7,0,2.7-1.1,2.7-2.6c0-0.6-0.4-1.3-1.5-1.3c-0.6,0-1,0.2-1,0.4c0,0.1,0.1,0.2,0.4,0.4c0.1,0.2,0.3,0.4,0.3,0.7
				c0,0.8-0.6,1.4-1.3,1.4c-0.7,0-1.1-0.5-1.1-1.3c0.1-1.6,1.6-2.6,3.4-2.6c1.8,0,3.2,0.9,3.2,2.5c0,1.2-1,2.1-2.2,2.6
				c-0.2,0.1-0.4,0.2-0.4,0.3c0,0.1,0.1,0.2,0.3,0.3c0.8,0.4,1.1,1.1,1.1,1.8c0,2.3-2,3.8-4.5,3.8
				C-2148.8-2073.9-2149.7-2075-2149.7-2076.1z"/>
		</g>
	</g>
	<g transform="matrix(0.620079,0,0,0.620079,1777.77,1728.68)">
	</g>
	<g transform="matrix(0.620079,0,0,0.620079,0,0)">
	</g>
	<g transform="matrix(0.620079,0,0,0.620079,0,0)">
		<g class="st2">
			<path d="M826.7,653.7c-0.2,0-0.4-0.3-0.4-0.5c0-0.1-0.1-0.2-0.1-0.3c0-0.2,0.1-0.3,0.4-0.5c0,0,6.8-2.3,7.2-2.4
				c0.2-0.1,0.3-0.1,0.3-0.2s-0.1-0.2-0.2-0.2c-0.3-0.1-7.2-2.5-7.2-2.5c-0.4-0.1-0.4-0.3-0.4-0.4c0-0.1,0-0.2,0.1-0.3
				c0.1-0.3,0.2-0.4,0.5-0.4c0.1,0,0.2,0,0.3,0.1l9.6,3.3c0.4,0.1,0.4,0.3,0.4,0.6s0,0.5-0.4,0.6c0,0-9.7,3.3-9.8,3.3
				C826.8,653.7,826.7,653.7,826.7,653.7z"/>
		</g>
	</g>
	<g transform="matrix(0.620079,0,0,0.620079,0,0)">
		<g class="st2">
			<path d="M895.4,653.8c-0.8,0-0.8-0.4-0.8-0.8s0-0.8,0.8-0.8h9.3c0.8,0,0.8,0.4,0.8,0.8s0,0.8-0.8,0.8H895.4z"/>
		</g>
	</g>
	<g transform="matrix(0.620079,0,0,0.620079,0,0)">
		<g class="st2">
			<path d="M895.2,650.2c-0.2,0-0.4-0.3-0.4-0.5c0-0.1-0.1-0.2-0.1-0.3c0-0.2,0.1-0.3,0.4-0.5c0,0,6.8-2.3,7.2-2.4
				c0.2-0.1,0.3-0.1,0.3-0.2c0-0.1-0.1-0.2-0.2-0.2c-0.3-0.1-7.2-2.5-7.2-2.5c-0.4-0.1-0.4-0.3-0.4-0.4c0-0.1,0-0.2,0.1-0.3
				c0.1-0.3,0.2-0.4,0.5-0.4c0.1,0,0.2,0,0.3,0.1l9.6,3.3c0.4,0.1,0.4,0.3,0.4,0.6c0,0.3,0,0.5-0.4,0.6c0,0-9.7,3.3-9.8,3.3
				C895.3,650.2,895.2,650.2,895.2,650.2z"/>
		</g>
	</g>
	<g transform="matrix(0.620079,0,0,0.620079,0,0)">
		<g class="st2">
			<path d="M928.2,653.8c-0.8,0-0.8-0.4-0.8-0.8s0-0.8,0.8-0.8h9.3c0.8,0,0.8,0.4,0.8,0.8s0,0.8-0.8,0.8H928.2z"/>
		</g>
	</g>
	<g transform="matrix(0.620079,0,0,0.620079,0,0)">
		<g class="st2">
			<path d="M928,650.2c-0.2,0-0.4-0.3-0.4-0.5c0-0.1-0.1-0.2-0.1-0.3c0-0.2,0.1-0.3,0.4-0.5c0,0,6.8-2.3,7.2-2.4
				c0.2-0.1,0.3-0.1,0.3-0.2c0-0.1-0.1-0.2-0.2-0.2c-0.3-0.1-7.2-2.5-7.2-2.5c-0.4-0.1-0.4-0.3-0.4-0.4c0-0.1,0-0.2,0.1-0.3
				c0.1-0.3,0.2-0.4,0.5-0.4c0.1,0,0.2,0,0.3,0.1l9.6,3.3c0.4,0.1,0.4,0.3,0.4,0.6c0,0.3,0,0.5-0.4,0.6c0,0-9.7,3.3-9.8,3.3
				C928.1,650.2,928,650.2,928,650.2z"/>
		</g>
	</g>
	<g transform="matrix(0.620079,0,0,0.620079,0,0)">
		<g class="st2">
			<path d="M960.7,653.8c-0.8,0-0.8-0.4-0.8-0.8s0-0.8,0.8-0.8h9.3c0.8,0,0.8,0.4,0.8,0.8s0,0.8-0.8,0.8H960.7z"/>
		</g>
	</g>
	<g transform="matrix(0.620079,0,0,0.620079,0,0)">
		<g class="st2">
			<path d="M960.5,650.2c-0.2,0-0.4-0.3-0.4-0.5c0-0.1-0.1-0.2-0.1-0.3c0-0.2,0.1-0.3,0.4-0.5c0,0,6.8-2.3,7.2-2.4
				c0.2-0.1,0.3-0.1,0.3-0.2c0-0.1-0.1-0.2-0.2-0.2c-0.3-0.1-7.2-2.5-7.2-2.5c-0.4-0.1-0.4-0.3-0.4-0.4c0-0.1,0-0.2,0.1-0.3
				c0.1-0.3,0.2-0.4,0.5-0.4c0.1,0,0.2,0,0.3,0.1l9.6,3.3c0.4,0.1,0.4,0.3,0.4,0.6c0,0.3,0,0.5-0.4,0.6c0,0-9.7,3.3-9.8,3.3
				C960.6,650.2,960.5,650.2,960.5,650.2z"/>
		</g>
	</g>
	<g transform="matrix(0.620079,0,0,0.620079,0,0)">
		<line vector-effect="none" class="st1" x1="891" y1="708.2" x2="891" y2="699.8"/>
	</g>
	<g transform="matrix(0.620079,0,0,0.620079,0,0)">
		<line vector-effect="none" class="st1" x1="970.2" y1="708.2" x2="970.2" y2="699.8"/>
	</g>
	<g transform="matrix(0.620079,0,0,0.620079,0,0)">
		<line vector-effect="none" class="st1" x1="891" y1="707.8" x2="923.2" y2="707.8"/>
	</g>
	<g transform="matrix(0.620079,0,0,0.620079,0,0)">
		<line vector-effect="none" class="st1" x1="937.7" y1="707.8" x2="970.2" y2="707.8"/>
	</g>
	<g transform="matrix(0.620079,0,0,0.620079,0,0)">
	</g>
	<g transform="matrix(0.620079,0,0,0.620079,2293.67,1728.68)">
	</g>
	<g transform="matrix(0.620079,0,0,0.620079,2293.67,1728.68)">
		<g class="st2">
			<path d="M-2773.7-2076.1c0-1,0.6-1.7,1.4-1.7c0.6,0,1.1,0.4,1.1,1.1c0,0.8-0.4,1.1-0.7,1.3c-0.2,0.1-0.4,0.2-0.4,0.3
				c0,0.3,0.5,0.5,1.1,0.5c1.8,0,2.7-1.8,2.7-3.1c0-0.9-0.5-1.6-1.6-1.6h-0.3c-0.4,0-0.6-0.2-0.6-0.4c0-0.3,0.2-0.4,0.6-0.4h0.3
				c1.7,0,2.7-1.1,2.7-2.6c0-0.6-0.4-1.3-1.5-1.3c-0.6,0-1,0.2-1,0.4c0,0.1,0.1,0.2,0.4,0.4c0.1,0.2,0.3,0.4,0.3,0.7
				c0,0.8-0.6,1.4-1.3,1.4c-0.7,0-1.1-0.5-1.1-1.3c0.1-1.6,1.6-2.6,3.4-2.6c1.8,0,3.2,0.9,3.2,2.5c0,1.2-1,2.1-2.2,2.6
				c-0.2,0.1-0.4,0.2-0.4,0.3c0,0.1,0.1,0.2,0.3,0.3c0.8,0.4,1.1,1.1,1.1,1.8c0,2.3-2,3.8-4.5,3.8
				C-2772.8-2073.9-2773.7-2075-2773.7-2076.1z"/>
		</g>
	</g>
	<g transform="matrix(0.620079,0,0,0.620079,2293.67,1728.68)">
	</g>
	<g transform="matrix(0.620079,0,0,0.620079,0,0)">
	</g>
	<g transform="matrix(0.620079,0,0,0.620079,0,0)">
		<g class="st2">
			<path d="M1035,653.7c-0.2,0-0.4-0.3-0.4-0.5c0-0.1-0.1-0.2-0.1-0.3c0-0.2,0.1-0.3,0.4-0.5c0,0,6.8-2.3,7.2-2.4
				c0.2-0.1,0.3-0.1,0.3-0.2s-0.1-0.2-0.2-0.2c-0.3-0.1-7.2-2.5-7.2-2.5c-0.4-0.1-0.4-0.3-0.4-0.4c0-0.1,0-0.2,0.1-0.3
				c0.1-0.3,0.2-0.4,0.5-0.4c0.1,0,0.2,0,0.3,0.1l9.6,3.3c0.4,0.1,0.4,0.3,0.4,0.6s0,0.5-0.4,0.6c0,0-9.7,3.3-9.8,3.3
				C1035.1,653.7,1035,653.7,1035,653.7z"/>
		</g>
	</g>
	<g transform="matrix(0.620079,0,0,0.620079,0,0)">
		<g class="st2">
			<path d="M1103.7,653.8c-0.8,0-0.8-0.4-0.8-0.8s0-0.8,0.8-0.8h9.3c0.8,0,0.8,0.4,0.8,0.8s0,0.8-0.8,0.8H1103.7z"/>
		</g>
	</g>
	<g transform="matrix(0.620079,0,0,0.620079,0,0)">
		<g class="st2">
			<path d="M1103.5,650.2c-0.2,0-0.4-0.3-0.4-0.5c0-0.1-0.1-0.2-0.1-0.3c0-0.2,0.1-0.3,0.4-0.5c0,0,6.8-2.3,7.2-2.4
				c0.2-0.1,0.3-0.1,0.3-0.2c0-0.1-0.1-0.2-0.2-0.2c-0.3-0.1-7.2-2.5-7.2-2.5c-0.4-0.1-0.4-0.3-0.4-0.4c0-0.1,0-0.2,0.1-0.3
				c0.1-0.3,0.2-0.4,0.5-0.4c0.1,0,0.2,0,0.3,0.1l9.6,3.3c0.4,0.1,0.4,0.3,0.4,0.6c0,0.3,0,0.5-0.4,0.6c0,0-9.7,3.3-9.8,3.3
				C1103.6,650.2,1103.5,650.2,1103.5,650.2z"/>
		</g>
	</g>
	<g transform="matrix(0.620079,0,0,0.620079,0,0)">
		<g class="st2">
			<path d="M1136.2,653.8c-0.8,0-0.8-0.4-0.8-0.8s0-0.8,0.8-0.8h9.3c0.8,0,0.8,0.4,0.8,0.8s0,0.8-0.8,0.8H1136.2z"/>
		</g>
	</g>
	<g transform="matrix(0.620079,0,0,0.620079,0,0)">
		<g class="st2">
			<path d="M1136,650.2c-0.2,0-0.4-0.3-0.4-0.5c0-0.1-0.1-0.2-0.1-0.3c0-0.2,0.1-0.3,0.4-0.5c0,0,6.8-2.3,7.2-2.4
				c0.2-0.1,0.3-0.1,0.3-0.2c0-0.1-0.1-0.2-0.2-0.2c-0.3-0.1-7.2-2.5-7.2-2.5c-0.4-0.1-0.4-0.3-0.4-0.4c0-0.1,0-0.2,0.1-0.3
				c0.1-0.3,0.2-0.4,0.5-0.4c0.1,0,0.2,0,0.3,0.1l9.6,3.3c0.4,0.1,0.4,0.3,0.4,0.6c0,0.3,0,0.5-0.4,0.6c0,0-9.7,3.3-9.8,3.3
				C1136.1,650.2,1136,650.2,1136,650.2z"/>
		</g>
	</g>
	<g transform="matrix(0.620079,0,0,0.620079,0,0)">
		<g class="st2">
			<path d="M1168.9,653.8c-0.8,0-0.8-0.4-0.8-0.8s0-0.8,0.8-0.8h9.3c0.8,0,0.8,0.4,0.8,0.8s0,0.8-0.8,0.8H1168.9z"/>
		</g>
	</g>
	<g transform="matrix(0.620079,0,0,0.620079,0,0)">
		<g class="st2">
			<path d="M1168.7,650.2c-0.2,0-0.4-0.3-0.4-0.5c0-0.1-0.1-0.2-0.1-0.3c0-0.2,0.1-0.3,0.4-0.5c0,0,6.8-2.3,7.2-2.4
				c0.2-0.1,0.3-0.1,0.3-0.2c0-0.1-0.1-0.2-0.2-0.2c-0.3-0.1-7.2-2.5-7.2-2.5c-0.4-0.1-0.4-0.3-0.4-0.4c0-0.1,0-0.2,0.1-0.3
				c0.1-0.3,0.2-0.4,0.5-0.4c0.1,0,0.2,0,0.3,0.1l9.6,3.3c0.4,0.1,0.4,0.3,0.4,0.6c0,0.3,0,0.5-0.4,0.6c0,0-9.7,3.3-9.8,3.3
				C1168.8,650.2,1168.7,650.2,1168.7,650.2z"/>
		</g>
	</g>
	<g transform="matrix(0.620079,0,0,0.620079,0,0)">
		<line vector-effect="none" class="st1" x1="1099.2" y1="708.2" x2="1099.2" y2="699.8"/>
	</g>
	<g transform="matrix(0.620079,0,0,0.620079,0,0)">
		<line vector-effect="none" class="st1" x1="1178.5" y1="708.2" x2="1178.5" y2="699.8"/>
	</g>
	<g transform="matrix(0.620079,0,0,0.620079,0,0)">
		<line vector-effect="none" class="st1" x1="1099.2" y1="707.8" x2="1131.5" y2="707.8"/>
	</g>
	<g transform="matrix(0.620079,0,0,0.620079,0,0)">
		<line vector-effect="none" class="st1" x1="1146" y1="707.8" x2="1178.5" y2="707.8"/>
	</g>
	<g transform="matrix(0.620079,0,0,0.620079,0,0)">
	</g>
	<g transform="matrix(0.620079,0,0,0.620079,2810.2,1728.68)">
	</g>
	<g transform="matrix(0.620079,0,0,0.620079,2810.2,1728.68)">
		<g class="st2">
			<path d="M-3398.5-2076.1c0-1,0.6-1.7,1.4-1.7c0.6,0,1.1,0.4,1.1,1.1c0,0.8-0.4,1.1-0.7,1.3c-0.2,0.1-0.4,0.2-0.4,0.3
				c0,0.3,0.5,0.5,1.1,0.5c1.8,0,2.7-1.8,2.7-3.1c0-0.9-0.5-1.6-1.6-1.6h-0.3c-0.4,0-0.6-0.2-0.6-0.4c0-0.3,0.2-0.4,0.6-0.4h0.3
				c1.7,0,2.7-1.1,2.7-2.6c0-0.6-0.4-1.3-1.5-1.3c-0.6,0-1,0.2-1,0.4c0,0.1,0.1,0.2,0.4,0.4c0.1,0.2,0.3,0.4,0.3,0.7
				c0,0.8-0.6,1.4-1.3,1.4c-0.7,0-1.1-0.5-1.1-1.3c0.1-1.6,1.6-2.6,3.4-2.6c1.8,0,3.2,0.9,3.2,2.5c0,1.2-1,2.1-2.2,2.6
				c-0.2,0.1-0.4,0.2-0.4,0.3c0,0.1,0.1,0.2,0.3,0.3c0.8,0.4,1.1,1.1,1.1,1.8c0,2.3-2,3.8-4.5,3.8
				C-3397.6-2073.9-3398.5-2075-3398.5-2076.1z"/>
		</g>
	</g>
	<g transform="matrix(0.620079,0,0,0.620079,2810.2,1728.68)">
	</g>
	<g transform="matrix(0.620079,0,0,0.620079,0,0)">
	</g>
	<g transform="matrix(0.620079,0,0,0.620079,598.376,1728.68)">
	</g>
	<g transform="matrix(0.620079,0,0,0.620079,598.376,1728.68)">
		<g class="st2">
			<path d="M-723.2-2076.1c0-1,0.6-1.7,1.4-1.7c0.6,0,1.1,0.4,1.1,1.1c0,0.8-0.4,1.1-0.7,1.3c-0.2,0.1-0.4,0.2-0.4,0.3
				c0,0.3,0.5,0.5,1.1,0.5c1.8,0,2.7-1.8,2.7-3.1c0-0.9-0.5-1.6-1.6-1.6h-0.3c-0.4,0-0.6-0.2-0.6-0.4c0-0.3,0.2-0.4,0.6-0.4h0.3
				c1.7,0,2.7-1.1,2.7-2.6c0-0.6-0.4-1.3-1.5-1.3c-0.6,0-1,0.2-1,0.4c0,0.1,0.1,0.2,0.4,0.4c0.1,0.2,0.3,0.4,0.3,0.7
				c0,0.8-0.6,1.4-1.3,1.4c-0.7,0-1.1-0.5-1.1-1.3c0.1-1.6,1.6-2.6,3.4-2.6c1.8,0,3.2,0.9,3.2,2.5c0,1.2-1,2.1-2.2,2.6
				c-0.2,0.1-0.4,0.2-0.4,0.3c0,0.1,0.1,0.2,0.3,0.3c0.8,0.4,1.1,1.1,1.1,1.8c0,2.3-2,3.8-4.5,3.8
				C-722.3-2073.9-723.2-2075-723.2-2076.1z"/>
		</g>
	</g>
	<g transform="matrix(0.620079,0,0,0.620079,598.376,1728.68)">
	</g>
	<g transform="matrix(0.620079,0,0,0.620079,0,0)">
	</g>
	<g transform="matrix(0.620079,0,0,0.620079,775.718,1728.68)">
	</g>
	<g transform="matrix(0.620079,0,0,0.620079,775.718,1728.68)">
		<g class="st2">
			<path d="M-937.7-2076.1c0-1,0.6-1.7,1.4-1.7c0.6,0,1.1,0.4,1.1,1.1c0,0.8-0.4,1.1-0.7,1.3c-0.2,0.1-0.4,0.2-0.4,0.3
				c0,0.3,0.5,0.5,1.1,0.5c1.8,0,2.7-1.8,2.7-3.1c0-0.9-0.5-1.6-1.6-1.6h-0.3c-0.4,0-0.6-0.2-0.6-0.4c0-0.3,0.2-0.4,0.6-0.4h0.3
				c1.7,0,2.7-1.1,2.7-2.6c0-0.6-0.4-1.3-1.5-1.3c-0.6,0-1,0.2-1,0.4c0,0.1,0.1,0.2,0.4,0.4c0.1,0.2,0.3,0.4,0.3,0.7
				c0,0.8-0.6,1.4-1.3,1.4c-0.7,0-1.1-0.5-1.1-1.3c0.1-1.6,1.6-2.6,3.4-2.6c1.8,0,3.2,0.9,3.2,2.5c0,1.2-1,2.1-2.2,2.6
				c-0.2,0.1-0.4,0.2-0.4,0.3c0,0.1,0.1,0.2,0.3,0.3c0.8,0.4,1.1,1.1,1.1,1.8c0,2.3-2,3.8-4.5,3.8
				C-936.8-2073.9-937.7-2075-937.7-2076.1z"/>
		</g>
	</g>
	<g transform="matrix(0.620079,0,0,0.620079,775.718,1728.68)">
	</g>
	<g transform="matrix(0.620079,0,0,0.620079,0,0)">
	</g>
	<g transform="matrix(0.620079,0,0,0.620079,0,0)">
		<line vector-effect="none" class="st5" x1="58.2" y1="814.2" x2="1219.5" y2="814.2"/>
	</g>
	<g transform="matrix(0.620079,0,0,0.620079,0,0)">
		<line vector-effect="none" class="st5" x1="58.2" y1="806.2" x2="1219.5" y2="806.2"/>
	</g>
	<g transform="matrix(0.620079,0,0,0.620079,0,0)">
		<line vector-effect="none" class="st5" x1="58.2" y1="798.2" x2="1219.5" y2="798.2"/>
	</g>
	<g transform="matrix(0.620079,0,0,0.620079,0,0)">
		<line vector-effect="none" class="st5" x1="58.2" y1="790.2" x2="1219.5" y2="790.2"/>
	</g>
	<g transform="matrix(0.620079,0,0,0.620079,0,0)">
		<line vector-effect="none" class="st5" x1="58.2" y1="782.2" x2="1219.5" y2="782.2"/>
	</g>
	<g transform="matrix(0.620079,0,0,0.620079,0,0)">
		<g class="st2">
			<path d="M81.2,791.1c0,4.2-1.7,8.1-4.4,11.1c-3.4,3.6-7.5,6.1-11.7,8.2c-0.2,0.1-0.4,0.2-0.5,0.2c-0.3,0-0.4-0.2-0.4-0.4
				c0-0.3,0.2-0.4,0.5-0.6c4-2.3,7.3-5,9.2-8c2-3.1,2.7-6.9,2.7-10.2c0-5-1.5-8.3-4.9-8.3c-3.3,0-5.2,2.3-5.2,3.6
				c0,0.3,0.1,0.6,0.5,0.6s0.7-0.2,1.6-0.2c1.6,0,3.1,1.3,3.1,3.3c0,2-1.4,3.4-3.4,3.4c-2.6,0-3.9-2.2-3.9-4.8
				c0-3.1,2.5-7.1,8.1-7.1C77.8,781.9,81.2,785.6,81.2,791.1z M86.1,786.2c0,1-0.8,1.8-1.8,1.8c-1,0-1.8-0.8-1.8-1.8
				c0-1,0.8-1.8,1.8-1.8C85.3,784.5,86.1,785.3,86.1,786.2z M86.1,794.2c0,1-0.7,1.7-1.7,1.7c-1,0-1.7-0.7-1.7-1.7
				c0-1,0.7-1.7,1.7-1.7C85.3,792.5,86.1,793.3,86.1,794.2z"/>
		</g>
	</g>
	<g transform="matrix(0.620079,0,0,0.620079,0,0)">
		<g class="st2">
			<path d="M92.2,793.1c0-0.6,0.5-0.9,1-0.9c0.3,0,0.6,0.2,0.6,0.5c0,0.6-0.2,8.3-0.2,9c0,0.2,0.1,0.4,0.4,0.5c0.1,0,0.1,0,0.2,0
				c0.3,0,0.5-0.3,0.7-0.4c0.4-0.2,0.7-0.4,1.1-0.4c0.2-0.1,0.4-0.1,0.7-0.1c1.5,0.1,2.9,1.2,2.9,3.1c0,1.5-1,3.4-3.8,5.4
				c-0.8,0.5-1.6,1.4-2.5,2c0,0-0.1,0.1-0.2,0.1s-0.2,0-0.3-0.2C92.3,811.4,92.2,793.1,92.2,793.1z M94.1,809.3c0.1,0,0.2,0,0.3-0.1
				c1-0.6,1.9-1.6,2.3-2.4c0.4-0.7,0.5-1.3,0.5-1.9c0-0.6-0.2-1.2-0.5-1.5c-0.2-0.2-0.5-0.4-0.8-0.4c-0.3,0-0.5,0.1-0.8,0.2
				c-0.4,0.3-1.3,1-1.4,1.3c0,0.1-0.1,0.5-0.1,1c0,1.3,0.1,3.2,0.1,3.2C93.7,809,93.8,809.3,94.1,809.3z"/>
		</g>
	</g>
	<g transform="matrix(0.620079,0,0,0.620079,0,0)">
		<g class="st2">
			<path d="M132.7,770.2c-0.2,0-0.4-0.3-0.4-0.5c0-0.1-0.1-0.2-0.1-0.3c0-0.2,0.1-0.3,0.4-0.5c0,0,6.8-2.3,7.2-2.4
				c0.2-0.1,0.3-0.1,0.3-0.2s-0.1-0.2-0.2-0.2c-0.3-0.1-7.2-2.5-7.2-2.5c-0.4-0.1-0.4-0.3-0.4-0.4c0-0.1,0-0.2,0.1-0.3
				c0.1-0.3,0.2-0.4,0.5-0.4c0.1,0,0.2,0,0.3,0.1l9.6,3.3c0.4,0.1,0.4,0.3,0.4,0.6c0,0.3,0,0.5-0.4,0.6c0,0-9.7,3.3-9.8,3.3
				C132.8,770.2,132.7,770.2,132.7,770.2z"/>
		</g>
	</g>
	<g transform="matrix(0.620079,0,0,0.620079,0,0)">
		<g class="st2">
			<path d="M211.4,770.2c-0.8,0-0.8-0.4-0.8-0.8s0-0.8,0.8-0.8h9.3c0.8,0,0.8,0.4,0.8,0.8s0,0.8-0.8,0.8H211.4z"/>
		</g>
	</g>
	<g transform="matrix(0.620079,0,0,0.620079,0,0)">
		<g class="st2">
			<path d="M211.2,766.7c-0.2,0-0.4-0.3-0.4-0.5c0-0.1-0.1-0.2-0.1-0.3c0-0.2,0.1-0.3,0.4-0.5c0,0,6.8-2.3,7.2-2.4
				c0.2-0.1,0.3-0.1,0.3-0.2c0-0.1-0.1-0.2-0.2-0.2c-0.3-0.1-7.2-2.5-7.2-2.5c-0.4-0.1-0.4-0.3-0.4-0.4c0-0.1,0-0.2,0.1-0.3
				c0.1-0.3,0.2-0.4,0.5-0.4c0.1,0,0.2,0,0.3,0.1l9.6,3.3c0.4,0.1,0.4,0.3,0.4,0.6c0,0.3,0,0.5-0.4,0.6c0,0-9.7,3.3-9.8,3.3
				C211.3,766.7,211.2,766.7,211.2,766.7z"/>
		</g>
	</g>
	<g transform="matrix(0.620079,0,0,0.620079,0,0)">
		<g class="st2">
			<path d="M248.7,770.2c-0.8,0-0.8-0.4-0.8-0.8s0-0.8,0.8-0.8h9.3c0.8,0,0.8,0.4,0.8,0.8s0,0.8-0.8,0.8H248.7z"/>
		</g>
	</g>
	<g transform="matrix(0.620079,0,0,0.620079,0,0)">
		<g class="st2">
			<path d="M248.5,766.7c-0.2,0-0.4-0.3-0.4-0.5c0-0.1-0.1-0.2-0.1-0.3c0-0.2,0.1-0.3,0.4-0.5c0,0,6.8-2.3,7.2-2.4
				c0.2-0.1,0.3-0.1,0.3-0.2c0-0.1-0.1-0.2-0.2-0.2c-0.3-0.1-7.2-2.5-7.2-2.5c-0.4-0.1-0.4-0.3-0.4-0.4c0-0.1,0-0.2,0.1-0.3
				c0.1-0.3,0.2-0.4,0.5-0.4c0.1,0,0.2,0,0.3,0.1l9.6,3.3c0.4,0.1,0.4,0.3,0.4,0.6c0,0.3,0,0.5-0.4,0.6c0,0-9.7,3.3-9.8,3.3
				C248.6,766.7,248.5,766.7,248.5,766.7z"/>
		</g>
	</g>
	<g transform="matrix(0.620079,0,0,0.620079,0,0)">
		<g class="st2">
			<path d="M285.9,770.2c-0.8,0-0.8-0.4-0.8-0.8s0-0.8,0.8-0.8h9.3c0.8,0,0.8,0.4,0.8,0.8s0,0.8-0.8,0.8H285.9z"/>
		</g>
	</g>
	<g transform="matrix(0.620079,0,0,0.620079,0,0)">
		<g class="st2">
			<path d="M285.7,766.7c-0.2,0-0.4-0.3-0.4-0.5c0-0.1-0.1-0.2-0.1-0.3c0-0.2,0.1-0.3,0.4-0.5c0,0,6.8-2.3,7.2-2.4
				c0.2-0.1,0.3-0.1,0.3-0.2c0-0.1-0.1-0.2-0.2-0.2c-0.3-0.1-7.2-2.5-7.2-2.5c-0.4-0.1-0.4-0.3-0.4-0.4c0-0.1,0-0.2,0.1-0.3
				c0.1-0.3,0.2-0.4,0.5-0.4c0.1,0,0.2,0,0.3,0.1l9.6,3.3c0.4,0.1,0.4,0.3,0.4,0.6c0,0.3,0,0.5-0.4,0.6c0,0-9.7,3.3-9.8,3.3
				C285.8,766.7,285.7,766.7,285.7,766.7z"/>
		</g>
	</g>
	<g transform="matrix(0.620079,0,0,0.620079,0,0)">
		<line vector-effect="none" class="st1" x1="207" y1="824.8" x2="207" y2="816.2"/>
	</g>
	<g transform="matrix(0.620079,0,0,0.620079,0,0)">
		<line vector-effect="none" class="st1" x1="295.5" y1="824.8" x2="295.5" y2="816.2"/>
	</g>
	<g transform="matrix(0.620079,0,0,0.620079,0,0)">
		<line vector-effect="none" class="st1" x1="207" y1="824.2" x2="244.2" y2="824.2"/>
	</g>
	<g transform="matrix(0.620079,0,0,0.620079,0,0)">
		<line vector-effect="none" class="st1" x1="258.5" y1="824.2" x2="295.5" y2="824.2"/>
	</g>
	<g transform="matrix(0.620079,0,0,0.620079,0,0)">
	</g>
	<g transform="matrix(0.620079,0,0,0.620079,608.917,2017.64)">
	</g>
	<g transform="matrix(0.620079,0,0,0.620079,608.917,2017.64)">
		<g class="st2">
			<path d="M-736-2425.6c0-1,0.6-1.7,1.4-1.7c0.6,0,1.1,0.4,1.1,1.1c0,0.8-0.4,1.1-0.7,1.3c-0.2,0.1-0.4,0.2-0.4,0.3
				c0,0.3,0.5,0.5,1.1,0.5c1.8,0,2.7-1.8,2.7-3.1c0-0.9-0.5-1.6-1.6-1.6h-0.3c-0.4,0-0.6-0.2-0.6-0.4c0-0.3,0.2-0.4,0.6-0.4h0.3
				c1.7,0,2.7-1.1,2.7-2.6c0-0.6-0.4-1.3-1.5-1.3c-0.6,0-1,0.2-1,0.4c0,0.1,0.1,0.2,0.4,0.4c0.1,0.2,0.3,0.4,0.3,0.7
				c0,0.8-0.6,1.4-1.3,1.4c-0.7,0-1.1-0.5-1.1-1.3c0.1-1.6,1.6-2.6,3.4-2.6c1.8,0,3.2,0.9,3.2,2.5c0,1.2-1,2.1-2.2,2.6
				c-0.2,0.1-0.4,0.2-0.4,0.3c0,0.1,0.1,0.2,0.3,0.3c0.8,0.4,1.1,1.1,1.1,1.8c0,2.3-2,3.8-4.5,3.8
				C-735-2423.4-736-2424.5-736-2425.6z"/>
		</g>
	</g>
	<g transform="matrix(0.620079,0,0,0.620079,608.917,2017.64)">
	</g>
	<g transform="matrix(0.620079,0,0,0.620079,0,0)">
	</g>
	<g transform="matrix(0.620079,0,0,0.620079,0,0)">
		<g class="st2">
			<path d="M364.7,770.2c-0.2,0-0.4-0.3-0.4-0.5c0-0.1-0.1-0.2-0.1-0.3c0-0.2,0.1-0.3,0.4-0.5c0,0,6.8-2.3,7.2-2.4
				c0.2-0.1,0.3-0.1,0.3-0.2s-0.1-0.2-0.2-0.2c-0.3-0.1-7.2-2.5-7.2-2.5c-0.4-0.1-0.4-0.3-0.4-0.4c0-0.1,0-0.2,0.1-0.3
				c0.1-0.3,0.2-0.4,0.5-0.4c0.1,0,0.2,0,0.3,0.1l9.6,3.3c0.4,0.1,0.4,0.3,0.4,0.6c0,0.3,0,0.5-0.4,0.6c0,0-9.7,3.3-9.8,3.3
				C364.8,770.2,364.7,770.2,364.7,770.2z"/>
		</g>
	</g>
	<g transform="matrix(0.620079,0,0,0.620079,0,0)">
		<g class="st2">
			<path d="M443.4,770.2c-0.8,0-0.8-0.4-0.8-0.8s0-0.8,0.8-0.8h9.3c0.8,0,0.8,0.4,0.8,0.8s0,0.8-0.8,0.8H443.4z"/>
		</g>
	</g>
	<g transform="matrix(0.620079,0,0,0.620079,0,0)">
		<g class="st2">
			<path d="M443.2,766.7c-0.2,0-0.4-0.3-0.4-0.5c0-0.1-0.1-0.2-0.1-0.3c0-0.2,0.1-0.3,0.4-0.5c0,0,6.8-2.3,7.2-2.4
				c0.2-0.1,0.3-0.1,0.3-0.2c0-0.1-0.1-0.2-0.2-0.2c-0.3-0.1-7.2-2.5-7.2-2.5c-0.4-0.1-0.4-0.3-0.4-0.4c0-0.1,0-0.2,0.1-0.3
				c0.1-0.3,0.2-0.4,0.5-0.4c0.1,0,0.2,0,0.3,0.1l9.6,3.3c0.4,0.1,0.4,0.3,0.4,0.6c0,0.3,0,0.5-0.4,0.6c0,0-9.7,3.3-9.8,3.3
				C443.3,766.7,443.2,766.7,443.2,766.7z"/>
		</g>
	</g>
	<g transform="matrix(0.620079,0,0,0.620079,0,0)">
		<g class="st2">
			<path d="M480.7,770.2c-0.8,0-0.8-0.4-0.8-0.8s0-0.8,0.8-0.8h9.3c0.8,0,0.8,0.4,0.8,0.8s0,0.8-0.8,0.8H480.7z"/>
		</g>
	</g>
	<g transform="matrix(0.620079,0,0,0.620079,0,0)">
		<g class="st2">
			<path d="M480.5,766.7c-0.2,0-0.4-0.3-0.4-0.5c0-0.1-0.1-0.2-0.1-0.3c0-0.2,0.1-0.3,0.4-0.5c0,0,6.8-2.3,7.2-2.4
				c0.2-0.1,0.3-0.1,0.3-0.2c0-0.1-0.1-0.2-0.2-0.2c-0.3-0.1-7.2-2.5-7.2-2.5c-0.4-0.1-0.4-0.3-0.4-0.4c0-0.1,0-0.2,0.1-0.3
				c0.1-0.3,0.2-0.4,0.5-0.4c0.1,0,0.2,0,0.3,0.1l9.6,3.3c0.4,0.1,0.4,0.3,0.4,0.6c0,0.3,0,0.5-0.4,0.6c0,0-9.7,3.3-9.8,3.3
				C480.6,766.7,480.5,766.7,480.5,766.7z"/>
		</g>
	</g>
	<g transform="matrix(0.620079,0,0,0.620079,0,0)">
		<g class="st2">
			<path d="M517.9,770.2c-0.8,0-0.8-0.4-0.8-0.8s0-0.8,0.8-0.8h9.3c0.8,0,0.8,0.4,0.8,0.8s0,0.8-0.8,0.8H517.9z"/>
		</g>
	</g>
	<g transform="matrix(0.620079,0,0,0.620079,0,0)">
		<g class="st2">
			<path d="M517.7,766.7c-0.2,0-0.4-0.3-0.4-0.5c0-0.1-0.1-0.2-0.1-0.3c0-0.2,0.1-0.3,0.4-0.5c0,0,6.8-2.3,7.2-2.4
				c0.2-0.1,0.3-0.1,0.3-0.2c0-0.1-0.1-0.2-0.2-0.2c-0.3-0.1-7.2-2.5-7.2-2.5c-0.4-0.1-0.4-0.3-0.4-0.4c0-0.1,0-0.2,0.1-0.3
				c0.1-0.3,0.2-0.4,0.5-0.4c0.1,0,0.2,0,0.3,0.1l9.6,3.3c0.4,0.1,0.4,0.3,0.4,0.6c0,0.3,0,0.5-0.4,0.6c0,0-9.7,3.3-9.8,3.3
				C517.8,766.7,517.7,766.7,517.7,766.7z"/>
		</g>
	</g>
	<g transform="matrix(0.620079,0,0,0.620079,0,0)">
		<line vector-effect="none" class="st1" x1="439" y1="824.8" x2="439" y2="816.2"/>
	</g>
	<g transform="matrix(0.620079,0,0,0.620079,0,0)">
		<line vector-effect="none" class="st1" x1="527.5" y1="824.8" x2="527.5" y2="816.2"/>
	</g>
	<g transform="matrix(0.620079,0,0,0.620079,0,0)">
		<line vector-effect="none" class="st1" x1="439" y1="824.2" x2="476.2" y2="824.2"/>
	</g>
	<g transform="matrix(0.620079,0,0,0.620079,0,0)">
		<line vector-effect="none" class="st1" x1="490.5" y1="824.2" x2="527.5" y2="824.2"/>
	</g>
	<g transform="matrix(0.620079,0,0,0.620079,0,0)">
	</g>
	<g transform="matrix(0.620079,0,0,0.620079,1184.35,2017.64)">
	</g>
	<g transform="matrix(0.620079,0,0,0.620079,1184.35,2017.64)">
		<g class="st2">
			<path d="M-1432-2425.6c0-1,0.6-1.7,1.4-1.7c0.6,0,1.1,0.4,1.1,1.1c0,0.8-0.4,1.1-0.7,1.3c-0.2,0.1-0.4,0.2-0.4,0.3
				c0,0.3,0.5,0.5,1.1,0.5c1.8,0,2.7-1.8,2.7-3.1c0-0.9-0.5-1.6-1.6-1.6h-0.3c-0.4,0-0.6-0.2-0.6-0.4c0-0.3,0.2-0.4,0.6-0.4h0.3
				c1.7,0,2.7-1.1,2.7-2.6c0-0.6-0.4-1.3-1.5-1.3c-0.6,0-1,0.2-1,0.4c0,0.1,0.1,0.2,0.4,0.4c0.1,0.2,0.3,0.4,0.3,0.7
				c0,0.8-0.6,1.4-1.3,1.4c-0.7,0-1.1-0.5-1.1-1.3c0.1-1.6,1.6-2.6,3.4-2.6c1.8,0,3.2,0.9,3.2,2.5c0,1.2-1,2.1-2.2,2.6
				c-0.2,0.1-0.4,0.2-0.4,0.3c0,0.1,0.1,0.2,0.3,0.3c0.8,0.4,1.1,1.1,1.1,1.8c0,2.3-2,3.8-4.5,3.8
				C-1431-2423.4-1432-2424.5-1432-2425.6z"/>
		</g>
	</g>
	<g transform="matrix(0.620079,0,0,0.620079,1184.35,2017.64)">
	</g>
	<g transform="matrix(0.620079,0,0,0.620079,0,0)">
	</g>
	<g transform="matrix(0.620079,0,0,0.620079,0,0)">
		<g class="st2">
			<path d="M597,770.2c-0.2,0-0.4-0.3-0.4-0.5c0-0.1-0.1-0.2-0.1-0.3c0-0.2,0.1-0.3,0.4-0.5c0,0,6.8-2.3,7.2-2.4
				c0.2-0.1,0.3-0.1,0.3-0.2s-0.1-0.2-0.2-0.2c-0.3-0.1-7.2-2.5-7.2-2.5c-0.4-0.1-0.4-0.3-0.4-0.4c0-0.1,0-0.2,0.1-0.3
				c0.1-0.3,0.2-0.4,0.5-0.4c0.1,0,0.2,0,0.3,0.1l9.6,3.3c0.4,0.1,0.4,0.3,0.4,0.6c0,0.3,0,0.5-0.4,0.6c0,0-9.7,3.3-9.8,3.3
				C597.1,770.2,597,770.2,597,770.2z"/>
		</g>
	</g>
	<g transform="matrix(0.620079,0,0,0.620079,0,0)">
		<g class="st2">
			<path d="M675.7,770.2c-0.8,0-0.8-0.4-0.8-0.8s0-0.8,0.8-0.8h9.3c0.8,0,0.8,0.4,0.8,0.8s0,0.8-0.8,0.8H675.7z"/>
		</g>
	</g>
	<g transform="matrix(0.620079,0,0,0.620079,0,0)">
		<g class="st2">
			<path d="M675.5,766.7c-0.2,0-0.4-0.3-0.4-0.5c0-0.1-0.1-0.2-0.1-0.3c0-0.2,0.1-0.3,0.4-0.5c0,0,6.8-2.3,7.2-2.4
				c0.2-0.1,0.3-0.1,0.3-0.2c0-0.1-0.1-0.2-0.2-0.2c-0.3-0.1-7.2-2.5-7.2-2.5c-0.4-0.1-0.4-0.3-0.4-0.4c0-0.1,0-0.2,0.1-0.3
				c0.1-0.3,0.2-0.4,0.5-0.4c0.1,0,0.2,0,0.3,0.1l9.6,3.3c0.4,0.1,0.4,0.3,0.4,0.6c0,0.3,0,0.5-0.4,0.6c0,0-9.7,3.3-9.8,3.3
				C675.6,766.7,675.5,766.7,675.5,766.7z"/>
		</g>
	</g>
	<g transform="matrix(0.620079,0,0,0.620079,0,0)">
		<g class="st2">
			<path d="M712.9,770.2c-0.8,0-0.8-0.4-0.8-0.8s0-0.8,0.8-0.8h9.3c0.8,0,0.8,0.4,0.8,0.8s0,0.8-0.8,0.8H712.9z"/>
		</g>
	</g>
	<g transform="matrix(0.620079,0,0,0.620079,0,0)">
		<g class="st2">
			<path d="M712.7,766.7c-0.2,0-0.4-0.3-0.4-0.5c0-0.1-0.1-0.2-0.1-0.3c0-0.2,0.1-0.3,0.4-0.5c0,0,6.8-2.3,7.2-2.4
				c0.2-0.1,0.3-0.1,0.3-0.2c0-0.1-0.1-0.2-0.2-0.2c-0.3-0.1-7.2-2.5-7.2-2.5c-0.4-0.1-0.4-0.3-0.4-0.4c0-0.1,0-0.2,0.1-0.3
				c0.1-0.3,0.2-0.4,0.5-0.4c0.1,0,0.2,0,0.3,0.1l9.6,3.3c0.4,0.1,0.4,0.3,0.4,0.6c0,0.3,0,0.5-0.4,0.6c0,0-9.7,3.3-9.8,3.3
				C712.8,766.7,712.7,766.7,712.7,766.7z"/>
		</g>
	</g>
	<g transform="matrix(0.620079,0,0,0.620079,0,0)">
		<g class="st2">
			<path d="M750.2,770.2c-0.8,0-0.8-0.4-0.8-0.8s0-0.8,0.8-0.8h9.3c0.8,0,0.8,0.4,0.8,0.8s0,0.8-0.8,0.8H750.2z"/>
		</g>
	</g>
	<g transform="matrix(0.620079,0,0,0.620079,0,0)">
		<g class="st2">
			<path d="M750,766.7c-0.2,0-0.4-0.3-0.4-0.5c0-0.1-0.1-0.2-0.1-0.3c0-0.2,0.1-0.3,0.4-0.5c0,0,6.8-2.3,7.2-2.4
				c0.2-0.1,0.3-0.1,0.3-0.2c0-0.1-0.1-0.2-0.2-0.2c-0.3-0.1-7.2-2.5-7.2-2.5c-0.4-0.1-0.4-0.3-0.4-0.4c0-0.1,0-0.2,0.1-0.3
				c0.1-0.3,0.2-0.4,0.5-0.4c0.1,0,0.2,0,0.3,0.1l9.6,3.3c0.4,0.1,0.4,0.3,0.4,0.6c0,0.3,0,0.5-0.4,0.6c0,0-9.7,3.3-9.8,3.3
				C750.1,766.7,750,766.7,750,766.7z"/>
		</g>
	</g>
	<g transform="matrix(0.620079,0,0,0.620079,0,0)">
		<line vector-effect="none" class="st1" x1="671.2" y1="824.8" x2="671.2" y2="816.2"/>
	</g>
	<g transform="matrix(0.620079,0,0,0.620079,0,0)">
		<line vector-effect="none" class="st1" x1="759.7" y1="824.8" x2="759.7" y2="816.2"/>
	</g>
	<g transform="matrix(0.620079,0,0,0.620079,0,0)">
		<line vector-effect="none" class="st1" x1="671.2" y1="824.2" x2="708.5" y2="824.2"/>
	</g>
	<g transform="matrix(0.620079,0,0,0.620079,0,0)">
		<line vector-effect="none" class="st1" x1="722.7" y1="824.2" x2="759.7" y2="824.2"/>
	</g>
	<g transform="matrix(0.620079,0,0,0.620079,0,0)">
	</g>
	<g transform="matrix(0.620079,0,0,0.620079,1760.4,2017.64)">
	</g>
	<g transform="matrix(0.620079,0,0,0.620079,1760.4,2017.64)">
		<g class="st2">
			<path d="M-2128.7-2425.6c0-1,0.6-1.7,1.4-1.7c0.6,0,1.1,0.4,1.1,1.1c0,0.8-0.4,1.1-0.7,1.3c-0.2,0.1-0.4,0.2-0.4,0.3
				c0,0.3,0.5,0.5,1.1,0.5c1.8,0,2.7-1.8,2.7-3.1c0-0.9-0.5-1.6-1.6-1.6h-0.3c-0.4,0-0.6-0.2-0.6-0.4c0-0.3,0.2-0.4,0.6-0.4h0.3
				c1.7,0,2.7-1.1,2.7-2.6c0-0.6-0.4-1.3-1.5-1.3c-0.6,0-1,0.2-1,0.4c0,0.1,0.1,0.2,0.4,0.4c0.1,0.2,0.3,0.4,0.3,0.7
				c0,0.8-0.6,1.4-1.3,1.4c-0.7,0-1.1-0.5-1.1-1.3c0.1-1.6,1.6-2.6,3.4-2.6c1.8,0,3.2,0.9,3.2,2.5c0,1.2-1,2.1-2.2,2.6
				c-0.2,0.1-0.4,0.2-0.4,0.3c0,0.1,0.1,0.2,0.3,0.3c0.8,0.4,1.1,1.1,1.1,1.8c0,2.3-2,3.8-4.5,3.8
				C-2127.8-2423.4-2128.7-2424.5-2128.7-2425.6z"/>
		</g>
	</g>
	<g transform="matrix(0.620079,0,0,0.620079,1760.4,2017.64)">
	</g>
	<g transform="matrix(0.620079,0,0,0.620079,0,0)">
	</g>
	<g transform="matrix(0.620079,0,0,0.620079,0,0)">
		<g class="st2">
			<path d="M829,770.2c-0.2,0-0.4-0.3-0.4-0.5c0-0.1-0.1-0.2-0.1-0.3c0-0.2,0.1-0.3,0.4-0.5c0,0,6.8-2.3,7.2-2.4
				c0.2-0.1,0.3-0.1,0.3-0.2s-0.1-0.2-0.2-0.2c-0.3-0.1-7.2-2.5-7.2-2.5c-0.4-0.1-0.4-0.3-0.4-0.4c0-0.1,0-0.2,0.1-0.3
				c0.1-0.3,0.2-0.4,0.5-0.4c0.1,0,0.2,0,0.3,0.1l9.6,3.3c0.4,0.1,0.4,0.3,0.4,0.6c0,0.3,0,0.5-0.4,0.6c0,0-9.7,3.3-9.8,3.3
				C829.1,770.2,829,770.2,829,770.2z"/>
		</g>
	</g>
	<g transform="matrix(0.620079,0,0,0.620079,0,0)">
		<g class="st2">
			<path d="M907.7,770.2c-0.8,0-0.8-0.4-0.8-0.8s0-0.8,0.8-0.8h9.3c0.8,0,0.8,0.4,0.8,0.8s0,0.8-0.8,0.8H907.7z"/>
		</g>
	</g>
	<g transform="matrix(0.620079,0,0,0.620079,0,0)">
		<g class="st2">
			<path d="M907.5,766.7c-0.2,0-0.4-0.3-0.4-0.5c0-0.1-0.1-0.2-0.1-0.3c0-0.2,0.1-0.3,0.4-0.5c0,0,6.8-2.3,7.2-2.4
				c0.2-0.1,0.3-0.1,0.3-0.2c0-0.1-0.1-0.2-0.2-0.2c-0.3-0.1-7.2-2.5-7.2-2.5c-0.4-0.1-0.4-0.3-0.4-0.4c0-0.1,0-0.2,0.1-0.3
				c0.1-0.3,0.2-0.4,0.5-0.4c0.1,0,0.2,0,0.3,0.1l9.6,3.3c0.4,0.1,0.4,0.3,0.4,0.6c0,0.3,0,0.5-0.4,0.6c0,0-9.7,3.3-9.8,3.3
				C907.6,766.7,907.5,766.7,907.5,766.7z"/>
		</g>
	</g>
	<g transform="matrix(0.620079,0,0,0.620079,0,0)">
		<g class="st2">
			<path d="M944.9,770.2c-0.8,0-0.8-0.4-0.8-0.8s0-0.8,0.8-0.8h9.3c0.8,0,0.8,0.4,0.8,0.8s0,0.8-0.8,0.8H944.9z"/>
		</g>
	</g>
	<g transform="matrix(0.620079,0,0,0.620079,0,0)">
		<g class="st2">
			<path d="M944.7,766.7c-0.2,0-0.4-0.3-0.4-0.5c0-0.1-0.1-0.2-0.1-0.3c0-0.2,0.1-0.3,0.4-0.5c0,0,6.8-2.3,7.2-2.4
				c0.2-0.1,0.3-0.1,0.3-0.2c0-0.1-0.1-0.2-0.2-0.2c-0.3-0.1-7.2-2.5-7.2-2.5c-0.4-0.1-0.4-0.3-0.4-0.4c0-0.1,0-0.2,0.1-0.3
				c0.1-0.3,0.2-0.4,0.5-0.4c0.1,0,0.2,0,0.3,0.1l9.6,3.3c0.4,0.1,0.4,0.3,0.4,0.6c0,0.3,0,0.5-0.4,0.6c0,0-9.7,3.3-9.8,3.3
				C944.8,766.7,944.7,766.7,944.7,766.7z"/>
		</g>
	</g>
	<g transform="matrix(0.620079,0,0,0.620079,0,0)">
		<g class="st2">
			<path d="M982.2,770.2c-0.8,0-0.8-0.4-0.8-0.8s0-0.8,0.8-0.8h9.3c0.8,0,0.8,0.4,0.8,0.8s0,0.8-0.8,0.8H982.2z"/>
		</g>
	</g>
	<g transform="matrix(0.620079,0,0,0.620079,0,0)">
		<g class="st2">
			<path d="M982,766.7c-0.2,0-0.4-0.3-0.4-0.5c0-0.1-0.1-0.2-0.1-0.3c0-0.2,0.1-0.3,0.4-0.5c0,0,6.8-2.3,7.2-2.4
				c0.2-0.1,0.3-0.1,0.3-0.2c0-0.1-0.1-0.2-0.2-0.2c-0.3-0.1-7.2-2.5-7.2-2.5c-0.4-0.1-0.4-0.3-0.4-0.4c0-0.1,0-0.2,0.1-0.3
				c0.1-0.3,0.2-0.4,0.5-0.4c0.1,0,0.2,0,0.3,0.1l9.6,3.3c0.4,0.1,0.4,0.3,0.4,0.6c0,0.3,0,0.5-0.4,0.6c0,0-9.7,3.3-9.8,3.3
				C982.1,766.7,982,766.7,982,766.7z"/>
		</g>
	</g>
	<g transform="matrix(0.620079,0,0,0.620079,0,0)">
		<line vector-effect="none" class="st1" x1="903.2" y1="824.8" x2="903.2" y2="816.2"/>
	</g>
	<g transform="matrix(0.620079,0,0,0.620079,0,0)">
		<line vector-effect="none" class="st1" x1="991.7" y1="824.8" x2="991.7" y2="816.2"/>
	</g>
	<g transform="matrix(0.620079,0,0,0.620079,0,0)">
		<line vector-effect="none" class="st1" x1="903.2" y1="824.2" x2="940.5" y2="824.2"/>
	</g>
	<g transform="matrix(0.620079,0,0,0.620079,0,0)">
		<line vector-effect="none" class="st1" x1="954.7" y1="824.2" x2="991.7" y2="824.2"/>
	</g>
	<g transform="matrix(0.620079,0,0,0.620079,0,0)">
	</g>
	<g transform="matrix(0.620079,0,0,0.620079,2335.84,2017.64)">
	</g>
	<g transform="matrix(0.620079,0,0,0.620079,2335.84,2017.64)">
		<g class="st2">
			<path d="M-2824.7-2425.6c0-1,0.6-1.7,1.4-1.7c0.6,0,1.1,0.4,1.1,1.1c0,0.8-0.4,1.1-0.7,1.3c-0.2,0.1-0.4,0.2-0.4,0.3
				c0,0.3,0.5,0.5,1.1,0.5c1.8,0,2.7-1.8,2.7-3.1c0-0.9-0.5-1.6-1.6-1.6h-0.3c-0.4,0-0.6-0.2-0.6-0.4c0-0.3,0.2-0.4,0.6-0.4h0.3
				c1.7,0,2.7-1.1,2.7-2.6c0-0.6-0.4-1.3-1.5-1.3c-0.6,0-1,0.2-1,0.4c0,0.1,0.1,0.2,0.4,0.4c0.1,0.2,0.3,0.4,0.3,0.7
				c0,0.8-0.6,1.4-1.3,1.4c-0.7,0-1.1-0.5-1.1-1.3c0.1-1.6,1.6-2.6,3.4-2.6c1.8,0,3.2,0.9,3.2,2.5c0,1.2-1,2.1-2.2,2.6
				c-0.2,0.1-0.4,0.2-0.4,0.3c0,0.1,0.1,0.2,0.3,0.3c0.8,0.4,1.1,1.1,1.1,1.8c0,2.3-2,3.8-4.5,3.8
				C-2823.8-2423.4-2824.7-2424.5-2824.7-2425.6z"/>
		</g>
	</g>
	<g transform="matrix(0.620079,0,0,0.620079,2335.84,2017.64)">
	</g>
	<g transform="matrix(0.620079,0,0,0.620079,0,0)">
	</g>
	<g transform="matrix(0.620079,0,0,0.620079,0,0)">
		<g class="st2">
			<path d="M1050.2,770.2c-0.2,0-0.4-0.3-0.4-0.5c0-0.1-0.1-0.2-0.1-0.3c0-0.2,0.1-0.3,0.4-0.5c0,0,6.8-2.3,7.2-2.4
				c0.2-0.1,0.3-0.1,0.3-0.2s-0.1-0.2-0.2-0.2c-0.3-0.1-7.2-2.5-7.2-2.5c-0.4-0.1-0.4-0.3-0.4-0.4c0-0.1,0-0.2,0.1-0.3
				c0.1-0.3,0.2-0.4,0.5-0.4c0.1,0,0.2,0,0.3,0.1l9.6,3.3c0.4,0.1,0.4,0.3,0.4,0.6c0,0.3,0,0.5-0.4,0.6c0,0-9.7,3.3-9.8,3.3
				C1050.3,770.2,1050.2,770.2,1050.2,770.2z"/>
		</g>
	</g>
	<g transform="matrix(0.620079,0,0,0.620079,0,0)">
		<line vector-effect="none" class="st5" x1="156.5" y1="663" x2="156.5" y2="689.8"/>
	</g>
	<g transform="matrix(0.620079,0,0,0.620079,0,0)">
		<g class="st2">
			<path d="M156,663.3c0-1.9,1.7-6.2,7.3-6.2c2.1,0,3.6,1.2,3.6,3.1c0,1.2-1.2,6.2-7.3,6.2C157.5,666.4,156,665.3,156,663.3z
				 M165.7,660.1c0-0.3-0.1-0.5-0.2-0.7c-0.3-0.4-0.6-0.8-1.3-0.8c-0.8,0-1.9,0.4-3.7,1.4c-2.6,1.5-3.4,2.5-3.4,3.3
				c0,0.3,0.1,0.5,0.2,0.7c0.3,0.4,0.7,0.8,1.5,0.8c0.8,0,2-0.4,3.6-1.5C164.9,661.7,165.7,660.9,165.7,660.1z"/>
		</g>
	</g>
	<g transform="matrix(0.620079,0,0,0.620079,0,0)">
		<line vector-effect="none" class="st5" x1="225.2" y1="663" x2="225.2" y2="689.5"/>
	</g>
	<g transform="matrix(0.620079,0,0,0.620079,0,0)">
		<g class="st2">
			<path d="M224.7,663.3c0-3.1,3.2-6,7.1-6c2.1,0,3.5,1.2,3.5,3c0,3-3.9,6-7.1,6C226.2,666.3,224.7,665.1,224.7,663.3z"/>
		</g>
	</g>
	<g transform="matrix(0.620079,0,0,0.620079,0,0)">
		<line vector-effect="none" class="st5" x1="249.2" y1="663" x2="249.2" y2="689.5"/>
	</g>
	<g transform="matrix(0.620079,0,0,0.620079,0,0)">
		<g class="st2">
			<path d="M248.7,663.3c0-3.1,3.2-6,7.1-6c2.1,0,3.5,1.2,3.5,3c0,3-3.9,6-7.1,6C250.2,666.3,248.7,665.1,248.7,663.3z"/>
		</g>
	</g>
	<g transform="matrix(0.620079,0,0,0.620079,0,0)">
		<line vector-effect="none" class="st5" x1="273.2" y1="663" x2="273.2" y2="689.5"/>
	</g>
	<g transform="matrix(0.620079,0,0,0.620079,0,0)">
		<g class="st2">
			<path d="M272.7,663.3c0-3.1,3.2-6,7.1-6c2.1,0,3.5,1.2,3.5,3c0,3-3.9,6-7.1,6C274.2,666.3,272.7,665.1,272.7,663.3z"/>
		</g>
	</g>
	<g transform="matrix(0.620079,0,0,0.620079,0,0)">
		<line vector-effect="none" class="st5" x1="297" y1="663" x2="297" y2="689.5"/>
	</g>
	<g transform="matrix(0.620079,0,0,0.620079,0,0)">
		<g class="st2">
			<path d="M296.5,663.3c0-3.1,3.2-6,7.1-6c2.1,0,3.5,1.2,3.5,3c0,3-3.9,6-7.1,6C298,666.3,296.5,665.1,296.5,663.3z"/>
		</g>
	</g>
	<g transform="matrix(0.620079,0,0,0.620079,0,0)">
		<line vector-effect="none" class="st5" x1="321" y1="663" x2="321" y2="689.5"/>
	</g>
	<g transform="matrix(0.620079,0,0,0.620079,0,0)">
		<g class="st2">
			<path d="M320.5,663.3c0-3.1,3.2-6,7.1-6c2.1,0,3.5,1.2,3.5,3c0,3-3.9,6-7.1,6C322,666.3,320.5,665.1,320.5,663.3z"/>
		</g>
	</g>
	<g transform="matrix(0.620079,0,0,0.620079,0,0)">
		<line vector-effect="none" class="st5" x1="344.7" y1="663" x2="344.7" y2="689.5"/>
	</g>
	<g transform="matrix(0.620079,0,0,0.620079,0,0)">
		<g class="st2">
			<path d="M344.2,663.3c0-3.1,3.2-6,7.1-6c2.1,0,3.5,1.2,3.5,3c0,3-3.9,6-7.1,6C345.7,666.3,344.2,665.1,344.2,663.3z"/>
		</g>
	</g>
	<g transform="matrix(0.620079,0,0,0.620079,0,0)">
		<line vector-effect="none" class="st5" x1="410.2" y1="663" x2="410.2" y2="689.8"/>
	</g>
	<g transform="matrix(0.620079,0,0,0.620079,0,0)">
		<g class="st2">
			<path d="M409.7,663.3c0-1.9,1.7-6.2,7.3-6.2c2.1,0,3.6,1.2,3.6,3.1c0,1.2-1.2,6.2-7.3,6.2C411.3,666.4,409.7,665.3,409.7,663.3z
				 M419.5,660.1c0-0.3-0.1-0.5-0.2-0.7c-0.3-0.4-0.6-0.8-1.3-0.8c-0.8,0-1.9,0.4-3.7,1.4c-2.6,1.5-3.4,2.5-3.4,3.3
				c0,0.3,0.1,0.5,0.2,0.7c0.3,0.4,0.7,0.8,1.5,0.8c0.8,0,2-0.4,3.6-1.5C418.7,661.7,419.5,660.9,419.5,660.1z"/>
		</g>
	</g>
	<g transform="matrix(0.620079,0,0,0.620079,0,0)">
		<line vector-effect="none" class="st5" x1="479" y1="663" x2="479" y2="689.8"/>
	</g>
	<g transform="matrix(0.620079,0,0,0.620079,0,0)">
		<g class="st2">
			<path d="M478.5,663.3c0-3.1,3.2-6,7.1-6c2.1,0,3.5,1.2,3.5,3c0,3-3.9,6-7.1,6C480,666.3,478.5,665.1,478.5,663.3z"/>
		</g>
	</g>
	<g transform="matrix(0.620079,0,0,0.620079,0,0)">
		<line vector-effect="none" class="st5" x1="511.7" y1="663" x2="511.7" y2="689.8"/>
	</g>
	<g transform="matrix(0.620079,0,0,0.620079,0,0)">
		<g class="st2">
			<path d="M511.2,663.3c0-3.1,3.2-6,7.1-6c2.1,0,3.5,1.2,3.5,3c0,3-3.9,6-7.1,6C512.7,666.3,511.2,665.1,511.2,663.3z"/>
		</g>
	</g>
	<g transform="matrix(0.620079,0,0,0.620079,0,0)">
		<line vector-effect="none" class="st5" x1="544.2" y1="663" x2="544.2" y2="689.8"/>
	</g>
	<g transform="matrix(0.620079,0,0,0.620079,0,0)">
		<g class="st2">
			<path d="M543.7,663.3c0-3.1,3.2-6,7.1-6c2.1,0,3.5,1.2,3.5,3c0,3-3.9,6-7.1,6C545.2,666.3,543.7,665.1,543.7,663.3z"/>
		</g>
	</g>
	<g transform="matrix(0.620079,0,0,0.620079,0,0)">
		<line vector-effect="none" class="st5" x1="618.5" y1="663" x2="618.5" y2="689.8"/>
	</g>
	<g transform="matrix(0.620079,0,0,0.620079,0,0)">
		<g class="st2">
			<path d="M618,663.3c0-1.9,1.7-6.2,7.3-6.2c2.1,0,3.6,1.2,3.6,3.1c0,1.2-1.2,6.2-7.3,6.2C619.5,666.4,618,665.3,618,663.3z
				 M627.7,660.1c0-0.3-0.1-0.5-0.2-0.7c-0.3-0.4-0.6-0.8-1.3-0.8c-0.8,0-1.9,0.4-3.7,1.4c-2.6,1.5-3.4,2.5-3.4,3.3
				c0,0.3,0.1,0.5,0.2,0.7c0.3,0.4,0.7,0.8,1.5,0.8c0.8,0,2-0.4,3.6-1.5C626.9,661.7,627.7,660.9,627.7,660.1z"/>
		</g>
	</g>
	<g transform="matrix(0.620079,0,0,0.620079,0,0)">
		<line vector-effect="none" class="st5" x1="687.2" y1="663" x2="687.2" y2="689.8"/>
	</g>
	<g transform="matrix(0.620079,0,0,0.620079,0,0)">
		<g class="st2">
			<path d="M686.7,663.3c0-3.1,3.2-6,7.1-6c2.1,0,3.5,1.2,3.5,3c0,3-3.9,6-7.1,6C688.2,666.3,686.7,665.1,686.7,663.3z"/>
		</g>
	</g>
	<g transform="matrix(0.620079,0,0,0.620079,0,0)">
		<line vector-effect="none" class="st5" x1="719.7" y1="663" x2="719.7" y2="689.8"/>
	</g>
	<g transform="matrix(0.620079,0,0,0.620079,0,0)">
		<g class="st2">
			<path d="M719.2,663.3c0-3.1,3.2-6,7.1-6c2.1,0,3.5,1.2,3.5,3c0,3-3.9,6-7.1,6C720.7,666.3,719.2,665.1,719.2,663.3z"/>
		</g>
	</g>
	<g transform="matrix(0.620079,0,0,0.620079,0,0)">
		<line vector-effect="none" class="st5" x1="752.5" y1="663" x2="752.5" y2="689.8"/>
	</g>
	<g transform="matrix(0.620079,0,0,0.620079,0,0)">
		<g class="st2">
			<path d="M752,663.3c0-3.1,3.2-6,7.1-6c2.1,0,3.5,1.2,3.5,3c0,3-3.9,6-7.1,6C753.5,666.3,752,665.1,752,663.3z"/>
		</g>
	</g>
	<g transform="matrix(0.620079,0,0,0.620079,0,0)">
		<line vector-effect="none" class="st5" x1="826.5" y1="663" x2="826.5" y2="689.8"/>
	</g>
	<g transform="matrix(0.620079,0,0,0.620079,0,0)">
		<g class="st2">
			<path d="M826,663.3c0-1.9,1.7-6.2,7.3-6.2c2.1,0,3.6,1.2,3.6,3.1c0,1.2-1.2,6.2-7.3,6.2C827.5,666.4,826,665.3,826,663.3z
				 M835.7,660.1c0-0.3-0.1-0.5-0.2-0.7c-0.3-0.4-0.6-0.8-1.3-0.8c-0.8,0-1.9,0.4-3.7,1.4c-2.6,1.5-3.4,2.5-3.4,3.3
				c0,0.3,0.1,0.5,0.2,0.7c0.3,0.4,0.7,0.8,1.5,0.8c0.8,0,2-0.4,3.6-1.5C834.9,661.7,835.7,660.9,835.7,660.1z"/>
		</g>
	</g>
	<g transform="matrix(0.620079,0,0,0.620079,0,0)">
		<line vector-effect="none" class="st5" x1="895.2" y1="663" x2="895.2" y2="689.8"/>
	</g>
	<g transform="matrix(0.620079,0,0,0.620079,0,0)">
		<g class="st2">
			<path d="M894.7,663.3c0-3.1,3.2-6,7.1-6c2.1,0,3.5,1.2,3.5,3c0,3-3.9,6-7.1,6C896.2,666.3,894.7,665.1,894.7,663.3z"/>
		</g>
	</g>
	<g transform="matrix(0.620079,0,0,0.620079,0,0)">
		<line vector-effect="none" class="st5" x1="928" y1="663" x2="928" y2="689.8"/>
	</g>
	<g transform="matrix(0.620079,0,0,0.620079,0,0)">
		<g class="st2">
			<path d="M927.5,663.3c0-3.1,3.2-6,7.1-6c2.1,0,3.5,1.2,3.5,3c0,3-3.9,6-7.1,6C929,666.3,927.5,665.1,927.5,663.3z"/>
		</g>
	</g>
	<g transform="matrix(0.620079,0,0,0.620079,0,0)">
		<line vector-effect="none" class="st5" x1="960.5" y1="663" x2="960.5" y2="689.8"/>
	</g>
	<g transform="matrix(0.620079,0,0,0.620079,0,0)">
		<g class="st2">
			<path d="M960,663.3c0-3.1,3.2-6,7.1-6c2.1,0,3.5,1.2,3.5,3c0,3-3.9,6-7.1,6C961.5,666.3,960,665.1,960,663.3z"/>
		</g>
	</g>
	<g transform="matrix(0.620079,0,0,0.620079,0,0)">
		<line vector-effect="none" class="st5" x1="1034.7" y1="663" x2="1034.7" y2="689.8"/>
	</g>
	<g transform="matrix(0.620079,0,0,0.620079,0,0)">
		<g class="st2">
			<path d="M1034.2,663.3c0-1.9,1.7-6.2,7.3-6.2c2.1,0,3.6,1.2,3.6,3.1c0,1.2-1.2,6.2-7.3,6.2
				C1035.8,666.4,1034.2,665.3,1034.2,663.3z M1044,660.1c0-0.3-0.1-0.5-0.2-0.7c-0.3-0.4-0.6-0.8-1.3-0.8c-0.8,0-1.9,0.4-3.7,1.4
				c-2.6,1.5-3.4,2.5-3.4,3.3c0,0.3,0.1,0.5,0.2,0.7c0.3,0.4,0.7,0.8,1.5,0.8c0.8,0,2-0.4,3.6-1.5
				C1043.2,661.7,1044,660.9,1044,660.1z"/>
		</g>
	</g>
	<g transform="matrix(0.620079,0,0,0.620079,0,0)">
		<line vector-effect="none" class="st5" x1="1103.5" y1="663" x2="1103.5" y2="689.8"/>
	</g>
	<g transform="matrix(0.620079,0,0,0.620079,0,0)">
		<g class="st2">
			<path d="M1103,663.3c0-3.1,3.2-6,7.1-6c2.1,0,3.5,1.2,3.5,3c0,3-3.9,6-7.1,6C1104.5,666.3,1103,665.1,1103,663.3z"/>
		</g>
	</g>
	<g transform="matrix(0.620079,0,0,0.620079,0,0)">
		<line vector-effect="none" class="st5" x1="1136" y1="663" x2="1136" y2="689.8"/>
	</g>
	<g transform="matrix(0.620079,0,0,0.620079,0,0)">
		<g class="st2">
			<path d="M1135.5,663.3c0-3.1,3.2-6,7.1-6c2.1,0,3.5,1.2,3.5,3c0,3-3.9,6-7.1,6C1137,666.3,1135.5,665.1,1135.5,663.3z"/>
		</g>
	</g>
	<g transform="matrix(0.620079,0,0,0.620079,0,0)">
		<line vector-effect="none" class="st5" x1="1168.7" y1="663" x2="1168.7" y2="689.8"/>
	</g>
	<g transform="matrix(0.620079,0,0,0.620079,0,0)">
		<g class="st2">
			<path d="M1168.2,663.3c0-3.1,3.2-6,7.1-6c2.1,0,3.5,1.2,3.5,3c0,3-3.9,6-7.1,6C1169.7,666.3,1168.2,665.1,1168.2,663.3z"/>
		</g>
	</g>
	<g transform="matrix(0.620079,0,0,0.620079,0,0)">
		<line vector-effect="none" class="st5" x1="132.5" y1="779.5" x2="132.5" y2="806.2"/>
	</g>
	<g transform="matrix(0.620079,0,0,0.620079,0,0)">
		<g class="st2">
			<path d="M132,779.8c0-1.9,1.7-6.2,7.3-6.2c2.1,0,3.6,1.2,3.6,3.1c0,1.2-1.2,6.2-7.3,6.2C133.5,782.9,132,781.8,132,779.8z
				 M141.7,776.6c0-0.3-0.1-0.5-0.2-0.7c-0.3-0.4-0.6-0.8-1.3-0.8c-0.8,0-1.9,0.4-3.7,1.4c-2.6,1.5-3.4,2.5-3.4,3.3
				c0,0.3,0.1,0.5,0.2,0.7c0.3,0.4,0.7,0.8,1.5,0.8c0.8,0,2-0.4,3.6-1.5C140.9,778.2,141.7,777.4,141.7,776.6z"/>
		</g>
	</g>
	<g transform="matrix(0.620079,0,0,0.620079,0,0)">
		<line vector-effect="none" class="st5" x1="211.2" y1="779.5" x2="211.2" y2="806.2"/>
	</g>
	<g transform="matrix(0.620079,0,0,0.620079,0,0)">
		<g class="st2">
			<path d="M210.7,779.8c0-3.1,3.2-6,7.1-6c2.1,0,3.5,1.2,3.5,3c0,3-3.9,6-7.1,6C212.2,782.8,210.7,781.6,210.7,779.8z"/>
		</g>
	</g>
	<g transform="matrix(0.620079,0,0,0.620079,0,0)">
		<line vector-effect="none" class="st5" x1="248.5" y1="779.5" x2="248.5" y2="806.2"/>
	</g>
	<g transform="matrix(0.620079,0,0,0.620079,0,0)">
		<g class="st2">
			<path d="M248,779.8c0-3.1,3.2-6,7.1-6c2.1,0,3.5,1.2,3.5,3c0,3-3.9,6-7.1,6C249.5,782.8,248,781.6,248,779.8z"/>
		</g>
	</g>
	<g transform="matrix(0.620079,0,0,0.620079,0,0)">
		<line vector-effect="none" class="st5" x1="285.7" y1="779.5" x2="285.7" y2="806.2"/>
	</g>
	<g transform="matrix(0.620079,0,0,0.620079,0,0)">
		<g class="st2">
			<path d="M285.2,779.8c0-3.1,3.2-6,7.1-6c2.1,0,3.5,1.2,3.5,3c0,3-3.9,6-7.1,6C286.7,782.8,285.2,781.6,285.2,779.8z"/>
		</g>
	</g>
	<g transform="matrix(0.620079,0,0,0.620079,0,0)">
		<line vector-effect="none" class="st5" x1="364.5" y1="779.5" x2="364.5" y2="806.2"/>
	</g>
	<g transform="matrix(0.620079,0,0,0.620079,0,0)">
		<g class="st2">
			<path d="M364,779.8c0-1.9,1.7-6.2,7.3-6.2c2.1,0,3.6,1.2,3.6,3.1c0,1.2-1.2,6.2-7.3,6.2C365.5,782.9,364,781.8,364,779.8z
				 M373.7,776.6c0-0.3-0.1-0.5-0.2-0.7c-0.3-0.4-0.6-0.8-1.3-0.8c-0.8,0-1.9,0.4-3.7,1.4c-2.6,1.5-3.4,2.5-3.4,3.3
				c0,0.3,0.1,0.5,0.2,0.7c0.3,0.4,0.7,0.8,1.5,0.8c0.8,0,2-0.4,3.6-1.5C372.9,778.2,373.7,777.4,373.7,776.6z"/>
		</g>
	</g>
	<g transform="matrix(0.620079,0,0,0.620079,0,0)">
		<line vector-effect="none" class="st5" x1="443.2" y1="779.5" x2="443.2" y2="806.2"/>
	</g>
	<g transform="matrix(0.620079,0,0,0.620079,0,0)">
		<g class="st2">
			<path d="M442.7,779.8c0-3.1,3.2-6,7.1-6c2.1,0,3.5,1.2,3.5,3c0,3-3.9,6-7.1,6C444.2,782.8,442.7,781.6,442.7,779.8z"/>
		</g>
	</g>
	<g transform="matrix(0.620079,0,0,0.620079,0,0)">
		<line vector-effect="none" class="st5" x1="480.5" y1="779.5" x2="480.5" y2="806.2"/>
	</g>
	<g transform="matrix(0.620079,0,0,0.620079,0,0)">
		<g class="st2">
			<path d="M480,779.8c0-3.1,3.2-6,7.1-6c2.1,0,3.5,1.2,3.5,3c0,3-3.9,6-7.1,6C481.5,782.8,480,781.6,480,779.8z"/>
		</g>
	</g>
	<g transform="matrix(0.620079,0,0,0.620079,0,0)">
		<line vector-effect="none" class="st5" x1="517.7" y1="779.5" x2="517.7" y2="806.2"/>
	</g>
	<g transform="matrix(0.620079,0,0,0.620079,0,0)">
		<g class="st2">
			<path d="M517.2,779.8c0-3.1,3.2-6,7.1-6c2.1,0,3.5,1.2,3.5,3c0,3-3.9,6-7.1,6C518.7,782.8,517.2,781.6,517.2,779.8z"/>
		</g>
	</g>
	<g transform="matrix(0.620079,0,0,0.620079,0,0)">
		<line vector-effect="none" class="st5" x1="596.7" y1="779.5" x2="596.7" y2="806.2"/>
	</g>
	<g transform="matrix(0.620079,0,0,0.620079,0,0)">
		<g class="st2">
			<path d="M596.2,779.8c0-1.9,1.7-6.2,7.3-6.2c2.1,0,3.6,1.2,3.6,3.1c0,1.2-1.2,6.2-7.3,6.2C597.8,782.9,596.2,781.8,596.2,779.8z
				 M606,776.6c0-0.3-0.1-0.5-0.2-0.7c-0.3-0.4-0.6-0.8-1.3-0.8c-0.8,0-1.9,0.4-3.7,1.4c-2.6,1.5-3.4,2.5-3.4,3.3
				c0,0.3,0.1,0.5,0.2,0.7c0.3,0.4,0.7,0.8,1.5,0.8c0.8,0,2-0.4,3.6-1.5C605.2,778.2,606,777.4,606,776.6z"/>
		</g>
	</g>
	<g transform="matrix(0.620079,0,0,0.620079,0,0)">
		<line vector-effect="none" class="st5" x1="675.5" y1="779.5" x2="675.5" y2="806.2"/>
	</g>
	<g transform="matrix(0.620079,0,0,0.620079,0,0)">
		<g class="st2">
			<path d="M675,779.8c0-3.1,3.2-6,7.1-6c2.1,0,3.5,1.2,3.5,3c0,3-3.9,6-7.1,6C676.5,782.8,675,781.6,675,779.8z"/>
		</g>
	</g>
	<g transform="matrix(0.620079,0,0,0.620079,0,0)">
		<line vector-effect="none" class="st5" x1="712.7" y1="779.5" x2="712.7" y2="806.2"/>
	</g>
	<g transform="matrix(0.620079,0,0,0.620079,0,0)">
		<g class="st2">
			<path d="M712.2,779.8c0-3.1,3.2-6,7.1-6c2.1,0,3.5,1.2,3.5,3c0,3-3.9,6-7.1,6C713.7,782.8,712.2,781.6,712.2,779.8z"/>
		</g>
	</g>
	<g transform="matrix(0.620079,0,0,0.620079,0,0)">
		<line vector-effect="none" class="st5" x1="750" y1="779.5" x2="750" y2="806.2"/>
	</g>
	<g transform="matrix(0.620079,0,0,0.620079,0,0)">
		<g class="st2">
			<path d="M749.5,779.8c0-3.1,3.2-6,7.1-6c2.1,0,3.5,1.2,3.5,3c0,3-3.9,6-7.1,6C751,782.8,749.5,781.6,749.5,779.8z"/>
		</g>
	</g>
	<g transform="matrix(0.620079,0,0,0.620079,0,0)">
		<line vector-effect="none" class="st5" x1="828.7" y1="779.5" x2="828.7" y2="806.2"/>
	</g>
	<g transform="matrix(0.620079,0,0,0.620079,0,0)">
		<g class="st2">
			<path d="M828.2,779.8c0-1.9,1.7-6.2,7.3-6.2c2.1,0,3.6,1.2,3.6,3.1c0,1.2-1.2,6.2-7.3,6.2C829.8,782.9,828.2,781.8,828.2,779.8z
				 M838,776.6c0-0.3-0.1-0.5-0.2-0.7c-0.3-0.4-0.6-0.8-1.3-0.8c-0.8,0-1.9,0.4-3.7,1.4c-2.6,1.5-3.4,2.5-3.4,3.3
				c0,0.3,0.1,0.5,0.2,0.7c0.3,0.4,0.7,0.8,1.5,0.8c0.8,0,2-0.4,3.6-1.5C837.2,778.2,838,777.4,838,776.6z"/>
		</g>
	</g>
	<g transform="matrix(0.620079,0,0,0.620079,0,0)">
		<line vector-effect="none" class="st5" x1="907.5" y1="779.5" x2="907.5" y2="806.2"/>
	</g>
	<g transform="matrix(0.620079,0,0,0.620079,0,0)">
		<g class="st2">
			<path d="M907,779.8c0-3.1,3.2-6,7.1-6c2.1,0,3.5,1.2,3.5,3c0,3-3.9,6-7.1,6C908.5,782.8,907,781.6,907,779.8z"/>
		</g>
	</g>
	<g transform="matrix(0.620079,0,0,0.620079,0,0)">
		<line vector-effect="none" class="st5" x1="944.7" y1="779.5" x2="944.7" y2="806.2"/>
	</g>
	<g transform="matrix(0.620079,0,0,0.620079,0,0)">
		<g class="st2">
			<path d="M944.2,779.8c0-3.1,3.2-6,7.1-6c2.1,0,3.5,1.2,3.5,3c0,3-3.9,6-7.1,6C945.7,782.8,944.2,781.6,944.2,779.8z"/>
		</g>
	</g>
	<g transform="matrix(0.620079,0,0,0.620079,0,0)">
		<line vector-effect="none" class="st5" x1="982" y1="779.5" x2="982" y2="806.2"/>
	</g>
	<g transform="matrix(0.620079,0,0,0.620079,0,0)">
		<g class="st2">
			<path d="M981.5,779.8c0-3.1,3.2-6,7.1-6c2.1,0,3.5,1.2,3.5,3c0,3-3.9,6-7.1,6C983,782.8,981.5,781.6,981.5,779.8z"/>
		</g>
	</g>
	<g transform="matrix(0.620079,0,0,0.620079,0,0)">
		<line vector-effect="none" class="st5" x1="1050" y1="779.5" x2="1050" y2="806.2"/>
	</g>
	<g transform="matrix(0.620079,0,0,0.620079,0,0)">
		<g class="st2">
			<path d="M1049.5,779.8c0-1.9,1.7-6.2,7.3-6.2c2.1,0,3.6,1.2,3.6,3.1c0,1.2-1.2,6.2-7.3,6.2C1051,782.9,1049.5,781.8,1049.5,779.8
				z M1059.2,776.6c0-0.3-0.1-0.5-0.2-0.7c-0.3-0.4-0.6-0.8-1.3-0.8c-0.8,0-1.9,0.4-3.7,1.4c-2.6,1.5-3.4,2.5-3.4,3.3
				c0,0.3,0.1,0.5,0.2,0.7c0.3,0.4,0.7,0.8,1.5,0.8c0.8,0,2-0.4,3.6-1.5C1058.4,778.2,1059.2,777.4,1059.2,776.6z"/>
		</g>
	</g>
	<g transform="matrix(0.620079,0,0,0.620079,0,0)">
		<g class="st2">
			<path d="M1136.4,798.5h-7.4c-0.5,0-0.8-0.4-0.8-0.8v-2.9c0-0.5,0.4-0.8,0.8-0.8h7.4c0.4,0,0.8,0.4,0.8,0.8v2.9
				C1137.2,798.2,1136.8,798.5,1136.4,798.5z"/>
		</g>
	</g>
</g>
</svg>
