<?xml version="1.0" encoding="utf-8"?>
<!-- Generator: Adobe Illustrator 26.3.1, SVG Export Plug-In . SVG Version: 6.00 Build 0)  -->
<svg version="1.1" id="Layer_1" xmlns="http://www.w3.org/2000/svg" xmlns:xlink="http://www.w3.org/1999/xlink" x="0px" y="0px"
	 viewBox="0 0 720.1 121.7" style="enable-background:new 0 0 720.1 121.7;" xml:space="preserve">
<style type="text/css">
	.st0{fill:none;stroke:#000000;stroke-width:2.4803;stroke-linejoin:bevel;stroke-miterlimit:10;}
	.st1{fill:none;stroke:#000000;stroke-width:0.7751;stroke-linejoin:bevel;stroke-miterlimit:10;}
	.st2{enable-background:new    ;}
	.st3{fill:none;stroke:#000000;stroke-width:0.4651;stroke-linejoin:bevel;stroke-miterlimit:10;}
	.st4{fill-rule:evenodd;clip-rule:evenodd;stroke:#000000;stroke-width:0.155;stroke-linejoin:bevel;stroke-miterlimit:10;}
	.st5{fill:none;stroke:#000000;stroke-width:0.6201;stroke-linejoin:bevel;stroke-miterlimit:10;}
	.st6{fill-rule:evenodd;clip-rule:evenodd;}
</style>
<g>
	<g transform="matrix(0.620079,0,0,0.620079,0,0)">
		<line vector-effect="none" class="st0" x1="73" y1="49.1" x2="73" y2="81.1"/>
	</g>
	<g transform="matrix(0.620079,0,0,0.620079,0,0)">
		<line vector-effect="none" class="st1" x1="78.8" y1="49.1" x2="78.8" y2="81.1"/>
	</g>
	<g transform="matrix(0.620079,0,0,0.620079,0,0)">
		<g class="st2">
			<path d="M84.2,62.7c-0.9,0-1.6-0.7-1.6-1.6c0-0.9,0.7-1.6,1.6-1.6s1.6,0.7,1.6,1.6C85.8,62,85.1,62.7,84.2,62.7z"/>
		</g>
	</g>
	<g transform="matrix(0.620079,0,0,0.620079,0,0)">
		<g class="st2">
			<path d="M84.2,70.7c-0.9,0-1.6-0.7-1.6-1.6s0.7-1.6,1.6-1.6s1.6,0.7,1.6,1.6S85.1,70.7,84.2,70.7z"/>
		</g>
	</g>
	<g transform="matrix(0.620079,0,0,0.620079,0,0)">
		<line vector-effect="none" class="st1" x1="293.8" y1="49.1" x2="293.8" y2="81.1"/>
	</g>
	<g transform="matrix(0.620079,0,0,0.620079,0,0)">
		<line vector-effect="none" class="st0" x1="299.5" y1="49.1" x2="299.5" y2="81.1"/>
	</g>
	<g transform="matrix(0.620079,0,0,0.620079,0,0)">
		<g class="st2">
			<path d="M288.2,62.7c-0.9,0-1.6-0.7-1.6-1.6c0-0.9,0.7-1.6,1.6-1.6s1.6,0.7,1.6,1.6C289.8,62,289.1,62.7,288.2,62.7z"/>
		</g>
	</g>
	<g transform="matrix(0.620079,0,0,0.620079,0,0)">
		<g class="st2">
			<path d="M288.2,70.7c-0.9,0-1.6-0.7-1.6-1.6s0.7-1.6,1.6-1.6s1.6,0.7,1.6,1.6S289.1,70.7,288.2,70.7z"/>
		</g>
	</g>
	<g transform="matrix(0.620079,0,0,0.620079,0,0)">
		<line vector-effect="none" class="st0" x1="299.5" y1="49.1" x2="299.5" y2="81.1"/>
	</g>
	<g transform="matrix(0.620079,0,0,0.620079,0,0)">
		<line vector-effect="none" class="st1" x1="305.2" y1="49.1" x2="305.2" y2="81.1"/>
	</g>
	<g transform="matrix(0.620079,0,0,0.620079,0,0)">
		<g class="st2">
			<path d="M310.7,62.7c-0.9,0-1.6-0.7-1.6-1.6c0-0.9,0.7-1.6,1.6-1.6c0.9,0,1.6,0.7,1.6,1.6C312.3,62,311.6,62.7,310.7,62.7z"/>
		</g>
	</g>
	<g transform="matrix(0.620079,0,0,0.620079,0,0)">
		<g class="st2">
			<path d="M310.7,70.7c-0.9,0-1.6-0.7-1.6-1.6s0.7-1.6,1.6-1.6c0.9,0,1.6,0.7,1.6,1.6S311.6,70.7,310.7,70.7z"/>
		</g>
	</g>
	<g transform="matrix(0.620079,0,0,0.620079,0,0)">
		<line vector-effect="none" class="st1" x1="508.7" y1="49.1" x2="508.7" y2="81.1"/>
	</g>
	<g transform="matrix(0.620079,0,0,0.620079,0,0)">
		<line vector-effect="none" class="st0" x1="514.5" y1="49.1" x2="514.5" y2="81.1"/>
	</g>
	<g transform="matrix(0.620079,0,0,0.620079,0,0)">
		<g class="st2">
			<path d="M503.2,62.7c-0.9,0-1.6-0.7-1.6-1.6c0-0.9,0.7-1.6,1.6-1.6s1.6,0.7,1.6,1.6C504.8,62,504.1,62.7,503.2,62.7z"/>
		</g>
	</g>
	<g transform="matrix(0.620079,0,0,0.620079,0,0)">
		<g class="st2">
			<path d="M503.2,70.7c-0.9,0-1.6-0.7-1.6-1.6s0.7-1.6,1.6-1.6s1.6,0.7,1.6,1.6S504.1,70.7,503.2,70.7z"/>
		</g>
	</g>
	<g transform="matrix(0.620079,0,0,0.620079,0,0)">
		<line vector-effect="none" class="st0" x1="514.5" y1="49.1" x2="514.5" y2="81.1"/>
	</g>
	<g transform="matrix(0.620079,0,0,0.620079,0,0)">
		<line vector-effect="none" class="st1" x1="520.2" y1="49.1" x2="520.2" y2="81.1"/>
	</g>
	<g transform="matrix(0.620079,0,0,0.620079,0,0)">
		<g class="st2">
			<path d="M525.7,62.7c-0.9,0-1.6-0.7-1.6-1.6c0-0.9,0.7-1.6,1.6-1.6s1.6,0.7,1.6,1.6C527.3,62,526.6,62.7,525.7,62.7z"/>
		</g>
	</g>
	<g transform="matrix(0.620079,0,0,0.620079,0,0)">
		<g class="st2">
			<path d="M525.7,70.7c-0.9,0-1.6-0.7-1.6-1.6s0.7-1.6,1.6-1.6s1.6,0.7,1.6,1.6S526.6,70.7,525.7,70.7z"/>
		</g>
	</g>
	<g transform="matrix(0.620079,0,0,0.620079,0,0)">
		<line vector-effect="none" class="st1" x1="723.5" y1="49.1" x2="723.5" y2="81.1"/>
	</g>
	<g transform="matrix(0.620079,0,0,0.620079,0,0)">
		<line vector-effect="none" class="st0" x1="729.2" y1="49.1" x2="729.2" y2="81.1"/>
	</g>
	<g transform="matrix(0.620079,0,0,0.620079,0,0)">
		<g class="st2">
			<path d="M718,62.7c-0.9,0-1.6-0.7-1.6-1.6c0-0.9,0.7-1.6,1.6-1.6c0.9,0,1.6,0.7,1.6,1.6C719.6,62,718.9,62.7,718,62.7z"/>
		</g>
	</g>
	<g transform="matrix(0.620079,0,0,0.620079,0,0)">
		<g class="st2">
			<path d="M718,70.7c-0.9,0-1.6-0.7-1.6-1.6s0.7-1.6,1.6-1.6c0.9,0,1.6,0.7,1.6,1.6S718.9,70.7,718,70.7z"/>
		</g>
	</g>
	<g transform="matrix(0.620079,0,0,0.620079,0,0)">
		<line vector-effect="none" class="st0" x1="729.2" y1="49.1" x2="729.2" y2="81.1"/>
	</g>
	<g transform="matrix(0.620079,0,0,0.620079,0,0)">
		<line vector-effect="none" class="st1" x1="735" y1="49.1" x2="735" y2="81.1"/>
	</g>
	<g transform="matrix(0.620079,0,0,0.620079,0,0)">
		<g class="st2">
			<path d="M740.5,62.7c-0.9,0-1.6-0.7-1.6-1.6c0-0.9,0.7-1.6,1.6-1.6s1.6,0.7,1.6,1.6C742.1,62,741.4,62.7,740.5,62.7z"/>
		</g>
	</g>
	<g transform="matrix(0.620079,0,0,0.620079,0,0)">
		<g class="st2">
			<path d="M740.5,70.7c-0.9,0-1.6-0.7-1.6-1.6s0.7-1.6,1.6-1.6s1.6,0.7,1.6,1.6S741.4,70.7,740.5,70.7z"/>
		</g>
	</g>
	<g transform="matrix(0.620079,0,0,0.620079,0,0)">
		<line vector-effect="none" class="st1" x1="938.5" y1="49.1" x2="938.5" y2="81.1"/>
	</g>
	<g transform="matrix(0.620079,0,0,0.620079,0,0)">
		<line vector-effect="none" class="st0" x1="944.2" y1="49.1" x2="944.2" y2="81.1"/>
	</g>
	<g transform="matrix(0.620079,0,0,0.620079,0,0)">
		<g class="st2">
			<path d="M933,62.7c-0.9,0-1.6-0.7-1.6-1.6c0-0.9,0.7-1.6,1.6-1.6s1.6,0.7,1.6,1.6C934.6,62,933.9,62.7,933,62.7z"/>
		</g>
	</g>
	<g transform="matrix(0.620079,0,0,0.620079,0,0)">
		<g class="st2">
			<path d="M933,70.7c-0.9,0-1.6-0.7-1.6-1.6s0.7-1.6,1.6-1.6s1.6,0.7,1.6,1.6S933.9,70.7,933,70.7z"/>
		</g>
	</g>
	<g transform="matrix(0.620079,0,0,0.620079,0,0)">
		<line vector-effect="none" class="st0" x1="944.2" y1="49.1" x2="944.2" y2="81.1"/>
	</g>
	<g transform="matrix(0.620079,0,0,0.620079,0,0)">
		<line vector-effect="none" class="st1" x1="950" y1="49.1" x2="950" y2="81.1"/>
	</g>
	<g transform="matrix(0.620079,0,0,0.620079,0,0)">
		<g class="st2">
			<path d="M955.5,62.7c-0.9,0-1.6-0.7-1.6-1.6c0-0.9,0.7-1.6,1.6-1.6c0.9,0,1.6,0.7,1.6,1.6C957.1,62,956.4,62.7,955.5,62.7z"/>
		</g>
	</g>
	<g transform="matrix(0.620079,0,0,0.620079,0,0)">
		<g class="st2">
			<path d="M955.5,70.7c-0.9,0-1.6-0.7-1.6-1.6s0.7-1.6,1.6-1.6c0.9,0,1.6,0.7,1.6,1.6S956.4,70.7,955.5,70.7z"/>
		</g>
	</g>
	<g transform="matrix(0.620079,0,0,0.620079,0,0)">
		<line vector-effect="none" class="st1" x1="1153.5" y1="49.1" x2="1153.5" y2="81.1"/>
	</g>
	<g transform="matrix(0.620079,0,0,0.620079,0,0)">
		<line vector-effect="none" class="st0" x1="1159.2" y1="49.1" x2="1159.2" y2="81.1"/>
	</g>
	<g transform="matrix(0.620079,0,0,0.620079,0,0)">
		<g class="st2">
			<path d="M1148,62.7c-0.9,0-1.6-0.7-1.6-1.6c0-0.9,0.7-1.6,1.6-1.6c0.9,0,1.6,0.7,1.6,1.6C1149.6,62,1148.9,62.7,1148,62.7z"/>
		</g>
	</g>
	<g transform="matrix(0.620079,0,0,0.620079,0,0)">
		<g class="st2">
			<path d="M1148,70.7c-0.9,0-1.6-0.7-1.6-1.6s0.7-1.6,1.6-1.6c0.9,0,1.6,0.7,1.6,1.6S1148.9,70.7,1148,70.7z"/>
		</g>
	</g>
	<g transform="matrix(0.620079,0,0,0.620079,386.309,602.336)">
	</g>
	<g transform="matrix(0.620079,0,0,0.620079,386.309,602.336)">
		<g class="st2">
			<path d="M-519.9-871.6h0.9v11.8c0,0.3,0.4,0.6,0.6,0.6h2.1v0.7h-6.7v-0.7h1.8c0.3,0,0.6-0.4,0.6-0.6v-9.3c0-0.3-0.2-0.4-0.5-0.4
				h-2.2v-0.6C-522.1-870.3-520.8-870.6-519.9-871.6z"/>
		</g>
	</g>
	<g transform="matrix(0.620079,0,0,0.620079,386.309,602.336)">
	</g>
	<g transform="matrix(0.620079,0,0,0.620079,0,0)">
	</g>
	<g transform="matrix(0.620079,0,0,0.620079,479.941,602.336)">
	</g>
	<g transform="matrix(0.620079,0,0,0.620079,479.941,602.336)">
		<g class="st2">
			<path d="M-637.9-858.6v-0.5c0.8-0.9,2.5-2.8,2.7-3.1c2.7-2.7,3.9-5.2,3.9-6.3c0-1.5-0.9-2.4-2.4-2.4c-1.1,0-2.8,0.6-2.8,1.9
				c0,0.8,1.5,0.3,1.5,1.7c0,0.6-0.5,1.1-1.1,1.1c-0.7,0-1.4-0.6-1.4-1.9c0-2.2,2-3.5,4-3.5c2,0,4,1.3,4,3.5c0,1.8-1.2,3.1-2.5,4.2
				c-1.4,1.2-2.7,2.3-4,3.9l4.8,0c1.1,0,1.1-1.5,1.3-2.3h0.6l-0.3,3.8H-637.9z"/>
		</g>
	</g>
	<g transform="matrix(0.620079,0,0,0.620079,479.941,602.336)">
	</g>
	<g transform="matrix(0.620079,0,0,0.620079,0,0)">
	</g>
	<g transform="matrix(0.620079,0,0,0.620079,0,0)">
		<path vector-effect="none" class="st3" d="M104,35.1c7-6.8,28.5-6.8,35.8,0"/>
	</g>
	<g transform="matrix(0.620079,0,0,0.620079,0,0)">
		<path vector-effect="none" class="st4" d="M104,35.1c7-7.8,28.5-7.8,35.8,0C132.5,29.3,111,29.3,104,35.1"/>
	</g>
	<g transform="matrix(0.620079,0,0,0.620079,573.573,602.336)">
	</g>
	<g transform="matrix(0.620079,0,0,0.620079,573.573,602.336)">
		<g class="st2">
			<path d="M-749.8-862.9c0.7,0,1.1,0.4,1.1,1.2c0,0.9-1,0.9-1,1.4c0,1.1,1.7,1.3,2.4,1.3c2.1,0,2.9-1,2.9-3c0-1.6-0.5-3-2.3-3
				c-0.5,0-0.9,0-1.4,0c-0.3,0-0.6,0-0.6-0.4c0-0.3,0.1-0.4,0.4-0.4c0.3,0,1.4,0,1.6,0c1.4-0.1,1.9-1.3,1.9-2.5
				c0-1.5-0.5-2.8-2.2-2.8c-0.5,0-2.2,0.3-2.2,1.1c0,0.5,0.8,0.8,0.8,1.6c0,0.6-0.4,0.8-1,0.8c-0.8,0-1-0.7-1-1.4
				c0-1.9,1.9-2.7,3.5-2.7c2,0,3.9,1,3.9,3.2c0,1.6-1,2.3-2.3,3c0.4,0.2,0.9,0.4,1.3,0.6c1.1,0.6,1.5,1.8,1.5,2.9
				c0,2.5-2.2,3.6-4.5,3.6c-1.9,0-3.9-0.9-3.9-3.1C-751-862.1-750.6-862.9-749.8-862.9z"/>
		</g>
	</g>
	<g transform="matrix(0.620079,0,0,0.620079,573.573,602.336)">
	</g>
	<g transform="matrix(0.620079,0,0,0.620079,0,0)">
	</g>
	<g transform="matrix(0.620079,0,0,0.620079,636.201,602.336)">
	</g>
	<g transform="matrix(0.620079,0,0,0.620079,636.201,602.336)">
		<g class="st2">
			<path d="M-826.6-862.4c0-2.1,1.3-3.2,3.2-4.3c-0.4-0.9-0.8-1.9-0.8-3c0-1.8,1.5-3.2,3.3-3.2c1.5,0,2.8,0.9,2.8,2.5
				c0,1.9-1.6,2.9-3.2,3.6c0.7,1.4,2,3.6,3.1,4.8c0.7-0.6,1.4-1.8,1.4-2.8c0-1-1-1.1-1.9-1.1v-0.6h5.1v0.6c-1.1,0-1.7,0.3-2.2,1.3
				c-0.1,0.2-0.9,1.7-1,1.9c-0.1,0.2-0.8,1.2-0.9,1.4c0.6,0.6,1.3,1.3,2.2,1.3c1,0,1.3-1.2,1.4-2h0.6c0,1.6-0.8,3.5-2.6,3.5
				c-1.1,0-2.1-0.7-2.9-1.5c-1.2,0.8-2.3,1.5-3.7,1.5C-824.9-858.5-826.6-860-826.6-862.4z M-824.8-863.3c0,1.7,1.3,3.7,3.1,3.7
				c0.9,0,1.6-0.4,2.3-0.9c-1.1-1.1-2.5-3.6-3.5-5.3C-824-865.5-824.8-864.4-824.8-863.3z M-822.5-870.2c0,0.5,0.4,2.1,1,2.8
				c1.5-0.8,2.2-1.5,2.2-2.8c0-1-0.6-1.9-1.6-1.9C-822-872.1-822.5-871.2-822.5-870.2z"/>
		</g>
	</g>
	<g transform="matrix(0.620079,0,0,0.620079,636.201,602.336)">
	</g>
	<g transform="matrix(0.620079,0,0,0.620079,0,0)">
	</g>
	<g transform="matrix(0.620079,0,0,0.620079,709.37,602.336)">
	</g>
	<g transform="matrix(0.620079,0,0,0.620079,709.37,602.336)">
		<g class="st2">
			<path d="M-915.5-861.9v-0.9l6.3-8.8h0.7v8.9h2.1v0.8h-2.1v2.1c0,0.2,0.2,0.5,0.6,0.5h1v0.7h-5.2v-0.7h1.3c0.3,0,0.6-0.4,0.6-0.6
				v-2H-915.5z M-910.2-862.7v-6.3l-4.5,6.3H-910.2z"/>
		</g>
	</g>
	<g transform="matrix(0.620079,0,0,0.620079,709.37,602.336)">
	</g>
	<g transform="matrix(0.620079,0,0,0.620079,0,0)">
	</g>
	<g transform="matrix(0.620079,0,0,0.620079,771.378,602.336)">
	</g>
	<g transform="matrix(0.620079,0,0,0.620079,771.378,602.336)">
		<g class="st2">
			<path d="M-990.1-862.4c0-2.1,1.3-3.2,3.2-4.3c-0.4-0.9-0.8-1.9-0.8-3c0-1.8,1.5-3.2,3.3-3.2c1.5,0,2.8,0.9,2.8,2.5
				c0,1.9-1.6,2.9-3.2,3.6c0.7,1.4,2,3.6,3.1,4.8c0.7-0.6,1.4-1.8,1.4-2.8c0-1-1-1.1-1.9-1.1v-0.6h5.1v0.6c-1.1,0-1.7,0.3-2.2,1.3
				c-0.1,0.2-0.9,1.7-1,1.9c-0.1,0.2-0.8,1.2-0.9,1.4c0.6,0.6,1.3,1.3,2.2,1.3c1,0,1.3-1.2,1.4-2h0.6c0,1.6-0.8,3.5-2.6,3.5
				c-1.1,0-2.1-0.7-2.9-1.5c-1.2,0.8-2.3,1.5-3.7,1.5C-988.4-858.5-990.1-860-990.1-862.4z M-988.3-863.3c0,1.7,1.3,3.7,3.1,3.7
				c0.9,0,1.6-0.4,2.3-0.9c-1.1-1.1-2.5-3.6-3.5-5.3C-987.5-865.5-988.3-864.4-988.3-863.3z M-986-870.2c0,0.5,0.4,2.1,1,2.8
				c1.5-0.8,2.2-1.5,2.2-2.8c0-1-0.6-1.9-1.6-1.9C-985.5-872.1-986-871.2-986-870.2z"/>
		</g>
	</g>
	<g transform="matrix(0.620079,0,0,0.620079,771.378,602.336)">
	</g>
	<g transform="matrix(0.620079,0,0,0.620079,0,0)">
	</g>
	<g transform="matrix(0.620079,0,0,0.620079,326.781,365.65)">
	</g>
	<g transform="matrix(0.620079,0,0,0.620079,326.781,365.65)">
		<g class="st2">
			<path d="M-447.2-589.7h0.6v17.5c0,1.9-2.5,3.8-4.5,3.8c-1.2,0-2.2-0.7-2.2-1.9c0-2,2-3.8,4.4-3.8c0.7,0,1.2,0.2,1.6,0.5
				L-447.2-589.7z"/>
		</g>
		<g class="st2">
			<path d="M-439.5-575.4v-1.8h10.5v1.8H-439.5z M-429-572.8v1.9h-10.5v-1.9H-429z"/>
			<path d="M-418.1-575.8c-1.7-0.9-2.6-1.7-2.6-3.7c0-2.5,2-4.1,4.4-4.1c1.8,0,4.2,0.9,4.2,3.1c0,1.6-1.2,2.3-2.4,3.1
				c2,1.1,3.1,2,3.1,4.2c0,3-2.3,4.7-5.1,4.7c-2.4,0-4.8-1-4.8-3.7C-421.3-574.1-419.8-575-418.1-575.8z M-416.3-569.4
				c1.6,0,3-0.9,3-2.6c-0.1-1.8-2.4-2.9-3.9-3.3c-1.3,0.4-1.9,1.7-1.9,3C-419.1-570.6-418.1-569.4-416.3-569.4z M-415.4-577.6
				c0.9-0.5,1.5-1.5,1.5-2.5c0-1.6-0.9-2.5-2.5-2.5c-1.3,0-2.3,0.7-2.3,2.1C-418.7-578.7-416.8-578.2-415.4-577.6z"/>
			<path d="M-407.1-575.8c-1.7-0.9-2.6-1.7-2.6-3.7c0-2.5,2-4.1,4.4-4.1c1.8,0,4.2,0.9,4.2,3.1c0,1.6-1.2,2.3-2.4,3.1
				c2,1.1,3.1,2,3.1,4.2c0,3-2.3,4.7-5.1,4.7c-2.4,0-4.8-1-4.8-3.7C-410.2-574.1-408.8-575-407.1-575.8z M-405.2-569.4
				c1.6,0,3-0.9,3-2.6c-0.1-1.8-2.4-2.9-3.9-3.3c-1.3,0.4-1.9,1.7-1.9,3C-408-570.6-407-569.4-405.2-569.4z M-404.4-577.6
				c0.9-0.5,1.5-1.5,1.5-2.5c0-1.6-0.9-2.5-2.5-2.5c-1.3,0-2.3,0.7-2.3,2.1C-407.7-578.7-405.8-578.2-404.4-577.6z"/>
		</g>
	</g>
	<g transform="matrix(0.620079,0,0,0.620079,326.781,365.65)">
	</g>
	<g transform="matrix(0.620079,0,0,0.620079,0,0)">
	</g>
	<g transform="matrix(0.620079,0,0,0.620079,888.573,365.65)">
	</g>
	<g transform="matrix(0.620079,0,0,0.620079,888.573,365.65)">
		<g class="st2">
			<path d="M-1126.7-589.7h0.6v17.5c0,1.9-2.5,3.8-4.5,3.8c-1.2,0-2.2-0.7-2.2-1.9c0-2,2-3.8,4.4-3.8c0.7,0,1.2,0.2,1.6,0.5
				L-1126.7-589.7z"/>
		</g>
		<g class="st2">
			<path d="M-1119-575.4v-1.8h10.5v1.8H-1119z M-1108.5-572.8v1.9h-10.5v-1.9H-1108.5z"/>
			<path d="M-1095.9-583.6c3.8,0,5,3.6,5,6.8c0,3.5-1.7,8.3-5.9,8.3c-1.5,0-3.5-0.8-3.5-2.6c0-0.9,0.5-1.7,1.5-1.7
				c0.9,0,1.4,0.6,1.4,1.4c0,0.5-0.4,0.9-0.4,1.4c0,0.4,0.5,0.5,0.9,0.5c1.8,0,2.5-2.2,2.7-3.6c0-0.4,0.2-2.2,0.2-2.6
				c-1,0.9-1.7,1.3-3,1.3c-2.4,0-3.8-2-3.8-4.2C-1100.8-581.5-1098.9-583.6-1095.9-583.6z M-1097.9-579c0,1.3,0.1,3.2,1.8,3.2
				c1.7,0,2.1-2.2,2.1-3.5c0-1.3-0.3-3.3-2-3.3C-1097.7-582.6-1097.9-580.3-1097.9-579z"/>
			<path d="M-1086.4-575.8c-1.7-0.9-2.6-1.7-2.6-3.7c0-2.5,2-4.1,4.4-4.1c1.8,0,4.2,0.9,4.2,3.1c0,1.6-1.2,2.3-2.4,3.1
				c2,1.1,3.1,2,3.1,4.2c0,3-2.3,4.7-5.1,4.7c-2.4,0-4.8-1-4.8-3.7C-1089.6-574.1-1088.2-575-1086.4-575.8z M-1084.6-569.4
				c1.6,0,3-0.9,3-2.6c-0.1-1.8-2.4-2.9-3.9-3.3c-1.3,0.4-1.9,1.7-1.9,3C-1087.4-570.6-1086.4-569.4-1084.6-569.4z M-1083.8-577.6
				c0.9-0.5,1.5-1.5,1.5-2.5c0-1.6-0.9-2.5-2.5-2.5c-1.3,0-2.3,0.7-2.3,2.1C-1087-578.7-1085.2-578.2-1083.8-577.6z"/>
		</g>
	</g>
	<g transform="matrix(0.620079,0,0,0.620079,888.573,365.65)">
	</g>
	<g transform="matrix(0.620079,0,0,0.620079,0,0)">
	</g>
	<g transform="matrix(0.620079,0,0,0.620079,1421.84,365.65)">
	</g>
	<g transform="matrix(0.620079,0,0,0.620079,1421.84,365.65)">
		<g class="st2">
			<path d="M-1771.7-589.7h0.6v17.5c0,1.9-2.5,3.8-4.5,3.8c-1.2,0-2.2-0.7-2.2-1.9c0-2,2-3.8,4.4-3.8c0.7,0,1.2,0.2,1.6,0.5
				L-1771.7-589.7z"/>
		</g>
		<g class="st2">
			<path d="M-1764-575.4v-1.8h10.5v1.8H-1764z M-1753.5-572.8v1.9h-10.5v-1.9H-1753.5z"/>
			<path d="M-1739.8-583.6h0.7v13.1c0,0.4,0.3,0.8,0.7,0.8h2.1v0.9h-8.1v-0.9h1.7c0.5,0,0.8-0.5,0.8-0.9v-9.9c0-0.4-0.3-0.8-0.7-0.8
				h-2.4v-1C-1743.1-582.3-1741.5-582.8-1739.8-583.6z"/>
			<path d="M-1734.2-576c0-3.2,1.3-7.5,5.6-7.5c4.1,0,5.4,4.6,5.4,7.5c0,3.1-1.3,7.5-5.5,7.5C-1733-568.5-1734.2-573-1734.2-576z
				 M-1728.8-569.5c2.1,0,2.1-3.8,2.1-6.5c0-3.2,0-6.5-2-6.5c-2.1,0-2.1,3.4-2.1,6.9C-1730.8-573.3-1730.9-569.5-1728.8-569.5z"/>
			<path d="M-1719-575.8c-1.7-0.9-2.6-1.7-2.6-3.7c0-2.5,2-4.1,4.4-4.1c1.8,0,4.2,0.9,4.2,3.1c0,1.6-1.2,2.3-2.4,3.1
				c2,1.1,3.1,2,3.1,4.2c0,3-2.3,4.7-5.1,4.7c-2.4,0-4.8-1-4.8-3.7C-1722.2-574.1-1720.8-575-1719-575.8z M-1717.2-569.4
				c1.6,0,3-0.9,3-2.6c-0.1-1.8-2.4-2.9-3.9-3.3c-1.3,0.4-1.9,1.7-1.9,3C-1720-570.6-1719-569.4-1717.2-569.4z M-1716.4-577.6
				c0.9-0.5,1.5-1.5,1.5-2.5c0-1.6-0.9-2.5-2.5-2.5c-1.3,0-2.3,0.7-2.3,2.1C-1719.6-578.7-1717.8-578.2-1716.4-577.6z"/>
		</g>
	</g>
	<g transform="matrix(0.620079,0,0,0.620079,1421.84,365.65)">
	</g>
	<g transform="matrix(0.620079,0,0,0.620079,0,0)">
	</g>
	<g transform="matrix(0.620079,0,0,0.620079,1954.49,365.65)">
	</g>
	<g transform="matrix(0.620079,0,0,0.620079,1954.49,365.65)">
		<g class="st2">
			<path d="M-2416-589.7h0.6v17.5c0,1.9-2.5,3.8-4.5,3.8c-1.2,0-2.2-0.7-2.2-1.9c0-2,2-3.8,4.4-3.8c0.7,0,1.2,0.2,1.6,0.5
				L-2416-589.7z"/>
		</g>
		<g class="st2">
			<path d="M-2408.3-575.4v-1.8h10.5v1.8H-2408.3z M-2397.8-572.8v1.9h-10.5v-1.9H-2397.8z"/>
			<path d="M-2384.1-583.6h0.7v13.1c0,0.4,0.3,0.8,0.7,0.8h2.1v0.9h-8.1v-0.9h1.7c0.5,0,0.8-0.5,0.8-0.9v-9.9c0-0.4-0.3-0.8-0.7-0.8
				h-2.4v-1C-2387.3-582.3-2385.7-582.8-2384.1-583.6z"/>
			<path d="M-2372.5-583.6h0.7v13.1c0,0.4,0.3,0.8,0.7,0.8h2.1v0.9h-8.1v-0.9h1.7c0.5,0,0.8-0.5,0.8-0.9v-9.9c0-0.4-0.3-0.8-0.7-0.8
				h-2.4v-1C-2375.8-582.3-2374.2-582.8-2372.5-583.6z"/>
			<path d="M-2363.8-575.8c-1.7-0.9-2.6-1.7-2.6-3.7c0-2.5,2-4.1,4.4-4.1c1.8,0,4.2,0.9,4.2,3.1c0,1.6-1.2,2.3-2.4,3.1
				c2,1.1,3.1,2,3.1,4.2c0,3-2.3,4.7-5.1,4.7c-2.4,0-4.8-1-4.8-3.7C-2367-574.1-2365.5-575-2363.8-575.8z M-2361.9-569.4
				c1.6,0,3-0.9,3-2.6c-0.1-1.8-2.4-2.9-3.9-3.3c-1.3,0.4-1.9,1.7-1.9,3C-2364.8-570.6-2363.8-569.4-2361.9-569.4z M-2361.1-577.6
				c0.9-0.5,1.5-1.5,1.5-2.5c0-1.6-0.9-2.5-2.5-2.5c-1.3,0-2.3,0.7-2.3,2.1C-2364.4-578.7-2362.5-578.2-2361.1-577.6z"/>
		</g>
	</g>
	<g transform="matrix(0.620079,0,0,0.620079,1954.49,365.65)">
	</g>
	<g transform="matrix(0.620079,0,0,0.620079,0,0)">
	</g>
	<g transform="matrix(0.620079,0,0,0.620079,2487.76,365.65)">
	</g>
	<g transform="matrix(0.620079,0,0,0.620079,2487.76,365.65)">
		<g class="st2">
			<path d="M-3061-589.7h0.6v17.5c0,1.9-2.5,3.8-4.5,3.8c-1.2,0-2.2-0.7-2.2-1.9c0-2,2-3.8,4.5-3.8c0.7,0,1.2,0.2,1.6,0.5
				L-3061-589.7z"/>
		</g>
		<g class="st2">
			<path d="M-3053.3-575.4v-1.8h10.5v1.8H-3053.3z M-3042.8-572.8v1.9h-10.5v-1.9H-3042.8z"/>
			<path d="M-3029.1-583.6h0.7v13.1c0,0.4,0.3,0.8,0.7,0.8h2.1v0.9h-8.1v-0.9h1.7c0.5,0,0.8-0.5,0.8-0.9v-9.9c0-0.4-0.3-0.8-0.7-0.8
				h-2.4v-1C-3032.3-582.3-3030.7-582.8-3029.1-583.6z"/>
			<path d="M-3023.5-568.8v-0.9c0.2-0.3,0.7-1,4.5-5.6c1.1-1.3,1.8-2.8,1.8-4.4c0-1.6-0.5-2.8-2.2-2.8c-0.9,0-2.4,0.5-2.4,1.7
				c0,0.8,2.1,0.7,2.1,2.1c0,0.9-0.6,1.6-1.6,1.6c-1.4,0-1.7-1.3-1.7-2.4c0-2.6,2-4.1,4.5-4.1c2.4,0,4.4,1.4,4.4,3.9
				c0,1.7-0.9,3-2.2,4.1c-1.1,0.9-3.8,2.9-4.8,4.2l5.1,0c0.8,0,1.2-2.4,1.2-2.4h0.9l-0.3,5H-3023.5z"/>
			<path d="M-3009.4-575.8c-1.7-0.9-2.6-1.7-2.6-3.7c0-2.5,2-4.1,4.4-4.1c1.8,0,4.2,0.9,4.2,3.1c0,1.6-1.2,2.3-2.4,3.1
				c2,1.1,3.1,2,3.1,4.2c0,3-2.3,4.7-5.1,4.7c-2.3,0-4.8-1-4.8-3.7C-3012.6-574.1-3011.2-575-3009.4-575.8z M-3007.6-569.4
				c1.6,0,3-0.9,3-2.6c-0.1-1.8-2.4-2.9-3.9-3.3c-1.3,0.4-1.9,1.7-1.9,3C-3010.4-570.6-3009.4-569.4-3007.6-569.4z M-3006.8-577.6
				c0.9-0.5,1.5-1.5,1.5-2.5c0-1.6-0.9-2.5-2.5-2.5c-1.3,0-2.3,0.7-2.3,2.1C-3010-578.7-3008.2-578.2-3006.8-577.6z"/>
		</g>
	</g>
	<g transform="matrix(0.620079,0,0,0.620079,2487.76,365.65)">
	</g>
	<g transform="matrix(0.620079,0,0,0.620079,0,0)">
	</g>
	<g transform="matrix(0.620079,0,0,0.620079,0,0)">
		<line vector-effect="none" class="st0" x1="49" y1="163.8" x2="49" y2="195.8"/>
	</g>
	<g transform="matrix(0.620079,0,0,0.620079,0,0)">
		<line vector-effect="none" class="st1" x1="54.8" y1="163.8" x2="54.8" y2="195.8"/>
	</g>
	<g transform="matrix(0.620079,0,0,0.620079,0,0)">
		<g class="st2">
			<path d="M60.2,177.4c-0.9,0-1.6-0.7-1.6-1.6s0.7-1.6,1.6-1.6s1.6,0.7,1.6,1.6S61.1,177.4,60.2,177.4z"/>
		</g>
	</g>
	<g transform="matrix(0.620079,0,0,0.620079,0,0)">
		<g class="st2">
			<path d="M60.2,185.4c-0.9,0-1.6-0.7-1.6-1.6s0.7-1.6,1.6-1.6s1.6,0.7,1.6,1.6S61.1,185.4,60.2,185.4z"/>
		</g>
	</g>
	<g transform="matrix(0.620079,0,0,0.620079,0,0)">
		<line vector-effect="none" class="st1" x1="278.8" y1="163.8" x2="278.8" y2="195.8"/>
	</g>
	<g transform="matrix(0.620079,0,0,0.620079,0,0)">
		<line vector-effect="none" class="st0" x1="284.5" y1="163.8" x2="284.5" y2="195.8"/>
	</g>
	<g transform="matrix(0.620079,0,0,0.620079,0,0)">
		<g class="st2">
			<path d="M273.2,177.4c-0.9,0-1.6-0.7-1.6-1.6s0.7-1.6,1.6-1.6c0.9,0,1.6,0.7,1.6,1.6S274.1,177.4,273.2,177.4z"/>
		</g>
	</g>
	<g transform="matrix(0.620079,0,0,0.620079,0,0)">
		<g class="st2">
			<path d="M273.2,185.4c-0.9,0-1.6-0.7-1.6-1.6s0.7-1.6,1.6-1.6c0.9,0,1.6,0.7,1.6,1.6S274.1,185.4,273.2,185.4z"/>
		</g>
	</g>
	<g transform="matrix(0.620079,0,0,0.620079,0,0)">
		<line vector-effect="none" class="st0" x1="284.5" y1="163.8" x2="284.5" y2="195.8"/>
	</g>
	<g transform="matrix(0.620079,0,0,0.620079,0,0)">
		<line vector-effect="none" class="st1" x1="290.2" y1="163.8" x2="290.2" y2="195.8"/>
	</g>
	<g transform="matrix(0.620079,0,0,0.620079,0,0)">
		<g class="st2">
			<path d="M295.7,177.4c-0.9,0-1.6-0.7-1.6-1.6s0.7-1.6,1.6-1.6s1.6,0.7,1.6,1.6S296.6,177.4,295.7,177.4z"/>
		</g>
	</g>
	<g transform="matrix(0.620079,0,0,0.620079,0,0)">
		<g class="st2">
			<path d="M295.7,185.4c-0.9,0-1.6-0.7-1.6-1.6s0.7-1.6,1.6-1.6s1.6,0.7,1.6,1.6S296.6,185.4,295.7,185.4z"/>
		</g>
	</g>
	<g transform="matrix(0.620079,0,0,0.620079,0,0)">
		<line vector-effect="none" class="st1" x1="514.5" y1="163.8" x2="514.5" y2="195.8"/>
	</g>
	<g transform="matrix(0.620079,0,0,0.620079,0,0)">
		<line vector-effect="none" class="st0" x1="520.2" y1="163.8" x2="520.2" y2="195.8"/>
	</g>
	<g transform="matrix(0.620079,0,0,0.620079,0,0)">
		<g class="st2">
			<path d="M509,177.4c-0.9,0-1.6-0.7-1.6-1.6s0.7-1.6,1.6-1.6s1.6,0.7,1.6,1.6S509.9,177.4,509,177.4z"/>
		</g>
	</g>
	<g transform="matrix(0.620079,0,0,0.620079,0,0)">
		<g class="st2">
			<path d="M509,185.4c-0.9,0-1.6-0.7-1.6-1.6s0.7-1.6,1.6-1.6s1.6,0.7,1.6,1.6S509.9,185.4,509,185.4z"/>
		</g>
	</g>
	<g transform="matrix(0.620079,0,0,0.620079,0,0)">
		<line vector-effect="none" class="st0" x1="520.2" y1="163.8" x2="520.2" y2="195.8"/>
	</g>
	<g transform="matrix(0.620079,0,0,0.620079,0,0)">
		<line vector-effect="none" class="st1" x1="526" y1="163.8" x2="526" y2="195.8"/>
	</g>
	<g transform="matrix(0.620079,0,0,0.620079,0,0)">
		<g class="st2">
			<path d="M531.5,177.4c-0.9,0-1.6-0.7-1.6-1.6s0.7-1.6,1.6-1.6s1.6,0.7,1.6,1.6S532.4,177.4,531.5,177.4z"/>
		</g>
	</g>
	<g transform="matrix(0.620079,0,0,0.620079,0,0)">
		<g class="st2">
			<path d="M531.5,185.4c-0.9,0-1.6-0.7-1.6-1.6s0.7-1.6,1.6-1.6s1.6,0.7,1.6,1.6S532.4,185.4,531.5,185.4z"/>
		</g>
	</g>
	<g transform="matrix(0.620079,0,0,0.620079,0,0)">
		<line vector-effect="none" class="st1" x1="750" y1="163.8" x2="750" y2="195.8"/>
	</g>
	<g transform="matrix(0.620079,0,0,0.620079,0,0)">
		<line vector-effect="none" class="st0" x1="755.8" y1="163.8" x2="755.8" y2="195.8"/>
	</g>
	<g transform="matrix(0.620079,0,0,0.620079,0,0)">
		<g class="st2">
			<path d="M744.5,177.4c-0.9,0-1.6-0.7-1.6-1.6s0.7-1.6,1.6-1.6s1.6,0.7,1.6,1.6S745.4,177.4,744.5,177.4z"/>
		</g>
	</g>
	<g transform="matrix(0.620079,0,0,0.620079,0,0)">
		<g class="st2">
			<path d="M744.5,185.4c-0.9,0-1.6-0.7-1.6-1.6s0.7-1.6,1.6-1.6s1.6,0.7,1.6,1.6S745.4,185.4,744.5,185.4z"/>
		</g>
	</g>
	<g transform="matrix(0.620079,0,0,0.620079,0,0)">
		<line vector-effect="none" class="st0" x1="755.8" y1="163.8" x2="755.8" y2="195.8"/>
	</g>
	<g transform="matrix(0.620079,0,0,0.620079,0,0)">
		<line vector-effect="none" class="st1" x1="761.5" y1="163.8" x2="761.5" y2="195.8"/>
	</g>
	<g transform="matrix(0.620079,0,0,0.620079,0,0)">
		<g class="st2">
			<path d="M767,177.4c-0.9,0-1.6-0.7-1.6-1.6s0.7-1.6,1.6-1.6c0.9,0,1.6,0.7,1.6,1.6S767.9,177.4,767,177.4z"/>
		</g>
	</g>
	<g transform="matrix(0.620079,0,0,0.620079,0,0)">
		<g class="st2">
			<path d="M767,185.4c-0.9,0-1.6-0.7-1.6-1.6s0.7-1.6,1.6-1.6c0.9,0,1.6,0.7,1.6,1.6S767.9,185.4,767,185.4z"/>
		</g>
	</g>
	<g transform="matrix(0.620079,0,0,0.620079,0,0)">
		<line vector-effect="none" class="st1" x1="985.5" y1="163.8" x2="985.5" y2="195.8"/>
	</g>
	<g transform="matrix(0.620079,0,0,0.620079,0,0)">
		<line vector-effect="none" class="st0" x1="991.2" y1="163.8" x2="991.2" y2="195.8"/>
	</g>
	<g transform="matrix(0.620079,0,0,0.620079,0,0)">
		<g class="st2">
			<path d="M980,177.4c-0.9,0-1.6-0.7-1.6-1.6s0.7-1.6,1.6-1.6s1.6,0.7,1.6,1.6S980.9,177.4,980,177.4z"/>
		</g>
	</g>
	<g transform="matrix(0.620079,0,0,0.620079,0,0)">
		<g class="st2">
			<path d="M980,185.4c-0.9,0-1.6-0.7-1.6-1.6s0.7-1.6,1.6-1.6s1.6,0.7,1.6,1.6S980.9,185.4,980,185.4z"/>
		</g>
	</g>
	<g transform="matrix(0.620079,0,0,0.620079,0,0)">
		<line vector-effect="none" class="st1" x1="1153.5" y1="163.8" x2="1153.5" y2="195.8"/>
	</g>
	<g transform="matrix(0.620079,0,0,0.620079,0,0)">
		<line vector-effect="none" class="st0" x1="1159.2" y1="163.8" x2="1159.2" y2="195.8"/>
	</g>
	<g transform="matrix(0.620079,0,0,0.620079,0,0)">
	</g>
	<g transform="matrix(0.620079,0,0,0.620079,267.254,650.266)">
	</g>
	<g transform="matrix(0.620079,0,0,0.620079,267.254,650.266)">
		<g class="st2">
			<path d="M-375.2-933.9h0.6v17.5c0,1.9-2.5,3.8-4.5,3.8c-1.2,0-2.2-0.7-2.2-1.9c0-2,2-3.8,4.4-3.8c0.7,0,1.2,0.2,1.6,0.5
				L-375.2-933.9z"/>
		</g>
		<g class="st2">
			<path d="M-367.5-919.7v-1.8h10.5v1.8H-367.5z M-357-917.1v1.9h-10.5v-1.9H-357z"/>
			<path d="M-343.3-927.8h0.7v13.1c0,0.4,0.3,0.8,0.7,0.8h2.1v0.9h-8.1v-0.9h1.7c0.5,0,0.8-0.5,0.8-0.9v-9.9c0-0.4-0.3-0.8-0.7-0.8
				h-2.4v-1C-346.6-926.6-345-927-343.3-927.8z"/>
			<path d="M-337.7-916.2c0-1.1,0.4-2,1.6-2c0.9,0,1.5,0.5,1.5,1.4c0,1.2-1.3,1.4-1.3,2c0,0.8,1.4,1.2,2,1.2c2,0,2.6-1.6,2.6-3.3
				c0-1.1-0.3-3.2-1.7-3.2h-1.9c-0.2,0-0.3-0.4-0.3-0.6c0-0.2,0.1-0.5,0.4-0.5h1.6c1.4,0,1.7-1.7,1.7-2.7c0-1.6-0.5-2.8-2.3-2.8
				c-0.5,0-1.4,0.1-1.4,0.8c0,0.6,1.1,0.7,1.1,1.8c0,0.8-0.5,1.4-1.3,1.4c-1,0-1.6-0.7-1.6-1.7c0-2.1,2.1-3.2,4-3.2
				c2.2,0,4.4,1.2,4.4,3.6c0,1.7-1.2,2.7-2.7,3.4c1.9,0.6,3.3,1.9,3.3,4c0,2.8-2.5,4.1-5,4.1C-335.5-912.7-337.7-913.7-337.7-916.2z
				"/>
			<path d="M-323.9-920c-1.7-0.9-2.6-1.7-2.6-3.7c0-2.5,2-4.1,4.4-4.1c1.8,0,4.2,0.9,4.2,3.1c0,1.6-1.2,2.3-2.4,3.1
				c2,1.1,3.1,2,3.1,4.2c0,3-2.3,4.7-5.1,4.7c-2.4,0-4.8-1-4.8-3.7C-327.1-918.4-325.7-919.3-323.9-920z M-322.1-913.7
				c1.6,0,3-0.9,3-2.6c-0.1-1.8-2.4-2.9-3.9-3.3c-1.3,0.4-1.9,1.7-1.9,3C-324.9-914.8-323.9-913.7-322.1-913.7z M-321.3-921.9
				c0.9-0.5,1.5-1.5,1.5-2.5c0-1.6-0.9-2.5-2.5-2.5c-1.3,0-2.3,0.7-2.3,2.1C-324.5-923-322.7-922.4-321.3-921.9z"/>
		</g>
	</g>
	<g transform="matrix(0.620079,0,0,0.620079,267.254,650.266)">
	</g>
	<g transform="matrix(0.620079,0,0,0.620079,0,0)">
	</g>
	<g transform="matrix(0.620079,0,0,0.620079,851.368,650.266)">
	</g>
	<g transform="matrix(0.620079,0,0,0.620079,851.368,650.266)">
		<g class="st2">
			<path d="M-1081.7-933.9h0.6v17.5c0,1.9-2.5,3.8-4.5,3.8c-1.2,0-2.2-0.7-2.2-1.9c0-2,2-3.8,4.4-3.8c0.7,0,1.2,0.2,1.6,0.5
				L-1081.7-933.9z"/>
		</g>
		<g class="st2">
			<path d="M-1074-919.7v-1.8h10.5v1.8H-1074z M-1063.5-917.1v1.9h-10.5v-1.9H-1063.5z"/>
			<path d="M-1049.8-927.8h0.7v13.1c0,0.4,0.3,0.8,0.7,0.8h2.1v0.9h-8.1v-0.9h1.7c0.5,0,0.8-0.5,0.8-0.9v-9.9c0-0.4-0.3-0.8-0.7-0.8
				h-2.4v-1C-1053.1-926.6-1051.5-927-1049.8-927.8z"/>
			<path d="M-1037.4-927.8h0.9v10.1h2v1.1h-2v2c0,0.4,0.3,0.7,0.7,0.7h0.8v0.9h-6.3v-0.9h1.3c0.5,0,0.8-0.4,0.8-0.8v-1.9h-5.3v-1.4
				L-1037.4-927.8z M-1039.2-917.8v-6l-4.3,6H-1039.2z"/>
			<path d="M-1030.3-920c-1.7-0.9-2.6-1.7-2.6-3.7c0-2.5,2-4.1,4.4-4.1c1.8,0,4.2,0.9,4.2,3.1c0,1.6-1.2,2.3-2.4,3.1
				c2,1.1,3.1,2,3.1,4.2c0,3-2.3,4.7-5.1,4.7c-2.4,0-4.8-1-4.8-3.7C-1033.4-918.4-1032-919.3-1030.3-920z M-1028.4-913.7
				c1.6,0,3-0.9,3-2.6c-0.1-1.8-2.4-2.9-3.9-3.3c-1.3,0.4-1.9,1.7-1.9,3C-1031.2-914.8-1030.2-913.7-1028.4-913.7z M-1027.6-921.9
				c0.9-0.5,1.5-1.5,1.5-2.5c0-1.6-0.9-2.5-2.5-2.5c-1.3,0-2.3,0.7-2.3,2.1C-1030.9-923-1029-922.4-1027.6-921.9z"/>
		</g>
	</g>
	<g transform="matrix(0.620079,0,0,0.620079,851.368,650.266)">
	</g>
	<g transform="matrix(0.620079,0,0,0.620079,0,0)">
	</g>
	<g transform="matrix(0.620079,0,0,0.620079,1436.1,650.266)">
	</g>
	<g transform="matrix(0.620079,0,0,0.620079,1436.1,650.266)">
		<g class="st2">
			<path d="M-1789-933.9h0.6v17.5c0,1.9-2.5,3.8-4.5,3.8c-1.2,0-2.2-0.7-2.2-1.9c0-2,2-3.8,4.4-3.8c0.7,0,1.2,0.2,1.6,0.5
				L-1789-933.9z"/>
		</g>
		<g class="st2">
			<path d="M-1781.3-919.7v-1.8h10.5v1.8H-1781.3z M-1770.8-917.1v1.9h-10.5v-1.9H-1770.8z"/>
			<path d="M-1757.1-927.8h0.7v13.1c0,0.4,0.3,0.8,0.7,0.8h2.1v0.9h-8.1v-0.9h1.7c0.5,0,0.8-0.5,0.8-0.9v-9.9c0-0.4-0.3-0.8-0.7-0.8
				h-2.4v-1C-1760.3-926.6-1758.7-927-1757.1-927.8z"/>
			<path d="M-1751.5-916.1c0-0.8,0.3-2,1.7-2c0.9,0,1.6,0.5,1.6,1.4c0,1.3-1.5,1.3-1.5,1.9c0,0.8,1.3,1,2,1c2.2,0,2.6-2.2,2.6-4
				c0-1.6-0.4-3.7-2.3-3.7c-0.6,0-1.9,0.2-2.2,0.8c0,0.5-0.1,1.3-0.7,1.3c-0.3,0-0.6-0.1-0.6-0.5c0-0.5,0.3-0.9,0.5-1.3l0.4-6.5
				c0-0.1,0.3,0,0.4,0c1,0.1,2.5,0.4,3.8,0.4c1,0,1.8-0.2,2.7-0.4c0.1,0,0.1,0,0.1,0.3c0,0.5-0.3,1.1-0.6,1.5
				c-0.9,1.1-2.1,1.4-3.5,1.4c-0.7,0-1.4,0-2.2-0.1c-0.2,1-0.2,1.7-0.2,2.8c0.9-0.4,1.8-0.6,2.7-0.6c2.7,0,4.8,2,4.8,4.7
				c0,3.1-2.2,5.1-5.2,5.1C-1749.4-912.7-1751.5-913.8-1751.5-916.1z"/>
			<path d="M-1737.7-920c-1.7-0.9-2.6-1.7-2.6-3.7c0-2.5,2-4.1,4.4-4.1c1.8,0,4.2,0.9,4.2,3.1c0,1.6-1.2,2.3-2.4,3.1
				c2,1.1,3.1,2,3.1,4.2c0,3-2.3,4.7-5.1,4.7c-2.4,0-4.8-1-4.8-3.7C-1740.9-918.4-1739.5-919.3-1737.7-920z M-1735.9-913.7
				c1.6,0,3-0.9,3-2.6c-0.1-1.8-2.4-2.9-3.9-3.3c-1.3,0.4-1.9,1.7-1.9,3C-1738.7-914.8-1737.7-913.7-1735.9-913.7z M-1735.1-921.9
				c0.9-0.5,1.5-1.5,1.5-2.5c0-1.6-0.9-2.5-2.5-2.5c-1.3,0-2.3,0.7-2.3,2.1C-1738.3-923-1736.5-922.4-1735.1-921.9z"/>
		</g>
	</g>
	<g transform="matrix(0.620079,0,0,0.620079,1436.1,650.266)">
	</g>
	<g transform="matrix(0.620079,0,0,0.620079,0,0)">
	</g>
	<g transform="matrix(0.620079,0,0,0.620079,2020.22,650.266)">
	</g>
	<g transform="matrix(0.620079,0,0,0.620079,2020.22,650.266)">
		<g class="st2">
			<path d="M-2495.5-933.9h0.6v17.5c0,1.9-2.5,3.8-4.5,3.8c-1.2,0-2.2-0.7-2.2-1.9c0-2,2-3.8,4.5-3.8c0.6,0,1.2,0.2,1.6,0.5
				L-2495.5-933.9z"/>
		</g>
		<g class="st2">
			<path d="M-2487.8-919.7v-1.8h10.5v1.8H-2487.8z M-2477.3-917.1v1.9h-10.5v-1.9H-2477.3z"/>
			<path d="M-2463.6-927.8h0.7v13.1c0,0.4,0.3,0.8,0.7,0.8h2.1v0.9h-8.1v-0.9h1.7c0.5,0,0.8-0.5,0.8-0.9v-9.9c0-0.4-0.3-0.8-0.7-0.8
				h-2.4v-1C-2466.8-926.6-2465.2-927-2463.6-927.8z"/>
			<path d="M-2452.1-927.8c1.5,0,3.4,0.8,3.4,2.6c0,1-0.5,1.7-1.6,1.7c-0.8,0-1.3-0.6-1.3-1.4c0-0.5,0.4-0.9,0.4-1.4
				c0-0.5-0.5-0.6-0.9-0.6c-2.6,0.1-2.7,4.4-2.8,6.4c0.8-0.8,1.9-1.3,3.1-1.3c2.5,0,3.7,1.9,3.7,4.2c0,2.9-1.9,5-4.8,5
				c-3.9,0-5.1-3.7-5.1-7C-2458-923.2-2456.4-927.8-2452.1-927.8z M-2454.8-917.2c0,1.2,0.2,3.6,1.9,3.6c1.7,0,1.9-2.4,1.9-3.6
				c0-1.2-0.1-3.3-1.7-3.3C-2454.4-920.6-2454.8-918.5-2454.8-917.2z"/>
			<path d="M-2443.6-920c-1.7-0.9-2.6-1.7-2.6-3.7c0-2.5,2-4.1,4.4-4.1c1.8,0,4.2,0.9,4.2,3.1c0,1.6-1.2,2.3-2.4,3.1
				c2,1.1,3.1,2,3.1,4.2c0,3-2.3,4.7-5.1,4.7c-2.3,0-4.8-1-4.8-3.7C-2446.7-918.4-2445.3-919.3-2443.6-920z M-2441.7-913.7
				c1.6,0,3-0.9,3-2.6c-0.1-1.8-2.4-2.9-3.9-3.3c-1.3,0.4-1.9,1.7-1.9,3C-2444.5-914.8-2443.5-913.7-2441.7-913.7z M-2440.9-921.9
				c0.9-0.5,1.5-1.5,1.5-2.5c0-1.6-0.9-2.5-2.5-2.5c-1.3,0-2.3,0.7-2.3,2.1C-2444.2-923-2442.3-922.4-2440.9-921.9z"/>
		</g>
	</g>
	<g transform="matrix(0.620079,0,0,0.620079,2020.22,650.266)">
	</g>
	<g transform="matrix(0.620079,0,0,0.620079,0,0)">
	</g>
	<g transform="matrix(0.620079,0,0,0.620079,275.315,418.967)">
	</g>
	<g transform="matrix(0.620079,0,0,0.620079,275.315,418.967)">
		<g class="st2">
			<path d="M-377-615.4c0,0.4-0.2,0.7-0.5,0.7h-1.9v1.7c0,1,0.6,1.2,1,1.2c0.3,0,0.7,0.2,0.7,0.6c0,0.5-0.3,0.6-0.6,0.6h-7.5
				c-0.5,0-0.6-0.3-0.6-0.6c0-0.3,0.2-0.6,0.7-0.6c0.6,0,1.3-0.3,1.3-1.1v-1.8h-5.8c-0.4,0-0.6-0.4-0.6-0.7c0-0.1,0-0.2,0.1-0.3
				c0,0,0-0.1,0-0.1l0.2-0.3c0.9-1.3,3.6-5.7,3.6-9.6c0-0.5,0.4-0.6,0.7-0.6c0.3,0,2.1,0.1,2.6,0.1c0.6,0,2.3-0.1,2.5-0.1
				c0.3,0,0.5,0.2,0.5,0.5c0,0.1,0,0.1,0,0.1c-0.1,0.4-5.5,7.4-8.1,9.5h4.3v-2.5c0-0.4,0.2-0.6,0.3-0.7l3.8-3.6
				c0.2-0.2,0.3-0.3,0.6-0.3c0.4,0,0.4,0.3,0.4,0.5v6.6h1.9C-377.2-616.1-377-615.8-377-615.4z"/>
		</g>
	</g>
	<g transform="matrix(0.620079,0,0,0.620079,275.315,418.967)">
		<g class="st2">
			<path d="M-377-599.3c0,0.4-0.2,0.7-0.5,0.7h-1.9v1.7c0,1,0.6,1.2,1,1.2c0.3,0,0.7,0.2,0.7,0.6c0,0.5-0.3,0.6-0.6,0.6h-7.5
				c-0.5,0-0.6-0.3-0.6-0.6c0-0.3,0.2-0.6,0.7-0.6c0.6,0,1.3-0.3,1.3-1.1v-1.8h-5.8c-0.4,0-0.6-0.4-0.6-0.7c0-0.1,0-0.2,0.1-0.3
				c0,0,0-0.1,0-0.1l0.2-0.3c0.9-1.3,3.6-5.7,3.6-9.6c0-0.5,0.4-0.6,0.7-0.6c0.3,0,2.1,0.1,2.6,0.1c0.6,0,2.3-0.1,2.5-0.1
				c0.3,0,0.5,0.2,0.5,0.5c0,0.1,0,0.1,0,0.1c-0.1,0.4-5.5,7.4-8.1,9.5h4.3v-2.5c0-0.4,0.2-0.6,0.3-0.7l3.8-3.6
				c0.2-0.2,0.3-0.3,0.6-0.3c0.4,0,0.4,0.3,0.4,0.5v6.6h1.9C-377.2-600.1-377-599.7-377-599.3z"/>
		</g>
	</g>
	<g transform="matrix(0.620079,0,0,0.620079,275.315,418.967)">
	</g>
	<g transform="matrix(0.620079,0,0,0.620079,0,0)">
	</g>
	<g transform="matrix(0.620079,0,0,0.620079,0,0)">
		<line vector-effect="none" class="st5" x1="0" y1="81.1" x2="1161.2" y2="81.1"/>
	</g>
	<g transform="matrix(0.620079,0,0,0.620079,0,0)">
		<line vector-effect="none" class="st5" x1="0" y1="73.1" x2="1161.2" y2="73.1"/>
	</g>
	<g transform="matrix(0.620079,0,0,0.620079,0,0)">
		<line vector-effect="none" class="st5" x1="0" y1="65.1" x2="1161.2" y2="65.1"/>
	</g>
	<g transform="matrix(0.620079,0,0,0.620079,0,0)">
		<line vector-effect="none" class="st5" x1="0" y1="57.1" x2="1161.2" y2="57.1"/>
	</g>
	<g transform="matrix(0.620079,0,0,0.620079,0,0)">
		<line vector-effect="none" class="st5" x1="0" y1="49.1" x2="1161.2" y2="49.1"/>
	</g>
	<g transform="matrix(0.620079,0,0,0.620079,0,0)">
		<g class="st2">
			<path d="M23,58c0,4.2-1.7,8.1-4.4,11.1c-3.4,3.6-7.5,6.1-11.7,8.2c-0.2,0.1-0.4,0.2-0.5,0.2c-0.3,0-0.4-0.2-0.4-0.4
				c0-0.3,0.2-0.4,0.5-0.6c4-2.3,7.3-5,9.2-8c2-3.1,2.7-6.9,2.7-10.2c0-5-1.5-8.3-4.9-8.3c-3.3,0-5.2,2.3-5.2,3.6
				c0,0.3,0.1,0.6,0.5,0.6c0.4,0,0.7-0.2,1.6-0.2c1.6,0,3.1,1.3,3.1,3.3c0,2-1.4,3.4-3.4,3.4c-2.6,0-3.9-2.2-3.9-4.8
				c0-3.1,2.5-7.1,8.1-7.1C19.6,48.7,23,52.4,23,58z M27.9,53.1c0,1-0.8,1.8-1.8,1.8c-1,0-1.8-0.8-1.8-1.8c0-1,0.8-1.8,1.8-1.8
				C27.1,51.3,27.9,52.1,27.9,53.1z M27.9,61.1c0,1-0.7,1.7-1.7,1.7c-1,0-1.7-0.7-1.7-1.7c0-1,0.7-1.7,1.7-1.7
				C27.1,59.4,27.9,60.1,27.9,61.1z"/>
		</g>
	</g>
	<g transform="matrix(0.620079,0,0,0.620079,0,0)">
		<g class="st2">
			<path d="M34,59.9c0-0.6,0.5-0.9,1-0.9c0.3,0,0.6,0.2,0.6,0.5c0,0.6-0.2,8.3-0.2,9c0,0.2,0.1,0.4,0.4,0.5c0.1,0,0.1,0,0.2,0
				c0.3,0,0.5-0.3,0.7-0.4c0.4-0.2,0.7-0.4,1.1-0.4c0.2-0.1,0.4-0.1,0.7-0.1c1.5,0.1,2.9,1.2,2.9,3.1c0,1.5-1,3.4-3.8,5.4
				c-0.8,0.5-1.6,1.4-2.5,2c0,0-0.1,0.1-0.2,0.1s-0.2,0-0.3-0.2C34.1,78.2,34,59.9,34,59.9z M35.9,76.2c0.1,0,0.2,0,0.3-0.1
				c1-0.6,1.9-1.6,2.3-2.4c0.4-0.7,0.5-1.3,0.5-1.9c0-0.6-0.2-1.2-0.5-1.5c-0.2-0.2-0.5-0.4-0.8-0.4c-0.3,0-0.5,0.1-0.8,0.2
				c-0.4,0.3-1.3,1-1.4,1.3c0,0.1-0.1,0.5-0.1,1c0,1.3,0.1,3.2,0.1,3.2C35.5,75.8,35.6,76.2,35.9,76.2z"/>
		</g>
	</g>
	<g transform="matrix(0.620079,0,0,0.620079,0,0)">
		<g class="st2">
			<path d="M98.3,31.1c-0.2,0-0.4-0.3-0.4-0.5c0-0.1-0.1-0.2-0.1-0.3c0-0.2,0.1-0.3,0.4-0.5c0,0,6.8-2.3,7.2-2.4
				c0.2-0.1,0.3-0.1,0.3-0.2c0-0.1-0.1-0.2-0.2-0.2c-0.3-0.1-7.2-2.5-7.2-2.5c-0.4-0.1-0.4-0.3-0.4-0.4c0-0.1,0-0.2,0.1-0.3
				c0.1-0.3,0.2-0.4,0.5-0.4c0.1,0,0.2,0,0.3,0.1l9.6,3.3c0.4,0.1,0.4,0.3,0.4,0.6c0,0.3,0,0.5-0.4,0.6c0,0-9.7,3.3-9.8,3.3
				C98.4,31.1,98.3,31.1,98.3,31.1z"/>
		</g>
	</g>
	<g transform="matrix(0.620079,0,0,0.620079,0,0)">
		<g class="st2">
			<path d="M206,33c-0.7,0-1.3-0.6-1.3-1.3c0-0.7,0.6-1.3,1.3-1.3c0.7,0,1.3,0.6,1.3,1.3C207.4,32.4,206.8,33,206,33z"/>
		</g>
	</g>
	<g transform="matrix(0.620079,0,0,0.620079,0,0)">
		<g class="st2">
			<path d="M201.3,28.3c-0.2,0-0.4-0.3-0.4-0.5c0-0.1-0.1-0.2-0.1-0.3c0-0.2,0.1-0.3,0.4-0.5c0,0,6.8-2.3,7.2-2.4
				c0.2-0.1,0.3-0.1,0.3-0.2s-0.1-0.2-0.2-0.2c-0.3-0.1-7.2-2.5-7.2-2.5c-0.4-0.1-0.4-0.3-0.4-0.4c0-0.1,0-0.2,0.1-0.3
				c0.1-0.3,0.2-0.4,0.5-0.4c0.1,0,0.2,0,0.3,0.1l9.6,3.3c0.4,0.1,0.4,0.3,0.4,0.6s0,0.5-0.4,0.6c0,0-9.7,3.3-9.8,3.3
				C201.4,28.3,201.3,28.3,201.3,28.3z"/>
		</g>
	</g>
	<g transform="matrix(0.620079,0,0,0.620079,0,0)">
		<g class="st2">
			<path d="M233.3,33c-0.7,0-1.3-0.6-1.3-1.3c0-0.7,0.6-1.3,1.3-1.3c0.7,0,1.3,0.6,1.3,1.3C234.6,32.4,234,33,233.3,33z"/>
		</g>
	</g>
	<g transform="matrix(0.620079,0,0,0.620079,0,0)">
		<g class="st2">
			<path d="M228.5,28.3c-0.2,0-0.4-0.3-0.4-0.5c0-0.1-0.1-0.2-0.1-0.3c0-0.2,0.1-0.3,0.4-0.5c0,0,6.8-2.3,7.2-2.4
				c0.2-0.1,0.3-0.1,0.3-0.2s-0.1-0.2-0.2-0.2c-0.3-0.1-7.2-2.5-7.2-2.5c-0.4-0.1-0.4-0.3-0.4-0.4c0-0.1,0-0.2,0.1-0.3
				c0.1-0.3,0.2-0.4,0.5-0.4c0.1,0,0.2,0,0.3,0.1l9.6,3.3c0.4,0.1,0.4,0.3,0.4,0.6s0,0.5-0.4,0.6c0,0-9.7,3.3-9.8,3.3
				C228.6,28.3,228.5,28.3,228.5,28.3z"/>
		</g>
	</g>
	<g transform="matrix(0.620079,0,0,0.620079,0,0)">
		<g class="st2">
			<path d="M260.5,33c-0.7,0-1.3-0.6-1.3-1.3c0-0.7,0.6-1.3,1.3-1.3c0.7,0,1.3,0.6,1.3,1.3C261.9,32.4,261.3,33,260.5,33z"/>
		</g>
	</g>
	<g transform="matrix(0.620079,0,0,0.620079,0,0)">
		<g class="st2">
			<path d="M255.8,28.3c-0.2,0-0.4-0.3-0.4-0.5c0-0.1-0.1-0.2-0.1-0.3c0-0.2,0.1-0.3,0.4-0.5c0,0,6.8-2.3,7.2-2.4
				c0.2-0.1,0.3-0.1,0.3-0.2s-0.1-0.2-0.2-0.2c-0.3-0.1-7.2-2.5-7.2-2.5c-0.4-0.1-0.4-0.3-0.4-0.4c0-0.1,0-0.2,0.1-0.3
				c0.1-0.3,0.2-0.4,0.5-0.4c0.1,0,0.2,0,0.3,0.1l9.6,3.3c0.4,0.1,0.4,0.3,0.4,0.6s0,0.5-0.4,0.6c0,0-9.7,3.3-9.8,3.3
				C255.9,28.3,255.8,28.3,255.8,28.3z"/>
		</g>
	</g>
	<g transform="matrix(0.620079,0,0,0.620079,0,0)">
		<path vector-effect="none" class="st6" d="M228.5,67.1h27.2v-4h-27.2V67.1"/>
	</g>
	<g transform="matrix(0.620079,0,0,0.620079,0,0)">
		<g class="st2">
			<path d="M325,33.1c-0.2,0-0.4-0.3-0.4-0.5c0-0.1-0.1-0.2-0.1-0.3c0-0.2,0.1-0.3,0.4-0.5c0,0,6.8-2.3,7.2-2.4
				c0.2-0.1,0.3-0.1,0.3-0.2s-0.1-0.2-0.2-0.2c-0.3-0.1-7.2-2.5-7.2-2.5c-0.4-0.1-0.4-0.3-0.4-0.4c0-0.1,0-0.2,0.1-0.3
				c0.1-0.3,0.2-0.4,0.5-0.4c0.1,0,0.2,0,0.3,0.1l9.6,3.3c0.4,0.1,0.4,0.3,0.4,0.6c0,0.3,0,0.5-0.4,0.6c0,0-9.7,3.3-9.8,3.3
				C325.1,33.1,325,33.1,325,33.1z"/>
		</g>
	</g>
	<g transform="matrix(0.620079,0,0,0.620079,0,0)">
		<g class="st2">
			<path d="M421,33c-0.7,0-1.3-0.6-1.3-1.3c0-0.7,0.6-1.3,1.3-1.3c0.7,0,1.3,0.6,1.3,1.3C422.4,32.4,421.8,33,421,33z"/>
		</g>
	</g>
	<g transform="matrix(0.620079,0,0,0.620079,0,0)">
		<g class="st2">
			<path d="M416.3,28.3c-0.2,0-0.4-0.3-0.4-0.5c0-0.1-0.1-0.2-0.1-0.3c0-0.2,0.1-0.3,0.4-0.5c0,0,6.8-2.3,7.2-2.4
				c0.2-0.1,0.3-0.1,0.3-0.2s-0.1-0.2-0.2-0.2c-0.3-0.1-7.2-2.5-7.2-2.5c-0.4-0.1-0.4-0.3-0.4-0.4c0-0.1,0-0.2,0.1-0.3
				c0.1-0.3,0.2-0.4,0.5-0.4c0.1,0,0.2,0,0.3,0.1l9.6,3.3c0.4,0.1,0.4,0.3,0.4,0.6s0,0.5-0.4,0.6c0,0-9.7,3.3-9.8,3.3
				C416.4,28.3,416.3,28.3,416.3,28.3z"/>
		</g>
	</g>
	<g transform="matrix(0.620079,0,0,0.620079,0,0)">
		<g class="st2">
			<path d="M448.3,33c-0.7,0-1.3-0.6-1.3-1.3c0-0.7,0.6-1.3,1.3-1.3c0.7,0,1.3,0.6,1.3,1.3C449.6,32.4,449,33,448.3,33z"/>
		</g>
	</g>
	<g transform="matrix(0.620079,0,0,0.620079,0,0)">
		<g class="st2">
			<path d="M443.5,28.3c-0.2,0-0.4-0.3-0.4-0.5c0-0.1-0.1-0.2-0.1-0.3c0-0.2,0.1-0.3,0.4-0.5c0,0,6.8-2.3,7.2-2.4
				c0.2-0.1,0.3-0.1,0.3-0.2s-0.1-0.2-0.2-0.2c-0.3-0.1-7.2-2.5-7.2-2.5c-0.4-0.1-0.4-0.3-0.4-0.4c0-0.1,0-0.2,0.1-0.3
				c0.1-0.3,0.2-0.4,0.5-0.4c0.1,0,0.2,0,0.3,0.1l9.6,3.3c0.4,0.1,0.4,0.3,0.4,0.6s0,0.5-0.4,0.6c0,0-9.7,3.3-9.8,3.3
				C443.6,28.3,443.5,28.3,443.5,28.3z"/>
		</g>
	</g>
	<g transform="matrix(0.620079,0,0,0.620079,0,0)">
		<g class="st2">
			<path d="M475.5,33c-0.7,0-1.3-0.6-1.3-1.3c0-0.7,0.6-1.3,1.3-1.3c0.7,0,1.3,0.6,1.3,1.3C476.9,32.4,476.3,33,475.5,33z"/>
		</g>
	</g>
	<g transform="matrix(0.620079,0,0,0.620079,0,0)">
		<g class="st2">
			<path d="M470.8,28.3c-0.2,0-0.4-0.3-0.4-0.5c0-0.1-0.1-0.2-0.1-0.3c0-0.2,0.1-0.3,0.4-0.5c0,0,6.8-2.3,7.2-2.4
				c0.2-0.1,0.3-0.1,0.3-0.2s-0.1-0.2-0.2-0.2c-0.3-0.1-7.2-2.5-7.2-2.5c-0.4-0.1-0.4-0.3-0.4-0.4c0-0.1,0-0.2,0.1-0.3
				c0.1-0.3,0.2-0.4,0.5-0.4c0.1,0,0.2,0,0.3,0.1l9.6,3.3c0.4,0.1,0.4,0.3,0.4,0.6s0,0.5-0.4,0.6c0,0-9.7,3.3-9.8,3.3
				C470.9,28.3,470.8,28.3,470.8,28.3z"/>
		</g>
	</g>
	<g transform="matrix(0.620079,0,0,0.620079,0,0)">
		<path vector-effect="none" class="st6" d="M443.5,67.1h27.2v-4h-27.2V67.1"/>
	</g>
	<g transform="matrix(0.620079,0,0,0.620079,0,0)">
		<g class="st2">
			<path d="M540,33.1c-0.2,0-0.4-0.3-0.4-0.5c0-0.1-0.1-0.2-0.1-0.3c0-0.2,0.1-0.3,0.4-0.5c0,0,6.8-2.3,7.2-2.4
				c0.2-0.1,0.3-0.1,0.3-0.2s-0.1-0.2-0.2-0.2c-0.3-0.1-7.2-2.5-7.2-2.5c-0.4-0.1-0.4-0.3-0.4-0.4c0-0.1,0-0.2,0.1-0.3
				c0.1-0.3,0.2-0.4,0.5-0.4c0.1,0,0.2,0,0.3,0.1l9.6,3.3c0.4,0.1,0.4,0.3,0.4,0.6c0,0.3,0,0.5-0.4,0.6c0,0-9.7,3.3-9.8,3.3
				C540.1,33.1,540,33.1,540,33.1z"/>
		</g>
	</g>
	<g transform="matrix(0.620079,0,0,0.620079,0,0)">
		<g class="st2">
			<path d="M635.8,33c-0.7,0-1.3-0.6-1.3-1.3c0-0.7,0.6-1.3,1.3-1.3c0.7,0,1.3,0.6,1.3,1.3C637.1,32.4,636.5,33,635.8,33z"/>
		</g>
	</g>
	<g transform="matrix(0.620079,0,0,0.620079,0,0)">
		<g class="st2">
			<path d="M631,28.3c-0.2,0-0.4-0.3-0.4-0.5c0-0.1-0.1-0.2-0.1-0.3c0-0.2,0.1-0.3,0.4-0.5c0,0,6.8-2.3,7.2-2.4
				c0.2-0.1,0.3-0.1,0.3-0.2s-0.1-0.2-0.2-0.2c-0.3-0.1-7.2-2.5-7.2-2.5c-0.4-0.1-0.4-0.3-0.4-0.4c0-0.1,0-0.2,0.1-0.3
				c0.1-0.3,0.2-0.4,0.5-0.4c0.1,0,0.2,0,0.3,0.1l9.6,3.3c0.4,0.1,0.4,0.3,0.4,0.6s0,0.5-0.4,0.6c0,0-9.7,3.3-9.8,3.3
				C631.1,28.3,631,28.3,631,28.3z"/>
		</g>
	</g>
	<g transform="matrix(0.620079,0,0,0.620079,0,0)">
		<g class="st2">
			<path d="M663.3,33c-0.7,0-1.3-0.6-1.3-1.3c0-0.7,0.6-1.3,1.3-1.3s1.3,0.6,1.3,1.3C664.6,32.4,664,33,663.3,33z"/>
		</g>
	</g>
	<g transform="matrix(0.620079,0,0,0.620079,0,0)">
		<g class="st2">
			<path d="M658.5,28.3c-0.2,0-0.4-0.3-0.4-0.5c0-0.1-0.1-0.2-0.1-0.3c0-0.2,0.1-0.3,0.4-0.5c0,0,6.8-2.3,7.2-2.4
				c0.2-0.1,0.3-0.1,0.3-0.2s-0.1-0.2-0.2-0.2c-0.3-0.1-7.2-2.5-7.2-2.5c-0.4-0.1-0.4-0.3-0.4-0.4c0-0.1,0-0.2,0.1-0.3
				c0.1-0.3,0.2-0.4,0.5-0.4c0.1,0,0.2,0,0.3,0.1l9.6,3.3c0.4,0.1,0.4,0.3,0.4,0.6s0,0.5-0.4,0.6c0,0-9.7,3.3-9.8,3.3
				C658.6,28.3,658.5,28.3,658.5,28.3z"/>
		</g>
	</g>
	<g transform="matrix(0.620079,0,0,0.620079,0,0)">
		<g class="st2">
			<path d="M690.5,33c-0.7,0-1.3-0.6-1.3-1.3c0-0.7,0.6-1.3,1.3-1.3c0.7,0,1.3,0.6,1.3,1.3C691.9,32.4,691.3,33,690.5,33z"/>
		</g>
	</g>
	<g transform="matrix(0.620079,0,0,0.620079,0,0)">
		<g class="st2">
			<path d="M685.8,28.3c-0.2,0-0.4-0.3-0.4-0.5c0-0.1-0.1-0.2-0.1-0.3c0-0.2,0.1-0.3,0.4-0.5c0,0,6.8-2.3,7.2-2.4
				c0.2-0.1,0.3-0.1,0.3-0.2s-0.1-0.2-0.2-0.2c-0.3-0.1-7.2-2.5-7.2-2.5c-0.4-0.1-0.4-0.3-0.4-0.4c0-0.1,0-0.2,0.1-0.3
				c0.1-0.3,0.2-0.4,0.5-0.4c0.1,0,0.2,0,0.3,0.1l9.6,3.3c0.4,0.1,0.4,0.3,0.4,0.6s0,0.5-0.4,0.6c0,0-9.7,3.3-9.8,3.3
				C685.9,28.3,685.8,28.3,685.8,28.3z"/>
		</g>
	</g>
	<g transform="matrix(0.620079,0,0,0.620079,0,0)">
		<path vector-effect="none" class="st6" d="M658.5,67.1h27.2v-4h-27.2V67.1"/>
	</g>
	<g transform="matrix(0.620079,0,0,0.620079,0,0)">
		<g class="st2">
			<path d="M754.8,33.1c-0.2,0-0.4-0.3-0.4-0.5c0-0.1-0.1-0.2-0.1-0.3c0-0.2,0.1-0.3,0.4-0.5c0,0,6.8-2.3,7.2-2.4
				c0.2-0.1,0.3-0.1,0.3-0.2s-0.1-0.2-0.2-0.2c-0.3-0.1-7.2-2.5-7.2-2.5c-0.4-0.1-0.4-0.3-0.4-0.4c0-0.1,0-0.2,0.1-0.3
				c0.1-0.3,0.2-0.4,0.5-0.4c0.1,0,0.2,0,0.3,0.1l9.6,3.3c0.4,0.1,0.4,0.3,0.4,0.6c0,0.3,0,0.5-0.4,0.6c0,0-9.7,3.3-9.8,3.3
				C754.9,33.1,754.8,33.1,754.8,33.1z"/>
		</g>
	</g>
	<g transform="matrix(0.620079,0,0,0.620079,0,0)">
		<g class="st2">
			<path d="M850.8,33c-0.7,0-1.3-0.6-1.3-1.3c0-0.7,0.6-1.3,1.3-1.3c0.7,0,1.3,0.6,1.3,1.3C852.1,32.4,851.5,33,850.8,33z"/>
		</g>
	</g>
	<g transform="matrix(0.620079,0,0,0.620079,0,0)">
		<g class="st2">
			<path d="M846,28.3c-0.2,0-0.4-0.3-0.4-0.5c0-0.1-0.1-0.2-0.1-0.3c0-0.2,0.1-0.3,0.4-0.5c0,0,6.8-2.3,7.2-2.4
				c0.2-0.1,0.3-0.1,0.3-0.2s-0.1-0.2-0.2-0.2c-0.3-0.1-7.2-2.5-7.2-2.5c-0.4-0.1-0.4-0.3-0.4-0.4c0-0.1,0-0.2,0.1-0.3
				c0.1-0.3,0.2-0.4,0.5-0.4c0.1,0,0.2,0,0.3,0.1l9.6,3.3c0.4,0.1,0.4,0.3,0.4,0.6s0,0.5-0.4,0.6c0,0-9.7,3.3-9.8,3.3
				C846.1,28.3,846,28.3,846,28.3z"/>
		</g>
	</g>
	<g transform="matrix(0.620079,0,0,0.620079,0,0)">
		<g class="st2">
			<path d="M878.3,33c-0.7,0-1.3-0.6-1.3-1.3c0-0.7,0.6-1.3,1.3-1.3c0.7,0,1.3,0.6,1.3,1.3C879.6,32.4,879,33,878.3,33z"/>
		</g>
	</g>
	<g transform="matrix(0.620079,0,0,0.620079,0,0)">
		<g class="st2">
			<path d="M873.5,28.3c-0.2,0-0.4-0.3-0.4-0.5c0-0.1-0.1-0.2-0.1-0.3c0-0.2,0.1-0.3,0.4-0.5c0,0,6.8-2.3,7.2-2.4
				c0.2-0.1,0.3-0.1,0.3-0.2s-0.1-0.2-0.2-0.2c-0.3-0.1-7.2-2.5-7.2-2.5c-0.4-0.1-0.4-0.3-0.4-0.4c0-0.1,0-0.2,0.1-0.3
				c0.1-0.3,0.2-0.4,0.5-0.4c0.1,0,0.2,0,0.3,0.1l9.6,3.3c0.4,0.1,0.4,0.3,0.4,0.6s0,0.5-0.4,0.6c0,0-9.7,3.3-9.8,3.3
				C873.6,28.3,873.5,28.3,873.5,28.3z"/>
		</g>
	</g>
	<g transform="matrix(0.620079,0,0,0.620079,0,0)">
		<g class="st2">
			<path d="M905.5,33c-0.7,0-1.3-0.6-1.3-1.3c0-0.7,0.6-1.3,1.3-1.3c0.7,0,1.3,0.6,1.3,1.3C906.9,32.4,906.3,33,905.5,33z"/>
		</g>
	</g>
	<g transform="matrix(0.620079,0,0,0.620079,0,0)">
		<g class="st2">
			<path d="M900.8,28.3c-0.2,0-0.4-0.3-0.4-0.5c0-0.1-0.1-0.2-0.1-0.3c0-0.2,0.1-0.3,0.4-0.5c0,0,6.8-2.3,7.2-2.4
				c0.2-0.1,0.3-0.1,0.3-0.2s-0.1-0.2-0.2-0.2c-0.3-0.1-7.2-2.5-7.2-2.5c-0.4-0.1-0.4-0.3-0.4-0.4c0-0.1,0-0.2,0.1-0.3
				c0.1-0.3,0.2-0.4,0.5-0.4c0.1,0,0.2,0,0.3,0.1l9.6,3.3c0.4,0.1,0.4,0.3,0.4,0.6s0,0.5-0.4,0.6c0,0-9.7,3.3-9.8,3.3
				C900.9,28.3,900.8,28.3,900.8,28.3z"/>
		</g>
	</g>
	<g transform="matrix(0.620079,0,0,0.620079,0,0)">
		<path vector-effect="none" class="st6" d="M873.5,67.1h27.2v-4h-27.2V67.1"/>
	</g>
	<g transform="matrix(0.620079,0,0,0.620079,0,0)">
		<g class="st2">
			<path d="M969.8,33.1c-0.2,0-0.4-0.3-0.4-0.5c0-0.1-0.1-0.2-0.1-0.3c0-0.2,0.1-0.3,0.4-0.5c0,0,6.8-2.3,7.2-2.4
				c0.2-0.1,0.3-0.1,0.3-0.2s-0.1-0.2-0.2-0.2c-0.3-0.1-7.2-2.5-7.2-2.5c-0.4-0.1-0.4-0.3-0.4-0.4c0-0.1,0-0.2,0.1-0.3
				c0.1-0.3,0.2-0.4,0.5-0.4c0.1,0,0.2,0,0.3,0.1l9.6,3.3c0.4,0.1,0.4,0.3,0.4,0.6c0,0.3,0,0.5-0.4,0.6c0,0-9.7,3.3-9.8,3.3
				C969.9,33.1,969.8,33.1,969.8,33.1z"/>
		</g>
	</g>
	<g transform="matrix(0.620079,0,0,0.620079,0,0)">
		<g class="st2">
			<path d="M1065.8,33c-0.7,0-1.3-0.6-1.3-1.3c0-0.7,0.6-1.3,1.3-1.3c0.7,0,1.3,0.6,1.3,1.3C1067.1,32.4,1066.5,33,1065.8,33z"/>
		</g>
	</g>
	<g transform="matrix(0.620079,0,0,0.620079,0,0)">
		<g class="st2">
			<path d="M1061,28.3c-0.2,0-0.4-0.3-0.4-0.5c0-0.1-0.1-0.2-0.1-0.3c0-0.2,0.1-0.3,0.4-0.5c0,0,6.8-2.3,7.2-2.4
				c0.2-0.1,0.3-0.1,0.3-0.2s-0.1-0.2-0.2-0.2c-0.3-0.1-7.2-2.5-7.2-2.5c-0.4-0.1-0.4-0.3-0.4-0.4c0-0.1,0-0.2,0.1-0.3
				c0.1-0.3,0.2-0.4,0.5-0.4c0.1,0,0.2,0,0.3,0.1l9.6,3.3c0.4,0.1,0.4,0.3,0.4,0.6s0,0.5-0.4,0.6c0,0-9.7,3.3-9.8,3.3
				C1061.1,28.3,1061,28.3,1061,28.3z"/>
		</g>
	</g>
	<g transform="matrix(0.620079,0,0,0.620079,0,0)">
		<g class="st2">
			<path d="M1093,33c-0.7,0-1.3-0.6-1.3-1.3c0-0.7,0.6-1.3,1.3-1.3c0.7,0,1.3,0.6,1.3,1.3C1094.4,32.4,1093.8,33,1093,33z"/>
		</g>
	</g>
	<g transform="matrix(0.620079,0,0,0.620079,0,0)">
		<g class="st2">
			<path d="M1088.3,28.3c-0.2,0-0.4-0.3-0.4-0.5c0-0.1-0.1-0.2-0.1-0.3c0-0.2,0.1-0.3,0.4-0.5c0,0,6.8-2.3,7.2-2.4
				c0.2-0.1,0.3-0.1,0.3-0.2s-0.1-0.2-0.2-0.2c-0.3-0.1-7.2-2.5-7.2-2.5c-0.4-0.1-0.4-0.3-0.4-0.4c0-0.1,0-0.2,0.1-0.3
				c0.1-0.3,0.2-0.4,0.5-0.4c0.1,0,0.2,0,0.3,0.1l9.6,3.3c0.4,0.1,0.4,0.3,0.4,0.6s0,0.5-0.4,0.6c0,0-9.7,3.3-9.8,3.3
				C1088.4,28.3,1088.3,28.3,1088.3,28.3z"/>
		</g>
	</g>
	<g transform="matrix(0.620079,0,0,0.620079,0,0)">
		<g class="st2">
			<path d="M1120.5,33c-0.7,0-1.3-0.6-1.3-1.3c0-0.7,0.6-1.3,1.3-1.3s1.3,0.6,1.3,1.3C1121.9,32.4,1121.3,33,1120.5,33z"/>
		</g>
	</g>
	<g transform="matrix(0.620079,0,0,0.620079,0,0)">
		<g class="st2">
			<path d="M1115.8,28.3c-0.2,0-0.4-0.3-0.4-0.5c0-0.1-0.1-0.2-0.1-0.3c0-0.2,0.1-0.3,0.4-0.5c0,0,6.8-2.3,7.2-2.4
				c0.2-0.1,0.3-0.1,0.3-0.2s-0.1-0.2-0.2-0.2c-0.3-0.1-7.2-2.5-7.2-2.5c-0.4-0.1-0.4-0.3-0.4-0.4c0-0.1,0-0.2,0.1-0.3
				c0.1-0.3,0.2-0.4,0.5-0.4c0.1,0,0.2,0,0.3,0.1l9.6,3.3c0.4,0.1,0.4,0.3,0.4,0.6s0,0.5-0.4,0.6c0,0-9.7,3.3-9.8,3.3
				C1115.9,28.3,1115.8,28.3,1115.8,28.3z"/>
		</g>
	</g>
	<g transform="matrix(0.620079,0,0,0.620079,0,0)">
		<path vector-effect="none" class="st6" d="M1088.2,67.1h27.5v-4h-27.5V67.1"/>
	</g>
	<g transform="matrix(0.620079,0,0,0.620079,0,0)">
		<line vector-effect="none" class="st5" x1="0" y1="195.8" x2="1161.2" y2="195.8"/>
	</g>
	<g transform="matrix(0.620079,0,0,0.620079,0,0)">
		<line vector-effect="none" class="st5" x1="0" y1="187.8" x2="1161.2" y2="187.8"/>
	</g>
	<g transform="matrix(0.620079,0,0,0.620079,0,0)">
		<line vector-effect="none" class="st5" x1="0" y1="179.8" x2="1161.2" y2="179.8"/>
	</g>
	<g transform="matrix(0.620079,0,0,0.620079,0,0)">
		<line vector-effect="none" class="st5" x1="0" y1="171.8" x2="1161.2" y2="171.8"/>
	</g>
	<g transform="matrix(0.620079,0,0,0.620079,0,0)">
		<line vector-effect="none" class="st5" x1="0" y1="163.8" x2="1161.2" y2="163.8"/>
	</g>
	<g transform="matrix(0.620079,0,0,0.620079,0,0)">
		<g class="st2">
			<path d="M23,172.7c0,4.2-1.7,8.1-4.4,11.1c-3.4,3.6-7.5,6.1-11.7,8.2c-0.2,0.1-0.4,0.2-0.5,0.2c-0.3,0-0.4-0.2-0.4-0.4
				c0-0.3,0.2-0.4,0.5-0.6c4-2.3,7.3-5,9.2-8c2-3.1,2.7-6.9,2.7-10.2c0-5-1.5-8.3-4.9-8.3c-3.3,0-5.2,2.3-5.2,3.6
				c0,0.3,0.1,0.6,0.5,0.6c0.4,0,0.7-0.2,1.6-0.2c1.6,0,3.1,1.3,3.1,3.3c0,2-1.4,3.4-3.4,3.4c-2.6,0-3.9-2.2-3.9-4.8
				c0-3.1,2.5-7.1,8.1-7.1C19.6,163.5,23,167.2,23,172.7z M27.9,167.8c0,1-0.8,1.8-1.8,1.8c-1,0-1.8-0.8-1.8-1.8
				c0-1,0.8-1.8,1.8-1.8C27.1,166.1,27.9,166.9,27.9,167.8z M27.9,175.8c0,1-0.7,1.7-1.7,1.7c-1,0-1.7-0.7-1.7-1.7
				c0-1,0.7-1.7,1.7-1.7C27.1,174.1,27.9,174.8,27.9,175.8z"/>
		</g>
	</g>
	<g transform="matrix(0.620079,0,0,0.620079,0,0)">
		<g class="st2">
			<path d="M34,174.7c0-0.6,0.5-0.9,1-0.9c0.3,0,0.6,0.2,0.6,0.5c0,0.6-0.2,8.3-0.2,9c0,0.2,0.1,0.4,0.4,0.5c0.1,0,0.1,0,0.2,0
				c0.3,0,0.5-0.3,0.7-0.4c0.4-0.2,0.7-0.4,1.1-0.4c0.2-0.1,0.4-0.1,0.7-0.1c1.5,0.1,2.9,1.2,2.9,3.1c0,1.5-1,3.4-3.8,5.4
				c-0.8,0.5-1.6,1.4-2.5,2c0,0-0.1,0.1-0.2,0.1s-0.2,0-0.3-0.2C34.1,193,34,174.7,34,174.7z M35.9,190.9c0.1,0,0.2,0,0.3-0.1
				c1-0.6,1.9-1.6,2.3-2.4c0.4-0.7,0.5-1.3,0.5-1.9c0-0.6-0.2-1.2-0.5-1.5c-0.2-0.2-0.5-0.4-0.8-0.4c-0.3,0-0.5,0.1-0.8,0.2
				c-0.4,0.3-1.3,1-1.4,1.3c0,0.1-0.1,0.5-0.1,1c0,1.3,0.1,3.2,0.1,3.2C35.5,190.6,35.6,190.9,35.9,190.9z"/>
		</g>
	</g>
	<g transform="matrix(0.620079,0,0,0.620079,0,0)">
		<g class="st2">
			<path d="M74.5,147.8c-0.2,0-0.4-0.3-0.4-0.5c0-0.1-0.1-0.2-0.1-0.3c0-0.2,0.1-0.3,0.4-0.5c0,0,6.8-2.3,7.2-2.4
				c0.2-0.1,0.3-0.1,0.3-0.2s-0.1-0.2-0.2-0.2c-0.3-0.1-7.2-2.5-7.2-2.5c-0.4-0.1-0.4-0.3-0.4-0.4c0-0.1,0-0.2,0.1-0.3
				c0.1-0.3,0.2-0.4,0.5-0.4c0.1,0,0.2,0,0.3,0.1l9.6,3.3c0.4,0.1,0.4,0.3,0.4,0.6s0,0.5-0.4,0.6c0,0-9.7,3.3-9.8,3.3
				C74.6,147.8,74.5,147.8,74.5,147.8z"/>
		</g>
	</g>
	<g transform="matrix(0.620079,0,0,0.620079,0,0)">
		<g class="st2">
			<path d="M181.3,147.8c-0.7,0-1.3-0.6-1.3-1.3c0-0.7,0.6-1.3,1.3-1.3c0.7,0,1.3,0.6,1.3,1.3C182.6,147.2,182,147.8,181.3,147.8z"
				/>
		</g>
	</g>
	<g transform="matrix(0.620079,0,0,0.620079,0,0)">
		<g class="st2">
			<path d="M176.5,143.1c-0.2,0-0.4-0.3-0.4-0.5c0-0.1-0.1-0.2-0.1-0.3c0-0.2,0.1-0.3,0.4-0.5c0,0,6.8-2.3,7.2-2.4
				c0.2-0.1,0.3-0.1,0.3-0.2s-0.1-0.2-0.2-0.2c-0.3-0.1-7.2-2.5-7.2-2.5c-0.4-0.1-0.4-0.3-0.4-0.4c0-0.1,0-0.2,0.1-0.3
				c0.1-0.3,0.2-0.4,0.5-0.4c0.1,0,0.2,0,0.3,0.1l9.6,3.3c0.4,0.1,0.4,0.3,0.4,0.6s0,0.5-0.4,0.6c0,0-9.7,3.3-9.8,3.3
				C176.6,143.1,176.5,143.1,176.5,143.1z"/>
		</g>
	</g>
	<g transform="matrix(0.620079,0,0,0.620079,0,0)">
		<g class="st2">
			<path d="M212,147.8c-0.7,0-1.3-0.6-1.3-1.3c0-0.7,0.6-1.3,1.3-1.3c0.7,0,1.3,0.6,1.3,1.3C213.4,147.2,212.8,147.8,212,147.8z"/>
		</g>
	</g>
	<g transform="matrix(0.620079,0,0,0.620079,0,0)">
		<g class="st2">
			<path d="M207.3,143.1c-0.2,0-0.4-0.3-0.4-0.5c0-0.1-0.1-0.2-0.1-0.3c0-0.2,0.1-0.3,0.4-0.5c0,0,6.8-2.3,7.2-2.4
				c0.2-0.1,0.3-0.1,0.3-0.2s-0.1-0.2-0.2-0.2c-0.3-0.1-7.2-2.5-7.2-2.5c-0.4-0.1-0.4-0.3-0.4-0.4c0-0.1,0-0.2,0.1-0.3
				c0.1-0.3,0.2-0.4,0.5-0.4c0.1,0,0.2,0,0.3,0.1l9.6,3.3c0.4,0.1,0.4,0.3,0.4,0.6s0,0.5-0.4,0.6c0,0-9.7,3.3-9.8,3.3
				C207.4,143.1,207.3,143.1,207.3,143.1z"/>
		</g>
	</g>
	<g transform="matrix(0.620079,0,0,0.620079,0,0)">
		<g class="st2">
			<path d="M242.5,147.8c-0.7,0-1.3-0.6-1.3-1.3c0-0.7,0.6-1.3,1.3-1.3c0.7,0,1.3,0.6,1.3,1.3C243.9,147.2,243.3,147.8,242.5,147.8z
				"/>
		</g>
	</g>
	<g transform="matrix(0.620079,0,0,0.620079,0,0)">
		<g class="st2">
			<path d="M237.8,143.1c-0.2,0-0.4-0.3-0.4-0.5c0-0.1-0.1-0.2-0.1-0.3c0-0.2,0.1-0.3,0.4-0.5c0,0,6.8-2.3,7.2-2.4
				c0.2-0.1,0.3-0.1,0.3-0.2s-0.1-0.2-0.2-0.2c-0.3-0.1-7.2-2.5-7.2-2.5c-0.4-0.1-0.4-0.3-0.4-0.4c0-0.1,0-0.2,0.1-0.3
				c0.1-0.3,0.2-0.4,0.5-0.4c0.1,0,0.2,0,0.3,0.1l9.6,3.3c0.4,0.1,0.4,0.3,0.4,0.6s0,0.5-0.4,0.6c0,0-9.7,3.3-9.8,3.3
				C237.9,143.1,237.8,143.1,237.8,143.1z"/>
		</g>
	</g>
	<g transform="matrix(0.620079,0,0,0.620079,0,0)">
		<path vector-effect="none" class="st6" d="M207.2,181.8h30.5v-4h-30.5V181.8"/>
	</g>
	<g transform="matrix(0.620079,0,0,0.620079,0,0)">
		<g class="st2">
			<path d="M310,147.8c-0.2,0-0.4-0.3-0.4-0.5c0-0.1-0.1-0.2-0.1-0.3c0-0.2,0.1-0.3,0.4-0.5c0,0,6.8-2.3,7.2-2.4
				c0.2-0.1,0.3-0.1,0.3-0.2s-0.1-0.2-0.2-0.2c-0.3-0.1-7.2-2.5-7.2-2.5c-0.4-0.1-0.4-0.3-0.4-0.4c0-0.1,0-0.2,0.1-0.3
				c0.1-0.3,0.2-0.4,0.5-0.4c0.1,0,0.2,0,0.3,0.1l9.6,3.3c0.4,0.1,0.4,0.3,0.4,0.6s0,0.5-0.4,0.6c0,0-9.7,3.3-9.8,3.3
				C310.1,147.8,310,147.8,310,147.8z"/>
		</g>
	</g>
	<g transform="matrix(0.620079,0,0,0.620079,0,0)">
		<g class="st2">
			<path d="M417,147.8c-0.7,0-1.3-0.6-1.3-1.3c0-0.7,0.6-1.3,1.3-1.3c0.7,0,1.3,0.6,1.3,1.3C418.4,147.2,417.8,147.8,417,147.8z"/>
		</g>
	</g>
	<g transform="matrix(0.620079,0,0,0.620079,0,0)">
		<g class="st2">
			<path d="M412.3,143.1c-0.2,0-0.4-0.3-0.4-0.5c0-0.1-0.1-0.2-0.1-0.3c0-0.2,0.1-0.3,0.4-0.5c0,0,6.8-2.3,7.2-2.4
				c0.2-0.1,0.3-0.1,0.3-0.2s-0.1-0.2-0.2-0.2c-0.3-0.1-7.2-2.5-7.2-2.5c-0.4-0.1-0.4-0.3-0.4-0.4c0-0.1,0-0.2,0.1-0.3
				c0.1-0.3,0.2-0.4,0.5-0.4c0.1,0,0.2,0,0.3,0.1l9.6,3.3c0.4,0.1,0.4,0.3,0.4,0.6s0,0.5-0.4,0.6c0,0-9.7,3.3-9.8,3.3
				C412.4,143.1,412.3,143.1,412.3,143.1z"/>
		</g>
	</g>
	<g transform="matrix(0.620079,0,0,0.620079,0,0)">
		<g class="st2">
			<path d="M447.5,147.8c-0.7,0-1.3-0.6-1.3-1.3c0-0.7,0.6-1.3,1.3-1.3c0.7,0,1.3,0.6,1.3,1.3C448.9,147.2,448.3,147.8,447.5,147.8z
				"/>
		</g>
	</g>
	<g transform="matrix(0.620079,0,0,0.620079,0,0)">
		<g class="st2">
			<path d="M442.8,143.1c-0.2,0-0.4-0.3-0.4-0.5c0-0.1-0.1-0.2-0.1-0.3c0-0.2,0.1-0.3,0.4-0.5c0,0,6.8-2.3,7.2-2.4
				c0.2-0.1,0.3-0.1,0.3-0.2s-0.1-0.2-0.2-0.2c-0.3-0.1-7.2-2.5-7.2-2.5c-0.4-0.1-0.4-0.3-0.4-0.4c0-0.1,0-0.2,0.1-0.3
				c0.1-0.3,0.2-0.4,0.5-0.4c0.1,0,0.2,0,0.3,0.1l9.6,3.3c0.4,0.1,0.4,0.3,0.4,0.6s0,0.5-0.4,0.6c0,0-9.7,3.3-9.8,3.3
				C442.9,143.1,442.8,143.1,442.8,143.1z"/>
		</g>
	</g>
	<g transform="matrix(0.620079,0,0,0.620079,0,0)">
		<g class="st2">
			<path d="M478,147.8c-0.7,0-1.3-0.6-1.3-1.3c0-0.7,0.6-1.3,1.3-1.3c0.7,0,1.3,0.6,1.3,1.3C479.4,147.2,478.8,147.8,478,147.8z"/>
		</g>
	</g>
	<g transform="matrix(0.620079,0,0,0.620079,0,0)">
		<g class="st2">
			<path d="M473.3,143.1c-0.2,0-0.4-0.3-0.4-0.5c0-0.1-0.1-0.2-0.1-0.3c0-0.2,0.1-0.3,0.4-0.5c0,0,6.8-2.3,7.2-2.4
				c0.2-0.1,0.3-0.1,0.3-0.2s-0.1-0.2-0.2-0.2c-0.3-0.1-7.2-2.5-7.2-2.5c-0.4-0.1-0.4-0.3-0.4-0.4c0-0.1,0-0.2,0.1-0.3
				c0.1-0.3,0.2-0.4,0.5-0.4c0.1,0,0.2,0,0.3,0.1l9.6,3.3c0.4,0.1,0.4,0.3,0.4,0.6s0,0.5-0.4,0.6c0,0-9.7,3.3-9.8,3.3
				C473.4,143.1,473.3,143.1,473.3,143.1z"/>
		</g>
	</g>
	<g transform="matrix(0.620079,0,0,0.620079,0,0)">
		<path vector-effect="none" class="st6" d="M442.8,181.8h30.5v-4h-30.5V181.8"/>
	</g>
	<g transform="matrix(0.620079,0,0,0.620079,0,0)">
		<g class="st2">
			<path d="M545.8,147.8c-0.2,0-0.4-0.3-0.4-0.5c0-0.1-0.1-0.2-0.1-0.3c0-0.2,0.1-0.3,0.4-0.5c0,0,6.8-2.3,7.2-2.4
				c0.2-0.1,0.3-0.1,0.3-0.2s-0.1-0.2-0.2-0.2c-0.3-0.1-7.2-2.5-7.2-2.5c-0.4-0.1-0.4-0.3-0.4-0.4c0-0.1,0-0.2,0.1-0.3
				c0.1-0.3,0.2-0.4,0.5-0.4c0.1,0,0.2,0,0.3,0.1l9.6,3.3c0.4,0.1,0.4,0.3,0.4,0.6s0,0.5-0.4,0.6c0,0-9.7,3.3-9.8,3.3
				C545.9,147.8,545.8,147.8,545.8,147.8z"/>
		</g>
	</g>
	<g transform="matrix(0.620079,0,0,0.620079,0,0)">
		<g class="st2">
			<path d="M652.5,147.8c-0.7,0-1.3-0.6-1.3-1.3c0-0.7,0.6-1.3,1.3-1.3s1.3,0.6,1.3,1.3C653.9,147.2,653.3,147.8,652.5,147.8z"/>
		</g>
	</g>
	<g transform="matrix(0.620079,0,0,0.620079,0,0)">
		<g class="st2">
			<path d="M647.8,143.1c-0.2,0-0.4-0.3-0.4-0.5c0-0.1-0.1-0.2-0.1-0.3c0-0.2,0.1-0.3,0.4-0.5c0,0,6.8-2.3,7.2-2.4
				c0.2-0.1,0.3-0.1,0.3-0.2s-0.1-0.2-0.2-0.2c-0.3-0.1-7.2-2.5-7.2-2.5c-0.4-0.1-0.4-0.3-0.4-0.4c0-0.1,0-0.2,0.1-0.3
				c0.1-0.3,0.2-0.4,0.5-0.4c0.1,0,0.2,0,0.3,0.1l9.6,3.3c0.4,0.1,0.4,0.3,0.4,0.6s0,0.5-0.4,0.6c0,0-9.7,3.3-9.8,3.3
				C647.9,143.1,647.8,143.1,647.8,143.1z"/>
		</g>
	</g>
	<g transform="matrix(0.620079,0,0,0.620079,0,0)">
		<g class="st2">
			<path d="M683,147.8c-0.7,0-1.3-0.6-1.3-1.3c0-0.7,0.6-1.3,1.3-1.3c0.7,0,1.3,0.6,1.3,1.3C684.4,147.2,683.8,147.8,683,147.8z"/>
		</g>
	</g>
	<g transform="matrix(0.620079,0,0,0.620079,0,0)">
		<g class="st2">
			<path d="M678.3,143.1c-0.2,0-0.4-0.3-0.4-0.5c0-0.1-0.1-0.2-0.1-0.3c0-0.2,0.1-0.3,0.4-0.5c0,0,6.8-2.3,7.2-2.4
				c0.2-0.1,0.3-0.1,0.3-0.2s-0.1-0.2-0.2-0.2c-0.3-0.1-7.2-2.5-7.2-2.5c-0.4-0.1-0.4-0.3-0.4-0.4c0-0.1,0-0.2,0.1-0.3
				c0.1-0.3,0.2-0.4,0.5-0.4c0.1,0,0.2,0,0.3,0.1l9.6,3.3c0.4,0.1,0.4,0.3,0.4,0.6s0,0.5-0.4,0.6c0,0-9.7,3.3-9.8,3.3
				C678.4,143.1,678.3,143.1,678.3,143.1z"/>
		</g>
	</g>
	<g transform="matrix(0.620079,0,0,0.620079,0,0)">
		<g class="st2">
			<path d="M713.5,147.8c-0.7,0-1.3-0.6-1.3-1.3c0-0.7,0.6-1.3,1.3-1.3c0.7,0,1.3,0.6,1.3,1.3C714.9,147.2,714.3,147.8,713.5,147.8z
				"/>
		</g>
	</g>
	<g transform="matrix(0.620079,0,0,0.620079,0,0)">
		<g class="st2">
			<path d="M708.8,143.1c-0.2,0-0.4-0.3-0.4-0.5c0-0.1-0.1-0.2-0.1-0.3c0-0.2,0.1-0.3,0.4-0.5c0,0,6.8-2.3,7.2-2.4
				c0.2-0.1,0.3-0.1,0.3-0.2s-0.1-0.2-0.2-0.2c-0.3-0.1-7.2-2.5-7.2-2.5c-0.4-0.1-0.4-0.3-0.4-0.4c0-0.1,0-0.2,0.1-0.3
				c0.1-0.3,0.2-0.4,0.5-0.4c0.1,0,0.2,0,0.3,0.1l9.6,3.3c0.4,0.1,0.4,0.3,0.4,0.6s0,0.5-0.4,0.6c0,0-9.7,3.3-9.8,3.3
				C708.9,143.1,708.8,143.1,708.8,143.1z"/>
		</g>
	</g>
	<g transform="matrix(0.620079,0,0,0.620079,0,0)">
		<path vector-effect="none" class="st6" d="M678.2,181.8h30.5v-4h-30.5V181.8"/>
	</g>
	<g transform="matrix(0.620079,0,0,0.620079,0,0)">
		<g class="st2">
			<path d="M781.3,147.8c-0.2,0-0.4-0.3-0.4-0.5c0-0.1-0.1-0.2-0.1-0.3c0-0.2,0.1-0.3,0.4-0.5c0,0,6.8-2.3,7.2-2.4
				c0.2-0.1,0.3-0.1,0.3-0.2s-0.1-0.2-0.2-0.2c-0.3-0.1-7.2-2.5-7.2-2.5c-0.4-0.1-0.4-0.3-0.4-0.4c0-0.1,0-0.2,0.1-0.3
				c0.1-0.3,0.2-0.4,0.5-0.4c0.1,0,0.2,0,0.3,0.1l9.6,3.3c0.4,0.1,0.4,0.3,0.4,0.6s0,0.5-0.4,0.6c0,0-9.7,3.3-9.8,3.3
				C781.4,147.8,781.3,147.8,781.3,147.8z"/>
		</g>
	</g>
	<g transform="matrix(0.620079,0,0,0.620079,0,0)">
		<g class="st2">
			<path d="M888,147.8c-0.7,0-1.3-0.6-1.3-1.3c0-0.7,0.6-1.3,1.3-1.3c0.7,0,1.3,0.6,1.3,1.3C889.4,147.2,888.8,147.8,888,147.8z"/>
		</g>
	</g>
	<g transform="matrix(0.620079,0,0,0.620079,0,0)">
		<g class="st2">
			<path d="M883.3,143.1c-0.2,0-0.4-0.3-0.4-0.5c0-0.1-0.1-0.2-0.1-0.3c0-0.2,0.1-0.3,0.4-0.5c0,0,6.8-2.3,7.2-2.4
				c0.2-0.1,0.3-0.1,0.3-0.2s-0.1-0.2-0.2-0.2c-0.3-0.1-7.2-2.5-7.2-2.5c-0.4-0.1-0.4-0.3-0.4-0.4c0-0.1,0-0.2,0.1-0.3
				c0.1-0.3,0.2-0.4,0.5-0.4c0.1,0,0.2,0,0.3,0.1l9.6,3.3c0.4,0.1,0.4,0.3,0.4,0.6s0,0.5-0.4,0.6c0,0-9.7,3.3-9.8,3.3
				C883.4,143.1,883.3,143.1,883.3,143.1z"/>
		</g>
	</g>
	<g transform="matrix(0.620079,0,0,0.620079,0,0)">
		<g class="st2">
			<path d="M918.5,147.8c-0.7,0-1.3-0.6-1.3-1.3c0-0.7,0.6-1.3,1.3-1.3c0.7,0,1.3,0.6,1.3,1.3C919.9,147.2,919.3,147.8,918.5,147.8z
				"/>
		</g>
	</g>
	<g transform="matrix(0.620079,0,0,0.620079,0,0)">
		<g class="st2">
			<path d="M913.8,143.1c-0.2,0-0.4-0.3-0.4-0.5c0-0.1-0.1-0.2-0.1-0.3c0-0.2,0.1-0.3,0.4-0.5c0,0,6.8-2.3,7.2-2.4
				c0.2-0.1,0.3-0.1,0.3-0.2s-0.1-0.2-0.2-0.2c-0.3-0.1-7.2-2.5-7.2-2.5c-0.4-0.1-0.4-0.3-0.4-0.4c0-0.1,0-0.2,0.1-0.3
				c0.1-0.3,0.2-0.4,0.5-0.4c0.1,0,0.2,0,0.3,0.1l9.6,3.3c0.4,0.1,0.4,0.3,0.4,0.6s0,0.5-0.4,0.6c0,0-9.7,3.3-9.8,3.3
				C913.9,143.1,913.8,143.1,913.8,143.1z"/>
		</g>
	</g>
	<g transform="matrix(0.620079,0,0,0.620079,0,0)">
		<g class="st2">
			<path d="M949.3,147.8c-0.7,0-1.3-0.6-1.3-1.3c0-0.7,0.6-1.3,1.3-1.3c0.7,0,1.3,0.6,1.3,1.3C950.6,147.2,950,147.8,949.3,147.8z"
				/>
		</g>
	</g>
	<g transform="matrix(0.620079,0,0,0.620079,0,0)">
		<g class="st2">
			<path d="M944.5,143.1c-0.2,0-0.4-0.3-0.4-0.5c0-0.1-0.1-0.2-0.1-0.3c0-0.2,0.1-0.3,0.4-0.5c0,0,6.8-2.3,7.2-2.4
				c0.2-0.1,0.3-0.1,0.3-0.2s-0.1-0.2-0.2-0.2c-0.3-0.1-7.2-2.5-7.2-2.5c-0.4-0.1-0.4-0.3-0.4-0.4c0-0.1,0-0.2,0.1-0.3
				c0.1-0.3,0.2-0.4,0.5-0.4c0.1,0,0.2,0,0.3,0.1l9.6,3.3c0.4,0.1,0.4,0.3,0.4,0.6s0,0.5-0.4,0.6c0,0-9.7,3.3-9.8,3.3
				C944.6,143.1,944.5,143.1,944.5,143.1z"/>
		</g>
	</g>
	<g transform="matrix(0.620079,0,0,0.620079,0,0)">
		<path vector-effect="none" class="st6" d="M913.8,181.8h30.8v-4h-30.8V181.8"/>
	</g>
	<g transform="matrix(0.620079,0,0,0.620079,0,0)">
		<g class="st2">
			<path d="M1006,147.8c-0.2,0-0.4-0.3-0.4-0.5c0-0.1-0.1-0.2-0.1-0.3c0-0.2,0.1-0.3,0.4-0.5c0,0,6.8-2.3,7.2-2.4
				c0.2-0.1,0.3-0.1,0.3-0.2s-0.1-0.2-0.2-0.2c-0.3-0.1-7.2-2.5-7.2-2.5c-0.4-0.1-0.4-0.3-0.4-0.4c0-0.1,0-0.2,0.1-0.3
				c0.1-0.3,0.2-0.4,0.5-0.4c0.1,0,0.2,0,0.3,0.1l9.6,3.3c0.4,0.1,0.4,0.3,0.4,0.6s0,0.5-0.4,0.6c0,0-9.7,3.3-9.8,3.3
				C1006.1,147.8,1006,147.8,1006,147.8z"/>
		</g>
	</g>
	<g transform="matrix(0.620079,0,0,0.620079,0,0)">
		<line vector-effect="none" class="st1" x1="95" y1="41.1" x2="111" y2="41.1"/>
	</g>
	<g transform="matrix(0.620079,0,0,0.620079,0,0)">
		<line vector-effect="none" class="st5" x1="98.2" y1="42.3" x2="98.2" y2="69.1"/>
	</g>
	<g transform="matrix(0.620079,0,0,0.620079,0,0)">
		<g class="st2">
			<path d="M97.7,42.6c0-3.1,3.2-6,7.1-6c2.1,0,3.5,1.2,3.5,3c0,3-3.9,6-7.1,6C99.3,45.6,97.7,44.5,97.7,42.6z"/>
		</g>
	</g>
	<g transform="matrix(0.620079,0,0,0.620079,0,0)">
		<line vector-effect="none" class="st1" x1="132.8" y1="41.1" x2="148.8" y2="41.1"/>
	</g>
	<g transform="matrix(0.620079,0,0,0.620079,0,0)">
		<line vector-effect="none" class="st5" x1="136" y1="42.3" x2="136" y2="69.1"/>
	</g>
	<g transform="matrix(0.620079,0,0,0.620079,0,0)">
		<g class="st2">
			<path d="M135.5,42.6c0-3.1,3.2-6,7.1-6c2.1,0,3.5,1.2,3.5,3c0,3-3.9,6-7.1,6C137,45.6,135.5,44.5,135.5,42.6z"/>
		</g>
	</g>
	<g transform="matrix(0.620079,0,0,0.620079,0,0)">
		<g class="st2">
			<path d="M181.2,60.3c0,0.2-0.2,0.7-0.3,1.2c0,0-3.1,11.2-3.2,11.3c-0.3,0.3-0.8,0.3-1.1,0.3c-0.2,0-0.9,0-0.9-0.4
				c0.6-2.1,2.9-8.5,3-9c0-0.1,0-0.3,0-0.4c0-0.2,0-0.3-0.2-0.3c0,0-0.1,0-0.2,0c-0.4,0.2-0.7,0.4-1.2,0.5c-0.4,0.1-0.8,0.2-1.2,0.2
				c-0.3,0-0.6-0.1-0.8-0.1c-0.3-0.1-0.6-0.2-0.9-0.4c-0.5-0.4-0.9-1-0.9-1.6c0-1.2,1-2.1,2.1-2.1c1.2,0,2.1,1,2.1,2.1V62
				c1.1,0,2.7-1.9,2.9-2.1c0.2-0.1,0.3-0.1,0.4-0.1C180.8,59.8,181.2,59.8,181.2,60.3z"/>
		</g>
	</g>
	<g transform="matrix(0.620079,0,0,0.620079,0,0)">
		<line vector-effect="none" class="st1" x1="198" y1="41.1" x2="214" y2="41.1"/>
	</g>
	<g transform="matrix(0.620079,0,0,0.620079,0,0)">
		<line vector-effect="none" class="st5" x1="201.2" y1="42.3" x2="201.2" y2="69.1"/>
	</g>
	<g transform="matrix(0.620079,0,0,0.620079,0,0)">
		<g class="st2">
			<path d="M200.7,42.6c0-3.1,3.2-6,7.1-6c2.1,0,3.5,1.2,3.5,3c0,3-3.9,6-7.1,6C202.3,45.6,200.7,44.5,200.7,42.6z"/>
		</g>
	</g>
	<g transform="matrix(0.620079,0,0,0.620079,0,0)">
		<g class="st2">
			<path d="M200.9,61.1c0.1,0,0.2,0,0.3,0c1.1-0.1,4.2-0.4,5.9-5.2c0.3-0.9,0.6-2.5,0.6-4.2c0-1.6-0.2-3.3-0.8-4.7
				c-0.1-0.2-0.1-0.3-0.1-0.4c0-0.4,0.3-0.7,0.5-0.8c0.1,0,0.1,0,0.2,0c0.2,0,0.5,0.2,0.7,0.5c0.1,0.3,1.1,3.6,1.1,5.4v0.2
				c-0.1,3.5-1.6,6.8-3.6,9.6c-1.6,2.1-3.1,4.2-3.6,6.8c-0.1,0.4-0.4,0.7-0.7,0.7c-0.2,0-0.4-0.4-0.4-0.4V61.1z"/>
		</g>
	</g>
	<g transform="matrix(0.620079,0,0,0.620079,0,0)">
		<line vector-effect="none" class="st1" x1="225.2" y1="41.1" x2="241.2" y2="41.1"/>
	</g>
	<g transform="matrix(0.620079,0,0,0.620079,0,0)">
		<line vector-effect="none" class="st5" x1="228.5" y1="42.3" x2="228.5" y2="66.8"/>
	</g>
	<g transform="matrix(0.620079,0,0,0.620079,0,0)">
		<g class="st2">
			<path d="M228,42.6c0-3.1,3.2-6,7.1-6c2.1,0,3.5,1.2,3.5,3c0,3-3.9,6-7.1,6C229.5,45.6,228,44.5,228,42.6z"/>
		</g>
	</g>
	<g transform="matrix(0.620079,0,0,0.620079,0,0)">
		<line vector-effect="none" class="st1" x1="252.5" y1="41.1" x2="268.5" y2="41.1"/>
	</g>
	<g transform="matrix(0.620079,0,0,0.620079,0,0)">
		<line vector-effect="none" class="st5" x1="255.7" y1="42.3" x2="255.7" y2="66.8"/>
	</g>
	<g transform="matrix(0.620079,0,0,0.620079,0,0)">
		<g class="st2">
			<path d="M255.3,42.6c0-3.1,3.2-6,7.1-6c2.1,0,3.5,1.2,3.5,3c0,3-3.9,6-7.1,6C256.8,45.6,255.3,44.5,255.3,42.6z"/>
		</g>
	</g>
	<g transform="matrix(0.620079,0,0,0.620079,0,0)">
		<line vector-effect="none" class="st1" x1="321.2" y1="41.1" x2="338.2" y2="41.1"/>
	</g>
	<g transform="matrix(0.620079,0,0,0.620079,0,0)">
		<line vector-effect="none" class="st5" x1="324.8" y1="42.3" x2="324.8" y2="69.1"/>
	</g>
	<g transform="matrix(0.620079,0,0,0.620079,0,0)">
		<g class="st2">
			<path d="M324.2,42.7c0-1.9,1.7-6.2,7.3-6.2c2.1,0,3.6,1.2,3.6,3.1c0,1.2-1.2,6.2-7.3,6.2C325.8,45.7,324.2,44.6,324.2,42.7z
				 M334,39.5c0-0.3-0.1-0.5-0.2-0.7c-0.3-0.4-0.6-0.8-1.3-0.8c-0.8,0-1.9,0.4-3.7,1.4c-2.6,1.5-3.4,2.5-3.4,3.3
				c0,0.3,0.1,0.5,0.2,0.7c0.3,0.4,0.7,0.8,1.5,0.8c0.8,0,2-0.4,3.6-1.5C333.2,41.1,334,40.2,334,39.5z"/>
		</g>
	</g>
	<g transform="matrix(0.620079,0,0,0.620079,0,0)">
		<g class="st2">
			<path d="M396.2,60.3c0,0.2-0.2,0.7-0.3,1.2c0,0-3.1,11.2-3.2,11.3c-0.3,0.3-0.8,0.3-1.1,0.3c-0.2,0-0.9,0-0.9-0.4
				c0.6-2.1,2.9-8.5,3-9c0-0.1,0-0.3,0-0.4c0-0.2,0-0.3-0.2-0.3c0,0-0.1,0-0.2,0c-0.4,0.2-0.7,0.4-1.2,0.5c-0.4,0.1-0.8,0.2-1.2,0.2
				c-0.3,0-0.6-0.1-0.8-0.1c-0.3-0.1-0.6-0.2-0.9-0.4c-0.5-0.4-0.9-1-0.9-1.6c0-1.2,1-2.1,2.1-2.1c1.2,0,2.1,1,2.1,2.1V62
				c1.1,0,2.7-1.9,2.9-2.1c0.2-0.1,0.3-0.1,0.4-0.1C395.8,59.8,396.2,59.8,396.2,60.3z"/>
		</g>
	</g>
	<g transform="matrix(0.620079,0,0,0.620079,0,0)">
		<line vector-effect="none" class="st1" x1="413" y1="41.1" x2="429" y2="41.1"/>
	</g>
	<g transform="matrix(0.620079,0,0,0.620079,0,0)">
		<line vector-effect="none" class="st5" x1="416.2" y1="42.3" x2="416.2" y2="69.1"/>
	</g>
	<g transform="matrix(0.620079,0,0,0.620079,0,0)">
		<g class="st2">
			<path d="M415.7,42.6c0-3.1,3.2-6,7.1-6c2.1,0,3.5,1.2,3.5,3c0,3-3.9,6-7.1,6C417.3,45.6,415.7,44.5,415.7,42.6z"/>
		</g>
	</g>
	<g transform="matrix(0.620079,0,0,0.620079,0,0)">
		<g class="st2">
			<path d="M415.9,61.1c0.1,0,0.2,0,0.3,0c1.1-0.1,4.2-0.4,5.9-5.2c0.3-0.9,0.6-2.5,0.6-4.2c0-1.6-0.2-3.3-0.8-4.7
				c-0.1-0.2-0.1-0.3-0.1-0.4c0-0.4,0.3-0.7,0.5-0.8c0.1,0,0.1,0,0.2,0c0.2,0,0.5,0.2,0.7,0.5c0.1,0.3,1.1,3.6,1.1,5.4v0.2
				c-0.1,3.5-1.6,6.8-3.6,9.6c-1.6,2.1-3.1,4.2-3.6,6.8c-0.1,0.4-0.4,0.7-0.7,0.7c-0.2,0-0.4-0.4-0.4-0.4V61.1z"/>
		</g>
	</g>
	<g transform="matrix(0.620079,0,0,0.620079,0,0)">
		<line vector-effect="none" class="st1" x1="440.2" y1="41.1" x2="456.2" y2="41.1"/>
	</g>
	<g transform="matrix(0.620079,0,0,0.620079,0,0)">
		<line vector-effect="none" class="st5" x1="443.5" y1="42.3" x2="443.5" y2="66.8"/>
	</g>
	<g transform="matrix(0.620079,0,0,0.620079,0,0)">
		<g class="st2">
			<path d="M443,42.6c0-3.1,3.2-6,7.1-6c2.1,0,3.5,1.2,3.5,3c0,3-3.9,6-7.1,6C444.5,45.6,443,44.5,443,42.6z"/>
		</g>
	</g>
	<g transform="matrix(0.620079,0,0,0.620079,0,0)">
		<line vector-effect="none" class="st1" x1="467.5" y1="41.1" x2="483.5" y2="41.1"/>
	</g>
	<g transform="matrix(0.620079,0,0,0.620079,0,0)">
		<line vector-effect="none" class="st5" x1="470.8" y1="42.3" x2="470.8" y2="66.8"/>
	</g>
	<g transform="matrix(0.620079,0,0,0.620079,0,0)">
		<g class="st2">
			<path d="M470.2,42.6c0-3.1,3.2-6,7.1-6c2.1,0,3.5,1.2,3.5,3c0,3-3.9,6-7.1,6C471.8,45.6,470.2,44.5,470.2,42.6z"/>
		</g>
	</g>
	<g transform="matrix(0.620079,0,0,0.620079,0,0)">
		<line vector-effect="none" class="st1" x1="536.2" y1="41.1" x2="553.2" y2="41.1"/>
	</g>
	<g transform="matrix(0.620079,0,0,0.620079,0,0)">
		<line vector-effect="none" class="st5" x1="539.8" y1="42.3" x2="539.8" y2="69.1"/>
	</g>
	<g transform="matrix(0.620079,0,0,0.620079,0,0)">
		<g class="st2">
			<path d="M539.2,42.7c0-1.9,1.7-6.2,7.3-6.2c2.1,0,3.6,1.2,3.6,3.1c0,1.2-1.2,6.2-7.3,6.2C540.8,45.7,539.2,44.6,539.2,42.7z
				 M549,39.5c0-0.3-0.1-0.5-0.2-0.7c-0.3-0.4-0.6-0.8-1.3-0.8c-0.8,0-1.9,0.4-3.7,1.4c-2.6,1.5-3.4,2.5-3.4,3.3
				c0,0.3,0.1,0.5,0.2,0.7c0.3,0.4,0.7,0.8,1.5,0.8c0.8,0,2-0.4,3.6-1.5C548.2,41.1,549,40.2,549,39.5z"/>
		</g>
	</g>
	<g transform="matrix(0.620079,0,0,0.620079,0,0)">
		<g class="st2">
			<path d="M611.1,60.3c0,0.2-0.2,0.7-0.3,1.2c0,0-3.1,11.2-3.2,11.3c-0.3,0.3-0.8,0.3-1.1,0.3c-0.2,0-0.9,0-0.9-0.4
				c0.6-2.1,2.9-8.5,3-9c0-0.1,0-0.3,0-0.4c0-0.2,0-0.3-0.2-0.3c0,0-0.1,0-0.2,0c-0.4,0.2-0.7,0.4-1.2,0.5c-0.4,0.1-0.8,0.2-1.2,0.2
				c-0.3,0-0.6-0.1-0.8-0.1c-0.3-0.1-0.6-0.2-0.9-0.4c-0.5-0.4-0.9-1-0.9-1.6c0-1.2,1-2.1,2.1-2.1c1.2,0,2.1,1,2.1,2.1V62
				c1.1,0,2.7-1.9,2.9-2.1c0.2-0.1,0.3-0.1,0.4-0.1C610.8,59.8,611.1,59.8,611.1,60.3z"/>
		</g>
	</g>
	<g transform="matrix(0.620079,0,0,0.620079,0,0)">
		<line vector-effect="none" class="st1" x1="627.8" y1="41.1" x2="643.8" y2="41.1"/>
	</g>
	<g transform="matrix(0.620079,0,0,0.620079,0,0)">
		<line vector-effect="none" class="st5" x1="631" y1="42.3" x2="631" y2="69.1"/>
	</g>
	<g transform="matrix(0.620079,0,0,0.620079,0,0)">
		<g class="st2">
			<path d="M630.5,42.6c0-3.1,3.2-6,7.1-6c2.1,0,3.5,1.2,3.5,3c0,3-3.9,6-7.1,6C632,45.6,630.5,44.5,630.5,42.6z"/>
		</g>
	</g>
	<g transform="matrix(0.620079,0,0,0.620079,0,0)">
		<g class="st2">
			<path d="M630.7,61.1c0.1,0,0.2,0,0.3,0c1.1-0.1,4.2-0.4,5.9-5.2c0.3-0.9,0.6-2.5,0.6-4.2c0-1.6-0.2-3.3-0.8-4.7
				c-0.1-0.2-0.1-0.3-0.1-0.4c0-0.4,0.3-0.7,0.5-0.8c0.1,0,0.1,0,0.2,0c0.2,0,0.5,0.2,0.7,0.5c0.1,0.3,1.1,3.6,1.1,5.4v0.2
				c-0.1,3.5-1.6,6.8-3.6,9.6c-1.6,2.1-3.1,4.2-3.6,6.8c-0.1,0.4-0.4,0.7-0.7,0.7c-0.2,0-0.4-0.4-0.4-0.4V61.1z"/>
		</g>
	</g>
	<g transform="matrix(0.620079,0,0,0.620079,0,0)">
		<line vector-effect="none" class="st1" x1="655.2" y1="41.1" x2="671.2" y2="41.1"/>
	</g>
	<g transform="matrix(0.620079,0,0,0.620079,0,0)">
		<line vector-effect="none" class="st5" x1="658.5" y1="42.3" x2="658.5" y2="66.8"/>
	</g>
	<g transform="matrix(0.620079,0,0,0.620079,0,0)">
		<g class="st2">
			<path d="M658,42.6c0-3.1,3.2-6,7.1-6c2.1,0,3.5,1.2,3.5,3c0,3-3.9,6-7.1,6C659.5,45.6,658,44.5,658,42.6z"/>
		</g>
	</g>
	<g transform="matrix(0.620079,0,0,0.620079,0,0)">
		<line vector-effect="none" class="st1" x1="682.5" y1="41.1" x2="698.5" y2="41.1"/>
	</g>
	<g transform="matrix(0.620079,0,0,0.620079,0,0)">
		<line vector-effect="none" class="st5" x1="685.8" y1="42.3" x2="685.8" y2="66.8"/>
	</g>
	<g transform="matrix(0.620079,0,0,0.620079,0,0)">
		<g class="st2">
			<path d="M685.2,42.6c0-3.1,3.2-6,7.1-6c2.1,0,3.5,1.2,3.5,3c0,3-3.9,6-7.1,6C686.8,45.6,685.2,44.5,685.2,42.6z"/>
		</g>
	</g>
	<g transform="matrix(0.620079,0,0,0.620079,0,0)">
		<line vector-effect="none" class="st1" x1="751" y1="41.1" x2="768" y2="41.1"/>
	</g>
	<g transform="matrix(0.620079,0,0,0.620079,0,0)">
		<line vector-effect="none" class="st5" x1="754.5" y1="42.3" x2="754.5" y2="69.1"/>
	</g>
	<g transform="matrix(0.620079,0,0,0.620079,0,0)">
		<g class="st2">
			<path d="M754,42.7c0-1.9,1.7-6.2,7.3-6.2c2.1,0,3.6,1.2,3.6,3.1c0,1.2-1.2,6.2-7.3,6.2C755.6,45.7,754,44.6,754,42.7z
				 M763.8,39.5c0-0.3-0.1-0.5-0.2-0.7c-0.3-0.4-0.6-0.8-1.3-0.8c-0.8,0-1.9,0.4-3.7,1.4c-2.6,1.5-3.4,2.5-3.4,3.3
				c0,0.3,0.1,0.5,0.2,0.7c0.3,0.4,0.7,0.8,1.5,0.8c0.8,0,2-0.4,3.6-1.5C763,41.1,763.8,40.2,763.8,39.5z"/>
		</g>
	</g>
	<g transform="matrix(0.620079,0,0,0.620079,0,0)">
		<g class="st2">
			<path d="M826.2,60.3c0,0.2-0.2,0.7-0.3,1.2c0,0-3.1,11.2-3.2,11.3c-0.3,0.3-0.8,0.3-1.1,0.3c-0.2,0-0.9,0-0.9-0.4
				c0.6-2.1,2.9-8.5,3-9c0-0.1,0-0.3,0-0.4c0-0.2,0-0.3-0.2-0.3c0,0-0.1,0-0.2,0c-0.4,0.2-0.7,0.4-1.2,0.5c-0.4,0.1-0.8,0.2-1.2,0.2
				c-0.3,0-0.6-0.1-0.8-0.1c-0.3-0.1-0.6-0.2-0.9-0.4c-0.5-0.4-0.9-1-0.9-1.6c0-1.2,1-2.1,2.1-2.1c1.2,0,2.1,1,2.1,2.1V62
				c1.1,0,2.7-1.9,2.9-2.1c0.2-0.1,0.3-0.1,0.4-0.1C825.8,59.8,826.2,59.8,826.2,60.3z"/>
		</g>
	</g>
	<g transform="matrix(0.620079,0,0,0.620079,0,0)">
		<line vector-effect="none" class="st1" x1="842.8" y1="41.1" x2="858.8" y2="41.1"/>
	</g>
	<g transform="matrix(0.620079,0,0,0.620079,0,0)">
		<line vector-effect="none" class="st5" x1="846" y1="42.3" x2="846" y2="69.1"/>
	</g>
	<g transform="matrix(0.620079,0,0,0.620079,0,0)">
		<g class="st2">
			<path d="M845.5,42.6c0-3.1,3.2-6,7.1-6c2.1,0,3.5,1.2,3.5,3c0,3-3.9,6-7.1,6C847,45.6,845.5,44.5,845.5,42.6z"/>
		</g>
	</g>
	<g transform="matrix(0.620079,0,0,0.620079,0,0)">
		<g class="st2">
			<path d="M845.7,61.1c0.1,0,0.2,0,0.3,0c1.1-0.1,4.2-0.4,5.9-5.2c0.3-0.9,0.6-2.5,0.6-4.2c0-1.6-0.2-3.3-0.8-4.7
				c-0.1-0.2-0.1-0.3-0.1-0.4c0-0.4,0.3-0.7,0.5-0.8c0.1,0,0.1,0,0.2,0c0.2,0,0.5,0.2,0.7,0.5c0.1,0.3,1.1,3.6,1.1,5.4v0.2
				c-0.1,3.5-1.6,6.8-3.6,9.6c-1.6,2.1-3.1,4.2-3.6,6.8c-0.1,0.4-0.4,0.7-0.7,0.7c-0.2,0-0.4-0.4-0.4-0.4V61.1z"/>
		</g>
	</g>
	<g transform="matrix(0.620079,0,0,0.620079,0,0)">
		<line vector-effect="none" class="st1" x1="870.2" y1="41.1" x2="886.2" y2="41.1"/>
	</g>
	<g transform="matrix(0.620079,0,0,0.620079,0,0)">
		<line vector-effect="none" class="st5" x1="873.5" y1="42.3" x2="873.5" y2="66.8"/>
	</g>
	<g transform="matrix(0.620079,0,0,0.620079,0,0)">
		<g class="st2">
			<path d="M873,42.6c0-3.1,3.2-6,7.1-6c2.1,0,3.5,1.2,3.5,3c0,3-3.9,6-7.1,6C874.5,45.6,873,44.5,873,42.6z"/>
		</g>
	</g>
	<g transform="matrix(0.620079,0,0,0.620079,0,0)">
		<line vector-effect="none" class="st1" x1="897.5" y1="41.1" x2="913.5" y2="41.1"/>
	</g>
	<g transform="matrix(0.620079,0,0,0.620079,0,0)">
		<line vector-effect="none" class="st5" x1="900.8" y1="42.3" x2="900.8" y2="66.8"/>
	</g>
	<g transform="matrix(0.620079,0,0,0.620079,0,0)">
		<g class="st2">
			<path d="M900.2,42.6c0-3.1,3.2-6,7.1-6c2.1,0,3.5,1.2,3.5,3c0,3-3.9,6-7.1,6C901.8,45.6,900.2,44.5,900.2,42.6z"/>
		</g>
	</g>
	<g transform="matrix(0.620079,0,0,0.620079,0,0)">
		<line vector-effect="none" class="st1" x1="966" y1="41.1" x2="983" y2="41.1"/>
	</g>
	<g transform="matrix(0.620079,0,0,0.620079,0,0)">
		<line vector-effect="none" class="st5" x1="969.5" y1="42.3" x2="969.5" y2="69.1"/>
	</g>
	<g transform="matrix(0.620079,0,0,0.620079,0,0)">
		<g class="st2">
			<path d="M969,42.7c0-1.9,1.7-6.2,7.3-6.2c2.1,0,3.6,1.2,3.6,3.1c0,1.2-1.2,6.2-7.3,6.2C970.6,45.7,969,44.6,969,42.7z
				 M978.8,39.5c0-0.3-0.1-0.5-0.2-0.7c-0.3-0.4-0.6-0.8-1.3-0.8c-0.8,0-1.9,0.4-3.7,1.4c-2.6,1.5-3.4,2.5-3.4,3.3
				c0,0.3,0.1,0.5,0.2,0.7c0.3,0.4,0.7,0.8,1.5,0.8c0.8,0,2-0.4,3.6-1.5C978,41.1,978.8,40.2,978.8,39.5z"/>
		</g>
	</g>
	<g transform="matrix(0.620079,0,0,0.620079,0,0)">
		<g class="st2">
			<path d="M1041.2,60.3c0,0.2-0.2,0.7-0.3,1.2c0,0-3.1,11.2-3.2,11.3c-0.3,0.3-0.8,0.3-1.1,0.3c-0.2,0-0.9,0-0.9-0.4
				c0.6-2.1,2.9-8.5,3-9c0-0.1,0-0.3,0-0.4c0-0.2,0-0.3-0.2-0.3c0,0-0.1,0-0.2,0c-0.4,0.2-0.7,0.4-1.2,0.5c-0.4,0.1-0.8,0.2-1.2,0.2
				c-0.3,0-0.6-0.1-0.8-0.1c-0.3-0.1-0.6-0.2-0.9-0.4c-0.5-0.4-0.9-1-0.9-1.6c0-1.2,1-2.1,2.1-2.1s2.1,1,2.1,2.1V62
				c1.1,0,2.7-1.9,2.9-2.1c0.2-0.1,0.3-0.1,0.4-0.1C1040.8,59.8,1041.2,59.8,1041.2,60.3z"/>
		</g>
	</g>
	<g transform="matrix(0.620079,0,0,0.620079,0,0)">
		<line vector-effect="none" class="st1" x1="1057.8" y1="41.1" x2="1073.8" y2="41.1"/>
	</g>
	<g transform="matrix(0.620079,0,0,0.620079,0,0)">
		<line vector-effect="none" class="st5" x1="1061" y1="42.3" x2="1061" y2="69.1"/>
	</g>
	<g transform="matrix(0.620079,0,0,0.620079,0,0)">
		<g class="st2">
			<path d="M1060.5,42.6c0-3.1,3.2-6,7.1-6c2.1,0,3.5,1.2,3.5,3c0,3-3.9,6-7.1,6C1062,45.6,1060.5,44.5,1060.5,42.6z"/>
		</g>
	</g>
	<g transform="matrix(0.620079,0,0,0.620079,0,0)">
		<g class="st2">
			<path d="M1060.7,61.1c0.1,0,0.2,0,0.3,0c1.1-0.1,4.2-0.4,5.9-5.2c0.3-0.9,0.6-2.5,0.6-4.2c0-1.6-0.2-3.3-0.8-4.7
				c-0.1-0.2-0.1-0.3-0.1-0.4c0-0.4,0.3-0.7,0.5-0.8c0.1,0,0.1,0,0.2,0c0.2,0,0.5,0.2,0.7,0.5c0.1,0.3,1.1,3.6,1.1,5.4v0.2
				c-0.1,3.5-1.6,6.8-3.6,9.6c-1.6,2.1-3.1,4.2-3.6,6.8c-0.1,0.4-0.4,0.7-0.7,0.7c-0.2,0-0.4-0.4-0.4-0.4V61.1z"/>
		</g>
	</g>
	<g transform="matrix(0.620079,0,0,0.620079,0,0)">
		<line vector-effect="none" class="st1" x1="1085" y1="41.1" x2="1101" y2="41.1"/>
	</g>
	<g transform="matrix(0.620079,0,0,0.620079,0,0)">
		<line vector-effect="none" class="st5" x1="1088.2" y1="42.3" x2="1088.2" y2="66.8"/>
	</g>
	<g transform="matrix(0.620079,0,0,0.620079,0,0)">
		<g class="st2">
			<path d="M1087.7,42.6c0-3.1,3.2-6,7.1-6c2.1,0,3.5,1.2,3.5,3c0,3-3.9,6-7.1,6C1089.3,45.6,1087.7,44.5,1087.7,42.6z"/>
		</g>
	</g>
	<g transform="matrix(0.620079,0,0,0.620079,0,0)">
		<line vector-effect="none" class="st1" x1="1112.5" y1="41.1" x2="1128.5" y2="41.1"/>
	</g>
	<g transform="matrix(0.620079,0,0,0.620079,0,0)">
		<line vector-effect="none" class="st5" x1="1115.8" y1="42.3" x2="1115.8" y2="66.8"/>
	</g>
	<g transform="matrix(0.620079,0,0,0.620079,0,0)">
		<g class="st2">
			<path d="M1115.3,42.6c0-3.1,3.2-6,7.1-6c2.1,0,3.5,1.2,3.5,3c0,3-3.9,6-7.1,6C1116.8,45.6,1115.3,44.5,1115.3,42.6z"/>
		</g>
	</g>
	<g transform="matrix(0.620079,0,0,0.620079,0,0)">
		<line vector-effect="none" class="st1" x1="70.8" y1="155.8" x2="87.8" y2="155.8"/>
	</g>
	<g transform="matrix(0.620079,0,0,0.620079,0,0)">
		<line vector-effect="none" class="st5" x1="74.2" y1="157.1" x2="74.2" y2="183.8"/>
	</g>
	<g transform="matrix(0.620079,0,0,0.620079,0,0)">
		<g class="st2">
			<path d="M73.7,157.4c0-1.9,1.7-6.2,7.3-6.2c2.1,0,3.6,1.2,3.6,3.1c0,1.2-1.2,6.2-7.3,6.2C75.3,160.5,73.7,159.4,73.7,157.4z
				 M83.5,154.2c0-0.3-0.1-0.5-0.2-0.7c-0.3-0.4-0.6-0.8-1.3-0.8c-0.8,0-1.9,0.4-3.7,1.4c-2.6,1.5-3.4,2.5-3.4,3.3
				c0,0.3,0.1,0.5,0.2,0.7c0.3,0.4,0.7,0.8,1.5,0.8c0.8,0,2-0.4,3.6-1.5C82.7,155.8,83.5,154.9,83.5,154.2z"/>
		</g>
	</g>
	<g transform="matrix(0.620079,0,0,0.620079,0,0)">
		<g class="st2">
			<path d="M153.4,175c0,0.2-0.2,0.7-0.3,1.2c0,0-3.1,11.2-3.2,11.3c-0.3,0.3-0.8,0.3-1.1,0.3c-0.2,0-0.9,0-0.9-0.4
				c0.6-2.1,2.9-8.5,3-9c0-0.1,0-0.3,0-0.4c0-0.2,0-0.3-0.2-0.3c0,0-0.1,0-0.2,0c-0.4,0.2-0.7,0.4-1.2,0.5c-0.4,0.1-0.8,0.2-1.2,0.2
				c-0.3,0-0.6-0.1-0.8-0.1c-0.3-0.1-0.6-0.2-0.9-0.4c-0.5-0.4-0.9-1-0.9-1.6c0-1.2,1-2.1,2.1-2.1c1.2,0,2.1,1,2.1,2.1v0.3
				c1.1,0,2.7-1.9,2.9-2.1c0.2-0.1,0.3-0.1,0.4-0.1C153.1,174.5,153.4,174.6,153.4,175z"/>
		</g>
	</g>
	<g transform="matrix(0.620079,0,0,0.620079,0,0)">
		<line vector-effect="none" class="st1" x1="173.2" y1="155.8" x2="189.2" y2="155.8"/>
	</g>
	<g transform="matrix(0.620079,0,0,0.620079,0,0)">
		<line vector-effect="none" class="st5" x1="176.5" y1="157.1" x2="176.5" y2="183.8"/>
	</g>
	<g transform="matrix(0.620079,0,0,0.620079,0,0)">
		<g class="st2">
			<path d="M176,157.3c0-3.1,3.2-6,7.1-6c2.1,0,3.5,1.2,3.5,3c0,3-3.9,6-7.1,6C177.5,160.4,176,159.2,176,157.3z"/>
		</g>
	</g>
	<g transform="matrix(0.620079,0,0,0.620079,0,0)">
		<g class="st2">
			<path d="M176.2,175.8c0.1,0,0.2,0,0.3,0c1.1-0.1,4.2-0.4,5.9-5.2c0.3-0.9,0.6-2.5,0.6-4.2c0-1.6-0.2-3.3-0.8-4.7
				c-0.1-0.2-0.1-0.3-0.1-0.4c0-0.4,0.3-0.7,0.5-0.8c0.1,0,0.1,0,0.2,0c0.2,0,0.5,0.2,0.7,0.5c0.1,0.3,1.1,3.6,1.1,5.4v0.2
				c-0.1,3.5-1.6,6.8-3.6,9.6c-1.6,2.1-3.1,4.2-3.6,6.8c-0.1,0.4-0.4,0.7-0.7,0.7c-0.2,0-0.4-0.4-0.4-0.4V175.8z"/>
		</g>
	</g>
	<g transform="matrix(0.620079,0,0,0.620079,0,0)">
		<line vector-effect="none" class="st1" x1="204" y1="155.8" x2="220" y2="155.8"/>
	</g>
	<g transform="matrix(0.620079,0,0,0.620079,0,0)">
		<line vector-effect="none" class="st5" x1="207.2" y1="157.1" x2="207.2" y2="181.6"/>
	</g>
	<g transform="matrix(0.620079,0,0,0.620079,0,0)">
		<g class="st2">
			<path d="M206.7,157.3c0-3.1,3.2-6,7.1-6c2.1,0,3.5,1.2,3.5,3c0,3-3.9,6-7.1,6C208.3,160.4,206.7,159.2,206.7,157.3z"/>
		</g>
	</g>
	<g transform="matrix(0.620079,0,0,0.620079,0,0)">
		<line vector-effect="none" class="st1" x1="234.5" y1="155.8" x2="250.5" y2="155.8"/>
	</g>
	<g transform="matrix(0.620079,0,0,0.620079,0,0)">
		<line vector-effect="none" class="st5" x1="237.8" y1="157.1" x2="237.8" y2="181.6"/>
	</g>
	<g transform="matrix(0.620079,0,0,0.620079,0,0)">
		<g class="st2">
			<path d="M237.2,157.3c0-3.1,3.2-6,7.1-6c2.1,0,3.5,1.2,3.5,3c0,3-3.9,6-7.1,6C238.8,160.4,237.2,159.2,237.2,157.3z"/>
		</g>
	</g>
	<g transform="matrix(0.620079,0,0,0.620079,0,0)">
		<line vector-effect="none" class="st1" x1="306.2" y1="155.8" x2="323.2" y2="155.8"/>
	</g>
	<g transform="matrix(0.620079,0,0,0.620079,0,0)">
		<line vector-effect="none" class="st5" x1="309.8" y1="157.1" x2="309.8" y2="183.8"/>
	</g>
	<g transform="matrix(0.620079,0,0,0.620079,0,0)">
		<g class="st2">
			<path d="M309.2,157.4c0-1.9,1.7-6.2,7.3-6.2c2.1,0,3.6,1.2,3.6,3.1c0,1.2-1.2,6.2-7.3,6.2C310.8,160.5,309.2,159.4,309.2,157.4z
				 M319,154.2c0-0.3-0.1-0.5-0.2-0.7c-0.3-0.4-0.6-0.8-1.3-0.8c-0.8,0-1.9,0.4-3.7,1.4c-2.6,1.5-3.4,2.5-3.4,3.3
				c0,0.3,0.1,0.5,0.2,0.7c0.3,0.4,0.7,0.8,1.5,0.8c0.8,0,2-0.4,3.6-1.5C318.2,155.8,319,154.9,319,154.2z"/>
		</g>
	</g>
	<g transform="matrix(0.620079,0,0,0.620079,0,0)">
		<g class="st2">
			<path d="M388.9,175c0,0.2-0.2,0.7-0.3,1.2c0,0-3.1,11.2-3.2,11.3c-0.3,0.3-0.8,0.3-1.1,0.3c-0.2,0-0.9,0-0.9-0.4
				c0.6-2.1,2.9-8.5,3-9c0-0.1,0-0.3,0-0.4c0-0.2,0-0.3-0.2-0.3c0,0-0.1,0-0.2,0c-0.4,0.2-0.7,0.4-1.2,0.5c-0.4,0.1-0.8,0.2-1.2,0.2
				c-0.3,0-0.6-0.1-0.8-0.1c-0.3-0.1-0.6-0.2-0.9-0.4c-0.5-0.4-0.9-1-0.9-1.6c0-1.2,1-2.1,2.1-2.1s2.1,1,2.1,2.1v0.3
				c1.1,0,2.7-1.9,2.9-2.1c0.2-0.1,0.3-0.1,0.4-0.1C388.6,174.5,388.9,174.6,388.9,175z"/>
		</g>
	</g>
	<g transform="matrix(0.620079,0,0,0.620079,0,0)">
		<line vector-effect="none" class="st1" x1="409" y1="155.8" x2="425" y2="155.8"/>
	</g>
	<g transform="matrix(0.620079,0,0,0.620079,0,0)">
		<line vector-effect="none" class="st5" x1="412.2" y1="157.1" x2="412.2" y2="183.8"/>
	</g>
	<g transform="matrix(0.620079,0,0,0.620079,0,0)">
		<g class="st2">
			<path d="M411.7,157.3c0-3.1,3.2-6,7.1-6c2.1,0,3.5,1.2,3.5,3c0,3-3.9,6-7.1,6C413.3,160.4,411.7,159.2,411.7,157.3z"/>
		</g>
	</g>
	<g transform="matrix(0.620079,0,0,0.620079,0,0)">
		<g class="st2">
			<path d="M411.9,175.8c0.1,0,0.2,0,0.3,0c1.1-0.1,4.2-0.4,5.9-5.2c0.3-0.9,0.6-2.5,0.6-4.2c0-1.6-0.2-3.3-0.8-4.7
				c-0.1-0.2-0.1-0.3-0.1-0.4c0-0.4,0.3-0.7,0.5-0.8c0.1,0,0.1,0,0.2,0c0.2,0,0.5,0.2,0.7,0.5c0.1,0.3,1.1,3.6,1.1,5.4v0.2
				c-0.1,3.5-1.6,6.8-3.6,9.6c-1.6,2.1-3.1,4.2-3.6,6.8c-0.1,0.4-0.4,0.7-0.7,0.7c-0.2,0-0.4-0.4-0.4-0.4V175.8z"/>
		</g>
	</g>
	<g transform="matrix(0.620079,0,0,0.620079,0,0)">
		<line vector-effect="none" class="st1" x1="439.5" y1="155.8" x2="455.5" y2="155.8"/>
	</g>
	<g transform="matrix(0.620079,0,0,0.620079,0,0)">
		<line vector-effect="none" class="st5" x1="442.8" y1="157.1" x2="442.8" y2="181.6"/>
	</g>
	<g transform="matrix(0.620079,0,0,0.620079,0,0)">
		<g class="st2">
			<path d="M442.2,157.3c0-3.1,3.2-6,7.1-6c2.1,0,3.5,1.2,3.5,3c0,3-3.9,6-7.1,6C443.8,160.4,442.2,159.2,442.2,157.3z"/>
		</g>
	</g>
	<g transform="matrix(0.620079,0,0,0.620079,0,0)">
		<line vector-effect="none" class="st1" x1="470" y1="155.8" x2="486" y2="155.8"/>
	</g>
	<g transform="matrix(0.620079,0,0,0.620079,0,0)">
		<line vector-effect="none" class="st5" x1="473.2" y1="157.1" x2="473.2" y2="181.6"/>
	</g>
	<g transform="matrix(0.620079,0,0,0.620079,0,0)">
		<g class="st2">
			<path d="M472.8,157.3c0-3.1,3.2-6,7.1-6c2.1,0,3.5,1.2,3.5,3c0,3-3.9,6-7.1,6C474.3,160.4,472.8,159.2,472.8,157.3z"/>
		</g>
	</g>
	<g transform="matrix(0.620079,0,0,0.620079,0,0)">
		<line vector-effect="none" class="st1" x1="542" y1="155.8" x2="559" y2="155.8"/>
	</g>
	<g transform="matrix(0.620079,0,0,0.620079,0,0)">
		<line vector-effect="none" class="st5" x1="545.5" y1="157.1" x2="545.5" y2="183.8"/>
	</g>
	<g transform="matrix(0.620079,0,0,0.620079,0,0)">
		<g class="st2">
			<path d="M545,157.4c0-1.9,1.7-6.2,7.3-6.2c2.1,0,3.6,1.2,3.6,3.1c0,1.2-1.2,6.2-7.3,6.2C546.6,160.5,545,159.4,545,157.4z
				 M554.8,154.2c0-0.3-0.1-0.5-0.2-0.7c-0.3-0.4-0.6-0.8-1.3-0.8c-0.8,0-1.9,0.4-3.7,1.4c-2.6,1.5-3.4,2.5-3.4,3.3
				c0,0.3,0.1,0.5,0.2,0.7c0.3,0.4,0.7,0.8,1.5,0.8c0.8,0,2-0.4,3.6-1.5C554,155.8,554.8,154.9,554.8,154.2z"/>
		</g>
	</g>
	<g transform="matrix(0.620079,0,0,0.620079,0,0)">
		<g class="st2">
			<path d="M624.6,175c0,0.2-0.2,0.7-0.3,1.2c0,0-3.1,11.2-3.2,11.3c-0.3,0.3-0.8,0.3-1.1,0.3c-0.2,0-0.9,0-0.9-0.4
				c0.6-2.1,2.9-8.5,3-9c0-0.1,0-0.3,0-0.4c0-0.2,0-0.3-0.2-0.3c0,0-0.1,0-0.2,0c-0.4,0.2-0.7,0.4-1.2,0.5c-0.4,0.1-0.8,0.2-1.2,0.2
				c-0.3,0-0.6-0.1-0.8-0.1c-0.3-0.1-0.6-0.2-0.9-0.4c-0.5-0.4-0.9-1-0.9-1.6c0-1.2,1-2.1,2.1-2.1c1.2,0,2.1,1,2.1,2.1v0.3
				c1.1,0,2.7-1.9,2.9-2.1c0.2-0.1,0.3-0.1,0.4-0.1C624.3,174.5,624.6,174.6,624.6,175z"/>
		</g>
	</g>
	<g transform="matrix(0.620079,0,0,0.620079,0,0)">
		<line vector-effect="none" class="st1" x1="644.5" y1="155.8" x2="660.5" y2="155.8"/>
	</g>
	<g transform="matrix(0.620079,0,0,0.620079,0,0)">
		<line vector-effect="none" class="st5" x1="647.8" y1="157.1" x2="647.8" y2="183.8"/>
	</g>
	<g transform="matrix(0.620079,0,0,0.620079,0,0)">
		<g class="st2">
			<path d="M647.2,157.3c0-3.1,3.2-6,7.1-6c2.1,0,3.5,1.2,3.5,3c0,3-3.9,6-7.1,6C648.8,160.4,647.2,159.2,647.2,157.3z"/>
		</g>
	</g>
	<g transform="matrix(0.620079,0,0,0.620079,0,0)">
		<g class="st2">
			<path d="M647.4,175.8c0.1,0,0.2,0,0.3,0c1.1-0.1,4.2-0.4,5.9-5.2c0.3-0.9,0.6-2.5,0.6-4.2c0-1.6-0.2-3.3-0.8-4.7
				c-0.1-0.2-0.1-0.3-0.1-0.4c0-0.4,0.3-0.7,0.5-0.8c0.1,0,0.1,0,0.2,0c0.2,0,0.5,0.2,0.7,0.5c0.1,0.3,1.1,3.6,1.1,5.4v0.2
				c-0.1,3.5-1.6,6.8-3.6,9.6c-1.6,2.1-3.1,4.2-3.6,6.8c-0.1,0.4-0.4,0.7-0.7,0.7c-0.2,0-0.4-0.4-0.4-0.4V175.8z"/>
		</g>
	</g>
	<g transform="matrix(0.620079,0,0,0.620079,0,0)">
		<line vector-effect="none" class="st1" x1="675" y1="155.8" x2="691" y2="155.8"/>
	</g>
	<g transform="matrix(0.620079,0,0,0.620079,0,0)">
		<line vector-effect="none" class="st5" x1="678.2" y1="157.1" x2="678.2" y2="181.6"/>
	</g>
	<g transform="matrix(0.620079,0,0,0.620079,0,0)">
		<g class="st2">
			<path d="M677.7,157.3c0-3.1,3.2-6,7.1-6c2.1,0,3.5,1.2,3.5,3c0,3-3.9,6-7.1,6C679.3,160.4,677.7,159.2,677.7,157.3z"/>
		</g>
	</g>
	<g transform="matrix(0.620079,0,0,0.620079,0,0)">
		<line vector-effect="none" class="st1" x1="705.5" y1="155.8" x2="721.5" y2="155.8"/>
	</g>
	<g transform="matrix(0.620079,0,0,0.620079,0,0)">
		<line vector-effect="none" class="st5" x1="708.8" y1="157.1" x2="708.8" y2="181.6"/>
	</g>
	<g transform="matrix(0.620079,0,0,0.620079,0,0)">
		<g class="st2">
			<path d="M708.2,157.3c0-3.1,3.2-6,7.1-6c2.1,0,3.5,1.2,3.5,3c0,3-3.9,6-7.1,6C709.8,160.4,708.2,159.2,708.2,157.3z"/>
		</g>
	</g>
	<g transform="matrix(0.620079,0,0,0.620079,0,0)">
		<line vector-effect="none" class="st1" x1="777.5" y1="155.8" x2="794.5" y2="155.8"/>
	</g>
	<g transform="matrix(0.620079,0,0,0.620079,0,0)">
		<line vector-effect="none" class="st5" x1="781" y1="157.1" x2="781" y2="183.8"/>
	</g>
	<g transform="matrix(0.620079,0,0,0.620079,0,0)">
		<g class="st2">
			<path d="M780.5,157.4c0-1.9,1.7-6.2,7.3-6.2c2.1,0,3.6,1.2,3.6,3.1c0,1.2-1.2,6.2-7.3,6.2C782.1,160.5,780.5,159.4,780.5,157.4z
				 M790.3,154.2c0-0.3-0.1-0.5-0.2-0.7c-0.3-0.4-0.6-0.8-1.3-0.8c-0.8,0-1.9,0.4-3.7,1.4c-2.6,1.5-3.4,2.5-3.4,3.3
				c0,0.3,0.1,0.5,0.2,0.7c0.3,0.4,0.7,0.8,1.5,0.8c0.8,0,2-0.4,3.6-1.5C789.5,155.8,790.3,154.9,790.3,154.2z"/>
		</g>
	</g>
	<g transform="matrix(0.620079,0,0,0.620079,0,0)">
		<g class="st2">
			<path d="M860.2,175c0,0.2-0.2,0.7-0.3,1.2c0,0-3.1,11.2-3.2,11.3c-0.3,0.3-0.8,0.3-1.1,0.3c-0.2,0-0.9,0-0.9-0.4
				c0.6-2.1,2.9-8.5,3-9c0-0.1,0-0.3,0-0.4c0-0.2,0-0.3-0.2-0.3c0,0-0.1,0-0.2,0c-0.4,0.2-0.7,0.4-1.2,0.5c-0.4,0.1-0.8,0.2-1.2,0.2
				c-0.3,0-0.6-0.1-0.8-0.1c-0.3-0.1-0.6-0.2-0.9-0.4c-0.5-0.4-0.9-1-0.9-1.6c0-1.2,1-2.1,2.1-2.1s2.1,1,2.1,2.1v0.3
				c1.1,0,2.7-1.9,2.9-2.1c0.2-0.1,0.3-0.1,0.4-0.1C859.8,174.5,860.2,174.6,860.2,175z"/>
		</g>
	</g>
	<g transform="matrix(0.620079,0,0,0.620079,0,0)">
		<line vector-effect="none" class="st1" x1="880" y1="155.8" x2="896" y2="155.8"/>
	</g>
	<g transform="matrix(0.620079,0,0,0.620079,0,0)">
		<line vector-effect="none" class="st5" x1="883.2" y1="157.1" x2="883.2" y2="183.8"/>
	</g>
	<g transform="matrix(0.620079,0,0,0.620079,0,0)">
		<g class="st2">
			<path d="M882.8,157.3c0-3.1,3.2-6,7.1-6c2.1,0,3.5,1.2,3.5,3c0,3-3.9,6-7.1,6C884.3,160.4,882.8,159.2,882.8,157.3z"/>
		</g>
	</g>
	<g transform="matrix(0.620079,0,0,0.620079,0,0)">
		<g class="st2">
			<path d="M882.9,175.8c0.1,0,0.2,0,0.3,0c1.1-0.1,4.2-0.4,5.9-5.2c0.3-0.9,0.6-2.5,0.6-4.2c0-1.6-0.2-3.3-0.8-4.7
				c-0.1-0.2-0.1-0.3-0.1-0.4c0-0.4,0.3-0.7,0.5-0.8c0.1,0,0.1,0,0.2,0c0.2,0,0.5,0.2,0.7,0.5c0.1,0.3,1.1,3.6,1.1,5.4v0.2
				c-0.1,3.5-1.6,6.8-3.6,9.6c-1.6,2.1-3.1,4.2-3.6,6.8c-0.1,0.4-0.4,0.7-0.7,0.7c-0.2,0-0.4-0.4-0.4-0.4V175.8z"/>
		</g>
	</g>
	<g transform="matrix(0.620079,0,0,0.620079,0,0)">
		<line vector-effect="none" class="st1" x1="910.5" y1="155.8" x2="926.5" y2="155.8"/>
	</g>
	<g transform="matrix(0.620079,0,0,0.620079,0,0)">
		<line vector-effect="none" class="st5" x1="913.8" y1="157.1" x2="913.8" y2="181.6"/>
	</g>
	<g transform="matrix(0.620079,0,0,0.620079,0,0)">
		<g class="st2">
			<path d="M913.3,157.3c0-3.1,3.2-6,7.1-6c2.1,0,3.5,1.2,3.5,3c0,3-3.9,6-7.1,6C914.8,160.4,913.3,159.2,913.3,157.3z"/>
		</g>
	</g>
	<g transform="matrix(0.620079,0,0,0.620079,0,0)">
		<line vector-effect="none" class="st1" x1="941.2" y1="155.8" x2="957.2" y2="155.8"/>
	</g>
	<g transform="matrix(0.620079,0,0,0.620079,0,0)">
		<line vector-effect="none" class="st5" x1="944.5" y1="157.1" x2="944.5" y2="181.6"/>
	</g>
	<g transform="matrix(0.620079,0,0,0.620079,0,0)">
		<g class="st2">
			<path d="M944,157.3c0-3.1,3.2-6,7.1-6c2.1,0,3.5,1.2,3.5,3c0,3-3.9,6-7.1,6C945.5,160.4,944,159.2,944,157.3z"/>
		</g>
	</g>
	<g transform="matrix(0.620079,0,0,0.620079,0,0)">
		<line vector-effect="none" class="st1" x1="1002.2" y1="155.8" x2="1019.2" y2="155.8"/>
	</g>
	<g transform="matrix(0.620079,0,0,0.620079,0,0)">
		<line vector-effect="none" class="st5" x1="1005.7" y1="157.1" x2="1005.7" y2="183.8"/>
	</g>
	<g transform="matrix(0.620079,0,0,0.620079,0,0)">
		<g class="st2">
			<path d="M1005.2,157.4c0-1.9,1.7-6.2,7.3-6.2c2.1,0,3.6,1.2,3.6,3.1c0,1.2-1.2,6.2-7.3,6.2
				C1006.8,160.5,1005.2,159.4,1005.2,157.4z M1015,154.2c0-0.3-0.1-0.5-0.2-0.7c-0.3-0.4-0.6-0.8-1.3-0.8c-0.8,0-1.9,0.4-3.7,1.4
				c-2.6,1.5-3.4,2.5-3.4,3.3c0,0.3,0.1,0.5,0.2,0.7c0.3,0.4,0.7,0.8,1.5,0.8c0.8,0,2-0.4,3.6-1.5
				C1014.2,155.8,1015,154.9,1015,154.2z"/>
		</g>
	</g>
	<g transform="matrix(0.620079,0,0,0.620079,0,0)">
		<g class="st2">
			<path d="M1085.2,180.1h-7.4c-0.5,0-0.8-0.4-0.8-0.8v-2.9c0-0.5,0.4-0.8,0.8-0.8h7.4c0.4,0,0.8,0.4,0.8,0.8v2.9
				C1086,179.7,1085.6,180.1,1085.2,180.1z"/>
		</g>
	</g>
</g>
</svg>
