<?xml version="1.0" encoding="utf-8"?>
<!-- Generator: Adobe Illustrator 26.3.1, SVG Export Plug-In . SVG Version: 6.00 Build 0)  -->
<svg version="1.1" id="Layer_1" xmlns="http://www.w3.org/2000/svg" xmlns:xlink="http://www.w3.org/1999/xlink" x="0px" y="0px"
	 viewBox="0 0 720.1 70.8" style="enable-background:new 0 0 720.1 70.8;" xml:space="preserve">
<style type="text/css">
	.st0{fill:none;stroke:#000000;stroke-width:1.538;stroke-linejoin:bevel;stroke-miterlimit:6.2008;}
	.st1{fill:none;stroke:#000000;stroke-width:0.4806;stroke-linejoin:bevel;stroke-miterlimit:6.2008;}
	.st2{enable-background:new    ;}
	.st3{fill:none;stroke:#000000;stroke-width:0.3845;stroke-linejoin:bevel;stroke-miterlimit:6.2008;}
	.st4{fill-rule:evenodd;clip-rule:evenodd;}
</style>
<g>
	<g transform="matrix(0.620079,0,0,0.620079,0,0)">
		<line vector-effect="none" class="st0" x1="73" y1="49.1" x2="73" y2="81.1"/>
	</g>
	<g transform="matrix(0.620079,0,0,0.620079,0,0)">
		<line vector-effect="none" class="st1" x1="78.8" y1="49.1" x2="78.8" y2="81.1"/>
	</g>
	<g transform="matrix(0.620079,0,0,0.620079,0,0)">
		<g class="st2">
			<path d="M84.3,62.7c-0.9,0-1.6-0.7-1.6-1.6c0-0.9,0.7-1.6,1.6-1.6s1.6,0.7,1.6,1.6C85.9,62,85.1,62.7,84.3,62.7z"/>
		</g>
	</g>
	<g transform="matrix(0.620079,0,0,0.620079,0,0)">
		<g class="st2">
			<path d="M84.3,70.7c-0.9,0-1.6-0.7-1.6-1.6s0.7-1.6,1.6-1.6s1.6,0.7,1.6,1.6S85.1,70.7,84.3,70.7z"/>
		</g>
	</g>
	<g transform="matrix(0.620079,0,0,0.620079,0,0)">
		<line vector-effect="none" class="st1" x1="309.5" y1="49.1" x2="309.5" y2="81.1"/>
	</g>
	<g transform="matrix(0.620079,0,0,0.620079,0,0)">
		<line vector-effect="none" class="st0" x1="315.3" y1="49.1" x2="315.3" y2="81.1"/>
	</g>
	<g transform="matrix(0.620079,0,0,0.620079,0,0)">
		<g class="st2">
			<path d="M304,62.7c-0.9,0-1.6-0.7-1.6-1.6c0-0.9,0.7-1.6,1.6-1.6s1.6,0.7,1.6,1.6C305.6,62,304.9,62.7,304,62.7z"/>
		</g>
	</g>
	<g transform="matrix(0.620079,0,0,0.620079,0,0)">
		<g class="st2">
			<path d="M304,70.7c-0.9,0-1.6-0.7-1.6-1.6s0.7-1.6,1.6-1.6s1.6,0.7,1.6,1.6S304.9,70.7,304,70.7z"/>
		</g>
	</g>
	<g transform="matrix(0.620079,0,0,0.620079,0,0)">
		<line vector-effect="none" class="st0" x1="315.3" y1="49.1" x2="315.3" y2="81.1"/>
	</g>
	<g transform="matrix(0.620079,0,0,0.620079,0,0)">
		<line vector-effect="none" class="st1" x1="321" y1="49.1" x2="321" y2="81.1"/>
	</g>
	<g transform="matrix(0.620079,0,0,0.620079,0,0)">
		<g class="st2">
			<path d="M326.5,62.7c-0.9,0-1.6-0.7-1.6-1.6c0-0.9,0.7-1.6,1.6-1.6s1.6,0.7,1.6,1.6C328.1,62,327.4,62.7,326.5,62.7z"/>
		</g>
	</g>
	<g transform="matrix(0.620079,0,0,0.620079,0,0)">
		<g class="st2">
			<path d="M326.5,70.7c-0.9,0-1.6-0.7-1.6-1.6s0.7-1.6,1.6-1.6s1.6,0.7,1.6,1.6S327.4,70.7,326.5,70.7z"/>
		</g>
	</g>
	<g transform="matrix(0.620079,0,0,0.620079,0,0)">
		<line vector-effect="none" class="st1" x1="541.5" y1="49.1" x2="541.5" y2="81.1"/>
	</g>
	<g transform="matrix(0.620079,0,0,0.620079,0,0)">
		<line vector-effect="none" class="st0" x1="547.3" y1="49.1" x2="547.3" y2="81.1"/>
	</g>
	<g transform="matrix(0.620079,0,0,0.620079,0,0)">
		<g class="st2">
			<path d="M536,62.7c-0.9,0-1.6-0.7-1.6-1.6c0-0.9,0.7-1.6,1.6-1.6s1.6,0.7,1.6,1.6C537.6,62,536.9,62.7,536,62.7z"/>
		</g>
	</g>
	<g transform="matrix(0.620079,0,0,0.620079,0,0)">
		<g class="st2">
			<path d="M536,70.7c-0.9,0-1.6-0.7-1.6-1.6s0.7-1.6,1.6-1.6s1.6,0.7,1.6,1.6S536.9,70.7,536,70.7z"/>
		</g>
	</g>
	<g transform="matrix(0.620079,0,0,0.620079,0,0)">
		<line vector-effect="none" class="st0" x1="547.3" y1="49.1" x2="547.3" y2="81.1"/>
	</g>
	<g transform="matrix(0.620079,0,0,0.620079,0,0)">
		<line vector-effect="none" class="st1" x1="553" y1="49.1" x2="553" y2="81.1"/>
	</g>
	<g transform="matrix(0.620079,0,0,0.620079,0,0)">
		<g class="st2">
			<path d="M558.5,62.7c-0.9,0-1.6-0.7-1.6-1.6c0-0.9,0.7-1.6,1.6-1.6s1.6,0.7,1.6,1.6C560.1,62,559.4,62.7,558.5,62.7z"/>
		</g>
	</g>
	<g transform="matrix(0.620079,0,0,0.620079,0,0)">
		<g class="st2">
			<path d="M558.5,70.7c-0.9,0-1.6-0.7-1.6-1.6s0.7-1.6,1.6-1.6s1.6,0.7,1.6,1.6S559.4,70.7,558.5,70.7z"/>
		</g>
	</g>
	<g transform="matrix(0.620079,0,0,0.620079,0,0)">
		<line vector-effect="none" class="st1" x1="773.5" y1="49.1" x2="773.5" y2="81.1"/>
	</g>
	<g transform="matrix(0.620079,0,0,0.620079,0,0)">
		<line vector-effect="none" class="st0" x1="779.3" y1="49.1" x2="779.3" y2="81.1"/>
	</g>
	<g transform="matrix(0.620079,0,0,0.620079,0,0)">
		<g class="st2">
			<path d="M768,62.7c-0.9,0-1.6-0.7-1.6-1.6c0-0.9,0.7-1.6,1.6-1.6c0.9,0,1.6,0.7,1.6,1.6C769.6,62,768.9,62.7,768,62.7z"/>
		</g>
	</g>
	<g transform="matrix(0.620079,0,0,0.620079,0,0)">
		<g class="st2">
			<path d="M768,70.7c-0.9,0-1.6-0.7-1.6-1.6s0.7-1.6,1.6-1.6c0.9,0,1.6,0.7,1.6,1.6S768.9,70.7,768,70.7z"/>
		</g>
	</g>
	<g transform="matrix(0.620079,0,0,0.620079,0,0)">
		<line vector-effect="none" class="st0" x1="779.3" y1="49.1" x2="779.3" y2="81.1"/>
	</g>
	<g transform="matrix(0.620079,0,0,0.620079,0,0)">
		<line vector-effect="none" class="st1" x1="785" y1="49.1" x2="785" y2="81.1"/>
	</g>
	<g transform="matrix(0.620079,0,0,0.620079,0,0)">
		<g class="st2">
			<path d="M790.5,62.7c-0.9,0-1.6-0.7-1.6-1.6c0-0.9,0.7-1.6,1.6-1.6s1.6,0.7,1.6,1.6C792.1,62,791.4,62.7,790.5,62.7z"/>
		</g>
	</g>
	<g transform="matrix(0.620079,0,0,0.620079,0,0)">
		<g class="st2">
			<path d="M790.5,70.7c-0.9,0-1.6-0.7-1.6-1.6s0.7-1.6,1.6-1.6s1.6,0.7,1.6,1.6S791.4,70.7,790.5,70.7z"/>
		</g>
	</g>
	<g transform="matrix(0.620079,0,0,0.620079,0,0)">
		<line vector-effect="none" class="st1" x1="1005.5" y1="49.1" x2="1005.5" y2="81.1"/>
	</g>
	<g transform="matrix(0.620079,0,0,0.620079,0,0)">
		<line vector-effect="none" class="st0" x1="1011.3" y1="49.1" x2="1011.3" y2="81.1"/>
	</g>
	<g transform="matrix(0.620079,0,0,0.620079,0,0)">
		<g class="st2">
			<path d="M1000,62.7c-0.9,0-1.6-0.7-1.6-1.6c0-0.9,0.7-1.6,1.6-1.6s1.6,0.7,1.6,1.6C1001.6,62,1000.9,62.7,1000,62.7z"/>
		</g>
	</g>
	<g transform="matrix(0.620079,0,0,0.620079,0,0)">
		<g class="st2">
			<path d="M1000,70.7c-0.9,0-1.6-0.7-1.6-1.6s0.7-1.6,1.6-1.6s1.6,0.7,1.6,1.6S1000.9,70.7,1000,70.7z"/>
		</g>
	</g>
	<g transform="matrix(0.620079,0,0,0.620079,0,0)">
		<line vector-effect="none" class="st1" x1="1153.5" y1="49.1" x2="1153.5" y2="81.1"/>
	</g>
	<g transform="matrix(0.620079,0,0,0.620079,0,0)">
		<line vector-effect="none" class="st0" x1="1159.3" y1="49.1" x2="1159.3" y2="81.1"/>
	</g>
	<g transform="matrix(0.620079,0,0,0.620079,0,0)">
	</g>
	<g transform="matrix(0.620079,0,0,0.620079,377.628,611.637)">
	</g>
	<g transform="matrix(0.620079,0,0,0.620079,377.628,611.637)">
		<g class="st2">
			<path d="M-514.4-880.3v-0.6c1.9-0.7,2.2-1.9,2.4-3.7h0.6v3.5h2.7v0.9h-2.7v6c0,0.6,0.7,1,1.1,1c1.3,0,1.5-1.5,1.6-2.4h0.6
				c0,1.7-0.8,3.4-2.7,3.4c-1.2,0-2.3-0.6-2.3-1.7v-6.2h-1.3V-880.3z"/>
			<path d="M-506.7-874.3c0-2.5,3.9-3.2,5.7-3.4v-1.7c0-0.9-1.3-1.3-2-1.3c-0.5,0-1.7,0.1-1.7,0.8c0,0.4,0.4,0.7,0.4,1.1
				c0,0.6-0.4,0.9-1,0.9c-0.7,0-1-0.5-1-1.1c0-1.8,2.3-2.4,3.7-2.4c1.4,0,3.2,0.6,3.2,1.9v5.5c0,0.4,0.4,0.9,0.8,0.9
				c0.2,0,0.5-0.1,0.7-0.3l0.3,0.5c-0.2,0.5-1.1,0.7-1.5,0.7c-1,0-1.4-0.6-1.9-1.5c-0.8,0.9-1.9,1.5-3.1,1.5
				C-505.3-872.3-506.7-872.8-506.7-874.3z M-503.6-873c1.1,0,2.6-1.1,2.6-2.3v-1.8c-0.5,0-1.3,0.2-1.7,0.3
				c-1.2,0.3-2.2,0.9-2.2,2.3C-505-873.7-504.5-873-503.6-873z"/>
		</g>
	</g>
	<g transform="matrix(0.620079,0,0,0.620079,377.628,611.637)">
	</g>
	<g transform="matrix(0.620079,0,0,0.620079,0,0)">
	</g>
	<g transform="matrix(0.620079,0,0,0.620079,530.787,611.637)">
	</g>
	<g transform="matrix(0.620079,0,0,0.620079,530.787,611.637)">
		<g class="st2">
			<path d="M-699.7-880.3v-0.6c1.9-0.7,2.2-1.9,2.4-3.7h0.6v3.5h2.7v0.9h-2.7v6c0,0.6,0.7,1,1.1,1c1.3,0,1.5-1.5,1.6-2.4h0.6
				c0,1.7-0.8,3.4-2.7,3.4c-1.2,0-2.3-0.6-2.3-1.7v-6.2h-1.3V-880.3z"/>
			<path d="M-692-874.3c0-2.5,3.9-3.2,5.7-3.4v-1.7c0-0.9-1.3-1.3-2-1.3c-0.5,0-1.7,0.1-1.7,0.8c0,0.4,0.4,0.7,0.4,1.1
				c0,0.6-0.4,0.9-1,0.9c-0.7,0-1-0.5-1-1.1c0-1.8,2.3-2.4,3.7-2.4s3.2,0.6,3.2,1.9v5.5c0,0.4,0.4,0.9,0.8,0.9
				c0.2,0,0.5-0.1,0.7-0.3l0.3,0.5c-0.2,0.5-1.1,0.7-1.5,0.7c-1,0-1.4-0.6-1.9-1.5c-0.8,0.9-1.9,1.5-3.1,1.5
				C-690.5-872.3-692-872.8-692-874.3z M-688.9-873c1.1,0,2.6-1.1,2.6-2.3v-1.8c-0.5,0-1.3,0.2-1.7,0.3c-1.2,0.3-2.2,0.9-2.2,2.3
				C-690.2-873.7-689.7-873-688.9-873z"/>
		</g>
	</g>
	<g transform="matrix(0.620079,0,0,0.620079,530.787,611.637)">
	</g>
	<g transform="matrix(0.620079,0,0,0.620079,0,0)">
	</g>
	<g transform="matrix(0.620079,0,0,0.620079,589.075,611.637)">
	</g>
	<g transform="matrix(0.620079,0,0,0.620079,589.075,611.637)">
		<g class="st2">
			<path d="M-770.2-880.3v-0.6c1.9-0.7,2.2-1.9,2.4-3.7h0.6v3.5h2.7v0.9h-2.7v6c0,0.6,0.7,1,1.1,1c1.3,0,1.5-1.5,1.6-2.4h0.6
				c0,1.7-0.8,3.4-2.7,3.4c-1.2,0-2.3-0.6-2.3-1.7v-6.2h-1.3V-880.3z"/>
			<path d="M-762.5-874.3c0-2.5,3.9-3.2,5.7-3.4v-1.7c0-0.9-1.3-1.3-2-1.3c-0.5,0-1.7,0.1-1.7,0.8c0,0.4,0.4,0.7,0.4,1.1
				c0,0.6-0.4,0.9-1,0.9c-0.7,0-1-0.5-1-1.1c0-1.8,2.3-2.4,3.7-2.4s3.2,0.6,3.2,1.9v5.5c0,0.4,0.4,0.9,0.8,0.9
				c0.2,0,0.5-0.1,0.7-0.3l0.3,0.5c-0.2,0.5-1.1,0.7-1.5,0.7c-1,0-1.4-0.6-1.9-1.5c-0.8,0.9-1.9,1.5-3.1,1.5
				C-761-872.3-762.5-872.8-762.5-874.3z M-759.4-873c1.1,0,2.6-1.1,2.6-2.3v-1.8c-0.5,0-1.3,0.2-1.7,0.3c-1.2,0.3-2.2,0.9-2.2,2.3
				C-760.7-873.7-760.2-873-759.4-873z"/>
		</g>
	</g>
	<g transform="matrix(0.620079,0,0,0.620079,589.075,611.637)">
	</g>
	<g transform="matrix(0.620079,0,0,0.620079,0,0)">
	</g>
	<g transform="matrix(0.620079,0,0,0.620079,647.362,611.637)">
	</g>
	<g transform="matrix(0.620079,0,0,0.620079,647.362,611.637)">
		<g class="st2">
			<path d="M-840.7-880.3v-0.6c1.9-0.7,2.2-1.9,2.4-3.7h0.6v3.5h2.7v0.9h-2.7v6c0,0.6,0.7,1,1.1,1c1.3,0,1.5-1.5,1.6-2.4h0.6
				c0,1.7-0.8,3.4-2.7,3.4c-1.2,0-2.3-0.6-2.3-1.7v-6.2h-1.3V-880.3z"/>
			<path d="M-833-874.3c0-2.5,3.9-3.2,5.7-3.4v-1.7c0-0.9-1.3-1.3-2-1.3c-0.5,0-1.7,0.1-1.7,0.8c0,0.4,0.4,0.7,0.4,1.1
				c0,0.6-0.4,0.9-1,0.9c-0.7,0-1-0.5-1-1.1c0-1.8,2.3-2.4,3.7-2.4s3.2,0.6,3.2,1.9v5.5c0,0.4,0.4,0.9,0.8,0.9
				c0.2,0,0.5-0.1,0.7-0.3l0.3,0.5c-0.2,0.5-1.1,0.7-1.5,0.7c-1,0-1.4-0.6-1.9-1.5c-0.8,0.9-1.9,1.5-3.1,1.5
				C-831.5-872.3-833-872.8-833-874.3z M-829.9-873c1.1,0,2.6-1.1,2.6-2.3v-1.8c-0.5,0-1.3,0.2-1.7,0.3c-1.2,0.3-2.2,0.9-2.2,2.3
				C-831.2-873.7-830.7-873-829.9-873z"/>
		</g>
	</g>
	<g transform="matrix(0.620079,0,0,0.620079,647.362,611.637)">
	</g>
	<g transform="matrix(0.620079,0,0,0.620079,0,0)">
	</g>
	<g transform="matrix(0.620079,0,0,0.620079,705.65,611.637)">
	</g>
	<g transform="matrix(0.620079,0,0,0.620079,705.65,611.637)">
		<g class="st2">
			<path d="M-911.2-880.3v-0.6c1.9-0.7,2.2-1.9,2.4-3.7h0.6v3.5h2.7v0.9h-2.7v6c0,0.6,0.7,1,1.1,1c1.3,0,1.5-1.5,1.6-2.4h0.6
				c0,1.7-0.8,3.4-2.7,3.4c-1.2,0-2.3-0.6-2.3-1.7v-6.2h-1.3V-880.3z"/>
			<path d="M-903.5-874.3c0-2.5,3.9-3.2,5.7-3.4v-1.7c0-0.9-1.3-1.3-2-1.3c-0.5,0-1.7,0.1-1.7,0.8c0,0.4,0.4,0.7,0.4,1.1
				c0,0.6-0.4,0.9-1,0.9c-0.7,0-1-0.5-1-1.1c0-1.8,2.3-2.4,3.7-2.4s3.2,0.6,3.2,1.9v5.5c0,0.4,0.4,0.9,0.8,0.9
				c0.2,0,0.5-0.1,0.7-0.3l0.3,0.5c-0.2,0.5-1.1,0.7-1.5,0.7c-1,0-1.4-0.6-1.9-1.5c-0.8,0.9-1.9,1.5-3.1,1.5
				C-902-872.3-903.5-872.8-903.5-874.3z M-900.4-873c1.1,0,2.6-1.1,2.6-2.3v-1.8c-0.5,0-1.3,0.2-1.7,0.3c-1.2,0.3-2.2,0.9-2.2,2.3
				C-901.7-873.7-901.2-873-900.4-873z"/>
		</g>
	</g>
	<g transform="matrix(0.620079,0,0,0.620079,705.65,611.637)">
	</g>
	<g transform="matrix(0.620079,0,0,0.620079,0,0)">
	</g>
	<g transform="matrix(0.620079,0,0,0.620079,763.937,611.637)">
	</g>
	<g transform="matrix(0.620079,0,0,0.620079,763.937,611.637)">
		<g class="st2">
			<path d="M-981.7-880.3v-0.6c1.9-0.7,2.2-1.9,2.4-3.7h0.6v3.5h2.7v0.9h-2.7v6c0,0.6,0.7,1,1.1,1c1.3,0,1.5-1.5,1.6-2.4h0.6
				c0,1.7-0.8,3.4-2.7,3.4c-1.2,0-2.3-0.6-2.3-1.7v-6.2h-1.3V-880.3z"/>
			<path d="M-974-874.3c0-2.5,3.9-3.2,5.7-3.4v-1.7c0-0.9-1.3-1.3-2-1.3c-0.5,0-1.7,0.1-1.7,0.8c0,0.4,0.4,0.7,0.4,1.1
				c0,0.6-0.4,0.9-1,0.9c-0.7,0-1-0.5-1-1.1c0-1.8,2.3-2.4,3.7-2.4s3.2,0.6,3.2,1.9v5.5c0,0.4,0.4,0.9,0.8,0.9
				c0.2,0,0.5-0.1,0.7-0.3l0.3,0.5c-0.2,0.5-1.1,0.7-1.5,0.7c-1,0-1.4-0.6-1.9-1.5c-0.8,0.9-1.9,1.5-3.1,1.5
				C-972.5-872.3-974-872.8-974-874.3z M-970.9-873c1.1,0,2.6-1.1,2.6-2.3v-1.8c-0.5,0-1.3,0.2-1.7,0.3c-1.2,0.3-2.2,0.9-2.2,2.3
				C-972.2-873.7-971.7-873-970.9-873z"/>
		</g>
	</g>
	<g transform="matrix(0.620079,0,0,0.620079,763.937,611.637)">
	</g>
	<g transform="matrix(0.620079,0,0,0.620079,0,0)">
	</g>
	<g transform="matrix(0.620079,0,0,0.620079,822.224,611.637)">
	</g>
	<g transform="matrix(0.620079,0,0,0.620079,822.224,611.637)">
		<g class="st2">
			<path d="M-1052.2-880.3v-0.6c1.9-0.7,2.2-1.9,2.4-3.7h0.6v3.5h2.7v0.9h-2.7v6c0,0.6,0.7,1,1.1,1c1.3,0,1.5-1.5,1.6-2.4h0.6
				c0,1.7-0.8,3.4-2.7,3.4c-1.2,0-2.3-0.6-2.3-1.7v-6.2h-1.3V-880.3z"/>
			<path d="M-1044.5-874.3c0-2.5,3.9-3.2,5.7-3.4v-1.7c0-0.9-1.3-1.3-2-1.3c-0.5,0-1.7,0.1-1.7,0.8c0,0.4,0.4,0.7,0.4,1.1
				c0,0.6-0.4,0.9-1,0.9c-0.7,0-1-0.5-1-1.1c0-1.8,2.3-2.4,3.7-2.4s3.2,0.6,3.2,1.9v5.5c0,0.4,0.4,0.9,0.8,0.9
				c0.2,0,0.5-0.1,0.7-0.3l0.3,0.5c-0.2,0.5-1.1,0.7-1.5,0.7c-1,0-1.4-0.6-1.9-1.5c-0.8,0.9-1.9,1.5-3.1,1.5
				C-1043-872.3-1044.5-872.8-1044.5-874.3z M-1041.4-873c1.1,0,2.6-1.1,2.6-2.3v-1.8c-0.5,0-1.3,0.2-1.7,0.3
				c-1.2,0.3-2.2,0.9-2.2,2.3C-1042.7-873.7-1042.2-873-1041.4-873z"/>
		</g>
	</g>
	<g transform="matrix(0.620079,0,0,0.620079,822.224,611.637)">
	</g>
	<g transform="matrix(0.620079,0,0,0.620079,0,0)">
	</g>
	<g transform="matrix(0.620079,0,0,0.620079,326.781,372.471)">
	</g>
	<g transform="matrix(0.620079,0,0,0.620079,326.781,372.471)">
		<g class="st2">
			<path d="M-447.2-600.7h0.6v17.5c0,1.9-2.5,3.8-4.5,3.8c-1.2,0-2.2-0.7-2.2-1.9c0-2,2-3.8,4.4-3.8c0.7,0,1.2,0.2,1.6,0.5
				L-447.2-600.7z"/>
		</g>
		<g class="st2">
			<path d="M-439.5-586.4v-1.8h10.5v1.8H-439.5z M-429-583.8v1.9h-10.5v-1.9H-429z"/>
			<path d="M-418.1-586.8c-1.7-0.9-2.6-1.7-2.6-3.7c0-2.5,2-4.1,4.4-4.1c1.8,0,4.2,0.9,4.2,3.1c0,1.6-1.2,2.3-2.4,3.1
				c2,1.1,3.1,2,3.1,4.2c0,3-2.3,4.7-5.1,4.7c-2.4,0-4.8-1-4.8-3.7C-421.3-585.1-419.8-586-418.1-586.8z M-416.3-580.4
				c1.6,0,3-0.9,3-2.6c-0.1-1.8-2.4-2.9-3.9-3.3c-1.3,0.4-1.9,1.7-1.9,3C-419.1-581.6-418.1-580.4-416.3-580.4z M-415.4-588.6
				c0.9-0.5,1.5-1.5,1.5-2.5c0-1.6-0.9-2.5-2.5-2.5c-1.3,0-2.3,0.7-2.3,2.1C-418.7-589.7-416.8-589.2-415.4-588.6z"/>
			<path d="M-407.1-586.8c-1.7-0.9-2.6-1.7-2.6-3.7c0-2.5,2-4.1,4.4-4.1c1.8,0,4.2,0.9,4.2,3.1c0,1.6-1.2,2.3-2.4,3.1
				c2,1.1,3.1,2,3.1,4.2c0,3-2.3,4.7-5.1,4.7c-2.4,0-4.8-1-4.8-3.7C-410.2-585.1-408.8-586-407.1-586.8z M-405.2-580.4
				c1.6,0,3-0.9,3-2.6c-0.1-1.8-2.4-2.9-3.9-3.3c-1.3,0.4-1.9,1.7-1.9,3C-408-581.6-407-580.4-405.2-580.4z M-404.4-588.6
				c0.9-0.5,1.5-1.5,1.5-2.5c0-1.6-0.9-2.5-2.5-2.5c-1.3,0-2.3,0.7-2.3,2.1C-407.7-589.7-405.8-589.2-404.4-588.6z"/>
		</g>
	</g>
	<g transform="matrix(0.620079,0,0,0.620079,326.781,372.471)">
	</g>
	<g transform="matrix(0.620079,0,0,0.620079,0,0)">
	</g>
	<g transform="matrix(0.620079,0,0,0.620079,927.638,372.471)">
	</g>
	<g transform="matrix(0.620079,0,0,0.620079,927.638,372.471)">
		<g class="st2">
			<path d="M-1174-600.7h0.6v17.5c0,1.9-2.5,3.8-4.5,3.8c-1.2,0-2.2-0.7-2.2-1.9c0-2,2-3.8,4.4-3.8c0.7,0,1.2,0.2,1.6,0.5
				L-1174-600.7z"/>
		</g>
		<g class="st2">
			<path d="M-1166.3-586.4v-1.8h10.5v1.8H-1166.3z M-1155.8-583.8v1.9h-10.5v-1.9H-1155.8z"/>
			<path d="M-1143.1-594.5c3.8,0,5,3.6,5,6.8c0,3.5-1.7,8.3-5.9,8.3c-1.5,0-3.5-0.8-3.5-2.6c0-0.9,0.5-1.7,1.5-1.7
				c0.9,0,1.4,0.6,1.4,1.4c0,0.5-0.4,0.9-0.4,1.4c0,0.4,0.5,0.5,0.9,0.5c1.8,0,2.5-2.2,2.7-3.6c0-0.4,0.2-2.2,0.2-2.6
				c-1,0.9-1.7,1.3-3,1.3c-2.4,0-3.8-2-3.8-4.2C-1148-592.5-1146.2-594.5-1143.1-594.5z M-1145.1-590c0,1.3,0.1,3.2,1.8,3.2
				c1.7,0,2.1-2.2,2.1-3.5s-0.3-3.3-2-3.3C-1145-593.6-1145.1-591.2-1145.1-590z"/>
			<path d="M-1133.7-586.8c-1.7-0.9-2.6-1.7-2.6-3.7c0-2.5,2-4.1,4.4-4.1c1.8,0,4.2,0.9,4.2,3.1c0,1.6-1.2,2.3-2.4,3.1
				c2,1.1,3.1,2,3.1,4.2c0,3-2.3,4.7-5.1,4.7c-2.4,0-4.8-1-4.8-3.7C-1136.8-585.1-1135.4-586-1133.7-586.8z M-1131.8-580.4
				c1.6,0,3-0.9,3-2.6c-0.1-1.8-2.4-2.9-3.9-3.3c-1.3,0.4-1.9,1.7-1.9,3C-1134.6-581.6-1133.6-580.4-1131.8-580.4z M-1131-588.6
				c0.9-0.5,1.5-1.5,1.5-2.5c0-1.6-0.9-2.5-2.5-2.5c-1.3,0-2.3,0.7-2.3,2.1C-1134.3-589.7-1132.4-589.2-1131-588.6z"/>
		</g>
	</g>
	<g transform="matrix(0.620079,0,0,0.620079,927.638,372.471)">
	</g>
	<g transform="matrix(0.620079,0,0,0.620079,0,0)">
	</g>
	<g transform="matrix(0.620079,0,0,0.620079,1503.07,372.471)">
	</g>
	<g transform="matrix(0.620079,0,0,0.620079,1503.07,372.471)">
		<g class="st2">
			<path d="M-1870-600.7h0.6v17.5c0,1.9-2.5,3.8-4.5,3.8c-1.2,0-2.2-0.7-2.2-1.9c0-2,2-3.8,4.4-3.8c0.7,0,1.2,0.2,1.6,0.5
				L-1870-600.7z"/>
		</g>
		<g class="st2">
			<path d="M-1862.3-586.4v-1.8h10.5v1.8H-1862.3z M-1851.8-583.8v1.9h-10.5v-1.9H-1851.8z"/>
			<path d="M-1838.1-594.6h0.7v13.1c0,0.4,0.3,0.8,0.7,0.8h2.1v0.9h-8.1v-0.9h1.7c0.5,0,0.8-0.5,0.8-0.9v-9.9c0-0.4-0.3-0.8-0.7-0.8
				h-2.4v-1C-1841.3-593.3-1839.7-593.7-1838.1-594.6z"/>
			<path d="M-1832.5-586.9c0-3.2,1.3-7.5,5.6-7.5c4.1,0,5.4,4.6,5.4,7.5c0,3.1-1.3,7.5-5.5,7.5
				C-1831.2-579.5-1832.5-584-1832.5-586.9z M-1827.1-580.5c2.1,0,2.1-3.8,2.1-6.5c0-3.2,0-6.5-2-6.5c-2.1,0-2.1,3.4-2.1,6.9
				C-1829.1-584.3-1829.1-580.5-1827.1-580.5z"/>
			<path d="M-1817.3-586.8c-1.7-0.9-2.6-1.7-2.6-3.7c0-2.5,2-4.1,4.4-4.1c1.8,0,4.2,0.9,4.2,3.1c0,1.6-1.2,2.3-2.4,3.1
				c2,1.1,3.1,2,3.1,4.2c0,3-2.3,4.7-5.1,4.7c-2.4,0-4.8-1-4.8-3.7C-1820.4-585.1-1819-586-1817.3-586.8z M-1815.4-580.4
				c1.6,0,3-0.9,3-2.6c-0.1-1.8-2.4-2.9-3.9-3.3c-1.3,0.4-1.9,1.7-1.9,3C-1818.2-581.6-1817.2-580.4-1815.4-580.4z M-1814.6-588.6
				c0.9-0.5,1.5-1.5,1.5-2.5c0-1.6-0.9-2.5-2.5-2.5c-1.3,0-2.3,0.7-2.3,2.1C-1817.9-589.7-1816-589.2-1814.6-588.6z"/>
		</g>
	</g>
	<g transform="matrix(0.620079,0,0,0.620079,1503.07,372.471)">
	</g>
	<g transform="matrix(0.620079,0,0,0.620079,0,0)">
	</g>
	<g transform="matrix(0.620079,0,0,0.620079,2078.5,372.471)">
	</g>
	<g transform="matrix(0.620079,0,0,0.620079,2078.5,372.471)">
		<g class="st2">
			<path d="M-2566-600.7h0.6v17.5c0,1.9-2.5,3.8-4.5,3.8c-1.2,0-2.2-0.7-2.2-1.9c0-2,2-3.8,4.5-3.8c0.6,0,1.2,0.2,1.6,0.5
				L-2566-600.7z"/>
		</g>
		<g class="st2">
			<path d="M-2558.3-586.4v-1.8h10.5v1.8H-2558.3z M-2547.7-583.8v1.9h-10.5v-1.9H-2547.7z"/>
			<path d="M-2534.1-594.6h0.7v13.1c0,0.4,0.3,0.8,0.7,0.8h2.1v0.9h-8.1v-0.9h1.7c0.5,0,0.8-0.5,0.8-0.9v-9.9c0-0.4-0.3-0.8-0.7-0.8
				h-2.4v-1C-2537.3-593.3-2535.7-593.7-2534.1-594.6z"/>
			<path d="M-2522.5-594.6h0.7v13.1c0,0.4,0.3,0.8,0.7,0.8h2.1v0.9h-8.1v-0.9h1.7c0.5,0,0.8-0.5,0.8-0.9v-9.9c0-0.4-0.3-0.8-0.7-0.8
				h-2.4v-1C-2525.8-593.3-2524.2-593.7-2522.5-594.6z"/>
			<path d="M-2513.8-586.8c-1.7-0.9-2.6-1.7-2.6-3.7c0-2.5,2-4.1,4.4-4.1c1.8,0,4.2,0.9,4.2,3.1c0,1.6-1.2,2.3-2.4,3.1
				c2,1.1,3.1,2,3.1,4.2c0,3-2.3,4.7-5.1,4.7c-2.4,0-4.8-1-4.8-3.7C-2517-585.1-2515.5-586-2513.8-586.8z M-2511.9-580.4
				c1.6,0,3-0.9,3-2.6c-0.1-1.8-2.4-2.9-3.9-3.3c-1.3,0.4-1.9,1.7-1.9,3C-2514.8-581.6-2513.7-580.4-2511.9-580.4z M-2511.1-588.6
				c0.9-0.5,1.5-1.5,1.5-2.5c0-1.6-0.9-2.5-2.5-2.5c-1.3,0-2.3,0.7-2.3,2.1C-2514.4-589.7-2512.5-589.2-2511.1-588.6z"/>
		</g>
	</g>
	<g transform="matrix(0.620079,0,0,0.620079,2078.5,372.471)">
	</g>
	<g transform="matrix(0.620079,0,0,0.620079,0,0)">
	</g>
	<g transform="matrix(0.620079,0,0,0.620079,275.315,425.788)">
	</g>
	<g transform="matrix(0.620079,0,0,0.620079,275.315,425.788)">
		<g class="st2">
			<path d="M-377-626.4c0,0.4-0.2,0.7-0.5,0.7h-1.9v1.7c0,1,0.6,1.2,1,1.2c0.3,0,0.7,0.2,0.7,0.6c0,0.5-0.3,0.6-0.6,0.6h-7.5
				c-0.5,0-0.6-0.3-0.6-0.6s0.2-0.6,0.7-0.6c0.6,0,1.3-0.3,1.3-1.1v-1.8h-5.8c-0.4,0-0.6-0.4-0.6-0.7c0-0.1,0-0.2,0.1-0.3v-0.1
				l0.2-0.3c0.9-1.3,3.6-5.7,3.6-9.6c0-0.5,0.4-0.6,0.7-0.6c0.3,0,2.1,0.1,2.6,0.1c0.6,0,2.3-0.1,2.5-0.1c0.3,0,0.5,0.2,0.5,0.5
				c0,0.1,0,0.1,0,0.1c-0.1,0.4-5.5,7.4-8.1,9.5h4.3v-2.5c0-0.4,0.2-0.6,0.3-0.7l3.8-3.6c0.2-0.2,0.3-0.3,0.6-0.3
				c0.4,0,0.4,0.3,0.4,0.5v6.6h1.9C-377.2-627.1-377-626.8-377-626.4z"/>
		</g>
	</g>
	<g transform="matrix(0.620079,0,0,0.620079,275.315,425.788)">
		<g class="st2">
			<path d="M-377-610.3c0,0.4-0.2,0.7-0.5,0.7h-1.9v1.7c0,1,0.6,1.2,1,1.2c0.3,0,0.7,0.2,0.7,0.6c0,0.5-0.3,0.6-0.6,0.6h-7.5
				c-0.5,0-0.6-0.3-0.6-0.6c0-0.3,0.2-0.6,0.7-0.6c0.6,0,1.3-0.3,1.3-1.1v-1.8h-5.8c-0.4,0-0.6-0.4-0.6-0.7c0-0.1,0-0.2,0.1-0.3
				v-0.1l0.2-0.3c0.9-1.3,3.6-5.7,3.6-9.6c0-0.5,0.4-0.6,0.7-0.6c0.3,0,2.1,0.1,2.6,0.1c0.6,0,2.3-0.1,2.5-0.1
				c0.3,0,0.5,0.2,0.5,0.5c0,0.1,0,0.1,0,0.1c-0.1,0.4-5.5,7.4-8.1,9.5h4.3v-2.5c0-0.4,0.2-0.6,0.3-0.7l3.8-3.6
				c0.2-0.2,0.3-0.3,0.6-0.3c0.4,0,0.4,0.3,0.4,0.5v6.6h1.9C-377.2-611-377-610.7-377-610.3z"/>
		</g>
	</g>
	<g transform="matrix(0.620079,0,0,0.620079,275.315,425.788)">
	</g>
	<g transform="matrix(0.620079,0,0,0.620079,0,0)">
	</g>
	<g transform="matrix(0.620079,0,0,0.620079,0,0)">
		<line vector-effect="none" class="st3" x1="0" y1="81.1" x2="1161.3" y2="81.1"/>
	</g>
	<g transform="matrix(0.620079,0,0,0.620079,0,0)">
		<line vector-effect="none" class="st3" x1="0" y1="73.1" x2="1161.3" y2="73.1"/>
	</g>
	<g transform="matrix(0.620079,0,0,0.620079,0,0)">
		<line vector-effect="none" class="st3" x1="0" y1="65.1" x2="1161.3" y2="65.1"/>
	</g>
	<g transform="matrix(0.620079,0,0,0.620079,0,0)">
		<line vector-effect="none" class="st3" x1="0" y1="57.1" x2="1161.3" y2="57.1"/>
	</g>
	<g transform="matrix(0.620079,0,0,0.620079,0,0)">
		<line vector-effect="none" class="st3" x1="0" y1="49.1" x2="1161.3" y2="49.1"/>
	</g>
	<g transform="matrix(0.620079,0,0,0.620079,0,0)">
		<g class="st2">
			<path d="M23,58c0,4.2-1.7,8.1-4.4,11.1c-3.4,3.6-7.5,6.1-11.7,8.2c-0.2,0.1-0.4,0.2-0.5,0.2c-0.3,0-0.4-0.2-0.4-0.4
				c0-0.3,0.2-0.4,0.5-0.6c4-2.3,7.3-5,9.2-8c2-3.1,2.7-6.9,2.7-10.2c0-5-1.5-8.3-4.9-8.3c-3.3,0-5.2,2.3-5.2,3.6
				c0,0.3,0.1,0.6,0.5,0.6S9.5,54,10.4,54c1.6,0,3.1,1.3,3.1,3.3s-1.4,3.4-3.4,3.4c-2.6,0-3.9-2.2-3.9-4.8c0-3.1,2.5-7.1,8.1-7.1
				C19.6,48.7,23,52.4,23,58z M27.9,53.1c0,1-0.8,1.8-1.8,1.8s-1.8-0.8-1.8-1.8s0.8-1.8,1.8-1.8C27.1,51.3,27.9,52.1,27.9,53.1z
				 M27.9,61.1c0,1-0.7,1.7-1.7,1.7s-1.7-0.7-1.7-1.7s0.7-1.7,1.7-1.7C27.1,59.4,27.9,60.1,27.9,61.1z"/>
		</g>
	</g>
	<g transform="matrix(0.620079,0,0,0.620079,0,0)">
		<g class="st2">
			<path d="M34,60c0-0.6,0.5-0.9,1-0.9c0.3,0,0.6,0.2,0.6,0.5c0,0.6-0.2,8.3-0.2,9c0,0.2,0.1,0.4,0.4,0.5c0.1,0,0.1,0,0.2,0
				c0.3,0,0.5-0.3,0.7-0.4c0.4-0.2,0.7-0.4,1.1-0.4c0.2-0.1,0.4-0.1,0.7-0.1c1.5,0.1,2.9,1.2,2.9,3.1c0,1.5-1,3.4-3.8,5.4
				c-0.8,0.5-1.6,1.4-2.5,2c0,0-0.1,0.1-0.2,0.1s-0.2,0-0.3-0.2C34.1,78.2,34,60,34,60z M35.9,76.2c0.1,0,0.2,0,0.3-0.1
				c1-0.6,1.9-1.6,2.3-2.4c0.4-0.7,0.5-1.3,0.5-1.9c0-0.6-0.2-1.2-0.5-1.5c-0.2-0.2-0.5-0.4-0.8-0.4s-0.5,0.1-0.8,0.2
				c-0.4,0.3-1.3,1-1.4,1.3c0,0.1-0.1,0.5-0.1,1c0,1.3,0.1,3.2,0.1,3.2C35.5,75.9,35.6,76.2,35.9,76.2z"/>
		</g>
	</g>
	<g transform="matrix(0.620079,0,0,0.620079,0,0)">
		<path vector-effect="none" class="st4" d="M160,73.1h47v-4h-47L160,73.1"/>
	</g>
	<g transform="matrix(0.620079,0,0,0.620079,0,0)">
		<path vector-effect="none" class="st4" d="M230.5,73.1h47v-4h-47V73.1"/>
	</g>
	<g transform="matrix(0.620079,0,0,0.620079,0,0)">
		<path vector-effect="none" class="st4" d="M402.3,73.1h43v-4h-43V73.1"/>
	</g>
	<g transform="matrix(0.620079,0,0,0.620079,0,0)">
		<path vector-effect="none" class="st4" d="M466.5,73.1h43v-4h-43V73.1"/>
	</g>
	<g transform="matrix(0.620079,0,0,0.620079,0,0)">
		<path vector-effect="none" class="st4" d="M634.3,73.1h43v-4h-43V73.1"/>
	</g>
	<g transform="matrix(0.620079,0,0,0.620079,0,0)">
		<path vector-effect="none" class="st4" d="M698.5,73.1h43v-4h-43V73.1"/>
	</g>
	<g transform="matrix(0.620079,0,0,0.620079,0,0)">
		<path vector-effect="none" class="st4" d="M866.3,73.1h43v-4h-43V73.1"/>
	</g>
	<g transform="matrix(0.620079,0,0,0.620079,0,0)">
		<path vector-effect="none" class="st4" d="M930.5,73.1h43v-4h-43L930.5,73.1"/>
	</g>
	<g transform="matrix(0.620079,0,0,0.620079,579.774,573.473)">
	</g>
	<g transform="matrix(0.620079,0,0,0.620079,579.774,573.473)">
		<g class="st2">
			<path d="M-758.9-829.8c0-1,0.6-1.7,1.4-1.7c0.6,0,1.1,0.4,1.1,1.1c0,0.8-0.4,1.1-0.7,1.3c-0.2,0.1-0.4,0.2-0.4,0.3
				c0,0.3,0.5,0.5,1.1,0.5c1.8,0,2.7-1.8,2.7-3.1c0-0.9-0.5-1.6-1.6-1.6h-0.3c-0.4,0-0.6-0.2-0.6-0.4c0-0.3,0.2-0.4,0.6-0.4h0.3
				c1.7,0,2.7-1.1,2.7-2.6c0-0.6-0.4-1.3-1.5-1.3c-0.6,0-1,0.2-1,0.4c0,0.1,0.1,0.2,0.4,0.4c0.1,0.2,0.3,0.4,0.3,0.7
				c0,0.8-0.6,1.4-1.3,1.4s-1.1-0.5-1.1-1.3c0.1-1.6,1.6-2.5,3.4-2.5c1.8,0,3.2,0.9,3.2,2.5c0,1.2-1,2.1-2.2,2.6
				c-0.2,0.1-0.4,0.2-0.4,0.3s0.1,0.2,0.3,0.3c0.8,0.4,1.1,1.1,1.1,1.8c0,2.3-2,3.8-4.5,3.8C-758-827.6-758.9-828.6-758.9-829.8z"/>
		</g>
	</g>
	<g transform="matrix(0.620079,0,0,0.620079,579.774,573.473)">
	</g>
	<g transform="matrix(0.620079,0,0,0.620079,0,0)">
	</g>
	<g transform="matrix(0.620079,0,0,0.620079,754.636,573.473)">
	</g>
	<g transform="matrix(0.620079,0,0,0.620079,754.636,573.473)">
		<g class="st2">
			<path d="M-970.4-829.8c0-1,0.6-1.7,1.4-1.7c0.6,0,1.1,0.4,1.1,1.1c0,0.8-0.4,1.1-0.7,1.3c-0.2,0.1-0.4,0.2-0.4,0.3
				c0,0.3,0.5,0.5,1.1,0.5c1.8,0,2.7-1.8,2.7-3.1c0-0.9-0.5-1.6-1.6-1.6h-0.3c-0.4,0-0.6-0.2-0.6-0.4c0-0.3,0.2-0.4,0.6-0.4h0.3
				c1.7,0,2.7-1.1,2.7-2.6c0-0.6-0.4-1.3-1.5-1.3c-0.6,0-1,0.2-1,0.4c0,0.1,0.1,0.2,0.4,0.4c0.1,0.2,0.3,0.4,0.3,0.7
				c0,0.8-0.6,1.4-1.3,1.4s-1.1-0.5-1.1-1.3c0.1-1.6,1.6-2.5,3.4-2.5c1.8,0,3.2,0.9,3.2,2.5c0,1.2-1,2.1-2.2,2.6
				c-0.2,0.1-0.4,0.2-0.4,0.3s0.1,0.2,0.3,0.3c0.8,0.4,1.1,1.1,1.1,1.8c0,2.3-2,3.8-4.5,3.8C-969.5-827.6-970.4-828.6-970.4-829.8z"
				/>
		</g>
	</g>
	<g transform="matrix(0.620079,0,0,0.620079,754.636,573.473)">
	</g>
	<g transform="matrix(0.620079,0,0,0.620079,0,0)">
	</g>
	<g transform="matrix(0.620079,0,0,0.620079,1175.67,573.473)">
	</g>
	<g transform="matrix(0.620079,0,0,0.620079,1175.67,573.473)">
		<g class="st2">
			<path d="M-1479.7-829.8c0-1,0.6-1.7,1.4-1.7c0.6,0,1.1,0.4,1.1,1.1c0,0.8-0.4,1.1-0.7,1.3c-0.2,0.1-0.4,0.2-0.4,0.3
				c0,0.3,0.5,0.5,1.1,0.5c1.8,0,2.7-1.8,2.7-3.1c0-0.9-0.5-1.6-1.6-1.6h-0.3c-0.4,0-0.6-0.2-0.6-0.4c0-0.3,0.2-0.4,0.6-0.4h0.3
				c1.7,0,2.7-1.1,2.7-2.6c0-0.6-0.4-1.3-1.5-1.3c-0.6,0-1,0.2-1,0.4c0,0.1,0.1,0.2,0.4,0.4c0.1,0.2,0.3,0.4,0.3,0.7
				c0,0.8-0.6,1.4-1.3,1.4c-0.7,0-1.1-0.5-1.1-1.3c0.1-1.6,1.6-2.5,3.4-2.5s3.2,0.9,3.2,2.5c0,1.2-1,2.1-2.2,2.6
				c-0.2,0.1-0.4,0.2-0.4,0.3s0.1,0.2,0.3,0.3c0.8,0.4,1.1,1.1,1.1,1.8c0,2.3-2,3.8-4.5,3.8
				C-1478.7-827.6-1479.7-828.6-1479.7-829.8z"/>
		</g>
	</g>
	<g transform="matrix(0.620079,0,0,0.620079,1175.67,573.473)">
	</g>
	<g transform="matrix(0.620079,0,0,0.620079,0,0)">
	</g>
	<g transform="matrix(0.620079,0,0,0.620079,1335.03,573.473)">
	</g>
	<g transform="matrix(0.620079,0,0,0.620079,1335.03,573.473)">
		<g class="st2">
			<path d="M-1672.4-829.8c0-1,0.6-1.7,1.4-1.7c0.6,0,1.1,0.4,1.1,1.1c0,0.8-0.4,1.1-0.7,1.3c-0.2,0.1-0.4,0.2-0.4,0.3
				c0,0.3,0.5,0.5,1.1,0.5c1.8,0,2.7-1.8,2.7-3.1c0-0.9-0.5-1.6-1.6-1.6h-0.3c-0.4,0-0.6-0.2-0.6-0.4c0-0.3,0.2-0.4,0.6-0.4h0.3
				c1.7,0,2.7-1.1,2.7-2.6c0-0.6-0.4-1.3-1.5-1.3c-0.6,0-1,0.2-1,0.4c0,0.1,0.1,0.2,0.4,0.4c0.1,0.2,0.3,0.4,0.3,0.7
				c0,0.8-0.6,1.4-1.3,1.4c-0.7,0-1.1-0.5-1.1-1.3c0.1-1.6,1.6-2.5,3.4-2.5s3.2,0.9,3.2,2.5c0,1.2-1,2.1-2.2,2.6
				c-0.2,0.1-0.4,0.2-0.4,0.3s0.1,0.2,0.3,0.3c0.8,0.4,1.1,1.1,1.1,1.8c0,2.3-2,3.8-4.5,3.8
				C-1671.5-827.6-1672.4-828.6-1672.4-829.8z"/>
		</g>
	</g>
	<g transform="matrix(0.620079,0,0,0.620079,1335.03,573.473)">
	</g>
	<g transform="matrix(0.620079,0,0,0.620079,0,0)">
	</g>
	<g transform="matrix(0.620079,0,0,0.620079,1751.1,573.473)">
	</g>
	<g transform="matrix(0.620079,0,0,0.620079,1751.1,573.473)">
		<g class="st2">
			<path d="M-2175.7-829.8c0-1,0.6-1.7,1.4-1.7c0.6,0,1.1,0.4,1.1,1.1c0,0.8-0.4,1.1-0.7,1.3c-0.2,0.1-0.4,0.2-0.4,0.3
				c0,0.3,0.5,0.5,1.1,0.5c1.8,0,2.7-1.8,2.7-3.1c0-0.9-0.5-1.6-1.6-1.6h-0.3c-0.4,0-0.6-0.2-0.6-0.4c0-0.3,0.2-0.4,0.6-0.4h0.3
				c1.7,0,2.7-1.1,2.7-2.6c0-0.6-0.4-1.3-1.5-1.3c-0.6,0-1,0.2-1,0.4c0,0.1,0.1,0.2,0.4,0.4c0.1,0.2,0.3,0.4,0.3,0.7
				c0,0.8-0.6,1.4-1.3,1.4s-1.1-0.5-1.1-1.3c0.1-1.6,1.6-2.5,3.4-2.5c1.8,0,3.2,0.9,3.2,2.5c0,1.2-1,2.1-2.2,2.6
				c-0.2,0.1-0.4,0.2-0.4,0.3s0.1,0.2,0.3,0.3c0.8,0.4,1.1,1.1,1.1,1.8c0,2.3-2,3.8-4.5,3.8
				C-2174.7-827.6-2175.7-828.6-2175.7-829.8z"/>
		</g>
	</g>
	<g transform="matrix(0.620079,0,0,0.620079,1751.1,573.473)">
	</g>
	<g transform="matrix(0.620079,0,0,0.620079,0,0)">
	</g>
	<g transform="matrix(0.620079,0,0,0.620079,1910.46,573.473)">
	</g>
	<g transform="matrix(0.620079,0,0,0.620079,1910.46,573.473)">
		<g class="st2">
			<path d="M-2368.4-829.8c0-1,0.6-1.7,1.4-1.7c0.6,0,1.1,0.4,1.1,1.1c0,0.8-0.4,1.1-0.7,1.3c-0.2,0.1-0.4,0.2-0.4,0.3
				c0,0.3,0.5,0.5,1.1,0.5c1.8,0,2.7-1.8,2.7-3.1c0-0.9-0.5-1.6-1.6-1.6h-0.3c-0.4,0-0.6-0.2-0.6-0.4c0-0.3,0.2-0.4,0.6-0.4h0.3
				c1.7,0,2.7-1.1,2.7-2.6c0-0.6-0.4-1.3-1.5-1.3c-0.6,0-1,0.2-1,0.4c0,0.1,0.1,0.2,0.4,0.4c0.1,0.2,0.3,0.4,0.3,0.7
				c0,0.8-0.6,1.4-1.3,1.4s-1.1-0.5-1.1-1.3c0.1-1.6,1.6-2.5,3.4-2.5c1.8,0,3.2,0.9,3.2,2.5c0,1.2-1,2.1-2.2,2.6
				c-0.2,0.1-0.4,0.2-0.4,0.3s0.1,0.2,0.3,0.3c0.8,0.4,1.1,1.1,1.1,1.8c0,2.3-2,3.8-4.5,3.8
				C-2367.5-827.6-2368.4-828.6-2368.4-829.8z"/>
		</g>
	</g>
	<g transform="matrix(0.620079,0,0,0.620079,1910.46,573.473)">
	</g>
	<g transform="matrix(0.620079,0,0,0.620079,0,0)">
	</g>
	<g transform="matrix(0.620079,0,0,0.620079,2326.54,573.473)">
	</g>
	<g transform="matrix(0.620079,0,0,0.620079,2326.54,573.473)">
		<g class="st2">
			<path d="M-2871.7-829.8c0-1,0.6-1.7,1.4-1.7c0.6,0,1.1,0.4,1.1,1.1c0,0.8-0.4,1.1-0.7,1.3c-0.2,0.1-0.4,0.2-0.4,0.3
				c0,0.3,0.5,0.5,1.1,0.5c1.8,0,2.7-1.8,2.7-3.1c0-0.9-0.5-1.6-1.6-1.6h-0.3c-0.4,0-0.6-0.2-0.6-0.4c0-0.3,0.2-0.4,0.6-0.4h0.3
				c1.7,0,2.7-1.1,2.7-2.6c0-0.6-0.4-1.3-1.5-1.3c-0.6,0-1,0.2-1,0.4c0,0.1,0.1,0.2,0.4,0.4c0.1,0.2,0.3,0.4,0.3,0.7
				c0,0.8-0.6,1.4-1.3,1.4s-1.1-0.5-1.1-1.3c0.1-1.6,1.6-2.5,3.4-2.5c1.8,0,3.2,0.9,3.2,2.5c0,1.2-1,2.1-2.2,2.6
				c-0.2,0.1-0.4,0.2-0.4,0.3s0.1,0.2,0.3,0.3c0.8,0.4,1.1,1.1,1.1,1.8c0,2.3-2,3.8-4.5,3.8
				C-2870.8-827.6-2871.7-828.6-2871.7-829.8z"/>
		</g>
	</g>
	<g transform="matrix(0.620079,0,0,0.620079,2326.54,573.473)">
	</g>
	<g transform="matrix(0.620079,0,0,0.620079,0,0)">
	</g>
	<g transform="matrix(0.620079,0,0,0.620079,2485.9,573.473)">
	</g>
	<g transform="matrix(0.620079,0,0,0.620079,2485.9,573.473)">
		<g class="st2">
			<path d="M-3064.4-829.8c0-1,0.6-1.7,1.4-1.7c0.6,0,1.1,0.4,1.1,1.1c0,0.8-0.4,1.1-0.7,1.3c-0.2,0.1-0.4,0.2-0.4,0.3
				c0,0.3,0.5,0.5,1.1,0.5c1.8,0,2.7-1.8,2.7-3.1c0-0.9-0.5-1.6-1.6-1.6h-0.3c-0.4,0-0.6-0.2-0.6-0.4c0-0.3,0.2-0.4,0.6-0.4h0.3
				c1.7,0,2.7-1.1,2.7-2.6c0-0.6-0.4-1.3-1.5-1.3c-0.6,0-1,0.2-1,0.4c0,0.1,0.1,0.2,0.4,0.4c0.1,0.2,0.3,0.4,0.3,0.7
				c0,0.8-0.6,1.4-1.3,1.4s-1.1-0.5-1.1-1.3c0.1-1.6,1.6-2.5,3.4-2.5c1.8,0,3.2,0.9,3.2,2.5c0,1.2-1,2.1-2.2,2.6
				c-0.2,0.1-0.4,0.2-0.4,0.3s0.1,0.2,0.3,0.3c0.8,0.4,1.1,1.1,1.1,1.8c0,2.3-2,3.8-4.5,3.8
				C-3063.5-827.6-3064.4-828.6-3064.4-829.8z"/>
		</g>
	</g>
	<g transform="matrix(0.620079,0,0,0.620079,2485.9,573.473)">
	</g>
	<g transform="matrix(0.620079,0,0,0.620079,0,0)">
	</g>
	<g transform="matrix(0.620079,0,0,0.620079,0,0)">
		<line vector-effect="none" class="st3" x1="98.3" y1="46.3" x2="98.3" y2="73.1"/>
	</g>
	<g transform="matrix(0.620079,0,0,0.620079,0,0)">
		<g class="st2">
			<path d="M97.8,46.7c0-1.9,1.7-6.2,7.3-6.2c2.1,0,3.6,1.2,3.6,3.1c0,1.2-1.2,6.2-7.3,6.2C99.3,49.7,97.8,48.6,97.8,46.7z
				 M107.5,43.5c0-0.3-0.1-0.5-0.2-0.7c-0.3-0.4-0.6-0.8-1.3-0.8c-0.8,0-1.9,0.4-3.7,1.4c-2.6,1.5-3.4,2.5-3.4,3.3
				c0,0.3,0.1,0.5,0.2,0.7c0.3,0.4,0.7,0.8,1.5,0.8s2-0.4,3.6-1.5C106.7,45.1,107.5,44.2,107.5,43.5z"/>
		</g>
	</g>
	<g transform="matrix(0.620079,0,0,0.620079,0,0)">
		<line vector-effect="none" class="st3" x1="160" y1="46.3" x2="160" y2="72.9"/>
	</g>
	<g transform="matrix(0.620079,0,0,0.620079,0,0)">
		<g class="st2">
			<path d="M159.5,46.6c0-3.1,3.2-6,7.1-6c2.1,0,3.5,1.2,3.5,3c0,3-3.9,6-7.1,6C161,49.6,159.5,48.5,159.5,46.6z"/>
		</g>
	</g>
	<g transform="matrix(0.620079,0,0,0.620079,0,0)">
		<line vector-effect="none" class="st3" x1="183.5" y1="46.3" x2="183.5" y2="72.9"/>
	</g>
	<g transform="matrix(0.620079,0,0,0.620079,0,0)">
		<g class="st2">
			<path d="M183,46.6c0-3.1,3.2-6,7.1-6c2.1,0,3.5,1.2,3.5,3c0,3-3.9,6-7.1,6C184.5,49.6,183,48.5,183,46.6z"/>
		</g>
	</g>
	<g transform="matrix(0.620079,0,0,0.620079,0,0)">
		<line vector-effect="none" class="st3" x1="207" y1="46.3" x2="207" y2="72.9"/>
	</g>
	<g transform="matrix(0.620079,0,0,0.620079,0,0)">
		<g class="st2">
			<path d="M206.5,46.6c0-3.1,3.2-6,7.1-6c2.1,0,3.5,1.2,3.5,3c0,3-3.9,6-7.1,6C208,49.6,206.5,48.5,206.5,46.6z"/>
		</g>
	</g>
	<g transform="matrix(0.620079,0,0,0.620079,0,0)">
		<line vector-effect="none" class="st3" x1="230.5" y1="46.3" x2="230.5" y2="72.9"/>
	</g>
	<g transform="matrix(0.620079,0,0,0.620079,0,0)">
		<g class="st2">
			<path d="M230,46.6c0-3.1,3.2-6,7.1-6c2.1,0,3.5,1.2,3.5,3c0,3-3.9,6-7.1,6C231.5,49.6,230,48.5,230,46.6z"/>
		</g>
	</g>
	<g transform="matrix(0.620079,0,0,0.620079,0,0)">
		<line vector-effect="none" class="st3" x1="254" y1="46.3" x2="254" y2="72.9"/>
	</g>
	<g transform="matrix(0.620079,0,0,0.620079,0,0)">
		<g class="st2">
			<path d="M253.5,46.6c0-3.1,3.2-6,7.1-6c2.1,0,3.5,1.2,3.5,3c0,3-3.9,6-7.1,6C255,49.6,253.5,48.5,253.5,46.6z"/>
		</g>
	</g>
	<g transform="matrix(0.620079,0,0,0.620079,0,0)">
		<line vector-effect="none" class="st3" x1="277.5" y1="46.3" x2="277.5" y2="72.9"/>
	</g>
	<g transform="matrix(0.620079,0,0,0.620079,0,0)">
		<g class="st2">
			<path d="M277,46.6c0-3.1,3.2-6,7.1-6c2.1,0,3.5,1.2,3.5,3c0,3-3.9,6-7.1,6C278.5,49.6,277,48.5,277,46.6z"/>
		</g>
	</g>
	<g transform="matrix(0.620079,0,0,0.620079,0,0)">
		<line vector-effect="none" class="st3" x1="340.5" y1="46.3" x2="340.5" y2="73.1"/>
	</g>
	<g transform="matrix(0.620079,0,0,0.620079,0,0)">
		<g class="st2">
			<path d="M340,46.7c0-1.9,1.7-6.2,7.3-6.2c2.1,0,3.6,1.2,3.6,3.1c0,1.2-1.2,6.2-7.3,6.2C341.6,49.7,340,48.6,340,46.7z
				 M349.8,43.5c0-0.3-0.1-0.5-0.2-0.7c-0.3-0.4-0.6-0.8-1.3-0.8c-0.8,0-1.9,0.4-3.7,1.4c-2.6,1.5-3.4,2.5-3.4,3.3
				c0,0.3,0.1,0.5,0.2,0.7c0.3,0.4,0.7,0.8,1.5,0.8s2-0.4,3.6-1.5C349,45.1,349.8,44.2,349.8,43.5z"/>
		</g>
	</g>
	<g transform="matrix(0.620079,0,0,0.620079,0,0)">
		<line vector-effect="none" class="st3" x1="402.3" y1="46.3" x2="402.3" y2="72.9"/>
	</g>
	<g transform="matrix(0.620079,0,0,0.620079,0,0)">
		<g class="st2">
			<path d="M401.8,46.6c0-3.1,3.2-6,7.1-6c2.1,0,3.5,1.2,3.5,3c0,3-3.9,6-7.1,6C403.3,49.6,401.8,48.5,401.8,46.6z"/>
		</g>
	</g>
	<g transform="matrix(0.620079,0,0,0.620079,0,0)">
		<line vector-effect="none" class="st3" x1="423.8" y1="46.3" x2="423.8" y2="72.9"/>
	</g>
	<g transform="matrix(0.620079,0,0,0.620079,0,0)">
		<g class="st2">
			<path d="M423.3,46.6c0-3.1,3.2-6,7.1-6c2.1,0,3.5,1.2,3.5,3c0,3-3.9,6-7.1,6C424.8,49.6,423.3,48.5,423.3,46.6z"/>
		</g>
	</g>
	<g transform="matrix(0.620079,0,0,0.620079,0,0)">
		<line vector-effect="none" class="st3" x1="445.3" y1="46.3" x2="445.3" y2="72.9"/>
	</g>
	<g transform="matrix(0.620079,0,0,0.620079,0,0)">
		<g class="st2">
			<path d="M444.8,46.6c0-3.1,3.2-6,7.1-6c2.1,0,3.5,1.2,3.5,3c0,3-3.9,6-7.1,6C446.3,49.6,444.8,48.5,444.8,46.6z"/>
		</g>
	</g>
	<g transform="matrix(0.620079,0,0,0.620079,0,0)">
		<line vector-effect="none" class="st3" x1="466.5" y1="46.3" x2="466.5" y2="72.9"/>
	</g>
	<g transform="matrix(0.620079,0,0,0.620079,0,0)">
		<g class="st2">
			<path d="M466,46.6c0-3.1,3.2-6,7.1-6c2.1,0,3.5,1.2,3.5,3c0,3-3.9,6-7.1,6C467.5,49.6,466,48.5,466,46.6z"/>
		</g>
	</g>
	<g transform="matrix(0.620079,0,0,0.620079,0,0)">
		<line vector-effect="none" class="st3" x1="488" y1="46.3" x2="488" y2="72.9"/>
	</g>
	<g transform="matrix(0.620079,0,0,0.620079,0,0)">
		<g class="st2">
			<path d="M487.5,46.6c0-3.1,3.2-6,7.1-6c2.1,0,3.5,1.2,3.5,3c0,3-3.9,6-7.1,6C489,49.6,487.5,48.5,487.5,46.6z"/>
		</g>
	</g>
	<g transform="matrix(0.620079,0,0,0.620079,0,0)">
		<line vector-effect="none" class="st3" x1="509.5" y1="46.3" x2="509.5" y2="72.9"/>
	</g>
	<g transform="matrix(0.620079,0,0,0.620079,0,0)">
		<g class="st2">
			<path d="M509,46.6c0-3.1,3.2-6,7.1-6c2.1,0,3.5,1.2,3.5,3c0,3-3.9,6-7.1,6C510.5,49.6,509,48.5,509,46.6z"/>
		</g>
	</g>
	<g transform="matrix(0.620079,0,0,0.620079,0,0)">
		<line vector-effect="none" class="st3" x1="572.5" y1="46.3" x2="572.5" y2="73.1"/>
	</g>
	<g transform="matrix(0.620079,0,0,0.620079,0,0)">
		<g class="st2">
			<path d="M572,46.7c0-1.9,1.7-6.2,7.3-6.2c2.1,0,3.6,1.2,3.6,3.1c0,1.2-1.2,6.2-7.3,6.2C573.6,49.7,572,48.6,572,46.7z
				 M581.8,43.5c0-0.3-0.1-0.5-0.2-0.7c-0.3-0.4-0.6-0.8-1.3-0.8c-0.8,0-1.9,0.4-3.7,1.4c-2.6,1.5-3.4,2.5-3.4,3.3
				c0,0.3,0.1,0.5,0.2,0.7c0.3,0.4,0.7,0.8,1.5,0.8s2-0.4,3.6-1.5C581,45.1,581.8,44.2,581.8,43.5z"/>
		</g>
	</g>
	<g transform="matrix(0.620079,0,0,0.620079,0,0)">
		<line vector-effect="none" class="st3" x1="634.3" y1="46.3" x2="634.3" y2="72.9"/>
	</g>
	<g transform="matrix(0.620079,0,0,0.620079,0,0)">
		<g class="st2">
			<path d="M633.8,46.6c0-3.1,3.2-6,7.1-6c2.1,0,3.5,1.2,3.5,3c0,3-3.9,6-7.1,6C635.3,49.6,633.8,48.5,633.8,46.6z"/>
		</g>
	</g>
	<g transform="matrix(0.620079,0,0,0.620079,0,0)">
		<line vector-effect="none" class="st3" x1="655.8" y1="46.3" x2="655.8" y2="72.9"/>
	</g>
	<g transform="matrix(0.620079,0,0,0.620079,0,0)">
		<g class="st2">
			<path d="M655.3,46.6c0-3.1,3.2-6,7.1-6c2.1,0,3.5,1.2,3.5,3c0,3-3.9,6-7.1,6C656.8,49.6,655.3,48.5,655.3,46.6z"/>
		</g>
	</g>
	<g transform="matrix(0.620079,0,0,0.620079,0,0)">
		<line vector-effect="none" class="st3" x1="677.3" y1="46.3" x2="677.3" y2="72.9"/>
	</g>
	<g transform="matrix(0.620079,0,0,0.620079,0,0)">
		<g class="st2">
			<path d="M676.8,46.6c0-3.1,3.2-6,7.1-6c2.1,0,3.5,1.2,3.5,3c0,3-3.9,6-7.1,6C678.3,49.6,676.8,48.5,676.8,46.6z"/>
		</g>
	</g>
	<g transform="matrix(0.620079,0,0,0.620079,0,0)">
		<line vector-effect="none" class="st3" x1="698.5" y1="46.3" x2="698.5" y2="72.9"/>
	</g>
	<g transform="matrix(0.620079,0,0,0.620079,0,0)">
		<g class="st2">
			<path d="M698,46.6c0-3.1,3.2-6,7.1-6c2.1,0,3.5,1.2,3.5,3c0,3-3.9,6-7.1,6C699.5,49.6,698,48.5,698,46.6z"/>
		</g>
	</g>
	<g transform="matrix(0.620079,0,0,0.620079,0,0)">
		<line vector-effect="none" class="st3" x1="720" y1="46.3" x2="720" y2="72.9"/>
	</g>
	<g transform="matrix(0.620079,0,0,0.620079,0,0)">
		<g class="st2">
			<path d="M719.5,46.6c0-3.1,3.2-6,7.1-6c2.1,0,3.5,1.2,3.5,3c0,3-3.9,6-7.1,6C721,49.6,719.5,48.5,719.5,46.6z"/>
		</g>
	</g>
	<g transform="matrix(0.620079,0,0,0.620079,0,0)">
		<line vector-effect="none" class="st3" x1="741.5" y1="46.3" x2="741.5" y2="72.9"/>
	</g>
	<g transform="matrix(0.620079,0,0,0.620079,0,0)">
		<g class="st2">
			<path d="M741,46.6c0-3.1,3.2-6,7.1-6c2.1,0,3.5,1.2,3.5,3c0,3-3.9,6-7.1,6C742.5,49.6,741,48.5,741,46.6z"/>
		</g>
	</g>
	<g transform="matrix(0.620079,0,0,0.620079,0,0)">
		<line vector-effect="none" class="st3" x1="804.5" y1="46.3" x2="804.5" y2="73.1"/>
	</g>
	<g transform="matrix(0.620079,0,0,0.620079,0,0)">
		<g class="st2">
			<path d="M804,46.7c0-1.9,1.7-6.2,7.3-6.2c2.1,0,3.6,1.2,3.6,3.1c0,1.2-1.2,6.2-7.3,6.2C805.6,49.7,804,48.6,804,46.7z
				 M813.8,43.5c0-0.3-0.1-0.5-0.2-0.7c-0.3-0.4-0.6-0.8-1.3-0.8c-0.8,0-1.9,0.4-3.7,1.4c-2.6,1.5-3.4,2.5-3.4,3.3
				c0,0.3,0.1,0.5,0.2,0.7c0.3,0.4,0.7,0.8,1.5,0.8s2-0.4,3.6-1.5C813,45.1,813.8,44.2,813.8,43.5z"/>
		</g>
	</g>
	<g transform="matrix(0.620079,0,0,0.620079,0,0)">
		<line vector-effect="none" class="st3" x1="866.3" y1="46.3" x2="866.3" y2="72.9"/>
	</g>
	<g transform="matrix(0.620079,0,0,0.620079,0,0)">
		<g class="st2">
			<path d="M865.8,46.6c0-3.1,3.2-6,7.1-6c2.1,0,3.5,1.2,3.5,3c0,3-3.9,6-7.1,6C867.3,49.6,865.8,48.5,865.8,46.6z"/>
		</g>
	</g>
	<g transform="matrix(0.620079,0,0,0.620079,0,0)">
		<line vector-effect="none" class="st3" x1="887.8" y1="46.3" x2="887.8" y2="72.9"/>
	</g>
	<g transform="matrix(0.620079,0,0,0.620079,0,0)">
		<g class="st2">
			<path d="M887.3,46.6c0-3.1,3.2-6,7.1-6c2.1,0,3.5,1.2,3.5,3c0,3-3.9,6-7.1,6C888.8,49.6,887.3,48.5,887.3,46.6z"/>
		</g>
	</g>
	<g transform="matrix(0.620079,0,0,0.620079,0,0)">
		<line vector-effect="none" class="st3" x1="909.3" y1="46.3" x2="909.3" y2="72.9"/>
	</g>
	<g transform="matrix(0.620079,0,0,0.620079,0,0)">
		<g class="st2">
			<path d="M908.8,46.6c0-3.1,3.2-6,7.1-6c2.1,0,3.5,1.2,3.5,3c0,3-3.9,6-7.1,6C910.3,49.6,908.8,48.5,908.8,46.6z"/>
		</g>
	</g>
	<g transform="matrix(0.620079,0,0,0.620079,0,0)">
		<line vector-effect="none" class="st3" x1="930.5" y1="46.3" x2="930.5" y2="72.9"/>
	</g>
	<g transform="matrix(0.620079,0,0,0.620079,0,0)">
		<g class="st2">
			<path d="M930,46.6c0-3.1,3.2-6,7.1-6c2.1,0,3.5,1.2,3.5,3c0,3-3.9,6-7.1,6C931.5,49.6,930,48.5,930,46.6z"/>
		</g>
	</g>
	<g transform="matrix(0.620079,0,0,0.620079,0,0)">
		<line vector-effect="none" class="st3" x1="952" y1="46.3" x2="952" y2="72.9"/>
	</g>
	<g transform="matrix(0.620079,0,0,0.620079,0,0)">
		<g class="st2">
			<path d="M951.5,46.6c0-3.1,3.2-6,7.1-6c2.1,0,3.5,1.2,3.5,3c0,3-3.9,6-7.1,6C953,49.6,951.5,48.5,951.5,46.6z"/>
		</g>
	</g>
	<g transform="matrix(0.620079,0,0,0.620079,0,0)">
		<line vector-effect="none" class="st3" x1="973.5" y1="46.3" x2="973.5" y2="72.9"/>
	</g>
	<g transform="matrix(0.620079,0,0,0.620079,0,0)">
		<g class="st2">
			<path d="M973,46.6c0-3.1,3.2-6,7.1-6c2.1,0,3.5,1.2,3.5,3c0,3-3.9,6-7.1,6C974.5,49.6,973,48.5,973,46.6z"/>
		</g>
	</g>
	<g transform="matrix(0.620079,0,0,0.620079,0,0)">
		<line vector-effect="none" class="st3" x1="1025.8" y1="46.3" x2="1025.8" y2="73.1"/>
	</g>
	<g transform="matrix(0.620079,0,0,0.620079,0,0)">
		<g class="st2">
			<path d="M1025.3,46.7c0-1.9,1.7-6.2,7.3-6.2c2.1,0,3.6,1.2,3.6,3.1c0,1.2-1.2,6.2-7.3,6.2C1026.8,49.7,1025.3,48.6,1025.3,46.7z
				 M1035,43.5c0-0.3-0.1-0.5-0.2-0.7c-0.3-0.4-0.6-0.8-1.3-0.8c-0.8,0-1.9,0.4-3.7,1.4c-2.6,1.5-3.4,2.5-3.4,3.3
				c0,0.3,0.1,0.5,0.2,0.7c0.3,0.4,0.7,0.8,1.5,0.8s2-0.4,3.6-1.5C1034.2,45.1,1035,44.2,1035,43.5z"/>
		</g>
	</g>
	<g transform="matrix(0.620079,0,0,0.620079,0,0)">
		<g class="st2">
			<path d="M1095.2,65.4h-7.4c-0.5,0-0.8-0.4-0.8-0.8v-2.9c0-0.5,0.4-0.8,0.8-0.8h7.4c0.4,0,0.8,0.4,0.8,0.8v2.9
				C1096,65,1095.6,65.4,1095.2,65.4z"/>
		</g>
	</g>
</g>
</svg>
