<?xml version="1.0" encoding="utf-8"?>
<!-- Generator: Adobe Illustrator 26.3.1, SVG Export Plug-In . SVG Version: 6.00 Build 0)  -->
<svg version="1.1" id="Layer_1" xmlns="http://www.w3.org/2000/svg" xmlns:xlink="http://www.w3.org/1999/xlink" x="0px" y="0px"
	 viewBox="0 0 720.1 60.5" style="enable-background:new 0 0 720.1 60.5;" xml:space="preserve">
<style type="text/css">
	.st0{fill:none;stroke:#000000;stroke-width:1.538;stroke-linejoin:bevel;stroke-miterlimit:6.2008;}
	.st1{fill:none;stroke:#000000;stroke-width:0.4806;stroke-linejoin:bevel;stroke-miterlimit:6.2008;}
	.st2{enable-background:new    ;}
	.st3{fill:none;stroke:#000000;stroke-width:0.3845;stroke-linejoin:bevel;stroke-miterlimit:6.2008;}
	.st4{fill-rule:evenodd;clip-rule:evenodd;}
</style>
<g>
	<g transform="matrix(0.620079,0,0,0.620079,0,0)">
		<line vector-effect="none" class="st0" x1="73" y1="49.1" x2="73" y2="81.1"/>
	</g>
	<g transform="matrix(0.620079,0,0,0.620079,0,0)">
		<line vector-effect="none" class="st1" x1="78.8" y1="49.1" x2="78.8" y2="81.1"/>
	</g>
	<g transform="matrix(0.620079,0,0,0.620079,0,0)">
		<g class="st2">
			<path d="M84.3,62.7c-0.9,0-1.6-0.7-1.6-1.6s0.7-1.6,1.6-1.6s1.6,0.7,1.6,1.6S85.1,62.7,84.3,62.7z"/>
		</g>
	</g>
	<g transform="matrix(0.620079,0,0,0.620079,0,0)">
		<g class="st2">
			<path d="M84.3,70.7c-0.9,0-1.6-0.7-1.6-1.6s0.7-1.6,1.6-1.6s1.6,0.7,1.6,1.6S85.1,70.7,84.3,70.7z"/>
		</g>
	</g>
	<g transform="matrix(0.620079,0,0,0.620079,0,0)">
		<line vector-effect="none" class="st1" x1="301.5" y1="49.1" x2="301.5" y2="81.1"/>
	</g>
	<g transform="matrix(0.620079,0,0,0.620079,0,0)">
		<line vector-effect="none" class="st0" x1="307.3" y1="49.1" x2="307.3" y2="81.1"/>
	</g>
	<g transform="matrix(0.620079,0,0,0.620079,0,0)">
		<g class="st2">
			<path d="M296,62.7c-0.9,0-1.6-0.7-1.6-1.6s0.7-1.6,1.6-1.6s1.6,0.7,1.6,1.6S296.9,62.7,296,62.7z"/>
		</g>
	</g>
	<g transform="matrix(0.620079,0,0,0.620079,0,0)">
		<g class="st2">
			<path d="M296,70.7c-0.9,0-1.6-0.7-1.6-1.6s0.7-1.6,1.6-1.6s1.6,0.7,1.6,1.6S296.9,70.7,296,70.7z"/>
		</g>
	</g>
	<g transform="matrix(0.620079,0,0,0.620079,0,0)">
		<line vector-effect="none" class="st0" x1="307.3" y1="49.1" x2="307.3" y2="81.1"/>
	</g>
	<g transform="matrix(0.620079,0,0,0.620079,0,0)">
		<line vector-effect="none" class="st1" x1="313" y1="49.1" x2="313" y2="81.1"/>
	</g>
	<g transform="matrix(0.620079,0,0,0.620079,0,0)">
		<g class="st2">
			<path d="M318.5,62.7c-0.9,0-1.6-0.7-1.6-1.6s0.7-1.6,1.6-1.6s1.6,0.7,1.6,1.6S319.4,62.7,318.5,62.7z"/>
		</g>
	</g>
	<g transform="matrix(0.620079,0,0,0.620079,0,0)">
		<g class="st2">
			<path d="M318.5,70.7c-0.9,0-1.6-0.7-1.6-1.6s0.7-1.6,1.6-1.6s1.6,0.7,1.6,1.6S319.4,70.7,318.5,70.7z"/>
		</g>
	</g>
	<g transform="matrix(0.620079,0,0,0.620079,0,0)">
		<line vector-effect="none" class="st1" x1="535.8" y1="49.1" x2="535.8" y2="81.1"/>
	</g>
	<g transform="matrix(0.620079,0,0,0.620079,0,0)">
		<line vector-effect="none" class="st0" x1="541.5" y1="49.1" x2="541.5" y2="81.1"/>
	</g>
	<g transform="matrix(0.620079,0,0,0.620079,0,0)">
		<g class="st2">
			<path d="M530.3,62.7c-0.9,0-1.6-0.7-1.6-1.6s0.7-1.6,1.6-1.6c0.9,0,1.6,0.7,1.6,1.6S531.1,62.7,530.3,62.7z"/>
		</g>
	</g>
	<g transform="matrix(0.620079,0,0,0.620079,0,0)">
		<g class="st2">
			<path d="M530.3,70.7c-0.9,0-1.6-0.7-1.6-1.6s0.7-1.6,1.6-1.6c0.9,0,1.6,0.7,1.6,1.6S531.1,70.7,530.3,70.7z"/>
		</g>
	</g>
	<g transform="matrix(0.620079,0,0,0.620079,0,0)">
		<line vector-effect="none" class="st0" x1="541.5" y1="49.1" x2="541.5" y2="81.1"/>
	</g>
	<g transform="matrix(0.620079,0,0,0.620079,0,0)">
		<line vector-effect="none" class="st1" x1="547.3" y1="49.1" x2="547.3" y2="81.1"/>
	</g>
	<g transform="matrix(0.620079,0,0,0.620079,0,0)">
		<g class="st2">
			<path d="M552.8,62.7c-0.9,0-1.6-0.7-1.6-1.6s0.7-1.6,1.6-1.6s1.6,0.7,1.6,1.6S553.6,62.7,552.8,62.7z"/>
		</g>
	</g>
	<g transform="matrix(0.620079,0,0,0.620079,0,0)">
		<g class="st2">
			<path d="M552.8,70.7c-0.9,0-1.6-0.7-1.6-1.6s0.7-1.6,1.6-1.6s1.6,0.7,1.6,1.6S553.6,70.7,552.8,70.7z"/>
		</g>
	</g>
	<g transform="matrix(0.620079,0,0,0.620079,0,0)">
		<line vector-effect="none" class="st1" x1="769.8" y1="49.1" x2="769.8" y2="81.1"/>
	</g>
	<g transform="matrix(0.620079,0,0,0.620079,0,0)">
		<line vector-effect="none" class="st0" x1="775.5" y1="49.1" x2="775.5" y2="81.1"/>
	</g>
	<g transform="matrix(0.620079,0,0,0.620079,0,0)">
		<g class="st2">
			<path d="M764.3,62.7c-0.9,0-1.6-0.7-1.6-1.6s0.7-1.6,1.6-1.6c0.9,0,1.6,0.7,1.6,1.6S765.1,62.7,764.3,62.7z"/>
		</g>
	</g>
	<g transform="matrix(0.620079,0,0,0.620079,0,0)">
		<g class="st2">
			<path d="M764.3,70.7c-0.9,0-1.6-0.7-1.6-1.6s0.7-1.6,1.6-1.6c0.9,0,1.6,0.7,1.6,1.6S765.1,70.7,764.3,70.7z"/>
		</g>
	</g>
	<g transform="matrix(0.620079,0,0,0.620079,0,0)">
		<line vector-effect="none" class="st0" x1="775.5" y1="49.1" x2="775.5" y2="81.1"/>
	</g>
	<g transform="matrix(0.620079,0,0,0.620079,0,0)">
		<line vector-effect="none" class="st1" x1="781.3" y1="49.1" x2="781.3" y2="81.1"/>
	</g>
	<g transform="matrix(0.620079,0,0,0.620079,0,0)">
		<g class="st2">
			<path d="M786.8,62.7c-0.9,0-1.6-0.7-1.6-1.6s0.7-1.6,1.6-1.6s1.6,0.7,1.6,1.6S787.6,62.7,786.8,62.7z"/>
		</g>
	</g>
	<g transform="matrix(0.620079,0,0,0.620079,0,0)">
		<g class="st2">
			<path d="M786.8,70.7c-0.9,0-1.6-0.7-1.6-1.6s0.7-1.6,1.6-1.6s1.6,0.7,1.6,1.6S787.6,70.7,786.8,70.7z"/>
		</g>
	</g>
	<g transform="matrix(0.620079,0,0,0.620079,0,0)">
		<line vector-effect="none" class="st1" x1="1004" y1="49.1" x2="1004" y2="81.1"/>
	</g>
	<g transform="matrix(0.620079,0,0,0.620079,0,0)">
		<line vector-effect="none" class="st0" x1="1009.8" y1="49.1" x2="1009.8" y2="81.1"/>
	</g>
	<g transform="matrix(0.620079,0,0,0.620079,0,0)">
		<g class="st2">
			<path d="M998.5,62.7c-0.9,0-1.6-0.7-1.6-1.6s0.7-1.6,1.6-1.6s1.6,0.7,1.6,1.6S999.4,62.7,998.5,62.7z"/>
		</g>
	</g>
	<g transform="matrix(0.620079,0,0,0.620079,0,0)">
		<g class="st2">
			<path d="M998.5,70.7c-0.9,0-1.6-0.7-1.6-1.6s0.7-1.6,1.6-1.6s1.6,0.7,1.6,1.6S999.4,70.7,998.5,70.7z"/>
		</g>
	</g>
	<g transform="matrix(0.620079,0,0,0.620079,0,0)">
		<line vector-effect="none" class="st1" x1="1153.5" y1="49.1" x2="1153.5" y2="81.1"/>
	</g>
	<g transform="matrix(0.620079,0,0,0.620079,0,0)">
		<line vector-effect="none" class="st0" x1="1159.3" y1="49.1" x2="1159.3" y2="81.1"/>
	</g>
	<g transform="matrix(0.620079,0,0,0.620079,0,0)">
	</g>
	<g transform="matrix(0.620079,0,0,0.620079,326.781,950.384)">
	</g>
	<g transform="matrix(0.620079,0,0,0.620079,326.781,950.384)">
		<g class="st2">
			<path d="M-447.2-1532.7h0.6v17.5c0,1.9-2.5,3.8-4.5,3.8c-1.2,0-2.2-0.7-2.2-1.9c0-2,2-3.8,4.4-3.8c0.7,0,1.2,0.2,1.6,0.5
				L-447.2-1532.7z"/>
		</g>
		<g class="st2">
			<path d="M-439.5-1518.4v-1.8h10.5v1.8H-439.5z M-429-1515.8v1.9h-10.5v-1.9H-429z"/>
			<path d="M-418.1-1518.8c-1.7-0.9-2.6-1.7-2.6-3.7c0-2.5,2-4.1,4.4-4.1c1.8,0,4.2,0.9,4.2,3.1c0,1.6-1.2,2.3-2.4,3.1
				c2,1.1,3.1,2,3.1,4.2c0,3-2.3,4.7-5.1,4.7c-2.4,0-4.8-1-4.8-3.7C-421.3-1517.1-419.8-1518-418.1-1518.8z M-416.3-1512.4
				c1.6,0,3-0.9,3-2.6c-0.1-1.8-2.4-2.9-3.9-3.3c-1.3,0.4-1.9,1.7-1.9,3C-419.1-1513.6-418.1-1512.4-416.3-1512.4z M-415.4-1520.6
				c0.9-0.5,1.5-1.5,1.5-2.5c0-1.6-0.9-2.5-2.5-2.5c-1.3,0-2.3,0.7-2.3,2.1C-418.7-1521.7-416.8-1521.2-415.4-1520.6z"/>
			<path d="M-407.1-1518.8c-1.7-0.9-2.6-1.7-2.6-3.7c0-2.5,2-4.1,4.4-4.1c1.8,0,4.2,0.9,4.2,3.1c0,1.6-1.2,2.3-2.4,3.1
				c2,1.1,3.1,2,3.1,4.2c0,3-2.3,4.7-5.1,4.7c-2.4,0-4.8-1-4.8-3.7C-410.2-1517.1-408.8-1518-407.1-1518.8z M-405.2-1512.4
				c1.6,0,3-0.9,3-2.6c-0.1-1.8-2.4-2.9-3.9-3.3c-1.3,0.4-1.9,1.7-1.9,3C-408-1513.6-407-1512.4-405.2-1512.4z M-404.4-1520.6
				c0.9-0.5,1.5-1.5,1.5-2.5c0-1.6-0.9-2.5-2.5-2.5c-1.3,0-2.3,0.7-2.3,2.1C-407.7-1521.7-405.8-1521.2-404.4-1520.6z"/>
		</g>
	</g>
	<g transform="matrix(0.620079,0,0,0.620079,326.781,950.384)">
	</g>
	<g transform="matrix(0.620079,0,0,0.620079,0,0)">
	</g>
	<g transform="matrix(0.620079,0,0,0.620079,907.795,950.384)">
	</g>
	<g transform="matrix(0.620079,0,0,0.620079,907.795,950.384)">
		<g class="st2">
			<path d="M-1150-1532.7h0.6v17.5c0,1.9-2.5,3.8-4.5,3.8c-1.2,0-2.2-0.7-2.2-1.9c0-2,2-3.8,4.4-3.8c0.7,0,1.2,0.2,1.6,0.5
				L-1150-1532.7z"/>
		</g>
		<g class="st2">
			<path d="M-1142.3-1518.4v-1.8h10.5v1.8H-1142.3z M-1131.8-1515.8v1.9h-10.5v-1.9H-1131.8z"/>
			<path d="M-1119.1-1526.5c3.8,0,5,3.6,5,6.8c0,3.5-1.7,8.3-5.9,8.3c-1.5,0-3.5-0.8-3.5-2.6c0-0.9,0.5-1.7,1.5-1.7
				c0.9,0,1.4,0.6,1.4,1.4c0,0.5-0.4,0.9-0.4,1.4c0,0.4,0.5,0.5,0.9,0.5c1.8,0,2.5-2.2,2.7-3.6c0-0.4,0.2-2.2,0.2-2.6
				c-1,0.9-1.7,1.3-3,1.3c-2.4,0-3.8-2-3.8-4.2C-1124-1524.5-1122.2-1526.5-1119.1-1526.5z M-1121.1-1522c0,1.3,0.1,3.2,1.8,3.2
				c1.7,0,2.1-2.2,2.1-3.5s-0.3-3.3-2-3.3C-1121-1525.6-1121.1-1523.2-1121.1-1522z"/>
			<path d="M-1109.7-1518.8c-1.7-0.9-2.6-1.7-2.6-3.7c0-2.5,2-4.1,4.4-4.1c1.8,0,4.2,0.9,4.2,3.1c0,1.6-1.2,2.3-2.4,3.1
				c2,1.1,3.1,2,3.1,4.2c0,3-2.3,4.7-5.1,4.7c-2.4,0-4.8-1-4.8-3.7C-1112.8-1517.1-1111.4-1518-1109.7-1518.8z M-1107.8-1512.4
				c1.6,0,3-0.9,3-2.6c-0.1-1.8-2.4-2.9-3.9-3.3c-1.3,0.4-1.9,1.7-1.9,3C-1110.6-1513.6-1109.6-1512.4-1107.8-1512.4z M-1107-1520.6
				c0.9-0.5,1.5-1.5,1.5-2.5c0-1.6-0.9-2.5-2.5-2.5c-1.3,0-2.3,0.7-2.3,2.1C-1110.3-1521.7-1108.4-1521.2-1107-1520.6z"/>
		</g>
	</g>
	<g transform="matrix(0.620079,0,0,0.620079,907.795,950.384)">
	</g>
	<g transform="matrix(0.620079,0,0,0.620079,0,0)">
	</g>
	<g transform="matrix(0.620079,0,0,0.620079,1488.81,950.384)">
	</g>
	<g transform="matrix(0.620079,0,0,0.620079,1488.81,950.384)">
		<g class="st2">
			<path d="M-1852.7-1532.7h0.6v17.5c0,1.9-2.5,3.8-4.5,3.8c-1.2,0-2.2-0.7-2.2-1.9c0-2,2-3.8,4.4-3.8c0.7,0,1.2,0.2,1.6,0.5
				L-1852.7-1532.7z"/>
		</g>
		<g class="st2">
			<path d="M-1845-1518.4v-1.8h10.5v1.8H-1845z M-1834.5-1515.8v1.9h-10.5v-1.9H-1834.5z"/>
			<path d="M-1820.8-1526.6h0.7v13.1c0,0.4,0.3,0.8,0.7,0.8h2.1v0.9h-8.1v-0.9h1.7c0.5,0,0.8-0.5,0.8-0.9v-9.9
				c0-0.4-0.3-0.8-0.7-0.8h-2.4v-1C-1824.1-1525.3-1822.5-1525.7-1820.8-1526.6z"/>
			<path d="M-1815.2-1518.9c0-3.2,1.3-7.5,5.6-7.5c4.1,0,5.4,4.6,5.4,7.5c0,3.1-1.3,7.5-5.5,7.5
				C-1814-1511.5-1815.2-1516-1815.2-1518.9z M-1809.8-1512.5c2.1,0,2.1-3.8,2.1-6.5c0-3.2,0-6.5-2-6.5c-2.1,0-2.1,3.4-2.1,6.9
				C-1811.8-1516.3-1811.9-1512.5-1809.8-1512.5z"/>
			<path d="M-1800-1518.8c-1.7-0.9-2.6-1.7-2.6-3.7c0-2.5,2-4.1,4.4-4.1c1.8,0,4.2,0.9,4.2,3.1c0,1.6-1.2,2.3-2.4,3.1
				c2,1.1,3.1,2,3.1,4.2c0,3-2.3,4.7-5.1,4.7c-2.3,0-4.8-1-4.8-3.7C-1803.2-1517.1-1801.8-1518-1800-1518.8z M-1798.2-1512.4
				c1.6,0,3-0.9,3-2.6c-0.1-1.8-2.4-2.9-3.9-3.3c-1.3,0.4-1.9,1.7-1.9,3C-1801-1513.6-1800-1512.4-1798.2-1512.4z M-1797.4-1520.6
				c0.9-0.5,1.5-1.5,1.5-2.5c0-1.6-0.9-2.5-2.5-2.5c-1.3,0-2.3,0.7-2.3,2.1C-1800.6-1521.7-1798.8-1521.2-1797.4-1520.6z"/>
		</g>
	</g>
	<g transform="matrix(0.620079,0,0,0.620079,1488.81,950.384)">
	</g>
	<g transform="matrix(0.620079,0,0,0.620079,0,0)">
	</g>
	<g transform="matrix(0.620079,0,0,0.620079,2069.2,950.384)">
	</g>
	<g transform="matrix(0.620079,0,0,0.620079,2069.2,950.384)">
		<g class="st2">
			<path d="M-2554.7-1532.7h0.6v17.5c0,1.9-2.5,3.8-4.5,3.8c-1.2,0-2.2-0.7-2.2-1.9c0-2,2-3.8,4.4-3.8c0.7,0,1.2,0.2,1.6,0.5
				L-2554.7-1532.7z"/>
		</g>
		<g class="st2">
			<path d="M-2547-1518.4v-1.8h10.5v1.8H-2547z M-2536.5-1515.8v1.9h-10.5v-1.9H-2536.5z"/>
			<path d="M-2522.8-1526.6h0.7v13.1c0,0.4,0.3,0.8,0.7,0.8h2.1v0.9h-8.1v-0.9h1.7c0.5,0,0.8-0.5,0.8-0.9v-9.9
				c0-0.4-0.3-0.8-0.7-0.8h-2.4v-1C-2526.1-1525.3-2524.5-1525.7-2522.8-1526.6z"/>
			<path d="M-2511.3-1526.6h0.7v13.1c0,0.4,0.3,0.8,0.7,0.8h2.1v0.9h-8.1v-0.9h1.7c0.5,0,0.8-0.5,0.8-0.9v-9.9
				c0-0.4-0.3-0.8-0.7-0.8h-2.4v-1C-2514.5-1525.3-2512.9-1525.7-2511.3-1526.6z"/>
			<path d="M-2502.5-1518.8c-1.7-0.9-2.6-1.7-2.6-3.7c0-2.5,2-4.1,4.4-4.1c1.8,0,4.2,0.9,4.2,3.1c0,1.6-1.2,2.3-2.4,3.1
				c2,1.1,3.1,2,3.1,4.2c0,3-2.3,4.7-5.1,4.7c-2.3,0-4.8-1-4.8-3.7C-2505.7-1517.1-2504.3-1518-2502.5-1518.8z M-2500.7-1512.4
				c1.6,0,3-0.9,3-2.6c-0.1-1.8-2.4-2.9-3.9-3.3c-1.3,0.4-1.9,1.7-1.9,3C-2503.5-1513.6-2502.5-1512.4-2500.7-1512.4z
				 M-2499.9-1520.6c0.9-0.5,1.5-1.5,1.5-2.5c0-1.6-0.9-2.5-2.5-2.5c-1.3,0-2.3,0.7-2.3,2.1
				C-2503.1-1521.7-2501.3-1521.2-2499.9-1520.6z"/>
		</g>
	</g>
	<g transform="matrix(0.620079,0,0,0.620079,2069.2,950.384)">
	</g>
	<g transform="matrix(0.620079,0,0,0.620079,0,0)">
	</g>
	<g transform="matrix(0.620079,0,0,0.620079,275.315,1003.7)">
	</g>
	<g transform="matrix(0.620079,0,0,0.620079,275.315,1003.7)">
		<g class="st2">
			<path d="M-377-1558.4c0,0.4-0.2,0.7-0.5,0.7h-1.9v1.7c0,1,0.6,1.2,1,1.2c0.3,0,0.7,0.2,0.7,0.6c0,0.5-0.3,0.6-0.6,0.6h-7.5
				c-0.5,0-0.6-0.3-0.6-0.6c0-0.3,0.2-0.6,0.7-0.6c0.6,0,1.3-0.3,1.3-1.1v-1.8h-5.8c-0.4,0-0.6-0.4-0.6-0.7c0-0.1,0-0.2,0.1-0.3
				v-0.1l0.2-0.3c0.9-1.3,3.6-5.7,3.6-9.6c0-0.5,0.4-0.6,0.7-0.6c0.3,0,2.1,0.1,2.6,0.1c0.6,0,2.3-0.1,2.5-0.1
				c0.3,0,0.5,0.2,0.5,0.5c0,0.1,0,0.1,0,0.1c-0.1,0.4-5.5,7.4-8.1,9.5h4.3v-2.5c0-0.4,0.2-0.6,0.3-0.7l3.8-3.6
				c0.2-0.2,0.3-0.3,0.6-0.3c0.4,0,0.4,0.3,0.4,0.5v6.6h1.9C-377.2-1559.1-377-1558.8-377-1558.4z"/>
		</g>
	</g>
	<g transform="matrix(0.620079,0,0,0.620079,275.315,1003.7)">
		<g class="st2">
			<path d="M-377-1542.3c0,0.4-0.2,0.7-0.5,0.7h-1.9v1.7c0,1,0.6,1.2,1,1.2c0.3,0,0.7,0.2,0.7,0.6c0,0.5-0.3,0.6-0.6,0.6h-7.5
				c-0.5,0-0.6-0.3-0.6-0.6c0-0.3,0.2-0.6,0.7-0.6c0.6,0,1.3-0.3,1.3-1.1v-1.8h-5.8c-0.4,0-0.6-0.4-0.6-0.7c0-0.1,0-0.2,0.1-0.3
				v-0.1l0.2-0.3c0.9-1.3,3.6-5.7,3.6-9.6c0-0.5,0.4-0.6,0.7-0.6c0.3,0,2.1,0.1,2.6,0.1c0.6,0,2.3-0.1,2.5-0.1
				c0.3,0,0.5,0.2,0.5,0.5c0,0.1,0,0.1,0,0.1c-0.1,0.4-5.5,7.4-8.1,9.5h4.3v-2.5c0-0.4,0.2-0.6,0.3-0.7l3.8-3.6
				c0.2-0.2,0.3-0.3,0.6-0.3c0.4,0,0.4,0.3,0.4,0.5v6.6h1.9C-377.2-1543-377-1542.7-377-1542.3z"/>
		</g>
	</g>
	<g transform="matrix(0.620079,0,0,0.620079,275.315,1003.7)">
	</g>
	<g transform="matrix(0.620079,0,0,0.620079,0,0)">
	</g>
	<g transform="matrix(0.620079,0,0,0.620079,0,0)">
		<line vector-effect="none" class="st3" x1="0" y1="81.1" x2="1161.3" y2="81.1"/>
	</g>
	<g transform="matrix(0.620079,0,0,0.620079,0,0)">
		<line vector-effect="none" class="st3" x1="0" y1="73.1" x2="1161.3" y2="73.1"/>
	</g>
	<g transform="matrix(0.620079,0,0,0.620079,0,0)">
		<line vector-effect="none" class="st3" x1="0" y1="65.1" x2="1161.3" y2="65.1"/>
	</g>
	<g transform="matrix(0.620079,0,0,0.620079,0,0)">
		<line vector-effect="none" class="st3" x1="0" y1="57.1" x2="1161.3" y2="57.1"/>
	</g>
	<g transform="matrix(0.620079,0,0,0.620079,0,0)">
		<line vector-effect="none" class="st3" x1="0" y1="49.1" x2="1161.3" y2="49.1"/>
	</g>
	<g transform="matrix(0.620079,0,0,0.620079,0,0)">
		<g class="st2">
			<path d="M23,58c0,4.2-1.7,8.1-4.4,11.1c-3.4,3.6-7.5,6.1-11.7,8.2c-0.2,0.1-0.4,0.2-0.5,0.2c-0.3,0-0.4-0.2-0.4-0.4
				c0-0.3,0.2-0.4,0.5-0.6c4-2.3,7.3-5,9.2-8c2-3.1,2.7-6.9,2.7-10.2c0-5-1.5-8.3-4.9-8.3c-3.3,0-5.2,2.3-5.2,3.6
				c0,0.3,0.1,0.6,0.5,0.6S9.5,54,10.4,54c1.6,0,3.1,1.3,3.1,3.3s-1.4,3.4-3.4,3.4c-2.6,0-3.9-2.2-3.9-4.8c0-3.1,2.5-7.1,8.1-7.1
				C19.6,48.7,23,52.4,23,58z M27.9,53.1c0,1-0.8,1.8-1.8,1.8s-1.8-0.8-1.8-1.8s0.8-1.8,1.8-1.8C27.1,51.3,27.9,52.1,27.9,53.1z
				 M27.9,61.1c0,1-0.7,1.7-1.7,1.7s-1.7-0.7-1.7-1.7s0.7-1.7,1.7-1.7C27.1,59.4,27.9,60.1,27.9,61.1z"/>
		</g>
	</g>
	<g transform="matrix(0.620079,0,0,0.620079,0,0)">
		<g class="st2">
			<path d="M34,60c0-0.6,0.5-0.9,1-0.9c0.3,0,0.6,0.2,0.6,0.5c0,0.6-0.2,8.3-0.2,9c0,0.2,0.1,0.4,0.4,0.5c0.1,0,0.1,0,0.2,0
				c0.3,0,0.5-0.3,0.7-0.4c0.4-0.2,0.7-0.4,1.1-0.4c0.2-0.1,0.4-0.1,0.7-0.1c1.5,0.1,2.9,1.2,2.9,3.1c0,1.5-1,3.4-3.8,5.4
				c-0.8,0.5-1.6,1.4-2.5,2c0,0-0.1,0.1-0.2,0.1s-0.2,0-0.3-0.2C34.1,78.2,34,60,34,60z M35.9,76.2c0.1,0,0.2,0,0.3-0.1
				c1-0.6,1.9-1.6,2.3-2.4c0.4-0.7,0.5-1.3,0.5-1.9s-0.2-1.2-0.5-1.5c-0.2-0.2-0.5-0.4-0.8-0.4s-0.5,0.1-0.8,0.2
				c-0.4,0.3-1.3,1-1.4,1.3c0,0.1-0.1,0.5-0.1,1c0,1.3,0.1,3.2,0.1,3.2C35.5,75.9,35.6,76.2,35.9,76.2z"/>
		</g>
	</g>
	<g transform="matrix(0.620079,0,0,0.620079,0,0)">
		<g class="st2">
			<path d="M160.8,37.1c-0.2,0-0.4-0.3-0.4-0.5c0-0.1-0.1-0.2-0.1-0.3c0-0.2,0.1-0.3,0.4-0.5c0,0,6.8-2.3,7.2-2.4
				c0.2-0.1,0.3-0.1,0.3-0.2S168.1,33,168,33c-0.3-0.1-7.2-2.5-7.2-2.5c-0.4-0.1-0.4-0.3-0.4-0.4s0-0.2,0.1-0.3
				c0.1-0.3,0.2-0.4,0.5-0.4c0.1,0,0.2,0,0.3,0.1l9.6,3.3c0.4,0.1,0.4,0.3,0.4,0.6s0,0.5-0.4,0.6c0,0-9.7,3.3-9.8,3.3
				C160.9,37.1,160.8,37.1,160.8,37.1z"/>
		</g>
	</g>
	<g transform="matrix(0.620079,0,0,0.620079,0,0)">
		<g class="st2">
			<path d="M204.3,37.1c-0.2,0-0.4-0.3-0.4-0.5c0-0.1-0.1-0.2-0.1-0.3c0-0.2,0.1-0.3,0.4-0.5c0,0,6.8-2.3,7.2-2.4
				c0.2-0.1,0.3-0.1,0.3-0.2s-0.1-0.2-0.2-0.2c-0.3-0.1-7.2-2.5-7.2-2.5c-0.4-0.1-0.4-0.3-0.4-0.4s0-0.2,0.1-0.3
				c0.1-0.3,0.2-0.4,0.5-0.4c0.1,0,0.2,0,0.3,0.1l9.6,3.3c0.4,0.1,0.4,0.3,0.4,0.6s0,0.5-0.4,0.6c0,0-9.7,3.3-9.8,3.3
				C204.4,37.1,204.3,37.1,204.3,37.1z"/>
		</g>
	</g>
	<g transform="matrix(0.620079,0,0,0.620079,0,0)">
		<path vector-effect="none" class="st4" d="M160.8,73.1h43.5v-4h-43.5V73.1"/>
	</g>
	<g transform="matrix(0.620079,0,0,0.620079,0,0)">
		<g class="st2">
			<path d="M247.5,37.1c-0.2,0-0.4-0.3-0.4-0.5c0-0.1-0.1-0.2-0.1-0.3c0-0.2,0.1-0.3,0.4-0.5c0,0,6.8-2.3,7.2-2.4
				c0.2-0.1,0.3-0.1,0.3-0.2s-0.1-0.2-0.2-0.2c-0.3-0.1-7.2-2.5-7.2-2.5c-0.4-0.1-0.4-0.3-0.4-0.4s0-0.2,0.1-0.3
				c0.1-0.3,0.2-0.4,0.5-0.4c0.1,0,0.2,0,0.3,0.1l9.6,3.3c0.4,0.1,0.4,0.3,0.4,0.6s0,0.5-0.4,0.6c0,0-9.7,3.3-9.8,3.3
				C247.6,37.1,247.5,37.1,247.5,37.1z"/>
		</g>
	</g>
	<g transform="matrix(0.620079,0,0,0.620079,0,0)">
		<path vector-effect="none" class="st4" d="M225.8,73.1h43.5v-4h-43.5V73.1"/>
	</g>
	<g transform="matrix(0.620079,0,0,0.620079,0,0)">
		<g class="st2">
			<path d="M395,37.1c-0.2,0-0.4-0.3-0.4-0.5c0-0.1-0.1-0.2-0.1-0.3c0-0.2,0.1-0.3,0.4-0.5c0,0,6.8-2.3,7.2-2.4
				c0.2-0.1,0.3-0.1,0.3-0.2s-0.1-0.2-0.2-0.2c-0.3-0.1-7.2-2.5-7.2-2.5c-0.4-0.1-0.4-0.3-0.4-0.4s0-0.2,0.1-0.3
				c0.1-0.3,0.2-0.4,0.5-0.4c0.1,0,0.2,0,0.3,0.1l9.6,3.3c0.4,0.1,0.4,0.3,0.4,0.6s0,0.5-0.4,0.6c0,0-9.7,3.3-9.8,3.3
				C395.1,37.1,395,37.1,395,37.1z"/>
		</g>
	</g>
	<g transform="matrix(0.620079,0,0,0.620079,0,0)">
		<g class="st2">
			<path d="M438.3,37.1c-0.2,0-0.4-0.3-0.4-0.5c0-0.1-0.1-0.2-0.1-0.3c0-0.2,0.1-0.3,0.4-0.5c0,0,6.8-2.3,7.2-2.4
				c0.2-0.1,0.3-0.1,0.3-0.2s-0.1-0.2-0.2-0.2c-0.3-0.1-7.2-2.5-7.2-2.5c-0.4-0.1-0.4-0.3-0.4-0.4s0-0.2,0.1-0.3
				c0.1-0.3,0.2-0.4,0.5-0.4c0.1,0,0.2,0,0.3,0.1l9.6,3.3c0.4,0.1,0.4,0.3,0.4,0.6s0,0.5-0.4,0.6c0,0-9.7,3.3-9.8,3.3
				C438.4,37.1,438.3,37.1,438.3,37.1z"/>
		</g>
	</g>
	<g transform="matrix(0.620079,0,0,0.620079,0,0)">
		<path vector-effect="none" class="st4" d="M395,73.1h43.2v-4H395V73.1"/>
	</g>
	<g transform="matrix(0.620079,0,0,0.620079,0,0)">
		<g class="st2">
			<path d="M481.8,37.1c-0.2,0-0.4-0.3-0.4-0.5c0-0.1-0.1-0.2-0.1-0.3c0-0.2,0.1-0.3,0.4-0.5c0,0,6.8-2.3,7.2-2.4
				c0.2-0.1,0.3-0.1,0.3-0.2S489.1,33,489,33c-0.3-0.1-7.2-2.5-7.2-2.5c-0.4-0.1-0.4-0.3-0.4-0.4s0-0.2,0.1-0.3
				c0.1-0.3,0.2-0.4,0.5-0.4c0.1,0,0.2,0,0.3,0.1l9.6,3.3c0.4,0.1,0.4,0.3,0.4,0.6s0,0.5-0.4,0.6c0,0-9.7,3.3-9.8,3.3
				C481.9,37.1,481.8,37.1,481.8,37.1z"/>
		</g>
	</g>
	<g transform="matrix(0.620079,0,0,0.620079,0,0)">
		<path vector-effect="none" class="st4" d="M460,73.1h43.5v-4H460V73.1"/>
	</g>
	<g transform="matrix(0.620079,0,0,0.620079,0,0)">
		<g class="st2">
			<path d="M629,37.1c-0.2,0-0.4-0.3-0.4-0.5c0-0.1-0.1-0.2-0.1-0.3c0-0.2,0.1-0.3,0.4-0.5c0,0,6.8-2.3,7.2-2.4
				c0.2-0.1,0.3-0.1,0.3-0.2s-0.1-0.2-0.2-0.2c-0.3-0.1-7.2-2.5-7.2-2.5c-0.4-0.1-0.4-0.3-0.4-0.4s0-0.2,0.1-0.3
				c0.1-0.3,0.2-0.4,0.5-0.4c0.1,0,0.2,0,0.3,0.1l9.6,3.3c0.4,0.1,0.4,0.3,0.4,0.6s0,0.5-0.4,0.6c0,0-9.7,3.3-9.8,3.3
				C629.1,37.1,629,37.1,629,37.1z"/>
		</g>
	</g>
	<g transform="matrix(0.620079,0,0,0.620079,0,0)">
		<g class="st2">
			<path d="M672.5,37.1c-0.2,0-0.4-0.3-0.4-0.5c0-0.1-0.1-0.2-0.1-0.3c0-0.2,0.1-0.3,0.4-0.5c0,0,6.8-2.3,7.2-2.4
				c0.2-0.1,0.3-0.1,0.3-0.2s-0.1-0.2-0.2-0.2c-0.3-0.1-7.2-2.5-7.2-2.5c-0.4-0.1-0.4-0.3-0.4-0.4s0-0.2,0.1-0.3
				c0.1-0.3,0.2-0.4,0.5-0.4c0.1,0,0.2,0,0.3,0.1l9.6,3.3c0.4,0.1,0.4,0.3,0.4,0.6s0,0.5-0.4,0.6c0,0-9.7,3.3-9.8,3.3
				C672.6,37.1,672.5,37.1,672.5,37.1z"/>
		</g>
	</g>
	<g transform="matrix(0.620079,0,0,0.620079,0,0)">
		<path vector-effect="none" class="st4" d="M629,73.1h43.5v-4H629V73.1"/>
	</g>
	<g transform="matrix(0.620079,0,0,0.620079,0,0)">
		<g class="st2">
			<path d="M716,37.1c-0.2,0-0.4-0.3-0.4-0.5c0-0.1-0.1-0.2-0.1-0.3c0-0.2,0.1-0.3,0.4-0.5c0,0,6.8-2.3,7.2-2.4
				c0.2-0.1,0.3-0.1,0.3-0.2s-0.1-0.2-0.2-0.2c-0.3-0.1-7.2-2.5-7.2-2.5c-0.4-0.1-0.4-0.3-0.4-0.4s0-0.2,0.1-0.3
				c0.1-0.3,0.2-0.4,0.5-0.4c0.1,0,0.2,0,0.3,0.1l9.6,3.3c0.4,0.1,0.4,0.3,0.4,0.6s0,0.5-0.4,0.6c0,0-9.7,3.3-9.8,3.3
				C716.1,37.1,716,37.1,716,37.1z"/>
		</g>
	</g>
	<g transform="matrix(0.620079,0,0,0.620079,0,0)">
		<path vector-effect="none" class="st4" d="M694.3,73.1h43.5v-4h-43.5V73.1"/>
	</g>
	<g transform="matrix(0.620079,0,0,0.620079,0,0)">
		<g class="st2">
			<path d="M863.3,37.1c-0.2,0-0.4-0.3-0.4-0.5c0-0.1-0.1-0.2-0.1-0.3c0-0.2,0.1-0.3,0.4-0.5c0,0,6.8-2.3,7.2-2.4
				c0.2-0.1,0.3-0.1,0.3-0.2s-0.1-0.2-0.2-0.2c-0.3-0.1-7.2-2.5-7.2-2.5c-0.4-0.1-0.4-0.3-0.4-0.4s0-0.2,0.1-0.3
				c0.1-0.3,0.2-0.4,0.5-0.4c0.1,0,0.2,0,0.3,0.1l9.6,3.3c0.4,0.1,0.4,0.3,0.4,0.6s0,0.5-0.4,0.6c0,0-9.7,3.3-9.8,3.3
				C863.4,37.1,863.3,37.1,863.3,37.1z"/>
		</g>
	</g>
	<g transform="matrix(0.620079,0,0,0.620079,0,0)">
		<g class="st2">
			<path d="M906.8,37.1c-0.2,0-0.4-0.3-0.4-0.5c0-0.1-0.1-0.2-0.1-0.3c0-0.2,0.1-0.3,0.4-0.5c0,0,6.8-2.3,7.2-2.4
				c0.2-0.1,0.3-0.1,0.3-0.2S914.1,33,914,33c-0.3-0.1-7.2-2.5-7.2-2.5c-0.4-0.1-0.4-0.3-0.4-0.4s0-0.2,0.1-0.3
				c0.1-0.3,0.2-0.4,0.5-0.4c0.1,0,0.2,0,0.3,0.1l9.6,3.3c0.4,0.1,0.4,0.3,0.4,0.6s0,0.5-0.4,0.6c0,0-9.7,3.3-9.8,3.3
				C906.9,37.1,906.8,37.1,906.8,37.1z"/>
		</g>
	</g>
	<g transform="matrix(0.620079,0,0,0.620079,0,0)">
		<path vector-effect="none" class="st4" d="M863.3,73.1h43.5v-4h-43.5V73.1"/>
	</g>
	<g transform="matrix(0.620079,0,0,0.620079,0,0)">
		<g class="st2">
			<path d="M950.3,37.1c-0.2,0-0.4-0.3-0.4-0.5c0-0.1-0.1-0.2-0.1-0.3c0-0.2,0.1-0.3,0.4-0.5c0,0,6.8-2.3,7.2-2.4
				c0.2-0.1,0.3-0.1,0.3-0.2s-0.1-0.2-0.2-0.2c-0.3-0.1-7.2-2.5-7.2-2.5c-0.4-0.1-0.4-0.3-0.4-0.4s0-0.2,0.1-0.3
				c0.1-0.3,0.2-0.4,0.5-0.4c0.1,0,0.2,0,0.3,0.1l9.6,3.3c0.4,0.1,0.4,0.3,0.4,0.6s0,0.5-0.4,0.6c0,0-9.7,3.3-9.8,3.3
				C950.4,37.1,950.3,37.1,950.3,37.1z"/>
		</g>
	</g>
	<g transform="matrix(0.620079,0,0,0.620079,0,0)">
		<path vector-effect="none" class="st4" d="M928.5,73.1h43.2v-4h-43.2V73.1"/>
	</g>
	<g transform="matrix(0.620079,0,0,0.620079,577.293,1151.39)">
	</g>
	<g transform="matrix(0.620079,0,0,0.620079,577.293,1151.39)">
		<g class="st2">
			<path d="M-755.9-1761.8c0-1,0.6-1.7,1.4-1.7c0.6,0,1.1,0.4,1.1,1.1c0,0.8-0.4,1.1-0.7,1.3c-0.2,0.1-0.4,0.2-0.4,0.3
				c0,0.3,0.5,0.5,1.1,0.5c1.8,0,2.7-1.8,2.7-3.1c0-0.9-0.5-1.6-1.6-1.6h-0.3c-0.4,0-0.6-0.2-0.6-0.4c0-0.3,0.2-0.4,0.6-0.4h0.3
				c1.7,0,2.7-1.1,2.7-2.6c0-0.6-0.4-1.3-1.5-1.3c-0.6,0-1,0.2-1,0.4c0,0.1,0.1,0.2,0.4,0.4c0.1,0.2,0.3,0.4,0.3,0.7
				c0,0.8-0.6,1.4-1.3,1.4s-1.1-0.5-1.1-1.3c0.1-1.6,1.6-2.5,3.4-2.5c1.8,0,3.2,0.9,3.2,2.5c0,1.2-1,2.1-2.2,2.6
				c-0.2,0.1-0.4,0.2-0.4,0.3c0,0.1,0.1,0.2,0.3,0.3c0.8,0.4,1.1,1.1,1.1,1.8c0,2.3-2,3.8-4.5,3.8
				C-755-1759.6-755.9-1760.6-755.9-1761.8z"/>
		</g>
	</g>
	<g transform="matrix(0.620079,0,0,0.620079,577.293,1151.39)">
	</g>
	<g transform="matrix(0.620079,0,0,0.620079,0,0)">
	</g>
	<g transform="matrix(0.620079,0,0,0.620079,738.514,1151.39)">
	</g>
	<g transform="matrix(0.620079,0,0,0.620079,738.514,1151.39)">
		<g class="st2">
			<path d="M-950.9-1761.8c0-1,0.6-1.7,1.4-1.7c0.6,0,1.1,0.4,1.1,1.1c0,0.8-0.4,1.1-0.7,1.3c-0.2,0.1-0.4,0.2-0.4,0.3
				c0,0.3,0.5,0.5,1.1,0.5c1.8,0,2.7-1.8,2.7-3.1c0-0.9-0.5-1.6-1.6-1.6h-0.3c-0.4,0-0.6-0.2-0.6-0.4c0-0.3,0.2-0.4,0.6-0.4h0.3
				c1.7,0,2.7-1.1,2.7-2.6c0-0.6-0.4-1.3-1.5-1.3c-0.6,0-1,0.2-1,0.4c0,0.1,0.1,0.2,0.4,0.4c0.1,0.2,0.3,0.4,0.3,0.7
				c0,0.8-0.6,1.4-1.3,1.4s-1.1-0.5-1.1-1.3c0.1-1.6,1.6-2.5,3.4-2.5c1.8,0,3.2,0.9,3.2,2.5c0,1.2-1,2.1-2.2,2.6
				c-0.2,0.1-0.4,0.2-0.4,0.3c0,0.1,0.1,0.2,0.3,0.3c0.8,0.4,1.1,1.1,1.1,1.8c0,2.3-2,3.8-4.5,3.8
				C-950-1759.6-950.9-1760.6-950.9-1761.8z"/>
		</g>
	</g>
	<g transform="matrix(0.620079,0,0,0.620079,738.514,1151.39)">
	</g>
	<g transform="matrix(0.620079,0,0,0.620079,0,0)">
	</g>
	<g transform="matrix(0.620079,0,0,0.620079,1157.69,1151.39)">
	</g>
	<g transform="matrix(0.620079,0,0,0.620079,1157.69,1151.39)">
		<g class="st2">
			<path d="M-1457.9-1761.8c0-1,0.6-1.7,1.4-1.7c0.6,0,1.1,0.4,1.1,1.1c0,0.8-0.4,1.1-0.7,1.3c-0.2,0.1-0.4,0.2-0.4,0.3
				c0,0.3,0.5,0.5,1.1,0.5c1.8,0,2.7-1.8,2.7-3.1c0-0.9-0.5-1.6-1.6-1.6h-0.3c-0.4,0-0.6-0.2-0.6-0.4c0-0.3,0.2-0.4,0.6-0.4h0.3
				c1.7,0,2.7-1.1,2.7-2.6c0-0.6-0.4-1.3-1.5-1.3c-0.6,0-1,0.2-1,0.4c0,0.1,0.1,0.2,0.4,0.4c0.1,0.2,0.3,0.4,0.3,0.7
				c0,0.8-0.6,1.4-1.3,1.4c-0.7,0-1.1-0.5-1.1-1.3c0.1-1.6,1.6-2.5,3.4-2.5s3.2,0.9,3.2,2.5c0,1.2-1,2.1-2.2,2.6
				c-0.2,0.1-0.4,0.2-0.4,0.3c0,0.1,0.1,0.2,0.3,0.3c0.8,0.4,1.1,1.1,1.1,1.8c0,2.3-2,3.8-4.5,3.8
				C-1457-1759.6-1457.9-1760.6-1457.9-1761.8z"/>
		</g>
	</g>
	<g transform="matrix(0.620079,0,0,0.620079,1157.69,1151.39)">
	</g>
	<g transform="matrix(0.620079,0,0,0.620079,0,0)">
	</g>
	<g transform="matrix(0.620079,0,0,0.620079,1319.53,1151.39)">
	</g>
	<g transform="matrix(0.620079,0,0,0.620079,1319.53,1151.39)">
		<g class="st2">
			<path d="M-1653.7-1761.8c0-1,0.6-1.7,1.4-1.7c0.6,0,1.1,0.4,1.1,1.1c0,0.8-0.4,1.1-0.7,1.3c-0.2,0.1-0.4,0.2-0.4,0.3
				c0,0.3,0.5,0.5,1.1,0.5c1.8,0,2.7-1.8,2.7-3.1c0-0.9-0.5-1.6-1.6-1.6h-0.3c-0.4,0-0.6-0.2-0.6-0.4c0-0.3,0.2-0.4,0.6-0.4h0.3
				c1.7,0,2.7-1.1,2.7-2.6c0-0.6-0.4-1.3-1.5-1.3c-0.6,0-1,0.2-1,0.4c0,0.1,0.1,0.2,0.4,0.4c0.1,0.2,0.3,0.4,0.3,0.7
				c0,0.8-0.6,1.4-1.3,1.4c-0.7,0-1.1-0.5-1.1-1.3c0.1-1.6,1.6-2.5,3.4-2.5s3.2,0.9,3.2,2.5c0,1.2-1,2.1-2.2,2.6
				c-0.2,0.1-0.4,0.2-0.4,0.3c0,0.1,0.1,0.2,0.3,0.3c0.8,0.4,1.1,1.1,1.1,1.8c0,2.3-2,3.8-4.5,3.8
				C-1652.8-1759.6-1653.7-1760.6-1653.7-1761.8z"/>
		</g>
	</g>
	<g transform="matrix(0.620079,0,0,0.620079,1319.53,1151.39)">
	</g>
	<g transform="matrix(0.620079,0,0,0.620079,0,0)">
	</g>
	<g transform="matrix(0.620079,0,0,0.620079,1738.7,1151.39)">
	</g>
	<g transform="matrix(0.620079,0,0,0.620079,1738.7,1151.39)">
		<g class="st2">
			<path d="M-2160.7-1761.8c0-1,0.6-1.7,1.4-1.7c0.6,0,1.1,0.4,1.1,1.1c0,0.8-0.4,1.1-0.7,1.3c-0.2,0.1-0.4,0.2-0.4,0.3
				c0,0.3,0.5,0.5,1.1,0.5c1.8,0,2.7-1.8,2.7-3.1c0-0.9-0.5-1.6-1.6-1.6h-0.3c-0.4,0-0.6-0.2-0.6-0.4c0-0.3,0.2-0.4,0.6-0.4h0.3
				c1.7,0,2.7-1.1,2.7-2.6c0-0.6-0.4-1.3-1.5-1.3c-0.6,0-1,0.2-1,0.4c0,0.1,0.1,0.2,0.4,0.4c0.1,0.2,0.3,0.4,0.3,0.7
				c0,0.8-0.6,1.4-1.3,1.4s-1.1-0.5-1.1-1.3c0.1-1.6,1.6-2.5,3.4-2.5c1.8,0,3.2,0.9,3.2,2.5c0,1.2-1,2.1-2.2,2.6
				c-0.2,0.1-0.4,0.2-0.4,0.3c0,0.1,0.1,0.2,0.3,0.3c0.8,0.4,1.1,1.1,1.1,1.8c0,2.3-2,3.8-4.5,3.8
				C-2159.7-1759.6-2160.7-1760.6-2160.7-1761.8z"/>
		</g>
	</g>
	<g transform="matrix(0.620079,0,0,0.620079,1738.7,1151.39)">
	</g>
	<g transform="matrix(0.620079,0,0,0.620079,0,0)">
	</g>
	<g transform="matrix(0.620079,0,0,0.620079,1900.54,1151.39)">
	</g>
	<g transform="matrix(0.620079,0,0,0.620079,1900.54,1151.39)">
		<g class="st2">
			<path d="M-2356.4-1761.8c0-1,0.6-1.7,1.4-1.7c0.6,0,1.1,0.4,1.1,1.1c0,0.8-0.4,1.1-0.7,1.3c-0.2,0.1-0.4,0.2-0.4,0.3
				c0,0.3,0.5,0.5,1.1,0.5c1.8,0,2.7-1.8,2.7-3.1c0-0.9-0.5-1.6-1.6-1.6h-0.3c-0.4,0-0.6-0.2-0.6-0.4c0-0.3,0.2-0.4,0.6-0.4h0.3
				c1.7,0,2.7-1.1,2.7-2.6c0-0.6-0.4-1.3-1.5-1.3c-0.6,0-1,0.2-1,0.4c0,0.1,0.1,0.2,0.4,0.4c0.1,0.2,0.3,0.4,0.3,0.7
				c0,0.8-0.6,1.4-1.3,1.4s-1.1-0.5-1.1-1.3c0.1-1.6,1.6-2.5,3.4-2.5c1.8,0,3.2,0.9,3.2,2.5c0,1.2-1,2.1-2.2,2.6
				c-0.2,0.1-0.4,0.2-0.4,0.3c0,0.1,0.1,0.2,0.3,0.3c0.8,0.4,1.1,1.1,1.1,1.8c0,2.3-2,3.8-4.5,3.8
				C-2355.5-1759.6-2356.4-1760.6-2356.4-1761.8z"/>
		</g>
	</g>
	<g transform="matrix(0.620079,0,0,0.620079,1900.54,1151.39)">
	</g>
	<g transform="matrix(0.620079,0,0,0.620079,0,0)">
	</g>
	<g transform="matrix(0.620079,0,0,0.620079,2319.71,1151.39)">
	</g>
	<g transform="matrix(0.620079,0,0,0.620079,2319.71,1151.39)">
		<g class="st2">
			<path d="M-2863.4-1761.8c0-1,0.6-1.7,1.4-1.7c0.6,0,1.1,0.4,1.1,1.1c0,0.8-0.4,1.1-0.7,1.3c-0.2,0.1-0.4,0.2-0.4,0.3
				c0,0.3,0.5,0.5,1.1,0.5c1.8,0,2.7-1.8,2.7-3.1c0-0.9-0.5-1.6-1.6-1.6h-0.3c-0.4,0-0.6-0.2-0.6-0.4c0-0.3,0.2-0.4,0.6-0.4h0.3
				c1.7,0,2.7-1.1,2.7-2.6c0-0.6-0.4-1.3-1.5-1.3c-0.6,0-1,0.2-1,0.4c0,0.1,0.1,0.2,0.4,0.4c0.1,0.2,0.3,0.4,0.3,0.7
				c0,0.8-0.6,1.4-1.3,1.4s-1.1-0.5-1.1-1.3c0.1-1.6,1.6-2.5,3.4-2.5c1.8,0,3.2,0.9,3.2,2.5c0,1.2-1,2.1-2.2,2.6
				c-0.2,0.1-0.4,0.2-0.4,0.3c0,0.1,0.1,0.2,0.3,0.3c0.8,0.4,1.1,1.1,1.1,1.8c0,2.3-2,3.8-4.5,3.8
				C-2862.5-1759.6-2863.4-1760.6-2863.4-1761.8z"/>
		</g>
	</g>
	<g transform="matrix(0.620079,0,0,0.620079,2319.71,1151.39)">
	</g>
	<g transform="matrix(0.620079,0,0,0.620079,0,0)">
	</g>
	<g transform="matrix(0.620079,0,0,0.620079,2480.94,1151.39)">
	</g>
	<g transform="matrix(0.620079,0,0,0.620079,2480.94,1151.39)">
		<g class="st2">
			<path d="M-3058.4-1761.8c0-1,0.6-1.7,1.4-1.7c0.6,0,1.1,0.4,1.1,1.1c0,0.8-0.4,1.1-0.7,1.3c-0.2,0.1-0.4,0.2-0.4,0.3
				c0,0.3,0.5,0.5,1.1,0.5c1.8,0,2.7-1.8,2.7-3.1c0-0.9-0.5-1.6-1.6-1.6h-0.3c-0.4,0-0.6-0.2-0.6-0.4c0-0.3,0.2-0.4,0.6-0.4h0.3
				c1.7,0,2.7-1.1,2.7-2.6c0-0.6-0.4-1.3-1.5-1.3c-0.6,0-1,0.2-1,0.4c0,0.1,0.1,0.2,0.4,0.4c0.1,0.2,0.3,0.4,0.3,0.7
				c0,0.8-0.6,1.4-1.3,1.4s-1.1-0.5-1.1-1.3c0.1-1.6,1.6-2.5,3.4-2.5c1.8,0,3.2,0.9,3.2,2.5c0,1.2-1,2.1-2.2,2.6
				c-0.2,0.1-0.4,0.2-0.4,0.3c0,0.1,0.1,0.2,0.3,0.3c0.8,0.4,1.1,1.1,1.1,1.8c0,2.3-2,3.8-4.5,3.8
				C-3057.5-1759.6-3058.4-1760.6-3058.4-1761.8z"/>
		</g>
	</g>
	<g transform="matrix(0.620079,0,0,0.620079,2480.94,1151.39)">
	</g>
	<g transform="matrix(0.620079,0,0,0.620079,0,0)">
	</g>
	<g transform="matrix(0.620079,0,0,0.620079,0,0)">
		<line vector-effect="none" class="st3" x1="98.3" y1="46.3" x2="98.3" y2="73.1"/>
	</g>
	<g transform="matrix(0.620079,0,0,0.620079,0,0)">
		<g class="st2">
			<path d="M97.8,46.7c0-1.9,1.7-6.2,7.3-6.2c2.1,0,3.6,1.2,3.6,3.1c0,1.2-1.2,6.2-7.3,6.2C99.3,49.7,97.8,48.6,97.8,46.7z
				 M107.5,43.5c0-0.3-0.1-0.5-0.2-0.7c-0.3-0.4-0.6-0.8-1.3-0.8c-0.8,0-1.9,0.4-3.7,1.4c-2.6,1.5-3.4,2.5-3.4,3.3
				c0,0.3,0.1,0.5,0.2,0.7c0.3,0.4,0.7,0.8,1.5,0.8s2-0.4,3.6-1.5C106.7,45.1,107.5,44.2,107.5,43.5z"/>
		</g>
	</g>
	<g transform="matrix(0.620079,0,0,0.620079,0,0)">
		<line vector-effect="none" class="st3" x1="160.8" y1="46.3" x2="160.8" y2="72.9"/>
	</g>
	<g transform="matrix(0.620079,0,0,0.620079,0,0)">
		<g class="st2">
			<path d="M160.3,46.6c0-3.1,3.2-6,7.1-6c2.1,0,3.5,1.2,3.5,3c0,3-3.9,6-7.1,6C161.8,49.6,160.3,48.5,160.3,46.6z"/>
		</g>
	</g>
	<g transform="matrix(0.620079,0,0,0.620079,0,0)">
		<line vector-effect="none" class="st3" x1="182.5" y1="46.3" x2="182.5" y2="72.9"/>
	</g>
	<g transform="matrix(0.620079,0,0,0.620079,0,0)">
		<g class="st2">
			<path d="M182,46.6c0-3.1,3.2-6,7.1-6c2.1,0,3.5,1.2,3.5,3c0,3-3.9,6-7.1,6C183.5,49.6,182,48.5,182,46.6z"/>
		</g>
	</g>
	<g transform="matrix(0.620079,0,0,0.620079,0,0)">
		<line vector-effect="none" class="st3" x1="204.3" y1="46.3" x2="204.3" y2="72.9"/>
	</g>
	<g transform="matrix(0.620079,0,0,0.620079,0,0)">
		<g class="st2">
			<path d="M203.8,46.6c0-3.1,3.2-6,7.1-6c2.1,0,3.5,1.2,3.5,3c0,3-3.9,6-7.1,6C205.3,49.6,203.8,48.5,203.8,46.6z"/>
		</g>
	</g>
	<g transform="matrix(0.620079,0,0,0.620079,0,0)">
		<line vector-effect="none" class="st3" x1="225.8" y1="46.3" x2="225.8" y2="72.9"/>
	</g>
	<g transform="matrix(0.620079,0,0,0.620079,0,0)">
		<g class="st2">
			<path d="M225.3,46.6c0-3.1,3.2-6,7.1-6c2.1,0,3.5,1.2,3.5,3c0,3-3.9,6-7.1,6C226.8,49.6,225.3,48.5,225.3,46.6z"/>
		</g>
	</g>
	<g transform="matrix(0.620079,0,0,0.620079,0,0)">
		<line vector-effect="none" class="st3" x1="247.5" y1="46.3" x2="247.5" y2="72.9"/>
	</g>
	<g transform="matrix(0.620079,0,0,0.620079,0,0)">
		<g class="st2">
			<path d="M247,46.6c0-3.1,3.2-6,7.1-6c2.1,0,3.5,1.2,3.5,3c0,3-3.9,6-7.1,6C248.5,49.6,247,48.5,247,46.6z"/>
		</g>
	</g>
	<g transform="matrix(0.620079,0,0,0.620079,0,0)">
		<line vector-effect="none" class="st3" x1="269.3" y1="46.3" x2="269.3" y2="72.9"/>
	</g>
	<g transform="matrix(0.620079,0,0,0.620079,0,0)">
		<g class="st2">
			<path d="M268.8,46.6c0-3.1,3.2-6,7.1-6c2.1,0,3.5,1.2,3.5,3c0,3-3.9,6-7.1,6C270.3,49.6,268.8,48.5,268.8,46.6z"/>
		</g>
	</g>
	<g transform="matrix(0.620079,0,0,0.620079,0,0)">
		<line vector-effect="none" class="st3" x1="332.5" y1="46.3" x2="332.5" y2="73.1"/>
	</g>
	<g transform="matrix(0.620079,0,0,0.620079,0,0)">
		<g class="st2">
			<path d="M332,46.7c0-1.9,1.7-6.2,7.3-6.2c2.1,0,3.6,1.2,3.6,3.1c0,1.2-1.2,6.2-7.3,6.2C333.6,49.7,332,48.6,332,46.7z
				 M341.8,43.5c0-0.3-0.1-0.5-0.2-0.7c-0.3-0.4-0.6-0.8-1.3-0.8c-0.8,0-1.9,0.4-3.7,1.4c-2.6,1.5-3.4,2.5-3.4,3.3
				c0,0.3,0.1,0.5,0.2,0.7c0.3,0.4,0.7,0.8,1.5,0.8s2-0.4,3.6-1.5C341,45.1,341.8,44.2,341.8,43.5z"/>
		</g>
	</g>
	<g transform="matrix(0.620079,0,0,0.620079,0,0)">
		<line vector-effect="none" class="st3" x1="395" y1="46.3" x2="395" y2="72.9"/>
	</g>
	<g transform="matrix(0.620079,0,0,0.620079,0,0)">
		<g class="st2">
			<path d="M394.5,46.6c0-3.1,3.2-6,7.1-6c2.1,0,3.5,1.2,3.5,3c0,3-3.9,6-7.1,6C396,49.6,394.5,48.5,394.5,46.6z"/>
		</g>
	</g>
	<g transform="matrix(0.620079,0,0,0.620079,0,0)">
		<line vector-effect="none" class="st3" x1="416.8" y1="46.3" x2="416.8" y2="72.9"/>
	</g>
	<g transform="matrix(0.620079,0,0,0.620079,0,0)">
		<g class="st2">
			<path d="M416.3,46.6c0-3.1,3.2-6,7.1-6c2.1,0,3.5,1.2,3.5,3c0,3-3.9,6-7.1,6C417.8,49.6,416.3,48.5,416.3,46.6z"/>
		</g>
	</g>
	<g transform="matrix(0.620079,0,0,0.620079,0,0)">
		<line vector-effect="none" class="st3" x1="438.3" y1="46.3" x2="438.3" y2="72.9"/>
	</g>
	<g transform="matrix(0.620079,0,0,0.620079,0,0)">
		<g class="st2">
			<path d="M437.8,46.6c0-3.1,3.2-6,7.1-6c2.1,0,3.5,1.2,3.5,3c0,3-3.9,6-7.1,6C439.3,49.6,437.8,48.5,437.8,46.6z"/>
		</g>
	</g>
	<g transform="matrix(0.620079,0,0,0.620079,0,0)">
		<line vector-effect="none" class="st3" x1="460" y1="46.3" x2="460" y2="72.9"/>
	</g>
	<g transform="matrix(0.620079,0,0,0.620079,0,0)">
		<g class="st2">
			<path d="M459.5,46.6c0-3.1,3.2-6,7.1-6c2.1,0,3.5,1.2,3.5,3c0,3-3.9,6-7.1,6C461,49.6,459.5,48.5,459.5,46.6z"/>
		</g>
	</g>
	<g transform="matrix(0.620079,0,0,0.620079,0,0)">
		<line vector-effect="none" class="st3" x1="481.8" y1="46.3" x2="481.8" y2="72.9"/>
	</g>
	<g transform="matrix(0.620079,0,0,0.620079,0,0)">
		<g class="st2">
			<path d="M481.3,46.6c0-3.1,3.2-6,7.1-6c2.1,0,3.5,1.2,3.5,3c0,3-3.9,6-7.1,6C482.8,49.6,481.3,48.5,481.3,46.6z"/>
		</g>
	</g>
	<g transform="matrix(0.620079,0,0,0.620079,0,0)">
		<line vector-effect="none" class="st3" x1="503.5" y1="46.3" x2="503.5" y2="72.9"/>
	</g>
	<g transform="matrix(0.620079,0,0,0.620079,0,0)">
		<g class="st2">
			<path d="M503,46.6c0-3.1,3.2-6,7.1-6c2.1,0,3.5,1.2,3.5,3c0,3-3.9,6-7.1,6C504.5,49.6,503,48.5,503,46.6z"/>
		</g>
	</g>
	<g transform="matrix(0.620079,0,0,0.620079,0,0)">
		<line vector-effect="none" class="st3" x1="566.8" y1="46.3" x2="566.8" y2="73.1"/>
	</g>
	<g transform="matrix(0.620079,0,0,0.620079,0,0)">
		<g class="st2">
			<path d="M566.3,46.7c0-1.9,1.7-6.2,7.3-6.2c2.1,0,3.6,1.2,3.6,3.1c0,1.2-1.2,6.2-7.3,6.2C567.8,49.7,566.3,48.6,566.3,46.7z
				 M576,43.5c0-0.3-0.1-0.5-0.2-0.7c-0.3-0.4-0.6-0.8-1.3-0.8c-0.8,0-1.9,0.4-3.7,1.4c-2.6,1.5-3.4,2.5-3.4,3.3
				c0,0.3,0.1,0.5,0.2,0.7c0.3,0.4,0.7,0.8,1.5,0.8s2-0.4,3.6-1.5C575.2,45.1,576,44.2,576,43.5z"/>
		</g>
	</g>
	<g transform="matrix(0.620079,0,0,0.620079,0,0)">
		<line vector-effect="none" class="st3" x1="629" y1="46.3" x2="629" y2="72.9"/>
	</g>
	<g transform="matrix(0.620079,0,0,0.620079,0,0)">
		<g class="st2">
			<path d="M628.5,46.6c0-3.1,3.2-6,7.1-6c2.1,0,3.5,1.2,3.5,3c0,3-3.9,6-7.1,6C630,49.6,628.5,48.5,628.5,46.6z"/>
		</g>
	</g>
	<g transform="matrix(0.620079,0,0,0.620079,0,0)">
		<line vector-effect="none" class="st3" x1="650.8" y1="46.3" x2="650.8" y2="72.9"/>
	</g>
	<g transform="matrix(0.620079,0,0,0.620079,0,0)">
		<g class="st2">
			<path d="M650.3,46.6c0-3.1,3.2-6,7.1-6c2.1,0,3.5,1.2,3.5,3c0,3-3.9,6-7.1,6C651.8,49.6,650.3,48.5,650.3,46.6z"/>
		</g>
	</g>
	<g transform="matrix(0.620079,0,0,0.620079,0,0)">
		<line vector-effect="none" class="st3" x1="672.5" y1="46.3" x2="672.5" y2="72.9"/>
	</g>
	<g transform="matrix(0.620079,0,0,0.620079,0,0)">
		<g class="st2">
			<path d="M672,46.6c0-3.1,3.2-6,7.1-6c2.1,0,3.5,1.2,3.5,3c0,3-3.9,6-7.1,6C673.5,49.6,672,48.5,672,46.6z"/>
		</g>
	</g>
	<g transform="matrix(0.620079,0,0,0.620079,0,0)">
		<line vector-effect="none" class="st3" x1="694.3" y1="46.3" x2="694.3" y2="72.9"/>
	</g>
	<g transform="matrix(0.620079,0,0,0.620079,0,0)">
		<g class="st2">
			<path d="M693.8,46.6c0-3.1,3.2-6,7.1-6c2.1,0,3.5,1.2,3.5,3c0,3-3.9,6-7.1,6C695.3,49.6,693.8,48.5,693.8,46.6z"/>
		</g>
	</g>
	<g transform="matrix(0.620079,0,0,0.620079,0,0)">
		<line vector-effect="none" class="st3" x1="716" y1="46.3" x2="716" y2="72.9"/>
	</g>
	<g transform="matrix(0.620079,0,0,0.620079,0,0)">
		<g class="st2">
			<path d="M715.5,46.6c0-3.1,3.2-6,7.1-6c2.1,0,3.5,1.2,3.5,3c0,3-3.9,6-7.1,6C717,49.6,715.5,48.5,715.5,46.6z"/>
		</g>
	</g>
	<g transform="matrix(0.620079,0,0,0.620079,0,0)">
		<line vector-effect="none" class="st3" x1="737.8" y1="46.3" x2="737.8" y2="72.9"/>
	</g>
	<g transform="matrix(0.620079,0,0,0.620079,0,0)">
		<g class="st2">
			<path d="M737.3,46.6c0-3.1,3.2-6,7.1-6c2.1,0,3.5,1.2,3.5,3c0,3-3.9,6-7.1,6C738.8,49.6,737.3,48.5,737.3,46.6z"/>
		</g>
	</g>
	<g transform="matrix(0.620079,0,0,0.620079,0,0)">
		<line vector-effect="none" class="st3" x1="800.8" y1="46.3" x2="800.8" y2="73.1"/>
	</g>
	<g transform="matrix(0.620079,0,0,0.620079,0,0)">
		<g class="st2">
			<path d="M800.3,46.7c0-1.9,1.7-6.2,7.3-6.2c2.1,0,3.6,1.2,3.6,3.1c0,1.2-1.2,6.2-7.3,6.2C801.8,49.7,800.3,48.6,800.3,46.7z
				 M810,43.5c0-0.3-0.1-0.5-0.2-0.7c-0.3-0.4-0.6-0.8-1.3-0.8c-0.8,0-1.9,0.4-3.7,1.4c-2.6,1.5-3.4,2.5-3.4,3.3
				c0,0.3,0.1,0.5,0.2,0.7c0.3,0.4,0.7,0.8,1.5,0.8s2-0.4,3.6-1.5C809.2,45.1,810,44.2,810,43.5z"/>
		</g>
	</g>
	<g transform="matrix(0.620079,0,0,0.620079,0,0)">
		<line vector-effect="none" class="st3" x1="863.3" y1="46.3" x2="863.3" y2="72.9"/>
	</g>
	<g transform="matrix(0.620079,0,0,0.620079,0,0)">
		<g class="st2">
			<path d="M862.8,46.6c0-3.1,3.2-6,7.1-6c2.1,0,3.5,1.2,3.5,3c0,3-3.9,6-7.1,6C864.3,49.6,862.8,48.5,862.8,46.6z"/>
		</g>
	</g>
	<g transform="matrix(0.620079,0,0,0.620079,0,0)">
		<line vector-effect="none" class="st3" x1="885" y1="46.3" x2="885" y2="72.9"/>
	</g>
	<g transform="matrix(0.620079,0,0,0.620079,0,0)">
		<g class="st2">
			<path d="M884.5,46.6c0-3.1,3.2-6,7.1-6c2.1,0,3.5,1.2,3.5,3c0,3-3.9,6-7.1,6C886,49.6,884.5,48.5,884.5,46.6z"/>
		</g>
	</g>
	<g transform="matrix(0.620079,0,0,0.620079,0,0)">
		<line vector-effect="none" class="st3" x1="906.8" y1="46.3" x2="906.8" y2="72.9"/>
	</g>
	<g transform="matrix(0.620079,0,0,0.620079,0,0)">
		<g class="st2">
			<path d="M906.3,46.6c0-3.1,3.2-6,7.1-6c2.1,0,3.5,1.2,3.5,3c0,3-3.9,6-7.1,6C907.8,49.6,906.3,48.5,906.3,46.6z"/>
		</g>
	</g>
	<g transform="matrix(0.620079,0,0,0.620079,0,0)">
		<line vector-effect="none" class="st3" x1="928.5" y1="46.3" x2="928.5" y2="72.9"/>
	</g>
	<g transform="matrix(0.620079,0,0,0.620079,0,0)">
		<g class="st2">
			<path d="M928,46.6c0-3.1,3.2-6,7.1-6c2.1,0,3.5,1.2,3.5,3c0,3-3.9,6-7.1,6C929.5,49.6,928,48.5,928,46.6z"/>
		</g>
	</g>
	<g transform="matrix(0.620079,0,0,0.620079,0,0)">
		<line vector-effect="none" class="st3" x1="950.3" y1="46.3" x2="950.3" y2="72.9"/>
	</g>
	<g transform="matrix(0.620079,0,0,0.620079,0,0)">
		<g class="st2">
			<path d="M949.8,46.6c0-3.1,3.2-6,7.1-6c2.1,0,3.5,1.2,3.5,3c0,3-3.9,6-7.1,6C951.3,49.6,949.8,48.5,949.8,46.6z"/>
		</g>
	</g>
	<g transform="matrix(0.620079,0,0,0.620079,0,0)">
		<line vector-effect="none" class="st3" x1="971.8" y1="46.3" x2="971.8" y2="72.9"/>
	</g>
	<g transform="matrix(0.620079,0,0,0.620079,0,0)">
		<g class="st2">
			<path d="M971.3,46.6c0-3.1,3.2-6,7.1-6c2.1,0,3.5,1.2,3.5,3c0,3-3.9,6-7.1,6C972.8,49.6,971.3,48.5,971.3,46.6z"/>
		</g>
	</g>
	<g transform="matrix(0.620079,0,0,0.620079,0,0)">
		<line vector-effect="none" class="st3" x1="1024.3" y1="46.3" x2="1024.3" y2="73.1"/>
	</g>
	<g transform="matrix(0.620079,0,0,0.620079,0,0)">
		<g class="st2">
			<path d="M1023.8,46.7c0-1.9,1.7-6.2,7.3-6.2c2.1,0,3.6,1.2,3.6,3.1c0,1.2-1.2,6.2-7.3,6.2C1025.3,49.7,1023.8,48.6,1023.8,46.7z
				 M1033.5,43.5c0-0.3-0.1-0.5-0.2-0.7c-0.3-0.4-0.6-0.8-1.3-0.8c-0.8,0-1.9,0.4-3.7,1.4c-2.6,1.5-3.4,2.5-3.4,3.3
				c0,0.3,0.1,0.5,0.2,0.7c0.3,0.4,0.7,0.8,1.5,0.8s2-0.4,3.6-1.5C1032.7,45.1,1033.5,44.2,1033.5,43.5z"/>
		</g>
	</g>
	<g transform="matrix(0.620079,0,0,0.620079,0,0)">
		<g class="st2">
			<path d="M1094.4,65.4h-7.4c-0.5,0-0.8-0.4-0.8-0.8v-2.9c0-0.5,0.4-0.8,0.8-0.8h7.4c0.4,0,0.8,0.4,0.8,0.8v2.9
				C1095.3,65,1094.9,65.4,1094.4,65.4z"/>
		</g>
	</g>
</g>
</svg>
