<?xml version="1.0" encoding="utf-8"?>
<!-- Generator: Adobe Illustrator 26.3.1, SVG Export Plug-In . SVG Version: 6.00 Build 0)  -->
<svg version="1.1" id="Layer_1" xmlns="http://www.w3.org/2000/svg" xmlns:xlink="http://www.w3.org/1999/xlink" x="0px" y="0px"
	 viewBox="0 0 792 612" style="enable-background:new 0 0 792 612;" xml:space="preserve">
<style type="text/css">
	.st0{fill:none;stroke:#000000;stroke-width:2.4803;stroke-linejoin:bevel;stroke-miterlimit:10;}
	.st1{fill:none;stroke:#000000;stroke-width:0.7751;stroke-linejoin:bevel;stroke-miterlimit:10;}
	.st2{enable-background:new    ;}
	.st3{fill:none;stroke:#000000;stroke-width:0.6201;stroke-linejoin:bevel;stroke-miterlimit:10;}
	.st4{fill-rule:evenodd;clip-rule:evenodd;}
</style>
<g>
	<g transform="matrix(0.620079,0,0,0.620079,0,0)">
		<line vector-effect="none" class="st0" x1="131.2" y1="200" x2="131.2" y2="232"/>
	</g>
	<g transform="matrix(0.620079,0,0,0.620079,0,0)">
		<line vector-effect="none" class="st1" x1="137" y1="200" x2="137" y2="232"/>
	</g>
	<g transform="matrix(0.620079,0,0,0.620079,0,0)">
		<g class="st2">
			<path d="M142.5,213.6c-0.9,0-1.6-0.7-1.6-1.6c0-0.9,0.7-1.6,1.6-1.6s1.6,0.7,1.6,1.6C144.1,212.9,143.3,213.6,142.5,213.6z"/>
		</g>
	</g>
	<g transform="matrix(0.620079,0,0,0.620079,0,0)">
		<g class="st2">
			<path d="M142.5,221.6c-0.9,0-1.6-0.7-1.6-1.6s0.7-1.6,1.6-1.6s1.6,0.7,1.6,1.6S143.3,221.6,142.5,221.6z"/>
		</g>
	</g>
	<g transform="matrix(0.620079,0,0,0.620079,0,0)">
		<line vector-effect="none" class="st1" x1="367.7" y1="200" x2="367.7" y2="232"/>
	</g>
	<g transform="matrix(0.620079,0,0,0.620079,0,0)">
		<line vector-effect="none" class="st0" x1="373.5" y1="200" x2="373.5" y2="232"/>
	</g>
	<g transform="matrix(0.620079,0,0,0.620079,0,0)">
		<g class="st2">
			<path d="M362.2,213.6c-0.9,0-1.6-0.7-1.6-1.6c0-0.9,0.7-1.6,1.6-1.6s1.6,0.7,1.6,1.6C363.8,212.9,363.1,213.6,362.2,213.6z"/>
		</g>
	</g>
	<g transform="matrix(0.620079,0,0,0.620079,0,0)">
		<g class="st2">
			<path d="M362.2,221.6c-0.9,0-1.6-0.7-1.6-1.6s0.7-1.6,1.6-1.6s1.6,0.7,1.6,1.6S363.1,221.6,362.2,221.6z"/>
		</g>
	</g>
	<g transform="matrix(0.620079,0,0,0.620079,0,0)">
		<line vector-effect="none" class="st0" x1="373.5" y1="200" x2="373.5" y2="232"/>
	</g>
	<g transform="matrix(0.620079,0,0,0.620079,0,0)">
		<line vector-effect="none" class="st1" x1="379.2" y1="200" x2="379.2" y2="232"/>
	</g>
	<g transform="matrix(0.620079,0,0,0.620079,0,0)">
		<g class="st2">
			<path d="M384.7,213.6c-0.9,0-1.6-0.7-1.6-1.6c0-0.9,0.7-1.6,1.6-1.6c0.9,0,1.6,0.7,1.6,1.6C386.3,212.9,385.6,213.6,384.7,213.6z
				"/>
		</g>
	</g>
	<g transform="matrix(0.620079,0,0,0.620079,0,0)">
		<g class="st2">
			<path d="M384.7,221.6c-0.9,0-1.6-0.7-1.6-1.6s0.7-1.6,1.6-1.6c0.9,0,1.6,0.7,1.6,1.6S385.6,221.6,384.7,221.6z"/>
		</g>
	</g>
	<g transform="matrix(0.620079,0,0,0.620079,0,0)">
		<line vector-effect="none" class="st1" x1="599.7" y1="200" x2="599.7" y2="232"/>
	</g>
	<g transform="matrix(0.620079,0,0,0.620079,0,0)">
		<line vector-effect="none" class="st0" x1="605.5" y1="200" x2="605.5" y2="232"/>
	</g>
	<g transform="matrix(0.620079,0,0,0.620079,0,0)">
		<g class="st2">
			<path d="M594.2,213.6c-0.9,0-1.6-0.7-1.6-1.6c0-0.9,0.7-1.6,1.6-1.6s1.6,0.7,1.6,1.6C595.8,212.9,595.1,213.6,594.2,213.6z"/>
		</g>
	</g>
	<g transform="matrix(0.620079,0,0,0.620079,0,0)">
		<g class="st2">
			<path d="M594.2,221.6c-0.9,0-1.6-0.7-1.6-1.6s0.7-1.6,1.6-1.6s1.6,0.7,1.6,1.6S595.1,221.6,594.2,221.6z"/>
		</g>
	</g>
	<g transform="matrix(0.620079,0,0,0.620079,0,0)">
		<line vector-effect="none" class="st0" x1="605.5" y1="200" x2="605.5" y2="232"/>
	</g>
	<g transform="matrix(0.620079,0,0,0.620079,0,0)">
		<line vector-effect="none" class="st1" x1="611.2" y1="200" x2="611.2" y2="232"/>
	</g>
	<g transform="matrix(0.620079,0,0,0.620079,0,0)">
		<g class="st2">
			<path d="M616.7,213.6c-0.9,0-1.6-0.7-1.6-1.6c0-0.9,0.7-1.6,1.6-1.6s1.6,0.7,1.6,1.6C618.3,212.9,617.6,213.6,616.7,213.6z"/>
		</g>
	</g>
	<g transform="matrix(0.620079,0,0,0.620079,0,0)">
		<g class="st2">
			<path d="M616.7,221.6c-0.9,0-1.6-0.7-1.6-1.6s0.7-1.6,1.6-1.6s1.6,0.7,1.6,1.6S617.6,221.6,616.7,221.6z"/>
		</g>
	</g>
	<g transform="matrix(0.620079,0,0,0.620079,0,0)">
		<line vector-effect="none" class="st1" x1="831.7" y1="200" x2="831.7" y2="232"/>
	</g>
	<g transform="matrix(0.620079,0,0,0.620079,0,0)">
		<line vector-effect="none" class="st0" x1="837.5" y1="200" x2="837.5" y2="232"/>
	</g>
	<g transform="matrix(0.620079,0,0,0.620079,0,0)">
		<g class="st2">
			<path d="M826.2,213.6c-0.9,0-1.6-0.7-1.6-1.6c0-0.9,0.7-1.6,1.6-1.6c0.9,0,1.6,0.7,1.6,1.6C827.8,212.9,827.1,213.6,826.2,213.6z
				"/>
		</g>
	</g>
	<g transform="matrix(0.620079,0,0,0.620079,0,0)">
		<g class="st2">
			<path d="M826.2,221.6c-0.9,0-1.6-0.7-1.6-1.6s0.7-1.6,1.6-1.6c0.9,0,1.6,0.7,1.6,1.6S827.1,221.6,826.2,221.6z"/>
		</g>
	</g>
	<g transform="matrix(0.620079,0,0,0.620079,0,0)">
		<line vector-effect="none" class="st0" x1="837.5" y1="200" x2="837.5" y2="232"/>
	</g>
	<g transform="matrix(0.620079,0,0,0.620079,0,0)">
		<line vector-effect="none" class="st1" x1="843.2" y1="200" x2="843.2" y2="232"/>
	</g>
	<g transform="matrix(0.620079,0,0,0.620079,0,0)">
		<g class="st2">
			<path d="M848.7,213.6c-0.9,0-1.6-0.7-1.6-1.6c0-0.9,0.7-1.6,1.6-1.6s1.6,0.7,1.6,1.6C850.3,212.9,849.6,213.6,848.7,213.6z"/>
		</g>
	</g>
	<g transform="matrix(0.620079,0,0,0.620079,0,0)">
		<g class="st2">
			<path d="M848.7,221.6c-0.9,0-1.6-0.7-1.6-1.6s0.7-1.6,1.6-1.6s1.6,0.7,1.6,1.6S849.6,221.6,848.7,221.6z"/>
		</g>
	</g>
	<g transform="matrix(0.620079,0,0,0.620079,0,0)">
		<line vector-effect="none" class="st1" x1="1063.7" y1="200" x2="1063.7" y2="232"/>
	</g>
	<g transform="matrix(0.620079,0,0,0.620079,0,0)">
		<line vector-effect="none" class="st0" x1="1069.5" y1="200" x2="1069.5" y2="232"/>
	</g>
	<g transform="matrix(0.620079,0,0,0.620079,0,0)">
		<g class="st2">
			<path d="M1058.2,213.6c-0.9,0-1.6-0.7-1.6-1.6c0-0.9,0.7-1.6,1.6-1.6c0.9,0,1.6,0.7,1.6,1.6
				C1059.8,212.9,1059.1,213.6,1058.2,213.6z"/>
		</g>
	</g>
	<g transform="matrix(0.620079,0,0,0.620079,0,0)">
		<g class="st2">
			<path d="M1058.2,221.6c-0.9,0-1.6-0.7-1.6-1.6s0.7-1.6,1.6-1.6c0.9,0,1.6,0.7,1.6,1.6S1059.1,221.6,1058.2,221.6z"/>
		</g>
	</g>
	<g transform="matrix(0.620079,0,0,0.620079,0,0)">
		<line vector-effect="none" class="st1" x1="1211.7" y1="200" x2="1211.7" y2="232"/>
	</g>
	<g transform="matrix(0.620079,0,0,0.620079,0,0)">
		<line vector-effect="none" class="st0" x1="1217.5" y1="200" x2="1217.5" y2="232"/>
	</g>
	<g transform="matrix(0.620079,0,0,0.620079,0,0)">
	</g>
	<g transform="matrix(0.620079,0,0,0.620079,377.628,611.637)">
	</g>
	<g transform="matrix(0.620079,0,0,0.620079,377.628,611.637)">
		<g class="st2">
			<path d="M-456.2-729.4v-0.6c1.9-0.7,2.2-1.9,2.4-3.7h0.6v3.5h2.7v0.9h-2.7v6c0,0.6,0.7,1,1.1,1c1.3,0,1.5-1.5,1.6-2.4h0.6
				c0,1.7-0.8,3.4-2.7,3.4c-1.2,0-2.3-0.6-2.3-1.7v-6.2H-456.2z"/>
			<path d="M-448.5-723.4c0-2.5,3.9-3.2,5.7-3.4v-1.7c0-0.9-1.3-1.3-2-1.3c-0.5,0-1.7,0.1-1.7,0.8c0,0.4,0.4,0.7,0.4,1.1
				c0,0.6-0.4,0.9-1,0.9c-0.7,0-1-0.5-1-1.1c0-1.8,2.3-2.4,3.7-2.4c1.4,0,3.2,0.6,3.2,1.9v5.5c0,0.4,0.4,0.9,0.8,0.9
				c0.2,0,0.5-0.1,0.7-0.3l0.3,0.5c-0.2,0.5-1.1,0.7-1.5,0.7c-1,0-1.4-0.6-1.9-1.5c-0.8,0.9-1.9,1.5-3.1,1.5
				C-447.1-721.4-448.5-721.9-448.5-723.4z M-445.4-722.1c1.1,0,2.6-1.1,2.6-2.3v-1.8c-0.5,0-1.3,0.2-1.7,0.3
				c-1.2,0.3-2.2,0.9-2.2,2.3C-446.8-722.8-446.3-722.1-445.4-722.1z"/>
		</g>
	</g>
	<g transform="matrix(0.620079,0,0,0.620079,377.628,611.637)">
	</g>
	<g transform="matrix(0.620079,0,0,0.620079,0,0)">
	</g>
	<g transform="matrix(0.620079,0,0,0.620079,530.787,611.637)">
	</g>
	<g transform="matrix(0.620079,0,0,0.620079,530.787,611.637)">
		<g class="st2">
			<path d="M-641.5-729.4v-0.6c1.9-0.7,2.2-1.9,2.4-3.7h0.6v3.5h2.7v0.9h-2.7v6c0,0.6,0.7,1,1.1,1c1.3,0,1.5-1.5,1.6-2.4h0.6
				c0,1.7-0.8,3.4-2.7,3.4c-1.2,0-2.3-0.6-2.3-1.7v-6.2H-641.5z"/>
			<path d="M-633.8-723.4c0-2.5,3.9-3.2,5.7-3.4v-1.7c0-0.9-1.3-1.3-2-1.3c-0.5,0-1.7,0.1-1.7,0.8c0,0.4,0.4,0.7,0.4,1.1
				c0,0.6-0.4,0.9-1,0.9c-0.7,0-1-0.5-1-1.1c0-1.8,2.3-2.4,3.7-2.4c1.4,0,3.2,0.6,3.2,1.9v5.5c0,0.4,0.4,0.9,0.8,0.9
				c0.2,0,0.5-0.1,0.7-0.3l0.3,0.5c-0.2,0.5-1.1,0.7-1.5,0.7c-1,0-1.4-0.6-1.9-1.5c-0.8,0.9-1.9,1.5-3.1,1.5
				C-632.3-721.4-633.8-721.9-633.8-723.4z M-630.7-722.1c1.1,0,2.6-1.1,2.6-2.3v-1.8c-0.5,0-1.3,0.2-1.7,0.3
				c-1.2,0.3-2.2,0.9-2.2,2.3C-632-722.8-631.5-722.1-630.7-722.1z"/>
		</g>
	</g>
	<g transform="matrix(0.620079,0,0,0.620079,530.787,611.637)">
	</g>
	<g transform="matrix(0.620079,0,0,0.620079,0,0)">
	</g>
	<g transform="matrix(0.620079,0,0,0.620079,589.075,611.637)">
	</g>
	<g transform="matrix(0.620079,0,0,0.620079,589.075,611.637)">
		<g class="st2">
			<path d="M-712-729.4v-0.6c1.9-0.7,2.2-1.9,2.4-3.7h0.6v3.5h2.7v0.9h-2.7v6c0,0.6,0.7,1,1.1,1c1.3,0,1.5-1.5,1.6-2.4h0.6
				c0,1.7-0.8,3.4-2.7,3.4c-1.2,0-2.3-0.6-2.3-1.7v-6.2H-712z"/>
			<path d="M-704.3-723.4c0-2.5,3.9-3.2,5.7-3.4v-1.7c0-0.9-1.3-1.3-2-1.3c-0.5,0-1.7,0.1-1.7,0.8c0,0.4,0.4,0.7,0.4,1.1
				c0,0.6-0.4,0.9-1,0.9c-0.7,0-1-0.5-1-1.1c0-1.8,2.3-2.4,3.7-2.4c1.4,0,3.2,0.6,3.2,1.9v5.5c0,0.4,0.4,0.9,0.8,0.9
				c0.2,0,0.5-0.1,0.7-0.3l0.3,0.5c-0.2,0.5-1.1,0.7-1.5,0.7c-1,0-1.4-0.6-1.9-1.5c-0.8,0.9-1.9,1.5-3.1,1.5
				C-702.8-721.4-704.3-721.9-704.3-723.4z M-701.2-722.1c1.1,0,2.6-1.1,2.6-2.3v-1.8c-0.5,0-1.3,0.2-1.7,0.3
				c-1.2,0.3-2.2,0.9-2.2,2.3C-702.5-722.8-702-722.1-701.2-722.1z"/>
		</g>
	</g>
	<g transform="matrix(0.620079,0,0,0.620079,589.075,611.637)">
	</g>
	<g transform="matrix(0.620079,0,0,0.620079,0,0)">
	</g>
	<g transform="matrix(0.620079,0,0,0.620079,647.362,611.637)">
	</g>
	<g transform="matrix(0.620079,0,0,0.620079,647.362,611.637)">
		<g class="st2">
			<path d="M-782.5-729.4v-0.6c1.9-0.7,2.2-1.9,2.4-3.7h0.6v3.5h2.7v0.9h-2.7v6c0,0.6,0.7,1,1.1,1c1.3,0,1.5-1.5,1.6-2.4h0.6
				c0,1.7-0.8,3.4-2.7,3.4c-1.2,0-2.3-0.6-2.3-1.7v-6.2H-782.5z"/>
			<path d="M-774.8-723.4c0-2.5,3.9-3.2,5.7-3.4v-1.7c0-0.9-1.3-1.3-2-1.3c-0.5,0-1.7,0.1-1.7,0.8c0,0.4,0.4,0.7,0.4,1.1
				c0,0.6-0.4,0.9-1,0.9c-0.7,0-1-0.5-1-1.1c0-1.8,2.3-2.4,3.7-2.4c1.4,0,3.2,0.6,3.2,1.9v5.5c0,0.4,0.4,0.9,0.8,0.9
				c0.2,0,0.5-0.1,0.7-0.3l0.3,0.5c-0.2,0.5-1.1,0.7-1.5,0.7c-1,0-1.4-0.6-1.9-1.5c-0.8,0.9-1.9,1.5-3.1,1.5
				C-773.3-721.4-774.8-721.9-774.8-723.4z M-771.7-722.1c1.1,0,2.6-1.1,2.6-2.3v-1.8c-0.5,0-1.3,0.2-1.7,0.3
				c-1.2,0.3-2.2,0.9-2.2,2.3C-773-722.8-772.5-722.1-771.7-722.1z"/>
		</g>
	</g>
	<g transform="matrix(0.620079,0,0,0.620079,647.362,611.637)">
	</g>
	<g transform="matrix(0.620079,0,0,0.620079,0,0)">
	</g>
	<g transform="matrix(0.620079,0,0,0.620079,705.65,611.637)">
	</g>
	<g transform="matrix(0.620079,0,0,0.620079,705.65,611.637)">
		<g class="st2">
			<path d="M-853-729.4v-0.6c1.9-0.7,2.2-1.9,2.4-3.7h0.6v3.5h2.7v0.9h-2.7v6c0,0.6,0.7,1,1.1,1c1.3,0,1.5-1.5,1.6-2.4h0.6
				c0,1.7-0.8,3.4-2.7,3.4c-1.2,0-2.3-0.6-2.3-1.7v-6.2H-853z"/>
			<path d="M-845.3-723.4c0-2.5,3.9-3.2,5.7-3.4v-1.7c0-0.9-1.3-1.3-2-1.3c-0.5,0-1.7,0.1-1.7,0.8c0,0.4,0.4,0.7,0.4,1.1
				c0,0.6-0.4,0.9-1,0.9c-0.7,0-1-0.5-1-1.1c0-1.8,2.3-2.4,3.7-2.4c1.4,0,3.2,0.6,3.2,1.9v5.5c0,0.4,0.4,0.9,0.8,0.9
				c0.2,0,0.5-0.1,0.7-0.3l0.3,0.5c-0.2,0.5-1.1,0.7-1.5,0.7c-1,0-1.4-0.6-1.9-1.5c-0.8,0.9-1.9,1.5-3.1,1.5
				C-843.8-721.4-845.3-721.9-845.3-723.4z M-842.2-722.1c1.1,0,2.6-1.1,2.6-2.3v-1.8c-0.5,0-1.3,0.2-1.7,0.3
				c-1.2,0.3-2.2,0.9-2.2,2.3C-843.5-722.8-843-722.1-842.2-722.1z"/>
		</g>
	</g>
	<g transform="matrix(0.620079,0,0,0.620079,705.65,611.637)">
	</g>
	<g transform="matrix(0.620079,0,0,0.620079,0,0)">
	</g>
	<g transform="matrix(0.620079,0,0,0.620079,763.937,611.637)">
	</g>
	<g transform="matrix(0.620079,0,0,0.620079,763.937,611.637)">
		<g class="st2">
			<path d="M-923.5-729.4v-0.6c1.9-0.7,2.2-1.9,2.4-3.7h0.6v3.5h2.7v0.9h-2.7v6c0,0.6,0.7,1,1.1,1c1.3,0,1.5-1.5,1.6-2.4h0.6
				c0,1.7-0.8,3.4-2.7,3.4c-1.2,0-2.3-0.6-2.3-1.7v-6.2H-923.5z"/>
			<path d="M-915.8-723.4c0-2.5,3.9-3.2,5.7-3.4v-1.7c0-0.9-1.3-1.3-2-1.3c-0.5,0-1.7,0.1-1.7,0.8c0,0.4,0.4,0.7,0.4,1.1
				c0,0.6-0.4,0.9-1,0.9c-0.7,0-1-0.5-1-1.1c0-1.8,2.3-2.4,3.7-2.4c1.4,0,3.2,0.6,3.2,1.9v5.5c0,0.4,0.4,0.9,0.8,0.9
				c0.2,0,0.5-0.1,0.7-0.3l0.3,0.5c-0.2,0.5-1.1,0.7-1.5,0.7c-1,0-1.4-0.6-1.9-1.5c-0.8,0.9-1.9,1.5-3.1,1.5
				C-914.3-721.4-915.8-721.9-915.8-723.4z M-912.7-722.1c1.1,0,2.6-1.1,2.6-2.3v-1.8c-0.5,0-1.3,0.2-1.7,0.3
				c-1.2,0.3-2.2,0.9-2.2,2.3C-914-722.8-913.5-722.1-912.7-722.1z"/>
		</g>
	</g>
	<g transform="matrix(0.620079,0,0,0.620079,763.937,611.637)">
	</g>
	<g transform="matrix(0.620079,0,0,0.620079,0,0)">
	</g>
	<g transform="matrix(0.620079,0,0,0.620079,822.224,611.637)">
	</g>
	<g transform="matrix(0.620079,0,0,0.620079,822.224,611.637)">
		<g class="st2">
			<path d="M-994-729.4v-0.6c1.9-0.7,2.2-1.9,2.4-3.7h0.6v3.5h2.7v0.9h-2.7v6c0,0.6,0.7,1,1.1,1c1.3,0,1.5-1.5,1.6-2.4h0.6
				c0,1.7-0.8,3.4-2.7,3.4c-1.2,0-2.3-0.6-2.3-1.7v-6.2H-994z"/>
			<path d="M-986.3-723.4c0-2.5,3.9-3.2,5.7-3.4v-1.7c0-0.9-1.3-1.3-2-1.3c-0.5,0-1.7,0.1-1.7,0.8c0,0.4,0.4,0.7,0.4,1.1
				c0,0.6-0.4,0.9-1,0.9c-0.7,0-1-0.5-1-1.1c0-1.8,2.3-2.4,3.7-2.4c1.4,0,3.2,0.6,3.2,1.9v5.5c0,0.4,0.4,0.9,0.8,0.9
				c0.2,0,0.5-0.1,0.7-0.3l0.3,0.5c-0.2,0.5-1.1,0.7-1.5,0.7c-1,0-1.4-0.6-1.9-1.5c-0.8,0.9-1.9,1.5-3.1,1.5
				C-984.8-721.4-986.3-721.9-986.3-723.4z M-983.2-722.1c1.1,0,2.6-1.1,2.6-2.3v-1.8c-0.5,0-1.3,0.2-1.7,0.3
				c-1.2,0.3-2.2,0.9-2.2,2.3C-984.5-722.8-984-722.1-983.2-722.1z"/>
		</g>
	</g>
	<g transform="matrix(0.620079,0,0,0.620079,822.224,611.637)">
	</g>
	<g transform="matrix(0.620079,0,0,0.620079,0,0)">
	</g>
	<g transform="matrix(0.620079,0,0,0.620079,326.781,372.471)">
	</g>
	<g transform="matrix(0.620079,0,0,0.620079,326.781,372.471)">
		<g class="st2">
			<path d="M-389-449.8h0.6v17.5c0,1.9-2.5,3.8-4.5,3.8c-1.2,0-2.2-0.7-2.2-1.9c0-2,2-3.8,4.4-3.8c0.7,0,1.2,0.2,1.6,0.5L-389-449.8
				z"/>
		</g>
		<g class="st2">
			<path d="M-381.3-435.5v-1.8h10.5v1.8H-381.3z M-370.8-432.9v1.9h-10.5v-1.9H-370.8z"/>
			<path d="M-359.9-435.9c-1.7-0.9-2.6-1.7-2.6-3.7c0-2.5,2-4.1,4.4-4.1c1.8,0,4.2,0.9,4.2,3.1c0,1.6-1.2,2.3-2.4,3.1
				c2,1.1,3.1,2,3.1,4.2c0,3-2.3,4.7-5.1,4.7c-2.4,0-4.8-1-4.8-3.7C-363.1-434.2-361.6-435.1-359.9-435.9z M-358.1-429.5
				c1.6,0,3-0.9,3-2.6c-0.1-1.8-2.4-2.9-3.9-3.3c-1.3,0.4-1.9,1.7-1.9,3C-360.9-430.7-359.9-429.5-358.1-429.5z M-357.2-437.7
				c0.9-0.5,1.5-1.5,1.5-2.5c0-1.6-0.9-2.5-2.5-2.5c-1.3,0-2.3,0.7-2.3,2.1C-360.5-438.8-358.6-438.3-357.2-437.7z"/>
			<path d="M-348.9-435.9c-1.7-0.9-2.6-1.7-2.6-3.7c0-2.5,2-4.1,4.4-4.1c1.8,0,4.2,0.9,4.2,3.1c0,1.6-1.2,2.3-2.4,3.1
				c2,1.1,3.1,2,3.1,4.2c0,3-2.3,4.7-5.1,4.7c-2.4,0-4.8-1-4.8-3.7C-352-434.2-350.6-435.1-348.9-435.9z M-347-429.5
				c1.6,0,3-0.9,3-2.6c-0.1-1.8-2.4-2.9-3.9-3.3c-1.3,0.4-1.9,1.7-1.9,3C-349.8-430.7-348.8-429.5-347-429.5z M-346.2-437.7
				c0.9-0.5,1.5-1.5,1.5-2.5c0-1.6-0.9-2.5-2.5-2.5c-1.3,0-2.3,0.7-2.3,2.1C-349.5-438.8-347.6-438.3-346.2-437.7z"/>
		</g>
	</g>
	<g transform="matrix(0.620079,0,0,0.620079,326.781,372.471)">
	</g>
	<g transform="matrix(0.620079,0,0,0.620079,0,0)">
	</g>
	<g transform="matrix(0.620079,0,0,0.620079,927.638,372.471)">
	</g>
	<g transform="matrix(0.620079,0,0,0.620079,927.638,372.471)">
		<g class="st2">
			<path d="M-1115.8-449.8h0.6v17.5c0,1.9-2.5,3.8-4.5,3.8c-1.2,0-2.2-0.7-2.2-1.9c0-2,2-3.8,4.4-3.8c0.7,0,1.2,0.2,1.6,0.5
				L-1115.8-449.8z"/>
		</g>
		<g class="st2">
			<path d="M-1108.1-435.5v-1.8h10.5v1.8H-1108.1z M-1097.6-432.9v1.9h-10.5v-1.9H-1097.6z"/>
			<path d="M-1084.9-443.6c3.8,0,5,3.6,5,6.8c0,3.5-1.7,8.3-5.9,8.3c-1.5,0-3.5-0.8-3.5-2.6c0-0.9,0.5-1.7,1.5-1.7
				c0.9,0,1.4,0.6,1.4,1.4c0,0.5-0.4,0.9-0.4,1.4c0,0.4,0.5,0.5,0.9,0.5c1.8,0,2.5-2.2,2.7-3.6c0-0.4,0.2-2.2,0.2-2.6
				c-1,0.9-1.7,1.3-3,1.3c-2.4,0-3.8-2-3.8-4.2C-1089.8-441.6-1088-443.6-1084.9-443.6z M-1086.9-439.1c0,1.3,0.1,3.2,1.8,3.2
				c1.7,0,2.1-2.2,2.1-3.5c0-1.3-0.3-3.3-2-3.3C-1086.8-442.7-1086.9-440.3-1086.9-439.1z"/>
			<path d="M-1075.5-435.9c-1.7-0.9-2.6-1.7-2.6-3.7c0-2.5,2-4.1,4.4-4.1c1.8,0,4.2,0.9,4.2,3.1c0,1.6-1.2,2.3-2.4,3.1
				c2,1.1,3.1,2,3.1,4.2c0,3-2.3,4.7-5.1,4.7c-2.4,0-4.8-1-4.8-3.7C-1078.6-434.2-1077.2-435.1-1075.5-435.9z M-1073.6-429.5
				c1.6,0,3-0.9,3-2.6c-0.1-1.8-2.4-2.9-3.9-3.3c-1.3,0.4-1.9,1.7-1.9,3C-1076.4-430.7-1075.4-429.5-1073.6-429.5z M-1072.8-437.7
				c0.9-0.5,1.5-1.5,1.5-2.5c0-1.6-0.9-2.5-2.5-2.5c-1.3,0-2.3,0.7-2.3,2.1C-1076.1-438.8-1074.2-438.3-1072.8-437.7z"/>
		</g>
	</g>
	<g transform="matrix(0.620079,0,0,0.620079,927.638,372.471)">
	</g>
	<g transform="matrix(0.620079,0,0,0.620079,0,0)">
	</g>
	<g transform="matrix(0.620079,0,0,0.620079,1503.07,372.471)">
	</g>
	<g transform="matrix(0.620079,0,0,0.620079,1503.07,372.471)">
		<g class="st2">
			<path d="M-1811.8-449.8h0.6v17.5c0,1.9-2.5,3.8-4.5,3.8c-1.2,0-2.2-0.7-2.2-1.9c0-2,2-3.8,4.4-3.8c0.7,0,1.2,0.2,1.6,0.5
				L-1811.8-449.8z"/>
		</g>
		<g class="st2">
			<path d="M-1804.1-435.5v-1.8h10.5v1.8H-1804.1z M-1793.6-432.9v1.9h-10.5v-1.9H-1793.6z"/>
			<path d="M-1779.9-443.7h0.7v13.1c0,0.4,0.3,0.8,0.7,0.8h2.1v0.9h-8.1v-0.9h1.7c0.5,0,0.8-0.5,0.8-0.9v-9.9c0-0.4-0.3-0.8-0.7-0.8
				h-2.4v-1C-1783.1-442.4-1781.5-442.8-1779.9-443.7z"/>
			<path d="M-1774.3-436c0-3.2,1.3-7.5,5.6-7.5c4.1,0,5.4,4.6,5.4,7.5c0,3.1-1.3,7.5-5.5,7.5C-1773-428.6-1774.3-433.1-1774.3-436z
				 M-1768.9-429.6c2.1,0,2.1-3.8,2.1-6.5c0-3.2,0-6.5-2-6.5c-2.1,0-2.1,3.4-2.1,6.9C-1770.9-433.4-1770.9-429.6-1768.9-429.6z"/>
			<path d="M-1759.1-435.9c-1.7-0.9-2.6-1.7-2.6-3.7c0-2.5,2-4.1,4.4-4.1c1.8,0,4.2,0.9,4.2,3.1c0,1.6-1.2,2.3-2.4,3.1
				c2,1.1,3.1,2,3.1,4.2c0,3-2.3,4.7-5.1,4.7c-2.4,0-4.8-1-4.8-3.7C-1762.2-434.2-1760.8-435.1-1759.1-435.9z M-1757.2-429.5
				c1.6,0,3-0.9,3-2.6c-0.1-1.8-2.4-2.9-3.9-3.3c-1.3,0.4-1.9,1.7-1.9,3C-1760-430.7-1759-429.5-1757.2-429.5z M-1756.4-437.7
				c0.9-0.5,1.5-1.5,1.5-2.5c0-1.6-0.9-2.5-2.5-2.5c-1.3,0-2.3,0.7-2.3,2.1C-1759.7-438.8-1757.8-438.3-1756.4-437.7z"/>
		</g>
	</g>
	<g transform="matrix(0.620079,0,0,0.620079,1503.07,372.471)">
	</g>
	<g transform="matrix(0.620079,0,0,0.620079,0,0)">
	</g>
	<g transform="matrix(0.620079,0,0,0.620079,2078.5,372.471)">
	</g>
	<g transform="matrix(0.620079,0,0,0.620079,2078.5,372.471)">
		<g class="st2">
			<path d="M-2507.8-449.8h0.6v17.5c0,1.9-2.5,3.8-4.5,3.8c-1.2,0-2.2-0.7-2.2-1.9c0-2,2-3.8,4.5-3.8c0.6,0,1.2,0.2,1.6,0.5
				L-2507.8-449.8z"/>
		</g>
		<g class="st2">
			<path d="M-2500.1-435.5v-1.8h10.5v1.8H-2500.1z M-2489.5-432.9v1.9h-10.5v-1.9H-2489.5z"/>
			<path d="M-2475.9-443.7h0.7v13.1c0,0.4,0.3,0.8,0.7,0.8h2.1v0.9h-8.1v-0.9h1.7c0.5,0,0.8-0.5,0.8-0.9v-9.9c0-0.4-0.3-0.8-0.7-0.8
				h-2.4v-1C-2479.1-442.4-2477.5-442.8-2475.9-443.7z"/>
			<path d="M-2464.3-443.7h0.7v13.1c0,0.4,0.3,0.8,0.7,0.8h2.1v0.9h-8.1v-0.9h1.7c0.5,0,0.8-0.5,0.8-0.9v-9.9c0-0.4-0.3-0.8-0.7-0.8
				h-2.4v-1C-2467.6-442.4-2466-442.8-2464.3-443.7z"/>
			<path d="M-2455.6-435.9c-1.7-0.9-2.6-1.7-2.6-3.7c0-2.5,2-4.1,4.4-4.1c1.8,0,4.2,0.9,4.2,3.1c0,1.6-1.2,2.3-2.4,3.1
				c2,1.1,3.1,2,3.1,4.2c0,3-2.3,4.7-5.1,4.7c-2.4,0-4.8-1-4.8-3.7C-2458.8-434.2-2457.3-435.1-2455.6-435.9z M-2453.7-429.5
				c1.6,0,3-0.9,3-2.6c-0.1-1.8-2.4-2.9-3.9-3.3c-1.3,0.4-1.9,1.7-1.9,3C-2456.6-430.7-2455.5-429.5-2453.7-429.5z M-2452.9-437.7
				c0.9-0.5,1.5-1.5,1.5-2.5c0-1.6-0.9-2.5-2.5-2.5c-1.3,0-2.3,0.7-2.3,2.1C-2456.2-438.8-2454.3-438.3-2452.9-437.7z"/>
		</g>
	</g>
	<g transform="matrix(0.620079,0,0,0.620079,2078.5,372.471)">
	</g>
	<g transform="matrix(0.620079,0,0,0.620079,0,0)">
	</g>
	<g transform="matrix(0.620079,0,0,0.620079,275.315,425.788)">
	</g>
	<g transform="matrix(0.620079,0,0,0.620079,275.315,425.788)">
		<g class="st2">
			<path d="M-318.8-475.5c0,0.4-0.2,0.7-0.5,0.7h-1.9v1.7c0,1,0.6,1.2,1,1.2c0.3,0,0.7,0.2,0.7,0.6c0,0.5-0.3,0.6-0.6,0.6h-7.5
				c-0.5,0-0.6-0.3-0.6-0.6c0-0.3,0.2-0.6,0.7-0.6c0.6,0,1.3-0.3,1.3-1.1v-1.8h-5.8c-0.4,0-0.6-0.4-0.6-0.7c0-0.1,0-0.2,0.1-0.3
				c0,0,0-0.1,0-0.1l0.2-0.3c0.9-1.3,3.6-5.7,3.6-9.6c0-0.5,0.4-0.6,0.7-0.6c0.3,0,2.1,0.1,2.6,0.1c0.6,0,2.3-0.1,2.5-0.1
				c0.3,0,0.5,0.2,0.5,0.5c0,0.1,0,0.1,0,0.1c-0.1,0.4-5.5,7.4-8.1,9.5h4.3v-2.5c0-0.4,0.2-0.6,0.3-0.7l3.8-3.6
				c0.2-0.2,0.3-0.3,0.6-0.3c0.4,0,0.4,0.3,0.4,0.5v6.6h1.9C-319-476.2-318.8-475.9-318.8-475.5z"/>
		</g>
	</g>
	<g transform="matrix(0.620079,0,0,0.620079,275.315,425.788)">
		<g class="st2">
			<path d="M-318.8-459.4c0,0.4-0.2,0.7-0.5,0.7h-1.9v1.7c0,1,0.6,1.2,1,1.2c0.3,0,0.7,0.2,0.7,0.6c0,0.5-0.3,0.6-0.6,0.6h-7.5
				c-0.5,0-0.6-0.3-0.6-0.6c0-0.3,0.2-0.6,0.7-0.6c0.6,0,1.3-0.3,1.3-1.1v-1.8h-5.8c-0.4,0-0.6-0.4-0.6-0.7c0-0.1,0-0.2,0.1-0.3
				c0,0,0-0.1,0-0.1l0.2-0.3c0.9-1.3,3.6-5.7,3.6-9.6c0-0.5,0.4-0.6,0.7-0.6c0.3,0,2.1,0.1,2.6,0.1c0.6,0,2.3-0.1,2.5-0.1
				c0.3,0,0.5,0.2,0.5,0.5c0,0.1,0,0.1,0,0.1c-0.1,0.4-5.5,7.4-8.1,9.5h4.3v-2.5c0-0.4,0.2-0.6,0.3-0.7l3.8-3.6
				c0.2-0.2,0.3-0.3,0.6-0.3c0.4,0,0.4,0.3,0.4,0.5v6.6h1.9C-319-460.1-318.8-459.8-318.8-459.4z"/>
		</g>
	</g>
	<g transform="matrix(0.620079,0,0,0.620079,275.315,425.788)">
	</g>
	<g transform="matrix(0.620079,0,0,0.620079,0,0)">
	</g>
	<g transform="matrix(0.620079,0,0,0.620079,0,0)">
		<line vector-effect="none" class="st3" x1="58.2" y1="232" x2="1219.5" y2="232"/>
	</g>
	<g transform="matrix(0.620079,0,0,0.620079,0,0)">
		<line vector-effect="none" class="st3" x1="58.2" y1="224" x2="1219.5" y2="224"/>
	</g>
	<g transform="matrix(0.620079,0,0,0.620079,0,0)">
		<line vector-effect="none" class="st3" x1="58.2" y1="216" x2="1219.5" y2="216"/>
	</g>
	<g transform="matrix(0.620079,0,0,0.620079,0,0)">
		<line vector-effect="none" class="st3" x1="58.2" y1="208" x2="1219.5" y2="208"/>
	</g>
	<g transform="matrix(0.620079,0,0,0.620079,0,0)">
		<line vector-effect="none" class="st3" x1="58.2" y1="200" x2="1219.5" y2="200"/>
	</g>
	<g transform="matrix(0.620079,0,0,0.620079,0,0)">
		<g class="st2">
			<path d="M81.2,208.9c0,4.2-1.7,8.1-4.4,11.1c-3.4,3.6-7.5,6.1-11.7,8.2c-0.2,0.1-0.4,0.2-0.5,0.2c-0.3,0-0.4-0.2-0.4-0.4
				c0-0.3,0.2-0.4,0.5-0.6c4-2.3,7.3-5,9.2-8c2-3.1,2.7-6.9,2.7-10.2c0-5-1.5-8.3-4.9-8.3c-3.3,0-5.2,2.3-5.2,3.6
				c0,0.3,0.1,0.6,0.5,0.6s0.7-0.2,1.6-0.2c1.6,0,3.1,1.3,3.1,3.3c0,2-1.4,3.4-3.4,3.4c-2.6,0-3.9-2.2-3.9-4.8
				c0-3.1,2.5-7.1,8.1-7.1C77.8,199.6,81.2,203.3,81.2,208.9z M86.1,204c0,1-0.8,1.8-1.8,1.8c-1,0-1.8-0.8-1.8-1.8
				c0-1,0.8-1.8,1.8-1.8C85.3,202.2,86.1,203,86.1,204z M86.1,212c0,1-0.7,1.7-1.7,1.7c-1,0-1.7-0.7-1.7-1.7s0.7-1.7,1.7-1.7
				C85.3,210.3,86.1,211,86.1,212z"/>
		</g>
	</g>
	<g transform="matrix(0.620079,0,0,0.620079,0,0)">
		<g class="st2">
			<path d="M92.2,210.9c0-0.6,0.5-0.9,1-0.9c0.3,0,0.6,0.2,0.6,0.5c0,0.6-0.2,8.3-0.2,9c0,0.2,0.1,0.4,0.4,0.5c0.1,0,0.1,0,0.2,0
				c0.3,0,0.5-0.3,0.7-0.4c0.4-0.2,0.7-0.4,1.1-0.4c0.2-0.1,0.4-0.1,0.7-0.1c1.5,0.1,2.9,1.2,2.9,3.1c0,1.5-1,3.4-3.8,5.4
				c-0.8,0.5-1.6,1.4-2.5,2c0,0-0.1,0.1-0.2,0.1s-0.2,0-0.3-0.2C92.3,229.1,92.2,210.9,92.2,210.9z M94.1,227.1c0.1,0,0.2,0,0.3-0.1
				c1-0.6,1.9-1.6,2.3-2.4c0.4-0.7,0.5-1.3,0.5-1.9c0-0.6-0.2-1.2-0.5-1.5c-0.2-0.2-0.5-0.4-0.8-0.4c-0.3,0-0.5,0.1-0.8,0.2
				c-0.4,0.3-1.3,1-1.4,1.3c0,0.1-0.1,0.5-0.1,1c0,1.3,0.1,3.2,0.1,3.2C93.7,226.8,93.8,227.1,94.1,227.1z"/>
		</g>
	</g>
	<g transform="matrix(0.620079,0,0,0.620079,0,0)">
		<path vector-effect="none" class="st4" d="M218.2,224h47v-4h-47V224"/>
	</g>
	<g transform="matrix(0.620079,0,0,0.620079,0,0)">
		<path vector-effect="none" class="st4" d="M288.7,224h47v-4h-47V224"/>
	</g>
	<g transform="matrix(0.620079,0,0,0.620079,0,0)">
		<path vector-effect="none" class="st4" d="M460.5,224h43v-4h-43V224"/>
	</g>
	<g transform="matrix(0.620079,0,0,0.620079,0,0)">
		<path vector-effect="none" class="st4" d="M524.7,224h43v-4h-43V224"/>
	</g>
	<g transform="matrix(0.620079,0,0,0.620079,0,0)">
		<path vector-effect="none" class="st4" d="M692.5,224h43v-4h-43V224"/>
	</g>
	<g transform="matrix(0.620079,0,0,0.620079,0,0)">
		<path vector-effect="none" class="st4" d="M756.7,224h43v-4h-43V224"/>
	</g>
	<g transform="matrix(0.620079,0,0,0.620079,0,0)">
		<path vector-effect="none" class="st4" d="M924.5,224h43v-4h-43V224"/>
	</g>
	<g transform="matrix(0.620079,0,0,0.620079,0,0)">
		<path vector-effect="none" class="st4" d="M988.7,224h43v-4h-43V224"/>
	</g>
	<g transform="matrix(0.620079,0,0,0.620079,579.774,573.473)">
	</g>
	<g transform="matrix(0.620079,0,0,0.620079,579.774,573.473)">
		<g class="st2">
			<path d="M-700.7-678.9c0-1,0.6-1.7,1.4-1.7c0.6,0,1.1,0.4,1.1,1.1c0,0.8-0.4,1.1-0.7,1.3c-0.2,0.1-0.4,0.2-0.4,0.3
				c0,0.3,0.5,0.5,1.1,0.5c1.8,0,2.7-1.8,2.7-3.1c0-0.9-0.5-1.6-1.6-1.6h-0.3c-0.4,0-0.6-0.2-0.6-0.4c0-0.3,0.2-0.4,0.6-0.4h0.3
				c1.7,0,2.7-1.1,2.7-2.6c0-0.6-0.4-1.3-1.5-1.3c-0.6,0-1,0.2-1,0.4c0,0.1,0.1,0.2,0.4,0.4c0.1,0.2,0.3,0.4,0.3,0.7
				c0,0.8-0.6,1.4-1.3,1.4c-0.7,0-1.1-0.5-1.1-1.3c0.1-1.6,1.6-2.5,3.4-2.5c1.8,0,3.2,0.9,3.2,2.5c0,1.2-1,2.1-2.2,2.6
				c-0.2,0.1-0.4,0.2-0.4,0.3c0,0.1,0.1,0.2,0.3,0.3c0.8,0.4,1.1,1.1,1.1,1.8c0,2.3-2,3.8-4.5,3.8
				C-699.8-676.7-700.7-677.7-700.7-678.9z"/>
		</g>
	</g>
	<g transform="matrix(0.620079,0,0,0.620079,579.774,573.473)">
	</g>
	<g transform="matrix(0.620079,0,0,0.620079,0,0)">
	</g>
	<g transform="matrix(0.620079,0,0,0.620079,754.636,573.473)">
	</g>
	<g transform="matrix(0.620079,0,0,0.620079,754.636,573.473)">
		<g class="st2">
			<path d="M-912.2-678.9c0-1,0.6-1.7,1.4-1.7c0.6,0,1.1,0.4,1.1,1.1c0,0.8-0.4,1.1-0.7,1.3c-0.2,0.1-0.4,0.2-0.4,0.3
				c0,0.3,0.5,0.5,1.1,0.5c1.8,0,2.7-1.8,2.7-3.1c0-0.9-0.5-1.6-1.6-1.6h-0.3c-0.4,0-0.6-0.2-0.6-0.4c0-0.3,0.2-0.4,0.6-0.4h0.3
				c1.7,0,2.7-1.1,2.7-2.6c0-0.6-0.4-1.3-1.5-1.3c-0.6,0-1,0.2-1,0.4c0,0.1,0.1,0.2,0.4,0.4c0.1,0.2,0.3,0.4,0.3,0.7
				c0,0.8-0.6,1.4-1.3,1.4c-0.7,0-1.1-0.5-1.1-1.3c0.1-1.6,1.6-2.5,3.4-2.5c1.8,0,3.2,0.9,3.2,2.5c0,1.2-1,2.1-2.2,2.6
				c-0.2,0.1-0.4,0.2-0.4,0.3c0,0.1,0.1,0.2,0.3,0.3c0.8,0.4,1.1,1.1,1.1,1.8c0,2.3-2,3.8-4.5,3.8
				C-911.3-676.7-912.2-677.7-912.2-678.9z"/>
		</g>
	</g>
	<g transform="matrix(0.620079,0,0,0.620079,754.636,573.473)">
	</g>
	<g transform="matrix(0.620079,0,0,0.620079,0,0)">
	</g>
	<g transform="matrix(0.620079,0,0,0.620079,1175.67,573.473)">
	</g>
	<g transform="matrix(0.620079,0,0,0.620079,1175.67,573.473)">
		<g class="st2">
			<path d="M-1421.5-678.9c0-1,0.6-1.7,1.4-1.7c0.6,0,1.1,0.4,1.1,1.1c0,0.8-0.4,1.1-0.7,1.3c-0.2,0.1-0.4,0.2-0.4,0.3
				c0,0.3,0.5,0.5,1.1,0.5c1.8,0,2.7-1.8,2.7-3.1c0-0.9-0.5-1.6-1.6-1.6h-0.3c-0.4,0-0.6-0.2-0.6-0.4c0-0.3,0.2-0.4,0.6-0.4h0.3
				c1.7,0,2.7-1.1,2.7-2.6c0-0.6-0.4-1.3-1.5-1.3c-0.6,0-1,0.2-1,0.4c0,0.1,0.1,0.2,0.4,0.4c0.1,0.2,0.3,0.4,0.3,0.7
				c0,0.8-0.6,1.4-1.3,1.4c-0.7,0-1.1-0.5-1.1-1.3c0.1-1.6,1.6-2.5,3.4-2.5c1.8,0,3.2,0.9,3.2,2.5c0,1.2-1,2.1-2.2,2.6
				c-0.2,0.1-0.4,0.2-0.4,0.3c0,0.1,0.1,0.2,0.3,0.3c0.8,0.4,1.1,1.1,1.1,1.8c0,2.3-2,3.8-4.5,3.8
				C-1420.5-676.7-1421.5-677.7-1421.5-678.9z"/>
		</g>
	</g>
	<g transform="matrix(0.620079,0,0,0.620079,1175.67,573.473)">
	</g>
	<g transform="matrix(0.620079,0,0,0.620079,0,0)">
	</g>
	<g transform="matrix(0.620079,0,0,0.620079,1335.03,573.473)">
	</g>
	<g transform="matrix(0.620079,0,0,0.620079,1335.03,573.473)">
		<g class="st2">
			<path d="M-1614.2-678.9c0-1,0.6-1.7,1.4-1.7c0.6,0,1.1,0.4,1.1,1.1c0,0.8-0.4,1.1-0.7,1.3c-0.2,0.1-0.4,0.2-0.4,0.3
				c0,0.3,0.5,0.5,1.1,0.5c1.8,0,2.7-1.8,2.7-3.1c0-0.9-0.5-1.6-1.6-1.6h-0.3c-0.4,0-0.6-0.2-0.6-0.4c0-0.3,0.2-0.4,0.6-0.4h0.3
				c1.7,0,2.7-1.1,2.7-2.6c0-0.6-0.4-1.3-1.5-1.3c-0.6,0-1,0.2-1,0.4c0,0.1,0.1,0.2,0.4,0.4c0.1,0.2,0.3,0.4,0.3,0.7
				c0,0.8-0.6,1.4-1.3,1.4c-0.7,0-1.1-0.5-1.1-1.3c0.1-1.6,1.6-2.5,3.4-2.5c1.8,0,3.2,0.9,3.2,2.5c0,1.2-1,2.1-2.2,2.6
				c-0.2,0.1-0.4,0.2-0.4,0.3c0,0.1,0.1,0.2,0.3,0.3c0.8,0.4,1.1,1.1,1.1,1.8c0,2.3-2,3.8-4.5,3.8
				C-1613.3-676.7-1614.2-677.7-1614.2-678.9z"/>
		</g>
	</g>
	<g transform="matrix(0.620079,0,0,0.620079,1335.03,573.473)">
	</g>
	<g transform="matrix(0.620079,0,0,0.620079,0,0)">
	</g>
	<g transform="matrix(0.620079,0,0,0.620079,1751.1,573.473)">
	</g>
	<g transform="matrix(0.620079,0,0,0.620079,1751.1,573.473)">
		<g class="st2">
			<path d="M-2117.5-678.9c0-1,0.6-1.7,1.4-1.7c0.6,0,1.1,0.4,1.1,1.1c0,0.8-0.4,1.1-0.7,1.3c-0.2,0.1-0.4,0.2-0.4,0.3
				c0,0.3,0.5,0.5,1.1,0.5c1.8,0,2.7-1.8,2.7-3.1c0-0.9-0.5-1.6-1.6-1.6h-0.3c-0.4,0-0.6-0.2-0.6-0.4c0-0.3,0.2-0.4,0.6-0.4h0.3
				c1.7,0,2.7-1.1,2.7-2.6c0-0.6-0.4-1.3-1.5-1.3c-0.6,0-1,0.2-1,0.4c0,0.1,0.1,0.2,0.4,0.4c0.1,0.2,0.3,0.4,0.3,0.7
				c0,0.8-0.6,1.4-1.3,1.4c-0.7,0-1.1-0.5-1.1-1.3c0.1-1.6,1.6-2.5,3.4-2.5c1.8,0,3.2,0.9,3.2,2.5c0,1.2-1,2.1-2.2,2.6
				c-0.2,0.1-0.4,0.2-0.4,0.3c0,0.1,0.1,0.2,0.3,0.3c0.8,0.4,1.1,1.1,1.1,1.8c0,2.3-2,3.8-4.5,3.8
				C-2116.5-676.7-2117.5-677.7-2117.5-678.9z"/>
		</g>
	</g>
	<g transform="matrix(0.620079,0,0,0.620079,1751.1,573.473)">
	</g>
	<g transform="matrix(0.620079,0,0,0.620079,0,0)">
	</g>
	<g transform="matrix(0.620079,0,0,0.620079,1910.46,573.473)">
	</g>
	<g transform="matrix(0.620079,0,0,0.620079,1910.46,573.473)">
		<g class="st2">
			<path d="M-2310.2-678.9c0-1,0.6-1.7,1.4-1.7c0.6,0,1.1,0.4,1.1,1.1c0,0.8-0.4,1.1-0.7,1.3c-0.2,0.1-0.4,0.2-0.4,0.3
				c0,0.3,0.5,0.5,1.1,0.5c1.8,0,2.7-1.8,2.7-3.1c0-0.9-0.5-1.6-1.6-1.6h-0.3c-0.4,0-0.6-0.2-0.6-0.4c0-0.3,0.2-0.4,0.6-0.4h0.3
				c1.7,0,2.7-1.1,2.7-2.6c0-0.6-0.4-1.3-1.5-1.3c-0.6,0-1,0.2-1,0.4c0,0.1,0.1,0.2,0.4,0.4c0.1,0.2,0.3,0.4,0.3,0.7
				c0,0.8-0.6,1.4-1.3,1.4c-0.7,0-1.1-0.5-1.1-1.3c0.1-1.6,1.6-2.5,3.4-2.5c1.8,0,3.2,0.9,3.2,2.5c0,1.2-1,2.1-2.2,2.6
				c-0.2,0.1-0.4,0.2-0.4,0.3c0,0.1,0.1,0.2,0.3,0.3c0.8,0.4,1.1,1.1,1.1,1.8c0,2.3-2,3.8-4.5,3.8
				C-2309.3-676.7-2310.2-677.7-2310.2-678.9z"/>
		</g>
	</g>
	<g transform="matrix(0.620079,0,0,0.620079,1910.46,573.473)">
	</g>
	<g transform="matrix(0.620079,0,0,0.620079,0,0)">
	</g>
	<g transform="matrix(0.620079,0,0,0.620079,2326.54,573.473)">
	</g>
	<g transform="matrix(0.620079,0,0,0.620079,2326.54,573.473)">
		<g class="st2">
			<path d="M-2813.5-678.9c0-1,0.6-1.7,1.4-1.7c0.6,0,1.1,0.4,1.1,1.1c0,0.8-0.4,1.1-0.7,1.3c-0.2,0.1-0.4,0.2-0.4,0.3
				c0,0.3,0.5,0.5,1.1,0.5c1.8,0,2.7-1.8,2.7-3.1c0-0.9-0.5-1.6-1.6-1.6h-0.3c-0.4,0-0.6-0.2-0.6-0.4c0-0.3,0.2-0.4,0.6-0.4h0.3
				c1.7,0,2.7-1.1,2.7-2.6c0-0.6-0.4-1.3-1.5-1.3c-0.6,0-1,0.2-1,0.4c0,0.1,0.1,0.2,0.4,0.4c0.1,0.2,0.3,0.4,0.3,0.7
				c0,0.8-0.6,1.4-1.3,1.4c-0.7,0-1.1-0.5-1.1-1.3c0.1-1.6,1.6-2.5,3.4-2.5c1.8,0,3.2,0.9,3.2,2.5c0,1.2-1,2.1-2.2,2.6
				c-0.2,0.1-0.4,0.2-0.4,0.3c0,0.1,0.1,0.2,0.3,0.3c0.8,0.4,1.1,1.1,1.1,1.8c0,2.3-2,3.8-4.5,3.8
				C-2812.6-676.7-2813.5-677.7-2813.5-678.9z"/>
		</g>
	</g>
	<g transform="matrix(0.620079,0,0,0.620079,2326.54,573.473)">
	</g>
	<g transform="matrix(0.620079,0,0,0.620079,0,0)">
	</g>
	<g transform="matrix(0.620079,0,0,0.620079,2485.9,573.473)">
	</g>
	<g transform="matrix(0.620079,0,0,0.620079,2485.9,573.473)">
		<g class="st2">
			<path d="M-3006.2-678.9c0-1,0.6-1.7,1.4-1.7c0.6,0,1.1,0.4,1.1,1.1c0,0.8-0.4,1.1-0.7,1.3c-0.2,0.1-0.4,0.2-0.4,0.3
				c0,0.3,0.5,0.5,1.1,0.5c1.8,0,2.7-1.8,2.7-3.1c0-0.9-0.5-1.6-1.6-1.6h-0.3c-0.4,0-0.6-0.2-0.6-0.4c0-0.3,0.2-0.4,0.6-0.4h0.3
				c1.7,0,2.7-1.1,2.7-2.6c0-0.6-0.4-1.3-1.5-1.3c-0.6,0-1,0.2-1,0.4c0,0.1,0.1,0.2,0.4,0.4c0.1,0.2,0.3,0.4,0.3,0.7
				c0,0.8-0.6,1.4-1.3,1.4c-0.7,0-1.1-0.5-1.1-1.3c0.1-1.6,1.6-2.5,3.4-2.5c1.8,0,3.2,0.9,3.2,2.5c0,1.2-1,2.1-2.2,2.6
				c-0.2,0.1-0.4,0.2-0.4,0.3c0,0.1,0.1,0.2,0.3,0.3c0.8,0.4,1.1,1.1,1.1,1.8c0,2.3-2,3.8-4.5,3.8
				C-3005.3-676.7-3006.2-677.7-3006.2-678.9z"/>
		</g>
	</g>
	<g transform="matrix(0.620079,0,0,0.620079,2485.9,573.473)">
	</g>
	<g transform="matrix(0.620079,0,0,0.620079,0,0)">
	</g>
	<g transform="matrix(0.620079,0,0,0.620079,0,0)">
		<line vector-effect="none" class="st3" x1="156.5" y1="197.2" x2="156.5" y2="224"/>
	</g>
	<g transform="matrix(0.620079,0,0,0.620079,0,0)">
		<g class="st2">
			<path d="M156,197.6c0-1.9,1.7-6.2,7.3-6.2c2.1,0,3.6,1.2,3.6,3.1c0,1.2-1.2,6.2-7.3,6.2C157.5,200.6,156,199.5,156,197.6z
				 M165.7,194.4c0-0.3-0.1-0.5-0.2-0.7c-0.3-0.4-0.6-0.8-1.3-0.8c-0.8,0-1.9,0.4-3.7,1.4c-2.6,1.5-3.4,2.5-3.4,3.3
				c0,0.3,0.1,0.5,0.2,0.7c0.3,0.4,0.7,0.8,1.5,0.8c0.8,0,2-0.4,3.6-1.5C164.9,196,165.7,195.1,165.7,194.4z"/>
		</g>
	</g>
	<g transform="matrix(0.620079,0,0,0.620079,0,0)">
		<line vector-effect="none" class="st3" x1="218.2" y1="197.2" x2="218.2" y2="223.8"/>
	</g>
	<g transform="matrix(0.620079,0,0,0.620079,0,0)">
		<g class="st2">
			<path d="M217.7,197.5c0-3.1,3.2-6,7.1-6c2.1,0,3.5,1.2,3.5,3c0,3-3.9,6-7.1,6C219.2,200.5,217.7,199.4,217.7,197.5z"/>
		</g>
	</g>
	<g transform="matrix(0.620079,0,0,0.620079,0,0)">
		<line vector-effect="none" class="st3" x1="241.7" y1="197.2" x2="241.7" y2="223.8"/>
	</g>
	<g transform="matrix(0.620079,0,0,0.620079,0,0)">
		<g class="st2">
			<path d="M241.2,197.5c0-3.1,3.2-6,7.1-6c2.1,0,3.5,1.2,3.5,3c0,3-3.9,6-7.1,6C242.7,200.5,241.2,199.4,241.2,197.5z"/>
		</g>
	</g>
	<g transform="matrix(0.620079,0,0,0.620079,0,0)">
		<line vector-effect="none" class="st3" x1="265.2" y1="197.2" x2="265.2" y2="223.8"/>
	</g>
	<g transform="matrix(0.620079,0,0,0.620079,0,0)">
		<g class="st2">
			<path d="M264.7,197.5c0-3.1,3.2-6,7.1-6c2.1,0,3.5,1.2,3.5,3c0,3-3.9,6-7.1,6C266.2,200.5,264.7,199.4,264.7,197.5z"/>
		</g>
	</g>
	<g transform="matrix(0.620079,0,0,0.620079,0,0)">
		<line vector-effect="none" class="st3" x1="288.7" y1="197.2" x2="288.7" y2="223.8"/>
	</g>
	<g transform="matrix(0.620079,0,0,0.620079,0,0)">
		<g class="st2">
			<path d="M288.2,197.5c0-3.1,3.2-6,7.1-6c2.1,0,3.5,1.2,3.5,3c0,3-3.9,6-7.1,6C289.7,200.5,288.2,199.4,288.2,197.5z"/>
		</g>
	</g>
	<g transform="matrix(0.620079,0,0,0.620079,0,0)">
		<line vector-effect="none" class="st3" x1="312.2" y1="197.2" x2="312.2" y2="223.8"/>
	</g>
	<g transform="matrix(0.620079,0,0,0.620079,0,0)">
		<g class="st2">
			<path d="M311.7,197.5c0-3.1,3.2-6,7.1-6c2.1,0,3.5,1.2,3.5,3c0,3-3.9,6-7.1,6C313.2,200.5,311.7,199.4,311.7,197.5z"/>
		</g>
	</g>
	<g transform="matrix(0.620079,0,0,0.620079,0,0)">
		<line vector-effect="none" class="st3" x1="335.7" y1="197.2" x2="335.7" y2="223.8"/>
	</g>
	<g transform="matrix(0.620079,0,0,0.620079,0,0)">
		<g class="st2">
			<path d="M335.2,197.5c0-3.1,3.2-6,7.1-6c2.1,0,3.5,1.2,3.5,3c0,3-3.9,6-7.1,6C336.7,200.5,335.2,199.4,335.2,197.5z"/>
		</g>
	</g>
	<g transform="matrix(0.620079,0,0,0.620079,0,0)">
		<line vector-effect="none" class="st3" x1="398.7" y1="197.2" x2="398.7" y2="224"/>
	</g>
	<g transform="matrix(0.620079,0,0,0.620079,0,0)">
		<g class="st2">
			<path d="M398.2,197.6c0-1.9,1.7-6.2,7.3-6.2c2.1,0,3.6,1.2,3.6,3.1c0,1.2-1.2,6.2-7.3,6.2C399.8,200.6,398.2,199.5,398.2,197.6z
				 M408,194.4c0-0.3-0.1-0.5-0.2-0.7c-0.3-0.4-0.6-0.8-1.3-0.8c-0.8,0-1.9,0.4-3.7,1.4c-2.6,1.5-3.4,2.5-3.4,3.3
				c0,0.3,0.1,0.5,0.2,0.7c0.3,0.4,0.7,0.8,1.5,0.8c0.8,0,2-0.4,3.6-1.5C407.2,196,408,195.1,408,194.4z"/>
		</g>
	</g>
	<g transform="matrix(0.620079,0,0,0.620079,0,0)">
		<line vector-effect="none" class="st3" x1="460.5" y1="197.2" x2="460.5" y2="223.8"/>
	</g>
	<g transform="matrix(0.620079,0,0,0.620079,0,0)">
		<g class="st2">
			<path d="M460,197.5c0-3.1,3.2-6,7.1-6c2.1,0,3.5,1.2,3.5,3c0,3-3.9,6-7.1,6C461.5,200.5,460,199.4,460,197.5z"/>
		</g>
	</g>
	<g transform="matrix(0.620079,0,0,0.620079,0,0)">
		<line vector-effect="none" class="st3" x1="482" y1="197.2" x2="482" y2="223.8"/>
	</g>
	<g transform="matrix(0.620079,0,0,0.620079,0,0)">
		<g class="st2">
			<path d="M481.5,197.5c0-3.1,3.2-6,7.1-6c2.1,0,3.5,1.2,3.5,3c0,3-3.9,6-7.1,6C483,200.5,481.5,199.4,481.5,197.5z"/>
		</g>
	</g>
	<g transform="matrix(0.620079,0,0,0.620079,0,0)">
		<line vector-effect="none" class="st3" x1="503.5" y1="197.2" x2="503.5" y2="223.8"/>
	</g>
	<g transform="matrix(0.620079,0,0,0.620079,0,0)">
		<g class="st2">
			<path d="M503,197.5c0-3.1,3.2-6,7.1-6c2.1,0,3.5,1.2,3.5,3c0,3-3.9,6-7.1,6C504.5,200.5,503,199.4,503,197.5z"/>
		</g>
	</g>
	<g transform="matrix(0.620079,0,0,0.620079,0,0)">
		<line vector-effect="none" class="st3" x1="524.7" y1="197.2" x2="524.7" y2="223.8"/>
	</g>
	<g transform="matrix(0.620079,0,0,0.620079,0,0)">
		<g class="st2">
			<path d="M524.2,197.5c0-3.1,3.2-6,7.1-6c2.1,0,3.5,1.2,3.5,3c0,3-3.9,6-7.1,6C525.7,200.5,524.2,199.4,524.2,197.5z"/>
		</g>
	</g>
	<g transform="matrix(0.620079,0,0,0.620079,0,0)">
		<line vector-effect="none" class="st3" x1="546.2" y1="197.2" x2="546.2" y2="223.8"/>
	</g>
	<g transform="matrix(0.620079,0,0,0.620079,0,0)">
		<g class="st2">
			<path d="M545.7,197.5c0-3.1,3.2-6,7.1-6c2.1,0,3.5,1.2,3.5,3c0,3-3.9,6-7.1,6C547.2,200.5,545.7,199.4,545.7,197.5z"/>
		</g>
	</g>
	<g transform="matrix(0.620079,0,0,0.620079,0,0)">
		<line vector-effect="none" class="st3" x1="567.7" y1="197.2" x2="567.7" y2="223.8"/>
	</g>
	<g transform="matrix(0.620079,0,0,0.620079,0,0)">
		<g class="st2">
			<path d="M567.2,197.5c0-3.1,3.2-6,7.1-6c2.1,0,3.5,1.2,3.5,3c0,3-3.9,6-7.1,6C568.7,200.5,567.2,199.4,567.2,197.5z"/>
		</g>
	</g>
	<g transform="matrix(0.620079,0,0,0.620079,0,0)">
		<line vector-effect="none" class="st3" x1="630.7" y1="197.2" x2="630.7" y2="224"/>
	</g>
	<g transform="matrix(0.620079,0,0,0.620079,0,0)">
		<g class="st2">
			<path d="M630.2,197.6c0-1.9,1.7-6.2,7.3-6.2c2.1,0,3.6,1.2,3.6,3.1c0,1.2-1.2,6.2-7.3,6.2C631.8,200.6,630.2,199.5,630.2,197.6z
				 M640,194.4c0-0.3-0.1-0.5-0.2-0.7c-0.3-0.4-0.6-0.8-1.3-0.8c-0.8,0-1.9,0.4-3.7,1.4c-2.6,1.5-3.4,2.5-3.4,3.3
				c0,0.3,0.1,0.5,0.2,0.7c0.3,0.4,0.7,0.8,1.5,0.8c0.8,0,2-0.4,3.6-1.5C639.2,196,640,195.1,640,194.4z"/>
		</g>
	</g>
	<g transform="matrix(0.620079,0,0,0.620079,0,0)">
		<line vector-effect="none" class="st3" x1="692.5" y1="197.2" x2="692.5" y2="223.8"/>
	</g>
	<g transform="matrix(0.620079,0,0,0.620079,0,0)">
		<g class="st2">
			<path d="M692,197.5c0-3.1,3.2-6,7.1-6c2.1,0,3.5,1.2,3.5,3c0,3-3.9,6-7.1,6C693.5,200.5,692,199.4,692,197.5z"/>
		</g>
	</g>
	<g transform="matrix(0.620079,0,0,0.620079,0,0)">
		<line vector-effect="none" class="st3" x1="714" y1="197.2" x2="714" y2="223.8"/>
	</g>
	<g transform="matrix(0.620079,0,0,0.620079,0,0)">
		<g class="st2">
			<path d="M713.5,197.5c0-3.1,3.2-6,7.1-6c2.1,0,3.5,1.2,3.5,3c0,3-3.9,6-7.1,6C715,200.5,713.5,199.4,713.5,197.5z"/>
		</g>
	</g>
	<g transform="matrix(0.620079,0,0,0.620079,0,0)">
		<line vector-effect="none" class="st3" x1="735.5" y1="197.2" x2="735.5" y2="223.8"/>
	</g>
	<g transform="matrix(0.620079,0,0,0.620079,0,0)">
		<g class="st2">
			<path d="M735,197.5c0-3.1,3.2-6,7.1-6c2.1,0,3.5,1.2,3.5,3c0,3-3.9,6-7.1,6C736.5,200.5,735,199.4,735,197.5z"/>
		</g>
	</g>
	<g transform="matrix(0.620079,0,0,0.620079,0,0)">
		<line vector-effect="none" class="st3" x1="756.7" y1="197.2" x2="756.7" y2="223.8"/>
	</g>
	<g transform="matrix(0.620079,0,0,0.620079,0,0)">
		<g class="st2">
			<path d="M756.2,197.5c0-3.1,3.2-6,7.1-6c2.1,0,3.5,1.2,3.5,3c0,3-3.9,6-7.1,6C757.7,200.5,756.2,199.4,756.2,197.5z"/>
		</g>
	</g>
	<g transform="matrix(0.620079,0,0,0.620079,0,0)">
		<line vector-effect="none" class="st3" x1="778.2" y1="197.2" x2="778.2" y2="223.8"/>
	</g>
	<g transform="matrix(0.620079,0,0,0.620079,0,0)">
		<g class="st2">
			<path d="M777.7,197.5c0-3.1,3.2-6,7.1-6c2.1,0,3.5,1.2,3.5,3c0,3-3.9,6-7.1,6C779.2,200.5,777.7,199.4,777.7,197.5z"/>
		</g>
	</g>
	<g transform="matrix(0.620079,0,0,0.620079,0,0)">
		<line vector-effect="none" class="st3" x1="799.7" y1="197.2" x2="799.7" y2="223.8"/>
	</g>
	<g transform="matrix(0.620079,0,0,0.620079,0,0)">
		<g class="st2">
			<path d="M799.2,197.5c0-3.1,3.2-6,7.1-6c2.1,0,3.5,1.2,3.5,3c0,3-3.9,6-7.1,6C800.7,200.5,799.2,199.4,799.2,197.5z"/>
		</g>
	</g>
	<g transform="matrix(0.620079,0,0,0.620079,0,0)">
		<line vector-effect="none" class="st3" x1="862.7" y1="197.2" x2="862.7" y2="224"/>
	</g>
	<g transform="matrix(0.620079,0,0,0.620079,0,0)">
		<g class="st2">
			<path d="M862.2,197.6c0-1.9,1.7-6.2,7.3-6.2c2.1,0,3.6,1.2,3.6,3.1c0,1.2-1.2,6.2-7.3,6.2C863.8,200.6,862.2,199.5,862.2,197.6z
				 M872,194.4c0-0.3-0.1-0.5-0.2-0.7c-0.3-0.4-0.6-0.8-1.3-0.8c-0.8,0-1.9,0.4-3.7,1.4c-2.6,1.5-3.4,2.5-3.4,3.3
				c0,0.3,0.1,0.5,0.2,0.7c0.3,0.4,0.7,0.8,1.5,0.8c0.8,0,2-0.4,3.6-1.5C871.2,196,872,195.1,872,194.4z"/>
		</g>
	</g>
	<g transform="matrix(0.620079,0,0,0.620079,0,0)">
		<line vector-effect="none" class="st3" x1="924.5" y1="197.2" x2="924.5" y2="223.8"/>
	</g>
	<g transform="matrix(0.620079,0,0,0.620079,0,0)">
		<g class="st2">
			<path d="M924,197.5c0-3.1,3.2-6,7.1-6c2.1,0,3.5,1.2,3.5,3c0,3-3.9,6-7.1,6C925.5,200.5,924,199.4,924,197.5z"/>
		</g>
	</g>
	<g transform="matrix(0.620079,0,0,0.620079,0,0)">
		<line vector-effect="none" class="st3" x1="946" y1="197.2" x2="946" y2="223.8"/>
	</g>
	<g transform="matrix(0.620079,0,0,0.620079,0,0)">
		<g class="st2">
			<path d="M945.5,197.5c0-3.1,3.2-6,7.1-6c2.1,0,3.5,1.2,3.5,3c0,3-3.9,6-7.1,6C947,200.5,945.5,199.4,945.5,197.5z"/>
		</g>
	</g>
	<g transform="matrix(0.620079,0,0,0.620079,0,0)">
		<line vector-effect="none" class="st3" x1="967.5" y1="197.2" x2="967.5" y2="223.8"/>
	</g>
	<g transform="matrix(0.620079,0,0,0.620079,0,0)">
		<g class="st2">
			<path d="M967,197.5c0-3.1,3.2-6,7.1-6c2.1,0,3.5,1.2,3.5,3c0,3-3.9,6-7.1,6C968.5,200.5,967,199.4,967,197.5z"/>
		</g>
	</g>
	<g transform="matrix(0.620079,0,0,0.620079,0,0)">
		<line vector-effect="none" class="st3" x1="988.7" y1="197.2" x2="988.7" y2="223.8"/>
	</g>
	<g transform="matrix(0.620079,0,0,0.620079,0,0)">
		<g class="st2">
			<path d="M988.2,197.5c0-3.1,3.2-6,7.1-6c2.1,0,3.5,1.2,3.5,3c0,3-3.9,6-7.1,6C989.7,200.5,988.2,199.4,988.2,197.5z"/>
		</g>
	</g>
	<g transform="matrix(0.620079,0,0,0.620079,0,0)">
		<line vector-effect="none" class="st3" x1="1010.2" y1="197.2" x2="1010.2" y2="223.8"/>
	</g>
	<g transform="matrix(0.620079,0,0,0.620079,0,0)">
		<g class="st2">
			<path d="M1009.7,197.5c0-3.1,3.2-6,7.1-6c2.1,0,3.5,1.2,3.5,3c0,3-3.9,6-7.1,6C1011.2,200.5,1009.7,199.4,1009.7,197.5z"/>
		</g>
	</g>
	<g transform="matrix(0.620079,0,0,0.620079,0,0)">
		<line vector-effect="none" class="st3" x1="1031.7" y1="197.2" x2="1031.7" y2="223.8"/>
	</g>
	<g transform="matrix(0.620079,0,0,0.620079,0,0)">
		<g class="st2">
			<path d="M1031.2,197.5c0-3.1,3.2-6,7.1-6c2.1,0,3.5,1.2,3.5,3c0,3-3.9,6-7.1,6C1032.7,200.5,1031.2,199.4,1031.2,197.5z"/>
		</g>
	</g>
	<g transform="matrix(0.620079,0,0,0.620079,0,0)">
		<line vector-effect="none" class="st3" x1="1084" y1="197.2" x2="1084" y2="224"/>
	</g>
	<g transform="matrix(0.620079,0,0,0.620079,0,0)">
		<g class="st2">
			<path d="M1083.5,197.6c0-1.9,1.7-6.2,7.3-6.2c2.1,0,3.6,1.2,3.6,3.1c0,1.2-1.2,6.2-7.3,6.2C1085,200.6,1083.5,199.5,1083.5,197.6
				z M1093.2,194.4c0-0.3-0.1-0.5-0.2-0.7c-0.3-0.4-0.6-0.8-1.3-0.8c-0.8,0-1.9,0.4-3.7,1.4c-2.6,1.5-3.4,2.5-3.4,3.3
				c0,0.3,0.1,0.5,0.2,0.7c0.3,0.4,0.7,0.8,1.5,0.8c0.8,0,2-0.4,3.6-1.5C1092.4,196,1093.2,195.1,1093.2,194.4z"/>
		</g>
	</g>
	<g transform="matrix(0.620079,0,0,0.620079,0,0)">
		<g class="st2">
			<path d="M1153.4,216.3h-7.4c-0.5,0-0.8-0.4-0.8-0.8v-2.9c0-0.5,0.4-0.8,0.8-0.8h7.4c0.4,0,0.8,0.4,0.8,0.8v2.9
				C1154.2,215.9,1153.8,216.3,1153.4,216.3z"/>
		</g>
	</g>
</g>
</svg>
