<?xml version="1.0" encoding="utf-8"?>
<!-- Generator: Adobe Illustrator 26.3.1, SVG Export Plug-In . SVG Version: 6.00 Build 0)  -->
<svg version="1.1" id="Layer_1" xmlns="http://www.w3.org/2000/svg" xmlns:xlink="http://www.w3.org/1999/xlink" x="0px" y="0px"
	 viewBox="0 0 720 432" style="enable-background:new 0 0 720 432;" xml:space="preserve">
<style type="text/css">
	.st0{fill:none;stroke:#000000;stroke-width:0.9281;stroke-linejoin:bevel;stroke-miterlimit:10;}
	.st1{enable-background:new    ;}
	.st2{fill:none;stroke:#000000;stroke-width:2.97;stroke-linejoin:bevel;stroke-miterlimit:10;}
	.st3{fill:none;stroke:#000000;stroke-width:0.5569;stroke-linejoin:bevel;stroke-miterlimit:10;}
</style>
<g>
	<g transform="matrix(0.7425,0,0,0.7425,0,0)">
		<line vector-effect="none" class="st0" x1="180" y1="72.4" x2="180" y2="104.4"/>
	</g>
	<g transform="matrix(0.7425,0,0,0.7425,0,0)">
		<line vector-effect="none" class="st0" x1="311.5" y1="72.4" x2="311.5" y2="104.4"/>
	</g>
	<g transform="matrix(0.7425,0,0,0.7425,0,0)">
		<line vector-effect="none" class="st0" x1="443" y1="72.4" x2="443" y2="104.4"/>
	</g>
	<g transform="matrix(0.7425,0,0,0.7425,0,0)">
		<line vector-effect="none" class="st0" x1="574.8" y1="72.4" x2="574.8" y2="104.4"/>
	</g>
	<g transform="matrix(0.7425,0,0,0.7425,0,0)">
		<line vector-effect="none" class="st0" x1="706.2" y1="72.4" x2="706.2" y2="104.4"/>
	</g>
	<g transform="matrix(0.7425,0,0,0.7425,0,0)">
		<line vector-effect="none" class="st0" x1="837.8" y1="72.4" x2="837.8" y2="104.4"/>
	</g>
	<g transform="matrix(0.7425,0,0,0.7425,0,0)">
		<line vector-effect="none" class="st0" x1="969.2" y1="72.4" x2="969.2" y2="104.4"/>
	</g>
	<g transform="matrix(0.7425,0,0,0.7425,0,0)">
	</g>
	<g transform="matrix(0.7425,0,0,0.7425,153.697,102.19)">
	</g>
	<g transform="matrix(0.7425,0,0,0.7425,153.697,102.19)">
		<g class="st1">
			<path d="M-150-85.2h-5v-0.4c1.5,0,1.6-0.3,1.6-1.7v-7.5c0-1.4-0.1-1.7-1.6-1.7V-97h5.6c0.8,0,1.7,0.2,2.6,0.5
				c2.5,0.9,3.7,2.7,3.7,5.4C-143-87.4-145.7-85.2-150-85.2z M-150.1-96.3c-1.4,0-1.4,0.2-1.4,1.6v7.1c0,1.4,0,1.6,1.5,1.6
				c3.3,0,5.1-1.8,5.1-5C-145-94.3-146.8-96.3-150.1-96.3z"/>
			<path d="M-133.9-85.2v-0.3c0.7,0,1-0.2,1-1.2v-3.7c0-0.9-0.4-1.3-1.2-1.3c-0.6,0-1.3,0.3-1.8,1c0.1,0.1,0.1,0.5,0.1,1.1v1.6
				c0,0.8,0,1.2,0,1.2c0,1.1,0.2,1.3,1,1.3v0.3h-3.4v-0.3c0.7,0,1-0.2,1-1.2v-3.7c0-0.9-0.4-1.3-1.1-1.3c-0.6,0-1.2,0.3-1.8,1v4.1
				c0,0.9,0.3,1.1,1,1.1v0.3h-3.4v-0.3c0.9,0,1-0.3,1-1.3v-4c0-0.4-0.1-0.6-0.3-0.6h-0.8v-0.3l2.4-0.8v1.3c0.7-0.9,1.5-1.3,2.5-1.3
				c0.9,0,1.4,0.4,1.6,1.3c0.8-0.9,1.7-1.3,2.7-1.3c0.5,0,0.9,0.1,1.2,0.4c0.3,0.3,0.6,1.3,0.6,1.8v3.6c0,1.1,0.2,1.3,1,1.3v0.3
				H-133.9z"/>
			<path d="M-127.6-89.8h-0.7l2.4-7.4h-2.5c-0.7,0-1.2,0.4-1.5,1.1l-0.2-0.1l0.7-2h4.6L-127.6-89.8z"/>
		</g>
	</g>
	<g transform="matrix(0.7425,0,0,0.7425,153.697,102.19)">
	</g>
	<g transform="matrix(0.7425,0,0,0.7425,0,0)">
	</g>
	<g transform="matrix(0.7425,0,0,0.7425,0,0)">
		<line vector-effect="none" class="st0" x1="142.8" y1="221.9" x2="142.8" y2="253.9"/>
	</g>
	<g transform="matrix(0.7425,0,0,0.7425,0,0)">
		<line vector-effect="none" class="st2" x1="148.2" y1="221.9" x2="148.2" y2="253.9"/>
	</g>
	<g transform="matrix(0.7425,0,0,0.7425,0,0)">
		<g class="st1">
			<path d="M139,233.9c0,0.7-0.7,1.4-1.5,1.4c-0.7,0-1.5-0.7-1.5-1.4c0-0.9,0.7-1.5,1.5-1.5C138.4,232.4,139,233.1,139,233.9z"/>
		</g>
	</g>
	<g transform="matrix(0.7425,0,0,0.7425,0,0)">
		<g class="st1">
			<path d="M139,241.9c0,0.7-0.7,1.4-1.5,1.4c-0.7,0-1.5-0.7-1.5-1.4c0-0.9,0.7-1.5,1.5-1.5C138.4,240.4,139,241.1,139,241.9z"/>
		</g>
	</g>
	<g transform="matrix(0.7425,0,0,0.7425,0,0)">
		<line vector-effect="none" class="st0" x1="286.2" y1="221.9" x2="286.2" y2="253.9"/>
	</g>
	<g transform="matrix(0.7425,0,0,0.7425,0,0)">
		<line vector-effect="none" class="st0" x1="422.8" y1="221.9" x2="422.8" y2="253.9"/>
	</g>
	<g transform="matrix(0.7425,0,0,0.7425,0,0)">
		<line vector-effect="none" class="st0" x1="559.5" y1="221.9" x2="559.5" y2="253.9"/>
	</g>
	<g transform="matrix(0.7425,0,0,0.7425,0,0)">
		<line vector-effect="none" class="st0" x1="696" y1="221.9" x2="696" y2="253.9"/>
	</g>
	<g transform="matrix(0.7425,0,0,0.7425,0,0)">
		<line vector-effect="none" class="st0" x1="832.8" y1="221.9" x2="832.8" y2="253.9"/>
	</g>
	<g transform="matrix(0.7425,0,0,0.7425,0,0)">
		<line vector-effect="none" class="st0" x1="969.2" y1="221.9" x2="969.2" y2="253.9"/>
	</g>
	<g transform="matrix(0.7425,0,0,0.7425,0,0)">
	</g>
	<g transform="matrix(0.7425,0,0,0.7425,446.985,546.205)">
	</g>
	<g transform="matrix(0.7425,0,0,0.7425,446.985,546.205)">
		<g class="st1">
			<path d="M-441.5-533.7h-9.7v-0.4c1.5,0,1.6-0.3,1.6-1.7v-7.5c0-1.4-0.1-1.7-1.6-1.7v-0.4h9.6v2.7h-0.4c-0.1-1.2-0.7-1.8-1.7-1.8
				h-3.1c-0.8,0-1,0.4-1,1.2v3.3h3.1c1,0,1.7-0.7,1.7-1.7h0.4v4.2h-0.4c0-1-0.7-1.7-1.7-1.7h-3.1v3.7c0,0.8,0.2,1.2,1,1.2h3
				c1.2,0,2.3-1,2.6-2.2h0.5L-441.5-533.7z"/>
			<path d="M-439.5-546.4h0.8l-0.1,6.4c0.9-1,1.1-1.1,1.9-1.1c1.3,0,2.2,0.9,2.2,2.3c0,2-2,2.8-3.6,4.1l-1.2,1V-546.4z
				 M-438.7-539.1c-0.1,1.3-0.1,2.1-0.1,2.5c0,0.6,0.1,1.2,0.2,1.5c1.7-1.3,2.5-2.6,2.5-3.7c0-0.9-0.5-1.6-1.3-1.6
				C-438.1-540.4-438.4-539.7-438.7-539.1z"/>
			<path d="M-425.2-533.7v-0.3c0.7,0,1-0.2,1-1.2v-3.7c0-0.9-0.4-1.3-1.2-1.3c-0.6,0-1.3,0.3-1.8,1c0.1,0.1,0.1,0.5,0.1,1.1v1.6
				c0,0.8,0,1.2,0,1.2c0,1.1,0.2,1.3,1,1.3v0.3h-3.4v-0.3c0.7,0,1-0.2,1-1.2v-3.7c0-0.9-0.4-1.3-1.1-1.3c-0.6,0-1.2,0.3-1.8,1v4.1
				c0,0.9,0.3,1.1,1,1.1v0.3h-3.4v-0.3c0.9,0,1-0.3,1-1.3v-4c0-0.4-0.1-0.6-0.3-0.6h-0.8v-0.3l2.4-0.8v1.3c0.7-0.9,1.5-1.3,2.5-1.3
				c0.9,0,1.4,0.4,1.6,1.3c0.8-0.9,1.7-1.3,2.7-1.3c0.5,0,0.9,0.1,1.2,0.4c0.3,0.3,0.6,1.3,0.6,1.8v3.6c0,1.1,0.2,1.3,1,1.3v0.3
				H-425.2z"/>
			<path d="M-418.9-538.3h-0.7l2.4-7.4h-2.5c-0.7,0-1.2,0.4-1.5,1.1l-0.2-0.1l0.7-2h4.6L-418.9-538.3z"/>
		</g>
	</g>
	<g transform="matrix(0.7425,0,0,0.7425,446.985,546.205)">
	</g>
	<g transform="matrix(0.7425,0,0,0.7425,0,0)">
	</g>
	<g transform="matrix(0.7425,0,0,0.7425,0,0)">
		<line vector-effect="none" class="st0" x1="231.2" y1="371.7" x2="231.2" y2="403.7"/>
	</g>
	<g transform="matrix(0.7425,0,0,0.7425,0,0)">
		<line vector-effect="none" class="st0" x1="378" y1="371.7" x2="378" y2="403.7"/>
	</g>
	<g transform="matrix(0.7425,0,0,0.7425,0,0)">
		<line vector-effect="none" class="st0" x1="382.2" y1="371.7" x2="382.2" y2="403.7"/>
	</g>
	<g transform="matrix(0.7425,0,0,0.7425,0,0)">
		<line vector-effect="none" class="st0" x1="578" y1="371.7" x2="578" y2="403.7"/>
	</g>
	<g transform="matrix(0.7425,0,0,0.7425,0,0)">
		<line vector-effect="none" class="st0" x1="773.5" y1="371.7" x2="773.5" y2="403.7"/>
	</g>
	<g transform="matrix(0.7425,0,0,0.7425,0,0)">
		<line vector-effect="none" class="st0" x1="969.2" y1="371.7" x2="969.2" y2="403.7"/>
	</g>
	<g transform="matrix(0.7425,0,0,0.7425,0,0)">
	</g>
	<g transform="matrix(0.7425,0,0,0.7425,1144.93,990.962)">
	</g>
	<g transform="matrix(0.7425,0,0,0.7425,1144.93,990.962)">
		<g class="st1">
			<path d="M-1151.2-983h-5v-0.4c1.5,0,1.6-0.3,1.6-1.7v-7.5c0-1.4-0.1-1.7-1.6-1.7v-0.4h5.6c0.8,0,1.7,0.2,2.6,0.5
				c2.5,0.9,3.7,2.7,3.7,5.4C-1144.3-985.1-1146.9-983-1151.2-983z M-1151.4-994.1c-1.4,0-1.4,0.2-1.4,1.6v7.1c0,1.4,0,1.6,1.5,1.6
				c3.3,0,5.1-1.8,5.1-5C-1146.2-992-1148.1-994.1-1151.4-994.1z"/>
			<path d="M-1135.2-983v-0.3c0.7,0,1-0.2,1-1.2v-3.7c0-0.9-0.4-1.3-1.2-1.3c-0.6,0-1.3,0.3-1.8,1c0.1,0.1,0.1,0.5,0.1,1.1v1.6
				c0,0.8,0,1.2,0,1.2c0,1.1,0.2,1.3,1,1.3v0.3h-3.4v-0.3c0.7,0,1-0.2,1-1.2v-3.7c0-0.9-0.4-1.3-1.1-1.3c-0.6,0-1.2,0.3-1.8,1v4.1
				c0,0.9,0.3,1.1,1,1.1v0.3h-3.4v-0.3c0.9,0,1-0.3,1-1.3v-4c0-0.4-0.1-0.6-0.3-0.6h-0.8v-0.3l2.4-0.8v1.3c0.7-0.9,1.5-1.3,2.5-1.3
				c0.9,0,1.4,0.4,1.6,1.3c0.8-0.9,1.7-1.3,2.7-1.3c0.5,0,0.9,0.1,1.2,0.4c0.3,0.3,0.6,1.3,0.6,1.8v3.6c0,1.1,0.2,1.3,1,1.3v0.3
				H-1135.2z"/>
			<path d="M-1128.8-987.6h-0.7l2.4-7.4h-2.5c-0.7,0-1.2,0.4-1.5,1.1l-0.2-0.1l0.7-2h4.6L-1128.8-987.6z"/>
		</g>
	</g>
	<g transform="matrix(0.7425,0,0,0.7425,1144.93,990.962)">
	</g>
	<g transform="matrix(0.7425,0,0,0.7425,0,0)">
	</g>
	<g transform="matrix(0.7425,0,0,0.7425,0,0)">
		<line vector-effect="none" class="st0" x1="229.8" y1="521.2" x2="229.8" y2="553.2"/>
	</g>
	<g transform="matrix(0.7425,0,0,0.7425,0,0)">
		<line vector-effect="none" class="st0" x1="425.8" y1="521.2" x2="425.8" y2="553.2"/>
	</g>
	<g transform="matrix(0.7425,0,0,0.7425,0,0)">
		<line vector-effect="none" class="st0" x1="622" y1="521.2" x2="622" y2="553.2"/>
	</g>
	<g transform="matrix(0.7425,0,0,0.7425,0,0)">
		<line vector-effect="none" class="st0" x1="818" y1="521.2" x2="818" y2="553.2"/>
	</g>
	<g transform="matrix(0.7425,0,0,0.7425,0,0)">
		<line vector-effect="none" class="st0" x1="962.2" y1="521.2" x2="962.2" y2="553.2"/>
	</g>
	<g transform="matrix(0.7425,0,0,0.7425,0,0)">
		<line vector-effect="none" class="st2" x1="967.8" y1="521.2" x2="967.8" y2="553.2"/>
	</g>
	<g transform="matrix(0.7425,0,0,0.7425,0,0)">
	</g>
	<g transform="matrix(0.7425,0,0,0.7425,106.177,117.388)">
	</g>
	<g transform="matrix(0.7425,0,0,0.7425,106.177,117.388)">
		<g class="st1">
			<path d="M-96.6-73.8v0.8c0,0.3,0,0.5,0,0.6c0,0.8,0.3,1,1.8,1.1l0.1,0.9h-7.9l0.1-0.9c1-0.1,1.6-0.3,1.8-0.6
				c0.1-0.2,0.1-0.8,0.1-1.9h-6.6v-1.3c2-2.5,3.8-7.1,4.1-10.3h5.5c-0.3,1.5-1.5,3.2-3.4,5.2c-2.2,2.2-3.5,3.8-4,5.1h4.4v-3.7l4-3.6
				v7.3h2v1.4H-96.6z"/>
		</g>
	</g>
	<g transform="matrix(0.7425,0,0,0.7425,106.177,117.388)">
		<g class="st1">
			<path d="M-96.6-57.6v0.8c0,0.3,0,0.5,0,0.6c0,0.8,0.3,1,1.8,1.1l0.1,0.9h-7.9l0.1-0.9c1-0.1,1.6-0.3,1.8-0.6
				c0.1-0.2,0.1-0.8,0.1-1.9h-6.6v-1.3c2-2.5,3.8-7.1,4.1-10.3h5.5c-0.3,1.5-1.5,3.2-3.4,5.2c-2.2,2.2-3.5,3.8-4,5.1h4.4v-3.7l4-3.6
				v7.3h2v1.4H-96.6z"/>
		</g>
	</g>
	<g transform="matrix(0.7425,0,0,0.7425,106.177,117.388)">
	</g>
	<g transform="matrix(0.7425,0,0,0.7425,0,0)">
	</g>
	<g transform="matrix(0.7425,0,0,0.7425,0,0)">
		<line vector-effect="none" class="st3" x1="0" y1="104.4" x2="969.8" y2="104.4"/>
	</g>
	<g transform="matrix(0.7425,0,0,0.7425,0,0)">
		<line vector-effect="none" class="st3" x1="0" y1="96.4" x2="969.8" y2="96.4"/>
	</g>
	<g transform="matrix(0.7425,0,0,0.7425,0,0)">
		<line vector-effect="none" class="st3" x1="0" y1="88.4" x2="969.8" y2="88.4"/>
	</g>
	<g transform="matrix(0.7425,0,0,0.7425,0,0)">
		<line vector-effect="none" class="st3" x1="0" y1="80.4" x2="969.8" y2="80.4"/>
	</g>
	<g transform="matrix(0.7425,0,0,0.7425,0,0)">
		<line vector-effect="none" class="st3" x1="0" y1="72.4" x2="969.8" y2="72.4"/>
	</g>
	<g transform="matrix(0.7425,0,0,0.7425,0,0)">
		<g class="st1">
			<path d="M11.7,95.3c4.7-4.2,7.6-9.8,7.6-14.9c0-4.1-2.3-7.1-6-7.1c-2.6,0-5.4,2.2-5.4,4.4c0,0.4,0.1,0.5,0.2,0.5
				c-0.1,0,0.9-1,2.2-1c1.4,0,2.5,1.3,2.5,2.8c0,2-1.4,3.6-3.4,3.6c-2,0-3.3-2.1-3.3-4.6c0-3.8,3.7-6.7,7.8-6.7
				c7.5,0,9.5,5.2,9.5,9.4c0,2.7-0.7,4.7-3.2,8.6c-3.1,4.9-10.4,8.5-13,8.5c-0.7,0-1-0.3-1-0.7C8.6,97.3,10.4,96.4,11.7,95.3z
				 M27.8,74.8c0.9,0,1.6,0.7,1.6,1.6S28.7,78,27.8,78c-0.9,0-1.6-0.7-1.6-1.6S26.9,74.8,27.8,74.8z M27.8,82.8
				c0.9,0,1.6,0.7,1.6,1.6c0,0.9-0.7,1.6-1.6,1.6c-0.9,0-1.6-0.7-1.6-1.6C26.2,83.5,26.9,82.8,27.8,82.8z"/>
		</g>
	</g>
	<g transform="matrix(0.7425,0,0,0.7425,0,0)">
		<line vector-effect="none" class="st3" x1="0" y1="253.9" x2="969.8" y2="253.9"/>
	</g>
	<g transform="matrix(0.7425,0,0,0.7425,0,0)">
		<line vector-effect="none" class="st3" x1="0" y1="245.9" x2="969.8" y2="245.9"/>
	</g>
	<g transform="matrix(0.7425,0,0,0.7425,0,0)">
		<line vector-effect="none" class="st3" x1="0" y1="237.9" x2="969.8" y2="237.9"/>
	</g>
	<g transform="matrix(0.7425,0,0,0.7425,0,0)">
		<line vector-effect="none" class="st3" x1="0" y1="229.9" x2="969.8" y2="229.9"/>
	</g>
	<g transform="matrix(0.7425,0,0,0.7425,0,0)">
		<line vector-effect="none" class="st3" x1="0" y1="221.9" x2="969.8" y2="221.9"/>
	</g>
	<g transform="matrix(0.7425,0,0,0.7425,0,0)">
		<g class="st1">
			<path d="M11.7,244.8c4.7-4.2,7.6-9.8,7.6-14.9c0-4.1-2.3-7.1-6-7.1c-2.6,0-5.4,2.2-5.4,4.4c0,0.4,0.1,0.5,0.2,0.5
				c-0.1,0,0.9-1,2.2-1c1.4,0,2.5,1.3,2.5,2.8c0,2-1.4,3.6-3.4,3.6c-2,0-3.3-2.1-3.3-4.6c0-3.8,3.7-6.7,7.8-6.7
				c7.5,0,9.5,5.2,9.5,9.4c0,2.7-0.7,4.7-3.2,8.6c-3.1,4.9-10.4,8.5-13,8.5c-0.7,0-1-0.3-1-0.7C8.6,246.8,10.4,245.9,11.7,244.8z
				 M27.8,224.3c0.9,0,1.6,0.7,1.6,1.6c0,0.9-0.7,1.6-1.6,1.6c-0.9,0-1.6-0.7-1.6-1.6C26.2,225,26.9,224.3,27.8,224.3z M27.8,232.3
				c0.9,0,1.6,0.7,1.6,1.6c0,0.9-0.7,1.6-1.6,1.6c-0.9,0-1.6-0.7-1.6-1.6C26.2,233,26.9,232.3,27.8,232.3z"/>
		</g>
	</g>
	<g transform="matrix(0.7425,0,0,0.7425,0,0)">
		<line vector-effect="none" class="st3" x1="0" y1="403.7" x2="969.8" y2="403.7"/>
	</g>
	<g transform="matrix(0.7425,0,0,0.7425,0,0)">
		<line vector-effect="none" class="st3" x1="0" y1="395.7" x2="969.8" y2="395.7"/>
	</g>
	<g transform="matrix(0.7425,0,0,0.7425,0,0)">
		<line vector-effect="none" class="st3" x1="0" y1="387.7" x2="969.8" y2="387.7"/>
	</g>
	<g transform="matrix(0.7425,0,0,0.7425,0,0)">
		<line vector-effect="none" class="st3" x1="0" y1="379.7" x2="969.8" y2="379.7"/>
	</g>
	<g transform="matrix(0.7425,0,0,0.7425,0,0)">
		<line vector-effect="none" class="st3" x1="0" y1="371.7" x2="969.8" y2="371.7"/>
	</g>
	<g transform="matrix(0.7425,0,0,0.7425,0,0)">
		<g class="st1">
			<path d="M11.7,394.5c4.7-4.2,7.6-9.8,7.6-14.9c0-4.1-2.3-7.1-6-7.1c-2.6,0-5.4,2.2-5.4,4.4c0,0.4,0.1,0.5,0.2,0.5
				c-0.1,0,0.9-1,2.2-1c1.4,0,2.5,1.3,2.5,2.8c0,2-1.4,3.6-3.4,3.6c-2,0-3.3-2.1-3.3-4.6c0-3.8,3.7-6.7,7.8-6.7
				c7.5,0,9.5,5.2,9.5,9.4c0,2.7-0.7,4.7-3.2,8.6c-3.1,4.9-10.4,8.5-13,8.5c-0.7,0-1-0.3-1-0.7C8.6,396.6,10.4,395.7,11.7,394.5z
				 M27.8,374.1c0.9,0,1.6,0.7,1.6,1.6c0,0.9-0.7,1.6-1.6,1.6c-0.9,0-1.6-0.7-1.6-1.6C26.2,374.8,26.9,374.1,27.8,374.1z M27.8,382
				c0.9,0,1.6,0.7,1.6,1.6c0,0.9-0.7,1.6-1.6,1.6c-0.9,0-1.6-0.7-1.6-1.6C26.2,382.7,26.9,382,27.8,382z"/>
		</g>
	</g>
	<g transform="matrix(0.7425,0,0,0.7425,0,0)">
		<line vector-effect="none" class="st3" x1="0" y1="553.2" x2="969.8" y2="553.2"/>
	</g>
	<g transform="matrix(0.7425,0,0,0.7425,0,0)">
		<line vector-effect="none" class="st3" x1="0" y1="545.2" x2="969.8" y2="545.2"/>
	</g>
	<g transform="matrix(0.7425,0,0,0.7425,0,0)">
		<line vector-effect="none" class="st3" x1="0" y1="537.2" x2="969.8" y2="537.2"/>
	</g>
	<g transform="matrix(0.7425,0,0,0.7425,0,0)">
		<line vector-effect="none" class="st3" x1="0" y1="529.2" x2="969.8" y2="529.2"/>
	</g>
	<g transform="matrix(0.7425,0,0,0.7425,0,0)">
		<line vector-effect="none" class="st3" x1="0" y1="521.2" x2="969.8" y2="521.2"/>
	</g>
	<g transform="matrix(0.7425,0,0,0.7425,0,0)">
		<g class="st1">
			<path d="M11.7,544c4.7-4.2,7.6-9.8,7.6-14.9c0-4.1-2.3-7.1-6-7.1c-2.6,0-5.4,2.2-5.4,4.4c0,0.4,0.1,0.5,0.2,0.5
				c-0.1,0,0.9-1,2.2-1c1.4,0,2.5,1.3,2.5,2.8c0,2-1.4,3.6-3.4,3.6c-2,0-3.3-2.1-3.3-4.6c0-3.8,3.7-6.7,7.8-6.7
				c7.5,0,9.5,5.2,9.5,9.4c0,2.7-0.7,4.7-3.2,8.6c-3.1,4.9-10.4,8.5-13,8.5c-0.7,0-1-0.3-1-0.7C8.6,546.1,10.4,545.2,11.7,544z
				 M27.8,523.6c0.9,0,1.6,0.7,1.6,1.6c0,0.9-0.7,1.6-1.6,1.6c-0.9,0-1.6-0.7-1.6-1.6C26.2,524.3,26.9,523.6,27.8,523.6z
				 M27.8,531.5c0.9,0,1.6,0.7,1.6,1.6c0,0.9-0.7,1.6-1.6,1.6c-0.9,0-1.6-0.7-1.6-1.6C26.2,532.2,26.9,531.5,27.8,531.5z"/>
		</g>
	</g>
	<g transform="matrix(0.7425,0,0,0.7425,0,0)">
		<line vector-effect="none" class="st3" x1="61.2" y1="89.7" x2="61.2" y2="116.4"/>
	</g>
	<g transform="matrix(0.7425,0,0,0.7425,0,0)">
		<g class="st1">
			<path d="M67.9,84.1c2.7,0,4.4,1.2,4.4,3.2c0,3-3.7,5.4-7.3,5.4c-2.2,0-3.9-1.1-3.9-2.8C61,86.9,64.6,84.1,67.9,84.1z M61.7,90.3
				c0,1,0.6,1.5,1.8,1.5c2.3,0,8-3.4,8-5.2c0-1-0.6-1.5-1.8-1.5C67.7,85,61.7,88.3,61.7,90.3z"/>
		</g>
	</g>
	<g transform="matrix(0.7425,0,0,0.7425,0,0)">
		<line vector-effect="none" class="st3" x1="121" y1="81.7" x2="121" y2="108.4"/>
	</g>
	<g transform="matrix(0.7425,0,0,0.7425,0,0)">
		<g class="st1">
			<path d="M127.6,76.1c2.7,0,4.4,1.2,4.4,3.2c0,3-3.7,5.4-7.3,5.4c-2.2,0-3.9-1.1-3.9-2.8C120.8,78.9,124.4,76.1,127.6,76.1z
				 M121.5,82.3c0,1,0.6,1.5,1.8,1.5c2.3,0,8-3.4,8-5.2c0-1-0.6-1.5-1.8-1.5C127.4,77,121.5,80.3,121.5,82.3z"/>
		</g>
	</g>
	<g transform="matrix(0.7425,0,0,0.7425,0,0)">
		<line vector-effect="none" class="st3" x1="192.8" y1="85.7" x2="192.8" y2="112.4"/>
	</g>
	<g transform="matrix(0.7425,0,0,0.7425,0,0)">
		<g class="st1">
			<path d="M199.4,80.1c2.7,0,4.4,1.2,4.4,3.2c0,3-3.7,5.4-7.3,5.4c-2.2,0-3.9-1.1-3.9-2.8C192.5,82.9,196.1,80.1,199.4,80.1z
				 M193.2,86.3c0,1,0.6,1.5,1.8,1.5c2.3,0,8-3.4,8-5.2c0-1-0.6-1.5-1.8-1.5C199.2,81,193.2,84.3,193.2,86.3z"/>
		</g>
	</g>
	<g transform="matrix(0.7425,0,0,0.7425,0,0)">
		<line vector-effect="none" class="st3" x1="252.5" y1="77.7" x2="252.5" y2="104.4"/>
	</g>
	<g transform="matrix(0.7425,0,0,0.7425,0,0)">
		<g class="st1">
			<path d="M259.1,72.1c2.7,0,4.4,1.2,4.4,3.2c0,3-3.7,5.4-7.3,5.4c-2.2,0-3.9-1.1-3.9-2.8C252.3,74.9,255.9,72.1,259.1,72.1z
				 M253,78.3c0,1,0.6,1.5,1.8,1.5c2.3,0,8-3.4,8-5.2c0-1-0.6-1.5-1.8-1.5C258.9,73,253,76.3,253,78.3z"/>
		</g>
	</g>
	<g transform="matrix(0.7425,0,0,0.7425,0,0)">
		<line vector-effect="none" class="st3" x1="324.2" y1="81.7" x2="324.2" y2="108.4"/>
	</g>
	<g transform="matrix(0.7425,0,0,0.7425,0,0)">
		<g class="st1">
			<path d="M330.9,76.1c2.7,0,4.4,1.2,4.4,3.2c0,3-3.7,5.4-7.3,5.4c-2.2,0-3.9-1.1-3.9-2.8C324,78.9,327.6,76.1,330.9,76.1z
				 M324.7,82.3c0,1,0.6,1.5,1.8,1.5c2.3,0,8-3.4,8-5.2c0-1-0.6-1.5-1.8-1.5C330.7,77,324.7,80.3,324.7,82.3z"/>
		</g>
	</g>
	<g transform="matrix(0.7425,0,0,0.7425,0,0)">
		<line vector-effect="none" class="st3" x1="384" y1="73.7" x2="384" y2="100.4"/>
	</g>
	<g transform="matrix(0.7425,0,0,0.7425,0,0)">
		<g class="st1">
			<path d="M390.6,68.1c2.7,0,4.4,1.2,4.4,3.2c0,3-3.7,5.4-7.3,5.4c-2.2,0-3.9-1.1-3.9-2.8C383.8,70.9,387.4,68.1,390.6,68.1z
				 M384.5,74.3c0,1,0.6,1.5,1.8,1.5c2.3,0,8-3.4,8-5.2c0-1-0.6-1.5-1.8-1.5C390.4,69,384.5,72.3,384.5,74.3z"/>
		</g>
	</g>
	<g transform="matrix(0.7425,0,0,0.7425,0,0)">
		<line vector-effect="none" class="st3" x1="455.8" y1="77.7" x2="455.8" y2="104.4"/>
	</g>
	<g transform="matrix(0.7425,0,0,0.7425,0,0)">
		<g class="st1">
			<path d="M462.4,72.1c2.7,0,4.4,1.2,4.4,3.2c0,3-3.7,5.4-7.3,5.4c-2.2,0-3.9-1.1-3.9-2.8C455.5,74.9,459.1,72.1,462.4,72.1z
				 M456.2,78.3c0,1,0.6,1.5,1.8,1.5c2.3,0,8-3.4,8-5.2c0-1-0.6-1.5-1.8-1.5C462.2,73,456.2,76.3,456.2,78.3z"/>
		</g>
	</g>
	<g transform="matrix(0.7425,0,0,0.7425,0,0)">
		<line vector-effect="none" class="st3" x1="515.8" y1="69.7" x2="515.8" y2="96.4"/>
	</g>
	<g transform="matrix(0.7425,0,0,0.7425,0,0)">
		<g class="st1">
			<path d="M522.4,64.1c2.7,0,4.4,1.2,4.4,3.2c0,3-3.7,5.4-7.3,5.4c-2.2,0-3.9-1.1-3.9-2.8C515.5,66.9,519.1,64.1,522.4,64.1z
				 M516.2,70.3c0,1,0.6,1.5,1.8,1.5c2.3,0,8-3.4,8-5.2c0-1-0.6-1.5-1.8-1.5C522.2,65,516.2,68.3,516.2,70.3z"/>
		</g>
	</g>
	<g transform="matrix(0.7425,0,0,0.7425,0,0)">
		<line vector-effect="none" class="st3" x1="587.5" y1="73.7" x2="587.5" y2="100.4"/>
	</g>
	<g transform="matrix(0.7425,0,0,0.7425,0,0)">
		<g class="st1">
			<path d="M594.1,68.1c2.7,0,4.4,1.2,4.4,3.2c0,3-3.7,5.4-7.3,5.4c-2.2,0-3.9-1.1-3.9-2.8C587.3,70.9,590.9,68.1,594.1,68.1z
				 M588,74.3c0,1,0.6,1.5,1.8,1.5c2.3,0,8-3.4,8-5.2c0-1-0.6-1.5-1.8-1.5C593.9,69,588,72.3,588,74.3z"/>
		</g>
	</g>
	<g transform="matrix(0.7425,0,0,0.7425,0,0)">
		<line vector-effect="none" class="st0" x1="644" y1="64.4" x2="661.2" y2="64.4"/>
	</g>
	<g transform="matrix(0.7425,0,0,0.7425,0,0)">
		<line vector-effect="none" class="st3" x1="647.2" y1="65.7" x2="647.2" y2="92.4"/>
	</g>
	<g transform="matrix(0.7425,0,0,0.7425,0,0)">
		<g class="st1">
			<path d="M653.9,60.1c2.7,0,4.4,1.2,4.4,3.2c0,3-3.7,5.4-7.3,5.4c-2.2,0-3.9-1.1-3.9-2.8C647,62.9,650.6,60.1,653.9,60.1z
				 M647.7,66.3c0,1,0.6,1.5,1.8,1.5c2.3,0,8-3.4,8-5.2c0-1-0.6-1.5-1.8-1.5C653.7,61,647.7,64.3,647.7,66.3z"/>
		</g>
	</g>
	<g transform="matrix(0.7425,0,0,0.7425,0,0)">
		<line vector-effect="none" class="st3" x1="719" y1="69.7" x2="719" y2="96.4"/>
	</g>
	<g transform="matrix(0.7425,0,0,0.7425,0,0)">
		<g class="st1">
			<path d="M725.6,64.1c2.7,0,4.4,1.2,4.4,3.2c0,3-3.7,5.4-7.3,5.4c-2.2,0-3.9-1.1-3.9-2.8C718.8,66.9,722.4,64.1,725.6,64.1z
				 M719.5,70.3c0,1,0.6,1.5,1.8,1.5c2.3,0,8-3.4,8-5.2c0-1-0.6-1.5-1.8-1.5C725.4,65,719.5,68.3,719.5,70.3z"/>
		</g>
	</g>
	<g transform="matrix(0.7425,0,0,0.7425,0,0)">
		<line vector-effect="none" class="st0" x1="775.5" y1="64.4" x2="792.8" y2="64.4"/>
	</g>
	<g transform="matrix(0.7425,0,0,0.7425,0,0)">
		<line vector-effect="none" class="st3" x1="778.8" y1="61.7" x2="778.8" y2="88.4"/>
	</g>
	<g transform="matrix(0.7425,0,0,0.7425,0,0)">
		<g class="st1">
			<path d="M785.4,56.1c2.7,0,4.4,1.2,4.4,3.2c0,3-3.7,5.4-7.3,5.4c-2.2,0-3.9-1.1-3.9-2.8C778.5,58.9,782.1,56.1,785.4,56.1z
				 M779.2,62.3c0,1,0.6,1.5,1.8,1.5c2.3,0,8-3.4,8-5.2c0-1-0.6-1.5-1.8-1.5C785.2,57,779.2,60.3,779.2,62.3z"/>
		</g>
	</g>
	<g transform="matrix(0.7425,0,0,0.7425,0,0)">
		<line vector-effect="none" class="st0" x1="847.2" y1="64.4" x2="864.5" y2="64.4"/>
	</g>
	<g transform="matrix(0.7425,0,0,0.7425,0,0)">
		<line vector-effect="none" class="st3" x1="850.5" y1="65.7" x2="850.5" y2="92.4"/>
	</g>
	<g transform="matrix(0.7425,0,0,0.7425,0,0)">
		<g class="st1">
			<path d="M857.1,60.1c2.7,0,4.4,1.2,4.4,3.2c0,3-3.7,5.4-7.3,5.4c-2.2,0-3.9-1.1-3.9-2.8C850.2,62.9,853.9,60.1,857.1,60.1z
				 M851,66.3c0,1,0.6,1.5,1.8,1.5c2.3,0,8-3.4,8-5.2c0-1-0.6-1.5-1.8-1.5C856.9,61,851,64.3,851,66.3z"/>
		</g>
	</g>
	<g transform="matrix(0.7425,0,0,0.7425,0,0)">
		<line vector-effect="none" class="st0" x1="907" y1="64.4" x2="924.2" y2="64.4"/>
	</g>
	<g transform="matrix(0.7425,0,0,0.7425,0,0)">
		<line vector-effect="none" class="st0" x1="907" y1="56.4" x2="924.2" y2="56.4"/>
	</g>
	<g transform="matrix(0.7425,0,0,0.7425,0,0)">
		<line vector-effect="none" class="st3" x1="910.2" y1="57.7" x2="910.2" y2="88.4"/>
	</g>
	<g transform="matrix(0.7425,0,0,0.7425,0,0)">
		<g class="st1">
			<path d="M916.9,52.1c2.7,0,4.4,1.2,4.4,3.2c0,3-3.7,5.4-7.3,5.4c-2.2,0-3.9-1.1-3.9-2.8C910,54.9,913.6,52.1,916.9,52.1z
				 M910.7,58.3c0,1,0.6,1.5,1.8,1.5c2.3,0,8-3.4,8-5.2c0-1-0.6-1.5-1.8-1.5C916.7,53,910.7,56.3,910.7,58.3z"/>
		</g>
	</g>
	<g transform="matrix(0.7425,0,0,0.7425,0,0)">
		<line vector-effect="none" class="st0" x1="42" y1="213.9" x2="65" y2="213.9"/>
	</g>
	<g transform="matrix(0.7425,0,0,0.7425,0,0)">
		<g class="st1">
			<path d="M53.6,205.6c3.6,0,7.3,1.9,7.3,4.3c0,2.7-3.1,4.3-7.6,4.3c-4.1,0-7.3-1.7-7.3-4.3C46,207.3,49.7,205.6,53.6,205.6z
				 M56.7,209c-1-1.9-2-2.7-4.2-2.7c-2,0-3.1,0.8-3.1,2.5c0,2.4,2.2,4.8,4.2,4.8c1.9,0,3.4-0.2,3.8-2C57.5,210.8,57.2,210,56.7,209z
				"/>
		</g>
	</g>
	<g transform="matrix(0.7425,0,0,0.7425,0,0)">
		<line vector-effect="none" class="st3" x1="162.5" y1="235.2" x2="162.5" y2="261.9"/>
	</g>
	<g transform="matrix(0.7425,0,0,0.7425,0,0)">
		<g class="st1">
			<path d="M169.1,229.6c2.7,0,4.4,1.2,4.4,3.2c0,3-3.7,5.4-7.3,5.4c-2.2,0-3.9-1.1-3.9-2.8C162.3,232.4,165.9,229.6,169.1,229.6z
				 M163,235.8c0,1,0.6,1.5,1.8,1.5c2.3,0,8-3.4,8-5.2c0-1-0.6-1.5-1.8-1.5C168.9,230.5,163,233.8,163,235.8z"/>
		</g>
	</g>
	<g transform="matrix(0.7425,0,0,0.7425,0,0)">
		<g class="st1">
			<path d="M152.8,220.5h1l-0.2,10.1c0.6-1.1,1.6-1.6,3-1.6c1.9,0,3.6,1.3,3.6,3.1c-0.1,1.2-0.8,2.8-2.8,4.3l-4.5,3.3V220.5z
				 M153.7,231.6c-0.1,1.2-0.2,2.3-0.2,3.1c0,1.6,0.1,2.6,0.2,3.2c1.7-1.1,3.9-4.3,3.9-5.9c0-1-0.8-1.7-1.8-1.7
				C154.8,230.3,154.2,230.8,153.7,231.6z"/>
		</g>
	</g>
	<g transform="matrix(0.7425,0,0,0.7425,0,0)">
		<line vector-effect="none" class="st3" x1="224.8" y1="227.2" x2="224.8" y2="253.9"/>
	</g>
	<g transform="matrix(0.7425,0,0,0.7425,0,0)">
		<g class="st1">
			<path d="M231.4,221.6c2.7,0,4.4,1.2,4.4,3.2c0,3-3.7,5.4-7.3,5.4c-2.2,0-3.9-1.1-3.9-2.8C224.5,224.4,228.1,221.6,231.4,221.6z
				 M225.2,227.8c0,1,0.6,1.5,1.8,1.5c2.3,0,8-3.4,8-5.2c0-1-0.6-1.5-1.8-1.5C231.2,222.5,225.2,225.8,225.2,227.8z"/>
		</g>
	</g>
	<g transform="matrix(0.7425,0,0,0.7425,0,0)">
		<g class="st1">
			<path d="M215,212.5h1l-0.2,10.1c0.6-1.1,1.6-1.6,3-1.6c1.9,0,3.6,1.3,3.6,3.1c-0.1,1.2-0.8,2.8-2.8,4.3l-4.5,3.3V212.5z
				 M215.9,223.6c-0.1,1.2-0.2,2.3-0.2,3.1c0,1.6,0.1,2.6,0.2,3.2c1.7-1.1,3.9-4.3,3.9-5.9c0-1-0.8-1.7-1.8-1.7
				C217.1,222.3,216.4,222.8,215.9,223.6z"/>
		</g>
	</g>
	<g transform="matrix(0.7425,0,0,0.7425,0,0)">
		<line vector-effect="none" class="st3" x1="299" y1="231.2" x2="299" y2="257.9"/>
	</g>
	<g transform="matrix(0.7425,0,0,0.7425,0,0)">
		<g class="st1">
			<path d="M305.6,225.6c2.7,0,4.4,1.2,4.4,3.2c0,3-3.7,5.4-7.3,5.4c-2.2,0-3.9-1.1-3.9-2.8C298.8,228.4,302.4,225.6,305.6,225.6z
				 M299.5,231.8c0,1,0.6,1.5,1.8,1.5c2.3,0,8-3.4,8-5.2c0-1-0.6-1.5-1.8-1.5C305.4,226.5,299.5,229.8,299.5,231.8z"/>
		</g>
	</g>
	<g transform="matrix(0.7425,0,0,0.7425,0,0)">
		<line vector-effect="none" class="st3" x1="361.2" y1="223.2" x2="361.2" y2="249.9"/>
	</g>
	<g transform="matrix(0.7425,0,0,0.7425,0,0)">
		<g class="st1">
			<path d="M367.9,217.6c2.7,0,4.4,1.2,4.4,3.2c0,3-3.7,5.4-7.3,5.4c-2.2,0-3.9-1.1-3.9-2.8C361,220.4,364.6,217.6,367.9,217.6z
				 M361.7,223.8c0,1,0.6,1.5,1.8,1.5c2.3,0,8-3.4,8-5.2c0-1-0.6-1.5-1.8-1.5C367.7,218.5,361.7,221.8,361.7,223.8z"/>
		</g>
	</g>
	<g transform="matrix(0.7425,0,0,0.7425,0,0)">
		<g class="st1">
			<path d="M351.5,208.5h1l-0.2,10.1c0.6-1.1,1.6-1.6,3-1.6c1.9,0,3.6,1.3,3.6,3.1c-0.1,1.2-0.8,2.8-2.8,4.3l-4.5,3.3V208.5z
				 M352.4,219.6c-0.1,1.2-0.2,2.3-0.2,3.1c0,1.6,0.1,2.6,0.2,3.2c1.7-1.1,3.9-4.3,3.9-5.9c0-1-0.8-1.7-1.8-1.7
				C353.6,218.3,352.9,218.8,352.4,219.6z"/>
		</g>
	</g>
	<g transform="matrix(0.7425,0,0,0.7425,0,0)">
		<line vector-effect="none" class="st3" x1="435.5" y1="227.2" x2="435.5" y2="253.9"/>
	</g>
	<g transform="matrix(0.7425,0,0,0.7425,0,0)">
		<g class="st1">
			<path d="M442.1,221.6c2.7,0,4.4,1.2,4.4,3.2c0,3-3.7,5.4-7.3,5.4c-2.2,0-3.9-1.1-3.9-2.8C435.2,224.4,438.9,221.6,442.1,221.6z
				 M436,227.8c0,1,0.6,1.5,1.8,1.5c2.3,0,8-3.4,8-5.2c0-1-0.6-1.5-1.8-1.5C441.9,222.5,436,225.8,436,227.8z"/>
		</g>
	</g>
	<g transform="matrix(0.7425,0,0,0.7425,0,0)">
		<g class="st1">
			<path d="M425.7,212.5h1l-0.2,10.1c0.6-1.1,1.6-1.6,3-1.6c1.9,0,3.6,1.3,3.6,3.1c-0.1,1.2-0.8,2.8-2.8,4.3l-4.5,3.3V212.5z
				 M426.7,223.6c-0.1,1.2-0.2,2.3-0.2,3.1c0,1.6,0.1,2.6,0.2,3.2c1.7-1.1,3.9-4.3,3.9-5.9c0-1-0.8-1.7-1.8-1.7
				C427.8,222.3,427.2,222.8,426.7,223.6z"/>
		</g>
	</g>
	<g transform="matrix(0.7425,0,0,0.7425,0,0)">
		<line vector-effect="none" class="st3" x1="498" y1="219.2" x2="498" y2="245.9"/>
	</g>
	<g transform="matrix(0.7425,0,0,0.7425,0,0)">
		<g class="st1">
			<path d="M504.6,213.6c2.7,0,4.4,1.2,4.4,3.2c0,3-3.7,5.4-7.3,5.4c-2.2,0-3.9-1.1-3.9-2.8C497.7,216.4,501.4,213.6,504.6,213.6z
				 M498.5,219.8c0,1,0.6,1.5,1.8,1.5c2.3,0,8-3.4,8-5.2c0-1-0.6-1.5-1.8-1.5C504.4,214.5,498.5,217.8,498.5,219.8z"/>
		</g>
	</g>
	<g transform="matrix(0.7425,0,0,0.7425,0,0)">
		<g class="st1">
			<path d="M488.2,204.5h1l-0.2,10.1c0.6-1.1,1.6-1.6,3-1.6c1.9,0,3.6,1.3,3.6,3.1c-0.1,1.2-0.8,2.8-2.8,4.3l-4.5,3.3V204.5z
				 M489.2,215.6c-0.1,1.2-0.2,2.3-0.2,3.1c0,1.6,0.1,2.6,0.2,3.2c1.7-1.1,3.9-4.3,3.9-5.9c0-1-0.8-1.7-1.8-1.7
				C490.3,214.3,489.7,214.8,489.2,215.6z"/>
		</g>
	</g>
	<g transform="matrix(0.7425,0,0,0.7425,0,0)">
		<line vector-effect="none" class="st3" x1="572.2" y1="223.2" x2="572.2" y2="249.9"/>
	</g>
	<g transform="matrix(0.7425,0,0,0.7425,0,0)">
		<g class="st1">
			<path d="M578.9,217.6c2.7,0,4.4,1.2,4.4,3.2c0,3-3.7,5.4-7.3,5.4c-2.2,0-3.9-1.1-3.9-2.8C572,220.4,575.6,217.6,578.9,217.6z
				 M572.7,223.8c0,1,0.6,1.5,1.8,1.5c2.3,0,8-3.4,8-5.2c0-1-0.6-1.5-1.8-1.5C578.7,218.5,572.7,221.8,572.7,223.8z"/>
		</g>
	</g>
	<g transform="matrix(0.7425,0,0,0.7425,0,0)">
		<g class="st1">
			<path d="M562.5,208.5h1l-0.2,10.1c0.6-1.1,1.6-1.6,3-1.6c1.9,0,3.6,1.3,3.6,3.1c-0.1,1.2-0.8,2.8-2.8,4.3l-4.5,3.3V208.5z
				 M563.4,219.6c-0.1,1.2-0.2,2.3-0.2,3.1c0,1.6,0.1,2.6,0.2,3.2c1.7-1.1,3.9-4.3,3.9-5.9c0-1-0.8-1.7-1.8-1.7
				C564.6,218.3,563.9,218.8,563.4,219.6z"/>
		</g>
	</g>
	<g transform="matrix(0.7425,0,0,0.7425,0,0)">
		<line vector-effect="none" class="st0" x1="631.2" y1="213.9" x2="648.5" y2="213.9"/>
	</g>
	<g transform="matrix(0.7425,0,0,0.7425,0,0)">
		<line vector-effect="none" class="st3" x1="634.5" y1="215.2" x2="634.5" y2="241.9"/>
	</g>
	<g transform="matrix(0.7425,0,0,0.7425,0,0)">
		<g class="st1">
			<path d="M641.1,209.6c2.7,0,4.4,1.2,4.4,3.2c0,3-3.7,5.4-7.3,5.4c-2.2,0-3.9-1.1-3.9-2.8C634.3,212.4,637.9,209.6,641.1,209.6z
				 M635,215.8c0,1,0.6,1.5,1.8,1.5c2.3,0,8-3.4,8-5.2c0-1-0.6-1.5-1.8-1.5C640.9,210.5,635,213.8,635,215.8z"/>
		</g>
	</g>
	<g transform="matrix(0.7425,0,0,0.7425,0,0)">
		<line vector-effect="none" class="st3" x1="708.8" y1="219.2" x2="708.8" y2="245.9"/>
	</g>
	<g transform="matrix(0.7425,0,0,0.7425,0,0)">
		<g class="st1">
			<path d="M715.4,213.6c2.7,0,4.4,1.2,4.4,3.2c0,3-3.7,5.4-7.3,5.4c-2.2,0-3.9-1.1-3.9-2.8C708.5,216.4,712.1,213.6,715.4,213.6z
				 M709.2,219.8c0,1,0.6,1.5,1.8,1.5c2.3,0,8-3.4,8-5.2c0-1-0.6-1.5-1.8-1.5C715.2,214.5,709.2,217.8,709.2,219.8z"/>
		</g>
	</g>
	<g transform="matrix(0.7425,0,0,0.7425,0,0)">
		<g class="st1">
			<path d="M699,204.5h1l-0.2,10.1c0.6-1.1,1.6-1.6,3-1.6c1.9,0,3.6,1.3,3.6,3.1c-0.1,1.2-0.8,2.8-2.8,4.3l-4.5,3.3V204.5z
				 M699.9,215.6c-0.1,1.2-0.2,2.3-0.2,3.1c0,1.6,0.1,2.6,0.2,3.2c1.7-1.1,3.9-4.3,3.9-5.9c0-1-0.8-1.7-1.8-1.7
				C701.1,214.3,700.4,214.8,699.9,215.6z"/>
		</g>
	</g>
	<g transform="matrix(0.7425,0,0,0.7425,0,0)">
		<line vector-effect="none" class="st0" x1="767.8" y1="213.9" x2="785" y2="213.9"/>
	</g>
	<g transform="matrix(0.7425,0,0,0.7425,0,0)">
		<line vector-effect="none" class="st3" x1="771" y1="211.2" x2="771" y2="237.9"/>
	</g>
	<g transform="matrix(0.7425,0,0,0.7425,0,0)">
		<g class="st1">
			<path d="M777.6,205.6c2.7,0,4.4,1.2,4.4,3.2c0,3-3.7,5.4-7.3,5.4c-2.2,0-3.9-1.1-3.9-2.8C770.8,208.4,774.4,205.6,777.6,205.6z
				 M771.5,211.8c0,1,0.6,1.5,1.8,1.5c2.3,0,8-3.4,8-5.2c0-1-0.6-1.5-1.8-1.5C777.4,206.5,771.5,209.8,771.5,211.8z"/>
		</g>
	</g>
	<g transform="matrix(0.7425,0,0,0.7425,0,0)">
		<g class="st1">
			<path d="M759.3,196.5h1l-0.2,10.1c0.6-1.1,1.6-1.6,3-1.6c1.9,0,3.6,1.3,3.6,3.1c-0.1,1.2-0.8,2.8-2.8,4.3l-4.5,3.3V196.5z
				 M760.2,207.6c-0.1,1.2-0.2,2.3-0.2,3.1c0,1.6,0.1,2.6,0.2,3.2c1.7-1.1,3.9-4.3,3.9-5.9c0-1-0.8-1.7-1.8-1.7
				C761.3,206.3,760.7,206.8,760.2,207.6z"/>
		</g>
	</g>
	<g transform="matrix(0.7425,0,0,0.7425,0,0)">
		<line vector-effect="none" class="st0" x1="842.2" y1="213.9" x2="859.5" y2="213.9"/>
	</g>
	<g transform="matrix(0.7425,0,0,0.7425,0,0)">
		<line vector-effect="none" class="st3" x1="845.5" y1="215.2" x2="845.5" y2="241.9"/>
	</g>
	<g transform="matrix(0.7425,0,0,0.7425,0,0)">
		<g class="st1">
			<path d="M852.1,209.6c2.7,0,4.4,1.2,4.4,3.2c0,3-3.7,5.4-7.3,5.4c-2.2,0-3.9-1.1-3.9-2.8C845.2,212.4,848.9,209.6,852.1,209.6z
				 M846,215.8c0,1,0.6,1.5,1.8,1.5c2.3,0,8-3.4,8-5.2c0-1-0.6-1.5-1.8-1.5C851.9,210.5,846,213.8,846,215.8z"/>
		</g>
	</g>
	<g transform="matrix(0.7425,0,0,0.7425,0,0)">
		<line vector-effect="none" class="st0" x1="904.5" y1="213.9" x2="921.8" y2="213.9"/>
	</g>
	<g transform="matrix(0.7425,0,0,0.7425,0,0)">
		<line vector-effect="none" class="st0" x1="904.5" y1="205.9" x2="921.8" y2="205.9"/>
	</g>
	<g transform="matrix(0.7425,0,0,0.7425,0,0)">
		<line vector-effect="none" class="st3" x1="907.8" y1="207.2" x2="907.8" y2="237.9"/>
	</g>
	<g transform="matrix(0.7425,0,0,0.7425,0,0)">
		<g class="st1">
			<path d="M914.4,201.6c2.7,0,4.4,1.2,4.4,3.2c0,3-3.7,5.4-7.3,5.4c-2.2,0-3.9-1.1-3.9-2.8C907.5,204.4,911.1,201.6,914.4,201.6z
				 M908.2,207.8c0,1,0.6,1.5,1.8,1.5c2.3,0,8-3.4,8-5.2c0-1-0.6-1.5-1.8-1.5C914.2,202.5,908.2,205.8,908.2,207.8z"/>
		</g>
	</g>
	<g transform="matrix(0.7425,0,0,0.7425,0,0)">
		<g class="st1">
			<path d="M896,192.5h1l-0.2,10.1c0.6-1.1,1.6-1.6,3-1.6c1.9,0,3.6,1.3,3.6,3.1c-0.1,1.2-0.8,2.8-2.8,4.3l-4.5,3.3V192.5z
				 M896.9,203.6c-0.1,1.2-0.2,2.3-0.2,3.1c0,1.6,0.1,2.6,0.2,3.2c1.7-1.1,3.9-4.3,3.9-5.9c0-1-0.8-1.7-1.8-1.7
				C898.1,202.3,897.4,202.8,896.9,203.6z"/>
		</g>
	</g>
	<g transform="matrix(0.7425,0,0,0.7425,0,0)">
		<line vector-effect="none" class="st0" x1="45" y1="363.7" x2="62.2" y2="363.7"/>
	</g>
	<g transform="matrix(0.7425,0,0,0.7425,0,0)">
		<line vector-effect="none" class="st3" x1="48.2" y1="360.9" x2="48.2" y2="387.7"/>
	</g>
	<g transform="matrix(0.7425,0,0,0.7425,0,0)">
		<g class="st1">
			<path d="M54.9,355.3c2.7,0,4.4,1.2,4.4,3.2c0,3-3.7,5.4-7.3,5.4c-2.2,0-3.9-1.1-3.9-2.8C48,358.2,51.6,355.3,54.9,355.3z
				 M48.7,361.5c0,1,0.6,1.5,1.8,1.5c2.3,0,8-3.4,8-5.2c0-1-0.6-1.5-1.8-1.5C54.7,356.3,48.7,359.5,48.7,361.5z"/>
		</g>
	</g>
	<g transform="matrix(0.7425,0,0,0.7425,0,0)">
		<g class="st1">
			<path d="M36.5,346.3h1l-0.2,10.1c0.6-1.1,1.6-1.6,3-1.6c1.9,0,3.6,1.3,3.6,3.1c-0.1,1.2-0.8,2.8-2.8,4.3l-4.5,3.3V346.3z
				 M37.4,357.4c-0.1,1.2-0.2,2.3-0.2,3.1c0,1.6,0.1,2.6,0.2,3.2c1.7-1.1,3.9-4.3,3.9-5.9c0-1-0.8-1.7-1.8-1.7
				C38.6,356.1,37.9,356.5,37.4,357.4z"/>
		</g>
	</g>
	<g transform="matrix(0.7425,0,0,0.7425,0,0)">
		<line vector-effect="none" class="st0" x1="136.8" y1="363.7" x2="154" y2="363.7"/>
	</g>
	<g transform="matrix(0.7425,0,0,0.7425,0,0)">
		<line vector-effect="none" class="st0" x1="136.8" y1="355.7" x2="154" y2="355.7"/>
	</g>
	<g transform="matrix(0.7425,0,0,0.7425,0,0)">
		<line vector-effect="none" class="st3" x1="140" y1="352.9" x2="140" y2="387.7"/>
	</g>
	<g transform="matrix(0.7425,0,0,0.7425,0,0)">
		<g class="st1">
			<path d="M146.6,347.3c2.7,0,4.4,1.2,4.4,3.2c0,3-3.7,5.4-7.3,5.4c-2.2,0-3.9-1.1-3.9-2.8C139.8,350.2,143.4,347.3,146.6,347.3z
				 M140.5,353.5c0,1,0.6,1.5,1.8,1.5c2.3,0,8-3.4,8-5.2c0-1-0.6-1.5-1.8-1.5C146.4,348.3,140.5,351.5,140.5,353.5z"/>
		</g>
	</g>
	<g transform="matrix(0.7425,0,0,0.7425,0,0)">
		<line vector-effect="none" class="st0" x1="242.8" y1="363.7" x2="265.8" y2="363.7"/>
	</g>
	<g transform="matrix(0.7425,0,0,0.7425,0,0)">
		<line vector-effect="none" class="st0" x1="242.8" y1="355.7" x2="265.8" y2="355.7"/>
	</g>
	<g transform="matrix(0.7425,0,0,0.7425,0,0)">
		<g class="st1">
			<path d="M254.4,351.3c3.6,0,7.3,1.9,7.3,4.3c0,2.7-3.1,4.3-7.6,4.3c-4.1,0-7.3-1.7-7.3-4.3C246.8,353.1,250.5,351.3,254.4,351.3z
				 M257.5,354.8c-1-1.9-2-2.7-4.2-2.7c-2,0-3.1,0.8-3.1,2.5c0,2.4,2.2,4.8,4.2,4.8c1.9,0,3.4-0.2,3.8-2
				C258.2,356.6,257.9,355.7,257.5,354.8z"/>
		</g>
	</g>
	<g transform="matrix(0.7425,0,0,0.7425,0,0)">
		<g class="st1">
			<path d="M234.3,342.3h1l-0.2,10.1c0.6-1.1,1.6-1.6,3-1.6c1.9,0,3.6,1.3,3.6,3.1c-0.1,1.2-0.8,2.8-2.8,4.3l-4.5,3.3V342.3z
				 M235.2,353.4c-0.1,1.2-0.2,2.3-0.2,3.1c0,1.6,0.1,2.6,0.2,3.2c1.7-1.1,3.9-4.3,3.9-5.9c0-1-0.8-1.7-1.8-1.7
				C236.3,352.1,235.7,352.5,235.2,353.4z"/>
		</g>
	</g>
	<g transform="matrix(0.7425,0,0,0.7425,0,0)">
		<line vector-effect="none" class="st3" x1="395" y1="388.9" x2="395" y2="415.7"/>
	</g>
	<g transform="matrix(0.7425,0,0,0.7425,0,0)">
		<g class="st1">
			<path d="M401.6,383.3c2.7,0,4.4,1.2,4.4,3.2c0,3-3.7,5.4-7.3,5.4c-2.2,0-3.9-1.1-3.9-2.8C394.7,386.2,398.4,383.3,401.6,383.3z
				 M395.5,389.5c0,1,0.6,1.5,1.8,1.5c2.3,0,8-3.4,8-5.2c0-1-0.6-1.5-1.8-1.5C401.4,384.3,395.5,387.5,395.5,389.5z"/>
		</g>
	</g>
	<g transform="matrix(0.7425,0,0,0.7425,0,0)">
		<line vector-effect="none" class="st3" x1="486.8" y1="380.9" x2="486.8" y2="407.7"/>
	</g>
	<g transform="matrix(0.7425,0,0,0.7425,0,0)">
		<g class="st1">
			<path d="M493.4,375.3c2.7,0,4.4,1.2,4.4,3.2c0,3-3.7,5.4-7.3,5.4c-2.2,0-3.9-1.1-3.9-2.8C486.5,378.2,490.1,375.3,493.4,375.3z
				 M487.2,381.5c0,1,0.6,1.5,1.8,1.5c2.3,0,8-3.4,8-5.2c0-1-0.6-1.5-1.8-1.5C493.2,376.3,487.2,379.5,487.2,381.5z"/>
		</g>
	</g>
	<g transform="matrix(0.7425,0,0,0.7425,0,0)">
		<line vector-effect="none" class="st3" x1="590.8" y1="384.9" x2="590.8" y2="411.7"/>
	</g>
	<g transform="matrix(0.7425,0,0,0.7425,0,0)">
		<g class="st1">
			<path d="M597.4,379.3c2.7,0,4.4,1.2,4.4,3.2c0,3-3.7,5.4-7.3,5.4c-2.2,0-3.9-1.1-3.9-2.8C590.5,382.2,594.1,379.3,597.4,379.3z
				 M591.2,385.5c0,1,0.6,1.5,1.8,1.5c2.3,0,8-3.4,8-5.2c0-1-0.6-1.5-1.8-1.5C597.2,380.3,591.2,383.5,591.2,385.5z"/>
		</g>
	</g>
	<g transform="matrix(0.7425,0,0,0.7425,0,0)">
		<line vector-effect="none" class="st3" x1="682.5" y1="376.9" x2="682.5" y2="403.7"/>
	</g>
	<g transform="matrix(0.7425,0,0,0.7425,0,0)">
		<g class="st1">
			<path d="M689.1,371.3c2.7,0,4.4,1.2,4.4,3.2c0,3-3.7,5.4-7.3,5.4c-2.2,0-3.9-1.1-3.9-2.8C682.2,374.2,685.9,371.3,689.1,371.3z
				 M683,377.5c0,1,0.6,1.5,1.8,1.5c2.3,0,8-3.4,8-5.2c0-1-0.6-1.5-1.8-1.5C688.9,372.3,683,375.5,683,377.5z"/>
		</g>
	</g>
	<g transform="matrix(0.7425,0,0,0.7425,0,0)">
		<line vector-effect="none" class="st3" x1="786.2" y1="380.9" x2="786.2" y2="407.7"/>
	</g>
	<g transform="matrix(0.7425,0,0,0.7425,0,0)">
		<g class="st1">
			<path d="M792.9,375.3c2.7,0,4.4,1.2,4.4,3.2c0,3-3.7,5.4-7.3,5.4c-2.2,0-3.9-1.1-3.9-2.8C786,378.2,789.6,375.3,792.9,375.3z
				 M786.7,381.5c0,1,0.6,1.5,1.8,1.5c2.3,0,8-3.4,8-5.2c0-1-0.6-1.5-1.8-1.5C792.7,376.3,786.7,379.5,786.7,381.5z"/>
		</g>
	</g>
	<g transform="matrix(0.7425,0,0,0.7425,0,0)">
		<line vector-effect="none" class="st3" x1="878.2" y1="372.9" x2="878.2" y2="399.7"/>
	</g>
	<g transform="matrix(0.7425,0,0,0.7425,0,0)">
		<g class="st1">
			<path d="M884.9,367.3c2.7,0,4.4,1.2,4.4,3.2c0,3-3.7,5.4-7.3,5.4c-2.2,0-3.9-1.1-3.9-2.8C878,370.2,881.6,367.3,884.9,367.3z
				 M878.7,373.5c0,1,0.6,1.5,1.8,1.5c2.3,0,8-3.4,8-5.2c0-1-0.6-1.5-1.8-1.5C884.7,368.3,878.7,371.5,878.7,373.5z"/>
		</g>
	</g>
	<g transform="matrix(0.7425,0,0,0.7425,0,0)">
		<line vector-effect="none" class="st3" x1="46.2" y1="526.4" x2="46.2" y2="553.2"/>
	</g>
	<g transform="matrix(0.7425,0,0,0.7425,0,0)">
		<g class="st1">
			<path d="M52.9,520.8c2.7,0,4.4,1.2,4.4,3.2c0,3-3.7,5.4-7.3,5.4c-2.2,0-3.9-1.1-3.9-2.8C46,523.7,49.6,520.8,52.9,520.8z
				 M46.7,527c0,1,0.6,1.5,1.8,1.5c2.3,0,8-3.4,8-5.2c0-1-0.6-1.5-1.8-1.5C52.7,521.8,46.7,525,46.7,527z"/>
		</g>
	</g>
	<g transform="matrix(0.7425,0,0,0.7425,0,0)">
		<line vector-effect="none" class="st3" x1="138.2" y1="518.4" x2="138.2" y2="545.2"/>
	</g>
	<g transform="matrix(0.7425,0,0,0.7425,0,0)">
		<g class="st1">
			<path d="M144.9,512.8c2.7,0,4.4,1.2,4.4,3.2c0,3-3.7,5.4-7.3,5.4c-2.2,0-3.9-1.1-3.9-2.8C138,515.7,141.6,512.8,144.9,512.8z
				 M138.7,519c0,1,0.6,1.5,1.8,1.5c2.3,0,8-3.4,8-5.2c0-1-0.6-1.5-1.8-1.5C144.7,513.8,138.7,517,138.7,519z"/>
		</g>
	</g>
	<g transform="matrix(0.7425,0,0,0.7425,0,0)">
		<line vector-effect="none" class="st3" x1="242.5" y1="522.4" x2="242.5" y2="549.2"/>
	</g>
	<g transform="matrix(0.7425,0,0,0.7425,0,0)">
		<g class="st1">
			<path d="M249.1,516.8c2.7,0,4.4,1.2,4.4,3.2c0,3-3.7,5.4-7.3,5.4c-2.2,0-3.9-1.1-3.9-2.8C242.2,519.7,245.9,516.8,249.1,516.8z
				 M243,523c0,1,0.6,1.5,1.8,1.5c2.3,0,8-3.4,8-5.2c0-1-0.6-1.5-1.8-1.5C248.9,517.8,243,521,243,523z"/>
		</g>
	</g>
	<g transform="matrix(0.7425,0,0,0.7425,0,0)">
		<line vector-effect="none" class="st0" x1="331.2" y1="513.2" x2="348.5" y2="513.2"/>
	</g>
	<g transform="matrix(0.7425,0,0,0.7425,0,0)">
		<line vector-effect="none" class="st3" x1="334.5" y1="514.4" x2="334.5" y2="541.2"/>
	</g>
	<g transform="matrix(0.7425,0,0,0.7425,0,0)">
		<g class="st1">
			<path d="M341.1,508.8c2.7,0,4.4,1.2,4.4,3.2c0,3-3.7,5.4-7.3,5.4c-2.2,0-3.9-1.1-3.9-2.8C334.3,511.7,337.9,508.8,341.1,508.8z
				 M335,515c0,1,0.6,1.5,1.8,1.5c2.3,0,8-3.4,8-5.2c0-1-0.6-1.5-1.8-1.5C340.9,509.8,335,513,335,515z"/>
		</g>
	</g>
	<g transform="matrix(0.7425,0,0,0.7425,0,0)">
		<line vector-effect="none" class="st3" x1="438.5" y1="518.4" x2="438.5" y2="545.2"/>
	</g>
	<g transform="matrix(0.7425,0,0,0.7425,0,0)">
		<g class="st1">
			<path d="M445.1,512.8c2.7,0,4.4,1.2,4.4,3.2c0,3-3.7,5.4-7.3,5.4c-2.2,0-3.9-1.1-3.9-2.8C438.2,515.7,441.9,512.8,445.1,512.8z
				 M439,519c0,1,0.6,1.5,1.8,1.5c2.3,0,8-3.4,8-5.2c0-1-0.6-1.5-1.8-1.5C444.9,513.8,439,517,439,519z"/>
		</g>
	</g>
	<g transform="matrix(0.7425,0,0,0.7425,0,0)">
		<line vector-effect="none" class="st0" x1="527.2" y1="513.2" x2="544.5" y2="513.2"/>
	</g>
	<g transform="matrix(0.7425,0,0,0.7425,0,0)">
		<line vector-effect="none" class="st3" x1="530.5" y1="510.4" x2="530.5" y2="537.2"/>
	</g>
	<g transform="matrix(0.7425,0,0,0.7425,0,0)">
		<g class="st1">
			<path d="M537.1,504.8c2.7,0,4.4,1.2,4.4,3.2c0,3-3.7,5.4-7.3,5.4c-2.2,0-3.9-1.1-3.9-2.8C530.3,507.7,533.9,504.8,537.1,504.8z
				 M531,511c0,1,0.6,1.5,1.8,1.5c2.3,0,8-3.4,8-5.2c0-1-0.6-1.5-1.8-1.5C536.9,505.8,531,509,531,511z"/>
		</g>
	</g>
	<g transform="matrix(0.7425,0,0,0.7425,0,0)">
		<line vector-effect="none" class="st0" x1="631.5" y1="513.2" x2="648.8" y2="513.2"/>
	</g>
	<g transform="matrix(0.7425,0,0,0.7425,0,0)">
		<line vector-effect="none" class="st3" x1="634.8" y1="514.4" x2="634.8" y2="541.2"/>
	</g>
	<g transform="matrix(0.7425,0,0,0.7425,0,0)">
		<g class="st1">
			<path d="M641.4,508.8c2.7,0,4.4,1.2,4.4,3.2c0,3-3.7,5.4-7.3,5.4c-2.2,0-3.9-1.1-3.9-2.8C634.5,511.7,638.1,508.8,641.4,508.8z
				 M635.2,515c0,1,0.6,1.5,1.8,1.5c2.3,0,8-3.4,8-5.2c0-1-0.6-1.5-1.8-1.5C641.2,509.8,635.2,513,635.2,515z"/>
		</g>
	</g>
	<g transform="matrix(0.7425,0,0,0.7425,0,0)">
		<line vector-effect="none" class="st0" x1="723.5" y1="513.2" x2="740.8" y2="513.2"/>
	</g>
	<g transform="matrix(0.7425,0,0,0.7425,0,0)">
		<line vector-effect="none" class="st0" x1="723.5" y1="505.2" x2="740.8" y2="505.2"/>
	</g>
	<g transform="matrix(0.7425,0,0,0.7425,0,0)">
		<line vector-effect="none" class="st3" x1="726.8" y1="506.4" x2="726.8" y2="537.2"/>
	</g>
	<g transform="matrix(0.7425,0,0,0.7425,0,0)">
		<g class="st1">
			<path d="M733.4,500.8c2.7,0,4.4,1.2,4.4,3.2c0,3-3.7,5.4-7.3,5.4c-2.2,0-3.9-1.1-3.9-2.8C726.5,503.7,730.1,500.8,733.4,500.8z
				 M727.2,507c0,1,0.6,1.5,1.8,1.5c2.3,0,8-3.4,8-5.2c0-1-0.6-1.5-1.8-1.5C733.2,501.8,727.2,505,727.2,507z"/>
		</g>
	</g>
	<g transform="matrix(0.7425,0,0,0.7425,0,0)">
		<line vector-effect="none" class="st0" x1="826.5" y1="513.2" x2="849.5" y2="513.2"/>
	</g>
	<g transform="matrix(0.7425,0,0,0.7425,0,0)">
		<g class="st1">
			<path d="M838.1,504.8c3.6,0,7.3,1.9,7.3,4.3c0,2.7-3.1,4.3-7.6,4.3c-4.1,0-7.3-1.7-7.3-4.3C830.5,506.6,834.2,504.8,838.1,504.8z
				 M841.2,508.3c-1-1.9-2-2.7-4.2-2.7c-2,0-3.1,0.8-3.1,2.5c0,2.4,2.2,4.8,4.2,4.8c1.9,0,3.4-0.2,3.8-2
				C842,510.1,841.7,509.2,841.2,508.3z"/>
		</g>
	</g>
</g>
</svg>
