<?xml version="1.0" encoding="utf-8"?>
<!-- Generator: Adobe Illustrator 26.3.1, SVG Export Plug-In . SVG Version: 6.00 Build 0)  -->
<svg version="1.1" id="Layer_1" xmlns="http://www.w3.org/2000/svg" xmlns:xlink="http://www.w3.org/1999/xlink" x="0px" y="0px"
	 viewBox="0 0 720 432" style="enable-background:new 0 0 720 432;" xml:space="preserve">
<style type="text/css">
	.st0{fill:none;stroke:#000000;stroke-width:0.9281;stroke-linejoin:bevel;stroke-miterlimit:10;}
	.st1{enable-background:new    ;}
	.st2{fill:none;stroke:#000000;stroke-width:2.97;stroke-linejoin:bevel;stroke-miterlimit:10;}
	.st3{fill:none;stroke:#000000;stroke-width:0.5569;stroke-linejoin:bevel;stroke-miterlimit:10;}
</style>
<g>
	<g transform="matrix(0.7425,0,0,0.7425,0,0)">
		<line vector-effect="none" class="st0" x1="180" y1="72.4" x2="180" y2="104.4"/>
	</g>
	<g transform="matrix(0.7425,0,0,0.7425,0,0)">
		<line vector-effect="none" class="st0" x1="311.5" y1="72.4" x2="311.5" y2="104.4"/>
	</g>
	<g transform="matrix(0.7425,0,0,0.7425,0,0)">
		<line vector-effect="none" class="st0" x1="443" y1="72.4" x2="443" y2="104.4"/>
	</g>
	<g transform="matrix(0.7425,0,0,0.7425,0,0)">
		<line vector-effect="none" class="st0" x1="574.8" y1="72.4" x2="574.8" y2="104.4"/>
	</g>
	<g transform="matrix(0.7425,0,0,0.7425,0,0)">
		<line vector-effect="none" class="st0" x1="706.2" y1="72.4" x2="706.2" y2="104.4"/>
	</g>
	<g transform="matrix(0.7425,0,0,0.7425,0,0)">
		<line vector-effect="none" class="st0" x1="837.8" y1="72.4" x2="837.8" y2="104.4"/>
	</g>
	<g transform="matrix(0.7425,0,0,0.7425,0,0)">
		<line vector-effect="none" class="st0" x1="969.2" y1="72.4" x2="969.2" y2="104.4"/>
	</g>
	<g transform="matrix(0.7425,0,0,0.7425,0,0)">
	</g>
	<g transform="matrix(0.7425,0,0,0.7425,153.697,102.19)">
	</g>
	<g transform="matrix(0.7425,0,0,0.7425,153.697,102.19)">
		<g class="st1">
			<path d="M-150-85.2h-5v-0.4c1.5,0,1.6-0.3,1.6-1.7v-7.5c0-1.4-0.1-1.7-1.6-1.7V-97h5.6c0.8,0,1.7,0.2,2.6,0.5
				c2.5,0.9,3.7,2.7,3.7,5.4C-143-87.4-145.7-85.2-150-85.2z M-150.1-96.3c-1.4,0-1.4,0.2-1.4,1.6v7.1c0,1.4,0,1.6,1.5,1.6
				c3.3,0,5.1-1.8,5.1-5C-145-94.3-146.8-96.3-150.1-96.3z"/>
			<path d="M-133.9-85.2v-0.3c0.7,0,1-0.2,1-1.2v-3.7c0-0.9-0.4-1.3-1.2-1.3c-0.6,0-1.3,0.3-1.8,1c0.1,0.1,0.1,0.5,0.1,1.1v1.6
				c0,0.8,0,1.2,0,1.2c0,1.1,0.2,1.3,1,1.3v0.3h-3.4v-0.3c0.7,0,1-0.2,1-1.2v-3.7c0-0.9-0.4-1.3-1.1-1.3c-0.6,0-1.2,0.3-1.8,1v4.1
				c0,0.9,0.3,1.1,1,1.1v0.3h-3.4v-0.3c0.9,0,1-0.3,1-1.3v-4c0-0.4-0.1-0.6-0.3-0.6h-0.8v-0.3l2.4-0.8v1.3c0.7-0.9,1.5-1.3,2.5-1.3
				c0.9,0,1.4,0.4,1.6,1.3c0.8-0.9,1.7-1.3,2.7-1.3c0.5,0,0.9,0.1,1.2,0.4c0.3,0.3,0.6,1.3,0.6,1.8v3.6c0,1.1,0.2,1.3,1,1.3v0.3
				H-133.9z"/>
			<path d="M-127.6-89.8h-0.7l2.4-7.4h-2.5c-0.7,0-1.2,0.4-1.5,1.1l-0.2-0.1l0.7-2h4.6L-127.6-89.8z"/>
		</g>
	</g>
	<g transform="matrix(0.7425,0,0,0.7425,153.697,102.19)">
	</g>
	<g transform="matrix(0.7425,0,0,0.7425,0,0)">
	</g>
	<g transform="matrix(0.7425,0,0,0.7425,0,0)">
		<line vector-effect="none" class="st0" x1="175.8" y1="221.9" x2="175.8" y2="253.9"/>
	</g>
	<g transform="matrix(0.7425,0,0,0.7425,0,0)">
		<line vector-effect="none" class="st2" x1="181.2" y1="221.9" x2="181.2" y2="253.9"/>
	</g>
	<g transform="matrix(0.7425,0,0,0.7425,0,0)">
		<g class="st1">
			<path d="M172,233.9c0,0.7-0.7,1.4-1.5,1.4c-0.7,0-1.5-0.7-1.5-1.4c0-0.9,0.7-1.5,1.5-1.5C171.4,232.4,172,233.1,172,233.9z"/>
		</g>
	</g>
	<g transform="matrix(0.7425,0,0,0.7425,0,0)">
		<g class="st1">
			<path d="M172,241.9c0,0.7-0.7,1.4-1.5,1.4c-0.7,0-1.5-0.7-1.5-1.4c0-0.9,0.7-1.5,1.5-1.5C171.4,240.4,172,241.1,172,241.9z"/>
		</g>
	</g>
	<g transform="matrix(0.7425,0,0,0.7425,0,0)">
		<line vector-effect="none" class="st0" x1="314" y1="221.9" x2="314" y2="253.9"/>
	</g>
	<g transform="matrix(0.7425,0,0,0.7425,0,0)">
		<line vector-effect="none" class="st0" x1="445" y1="221.9" x2="445" y2="253.9"/>
	</g>
	<g transform="matrix(0.7425,0,0,0.7425,0,0)">
		<line vector-effect="none" class="st0" x1="576" y1="221.9" x2="576" y2="253.9"/>
	</g>
	<g transform="matrix(0.7425,0,0,0.7425,0,0)">
		<line vector-effect="none" class="st0" x1="707" y1="221.9" x2="707" y2="253.9"/>
	</g>
	<g transform="matrix(0.7425,0,0,0.7425,0,0)">
		<line vector-effect="none" class="st0" x1="838.2" y1="221.9" x2="838.2" y2="253.9"/>
	</g>
	<g transform="matrix(0.7425,0,0,0.7425,0,0)">
		<line vector-effect="none" class="st0" x1="969.2" y1="221.9" x2="969.2" y2="253.9"/>
	</g>
	<g transform="matrix(0.7425,0,0,0.7425,0,0)">
	</g>
	<g transform="matrix(0.7425,0,0,0.7425,544.995,546.205)">
	</g>
	<g transform="matrix(0.7425,0,0,0.7425,544.995,546.205)">
		<g class="st1">
			<path d="M-540.5-533.7h-9.7v-0.4c1.5,0,1.6-0.3,1.6-1.7v-7.5c0-1.4-0.1-1.7-1.6-1.7v-0.4h9.6v2.7h-0.4c-0.1-1.2-0.7-1.8-1.7-1.8
				h-3.1c-0.8,0-1,0.4-1,1.2v3.3h3.1c1,0,1.7-0.7,1.7-1.7h0.4v4.2h-0.4c0-1-0.7-1.7-1.7-1.7h-3.1v3.7c0,0.8,0.2,1.2,1,1.2h3
				c1.2,0,2.3-1,2.6-2.2h0.5L-540.5-533.7z"/>
			<path d="M-538.5-546.4h0.8l-0.1,6.4c0.9-1,1.1-1.1,1.9-1.1c1.3,0,2.2,0.9,2.2,2.3c0,2-2,2.8-3.6,4.1l-1.2,1V-546.4z
				 M-537.7-539.1c-0.1,1.3-0.1,2.1-0.1,2.5c0,0.6,0.1,1.2,0.2,1.5c1.7-1.3,2.5-2.6,2.5-3.7c0-0.9-0.5-1.6-1.3-1.6
				C-537.1-540.4-537.4-539.7-537.7-539.1z"/>
			<path d="M-524.2-533.7v-0.3c0.7,0,1-0.2,1-1.2v-3.7c0-0.9-0.4-1.3-1.2-1.3c-0.6,0-1.3,0.3-1.8,1c0.1,0.1,0.1,0.5,0.1,1.1v1.6
				c0,0.8,0,1.2,0,1.2c0,1.1,0.2,1.3,1,1.3v0.3h-3.4v-0.3c0.7,0,1-0.2,1-1.2v-3.7c0-0.9-0.4-1.3-1.1-1.3c-0.6,0-1.2,0.3-1.8,1v4.1
				c0,0.9,0.3,1.1,1,1.1v0.3h-3.4v-0.3c0.9,0,1-0.3,1-1.3v-4c0-0.4-0.1-0.6-0.3-0.6h-0.8v-0.3l2.4-0.8v1.3c0.7-0.9,1.5-1.3,2.5-1.3
				c0.9,0,1.4,0.4,1.6,1.3c0.8-0.9,1.7-1.3,2.7-1.3c0.5,0,0.9,0.1,1.2,0.4c0.3,0.3,0.6,1.3,0.6,1.8v3.6c0,1.1,0.2,1.3,1,1.3v0.3
				H-524.2z"/>
			<path d="M-517.9-538.3h-0.7l2.4-7.4h-2.5c-0.7,0-1.2,0.4-1.5,1.1l-0.2-0.1l0.7-2h4.6L-517.9-538.3z"/>
		</g>
	</g>
	<g transform="matrix(0.7425,0,0,0.7425,544.995,546.205)">
	</g>
	<g transform="matrix(0.7425,0,0,0.7425,0,0)">
	</g>
	<g transform="matrix(0.7425,0,0,0.7425,0,0)">
		<line vector-effect="none" class="st0" x1="218.8" y1="371.7" x2="218.8" y2="403.7"/>
	</g>
	<g transform="matrix(0.7425,0,0,0.7425,0,0)">
		<line vector-effect="none" class="st0" x1="409.2" y1="371.7" x2="409.2" y2="403.7"/>
	</g>
	<g transform="matrix(0.7425,0,0,0.7425,0,0)">
		<line vector-effect="none" class="st0" x1="413.5" y1="371.7" x2="413.5" y2="403.7"/>
	</g>
	<g transform="matrix(0.7425,0,0,0.7425,0,0)">
		<line vector-effect="none" class="st0" x1="598.8" y1="371.7" x2="598.8" y2="403.7"/>
	</g>
	<g transform="matrix(0.7425,0,0,0.7425,0,0)">
		<line vector-effect="none" class="st0" x1="784" y1="371.7" x2="784" y2="403.7"/>
	</g>
	<g transform="matrix(0.7425,0,0,0.7425,0,0)">
		<line vector-effect="none" class="st0" x1="969.2" y1="371.7" x2="969.2" y2="403.7"/>
	</g>
	<g transform="matrix(0.7425,0,0,0.7425,0,0)">
	</g>
	<g transform="matrix(0.7425,0,0,0.7425,1237.75,990.962)">
	</g>
	<g transform="matrix(0.7425,0,0,0.7425,1237.75,990.962)">
		<g class="st1">
			<path d="M-1245-983h-5v-0.4c1.5,0,1.6-0.3,1.6-1.7v-7.5c0-1.4-0.1-1.7-1.6-1.7v-0.4h5.6c0.8,0,1.7,0.2,2.6,0.5
				c2.4,0.9,3.7,2.7,3.7,5.4C-1238-985.1-1240.7-983-1245-983z M-1245.1-994.1c-1.4,0-1.4,0.2-1.4,1.6v7.1c0,1.4,0,1.6,1.5,1.6
				c3.3,0,5.1-1.8,5.1-5C-1240-992-1241.8-994.1-1245.1-994.1z"/>
			<path d="M-1228.9-983v-0.3c0.7,0,1-0.2,1-1.2v-3.7c0-0.9-0.4-1.3-1.2-1.3c-0.6,0-1.3,0.3-1.8,1c0.1,0.1,0.1,0.5,0.1,1.1v1.6
				c0,0.8,0,1.2,0,1.2c0,1.1,0.2,1.3,1,1.3v0.3h-3.4v-0.3c0.7,0,1-0.2,1-1.2v-3.7c0-0.9-0.4-1.3-1.1-1.3c-0.6,0-1.2,0.3-1.8,1v4.1
				c0,0.9,0.3,1.1,1,1.1v0.3h-3.4v-0.3c0.9,0,1-0.3,1-1.3v-4c0-0.4-0.1-0.6-0.3-0.6h-0.8v-0.3l2.4-0.8v1.3c0.7-0.9,1.5-1.3,2.5-1.3
				c0.9,0,1.4,0.4,1.6,1.3c0.8-0.9,1.7-1.3,2.7-1.3c0.5,0,0.9,0.1,1.2,0.4c0.3,0.3,0.6,1.3,0.6,1.8v3.6c0,1.1,0.2,1.3,1,1.3v0.3
				H-1228.9z"/>
			<path d="M-1222.6-987.6h-0.7l2.4-7.4h-2.5c-0.7,0-1.2,0.4-1.5,1.1l-0.2-0.1l0.7-2h4.6L-1222.6-987.6z"/>
		</g>
	</g>
	<g transform="matrix(0.7425,0,0,0.7425,1237.75,990.962)">
	</g>
	<g transform="matrix(0.7425,0,0,0.7425,0,0)">
	</g>
	<g transform="matrix(0.7425,0,0,0.7425,0,0)">
		<line vector-effect="none" class="st0" x1="218.2" y1="521.2" x2="218.2" y2="553.2"/>
	</g>
	<g transform="matrix(0.7425,0,0,0.7425,0,0)">
		<line vector-effect="none" class="st0" x1="403" y1="521.2" x2="403" y2="553.2"/>
	</g>
	<g transform="matrix(0.7425,0,0,0.7425,0,0)">
		<line vector-effect="none" class="st0" x1="587.5" y1="521.2" x2="587.5" y2="553.2"/>
	</g>
	<g transform="matrix(0.7425,0,0,0.7425,0,0)">
		<line vector-effect="none" class="st0" x1="772.2" y1="521.2" x2="772.2" y2="553.2"/>
	</g>
	<g transform="matrix(0.7425,0,0,0.7425,0,0)">
		<line vector-effect="none" class="st0" x1="962.2" y1="521.2" x2="962.2" y2="553.2"/>
	</g>
	<g transform="matrix(0.7425,0,0,0.7425,0,0)">
		<line vector-effect="none" class="st2" x1="967.8" y1="521.2" x2="967.8" y2="553.2"/>
	</g>
	<g transform="matrix(0.7425,0,0,0.7425,0,0)">
	</g>
	<g transform="matrix(0.7425,0,0,0.7425,106.177,117.388)">
	</g>
	<g transform="matrix(0.7425,0,0,0.7425,106.177,117.388)">
		<g class="st1">
			<path d="M-96.6-73.8v0.8c0,0.3,0,0.5,0,0.6c0,0.8,0.3,1,1.8,1.1l0.1,0.9h-7.9l0.1-0.9c1-0.1,1.6-0.3,1.8-0.6
				c0.1-0.2,0.1-0.8,0.1-1.9h-6.6v-1.3c2-2.5,3.8-7.1,4.1-10.3h5.5c-0.3,1.5-1.5,3.2-3.4,5.2c-2.2,2.2-3.5,3.8-4,5.1h4.4v-3.7l4-3.6
				v7.3h2v1.4H-96.6z"/>
		</g>
	</g>
	<g transform="matrix(0.7425,0,0,0.7425,106.177,117.388)">
		<g class="st1">
			<path d="M-96.6-57.6v0.8c0,0.3,0,0.5,0,0.6c0,0.8,0.3,1,1.8,1.1l0.1,0.9h-7.9l0.1-0.9c1-0.1,1.6-0.3,1.8-0.6
				c0.1-0.2,0.1-0.8,0.1-1.9h-6.6v-1.3c2-2.5,3.8-7.1,4.1-10.3h5.5c-0.3,1.5-1.5,3.2-3.4,5.2c-2.2,2.2-3.5,3.8-4,5.1h4.4v-3.7l4-3.6
				v7.3h2v1.4H-96.6z"/>
		</g>
	</g>
	<g transform="matrix(0.7425,0,0,0.7425,106.177,117.388)">
	</g>
	<g transform="matrix(0.7425,0,0,0.7425,0,0)">
	</g>
	<g transform="matrix(0.7425,0,0,0.7425,0,0)">
		<line vector-effect="none" class="st3" x1="0" y1="104.4" x2="969.8" y2="104.4"/>
	</g>
	<g transform="matrix(0.7425,0,0,0.7425,0,0)">
		<line vector-effect="none" class="st3" x1="0" y1="96.4" x2="969.8" y2="96.4"/>
	</g>
	<g transform="matrix(0.7425,0,0,0.7425,0,0)">
		<line vector-effect="none" class="st3" x1="0" y1="88.4" x2="969.8" y2="88.4"/>
	</g>
	<g transform="matrix(0.7425,0,0,0.7425,0,0)">
		<line vector-effect="none" class="st3" x1="0" y1="80.4" x2="969.8" y2="80.4"/>
	</g>
	<g transform="matrix(0.7425,0,0,0.7425,0,0)">
		<line vector-effect="none" class="st3" x1="0" y1="72.4" x2="969.8" y2="72.4"/>
	</g>
	<g transform="matrix(0.7425,0,0,0.7425,0,0)">
		<g class="st1">
			<path d="M11.7,95.3c4.7-4.2,7.6-9.8,7.6-14.9c0-4.1-2.3-7.1-6-7.1c-2.6,0-5.4,2.2-5.4,4.4c0,0.4,0.1,0.5,0.2,0.5
				c-0.1,0,0.9-1,2.2-1c1.4,0,2.5,1.3,2.5,2.8c0,2-1.4,3.6-3.4,3.6c-2,0-3.3-2.1-3.3-4.6c0-3.8,3.7-6.7,7.8-6.7
				c7.5,0,9.5,5.2,9.5,9.4c0,2.7-0.7,4.7-3.2,8.6c-3.1,4.9-10.4,8.5-13,8.5c-0.7,0-1-0.3-1-0.7C8.6,97.3,10.4,96.4,11.7,95.3z
				 M27.8,74.8c0.9,0,1.6,0.7,1.6,1.6S28.7,78,27.8,78c-0.9,0-1.6-0.7-1.6-1.6S26.9,74.8,27.8,74.8z M27.8,82.8
				c0.9,0,1.6,0.7,1.6,1.6c0,0.9-0.7,1.6-1.6,1.6c-0.9,0-1.6-0.7-1.6-1.6C26.2,83.5,26.9,82.8,27.8,82.8z"/>
		</g>
	</g>
	<g transform="matrix(0.7425,0,0,0.7425,0,0)">
		<line vector-effect="none" class="st3" x1="0" y1="253.9" x2="969.8" y2="253.9"/>
	</g>
	<g transform="matrix(0.7425,0,0,0.7425,0,0)">
		<line vector-effect="none" class="st3" x1="0" y1="245.9" x2="969.8" y2="245.9"/>
	</g>
	<g transform="matrix(0.7425,0,0,0.7425,0,0)">
		<line vector-effect="none" class="st3" x1="0" y1="237.9" x2="969.8" y2="237.9"/>
	</g>
	<g transform="matrix(0.7425,0,0,0.7425,0,0)">
		<line vector-effect="none" class="st3" x1="0" y1="229.9" x2="969.8" y2="229.9"/>
	</g>
	<g transform="matrix(0.7425,0,0,0.7425,0,0)">
		<line vector-effect="none" class="st3" x1="0" y1="221.9" x2="969.8" y2="221.9"/>
	</g>
	<g transform="matrix(0.7425,0,0,0.7425,0,0)">
		<g class="st1">
			<path d="M11.7,244.8c4.7-4.2,7.6-9.8,7.6-14.9c0-4.1-2.3-7.1-6-7.1c-2.6,0-5.4,2.2-5.4,4.4c0,0.4,0.1,0.5,0.2,0.5
				c-0.1,0,0.9-1,2.2-1c1.4,0,2.5,1.3,2.5,2.8c0,2-1.4,3.6-3.4,3.6c-2,0-3.3-2.1-3.3-4.6c0-3.8,3.7-6.7,7.8-6.7
				c7.5,0,9.5,5.2,9.5,9.4c0,2.7-0.7,4.7-3.2,8.6c-3.1,4.9-10.4,8.5-13,8.5c-0.7,0-1-0.3-1-0.7C8.6,246.8,10.4,245.9,11.7,244.8z
				 M27.8,224.3c0.9,0,1.6,0.7,1.6,1.6c0,0.9-0.7,1.6-1.6,1.6c-0.9,0-1.6-0.7-1.6-1.6C26.2,225,26.9,224.3,27.8,224.3z M27.8,232.3
				c0.9,0,1.6,0.7,1.6,1.6c0,0.9-0.7,1.6-1.6,1.6c-0.9,0-1.6-0.7-1.6-1.6C26.2,233,26.9,232.3,27.8,232.3z"/>
		</g>
	</g>
	<g transform="matrix(0.7425,0,0,0.7425,0,0)">
		<line vector-effect="none" class="st3" x1="0" y1="403.7" x2="969.8" y2="403.7"/>
	</g>
	<g transform="matrix(0.7425,0,0,0.7425,0,0)">
		<line vector-effect="none" class="st3" x1="0" y1="395.7" x2="969.8" y2="395.7"/>
	</g>
	<g transform="matrix(0.7425,0,0,0.7425,0,0)">
		<line vector-effect="none" class="st3" x1="0" y1="387.7" x2="969.8" y2="387.7"/>
	</g>
	<g transform="matrix(0.7425,0,0,0.7425,0,0)">
		<line vector-effect="none" class="st3" x1="0" y1="379.7" x2="969.8" y2="379.7"/>
	</g>
	<g transform="matrix(0.7425,0,0,0.7425,0,0)">
		<line vector-effect="none" class="st3" x1="0" y1="371.7" x2="969.8" y2="371.7"/>
	</g>
	<g transform="matrix(0.7425,0,0,0.7425,0,0)">
		<g class="st1">
			<path d="M11.7,394.5c4.7-4.2,7.6-9.8,7.6-14.9c0-4.1-2.3-7.1-6-7.1c-2.6,0-5.4,2.2-5.4,4.4c0,0.4,0.1,0.5,0.2,0.5
				c-0.1,0,0.9-1,2.2-1c1.4,0,2.5,1.3,2.5,2.8c0,2-1.4,3.6-3.4,3.6c-2,0-3.3-2.1-3.3-4.6c0-3.8,3.7-6.7,7.8-6.7
				c7.5,0,9.5,5.2,9.5,9.4c0,2.7-0.7,4.7-3.2,8.6c-3.1,4.9-10.4,8.5-13,8.5c-0.7,0-1-0.3-1-0.7C8.6,396.6,10.4,395.7,11.7,394.5z
				 M27.8,374.1c0.9,0,1.6,0.7,1.6,1.6c0,0.9-0.7,1.6-1.6,1.6c-0.9,0-1.6-0.7-1.6-1.6C26.2,374.8,26.9,374.1,27.8,374.1z M27.8,382
				c0.9,0,1.6,0.7,1.6,1.6c0,0.9-0.7,1.6-1.6,1.6c-0.9,0-1.6-0.7-1.6-1.6C26.2,382.7,26.9,382,27.8,382z"/>
		</g>
	</g>
	<g transform="matrix(0.7425,0,0,0.7425,0,0)">
		<line vector-effect="none" class="st3" x1="0" y1="553.2" x2="969.8" y2="553.2"/>
	</g>
	<g transform="matrix(0.7425,0,0,0.7425,0,0)">
		<line vector-effect="none" class="st3" x1="0" y1="545.2" x2="969.8" y2="545.2"/>
	</g>
	<g transform="matrix(0.7425,0,0,0.7425,0,0)">
		<line vector-effect="none" class="st3" x1="0" y1="537.2" x2="969.8" y2="537.2"/>
	</g>
	<g transform="matrix(0.7425,0,0,0.7425,0,0)">
		<line vector-effect="none" class="st3" x1="0" y1="529.2" x2="969.8" y2="529.2"/>
	</g>
	<g transform="matrix(0.7425,0,0,0.7425,0,0)">
		<line vector-effect="none" class="st3" x1="0" y1="521.2" x2="969.8" y2="521.2"/>
	</g>
	<g transform="matrix(0.7425,0,0,0.7425,0,0)">
		<g class="st1">
			<path d="M11.7,544c4.7-4.2,7.6-9.8,7.6-14.9c0-4.1-2.3-7.1-6-7.1c-2.6,0-5.4,2.2-5.4,4.4c0,0.4,0.1,0.5,0.2,0.5
				c-0.1,0,0.9-1,2.2-1c1.4,0,2.5,1.3,2.5,2.8c0,2-1.4,3.6-3.4,3.6c-2,0-3.3-2.1-3.3-4.6c0-3.8,3.7-6.7,7.8-6.7
				c7.5,0,9.5,5.2,9.5,9.4c0,2.7-0.7,4.7-3.2,8.6c-3.1,4.9-10.4,8.5-13,8.5c-0.7,0-1-0.3-1-0.7C8.6,546.1,10.4,545.2,11.7,544z
				 M27.8,523.6c0.9,0,1.6,0.7,1.6,1.6c0,0.9-0.7,1.6-1.6,1.6c-0.9,0-1.6-0.7-1.6-1.6C26.2,524.3,26.9,523.6,27.8,523.6z
				 M27.8,531.5c0.9,0,1.6,0.7,1.6,1.6c0,0.9-0.7,1.6-1.6,1.6c-0.9,0-1.6-0.7-1.6-1.6C26.2,532.2,26.9,531.5,27.8,531.5z"/>
		</g>
	</g>
	<g transform="matrix(0.7425,0,0,0.7425,0,0)">
		<line vector-effect="none" class="st3" x1="61.2" y1="89.7" x2="61.2" y2="116.4"/>
	</g>
	<g transform="matrix(0.7425,0,0,0.7425,0,0)">
		<g class="st1">
			<path d="M61,89.8c0-2.9,4.1-5.6,7.3-5.6c2.1,0,3.6,1.1,3.6,2.8c0,2.8-4.1,5.6-7.4,5.6C62.6,92.6,61,91.6,61,89.8z"/>
		</g>
	</g>
	<g transform="matrix(0.7425,0,0,0.7425,0,0)">
		<line vector-effect="none" class="st3" x1="91.2" y1="85.7" x2="91.2" y2="112.4"/>
	</g>
	<g transform="matrix(0.7425,0,0,0.7425,0,0)">
		<g class="st1">
			<path d="M91,85.8c0-2.9,4.1-5.6,7.3-5.6c2.1,0,3.6,1.1,3.6,2.8c0,2.8-4.1,5.6-7.4,5.6C92.6,88.6,91,87.6,91,85.8z"/>
		</g>
	</g>
	<g transform="matrix(0.7425,0,0,0.7425,0,0)">
		<line vector-effect="none" class="st3" x1="121" y1="81.7" x2="121" y2="108.4"/>
	</g>
	<g transform="matrix(0.7425,0,0,0.7425,0,0)">
		<g class="st1">
			<path d="M120.8,81.8c0-2.9,4.1-5.6,7.3-5.6c2.1,0,3.6,1.1,3.6,2.8c0,2.8-4.1,5.6-7.4,5.6C122.3,84.6,120.8,83.6,120.8,81.8z"/>
		</g>
	</g>
	<g transform="matrix(0.7425,0,0,0.7425,0,0)">
		<line vector-effect="none" class="st3" x1="151" y1="77.7" x2="151" y2="104.4"/>
	</g>
	<g transform="matrix(0.7425,0,0,0.7425,0,0)">
		<g class="st1">
			<path d="M150.8,77.8c0-2.9,4.1-5.6,7.3-5.6c2.1,0,3.6,1.1,3.6,2.8c0,2.8-4.1,5.6-7.4,5.6C152.3,80.6,150.8,79.6,150.8,77.8z"/>
		</g>
	</g>
	<g transform="matrix(0.7425,0,0,0.7425,0,0)">
		<line vector-effect="none" class="st3" x1="192.8" y1="73.7" x2="192.8" y2="100.4"/>
	</g>
	<g transform="matrix(0.7425,0,0,0.7425,0,0)">
		<g class="st1">
			<path d="M192.5,73.8c0-2.9,4.1-5.6,7.3-5.6c2.1,0,3.6,1.1,3.6,2.8c0,2.8-4.1,5.6-7.4,5.6C194.1,76.6,192.5,75.6,192.5,73.8z"/>
		</g>
	</g>
	<g transform="matrix(0.7425,0,0,0.7425,0,0)">
		<line vector-effect="none" class="st3" x1="222.8" y1="69.7" x2="222.8" y2="96.4"/>
	</g>
	<g transform="matrix(0.7425,0,0,0.7425,0,0)">
		<g class="st1">
			<path d="M222.5,69.8c0-2.9,4.1-5.6,7.3-5.6c2.1,0,3.6,1.1,3.6,2.8c0,2.8-4.1,5.6-7.4,5.6C224.1,72.6,222.5,71.6,222.5,69.8z"/>
		</g>
	</g>
	<g transform="matrix(0.7425,0,0,0.7425,0,0)">
		<line vector-effect="none" class="st0" x1="249.2" y1="64.4" x2="266.2" y2="64.4"/>
	</g>
	<g transform="matrix(0.7425,0,0,0.7425,0,0)">
		<line vector-effect="none" class="st3" x1="252.5" y1="65.7" x2="252.5" y2="92.4"/>
	</g>
	<g transform="matrix(0.7425,0,0,0.7425,0,0)">
		<g class="st1">
			<path d="M252.3,65.8c0-2.9,4.1-5.6,7.3-5.6c2.1,0,3.6,1.1,3.6,2.8c0,2.8-4.1,5.6-7.4,5.6C253.8,68.6,252.3,67.6,252.3,65.8z"/>
		</g>
	</g>
	<g transform="matrix(0.7425,0,0,0.7425,0,0)">
		<line vector-effect="none" class="st0" x1="279.2" y1="64.4" x2="296.2" y2="64.4"/>
	</g>
	<g transform="matrix(0.7425,0,0,0.7425,0,0)">
		<line vector-effect="none" class="st3" x1="282.5" y1="61.7" x2="282.5" y2="88.4"/>
	</g>
	<g transform="matrix(0.7425,0,0,0.7425,0,0)">
		<g class="st1">
			<path d="M282.3,61.8c0-2.9,4.1-5.6,7.3-5.6c2.1,0,3.6,1.1,3.6,2.8c0,2.8-4.1,5.6-7.4,5.6C283.8,64.6,282.3,63.6,282.3,61.8z"/>
		</g>
	</g>
	<g transform="matrix(0.7425,0,0,0.7425,0,0)">
		<line vector-effect="none" class="st0" x1="321" y1="64.4" x2="338" y2="64.4"/>
	</g>
	<g transform="matrix(0.7425,0,0,0.7425,0,0)">
		<line vector-effect="none" class="st0" x1="321" y1="56.4" x2="338" y2="56.4"/>
	</g>
	<g transform="matrix(0.7425,0,0,0.7425,0,0)">
		<line vector-effect="none" class="st3" x1="324.2" y1="57.7" x2="324.2" y2="88.4"/>
	</g>
	<g transform="matrix(0.7425,0,0,0.7425,0,0)">
		<g class="st1">
			<path d="M324,57.8c0-2.9,4.1-5.6,7.3-5.6c2.1,0,3.6,1.1,3.6,2.8c0,2.8-4.1,5.6-7.4,5.6C325.6,60.6,324,59.6,324,57.8z"/>
		</g>
	</g>
	<g transform="matrix(0.7425,0,0,0.7425,0,0)">
		<line vector-effect="none" class="st0" x1="351" y1="64.4" x2="368" y2="64.4"/>
	</g>
	<g transform="matrix(0.7425,0,0,0.7425,0,0)">
		<line vector-effect="none" class="st3" x1="354.2" y1="61.7" x2="354.2" y2="88.4"/>
	</g>
	<g transform="matrix(0.7425,0,0,0.7425,0,0)">
		<g class="st1">
			<path d="M354,61.8c0-2.9,4.1-5.6,7.3-5.6c2.1,0,3.6,1.1,3.6,2.8c0,2.8-4.1,5.6-7.4,5.6C355.6,64.6,354,63.6,354,61.8z"/>
		</g>
	</g>
	<g transform="matrix(0.7425,0,0,0.7425,0,0)">
		<line vector-effect="none" class="st0" x1="380.8" y1="64.4" x2="397.8" y2="64.4"/>
	</g>
	<g transform="matrix(0.7425,0,0,0.7425,0,0)">
		<line vector-effect="none" class="st3" x1="384" y1="65.7" x2="384" y2="92.4"/>
	</g>
	<g transform="matrix(0.7425,0,0,0.7425,0,0)">
		<g class="st1">
			<path d="M383.8,65.8c0-2.9,4.1-5.6,7.3-5.6c2.1,0,3.6,1.1,3.6,2.8c0,2.8-4.1,5.6-7.4,5.6C385.3,68.6,383.8,67.6,383.8,65.8z"/>
		</g>
	</g>
	<g transform="matrix(0.7425,0,0,0.7425,0,0)">
		<line vector-effect="none" class="st3" x1="414" y1="69.7" x2="414" y2="96.4"/>
	</g>
	<g transform="matrix(0.7425,0,0,0.7425,0,0)">
		<g class="st1">
			<path d="M413.7,69.8c0-2.9,4.1-5.6,7.3-5.6c2.1,0,3.6,1.1,3.6,2.8c0,2.8-4.1,5.6-7.4,5.6C415.3,72.6,413.7,71.6,413.7,69.8z"/>
		</g>
	</g>
	<g transform="matrix(0.7425,0,0,0.7425,0,0)">
		<line vector-effect="none" class="st3" x1="455.8" y1="73.7" x2="455.8" y2="100.4"/>
	</g>
	<g transform="matrix(0.7425,0,0,0.7425,0,0)">
		<g class="st1">
			<path d="M455.5,73.8c0-2.9,4.1-5.6,7.3-5.6c2.1,0,3.6,1.1,3.6,2.8c0,2.8-4.1,5.6-7.4,5.6C457.1,76.6,455.5,75.6,455.5,73.8z"/>
		</g>
	</g>
	<g transform="matrix(0.7425,0,0,0.7425,0,0)">
		<line vector-effect="none" class="st3" x1="485.8" y1="77.7" x2="485.8" y2="104.4"/>
	</g>
	<g transform="matrix(0.7425,0,0,0.7425,0,0)">
		<g class="st1">
			<path d="M485.5,77.8c0-2.9,4.1-5.6,7.3-5.6c2.1,0,3.6,1.1,3.6,2.8c0,2.8-4.1,5.6-7.4,5.6C487.1,80.6,485.5,79.6,485.5,77.8z"/>
		</g>
	</g>
	<g transform="matrix(0.7425,0,0,0.7425,0,0)">
		<line vector-effect="none" class="st3" x1="515.8" y1="81.7" x2="515.8" y2="108.4"/>
	</g>
	<g transform="matrix(0.7425,0,0,0.7425,0,0)">
		<g class="st1">
			<path d="M515.5,81.8c0-2.9,4.1-5.6,7.3-5.6c2.1,0,3.6,1.1,3.6,2.8c0,2.8-4.1,5.6-7.4,5.6C517.1,84.6,515.5,83.6,515.5,81.8z"/>
		</g>
	</g>
	<g transform="matrix(0.7425,0,0,0.7425,0,0)">
		<line vector-effect="none" class="st3" x1="545.5" y1="85.7" x2="545.5" y2="112.4"/>
	</g>
	<g transform="matrix(0.7425,0,0,0.7425,0,0)">
		<g class="st1">
			<path d="M545.2,85.8c0-2.9,4.1-5.6,7.3-5.6c2.1,0,3.6,1.1,3.6,2.8c0,2.8-4.1,5.6-7.4,5.6C546.8,88.6,545.2,87.6,545.2,85.8z"/>
		</g>
	</g>
	<g transform="matrix(0.7425,0,0,0.7425,0,0)">
		<line vector-effect="none" class="st3" x1="587.5" y1="89.7" x2="587.5" y2="116.4"/>
	</g>
	<g transform="matrix(0.7425,0,0,0.7425,0,0)">
		<g class="st1">
			<path d="M587.3,89.8c0-2.9,4.1-5.6,7.3-5.6c2.1,0,3.6,1.1,3.6,2.8c0,2.8-4.1,5.6-7.4,5.6C588.8,92.6,587.3,91.6,587.3,89.8z"/>
		</g>
	</g>
	<g transform="matrix(0.7425,0,0,0.7425,0,0)">
		<line vector-effect="none" class="st3" x1="617.2" y1="85.7" x2="617.2" y2="112.4"/>
	</g>
	<g transform="matrix(0.7425,0,0,0.7425,0,0)">
		<g class="st1">
			<path d="M617,85.8c0-2.9,4.1-5.6,7.3-5.6c2.1,0,3.6,1.1,3.6,2.8c0,2.8-4.1,5.6-7.4,5.6C618.6,88.6,617,87.6,617,85.8z"/>
		</g>
	</g>
	<g transform="matrix(0.7425,0,0,0.7425,0,0)">
		<line vector-effect="none" class="st3" x1="647.2" y1="81.7" x2="647.2" y2="108.4"/>
	</g>
	<g transform="matrix(0.7425,0,0,0.7425,0,0)">
		<g class="st1">
			<path d="M647,81.8c0-2.9,4.1-5.6,7.3-5.6c2.1,0,3.6,1.1,3.6,2.8c0,2.8-4.1,5.6-7.4,5.6C648.6,84.6,647,83.6,647,81.8z"/>
		</g>
	</g>
	<g transform="matrix(0.7425,0,0,0.7425,0,0)">
		<line vector-effect="none" class="st3" x1="677" y1="77.7" x2="677" y2="104.4"/>
	</g>
	<g transform="matrix(0.7425,0,0,0.7425,0,0)">
		<g class="st1">
			<path d="M676.7,77.8c0-2.9,4.1-5.6,7.3-5.6c2.1,0,3.6,1.1,3.6,2.8c0,2.8-4.1,5.6-7.4,5.6C678.3,80.6,676.7,79.6,676.7,77.8z"/>
		</g>
	</g>
	<g transform="matrix(0.7425,0,0,0.7425,0,0)">
		<line vector-effect="none" class="st3" x1="719" y1="73.7" x2="719" y2="100.4"/>
	</g>
	<g transform="matrix(0.7425,0,0,0.7425,0,0)">
		<g class="st1">
			<path d="M718.8,73.8c0-2.9,4.1-5.6,7.3-5.6c2.1,0,3.6,1.1,3.6,2.8c0,2.8-4.1,5.6-7.4,5.6C720.3,76.6,718.8,75.6,718.8,73.8z"/>
		</g>
	</g>
	<g transform="matrix(0.7425,0,0,0.7425,0,0)">
		<line vector-effect="none" class="st3" x1="748.8" y1="69.7" x2="748.8" y2="96.4"/>
	</g>
	<g transform="matrix(0.7425,0,0,0.7425,0,0)">
		<g class="st1">
			<path d="M748.5,69.8c0-2.9,4.1-5.6,7.3-5.6c2.1,0,3.6,1.1,3.6,2.8c0,2.8-4.1,5.6-7.4,5.6C750.1,72.6,748.5,71.6,748.5,69.8z"/>
		</g>
	</g>
	<g transform="matrix(0.7425,0,0,0.7425,0,0)">
		<line vector-effect="none" class="st0" x1="775.5" y1="64.4" x2="792.5" y2="64.4"/>
	</g>
	<g transform="matrix(0.7425,0,0,0.7425,0,0)">
		<line vector-effect="none" class="st3" x1="778.8" y1="65.7" x2="778.8" y2="92.4"/>
	</g>
	<g transform="matrix(0.7425,0,0,0.7425,0,0)">
		<g class="st1">
			<path d="M778.5,65.8c0-2.9,4.1-5.6,7.3-5.6c2.1,0,3.6,1.1,3.6,2.8c0,2.8-4.1,5.6-7.4,5.6C780.1,68.6,778.5,67.6,778.5,65.8z"/>
		</g>
	</g>
	<g transform="matrix(0.7425,0,0,0.7425,0,0)">
		<line vector-effect="none" class="st0" x1="805.2" y1="64.4" x2="822.2" y2="64.4"/>
	</g>
	<g transform="matrix(0.7425,0,0,0.7425,0,0)">
		<line vector-effect="none" class="st3" x1="808.5" y1="61.7" x2="808.5" y2="88.4"/>
	</g>
	<g transform="matrix(0.7425,0,0,0.7425,0,0)">
		<g class="st1">
			<path d="M808.3,61.8c0-2.9,4.1-5.6,7.3-5.6c2.1,0,3.6,1.1,3.6,2.8c0,2.8-4.1,5.6-7.4,5.6C809.8,64.6,808.3,63.6,808.3,61.8z"/>
		</g>
	</g>
	<g transform="matrix(0.7425,0,0,0.7425,0,0)">
		<line vector-effect="none" class="st0" x1="847.2" y1="64.4" x2="864.2" y2="64.4"/>
	</g>
	<g transform="matrix(0.7425,0,0,0.7425,0,0)">
		<line vector-effect="none" class="st0" x1="847.2" y1="56.4" x2="864.2" y2="56.4"/>
	</g>
	<g transform="matrix(0.7425,0,0,0.7425,0,0)">
		<line vector-effect="none" class="st3" x1="850.5" y1="57.7" x2="850.5" y2="88.4"/>
	</g>
	<g transform="matrix(0.7425,0,0,0.7425,0,0)">
		<g class="st1">
			<path d="M850.2,57.8c0-2.9,4.1-5.6,7.3-5.6c2.1,0,3.6,1.1,3.6,2.8c0,2.8-4.1,5.6-7.4,5.6C851.8,60.6,850.2,59.6,850.2,57.8z"/>
		</g>
	</g>
	<g transform="matrix(0.7425,0,0,0.7425,0,0)">
		<line vector-effect="none" class="st0" x1="877" y1="64.4" x2="894" y2="64.4"/>
	</g>
	<g transform="matrix(0.7425,0,0,0.7425,0,0)">
		<line vector-effect="none" class="st3" x1="880.2" y1="61.7" x2="880.2" y2="88.4"/>
	</g>
	<g transform="matrix(0.7425,0,0,0.7425,0,0)">
		<g class="st1">
			<path d="M880,61.8c0-2.9,4.1-5.6,7.3-5.6c2.1,0,3.6,1.1,3.6,2.8c0,2.8-4.1,5.6-7.4,5.6C881.6,64.6,880,63.6,880,61.8z"/>
		</g>
	</g>
	<g transform="matrix(0.7425,0,0,0.7425,0,0)">
		<line vector-effect="none" class="st0" x1="907" y1="64.4" x2="924" y2="64.4"/>
	</g>
	<g transform="matrix(0.7425,0,0,0.7425,0,0)">
		<line vector-effect="none" class="st3" x1="910.2" y1="65.7" x2="910.2" y2="92.4"/>
	</g>
	<g transform="matrix(0.7425,0,0,0.7425,0,0)">
		<g class="st1">
			<path d="M910,65.8c0-2.9,4.1-5.6,7.3-5.6c2.1,0,3.6,1.1,3.6,2.8c0,2.8-4.1,5.6-7.4,5.6C911.6,68.6,910,67.6,910,65.8z"/>
		</g>
	</g>
	<g transform="matrix(0.7425,0,0,0.7425,0,0)">
		<line vector-effect="none" class="st3" x1="940" y1="69.7" x2="940" y2="96.4"/>
	</g>
	<g transform="matrix(0.7425,0,0,0.7425,0,0)">
		<g class="st1">
			<path d="M939.8,69.8c0-2.9,4.1-5.6,7.3-5.6c2.1,0,3.6,1.1,3.6,2.8c0,2.8-4.1,5.6-7.4,5.6C941.3,72.6,939.8,71.6,939.8,69.8z"/>
		</g>
	</g>
	<g transform="matrix(0.7425,0,0,0.7425,0,0)">
		<line vector-effect="none" class="st3" x1="46.2" y1="223.2" x2="46.2" y2="249.9"/>
	</g>
	<g transform="matrix(0.7425,0,0,0.7425,0,0)">
		<g class="st1">
			<path d="M46,223.3c0-2.9,4.1-5.6,7.3-5.6c2.1,0,3.6,1.1,3.6,2.8c0,2.8-4.1,5.6-7.4,5.6C47.6,226.1,46,225.1,46,223.3z"/>
		</g>
	</g>
	<g transform="matrix(0.7425,0,0,0.7425,0,0)">
		<line vector-effect="none" class="st3" x1="76" y1="227.2" x2="76" y2="253.9"/>
	</g>
	<g transform="matrix(0.7425,0,0,0.7425,0,0)">
		<g class="st1">
			<path d="M75.8,227.3c0-2.9,4.1-5.6,7.3-5.6c2.1,0,3.6,1.1,3.6,2.8c0,2.8-4.1,5.6-7.4,5.6C77.3,230.1,75.8,229.1,75.8,227.3z"/>
		</g>
	</g>
	<g transform="matrix(0.7425,0,0,0.7425,0,0)">
		<line vector-effect="none" class="st3" x1="105.8" y1="231.2" x2="105.8" y2="257.9"/>
	</g>
	<g transform="matrix(0.7425,0,0,0.7425,0,0)">
		<g class="st1">
			<path d="M105.5,231.3c0-2.9,4.1-5.6,7.3-5.6c2.1,0,3.6,1.1,3.6,2.8c0,2.8-4.1,5.6-7.4,5.6C107.1,234.1,105.5,233.1,105.5,231.3z"
				/>
		</g>
	</g>
	<g transform="matrix(0.7425,0,0,0.7425,0,0)">
		<line vector-effect="none" class="st3" x1="135.5" y1="235.2" x2="135.5" y2="261.9"/>
	</g>
	<g transform="matrix(0.7425,0,0,0.7425,0,0)">
		<g class="st1">
			<path d="M135.3,235.3c0-2.9,4.1-5.6,7.3-5.6c2.1,0,3.6,1.1,3.6,2.8c0,2.8-4.1,5.6-7.4,5.6C136.8,238.1,135.3,237.1,135.3,235.3z"
				/>
		</g>
	</g>
	<g transform="matrix(0.7425,0,0,0.7425,0,0)">
		<line vector-effect="none" class="st3" x1="195.5" y1="235.2" x2="195.5" y2="261.9"/>
	</g>
	<g transform="matrix(0.7425,0,0,0.7425,0,0)">
		<g class="st1">
			<path d="M195.3,235.3c0-2.9,4.1-5.6,7.3-5.6c2.1,0,3.6,1.1,3.6,2.8c0,2.8-4.1,5.6-7.4,5.6C196.8,238.1,195.3,237.1,195.3,235.3z"
				/>
		</g>
	</g>
	<g transform="matrix(0.7425,0,0,0.7425,0,0)">
		<g class="st1">
			<path d="M185.8,220.5h1l-0.2,10.1c0.6-1.1,1.6-1.6,3-1.6c1.9,0,3.6,1.3,3.6,3.1c-0.1,1.2-0.8,2.8-2.8,4.3l-4.5,3.3V220.5z
				 M186.7,231.6c-0.1,1.2-0.2,2.3-0.2,3.1c0,1.6,0.1,2.6,0.2,3.2c1.7-1.1,3.9-4.3,3.9-5.9c0-1-0.8-1.7-1.8-1.7
				C187.8,230.3,187.2,230.8,186.7,231.6z"/>
		</g>
	</g>
	<g transform="matrix(0.7425,0,0,0.7425,0,0)">
		<line vector-effect="none" class="st3" x1="225.2" y1="231.2" x2="225.2" y2="257.9"/>
	</g>
	<g transform="matrix(0.7425,0,0,0.7425,0,0)">
		<g class="st1">
			<path d="M225,231.3c0-2.9,4.1-5.6,7.3-5.6c2.1,0,3.6,1.1,3.6,2.8c0,2.8-4.1,5.6-7.4,5.6C226.6,234.1,225,233.1,225,231.3z"/>
		</g>
	</g>
	<g transform="matrix(0.7425,0,0,0.7425,0,0)">
		<line vector-effect="none" class="st3" x1="255" y1="227.2" x2="255" y2="253.9"/>
	</g>
	<g transform="matrix(0.7425,0,0,0.7425,0,0)">
		<g class="st1">
			<path d="M254.7,227.3c0-2.9,4.1-5.6,7.3-5.6c2.1,0,3.6,1.1,3.6,2.8c0,2.8-4.1,5.6-7.4,5.6C256.3,230.1,254.7,229.1,254.7,227.3z"
				/>
		</g>
	</g>
	<g transform="matrix(0.7425,0,0,0.7425,0,0)">
		<g class="st1">
			<path d="M245.3,212.5h1l-0.2,10.1c0.6-1.1,1.6-1.6,3-1.6c1.9,0,3.6,1.3,3.6,3.1c-0.1,1.2-0.8,2.8-2.8,4.3l-4.5,3.3V212.5z
				 M246.2,223.6c-0.1,1.2-0.2,2.3-0.2,3.1c0,1.6,0.1,2.6,0.2,3.2c1.7-1.1,3.9-4.3,3.9-5.9c0-1-0.8-1.7-1.8-1.7
				C247.3,222.3,246.7,222.8,246.2,223.6z"/>
		</g>
	</g>
	<g transform="matrix(0.7425,0,0,0.7425,0,0)">
		<line vector-effect="none" class="st3" x1="284.8" y1="223.2" x2="284.8" y2="249.9"/>
	</g>
	<g transform="matrix(0.7425,0,0,0.7425,0,0)">
		<g class="st1">
			<path d="M284.5,223.3c0-2.9,4.1-5.6,7.3-5.6c2.1,0,3.6,1.1,3.6,2.8c0,2.8-4.1,5.6-7.4,5.6C286.1,226.1,284.5,225.1,284.5,223.3z"
				/>
		</g>
	</g>
	<g transform="matrix(0.7425,0,0,0.7425,0,0)">
		<g class="st1">
			<path d="M275,208.5h1l-0.2,10.1c0.6-1.1,1.6-1.6,3-1.6c1.9,0,3.6,1.3,3.6,3.1c-0.1,1.2-0.8,2.8-2.8,4.3l-4.5,3.3V208.5z
				 M275.9,219.6c-0.1,1.2-0.2,2.3-0.2,3.1c0,1.6,0.1,2.6,0.2,3.2c1.7-1.1,3.9-4.3,3.9-5.9c0-1-0.8-1.7-1.8-1.7
				C277.1,218.3,276.4,218.8,275.9,219.6z"/>
		</g>
	</g>
	<g transform="matrix(0.7425,0,0,0.7425,0,0)">
		<line vector-effect="none" class="st3" x1="326.8" y1="219.2" x2="326.8" y2="245.9"/>
	</g>
	<g transform="matrix(0.7425,0,0,0.7425,0,0)">
		<g class="st1">
			<path d="M326.5,219.3c0-2.9,4.1-5.6,7.3-5.6c2.1,0,3.6,1.1,3.6,2.8c0,2.8-4.1,5.6-7.4,5.6C328.1,222.1,326.5,221.1,326.5,219.3z"
				/>
		</g>
	</g>
	<g transform="matrix(0.7425,0,0,0.7425,0,0)">
		<g class="st1">
			<path d="M317,204.5h1l-0.2,10.1c0.6-1.1,1.6-1.6,3-1.6c1.9,0,3.6,1.3,3.6,3.1c-0.1,1.2-0.8,2.8-2.8,4.3l-4.5,3.3V204.5z
				 M317.9,215.6c-0.1,1.2-0.2,2.3-0.2,3.1c0,1.6,0.1,2.6,0.2,3.2c1.7-1.1,3.9-4.3,3.9-5.9c0-1-0.8-1.7-1.8-1.7
				C319.1,214.3,318.4,214.8,317.9,215.6z"/>
		</g>
	</g>
	<g transform="matrix(0.7425,0,0,0.7425,0,0)">
		<line vector-effect="none" class="st0" x1="353.2" y1="213.9" x2="370.2" y2="213.9"/>
	</g>
	<g transform="matrix(0.7425,0,0,0.7425,0,0)">
		<line vector-effect="none" class="st3" x1="356.5" y1="215.2" x2="356.5" y2="241.9"/>
	</g>
	<g transform="matrix(0.7425,0,0,0.7425,0,0)">
		<g class="st1">
			<path d="M356.2,215.3c0-2.9,4.1-5.6,7.3-5.6c2.1,0,3.6,1.1,3.6,2.8c0,2.8-4.1,5.6-7.4,5.6C357.8,218.1,356.2,217.1,356.2,215.3z"
				/>
		</g>
	</g>
	<g transform="matrix(0.7425,0,0,0.7425,0,0)">
		<line vector-effect="none" class="st0" x1="383" y1="213.9" x2="400" y2="213.9"/>
	</g>
	<g transform="matrix(0.7425,0,0,0.7425,0,0)">
		<line vector-effect="none" class="st3" x1="386.2" y1="211.2" x2="386.2" y2="237.9"/>
	</g>
	<g transform="matrix(0.7425,0,0,0.7425,0,0)">
		<g class="st1">
			<path d="M386,211.3c0-2.9,4.1-5.6,7.3-5.6c2.1,0,3.6,1.1,3.6,2.8c0,2.8-4.1,5.6-7.4,5.6C387.6,214.1,386,213.1,386,211.3z"/>
		</g>
	</g>
	<g transform="matrix(0.7425,0,0,0.7425,0,0)">
		<g class="st1">
			<path d="M374.5,196.5h1l-0.2,10.1c0.6-1.1,1.6-1.6,3-1.6c1.9,0,3.6,1.3,3.6,3.1c-0.1,1.2-0.8,2.8-2.8,4.3l-4.5,3.3V196.5z
				 M375.4,207.6c-0.1,1.2-0.2,2.3-0.2,3.1c0,1.6,0.1,2.6,0.2,3.2c1.7-1.1,3.9-4.3,3.9-5.9c0-1-0.8-1.7-1.8-1.7
				C376.6,206.3,375.9,206.8,375.4,207.6z"/>
		</g>
	</g>
	<g transform="matrix(0.7425,0,0,0.7425,0,0)">
		<line vector-effect="none" class="st0" x1="412.8" y1="213.9" x2="429.8" y2="213.9"/>
	</g>
	<g transform="matrix(0.7425,0,0,0.7425,0,0)">
		<line vector-effect="none" class="st0" x1="412.8" y1="205.9" x2="429.8" y2="205.9"/>
	</g>
	<g transform="matrix(0.7425,0,0,0.7425,0,0)">
		<line vector-effect="none" class="st3" x1="416" y1="207.2" x2="416" y2="237.9"/>
	</g>
	<g transform="matrix(0.7425,0,0,0.7425,0,0)">
		<g class="st1">
			<path d="M415.7,207.3c0-2.9,4.1-5.6,7.3-5.6c2.1,0,3.6,1.1,3.6,2.8c0,2.8-4.1,5.6-7.4,5.6C417.3,210.1,415.7,209.1,415.7,207.3z"
				/>
		</g>
	</g>
	<g transform="matrix(0.7425,0,0,0.7425,0,0)">
		<g class="st1">
			<path d="M404.2,192.5h1l-0.2,10.1c0.6-1.1,1.6-1.6,3-1.6c1.9,0,3.6,1.3,3.6,3.1c-0.1,1.2-0.8,2.8-2.8,4.3l-4.5,3.3V192.5z
				 M405.2,203.6c-0.1,1.2-0.2,2.3-0.2,3.1c0,1.6,0.1,2.6,0.2,3.2c1.7-1.1,3.9-4.3,3.9-5.9c0-1-0.8-1.7-1.8-1.7
				C406.3,202.3,405.7,202.8,405.2,203.6z"/>
		</g>
	</g>
	<g transform="matrix(0.7425,0,0,0.7425,0,0)">
		<line vector-effect="none" class="st0" x1="454.5" y1="213.9" x2="471.5" y2="213.9"/>
	</g>
	<g transform="matrix(0.7425,0,0,0.7425,0,0)">
		<line vector-effect="none" class="st0" x1="454.5" y1="205.9" x2="471.5" y2="205.9"/>
	</g>
	<g transform="matrix(0.7425,0,0,0.7425,0,0)">
		<line vector-effect="none" class="st3" x1="457.8" y1="203.2" x2="457.8" y2="237.9"/>
	</g>
	<g transform="matrix(0.7425,0,0,0.7425,0,0)">
		<g class="st1">
			<path d="M457.5,203.3c0-2.9,4.1-5.6,7.3-5.6c2.1,0,3.6,1.1,3.6,2.8c0,2.8-4.1,5.6-7.4,5.6C459.1,206.1,457.5,205.1,457.5,203.3z"
				/>
		</g>
	</g>
	<g transform="matrix(0.7425,0,0,0.7425,0,0)">
		<line vector-effect="none" class="st0" x1="484.2" y1="213.9" x2="501.2" y2="213.9"/>
	</g>
	<g transform="matrix(0.7425,0,0,0.7425,0,0)">
		<line vector-effect="none" class="st0" x1="484.2" y1="205.9" x2="501.2" y2="205.9"/>
	</g>
	<g transform="matrix(0.7425,0,0,0.7425,0,0)">
		<line vector-effect="none" class="st3" x1="487.5" y1="207.2" x2="487.5" y2="237.9"/>
	</g>
	<g transform="matrix(0.7425,0,0,0.7425,0,0)">
		<g class="st1">
			<path d="M487.3,207.3c0-2.9,4.1-5.6,7.3-5.6c2.1,0,3.6,1.1,3.6,2.8c0,2.8-4.1,5.6-7.4,5.6C488.8,210.1,487.3,209.1,487.3,207.3z"
				/>
		</g>
	</g>
	<g transform="matrix(0.7425,0,0,0.7425,0,0)">
		<g class="st1">
			<path d="M475.7,192.5h1l-0.2,10.1c0.6-1.1,1.6-1.6,3-1.6c1.9,0,3.6,1.3,3.6,3.1c-0.1,1.2-0.8,2.8-2.8,4.3l-4.5,3.3V192.5z
				 M476.7,203.6c-0.1,1.2-0.2,2.3-0.2,3.1c0,1.6,0.1,2.6,0.2,3.2c1.7-1.1,3.9-4.3,3.9-5.9c0-1-0.8-1.7-1.8-1.7
				C477.8,202.3,477.2,202.8,476.7,203.6z"/>
		</g>
	</g>
	<g transform="matrix(0.7425,0,0,0.7425,0,0)">
		<line vector-effect="none" class="st0" x1="514" y1="213.9" x2="531" y2="213.9"/>
	</g>
	<g transform="matrix(0.7425,0,0,0.7425,0,0)">
		<line vector-effect="none" class="st3" x1="517.2" y1="211.2" x2="517.2" y2="237.9"/>
	</g>
	<g transform="matrix(0.7425,0,0,0.7425,0,0)">
		<g class="st1">
			<path d="M517,211.3c0-2.9,4.1-5.6,7.3-5.6c2.1,0,3.6,1.1,3.6,2.8c0,2.8-4.1,5.6-7.4,5.6C518.6,214.1,517,213.1,517,211.3z"/>
		</g>
	</g>
	<g transform="matrix(0.7425,0,0,0.7425,0,0)">
		<g class="st1">
			<path d="M505.5,196.5h1l-0.2,10.1c0.6-1.1,1.6-1.6,3-1.6c1.9,0,3.6,1.3,3.6,3.1c-0.1,1.2-0.8,2.8-2.8,4.3l-4.5,3.3V196.5z
				 M506.4,207.6c-0.1,1.2-0.2,2.3-0.2,3.1c0,1.6,0.1,2.6,0.2,3.2c1.7-1.1,3.9-4.3,3.9-5.9c0-1-0.8-1.7-1.8-1.7
				C507.6,206.3,506.9,206.8,506.4,207.6z"/>
		</g>
	</g>
	<g transform="matrix(0.7425,0,0,0.7425,0,0)">
		<line vector-effect="none" class="st0" x1="543.8" y1="213.9" x2="560.8" y2="213.9"/>
	</g>
	<g transform="matrix(0.7425,0,0,0.7425,0,0)">
		<line vector-effect="none" class="st3" x1="547" y1="215.2" x2="547" y2="241.9"/>
	</g>
	<g transform="matrix(0.7425,0,0,0.7425,0,0)">
		<g class="st1">
			<path d="M546.8,215.3c0-2.9,4.1-5.6,7.3-5.6c2.1,0,3.6,1.1,3.6,2.8c0,2.8-4.1,5.6-7.4,5.6C548.3,218.1,546.8,217.1,546.8,215.3z"
				/>
		</g>
	</g>
	<g transform="matrix(0.7425,0,0,0.7425,0,0)">
		<line vector-effect="none" class="st3" x1="588.8" y1="219.2" x2="588.8" y2="245.9"/>
	</g>
	<g transform="matrix(0.7425,0,0,0.7425,0,0)">
		<g class="st1">
			<path d="M588.5,219.3c0-2.9,4.1-5.6,7.3-5.6c2.1,0,3.6,1.1,3.6,2.8c0,2.8-4.1,5.6-7.4,5.6C590.1,222.1,588.5,221.1,588.5,219.3z"
				/>
		</g>
	</g>
	<g transform="matrix(0.7425,0,0,0.7425,0,0)">
		<g class="st1">
			<path d="M579,204.5h1l-0.2,10.1c0.6-1.1,1.6-1.6,3-1.6c1.9,0,3.6,1.3,3.6,3.1c-0.1,1.2-0.8,2.8-2.8,4.3l-4.5,3.3V204.5z
				 M579.9,215.6c-0.1,1.2-0.2,2.3-0.2,3.1c0,1.6,0.1,2.6,0.2,3.2c1.7-1.1,3.9-4.3,3.9-5.9c0-1-0.8-1.7-1.8-1.7
				C581.1,214.3,580.4,214.8,579.9,215.6z"/>
		</g>
	</g>
	<g transform="matrix(0.7425,0,0,0.7425,0,0)">
		<line vector-effect="none" class="st3" x1="618.5" y1="223.2" x2="618.5" y2="249.9"/>
	</g>
	<g transform="matrix(0.7425,0,0,0.7425,0,0)">
		<g class="st1">
			<path d="M618.3,223.3c0-2.9,4.1-5.6,7.3-5.6c2.1,0,3.6,1.1,3.6,2.8c0,2.8-4.1,5.6-7.4,5.6C619.8,226.1,618.3,225.1,618.3,223.3z"
				/>
		</g>
	</g>
	<g transform="matrix(0.7425,0,0,0.7425,0,0)">
		<g class="st1">
			<path d="M608.8,208.5h1l-0.2,10.1c0.6-1.1,1.6-1.6,3-1.6c1.9,0,3.6,1.3,3.6,3.1c-0.1,1.2-0.8,2.8-2.8,4.3l-4.5,3.3V208.5z
				 M609.7,219.6c-0.1,1.2-0.2,2.3-0.2,3.1c0,1.6,0.1,2.6,0.2,3.2c1.7-1.1,3.9-4.3,3.9-5.9c0-1-0.8-1.7-1.8-1.7
				C610.8,218.3,610.2,218.8,609.7,219.6z"/>
		</g>
	</g>
	<g transform="matrix(0.7425,0,0,0.7425,0,0)">
		<line vector-effect="none" class="st3" x1="648.2" y1="227.2" x2="648.2" y2="253.9"/>
	</g>
	<g transform="matrix(0.7425,0,0,0.7425,0,0)">
		<g class="st1">
			<path d="M648,227.3c0-2.9,4.1-5.6,7.3-5.6c2.1,0,3.6,1.1,3.6,2.8c0,2.8-4.1,5.6-7.4,5.6C649.6,230.1,648,229.1,648,227.3z"/>
		</g>
	</g>
	<g transform="matrix(0.7425,0,0,0.7425,0,0)">
		<g class="st1">
			<path d="M638.5,212.5h1l-0.2,10.1c0.6-1.1,1.6-1.6,3-1.6c1.9,0,3.6,1.3,3.6,3.1c-0.1,1.2-0.8,2.8-2.8,4.3l-4.5,3.3V212.5z
				 M639.4,223.6c-0.1,1.2-0.2,2.3-0.2,3.1c0,1.6,0.1,2.6,0.2,3.2c1.7-1.1,3.9-4.3,3.9-5.9c0-1-0.8-1.7-1.8-1.7
				C640.6,222.3,639.9,222.8,639.4,223.6z"/>
		</g>
	</g>
	<g transform="matrix(0.7425,0,0,0.7425,0,0)">
		<line vector-effect="none" class="st3" x1="678" y1="231.2" x2="678" y2="257.9"/>
	</g>
	<g transform="matrix(0.7425,0,0,0.7425,0,0)">
		<g class="st1">
			<path d="M677.8,231.3c0-2.9,4.1-5.6,7.3-5.6c2.1,0,3.6,1.1,3.6,2.8c0,2.8-4.1,5.6-7.4,5.6C679.3,234.1,677.8,233.1,677.8,231.3z"
				/>
		</g>
	</g>
	<g transform="matrix(0.7425,0,0,0.7425,0,0)">
		<line vector-effect="none" class="st3" x1="719.8" y1="235.2" x2="719.8" y2="261.9"/>
	</g>
	<g transform="matrix(0.7425,0,0,0.7425,0,0)">
		<g class="st1">
			<path d="M719.5,235.3c0-2.9,4.1-5.6,7.3-5.6c2.1,0,3.6,1.1,3.6,2.8c0,2.8-4.1,5.6-7.4,5.6C721.1,238.1,719.5,237.1,719.5,235.3z"
				/>
		</g>
	</g>
	<g transform="matrix(0.7425,0,0,0.7425,0,0)">
		<g class="st1">
			<path d="M710,220.5h1l-0.2,10.1c0.6-1.1,1.6-1.6,3-1.6c1.9,0,3.6,1.3,3.6,3.1c-0.1,1.2-0.8,2.8-2.8,4.3l-4.5,3.3V220.5z
				 M710.9,231.6c-0.1,1.2-0.2,2.3-0.2,3.1c0,1.6,0.1,2.6,0.2,3.2c1.7-1.1,3.9-4.3,3.9-5.9c0-1-0.8-1.7-1.8-1.7
				C712.1,230.3,711.4,230.8,710.9,231.6z"/>
		</g>
	</g>
	<g transform="matrix(0.7425,0,0,0.7425,0,0)">
		<line vector-effect="none" class="st3" x1="749.8" y1="231.2" x2="749.8" y2="257.9"/>
	</g>
	<g transform="matrix(0.7425,0,0,0.7425,0,0)">
		<g class="st1">
			<path d="M749.5,231.3c0-2.9,4.1-5.6,7.3-5.6c2.1,0,3.6,1.1,3.6,2.8c0,2.8-4.1,5.6-7.4,5.6C751.1,234.1,749.5,233.1,749.5,231.3z"
				/>
		</g>
	</g>
	<g transform="matrix(0.7425,0,0,0.7425,0,0)">
		<line vector-effect="none" class="st3" x1="779.5" y1="227.2" x2="779.5" y2="253.9"/>
	</g>
	<g transform="matrix(0.7425,0,0,0.7425,0,0)">
		<g class="st1">
			<path d="M779.2,227.3c0-2.9,4.1-5.6,7.3-5.6c2.1,0,3.6,1.1,3.6,2.8c0,2.8-4.1,5.6-7.4,5.6C780.8,230.1,779.2,229.1,779.2,227.3z"
				/>
		</g>
	</g>
	<g transform="matrix(0.7425,0,0,0.7425,0,0)">
		<g class="st1">
			<path d="M769.7,212.5h1l-0.2,10.1c0.6-1.1,1.6-1.6,3-1.6c1.9,0,3.6,1.3,3.6,3.1c-0.1,1.2-0.8,2.8-2.8,4.3l-4.5,3.3V212.5z
				 M770.7,223.6c-0.1,1.2-0.2,2.3-0.2,3.1c0,1.6,0.1,2.6,0.2,3.2c1.7-1.1,3.9-4.3,3.9-5.9c0-1-0.8-1.7-1.8-1.7
				C771.8,222.3,771.2,222.8,770.7,223.6z"/>
		</g>
	</g>
	<g transform="matrix(0.7425,0,0,0.7425,0,0)">
		<line vector-effect="none" class="st3" x1="809.2" y1="223.2" x2="809.2" y2="249.9"/>
	</g>
	<g transform="matrix(0.7425,0,0,0.7425,0,0)">
		<g class="st1">
			<path d="M809,223.3c0-2.9,4.1-5.6,7.3-5.6c2.1,0,3.6,1.1,3.6,2.8c0,2.8-4.1,5.6-7.4,5.6C810.6,226.1,809,225.1,809,223.3z"/>
		</g>
	</g>
	<g transform="matrix(0.7425,0,0,0.7425,0,0)">
		<g class="st1">
			<path d="M799.5,208.5h1l-0.2,10.1c0.6-1.1,1.6-1.6,3-1.6c1.9,0,3.6,1.3,3.6,3.1c-0.1,1.2-0.8,2.8-2.8,4.3l-4.5,3.3V208.5z
				 M800.4,219.6c-0.1,1.2-0.2,2.3-0.2,3.1c0,1.6,0.1,2.6,0.2,3.2c1.7-1.1,3.9-4.3,3.9-5.9c0-1-0.8-1.7-1.8-1.7
				C801.6,218.3,800.9,218.8,800.4,219.6z"/>
		</g>
	</g>
	<g transform="matrix(0.7425,0,0,0.7425,0,0)">
		<line vector-effect="none" class="st3" x1="851" y1="219.2" x2="851" y2="245.9"/>
	</g>
	<g transform="matrix(0.7425,0,0,0.7425,0,0)">
		<g class="st1">
			<path d="M850.7,219.3c0-2.9,4.1-5.6,7.3-5.6c2.1,0,3.6,1.1,3.6,2.8c0,2.8-4.1,5.6-7.4,5.6C852.3,222.1,850.7,221.1,850.7,219.3z"
				/>
		</g>
	</g>
	<g transform="matrix(0.7425,0,0,0.7425,0,0)">
		<g class="st1">
			<path d="M841.2,204.5h1l-0.2,10.1c0.6-1.1,1.6-1.6,3-1.6c1.9,0,3.6,1.3,3.6,3.1c-0.1,1.2-0.8,2.8-2.8,4.3l-4.5,3.3V204.5z
				 M842.2,215.6c-0.1,1.2-0.2,2.3-0.2,3.1c0,1.6,0.1,2.6,0.2,3.2c1.7-1.1,3.9-4.3,3.9-5.9c0-1-0.8-1.7-1.8-1.7
				C843.3,214.3,842.7,214.8,842.2,215.6z"/>
		</g>
	</g>
	<g transform="matrix(0.7425,0,0,0.7425,0,0)">
		<line vector-effect="none" class="st0" x1="877.5" y1="213.9" x2="894.5" y2="213.9"/>
	</g>
	<g transform="matrix(0.7425,0,0,0.7425,0,0)">
		<line vector-effect="none" class="st3" x1="880.8" y1="215.2" x2="880.8" y2="241.9"/>
	</g>
	<g transform="matrix(0.7425,0,0,0.7425,0,0)">
		<g class="st1">
			<path d="M880.5,215.3c0-2.9,4.1-5.6,7.3-5.6c2.1,0,3.6,1.1,3.6,2.8c0,2.8-4.1,5.6-7.4,5.6C882.1,218.1,880.5,217.1,880.5,215.3z"
				/>
		</g>
	</g>
	<g transform="matrix(0.7425,0,0,0.7425,0,0)">
		<line vector-effect="none" class="st0" x1="907.2" y1="213.9" x2="924.2" y2="213.9"/>
	</g>
	<g transform="matrix(0.7425,0,0,0.7425,0,0)">
		<line vector-effect="none" class="st3" x1="910.5" y1="211.2" x2="910.5" y2="237.9"/>
	</g>
	<g transform="matrix(0.7425,0,0,0.7425,0,0)">
		<g class="st1">
			<path d="M910.2,211.3c0-2.9,4.1-5.6,7.3-5.6c2.1,0,3.6,1.1,3.6,2.8c0,2.8-4.1,5.6-7.4,5.6C911.8,214.1,910.2,213.1,910.2,211.3z"
				/>
		</g>
	</g>
	<g transform="matrix(0.7425,0,0,0.7425,0,0)">
		<g class="st1">
			<path d="M898.8,196.5h1l-0.2,10.1c0.6-1.1,1.6-1.6,3-1.6c1.9,0,3.6,1.3,3.6,3.1c-0.1,1.2-0.8,2.8-2.8,4.3l-4.5,3.3V196.5z
				 M899.7,207.6c-0.1,1.2-0.2,2.3-0.2,3.1c0,1.6,0.1,2.6,0.2,3.2c1.7-1.1,3.9-4.3,3.9-5.9c0-1-0.8-1.7-1.8-1.7
				C900.8,206.3,900.2,206.8,899.7,207.6z"/>
		</g>
	</g>
	<g transform="matrix(0.7425,0,0,0.7425,0,0)">
		<line vector-effect="none" class="st0" x1="937" y1="213.9" x2="954" y2="213.9"/>
	</g>
	<g transform="matrix(0.7425,0,0,0.7425,0,0)">
		<line vector-effect="none" class="st0" x1="937" y1="205.9" x2="954" y2="205.9"/>
	</g>
	<g transform="matrix(0.7425,0,0,0.7425,0,0)">
		<line vector-effect="none" class="st3" x1="940.2" y1="207.2" x2="940.2" y2="237.9"/>
	</g>
	<g transform="matrix(0.7425,0,0,0.7425,0,0)">
		<g class="st1">
			<path d="M940,207.3c0-2.9,4.1-5.6,7.3-5.6c2.1,0,3.6,1.1,3.6,2.8c0,2.8-4.1,5.6-7.4,5.6C941.6,210.1,940,209.1,940,207.3z"/>
		</g>
	</g>
	<g transform="matrix(0.7425,0,0,0.7425,0,0)">
		<g class="st1">
			<path d="M928.5,192.5h1l-0.2,10.1c0.6-1.1,1.6-1.6,3-1.6c1.9,0,3.6,1.3,3.6,3.1c-0.1,1.2-0.8,2.8-2.8,4.3l-4.5,3.3V192.5z
				 M929.4,203.6c-0.1,1.2-0.2,2.3-0.2,3.1c0,1.6,0.1,2.6,0.2,3.2c1.7-1.1,3.9-4.3,3.9-5.9c0-1-0.8-1.7-1.8-1.7
				C930.6,202.3,929.9,202.8,929.4,203.6z"/>
		</g>
	</g>
	<g transform="matrix(0.7425,0,0,0.7425,0,0)">
		<line vector-effect="none" class="st0" x1="43" y1="363.7" x2="60" y2="363.7"/>
	</g>
	<g transform="matrix(0.7425,0,0,0.7425,0,0)">
		<line vector-effect="none" class="st0" x1="43" y1="355.7" x2="60" y2="355.7"/>
	</g>
	<g transform="matrix(0.7425,0,0,0.7425,0,0)">
		<line vector-effect="none" class="st3" x1="46.2" y1="352.9" x2="46.2" y2="387.7"/>
	</g>
	<g transform="matrix(0.7425,0,0,0.7425,0,0)">
		<g class="st1">
			<path d="M46,353c0-2.9,4.1-5.6,7.3-5.6c2.1,0,3.6,1.1,3.6,2.8c0,2.8-4.1,5.6-7.4,5.6C47.6,355.8,46,354.8,46,353z"/>
		</g>
	</g>
	<g transform="matrix(0.7425,0,0,0.7425,0,0)">
		<line vector-effect="none" class="st0" x1="86.2" y1="363.7" x2="103.2" y2="363.7"/>
	</g>
	<g transform="matrix(0.7425,0,0,0.7425,0,0)">
		<line vector-effect="none" class="st0" x1="86.2" y1="355.7" x2="103.2" y2="355.7"/>
	</g>
	<g transform="matrix(0.7425,0,0,0.7425,0,0)">
		<line vector-effect="none" class="st3" x1="89.5" y1="356.9" x2="89.5" y2="387.7"/>
	</g>
	<g transform="matrix(0.7425,0,0,0.7425,0,0)">
		<g class="st1">
			<path d="M89.2,357c0-2.9,4.1-5.6,7.3-5.6c2.1,0,3.6,1.1,3.6,2.8c0,2.8-4.1,5.6-7.4,5.6C90.8,359.8,89.2,358.8,89.2,357z"/>
		</g>
	</g>
	<g transform="matrix(0.7425,0,0,0.7425,0,0)">
		<g class="st1">
			<path d="M77.8,342.3h1l-0.2,10.1c0.6-1.1,1.6-1.6,3-1.6c1.9,0,3.6,1.3,3.6,3.1c-0.1,1.2-0.8,2.8-2.8,4.3l-4.5,3.3V342.3z
				 M78.7,353.4c-0.1,1.2-0.2,2.3-0.2,3.1c0,1.6,0.1,2.6,0.2,3.2c1.7-1.1,3.9-4.3,3.9-5.9c0-1-0.8-1.7-1.8-1.7
				C79.8,352.1,79.2,352.5,78.7,353.4z"/>
		</g>
	</g>
	<g transform="matrix(0.7425,0,0,0.7425,0,0)">
		<line vector-effect="none" class="st0" x1="129.8" y1="363.7" x2="146.8" y2="363.7"/>
	</g>
	<g transform="matrix(0.7425,0,0,0.7425,0,0)">
		<line vector-effect="none" class="st3" x1="133" y1="360.9" x2="133" y2="387.7"/>
	</g>
	<g transform="matrix(0.7425,0,0,0.7425,0,0)">
		<g class="st1">
			<path d="M132.8,361c0-2.9,4.1-5.6,7.3-5.6c2.1,0,3.6,1.1,3.6,2.8c0,2.8-4.1,5.6-7.4,5.6C134.3,363.8,132.8,362.8,132.8,361z"/>
		</g>
	</g>
	<g transform="matrix(0.7425,0,0,0.7425,0,0)">
		<g class="st1">
			<path d="M121.3,346.3h1l-0.2,10.1c0.6-1.1,1.6-1.6,3-1.6c1.9,0,3.6,1.3,3.6,3.1c-0.1,1.2-0.8,2.8-2.8,4.3l-4.5,3.3V346.3z
				 M122.2,357.4c-0.1,1.2-0.2,2.3-0.2,3.1c0,1.6,0.1,2.6,0.2,3.2c1.7-1.1,3.9-4.3,3.9-5.9c0-1-0.8-1.7-1.8-1.7
				C123.3,356.1,122.7,356.5,122.2,357.4z"/>
		</g>
	</g>
	<g transform="matrix(0.7425,0,0,0.7425,0,0)">
		<line vector-effect="none" class="st0" x1="173" y1="363.7" x2="190" y2="363.7"/>
	</g>
	<g transform="matrix(0.7425,0,0,0.7425,0,0)">
		<line vector-effect="none" class="st3" x1="176.2" y1="364.9" x2="176.2" y2="391.7"/>
	</g>
	<g transform="matrix(0.7425,0,0,0.7425,0,0)">
		<g class="st1">
			<path d="M176,365c0-2.9,4.1-5.6,7.3-5.6c2.1,0,3.6,1.1,3.6,2.8c0,2.8-4.1,5.6-7.4,5.6C177.6,367.8,176,366.8,176,365z"/>
		</g>
	</g>
	<g transform="matrix(0.7425,0,0,0.7425,0,0)">
		<line vector-effect="none" class="st3" x1="231.5" y1="368.9" x2="231.5" y2="395.7"/>
	</g>
	<g transform="matrix(0.7425,0,0,0.7425,0,0)">
		<g class="st1">
			<path d="M231.2,369c0-2.9,4.1-5.6,7.3-5.6c2.1,0,3.6,1.1,3.6,2.8c0,2.8-4.1,5.6-7.4,5.6C232.8,371.8,231.2,370.8,231.2,369z"/>
		</g>
	</g>
	<g transform="matrix(0.7425,0,0,0.7425,0,0)">
		<g class="st1">
			<path d="M221.8,354.3h1l-0.2,10.1c0.6-1.1,1.6-1.6,3-1.6c1.9,0,3.6,1.3,3.6,3.1c-0.1,1.2-0.8,2.8-2.8,4.3l-4.5,3.3V354.3z
				 M222.7,365.4c-0.1,1.2-0.2,2.3-0.2,3.1c0,1.6,0.1,2.6,0.2,3.2c1.7-1.1,3.9-4.3,3.9-5.9c0-1-0.8-1.7-1.8-1.7
				C223.8,364.1,223.2,364.5,222.7,365.4z"/>
		</g>
	</g>
	<g transform="matrix(0.7425,0,0,0.7425,0,0)">
		<line vector-effect="none" class="st3" x1="274.8" y1="372.9" x2="274.8" y2="399.7"/>
	</g>
	<g transform="matrix(0.7425,0,0,0.7425,0,0)">
		<g class="st1">
			<path d="M274.5,373c0-2.9,4.1-5.6,7.3-5.6c2.1,0,3.6,1.1,3.6,2.8c0,2.8-4.1,5.6-7.4,5.6C276.1,375.8,274.5,374.8,274.5,373z"/>
		</g>
	</g>
	<g transform="matrix(0.7425,0,0,0.7425,0,0)">
		<g class="st1">
			<path d="M265,358.3h1l-0.2,10.1c0.6-1.1,1.6-1.6,3-1.6c1.9,0,3.6,1.3,3.6,3.1c-0.1,1.2-0.8,2.8-2.8,4.3l-4.5,3.3V358.3z
				 M265.9,369.4c-0.1,1.2-0.2,2.3-0.2,3.1c0,1.6,0.1,2.6,0.2,3.2c1.7-1.1,3.9-4.3,3.9-5.9c0-1-0.8-1.7-1.8-1.7
				C267.1,368.1,266.4,368.5,265.9,369.4z"/>
		</g>
	</g>
	<g transform="matrix(0.7425,0,0,0.7425,0,0)">
		<line vector-effect="none" class="st3" x1="318.2" y1="376.9" x2="318.2" y2="403.7"/>
	</g>
	<g transform="matrix(0.7425,0,0,0.7425,0,0)">
		<g class="st1">
			<path d="M318,377c0-2.9,4.1-5.6,7.3-5.6c2.1,0,3.6,1.1,3.6,2.8c0,2.8-4.1,5.6-7.4,5.6C319.6,379.8,318,378.8,318,377z"/>
		</g>
	</g>
	<g transform="matrix(0.7425,0,0,0.7425,0,0)">
		<g class="st1">
			<path d="M308.5,362.3h1l-0.2,10.1c0.6-1.1,1.6-1.6,3-1.6c1.9,0,3.6,1.3,3.6,3.1c-0.1,1.2-0.8,2.8-2.8,4.3l-4.5,3.3V362.3z
				 M309.4,373.4c-0.1,1.2-0.2,2.3-0.2,3.1c0,1.6,0.1,2.6,0.2,3.2c1.7-1.1,3.9-4.3,3.9-5.9c0-1-0.8-1.7-1.8-1.7
				C310.6,372.1,309.9,372.5,309.4,373.4z"/>
		</g>
	</g>
	<g transform="matrix(0.7425,0,0,0.7425,0,0)">
		<line vector-effect="none" class="st3" x1="361.5" y1="380.9" x2="361.5" y2="407.7"/>
	</g>
	<g transform="matrix(0.7425,0,0,0.7425,0,0)">
		<g class="st1">
			<path d="M361.3,381c0-2.9,4.1-5.6,7.3-5.6c2.1,0,3.6,1.1,3.6,2.8c0,2.8-4.1,5.6-7.4,5.6C362.8,383.8,361.3,382.8,361.3,381z"/>
		</g>
	</g>
	<g transform="matrix(0.7425,0,0,0.7425,0,0)">
		<line vector-effect="none" class="st3" x1="426.2" y1="388.9" x2="426.2" y2="415.7"/>
	</g>
	<g transform="matrix(0.7425,0,0,0.7425,0,0)">
		<g class="st1">
			<path d="M426,389c0-2.9,4.1-5.6,7.3-5.6c2.1,0,3.6,1.1,3.6,2.8c0,2.8-4.1,5.6-7.4,5.6C427.6,391.8,426,390.8,426,389z"/>
		</g>
	</g>
	<g transform="matrix(0.7425,0,0,0.7425,0,0)">
		<line vector-effect="none" class="st3" x1="469.5" y1="384.9" x2="469.5" y2="411.7"/>
	</g>
	<g transform="matrix(0.7425,0,0,0.7425,0,0)">
		<g class="st1">
			<path d="M469.2,385c0-2.9,4.1-5.6,7.3-5.6c2.1,0,3.6,1.1,3.6,2.8c0,2.8-4.1,5.6-7.4,5.6C470.8,387.8,469.2,386.8,469.2,385z"/>
		</g>
	</g>
	<g transform="matrix(0.7425,0,0,0.7425,0,0)">
		<line vector-effect="none" class="st3" x1="513" y1="380.9" x2="513" y2="407.7"/>
	</g>
	<g transform="matrix(0.7425,0,0,0.7425,0,0)">
		<g class="st1">
			<path d="M512.7,381c0-2.9,4.1-5.6,7.3-5.6c2.1,0,3.6,1.1,3.6,2.8c0,2.8-4.1,5.6-7.4,5.6C514.3,383.8,512.7,382.8,512.7,381z"/>
		</g>
	</g>
	<g transform="matrix(0.7425,0,0,0.7425,0,0)">
		<line vector-effect="none" class="st3" x1="556.2" y1="376.9" x2="556.2" y2="403.7"/>
	</g>
	<g transform="matrix(0.7425,0,0,0.7425,0,0)">
		<g class="st1">
			<path d="M556,377c0-2.9,4.1-5.6,7.3-5.6c2.1,0,3.6,1.1,3.6,2.8c0,2.8-4.1,5.6-7.4,5.6C557.6,379.8,556,378.8,556,377z"/>
		</g>
	</g>
	<g transform="matrix(0.7425,0,0,0.7425,0,0)">
		<g class="st1">
			<path d="M552.9,386.6v-6.4l-4.9,1.7v-17.2h0.8v6.4l4.9-1.7v17.2H552.9z M548.8,379.1l4.1-1.5v-5.4l-4.1,1.5V379.1z"/>
		</g>
	</g>
	<g transform="matrix(0.7425,0,0,0.7425,0,0)">
		<line vector-effect="none" class="st3" x1="611.5" y1="372.9" x2="611.5" y2="399.7"/>
	</g>
	<g transform="matrix(0.7425,0,0,0.7425,0,0)">
		<g class="st1">
			<path d="M611.3,373c0-2.9,4.1-5.6,7.3-5.6c2.1,0,3.6,1.1,3.6,2.8c0,2.8-4.1,5.6-7.4,5.6C612.8,375.8,611.3,374.8,611.3,373z"/>
		</g>
	</g>
	<g transform="matrix(0.7425,0,0,0.7425,0,0)">
		<line vector-effect="none" class="st3" x1="654.8" y1="368.9" x2="654.8" y2="395.7"/>
	</g>
	<g transform="matrix(0.7425,0,0,0.7425,0,0)">
		<g class="st1">
			<path d="M654.5,369c0-2.9,4.1-5.6,7.3-5.6c2.1,0,3.6,1.1,3.6,2.8c0,2.8-4.1,5.6-7.4,5.6C656.1,371.8,654.5,370.8,654.5,369z"/>
		</g>
	</g>
	<g transform="matrix(0.7425,0,0,0.7425,0,0)">
		<line vector-effect="none" class="st0" x1="695" y1="363.7" x2="712" y2="363.7"/>
	</g>
	<g transform="matrix(0.7425,0,0,0.7425,0,0)">
		<line vector-effect="none" class="st3" x1="698.2" y1="364.9" x2="698.2" y2="391.7"/>
	</g>
	<g transform="matrix(0.7425,0,0,0.7425,0,0)">
		<g class="st1">
			<path d="M698,365c0-2.9,4.1-5.6,7.3-5.6c2.1,0,3.6,1.1,3.6,2.8c0,2.8-4.1,5.6-7.4,5.6C699.6,367.8,698,366.8,698,365z"/>
		</g>
	</g>
	<g transform="matrix(0.7425,0,0,0.7425,0,0)">
		<line vector-effect="none" class="st0" x1="738.2" y1="363.7" x2="755.2" y2="363.7"/>
	</g>
	<g transform="matrix(0.7425,0,0,0.7425,0,0)">
		<line vector-effect="none" class="st3" x1="741.5" y1="360.9" x2="741.5" y2="387.7"/>
	</g>
	<g transform="matrix(0.7425,0,0,0.7425,0,0)">
		<g class="st1">
			<path d="M741.2,361c0-2.9,4.1-5.6,7.3-5.6c2.1,0,3.6,1.1,3.6,2.8c0,2.8-4.1,5.6-7.4,5.6C742.8,363.8,741.2,362.8,741.2,361z"/>
		</g>
	</g>
	<g transform="matrix(0.7425,0,0,0.7425,0,0)">
		<line vector-effect="none" class="st0" x1="793.5" y1="363.7" x2="810.5" y2="363.7"/>
	</g>
	<g transform="matrix(0.7425,0,0,0.7425,0,0)">
		<line vector-effect="none" class="st0" x1="793.5" y1="355.7" x2="810.5" y2="355.7"/>
	</g>
	<g transform="matrix(0.7425,0,0,0.7425,0,0)">
		<line vector-effect="none" class="st3" x1="796.8" y1="356.9" x2="796.8" y2="387.7"/>
	</g>
	<g transform="matrix(0.7425,0,0,0.7425,0,0)">
		<g class="st1">
			<path d="M796.5,357c0-2.9,4.1-5.6,7.3-5.6c2.1,0,3.6,1.1,3.6,2.8c0,2.8-4.1,5.6-7.4,5.6C798.1,359.8,796.5,358.8,796.5,357z"/>
		</g>
	</g>
	<g transform="matrix(0.7425,0,0,0.7425,0,0)">
		<line vector-effect="none" class="st0" x1="836.8" y1="363.7" x2="853.8" y2="363.7"/>
	</g>
	<g transform="matrix(0.7425,0,0,0.7425,0,0)">
		<line vector-effect="none" class="st3" x1="840" y1="360.9" x2="840" y2="387.7"/>
	</g>
	<g transform="matrix(0.7425,0,0,0.7425,0,0)">
		<g class="st1">
			<path d="M839.8,361c0-2.9,4.1-5.6,7.3-5.6c2.1,0,3.6,1.1,3.6,2.8c0,2.8-4.1,5.6-7.4,5.6C841.3,363.8,839.8,362.8,839.8,361z"/>
		</g>
	</g>
	<g transform="matrix(0.7425,0,0,0.7425,0,0)">
		<line vector-effect="none" class="st0" x1="880.2" y1="363.7" x2="897.2" y2="363.7"/>
	</g>
	<g transform="matrix(0.7425,0,0,0.7425,0,0)">
		<line vector-effect="none" class="st3" x1="883.5" y1="364.9" x2="883.5" y2="391.7"/>
	</g>
	<g transform="matrix(0.7425,0,0,0.7425,0,0)">
		<g class="st1">
			<path d="M883.3,365c0-2.9,4.1-5.6,7.3-5.6c2.1,0,3.6,1.1,3.6,2.8c0,2.8-4.1,5.6-7.4,5.6C884.8,367.8,883.3,366.8,883.3,365z"/>
		</g>
	</g>
	<g transform="matrix(0.7425,0,0,0.7425,0,0)">
		<line vector-effect="none" class="st3" x1="926.8" y1="368.9" x2="926.8" y2="395.7"/>
	</g>
	<g transform="matrix(0.7425,0,0,0.7425,0,0)">
		<g class="st1">
			<path d="M926.5,369c0-2.9,4.1-5.6,7.3-5.6c2.1,0,3.6,1.1,3.6,2.8c0,2.8-4.1,5.6-7.4,5.6C928.1,371.8,926.5,370.8,926.5,369z"/>
		</g>
	</g>
	<g transform="matrix(0.7425,0,0,0.7425,0,0)">
		<line vector-effect="none" class="st3" x1="46.2" y1="522.4" x2="46.2" y2="549.2"/>
	</g>
	<g transform="matrix(0.7425,0,0,0.7425,0,0)">
		<g class="st1">
			<path d="M46,522.5c0-2.9,4.1-5.6,7.3-5.6c2.1,0,3.6,1.1,3.6,2.8c0,2.8-4.1,5.6-7.4,5.6C47.6,525.3,46,524.3,46,522.5z"/>
		</g>
	</g>
	<g transform="matrix(0.7425,0,0,0.7425,0,0)">
		<line vector-effect="none" class="st3" x1="89.5" y1="526.4" x2="89.5" y2="553.2"/>
	</g>
	<g transform="matrix(0.7425,0,0,0.7425,0,0)">
		<g class="st1">
			<path d="M89.2,526.5c0-2.9,4.1-5.6,7.3-5.6c2.1,0,3.6,1.1,3.6,2.8c0,2.8-4.1,5.6-7.4,5.6C90.8,529.3,89.2,528.3,89.2,526.5z"/>
		</g>
	</g>
	<g transform="matrix(0.7425,0,0,0.7425,0,0)">
		<line vector-effect="none" class="st3" x1="132.5" y1="530.4" x2="132.5" y2="557.2"/>
	</g>
	<g transform="matrix(0.7425,0,0,0.7425,0,0)">
		<g class="st1">
			<path d="M132.3,530.5c0-2.9,4.1-5.6,7.3-5.6c2.1,0,3.6,1.1,3.6,2.8c0,2.8-4.1,5.6-7.4,5.6C133.8,533.3,132.3,532.3,132.3,530.5z"
				/>
		</g>
	</g>
	<g transform="matrix(0.7425,0,0,0.7425,0,0)">
		<line vector-effect="none" class="st3" x1="175.8" y1="534.4" x2="175.8" y2="561.2"/>
	</g>
	<g transform="matrix(0.7425,0,0,0.7425,0,0)">
		<g class="st1">
			<path d="M175.5,534.5c0-2.9,4.1-5.6,7.3-5.6c2.1,0,3.6,1.1,3.6,2.8c0,2.8-4.1,5.6-7.4,5.6C177.1,537.3,175.5,536.3,175.5,534.5z"
				/>
		</g>
	</g>
	<g transform="matrix(0.7425,0,0,0.7425,0,0)">
		<line vector-effect="none" class="st3" x1="231" y1="538.4" x2="231" y2="565.2"/>
	</g>
	<g transform="matrix(0.7425,0,0,0.7425,0,0)">
		<g class="st1">
			<path d="M230.8,538.5c0-2.9,4.1-5.6,7.3-5.6c2.1,0,3.6,1.1,3.6,2.8c0,2.8-4.1,5.6-7.4,5.6C232.3,541.3,230.8,540.3,230.8,538.5z"
				/>
		</g>
	</g>
	<g transform="matrix(0.7425,0,0,0.7425,0,0)">
		<line vector-effect="none" class="st3" x1="274.2" y1="534.4" x2="274.2" y2="561.2"/>
	</g>
	<g transform="matrix(0.7425,0,0,0.7425,0,0)">
		<g class="st1">
			<path d="M274,534.5c0-2.9,4.1-5.6,7.3-5.6c2.1,0,3.6,1.1,3.6,2.8c0,2.8-4.1,5.6-7.4,5.6C275.6,537.3,274,536.3,274,534.5z"/>
		</g>
	</g>
	<g transform="matrix(0.7425,0,0,0.7425,0,0)">
		<line vector-effect="none" class="st3" x1="317.2" y1="530.4" x2="317.2" y2="557.2"/>
	</g>
	<g transform="matrix(0.7425,0,0,0.7425,0,0)">
		<g class="st1">
			<path d="M317,530.5c0-2.9,4.1-5.6,7.3-5.6c2.1,0,3.6,1.1,3.6,2.8c0,2.8-4.1,5.6-7.4,5.6C318.6,533.3,317,532.3,317,530.5z"/>
		</g>
	</g>
	<g transform="matrix(0.7425,0,0,0.7425,0,0)">
		<line vector-effect="none" class="st3" x1="360.5" y1="526.4" x2="360.5" y2="553.2"/>
	</g>
	<g transform="matrix(0.7425,0,0,0.7425,0,0)">
		<g class="st1">
			<path d="M360.3,526.5c0-2.9,4.1-5.6,7.3-5.6c2.1,0,3.6,1.1,3.6,2.8c0,2.8-4.1,5.6-7.4,5.6C361.8,529.3,360.3,528.3,360.3,526.5z"
				/>
		</g>
	</g>
	<g transform="matrix(0.7425,0,0,0.7425,0,0)">
		<line vector-effect="none" class="st3" x1="415.8" y1="522.4" x2="415.8" y2="549.2"/>
	</g>
	<g transform="matrix(0.7425,0,0,0.7425,0,0)">
		<g class="st1">
			<path d="M415.5,522.5c0-2.9,4.1-5.6,7.3-5.6c2.1,0,3.6,1.1,3.6,2.8c0,2.8-4.1,5.6-7.4,5.6C417.1,525.3,415.5,524.3,415.5,522.5z"
				/>
		</g>
	</g>
	<g transform="matrix(0.7425,0,0,0.7425,0,0)">
		<line vector-effect="none" class="st3" x1="458.8" y1="518.4" x2="458.8" y2="545.2"/>
	</g>
	<g transform="matrix(0.7425,0,0,0.7425,0,0)">
		<g class="st1">
			<path d="M458.5,518.5c0-2.9,4.1-5.6,7.3-5.6c2.1,0,3.6,1.1,3.6,2.8c0,2.8-4.1,5.6-7.4,5.6C460.1,521.3,458.5,520.3,458.5,518.5z"
				/>
		</g>
	</g>
	<g transform="matrix(0.7425,0,0,0.7425,0,0)">
		<line vector-effect="none" class="st0" x1="498.8" y1="513.2" x2="515.8" y2="513.2"/>
	</g>
	<g transform="matrix(0.7425,0,0,0.7425,0,0)">
		<line vector-effect="none" class="st3" x1="502" y1="514.4" x2="502" y2="541.2"/>
	</g>
	<g transform="matrix(0.7425,0,0,0.7425,0,0)">
		<g class="st1">
			<path d="M501.7,514.5c0-2.9,4.1-5.6,7.3-5.6c2.1,0,3.6,1.1,3.6,2.8c0,2.8-4.1,5.6-7.4,5.6C503.3,517.3,501.7,516.3,501.7,514.5z"
				/>
		</g>
	</g>
	<g transform="matrix(0.7425,0,0,0.7425,0,0)">
		<line vector-effect="none" class="st0" x1="542" y1="513.2" x2="559" y2="513.2"/>
	</g>
	<g transform="matrix(0.7425,0,0,0.7425,0,0)">
		<line vector-effect="none" class="st3" x1="545.2" y1="510.4" x2="545.2" y2="537.2"/>
	</g>
	<g transform="matrix(0.7425,0,0,0.7425,0,0)">
		<g class="st1">
			<path d="M545,510.5c0-2.9,4.1-5.6,7.3-5.6c2.1,0,3.6,1.1,3.6,2.8c0,2.8-4.1,5.6-7.4,5.6C546.6,513.3,545,512.3,545,510.5z"/>
		</g>
	</g>
	<g transform="matrix(0.7425,0,0,0.7425,0,0)">
		<line vector-effect="none" class="st0" x1="597" y1="513.2" x2="614" y2="513.2"/>
	</g>
	<g transform="matrix(0.7425,0,0,0.7425,0,0)">
		<line vector-effect="none" class="st0" x1="597" y1="505.2" x2="614" y2="505.2"/>
	</g>
	<g transform="matrix(0.7425,0,0,0.7425,0,0)">
		<line vector-effect="none" class="st3" x1="600.2" y1="506.4" x2="600.2" y2="537.2"/>
	</g>
	<g transform="matrix(0.7425,0,0,0.7425,0,0)">
		<g class="st1">
			<path d="M600,506.5c0-2.9,4.1-5.6,7.3-5.6c2.1,0,3.6,1.1,3.6,2.8c0,2.8-4.1,5.6-7.4,5.6C601.6,509.3,600,508.3,600,506.5z"/>
		</g>
	</g>
	<g transform="matrix(0.7425,0,0,0.7425,0,0)">
		<line vector-effect="none" class="st0" x1="640.2" y1="513.2" x2="657.2" y2="513.2"/>
	</g>
	<g transform="matrix(0.7425,0,0,0.7425,0,0)">
		<line vector-effect="none" class="st3" x1="643.5" y1="510.4" x2="643.5" y2="537.2"/>
	</g>
	<g transform="matrix(0.7425,0,0,0.7425,0,0)">
		<g class="st1">
			<path d="M643.3,510.5c0-2.9,4.1-5.6,7.3-5.6c2.1,0,3.6,1.1,3.6,2.8c0,2.8-4.1,5.6-7.4,5.6C644.8,513.3,643.3,512.3,643.3,510.5z"
				/>
		</g>
	</g>
	<g transform="matrix(0.7425,0,0,0.7425,0,0)">
		<line vector-effect="none" class="st0" x1="683.5" y1="513.2" x2="700.5" y2="513.2"/>
	</g>
	<g transform="matrix(0.7425,0,0,0.7425,0,0)">
		<line vector-effect="none" class="st3" x1="686.8" y1="514.4" x2="686.8" y2="541.2"/>
	</g>
	<g transform="matrix(0.7425,0,0,0.7425,0,0)">
		<g class="st1">
			<path d="M686.5,514.5c0-2.9,4.1-5.6,7.3-5.6c2.1,0,3.6,1.1,3.6,2.8c0,2.8-4.1,5.6-7.4,5.6C688.1,517.3,686.5,516.3,686.5,514.5z"
				/>
		</g>
	</g>
	<g transform="matrix(0.7425,0,0,0.7425,0,0)">
		<line vector-effect="none" class="st3" x1="729.8" y1="518.4" x2="729.8" y2="545.2"/>
	</g>
	<g transform="matrix(0.7425,0,0,0.7425,0,0)">
		<g class="st1">
			<path d="M729.5,518.5c0-2.9,4.1-5.6,7.3-5.6c2.1,0,3.6,1.1,3.6,2.8c0,2.8-4.1,5.6-7.4,5.6C731.1,521.3,729.5,520.3,729.5,518.5z"
				/>
		</g>
	</g>
	<g transform="matrix(0.7425,0,0,0.7425,0,0)">
		<line vector-effect="none" class="st3" x1="785" y1="522.4" x2="785" y2="549.2"/>
	</g>
	<g transform="matrix(0.7425,0,0,0.7425,0,0)">
		<g class="st1">
			<path d="M784.7,522.5c0-2.9,4.1-5.6,7.3-5.6c2.1,0,3.6,1.1,3.6,2.8c0,2.8-4.1,5.6-7.4,5.6C786.3,525.3,784.7,524.3,784.7,522.5z"
				/>
		</g>
	</g>
	<g transform="matrix(0.7425,0,0,0.7425,0,0)">
		<line vector-effect="none" class="st3" x1="828.2" y1="526.4" x2="828.2" y2="553.2"/>
	</g>
	<g transform="matrix(0.7425,0,0,0.7425,0,0)">
		<g class="st1">
			<path d="M828,526.5c0-2.9,4.1-5.6,7.3-5.6c2.1,0,3.6,1.1,3.6,2.8c0,2.8-4.1,5.6-7.4,5.6C829.6,529.3,828,528.3,828,526.5z"/>
		</g>
	</g>
	<g transform="matrix(0.7425,0,0,0.7425,0,0)">
		<line vector-effect="none" class="st3" x1="871.5" y1="530.4" x2="871.5" y2="557.2"/>
	</g>
	<g transform="matrix(0.7425,0,0,0.7425,0,0)">
		<g class="st1">
			<path d="M871.3,530.5c0-2.9,4.1-5.6,7.3-5.6c2.1,0,3.6,1.1,3.6,2.8c0,2.8-4.1,5.6-7.4,5.6C872.8,533.3,871.3,532.3,871.3,530.5z"
				/>
		</g>
	</g>
	<g transform="matrix(0.7425,0,0,0.7425,0,0)">
		<line vector-effect="none" class="st3" x1="914.5" y1="534.4" x2="914.5" y2="561.2"/>
	</g>
	<g transform="matrix(0.7425,0,0,0.7425,0,0)">
		<g class="st1">
			<path d="M914.2,534.5c0-2.9,4.1-5.6,7.3-5.6c2.1,0,3.6,1.1,3.6,2.8c0,2.8-4.1,5.6-7.4,5.6C915.8,537.3,914.2,536.3,914.2,534.5z"
				/>
		</g>
	</g>
</g>
</svg>
