<?xml version="1.0" encoding="utf-8"?>
<!-- Generator: Adobe Illustrator 26.3.1, SVG Export Plug-In . SVG Version: 6.00 Build 0)  -->
<svg version="1.1" id="Layer_1" xmlns="http://www.w3.org/2000/svg" xmlns:xlink="http://www.w3.org/1999/xlink" x="0px" y="0px"
	 viewBox="0 0 720 432" style="enable-background:new 0 0 720 432;" xml:space="preserve">
<style type="text/css">
	.st0{fill:none;stroke:#000000;stroke-width:0.9281;stroke-linejoin:bevel;stroke-miterlimit:10;}
	.st1{enable-background:new    ;}
	.st2{fill:none;stroke:#000000;stroke-width:2.97;stroke-linejoin:bevel;stroke-miterlimit:10;}
	.st3{fill:none;stroke:#000000;stroke-width:0.5569;stroke-linejoin:bevel;stroke-miterlimit:10;}
</style>
<g>
	<g transform="matrix(0.7425,0,0,0.7425,0,0)">
		<line vector-effect="none" class="st0" x1="206" y1="72.4" x2="206" y2="104.4"/>
	</g>
	<g transform="matrix(0.7425,0,0,0.7425,0,0)">
		<line vector-effect="none" class="st0" x1="303" y1="72.4" x2="303" y2="104.4"/>
	</g>
	<g transform="matrix(0.7425,0,0,0.7425,0,0)">
		<line vector-effect="none" class="st0" x1="460.2" y1="72.4" x2="460.2" y2="104.4"/>
	</g>
	<g transform="matrix(0.7425,0,0,0.7425,0,0)">
		<line vector-effect="none" class="st0" x1="557.5" y1="72.4" x2="557.5" y2="104.4"/>
	</g>
	<g transform="matrix(0.7425,0,0,0.7425,0,0)">
		<line vector-effect="none" class="st0" x1="714.8" y1="72.4" x2="714.8" y2="104.4"/>
	</g>
	<g transform="matrix(0.7425,0,0,0.7425,0,0)">
		<line vector-effect="none" class="st0" x1="811.8" y1="72.4" x2="811.8" y2="104.4"/>
	</g>
	<g transform="matrix(0.7425,0,0,0.7425,0,0)">
		<line vector-effect="none" class="st0" x1="969.2" y1="72.4" x2="969.2" y2="104.4"/>
	</g>
	<g transform="matrix(0.7425,0,0,0.7425,0,0)">
	</g>
	<g transform="matrix(0.7425,0,0,0.7425,153.697,102.19)">
	</g>
	<g transform="matrix(0.7425,0,0,0.7425,153.697,102.19)">
		<g class="st1">
			<path d="M-150-85.2h-5v-0.4c1.5,0,1.6-0.3,1.6-1.7v-7.5c0-1.4-0.1-1.7-1.6-1.7V-97h5.6c0.8,0,1.7,0.2,2.6,0.5
				c2.5,0.9,3.7,2.7,3.7,5.4C-143-87.4-145.7-85.2-150-85.2z M-150.1-96.3c-1.4,0-1.4,0.2-1.4,1.6v7.1c0,1.4,0,1.6,1.5,1.6
				c3.3,0,5.1-1.8,5.1-5C-145-94.3-146.8-96.3-150.1-96.3z"/>
			<path d="M-133.9-85.2v-0.3c0.7,0,1-0.2,1-1.2v-3.7c0-0.9-0.4-1.3-1.2-1.3c-0.6,0-1.3,0.3-1.8,1c0.1,0.1,0.1,0.5,0.1,1.1v1.6
				c0,0.8,0,1.2,0,1.2c0,1.1,0.2,1.3,1,1.3v0.3h-3.4v-0.3c0.7,0,1-0.2,1-1.2v-3.7c0-0.9-0.4-1.3-1.1-1.3c-0.6,0-1.2,0.3-1.8,1v4.1
				c0,0.9,0.3,1.1,1,1.1v0.3h-3.4v-0.3c0.9,0,1-0.3,1-1.3v-4c0-0.4-0.1-0.6-0.3-0.6h-0.8v-0.3l2.4-0.8v1.3c0.7-0.9,1.5-1.3,2.5-1.3
				c0.9,0,1.4,0.4,1.6,1.3c0.8-0.9,1.7-1.3,2.7-1.3c0.5,0,0.9,0.1,1.2,0.4c0.3,0.3,0.6,1.3,0.6,1.8v3.6c0,1.1,0.2,1.3,1,1.3v0.3
				H-133.9z"/>
			<path d="M-127.6-89.8h-0.7l2.4-7.4h-2.5c-0.7,0-1.2,0.4-1.5,1.1l-0.2-0.1l0.7-2h4.6L-127.6-89.8z"/>
		</g>
	</g>
	<g transform="matrix(0.7425,0,0,0.7425,153.697,102.19)">
	</g>
	<g transform="matrix(0.7425,0,0,0.7425,0,0)">
	</g>
	<g transform="matrix(0.7425,0,0,0.7425,0,0)">
		<line vector-effect="none" class="st0" x1="148" y1="221.9" x2="148" y2="253.9"/>
	</g>
	<g transform="matrix(0.7425,0,0,0.7425,0,0)">
		<line vector-effect="none" class="st2" x1="153.5" y1="221.9" x2="153.5" y2="253.9"/>
	</g>
	<g transform="matrix(0.7425,0,0,0.7425,0,0)">
		<g class="st1">
			<path d="M144.3,233.9c0,0.7-0.7,1.4-1.5,1.4c-0.7,0-1.5-0.7-1.5-1.4c0-0.9,0.7-1.5,1.5-1.5C143.6,232.4,144.3,233.1,144.3,233.9z
				"/>
		</g>
	</g>
	<g transform="matrix(0.7425,0,0,0.7425,0,0)">
		<g class="st1">
			<path d="M144.3,241.9c0,0.7-0.7,1.4-1.5,1.4c-0.7,0-1.5-0.7-1.5-1.4c0-0.9,0.7-1.5,1.5-1.5C143.6,240.4,144.3,241.1,144.3,241.9z
				"/>
		</g>
	</g>
	<g transform="matrix(0.7425,0,0,0.7425,0,0)">
		<line vector-effect="none" class="st0" x1="323.2" y1="221.9" x2="323.2" y2="253.9"/>
	</g>
	<g transform="matrix(0.7425,0,0,0.7425,0,0)">
		<line vector-effect="none" class="st0" x1="426.5" y1="221.9" x2="426.5" y2="253.9"/>
	</g>
	<g transform="matrix(0.7425,0,0,0.7425,0,0)">
		<line vector-effect="none" class="st0" x1="594.5" y1="221.9" x2="594.5" y2="253.9"/>
	</g>
	<g transform="matrix(0.7425,0,0,0.7425,0,0)">
		<line vector-effect="none" class="st0" x1="697.8" y1="221.9" x2="697.8" y2="253.9"/>
	</g>
	<g transform="matrix(0.7425,0,0,0.7425,0,0)">
		<line vector-effect="none" class="st0" x1="866" y1="221.9" x2="866" y2="253.9"/>
	</g>
	<g transform="matrix(0.7425,0,0,0.7425,0,0)">
		<line vector-effect="none" class="st0" x1="969.2" y1="221.9" x2="969.2" y2="253.9"/>
	</g>
	<g transform="matrix(0.7425,0,0,0.7425,0,0)">
	</g>
	<g transform="matrix(0.7425,0,0,0.7425,462.577,546.205)">
	</g>
	<g transform="matrix(0.7425,0,0,0.7425,462.577,546.205)">
		<g class="st1">
			<path d="M-457.2-533.7h-9.7v-0.4c1.5,0,1.6-0.3,1.6-1.7v-7.5c0-1.4-0.1-1.7-1.6-1.7v-0.4h9.6v2.7h-0.4c-0.1-1.2-0.7-1.8-1.7-1.8
				h-3.1c-0.8,0-1,0.4-1,1.2v3.3h3.1c1,0,1.7-0.7,1.7-1.7h0.4v4.2h-0.4c0-1-0.7-1.7-1.7-1.7h-3.1v3.7c0,0.8,0.2,1.2,1,1.2h3
				c1.2,0,2.3-1,2.6-2.2h0.5L-457.2-533.7z"/>
			<path d="M-455.2-546.4h0.8l-0.1,6.4c0.9-1,1.1-1.1,1.9-1.1c1.3,0,2.2,0.9,2.2,2.3c0,2-2,2.8-3.6,4.1l-1.2,1V-546.4z
				 M-454.4-539.1c-0.1,1.3-0.1,2.1-0.1,2.5c0,0.6,0.1,1.2,0.2,1.5c1.7-1.3,2.5-2.6,2.5-3.7c0-0.9-0.5-1.6-1.3-1.6
				C-453.8-540.4-454.1-539.7-454.4-539.1z"/>
			<path d="M-441-533.7v-0.3c0.7,0,1-0.2,1-1.2v-3.7c0-0.9-0.4-1.3-1.2-1.3c-0.6,0-1.3,0.3-1.8,1c0.1,0.1,0.1,0.5,0.1,1.1v1.6
				c0,0.8,0,1.2,0,1.2c0,1.1,0.2,1.3,1,1.3v0.3h-3.4v-0.3c0.7,0,1-0.2,1-1.2v-3.7c0-0.9-0.4-1.3-1.1-1.3c-0.6,0-1.2,0.3-1.8,1v4.1
				c0,0.9,0.3,1.1,1,1.1v0.3h-3.4v-0.3c0.9,0,1-0.3,1-1.3v-4c0-0.4-0.1-0.6-0.3-0.6h-0.8v-0.3l2.4-0.8v1.3c0.7-0.9,1.5-1.3,2.5-1.3
				c0.9,0,1.4,0.4,1.6,1.3c0.8-0.9,1.7-1.3,2.7-1.3c0.5,0,0.9,0.1,1.2,0.4c0.3,0.3,0.6,1.3,0.6,1.8v3.6c0,1.1,0.2,1.3,1,1.3v0.3
				H-441z"/>
			<path d="M-434.6-538.3h-0.7l2.4-7.4h-2.5c-0.7,0-1.2,0.4-1.5,1.1l-0.2-0.1l0.7-2h4.6L-434.6-538.3z"/>
		</g>
	</g>
	<g transform="matrix(0.7425,0,0,0.7425,462.577,546.205)">
	</g>
	<g transform="matrix(0.7425,0,0,0.7425,0,0)">
	</g>
	<g transform="matrix(0.7425,0,0,0.7425,0,0)">
		<line vector-effect="none" class="st0" x1="253.2" y1="371.7" x2="253.2" y2="403.7"/>
	</g>
	<g transform="matrix(0.7425,0,0,0.7425,0,0)">
		<line vector-effect="none" class="st0" x1="392" y1="371.7" x2="392" y2="403.7"/>
	</g>
	<g transform="matrix(0.7425,0,0,0.7425,0,0)">
		<line vector-effect="none" class="st0" x1="396.2" y1="371.7" x2="396.2" y2="403.7"/>
	</g>
	<g transform="matrix(0.7425,0,0,0.7425,0,0)">
		<line vector-effect="none" class="st0" x1="616" y1="371.7" x2="616" y2="403.7"/>
	</g>
	<g transform="matrix(0.7425,0,0,0.7425,0,0)">
		<line vector-effect="none" class="st0" x1="749.5" y1="371.7" x2="749.5" y2="403.7"/>
	</g>
	<g transform="matrix(0.7425,0,0,0.7425,0,0)">
		<line vector-effect="none" class="st0" x1="969.2" y1="371.7" x2="969.2" y2="403.7"/>
	</g>
	<g transform="matrix(0.7425,0,0,0.7425,0,0)">
	</g>
	<g transform="matrix(0.7425,0,0,0.7425,1186.51,990.962)">
	</g>
	<g transform="matrix(0.7425,0,0,0.7425,1186.51,990.962)">
		<g class="st1">
			<path d="M-1193.2-983h-5v-0.4c1.5,0,1.6-0.3,1.6-1.7v-7.5c0-1.4-0.1-1.7-1.6-1.7v-0.4h5.6c0.8,0,1.7,0.2,2.6,0.5
				c2.5,0.9,3.7,2.7,3.7,5.4C-1186.3-985.1-1188.9-983-1193.2-983z M-1193.4-994.1c-1.4,0-1.4,0.2-1.4,1.6v7.1c0,1.4,0,1.6,1.5,1.6
				c3.3,0,5.1-1.8,5.1-5C-1188.2-992-1190.1-994.1-1193.4-994.1z"/>
			<path d="M-1177.2-983v-0.3c0.7,0,1-0.2,1-1.2v-3.7c0-0.9-0.4-1.3-1.2-1.3c-0.6,0-1.3,0.3-1.8,1c0.1,0.1,0.1,0.5,0.1,1.1v1.6
				c0,0.8,0,1.2,0,1.2c0,1.1,0.2,1.3,1,1.3v0.3h-3.4v-0.3c0.7,0,1-0.2,1-1.2v-3.7c0-0.9-0.4-1.3-1.1-1.3c-0.6,0-1.2,0.3-1.8,1v4.1
				c0,0.9,0.3,1.1,1,1.1v0.3h-3.4v-0.3c0.9,0,1-0.3,1-1.3v-4c0-0.4-0.1-0.6-0.3-0.6h-0.8v-0.3l2.4-0.8v1.3c0.7-0.9,1.5-1.3,2.5-1.3
				c0.9,0,1.4,0.4,1.6,1.3c0.8-0.9,1.7-1.3,2.7-1.3c0.5,0,0.9,0.1,1.2,0.4c0.3,0.3,0.6,1.3,0.6,1.8v3.6c0,1.1,0.2,1.3,1,1.3v0.3
				H-1177.2z"/>
			<path d="M-1170.8-987.6h-0.7l2.4-7.4h-2.5c-0.7,0-1.2,0.4-1.5,1.1l-0.2-0.1l0.7-2h4.6L-1170.8-987.6z"/>
		</g>
	</g>
	<g transform="matrix(0.7425,0,0,0.7425,1186.51,990.962)">
	</g>
	<g transform="matrix(0.7425,0,0,0.7425,0,0)">
	</g>
	<g transform="matrix(0.7425,0,0,0.7425,0,0)">
		<line vector-effect="none" class="st0" x1="180" y1="521.2" x2="180" y2="553.2"/>
	</g>
	<g transform="matrix(0.7425,0,0,0.7425,0,0)">
		<line vector-effect="none" class="st0" x1="422" y1="521.2" x2="422" y2="553.2"/>
	</g>
	<g transform="matrix(0.7425,0,0,0.7425,0,0)">
		<line vector-effect="none" class="st0" x1="568.5" y1="521.2" x2="568.5" y2="553.2"/>
	</g>
	<g transform="matrix(0.7425,0,0,0.7425,0,0)">
		<line vector-effect="none" class="st0" x1="810.5" y1="521.2" x2="810.5" y2="553.2"/>
	</g>
	<g transform="matrix(0.7425,0,0,0.7425,0,0)">
		<line vector-effect="none" class="st0" x1="962.2" y1="521.2" x2="962.2" y2="553.2"/>
	</g>
	<g transform="matrix(0.7425,0,0,0.7425,0,0)">
		<line vector-effect="none" class="st2" x1="967.8" y1="521.2" x2="967.8" y2="553.2"/>
	</g>
	<g transform="matrix(0.7425,0,0,0.7425,0,0)">
	</g>
	<g transform="matrix(0.7425,0,0,0.7425,106.177,117.388)">
	</g>
	<g transform="matrix(0.7425,0,0,0.7425,106.177,117.388)">
		<g class="st1">
			<path d="M-96.6-73.8v0.8c0,0.3,0,0.5,0,0.6c0,0.8,0.3,1,1.8,1.1l0.1,0.9h-7.9l0.1-0.9c1-0.1,1.6-0.3,1.8-0.6
				c0.1-0.2,0.1-0.8,0.1-1.9h-6.6v-1.3c2-2.5,3.8-7.1,4.1-10.3h5.5c-0.3,1.5-1.5,3.2-3.4,5.2c-2.2,2.2-3.5,3.8-4,5.1h4.4v-3.7l4-3.6
				v7.3h2v1.4H-96.6z"/>
		</g>
	</g>
	<g transform="matrix(0.7425,0,0,0.7425,106.177,117.388)">
		<g class="st1">
			<path d="M-96.6-57.6v0.8c0,0.3,0,0.5,0,0.6c0,0.8,0.3,1,1.8,1.1l0.1,0.9h-7.9l0.1-0.9c1-0.1,1.6-0.3,1.8-0.6
				c0.1-0.2,0.1-0.8,0.1-1.9h-6.6v-1.3c2-2.5,3.8-7.1,4.1-10.3h5.5c-0.3,1.5-1.5,3.2-3.4,5.2c-2.2,2.2-3.5,3.8-4,5.1h4.4v-3.7l4-3.6
				v7.3h2v1.4H-96.6z"/>
		</g>
	</g>
	<g transform="matrix(0.7425,0,0,0.7425,106.177,117.388)">
	</g>
	<g transform="matrix(0.7425,0,0,0.7425,0,0)">
	</g>
	<g transform="matrix(0.7425,0,0,0.7425,0,0)">
		<line vector-effect="none" class="st3" x1="0" y1="104.4" x2="969.8" y2="104.4"/>
	</g>
	<g transform="matrix(0.7425,0,0,0.7425,0,0)">
		<line vector-effect="none" class="st3" x1="0" y1="96.4" x2="969.8" y2="96.4"/>
	</g>
	<g transform="matrix(0.7425,0,0,0.7425,0,0)">
		<line vector-effect="none" class="st3" x1="0" y1="88.4" x2="969.8" y2="88.4"/>
	</g>
	<g transform="matrix(0.7425,0,0,0.7425,0,0)">
		<line vector-effect="none" class="st3" x1="0" y1="80.4" x2="969.8" y2="80.4"/>
	</g>
	<g transform="matrix(0.7425,0,0,0.7425,0,0)">
		<line vector-effect="none" class="st3" x1="0" y1="72.4" x2="969.8" y2="72.4"/>
	</g>
	<g transform="matrix(0.7425,0,0,0.7425,0,0)">
		<g class="st1">
			<path d="M11.7,95.3c4.7-4.2,7.6-9.8,7.6-14.9c0-4.1-2.3-7.1-6-7.1c-2.6,0-5.4,2.2-5.4,4.4c0,0.4,0.1,0.5,0.2,0.5
				c-0.1,0,0.9-1,2.2-1c1.4,0,2.5,1.3,2.5,2.8c0,2-1.4,3.6-3.4,3.6c-2,0-3.3-2.1-3.3-4.6c0-3.8,3.7-6.7,7.8-6.7
				c7.5,0,9.5,5.2,9.5,9.4c0,2.7-0.7,4.7-3.2,8.6c-3.1,4.9-10.4,8.5-13,8.5c-0.7,0-1-0.3-1-0.7C8.6,97.3,10.4,96.4,11.7,95.3z
				 M27.8,74.8c0.9,0,1.6,0.7,1.6,1.6S28.7,78,27.8,78c-0.9,0-1.6-0.7-1.6-1.6S26.9,74.8,27.8,74.8z M27.8,82.8
				c0.9,0,1.6,0.7,1.6,1.6c0,0.9-0.7,1.6-1.6,1.6c-0.9,0-1.6-0.7-1.6-1.6C26.2,83.5,26.9,82.8,27.8,82.8z"/>
		</g>
	</g>
	<g transform="matrix(0.7425,0,0,0.7425,0,0)">
		<line vector-effect="none" class="st3" x1="0" y1="253.9" x2="969.8" y2="253.9"/>
	</g>
	<g transform="matrix(0.7425,0,0,0.7425,0,0)">
		<line vector-effect="none" class="st3" x1="0" y1="245.9" x2="969.8" y2="245.9"/>
	</g>
	<g transform="matrix(0.7425,0,0,0.7425,0,0)">
		<line vector-effect="none" class="st3" x1="0" y1="237.9" x2="969.8" y2="237.9"/>
	</g>
	<g transform="matrix(0.7425,0,0,0.7425,0,0)">
		<line vector-effect="none" class="st3" x1="0" y1="229.9" x2="969.8" y2="229.9"/>
	</g>
	<g transform="matrix(0.7425,0,0,0.7425,0,0)">
		<line vector-effect="none" class="st3" x1="0" y1="221.9" x2="969.8" y2="221.9"/>
	</g>
	<g transform="matrix(0.7425,0,0,0.7425,0,0)">
		<g class="st1">
			<path d="M11.7,244.8c4.7-4.2,7.6-9.8,7.6-14.9c0-4.1-2.3-7.1-6-7.1c-2.6,0-5.4,2.2-5.4,4.4c0,0.4,0.1,0.5,0.2,0.5
				c-0.1,0,0.9-1,2.2-1c1.4,0,2.5,1.3,2.5,2.8c0,2-1.4,3.6-3.4,3.6c-2,0-3.3-2.1-3.3-4.6c0-3.8,3.7-6.7,7.8-6.7
				c7.5,0,9.5,5.2,9.5,9.4c0,2.7-0.7,4.7-3.2,8.6c-3.1,4.9-10.4,8.5-13,8.5c-0.7,0-1-0.3-1-0.7C8.6,246.8,10.4,245.9,11.7,244.8z
				 M27.8,224.3c0.9,0,1.6,0.7,1.6,1.6c0,0.9-0.7,1.6-1.6,1.6c-0.9,0-1.6-0.7-1.6-1.6C26.2,225,26.9,224.3,27.8,224.3z M27.8,232.3
				c0.9,0,1.6,0.7,1.6,1.6c0,0.9-0.7,1.6-1.6,1.6c-0.9,0-1.6-0.7-1.6-1.6C26.2,233,26.9,232.3,27.8,232.3z"/>
		</g>
	</g>
	<g transform="matrix(0.7425,0,0,0.7425,0,0)">
		<line vector-effect="none" class="st3" x1="0" y1="403.7" x2="969.8" y2="403.7"/>
	</g>
	<g transform="matrix(0.7425,0,0,0.7425,0,0)">
		<line vector-effect="none" class="st3" x1="0" y1="395.7" x2="969.8" y2="395.7"/>
	</g>
	<g transform="matrix(0.7425,0,0,0.7425,0,0)">
		<line vector-effect="none" class="st3" x1="0" y1="387.7" x2="969.8" y2="387.7"/>
	</g>
	<g transform="matrix(0.7425,0,0,0.7425,0,0)">
		<line vector-effect="none" class="st3" x1="0" y1="379.7" x2="969.8" y2="379.7"/>
	</g>
	<g transform="matrix(0.7425,0,0,0.7425,0,0)">
		<line vector-effect="none" class="st3" x1="0" y1="371.7" x2="969.8" y2="371.7"/>
	</g>
	<g transform="matrix(0.7425,0,0,0.7425,0,0)">
		<g class="st1">
			<path d="M11.7,394.5c4.7-4.2,7.6-9.8,7.6-14.9c0-4.1-2.3-7.1-6-7.1c-2.6,0-5.4,2.2-5.4,4.4c0,0.4,0.1,0.5,0.2,0.5
				c-0.1,0,0.9-1,2.2-1c1.4,0,2.5,1.3,2.5,2.8c0,2-1.4,3.6-3.4,3.6c-2,0-3.3-2.1-3.3-4.6c0-3.8,3.7-6.7,7.8-6.7
				c7.5,0,9.5,5.2,9.5,9.4c0,2.7-0.7,4.7-3.2,8.6c-3.1,4.9-10.4,8.5-13,8.5c-0.7,0-1-0.3-1-0.7C8.6,396.6,10.4,395.7,11.7,394.5z
				 M27.8,374.1c0.9,0,1.6,0.7,1.6,1.6c0,0.9-0.7,1.6-1.6,1.6c-0.9,0-1.6-0.7-1.6-1.6C26.2,374.8,26.9,374.1,27.8,374.1z M27.8,382
				c0.9,0,1.6,0.7,1.6,1.6c0,0.9-0.7,1.6-1.6,1.6c-0.9,0-1.6-0.7-1.6-1.6C26.2,382.7,26.9,382,27.8,382z"/>
		</g>
	</g>
	<g transform="matrix(0.7425,0,0,0.7425,0,0)">
		<line vector-effect="none" class="st3" x1="0" y1="553.2" x2="969.8" y2="553.2"/>
	</g>
	<g transform="matrix(0.7425,0,0,0.7425,0,0)">
		<line vector-effect="none" class="st3" x1="0" y1="545.2" x2="969.8" y2="545.2"/>
	</g>
	<g transform="matrix(0.7425,0,0,0.7425,0,0)">
		<line vector-effect="none" class="st3" x1="0" y1="537.2" x2="969.8" y2="537.2"/>
	</g>
	<g transform="matrix(0.7425,0,0,0.7425,0,0)">
		<line vector-effect="none" class="st3" x1="0" y1="529.2" x2="969.8" y2="529.2"/>
	</g>
	<g transform="matrix(0.7425,0,0,0.7425,0,0)">
		<line vector-effect="none" class="st3" x1="0" y1="521.2" x2="969.8" y2="521.2"/>
	</g>
	<g transform="matrix(0.7425,0,0,0.7425,0,0)">
		<g class="st1">
			<path d="M11.7,544c4.7-4.2,7.6-9.8,7.6-14.9c0-4.1-2.3-7.1-6-7.1c-2.6,0-5.4,2.2-5.4,4.4c0,0.4,0.1,0.5,0.2,0.5
				c-0.1,0,0.9-1,2.2-1c1.4,0,2.5,1.3,2.5,2.8c0,2-1.4,3.6-3.4,3.6c-2,0-3.3-2.1-3.3-4.6c0-3.8,3.7-6.7,7.8-6.7
				c7.5,0,9.5,5.2,9.5,9.4c0,2.7-0.7,4.7-3.2,8.6c-3.1,4.9-10.4,8.5-13,8.5c-0.7,0-1-0.3-1-0.7C8.6,546.1,10.4,545.2,11.7,544z
				 M27.8,523.6c0.9,0,1.6,0.7,1.6,1.6c0,0.9-0.7,1.6-1.6,1.6c-0.9,0-1.6-0.7-1.6-1.6C26.2,524.3,26.9,523.6,27.8,523.6z
				 M27.8,531.5c0.9,0,1.6,0.7,1.6,1.6c0,0.9-0.7,1.6-1.6,1.6c-0.9,0-1.6-0.7-1.6-1.6C26.2,532.2,26.9,531.5,27.8,531.5z"/>
		</g>
	</g>
	<g transform="matrix(0.7425,0,0,0.7425,0,0)">
		<line vector-effect="none" class="st3" x1="61.2" y1="89.7" x2="61.2" y2="116.4"/>
	</g>
	<g transform="matrix(0.7425,0,0,0.7425,0,0)">
		<g class="st1">
			<path d="M61,89.8c0-2.9,4.1-5.6,7.3-5.6c2.1,0,3.6,1.1,3.6,2.8c0,2.8-4.1,5.6-7.4,5.6C62.6,92.6,61,91.6,61,89.8z"/>
		</g>
	</g>
	<g transform="matrix(0.7425,0,0,0.7425,0,0)">
		<line vector-effect="none" class="st3" x1="97.5" y1="81.7" x2="97.5" y2="108.4"/>
	</g>
	<g transform="matrix(0.7425,0,0,0.7425,0,0)">
		<g class="st1">
			<path d="M97.3,81.8c0-2.9,4.1-5.6,7.3-5.6c2.1,0,3.6,1.1,3.6,2.8c0,2.8-4.1,5.6-7.4,5.6C98.8,84.6,97.3,83.6,97.3,81.8z"/>
		</g>
	</g>
	<g transform="matrix(0.7425,0,0,0.7425,0,0)">
		<line vector-effect="none" class="st3" x1="134" y1="73.7" x2="134" y2="100.4"/>
	</g>
	<g transform="matrix(0.7425,0,0,0.7425,0,0)">
		<g class="st1">
			<path d="M133.8,73.8c0-2.9,4.1-5.6,7.3-5.6c2.1,0,3.6,1.1,3.6,2.8c0,2.8-4.1,5.6-7.4,5.6C135.3,76.6,133.8,75.6,133.8,73.8z"/>
		</g>
	</g>
	<g transform="matrix(0.7425,0,0,0.7425,0,0)">
		<line vector-effect="none" class="st0" x1="167" y1="64.4" x2="184" y2="64.4"/>
	</g>
	<g transform="matrix(0.7425,0,0,0.7425,0,0)">
		<line vector-effect="none" class="st3" x1="170.2" y1="65.7" x2="170.2" y2="92.4"/>
	</g>
	<g transform="matrix(0.7425,0,0,0.7425,0,0)">
		<g class="st1">
			<path d="M170,65.8c0-2.9,4.1-5.6,7.3-5.6c2.1,0,3.6,1.1,3.6,2.8c0,2.8-4.1,5.6-7.4,5.6C171.6,68.6,170,67.6,170,65.8z"/>
		</g>
	</g>
	<g transform="matrix(0.7425,0,0,0.7425,0,0)">
		<line vector-effect="none" class="st0" x1="214.5" y1="64.4" x2="237.5" y2="64.4"/>
	</g>
	<g transform="matrix(0.7425,0,0,0.7425,0,0)">
		<line vector-effect="none" class="st0" x1="214.5" y1="56.4" x2="237.5" y2="56.4"/>
	</g>
	<g transform="matrix(0.7425,0,0,0.7425,0,0)">
		<g class="st1">
			<path d="M226.1,52.1c3.6,0,7.3,1.9,7.3,4.3c0,2.7-3.1,4.3-7.6,4.3c-4.1,0-7.3-1.7-7.3-4.3C218.5,53.8,222.2,52.1,226.1,52.1z
				 M229.2,55.5c-1-1.9-2-2.7-4.2-2.7c-2,0-3.1,0.8-3.1,2.5c0,2.4,2.2,4.8,4.2,4.8c1.9,0,3.4-0.2,3.8-2
				C230,57.3,229.7,56.5,229.2,55.5z"/>
		</g>
	</g>
	<g transform="matrix(0.7425,0,0,0.7425,0,0)">
		<line vector-effect="none" class="st0" x1="312.5" y1="64.4" x2="329.5" y2="64.4"/>
	</g>
	<g transform="matrix(0.7425,0,0,0.7425,0,0)">
		<line vector-effect="none" class="st0" x1="312.5" y1="56.4" x2="329.5" y2="56.4"/>
	</g>
	<g transform="matrix(0.7425,0,0,0.7425,0,0)">
		<line vector-effect="none" class="st3" x1="315.8" y1="57.7" x2="315.8" y2="88.4"/>
	</g>
	<g transform="matrix(0.7425,0,0,0.7425,0,0)">
		<g class="st1">
			<path d="M315.5,57.8c0-2.9,4.1-5.6,7.3-5.6c2.1,0,3.6,1.1,3.6,2.8c0,2.8-4.1,5.6-7.4,5.6C317.1,60.6,315.5,59.6,315.5,57.8z"/>
		</g>
	</g>
	<g transform="matrix(0.7425,0,0,0.7425,0,0)">
		<line vector-effect="none" class="st0" x1="348.8" y1="64.4" x2="365.8" y2="64.4"/>
	</g>
	<g transform="matrix(0.7425,0,0,0.7425,0,0)">
		<line vector-effect="none" class="st3" x1="352" y1="65.7" x2="352" y2="92.4"/>
	</g>
	<g transform="matrix(0.7425,0,0,0.7425,0,0)">
		<g class="st1">
			<path d="M351.7,65.8c0-2.9,4.1-5.6,7.3-5.6c2.1,0,3.6,1.1,3.6,2.8c0,2.8-4.1,5.6-7.4,5.6C353.3,68.6,351.7,67.6,351.7,65.8z"/>
		</g>
	</g>
	<g transform="matrix(0.7425,0,0,0.7425,0,0)">
		<line vector-effect="none" class="st3" x1="388.5" y1="73.7" x2="388.5" y2="100.4"/>
	</g>
	<g transform="matrix(0.7425,0,0,0.7425,0,0)">
		<g class="st1">
			<path d="M388.2,73.8c0-2.9,4.1-5.6,7.3-5.6c2.1,0,3.6,1.1,3.6,2.8c0,2.8-4.1,5.6-7.4,5.6C389.8,76.6,388.2,75.6,388.2,73.8z"/>
		</g>
	</g>
	<g transform="matrix(0.7425,0,0,0.7425,0,0)">
		<line vector-effect="none" class="st3" x1="424.8" y1="81.7" x2="424.8" y2="108.4"/>
	</g>
	<g transform="matrix(0.7425,0,0,0.7425,0,0)">
		<g class="st1">
			<path d="M424.5,81.8c0-2.9,4.1-5.6,7.3-5.6c2.1,0,3.6,1.1,3.6,2.8c0,2.8-4.1,5.6-7.4,5.6C426.1,84.6,424.5,83.6,424.5,81.8z"/>
		</g>
	</g>
	<g transform="matrix(0.7425,0,0,0.7425,0,0)">
		<g class="st1">
			<path d="M480.4,84.1c3.6,0,7.3,1.9,7.3,4.3c0,2.7-3.1,4.3-7.6,4.3c-4.1,0-7.3-1.7-7.3-4.3C472.7,85.8,476.5,84.1,480.4,84.1z
				 M483.5,87.5c-1-1.9-2-2.7-4.2-2.7c-2,0-3.1,0.8-3.1,2.5c0,2.4,2.2,4.8,4.2,4.8c1.9,0,3.4-0.2,3.8-2
				C484.2,89.3,483.9,88.5,483.5,87.5z"/>
		</g>
	</g>
	<g transform="matrix(0.7425,0,0,0.7425,0,0)">
		<line vector-effect="none" class="st3" x1="570.2" y1="89.7" x2="570.2" y2="116.4"/>
	</g>
	<g transform="matrix(0.7425,0,0,0.7425,0,0)">
		<g class="st1">
			<path d="M570,89.8c0-2.9,4.1-5.6,7.3-5.6c2.1,0,3.6,1.1,3.6,2.8c0,2.8-4.1,5.6-7.4,5.6C571.6,92.6,570,91.6,570,89.8z"/>
		</g>
	</g>
	<g transform="matrix(0.7425,0,0,0.7425,0,0)">
		<line vector-effect="none" class="st3" x1="606.5" y1="81.7" x2="606.5" y2="108.4"/>
	</g>
	<g transform="matrix(0.7425,0,0,0.7425,0,0)">
		<g class="st1">
			<path d="M606.2,81.8c0-2.9,4.1-5.6,7.3-5.6c2.1,0,3.6,1.1,3.6,2.8c0,2.8-4.1,5.6-7.4,5.6C607.8,84.6,606.2,83.6,606.2,81.8z"/>
		</g>
	</g>
	<g transform="matrix(0.7425,0,0,0.7425,0,0)">
		<line vector-effect="none" class="st3" x1="642.8" y1="73.7" x2="642.8" y2="100.4"/>
	</g>
	<g transform="matrix(0.7425,0,0,0.7425,0,0)">
		<g class="st1">
			<path d="M642.5,73.8c0-2.9,4.1-5.6,7.3-5.6c2.1,0,3.6,1.1,3.6,2.8c0,2.8-4.1,5.6-7.4,5.6C644.1,76.6,642.5,75.6,642.5,73.8z"/>
		</g>
	</g>
	<g transform="matrix(0.7425,0,0,0.7425,0,0)">
		<line vector-effect="none" class="st0" x1="676" y1="64.4" x2="693" y2="64.4"/>
	</g>
	<g transform="matrix(0.7425,0,0,0.7425,0,0)">
		<line vector-effect="none" class="st3" x1="679.2" y1="65.7" x2="679.2" y2="92.4"/>
	</g>
	<g transform="matrix(0.7425,0,0,0.7425,0,0)">
		<g class="st1">
			<path d="M679,65.8c0-2.9,4.1-5.6,7.3-5.6c2.1,0,3.6,1.1,3.6,2.8c0,2.8-4.1,5.6-7.4,5.6C680.6,68.6,679,67.6,679,65.8z"/>
		</g>
	</g>
	<g transform="matrix(0.7425,0,0,0.7425,0,0)">
		<line vector-effect="none" class="st0" x1="723.2" y1="64.4" x2="746.2" y2="64.4"/>
	</g>
	<g transform="matrix(0.7425,0,0,0.7425,0,0)">
		<line vector-effect="none" class="st0" x1="723.2" y1="56.4" x2="746.2" y2="56.4"/>
	</g>
	<g transform="matrix(0.7425,0,0,0.7425,0,0)">
		<g class="st1">
			<path d="M734.9,52.1c3.6,0,7.3,1.9,7.3,4.3c0,2.7-3.1,4.3-7.6,4.3c-4.1,0-7.3-1.7-7.3-4.3C727.3,53.8,731,52.1,734.9,52.1z
				 M738,55.5c-1-1.9-2-2.7-4.2-2.7c-2,0-3.1,0.8-3.1,2.5c0,2.4,2.2,4.8,4.2,4.8c1.9,0,3.4-0.2,3.8-2
				C738.7,57.3,738.4,56.5,738,55.5z"/>
		</g>
	</g>
	<g transform="matrix(0.7425,0,0,0.7425,0,0)">
		<line vector-effect="none" class="st0" x1="821.2" y1="64.4" x2="838.2" y2="64.4"/>
	</g>
	<g transform="matrix(0.7425,0,0,0.7425,0,0)">
		<line vector-effect="none" class="st0" x1="821.2" y1="56.4" x2="838.2" y2="56.4"/>
	</g>
	<g transform="matrix(0.7425,0,0,0.7425,0,0)">
		<line vector-effect="none" class="st3" x1="824.5" y1="57.7" x2="824.5" y2="88.4"/>
	</g>
	<g transform="matrix(0.7425,0,0,0.7425,0,0)">
		<g class="st1">
			<path d="M824.3,57.8c0-2.9,4.1-5.6,7.3-5.6c2.1,0,3.6,1.1,3.6,2.8c0,2.8-4.1,5.6-7.4,5.6C825.8,60.6,824.3,59.6,824.3,57.8z"/>
		</g>
	</g>
	<g transform="matrix(0.7425,0,0,0.7425,0,0)">
		<line vector-effect="none" class="st0" x1="857.8" y1="64.4" x2="874.8" y2="64.4"/>
	</g>
	<g transform="matrix(0.7425,0,0,0.7425,0,0)">
		<line vector-effect="none" class="st3" x1="861" y1="65.7" x2="861" y2="92.4"/>
	</g>
	<g transform="matrix(0.7425,0,0,0.7425,0,0)">
		<g class="st1">
			<path d="M860.7,65.8c0-2.9,4.1-5.6,7.3-5.6c2.1,0,3.6,1.1,3.6,2.8c0,2.8-4.1,5.6-7.4,5.6C862.3,68.6,860.7,67.6,860.7,65.8z"/>
		</g>
	</g>
	<g transform="matrix(0.7425,0,0,0.7425,0,0)">
		<line vector-effect="none" class="st3" x1="897.2" y1="73.7" x2="897.2" y2="100.4"/>
	</g>
	<g transform="matrix(0.7425,0,0,0.7425,0,0)">
		<g class="st1">
			<path d="M897,73.8c0-2.9,4.1-5.6,7.3-5.6c2.1,0,3.6,1.1,3.6,2.8c0,2.8-4.1,5.6-7.4,5.6C898.6,76.6,897,75.6,897,73.8z"/>
		</g>
	</g>
	<g transform="matrix(0.7425,0,0,0.7425,0,0)">
		<line vector-effect="none" class="st3" x1="933.8" y1="81.7" x2="933.8" y2="108.4"/>
	</g>
	<g transform="matrix(0.7425,0,0,0.7425,0,0)">
		<g class="st1">
			<path d="M933.5,81.8c0-2.9,4.1-5.6,7.3-5.6c2.1,0,3.6,1.1,3.6,2.8c0,2.8-4.1,5.6-7.4,5.6C935.1,84.6,933.5,83.6,933.5,81.8z"/>
		</g>
	</g>
	<g transform="matrix(0.7425,0,0,0.7425,0,0)">
		<g class="st1">
			<path d="M53.6,233.6c3.6,0,7.3,1.9,7.3,4.3c0,2.7-3.1,4.3-7.6,4.3c-4.1,0-7.3-1.7-7.3-4.3C46,235.3,49.7,233.6,53.6,233.6z
				 M56.7,237c-1-1.9-2-2.7-4.2-2.7c-2,0-3.1,0.8-3.1,2.5c0,2.4,2.2,4.8,4.2,4.8c1.9,0,3.4-0.2,3.8-2C57.5,238.8,57.2,238,56.7,237z
				"/>
		</g>
	</g>
	<g transform="matrix(0.7425,0,0,0.7425,0,0)">
		<line vector-effect="none" class="st3" x1="167.8" y1="235.2" x2="167.8" y2="261.9"/>
	</g>
	<g transform="matrix(0.7425,0,0,0.7425,0,0)">
		<g class="st1">
			<path d="M167.5,235.3c0-2.9,4.1-5.6,7.3-5.6c2.1,0,3.6,1.1,3.6,2.8c0,2.8-4.1,5.6-7.4,5.6C169.1,238.1,167.5,237.1,167.5,235.3z"
				/>
		</g>
	</g>
	<g transform="matrix(0.7425,0,0,0.7425,0,0)">
		<g class="st1">
			<path d="M158,220.5h1l-0.2,10.1c0.6-1.1,1.6-1.6,3-1.6c1.9,0,3.6,1.3,3.6,3.1c-0.1,1.2-0.8,2.8-2.8,4.3l-4.5,3.3V220.5z
				 M158.9,231.6c-0.1,1.2-0.2,2.3-0.2,3.1c0,1.6,0.1,2.6,0.2,3.2c1.7-1.1,3.9-4.3,3.9-5.9c0-1-0.8-1.7-1.8-1.7
				C160.1,230.3,159.4,230.8,158.9,231.6z"/>
		</g>
	</g>
	<g transform="matrix(0.7425,0,0,0.7425,0,0)">
		<line vector-effect="none" class="st3" x1="206.8" y1="227.2" x2="206.8" y2="253.9"/>
	</g>
	<g transform="matrix(0.7425,0,0,0.7425,0,0)">
		<g class="st1">
			<path d="M206.5,227.3c0-2.9,4.1-5.6,7.3-5.6c2.1,0,3.6,1.1,3.6,2.8c0,2.8-4.1,5.6-7.4,5.6C208.1,230.1,206.5,229.1,206.5,227.3z"
				/>
		</g>
	</g>
	<g transform="matrix(0.7425,0,0,0.7425,0,0)">
		<g class="st1">
			<path d="M197,212.5h1l-0.2,10.1c0.6-1.1,1.6-1.6,3-1.6c1.9,0,3.6,1.3,3.6,3.1c-0.1,1.2-0.8,2.8-2.8,4.3l-4.5,3.3V212.5z
				 M197.9,223.6c-0.1,1.2-0.2,2.3-0.2,3.1c0,1.6,0.1,2.6,0.2,3.2c1.7-1.1,3.9-4.3,3.9-5.9c0-1-0.8-1.7-1.8-1.7
				C199.1,222.3,198.4,222.8,197.9,223.6z"/>
		</g>
	</g>
	<g transform="matrix(0.7425,0,0,0.7425,0,0)">
		<line vector-effect="none" class="st3" x1="245.8" y1="219.2" x2="245.8" y2="245.9"/>
	</g>
	<g transform="matrix(0.7425,0,0,0.7425,0,0)">
		<g class="st1">
			<path d="M245.5,219.3c0-2.9,4.1-5.6,7.3-5.6c2.1,0,3.6,1.1,3.6,2.8c0,2.8-4.1,5.6-7.4,5.6C247.1,222.1,245.5,221.1,245.5,219.3z"
				/>
		</g>
	</g>
	<g transform="matrix(0.7425,0,0,0.7425,0,0)">
		<g class="st1">
			<path d="M236,204.5h1l-0.2,10.1c0.6-1.1,1.6-1.6,3-1.6c1.9,0,3.6,1.3,3.6,3.1c-0.1,1.2-0.8,2.8-2.8,4.3l-4.5,3.3V204.5z
				 M236.9,215.6c-0.1,1.2-0.2,2.3-0.2,3.1c0,1.6,0.1,2.6,0.2,3.2c1.7-1.1,3.9-4.3,3.9-5.9c0-1-0.8-1.7-1.8-1.7
				C238.1,214.3,237.4,214.8,236.9,215.6z"/>
		</g>
	</g>
	<g transform="matrix(0.7425,0,0,0.7425,0,0)">
		<line vector-effect="none" class="st0" x1="281.8" y1="213.9" x2="298.8" y2="213.9"/>
	</g>
	<g transform="matrix(0.7425,0,0,0.7425,0,0)">
		<line vector-effect="none" class="st3" x1="285" y1="211.2" x2="285" y2="237.9"/>
	</g>
	<g transform="matrix(0.7425,0,0,0.7425,0,0)">
		<g class="st1">
			<path d="M284.8,211.3c0-2.9,4.1-5.6,7.3-5.6c2.1,0,3.6,1.1,3.6,2.8c0,2.8-4.1,5.6-7.4,5.6C286.3,214.1,284.8,213.1,284.8,211.3z"
				/>
		</g>
	</g>
	<g transform="matrix(0.7425,0,0,0.7425,0,0)">
		<g class="st1">
			<path d="M273.3,196.5h1l-0.2,10.1c0.6-1.1,1.6-1.6,3-1.6c1.9,0,3.6,1.3,3.6,3.1c-0.1,1.2-0.8,2.8-2.8,4.3l-4.5,3.3V196.5z
				 M274.2,207.6c-0.1,1.2-0.2,2.3-0.2,3.1c0,1.6,0.1,2.6,0.2,3.2c1.7-1.1,3.9-4.3,3.9-5.9c0-1-0.8-1.7-1.8-1.7
				C275.3,206.3,274.7,206.8,274.2,207.6z"/>
		</g>
	</g>
	<g transform="matrix(0.7425,0,0,0.7425,0,0)">
		<line vector-effect="none" class="st0" x1="331.8" y1="213.9" x2="354.8" y2="213.9"/>
	</g>
	<g transform="matrix(0.7425,0,0,0.7425,0,0)">
		<line vector-effect="none" class="st0" x1="331.8" y1="205.9" x2="354.8" y2="205.9"/>
	</g>
	<g transform="matrix(0.7425,0,0,0.7425,0,0)">
		<g class="st1">
			<path d="M343.4,197.6c3.6,0,7.3,1.9,7.3,4.3c0,2.7-3.1,4.3-7.6,4.3c-4.1,0-7.3-1.7-7.3-4.3C335.8,199.3,339.5,197.6,343.4,197.6z
				 M346.5,201c-1-1.9-2-2.7-4.2-2.7c-2,0-3.1,0.8-3.1,2.5c0,2.4,2.2,4.8,4.2,4.8c1.9,0,3.4-0.2,3.8-2
				C347.2,202.8,346.9,202,346.5,201z"/>
		</g>
	</g>
	<g transform="matrix(0.7425,0,0,0.7425,0,0)">
		<line vector-effect="none" class="st0" x1="436" y1="213.9" x2="453" y2="213.9"/>
	</g>
	<g transform="matrix(0.7425,0,0,0.7425,0,0)">
		<line vector-effect="none" class="st0" x1="436" y1="205.9" x2="453" y2="205.9"/>
	</g>
	<g transform="matrix(0.7425,0,0,0.7425,0,0)">
		<line vector-effect="none" class="st3" x1="439.2" y1="203.2" x2="439.2" y2="237.9"/>
	</g>
	<g transform="matrix(0.7425,0,0,0.7425,0,0)">
		<g class="st1">
			<path d="M439,203.3c0-2.9,4.1-5.6,7.3-5.6c2.1,0,3.6,1.1,3.6,2.8c0,2.8-4.1,5.6-7.4,5.6C440.6,206.1,439,205.1,439,203.3z"/>
		</g>
	</g>
	<g transform="matrix(0.7425,0,0,0.7425,0,0)">
		<line vector-effect="none" class="st0" x1="475" y1="213.9" x2="492" y2="213.9"/>
	</g>
	<g transform="matrix(0.7425,0,0,0.7425,0,0)">
		<line vector-effect="none" class="st3" x1="478.2" y1="211.2" x2="478.2" y2="237.9"/>
	</g>
	<g transform="matrix(0.7425,0,0,0.7425,0,0)">
		<g class="st1">
			<path d="M478,211.3c0-2.9,4.1-5.6,7.3-5.6c2.1,0,3.6,1.1,3.6,2.8c0,2.8-4.1,5.6-7.4,5.6C479.6,214.1,478,213.1,478,211.3z"/>
		</g>
	</g>
	<g transform="matrix(0.7425,0,0,0.7425,0,0)">
		<g class="st1">
			<path d="M466.5,196.5h1l-0.2,10.1c0.6-1.1,1.6-1.6,3-1.6c1.9,0,3.6,1.3,3.6,3.1c-0.1,1.2-0.8,2.8-2.8,4.3l-4.5,3.3V196.5z
				 M467.4,207.6c-0.1,1.2-0.2,2.3-0.2,3.1c0,1.6,0.1,2.6,0.2,3.2c1.7-1.1,3.9-4.3,3.9-5.9c0-1-0.8-1.7-1.8-1.7
				C468.6,206.3,467.9,206.8,467.4,207.6z"/>
		</g>
	</g>
	<g transform="matrix(0.7425,0,0,0.7425,0,0)">
		<line vector-effect="none" class="st3" x1="517.2" y1="219.2" x2="517.2" y2="245.9"/>
	</g>
	<g transform="matrix(0.7425,0,0,0.7425,0,0)">
		<g class="st1">
			<path d="M517,219.3c0-2.9,4.1-5.6,7.3-5.6c2.1,0,3.6,1.1,3.6,2.8c0,2.8-4.1,5.6-7.4,5.6C518.6,222.1,517,221.1,517,219.3z"/>
		</g>
	</g>
	<g transform="matrix(0.7425,0,0,0.7425,0,0)">
		<g class="st1">
			<path d="M507.5,204.5h1l-0.2,10.1c0.6-1.1,1.6-1.6,3-1.6c1.9,0,3.6,1.3,3.6,3.1c-0.1,1.2-0.8,2.8-2.8,4.3l-4.5,3.3V204.5z
				 M508.4,215.6c-0.1,1.2-0.2,2.3-0.2,3.1c0,1.6,0.1,2.6,0.2,3.2c1.7-1.1,3.9-4.3,3.9-5.9c0-1-0.8-1.7-1.8-1.7
				C509.6,214.3,508.9,214.8,508.4,215.6z"/>
		</g>
	</g>
	<g transform="matrix(0.7425,0,0,0.7425,0,0)">
		<line vector-effect="none" class="st3" x1="556.2" y1="227.2" x2="556.2" y2="253.9"/>
	</g>
	<g transform="matrix(0.7425,0,0,0.7425,0,0)">
		<g class="st1">
			<path d="M556,227.3c0-2.9,4.1-5.6,7.3-5.6c2.1,0,3.6,1.1,3.6,2.8c0,2.8-4.1,5.6-7.4,5.6C557.6,230.1,556,229.1,556,227.3z"/>
		</g>
	</g>
	<g transform="matrix(0.7425,0,0,0.7425,0,0)">
		<g class="st1">
			<path d="M546.5,212.5h1l-0.2,10.1c0.6-1.1,1.6-1.6,3-1.6c1.9,0,3.6,1.3,3.6,3.1c-0.1,1.2-0.8,2.8-2.8,4.3l-4.5,3.3V212.5z
				 M547.4,223.6c-0.1,1.2-0.2,2.3-0.2,3.1c0,1.6,0.1,2.6,0.2,3.2c1.7-1.1,3.9-4.3,3.9-5.9c0-1-0.8-1.7-1.8-1.7
				C548.6,222.3,547.9,222.8,547.4,223.6z"/>
		</g>
	</g>
	<g transform="matrix(0.7425,0,0,0.7425,0,0)">
		<g class="st1">
			<path d="M614.6,229.6c3.6,0,7.3,1.9,7.3,4.3c0,2.7-3.1,4.3-7.6,4.3c-4.1,0-7.3-1.7-7.3-4.3C607,231.3,610.7,229.6,614.6,229.6z
				 M617.7,233c-1-1.9-2-2.7-4.2-2.7c-2,0-3.1,0.8-3.1,2.5c0,2.4,2.2,4.8,4.2,4.8c1.9,0,3.4-0.2,3.8-2
				C618.5,234.8,618.2,234,617.7,233z"/>
		</g>
	</g>
	<g transform="matrix(0.7425,0,0,0.7425,0,0)">
		<g class="st1">
			<path d="M597.5,220.5h1l-0.2,10.1c0.6-1.1,1.6-1.6,3-1.6c1.9,0,3.6,1.3,3.6,3.1c-0.1,1.2-0.8,2.8-2.8,4.3l-4.5,3.3V220.5z
				 M598.4,231.6c-0.1,1.2-0.2,2.3-0.2,3.1c0,1.6,0.1,2.6,0.2,3.2c1.7-1.1,3.9-4.3,3.9-5.9c0-1-0.8-1.7-1.8-1.7
				C599.6,230.3,598.9,230.8,598.4,231.6z"/>
		</g>
	</g>
	<g transform="matrix(0.7425,0,0,0.7425,0,0)">
		<line vector-effect="none" class="st3" x1="710.5" y1="235.2" x2="710.5" y2="261.9"/>
	</g>
	<g transform="matrix(0.7425,0,0,0.7425,0,0)">
		<g class="st1">
			<path d="M710.2,235.3c0-2.9,4.1-5.6,7.3-5.6c2.1,0,3.6,1.1,3.6,2.8c0,2.8-4.1,5.6-7.4,5.6C711.8,238.1,710.2,237.1,710.2,235.3z"
				/>
		</g>
	</g>
	<g transform="matrix(0.7425,0,0,0.7425,0,0)">
		<g class="st1">
			<path d="M700.7,220.5h1l-0.2,10.1c0.6-1.1,1.6-1.6,3-1.6c1.9,0,3.6,1.3,3.6,3.1c-0.1,1.2-0.8,2.8-2.8,4.3l-4.5,3.3V220.5z
				 M701.7,231.6c-0.1,1.2-0.2,2.3-0.2,3.1c0,1.6,0.1,2.6,0.2,3.2c1.7-1.1,3.9-4.3,3.9-5.9c0-1-0.8-1.7-1.8-1.7
				C702.8,230.3,702.2,230.8,701.7,231.6z"/>
		</g>
	</g>
	<g transform="matrix(0.7425,0,0,0.7425,0,0)">
		<line vector-effect="none" class="st3" x1="749.8" y1="227.2" x2="749.8" y2="253.9"/>
	</g>
	<g transform="matrix(0.7425,0,0,0.7425,0,0)">
		<g class="st1">
			<path d="M749.5,227.3c0-2.9,4.1-5.6,7.3-5.6c2.1,0,3.6,1.1,3.6,2.8c0,2.8-4.1,5.6-7.4,5.6C751.1,230.1,749.5,229.1,749.5,227.3z"
				/>
		</g>
	</g>
	<g transform="matrix(0.7425,0,0,0.7425,0,0)">
		<g class="st1">
			<path d="M740,212.5h1l-0.2,10.1c0.6-1.1,1.6-1.6,3-1.6c1.9,0,3.6,1.3,3.6,3.1c-0.1,1.2-0.8,2.8-2.8,4.3l-4.5,3.3V212.5z
				 M740.9,223.6c-0.1,1.2-0.2,2.3-0.2,3.1c0,1.6,0.1,2.6,0.2,3.2c1.7-1.1,3.9-4.3,3.9-5.9c0-1-0.8-1.7-1.8-1.7
				C742.1,222.3,741.4,222.8,740.9,223.6z"/>
		</g>
	</g>
	<g transform="matrix(0.7425,0,0,0.7425,0,0)">
		<line vector-effect="none" class="st3" x1="788.8" y1="219.2" x2="788.8" y2="245.9"/>
	</g>
	<g transform="matrix(0.7425,0,0,0.7425,0,0)">
		<g class="st1">
			<path d="M788.5,219.3c0-2.9,4.1-5.6,7.3-5.6c2.1,0,3.6,1.1,3.6,2.8c0,2.8-4.1,5.6-7.4,5.6C790.1,222.1,788.5,221.1,788.5,219.3z"
				/>
		</g>
	</g>
	<g transform="matrix(0.7425,0,0,0.7425,0,0)">
		<g class="st1">
			<path d="M779,204.5h1l-0.2,10.1c0.6-1.1,1.6-1.6,3-1.6c1.9,0,3.6,1.3,3.6,3.1c-0.1,1.2-0.8,2.8-2.8,4.3l-4.5,3.3V204.5z
				 M779.9,215.6c-0.1,1.2-0.2,2.3-0.2,3.1c0,1.6,0.1,2.6,0.2,3.2c1.7-1.1,3.9-4.3,3.9-5.9c0-1-0.8-1.7-1.8-1.7
				C781.1,214.3,780.4,214.8,779.9,215.6z"/>
		</g>
	</g>
	<g transform="matrix(0.7425,0,0,0.7425,0,0)">
		<line vector-effect="none" class="st0" x1="824.5" y1="213.9" x2="841.5" y2="213.9"/>
	</g>
	<g transform="matrix(0.7425,0,0,0.7425,0,0)">
		<line vector-effect="none" class="st3" x1="827.8" y1="211.2" x2="827.8" y2="237.9"/>
	</g>
	<g transform="matrix(0.7425,0,0,0.7425,0,0)">
		<g class="st1">
			<path d="M827.5,211.3c0-2.9,4.1-5.6,7.3-5.6c2.1,0,3.6,1.1,3.6,2.8c0,2.8-4.1,5.6-7.4,5.6C829.1,214.1,827.5,213.1,827.5,211.3z"
				/>
		</g>
	</g>
	<g transform="matrix(0.7425,0,0,0.7425,0,0)">
		<g class="st1">
			<path d="M816,196.5h1l-0.2,10.1c0.6-1.1,1.6-1.6,3-1.6c1.9,0,3.6,1.3,3.6,3.1c-0.1,1.2-0.8,2.8-2.8,4.3l-4.5,3.3V196.5z
				 M816.9,207.6c-0.1,1.2-0.2,2.3-0.2,3.1c0,1.6,0.1,2.6,0.2,3.2c1.7-1.1,3.9-4.3,3.9-5.9c0-1-0.8-1.7-1.8-1.7
				C818.1,206.3,817.4,206.8,816.9,207.6z"/>
		</g>
	</g>
	<g transform="matrix(0.7425,0,0,0.7425,0,0)">
		<line vector-effect="none" class="st0" x1="874.5" y1="213.9" x2="897.5" y2="213.9"/>
	</g>
	<g transform="matrix(0.7425,0,0,0.7425,0,0)">
		<line vector-effect="none" class="st0" x1="874.5" y1="205.9" x2="897.5" y2="205.9"/>
	</g>
	<g transform="matrix(0.7425,0,0,0.7425,0,0)">
		<g class="st1">
			<path d="M886.1,197.6c3.6,0,7.3,1.9,7.3,4.3c0,2.7-3.1,4.3-7.6,4.3c-4.1,0-7.3-1.7-7.3-4.3C878.5,199.3,882.2,197.6,886.1,197.6z
				 M889.2,201c-1-1.9-2-2.7-4.2-2.7c-2,0-3.1,0.8-3.1,2.5c0,2.4,2.2,4.8,4.2,4.8c1.9,0,3.4-0.2,3.8-2
				C890,202.8,889.7,202,889.2,201z"/>
		</g>
	</g>
	<g transform="matrix(0.7425,0,0,0.7425,0,0)">
		<line vector-effect="none" class="st0" x1="43" y1="363.7" x2="60" y2="363.7"/>
	</g>
	<g transform="matrix(0.7425,0,0,0.7425,0,0)">
		<line vector-effect="none" class="st0" x1="43" y1="355.7" x2="60" y2="355.7"/>
	</g>
	<g transform="matrix(0.7425,0,0,0.7425,0,0)">
		<line vector-effect="none" class="st3" x1="46.2" y1="352.9" x2="46.2" y2="387.7"/>
	</g>
	<g transform="matrix(0.7425,0,0,0.7425,0,0)">
		<g class="st1">
			<path d="M46,353c0-2.9,4.1-5.6,7.3-5.6c2.1,0,3.6,1.1,3.6,2.8c0,2.8-4.1,5.6-7.4,5.6C47.6,355.8,46,354.8,46,353z"/>
		</g>
	</g>
	<g transform="matrix(0.7425,0,0,0.7425,0,0)">
		<line vector-effect="none" class="st0" x1="95" y1="363.7" x2="112" y2="363.7"/>
	</g>
	<g transform="matrix(0.7425,0,0,0.7425,0,0)">
		<line vector-effect="none" class="st3" x1="98.2" y1="360.9" x2="98.2" y2="387.7"/>
	</g>
	<g transform="matrix(0.7425,0,0,0.7425,0,0)">
		<g class="st1">
			<path d="M98,361c0-2.9,4.1-5.6,7.3-5.6c2.1,0,3.6,1.1,3.6,2.8c0,2.8-4.1,5.6-7.4,5.6C99.6,363.8,98,362.8,98,361z"/>
		</g>
	</g>
	<g transform="matrix(0.7425,0,0,0.7425,0,0)">
		<g class="st1">
			<path d="M86.5,346.3h1l-0.2,10.1c0.6-1.1,1.6-1.6,3-1.6c1.9,0,3.6,1.3,3.6,3.1c-0.1,1.2-0.8,2.8-2.8,4.3l-4.5,3.3V346.3z
				 M87.4,357.4c-0.1,1.2-0.2,2.3-0.2,3.1c0,1.6,0.1,2.6,0.2,3.2c1.7-1.1,3.9-4.3,3.9-5.9c0-1-0.8-1.7-1.8-1.7
				C88.6,356.1,87.9,356.5,87.4,357.4z"/>
		</g>
	</g>
	<g transform="matrix(0.7425,0,0,0.7425,0,0)">
		<line vector-effect="none" class="st3" x1="150.2" y1="368.9" x2="150.2" y2="395.7"/>
	</g>
	<g transform="matrix(0.7425,0,0,0.7425,0,0)">
		<g class="st1">
			<path d="M150,369c0-2.9,4.1-5.6,7.3-5.6c2.1,0,3.6,1.1,3.6,2.8c0,2.8-4.1,5.6-7.4,5.6C151.6,371.8,150,370.8,150,369z"/>
		</g>
	</g>
	<g transform="matrix(0.7425,0,0,0.7425,0,0)">
		<g class="st1">
			<path d="M140.5,354.3h1l-0.2,10.1c0.6-1.1,1.6-1.6,3-1.6c1.9,0,3.6,1.3,3.6,3.1c-0.1,1.2-0.8,2.8-2.8,4.3l-4.5,3.3V354.3z
				 M141.4,365.4c-0.1,1.2-0.2,2.3-0.2,3.1c0,1.6,0.1,2.6,0.2,3.2c1.7-1.1,3.9-4.3,3.9-5.9c0-1-0.8-1.7-1.8-1.7
				C142.6,364.1,141.9,364.5,141.4,365.4z"/>
		</g>
	</g>
	<g transform="matrix(0.7425,0,0,0.7425,0,0)">
		<line vector-effect="none" class="st3" x1="202" y1="376.9" x2="202" y2="403.7"/>
	</g>
	<g transform="matrix(0.7425,0,0,0.7425,0,0)">
		<g class="st1">
			<path d="M201.7,377c0-2.9,4.1-5.6,7.3-5.6c2.1,0,3.6,1.1,3.6,2.8c0,2.8-4.1,5.6-7.4,5.6C203.3,379.8,201.7,378.8,201.7,377z"/>
		</g>
	</g>
	<g transform="matrix(0.7425,0,0,0.7425,0,0)">
		<g class="st1">
			<path d="M192.2,362.3h1l-0.2,10.1c0.6-1.1,1.6-1.6,3-1.6c1.9,0,3.6,1.3,3.6,3.1c-0.1,1.2-0.8,2.8-2.8,4.3l-4.5,3.3V362.3z
				 M193.2,373.4c-0.1,1.2-0.2,2.3-0.2,3.1c0,1.6,0.1,2.6,0.2,3.2c1.7-1.1,3.9-4.3,3.9-5.9c0-1-0.8-1.7-1.8-1.7
				C194.3,372.1,193.7,372.5,193.2,373.4z"/>
		</g>
	</g>
	<g transform="matrix(0.7425,0,0,0.7425,0,0)">
		<g class="st1">
			<path d="M273.4,379.3c3.6,0,7.3,1.9,7.3,4.3c0,2.7-3.1,4.3-7.6,4.3c-4.1,0-7.3-1.7-7.3-4.3C265.7,381.1,269.5,379.3,273.4,379.3z
				 M276.5,382.8c-1-1.9-2-2.7-4.2-2.7c-2,0-3.1,0.8-3.1,2.5c0,2.4,2.2,4.8,4.2,4.8c1.9,0,3.4-0.2,3.8-2
				C277.2,384.6,276.9,383.7,276.5,382.8z"/>
		</g>
	</g>
	<g transform="matrix(0.7425,0,0,0.7425,0,0)">
		<g class="st1">
			<path d="M256.2,370.3h1l-0.2,10.1c0.6-1.1,1.6-1.6,3-1.6c1.9,0,3.6,1.3,3.6,3.1c-0.1,1.2-0.8,2.8-2.8,4.3l-4.5,3.3V370.3z
				 M257.2,381.4c-0.1,1.2-0.2,2.3-0.2,3.1c0,1.6,0.1,2.6,0.2,3.2c1.7-1.1,3.9-4.3,3.9-5.9c0-1-0.8-1.7-1.8-1.7
				C258.3,380.1,257.7,380.5,257.2,381.4z"/>
		</g>
	</g>
	<g transform="matrix(0.7425,0,0,0.7425,0,0)">
		<line vector-effect="none" class="st3" x1="409" y1="388.9" x2="409" y2="415.7"/>
	</g>
	<g transform="matrix(0.7425,0,0,0.7425,0,0)">
		<g class="st1">
			<path d="M408.8,389c0-2.9,4.1-5.6,7.3-5.6c2.1,0,3.6,1.1,3.6,2.8c0,2.8-4.1,5.6-7.4,5.6C410.3,391.8,408.8,390.8,408.8,389z"/>
		</g>
	</g>
	<g transform="matrix(0.7425,0,0,0.7425,0,0)">
		<line vector-effect="none" class="st3" x1="461" y1="380.9" x2="461" y2="407.7"/>
	</g>
	<g transform="matrix(0.7425,0,0,0.7425,0,0)">
		<g class="st1">
			<path d="M460.7,381c0-2.9,4.1-5.6,7.3-5.6c2.1,0,3.6,1.1,3.6,2.8c0,2.8-4.1,5.6-7.4,5.6C462.3,383.8,460.7,382.8,460.7,381z"/>
		</g>
	</g>
	<g transform="matrix(0.7425,0,0,0.7425,0,0)">
		<line vector-effect="none" class="st3" x1="513" y1="372.9" x2="513" y2="399.7"/>
	</g>
	<g transform="matrix(0.7425,0,0,0.7425,0,0)">
		<g class="st1">
			<path d="M512.7,373c0-2.9,4.1-5.6,7.3-5.6c2.1,0,3.6,1.1,3.6,2.8c0,2.8-4.1,5.6-7.4,5.6C514.3,375.8,512.7,374.8,512.7,373z"/>
		</g>
	</g>
	<g transform="matrix(0.7425,0,0,0.7425,0,0)">
		<line vector-effect="none" class="st0" x1="561.5" y1="363.7" x2="578.5" y2="363.7"/>
	</g>
	<g transform="matrix(0.7425,0,0,0.7425,0,0)">
		<line vector-effect="none" class="st3" x1="564.8" y1="364.9" x2="564.8" y2="391.7"/>
	</g>
	<g transform="matrix(0.7425,0,0,0.7425,0,0)">
		<g class="st1">
			<path d="M564.5,365c0-2.9,4.1-5.6,7.3-5.6c2.1,0,3.6,1.1,3.6,2.8c0,2.8-4.1,5.6-7.4,5.6C566.1,367.8,564.5,366.8,564.5,365z"/>
		</g>
	</g>
	<g transform="matrix(0.7425,0,0,0.7425,0,0)">
		<line vector-effect="none" class="st0" x1="624.5" y1="363.7" x2="647.5" y2="363.7"/>
	</g>
	<g transform="matrix(0.7425,0,0,0.7425,0,0)">
		<line vector-effect="none" class="st0" x1="624.5" y1="355.7" x2="647.5" y2="355.7"/>
	</g>
	<g transform="matrix(0.7425,0,0,0.7425,0,0)">
		<g class="st1">
			<path d="M636.1,351.3c3.6,0,7.3,1.9,7.3,4.3c0,2.7-3.1,4.3-7.6,4.3c-4.1,0-7.3-1.7-7.3-4.3C628.5,353.1,632.2,351.3,636.1,351.3z
				 M639.2,354.8c-1-1.9-2-2.7-4.2-2.7c-2,0-3.1,0.8-3.1,2.5c0,2.4,2.2,4.8,4.2,4.8c1.9,0,3.4-0.2,3.8-2
				C640,356.6,639.7,355.7,639.2,354.8z"/>
		</g>
	</g>
	<g transform="matrix(0.7425,0,0,0.7425,0,0)">
		<line vector-effect="none" class="st0" x1="759" y1="363.7" x2="776" y2="363.7"/>
	</g>
	<g transform="matrix(0.7425,0,0,0.7425,0,0)">
		<line vector-effect="none" class="st0" x1="759" y1="355.7" x2="776" y2="355.7"/>
	</g>
	<g transform="matrix(0.7425,0,0,0.7425,0,0)">
		<line vector-effect="none" class="st3" x1="762.2" y1="356.9" x2="762.2" y2="387.7"/>
	</g>
	<g transform="matrix(0.7425,0,0,0.7425,0,0)">
		<g class="st1">
			<path d="M762,357c0-2.9,4.1-5.6,7.3-5.6c2.1,0,3.6,1.1,3.6,2.8c0,2.8-4.1,5.6-7.4,5.6C763.6,359.8,762,358.8,762,357z"/>
		</g>
	</g>
	<g transform="matrix(0.7425,0,0,0.7425,0,0)">
		<line vector-effect="none" class="st0" x1="811" y1="363.7" x2="828" y2="363.7"/>
	</g>
	<g transform="matrix(0.7425,0,0,0.7425,0,0)">
		<line vector-effect="none" class="st3" x1="814.2" y1="364.9" x2="814.2" y2="391.7"/>
	</g>
	<g transform="matrix(0.7425,0,0,0.7425,0,0)">
		<g class="st1">
			<path d="M814,365c0-2.9,4.1-5.6,7.3-5.6c2.1,0,3.6,1.1,3.6,2.8c0,2.8-4.1,5.6-7.4,5.6C815.6,367.8,814,366.8,814,365z"/>
		</g>
	</g>
	<g transform="matrix(0.7425,0,0,0.7425,0,0)">
		<line vector-effect="none" class="st3" x1="866" y1="372.9" x2="866" y2="399.7"/>
	</g>
	<g transform="matrix(0.7425,0,0,0.7425,0,0)">
		<g class="st1">
			<path d="M865.7,373c0-2.9,4.1-5.6,7.3-5.6c2.1,0,3.6,1.1,3.6,2.8c0,2.8-4.1,5.6-7.4,5.6C867.3,375.8,865.7,374.8,865.7,373z"/>
		</g>
	</g>
	<g transform="matrix(0.7425,0,0,0.7425,0,0)">
		<line vector-effect="none" class="st3" x1="918" y1="380.9" x2="918" y2="407.7"/>
	</g>
	<g transform="matrix(0.7425,0,0,0.7425,0,0)">
		<g class="st1">
			<path d="M917.8,381c0-2.9,4.1-5.6,7.3-5.6c2.1,0,3.6,1.1,3.6,2.8c0,2.8-4.1,5.6-7.4,5.6C919.3,383.8,917.8,382.8,917.8,381z"/>
		</g>
	</g>
	<g transform="matrix(0.7425,0,0,0.7425,0,0)">
		<g class="st1">
			<path d="M53.6,532.8c3.6,0,7.3,1.9,7.3,4.3c0,2.7-3.1,4.3-7.6,4.3c-4.1,0-7.3-1.7-7.3-4.3C46,534.6,49.7,532.8,53.6,532.8z
				 M56.7,536.3c-1-1.9-2-2.7-4.2-2.7c-2,0-3.1,0.8-3.1,2.5c0,2.4,2.2,4.8,4.2,4.8c1.9,0,3.4-0.2,3.8-2
				C57.5,538.1,57.2,537.2,56.7,536.3z"/>
		</g>
	</g>
	<g transform="matrix(0.7425,0,0,0.7425,0,0)">
		<line vector-effect="none" class="st3" x1="192.8" y1="538.4" x2="192.8" y2="565.2"/>
	</g>
	<g transform="matrix(0.7425,0,0,0.7425,0,0)">
		<g class="st1">
			<path d="M192.5,538.5c0-2.9,4.1-5.6,7.3-5.6c2.1,0,3.6,1.1,3.6,2.8c0,2.8-4.1,5.6-7.4,5.6C194.1,541.3,192.5,540.3,192.5,538.5z"
				/>
		</g>
	</g>
	<g transform="matrix(0.7425,0,0,0.7425,0,0)">
		<line vector-effect="none" class="st3" x1="250.2" y1="530.4" x2="250.2" y2="557.2"/>
	</g>
	<g transform="matrix(0.7425,0,0,0.7425,0,0)">
		<g class="st1">
			<path d="M250,530.5c0-2.9,4.1-5.6,7.3-5.6c2.1,0,3.6,1.1,3.6,2.8c0,2.8-4.1,5.6-7.4,5.6C251.6,533.3,250,532.3,250,530.5z"/>
		</g>
	</g>
	<g transform="matrix(0.7425,0,0,0.7425,0,0)">
		<line vector-effect="none" class="st3" x1="307.8" y1="522.4" x2="307.8" y2="549.2"/>
	</g>
	<g transform="matrix(0.7425,0,0,0.7425,0,0)">
		<g class="st1">
			<path d="M307.5,522.5c0-2.9,4.1-5.6,7.3-5.6c2.1,0,3.6,1.1,3.6,2.8c0,2.8-4.1,5.6-7.4,5.6C309.1,525.3,307.5,524.3,307.5,522.5z"
				/>
		</g>
	</g>
	<g transform="matrix(0.7425,0,0,0.7425,0,0)">
		<line vector-effect="none" class="st0" x1="362" y1="513.2" x2="379" y2="513.2"/>
	</g>
	<g transform="matrix(0.7425,0,0,0.7425,0,0)">
		<line vector-effect="none" class="st3" x1="365.2" y1="514.4" x2="365.2" y2="541.2"/>
	</g>
	<g transform="matrix(0.7425,0,0,0.7425,0,0)">
		<g class="st1">
			<path d="M365,514.5c0-2.9,4.1-5.6,7.3-5.6c2.1,0,3.6,1.1,3.6,2.8c0,2.8-4.1,5.6-7.4,5.6C366.6,517.3,365,516.3,365,514.5z"/>
		</g>
	</g>
	<g transform="matrix(0.7425,0,0,0.7425,0,0)">
		<line vector-effect="none" class="st0" x1="430.5" y1="513.2" x2="453.5" y2="513.2"/>
	</g>
	<g transform="matrix(0.7425,0,0,0.7425,0,0)">
		<line vector-effect="none" class="st0" x1="430.5" y1="505.2" x2="453.5" y2="505.2"/>
	</g>
	<g transform="matrix(0.7425,0,0,0.7425,0,0)">
		<g class="st1">
			<path d="M442.1,500.8c3.6,0,7.3,1.9,7.3,4.3c0,2.7-3.1,4.3-7.6,4.3c-4.1,0-7.3-1.7-7.3-4.3C434.5,502.6,438.2,500.8,442.1,500.8z
				 M445.2,504.3c-1-1.9-2-2.7-4.2-2.7c-2,0-3.1,0.8-3.1,2.5c0,2.4,2.2,4.8,4.2,4.8c1.9,0,3.4-0.2,3.8-2
				C446,506.1,445.7,505.2,445.2,504.3z"/>
		</g>
	</g>
	<g transform="matrix(0.7425,0,0,0.7425,0,0)">
		<line vector-effect="none" class="st0" x1="578" y1="513.2" x2="595" y2="513.2"/>
	</g>
	<g transform="matrix(0.7425,0,0,0.7425,0,0)">
		<line vector-effect="none" class="st0" x1="578" y1="505.2" x2="595" y2="505.2"/>
	</g>
	<g transform="matrix(0.7425,0,0,0.7425,0,0)">
		<line vector-effect="none" class="st3" x1="581.2" y1="506.4" x2="581.2" y2="537.2"/>
	</g>
	<g transform="matrix(0.7425,0,0,0.7425,0,0)">
		<g class="st1">
			<path d="M581,506.5c0-2.9,4.1-5.6,7.3-5.6c2.1,0,3.6,1.1,3.6,2.8c0,2.8-4.1,5.6-7.4,5.6C582.6,509.3,581,508.3,581,506.5z"/>
		</g>
	</g>
	<g transform="matrix(0.7425,0,0,0.7425,0,0)">
		<line vector-effect="none" class="st0" x1="635.5" y1="513.2" x2="652.5" y2="513.2"/>
	</g>
	<g transform="matrix(0.7425,0,0,0.7425,0,0)">
		<line vector-effect="none" class="st3" x1="638.8" y1="514.4" x2="638.8" y2="541.2"/>
	</g>
	<g transform="matrix(0.7425,0,0,0.7425,0,0)">
		<g class="st1">
			<path d="M638.5,514.5c0-2.9,4.1-5.6,7.3-5.6c2.1,0,3.6,1.1,3.6,2.8c0,2.8-4.1,5.6-7.4,5.6C640.1,517.3,638.5,516.3,638.5,514.5z"
				/>
		</g>
	</g>
	<g transform="matrix(0.7425,0,0,0.7425,0,0)">
		<line vector-effect="none" class="st3" x1="696.2" y1="522.4" x2="696.2" y2="549.2"/>
	</g>
	<g transform="matrix(0.7425,0,0,0.7425,0,0)">
		<g class="st1">
			<path d="M696,522.5c0-2.9,4.1-5.6,7.3-5.6c2.1,0,3.6,1.1,3.6,2.8c0,2.8-4.1,5.6-7.4,5.6C697.6,525.3,696,524.3,696,522.5z"/>
		</g>
	</g>
	<g transform="matrix(0.7425,0,0,0.7425,0,0)">
		<line vector-effect="none" class="st3" x1="753.8" y1="530.4" x2="753.8" y2="557.2"/>
	</g>
	<g transform="matrix(0.7425,0,0,0.7425,0,0)">
		<g class="st1">
			<path d="M753.5,530.5c0-2.9,4.1-5.6,7.3-5.6c2.1,0,3.6,1.1,3.6,2.8c0,2.8-4.1,5.6-7.4,5.6C755.1,533.3,753.5,532.3,753.5,530.5z"
				/>
		</g>
	</g>
	<g transform="matrix(0.7425,0,0,0.7425,0,0)">
		<g class="st1">
			<path d="M830.6,532.8c3.6,0,7.3,1.9,7.3,4.3c0,2.7-3.1,4.3-7.6,4.3c-4.1,0-7.3-1.7-7.3-4.3C823,534.6,826.7,532.8,830.6,532.8z
				 M833.7,536.3c-1-1.9-2-2.7-4.2-2.7c-2,0-3.1,0.8-3.1,2.5c0,2.4,2.2,4.8,4.2,4.8c1.9,0,3.4-0.2,3.8-2
				C834.5,538.1,834.2,537.2,833.7,536.3z"/>
		</g>
	</g>
</g>
</svg>
