<?xml version="1.0" encoding="utf-8"?>
<!-- Generator: Adobe Illustrator 26.3.1, SVG Export Plug-In . SVG Version: 6.00 Build 0)  -->
<svg version="1.1" id="Layer_1" xmlns="http://www.w3.org/2000/svg" xmlns:xlink="http://www.w3.org/1999/xlink" x="0px" y="0px"
	 viewBox="0 0 720 432" style="enable-background:new 0 0 720 432;" xml:space="preserve">
<style type="text/css">
	.st0{fill:none;stroke:#000000;stroke-width:0.9281;stroke-linejoin:bevel;stroke-miterlimit:10;}
	.st1{enable-background:new    ;}
	.st2{fill:none;stroke:#000000;stroke-width:2.97;stroke-linejoin:bevel;stroke-miterlimit:10;}
	.st3{fill:none;stroke:#000000;stroke-width:0.5569;stroke-linejoin:bevel;stroke-miterlimit:10;}
</style>
<g>
	<g transform="matrix(0.7425,0,0,0.7425,0,0)">
		<line vector-effect="none" class="st0" x1="187.5" y1="72.4" x2="187.5" y2="104.4"/>
	</g>
	<g transform="matrix(0.7425,0,0,0.7425,0,0)">
		<line vector-effect="none" class="st0" x1="326.8" y1="72.4" x2="326.8" y2="104.4"/>
	</g>
	<g transform="matrix(0.7425,0,0,0.7425,0,0)">
		<line vector-effect="none" class="st0" x1="465.8" y1="72.4" x2="465.8" y2="104.4"/>
	</g>
	<g transform="matrix(0.7425,0,0,0.7425,0,0)">
		<line vector-effect="none" class="st0" x1="552" y1="72.4" x2="552" y2="104.4"/>
	</g>
	<g transform="matrix(0.7425,0,0,0.7425,0,0)">
		<line vector-effect="none" class="st0" x1="691" y1="72.4" x2="691" y2="104.4"/>
	</g>
	<g transform="matrix(0.7425,0,0,0.7425,0,0)">
		<line vector-effect="none" class="st0" x1="830.2" y1="72.4" x2="830.2" y2="104.4"/>
	</g>
	<g transform="matrix(0.7425,0,0,0.7425,0,0)">
		<line vector-effect="none" class="st0" x1="969.2" y1="72.4" x2="969.2" y2="104.4"/>
	</g>
	<g transform="matrix(0.7425,0,0,0.7425,0,0)">
	</g>
	<g transform="matrix(0.7425,0,0,0.7425,153.697,102.19)">
	</g>
	<g transform="matrix(0.7425,0,0,0.7425,153.697,102.19)">
		<g class="st1">
			<path d="M-150-85.2h-5v-0.4c1.5,0,1.6-0.3,1.6-1.7v-7.5c0-1.4-0.1-1.7-1.6-1.7V-97h5.6c0.8,0,1.7,0.2,2.6,0.5
				c2.5,0.9,3.7,2.7,3.7,5.4C-143-87.4-145.7-85.2-150-85.2z M-150.1-96.3c-1.4,0-1.4,0.2-1.4,1.6v7.1c0,1.4,0,1.6,1.5,1.6
				c3.3,0,5.1-1.8,5.1-5C-145-94.3-146.8-96.3-150.1-96.3z"/>
			<path d="M-133.9-85.2v-0.3c0.7,0,1-0.2,1-1.2v-3.7c0-0.9-0.4-1.3-1.2-1.3c-0.6,0-1.3,0.3-1.8,1c0.1,0.1,0.1,0.5,0.1,1.1v1.6
				c0,0.8,0,1.2,0,1.2c0,1.1,0.2,1.3,1,1.3v0.3h-3.4v-0.3c0.7,0,1-0.2,1-1.2v-3.7c0-0.9-0.4-1.3-1.1-1.3c-0.6,0-1.2,0.3-1.8,1v4.1
				c0,0.9,0.3,1.1,1,1.1v0.3h-3.4v-0.3c0.9,0,1-0.3,1-1.3v-4c0-0.4-0.1-0.6-0.3-0.6h-0.8v-0.3l2.4-0.8v1.3c0.7-0.9,1.5-1.3,2.5-1.3
				c0.9,0,1.4,0.4,1.6,1.3c0.8-0.9,1.7-1.3,2.7-1.3c0.5,0,0.9,0.1,1.2,0.4c0.3,0.3,0.6,1.3,0.6,1.8v3.6c0,1.1,0.2,1.3,1,1.3v0.3
				H-133.9z"/>
			<path d="M-127.6-89.8h-0.7l2.4-7.4h-2.5c-0.7,0-1.2,0.4-1.5,1.1l-0.2-0.1l0.7-2h4.6L-127.6-89.8z"/>
		</g>
	</g>
	<g transform="matrix(0.7425,0,0,0.7425,153.697,102.19)">
	</g>
	<g transform="matrix(0.7425,0,0,0.7425,0,0)">
	</g>
	<g transform="matrix(0.7425,0,0,0.7425,0,0)">
		<line vector-effect="none" class="st0" x1="135.8" y1="221.9" x2="135.8" y2="253.9"/>
	</g>
	<g transform="matrix(0.7425,0,0,0.7425,0,0)">
		<line vector-effect="none" class="st2" x1="141.2" y1="221.9" x2="141.2" y2="253.9"/>
	</g>
	<g transform="matrix(0.7425,0,0,0.7425,0,0)">
		<g class="st1">
			<path d="M132,233.9c0,0.7-0.7,1.4-1.5,1.4c-0.7,0-1.5-0.7-1.5-1.4c0-0.9,0.7-1.5,1.5-1.5C131.4,232.4,132,233.1,132,233.9z"/>
		</g>
	</g>
	<g transform="matrix(0.7425,0,0,0.7425,0,0)">
		<g class="st1">
			<path d="M132,241.9c0,0.7-0.7,1.4-1.5,1.4c-0.7,0-1.5-0.7-1.5-1.4c0-0.9,0.7-1.5,1.5-1.5C131.4,240.4,132,241.1,132,241.9z"/>
		</g>
	</g>
	<g transform="matrix(0.7425,0,0,0.7425,0,0)">
		<line vector-effect="none" class="st0" x1="289.8" y1="221.9" x2="289.8" y2="253.9"/>
	</g>
	<g transform="matrix(0.7425,0,0,0.7425,0,0)">
		<line vector-effect="none" class="st0" x1="437" y1="221.9" x2="437" y2="253.9"/>
	</g>
	<g transform="matrix(0.7425,0,0,0.7425,0,0)">
		<line vector-effect="none" class="st0" x1="584" y1="221.9" x2="584" y2="253.9"/>
	</g>
	<g transform="matrix(0.7425,0,0,0.7425,0,0)">
		<line vector-effect="none" class="st0" x1="675" y1="221.9" x2="675" y2="253.9"/>
	</g>
	<g transform="matrix(0.7425,0,0,0.7425,0,0)">
		<line vector-effect="none" class="st0" x1="822.2" y1="221.9" x2="822.2" y2="253.9"/>
	</g>
	<g transform="matrix(0.7425,0,0,0.7425,0,0)">
		<line vector-effect="none" class="st0" x1="969.2" y1="221.9" x2="969.2" y2="253.9"/>
	</g>
	<g transform="matrix(0.7425,0,0,0.7425,0,0)">
	</g>
	<g transform="matrix(0.7425,0,0,0.7425,426.195,546.205)">
	</g>
	<g transform="matrix(0.7425,0,0,0.7425,426.195,546.205)">
		<g class="st1">
			<path d="M-420.5-533.7h-9.7v-0.4c1.5,0,1.6-0.3,1.6-1.7v-7.5c0-1.4-0.1-1.7-1.6-1.7v-0.4h9.6v2.7h-0.4c-0.1-1.2-0.7-1.8-1.7-1.8
				h-3.1c-0.8,0-1,0.4-1,1.2v3.3h3.1c1,0,1.7-0.7,1.7-1.7h0.4v4.2h-0.4c0-1-0.7-1.7-1.7-1.7h-3.1v3.7c0,0.8,0.2,1.2,1,1.2h3
				c1.2,0,2.3-1,2.6-2.2h0.5L-420.5-533.7z"/>
			<path d="M-418.5-546.4h0.8l-0.1,6.4c0.9-1,1.1-1.1,1.9-1.1c1.3,0,2.2,0.9,2.2,2.3c0,2-2,2.8-3.6,4.1l-1.2,1V-546.4z
				 M-417.7-539.1c-0.1,1.3-0.1,2.1-0.1,2.5c0,0.6,0.1,1.2,0.2,1.5c1.7-1.3,2.5-2.6,2.5-3.7c0-0.9-0.5-1.6-1.3-1.6
				C-417.1-540.4-417.4-539.7-417.7-539.1z"/>
			<path d="M-404.2-533.7v-0.3c0.7,0,1-0.2,1-1.2v-3.7c0-0.9-0.4-1.3-1.2-1.3c-0.6,0-1.3,0.3-1.8,1c0.1,0.1,0.1,0.5,0.1,1.1v1.6
				c0,0.8,0,1.2,0,1.2c0,1.1,0.2,1.3,1,1.3v0.3h-3.4v-0.3c0.7,0,1-0.2,1-1.2v-3.7c0-0.9-0.4-1.3-1.1-1.3c-0.6,0-1.2,0.3-1.8,1v4.1
				c0,0.9,0.3,1.1,1,1.1v0.3h-3.4v-0.3c0.9,0,1-0.3,1-1.3v-4c0-0.4-0.1-0.6-0.3-0.6h-0.8v-0.3l2.4-0.8v1.3c0.7-0.9,1.5-1.3,2.5-1.3
				c0.9,0,1.4,0.4,1.6,1.3c0.8-0.9,1.7-1.3,2.7-1.3c0.5,0,0.9,0.1,1.2,0.4c0.3,0.3,0.6,1.3,0.6,1.8v3.6c0,1.1,0.2,1.3,1,1.3v0.3
				H-404.2z"/>
			<path d="M-397.9-538.3h-0.7l2.4-7.4h-2.5c-0.7,0-1.2,0.4-1.5,1.1l-0.2-0.1l0.7-2h4.6L-397.9-538.3z"/>
		</g>
	</g>
	<g transform="matrix(0.7425,0,0,0.7425,426.195,546.205)">
	</g>
	<g transform="matrix(0.7425,0,0,0.7425,0,0)">
	</g>
	<g transform="matrix(0.7425,0,0,0.7425,0,0)">
		<line vector-effect="none" class="st0" x1="234.5" y1="371.7" x2="234.5" y2="403.7"/>
	</g>
	<g transform="matrix(0.7425,0,0,0.7425,0,0)">
		<line vector-effect="none" class="st0" x1="362.2" y1="371.7" x2="362.2" y2="403.7"/>
	</g>
	<g transform="matrix(0.7425,0,0,0.7425,0,0)">
		<line vector-effect="none" class="st0" x1="366.5" y1="371.7" x2="366.5" y2="403.7"/>
	</g>
	<g transform="matrix(0.7425,0,0,0.7425,0,0)">
		<line vector-effect="none" class="st0" x1="567.2" y1="371.7" x2="567.2" y2="403.7"/>
	</g>
	<g transform="matrix(0.7425,0,0,0.7425,0,0)">
		<line vector-effect="none" class="st0" x1="768.2" y1="371.7" x2="768.2" y2="403.7"/>
	</g>
	<g transform="matrix(0.7425,0,0,0.7425,0,0)">
		<line vector-effect="none" class="st0" x1="969.2" y1="371.7" x2="969.2" y2="403.7"/>
	</g>
	<g transform="matrix(0.7425,0,0,0.7425,0,0)">
	</g>
	<g transform="matrix(0.7425,0,0,0.7425,1098.16,990.962)">
	</g>
	<g transform="matrix(0.7425,0,0,0.7425,1098.16,990.962)">
		<g class="st1">
			<path d="M-1104-983h-5v-0.4c1.5,0,1.6-0.3,1.6-1.7v-7.5c0-1.4-0.1-1.7-1.6-1.7v-0.4h5.6c0.8,0,1.7,0.2,2.6,0.5
				c2.5,0.9,3.7,2.7,3.7,5.4C-1097-985.1-1099.7-983-1104-983z M-1104.1-994.1c-1.4,0-1.4,0.2-1.4,1.6v7.1c0,1.4,0,1.6,1.5,1.6
				c3.3,0,5.1-1.8,5.1-5C-1099-992-1100.8-994.1-1104.1-994.1z"/>
			<path d="M-1087.9-983v-0.3c0.7,0,1-0.2,1-1.2v-3.7c0-0.9-0.4-1.3-1.2-1.3c-0.6,0-1.3,0.3-1.8,1c0.1,0.1,0.1,0.5,0.1,1.1v1.6
				c0,0.8,0,1.2,0,1.2c0,1.1,0.2,1.3,1,1.3v0.3h-3.4v-0.3c0.7,0,1-0.2,1-1.2v-3.7c0-0.9-0.4-1.3-1.1-1.3c-0.6,0-1.2,0.3-1.8,1v4.1
				c0,0.9,0.3,1.1,1,1.1v0.3h-3.4v-0.3c0.9,0,1-0.3,1-1.3v-4c0-0.4-0.1-0.6-0.3-0.6h-0.8v-0.3l2.4-0.8v1.3c0.7-0.9,1.5-1.3,2.5-1.3
				c0.9,0,1.4,0.4,1.6,1.3c0.8-0.9,1.7-1.3,2.7-1.3c0.5,0,0.9,0.1,1.2,0.4c0.3,0.3,0.6,1.3,0.6,1.8v3.6c0,1.1,0.2,1.3,1,1.3v0.3
				H-1087.9z"/>
			<path d="M-1081.6-987.6h-0.7l2.4-7.4h-2.5c-0.7,0-1.2,0.4-1.5,1.1l-0.2-0.1l0.7-2h4.6L-1081.6-987.6z"/>
		</g>
	</g>
	<g transform="matrix(0.7425,0,0,0.7425,1098.16,990.962)">
	</g>
	<g transform="matrix(0.7425,0,0,0.7425,0,0)">
	</g>
	<g transform="matrix(0.7425,0,0,0.7425,0,0)">
		<line vector-effect="none" class="st0" x1="166.5" y1="521.2" x2="166.5" y2="553.2"/>
	</g>
	<g transform="matrix(0.7425,0,0,0.7425,0,0)">
		<line vector-effect="none" class="st0" x1="385.8" y1="521.2" x2="385.8" y2="553.2"/>
	</g>
	<g transform="matrix(0.7425,0,0,0.7425,0,0)">
		<line vector-effect="none" class="st0" x1="604.8" y1="521.2" x2="604.8" y2="553.2"/>
	</g>
	<g transform="matrix(0.7425,0,0,0.7425,0,0)">
		<line vector-effect="none" class="st0" x1="824" y1="521.2" x2="824" y2="553.2"/>
	</g>
	<g transform="matrix(0.7425,0,0,0.7425,0,0)">
		<line vector-effect="none" class="st0" x1="962.2" y1="521.2" x2="962.2" y2="553.2"/>
	</g>
	<g transform="matrix(0.7425,0,0,0.7425,0,0)">
		<line vector-effect="none" class="st2" x1="967.8" y1="521.2" x2="967.8" y2="553.2"/>
	</g>
	<g transform="matrix(0.7425,0,0,0.7425,0,0)">
	</g>
	<g transform="matrix(0.7425,0,0,0.7425,106.177,117.388)">
	</g>
	<g transform="matrix(0.7425,0,0,0.7425,106.177,117.388)">
		<g class="st1">
			<path d="M-96.6-73.8v0.8c0,0.3,0,0.5,0,0.6c0,0.8,0.3,1,1.8,1.1l0.1,0.9h-7.9l0.1-0.9c1-0.1,1.6-0.3,1.8-0.6
				c0.1-0.2,0.1-0.8,0.1-1.9h-6.6v-1.3c2-2.5,3.8-7.1,4.1-10.3h5.5c-0.3,1.5-1.5,3.2-3.4,5.2c-2.2,2.2-3.5,3.8-4,5.1h4.4v-3.7l4-3.6
				v7.3h2v1.4H-96.6z"/>
		</g>
	</g>
	<g transform="matrix(0.7425,0,0,0.7425,106.177,117.388)">
		<g class="st1">
			<path d="M-96.6-57.6v0.8c0,0.3,0,0.5,0,0.6c0,0.8,0.3,1,1.8,1.1l0.1,0.9h-7.9l0.1-0.9c1-0.1,1.6-0.3,1.8-0.6
				c0.1-0.2,0.1-0.8,0.1-1.9h-6.6v-1.3c2-2.5,3.8-7.1,4.1-10.3h5.5c-0.3,1.5-1.5,3.2-3.4,5.2c-2.2,2.2-3.5,3.8-4,5.1h4.4v-3.7l4-3.6
				v7.3h2v1.4H-96.6z"/>
		</g>
	</g>
	<g transform="matrix(0.7425,0,0,0.7425,106.177,117.388)">
	</g>
	<g transform="matrix(0.7425,0,0,0.7425,0,0)">
	</g>
	<g transform="matrix(0.7425,0,0,0.7425,0,0)">
		<line vector-effect="none" class="st3" x1="0" y1="104.4" x2="969.8" y2="104.4"/>
	</g>
	<g transform="matrix(0.7425,0,0,0.7425,0,0)">
		<line vector-effect="none" class="st3" x1="0" y1="96.4" x2="969.8" y2="96.4"/>
	</g>
	<g transform="matrix(0.7425,0,0,0.7425,0,0)">
		<line vector-effect="none" class="st3" x1="0" y1="88.4" x2="969.8" y2="88.4"/>
	</g>
	<g transform="matrix(0.7425,0,0,0.7425,0,0)">
		<line vector-effect="none" class="st3" x1="0" y1="80.4" x2="969.8" y2="80.4"/>
	</g>
	<g transform="matrix(0.7425,0,0,0.7425,0,0)">
		<line vector-effect="none" class="st3" x1="0" y1="72.4" x2="969.8" y2="72.4"/>
	</g>
	<g transform="matrix(0.7425,0,0,0.7425,0,0)">
		<g class="st1">
			<path d="M11.7,95.3c4.7-4.2,7.6-9.8,7.6-14.9c0-4.1-2.3-7.1-6-7.1c-2.6,0-5.4,2.2-5.4,4.4c0,0.4,0.1,0.5,0.2,0.5
				c-0.1,0,0.9-1,2.2-1c1.4,0,2.5,1.3,2.5,2.8c0,2-1.4,3.6-3.4,3.6c-2,0-3.3-2.1-3.3-4.6c0-3.8,3.7-6.7,7.8-6.7
				c7.5,0,9.5,5.2,9.5,9.4c0,2.7-0.7,4.7-3.2,8.6c-3.1,4.9-10.4,8.5-13,8.5c-0.7,0-1-0.3-1-0.7C8.6,97.3,10.4,96.4,11.7,95.3z
				 M27.8,74.8c0.9,0,1.6,0.7,1.6,1.6S28.7,78,27.8,78c-0.9,0-1.6-0.7-1.6-1.6S26.9,74.8,27.8,74.8z M27.8,82.8
				c0.9,0,1.6,0.7,1.6,1.6c0,0.9-0.7,1.6-1.6,1.6c-0.9,0-1.6-0.7-1.6-1.6C26.2,83.5,26.9,82.8,27.8,82.8z"/>
		</g>
	</g>
	<g transform="matrix(0.7425,0,0,0.7425,0,0)">
		<line vector-effect="none" class="st3" x1="0" y1="253.9" x2="969.8" y2="253.9"/>
	</g>
	<g transform="matrix(0.7425,0,0,0.7425,0,0)">
		<line vector-effect="none" class="st3" x1="0" y1="245.9" x2="969.8" y2="245.9"/>
	</g>
	<g transform="matrix(0.7425,0,0,0.7425,0,0)">
		<line vector-effect="none" class="st3" x1="0" y1="237.9" x2="969.8" y2="237.9"/>
	</g>
	<g transform="matrix(0.7425,0,0,0.7425,0,0)">
		<line vector-effect="none" class="st3" x1="0" y1="229.9" x2="969.8" y2="229.9"/>
	</g>
	<g transform="matrix(0.7425,0,0,0.7425,0,0)">
		<line vector-effect="none" class="st3" x1="0" y1="221.9" x2="969.8" y2="221.9"/>
	</g>
	<g transform="matrix(0.7425,0,0,0.7425,0,0)">
		<g class="st1">
			<path d="M11.7,244.8c4.7-4.2,7.6-9.8,7.6-14.9c0-4.1-2.3-7.1-6-7.1c-2.6,0-5.4,2.2-5.4,4.4c0,0.4,0.1,0.5,0.2,0.5
				c-0.1,0,0.9-1,2.2-1c1.4,0,2.5,1.3,2.5,2.8c0,2-1.4,3.6-3.4,3.6c-2,0-3.3-2.1-3.3-4.6c0-3.8,3.7-6.7,7.8-6.7
				c7.5,0,9.5,5.2,9.5,9.4c0,2.7-0.7,4.7-3.2,8.6c-3.1,4.9-10.4,8.5-13,8.5c-0.7,0-1-0.3-1-0.7C8.6,246.8,10.4,245.9,11.7,244.8z
				 M27.8,224.3c0.9,0,1.6,0.7,1.6,1.6c0,0.9-0.7,1.6-1.6,1.6c-0.9,0-1.6-0.7-1.6-1.6C26.2,225,26.9,224.3,27.8,224.3z M27.8,232.3
				c0.9,0,1.6,0.7,1.6,1.6c0,0.9-0.7,1.6-1.6,1.6c-0.9,0-1.6-0.7-1.6-1.6C26.2,233,26.9,232.3,27.8,232.3z"/>
		</g>
	</g>
	<g transform="matrix(0.7425,0,0,0.7425,0,0)">
		<line vector-effect="none" class="st3" x1="0" y1="403.7" x2="969.8" y2="403.7"/>
	</g>
	<g transform="matrix(0.7425,0,0,0.7425,0,0)">
		<line vector-effect="none" class="st3" x1="0" y1="395.7" x2="969.8" y2="395.7"/>
	</g>
	<g transform="matrix(0.7425,0,0,0.7425,0,0)">
		<line vector-effect="none" class="st3" x1="0" y1="387.7" x2="969.8" y2="387.7"/>
	</g>
	<g transform="matrix(0.7425,0,0,0.7425,0,0)">
		<line vector-effect="none" class="st3" x1="0" y1="379.7" x2="969.8" y2="379.7"/>
	</g>
	<g transform="matrix(0.7425,0,0,0.7425,0,0)">
		<line vector-effect="none" class="st3" x1="0" y1="371.7" x2="969.8" y2="371.7"/>
	</g>
	<g transform="matrix(0.7425,0,0,0.7425,0,0)">
		<g class="st1">
			<path d="M11.7,394.5c4.7-4.2,7.6-9.8,7.6-14.9c0-4.1-2.3-7.1-6-7.1c-2.6,0-5.4,2.2-5.4,4.4c0,0.4,0.1,0.5,0.2,0.5
				c-0.1,0,0.9-1,2.2-1c1.4,0,2.5,1.3,2.5,2.8c0,2-1.4,3.6-3.4,3.6c-2,0-3.3-2.1-3.3-4.6c0-3.8,3.7-6.7,7.8-6.7
				c7.5,0,9.5,5.2,9.5,9.4c0,2.7-0.7,4.7-3.2,8.6c-3.1,4.9-10.4,8.5-13,8.5c-0.7,0-1-0.3-1-0.7C8.6,396.6,10.4,395.7,11.7,394.5z
				 M27.8,374.1c0.9,0,1.6,0.7,1.6,1.6c0,0.9-0.7,1.6-1.6,1.6c-0.9,0-1.6-0.7-1.6-1.6C26.2,374.8,26.9,374.1,27.8,374.1z M27.8,382
				c0.9,0,1.6,0.7,1.6,1.6c0,0.9-0.7,1.6-1.6,1.6c-0.9,0-1.6-0.7-1.6-1.6C26.2,382.7,26.9,382,27.8,382z"/>
		</g>
	</g>
	<g transform="matrix(0.7425,0,0,0.7425,0,0)">
		<line vector-effect="none" class="st3" x1="0" y1="553.2" x2="969.8" y2="553.2"/>
	</g>
	<g transform="matrix(0.7425,0,0,0.7425,0,0)">
		<line vector-effect="none" class="st3" x1="0" y1="545.2" x2="969.8" y2="545.2"/>
	</g>
	<g transform="matrix(0.7425,0,0,0.7425,0,0)">
		<line vector-effect="none" class="st3" x1="0" y1="537.2" x2="969.8" y2="537.2"/>
	</g>
	<g transform="matrix(0.7425,0,0,0.7425,0,0)">
		<line vector-effect="none" class="st3" x1="0" y1="529.2" x2="969.8" y2="529.2"/>
	</g>
	<g transform="matrix(0.7425,0,0,0.7425,0,0)">
		<line vector-effect="none" class="st3" x1="0" y1="521.2" x2="969.8" y2="521.2"/>
	</g>
	<g transform="matrix(0.7425,0,0,0.7425,0,0)">
		<g class="st1">
			<path d="M11.7,544c4.7-4.2,7.6-9.8,7.6-14.9c0-4.1-2.3-7.1-6-7.1c-2.6,0-5.4,2.2-5.4,4.4c0,0.4,0.1,0.5,0.2,0.5
				c-0.1,0,0.9-1,2.2-1c1.4,0,2.5,1.3,2.5,2.8c0,2-1.4,3.6-3.4,3.6c-2,0-3.3-2.1-3.3-4.6c0-3.8,3.7-6.7,7.8-6.7
				c7.5,0,9.5,5.2,9.5,9.4c0,2.7-0.7,4.7-3.2,8.6c-3.1,4.9-10.4,8.5-13,8.5c-0.7,0-1-0.3-1-0.7C8.6,546.1,10.4,545.2,11.7,544z
				 M27.8,523.6c0.9,0,1.6,0.7,1.6,1.6c0,0.9-0.7,1.6-1.6,1.6c-0.9,0-1.6-0.7-1.6-1.6C26.2,524.3,26.9,523.6,27.8,523.6z
				 M27.8,531.5c0.9,0,1.6,0.7,1.6,1.6c0,0.9-0.7,1.6-1.6,1.6c-0.9,0-1.6-0.7-1.6-1.6C26.2,532.2,26.9,531.5,27.8,531.5z"/>
		</g>
	</g>
	<g transform="matrix(0.7425,0,0,0.7425,0,0)">
		<line vector-effect="none" class="st3" x1="61.2" y1="89.7" x2="61.2" y2="116.4"/>
	</g>
	<g transform="matrix(0.7425,0,0,0.7425,0,0)">
		<g class="st1">
			<path d="M61,89.8c0-2.9,4.1-5.6,7.3-5.6c2.1,0,3.6,1.1,3.6,2.8c0,2.8-4.1,5.6-7.4,5.6C62.6,92.6,61,91.6,61,89.8z"/>
		</g>
	</g>
	<g transform="matrix(0.7425,0,0,0.7425,0,0)">
		<line vector-effect="none" class="st3" x1="93" y1="81.7" x2="93" y2="108.4"/>
	</g>
	<g transform="matrix(0.7425,0,0,0.7425,0,0)">
		<g class="st1">
			<path d="M92.8,81.8c0-2.9,4.1-5.6,7.3-5.6c2.1,0,3.6,1.1,3.6,2.8c0,2.8-4.1,5.6-7.4,5.6C94.3,84.6,92.8,83.6,92.8,81.8z"/>
		</g>
	</g>
	<g transform="matrix(0.7425,0,0,0.7425,0,0)">
		<line vector-effect="none" class="st3" x1="124.8" y1="73.7" x2="124.8" y2="100.4"/>
	</g>
	<g transform="matrix(0.7425,0,0,0.7425,0,0)">
		<g class="st1">
			<path d="M124.5,73.8c0-2.9,4.1-5.6,7.3-5.6c2.1,0,3.6,1.1,3.6,2.8c0,2.8-4.1,5.6-7.4,5.6C126.1,76.6,124.5,75.6,124.5,73.8z"/>
		</g>
	</g>
	<g transform="matrix(0.7425,0,0,0.7425,0,0)">
		<line vector-effect="none" class="st0" x1="153.2" y1="64.4" x2="170.2" y2="64.4"/>
	</g>
	<g transform="matrix(0.7425,0,0,0.7425,0,0)">
		<line vector-effect="none" class="st3" x1="156.5" y1="65.7" x2="156.5" y2="92.4"/>
	</g>
	<g transform="matrix(0.7425,0,0,0.7425,0,0)">
		<g class="st1">
			<path d="M156.2,65.8c0-2.9,4.1-5.6,7.3-5.6c2.1,0,3.6,1.1,3.6,2.8c0,2.8-4.1,5.6-7.4,5.6C157.8,68.6,156.2,67.6,156.2,65.8z"/>
		</g>
	</g>
	<g transform="matrix(0.7425,0,0,0.7425,0,0)">
		<line vector-effect="none" class="st0" x1="197" y1="64.4" x2="214" y2="64.4"/>
	</g>
	<g transform="matrix(0.7425,0,0,0.7425,0,0)">
		<line vector-effect="none" class="st0" x1="197" y1="56.4" x2="214" y2="56.4"/>
	</g>
	<g transform="matrix(0.7425,0,0,0.7425,0,0)">
		<line vector-effect="none" class="st3" x1="200.2" y1="57.7" x2="200.2" y2="88.4"/>
	</g>
	<g transform="matrix(0.7425,0,0,0.7425,0,0)">
		<g class="st1">
			<path d="M200,57.8c0-2.9,4.1-5.6,7.3-5.6c2.1,0,3.6,1.1,3.6,2.8c0,2.8-4.1,5.6-7.4,5.6C201.6,60.6,200,59.6,200,57.8z"/>
		</g>
	</g>
	<g transform="matrix(0.7425,0,0,0.7425,0,0)">
		<line vector-effect="none" class="st0" x1="228.8" y1="64.4" x2="245.8" y2="64.4"/>
	</g>
	<g transform="matrix(0.7425,0,0,0.7425,0,0)">
		<line vector-effect="none" class="st3" x1="232" y1="61.7" x2="232" y2="88.4"/>
	</g>
	<g transform="matrix(0.7425,0,0,0.7425,0,0)">
		<g class="st1">
			<path d="M231.8,61.8c0-2.9,4.1-5.6,7.3-5.6c2.1,0,3.6,1.1,3.6,2.8c0,2.8-4.1,5.6-7.4,5.6C233.3,64.6,231.8,63.6,231.8,61.8z"/>
		</g>
	</g>
	<g transform="matrix(0.7425,0,0,0.7425,0,0)">
		<line vector-effect="none" class="st0" x1="260.5" y1="64.4" x2="277.5" y2="64.4"/>
	</g>
	<g transform="matrix(0.7425,0,0,0.7425,0,0)">
		<line vector-effect="none" class="st3" x1="263.8" y1="65.7" x2="263.8" y2="92.4"/>
	</g>
	<g transform="matrix(0.7425,0,0,0.7425,0,0)">
		<g class="st1">
			<path d="M263.5,65.8c0-2.9,4.1-5.6,7.3-5.6c2.1,0,3.6,1.1,3.6,2.8c0,2.8-4.1,5.6-7.4,5.6C265.1,68.6,263.5,67.6,263.5,65.8z"/>
		</g>
	</g>
	<g transform="matrix(0.7425,0,0,0.7425,0,0)">
		<line vector-effect="none" class="st3" x1="295.8" y1="69.7" x2="295.8" y2="96.4"/>
	</g>
	<g transform="matrix(0.7425,0,0,0.7425,0,0)">
		<g class="st1">
			<path d="M295.5,69.8c0-2.9,4.1-5.6,7.3-5.6c2.1,0,3.6,1.1,3.6,2.8c0,2.8-4.1,5.6-7.4,5.6C297.1,72.6,295.5,71.6,295.5,69.8z"/>
		</g>
	</g>
	<g transform="matrix(0.7425,0,0,0.7425,0,0)">
		<line vector-effect="none" class="st3" x1="339.5" y1="73.7" x2="339.5" y2="100.4"/>
	</g>
	<g transform="matrix(0.7425,0,0,0.7425,0,0)">
		<g class="st1">
			<path d="M339.2,73.8c0-2.9,4.1-5.6,7.3-5.6c2.1,0,3.6,1.1,3.6,2.8c0,2.8-4.1,5.6-7.4,5.6C340.8,76.6,339.2,75.6,339.2,73.8z"/>
		</g>
	</g>
	<g transform="matrix(0.7425,0,0,0.7425,0,0)">
		<line vector-effect="none" class="st3" x1="371.2" y1="77.7" x2="371.2" y2="104.4"/>
	</g>
	<g transform="matrix(0.7425,0,0,0.7425,0,0)">
		<g class="st1">
			<path d="M371,77.8c0-2.9,4.1-5.6,7.3-5.6c2.1,0,3.6,1.1,3.6,2.8c0,2.8-4.1,5.6-7.4,5.6C372.6,80.6,371,79.6,371,77.8z"/>
		</g>
	</g>
	<g transform="matrix(0.7425,0,0,0.7425,0,0)">
		<line vector-effect="none" class="st3" x1="403" y1="81.7" x2="403" y2="108.4"/>
	</g>
	<g transform="matrix(0.7425,0,0,0.7425,0,0)">
		<g class="st1">
			<path d="M402.8,81.8c0-2.9,4.1-5.6,7.3-5.6c2.1,0,3.6,1.1,3.6,2.8c0,2.8-4.1,5.6-7.4,5.6C404.3,84.6,402.8,83.6,402.8,81.8z"/>
		</g>
	</g>
	<g transform="matrix(0.7425,0,0,0.7425,0,0)">
		<line vector-effect="none" class="st3" x1="434.8" y1="85.7" x2="434.8" y2="112.4"/>
	</g>
	<g transform="matrix(0.7425,0,0,0.7425,0,0)">
		<g class="st1">
			<path d="M434.5,85.8c0-2.9,4.1-5.6,7.3-5.6c2.1,0,3.6,1.1,3.6,2.8c0,2.8-4.1,5.6-7.4,5.6C436.1,88.6,434.5,87.6,434.5,85.8z"/>
		</g>
	</g>
	<g transform="matrix(0.7425,0,0,0.7425,0,0)">
		<g class="st1">
			<path d="M485.9,84.1c3.6,0,7.3,1.9,7.3,4.3c0,2.7-3.1,4.3-7.6,4.3c-4.1,0-7.3-1.7-7.3-4.3C478.2,85.8,482,84.1,485.9,84.1z
				 M489,87.5c-1-1.9-2-2.7-4.2-2.7c-2,0-3.1,0.8-3.1,2.5c0,2.4,2.2,4.8,4.2,4.8c1.9,0,3.4-0.2,3.8-2
				C489.7,89.3,489.4,88.5,489,87.5z"/>
		</g>
	</g>
	<g transform="matrix(0.7425,0,0,0.7425,0,0)">
		<line vector-effect="none" class="st3" x1="564.8" y1="89.7" x2="564.8" y2="116.4"/>
	</g>
	<g transform="matrix(0.7425,0,0,0.7425,0,0)">
		<g class="st1">
			<path d="M564.5,89.8c0-2.9,4.1-5.6,7.3-5.6c2.1,0,3.6,1.1,3.6,2.8c0,2.8-4.1,5.6-7.4,5.6C566.1,92.6,564.5,91.6,564.5,89.8z"/>
		</g>
	</g>
	<g transform="matrix(0.7425,0,0,0.7425,0,0)">
		<line vector-effect="none" class="st3" x1="596.5" y1="85.7" x2="596.5" y2="112.4"/>
	</g>
	<g transform="matrix(0.7425,0,0,0.7425,0,0)">
		<g class="st1">
			<path d="M596.3,85.8c0-2.9,4.1-5.6,7.3-5.6c2.1,0,3.6,1.1,3.6,2.8c0,2.8-4.1,5.6-7.4,5.6C597.8,88.6,596.3,87.6,596.3,85.8z"/>
		</g>
	</g>
	<g transform="matrix(0.7425,0,0,0.7425,0,0)">
		<line vector-effect="none" class="st3" x1="628.2" y1="81.7" x2="628.2" y2="108.4"/>
	</g>
	<g transform="matrix(0.7425,0,0,0.7425,0,0)">
		<g class="st1">
			<path d="M628,81.8c0-2.9,4.1-5.6,7.3-5.6c2.1,0,3.6,1.1,3.6,2.8c0,2.8-4.1,5.6-7.4,5.6C629.6,84.6,628,83.6,628,81.8z"/>
		</g>
	</g>
	<g transform="matrix(0.7425,0,0,0.7425,0,0)">
		<line vector-effect="none" class="st3" x1="660" y1="77.7" x2="660" y2="104.4"/>
	</g>
	<g transform="matrix(0.7425,0,0,0.7425,0,0)">
		<g class="st1">
			<path d="M659.7,77.8c0-2.9,4.1-5.6,7.3-5.6c2.1,0,3.6,1.1,3.6,2.8c0,2.8-4.1,5.6-7.4,5.6C661.3,80.6,659.7,79.6,659.7,77.8z"/>
		</g>
	</g>
	<g transform="matrix(0.7425,0,0,0.7425,0,0)">
		<line vector-effect="none" class="st3" x1="703.8" y1="73.7" x2="703.8" y2="100.4"/>
	</g>
	<g transform="matrix(0.7425,0,0,0.7425,0,0)">
		<g class="st1">
			<path d="M703.5,73.8c0-2.9,4.1-5.6,7.3-5.6c2.1,0,3.6,1.1,3.6,2.8c0,2.8-4.1,5.6-7.4,5.6C705.1,76.6,703.5,75.6,703.5,73.8z"/>
		</g>
	</g>
	<g transform="matrix(0.7425,0,0,0.7425,0,0)">
		<line vector-effect="none" class="st3" x1="735.5" y1="69.7" x2="735.5" y2="96.4"/>
	</g>
	<g transform="matrix(0.7425,0,0,0.7425,0,0)">
		<g class="st1">
			<path d="M735.2,69.8c0-2.9,4.1-5.6,7.3-5.6c2.1,0,3.6,1.1,3.6,2.8c0,2.8-4.1,5.6-7.4,5.6C736.8,72.6,735.2,71.6,735.2,69.8z"/>
		</g>
	</g>
	<g transform="matrix(0.7425,0,0,0.7425,0,0)">
		<line vector-effect="none" class="st0" x1="764.2" y1="64.4" x2="781.2" y2="64.4"/>
	</g>
	<g transform="matrix(0.7425,0,0,0.7425,0,0)">
		<line vector-effect="none" class="st3" x1="767.5" y1="65.7" x2="767.5" y2="92.4"/>
	</g>
	<g transform="matrix(0.7425,0,0,0.7425,0,0)">
		<g class="st1">
			<path d="M767.2,65.8c0-2.9,4.1-5.6,7.3-5.6c2.1,0,3.6,1.1,3.6,2.8c0,2.8-4.1,5.6-7.4,5.6C768.8,68.6,767.2,67.6,767.2,65.8z"/>
		</g>
	</g>
	<g transform="matrix(0.7425,0,0,0.7425,0,0)">
		<line vector-effect="none" class="st0" x1="796" y1="64.4" x2="813" y2="64.4"/>
	</g>
	<g transform="matrix(0.7425,0,0,0.7425,0,0)">
		<line vector-effect="none" class="st3" x1="799.2" y1="61.7" x2="799.2" y2="88.4"/>
	</g>
	<g transform="matrix(0.7425,0,0,0.7425,0,0)">
		<g class="st1">
			<path d="M799,61.8c0-2.9,4.1-5.6,7.3-5.6c2.1,0,3.6,1.1,3.6,2.8c0,2.8-4.1,5.6-7.4,5.6C800.6,64.6,799,63.6,799,61.8z"/>
		</g>
	</g>
	<g transform="matrix(0.7425,0,0,0.7425,0,0)">
		<line vector-effect="none" class="st0" x1="839.8" y1="64.4" x2="856.8" y2="64.4"/>
	</g>
	<g transform="matrix(0.7425,0,0,0.7425,0,0)">
		<line vector-effect="none" class="st0" x1="839.8" y1="56.4" x2="856.8" y2="56.4"/>
	</g>
	<g transform="matrix(0.7425,0,0,0.7425,0,0)">
		<line vector-effect="none" class="st3" x1="843" y1="57.7" x2="843" y2="88.4"/>
	</g>
	<g transform="matrix(0.7425,0,0,0.7425,0,0)">
		<g class="st1">
			<path d="M842.8,57.8c0-2.9,4.1-5.6,7.3-5.6c2.1,0,3.6,1.1,3.6,2.8c0,2.8-4.1,5.6-7.4,5.6C844.3,60.6,842.8,59.6,842.8,57.8z"/>
		</g>
	</g>
	<g transform="matrix(0.7425,0,0,0.7425,0,0)">
		<line vector-effect="none" class="st0" x1="871.5" y1="64.4" x2="888.5" y2="64.4"/>
	</g>
	<g transform="matrix(0.7425,0,0,0.7425,0,0)">
		<line vector-effect="none" class="st3" x1="874.8" y1="65.7" x2="874.8" y2="92.4"/>
	</g>
	<g transform="matrix(0.7425,0,0,0.7425,0,0)">
		<g class="st1">
			<path d="M874.5,65.8c0-2.9,4.1-5.6,7.3-5.6c2.1,0,3.6,1.1,3.6,2.8c0,2.8-4.1,5.6-7.4,5.6C876.1,68.6,874.5,67.6,874.5,65.8z"/>
		</g>
	</g>
	<g transform="matrix(0.7425,0,0,0.7425,0,0)">
		<line vector-effect="none" class="st3" x1="906.5" y1="73.7" x2="906.5" y2="100.4"/>
	</g>
	<g transform="matrix(0.7425,0,0,0.7425,0,0)">
		<g class="st1">
			<path d="M906.2,73.8c0-2.9,4.1-5.6,7.3-5.6c2.1,0,3.6,1.1,3.6,2.8c0,2.8-4.1,5.6-7.4,5.6C907.8,76.6,906.2,75.6,906.2,73.8z"/>
		</g>
	</g>
	<g transform="matrix(0.7425,0,0,0.7425,0,0)">
		<line vector-effect="none" class="st3" x1="938.2" y1="81.7" x2="938.2" y2="108.4"/>
	</g>
	<g transform="matrix(0.7425,0,0,0.7425,0,0)">
		<g class="st1">
			<path d="M938,81.8c0-2.9,4.1-5.6,7.3-5.6c2.1,0,3.6,1.1,3.6,2.8c0,2.8-4.1,5.6-7.4,5.6C939.6,84.6,938,83.6,938,81.8z"/>
		</g>
	</g>
	<g transform="matrix(0.7425,0,0,0.7425,0,0)">
		<g class="st1">
			<path d="M53.6,233.6c3.6,0,7.3,1.9,7.3,4.3c0,2.7-3.1,4.3-7.6,4.3c-4.1,0-7.3-1.7-7.3-4.3C46,235.3,49.7,233.6,53.6,233.6z
				 M56.7,237c-1-1.9-2-2.7-4.2-2.7c-2,0-3.1,0.8-3.1,2.5c0,2.4,2.2,4.8,4.2,4.8c1.9,0,3.4-0.2,3.8-2C57.5,238.8,57.2,238,56.7,237z
				"/>
		</g>
	</g>
	<g transform="matrix(0.7425,0,0,0.7425,0,0)">
		<line vector-effect="none" class="st3" x1="155.5" y1="235.2" x2="155.5" y2="261.9"/>
	</g>
	<g transform="matrix(0.7425,0,0,0.7425,0,0)">
		<g class="st1">
			<path d="M155.3,235.3c0-2.9,4.1-5.6,7.3-5.6c2.1,0,3.6,1.1,3.6,2.8c0,2.8-4.1,5.6-7.4,5.6C156.8,238.1,155.3,237.1,155.3,235.3z"
				/>
		</g>
	</g>
	<g transform="matrix(0.7425,0,0,0.7425,0,0)">
		<g class="st1">
			<path d="M145.8,220.5h1l-0.2,10.1c0.6-1.1,1.6-1.6,3-1.6c1.9,0,3.6,1.3,3.6,3.1c-0.1,1.2-0.8,2.8-2.8,4.3l-4.5,3.3V220.5z
				 M146.7,231.6c-0.1,1.2-0.2,2.3-0.2,3.1c0,1.6,0.1,2.6,0.2,3.2c1.7-1.1,3.9-4.3,3.9-5.9c0-1-0.8-1.7-1.8-1.7
				C147.8,230.3,147.2,230.8,146.7,231.6z"/>
		</g>
	</g>
	<g transform="matrix(0.7425,0,0,0.7425,0,0)">
		<line vector-effect="none" class="st3" x1="189.2" y1="227.2" x2="189.2" y2="253.9"/>
	</g>
	<g transform="matrix(0.7425,0,0,0.7425,0,0)">
		<g class="st1">
			<path d="M189,227.3c0-2.9,4.1-5.6,7.3-5.6c2.1,0,3.6,1.1,3.6,2.8c0,2.8-4.1,5.6-7.4,5.6C190.6,230.1,189,229.1,189,227.3z"/>
		</g>
	</g>
	<g transform="matrix(0.7425,0,0,0.7425,0,0)">
		<g class="st1">
			<path d="M179.5,212.5h1l-0.2,10.1c0.6-1.1,1.6-1.6,3-1.6c1.9,0,3.6,1.3,3.6,3.1c-0.1,1.2-0.8,2.8-2.8,4.3l-4.5,3.3V212.5z
				 M180.4,223.6c-0.1,1.2-0.2,2.3-0.2,3.1c0,1.6,0.1,2.6,0.2,3.2c1.7-1.1,3.9-4.3,3.9-5.9c0-1-0.8-1.7-1.8-1.7
				C181.6,222.3,180.9,222.8,180.4,223.6z"/>
		</g>
	</g>
	<g transform="matrix(0.7425,0,0,0.7425,0,0)">
		<line vector-effect="none" class="st3" x1="223" y1="219.2" x2="223" y2="245.9"/>
	</g>
	<g transform="matrix(0.7425,0,0,0.7425,0,0)">
		<g class="st1">
			<path d="M222.8,219.3c0-2.9,4.1-5.6,7.3-5.6c2.1,0,3.6,1.1,3.6,2.8c0,2.8-4.1,5.6-7.4,5.6C224.3,222.1,222.8,221.1,222.8,219.3z"
				/>
		</g>
	</g>
	<g transform="matrix(0.7425,0,0,0.7425,0,0)">
		<g class="st1">
			<path d="M213.3,204.5h1l-0.2,10.1c0.6-1.1,1.6-1.6,3-1.6c1.9,0,3.6,1.3,3.6,3.1c-0.1,1.2-0.8,2.8-2.8,4.3l-4.5,3.3V204.5z
				 M214.2,215.6c-0.1,1.2-0.2,2.3-0.2,3.1c0,1.6,0.1,2.6,0.2,3.2c1.7-1.1,3.9-4.3,3.9-5.9c0-1-0.8-1.7-1.8-1.7
				C215.3,214.3,214.7,214.8,214.2,215.6z"/>
		</g>
	</g>
	<g transform="matrix(0.7425,0,0,0.7425,0,0)">
		<line vector-effect="none" class="st0" x1="253.5" y1="213.9" x2="270.5" y2="213.9"/>
	</g>
	<g transform="matrix(0.7425,0,0,0.7425,0,0)">
		<line vector-effect="none" class="st3" x1="256.8" y1="211.2" x2="256.8" y2="237.9"/>
	</g>
	<g transform="matrix(0.7425,0,0,0.7425,0,0)">
		<g class="st1">
			<path d="M256.5,211.3c0-2.9,4.1-5.6,7.3-5.6c2.1,0,3.6,1.1,3.6,2.8c0,2.8-4.1,5.6-7.4,5.6C258.1,214.1,256.5,213.1,256.5,211.3z"
				/>
		</g>
	</g>
	<g transform="matrix(0.7425,0,0,0.7425,0,0)">
		<g class="st1">
			<path d="M245,196.5h1l-0.2,10.1c0.6-1.1,1.6-1.6,3-1.6c1.9,0,3.6,1.3,3.6,3.1c-0.1,1.2-0.8,2.8-2.8,4.3l-4.5,3.3V196.5z
				 M245.9,207.6c-0.1,1.2-0.2,2.3-0.2,3.1c0,1.6,0.1,2.6,0.2,3.2c1.7-1.1,3.9-4.3,3.9-5.9c0-1-0.8-1.7-1.8-1.7
				C247.1,206.3,246.4,206.8,245.9,207.6z"/>
		</g>
	</g>
	<g transform="matrix(0.7425,0,0,0.7425,0,0)">
		<line vector-effect="none" class="st0" x1="299.2" y1="213.9" x2="316.2" y2="213.9"/>
	</g>
	<g transform="matrix(0.7425,0,0,0.7425,0,0)">
		<line vector-effect="none" class="st0" x1="299.2" y1="205.9" x2="316.2" y2="205.9"/>
	</g>
	<g transform="matrix(0.7425,0,0,0.7425,0,0)">
		<line vector-effect="none" class="st3" x1="302.5" y1="203.2" x2="302.5" y2="237.9"/>
	</g>
	<g transform="matrix(0.7425,0,0,0.7425,0,0)">
		<g class="st1">
			<path d="M302.3,203.3c0-2.9,4.1-5.6,7.3-5.6c2.1,0,3.6,1.1,3.6,2.8c0,2.8-4.1,5.6-7.4,5.6C303.8,206.1,302.3,205.1,302.3,203.3z"
				/>
		</g>
	</g>
	<g transform="matrix(0.7425,0,0,0.7425,0,0)">
		<line vector-effect="none" class="st0" x1="333.2" y1="213.9" x2="350.2" y2="213.9"/>
	</g>
	<g transform="matrix(0.7425,0,0,0.7425,0,0)">
		<line vector-effect="none" class="st0" x1="333.2" y1="205.9" x2="350.2" y2="205.9"/>
	</g>
	<g transform="matrix(0.7425,0,0,0.7425,0,0)">
		<line vector-effect="none" class="st3" x1="336.5" y1="207.2" x2="336.5" y2="237.9"/>
	</g>
	<g transform="matrix(0.7425,0,0,0.7425,0,0)">
		<g class="st1">
			<path d="M336.3,207.3c0-2.9,4.1-5.6,7.3-5.6c2.1,0,3.6,1.1,3.6,2.8c0,2.8-4.1,5.6-7.4,5.6C337.8,210.1,336.3,209.1,336.3,207.3z"
				/>
		</g>
	</g>
	<g transform="matrix(0.7425,0,0,0.7425,0,0)">
		<g class="st1">
			<path d="M324.8,192.5h1l-0.2,10.1c0.6-1.1,1.6-1.6,3-1.6c1.9,0,3.6,1.3,3.6,3.1c-0.1,1.2-0.8,2.8-2.8,4.3l-4.5,3.3V192.5z
				 M325.7,203.6c-0.1,1.2-0.2,2.3-0.2,3.1c0,1.6,0.1,2.6,0.2,3.2c1.7-1.1,3.9-4.3,3.9-5.9c0-1-0.8-1.7-1.8-1.7
				C326.8,202.3,326.2,202.8,325.7,203.6z"/>
		</g>
	</g>
	<g transform="matrix(0.7425,0,0,0.7425,0,0)">
		<line vector-effect="none" class="st0" x1="367" y1="213.9" x2="384" y2="213.9"/>
	</g>
	<g transform="matrix(0.7425,0,0,0.7425,0,0)">
		<line vector-effect="none" class="st3" x1="370.2" y1="211.2" x2="370.2" y2="237.9"/>
	</g>
	<g transform="matrix(0.7425,0,0,0.7425,0,0)">
		<g class="st1">
			<path d="M370,211.3c0-2.9,4.1-5.6,7.3-5.6c2.1,0,3.6,1.1,3.6,2.8c0,2.8-4.1,5.6-7.4,5.6C371.6,214.1,370,213.1,370,211.3z"/>
		</g>
	</g>
	<g transform="matrix(0.7425,0,0,0.7425,0,0)">
		<g class="st1">
			<path d="M358.5,196.5h1l-0.2,10.1c0.6-1.1,1.6-1.6,3-1.6c1.9,0,3.6,1.3,3.6,3.1c-0.1,1.2-0.8,2.8-2.8,4.3l-4.5,3.3V196.5z
				 M359.4,207.6c-0.1,1.2-0.2,2.3-0.2,3.1c0,1.6,0.1,2.6,0.2,3.2c1.7-1.1,3.9-4.3,3.9-5.9c0-1-0.8-1.7-1.8-1.7
				C360.6,206.3,359.9,206.8,359.4,207.6z"/>
		</g>
	</g>
	<g transform="matrix(0.7425,0,0,0.7425,0,0)">
		<line vector-effect="none" class="st0" x1="400.8" y1="213.9" x2="417.8" y2="213.9"/>
	</g>
	<g transform="matrix(0.7425,0,0,0.7425,0,0)">
		<line vector-effect="none" class="st3" x1="404" y1="215.2" x2="404" y2="241.9"/>
	</g>
	<g transform="matrix(0.7425,0,0,0.7425,0,0)">
		<g class="st1">
			<path d="M403.7,215.3c0-2.9,4.1-5.6,7.3-5.6c2.1,0,3.6,1.1,3.6,2.8c0,2.8-4.1,5.6-7.4,5.6C405.3,218.1,403.7,217.1,403.7,215.3z"
				/>
		</g>
	</g>
	<g transform="matrix(0.7425,0,0,0.7425,0,0)">
		<line vector-effect="none" class="st3" x1="449.8" y1="219.2" x2="449.8" y2="245.9"/>
	</g>
	<g transform="matrix(0.7425,0,0,0.7425,0,0)">
		<g class="st1">
			<path d="M449.5,219.3c0-2.9,4.1-5.6,7.3-5.6c2.1,0,3.6,1.1,3.6,2.8c0,2.8-4.1,5.6-7.4,5.6C451.1,222.1,449.5,221.1,449.5,219.3z"
				/>
		</g>
	</g>
	<g transform="matrix(0.7425,0,0,0.7425,0,0)">
		<g class="st1">
			<path d="M440,204.5h1l-0.2,10.1c0.6-1.1,1.6-1.6,3-1.6c1.9,0,3.6,1.3,3.6,3.1c-0.1,1.2-0.8,2.8-2.8,4.3l-4.5,3.3V204.5z
				 M440.9,215.6c-0.1,1.2-0.2,2.3-0.2,3.1c0,1.6,0.1,2.6,0.2,3.2c1.7-1.1,3.9-4.3,3.9-5.9c0-1-0.8-1.7-1.8-1.7
				C442.1,214.3,441.4,214.8,440.9,215.6z"/>
		</g>
	</g>
	<g transform="matrix(0.7425,0,0,0.7425,0,0)">
		<line vector-effect="none" class="st3" x1="483.5" y1="223.2" x2="483.5" y2="249.9"/>
	</g>
	<g transform="matrix(0.7425,0,0,0.7425,0,0)">
		<g class="st1">
			<path d="M483.3,223.3c0-2.9,4.1-5.6,7.3-5.6c2.1,0,3.6,1.1,3.6,2.8c0,2.8-4.1,5.6-7.4,5.6C484.8,226.1,483.3,225.1,483.3,223.3z"
				/>
		</g>
	</g>
	<g transform="matrix(0.7425,0,0,0.7425,0,0)">
		<g class="st1">
			<path d="M473.8,208.5h1l-0.2,10.1c0.6-1.1,1.6-1.6,3-1.6c1.9,0,3.6,1.3,3.6,3.1c-0.1,1.2-0.8,2.8-2.8,4.3l-4.5,3.3V208.5z
				 M474.7,219.6c-0.1,1.2-0.2,2.3-0.2,3.1c0,1.6,0.1,2.6,0.2,3.2c1.7-1.1,3.9-4.3,3.9-5.9c0-1-0.8-1.7-1.8-1.7
				C475.8,218.3,475.2,218.8,474.7,219.6z"/>
		</g>
	</g>
	<g transform="matrix(0.7425,0,0,0.7425,0,0)">
		<line vector-effect="none" class="st3" x1="517.2" y1="227.2" x2="517.2" y2="253.9"/>
	</g>
	<g transform="matrix(0.7425,0,0,0.7425,0,0)">
		<g class="st1">
			<path d="M517,227.3c0-2.9,4.1-5.6,7.3-5.6c2.1,0,3.6,1.1,3.6,2.8c0,2.8-4.1,5.6-7.4,5.6C518.6,230.1,517,229.1,517,227.3z"/>
		</g>
	</g>
	<g transform="matrix(0.7425,0,0,0.7425,0,0)">
		<g class="st1">
			<path d="M507.5,212.5h1l-0.2,10.1c0.6-1.1,1.6-1.6,3-1.6c1.9,0,3.6,1.3,3.6,3.1c-0.1,1.2-0.8,2.8-2.8,4.3l-4.5,3.3V212.5z
				 M508.4,223.6c-0.1,1.2-0.2,2.3-0.2,3.1c0,1.6,0.1,2.6,0.2,3.2c1.7-1.1,3.9-4.3,3.9-5.9c0-1-0.8-1.7-1.8-1.7
				C509.6,222.3,508.9,222.8,508.4,223.6z"/>
		</g>
	</g>
	<g transform="matrix(0.7425,0,0,0.7425,0,0)">
		<line vector-effect="none" class="st3" x1="551" y1="231.2" x2="551" y2="257.9"/>
	</g>
	<g transform="matrix(0.7425,0,0,0.7425,0,0)">
		<g class="st1">
			<path d="M550.7,231.3c0-2.9,4.1-5.6,7.3-5.6c2.1,0,3.6,1.1,3.6,2.8c0,2.8-4.1,5.6-7.4,5.6C552.3,234.1,550.7,233.1,550.7,231.3z"
				/>
		</g>
	</g>
	<g transform="matrix(0.7425,0,0,0.7425,0,0)">
		<g class="st1">
			<path d="M604.1,229.6c3.6,0,7.3,1.9,7.3,4.3c0,2.7-3.1,4.3-7.6,4.3c-4.1,0-7.3-1.7-7.3-4.3C596.5,231.3,600.2,229.6,604.1,229.6z
				 M607.2,233c-1-1.9-2-2.7-4.2-2.7c-2,0-3.1,0.8-3.1,2.5c0,2.4,2.2,4.8,4.2,4.8c1.9,0,3.4-0.2,3.8-2
				C608,234.8,607.7,234,607.2,233z"/>
		</g>
	</g>
	<g transform="matrix(0.7425,0,0,0.7425,0,0)">
		<g class="st1">
			<path d="M587,220.5h1l-0.2,10.1c0.6-1.1,1.6-1.6,3-1.6c1.9,0,3.6,1.3,3.6,3.1c-0.1,1.2-0.8,2.8-2.8,4.3l-4.5,3.3V220.5z
				 M587.9,231.6c-0.1,1.2-0.2,2.3-0.2,3.1c0,1.6,0.1,2.6,0.2,3.2c1.7-1.1,3.9-4.3,3.9-5.9c0-1-0.8-1.7-1.8-1.7
				C589.1,230.3,588.4,230.8,587.9,231.6z"/>
		</g>
	</g>
	<g transform="matrix(0.7425,0,0,0.7425,0,0)">
		<line vector-effect="none" class="st3" x1="687.8" y1="235.2" x2="687.8" y2="261.9"/>
	</g>
	<g transform="matrix(0.7425,0,0,0.7425,0,0)">
		<g class="st1">
			<path d="M687.5,235.3c0-2.9,4.1-5.6,7.3-5.6c2.1,0,3.6,1.1,3.6,2.8c0,2.8-4.1,5.6-7.4,5.6C689.1,238.1,687.5,237.1,687.5,235.3z"
				/>
		</g>
	</g>
	<g transform="matrix(0.7425,0,0,0.7425,0,0)">
		<g class="st1">
			<path d="M678,220.5h1l-0.2,10.1c0.6-1.1,1.6-1.6,3-1.6c1.9,0,3.6,1.3,3.6,3.1c-0.1,1.2-0.8,2.8-2.8,4.3l-4.5,3.3V220.5z
				 M678.9,231.6c-0.1,1.2-0.2,2.3-0.2,3.1c0,1.6,0.1,2.6,0.2,3.2c1.7-1.1,3.9-4.3,3.9-5.9c0-1-0.8-1.7-1.8-1.7
				C680.1,230.3,679.4,230.8,678.9,231.6z"/>
		</g>
	</g>
	<g transform="matrix(0.7425,0,0,0.7425,0,0)">
		<line vector-effect="none" class="st3" x1="721.5" y1="231.2" x2="721.5" y2="257.9"/>
	</g>
	<g transform="matrix(0.7425,0,0,0.7425,0,0)">
		<g class="st1">
			<path d="M721.3,231.3c0-2.9,4.1-5.6,7.3-5.6c2.1,0,3.6,1.1,3.6,2.8c0,2.8-4.1,5.6-7.4,5.6C722.8,234.1,721.3,233.1,721.3,231.3z"
				/>
		</g>
	</g>
	<g transform="matrix(0.7425,0,0,0.7425,0,0)">
		<line vector-effect="none" class="st3" x1="755.2" y1="227.2" x2="755.2" y2="253.9"/>
	</g>
	<g transform="matrix(0.7425,0,0,0.7425,0,0)">
		<g class="st1">
			<path d="M755,227.3c0-2.9,4.1-5.6,7.3-5.6c2.1,0,3.6,1.1,3.6,2.8c0,2.8-4.1,5.6-7.4,5.6C756.6,230.1,755,229.1,755,227.3z"/>
		</g>
	</g>
	<g transform="matrix(0.7425,0,0,0.7425,0,0)">
		<g class="st1">
			<path d="M745.5,212.5h1l-0.2,10.1c0.6-1.1,1.6-1.6,3-1.6c1.9,0,3.6,1.3,3.6,3.1c-0.1,1.2-0.8,2.8-2.8,4.3l-4.5,3.3V212.5z
				 M746.4,223.6c-0.1,1.2-0.2,2.3-0.2,3.1c0,1.6,0.1,2.6,0.2,3.2c1.7-1.1,3.9-4.3,3.9-5.9c0-1-0.8-1.7-1.8-1.7
				C747.6,222.3,746.9,222.8,746.4,223.6z"/>
		</g>
	</g>
	<g transform="matrix(0.7425,0,0,0.7425,0,0)">
		<line vector-effect="none" class="st3" x1="789.2" y1="223.2" x2="789.2" y2="249.9"/>
	</g>
	<g transform="matrix(0.7425,0,0,0.7425,0,0)">
		<g class="st1">
			<path d="M789,223.3c0-2.9,4.1-5.6,7.3-5.6c2.1,0,3.6,1.1,3.6,2.8c0,2.8-4.1,5.6-7.4,5.6C790.6,226.1,789,225.1,789,223.3z"/>
		</g>
	</g>
	<g transform="matrix(0.7425,0,0,0.7425,0,0)">
		<g class="st1">
			<path d="M779.5,208.5h1l-0.2,10.1c0.6-1.1,1.6-1.6,3-1.6c1.9,0,3.6,1.3,3.6,3.1c-0.1,1.2-0.8,2.8-2.8,4.3l-4.5,3.3V208.5z
				 M780.4,219.6c-0.1,1.2-0.2,2.3-0.2,3.1c0,1.6,0.1,2.6,0.2,3.2c1.7-1.1,3.9-4.3,3.9-5.9c0-1-0.8-1.7-1.8-1.7
				C781.6,218.3,780.9,218.8,780.4,219.6z"/>
		</g>
	</g>
	<g transform="matrix(0.7425,0,0,0.7425,0,0)">
		<line vector-effect="none" class="st3" x1="835" y1="219.2" x2="835" y2="245.9"/>
	</g>
	<g transform="matrix(0.7425,0,0,0.7425,0,0)">
		<g class="st1">
			<path d="M834.7,219.3c0-2.9,4.1-5.6,7.3-5.6c2.1,0,3.6,1.1,3.6,2.8c0,2.8-4.1,5.6-7.4,5.6C836.3,222.1,834.7,221.1,834.7,219.3z"
				/>
		</g>
	</g>
	<g transform="matrix(0.7425,0,0,0.7425,0,0)">
		<g class="st1">
			<path d="M825.2,204.5h1l-0.2,10.1c0.6-1.1,1.6-1.6,3-1.6c1.9,0,3.6,1.3,3.6,3.1c-0.1,1.2-0.8,2.8-2.8,4.3l-4.5,3.3V204.5z
				 M826.2,215.6c-0.1,1.2-0.2,2.3-0.2,3.1c0,1.6,0.1,2.6,0.2,3.2c1.7-1.1,3.9-4.3,3.9-5.9c0-1-0.8-1.7-1.8-1.7
				C827.3,214.3,826.7,214.8,826.2,215.6z"/>
		</g>
	</g>
	<g transform="matrix(0.7425,0,0,0.7425,0,0)">
		<line vector-effect="none" class="st0" x1="865.5" y1="213.9" x2="882.5" y2="213.9"/>
	</g>
	<g transform="matrix(0.7425,0,0,0.7425,0,0)">
		<line vector-effect="none" class="st3" x1="868.8" y1="215.2" x2="868.8" y2="241.9"/>
	</g>
	<g transform="matrix(0.7425,0,0,0.7425,0,0)">
		<g class="st1">
			<path d="M868.5,215.3c0-2.9,4.1-5.6,7.3-5.6c2.1,0,3.6,1.1,3.6,2.8c0,2.8-4.1,5.6-7.4,5.6C870.1,218.1,868.5,217.1,868.5,215.3z"
				/>
		</g>
	</g>
	<g transform="matrix(0.7425,0,0,0.7425,0,0)">
		<line vector-effect="none" class="st0" x1="899.2" y1="213.9" x2="916.2" y2="213.9"/>
	</g>
	<g transform="matrix(0.7425,0,0,0.7425,0,0)">
		<line vector-effect="none" class="st3" x1="902.5" y1="211.2" x2="902.5" y2="237.9"/>
	</g>
	<g transform="matrix(0.7425,0,0,0.7425,0,0)">
		<g class="st1">
			<path d="M902.3,211.3c0-2.9,4.1-5.6,7.3-5.6c2.1,0,3.6,1.1,3.6,2.8c0,2.8-4.1,5.6-7.4,5.6C903.8,214.1,902.3,213.1,902.3,211.3z"
				/>
		</g>
	</g>
	<g transform="matrix(0.7425,0,0,0.7425,0,0)">
		<g class="st1">
			<path d="M890.7,196.5h1l-0.2,10.1c0.6-1.1,1.6-1.6,3-1.6c1.9,0,3.6,1.3,3.6,3.1c-0.1,1.2-0.8,2.8-2.8,4.3l-4.5,3.3V196.5z
				 M891.7,207.6c-0.1,1.2-0.2,2.3-0.2,3.1c0,1.6,0.1,2.6,0.2,3.2c1.7-1.1,3.9-4.3,3.9-5.9c0-1-0.8-1.7-1.8-1.7
				C892.8,206.3,892.2,206.8,891.7,207.6z"/>
		</g>
	</g>
	<g transform="matrix(0.7425,0,0,0.7425,0,0)">
		<line vector-effect="none" class="st0" x1="933" y1="213.9" x2="950" y2="213.9"/>
	</g>
	<g transform="matrix(0.7425,0,0,0.7425,0,0)">
		<line vector-effect="none" class="st0" x1="933" y1="205.9" x2="950" y2="205.9"/>
	</g>
	<g transform="matrix(0.7425,0,0,0.7425,0,0)">
		<line vector-effect="none" class="st3" x1="936.2" y1="207.2" x2="936.2" y2="237.9"/>
	</g>
	<g transform="matrix(0.7425,0,0,0.7425,0,0)">
		<g class="st1">
			<path d="M936,207.3c0-2.9,4.1-5.6,7.3-5.6c2.1,0,3.6,1.1,3.6,2.8c0,2.8-4.1,5.6-7.4,5.6C937.6,210.1,936,209.1,936,207.3z"/>
		</g>
	</g>
	<g transform="matrix(0.7425,0,0,0.7425,0,0)">
		<g class="st1">
			<path d="M924.5,192.5h1l-0.2,10.1c0.6-1.1,1.6-1.6,3-1.6c1.9,0,3.6,1.3,3.6,3.1c-0.1,1.2-0.8,2.8-2.8,4.3l-4.5,3.3V192.5z
				 M925.4,203.6c-0.1,1.2-0.2,2.3-0.2,3.1c0,1.6,0.1,2.6,0.2,3.2c1.7-1.1,3.9-4.3,3.9-5.9c0-1-0.8-1.7-1.8-1.7
				C926.6,202.3,925.9,202.8,925.4,203.6z"/>
		</g>
	</g>
	<g transform="matrix(0.7425,0,0,0.7425,0,0)">
		<line vector-effect="none" class="st0" x1="43" y1="363.7" x2="60" y2="363.7"/>
	</g>
	<g transform="matrix(0.7425,0,0,0.7425,0,0)">
		<line vector-effect="none" class="st0" x1="43" y1="355.7" x2="60" y2="355.7"/>
	</g>
	<g transform="matrix(0.7425,0,0,0.7425,0,0)">
		<line vector-effect="none" class="st3" x1="46.2" y1="352.9" x2="46.2" y2="387.7"/>
	</g>
	<g transform="matrix(0.7425,0,0,0.7425,0,0)">
		<g class="st1">
			<path d="M46,353c0-2.9,4.1-5.6,7.3-5.6c2.1,0,3.6,1.1,3.6,2.8c0,2.8-4.1,5.6-7.4,5.6C47.6,355.8,46,354.8,46,353z"/>
		</g>
	</g>
	<g transform="matrix(0.7425,0,0,0.7425,0,0)">
		<line vector-effect="none" class="st0" x1="90.2" y1="363.7" x2="107.2" y2="363.7"/>
	</g>
	<g transform="matrix(0.7425,0,0,0.7425,0,0)">
		<line vector-effect="none" class="st3" x1="93.5" y1="360.9" x2="93.5" y2="387.7"/>
	</g>
	<g transform="matrix(0.7425,0,0,0.7425,0,0)">
		<g class="st1">
			<path d="M93.3,361c0-2.9,4.1-5.6,7.3-5.6c2.1,0,3.6,1.1,3.6,2.8c0,2.8-4.1,5.6-7.4,5.6C94.8,363.8,93.3,362.8,93.3,361z"/>
		</g>
	</g>
	<g transform="matrix(0.7425,0,0,0.7425,0,0)">
		<g class="st1">
			<path d="M81.8,346.3h1l-0.2,10.1c0.6-1.1,1.6-1.6,3-1.6c1.9,0,3.6,1.3,3.6,3.1c-0.1,1.2-0.8,2.8-2.8,4.3l-4.5,3.3V346.3z
				 M82.7,357.4c-0.1,1.2-0.2,2.3-0.2,3.1c0,1.6,0.1,2.6,0.2,3.2c1.7-1.1,3.9-4.3,3.9-5.9c0-1-0.8-1.7-1.8-1.7
				C83.8,356.1,83.2,356.5,82.7,357.4z"/>
		</g>
	</g>
	<g transform="matrix(0.7425,0,0,0.7425,0,0)">
		<line vector-effect="none" class="st3" x1="140.8" y1="368.9" x2="140.8" y2="395.7"/>
	</g>
	<g transform="matrix(0.7425,0,0,0.7425,0,0)">
		<g class="st1">
			<path d="M140.5,369c0-2.9,4.1-5.6,7.3-5.6c2.1,0,3.6,1.1,3.6,2.8c0,2.8-4.1,5.6-7.4,5.6C142.1,371.8,140.5,370.8,140.5,369z"/>
		</g>
	</g>
	<g transform="matrix(0.7425,0,0,0.7425,0,0)">
		<g class="st1">
			<path d="M131,354.3h1l-0.2,10.1c0.6-1.1,1.6-1.6,3-1.6c1.9,0,3.6,1.3,3.6,3.1c-0.1,1.2-0.8,2.8-2.8,4.3l-4.5,3.3V354.3z
				 M131.9,365.4c-0.1,1.2-0.2,2.3-0.2,3.1c0,1.6,0.1,2.6,0.2,3.2c1.7-1.1,3.9-4.3,3.9-5.9c0-1-0.8-1.7-1.8-1.7
				C133.1,364.1,132.4,364.5,131.9,365.4z"/>
		</g>
	</g>
	<g transform="matrix(0.7425,0,0,0.7425,0,0)">
		<line vector-effect="none" class="st3" x1="188" y1="376.9" x2="188" y2="403.7"/>
	</g>
	<g transform="matrix(0.7425,0,0,0.7425,0,0)">
		<g class="st1">
			<path d="M187.7,377c0-2.9,4.1-5.6,7.3-5.6c2.1,0,3.6,1.1,3.6,2.8c0,2.8-4.1,5.6-7.4,5.6C189.3,379.8,187.7,378.8,187.7,377z"/>
		</g>
	</g>
	<g transform="matrix(0.7425,0,0,0.7425,0,0)">
		<g class="st1">
			<path d="M178.2,362.3h1l-0.2,10.1c0.6-1.1,1.6-1.6,3-1.6c1.9,0,3.6,1.3,3.6,3.1c-0.1,1.2-0.8,2.8-2.8,4.3l-4.5,3.3V362.3z
				 M179.2,373.4c-0.1,1.2-0.2,2.3-0.2,3.1c0,1.6,0.1,2.6,0.2,3.2c1.7-1.1,3.9-4.3,3.9-5.9c0-1-0.8-1.7-1.8-1.7
				C180.3,372.1,179.7,372.5,179.2,373.4z"/>
		</g>
	</g>
	<g transform="matrix(0.7425,0,0,0.7425,0,0)">
		<g class="st1">
			<path d="M254.6,379.3c3.6,0,7.3,1.9,7.3,4.3c0,2.7-3.1,4.3-7.6,4.3c-4.1,0-7.3-1.7-7.3-4.3C247,381.1,250.7,379.3,254.6,379.3z
				 M257.7,382.8c-1-1.9-2-2.7-4.2-2.7c-2,0-3.1,0.8-3.1,2.5c0,2.4,2.2,4.8,4.2,4.8c1.9,0,3.4-0.2,3.8-2
				C258.5,384.6,258.2,383.7,257.7,382.8z"/>
		</g>
	</g>
	<g transform="matrix(0.7425,0,0,0.7425,0,0)">
		<g class="st1">
			<path d="M237.5,370.3h1l-0.2,10.1c0.6-1.1,1.6-1.6,3-1.6c1.9,0,3.6,1.3,3.6,3.1c-0.1,1.2-0.8,2.8-2.8,4.3l-4.5,3.3V370.3z
				 M238.4,381.4c-0.1,1.2-0.2,2.3-0.2,3.1c0,1.6,0.1,2.6,0.2,3.2c1.7-1.1,3.9-4.3,3.9-5.9c0-1-0.8-1.7-1.8-1.7
				C239.6,380.1,238.9,380.5,238.4,381.4z"/>
		</g>
	</g>
	<g transform="matrix(0.7425,0,0,0.7425,0,0)">
		<line vector-effect="none" class="st3" x1="379.2" y1="388.9" x2="379.2" y2="415.7"/>
	</g>
	<g transform="matrix(0.7425,0,0,0.7425,0,0)">
		<g class="st1">
			<path d="M379,389c0-2.9,4.1-5.6,7.3-5.6c2.1,0,3.6,1.1,3.6,2.8c0,2.8-4.1,5.6-7.4,5.6C380.6,391.8,379,390.8,379,389z"/>
		</g>
	</g>
	<g transform="matrix(0.7425,0,0,0.7425,0,0)">
		<line vector-effect="none" class="st3" x1="426.5" y1="380.9" x2="426.5" y2="407.7"/>
	</g>
	<g transform="matrix(0.7425,0,0,0.7425,0,0)">
		<g class="st1">
			<path d="M426.2,381c0-2.9,4.1-5.6,7.3-5.6c2.1,0,3.6,1.1,3.6,2.8c0,2.8-4.1,5.6-7.4,5.6C427.8,383.8,426.2,382.8,426.2,381z"/>
		</g>
	</g>
	<g transform="matrix(0.7425,0,0,0.7425,0,0)">
		<line vector-effect="none" class="st3" x1="473.8" y1="372.9" x2="473.8" y2="399.7"/>
	</g>
	<g transform="matrix(0.7425,0,0,0.7425,0,0)">
		<g class="st1">
			<path d="M473.5,373c0-2.9,4.1-5.6,7.3-5.6c2.1,0,3.6,1.1,3.6,2.8c0,2.8-4.1,5.6-7.4,5.6C475.1,375.8,473.5,374.8,473.5,373z"/>
		</g>
	</g>
	<g transform="matrix(0.7425,0,0,0.7425,0,0)">
		<line vector-effect="none" class="st0" x1="517.8" y1="363.7" x2="534.8" y2="363.7"/>
	</g>
	<g transform="matrix(0.7425,0,0,0.7425,0,0)">
		<line vector-effect="none" class="st3" x1="521" y1="364.9" x2="521" y2="391.7"/>
	</g>
	<g transform="matrix(0.7425,0,0,0.7425,0,0)">
		<g class="st1">
			<path d="M520.8,365c0-2.9,4.1-5.6,7.3-5.6c2.1,0,3.6,1.1,3.6,2.8c0,2.8-4.1,5.6-7.4,5.6C522.3,367.8,520.8,366.8,520.8,365z"/>
		</g>
	</g>
	<g transform="matrix(0.7425,0,0,0.7425,0,0)">
		<line vector-effect="none" class="st0" x1="576.8" y1="363.7" x2="593.8" y2="363.7"/>
	</g>
	<g transform="matrix(0.7425,0,0,0.7425,0,0)">
		<line vector-effect="none" class="st0" x1="576.8" y1="355.7" x2="593.8" y2="355.7"/>
	</g>
	<g transform="matrix(0.7425,0,0,0.7425,0,0)">
		<line vector-effect="none" class="st3" x1="580" y1="356.9" x2="580" y2="387.7"/>
	</g>
	<g transform="matrix(0.7425,0,0,0.7425,0,0)">
		<g class="st1">
			<path d="M579.7,357c0-2.9,4.1-5.6,7.3-5.6c2.1,0,3.6,1.1,3.6,2.8c0,2.8-4.1,5.6-7.4,5.6C581.3,359.8,579.7,358.8,579.7,357z"/>
		</g>
	</g>
	<g transform="matrix(0.7425,0,0,0.7425,0,0)">
		<line vector-effect="none" class="st0" x1="624" y1="363.7" x2="641" y2="363.7"/>
	</g>
	<g transform="matrix(0.7425,0,0,0.7425,0,0)">
		<line vector-effect="none" class="st3" x1="627.2" y1="360.9" x2="627.2" y2="387.7"/>
	</g>
	<g transform="matrix(0.7425,0,0,0.7425,0,0)">
		<g class="st1">
			<path d="M627,361c0-2.9,4.1-5.6,7.3-5.6c2.1,0,3.6,1.1,3.6,2.8c0,2.8-4.1,5.6-7.4,5.6C628.6,363.8,627,362.8,627,361z"/>
		</g>
	</g>
	<g transform="matrix(0.7425,0,0,0.7425,0,0)">
		<line vector-effect="none" class="st0" x1="671.2" y1="363.7" x2="688.2" y2="363.7"/>
	</g>
	<g transform="matrix(0.7425,0,0,0.7425,0,0)">
		<line vector-effect="none" class="st3" x1="674.5" y1="364.9" x2="674.5" y2="391.7"/>
	</g>
	<g transform="matrix(0.7425,0,0,0.7425,0,0)">
		<g class="st1">
			<path d="M674.3,365c0-2.9,4.1-5.6,7.3-5.6c2.1,0,3.6,1.1,3.6,2.8c0,2.8-4.1,5.6-7.4,5.6C675.8,367.8,674.3,366.8,674.3,365z"/>
		</g>
	</g>
	<g transform="matrix(0.7425,0,0,0.7425,0,0)">
		<line vector-effect="none" class="st3" x1="721.8" y1="368.9" x2="721.8" y2="395.7"/>
	</g>
	<g transform="matrix(0.7425,0,0,0.7425,0,0)">
		<g class="st1">
			<path d="M721.5,369c0-2.9,4.1-5.6,7.3-5.6c2.1,0,3.6,1.1,3.6,2.8c0,2.8-4.1,5.6-7.4,5.6C723.1,371.8,721.5,370.8,721.5,369z"/>
		</g>
	</g>
	<g transform="matrix(0.7425,0,0,0.7425,0,0)">
		<line vector-effect="none" class="st3" x1="781" y1="372.9" x2="781" y2="399.7"/>
	</g>
	<g transform="matrix(0.7425,0,0,0.7425,0,0)">
		<g class="st1">
			<path d="M780.8,373c0-2.9,4.1-5.6,7.3-5.6c2.1,0,3.6,1.1,3.6,2.8c0,2.8-4.1,5.6-7.4,5.6C782.3,375.8,780.8,374.8,780.8,373z"/>
		</g>
	</g>
	<g transform="matrix(0.7425,0,0,0.7425,0,0)">
		<line vector-effect="none" class="st3" x1="828.2" y1="376.9" x2="828.2" y2="403.7"/>
	</g>
	<g transform="matrix(0.7425,0,0,0.7425,0,0)">
		<g class="st1">
			<path d="M828,377c0-2.9,4.1-5.6,7.3-5.6c2.1,0,3.6,1.1,3.6,2.8c0,2.8-4.1,5.6-7.4,5.6C829.6,379.8,828,378.8,828,377z"/>
		</g>
	</g>
	<g transform="matrix(0.7425,0,0,0.7425,0,0)">
		<line vector-effect="none" class="st3" x1="875.5" y1="380.9" x2="875.5" y2="407.7"/>
	</g>
	<g transform="matrix(0.7425,0,0,0.7425,0,0)">
		<g class="st1">
			<path d="M875.2,381c0-2.9,4.1-5.6,7.3-5.6c2.1,0,3.6,1.1,3.6,2.8c0,2.8-4.1,5.6-7.4,5.6C876.8,383.8,875.2,382.8,875.2,381z"/>
		</g>
	</g>
	<g transform="matrix(0.7425,0,0,0.7425,0,0)">
		<line vector-effect="none" class="st3" x1="922.8" y1="384.9" x2="922.8" y2="411.7"/>
	</g>
	<g transform="matrix(0.7425,0,0,0.7425,0,0)">
		<g class="st1">
			<path d="M922.5,385c0-2.9,4.1-5.6,7.3-5.6c2.1,0,3.6,1.1,3.6,2.8c0,2.8-4.1,5.6-7.4,5.6C924.1,387.8,922.5,386.8,922.5,385z"/>
		</g>
	</g>
	<g transform="matrix(0.7425,0,0,0.7425,0,0)">
		<g class="st1">
			<path d="M53.6,532.8c3.6,0,7.3,1.9,7.3,4.3c0,2.7-3.1,4.3-7.6,4.3c-4.1,0-7.3-1.7-7.3-4.3C46,534.6,49.7,532.8,53.6,532.8z
				 M56.7,536.3c-1-1.9-2-2.7-4.2-2.7c-2,0-3.1,0.8-3.1,2.5c0,2.4,2.2,4.8,4.2,4.8c1.9,0,3.4-0.2,3.8-2
				C57.5,538.1,57.2,537.2,56.7,536.3z"/>
		</g>
	</g>
	<g transform="matrix(0.7425,0,0,0.7425,0,0)">
		<line vector-effect="none" class="st3" x1="179.2" y1="538.4" x2="179.2" y2="565.2"/>
	</g>
	<g transform="matrix(0.7425,0,0,0.7425,0,0)">
		<g class="st1">
			<path d="M179,538.5c0-2.9,4.1-5.6,7.3-5.6c2.1,0,3.6,1.1,3.6,2.8c0,2.8-4.1,5.6-7.4,5.6C180.6,541.3,179,540.3,179,538.5z"/>
		</g>
	</g>
	<g transform="matrix(0.7425,0,0,0.7425,0,0)">
		<line vector-effect="none" class="st3" x1="231.2" y1="534.4" x2="231.2" y2="561.2"/>
	</g>
	<g transform="matrix(0.7425,0,0,0.7425,0,0)">
		<g class="st1">
			<path d="M231,534.5c0-2.9,4.1-5.6,7.3-5.6c2.1,0,3.6,1.1,3.6,2.8c0,2.8-4.1,5.6-7.4,5.6C232.6,537.3,231,536.3,231,534.5z"/>
		</g>
	</g>
	<g transform="matrix(0.7425,0,0,0.7425,0,0)">
		<line vector-effect="none" class="st3" x1="283" y1="530.4" x2="283" y2="557.2"/>
	</g>
	<g transform="matrix(0.7425,0,0,0.7425,0,0)">
		<g class="st1">
			<path d="M282.8,530.5c0-2.9,4.1-5.6,7.3-5.6c2.1,0,3.6,1.1,3.6,2.8c0,2.8-4.1,5.6-7.4,5.6C284.3,533.3,282.8,532.3,282.8,530.5z"
				/>
		</g>
	</g>
	<g transform="matrix(0.7425,0,0,0.7425,0,0)">
		<line vector-effect="none" class="st3" x1="334.8" y1="526.4" x2="334.8" y2="553.2"/>
	</g>
	<g transform="matrix(0.7425,0,0,0.7425,0,0)">
		<g class="st1">
			<path d="M334.5,526.5c0-2.9,4.1-5.6,7.3-5.6c2.1,0,3.6,1.1,3.6,2.8c0,2.8-4.1,5.6-7.4,5.6C336.1,529.3,334.5,528.3,334.5,526.5z"
				/>
		</g>
	</g>
	<g transform="matrix(0.7425,0,0,0.7425,0,0)">
		<line vector-effect="none" class="st3" x1="398.5" y1="522.4" x2="398.5" y2="549.2"/>
	</g>
	<g transform="matrix(0.7425,0,0,0.7425,0,0)">
		<g class="st1">
			<path d="M398.2,522.5c0-2.9,4.1-5.6,7.3-5.6c2.1,0,3.6,1.1,3.6,2.8c0,2.8-4.1,5.6-7.4,5.6C399.8,525.3,398.2,524.3,398.2,522.5z"
				/>
		</g>
	</g>
	<g transform="matrix(0.7425,0,0,0.7425,0,0)">
		<line vector-effect="none" class="st3" x1="450.2" y1="518.4" x2="450.2" y2="545.2"/>
	</g>
	<g transform="matrix(0.7425,0,0,0.7425,0,0)">
		<g class="st1">
			<path d="M450,518.5c0-2.9,4.1-5.6,7.3-5.6c2.1,0,3.6,1.1,3.6,2.8c0,2.8-4.1,5.6-7.4,5.6C451.6,521.3,450,520.3,450,518.5z"/>
		</g>
	</g>
	<g transform="matrix(0.7425,0,0,0.7425,0,0)">
		<line vector-effect="none" class="st0" x1="498.8" y1="513.2" x2="515.8" y2="513.2"/>
	</g>
	<g transform="matrix(0.7425,0,0,0.7425,0,0)">
		<line vector-effect="none" class="st3" x1="502" y1="514.4" x2="502" y2="541.2"/>
	</g>
	<g transform="matrix(0.7425,0,0,0.7425,0,0)">
		<g class="st1">
			<path d="M501.7,514.5c0-2.9,4.1-5.6,7.3-5.6c2.1,0,3.6,1.1,3.6,2.8c0,2.8-4.1,5.6-7.4,5.6C503.3,517.3,501.7,516.3,501.7,514.5z"
				/>
		</g>
	</g>
	<g transform="matrix(0.7425,0,0,0.7425,0,0)">
		<line vector-effect="none" class="st0" x1="550.5" y1="513.2" x2="567.5" y2="513.2"/>
	</g>
	<g transform="matrix(0.7425,0,0,0.7425,0,0)">
		<line vector-effect="none" class="st3" x1="553.8" y1="510.4" x2="553.8" y2="537.2"/>
	</g>
	<g transform="matrix(0.7425,0,0,0.7425,0,0)">
		<g class="st1">
			<path d="M553.5,510.5c0-2.9,4.1-5.6,7.3-5.6c2.1,0,3.6,1.1,3.6,2.8c0,2.8-4.1,5.6-7.4,5.6C555.1,513.3,553.5,512.3,553.5,510.5z"
				/>
		</g>
	</g>
	<g transform="matrix(0.7425,0,0,0.7425,0,0)">
		<line vector-effect="none" class="st0" x1="614.2" y1="513.2" x2="631.2" y2="513.2"/>
	</g>
	<g transform="matrix(0.7425,0,0,0.7425,0,0)">
		<line vector-effect="none" class="st0" x1="614.2" y1="505.2" x2="631.2" y2="505.2"/>
	</g>
	<g transform="matrix(0.7425,0,0,0.7425,0,0)">
		<line vector-effect="none" class="st3" x1="617.5" y1="506.4" x2="617.5" y2="537.2"/>
	</g>
	<g transform="matrix(0.7425,0,0,0.7425,0,0)">
		<g class="st1">
			<path d="M617.2,506.5c0-2.9,4.1-5.6,7.3-5.6c2.1,0,3.6,1.1,3.6,2.8c0,2.8-4.1,5.6-7.4,5.6C618.8,509.3,617.2,508.3,617.2,506.5z"
				/>
		</g>
	</g>
	<g transform="matrix(0.7425,0,0,0.7425,0,0)">
		<line vector-effect="none" class="st0" x1="666" y1="513.2" x2="683" y2="513.2"/>
	</g>
	<g transform="matrix(0.7425,0,0,0.7425,0,0)">
		<line vector-effect="none" class="st3" x1="669.2" y1="514.4" x2="669.2" y2="541.2"/>
	</g>
	<g transform="matrix(0.7425,0,0,0.7425,0,0)">
		<g class="st1">
			<path d="M669,514.5c0-2.9,4.1-5.6,7.3-5.6c2.1,0,3.6,1.1,3.6,2.8c0,2.8-4.1,5.6-7.4,5.6C670.6,517.3,669,516.3,669,514.5z"/>
		</g>
	</g>
	<g transform="matrix(0.7425,0,0,0.7425,0,0)">
		<line vector-effect="none" class="st3" x1="721" y1="522.4" x2="721" y2="549.2"/>
	</g>
	<g transform="matrix(0.7425,0,0,0.7425,0,0)">
		<g class="st1">
			<path d="M720.8,522.5c0-2.9,4.1-5.6,7.3-5.6c2.1,0,3.6,1.1,3.6,2.8c0,2.8-4.1,5.6-7.4,5.6C722.3,525.3,720.8,524.3,720.8,522.5z"
				/>
		</g>
	</g>
	<g transform="matrix(0.7425,0,0,0.7425,0,0)">
		<line vector-effect="none" class="st3" x1="772.8" y1="530.4" x2="772.8" y2="557.2"/>
	</g>
	<g transform="matrix(0.7425,0,0,0.7425,0,0)">
		<g class="st1">
			<path d="M772.5,530.5c0-2.9,4.1-5.6,7.3-5.6c2.1,0,3.6,1.1,3.6,2.8c0,2.8-4.1,5.6-7.4,5.6C774.1,533.3,772.5,532.3,772.5,530.5z"
				/>
		</g>
	</g>
	<g transform="matrix(0.7425,0,0,0.7425,0,0)">
		<g class="st1">
			<path d="M844.1,532.8c3.6,0,7.3,1.9,7.3,4.3c0,2.7-3.1,4.3-7.6,4.3c-4.1,0-7.3-1.7-7.3-4.3C836.5,534.6,840.2,532.8,844.1,532.8z
				 M847.2,536.3c-1-1.9-2-2.7-4.2-2.7c-2,0-3.1,0.8-3.1,2.5c0,2.4,2.2,4.8,4.2,4.8c1.9,0,3.4-0.2,3.8-2
				C848,538.1,847.7,537.2,847.2,536.3z"/>
		</g>
	</g>
</g>
</svg>
